<?xml version="1.0" encoding="UTF-8" standalone="no"?>
<!DOCTYPE svg PUBLIC "-//W3C//DTD SVG 1.1//EN"
 "http://www.w3.org/Graphics/SVG/1.1/DTD/svg11.dtd">
<!-- Generated by graphviz version 2.43.0 (0)
 -->
<!-- Title: MouseAxisSettingsDialog::calculateStartAccelerationMultiplier Pages: 1 -->
<svg width="308pt" height="116pt"
 viewBox="0.00 0.00 308.00 115.50" xmlns="http://www.w3.org/2000/svg" xmlns:xlink="http://www.w3.org/1999/xlink">
<g id="graph0" class="graph" transform="scale(1 1) rotate(0) translate(4 111.5)">
<title>MouseAxisSettingsDialog::calculateStartAccelerationMultiplier</title>
<polygon fill="white" stroke="transparent" points="-4,4 -4,-111.5 304,-111.5 304,4 -4,4"/>
<!-- Node1 -->
<g id="node1" class="node">
<title>Node1</title>
<g id="a_node1"><a xlink:title=" ">
<polygon fill="#bfbfbf" stroke="black" points="0,-39 0,-80 137,-80 137,-39 0,-39"/>
<text text-anchor="start" x="8" y="-68" font-family="Helvetica,sans-Serif" font-size="10.00">MouseAxisSettingsDialog</text>
<text text-anchor="start" x="8" y="-57" font-family="Helvetica,sans-Serif" font-size="10.00">::calculateStartAcceleration</text>
<text text-anchor="middle" x="68.5" y="-46" font-family="Helvetica,sans-Serif" font-size="10.00">Multiplier</text>
</a>
</g>
</g>
<!-- Node2 -->
<g id="node2" class="node">
<title>Node2</title>
<g id="a_node2"><a xlink:href="$classJoyAxis.html#aae658e2a7b83ce73ce3d7d1ed13eabc6" xlink:title=" ">
<polygon fill="white" stroke="black" points="173.5,-88 173.5,-107 299.5,-107 299.5,-88 173.5,-88"/>
<text text-anchor="middle" x="236.5" y="-95" font-family="Helvetica,sans-Serif" font-size="10.00">JoyAxis::getNAxisButton</text>
</a>
</g>
</g>
<!-- Node1&#45;&gt;Node2 -->
<g id="edge1" class="edge">
<title>Node1&#45;&gt;Node2</title>
<path fill="none" stroke="midnightblue" d="M137.02,-74.96C152.63,-78.53 168.99,-82.27 183.8,-85.66"/>
<polygon fill="midnightblue" stroke="midnightblue" points="183.24,-89.13 193.77,-87.95 184.81,-82.3 183.24,-89.13"/>
</g>
<!-- Node3 -->
<g id="node3" class="node">
<title>Node3</title>
<g id="a_node3"><a xlink:href="$classJoyAxis.html#ad51d55d2a95190468209f7481eae8639" xlink:title=" ">
<polygon fill="white" stroke="black" points="174,-50 174,-69 299,-69 299,-50 174,-50"/>
<text text-anchor="middle" x="236.5" y="-57" font-family="Helvetica,sans-Serif" font-size="10.00">JoyAxis::getPAxisButton</text>
</a>
</g>
</g>
<!-- Node1&#45;&gt;Node3 -->
<g id="edge2" class="edge">
<title>Node1&#45;&gt;Node3</title>
<path fill="none" stroke="midnightblue" d="M137.02,-59.5C145.79,-59.5 154.81,-59.5 163.65,-59.5"/>
<polygon fill="midnightblue" stroke="midnightblue" points="163.92,-63 173.92,-59.5 163.92,-56 163.92,-63"/>
</g>
<!-- Node4 -->
<g id="node4" class="node">
<title>Node4</title>
<g id="a_node4"><a xlink:href="$classJoyButton.html#ac9b85925d5c58f33b715a6db361012e2" xlink:title=" ">
<polygon fill="white" stroke="black" points="173,-0.5 173,-30.5 300,-30.5 300,-0.5 173,-0.5"/>
<text text-anchor="start" x="181" y="-18.5" font-family="Helvetica,sans-Serif" font-size="10.00">JoyButton::getStartAccel</text>
<text text-anchor="middle" x="236.5" y="-7.5" font-family="Helvetica,sans-Serif" font-size="10.00">Multiplier</text>
</a>
</g>
</g>
<!-- Node1&#45;&gt;Node4 -->
<g id="edge3" class="edge">
<title>Node1&#45;&gt;Node4</title>
<path fill="none" stroke="midnightblue" d="M137.02,-41.6C147.49,-38.83 158.31,-35.96 168.77,-33.19"/>
<polygon fill="midnightblue" stroke="midnightblue" points="169.89,-36.51 178.66,-30.57 168.1,-29.74 169.89,-36.51"/>
</g>
</g>
</svg>
