<?xml version="1.0" encoding="UTF-8" standalone="no"?>
<!DOCTYPE svg PUBLIC "-//W3C//DTD SVG 1.1//EN"
 "http://www.w3.org/Graphics/SVG/1.1/DTD/svg11.dtd">
<!-- Generated by graphviz version 2.43.0 (0)
 -->
<!-- Title: MainWindow::controllerMapOpening Pages: 1 -->
<svg width="733pt" height="384pt"
 viewBox="0.00 0.00 733.00 383.50" xmlns="http://www.w3.org/2000/svg" xmlns:xlink="http://www.w3.org/1999/xlink">
<g id="graph0" class="graph" transform="scale(1 1) rotate(0) translate(4 379.5)">
<title>MainWindow::controllerMapOpening</title>
<polygon fill="white" stroke="transparent" points="-4,4 -4,-379.5 729,-379.5 729,4 -4,4"/>
<!-- Node1 -->
<g id="node1" class="node">
<title>Node1</title>
<g id="a_node1"><a xlink:title=" ">
<polygon fill="#bfbfbf" stroke="black" points="0,-173 0,-203 137,-203 137,-173 0,-173"/>
<text text-anchor="start" x="8" y="-191" font-family="Helvetica,sans-Serif" font-size="10.00">MainWindow::controllerMap</text>
<text text-anchor="middle" x="68.5" y="-180" font-family="Helvetica,sans-Serif" font-size="10.00">Opening</text>
</a>
</g>
</g>
<!-- Node2 -->
<g id="node2" class="node">
<title>Node2</title>
<g id="a_node2"><a xlink:href="$classCommandLineUtility.html#a95c17e6603579cb9f08067f49bf776a6" xlink:title=" ">
<polygon fill="white" stroke="black" points="204,-345 204,-375 309,-375 309,-345 204,-345"/>
<text text-anchor="start" x="212" y="-363" font-family="Helvetica,sans-Serif" font-size="10.00">CommandLineUtility</text>
<text text-anchor="middle" x="256.5" y="-352" font-family="Helvetica,sans-Serif" font-size="10.00">::getControllerID</text>
</a>
</g>
</g>
<!-- Node1&#45;&gt;Node2 -->
<g id="edge1" class="edge">
<title>Node1&#45;&gt;Node2</title>
<path fill="none" stroke="midnightblue" d="M75.86,-203.14C89.26,-233.16 123.3,-300.39 173,-336 179.39,-340.58 186.65,-344.29 194.15,-347.3"/>
<polygon fill="midnightblue" stroke="midnightblue" points="193.14,-350.66 203.73,-350.75 195.51,-344.07 193.14,-350.66"/>
</g>
<!-- Node3 -->
<g id="node3" class="node">
<title>Node3</title>
<g id="a_node3"><a xlink:href="$classCommandLineUtility.html#a96db1e38b25c4f371e7d634011ea2312" xlink:title=" ">
<polygon fill="white" stroke="black" points="200,-296 200,-326 313,-326 313,-296 200,-296"/>
<text text-anchor="start" x="208" y="-314" font-family="Helvetica,sans-Serif" font-size="10.00">CommandLineUtility</text>
<text text-anchor="middle" x="256.5" y="-303" font-family="Helvetica,sans-Serif" font-size="10.00">::getControllerNumber</text>
</a>
</g>
</g>
<!-- Node1&#45;&gt;Node3 -->
<g id="edge2" class="edge">
<title>Node1&#45;&gt;Node3</title>
<path fill="none" stroke="midnightblue" d="M81.2,-203.08C98.81,-224.78 134.23,-264.64 173,-287 178.43,-290.13 184.29,-292.88 190.31,-295.29"/>
<polygon fill="midnightblue" stroke="midnightblue" points="189.25,-298.63 199.85,-298.8 191.67,-292.06 189.25,-298.63"/>
</g>
<!-- Node4 -->
<g id="node4" class="node">
<title>Node4</title>
<g id="a_node4"><a xlink:href="$classCommandLineUtility.html#a78e62266b72b04743ab1fadb09f8d6e6" xlink:title=" ">
<polygon fill="white" stroke="black" points="192.5,-247 192.5,-277 320.5,-277 320.5,-247 192.5,-247"/>
<text text-anchor="start" x="200.5" y="-265" font-family="Helvetica,sans-Serif" font-size="10.00">CommandLineUtility</text>
<text text-anchor="middle" x="256.5" y="-254" font-family="Helvetica,sans-Serif" font-size="10.00">::getControllerOptionsList</text>
</a>
</g>
</g>
<!-- Node1&#45;&gt;Node4 -->
<g id="edge3" class="edge">
<title>Node1&#45;&gt;Node4</title>
<path fill="none" stroke="midnightblue" d="M97.49,-203.1C118,-213.77 146.73,-227.92 173,-238 178.35,-240.05 183.96,-242.03 189.62,-243.91"/>
<polygon fill="midnightblue" stroke="midnightblue" points="188.57,-247.25 199.16,-246.98 190.71,-240.59 188.57,-247.25"/>
</g>
<!-- Node5 -->
<g id="node5" class="node">
<title>Node5</title>
<g id="a_node5"><a xlink:href="$classControllerOptionsInfo.html#a28cff551d988d490d3ab64103046c597" xlink:title=" ">
<polygon fill="white" stroke="black" points="202,-198 202,-228 311,-228 311,-198 202,-198"/>
<text text-anchor="start" x="210" y="-216" font-family="Helvetica,sans-Serif" font-size="10.00">ControllerOptionsInfo</text>
<text text-anchor="middle" x="256.5" y="-205" font-family="Helvetica,sans-Serif" font-size="10.00">::hasControllerID</text>
</a>
</g>
</g>
<!-- Node1&#45;&gt;Node5 -->
<g id="edge4" class="edge">
<title>Node1&#45;&gt;Node5</title>
<path fill="none" stroke="midnightblue" d="M137.18,-197.1C154.98,-199.49 174.12,-202.06 191.71,-204.43"/>
<polygon fill="midnightblue" stroke="midnightblue" points="191.48,-207.93 201.86,-205.79 192.42,-200.99 191.48,-207.93"/>
</g>
<!-- Node6 -->
<g id="node6" class="node">
<title>Node6</title>
<g id="a_node6"><a xlink:href="$classControllerOptionsInfo.html#a6c801fa0fe45421d984e189dc9503c59" xlink:title=" ">
<polygon fill="white" stroke="black" points="199,-149 199,-179 314,-179 314,-149 199,-149"/>
<text text-anchor="start" x="207" y="-167" font-family="Helvetica,sans-Serif" font-size="10.00">ControllerOptionsInfo</text>
<text text-anchor="middle" x="256.5" y="-156" font-family="Helvetica,sans-Serif" font-size="10.00">::hasControllerNumber</text>
</a>
</g>
</g>
<!-- Node1&#45;&gt;Node6 -->
<g id="edge5" class="edge">
<title>Node1&#45;&gt;Node6</title>
<path fill="none" stroke="midnightblue" d="M137.18,-179.27C153.95,-177.1 171.91,-174.79 188.65,-172.63"/>
<polygon fill="midnightblue" stroke="midnightblue" points="189.42,-176.06 198.89,-171.31 188.52,-169.11 189.42,-176.06"/>
</g>
<!-- Node7 -->
<g id="node7" class="node">
<title>Node7</title>
<g id="a_node7"><a xlink:href="$classMainWindow.html#a74c96dbe750f2f038777b8a0034da63f" xlink:title=" ">
<polygon fill="white" stroke="black" points="173,-100 173,-130 340,-130 340,-100 173,-100"/>
<text text-anchor="start" x="181" y="-118" font-family="Helvetica,sans-Serif" font-size="10.00">MainWindow::openGameController</text>
<text text-anchor="middle" x="256.5" y="-107" font-family="Helvetica,sans-Serif" font-size="10.00">MappingWindow</text>
</a>
</g>
</g>
<!-- Node1&#45;&gt;Node7 -->
<g id="edge6" class="edge">
<title>Node1&#45;&gt;Node7</title>
<path fill="none" stroke="midnightblue" d="M99.36,-172.79C119.79,-162.73 147.64,-149.67 173,-140 179.2,-137.64 185.73,-135.34 192.29,-133.16"/>
<polygon fill="midnightblue" stroke="midnightblue" points="193.44,-136.47 201.88,-130.06 191.28,-129.81 193.44,-136.47"/>
</g>
<!-- Node10 -->
<g id="node10" class="node">
<title>Node10</title>
<g id="a_node10"><a xlink:href="$classMainWindow.html#a3e3d0a74572c6cbe2d9b8c1014deb291" xlink:title="Select appropriate tab that has a device with the specified GUID.">
<polygon fill="white" stroke="black" points="183.5,-51 183.5,-81 329.5,-81 329.5,-51 183.5,-51"/>
<text text-anchor="start" x="191.5" y="-69" font-family="Helvetica,sans-Serif" font-size="10.00">MainWindow::selectController</text>
<text text-anchor="middle" x="256.5" y="-58" font-family="Helvetica,sans-Serif" font-size="10.00">JoyTab</text>
</a>
</g>
</g>
<!-- Node1&#45;&gt;Node10 -->
<g id="edge9" class="edge">
<title>Node1&#45;&gt;Node10</title>
<path fill="none" stroke="midnightblue" d="M81.6,-172.93C99.43,-151.68 134.82,-113.04 173,-91 176.72,-88.85 180.64,-86.87 184.67,-85.05"/>
<polygon fill="midnightblue" stroke="midnightblue" points="186.34,-88.15 194.23,-81.08 183.66,-81.68 186.34,-88.15"/>
</g>
<!-- Node15 -->
<g id="node15" class="node">
<title>Node15</title>
<g id="a_node15"><a xlink:href="$classCommandLineUtility.html#ad5ca0b7e558e3fe2fcd450d882e79008" xlink:title=" ">
<polygon fill="white" stroke="black" points="200.5,-2 200.5,-32 312.5,-32 312.5,-2 200.5,-2"/>
<text text-anchor="start" x="208.5" y="-20" font-family="Helvetica,sans-Serif" font-size="10.00">CommandLineUtility</text>
<text text-anchor="middle" x="256.5" y="-9" font-family="Helvetica,sans-Serif" font-size="10.00">::shouldMapController</text>
</a>
</g>
</g>
<!-- Node1&#45;&gt;Node15 -->
<g id="edge14" class="edge">
<title>Node1&#45;&gt;Node15</title>
<path fill="none" stroke="midnightblue" d="M76.17,-172.66C89.87,-142.91 124.09,-77.23 173,-42 178.47,-38.06 184.56,-34.74 190.9,-31.93"/>
<polygon fill="midnightblue" stroke="midnightblue" points="192.31,-35.13 200.3,-28.18 189.71,-28.63 192.31,-35.13"/>
</g>
<!-- Node8 -->
<g id="node8" class="node">
<title>Node8</title>
<g id="a_node8"><a xlink:href="$classJoyTabWidget.html#a2b7d0077726b2b2bf406be8a4fa631af" xlink:title=" ">
<polygon fill="white" stroke="black" points="388,-147.5 388,-166.5 522,-166.5 522,-147.5 388,-147.5"/>
<text text-anchor="middle" x="455" y="-154.5" font-family="Helvetica,sans-Serif" font-size="10.00">JoyTabWidget::getJoystick</text>
</a>
</g>
</g>
<!-- Node7&#45;&gt;Node8 -->
<g id="edge7" class="edge">
<title>Node7&#45;&gt;Node8</title>
<path fill="none" stroke="midnightblue" d="M327.89,-130.04C351.47,-135.09 377.4,-140.63 399.58,-145.37"/>
<polygon fill="midnightblue" stroke="midnightblue" points="398.97,-148.82 409.48,-147.48 400.43,-141.97 398.97,-148.82"/>
</g>
<!-- Node9 -->
<g id="node9" class="node">
<title>Node9</title>
<g id="a_node9"><a xlink:href="$classMainWindow.html#a4e2ec77808f2673635ad744be66e02dc" xlink:title=" ">
<polygon fill="white" stroke="black" points="376,-98 376,-128 534,-128 534,-98 376,-98"/>
<text text-anchor="start" x="384" y="-116" font-family="Helvetica,sans-Serif" font-size="10.00">MainWindow::propogateMapping</text>
<text text-anchor="middle" x="455" y="-105" font-family="Helvetica,sans-Serif" font-size="10.00">Update</text>
</a>
</g>
</g>
<!-- Node7&#45;&gt;Node9 -->
<g id="edge8" class="edge">
<title>Node7&#45;&gt;Node9</title>
<path fill="none" stroke="midnightblue" d="M340.26,-114.16C348.62,-114.07 357.12,-113.99 365.53,-113.9"/>
<polygon fill="midnightblue" stroke="midnightblue" points="365.76,-117.4 375.72,-113.8 365.69,-110.4 365.76,-117.4"/>
</g>
<!-- Node11 -->
<g id="node11" class="node">
<title>Node11</title>
<g id="a_node11"><a xlink:href="$classInputDevice.html#a197e76d4113e8258e6637981830dd219" xlink:title=" ">
<polygon fill="white" stroke="black" points="385.5,-57.5 385.5,-76.5 524.5,-76.5 524.5,-57.5 385.5,-57.5"/>
<text text-anchor="middle" x="455" y="-64.5" font-family="Helvetica,sans-Serif" font-size="10.00">InputDevice::getJoyNumber</text>
</a>
</g>
</g>
<!-- Node10&#45;&gt;Node11 -->
<g id="edge10" class="edge">
<title>Node10&#45;&gt;Node11</title>
<path fill="none" stroke="midnightblue" d="M329.55,-66.37C344.33,-66.44 359.95,-66.52 374.96,-66.6"/>
<polygon fill="midnightblue" stroke="midnightblue" points="375.21,-70.1 385.23,-66.65 375.24,-63.1 375.21,-70.1"/>
</g>
<!-- Node12 -->
<g id="node12" class="node">
<title>Node12</title>
<g id="a_node12"><a xlink:href="$classInputDevice.html#a894f087cdfe06136fade922ff053d522" xlink:title=" ">
<polygon fill="white" stroke="black" points="379,-19.5 379,-38.5 531,-38.5 531,-19.5 379,-19.5"/>
<text text-anchor="middle" x="455" y="-26.5" font-family="Helvetica,sans-Serif" font-size="10.00">InputDevice::getStringIdentifier</text>
</a>
</g>
</g>
<!-- Node10&#45;&gt;Node12 -->
<g id="edge11" class="edge">
<title>Node10&#45;&gt;Node12</title>
<path fill="none" stroke="midnightblue" d="M329.55,-52.43C350.54,-48.48 373.25,-44.2 393.46,-40.4"/>
<polygon fill="midnightblue" stroke="midnightblue" points="394.28,-43.81 403.46,-38.52 392.99,-36.93 394.28,-43.81"/>
</g>
<!-- Node13 -->
<g id="node13" class="node">
<title>Node13</title>
<g id="a_node13"><a xlink:href="$classInputDevice.html#a3184377c2e251949cae1a0937aaef78c" xlink:title=" ">
<polygon fill="white" stroke="black" points="580.5,-38.5 580.5,-57.5 714.5,-57.5 714.5,-38.5 580.5,-38.5"/>
<text text-anchor="middle" x="647.5" y="-45.5" font-family="Helvetica,sans-Serif" font-size="10.00">InputDevice::getSDLName</text>
</a>
</g>
</g>
<!-- Node12&#45;&gt;Node13 -->
<g id="edge12" class="edge">
<title>Node12&#45;&gt;Node13</title>
<path fill="none" stroke="midnightblue" d="M531.02,-36.48C543.83,-37.76 557.16,-39.09 570.02,-40.37"/>
<polygon fill="midnightblue" stroke="midnightblue" points="569.91,-43.88 580.2,-41.39 570.6,-36.91 569.91,-43.88"/>
</g>
<!-- Node14 -->
<g id="node14" class="node">
<title>Node14</title>
<g id="a_node14"><a xlink:href="$classInputDevice.html#ad2d9a268b89898a0a29b56d7af63de9e" xlink:title=" ">
<polygon fill="white" stroke="black" points="570,-0.5 570,-19.5 725,-19.5 725,-0.5 570,-0.5"/>
<text text-anchor="middle" x="647.5" y="-7.5" font-family="Helvetica,sans-Serif" font-size="10.00">InputDevice::getUniqueIDString</text>
</a>
</g>
</g>
<!-- Node12&#45;&gt;Node14 -->
<g id="edge13" class="edge">
<title>Node12&#45;&gt;Node14</title>
<path fill="none" stroke="midnightblue" d="M531.02,-21.52C540.52,-20.57 550.31,-19.59 559.97,-18.63"/>
<polygon fill="midnightblue" stroke="midnightblue" points="560.38,-22.11 569.99,-17.63 559.69,-15.14 560.38,-22.11"/>
</g>
</g>
</svg>
