<?xml version="1.0" encoding="UTF-8" standalone="no"?>
<!DOCTYPE svg PUBLIC "-//W3C//DTD SVG 1.1//EN"
 "http://www.w3.org/Graphics/SVG/1.1/DTD/svg11.dtd">
<!-- Generated by graphviz version 2.43.0 (0)
 -->
<!-- Title: Calibration::getMinVal Pages: 1 -->
<svg width="631pt" height="66pt"
 viewBox="0.00 0.00 631.00 66.00" xmlns="http://www.w3.org/2000/svg" xmlns:xlink="http://www.w3.org/1999/xlink">
<g id="graph0" class="graph" transform="scale(1 1) rotate(0) translate(4 62)">
<title>Calibration::getMinVal</title>
<polygon fill="white" stroke="transparent" points="-4,4 -4,-62 627,-62 627,4 -4,4"/>
<!-- Node1 -->
<g id="node1" class="node">
<title>Node1</title>
<g id="a_node1"><a xlink:title=" ">
<polygon fill="#bfbfbf" stroke="black" points="512,-19.5 512,-38.5 623,-38.5 623,-19.5 512,-19.5"/>
<text text-anchor="middle" x="567.5" y="-26.5" font-family="Helvetica,sans-Serif" font-size="10.00">Calibration::getMinVal</text>
</a>
</g>
</g>
<!-- Node2 -->
<g id="node2" class="node">
<title>Node2</title>
<g id="a_node2"><a xlink:href="$classCalibration.html#ab764fc9b8f7d08e04b7453636010862d" xlink:title="Prepares second step of calibration &#45; moving into top&#45;left corner &#45; negative values.">
<polygon fill="white" stroke="black" points="334,-19.5 334,-38.5 476,-38.5 476,-19.5 334,-19.5"/>
<text text-anchor="middle" x="405" y="-26.5" font-family="Helvetica,sans-Serif" font-size="10.00">Calibration::startSecondStep</text>
</a>
</g>
</g>
<!-- Node1&#45;&gt;Node2 -->
<g id="edge1" class="edge">
<title>Node1&#45;&gt;Node2</title>
<path fill="none" stroke="midnightblue" d="M501.62,-29C493.24,-29 484.62,-29 476.15,-29"/>
<polygon fill="midnightblue" stroke="midnightblue" points="501.71,-32.5 511.71,-29 501.71,-25.5 501.71,-32.5"/>
</g>
<!-- Node3 -->
<g id="node3" class="node">
<title>Node3</title>
<g id="a_node3"><a xlink:href="$classCalibration.html#a784c4f6d1e1ec695a5fcea99c0813934" xlink:title="Prepares first step of calibration &#45; finding center.">
<polygon fill="white" stroke="black" points="164,-38.5 164,-57.5 298,-57.5 298,-38.5 164,-38.5"/>
<text text-anchor="middle" x="231" y="-45.5" font-family="Helvetica,sans-Serif" font-size="10.00">Calibration::startCalibration</text>
</a>
</g>
</g>
<!-- Node2&#45;&gt;Node3 -->
<g id="edge2" class="edge">
<title>Node2&#45;&gt;Node3</title>
<path fill="none" stroke="midnightblue" d="M323.33,-37.91C314.91,-38.84 306.42,-39.78 298.19,-40.69"/>
<polygon fill="midnightblue" stroke="midnightblue" points="323.99,-41.36 333.54,-36.78 323.22,-34.4 323.99,-41.36"/>
</g>
<!-- Node4 -->
<g id="node4" class="node">
<title>Node4</title>
<g id="a_node4"><a xlink:href="$classCalibration.html#a27a8dcaa8bc1ae3ebf2da993b29a4e2e" xlink:title=" ">
<polygon fill="white" stroke="black" points="7,-38.5 7,-57.5 121,-57.5 121,-38.5 7,-38.5"/>
<text text-anchor="middle" x="64" y="-45.5" font-family="Helvetica,sans-Serif" font-size="10.00">Calibration::Calibration</text>
</a>
</g>
</g>
<!-- Node3&#45;&gt;Node4 -->
<g id="edge3" class="edge">
<title>Node3&#45;&gt;Node4</title>
<path fill="none" stroke="midnightblue" d="M153.79,-48C142.78,-48 131.62,-48 121.1,-48"/>
<polygon fill="midnightblue" stroke="midnightblue" points="153.84,-51.5 163.84,-48 153.84,-44.5 153.84,-51.5"/>
</g>
<!-- Node5 -->
<g id="node5" class="node">
<title>Node5</title>
<g id="a_node5"><a xlink:href="$classCalibration.html#a7395207c632a902aba620462d1ff584c" xlink:title="Prepares third step of calibration &#45; moving into bottom&#45;right corner &#45; postive values.">
<polygon fill="white" stroke="black" points="0,-0.5 0,-19.5 128,-19.5 128,-0.5 0,-0.5"/>
<text text-anchor="middle" x="64" y="-7.5" font-family="Helvetica,sans-Serif" font-size="10.00">Calibration::startLastStep</text>
</a>
</g>
</g>
<!-- Node3&#45;&gt;Node5 -->
<g id="edge4" class="edge">
<title>Node3&#45;&gt;Node5</title>
<path fill="none" stroke="midnightblue" d="M178.35,-36.1C155.15,-30.76 128.16,-24.55 106.34,-19.52"/>
<polygon fill="midnightblue" stroke="midnightblue" points="177.83,-39.58 188.36,-38.41 179.4,-32.76 177.83,-39.58"/>
</g>
<!-- Node5&#45;&gt;Node2 -->
<g id="edge5" class="edge">
<title>Node5&#45;&gt;Node2</title>
<path fill="none" stroke="midnightblue" d="M138.2,-14.1C196.15,-17.35 276.59,-21.86 333.76,-25.06"/>
<polygon fill="midnightblue" stroke="midnightblue" points="138.19,-10.6 128.01,-13.53 137.8,-17.59 138.19,-10.6"/>
</g>
</g>
</svg>
