<?xml version="1.0" encoding="UTF-8" standalone="no"?>
<!DOCTYPE svg PUBLIC "-//W3C//DTD SVG 1.1//EN"
 "http://www.w3.org/Graphics/SVG/1.1/DTD/svg11.dtd">
<!-- Generated by graphviz version 2.43.0 (0)
 -->
<!-- Title: JoyControlStick::calculateYDiagonalDeadZone Pages: 1 -->
<svg width="501pt" height="88pt"
 viewBox="0.00 0.00 501.00 88.00" xmlns="http://www.w3.org/2000/svg" xmlns:xlink="http://www.w3.org/1999/xlink">
<g id="graph0" class="graph" transform="scale(1 1) rotate(0) translate(4 84)">
<title>JoyControlStick::calculateYDiagonalDeadZone</title>
<polygon fill="white" stroke="transparent" points="-4,4 -4,-84 497,-84 497,4 -4,4"/>
<!-- Node1 -->
<g id="node1" class="node">
<title>Node1</title>
<g id="a_node1"><a xlink:title=" ">
<polygon fill="#bfbfbf" stroke="black" points="0,-24.5 0,-54.5 131,-54.5 131,-24.5 0,-24.5"/>
<text text-anchor="start" x="8" y="-42.5" font-family="Helvetica,sans-Serif" font-size="10.00">JoyControlStick::calculate</text>
<text text-anchor="middle" x="65.5" y="-31.5" font-family="Helvetica,sans-Serif" font-size="10.00">YDiagonalDeadZone</text>
</a>
</g>
</g>
<!-- Node2 -->
<g id="node2" class="node">
<title>Node2</title>
<g id="a_node2"><a xlink:href="$classJoyControlStick.html#a9a9a23ba2fd1d4304e759a2de2985a69" xlink:title="Calculate the current direction of the stick based on the values of the X and Y axes and the current ...">
<polygon fill="white" stroke="black" points="173,-49.5 173,-79.5 304,-79.5 304,-49.5 173,-49.5"/>
<text text-anchor="start" x="181" y="-67.5" font-family="Helvetica,sans-Serif" font-size="10.00">JoyControlStick::calculate</text>
<text text-anchor="middle" x="238.5" y="-56.5" font-family="Helvetica,sans-Serif" font-size="10.00">StickDirection</text>
</a>
</g>
</g>
<!-- Node1&#45;&gt;Node2 -->
<g id="edge1" class="edge">
<title>Node1&#45;&gt;Node2</title>
<path fill="none" stroke="midnightblue" d="M131.15,-48.95C141.47,-50.46 152.22,-52.03 162.75,-53.57"/>
<polygon fill="midnightblue" stroke="midnightblue" points="162.36,-57.05 172.76,-55.04 163.37,-50.13 162.36,-57.05"/>
</g>
<!-- Node4 -->
<g id="node4" class="node">
<title>Node4</title>
<g id="a_node4"><a xlink:href="$classJoyControlStick.html#af1d63f69041b08e3e1e086768a4c22cf" xlink:title=" ">
<polygon fill="white" stroke="black" points="167,-0.5 167,-30.5 310,-30.5 310,-0.5 167,-0.5"/>
<text text-anchor="start" x="175" y="-18.5" font-family="Helvetica,sans-Serif" font-size="10.00">JoyControlStick::getDiagonal</text>
<text text-anchor="middle" x="238.5" y="-7.5" font-family="Helvetica,sans-Serif" font-size="10.00">ZoneAngles</text>
</a>
</g>
</g>
<!-- Node1&#45;&gt;Node4 -->
<g id="edge3" class="edge">
<title>Node1&#45;&gt;Node4</title>
<path fill="none" stroke="midnightblue" d="M131.15,-30.43C139.51,-29.25 148.15,-28.04 156.73,-26.84"/>
<polygon fill="midnightblue" stroke="midnightblue" points="157.34,-30.28 166.76,-25.43 156.37,-23.35 157.34,-30.28"/>
</g>
<!-- Node3 -->
<g id="node3" class="node">
<title>Node3</title>
<g id="a_node3"><a xlink:href="$classJoyAxis.html#a0580ab0df546a1c03b4e8f755ad00272" xlink:title=" ">
<polygon fill="white" stroke="black" points="346,-55 346,-74 493,-74 493,-55 346,-55"/>
<text text-anchor="middle" x="419.5" y="-62" font-family="Helvetica,sans-Serif" font-size="10.00">JoyAxis::getCurrentRawValue</text>
</a>
</g>
</g>
<!-- Node2&#45;&gt;Node3 -->
<g id="edge2" class="edge">
<title>Node2&#45;&gt;Node3</title>
<path fill="none" stroke="midnightblue" d="M304.12,-64.5C314.37,-64.5 325.09,-64.5 335.68,-64.5"/>
<polygon fill="midnightblue" stroke="midnightblue" points="335.77,-68 345.77,-64.5 335.77,-61 335.77,-68"/>
</g>
</g>
</svg>
