<?xml version="1.0" encoding="UTF-8" standalone="no"?>
<!DOCTYPE svg PUBLIC "-//W3C//DTD SVG 1.1//EN"
 "http://www.w3.org/Graphics/SVG/1.1/DTD/svg11.dtd">
<!-- Generated by graphviz version 2.43.0 (0)
 -->
<!-- Title: SetNamesDialog::SetNamesDialog Pages: 1 -->
<svg width="706pt" height="118pt"
 viewBox="0.00 0.00 706.00 117.72" xmlns="http://www.w3.org/2000/svg" xmlns:xlink="http://www.w3.org/1999/xlink">
<g id="graph0" class="graph" transform="scale(1 1) rotate(0) translate(4 113.72)">
<title>SetNamesDialog::SetNamesDialog</title>
<polygon fill="white" stroke="transparent" points="-4,4 -4,-113.72 702,-113.72 702,4 -4,4"/>
<!-- Node1 -->
<g id="node1" class="node">
<title>Node1</title>
<g id="a_node1"><a xlink:title=" ">
<polygon fill="#bfbfbf" stroke="black" points="0,-71 0,-101 143,-101 143,-71 0,-71"/>
<text text-anchor="start" x="8" y="-89" font-family="Helvetica,sans-Serif" font-size="10.00">SetNamesDialog::SetNames</text>
<text text-anchor="middle" x="71.5" y="-78" font-family="Helvetica,sans-Serif" font-size="10.00">Dialog</text>
</a>
</g>
</g>
<!-- Node2 -->
<g id="node2" class="node">
<title>Node2</title>
<g id="a_node2"><a xlink:href="$classInputDevice.html#a1c4c65d9e509a5c3bde064871d7e1849" xlink:title=" ">
<polygon fill="white" stroke="black" points="549,-76.5 549,-95.5 698,-95.5 698,-76.5 549,-76.5"/>
<text text-anchor="middle" x="623.5" y="-83.5" font-family="Helvetica,sans-Serif" font-size="10.00">InputDevice::getJoystick_sets</text>
</a>
</g>
</g>
<!-- Node1&#45;&gt;Node2 -->
<g id="edge1" class="edge">
<title>Node1&#45;&gt;Node2</title>
<path fill="none" stroke="midnightblue" d="M143.19,-94.65C230.3,-104.02 382.78,-116.21 513,-105 531,-103.45 550.48,-100.49 567.95,-97.36"/>
<polygon fill="midnightblue" stroke="midnightblue" points="568.78,-100.77 577.97,-95.51 567.51,-93.89 568.78,-100.77"/>
</g>
<!-- Node3 -->
<g id="node3" class="node">
<title>Node3</title>
<g id="a_node3"><a xlink:href="$classSetNamesDialog.html#ae528a4531307d5d5ddcd09427fcbfa19" xlink:title=" ">
<polygon fill="white" stroke="black" points="179,-49 179,-79 337,-79 337,-49 179,-49"/>
<text text-anchor="start" x="187" y="-67" font-family="Helvetica,sans-Serif" font-size="10.00">SetNamesDialog::saveSetName</text>
<text text-anchor="middle" x="258" y="-56" font-family="Helvetica,sans-Serif" font-size="10.00">Changes</text>
</a>
</g>
</g>
<!-- Node1&#45;&gt;Node3 -->
<g id="edge2" class="edge">
<title>Node1&#45;&gt;Node3</title>
<path fill="none" stroke="midnightblue" d="M143.04,-77.59C151.45,-76.59 160.11,-75.55 168.73,-74.53"/>
<polygon fill="midnightblue" stroke="midnightblue" points="169.29,-77.98 178.81,-73.32 168.46,-71.03 169.29,-77.98"/>
</g>
<!-- Node4 -->
<g id="node4" class="node">
<title>Node4</title>
<g id="a_node4"><a xlink:href="$classSetJoystick.html#a102a4bbc464b9dfc5a8227c0fb4611c8" xlink:title=" ">
<polygon fill="white" stroke="black" points="386.5,-76.5 386.5,-95.5 499.5,-95.5 499.5,-76.5 386.5,-76.5"/>
<text text-anchor="middle" x="443" y="-83.5" font-family="Helvetica,sans-Serif" font-size="10.00">SetJoystick::getName</text>
</a>
</g>
</g>
<!-- Node3&#45;&gt;Node4 -->
<g id="edge3" class="edge">
<title>Node3&#45;&gt;Node4</title>
<path fill="none" stroke="midnightblue" d="M337.14,-73.39C350.17,-74.96 363.57,-76.57 376.25,-78.1"/>
<polygon fill="midnightblue" stroke="midnightblue" points="375.9,-81.58 386.25,-79.3 376.74,-74.63 375.9,-81.58"/>
</g>
<!-- Node5 -->
<g id="node5" class="node">
<title>Node5</title>
<g id="a_node5"><a xlink:href="$classInputDevice.html#aee4515edc1daad9be16eb4e25862ae25" xlink:title=" ">
<polygon fill="white" stroke="black" points="373,-38.5 373,-57.5 513,-57.5 513,-38.5 373,-38.5"/>
<text text-anchor="middle" x="443" y="-45.5" font-family="Helvetica,sans-Serif" font-size="10.00">InputDevice::getSetJoystick</text>
</a>
</g>
</g>
<!-- Node3&#45;&gt;Node5 -->
<g id="edge4" class="edge">
<title>Node3&#45;&gt;Node5</title>
<path fill="none" stroke="midnightblue" d="M337.14,-57.17C345.57,-56.43 354.15,-55.68 362.59,-54.94"/>
<polygon fill="midnightblue" stroke="midnightblue" points="363.14,-58.41 372.79,-54.05 362.53,-51.44 363.14,-58.41"/>
</g>
<!-- Node6 -->
<g id="node6" class="node">
<title>Node6</title>
<g id="a_node6"><a xlink:href="$classSetJoystick.html#ab34fbf5679a1d7e50368a40c0dd8d6e1" xlink:title=" ">
<polygon fill="white" stroke="black" points="386.5,-0.5 386.5,-19.5 499.5,-19.5 499.5,-0.5 386.5,-0.5"/>
<text text-anchor="middle" x="443" y="-7.5" font-family="Helvetica,sans-Serif" font-size="10.00">SetJoystick::setName</text>
</a>
</g>
</g>
<!-- Node3&#45;&gt;Node6 -->
<g id="edge6" class="edge">
<title>Node3&#45;&gt;Node6</title>
<path fill="none" stroke="midnightblue" d="M306.89,-48.96C327.23,-42.66 351.23,-35.34 373,-29 380.63,-26.78 388.76,-24.48 396.66,-22.28"/>
<polygon fill="midnightblue" stroke="midnightblue" points="397.78,-25.6 406.49,-19.57 395.92,-18.86 397.78,-25.6"/>
</g>
<!-- Node5&#45;&gt;Node2 -->
<g id="edge5" class="edge">
<title>Node5&#45;&gt;Node2</title>
<path fill="none" stroke="midnightblue" d="M489.04,-57.59C513.02,-62.69 542.7,-69.01 567.97,-74.39"/>
<polygon fill="midnightblue" stroke="midnightblue" points="567.27,-77.82 577.78,-76.48 568.73,-70.97 567.27,-77.82"/>
</g>
</g>
</svg>
