<?xml version="1.0" encoding="UTF-8" standalone="no"?>
<!DOCTYPE svg PUBLIC "-//W3C//DTD SVG 1.1//EN"
 "http://www.w3.org/Graphics/SVG/1.1/DTD/svg11.dtd">
<!-- Generated by graphviz version 2.43.0 (0)
 -->
<!-- Title: GameControllerMappingDialog::axisAssign Pages: 1 -->
<svg width="533pt" height="121pt"
 viewBox="0.00 0.00 533.00 120.50" xmlns="http://www.w3.org/2000/svg" xmlns:xlink="http://www.w3.org/1999/xlink">
<g id="graph0" class="graph" transform="scale(1 1) rotate(0) translate(4 116.5)">
<title>GameControllerMappingDialog::axisAssign</title>
<polygon fill="white" stroke="transparent" points="-4,4 -4,-116.5 529,-116.5 529,4 -4,4"/>
<!-- Node1 -->
<g id="node1" class="node">
<title>Node1</title>
<g id="a_node1"><a xlink:title=" ">
<polygon fill="#bfbfbf" stroke="black" points="0,-24.5 0,-54.5 149,-54.5 149,-24.5 0,-24.5"/>
<text text-anchor="start" x="8" y="-42.5" font-family="Helvetica,sans-Serif" font-size="10.00">GameControllerMappingDialog</text>
<text text-anchor="middle" x="74.5" y="-31.5" font-family="Helvetica,sans-Serif" font-size="10.00">::axisAssign</text>
</a>
</g>
</g>
<!-- Node2 -->
<g id="node2" class="node">
<title>Node2</title>
<g id="a_node2"><a xlink:href="$classGameControllerMappingDialog.html#a1a77b5b6f04786c2d21ad2ffa4ddab42" xlink:title=" ">
<polygon fill="white" stroke="black" points="185,-49.5 185,-79.5 334,-79.5 334,-49.5 185,-49.5"/>
<text text-anchor="start" x="193" y="-67.5" font-family="Helvetica,sans-Serif" font-size="10.00">GameControllerMappingDialog</text>
<text text-anchor="middle" x="259.5" y="-56.5" font-family="Helvetica,sans-Serif" font-size="10.00">::generateSDLMappingString</text>
</a>
</g>
</g>
<!-- Node1&#45;&gt;Node2 -->
<g id="edge1" class="edge">
<title>Node1&#45;&gt;Node2</title>
<path fill="none" stroke="midnightblue" d="M149.14,-49.56C157.57,-50.71 166.2,-51.89 174.74,-53.06"/>
<polygon fill="midnightblue" stroke="midnightblue" points="174.33,-56.53 184.71,-54.42 175.28,-49.6 174.33,-56.53"/>
</g>
<!-- Node6 -->
<g id="node6" class="node">
<title>Node6</title>
<g id="a_node6"><a xlink:href="$classGameControllerMappingDialog.html#aef612f6ebc54a017003c46f8b4145870" xlink:title=" ">
<polygon fill="white" stroke="black" points="185,-0.5 185,-30.5 334,-30.5 334,-0.5 185,-0.5"/>
<text text-anchor="start" x="193" y="-18.5" font-family="Helvetica,sans-Serif" font-size="10.00">GameControllerMappingDialog</text>
<text text-anchor="middle" x="259.5" y="-7.5" font-family="Helvetica,sans-Serif" font-size="10.00">::getEventTriggerAxesLocal</text>
</a>
</g>
</g>
<!-- Node1&#45;&gt;Node6 -->
<g id="edge5" class="edge">
<title>Node1&#45;&gt;Node6</title>
<path fill="none" stroke="midnightblue" d="M149.14,-29.84C157.57,-28.74 166.2,-27.61 174.74,-26.48"/>
<polygon fill="midnightblue" stroke="midnightblue" points="175.25,-29.95 184.71,-25.18 174.34,-23.01 175.25,-29.95"/>
</g>
<!-- Node3 -->
<g id="node3" class="node">
<title>Node3</title>
<g id="a_node3"><a xlink:href="$classInputDevice.html#a3184377c2e251949cae1a0937aaef78c" xlink:title=" ">
<polygon fill="white" stroke="black" points="380.5,-93 380.5,-112 514.5,-112 514.5,-93 380.5,-93"/>
<text text-anchor="middle" x="447.5" y="-100" font-family="Helvetica,sans-Serif" font-size="10.00">InputDevice::getSDLName</text>
</a>
</g>
</g>
<!-- Node2&#45;&gt;Node3 -->
<g id="edge2" class="edge">
<title>Node2&#45;&gt;Node3</title>
<path fill="none" stroke="midnightblue" d="M334.01,-79.52C352.6,-83.32 372.28,-87.34 389.89,-90.93"/>
<polygon fill="midnightblue" stroke="midnightblue" points="389.5,-94.43 400,-93 390.9,-87.57 389.5,-94.43"/>
</g>
<!-- Node4 -->
<g id="node4" class="node">
<title>Node4</title>
<g id="a_node4"><a xlink:href="$classInputDevice.html#a9621d2cced8732848d09941f3448c2ee" xlink:title=" ">
<polygon fill="white" stroke="black" points="375,-55 375,-74 520,-74 520,-55 375,-55"/>
<text text-anchor="middle" x="447.5" y="-62" font-family="Helvetica,sans-Serif" font-size="10.00">InputDevice::getSDLPlatform</text>
</a>
</g>
</g>
<!-- Node2&#45;&gt;Node4 -->
<g id="edge3" class="edge">
<title>Node2&#45;&gt;Node4</title>
<path fill="none" stroke="midnightblue" d="M334.01,-64.5C344.06,-64.5 354.44,-64.5 364.63,-64.5"/>
<polygon fill="midnightblue" stroke="midnightblue" points="364.74,-68 374.74,-64.5 364.74,-61 364.74,-68"/>
</g>
<!-- Node5 -->
<g id="node5" class="node">
<title>Node5</title>
<g id="a_node5"><a xlink:href="$classInputDevice.html#ad2d9a268b89898a0a29b56d7af63de9e" xlink:title=" ">
<polygon fill="white" stroke="black" points="370,-17 370,-36 525,-36 525,-17 370,-17"/>
<text text-anchor="middle" x="447.5" y="-24" font-family="Helvetica,sans-Serif" font-size="10.00">InputDevice::getUniqueIDString</text>
</a>
</g>
</g>
<!-- Node2&#45;&gt;Node5 -->
<g id="edge4" class="edge">
<title>Node2&#45;&gt;Node5</title>
<path fill="none" stroke="midnightblue" d="M334.01,-49.48C352.6,-45.68 372.28,-41.66 389.89,-38.07"/>
<polygon fill="midnightblue" stroke="midnightblue" points="390.9,-41.43 400,-36 389.5,-34.57 390.9,-41.43"/>
</g>
</g>
</svg>
