<?xml version="1.0" encoding="UTF-8" standalone="no"?>
<!DOCTYPE svg PUBLIC "-//W3C//DTD SVG 1.1//EN"
 "http://www.w3.org/Graphics/SVG/1.1/DTD/svg11.dtd">
<!-- Generated by graphviz version 2.43.0 (0)
 -->
<!-- Title: ButtonEditDialog::keyReleaseEvent Pages: 1 -->
<svg width="877pt" height="537pt"
 viewBox="0.00 0.00 877.00 536.50" xmlns="http://www.w3.org/2000/svg" xmlns:xlink="http://www.w3.org/1999/xlink">
<g id="graph0" class="graph" transform="scale(1 1) rotate(0) translate(4 532.5)">
<title>ButtonEditDialog::keyReleaseEvent</title>
<polygon fill="white" stroke="transparent" points="-4,4 -4,-532.5 873,-532.5 873,4 -4,4"/>
<!-- Node1 -->
<g id="node1" class="node">
<title>Node1</title>
<g id="a_node1"><a xlink:title=" ">
<polygon fill="#bfbfbf" stroke="black" points="0,-196.5 0,-226.5 146,-226.5 146,-196.5 0,-196.5"/>
<text text-anchor="start" x="8" y="-214.5" font-family="Helvetica,sans-Serif" font-size="10.00">ButtonEditDialog::keyRelease</text>
<text text-anchor="middle" x="73" y="-203.5" font-family="Helvetica,sans-Serif" font-size="10.00">Event</text>
</a>
</g>
</g>
<!-- Node2 -->
<g id="node2" class="node">
<title>Node2</title>
<g id="a_node2"><a xlink:href="$classBaseEventHandler.html#a9a014e472ec57408d16b8b5eed964e90" xlink:title=" ">
<polygon fill="white" stroke="black" points="182.5,-462 182.5,-481 337.5,-481 337.5,-462 182.5,-462"/>
<text text-anchor="middle" x="260" y="-469" font-family="Helvetica,sans-Serif" font-size="10.00">BaseEventHandler::getIdentifier</text>
</a>
</g>
</g>
<!-- Node1&#45;&gt;Node2 -->
<g id="edge1" class="edge">
<title>Node1&#45;&gt;Node2</title>
<path fill="none" stroke="midnightblue" d="M76.15,-226.68C83.01,-269.32 108.44,-391.08 182,-452.5 184.03,-454.2 186.2,-455.75 188.46,-457.16"/>
<polygon fill="midnightblue" stroke="midnightblue" points="187.13,-460.42 197.61,-461.98 190.39,-454.23 187.13,-460.42"/>
</g>
<!-- Node3 -->
<g id="node3" class="node">
<title>Node3</title>
<g id="a_node3"><a xlink:href="$classAntKeyMapper.html#acd08c44a2501edcfdb1ef8a68d534b1b" xlink:title=" ">
<polygon fill="white" stroke="black" points="191.5,-424 191.5,-443 328.5,-443 328.5,-424 191.5,-424"/>
<text text-anchor="middle" x="260" y="-431" font-family="Helvetica,sans-Serif" font-size="10.00">AntKeyMapper::getInstance</text>
</a>
</g>
</g>
<!-- Node1&#45;&gt;Node3 -->
<g id="edge2" class="edge">
<title>Node1&#45;&gt;Node3</title>
<path fill="none" stroke="midnightblue" d="M82.61,-226.75C99.51,-255.98 139.13,-321.18 182,-368.5 198.85,-387.1 220.99,-405.26 237.2,-417.64"/>
<polygon fill="midnightblue" stroke="midnightblue" points="235.43,-420.68 245.53,-423.88 239.63,-415.08 235.43,-420.68"/>
</g>
<!-- Node6 -->
<g id="node6" class="node">
<title>Node6</title>
<g id="a_node6"><a xlink:href="$classEventHandlerFactory.html#a90ce153a19fbb91128bd52eb083ce271" xlink:title=" ">
<polygon fill="white" stroke="black" points="205.5,-328.5 205.5,-358.5 314.5,-358.5 314.5,-328.5 205.5,-328.5"/>
<text text-anchor="start" x="213.5" y="-346.5" font-family="Helvetica,sans-Serif" font-size="10.00">EventHandlerFactory</text>
<text text-anchor="middle" x="260" y="-335.5" font-family="Helvetica,sans-Serif" font-size="10.00">::getInstance</text>
</a>
</g>
</g>
<!-- Node1&#45;&gt;Node6 -->
<g id="edge5" class="edge">
<title>Node1&#45;&gt;Node6</title>
<path fill="none" stroke="midnightblue" d="M95.22,-226.64C128.17,-250.15 191.74,-295.51 229.25,-322.27"/>
<polygon fill="midnightblue" stroke="midnightblue" points="227.57,-325.37 237.74,-328.33 231.63,-319.67 227.57,-325.37"/>
</g>
<!-- Node9 -->
<g id="node9" class="node">
<title>Node9</title>
<g id="a_node9"><a xlink:href="$classEventHandlerFactory.html#a4c13007f0ece5bf881080c9c04f1f20d" xlink:title=" ">
<polygon fill="white" stroke="black" points="586.5,-328.5 586.5,-358.5 695.5,-358.5 695.5,-328.5 586.5,-328.5"/>
<text text-anchor="start" x="594.5" y="-346.5" font-family="Helvetica,sans-Serif" font-size="10.00">EventHandlerFactory</text>
<text text-anchor="middle" x="641" y="-335.5" font-family="Helvetica,sans-Serif" font-size="10.00">::handler</text>
</a>
</g>
</g>
<!-- Node1&#45;&gt;Node9 -->
<g id="edge12" class="edge">
<title>Node1&#45;&gt;Node9</title>
<path fill="none" stroke="midnightblue" d="M133.16,-226.56C148.95,-230.2 166.06,-233.82 182,-236.5 343.32,-263.66 395.56,-216.14 548,-275.5 574.48,-285.81 600.1,-305.84 617.55,-321.5"/>
<polygon fill="midnightblue" stroke="midnightblue" points="615.24,-324.13 624.97,-328.34 619.99,-318.99 615.24,-324.13"/>
</g>
<!-- Node11 -->
<g id="node11" class="node">
<title>Node11</title>
<g id="a_node11"><a xlink:href="$classAntKeyMapper.html#aa5a2d74e172693019c4984f5d89ba3b0" xlink:title=" ">
<polygon fill="white" stroke="black" points="188,-196.5 188,-226.5 332,-226.5 332,-196.5 188,-196.5"/>
<text text-anchor="start" x="196" y="-214.5" font-family="Helvetica,sans-Serif" font-size="10.00">AntKeyMapper::getNativeKey</text>
<text text-anchor="middle" x="260" y="-203.5" font-family="Helvetica,sans-Serif" font-size="10.00">Mapper</text>
</a>
</g>
</g>
<!-- Node1&#45;&gt;Node11 -->
<g id="edge11" class="edge">
<title>Node1&#45;&gt;Node11</title>
<path fill="none" stroke="midnightblue" d="M146.06,-211.5C156.43,-211.5 167.18,-211.5 177.72,-211.5"/>
<polygon fill="midnightblue" stroke="midnightblue" points="177.75,-215 187.75,-211.5 177.75,-208 177.75,-215"/>
</g>
<!-- Node12 -->
<g id="node12" class="node">
<title>Node12</title>
<g id="a_node12"><a xlink:href="$classQtKeyMapperBase.html#a320ec78a9a4a978014992808ca787796" xlink:title=" ">
<polygon fill="white" stroke="black" points="383,-139 383,-158 539,-158 539,-139 383,-139"/>
<text text-anchor="middle" x="461" y="-146" font-family="Helvetica,sans-Serif" font-size="10.00">QtKeyMapperBase::returnQtKey</text>
</a>
</g>
</g>
<!-- Node1&#45;&gt;Node12 -->
<g id="edge13" class="edge">
<title>Node1&#45;&gt;Node12</title>
<path fill="none" stroke="midnightblue" d="M137.79,-196.45C152.28,-193.27 167.64,-190.1 182,-187.5 245.55,-176 317.79,-165.96 372.7,-158.94"/>
<polygon fill="midnightblue" stroke="midnightblue" points="373.26,-162.4 382.74,-157.67 372.38,-155.46 373.26,-162.4"/>
</g>
<!-- Node13 -->
<g id="node13" class="node">
<title>Node13</title>
<g id="a_node13"><a xlink:href="$classAntKeyMapper.html#afc93b666a3e8691ae48184e8093797fb" xlink:title=" ">
<polygon fill="white" stroke="black" points="191,-120 191,-139 329,-139 329,-120 191,-120"/>
<text text-anchor="middle" x="260" y="-127" font-family="Helvetica,sans-Serif" font-size="10.00">AntKeyMapper::returnQtKey</text>
</a>
</g>
</g>
<!-- Node1&#45;&gt;Node13 -->
<g id="edge14" class="edge">
<title>Node1&#45;&gt;Node13</title>
<path fill="none" stroke="midnightblue" d="M99.08,-196.26C120.55,-183.65 152.56,-165.86 182,-153.5 191.98,-149.31 202.95,-145.46 213.41,-142.13"/>
<polygon fill="midnightblue" stroke="midnightblue" points="214.7,-145.4 223.23,-139.1 212.64,-138.71 214.7,-145.4"/>
</g>
<!-- Node14 -->
<g id="node14" class="node">
<title>Node14</title>
<g id="a_node14"><a xlink:href="$classAntKeyMapper.html#a07957c1e2baac6c4266678d89dc7c3a6" xlink:title=" ">
<polygon fill="white" stroke="black" points="182,-82 182,-101 338,-101 338,-82 182,-82"/>
<text text-anchor="middle" x="260" y="-89" font-family="Helvetica,sans-Serif" font-size="10.00">AntKeyMapper::returnVirtualKey</text>
</a>
</g>
</g>
<!-- Node1&#45;&gt;Node14 -->
<g id="edge16" class="edge">
<title>Node1&#45;&gt;Node14</title>
<path fill="none" stroke="midnightblue" d="M85.86,-196.28C104.08,-173.97 141.15,-132.65 182,-110.5 186.24,-108.2 190.76,-106.17 195.41,-104.39"/>
<polygon fill="midnightblue" stroke="midnightblue" points="196.76,-107.63 205.07,-101.06 194.48,-101.01 196.76,-107.63"/>
</g>
<!-- Node16 -->
<g id="node16" class="node">
<title>Node16</title>
<g id="a_node16"><a xlink:href="$event_8cpp.html#a720e476fc47628b6581dba3eb6ce9657" xlink:title=" ">
<polygon fill="white" stroke="black" points="191,-44 191,-63 329,-63 329,-44 191,-44"/>
<text text-anchor="middle" x="260" y="-51" font-family="Helvetica,sans-Serif" font-size="10.00">X11KeyCodeToX11KeySym</text>
</a>
</g>
</g>
<!-- Node1&#45;&gt;Node16 -->
<g id="edge18" class="edge">
<title>Node1&#45;&gt;Node16</title>
<path fill="none" stroke="midnightblue" d="M81.42,-196.23C96.27,-167.32 132.54,-104.63 182,-72.5 185.19,-70.43 188.59,-68.58 192.11,-66.94"/>
<polygon fill="midnightblue" stroke="midnightblue" points="193.74,-70.05 201.68,-63.04 191.1,-63.57 193.74,-70.05"/>
</g>
<!-- Node4 -->
<g id="node4" class="node">
<title>Node4</title>
<g id="a_node4"><a xlink:href="$classAntKeyMapper.html#abe4a434636d370a750d32a14b9a139d3" xlink:title=" ">
<polygon fill="white" stroke="black" points="386,-509 386,-528 536,-528 536,-509 386,-509"/>
<text text-anchor="middle" x="461" y="-516" font-family="Helvetica,sans-Serif" font-size="10.00">AntKeyMapper::AntKeyMapper</text>
</a>
</g>
</g>
<!-- Node3&#45;&gt;Node4 -->
<g id="edge3" class="edge">
<title>Node3&#45;&gt;Node4</title>
<path fill="none" stroke="midnightblue" d="M318.75,-443.14C325.53,-445.59 332.12,-448.65 338,-452.5 360.02,-466.91 351.81,-485.36 374,-499.5 377.31,-501.61 380.83,-503.49 384.47,-505.16"/>
<polygon fill="midnightblue" stroke="midnightblue" points="383.17,-508.41 393.75,-508.91 385.79,-501.92 383.17,-508.41"/>
</g>
<!-- Node5 -->
<g id="node5" class="node">
<title>Node5</title>
<g id="a_node5"><a xlink:href="$antkeymapper_8cpp.html#a4f87707944cf82e8e59c85d48e24951c" xlink:title=" ">
<polygon fill="white" stroke="black" points="401,-471 401,-490 521,-490 521,-471 401,-471"/>
<text text-anchor="middle" x="461" y="-478" font-family="Helvetica,sans-Serif" font-size="10.00">buildEventGeneratorList</text>
</a>
</g>
</g>
<!-- Node3&#45;&gt;Node5 -->
<g id="edge4" class="edge">
<title>Node3&#45;&gt;Node5</title>
<path fill="none" stroke="midnightblue" d="M299.78,-443.05C312.01,-446.06 325.57,-449.41 338,-452.5 354.01,-456.48 357.95,-457.72 374,-461.5 384.26,-463.92 395.24,-466.41 405.8,-468.76"/>
<polygon fill="midnightblue" stroke="midnightblue" points="405.23,-472.22 415.75,-470.97 406.75,-465.39 405.23,-472.22"/>
</g>
<!-- Node7 -->
<g id="node7" class="node">
<title>Node7</title>
<g id="a_node7"><a xlink:href="$classEventHandlerFactory.html#ade5162034acc0f8683725fdb124bece0" xlink:title=" ">
<polygon fill="white" stroke="black" points="398,-421.5 398,-451.5 524,-451.5 524,-421.5 398,-421.5"/>
<text text-anchor="start" x="406" y="-439.5" font-family="Helvetica,sans-Serif" font-size="10.00">EventHandlerFactory</text>
<text text-anchor="middle" x="461" y="-428.5" font-family="Helvetica,sans-Serif" font-size="10.00">::buildEventGeneratorList</text>
</a>
</g>
</g>
<!-- Node6&#45;&gt;Node7 -->
<g id="edge6" class="edge">
<title>Node6&#45;&gt;Node7</title>
<path fill="none" stroke="midnightblue" d="M281.71,-358.57C303.67,-373.96 339.85,-397.65 374,-412.5 378.68,-414.53 383.57,-416.44 388.55,-418.22"/>
<polygon fill="midnightblue" stroke="midnightblue" points="387.61,-421.6 398.2,-421.49 389.85,-414.97 387.61,-421.6"/>
</g>
<!-- Node8 -->
<g id="node8" class="node">
<title>Node8</title>
<g id="a_node8"><a xlink:href="$classEventHandlerFactory.html#a2f843293b2ea47271fc7bd99bd871fa6" xlink:title=" ">
<polygon fill="white" stroke="black" points="403.5,-372.5 403.5,-402.5 518.5,-402.5 518.5,-372.5 403.5,-372.5"/>
<text text-anchor="start" x="411.5" y="-390.5" font-family="Helvetica,sans-Serif" font-size="10.00">EventHandlerFactory</text>
<text text-anchor="middle" x="461" y="-379.5" font-family="Helvetica,sans-Serif" font-size="10.00">::EventHandlerFactory</text>
</a>
</g>
</g>
<!-- Node6&#45;&gt;Node8 -->
<g id="edge7" class="edge">
<title>Node6&#45;&gt;Node8</title>
<path fill="none" stroke="midnightblue" d="M314.59,-355.35C338.78,-360.7 367.6,-367.07 393.18,-372.73"/>
<polygon fill="midnightblue" stroke="midnightblue" points="392.66,-376.2 403.18,-374.94 394.17,-369.36 392.66,-376.2"/>
</g>
<!-- Node6&#45;&gt;Node9 -->
<g id="edge10" class="edge">
<title>Node6&#45;&gt;Node9</title>
<path fill="none" stroke="midnightblue" d="M314.9,-343.5C383.8,-343.5 502.92,-343.5 576.25,-343.5"/>
<polygon fill="midnightblue" stroke="midnightblue" points="576.29,-347 586.29,-343.5 576.29,-340 576.29,-347"/>
</g>
<!-- Node10 -->
<g id="node10" class="node">
<title>Node10</title>
<g id="a_node10"><a xlink:href="$classEventHandlerFactory.html#afa5ca0171c70b1a24f92b5c8dd00dc92" xlink:title=" ">
<polygon fill="white" stroke="black" points="406.5,-284.5 406.5,-314.5 515.5,-314.5 515.5,-284.5 406.5,-284.5"/>
<text text-anchor="start" x="414.5" y="-302.5" font-family="Helvetica,sans-Serif" font-size="10.00">EventHandlerFactory</text>
<text text-anchor="middle" x="461" y="-291.5" font-family="Helvetica,sans-Serif" font-size="10.00">::fallBackIdentifier</text>
</a>
</g>
</g>
<!-- Node6&#45;&gt;Node10 -->
<g id="edge9" class="edge">
<title>Node6&#45;&gt;Node10</title>
<path fill="none" stroke="midnightblue" d="M314.59,-331.65C339.8,-326.08 370.05,-319.39 396.42,-313.56"/>
<polygon fill="midnightblue" stroke="midnightblue" points="397.31,-316.95 406.31,-311.37 395.79,-310.11 397.31,-316.95"/>
</g>
<!-- Node8&#45;&gt;Node9 -->
<g id="edge8" class="edge">
<title>Node8&#45;&gt;Node9</title>
<path fill="none" stroke="midnightblue" d="M518.81,-373.46C537.18,-368.92 557.66,-363.85 576.49,-359.2"/>
<polygon fill="midnightblue" stroke="midnightblue" points="577.59,-362.53 586.45,-356.74 575.91,-355.74 577.59,-362.53"/>
</g>
<!-- Node13&#45;&gt;Node12 -->
<g id="edge15" class="edge">
<title>Node13&#45;&gt;Node12</title>
<path fill="none" stroke="midnightblue" d="M329.21,-136.01C343.19,-137.35 358.1,-138.77 372.65,-140.16"/>
<polygon fill="midnightblue" stroke="midnightblue" points="372.37,-143.65 382.65,-141.12 373.03,-136.68 372.37,-143.65"/>
</g>
<!-- Node15 -->
<g id="node15" class="node">
<title>Node15</title>
<g id="a_node15"><a xlink:href="$classQtKeyMapperBase.html#a5df0f313bce11847f8495126373e7178" xlink:title=" ">
<polygon fill="white" stroke="black" points="374,-82 374,-101 548,-101 548,-82 374,-82"/>
<text text-anchor="middle" x="461" y="-89" font-family="Helvetica,sans-Serif" font-size="10.00">QtKeyMapperBase::returnVirtualKey</text>
</a>
</g>
</g>
<!-- Node14&#45;&gt;Node15 -->
<g id="edge17" class="edge">
<title>Node14&#45;&gt;Node15</title>
<path fill="none" stroke="midnightblue" d="M338.22,-91.5C346.63,-91.5 355.25,-91.5 363.84,-91.5"/>
<polygon fill="midnightblue" stroke="midnightblue" points="363.9,-95 373.9,-91.5 363.9,-88 363.9,-95"/>
</g>
<!-- Node17 -->
<g id="node17" class="node">
<title>Node17</title>
<g id="a_node17"><a xlink:href="$classX11Extras.html#a643c95dc1de8eb073a0accb41619fe83" xlink:title="Get display instance.">
<polygon fill="white" stroke="black" points="411.5,-44 411.5,-63 510.5,-63 510.5,-44 411.5,-44"/>
<text text-anchor="middle" x="461" y="-51" font-family="Helvetica,sans-Serif" font-size="10.00">X11Extras::display</text>
</a>
</g>
</g>
<!-- Node16&#45;&gt;Node17 -->
<g id="edge19" class="edge">
<title>Node16&#45;&gt;Node17</title>
<path fill="none" stroke="midnightblue" d="M329.21,-53.5C352.62,-53.5 378.61,-53.5 401.22,-53.5"/>
<polygon fill="midnightblue" stroke="midnightblue" points="401.34,-57 411.34,-53.5 401.34,-50 401.34,-57"/>
</g>
<!-- Node18 -->
<g id="node18" class="node">
<title>Node18</title>
<g id="a_node18"><a xlink:href="$classX11Extras.html#ace76277fced60e6bd6ff880030338182" xlink:title=" ">
<polygon fill="white" stroke="black" points="401.5,-6 401.5,-25 520.5,-25 520.5,-6 401.5,-6"/>
<text text-anchor="middle" x="461" y="-13" font-family="Helvetica,sans-Serif" font-size="10.00">X11Extras::getInstance</text>
</a>
</g>
</g>
<!-- Node16&#45;&gt;Node18 -->
<g id="edge20" class="edge">
<title>Node16&#45;&gt;Node18</title>
<path fill="none" stroke="midnightblue" d="M310.96,-43.96C338.05,-38.79 371.71,-32.36 400.18,-26.92"/>
<polygon fill="midnightblue" stroke="midnightblue" points="400.85,-30.36 410.02,-25.04 399.54,-23.48 400.85,-30.36"/>
</g>
<!-- Node19 -->
<g id="node19" class="node">
<title>Node19</title>
<g id="a_node19"><a xlink:href="$classX11Extras.html#ab9bcb016e23bacb0e988feb8175d2c88" xlink:title=" ">
<polygon fill="white" stroke="black" points="584,-6 584,-25 698,-25 698,-6 584,-6"/>
<text text-anchor="middle" x="641" y="-13" font-family="Helvetica,sans-Serif" font-size="10.00">X11Extras::X11Extras</text>
</a>
</g>
</g>
<!-- Node18&#45;&gt;Node19 -->
<g id="edge21" class="edge">
<title>Node18&#45;&gt;Node19</title>
<path fill="none" stroke="midnightblue" d="M520.78,-15.5C537.71,-15.5 556.29,-15.5 573.65,-15.5"/>
<polygon fill="midnightblue" stroke="midnightblue" points="573.7,-19 583.7,-15.5 573.7,-12 573.7,-19"/>
</g>
<!-- Node20 -->
<g id="node20" class="node">
<title>Node20</title>
<g id="a_node20"><a xlink:href="$classX11Extras.html#a6f63e77ed045e174546d77333672b8f0" xlink:title=" ">
<polygon fill="white" stroke="black" points="734,-0.5 734,-30.5 869,-30.5 869,-0.5 734,-0.5"/>
<text text-anchor="start" x="742" y="-18.5" font-family="Helvetica,sans-Serif" font-size="10.00">X11Extras::populateKnown</text>
<text text-anchor="middle" x="801.5" y="-7.5" font-family="Helvetica,sans-Serif" font-size="10.00">Aliases</text>
</a>
</g>
</g>
<!-- Node19&#45;&gt;Node20 -->
<g id="edge22" class="edge">
<title>Node19&#45;&gt;Node20</title>
<path fill="none" stroke="midnightblue" d="M698.33,-15.5C706.58,-15.5 715.19,-15.5 723.76,-15.5"/>
<polygon fill="midnightblue" stroke="midnightblue" points="723.79,-19 733.79,-15.5 723.79,-12 723.79,-19"/>
</g>
</g>
</svg>
