<?xml version="1.0" encoding="UTF-8" standalone="no"?>
<!DOCTYPE svg PUBLIC "-//W3C//DTD SVG 1.1//EN"
 "http://www.w3.org/Graphics/SVG/1.1/DTD/svg11.dtd">
<!-- Generated by graphviz version 2.43.0 (0)
 -->
<!-- Title: AutoProfileWatcher::syncProfileAssignment Pages: 1 -->
<svg width="561pt" height="541pt"
 viewBox="0.00 0.00 561.00 540.50" xmlns="http://www.w3.org/2000/svg" xmlns:xlink="http://www.w3.org/1999/xlink">
<g id="graph0" class="graph" transform="scale(1 1) rotate(0) translate(4 536.5)">
<title>AutoProfileWatcher::syncProfileAssignment</title>
<polygon fill="white" stroke="transparent" points="-4,4 -4,-536.5 557,-536.5 557,4 -4,4"/>
<!-- Node1 -->
<g id="node1" class="node">
<title>Node1</title>
<g id="a_node1"><a xlink:title=" ">
<polygon fill="#bfbfbf" stroke="black" points="0,-225 0,-255 122,-255 122,-225 0,-225"/>
<text text-anchor="start" x="8" y="-243" font-family="Helvetica,sans-Serif" font-size="10.00">AutoProfileWatcher</text>
<text text-anchor="middle" x="61" y="-232" font-family="Helvetica,sans-Serif" font-size="10.00">::syncProfileAssignment</text>
</a>
</g>
</g>
<!-- Node2 -->
<g id="node2" class="node">
<title>Node2</title>
<g id="a_node2"><a xlink:href="$classAutoProfileWatcher.html#a271cfd222b93c64b8c079cfa8c0279d5" xlink:title=" ">
<polygon fill="white" stroke="black" points="182.5,-402 182.5,-432 310.5,-432 310.5,-402 182.5,-402"/>
<text text-anchor="start" x="190.5" y="-420" font-family="Helvetica,sans-Serif" font-size="10.00">AutoProfileWatcher</text>
<text text-anchor="middle" x="246.5" y="-409" font-family="Helvetica,sans-Serif" font-size="10.00">::clearProfileAssignments</text>
</a>
</g>
</g>
<!-- Node1&#45;&gt;Node2 -->
<g id="edge1" class="edge">
<title>Node1&#45;&gt;Node2</title>
<path fill="none" stroke="midnightblue" d="M68.08,-255.01C80.6,-284.15 112.03,-348.71 158,-385 164.25,-389.93 171.33,-394.15 178.69,-397.75"/>
<polygon fill="midnightblue" stroke="midnightblue" points="177.57,-401.08 188.12,-401.98 180.43,-394.69 177.57,-401.08"/>
</g>
<!-- Node3 -->
<g id="node3" class="node">
<title>Node3</title>
<g id="a_node3"><a xlink:href="$classAutoProfileWatcher.html#a71d680e2e91636eb48082b830d4fa2af" xlink:title=" ">
<polygon fill="white" stroke="black" points="393,-502 393,-532 531,-532 531,-502 393,-502"/>
<text text-anchor="start" x="401" y="-520" font-family="Helvetica,sans-Serif" font-size="10.00">AutoProfileWatcher</text>
<text text-anchor="middle" x="462" y="-509" font-family="Helvetica,sans-Serif" font-size="10.00">::getAppProfileAssignments</text>
</a>
</g>
</g>
<!-- Node1&#45;&gt;Node3 -->
<g id="edge8" class="edge">
<title>Node1&#45;&gt;Node3</title>
<path fill="none" stroke="midnightblue" d="M64.63,-255.14C72,-292.89 96.5,-391.77 158,-442 221.67,-494.01 316.29,-510.71 382.82,-515.69"/>
<polygon fill="midnightblue" stroke="midnightblue" points="382.62,-519.19 392.83,-516.37 383.09,-512.2 382.62,-519.19"/>
</g>
<!-- Node6 -->
<g id="node6" class="node">
<title>Node6</title>
<g id="a_node6"><a xlink:href="$classAutoProfileWatcher.html#a711ecd2e6eae6d0270271a9598305dd4" xlink:title=" ">
<polygon fill="white" stroke="black" points="371,-355 371,-385 553,-385 553,-355 371,-355"/>
<text text-anchor="start" x="379" y="-373" font-family="Helvetica,sans-Serif" font-size="10.00">AutoProfileWatcher</text>
<text text-anchor="middle" x="462" y="-362" font-family="Helvetica,sans-Serif" font-size="10.00">::getWindowClassProfileAssignments</text>
</a>
</g>
</g>
<!-- Node1&#45;&gt;Node6 -->
<g id="edge10" class="edge">
<title>Node1&#45;&gt;Node6</title>
<path fill="none" stroke="midnightblue" d="M71.6,-255.27C86.81,-277.97 118.79,-319.99 158,-339 220.77,-369.43 299.29,-376.73 360.68,-376.66"/>
<polygon fill="midnightblue" stroke="midnightblue" points="360.79,-380.16 370.76,-376.58 360.74,-373.16 360.79,-380.16"/>
</g>
<!-- Node7 -->
<g id="node7" class="node">
<title>Node7</title>
<g id="a_node7"><a xlink:href="$classAutoProfileWatcher.html#a3eae9d4ee45d3dabd198ea94d327a857" xlink:title=" ">
<polygon fill="white" stroke="black" points="371,-306 371,-336 553,-336 553,-306 371,-306"/>
<text text-anchor="start" x="379" y="-324" font-family="Helvetica,sans-Serif" font-size="10.00">AutoProfileWatcher</text>
<text text-anchor="middle" x="462" y="-313" font-family="Helvetica,sans-Serif" font-size="10.00">::getWindowNameProfileAssignments</text>
</a>
</g>
</g>
<!-- Node1&#45;&gt;Node7 -->
<g id="edge11" class="edge">
<title>Node1&#45;&gt;Node7</title>
<path fill="none" stroke="midnightblue" d="M75.85,-255.18C93.11,-272.87 124.42,-301.19 158,-313 222.76,-335.78 300.2,-337.42 360.58,-333.55"/>
<polygon fill="midnightblue" stroke="midnightblue" points="361.15,-337.02 370.88,-332.83 360.66,-330.04 361.15,-337.02"/>
</g>
<!-- Node8 -->
<g id="node8" class="node">
<title>Node8</title>
<g id="a_node8"><a xlink:href="$classAutoProfileWatcher.html#a2e2c4fa67534c7f681d0c5455ce5e607" xlink:title=" ">
<polygon fill="white" stroke="black" points="158,-274 158,-304 335,-304 335,-274 158,-274"/>
<text text-anchor="start" x="166" y="-292" font-family="Helvetica,sans-Serif" font-size="10.00">AutoProfileWatcher</text>
<text text-anchor="middle" x="246.5" y="-281" font-family="Helvetica,sans-Serif" font-size="10.00">::convToUniqueIDAutoProfGroupSett</text>
</a>
</g>
</g>
<!-- Node1&#45;&gt;Node8 -->
<g id="edge7" class="edge">
<title>Node1&#45;&gt;Node8</title>
<path fill="none" stroke="midnightblue" d="M118.3,-255.03C137.68,-260.21 159.55,-266.05 179.61,-271.41"/>
<polygon fill="midnightblue" stroke="midnightblue" points="178.74,-274.8 189.3,-273.99 180.54,-268.03 178.74,-274.8"/>
</g>
<!-- Node9 -->
<g id="node9" class="node">
<title>Node9</title>
<g id="a_node9"><a xlink:href="$classAntiMicroSettings.html#a4f172ffefe55eeba5afff3d54182f881" xlink:title=" ">
<polygon fill="white" stroke="black" points="196.5,-225 196.5,-255 296.5,-255 296.5,-225 196.5,-225"/>
<text text-anchor="start" x="204.5" y="-243" font-family="Helvetica,sans-Serif" font-size="10.00">AntiMicroSettings::</text>
<text text-anchor="middle" x="246.5" y="-232" font-family="Helvetica,sans-Serif" font-size="10.00">getLock</text>
</a>
</g>
</g>
<!-- Node1&#45;&gt;Node9 -->
<g id="edge9" class="edge">
<title>Node1&#45;&gt;Node9</title>
<path fill="none" stroke="midnightblue" d="M122.08,-240C142.65,-240 165.64,-240 186.14,-240"/>
<polygon fill="midnightblue" stroke="midnightblue" points="186.3,-243.5 196.3,-240 186.3,-236.5 186.3,-243.5"/>
</g>
<!-- Node10 -->
<g id="node10" class="node">
<title>Node10</title>
<g id="a_node10"><a xlink:href="$classAutoProfileInfo.html#a93b07c48618aa5b09c62c2c7bac81d4b" xlink:title=" ">
<polygon fill="white" stroke="black" points="180.5,-176 180.5,-206 312.5,-206 312.5,-176 180.5,-176"/>
<text text-anchor="start" x="188.5" y="-194" font-family="Helvetica,sans-Serif" font-size="10.00">AutoProfileInfo::setDefault</text>
<text text-anchor="middle" x="246.5" y="-183" font-family="Helvetica,sans-Serif" font-size="10.00">State</text>
</a>
</g>
</g>
<!-- Node1&#45;&gt;Node10 -->
<g id="edge12" class="edge">
<title>Node1&#45;&gt;Node10</title>
<path fill="none" stroke="midnightblue" d="M118.3,-224.97C137.68,-219.79 159.55,-213.95 179.61,-208.59"/>
<polygon fill="midnightblue" stroke="midnightblue" points="180.54,-211.97 189.3,-206.01 178.74,-205.2 180.54,-211.97"/>
</g>
<!-- Node11 -->
<g id="node11" class="node">
<title>Node11</title>
<g id="a_node11"><a xlink:href="$classAutoProfileInfo.html#adbbc10755c2428a8af350dc7b2f79d22" xlink:title=" ">
<polygon fill="white" stroke="black" points="188,-137.5 188,-156.5 305,-156.5 305,-137.5 188,-137.5"/>
<text text-anchor="middle" x="246.5" y="-144.5" font-family="Helvetica,sans-Serif" font-size="10.00">AutoProfileInfo::setExe</text>
</a>
</g>
</g>
<!-- Node1&#45;&gt;Node11 -->
<g id="edge13" class="edge">
<title>Node1&#45;&gt;Node11</title>
<path fill="none" stroke="midnightblue" d="M77.19,-224.76C94.99,-207.79 126.13,-180.82 158,-166 164.25,-163.09 170.96,-160.62 177.78,-158.53"/>
<polygon fill="midnightblue" stroke="midnightblue" points="179.14,-161.78 187.82,-155.71 177.25,-155.04 179.14,-161.78"/>
</g>
<!-- Node12 -->
<g id="node12" class="node">
<title>Node12</title>
<g id="a_node12"><a xlink:href="$classAutoProfileInfo.html#a1d36951304a4e5da913e9673f2d587d8" xlink:title=" ">
<polygon fill="white" stroke="black" points="182,-88 182,-118 311,-118 311,-88 182,-88"/>
<text text-anchor="start" x="190" y="-106" font-family="Helvetica,sans-Serif" font-size="10.00">AutoProfileInfo::setPartial</text>
<text text-anchor="middle" x="246.5" y="-95" font-family="Helvetica,sans-Serif" font-size="10.00">State</text>
</a>
</g>
</g>
<!-- Node1&#45;&gt;Node12 -->
<g id="edge14" class="edge">
<title>Node1&#45;&gt;Node12</title>
<path fill="none" stroke="midnightblue" d="M70.85,-224.84C85.74,-200.68 118.12,-153.58 158,-128 162.57,-125.07 167.49,-122.47 172.59,-120.18"/>
<polygon fill="midnightblue" stroke="midnightblue" points="173.98,-123.39 181.91,-116.36 171.33,-116.91 173.98,-123.39"/>
</g>
<!-- Node13 -->
<g id="node13" class="node">
<title>Node13</title>
<g id="a_node13"><a xlink:href="$classAutoProfileInfo.html#a0c30776585e8ccc8f4023a494cdb773c" xlink:title=" ">
<polygon fill="white" stroke="black" points="178.5,-39 178.5,-69 314.5,-69 314.5,-39 178.5,-39"/>
<text text-anchor="start" x="186.5" y="-57" font-family="Helvetica,sans-Serif" font-size="10.00">AutoProfileInfo::setWindow</text>
<text text-anchor="middle" x="246.5" y="-46" font-family="Helvetica,sans-Serif" font-size="10.00">Class</text>
</a>
</g>
</g>
<!-- Node1&#45;&gt;Node13 -->
<g id="edge15" class="edge">
<title>Node1&#45;&gt;Node13</title>
<path fill="none" stroke="midnightblue" d="M66.63,-224.87C77.25,-192.7 106.54,-117.27 158,-78 161.45,-75.37 165.17,-73.02 169.07,-70.93"/>
<polygon fill="midnightblue" stroke="midnightblue" points="170.88,-73.95 178.43,-66.52 167.89,-67.62 170.88,-73.95"/>
</g>
<!-- Node14 -->
<g id="node14" class="node">
<title>Node14</title>
<g id="a_node14"><a xlink:href="$classAutoProfileInfo.html#abba6d0528f83ca5aabb4e61960bde2dc" xlink:title=" ">
<polygon fill="white" stroke="black" points="165.5,-0.5 165.5,-19.5 327.5,-19.5 327.5,-0.5 165.5,-0.5"/>
<text text-anchor="middle" x="246.5" y="-7.5" font-family="Helvetica,sans-Serif" font-size="10.00">AutoProfileInfo::setWindowName</text>
</a>
</g>
</g>
<!-- Node1&#45;&gt;Node14 -->
<g id="edge16" class="edge">
<title>Node1&#45;&gt;Node14</title>
<path fill="none" stroke="midnightblue" d="M64.17,-224.95C70.63,-185.96 93.47,-81.05 158,-29 160.06,-27.33 162.24,-25.81 164.51,-24.41"/>
<polygon fill="midnightblue" stroke="midnightblue" points="166.42,-27.36 173.64,-19.61 163.16,-21.16 166.42,-27.36"/>
</g>
<!-- Node2&#45;&gt;Node3 -->
<g id="edge2" class="edge">
<title>Node2&#45;&gt;Node3</title>
<path fill="none" stroke="midnightblue" d="M270.18,-432.06C299.91,-451.61 350.65,-484.25 371,-493 375.71,-495.02 380.63,-496.92 385.64,-498.67"/>
<polygon fill="midnightblue" stroke="midnightblue" points="384.75,-502.07 395.35,-501.9 386.96,-495.43 384.75,-502.07"/>
</g>
<!-- Node4 -->
<g id="node4" class="node">
<title>Node4</title>
<g id="a_node4"><a xlink:href="$classAutoProfileWatcher.html#a6f859d7413059615f203f5962dec15ea" xlink:title=" ">
<polygon fill="white" stroke="black" points="386,-404 386,-434 538,-434 538,-404 386,-404"/>
<text text-anchor="start" x="394" y="-422" font-family="Helvetica,sans-Serif" font-size="10.00">AutoProfileWatcher</text>
<text text-anchor="middle" x="462" y="-411" font-family="Helvetica,sans-Serif" font-size="10.00">::getDefaultProfileAssignments</text>
</a>
</g>
</g>
<!-- Node2&#45;&gt;Node4 -->
<g id="edge3" class="edge">
<title>Node2&#45;&gt;Node4</title>
<path fill="none" stroke="midnightblue" d="M310.69,-417.59C331.07,-417.78 354.01,-418 375.71,-418.2"/>
<polygon fill="midnightblue" stroke="midnightblue" points="375.88,-421.7 385.92,-418.3 375.95,-414.7 375.88,-421.7"/>
</g>
<!-- Node5 -->
<g id="node5" class="node">
<title>Node5</title>
<g id="a_node5"><a xlink:href="$classAutoProfileWatcher.html#ac8d3fde4dea7576bd0ea05913304c826" xlink:title=" ">
<polygon fill="white" stroke="black" points="407,-453 407,-483 517,-483 517,-453 407,-453"/>
<text text-anchor="start" x="415" y="-471" font-family="Helvetica,sans-Serif" font-size="10.00">AutoProfileWatcher</text>
<text text-anchor="middle" x="462" y="-460" font-family="Helvetica,sans-Serif" font-size="10.00">::getUniqeIDSetLocal</text>
</a>
</g>
</g>
<!-- Node2&#45;&gt;Node5 -->
<g id="edge4" class="edge">
<title>Node2&#45;&gt;Node5</title>
<path fill="none" stroke="midnightblue" d="M310.4,-432.03C337.68,-438.54 369.58,-446.16 396.98,-452.71"/>
<polygon fill="midnightblue" stroke="midnightblue" points="396.32,-456.15 406.86,-455.07 397.94,-449.34 396.32,-456.15"/>
</g>
<!-- Node2&#45;&gt;Node6 -->
<g id="edge5" class="edge">
<title>Node2&#45;&gt;Node6</title>
<path fill="none" stroke="midnightblue" d="M310.69,-403.09C333.28,-398.12 359.02,-392.45 382.73,-387.23"/>
<polygon fill="midnightblue" stroke="midnightblue" points="383.74,-390.59 392.76,-385.02 382.24,-383.75 383.74,-390.59"/>
</g>
<!-- Node2&#45;&gt;Node7 -->
<g id="edge6" class="edge">
<title>Node2&#45;&gt;Node7</title>
<path fill="none" stroke="midnightblue" d="M269.33,-401.84C293.3,-385.79 333.42,-360.63 371,-345 375.95,-342.94 381.12,-341.02 386.38,-339.22"/>
<polygon fill="midnightblue" stroke="midnightblue" points="387.47,-342.54 395.9,-336.13 385.31,-335.89 387.47,-342.54"/>
</g>
</g>
</svg>
