<?xml version="1.0" encoding="UTF-8" standalone="no"?>
<!DOCTYPE svg PUBLIC "-//W3C//DTD SVG 1.1//EN"
 "http://www.w3.org/Graphics/SVG/1.1/DTD/svg11.dtd">
<!-- Generated by graphviz version 2.43.0 (0)
 -->
<!-- Title: JoyControlStick::getAbsoluteRawDistance Pages: 1 -->
<svg width="509pt" height="225pt"
 viewBox="0.00 0.00 509.00 225.00" xmlns="http://www.w3.org/2000/svg" xmlns:xlink="http://www.w3.org/1999/xlink">
<g id="graph0" class="graph" transform="scale(1 1) rotate(0) translate(4 221)">
<title>JoyControlStick::getAbsoluteRawDistance</title>
<polygon fill="white" stroke="transparent" points="-4,4 -4,-221 505,-221 505,4 -4,4"/>
<!-- Node1 -->
<g id="node1" class="node">
<title>Node1</title>
<g id="a_node1"><a xlink:title="Get the raw radial distance of the stick. Values will be between 0 &#45; 32,767.">
<polygon fill="#bfbfbf" stroke="black" points="358,-88.5 358,-118.5 501,-118.5 501,-88.5 358,-88.5"/>
<text text-anchor="start" x="366" y="-106.5" font-family="Helvetica,sans-Serif" font-size="10.00">JoyControlStick::getAbsolute</text>
<text text-anchor="middle" x="429.5" y="-95.5" font-family="Helvetica,sans-Serif" font-size="10.00">RawDistance</text>
</a>
</g>
</g>
<!-- Node2 -->
<g id="node2" class="node">
<title>Node2</title>
<g id="a_node2"><a xlink:href="$classJoyControlStick.html#af6f3b4eb679d6ff36004840f1980ae14" xlink:title="Get distance of the X axis past the assigned dead zone based on the passed X and Y axis values for th...">
<polygon fill="white" stroke="black" points="182,-186.5 182,-216.5 313,-216.5 313,-186.5 182,-186.5"/>
<text text-anchor="start" x="190" y="-204.5" font-family="Helvetica,sans-Serif" font-size="10.00">JoyControlStick::calculate</text>
<text text-anchor="middle" x="247.5" y="-193.5" font-family="Helvetica,sans-Serif" font-size="10.00">XDistanceFromDeadZone</text>
</a>
</g>
</g>
<!-- Node1&#45;&gt;Node2 -->
<g id="edge1" class="edge">
<title>Node1&#45;&gt;Node2</title>
<path fill="none" stroke="midnightblue" d="M402.29,-124.97C381.52,-141.15 351.24,-162.96 322,-177.5 315.39,-180.79 308.23,-183.77 301.05,-186.43"/>
<polygon fill="midnightblue" stroke="midnightblue" points="404.63,-127.58 410.31,-118.63 400.29,-122.09 404.63,-127.58"/>
</g>
<!-- Node3 -->
<g id="node3" class="node">
<title>Node3</title>
<g id="a_node3"><a xlink:href="$classJoyControlStick.html#abc290fe1e20f35629171d32783c17f4b" xlink:title="Get distance of the Y axis past the assigned dead zone based on the passed X and Y axis values for th...">
<polygon fill="white" stroke="black" points="182,-137.5 182,-167.5 313,-167.5 313,-137.5 182,-137.5"/>
<text text-anchor="start" x="190" y="-155.5" font-family="Helvetica,sans-Serif" font-size="10.00">JoyControlStick::calculate</text>
<text text-anchor="middle" x="247.5" y="-144.5" font-family="Helvetica,sans-Serif" font-size="10.00">YDistanceFromDeadZone</text>
</a>
</g>
</g>
<!-- Node1&#45;&gt;Node3 -->
<g id="edge2" class="edge">
<title>Node1&#45;&gt;Node3</title>
<path fill="none" stroke="midnightblue" d="M363.3,-121.25C343.79,-126.56 322.6,-132.33 303.79,-137.45"/>
<polygon fill="midnightblue" stroke="midnightblue" points="364.3,-124.61 373.03,-118.6 362.46,-117.85 364.3,-124.61"/>
</g>
<!-- Node4 -->
<g id="node4" class="node">
<title>Node4</title>
<g id="a_node4"><a xlink:href="$classJoyControlStickModifierButton.html#a21a8abce0e5340778292fab50cced777" xlink:title=" ">
<polygon fill="white" stroke="black" points="173,-88.5 173,-118.5 322,-118.5 322,-88.5 173,-88.5"/>
<text text-anchor="start" x="181" y="-106.5" font-family="Helvetica,sans-Serif" font-size="10.00">JoyControlStickModifierButton</text>
<text text-anchor="middle" x="247.5" y="-95.5" font-family="Helvetica,sans-Serif" font-size="10.00">::getAccelerationDistance</text>
</a>
</g>
</g>
<!-- Node1&#45;&gt;Node4 -->
<g id="edge3" class="edge">
<title>Node1&#45;&gt;Node4</title>
<path fill="none" stroke="midnightblue" d="M347.62,-103.5C339.15,-103.5 330.57,-103.5 322.18,-103.5"/>
<polygon fill="midnightblue" stroke="midnightblue" points="347.88,-107 357.88,-103.5 347.88,-100 347.88,-107"/>
</g>
<!-- Node5 -->
<g id="node5" class="node">
<title>Node5</title>
<g id="a_node5"><a xlink:href="$classJoyControlStickEditDialog.html#a2baa35c50ff7528a03ec6f2ba1ed657d" xlink:title=" ">
<polygon fill="white" stroke="black" points="0,-22.5 0,-52.5 137,-52.5 137,-22.5 0,-22.5"/>
<text text-anchor="start" x="8" y="-40.5" font-family="Helvetica,sans-Serif" font-size="10.00">JoyControlStickEditDialog</text>
<text text-anchor="middle" x="68.5" y="-29.5" font-family="Helvetica,sans-Serif" font-size="10.00">::JoyControlStickEditDialog</text>
</a>
</g>
</g>
<!-- Node1&#45;&gt;Node5 -->
<g id="edge4" class="edge">
<title>Node1&#45;&gt;Node5</title>
<path fill="none" stroke="midnightblue" d="M354.51,-86.26C343.63,-83.89 332.54,-81.56 322,-79.5 259.63,-67.3 188.16,-55.62 137.21,-47.69"/>
<polygon fill="midnightblue" stroke="midnightblue" points="353.9,-89.71 364.42,-88.44 355.41,-82.87 353.9,-89.71"/>
</g>
<!-- Node6 -->
<g id="node6" class="node">
<title>Node6</title>
<g id="a_node6"><a xlink:href="$classJoyControlStickEditDialog.html#aa479f7bd7941c5be7efd683d3c0c8fd2" xlink:title=" ">
<polygon fill="white" stroke="black" points="182,-0.5 182,-30.5 313,-30.5 313,-0.5 182,-0.5"/>
<text text-anchor="start" x="190" y="-18.5" font-family="Helvetica,sans-Serif" font-size="10.00">JoyControlStickEditDialog</text>
<text text-anchor="middle" x="247.5" y="-7.5" font-family="Helvetica,sans-Serif" font-size="10.00">::refreshStickStats</text>
</a>
</g>
</g>
<!-- Node1&#45;&gt;Node6 -->
<g id="edge5" class="edge">
<title>Node1&#45;&gt;Node6</title>
<path fill="none" stroke="midnightblue" d="M393.95,-83.42C373.35,-71.76 346.52,-57.14 322,-45.5 311.04,-40.3 298.93,-35.13 287.76,-30.58"/>
<polygon fill="midnightblue" stroke="midnightblue" points="392.24,-86.47 402.66,-88.37 395.7,-80.38 392.24,-86.47"/>
</g>
<!-- Node6&#45;&gt;Node5 -->
<g id="edge6" class="edge">
<title>Node6&#45;&gt;Node5</title>
<path fill="none" stroke="midnightblue" d="M171.86,-24.78C160.37,-26.2 148.57,-27.67 137.25,-29.08"/>
<polygon fill="midnightblue" stroke="midnightblue" points="172.36,-28.24 181.85,-23.54 171.49,-21.3 172.36,-28.24"/>
</g>
</g>
</svg>
