<?xml version="1.0" encoding="UTF-8" standalone="no"?>
<!DOCTYPE svg PUBLIC "-//W3C//DTD SVG 1.1//EN"
 "http://www.w3.org/Graphics/SVG/1.1/DTD/svg11.dtd">
<!-- Generated by graphviz version 2.43.0 (0)
 -->
<!-- Title: AxisEditDialog::refreshPButtonLabel Pages: 1 -->
<svg width="1623pt" height="518pt"
 viewBox="0.00 0.00 1623.00 517.58" xmlns="http://www.w3.org/2000/svg" xmlns:xlink="http://www.w3.org/1999/xlink">
<g id="graph0" class="graph" transform="scale(1 1) rotate(0) translate(4 513.58)">
<title>AxisEditDialog::refreshPButtonLabel</title>
<polygon fill="white" stroke="transparent" points="-4,4 -4,-513.58 1619,-513.58 1619,4 -4,4"/>
<!-- Node1 -->
<g id="node1" class="node">
<title>Node1</title>
<g id="a_node1"><a xlink:title=" ">
<polygon fill="#bfbfbf" stroke="black" points="0,-416.08 0,-446.08 152,-446.08 152,-416.08 0,-416.08"/>
<text text-anchor="start" x="8" y="-434.08" font-family="Helvetica,sans-Serif" font-size="10.00">AxisEditDialog::refreshPButton</text>
<text text-anchor="middle" x="76" y="-423.08" font-family="Helvetica,sans-Serif" font-size="10.00">Label</text>
</a>
</g>
</g>
<!-- Node2 -->
<g id="node2" class="node">
<title>Node2</title>
<g id="a_node2"><a xlink:href="$classJoyAxis.html#ad51d55d2a95190468209f7481eae8639" xlink:title=" ">
<polygon fill="white" stroke="black" points="198.5,-440.58 198.5,-459.58 323.5,-459.58 323.5,-440.58 198.5,-440.58"/>
<text text-anchor="middle" x="261" y="-447.58" font-family="Helvetica,sans-Serif" font-size="10.00">JoyAxis::getPAxisButton</text>
</a>
</g>
</g>
<!-- Node1&#45;&gt;Node2 -->
<g id="edge1" class="edge">
<title>Node1&#45;&gt;Node2</title>
<path fill="none" stroke="midnightblue" d="M152.23,-438.89C164.12,-440.13 176.39,-441.4 188.21,-442.63"/>
<polygon fill="midnightblue" stroke="midnightblue" points="188.14,-446.14 198.45,-443.69 188.86,-439.18 188.14,-446.14"/>
</g>
<!-- Node3 -->
<g id="node3" class="node">
<title>Node3</title>
<g id="a_node3"><a xlink:href="$classJoyButton.html#ad0e91e7eea8ee9487ee3acf57f1bdc41" xlink:title="Generate a string representing a summary of the slots currently assigned to a button.">
<polygon fill="white" stroke="black" points="188,-402.58 188,-421.58 334,-421.58 334,-402.58 188,-402.58"/>
<text text-anchor="middle" x="261" y="-409.58" font-family="Helvetica,sans-Serif" font-size="10.00">JoyButton::getSlotsSummary</text>
</a>
</g>
</g>
<!-- Node1&#45;&gt;Node3 -->
<g id="edge2" class="edge">
<title>Node1&#45;&gt;Node3</title>
<path fill="none" stroke="midnightblue" d="M152.23,-423.27C160.57,-422.4 169.09,-421.52 177.52,-420.64"/>
<polygon fill="midnightblue" stroke="midnightblue" points="178.14,-424.1 187.72,-419.58 177.41,-417.14 178.14,-424.1"/>
</g>
<!-- Node4 -->
<g id="node4" class="node">
<title>Node4</title>
<g id="a_node4"><a xlink:href="$classJoyButton.html#ae1d364dfa70f47fae3db99ffbcdea44b" xlink:title=" ">
<polygon fill="white" stroke="black" points="370,-421.58 370,-440.58 513,-440.58 513,-421.58 370,-421.58"/>
<text text-anchor="middle" x="441.5" y="-428.58" font-family="Helvetica,sans-Serif" font-size="10.00">JoyButton::getAssignedSlots</text>
</a>
</g>
</g>
<!-- Node3&#45;&gt;Node4 -->
<g id="edge3" class="edge">
<title>Node3&#45;&gt;Node4</title>
<path fill="none" stroke="midnightblue" d="M334.09,-419.75C342.57,-420.66 351.27,-421.58 359.86,-422.5"/>
<polygon fill="midnightblue" stroke="midnightblue" points="359.57,-425.98 369.88,-423.56 360.31,-419.02 359.57,-425.98"/>
</g>
<!-- Node5 -->
<g id="node5" class="node">
<title>Node5</title>
<g id="a_node5"><a xlink:href="$classJoyButtonSlot.html#a6e10409ded595380cbdcfd5c827ab32a" xlink:title=" ">
<polygon fill="white" stroke="black" points="371.5,-383.58 371.5,-402.58 511.5,-402.58 511.5,-383.58 371.5,-383.58"/>
<text text-anchor="middle" x="441.5" y="-390.58" font-family="Helvetica,sans-Serif" font-size="10.00">JoyButtonSlot::getSlotString</text>
</a>
</g>
</g>
<!-- Node3&#45;&gt;Node5 -->
<g id="edge4" class="edge">
<title>Node3&#45;&gt;Node5</title>
<path fill="none" stroke="midnightblue" d="M334.09,-404.41C343.02,-403.46 352.18,-402.48 361.21,-401.52"/>
<polygon fill="midnightblue" stroke="midnightblue" points="361.75,-404.98 371.33,-400.44 361.01,-398.02 361.75,-404.98"/>
</g>
<!-- Node6 -->
<g id="node6" class="node">
<title>Node6</title>
<g id="a_node6"><a xlink:href="$classJoyButtonSlot.html#a4fb0606a34134786bc642627bc25aedd" xlink:title=" ">
<polygon fill="white" stroke="black" points="561.5,-462.58 561.5,-481.58 697.5,-481.58 697.5,-462.58 561.5,-462.58"/>
<text text-anchor="middle" x="629.5" y="-469.58" font-family="Helvetica,sans-Serif" font-size="10.00">JoyButtonSlot::getMixSlots</text>
</a>
</g>
</g>
<!-- Node5&#45;&gt;Node6 -->
<g id="edge5" class="edge">
<title>Node5&#45;&gt;Node6</title>
<path fill="none" stroke="midnightblue" d="M484.01,-402.62C493.66,-405.29 503.8,-408.46 513,-412.08 529.84,-418.7 532.96,-422.71 549,-431.08 566.22,-440.06 585.58,-450.05 600.89,-457.92"/>
<polygon fill="midnightblue" stroke="midnightblue" points="599.35,-461.06 609.84,-462.52 602.55,-454.84 599.35,-461.06"/>
</g>
<!-- Node8 -->
<g id="node8" class="node">
<title>Node8</title>
<g id="a_node8"><a xlink:href="$namespacePadderCommon.html#aaa09739d2df84421a5a3467a06ce941c" xlink:title="Returns the &quot;human&#45;readable&quot; name of the given profile.">
<polygon fill="white" stroke="black" points="549,-402.58 549,-421.58 710,-421.58 710,-402.58 549,-402.58"/>
<text text-anchor="middle" x="629.5" y="-409.58" font-family="Helvetica,sans-Serif" font-size="10.00">PadderCommon::getProfileName</text>
</a>
</g>
</g>
<!-- Node5&#45;&gt;Node8 -->
<g id="edge7" class="edge">
<title>Node5&#45;&gt;Node8</title>
<path fill="none" stroke="midnightblue" d="M511.76,-400.15C520.54,-401.05 529.62,-401.98 538.67,-402.9"/>
<polygon fill="midnightblue" stroke="midnightblue" points="538.54,-406.41 548.84,-403.94 539.25,-399.44 538.54,-406.41"/>
</g>
<!-- Node9 -->
<g id="node9" class="node">
<title>Node9</title>
<g id="a_node9"><a xlink:href="$event_8cpp.html#a76ce89b71143c1c09343f45f038b4a67" xlink:title=" ">
<polygon fill="white" stroke="black" points="579,-364.58 579,-383.58 680,-383.58 680,-364.58 579,-364.58"/>
<text text-anchor="middle" x="629.5" y="-371.58" font-family="Helvetica,sans-Serif" font-size="10.00">keysymToKeyString</text>
</a>
</g>
</g>
<!-- Node5&#45;&gt;Node9 -->
<g id="edge8" class="edge">
<title>Node5&#45;&gt;Node9</title>
<path fill="none" stroke="midnightblue" d="M511.76,-386.01C530.5,-384.09 550.61,-382.04 568.77,-380.18"/>
<polygon fill="midnightblue" stroke="midnightblue" points="569.34,-383.64 578.93,-379.14 568.63,-376.68 569.34,-383.64"/>
</g>
<!-- Node30 -->
<g id="node30" class="node">
<title>Node30</title>
<g id="a_node30"><a xlink:href="$classJoyButtonSlot.html#a37ff2b523177bae4ea6a44b82f2973eb" xlink:title=" ">
<polygon fill="white" stroke="black" points="552,-326.58 552,-345.58 707,-345.58 707,-326.58 552,-326.58"/>
<text text-anchor="middle" x="629.5" y="-333.58" font-family="Helvetica,sans-Serif" font-size="10.00">JoyButtonSlot::movementString</text>
</a>
</g>
</g>
<!-- Node5&#45;&gt;Node30 -->
<g id="edge37" class="edge">
<title>Node5&#45;&gt;Node30</title>
<path fill="none" stroke="midnightblue" d="M466.79,-383.57C488.21,-375.38 520.39,-363.57 549,-355.08 557.4,-352.59 566.38,-350.19 575.16,-347.99"/>
<polygon fill="midnightblue" stroke="midnightblue" points="576.07,-351.37 584.95,-345.59 574.41,-344.57 576.07,-351.37"/>
</g>
<!-- Node7 -->
<g id="node7" class="node">
<title>Node7</title>
<g id="a_node7"><a xlink:href="$classJoyButtonSlot.html#a9ba9cb0dda063a7df5575072c0aabe01" xlink:title=" ">
<polygon fill="white" stroke="black" points="746,-479.08 746,-509.08 875,-509.08 875,-479.08 746,-479.08"/>
<text text-anchor="start" x="754" y="-497.08" font-family="Helvetica,sans-Serif" font-size="10.00">JoyButtonSlot::secureMix</text>
<text text-anchor="middle" x="810.5" y="-486.08" font-family="Helvetica,sans-Serif" font-size="10.00">SlotsInit</text>
</a>
</g>
</g>
<!-- Node6&#45;&gt;Node7 -->
<g id="edge6" class="edge">
<title>Node6&#45;&gt;Node7</title>
<path fill="none" stroke="midnightblue" d="M697.66,-480.33C710.11,-481.86 723.17,-483.47 735.8,-485.02"/>
<polygon fill="midnightblue" stroke="midnightblue" points="735.46,-488.51 745.81,-486.25 736.32,-481.56 735.46,-488.51"/>
</g>
<!-- Node10 -->
<g id="node10" class="node">
<title>Node10</title>
<g id="a_node10"><a xlink:href="$classX11Extras.html#a643c95dc1de8eb073a0accb41619fe83" xlink:title="Get display instance.">
<polygon fill="white" stroke="black" points="939,-402.58 939,-421.58 1038,-421.58 1038,-402.58 939,-402.58"/>
<text text-anchor="middle" x="988.5" y="-409.58" font-family="Helvetica,sans-Serif" font-size="10.00">X11Extras::display</text>
</a>
</g>
</g>
<!-- Node9&#45;&gt;Node10 -->
<g id="edge9" class="edge">
<title>Node9&#45;&gt;Node10</title>
<path fill="none" stroke="midnightblue" d="M680.22,-380.34C700.59,-382.85 724.42,-385.7 746,-388.08 808.36,-394.96 879.89,-401.95 928.81,-406.6"/>
<polygon fill="midnightblue" stroke="midnightblue" points="928.61,-410.1 938.9,-407.56 929.27,-403.13 928.61,-410.1"/>
</g>
<!-- Node11 -->
<g id="node11" class="node">
<title>Node11</title>
<g id="a_node11"><a xlink:href="$classBaseEventHandler.html#a9a014e472ec57408d16b8b5eed964e90" xlink:title=" ">
<polygon fill="white" stroke="black" points="911,-364.58 911,-383.58 1066,-383.58 1066,-364.58 911,-364.58"/>
<text text-anchor="middle" x="988.5" y="-371.58" font-family="Helvetica,sans-Serif" font-size="10.00">BaseEventHandler::getIdentifier</text>
</a>
</g>
</g>
<!-- Node9&#45;&gt;Node11 -->
<g id="edge10" class="edge">
<title>Node9&#45;&gt;Node11</title>
<path fill="none" stroke="midnightblue" d="M680.14,-374.08C737.11,-374.08 831.59,-374.08 900.79,-374.08"/>
<polygon fill="midnightblue" stroke="midnightblue" points="900.8,-377.58 910.8,-374.08 900.8,-370.58 900.8,-377.58"/>
</g>
<!-- Node12 -->
<g id="node12" class="node">
<title>Node12</title>
<g id="a_node12"><a xlink:href="$classEventHandlerFactory.html#a90ce153a19fbb91128bd52eb083ce271" xlink:title=" ">
<polygon fill="white" stroke="black" points="934,-144.08 934,-174.08 1043,-174.08 1043,-144.08 934,-144.08"/>
<text text-anchor="start" x="942" y="-162.08" font-family="Helvetica,sans-Serif" font-size="10.00">EventHandlerFactory</text>
<text text-anchor="middle" x="988.5" y="-151.08" font-family="Helvetica,sans-Serif" font-size="10.00">::getInstance</text>
</a>
</g>
</g>
<!-- Node9&#45;&gt;Node12 -->
<g id="edge11" class="edge">
<title>Node9&#45;&gt;Node12</title>
<path fill="none" stroke="midnightblue" d="M680.12,-366.89C690.43,-364.13 700.91,-360.33 710,-355.08 730.15,-343.45 728.18,-332.03 746,-317.08 813.33,-260.59 837.33,-256.01 911,-208.08 925.42,-198.7 941.45,-188.41 955.09,-179.7"/>
<polygon fill="midnightblue" stroke="midnightblue" points="957.12,-182.55 963.67,-174.22 953.36,-176.65 957.12,-182.55"/>
</g>
<!-- Node15 -->
<g id="node15" class="node">
<title>Node15</title>
<g id="a_node15"><a xlink:href="$classEventHandlerFactory.html#a4c13007f0ece5bf881080c9c04f1f20d" xlink:title=" ">
<polygon fill="white" stroke="black" points="1295,-147.08 1295,-177.08 1404,-177.08 1404,-147.08 1295,-147.08"/>
<text text-anchor="start" x="1303" y="-165.08" font-family="Helvetica,sans-Serif" font-size="10.00">EventHandlerFactory</text>
<text text-anchor="middle" x="1349.5" y="-154.08" font-family="Helvetica,sans-Serif" font-size="10.00">::handler</text>
</a>
</g>
</g>
<!-- Node9&#45;&gt;Node15 -->
<g id="edge20" class="edge">
<title>Node9&#45;&gt;Node15</title>
<path fill="none" stroke="midnightblue" d="M680.36,-370.52C691.24,-367.62 701.91,-362.84 710,-355.08 752.34,-314.47 710.22,-274.57 746,-228.08 858.18,-82.33 924.62,-65.7 1102,-17.08 1161.15,-0.87 1185.16,10.38 1240,-17.08 1290.41,-42.32 1323.43,-103.33 1338.69,-137.63"/>
<polygon fill="midnightblue" stroke="midnightblue" points="1335.53,-139.14 1342.69,-146.94 1341.96,-136.37 1335.53,-139.14"/>
</g>
<!-- Node17 -->
<g id="node17" class="node">
<title>Node17</title>
<g id="a_node17"><a xlink:href="$classX11Extras.html#ace76277fced60e6bd6ff880030338182" xlink:title=" ">
<polygon fill="white" stroke="black" points="929,-440.58 929,-459.58 1048,-459.58 1048,-440.58 929,-440.58"/>
<text text-anchor="middle" x="988.5" y="-447.58" font-family="Helvetica,sans-Serif" font-size="10.00">X11Extras::getInstance</text>
</a>
</g>
</g>
<!-- Node9&#45;&gt;Node17 -->
<g id="edge17" class="edge">
<title>Node9&#45;&gt;Node17</title>
<path fill="none" stroke="midnightblue" d="M675.84,-383.59C687.1,-386.31 699.07,-389.52 710,-393.08 726.48,-398.45 729.36,-403.23 746,-408.08 803.03,-424.69 869.66,-435.68 918.47,-442.23"/>
<polygon fill="midnightblue" stroke="midnightblue" points="918.23,-445.73 928.6,-443.56 919.14,-438.79 918.23,-445.73"/>
</g>
<!-- Node20 -->
<g id="node20" class="node">
<title>Node20</title>
<g id="a_node20"><a xlink:href="$event_8cpp.html#ad239a34cab482dc3cad5a23a9ac1ad78" xlink:title=" ">
<polygon fill="white" stroke="black" points="758.5,-326.58 758.5,-345.58 862.5,-345.58 862.5,-326.58 758.5,-326.58"/>
<text text-anchor="middle" x="810.5" y="-333.58" font-family="Helvetica,sans-Serif" font-size="10.00">keycodeToKeyString</text>
</a>
</g>
</g>
<!-- Node9&#45;&gt;Node20 -->
<g id="edge21" class="edge">
<title>Node9&#45;&gt;Node20</title>
<path fill="none" stroke="midnightblue" d="M675.67,-364.49C699.72,-359.39 729.47,-353.07 754.82,-347.69"/>
<polygon fill="midnightblue" stroke="midnightblue" points="755.6,-351.1 764.66,-345.6 754.15,-344.25 755.6,-351.1"/>
</g>
<!-- Node13 -->
<g id="node13" class="node">
<title>Node13</title>
<g id="a_node13"><a xlink:href="$classEventHandlerFactory.html#ade5162034acc0f8683725fdb124bece0" xlink:title=" ">
<polygon fill="white" stroke="black" points="1108,-76.08 1108,-106.08 1234,-106.08 1234,-76.08 1108,-76.08"/>
<text text-anchor="start" x="1116" y="-94.08" font-family="Helvetica,sans-Serif" font-size="10.00">EventHandlerFactory</text>
<text text-anchor="middle" x="1171" y="-83.08" font-family="Helvetica,sans-Serif" font-size="10.00">::buildEventGeneratorList</text>
</a>
</g>
</g>
<!-- Node12&#45;&gt;Node13 -->
<g id="edge12" class="edge">
<title>Node12&#45;&gt;Node13</title>
<path fill="none" stroke="midnightblue" d="M1027.14,-144C1048.93,-135.35 1076.94,-124.4 1102,-115.08 1106.86,-113.27 1111.93,-111.42 1117.01,-109.59"/>
<polygon fill="midnightblue" stroke="midnightblue" points="1118.52,-112.76 1126.75,-106.1 1116.16,-106.17 1118.52,-112.76"/>
</g>
<!-- Node14 -->
<g id="node14" class="node">
<title>Node14</title>
<g id="a_node14"><a xlink:href="$classEventHandlerFactory.html#a2f843293b2ea47271fc7bd99bd871fa6" xlink:title=" ">
<polygon fill="white" stroke="black" points="1113.5,-125.08 1113.5,-155.08 1228.5,-155.08 1228.5,-125.08 1113.5,-125.08"/>
<text text-anchor="start" x="1121.5" y="-143.08" font-family="Helvetica,sans-Serif" font-size="10.00">EventHandlerFactory</text>
<text text-anchor="middle" x="1171" y="-132.08" font-family="Helvetica,sans-Serif" font-size="10.00">::EventHandlerFactory</text>
</a>
</g>
</g>
<!-- Node12&#45;&gt;Node14 -->
<g id="edge13" class="edge">
<title>Node12&#45;&gt;Node14</title>
<path fill="none" stroke="midnightblue" d="M1043.17,-153.43C1062.02,-151.45 1083.43,-149.19 1103.22,-147.11"/>
<polygon fill="midnightblue" stroke="midnightblue" points="1103.82,-150.57 1113.4,-146.04 1103.09,-143.6 1103.82,-150.57"/>
</g>
<!-- Node12&#45;&gt;Node15 -->
<g id="edge16" class="edge">
<title>Node12&#45;&gt;Node15</title>
<path fill="none" stroke="midnightblue" d="M1043.27,-161.96C1061.87,-162.82 1082.85,-163.65 1102,-164.08 1163.32,-165.44 1178.67,-164.65 1240,-164.08 1254.54,-163.95 1270.18,-163.71 1284.93,-163.45"/>
<polygon fill="midnightblue" stroke="midnightblue" points="1285.04,-166.95 1294.97,-163.26 1284.91,-159.95 1285.04,-166.95"/>
</g>
<!-- Node16 -->
<g id="node16" class="node">
<title>Node16</title>
<g id="a_node16"><a xlink:href="$classEventHandlerFactory.html#afa5ca0171c70b1a24f92b5c8dd00dc92" xlink:title=" ">
<polygon fill="white" stroke="black" points="1116.5,-27.08 1116.5,-57.08 1225.5,-57.08 1225.5,-27.08 1116.5,-27.08"/>
<text text-anchor="start" x="1124.5" y="-45.08" font-family="Helvetica,sans-Serif" font-size="10.00">EventHandlerFactory</text>
<text text-anchor="middle" x="1171" y="-34.08" font-family="Helvetica,sans-Serif" font-size="10.00">::fallBackIdentifier</text>
</a>
</g>
</g>
<!-- Node12&#45;&gt;Node16 -->
<g id="edge15" class="edge">
<title>Node12&#45;&gt;Node16</title>
<path fill="none" stroke="midnightblue" d="M1004.22,-143.95C1024.57,-123.77 1063.19,-88.05 1102,-66.08 1105.03,-64.36 1108.21,-62.74 1111.47,-61.2"/>
<polygon fill="midnightblue" stroke="midnightblue" points="1113.04,-64.33 1120.79,-57.11 1110.23,-57.92 1113.04,-64.33"/>
</g>
<!-- Node14&#45;&gt;Node15 -->
<g id="edge14" class="edge">
<title>Node14&#45;&gt;Node15</title>
<path fill="none" stroke="midnightblue" d="M1228.82,-147.16C1246.67,-149.39 1266.5,-151.86 1284.8,-154.14"/>
<polygon fill="midnightblue" stroke="midnightblue" points="1284.44,-157.62 1294.79,-155.39 1285.3,-150.68 1284.44,-157.62"/>
</g>
<!-- Node18 -->
<g id="node18" class="node">
<title>Node18</title>
<g id="a_node18"><a xlink:href="$classX11Extras.html#ab9bcb016e23bacb0e988feb8175d2c88" xlink:title=" ">
<polygon fill="white" stroke="black" points="1114,-440.58 1114,-459.58 1228,-459.58 1228,-440.58 1114,-440.58"/>
<text text-anchor="middle" x="1171" y="-447.58" font-family="Helvetica,sans-Serif" font-size="10.00">X11Extras::X11Extras</text>
</a>
</g>
</g>
<!-- Node17&#45;&gt;Node18 -->
<g id="edge18" class="edge">
<title>Node17&#45;&gt;Node18</title>
<path fill="none" stroke="midnightblue" d="M1048.1,-450.08C1065.83,-450.08 1085.41,-450.08 1103.61,-450.08"/>
<polygon fill="midnightblue" stroke="midnightblue" points="1103.84,-453.58 1113.84,-450.08 1103.84,-446.58 1103.84,-453.58"/>
</g>
<!-- Node19 -->
<g id="node19" class="node">
<title>Node19</title>
<g id="a_node19"><a xlink:href="$classX11Extras.html#a6f63e77ed045e174546d77333672b8f0" xlink:title=" ">
<polygon fill="white" stroke="black" points="1282,-435.08 1282,-465.08 1417,-465.08 1417,-435.08 1282,-435.08"/>
<text text-anchor="start" x="1290" y="-453.08" font-family="Helvetica,sans-Serif" font-size="10.00">X11Extras::populateKnown</text>
<text text-anchor="middle" x="1349.5" y="-442.08" font-family="Helvetica,sans-Serif" font-size="10.00">Aliases</text>
</a>
</g>
</g>
<!-- Node18&#45;&gt;Node19 -->
<g id="edge19" class="edge">
<title>Node18&#45;&gt;Node19</title>
<path fill="none" stroke="midnightblue" d="M1228.33,-450.08C1242.18,-450.08 1257.25,-450.08 1271.88,-450.08"/>
<polygon fill="midnightblue" stroke="midnightblue" points="1271.92,-453.58 1281.92,-450.08 1271.92,-446.58 1271.92,-453.58"/>
</g>
<!-- Node20&#45;&gt;Node10 -->
<g id="edge22" class="edge">
<title>Node20&#45;&gt;Node10</title>
<path fill="none" stroke="midnightblue" d="M825.37,-345.69C844.04,-358.23 878.67,-380.1 911,-393.08 917.23,-395.58 923.88,-397.82 930.56,-399.81"/>
<polygon fill="midnightblue" stroke="midnightblue" points="929.75,-403.22 940.33,-402.54 931.64,-396.48 929.75,-403.22"/>
</g>
<!-- Node20&#45;&gt;Node11 -->
<g id="edge26" class="edge">
<title>Node20&#45;&gt;Node11</title>
<path fill="none" stroke="midnightblue" d="M855.91,-345.67C879.45,-350.75 908.56,-357.04 933.4,-362.4"/>
<polygon fill="midnightblue" stroke="midnightblue" points="932.89,-365.87 943.41,-364.56 934.37,-359.03 932.89,-365.87"/>
</g>
<!-- Node20&#45;&gt;Node12 -->
<g id="edge34" class="edge">
<title>Node20&#45;&gt;Node12</title>
<path fill="none" stroke="midnightblue" d="M817.31,-326.51C831.33,-303.95 869.01,-246.41 911,-208.08 922.74,-197.37 937.08,-187.5 950.17,-179.47"/>
<polygon fill="midnightblue" stroke="midnightblue" points="952.18,-182.34 958.98,-174.21 948.6,-176.33 952.18,-182.34"/>
</g>
<!-- Node20&#45;&gt;Node15 -->
<g id="edge36" class="edge">
<title>Node20&#45;&gt;Node15</title>
<path fill="none" stroke="midnightblue" d="M826.52,-326.44C839.99,-317.4 859.9,-303.08 875,-288.08 893.66,-269.53 888.54,-254.79 911,-241.08 926.88,-231.39 1167.18,-191.45 1284.72,-172.35"/>
<polygon fill="midnightblue" stroke="midnightblue" points="1285.36,-175.79 1294.67,-170.74 1284.24,-168.88 1285.36,-175.79"/>
</g>
<!-- Node20&#45;&gt;Node17 -->
<g id="edge35" class="edge">
<title>Node20&#45;&gt;Node17</title>
<path fill="none" stroke="midnightblue" d="M818.8,-345.87C833.82,-365.26 870.19,-408.64 911,-431.08 915.2,-433.39 919.68,-435.42 924.29,-437.21"/>
<polygon fill="midnightblue" stroke="midnightblue" points="923.29,-440.57 933.89,-440.56 925.59,-433.96 923.29,-440.57"/>
</g>
<!-- Node21 -->
<g id="node21" class="node">
<title>Node21</title>
<g id="a_node21"><a xlink:href="$classUInputHelper.html#ac4c70c9479c1cc0eb515ab1bdf2426f5" xlink:title=" ">
<polygon fill="white" stroke="black" points="1286,-324.08 1286,-354.08 1413,-354.08 1413,-324.08 1286,-324.08"/>
<text text-anchor="start" x="1294" y="-342.08" font-family="Helvetica,sans-Serif" font-size="10.00">UInputHelper::getDisplay</text>
<text text-anchor="middle" x="1349.5" y="-331.08" font-family="Helvetica,sans-Serif" font-size="10.00">String</text>
</a>
</g>
</g>
<!-- Node20&#45;&gt;Node21 -->
<g id="edge23" class="edge">
<title>Node20&#45;&gt;Node21</title>
<path fill="none" stroke="midnightblue" d="M862.5,-336.36C958.34,-336.9 1165.58,-338.06 1275.92,-338.67"/>
<polygon fill="midnightblue" stroke="midnightblue" points="1275.95,-342.17 1285.97,-338.73 1275.99,-335.17 1275.95,-342.17"/>
</g>
<!-- Node23 -->
<g id="node23" class="node">
<title>Node23</title>
<g id="a_node23"><a xlink:href="$classX11Extras.html#abe710bac948c9802105a2d9d06815cac" xlink:title="Get appropriate alias for a known KeySym string that might be blank or contain invalid characters whe...">
<polygon fill="white" stroke="black" points="918.5,-250.58 918.5,-269.58 1058.5,-269.58 1058.5,-250.58 918.5,-250.58"/>
<text text-anchor="middle" x="988.5" y="-257.58" font-family="Helvetica,sans-Serif" font-size="10.00">X11Extras::getDisplayString</text>
</a>
</g>
</g>
<!-- Node20&#45;&gt;Node23 -->
<g id="edge25" class="edge">
<title>Node20&#45;&gt;Node23</title>
<path fill="none" stroke="midnightblue" d="M825.37,-326.47C844.04,-313.93 878.67,-292.06 911,-279.08 917.23,-276.58 923.88,-274.34 930.56,-272.35"/>
<polygon fill="midnightblue" stroke="midnightblue" points="931.64,-275.68 940.33,-269.62 929.75,-268.94 931.64,-275.68"/>
</g>
<!-- Node24 -->
<g id="node24" class="node">
<title>Node24</title>
<g id="a_node24"><a xlink:href="$classUInputHelper.html#a61509601d3dbd8933aaa26c1e2db02f6" xlink:title=" ">
<polygon fill="white" stroke="black" points="923,-288.58 923,-307.58 1054,-307.58 1054,-288.58 923,-288.58"/>
<text text-anchor="middle" x="988.5" y="-295.58" font-family="Helvetica,sans-Serif" font-size="10.00">UInputHelper::getInstance</text>
</a>
</g>
</g>
<!-- Node20&#45;&gt;Node24 -->
<g id="edge27" class="edge">
<title>Node20&#45;&gt;Node24</title>
<path fill="none" stroke="midnightblue" d="M855.91,-326.49C879.45,-321.41 908.56,-315.12 933.4,-309.76"/>
<polygon fill="midnightblue" stroke="midnightblue" points="934.37,-313.13 943.41,-307.6 932.89,-306.29 934.37,-313.13"/>
</g>
<!-- Node22 -->
<g id="node22" class="node">
<title>Node22</title>
<g id="a_node22"><a xlink:href="$classUInputHelper.html#a043b0fa7cf4ce5811d01d95f3ca318b7" xlink:title=" ">
<polygon fill="white" stroke="black" points="1459,-324.08 1459,-354.08 1615,-354.08 1615,-324.08 1459,-324.08"/>
<text text-anchor="start" x="1467" y="-342.08" font-family="Helvetica,sans-Serif" font-size="10.00">UInputHelper::getKnownAliases</text>
<text text-anchor="middle" x="1537" y="-331.08" font-family="Helvetica,sans-Serif" font-size="10.00">VKStrings</text>
</a>
</g>
</g>
<!-- Node21&#45;&gt;Node22 -->
<g id="edge24" class="edge">
<title>Node21&#45;&gt;Node22</title>
<path fill="none" stroke="midnightblue" d="M1413.04,-339.08C1424.55,-339.08 1436.75,-339.08 1448.82,-339.08"/>
<polygon fill="midnightblue" stroke="midnightblue" points="1448.92,-342.58 1458.92,-339.08 1448.92,-335.58 1448.92,-342.58"/>
</g>
<!-- Node25 -->
<g id="node25" class="node">
<title>Node25</title>
<g id="a_node25"><a xlink:href="$classUInputHelper.html#a5d56d23a0e0202435c7a5ff1aca9ce55" xlink:title=" ">
<polygon fill="white" stroke="black" points="1102,-283.58 1102,-302.58 1240,-302.58 1240,-283.58 1102,-283.58"/>
<text text-anchor="middle" x="1171" y="-290.58" font-family="Helvetica,sans-Serif" font-size="10.00">UInputHelper::UInputHelper</text>
</a>
</g>
</g>
<!-- Node24&#45;&gt;Node25 -->
<g id="edge28" class="edge">
<title>Node24&#45;&gt;Node25</title>
<path fill="none" stroke="midnightblue" d="M1054.15,-296.29C1066.37,-295.95 1079.26,-295.59 1091.84,-295.25"/>
<polygon fill="midnightblue" stroke="midnightblue" points="1091.93,-298.74 1101.83,-294.97 1091.74,-291.75 1091.93,-298.74"/>
</g>
<!-- Node26 -->
<g id="node26" class="node">
<title>Node26</title>
<g id="a_node26"><a xlink:href="$classUInputHelper.html#a0f4dbb4221502d86f7d0af12a9865568" xlink:title=" ">
<polygon fill="white" stroke="black" points="1276,-275.08 1276,-305.08 1423,-305.08 1423,-275.08 1276,-275.08"/>
<text text-anchor="start" x="1284" y="-293.08" font-family="Helvetica,sans-Serif" font-size="10.00">UInputHelper::populateKnown</text>
<text text-anchor="middle" x="1349.5" y="-282.08" font-family="Helvetica,sans-Serif" font-size="10.00">Aliases</text>
</a>
</g>
</g>
<!-- Node25&#45;&gt;Node26 -->
<g id="edge29" class="edge">
<title>Node25&#45;&gt;Node26</title>
<path fill="none" stroke="midnightblue" d="M1240.24,-291.92C1248.52,-291.78 1257.04,-291.63 1265.5,-291.49"/>
<polygon fill="midnightblue" stroke="midnightblue" points="1265.82,-294.99 1275.76,-291.32 1265.71,-287.99 1265.82,-294.99"/>
</g>
<!-- Node26&#45;&gt;Node22 -->
<g id="edge30" class="edge">
<title>Node26&#45;&gt;Node22</title>
<path fill="none" stroke="midnightblue" d="M1407.42,-305.11C1427,-310.29 1449.11,-316.13 1469.4,-321.49"/>
<polygon fill="midnightblue" stroke="midnightblue" points="1468.63,-324.9 1479.19,-324.07 1470.42,-318.14 1468.63,-324.9"/>
</g>
<!-- Node27 -->
<g id="node27" class="node">
<title>Node27</title>
<g id="a_node27"><a xlink:href="$classUInputHelper.html#a8f3fe71ae635cd3c46eaab79dd11c2e0" xlink:title=" ">
<polygon fill="white" stroke="black" points="1459,-177.08 1459,-207.08 1615,-207.08 1615,-177.08 1459,-177.08"/>
<text text-anchor="start" x="1467" y="-195.08" font-family="Helvetica,sans-Serif" font-size="10.00">UInputHelper::getKnownAliases</text>
<text text-anchor="middle" x="1537" y="-184.08" font-family="Helvetica,sans-Serif" font-size="10.00">X11SymVK</text>
</a>
</g>
</g>
<!-- Node26&#45;&gt;Node27 -->
<g id="edge31" class="edge">
<title>Node26&#45;&gt;Node27</title>
<path fill="none" stroke="midnightblue" d="M1369.5,-274.89C1390.41,-258.75 1425.52,-233.38 1459,-217.08 1463.62,-214.83 1468.49,-212.71 1473.45,-210.74"/>
<polygon fill="midnightblue" stroke="midnightblue" points="1474.92,-213.92 1483.04,-207.11 1472.45,-207.37 1474.92,-213.92"/>
</g>
<!-- Node28 -->
<g id="node28" class="node">
<title>Node28</title>
<g id="a_node28"><a xlink:href="$classUInputHelper.html#a9793030329fbbe1106b255814ef2bd0f" xlink:title=" ">
<polygon fill="white" stroke="black" points="1470,-275.08 1470,-305.08 1604,-305.08 1604,-275.08 1470,-275.08"/>
<text text-anchor="start" x="1478" y="-293.08" font-family="Helvetica,sans-Serif" font-size="10.00">UInputHelper::populateX11</text>
<text text-anchor="middle" x="1537" y="-282.08" font-family="Helvetica,sans-Serif" font-size="10.00">SymVk</text>
</a>
</g>
</g>
<!-- Node26&#45;&gt;Node28 -->
<g id="edge32" class="edge">
<title>Node26&#45;&gt;Node28</title>
<path fill="none" stroke="midnightblue" d="M1423.02,-290.08C1435.08,-290.08 1447.63,-290.08 1459.79,-290.08"/>
<polygon fill="midnightblue" stroke="midnightblue" points="1459.89,-293.58 1469.89,-290.08 1459.89,-286.58 1459.89,-293.58"/>
</g>
<!-- Node29 -->
<g id="node29" class="node">
<title>Node29</title>
<g id="a_node29"><a xlink:href="$classUInputHelper.html#af02574de230bb0550eebb63f5a669681" xlink:title=" ">
<polygon fill="white" stroke="black" points="1469,-226.08 1469,-256.08 1605,-256.08 1605,-226.08 1469,-226.08"/>
<text text-anchor="start" x="1477" y="-244.08" font-family="Helvetica,sans-Serif" font-size="10.00">UInputHelper::populateXVk</text>
<text text-anchor="middle" x="1537" y="-233.08" font-family="Helvetica,sans-Serif" font-size="10.00">Strings</text>
</a>
</g>
</g>
<!-- Node26&#45;&gt;Node29 -->
<g id="edge33" class="edge">
<title>Node26&#45;&gt;Node29</title>
<path fill="none" stroke="midnightblue" d="M1407.42,-275.05C1427,-269.87 1449.11,-264.03 1469.4,-258.67"/>
<polygon fill="midnightblue" stroke="midnightblue" points="1470.42,-262.02 1479.19,-256.09 1468.63,-255.26 1470.42,-262.02"/>
</g>
</g>
</svg>
