<?xml version="1.0" encoding="UTF-8" standalone="no"?>
<!DOCTYPE svg PUBLIC "-//W3C//DTD SVG 1.1//EN"
 "http://www.w3.org/Graphics/SVG/1.1/DTD/svg11.dtd">
<!-- Generated by graphviz version 2.43.0 (0)
 -->
<!-- Title: AdvanceButtonDialog::resetTimeBoxes Pages: 1 -->
<svg width="1923pt" height="779pt"
 viewBox="0.00 0.00 1923.00 779.05" xmlns="http://www.w3.org/2000/svg" xmlns:xlink="http://www.w3.org/1999/xlink">
<g id="graph0" class="graph" transform="scale(1 1) rotate(0) translate(4 775.05)">
<title>AdvanceButtonDialog::resetTimeBoxes</title>
<polygon fill="white" stroke="transparent" points="-4,4 -4,-775.05 1919,-775.05 1919,4 -4,4"/>
<!-- Node1 -->
<g id="node1" class="node">
<title>Node1</title>
<g id="a_node1"><a xlink:title=" ">
<polygon fill="#bfbfbf" stroke="black" points="0,-724.5 0,-754.5 110,-754.5 110,-724.5 0,-724.5"/>
<text text-anchor="start" x="8" y="-742.5" font-family="Helvetica,sans-Serif" font-size="10.00">AdvanceButtonDialog</text>
<text text-anchor="middle" x="55" y="-731.5" font-family="Helvetica,sans-Serif" font-size="10.00">::resetTimeBoxes</text>
</a>
</g>
</g>
<!-- Node2 -->
<g id="node2" class="node">
<title>Node2</title>
<g id="a_node2"><a xlink:href="$classAdvanceButtonDialog.html#ae845213154214835f35b01653c3c8cd6" xlink:title=" ">
<polygon fill="white" stroke="black" points="152.5,-675.5 152.5,-705.5 288.5,-705.5 288.5,-675.5 152.5,-675.5"/>
<text text-anchor="start" x="160.5" y="-693.5" font-family="Helvetica,sans-Serif" font-size="10.00">AdvanceButtonDialog</text>
<text text-anchor="middle" x="220.5" y="-682.5" font-family="Helvetica,sans-Serif" font-size="10.00">::connectTimeBoxesEvents</text>
</a>
</g>
</g>
<!-- Node1&#45;&gt;Node2 -->
<g id="edge1" class="edge">
<title>Node1&#45;&gt;Node2</title>
<path fill="none" stroke="midnightblue" d="M106.39,-724.4C123.1,-719.39 141.86,-713.77 159.24,-708.56"/>
<polygon fill="midnightblue" stroke="midnightblue" points="160.7,-711.78 169.28,-705.55 158.69,-705.07 160.7,-711.78"/>
</g>
<!-- Node44 -->
<g id="node44" class="node">
<title>Node44</title>
<g id="a_node44"><a xlink:href="$classAdvanceButtonDialog.html#abe36139fad204573dc1b0ea0e38f169d" xlink:title=" ">
<polygon fill="white" stroke="black" points="331,-724.5 331,-754.5 455,-754.5 455,-724.5 331,-724.5"/>
<text text-anchor="start" x="339" y="-742.5" font-family="Helvetica,sans-Serif" font-size="10.00">AdvanceButtonDialog</text>
<text text-anchor="middle" x="393" y="-731.5" font-family="Helvetica,sans-Serif" font-size="10.00">::updateActionTimeLabel</text>
</a>
</g>
</g>
<!-- Node1&#45;&gt;Node44 -->
<g id="edge60" class="edge">
<title>Node1&#45;&gt;Node44</title>
<path fill="none" stroke="midnightblue" d="M100.82,-754.52C115.09,-758.61 131.06,-762.46 146,-764.5 211.62,-773.44 229.3,-772.83 295,-764.5 307.66,-762.89 321.03,-760.16 333.67,-757.06"/>
<polygon fill="midnightblue" stroke="midnightblue" points="334.79,-760.39 343.62,-754.52 333.06,-753.61 334.79,-760.39"/>
</g>
<!-- Node45 -->
<g id="node45" class="node">
<title>Node45</title>
<g id="a_node45"><a xlink:href="$classAdvanceButtonDialog.html#addf68258b6fb4eeae4dde34fc0fb92e7" xlink:title=" ">
<polygon fill="white" stroke="black" points="146,-724.5 146,-754.5 295,-754.5 295,-724.5 146,-724.5"/>
<text text-anchor="start" x="154" y="-742.5" font-family="Helvetica,sans-Serif" font-size="10.00">AdvanceButtonDialog</text>
<text text-anchor="middle" x="220.5" y="-731.5" font-family="Helvetica,sans-Serif" font-size="10.00">::disconnectTimeBoxesEvents</text>
</a>
</g>
</g>
<!-- Node1&#45;&gt;Node45 -->
<g id="edge57" class="edge">
<title>Node1&#45;&gt;Node45</title>
<path fill="none" stroke="midnightblue" d="M110.44,-739.5C118.59,-739.5 127.14,-739.5 135.73,-739.5"/>
<polygon fill="midnightblue" stroke="midnightblue" points="135.8,-743 145.8,-739.5 135.8,-736 135.8,-743"/>
</g>
<!-- Node3 -->
<g id="node3" class="node">
<title>Node3</title>
<g id="a_node3"><a xlink:href="$classAdvanceButtonDialog.html#aec7b800bbe03360bef5ec50c7699be12" xlink:title=" ">
<polygon fill="white" stroke="black" points="333.5,-675.5 333.5,-705.5 452.5,-705.5 452.5,-675.5 333.5,-675.5"/>
<text text-anchor="start" x="341.5" y="-693.5" font-family="Helvetica,sans-Serif" font-size="10.00">AdvanceButtonDialog</text>
<text text-anchor="middle" x="393" y="-682.5" font-family="Helvetica,sans-Serif" font-size="10.00">::checkSlotTimeUpdate</text>
</a>
</g>
</g>
<!-- Node2&#45;&gt;Node3 -->
<g id="edge2" class="edge">
<title>Node2&#45;&gt;Node3</title>
<path fill="none" stroke="midnightblue" d="M288.89,-690.5C300.15,-690.5 311.84,-690.5 323.14,-690.5"/>
<polygon fill="midnightblue" stroke="midnightblue" points="323.38,-694 333.38,-690.5 323.38,-687 323.38,-694"/>
</g>
<!-- Node2&#45;&gt;Node44 -->
<g id="edge55" class="edge">
<title>Node2&#45;&gt;Node44</title>
<path fill="none" stroke="midnightblue" d="M274.05,-705.6C291.71,-710.68 311.59,-716.39 329.92,-721.66"/>
<polygon fill="midnightblue" stroke="midnightblue" points="329.05,-725.05 339.63,-724.45 330.98,-718.32 329.05,-725.05"/>
</g>
<!-- Node4 -->
<g id="node4" class="node">
<title>Node4</title>
<g id="a_node4"><a xlink:href="$classAdvanceButtonDialog.html#ab5a53a366b15d6ba40214e74fe3ecd49" xlink:title=" ">
<polygon fill="white" stroke="black" points="499,-724.5 499,-754.5 609,-754.5 609,-724.5 499,-724.5"/>
<text text-anchor="start" x="507" y="-742.5" font-family="Helvetica,sans-Serif" font-size="10.00">AdvanceButtonDialog</text>
<text text-anchor="middle" x="554" y="-731.5" font-family="Helvetica,sans-Serif" font-size="10.00">::actionTimeConvert</text>
</a>
</g>
</g>
<!-- Node3&#45;&gt;Node4 -->
<g id="edge3" class="edge">
<title>Node3&#45;&gt;Node4</title>
<path fill="none" stroke="midnightblue" d="M443,-705.6C459.25,-710.61 477.5,-716.23 494.39,-721.44"/>
<polygon fill="midnightblue" stroke="midnightblue" points="493.57,-724.85 504.16,-724.45 495.63,-718.16 493.57,-724.85"/>
</g>
<!-- Node5 -->
<g id="node5" class="node">
<title>Node5</title>
<g id="a_node5"><a xlink:href="$classSimpleKeyGrabberButton.html#a25cefc81223387f0bfd2183627109ff8" xlink:title=" ">
<polygon fill="white" stroke="black" points="1038.5,-636.5 1038.5,-666.5 1164.5,-666.5 1164.5,-636.5 1038.5,-636.5"/>
<text text-anchor="start" x="1046.5" y="-654.5" font-family="Helvetica,sans-Serif" font-size="10.00">SimpleKeyGrabberButton</text>
<text text-anchor="middle" x="1101.5" y="-643.5" font-family="Helvetica,sans-Serif" font-size="10.00">::getValue</text>
</a>
</g>
</g>
<!-- Node3&#45;&gt;Node5 -->
<g id="edge4" class="edge">
<title>Node3&#45;&gt;Node5</title>
<path fill="none" stroke="midnightblue" d="M452.86,-693.06C560.42,-696.87 795.71,-701.15 992,-676.5 1006.04,-674.74 1020.93,-671.94 1035.03,-668.84"/>
<polygon fill="midnightblue" stroke="midnightblue" points="1036.16,-672.17 1045.13,-666.54 1034.61,-665.34 1036.16,-672.17"/>
</g>
<!-- Node6 -->
<g id="node6" class="node">
<title>Node6</title>
<g id="a_node6"><a xlink:href="$classSimpleKeyGrabberButton.html#a293f8294c8c9b1b3325a07c4369186f4" xlink:title=" ">
<polygon fill="white" stroke="black" points="491,-524.5 491,-554.5 617,-554.5 617,-524.5 491,-524.5"/>
<text text-anchor="start" x="499" y="-542.5" font-family="Helvetica,sans-Serif" font-size="10.00">SimpleKeyGrabberButton</text>
<text text-anchor="middle" x="554" y="-531.5" font-family="Helvetica,sans-Serif" font-size="10.00">::setValue</text>
</a>
</g>
</g>
<!-- Node3&#45;&gt;Node6 -->
<g id="edge5" class="edge">
<title>Node3&#45;&gt;Node6</title>
<path fill="none" stroke="midnightblue" d="M409.83,-675.47C437.9,-648.81 496.53,-593.13 529.39,-561.92"/>
<polygon fill="midnightblue" stroke="midnightblue" points="531.92,-564.34 536.76,-554.92 527.1,-559.27 531.92,-564.34"/>
</g>
<!-- Node35 -->
<g id="node35" class="node">
<title>Node35</title>
<g id="a_node35"><a xlink:href="$classAdvanceButtonDialog.html#a5284c1fc58683ba8649b1811d615e71c" xlink:title=" ">
<polygon fill="white" stroke="black" points="494.5,-636.5 494.5,-666.5 613.5,-666.5 613.5,-636.5 494.5,-636.5"/>
<text text-anchor="start" x="502.5" y="-654.5" font-family="Helvetica,sans-Serif" font-size="10.00">AdvanceButtonDialog</text>
<text text-anchor="middle" x="554" y="-643.5" font-family="Helvetica,sans-Serif" font-size="10.00">::updateSlotsScrollArea</text>
</a>
</g>
</g>
<!-- Node3&#45;&gt;Node35 -->
<g id="edge42" class="edge">
<title>Node3&#45;&gt;Node35</title>
<path fill="none" stroke="midnightblue" d="M452.75,-676.09C463.08,-673.56 473.9,-670.9 484.47,-668.31"/>
<polygon fill="midnightblue" stroke="midnightblue" points="485.61,-671.63 494.49,-665.85 483.94,-664.84 485.61,-671.63"/>
</g>
<!-- Node7 -->
<g id="node7" class="node">
<title>Node7</title>
<g id="a_node7"><a xlink:href="$classJoyButtonSlot.html#a6e10409ded595380cbdcfd5c827ab32a" xlink:title=" ">
<polygon fill="white" stroke="black" points="654,-473 654,-492 794,-492 794,-473 654,-473"/>
<text text-anchor="middle" x="724" y="-480" font-family="Helvetica,sans-Serif" font-size="10.00">JoyButtonSlot::getSlotString</text>
</a>
</g>
</g>
<!-- Node6&#45;&gt;Node7 -->
<g id="edge6" class="edge">
<title>Node6&#45;&gt;Node7</title>
<path fill="none" stroke="midnightblue" d="M591.43,-524.32C609.74,-516.97 632.37,-508.28 653,-501.5 660.15,-499.15 667.78,-496.86 675.28,-494.73"/>
<polygon fill="midnightblue" stroke="midnightblue" points="676.3,-498.08 685,-492.04 674.43,-491.34 676.3,-498.08"/>
</g>
<!-- Node33 -->
<g id="node33" class="node">
<title>Node33</title>
<g id="a_node33"><a xlink:href="$classJoyButtonSlot.html#a23e2639dee82e872b1ebf3958b0db68c" xlink:title=" ">
<polygon fill="white" stroke="black" points="655,-511 655,-530 793,-530 793,-511 655,-511"/>
<text text-anchor="middle" x="724" y="-518" font-family="Helvetica,sans-Serif" font-size="10.00">JoyButtonSlot::setSlotCode</text>
</a>
</g>
</g>
<!-- Node6&#45;&gt;Node33 -->
<g id="edge40" class="edge">
<title>Node6&#45;&gt;Node33</title>
<path fill="none" stroke="midnightblue" d="M617.08,-532.48C626.14,-531.45 635.57,-530.39 644.9,-529.33"/>
<polygon fill="midnightblue" stroke="midnightblue" points="645.42,-532.8 654.96,-528.2 644.63,-525.84 645.42,-532.8"/>
</g>
<!-- Node34 -->
<g id="node34" class="node">
<title>Node34</title>
<g id="a_node34"><a xlink:href="$classJoyButtonSlot.html#aa2af2756eb5c633fbe46018773f20bfb" xlink:title=" ">
<polygon fill="white" stroke="black" points="654.5,-549 654.5,-568 793.5,-568 793.5,-549 654.5,-549"/>
<text text-anchor="middle" x="724" y="-556" font-family="Helvetica,sans-Serif" font-size="10.00">JoyButtonSlot::setSlotMode</text>
</a>
</g>
</g>
<!-- Node6&#45;&gt;Node34 -->
<g id="edge41" class="edge">
<title>Node6&#45;&gt;Node34</title>
<path fill="none" stroke="midnightblue" d="M617.08,-546.52C625.91,-547.52 635.08,-548.56 644.18,-549.59"/>
<polygon fill="midnightblue" stroke="midnightblue" points="644.06,-553.09 654.39,-550.74 644.85,-546.14 644.06,-553.09"/>
</g>
<!-- Node8 -->
<g id="node8" class="node">
<title>Node8</title>
<g id="a_node8"><a xlink:href="$classJoyButtonSlot.html#a4fb0606a34134786bc642627bc25aedd" xlink:title=" ">
<polygon fill="white" stroke="black" points="843.5,-440 843.5,-459 979.5,-459 979.5,-440 843.5,-440"/>
<text text-anchor="middle" x="911.5" y="-447" font-family="Helvetica,sans-Serif" font-size="10.00">JoyButtonSlot::getMixSlots</text>
</a>
</g>
</g>
<!-- Node7&#45;&gt;Node8 -->
<g id="edge7" class="edge">
<title>Node7&#45;&gt;Node8</title>
<path fill="none" stroke="midnightblue" d="M778.65,-472.96C800,-469.16 824.72,-464.76 846.95,-460.81"/>
<polygon fill="midnightblue" stroke="midnightblue" points="847.73,-464.22 856.97,-459.02 846.51,-457.33 847.73,-464.22"/>
</g>
<!-- Node10 -->
<g id="node10" class="node">
<title>Node10</title>
<g id="a_node10"><a xlink:href="$namespacePadderCommon.html#aaa09739d2df84421a5a3467a06ce941c" xlink:title="Returns the &quot;human&#45;readable&quot; name of the given profile.">
<polygon fill="white" stroke="black" points="831,-478 831,-497 992,-497 992,-478 831,-478"/>
<text text-anchor="middle" x="911.5" y="-485" font-family="Helvetica,sans-Serif" font-size="10.00">PadderCommon::getProfileName</text>
</a>
</g>
</g>
<!-- Node7&#45;&gt;Node10 -->
<g id="edge9" class="edge">
<title>Node7&#45;&gt;Node10</title>
<path fill="none" stroke="midnightblue" d="M794.07,-484.36C802.76,-484.6 811.73,-484.84 820.68,-485.08"/>
<polygon fill="midnightblue" stroke="midnightblue" points="820.65,-488.58 830.74,-485.35 820.84,-481.58 820.65,-488.58"/>
</g>
<!-- Node11 -->
<g id="node11" class="node">
<title>Node11</title>
<g id="a_node11"><a xlink:href="$event_8cpp.html#a76ce89b71143c1c09343f45f038b4a67" xlink:title=" ">
<polygon fill="white" stroke="black" points="861,-279 861,-298 962,-298 962,-279 861,-279"/>
<text text-anchor="middle" x="911.5" y="-286" font-family="Helvetica,sans-Serif" font-size="10.00">keysymToKeyString</text>
</a>
</g>
</g>
<!-- Node7&#45;&gt;Node11 -->
<g id="edge10" class="edge">
<title>Node7&#45;&gt;Node11</title>
<path fill="none" stroke="midnightblue" d="M734.2,-472.88C763.75,-441.98 856.5,-344.98 894.26,-305.48"/>
<polygon fill="midnightblue" stroke="midnightblue" points="896.86,-307.83 901.25,-298.18 891.8,-302.99 896.86,-307.83"/>
</g>
<!-- Node32 -->
<g id="node32" class="node">
<title>Node32</title>
<g id="a_node32"><a xlink:href="$classJoyButtonSlot.html#a37ff2b523177bae4ea6a44b82f2973eb" xlink:title=" ">
<polygon fill="white" stroke="black" points="834,-516 834,-535 989,-535 989,-516 834,-516"/>
<text text-anchor="middle" x="911.5" y="-523" font-family="Helvetica,sans-Serif" font-size="10.00">JoyButtonSlot::movementString</text>
</a>
</g>
</g>
<!-- Node7&#45;&gt;Node32 -->
<g id="edge39" class="edge">
<title>Node7&#45;&gt;Node32</title>
<path fill="none" stroke="midnightblue" d="M766.17,-492.04C793.67,-498.42 830.03,-506.85 859.38,-513.65"/>
<polygon fill="midnightblue" stroke="midnightblue" points="858.91,-517.13 869.45,-515.98 860.5,-510.32 858.91,-517.13"/>
</g>
<!-- Node9 -->
<g id="node9" class="node">
<title>Node9</title>
<g id="a_node9"><a xlink:href="$classJoyButtonSlot.html#a9ba9cb0dda063a7df5575072c0aabe01" xlink:title=" ">
<polygon fill="white" stroke="black" points="1037,-453.5 1037,-483.5 1166,-483.5 1166,-453.5 1037,-453.5"/>
<text text-anchor="start" x="1045" y="-471.5" font-family="Helvetica,sans-Serif" font-size="10.00">JoyButtonSlot::secureMix</text>
<text text-anchor="middle" x="1101.5" y="-460.5" font-family="Helvetica,sans-Serif" font-size="10.00">SlotsInit</text>
</a>
</g>
</g>
<!-- Node8&#45;&gt;Node9 -->
<g id="edge8" class="edge">
<title>Node8&#45;&gt;Node9</title>
<path fill="none" stroke="midnightblue" d="M979.58,-456.28C994.89,-457.83 1011.24,-459.48 1026.81,-461.05"/>
<polygon fill="midnightblue" stroke="midnightblue" points="1026.61,-464.55 1036.91,-462.07 1027.31,-457.59 1026.61,-464.55"/>
</g>
<!-- Node12 -->
<g id="node12" class="node">
<title>Node12</title>
<g id="a_node12"><a xlink:href="$classX11Extras.html#a643c95dc1de8eb073a0accb41619fe83" xlink:title="Get display instance.">
<polygon fill="white" stroke="black" points="1239,-317 1239,-336 1338,-336 1338,-317 1239,-317"/>
<text text-anchor="middle" x="1288.5" y="-324" font-family="Helvetica,sans-Serif" font-size="10.00">X11Extras::display</text>
</a>
</g>
</g>
<!-- Node11&#45;&gt;Node12 -->
<g id="edge11" class="edge">
<title>Node11&#45;&gt;Node12</title>
<path fill="none" stroke="midnightblue" d="M962.21,-294.84C982.58,-297.36 1006.41,-300.19 1028,-302.5 1096.75,-309.84 1175.89,-316.97 1228.51,-321.53"/>
<polygon fill="midnightblue" stroke="midnightblue" points="1228.41,-325.03 1238.67,-322.4 1229.01,-318.06 1228.41,-325.03"/>
</g>
<!-- Node13 -->
<g id="node13" class="node">
<title>Node13</title>
<g id="a_node13"><a xlink:href="$classBaseEventHandler.html#a9a014e472ec57408d16b8b5eed964e90" xlink:title=" ">
<polygon fill="white" stroke="black" points="1211,-279 1211,-298 1366,-298 1366,-279 1211,-279"/>
<text text-anchor="middle" x="1288.5" y="-286" font-family="Helvetica,sans-Serif" font-size="10.00">BaseEventHandler::getIdentifier</text>
</a>
</g>
</g>
<!-- Node11&#45;&gt;Node13 -->
<g id="edge12" class="edge">
<title>Node11&#45;&gt;Node13</title>
<path fill="none" stroke="midnightblue" d="M962.3,-288.5C1023,-288.5 1126.61,-288.5 1200.57,-288.5"/>
<polygon fill="midnightblue" stroke="midnightblue" points="1200.8,-292 1210.8,-288.5 1200.8,-285 1200.8,-292"/>
</g>
<!-- Node14 -->
<g id="node14" class="node">
<title>Node14</title>
<g id="a_node14"><a xlink:href="$classEventHandlerFactory.html#a90ce153a19fbb91128bd52eb083ce271" xlink:title=" ">
<polygon fill="white" stroke="black" points="1234,-229.5 1234,-259.5 1343,-259.5 1343,-229.5 1234,-229.5"/>
<text text-anchor="start" x="1242" y="-247.5" font-family="Helvetica,sans-Serif" font-size="10.00">EventHandlerFactory</text>
<text text-anchor="middle" x="1288.5" y="-236.5" font-family="Helvetica,sans-Serif" font-size="10.00">::getInstance</text>
</a>
</g>
</g>
<!-- Node11&#45;&gt;Node14 -->
<g id="edge13" class="edge">
<title>Node11&#45;&gt;Node14</title>
<path fill="none" stroke="midnightblue" d="M962.3,-282.66C1029.66,-274.75 1149.86,-260.65 1223.75,-251.98"/>
<polygon fill="midnightblue" stroke="midnightblue" points="1224.33,-255.44 1233.86,-250.79 1223.52,-248.48 1224.33,-255.44"/>
</g>
<!-- Node17 -->
<g id="node17" class="node">
<title>Node17</title>
<g id="a_node17"><a xlink:href="$classEventHandlerFactory.html#a4c13007f0ece5bf881080c9c04f1f20d" xlink:title=" ">
<polygon fill="white" stroke="black" points="1595,-269.5 1595,-299.5 1704,-299.5 1704,-269.5 1595,-269.5"/>
<text text-anchor="start" x="1603" y="-287.5" font-family="Helvetica,sans-Serif" font-size="10.00">EventHandlerFactory</text>
<text text-anchor="middle" x="1649.5" y="-276.5" font-family="Helvetica,sans-Serif" font-size="10.00">::handler</text>
</a>
</g>
</g>
<!-- Node11&#45;&gt;Node17 -->
<g id="edge22" class="edge">
<title>Node11&#45;&gt;Node17</title>
<path fill="none" stroke="midnightblue" d="M928.84,-298.27C1002.9,-341.22 1313.33,-506.7 1540,-405.5 1584.4,-385.68 1618.2,-337.7 1635.54,-308.47"/>
<polygon fill="midnightblue" stroke="midnightblue" points="1638.63,-310.11 1640.59,-299.69 1632.57,-306.62 1638.63,-310.11"/>
</g>
<!-- Node19 -->
<g id="node19" class="node">
<title>Node19</title>
<g id="a_node19"><a xlink:href="$classX11Extras.html#ace76277fced60e6bd6ff880030338182" xlink:title=" ">
<polygon fill="white" stroke="black" points="1229,-39 1229,-58 1348,-58 1348,-39 1229,-39"/>
<text text-anchor="middle" x="1288.5" y="-46" font-family="Helvetica,sans-Serif" font-size="10.00">X11Extras::getInstance</text>
</a>
</g>
</g>
<!-- Node11&#45;&gt;Node19 -->
<g id="edge19" class="edge">
<title>Node11&#45;&gt;Node19</title>
<path fill="none" stroke="midnightblue" d="M921.54,-278.98C940.34,-259.46 985.42,-214.02 1028,-181.5 1104.16,-123.34 1122.75,-104.84 1211,-67.5 1216.79,-65.05 1222.96,-62.87 1229.2,-60.94"/>
<polygon fill="midnightblue" stroke="midnightblue" points="1230.37,-64.24 1239,-58.1 1228.42,-57.52 1230.37,-64.24"/>
</g>
<!-- Node22 -->
<g id="node22" class="node">
<title>Node22</title>
<g id="a_node22"><a xlink:href="$event_8cpp.html#ad239a34cab482dc3cad5a23a9ac1ad78" xlink:title=" ">
<polygon fill="white" stroke="black" points="1049.5,-191 1049.5,-210 1153.5,-210 1153.5,-191 1049.5,-191"/>
<text text-anchor="middle" x="1101.5" y="-198" font-family="Helvetica,sans-Serif" font-size="10.00">keycodeToKeyString</text>
</a>
</g>
</g>
<!-- Node11&#45;&gt;Node22 -->
<g id="edge23" class="edge">
<title>Node11&#45;&gt;Node22</title>
<path fill="none" stroke="midnightblue" d="M932.48,-278.86C955.47,-267.79 994.38,-249.16 1028,-233.5 1041.69,-227.13 1056.88,-220.19 1069.82,-214.32"/>
<polygon fill="midnightblue" stroke="midnightblue" points="1071.53,-217.39 1079.2,-210.08 1068.65,-211.01 1071.53,-217.39"/>
</g>
<!-- Node15 -->
<g id="node15" class="node">
<title>Node15</title>
<g id="a_node15"><a xlink:href="$classEventHandlerFactory.html#ade5162034acc0f8683725fdb124bece0" xlink:title=" ">
<polygon fill="white" stroke="black" points="1408,-365.5 1408,-395.5 1534,-395.5 1534,-365.5 1408,-365.5"/>
<text text-anchor="start" x="1416" y="-383.5" font-family="Helvetica,sans-Serif" font-size="10.00">EventHandlerFactory</text>
<text text-anchor="middle" x="1471" y="-372.5" font-family="Helvetica,sans-Serif" font-size="10.00">::buildEventGeneratorList</text>
</a>
</g>
</g>
<!-- Node14&#45;&gt;Node15 -->
<g id="edge14" class="edge">
<title>Node14&#45;&gt;Node15</title>
<path fill="none" stroke="midnightblue" d="M1343.37,-255.5C1351.63,-258.97 1359.54,-263.52 1366,-269.5 1396.7,-297.94 1371.64,-327.71 1402,-356.5 1403.14,-357.58 1404.32,-358.61 1405.55,-359.59"/>
<polygon fill="midnightblue" stroke="midnightblue" points="1403.97,-362.75 1414.22,-365.43 1407.89,-356.94 1403.97,-362.75"/>
</g>
<!-- Node16 -->
<g id="node16" class="node">
<title>Node16</title>
<g id="a_node16"><a xlink:href="$classEventHandlerFactory.html#a2f843293b2ea47271fc7bd99bd871fa6" xlink:title=" ">
<polygon fill="white" stroke="black" points="1413.5,-316.5 1413.5,-346.5 1528.5,-346.5 1528.5,-316.5 1413.5,-316.5"/>
<text text-anchor="start" x="1421.5" y="-334.5" font-family="Helvetica,sans-Serif" font-size="10.00">EventHandlerFactory</text>
<text text-anchor="middle" x="1471" y="-323.5" font-family="Helvetica,sans-Serif" font-size="10.00">::EventHandlerFactory</text>
</a>
</g>
</g>
<!-- Node14&#45;&gt;Node16 -->
<g id="edge15" class="edge">
<title>Node14&#45;&gt;Node16</title>
<path fill="none" stroke="midnightblue" d="M1343.31,-258.3C1351.21,-261.39 1359.03,-265.09 1366,-269.5 1385.66,-281.94 1382.49,-294.83 1402,-307.5 1404.41,-309.07 1406.94,-310.54 1409.54,-311.94"/>
<polygon fill="midnightblue" stroke="midnightblue" points="1408.09,-315.12 1418.61,-316.35 1411.15,-308.83 1408.09,-315.12"/>
</g>
<!-- Node14&#45;&gt;Node17 -->
<g id="edge18" class="edge">
<title>Node14&#45;&gt;Node17</title>
<path fill="none" stroke="midnightblue" d="M1343.04,-244.72C1393.95,-245.58 1472.55,-248.62 1540,-258.5 1554.64,-260.65 1570.2,-263.82 1584.83,-267.23"/>
<polygon fill="midnightblue" stroke="midnightblue" points="1584.25,-270.69 1594.79,-269.61 1585.88,-263.88 1584.25,-270.69"/>
</g>
<!-- Node18 -->
<g id="node18" class="node">
<title>Node18</title>
<g id="a_node18"><a xlink:href="$classEventHandlerFactory.html#afa5ca0171c70b1a24f92b5c8dd00dc92" xlink:title=" ">
<polygon fill="white" stroke="black" points="1416.5,-267.5 1416.5,-297.5 1525.5,-297.5 1525.5,-267.5 1416.5,-267.5"/>
<text text-anchor="start" x="1424.5" y="-285.5" font-family="Helvetica,sans-Serif" font-size="10.00">EventHandlerFactory</text>
<text text-anchor="middle" x="1471" y="-274.5" font-family="Helvetica,sans-Serif" font-size="10.00">::fallBackIdentifier</text>
</a>
</g>
</g>
<!-- Node14&#45;&gt;Node18 -->
<g id="edge17" class="edge">
<title>Node14&#45;&gt;Node18</title>
<path fill="none" stroke="midnightblue" d="M1343.17,-255.8C1362.99,-259.97 1385.65,-264.74 1406.28,-269.09"/>
<polygon fill="midnightblue" stroke="midnightblue" points="1405.72,-272.54 1416.23,-271.18 1407.16,-265.69 1405.72,-272.54"/>
</g>
<!-- Node16&#45;&gt;Node17 -->
<g id="edge16" class="edge">
<title>Node16&#45;&gt;Node17</title>
<path fill="none" stroke="midnightblue" d="M1528.33,-316.5C1546.38,-311.69 1566.48,-306.34 1585,-301.41"/>
<polygon fill="midnightblue" stroke="midnightblue" points="1586.04,-304.75 1594.81,-298.8 1584.24,-297.99 1586.04,-304.75"/>
</g>
<!-- Node20 -->
<g id="node20" class="node">
<title>Node20</title>
<g id="a_node20"><a xlink:href="$classX11Extras.html#ab9bcb016e23bacb0e988feb8175d2c88" xlink:title=" ">
<polygon fill="white" stroke="black" points="1414,-37 1414,-56 1528,-56 1528,-37 1414,-37"/>
<text text-anchor="middle" x="1471" y="-44" font-family="Helvetica,sans-Serif" font-size="10.00">X11Extras::X11Extras</text>
</a>
</g>
</g>
<!-- Node19&#45;&gt;Node20 -->
<g id="edge20" class="edge">
<title>Node19&#45;&gt;Node20</title>
<path fill="none" stroke="midnightblue" d="M1348.1,-47.85C1365.83,-47.65 1385.41,-47.44 1403.61,-47.24"/>
<polygon fill="midnightblue" stroke="midnightblue" points="1403.88,-50.73 1413.84,-47.12 1403.8,-43.73 1403.88,-50.73"/>
</g>
<!-- Node21 -->
<g id="node21" class="node">
<title>Node21</title>
<g id="a_node21"><a xlink:href="$classX11Extras.html#a6f63e77ed045e174546d77333672b8f0" xlink:title=" ">
<polygon fill="white" stroke="black" points="1582,-26.5 1582,-56.5 1717,-56.5 1717,-26.5 1582,-26.5"/>
<text text-anchor="start" x="1590" y="-44.5" font-family="Helvetica,sans-Serif" font-size="10.00">X11Extras::populateKnown</text>
<text text-anchor="middle" x="1649.5" y="-33.5" font-family="Helvetica,sans-Serif" font-size="10.00">Aliases</text>
</a>
</g>
</g>
<!-- Node20&#45;&gt;Node21 -->
<g id="edge21" class="edge">
<title>Node20&#45;&gt;Node21</title>
<path fill="none" stroke="midnightblue" d="M1528.33,-44.9C1542.18,-44.51 1557.25,-44.08 1571.88,-43.67"/>
<polygon fill="midnightblue" stroke="midnightblue" points="1572.02,-47.17 1581.92,-43.39 1571.83,-40.17 1572.02,-47.17"/>
</g>
<!-- Node22&#45;&gt;Node12 -->
<g id="edge24" class="edge">
<title>Node22&#45;&gt;Node12</title>
<path fill="none" stroke="midnightblue" d="M1109.41,-210.22C1124.99,-231.38 1165.08,-281.76 1211,-307.5 1216.56,-310.62 1222.63,-313.23 1228.84,-315.42"/>
<polygon fill="midnightblue" stroke="midnightblue" points="1228.08,-318.85 1238.67,-318.52 1230.18,-312.17 1228.08,-318.85"/>
</g>
<!-- Node22&#45;&gt;Node13 -->
<g id="edge28" class="edge">
<title>Node22&#45;&gt;Node13</title>
<path fill="none" stroke="midnightblue" d="M1114.78,-210.21C1134.14,-225.06 1173.45,-253.41 1211,-269.5 1216.78,-271.98 1222.95,-274.18 1229.18,-276.12"/>
<polygon fill="midnightblue" stroke="midnightblue" points="1228.4,-279.54 1238.97,-278.96 1230.35,-272.81 1228.4,-279.54"/>
</g>
<!-- Node22&#45;&gt;Node14 -->
<g id="edge36" class="edge">
<title>Node22&#45;&gt;Node14</title>
<path fill="none" stroke="midnightblue" d="M1142.64,-210.05C1166.4,-215.7 1197.02,-222.98 1223.99,-229.4"/>
<polygon fill="midnightblue" stroke="midnightblue" points="1223.21,-232.81 1233.74,-231.71 1224.83,-226 1223.21,-232.81"/>
</g>
<!-- Node22&#45;&gt;Node17 -->
<g id="edge38" class="edge">
<title>Node22&#45;&gt;Node17</title>
<path fill="none" stroke="midnightblue" d="M1153.54,-200.42C1236.06,-201.4 1403.33,-207.96 1540,-242.5 1562.55,-248.2 1586.77,-257.27 1606.59,-265.53"/>
<polygon fill="midnightblue" stroke="midnightblue" points="1605.37,-268.81 1615.94,-269.49 1608.1,-262.37 1605.37,-268.81"/>
</g>
<!-- Node22&#45;&gt;Node19 -->
<g id="edge37" class="edge">
<title>Node22&#45;&gt;Node19</title>
<path fill="none" stroke="midnightblue" d="M1111.84,-190.87C1126.06,-176.03 1153.73,-146.47 1175,-119.5 1192.41,-97.43 1187.87,-83.47 1211,-67.5 1213.9,-65.5 1217,-63.7 1220.21,-62.1"/>
<polygon fill="midnightblue" stroke="midnightblue" points="1221.76,-65.24 1229.55,-58.06 1218.98,-58.82 1221.76,-65.24"/>
</g>
<!-- Node23 -->
<g id="node23" class="node">
<title>Node23</title>
<g id="a_node23"><a xlink:href="$classUInputHelper.html#ac4c70c9479c1cc0eb515ab1bdf2426f5" xlink:title=" ">
<polygon fill="white" stroke="black" points="1586,-147.5 1586,-177.5 1713,-177.5 1713,-147.5 1586,-147.5"/>
<text text-anchor="start" x="1594" y="-165.5" font-family="Helvetica,sans-Serif" font-size="10.00">UInputHelper::getDisplay</text>
<text text-anchor="middle" x="1649.5" y="-154.5" font-family="Helvetica,sans-Serif" font-size="10.00">String</text>
</a>
</g>
</g>
<!-- Node22&#45;&gt;Node23 -->
<g id="edge25" class="edge">
<title>Node22&#45;&gt;Node23</title>
<path fill="none" stroke="midnightblue" d="M1153.74,-193.1C1171.81,-190.7 1192.28,-188.22 1211,-186.5 1339.06,-174.74 1488.78,-168.05 1575.7,-164.86"/>
<polygon fill="midnightblue" stroke="midnightblue" points="1575.86,-168.35 1585.73,-164.49 1575.61,-161.36 1575.86,-168.35"/>
</g>
<!-- Node25 -->
<g id="node25" class="node">
<title>Node25</title>
<g id="a_node25"><a xlink:href="$classX11Extras.html#abe710bac948c9802105a2d9d06815cac" xlink:title="Get appropriate alias for a known KeySym string that might be blank or contain invalid characters whe...">
<polygon fill="white" stroke="black" points="1218.5,-115 1218.5,-134 1358.5,-134 1358.5,-115 1218.5,-115"/>
<text text-anchor="middle" x="1288.5" y="-122" font-family="Helvetica,sans-Serif" font-size="10.00">X11Extras::getDisplayString</text>
</a>
</g>
</g>
<!-- Node22&#45;&gt;Node25 -->
<g id="edge27" class="edge">
<title>Node22&#45;&gt;Node25</title>
<path fill="none" stroke="midnightblue" d="M1120.57,-190.85C1141.83,-179.74 1178.35,-161.37 1211,-148.5 1221.41,-144.4 1232.83,-140.5 1243.59,-137.09"/>
<polygon fill="midnightblue" stroke="midnightblue" points="1244.73,-140.41 1253.24,-134.11 1242.66,-133.72 1244.73,-140.41"/>
</g>
<!-- Node26 -->
<g id="node26" class="node">
<title>Node26</title>
<g id="a_node26"><a xlink:href="$classUInputHelper.html#a61509601d3dbd8933aaa26c1e2db02f6" xlink:title=" ">
<polygon fill="white" stroke="black" points="1223,-77 1223,-96 1354,-96 1354,-77 1223,-77"/>
<text text-anchor="middle" x="1288.5" y="-84" font-family="Helvetica,sans-Serif" font-size="10.00">UInputHelper::getInstance</text>
</a>
</g>
</g>
<!-- Node22&#45;&gt;Node26 -->
<g id="edge29" class="edge">
<title>Node22&#45;&gt;Node26</title>
<path fill="none" stroke="midnightblue" d="M1110.67,-190.74C1127.42,-171.39 1167.72,-128.1 1211,-105.5 1215.51,-103.15 1220.32,-101.07 1225.25,-99.25"/>
<polygon fill="midnightblue" stroke="midnightblue" points="1226.46,-102.54 1234.84,-96.05 1224.25,-95.9 1226.46,-102.54"/>
</g>
<!-- Node24 -->
<g id="node24" class="node">
<title>Node24</title>
<g id="a_node24"><a xlink:href="$classUInputHelper.html#a043b0fa7cf4ce5811d01d95f3ca318b7" xlink:title=" ">
<polygon fill="white" stroke="black" points="1759,-147.5 1759,-177.5 1915,-177.5 1915,-147.5 1759,-147.5"/>
<text text-anchor="start" x="1767" y="-165.5" font-family="Helvetica,sans-Serif" font-size="10.00">UInputHelper::getKnownAliases</text>
<text text-anchor="middle" x="1837" y="-154.5" font-family="Helvetica,sans-Serif" font-size="10.00">VKStrings</text>
</a>
</g>
</g>
<!-- Node23&#45;&gt;Node24 -->
<g id="edge26" class="edge">
<title>Node23&#45;&gt;Node24</title>
<path fill="none" stroke="midnightblue" d="M1713.04,-162.5C1724.55,-162.5 1736.75,-162.5 1748.82,-162.5"/>
<polygon fill="midnightblue" stroke="midnightblue" points="1748.92,-166 1758.92,-162.5 1748.92,-159 1748.92,-166"/>
</g>
<!-- Node27 -->
<g id="node27" class="node">
<title>Node27</title>
<g id="a_node27"><a xlink:href="$classUInputHelper.html#a5d56d23a0e0202435c7a5ff1aca9ce55" xlink:title=" ">
<polygon fill="white" stroke="black" points="1402,-80 1402,-99 1540,-99 1540,-80 1402,-80"/>
<text text-anchor="middle" x="1471" y="-87" font-family="Helvetica,sans-Serif" font-size="10.00">UInputHelper::UInputHelper</text>
</a>
</g>
</g>
<!-- Node26&#45;&gt;Node27 -->
<g id="edge30" class="edge">
<title>Node26&#45;&gt;Node27</title>
<path fill="none" stroke="midnightblue" d="M1354.15,-87.57C1366.25,-87.78 1379.01,-87.99 1391.46,-88.19"/>
<polygon fill="midnightblue" stroke="midnightblue" points="1391.78,-91.7 1401.83,-88.37 1391.89,-84.7 1391.78,-91.7"/>
</g>
<!-- Node28 -->
<g id="node28" class="node">
<title>Node28</title>
<g id="a_node28"><a xlink:href="$classUInputHelper.html#a0f4dbb4221502d86f7d0af12a9865568" xlink:title=" ">
<polygon fill="white" stroke="black" points="1576,-75.5 1576,-105.5 1723,-105.5 1723,-75.5 1576,-75.5"/>
<text text-anchor="start" x="1584" y="-93.5" font-family="Helvetica,sans-Serif" font-size="10.00">UInputHelper::populateKnown</text>
<text text-anchor="middle" x="1649.5" y="-82.5" font-family="Helvetica,sans-Serif" font-size="10.00">Aliases</text>
</a>
</g>
</g>
<!-- Node27&#45;&gt;Node28 -->
<g id="edge31" class="edge">
<title>Node27&#45;&gt;Node28</title>
<path fill="none" stroke="midnightblue" d="M1540.24,-89.89C1548.52,-89.93 1557.04,-89.98 1565.5,-90.03"/>
<polygon fill="midnightblue" stroke="midnightblue" points="1565.74,-93.53 1575.76,-90.09 1565.78,-86.53 1565.74,-93.53"/>
</g>
<!-- Node28&#45;&gt;Node24 -->
<g id="edge32" class="edge">
<title>Node28&#45;&gt;Node24</title>
<path fill="none" stroke="midnightblue" d="M1681.91,-105.54C1703.37,-115.53 1732.58,-128.58 1759,-138.5 1764.16,-140.44 1769.56,-142.35 1774.99,-144.19"/>
<polygon fill="midnightblue" stroke="midnightblue" points="1774.18,-147.61 1784.78,-147.43 1776.38,-140.97 1774.18,-147.61"/>
</g>
<!-- Node29 -->
<g id="node29" class="node">
<title>Node29</title>
<g id="a_node29"><a xlink:href="$classUInputHelper.html#a8f3fe71ae635cd3c46eaab79dd11c2e0" xlink:title=" ">
<polygon fill="white" stroke="black" points="1759,-0.5 1759,-30.5 1915,-30.5 1915,-0.5 1759,-0.5"/>
<text text-anchor="start" x="1767" y="-18.5" font-family="Helvetica,sans-Serif" font-size="10.00">UInputHelper::getKnownAliases</text>
<text text-anchor="middle" x="1837" y="-7.5" font-family="Helvetica,sans-Serif" font-size="10.00">X11SymVK</text>
</a>
</g>
</g>
<!-- Node28&#45;&gt;Node29 -->
<g id="edge33" class="edge">
<title>Node28&#45;&gt;Node29</title>
<path fill="none" stroke="midnightblue" d="M1700.45,-75.45C1708.16,-72.51 1715.91,-69.18 1723,-65.5 1740.52,-56.41 1741.35,-48.33 1759,-39.5 1762.73,-37.63 1766.64,-35.87 1770.63,-34.23"/>
<polygon fill="midnightblue" stroke="midnightblue" points="1771.99,-37.45 1780.05,-30.58 1769.47,-30.92 1771.99,-37.45"/>
</g>
<!-- Node30 -->
<g id="node30" class="node">
<title>Node30</title>
<g id="a_node30"><a xlink:href="$classUInputHelper.html#a9793030329fbbe1106b255814ef2bd0f" xlink:title=" ">
<polygon fill="white" stroke="black" points="1770,-98.5 1770,-128.5 1904,-128.5 1904,-98.5 1770,-98.5"/>
<text text-anchor="start" x="1778" y="-116.5" font-family="Helvetica,sans-Serif" font-size="10.00">UInputHelper::populateX11</text>
<text text-anchor="middle" x="1837" y="-105.5" font-family="Helvetica,sans-Serif" font-size="10.00">SymVk</text>
</a>
</g>
</g>
<!-- Node28&#45;&gt;Node30 -->
<g id="edge34" class="edge">
<title>Node28&#45;&gt;Node30</title>
<path fill="none" stroke="midnightblue" d="M1723.02,-99.49C1735.08,-100.99 1747.63,-102.54 1759.79,-104.05"/>
<polygon fill="midnightblue" stroke="midnightblue" points="1759.53,-107.55 1769.89,-105.3 1760.39,-100.6 1759.53,-107.55"/>
</g>
<!-- Node31 -->
<g id="node31" class="node">
<title>Node31</title>
<g id="a_node31"><a xlink:href="$classUInputHelper.html#af02574de230bb0550eebb63f5a669681" xlink:title=" ">
<polygon fill="white" stroke="black" points="1769,-49.5 1769,-79.5 1905,-79.5 1905,-49.5 1769,-49.5"/>
<text text-anchor="start" x="1777" y="-67.5" font-family="Helvetica,sans-Serif" font-size="10.00">UInputHelper::populateXVk</text>
<text text-anchor="middle" x="1837" y="-56.5" font-family="Helvetica,sans-Serif" font-size="10.00">Strings</text>
</a>
</g>
</g>
<!-- Node28&#45;&gt;Node31 -->
<g id="edge35" class="edge">
<title>Node28&#45;&gt;Node31</title>
<path fill="none" stroke="midnightblue" d="M1723.02,-80.34C1734.84,-78.68 1747.14,-76.96 1759.07,-75.28"/>
<polygon fill="midnightblue" stroke="midnightblue" points="1759.57,-78.75 1768.98,-73.89 1758.6,-71.82 1759.57,-78.75"/>
</g>
<!-- Node36 -->
<g id="node36" class="node">
<title>Node36</title>
<g id="a_node36"><a xlink:href="$classAdvanceButtonDialog.html#ab0a69a5cf232c47a8cbdef5141d1bd9b" xlink:title=" ">
<polygon fill="white" stroke="black" points="659,-636.5 659,-666.5 789,-666.5 789,-636.5 659,-636.5"/>
<text text-anchor="start" x="667" y="-654.5" font-family="Helvetica,sans-Serif" font-size="10.00">AdvanceButtonDialog</text>
<text text-anchor="middle" x="724" y="-643.5" font-family="Helvetica,sans-Serif" font-size="10.00">::appendBlankKeyGrabber</text>
</a>
</g>
</g>
<!-- Node35&#45;&gt;Node36 -->
<g id="edge43" class="edge">
<title>Node35&#45;&gt;Node36</title>
<path fill="none" stroke="midnightblue" d="M613.76,-651.5C625.03,-651.5 636.97,-651.5 648.65,-651.5"/>
<polygon fill="midnightblue" stroke="midnightblue" points="648.83,-655 658.83,-651.5 648.83,-648 648.83,-655"/>
</g>
<!-- Node39 -->
<g id="node39" class="node">
<title>Node39</title>
<g id="a_node39"><a xlink:href="$classAdvanceButtonDialog.html#aeb24c0b3026ce45fd97cab431d4b6040" xlink:title=" ">
<polygon fill="white" stroke="black" points="653,-587.5 653,-617.5 795,-617.5 795,-587.5 653,-587.5"/>
<text text-anchor="start" x="661" y="-605.5" font-family="Helvetica,sans-Serif" font-size="10.00">AdvanceButtonDialog</text>
<text text-anchor="middle" x="724" y="-594.5" font-family="Helvetica,sans-Serif" font-size="10.00">::changeTurboForSequences</text>
</a>
</g>
</g>
<!-- Node35&#45;&gt;Node39 -->
<g id="edge47" class="edge">
<title>Node35&#45;&gt;Node39</title>
<path fill="none" stroke="midnightblue" d="M606.78,-636.4C624.1,-631.34 643.59,-625.66 661.58,-620.42"/>
<polygon fill="midnightblue" stroke="midnightblue" points="662.77,-623.71 671.39,-617.55 660.81,-616.99 662.77,-623.71"/>
</g>
<!-- Node37 -->
<g id="node37" class="node">
<title>Node37</title>
<g id="a_node37"><a xlink:href="$classAdvanceButtonDialog.html#ab72e06536fc36f403249d7f48a925a82" xlink:title=" ">
<polygon fill="white" stroke="black" points="853.5,-636.5 853.5,-666.5 969.5,-666.5 969.5,-636.5 853.5,-636.5"/>
<text text-anchor="start" x="861.5" y="-654.5" font-family="Helvetica,sans-Serif" font-size="10.00">AdvanceButtonDialog</text>
<text text-anchor="middle" x="911.5" y="-643.5" font-family="Helvetica,sans-Serif" font-size="10.00">::connectButtonEvents</text>
</a>
</g>
</g>
<!-- Node36&#45;&gt;Node37 -->
<g id="edge44" class="edge">
<title>Node36&#45;&gt;Node37</title>
<path fill="none" stroke="midnightblue" d="M789.1,-651.5C806.52,-651.5 825.44,-651.5 843.04,-651.5"/>
<polygon fill="midnightblue" stroke="midnightblue" points="843.23,-655 853.23,-651.5 843.23,-648 843.23,-655"/>
</g>
<!-- Node37&#45;&gt;Node5 -->
<g id="edge46" class="edge">
<title>Node37&#45;&gt;Node5</title>
<path fill="none" stroke="midnightblue" d="M969.67,-651.5C988.16,-651.5 1008.91,-651.5 1028.34,-651.5"/>
<polygon fill="midnightblue" stroke="midnightblue" points="1028.36,-655 1038.36,-651.5 1028.36,-648 1028.36,-655"/>
</g>
<!-- Node38 -->
<g id="node38" class="node">
<title>Node38</title>
<g id="a_node38"><a xlink:href="$classJoyButtonSlot.html#abed7fe134c404b403ea79c0753f6eaaf" xlink:title=" ">
<polygon fill="white" stroke="black" points="1219,-579 1219,-598 1358,-598 1358,-579 1219,-579"/>
<text text-anchor="middle" x="1288.5" y="-586" font-family="Helvetica,sans-Serif" font-size="10.00">JoyButtonSlot::getSlotMode</text>
</a>
</g>
</g>
<!-- Node37&#45;&gt;Node38 -->
<g id="edge45" class="edge">
<title>Node37&#45;&gt;Node38</title>
<path fill="none" stroke="midnightblue" d="M969.66,-638.97C988.22,-635.07 1008.95,-630.91 1028,-627.5 1088.44,-616.69 1157.16,-606.45 1208.69,-599.18"/>
<polygon fill="midnightblue" stroke="midnightblue" points="1209.34,-602.62 1218.76,-597.77 1208.37,-595.69 1209.34,-602.62"/>
</g>
<!-- Node39&#45;&gt;Node5 -->
<g id="edge48" class="edge">
<title>Node39&#45;&gt;Node5</title>
<path fill="none" stroke="midnightblue" d="M795.01,-606.67C849.04,-610.46 925.54,-617.08 992,-627.5 1003.91,-629.37 1016.47,-631.75 1028.66,-634.29"/>
<polygon fill="midnightblue" stroke="midnightblue" points="1028.27,-637.79 1038.79,-636.46 1029.74,-630.95 1028.27,-637.79"/>
</g>
<!-- Node40 -->
<g id="node40" class="node">
<title>Node40</title>
<g id="a_node40"><a xlink:href="$classJoyButton.html#a0750530dac3901ece7c78c19d15e0d54" xlink:title=" ">
<polygon fill="white" stroke="black" points="850,-560 850,-579 973,-579 973,-560 850,-560"/>
<text text-anchor="middle" x="911.5" y="-567" font-family="Helvetica,sans-Serif" font-size="10.00">JoyButton::setUseTurbo</text>
</a>
</g>
</g>
<!-- Node39&#45;&gt;Node40 -->
<g id="edge49" class="edge">
<title>Node39&#45;&gt;Node40</title>
<path fill="none" stroke="midnightblue" d="M795.13,-590.02C812.12,-587 830.19,-583.79 846.87,-580.82"/>
<polygon fill="midnightblue" stroke="midnightblue" points="847.82,-584.21 857.05,-579.01 846.59,-577.31 847.82,-584.21"/>
</g>
<!-- Node41 -->
<g id="node41" class="node">
<title>Node41</title>
<g id="a_node41"><a xlink:href="$classJoyButton.html#a6e3ee0e05fe5d243b142c5f22011c2e9" xlink:title=" ">
<polygon fill="white" stroke="black" points="1028,-522 1028,-541 1175,-541 1175,-522 1028,-522"/>
<text text-anchor="middle" x="1101.5" y="-529" font-family="Helvetica,sans-Serif" font-size="10.00">JoyButton::containsSequence</text>
</a>
</g>
</g>
<!-- Node40&#45;&gt;Node41 -->
<g id="edge50" class="edge">
<title>Node40&#45;&gt;Node41</title>
<path fill="none" stroke="midnightblue" d="M959.94,-559.91C985.31,-554.78 1016.73,-548.43 1043.42,-543.04"/>
<polygon fill="midnightblue" stroke="midnightblue" points="1044.29,-546.43 1053.4,-541.02 1042.91,-539.57 1044.29,-546.43"/>
</g>
<!-- Node43 -->
<g id="node43" class="node">
<title>Node43</title>
<g id="a_node43"><a xlink:href="$classJoyButton.html#a42d517ef696229862b238c52c4ff345c" xlink:title=" ">
<polygon fill="white" stroke="black" points="1033,-560 1033,-579 1170,-579 1170,-560 1033,-560"/>
<text text-anchor="middle" x="1101.5" y="-567" font-family="Helvetica,sans-Serif" font-size="10.00">JoyButton::setTurboInterval</text>
</a>
</g>
</g>
<!-- Node40&#45;&gt;Node43 -->
<g id="edge53" class="edge">
<title>Node40&#45;&gt;Node43</title>
<path fill="none" stroke="midnightblue" d="M973.02,-563.15C988.84,-562.76 1006.12,-562.65 1022.7,-562.84"/>
<polygon fill="midnightblue" stroke="midnightblue" points="1022.87,-566.34 1032.92,-562.99 1022.98,-559.34 1022.87,-566.34"/>
</g>
<!-- Node41&#45;&gt;Node38 -->
<g id="edge52" class="edge">
<title>Node41&#45;&gt;Node38</title>
<path fill="none" stroke="midnightblue" d="M1141.02,-541.06C1152.04,-543.94 1164.03,-547.21 1175,-550.5 1200.69,-558.19 1229.32,-567.88 1251.27,-575.55"/>
<polygon fill="midnightblue" stroke="midnightblue" points="1250.25,-578.9 1260.85,-578.91 1252.57,-572.3 1250.25,-578.9"/>
</g>
<!-- Node42 -->
<g id="node42" class="node">
<title>Node42</title>
<g id="a_node42"><a xlink:href="$classJoyButton.html#ae1d364dfa70f47fae3db99ffbcdea44b" xlink:title=" ">
<polygon fill="white" stroke="black" points="1217,-522 1217,-541 1360,-541 1360,-522 1217,-522"/>
<text text-anchor="middle" x="1288.5" y="-529" font-family="Helvetica,sans-Serif" font-size="10.00">JoyButton::getAssignedSlots</text>
</a>
</g>
</g>
<!-- Node41&#45;&gt;Node42 -->
<g id="edge51" class="edge">
<title>Node41&#45;&gt;Node42</title>
<path fill="none" stroke="midnightblue" d="M1175.09,-531.5C1185.52,-531.5 1196.31,-531.5 1206.88,-531.5"/>
<polygon fill="midnightblue" stroke="midnightblue" points="1206.94,-535 1216.94,-531.5 1206.94,-528 1206.94,-535"/>
</g>
<!-- Node43&#45;&gt;Node40 -->
<g id="edge54" class="edge">
<title>Node43&#45;&gt;Node40</title>
<path fill="none" stroke="midnightblue" d="M1032.92,-576.01C1016.72,-576.31 999.37,-576.33 983.04,-576.06"/>
<polygon fill="midnightblue" stroke="midnightblue" points="983.09,-572.56 973.02,-575.85 982.95,-579.56 983.09,-572.56"/>
</g>
<!-- Node44&#45;&gt;Node4 -->
<g id="edge56" class="edge">
<title>Node44&#45;&gt;Node4</title>
<path fill="none" stroke="midnightblue" d="M455.02,-739.5C466.08,-739.5 477.65,-739.5 488.8,-739.5"/>
<polygon fill="midnightblue" stroke="midnightblue" points="488.9,-743 498.9,-739.5 488.9,-736 488.9,-743"/>
</g>
<!-- Node45&#45;&gt;Node3 -->
<g id="edge58" class="edge">
<title>Node45&#45;&gt;Node3</title>
<path fill="none" stroke="midnightblue" d="M274.05,-724.4C291.71,-719.32 311.59,-713.61 329.92,-708.34"/>
<polygon fill="midnightblue" stroke="midnightblue" points="330.98,-711.68 339.63,-705.55 329.05,-704.95 330.98,-711.68"/>
</g>
<!-- Node45&#45;&gt;Node44 -->
<g id="edge59" class="edge">
<title>Node45&#45;&gt;Node44</title>
<path fill="none" stroke="midnightblue" d="M295.29,-739.5C303.74,-739.5 312.34,-739.5 320.75,-739.5"/>
<polygon fill="midnightblue" stroke="midnightblue" points="320.89,-743 330.89,-739.5 320.89,-736 320.89,-743"/>
</g>
</g>
</svg>
