<?xml version="1.0" encoding="UTF-8" standalone="no"?>
<!DOCTYPE svg PUBLIC "-//W3C//DTD SVG 1.1//EN"
 "http://www.w3.org/Graphics/SVG/1.1/DTD/svg11.dtd">
<!-- Generated by graphviz version 2.43.0 (0)
 -->
<!-- Title: JoyControlStickButtonPushButton::generateLabel Pages: 1 -->
<svg width="696pt" height="165pt"
 viewBox="0.00 0.00 696.00 165.00" xmlns="http://www.w3.org/2000/svg" xmlns:xlink="http://www.w3.org/1999/xlink">
<g id="graph0" class="graph" transform="scale(1 1) rotate(0) translate(4 161)">
<title>JoyControlStickButtonPushButton::generateLabel</title>
<polygon fill="white" stroke="transparent" points="-4,4 -4,-161 692,-161 692,4 -4,4"/>
<!-- Node1 -->
<g id="node1" class="node">
<title>Node1</title>
<g id="a_node1"><a xlink:title="Generate the string that will be displayed on the button.">
<polygon fill="#bfbfbf" stroke="black" points="0,-63 0,-93 137,-93 137,-63 0,-63"/>
<text text-anchor="start" x="8" y="-81" font-family="Helvetica,sans-Serif" font-size="10.00">JoyControlStickButtonPush</text>
<text text-anchor="middle" x="68.5" y="-70" font-family="Helvetica,sans-Serif" font-size="10.00">Button::generateLabel</text>
</a>
</g>
</g>
<!-- Node2 -->
<g id="node2" class="node">
<title>Node2</title>
<g id="a_node2"><a xlink:href="$classJoyButton.html#a2dc48e4d0de59b87938f5c0489d6e198" xlink:title=" ">
<polygon fill="white" stroke="black" points="192.5,-112.5 192.5,-131.5 326.5,-131.5 326.5,-112.5 192.5,-112.5"/>
<text text-anchor="middle" x="259.5" y="-119.5" font-family="Helvetica,sans-Serif" font-size="10.00">JoyButton::getActionName</text>
</a>
</g>
</g>
<!-- Node1&#45;&gt;Node2 -->
<g id="edge1" class="edge">
<title>Node1&#45;&gt;Node2</title>
<path fill="none" stroke="midnightblue" d="M131.03,-93.06C144.83,-96.38 159.4,-99.85 173,-103 183.33,-105.39 194.37,-107.89 204.97,-110.26"/>
<polygon fill="midnightblue" stroke="midnightblue" points="204.45,-113.73 214.97,-112.49 205.97,-106.9 204.45,-113.73"/>
</g>
<!-- Node3 -->
<g id="node3" class="node">
<title>Node3</title>
<g id="a_node3"><a xlink:href="$classJoyControlStickButton.html#a86579104005fc594de94d9bc126fb4e9" xlink:title=" ">
<polygon fill="white" stroke="black" points="173,-63 173,-93 346,-93 346,-63 173,-63"/>
<text text-anchor="start" x="181" y="-81" font-family="Helvetica,sans-Serif" font-size="10.00">JoyControlStickButton</text>
<text text-anchor="middle" x="259.5" y="-70" font-family="Helvetica,sans-Serif" font-size="10.00">::getCalculatedActiveZoneSummary</text>
</a>
</g>
</g>
<!-- Node1&#45;&gt;Node3 -->
<g id="edge2" class="edge">
<title>Node1&#45;&gt;Node3</title>
<path fill="none" stroke="midnightblue" d="M137.2,-78C145.5,-78 154.1,-78 162.71,-78"/>
<polygon fill="midnightblue" stroke="midnightblue" points="162.81,-81.5 172.81,-78 162.81,-74.5 162.81,-81.5"/>
</g>
<!-- Node10 -->
<g id="node10" class="node">
<title>Node10</title>
<g id="a_node10"><a xlink:href="$classFlashButtonWidget.html#aff41eff76f8396ff1b9e2539d680c4cf" xlink:title=" ">
<polygon fill="white" stroke="black" points="206.5,-14 206.5,-44 312.5,-44 312.5,-14 206.5,-14"/>
<text text-anchor="start" x="214.5" y="-32" font-family="Helvetica,sans-Serif" font-size="10.00">FlashButtonWidget::</text>
<text text-anchor="middle" x="259.5" y="-21" font-family="Helvetica,sans-Serif" font-size="10.00">ifDisplayNames</text>
</a>
</g>
</g>
<!-- Node1&#45;&gt;Node10 -->
<g id="edge9" class="edge">
<title>Node1&#45;&gt;Node10</title>
<path fill="none" stroke="midnightblue" d="M127.49,-62.97C149.42,-57.28 174.45,-50.79 196.71,-45.02"/>
<polygon fill="midnightblue" stroke="midnightblue" points="197.6,-48.41 206.4,-42.51 195.84,-41.63 197.6,-48.41"/>
</g>
<!-- Node4 -->
<g id="node4" class="node">
<title>Node4</title>
<g id="a_node4"><a xlink:href="$classJoyButton.html#aa1eb52e9cce61ac403f9b451c512f197" xlink:title=" ">
<polygon fill="white" stroke="black" points="386,-137.5 386,-156.5 518,-156.5 518,-137.5 386,-137.5"/>
<text text-anchor="middle" x="452" y="-144.5" font-family="Helvetica,sans-Serif" font-size="10.00">JoyButton::getButtonState</text>
</a>
</g>
</g>
<!-- Node3&#45;&gt;Node4 -->
<g id="edge3" class="edge">
<title>Node3&#45;&gt;Node4</title>
<path fill="none" stroke="midnightblue" d="M321.21,-93.1C329.7,-95.97 338.19,-99.27 346,-103 363.58,-111.4 364.36,-119.74 382,-128 386.99,-130.34 392.33,-132.44 397.74,-134.31"/>
<polygon fill="midnightblue" stroke="midnightblue" points="396.9,-137.72 407.5,-137.43 399.04,-131.05 396.9,-137.72"/>
</g>
<!-- Node5 -->
<g id="node5" class="node">
<title>Node5</title>
<g id="a_node5"><a xlink:href="$classJoyButton.html#a075d1d6380be607fcf69994f0d941afe" xlink:title=" ">
<polygon fill="white" stroke="black" points="389,-88 389,-118 515,-118 515,-88 389,-88"/>
<text text-anchor="start" x="397" y="-106" font-family="Helvetica,sans-Serif" font-size="10.00">JoyButton::getCalculated</text>
<text text-anchor="middle" x="452" y="-95" font-family="Helvetica,sans-Serif" font-size="10.00">ActiveZoneSummary</text>
</a>
</g>
</g>
<!-- Node3&#45;&gt;Node5 -->
<g id="edge4" class="edge">
<title>Node3&#45;&gt;Node5</title>
<path fill="none" stroke="midnightblue" d="M346.28,-89.26C357.13,-90.68 368.15,-92.13 378.76,-93.52"/>
<polygon fill="midnightblue" stroke="midnightblue" points="378.42,-97 388.79,-94.84 379.33,-90.06 378.42,-97"/>
</g>
<!-- Node7 -->
<g id="node7" class="node">
<title>Node7</title>
<g id="a_node7"><a xlink:href="$classJoyControlStick.html#a81da76522d4f12f081c169f0a0365996" xlink:title=" ">
<polygon fill="white" stroke="black" points="382,-39 382,-69 522,-69 522,-39 382,-39"/>
<text text-anchor="start" x="390" y="-57" font-family="Helvetica,sans-Serif" font-size="10.00">JoyControlStick::getModifier</text>
<text text-anchor="middle" x="452" y="-46" font-family="Helvetica,sans-Serif" font-size="10.00">Button</text>
</a>
</g>
</g>
<!-- Node3&#45;&gt;Node7 -->
<g id="edge6" class="edge">
<title>Node3&#45;&gt;Node7</title>
<path fill="none" stroke="midnightblue" d="M346.28,-67.19C354.77,-66.12 363.37,-65.04 371.79,-63.98"/>
<polygon fill="midnightblue" stroke="midnightblue" points="372.48,-67.42 381.97,-62.7 371.61,-60.47 372.48,-67.42"/>
</g>
<!-- Node8 -->
<g id="node8" class="node">
<title>Node8</title>
<g id="a_node8"><a xlink:href="$classJoyButton.html#a224d30d26392925857317fc5c68afaae" xlink:title=" ">
<polygon fill="white" stroke="black" points="386,-0.5 386,-19.5 518,-19.5 518,-0.5 386,-0.5"/>
<text text-anchor="middle" x="452" y="-7.5" font-family="Helvetica,sans-Serif" font-size="10.00">JoyButton::hasActiveSlots</text>
</a>
</g>
</g>
<!-- Node3&#45;&gt;Node8 -->
<g id="edge7" class="edge">
<title>Node3&#45;&gt;Node8</title>
<path fill="none" stroke="midnightblue" d="M320.69,-62.92C329.34,-60.03 338.01,-56.72 346,-53 363.43,-44.87 364.51,-36.99 382,-29 387.09,-26.68 392.52,-24.58 398.01,-22.71"/>
<polygon fill="midnightblue" stroke="midnightblue" points="399.44,-25.93 407.92,-19.58 397.33,-19.26 399.44,-25.93"/>
</g>
<!-- Node6 -->
<g id="node6" class="node">
<title>Node6</title>
<g id="a_node6"><a xlink:href="$classJoyButton.html#a1b49d9ab85f0d5d128e2eca616747018" xlink:title=" ">
<polygon fill="white" stroke="black" points="559.5,-88 559.5,-118 686.5,-118 686.5,-88 559.5,-88"/>
<text text-anchor="start" x="567.5" y="-106" font-family="Helvetica,sans-Serif" font-size="10.00">JoyButton::lockForWrited</text>
<text text-anchor="middle" x="623" y="-95" font-family="Helvetica,sans-Serif" font-size="10.00">String</text>
</a>
</g>
</g>
<!-- Node5&#45;&gt;Node6 -->
<g id="edge5" class="edge">
<title>Node5&#45;&gt;Node6</title>
<path fill="none" stroke="midnightblue" d="M515.45,-103C526.39,-103 537.86,-103 549.06,-103"/>
<polygon fill="midnightblue" stroke="midnightblue" points="549.24,-106.5 559.24,-103 549.24,-99.5 549.24,-106.5"/>
</g>
<!-- Node9 -->
<g id="node9" class="node">
<title>Node9</title>
<g id="a_node9"><a xlink:href="$classJoyButton.html#a64f1660931aea2fa8df1bf5e313c05ba" xlink:title=" ">
<polygon fill="white" stroke="black" points="558,-0.5 558,-19.5 688,-19.5 688,-0.5 558,-0.5"/>
<text text-anchor="middle" x="623" y="-7.5" font-family="Helvetica,sans-Serif" font-size="10.00">JoyButton::getActiveSlots</text>
</a>
</g>
</g>
<!-- Node8&#45;&gt;Node9 -->
<g id="edge8" class="edge">
<title>Node8&#45;&gt;Node9</title>
<path fill="none" stroke="midnightblue" d="M518.34,-10C527.99,-10 537.99,-10 547.81,-10"/>
<polygon fill="midnightblue" stroke="midnightblue" points="547.95,-13.5 557.95,-10 547.95,-6.5 547.95,-13.5"/>
</g>
</g>
</svg>
