<?xml version="1.0" encoding="UTF-8" standalone="no"?>
<!DOCTYPE svg PUBLIC "-//W3C//DTD SVG 1.1//EN"
 "http://www.w3.org/Graphics/SVG/1.1/DTD/svg11.dtd">
<!-- Generated by graphviz version 2.43.0 (0)
 -->
<!-- Title: InputDevice::setVDPadButtonName Pages: 1 -->
<svg width="726pt" height="173pt"
 viewBox="0.00 0.00 726.00 172.82" xmlns="http://www.w3.org/2000/svg" xmlns:xlink="http://www.w3.org/1999/xlink">
<g id="graph0" class="graph" transform="scale(1 1) rotate(0) translate(4 168.82)">
<title>InputDevice::setVDPadButtonName</title>
<polygon fill="white" stroke="transparent" points="-4,4 -4,-168.82 722,-168.82 722,4 -4,4"/>
<!-- Node1 -->
<g id="node1" class="node">
<title>Node1</title>
<g id="a_node1"><a xlink:title=" ">
<polygon fill="#bfbfbf" stroke="black" points="0,-82.5 0,-101.5 175,-101.5 175,-82.5 0,-82.5"/>
<text text-anchor="middle" x="87.5" y="-89.5" font-family="Helvetica,sans-Serif" font-size="10.00">InputDevice::setVDPadButtonName</text>
</a>
</g>
</g>
<!-- Node2 -->
<g id="node2" class="node">
<title>Node2</title>
<g id="a_node2"><a xlink:href="$classJoyDPad.html#a5e31e9bf9edfcc87b69d389dbe9d2ea9" xlink:title=" ">
<polygon fill="white" stroke="black" points="405,-126.5 405,-145.5 526,-145.5 526,-126.5 405,-126.5"/>
<text text-anchor="middle" x="465.5" y="-133.5" font-family="Helvetica,sans-Serif" font-size="10.00">JoyDPad::getJoyButton</text>
</a>
</g>
</g>
<!-- Node1&#45;&gt;Node2 -->
<g id="edge1" class="edge">
<title>Node1&#45;&gt;Node2</title>
<path fill="none" stroke="midnightblue" d="M128.56,-101.51C152.38,-106.83 183.27,-113.15 211,-117 272.75,-125.58 343.55,-130.48 394.6,-133.14"/>
<polygon fill="midnightblue" stroke="midnightblue" points="394.69,-136.65 404.86,-133.66 395.05,-129.66 394.69,-136.65"/>
</g>
<!-- Node3 -->
<g id="node3" class="node">
<title>Node3</title>
<g id="a_node3"><a xlink:href="$classInputDevice.html#a1c4c65d9e509a5c3bde064871d7e1849" xlink:title=" ">
<polygon fill="white" stroke="black" points="569,-123.5 569,-142.5 718,-142.5 718,-123.5 569,-123.5"/>
<text text-anchor="middle" x="643.5" y="-130.5" font-family="Helvetica,sans-Serif" font-size="10.00">InputDevice::getJoystick_sets</text>
</a>
</g>
</g>
<!-- Node1&#45;&gt;Node3 -->
<g id="edge2" class="edge">
<title>Node1&#45;&gt;Node3</title>
<path fill="none" stroke="midnightblue" d="M108.79,-101.55C132.67,-112.34 173.8,-129.49 211,-138 350.7,-169.96 390.39,-169.18 533,-155 553.44,-152.97 575.72,-148.85 594.82,-144.72"/>
<polygon fill="midnightblue" stroke="midnightblue" points="595.77,-148.09 604.77,-142.5 594.25,-141.26 595.77,-148.09"/>
</g>
<!-- Node4 -->
<g id="node4" class="node">
<title>Node4</title>
<g id="a_node4"><a xlink:href="$classSetJoystick.html#abcdc88c96a95fb0f5d8a721582d22851" xlink:title=" ">
<polygon fill="white" stroke="black" points="406.5,-0.5 406.5,-19.5 524.5,-19.5 524.5,-0.5 406.5,-0.5"/>
<text text-anchor="middle" x="465.5" y="-7.5" font-family="Helvetica,sans-Serif" font-size="10.00">SetJoystick::getVDPad</text>
</a>
</g>
</g>
<!-- Node1&#45;&gt;Node4 -->
<g id="edge3" class="edge">
<title>Node1&#45;&gt;Node4</title>
<path fill="none" stroke="midnightblue" d="M102.43,-82.45C124.38,-67.97 168.88,-40.88 211,-29 272.13,-11.76 344.64,-7.9 396.41,-7.82"/>
<polygon fill="midnightblue" stroke="midnightblue" points="396.47,-11.32 406.48,-7.85 396.49,-4.32 396.47,-11.32"/>
</g>
<!-- Node6 -->
<g id="node6" class="node">
<title>Node6</title>
<g id="a_node6"><a xlink:href="$classJoyButton.html#a5577eb227e3fd535fdcbbf395648e215" xlink:title=" ">
<polygon fill="white" stroke="black" points="219,-38.5 219,-57.5 354,-57.5 354,-38.5 219,-38.5"/>
<text text-anchor="middle" x="286.5" y="-45.5" font-family="Helvetica,sans-Serif" font-size="10.00">JoyButton::setButtonName</text>
</a>
</g>
</g>
<!-- Node1&#45;&gt;Node6 -->
<g id="edge5" class="edge">
<title>Node1&#45;&gt;Node6</title>
<path fill="none" stroke="midnightblue" d="M131.25,-82.45C161.06,-75.79 201.04,-66.86 232.83,-59.76"/>
<polygon fill="midnightblue" stroke="midnightblue" points="233.84,-63.12 242.84,-57.53 232.31,-56.29 233.84,-63.12"/>
</g>
<!-- Node7 -->
<g id="node7" class="node">
<title>Node7</title>
<g id="a_node7"><a xlink:href="$classInputDevice.html#ac45d96f574a4b1c64b93932e49711377" xlink:title=" ">
<polygon fill="white" stroke="black" points="211,-77 211,-107 362,-107 362,-77 211,-77"/>
<text text-anchor="start" x="219" y="-95" font-family="Helvetica,sans-Serif" font-size="10.00">InputDevice::updateSetVDPad</text>
<text text-anchor="middle" x="286.5" y="-84" font-family="Helvetica,sans-Serif" font-size="10.00">ButtonNames</text>
</a>
</g>
</g>
<!-- Node1&#45;&gt;Node7 -->
<g id="edge6" class="edge">
<title>Node1&#45;&gt;Node7</title>
<path fill="none" stroke="midnightblue" d="M175.19,-85.29C183.63,-85.23 192.19,-85.24 200.61,-85.31"/>
<polygon fill="midnightblue" stroke="midnightblue" points="200.76,-88.81 210.8,-85.43 200.84,-81.81 200.76,-88.81"/>
</g>
<!-- Node5 -->
<g id="node5" class="node">
<title>Node5</title>
<g id="a_node5"><a xlink:href="$classSetJoystick.html#ad859311bfde76dbdaac274cb5ede63d6" xlink:title=" ">
<polygon fill="white" stroke="black" points="584,-0.5 584,-19.5 703,-19.5 703,-0.5 584,-0.5"/>
<text text-anchor="middle" x="643.5" y="-7.5" font-family="Helvetica,sans-Serif" font-size="10.00">SetJoystick::getVdpads</text>
</a>
</g>
</g>
<!-- Node4&#45;&gt;Node5 -->
<g id="edge4" class="edge">
<title>Node4&#45;&gt;Node5</title>
<path fill="none" stroke="midnightblue" d="M524.62,-10C540.22,-10 557.25,-10 573.39,-10"/>
<polygon fill="midnightblue" stroke="midnightblue" points="573.84,-13.5 583.84,-10 573.84,-6.5 573.84,-13.5"/>
</g>
<!-- Node7&#45;&gt;Node1 -->
<g id="edge12" class="edge">
<title>Node7&#45;&gt;Node1</title>
<path fill="none" stroke="midnightblue" d="M210.8,-98.57C202.44,-98.7 193.84,-98.76 185.25,-98.75"/>
<polygon fill="midnightblue" stroke="midnightblue" points="185.21,-95.25 175.19,-98.71 185.18,-102.25 185.21,-95.25"/>
</g>
<!-- Node7&#45;&gt;Node2 -->
<g id="edge10" class="edge">
<title>Node7&#45;&gt;Node2</title>
<path fill="none" stroke="midnightblue" d="M347.92,-107.02C370.31,-112.59 395.38,-118.82 416.51,-124.07"/>
<polygon fill="midnightblue" stroke="midnightblue" points="415.69,-127.47 426.23,-126.49 417.37,-120.68 415.69,-127.47"/>
</g>
<!-- Node7&#45;&gt;Node4 -->
<g id="edge11" class="edge">
<title>Node7&#45;&gt;Node4</title>
<path fill="none" stroke="midnightblue" d="M342.64,-76.95C349.4,-74.11 356.02,-70.82 362,-67 381.61,-54.48 378.11,-41.07 398,-29 401.58,-26.83 405.42,-24.89 409.38,-23.18"/>
<polygon fill="midnightblue" stroke="midnightblue" points="410.71,-26.41 418.78,-19.54 408.19,-19.88 410.71,-26.41"/>
</g>
<!-- Node8 -->
<g id="node8" class="node">
<title>Node8</title>
<g id="a_node8"><a xlink:href="$classInputDevice.html#abc23a70bef37f2fc70248cd129af170b" xlink:title=" ">
<polygon fill="white" stroke="black" points="400,-77 400,-107 531,-107 531,-77 400,-77"/>
<text text-anchor="start" x="408" y="-95" font-family="Helvetica,sans-Serif" font-size="10.00">InputDevice::getActiveSet</text>
<text text-anchor="middle" x="465.5" y="-84" font-family="Helvetica,sans-Serif" font-size="10.00">Joystick</text>
</a>
</g>
</g>
<!-- Node7&#45;&gt;Node8 -->
<g id="edge7" class="edge">
<title>Node7&#45;&gt;Node8</title>
<path fill="none" stroke="midnightblue" d="M362.05,-92C371.18,-92 380.51,-92 389.65,-92"/>
<polygon fill="midnightblue" stroke="midnightblue" points="389.85,-95.5 399.85,-92 389.85,-88.5 389.85,-95.5"/>
</g>
<!-- Node9 -->
<g id="node9" class="node">
<title>Node9</title>
<g id="a_node9"><a xlink:href="$classJoyButton.html#a7123f5432bda7b5b9d4b2b95bdabf4db" xlink:title=" ">
<polygon fill="white" stroke="black" points="398,-38.5 398,-57.5 533,-57.5 533,-38.5 398,-38.5"/>
<text text-anchor="middle" x="465.5" y="-45.5" font-family="Helvetica,sans-Serif" font-size="10.00">JoyButton::getButtonName</text>
</a>
</g>
</g>
<!-- Node7&#45;&gt;Node9 -->
<g id="edge9" class="edge">
<title>Node7&#45;&gt;Node9</title>
<path fill="none" stroke="midnightblue" d="M347.92,-76.98C370.31,-71.41 395.38,-65.18 416.51,-59.93"/>
<polygon fill="midnightblue" stroke="midnightblue" points="417.37,-63.32 426.23,-57.51 415.69,-56.53 417.37,-63.32"/>
</g>
<!-- Node8&#45;&gt;Node3 -->
<g id="edge8" class="edge">
<title>Node8&#45;&gt;Node3</title>
<path fill="none" stroke="midnightblue" d="M531.04,-107.03C550.99,-111.68 572.69,-116.74 591.59,-121.14"/>
<polygon fill="midnightblue" stroke="midnightblue" points="590.95,-124.59 601.49,-123.45 592.54,-117.77 590.95,-124.59"/>
</g>
</g>
</svg>
