<?xml version="1.0" encoding="UTF-8" standalone="no"?>
<!DOCTYPE svg PUBLIC "-//W3C//DTD SVG 1.1//EN"
 "http://www.w3.org/Graphics/SVG/1.1/DTD/svg11.dtd">
<!-- Generated by graphviz version 2.43.0 (0)
 -->
<!-- Title: JoyButton::getTurboInterval Pages: 1 -->
<svg width="503pt" height="214pt"
 viewBox="0.00 0.00 503.00 213.50" xmlns="http://www.w3.org/2000/svg" xmlns:xlink="http://www.w3.org/1999/xlink">
<g id="graph0" class="graph" transform="scale(1 1) rotate(0) translate(4 209.5)">
<title>JoyButton::getTurboInterval</title>
<polygon fill="white" stroke="transparent" points="-4,4 -4,-209.5 499,-209.5 499,4 -4,4"/>
<!-- Node1 -->
<g id="node1" class="node">
<title>Node1</title>
<g id="a_node1"><a xlink:title=" ">
<polygon fill="#bfbfbf" stroke="black" points="358,-136.5 358,-155.5 495,-155.5 495,-136.5 358,-136.5"/>
<text text-anchor="middle" x="426.5" y="-143.5" font-family="Helvetica,sans-Serif" font-size="10.00">JoyButton::getTurboInterval</text>
</a>
</g>
</g>
<!-- Node2 -->
<g id="node2" class="node">
<title>Node2</title>
<g id="a_node2"><a xlink:href="$classAdvanceButtonDialog.html#a4f9a1a007f50de1c3cca1403d08a0790" xlink:title=" ">
<polygon fill="white" stroke="black" points="18,-175 18,-205 134,-205 134,-175 18,-175"/>
<text text-anchor="start" x="26" y="-193" font-family="Helvetica,sans-Serif" font-size="10.00">AdvanceButtonDialog</text>
<text text-anchor="middle" x="76" y="-182" font-family="Helvetica,sans-Serif" font-size="10.00">::AdvanceButtonDialog</text>
</a>
</g>
</g>
<!-- Node1&#45;&gt;Node2 -->
<g id="edge1" class="edge">
<title>Node1&#45;&gt;Node2</title>
<path fill="none" stroke="midnightblue" d="M381.92,-158.16C363.56,-162.86 341.87,-167.85 322,-171 258.16,-181.12 184.08,-185.92 134.23,-188.15"/>
<polygon fill="midnightblue" stroke="midnightblue" points="382.95,-161.51 391.75,-155.6 381.19,-154.74 382.95,-161.51"/>
</g>
<!-- Node3 -->
<g id="node3" class="node">
<title>Node3</title>
<g id="a_node3"><a xlink:href="$classAdvanceButtonDialog.html#a64efeb2a6c8cf0ea259bb02c0f96080d" xlink:title=" ">
<polygon fill="white" stroke="black" points="200,-131 200,-161 310,-161 310,-131 200,-131"/>
<text text-anchor="start" x="208" y="-149" font-family="Helvetica,sans-Serif" font-size="10.00">AdvanceButtonDialog</text>
<text text-anchor="middle" x="255" y="-138" font-family="Helvetica,sans-Serif" font-size="10.00">::checkTurboSetting</text>
</a>
</g>
</g>
<!-- Node1&#45;&gt;Node3 -->
<g id="edge2" class="edge">
<title>Node1&#45;&gt;Node3</title>
<path fill="none" stroke="midnightblue" d="M347.48,-146C334.87,-146 322.05,-146 310.16,-146"/>
<polygon fill="midnightblue" stroke="midnightblue" points="347.53,-149.5 357.53,-146 347.53,-142.5 347.53,-149.5"/>
</g>
<!-- Node4 -->
<g id="node4" class="node">
<title>Node4</title>
<g id="a_node4"><a xlink:href="$classJoyButtonXml.html#a766e87947104bfd54fc15b96b267ebdd" xlink:title=" ">
<polygon fill="white" stroke="black" points="188,-82.5 188,-101.5 322,-101.5 322,-82.5 188,-82.5"/>
<text text-anchor="middle" x="255" y="-89.5" font-family="Helvetica,sans-Serif" font-size="10.00">JoyButtonXml::writeConfig</text>
</a>
</g>
</g>
<!-- Node1&#45;&gt;Node4 -->
<g id="edge4" class="edge">
<title>Node1&#45;&gt;Node4</title>
<path fill="none" stroke="midnightblue" d="M385.68,-133.32C355.14,-123.58 313.64,-110.36 285.9,-101.53"/>
<polygon fill="midnightblue" stroke="midnightblue" points="385,-136.77 395.59,-136.47 387.12,-130.1 385,-136.77"/>
</g>
<!-- Node3&#45;&gt;Node2 -->
<g id="edge3" class="edge">
<title>Node3&#45;&gt;Node2</title>
<path fill="none" stroke="midnightblue" d="M190.22,-161.86C171.88,-166.41 152.01,-171.35 134.11,-175.8"/>
<polygon fill="midnightblue" stroke="midnightblue" points="191.07,-165.25 199.93,-159.44 189.38,-158.46 191.07,-165.25"/>
</g>
<!-- Node5 -->
<g id="node5" class="node">
<title>Node5</title>
<g id="a_node5"><a xlink:href="$classGameControllerTriggerXml.html#a382a32a139351f790192dc0991dea637" xlink:title=" ">
<polygon fill="white" stroke="black" points="10.5,-126 10.5,-156 141.5,-156 141.5,-126 10.5,-126"/>
<text text-anchor="start" x="18.5" y="-144" font-family="Helvetica,sans-Serif" font-size="10.00">GameControllerTriggerXml</text>
<text text-anchor="middle" x="76" y="-133" font-family="Helvetica,sans-Serif" font-size="10.00">::writeConfig</text>
</a>
</g>
</g>
<!-- Node4&#45;&gt;Node5 -->
<g id="edge5" class="edge">
<title>Node4&#45;&gt;Node5</title>
<path fill="none" stroke="midnightblue" d="M209.65,-104.28C185.9,-110.85 156.44,-119.01 131.32,-125.96"/>
<polygon fill="midnightblue" stroke="midnightblue" points="210.75,-107.61 219.45,-101.56 208.88,-100.86 210.75,-107.61"/>
</g>
<!-- Node6 -->
<g id="node6" class="node">
<title>Node6</title>
<g id="a_node6"><a xlink:href="$classJoyDPadXml.html#ac78c8fd1ad107f6a3baed4910863cb0c" xlink:title=" ">
<polygon fill="white" stroke="black" points="0,-77 0,-107 152,-107 152,-77 0,-77"/>
<text text-anchor="start" x="8" y="-95" font-family="Helvetica,sans-Serif" font-size="10.00">JoyDPadXml&lt; GameController</text>
<text text-anchor="middle" x="76" y="-84" font-family="Helvetica,sans-Serif" font-size="10.00">DPad &gt;::writeConfig</text>
</a>
</g>
</g>
<!-- Node4&#45;&gt;Node6 -->
<g id="edge6" class="edge">
<title>Node4&#45;&gt;Node6</title>
<path fill="none" stroke="midnightblue" d="M177.59,-92C169.11,-92 160.47,-92 152.01,-92"/>
<polygon fill="midnightblue" stroke="midnightblue" points="177.84,-95.5 187.84,-92 177.84,-88.5 177.84,-95.5"/>
</g>
<!-- Node7 -->
<g id="node7" class="node">
<title>Node7</title>
<g id="a_node7"><a xlink:href="$classSetJoystickXml.html#a11eec051c05deac5ebe47b9582e83b6f" xlink:title=" ">
<polygon fill="white" stroke="black" points="6,-38.5 6,-57.5 146,-57.5 146,-38.5 6,-38.5"/>
<text text-anchor="middle" x="76" y="-45.5" font-family="Helvetica,sans-Serif" font-size="10.00">SetJoystickXml::writeConfig</text>
</a>
</g>
</g>
<!-- Node4&#45;&gt;Node7 -->
<g id="edge7" class="edge">
<title>Node4&#45;&gt;Node7</title>
<path fill="none" stroke="midnightblue" d="M205.85,-80.03C177.4,-72.96 141.87,-64.13 115.33,-57.53"/>
<polygon fill="midnightblue" stroke="midnightblue" points="205.04,-83.44 215.59,-82.45 206.73,-76.64 205.04,-83.44"/>
</g>
<!-- Node8 -->
<g id="node8" class="node">
<title>Node8</title>
<g id="a_node8"><a xlink:href="$classJoyControlStick.html#a3ab1764a44e806d2d3896023f82fa3b1" xlink:title="Write the status of the properties of a stick and direction buttons to an XML stream.">
<polygon fill="white" stroke="black" points="5.5,-0.5 5.5,-19.5 146.5,-19.5 146.5,-0.5 5.5,-0.5"/>
<text text-anchor="middle" x="76" y="-7.5" font-family="Helvetica,sans-Serif" font-size="10.00">JoyControlStick::writeConfig</text>
</a>
</g>
</g>
<!-- Node4&#45;&gt;Node8 -->
<g id="edge8" class="edge">
<title>Node4&#45;&gt;Node8</title>
<path fill="none" stroke="midnightblue" d="M232.86,-76.26C212.92,-62.08 181.75,-41.6 152,-29 143.22,-25.28 133.54,-22.16 124.14,-19.6"/>
<polygon fill="midnightblue" stroke="midnightblue" points="231.02,-79.25 241.18,-82.27 235.13,-73.58 231.02,-79.25"/>
</g>
</g>
</svg>
