<?xml version="1.0" encoding="UTF-8" standalone="no"?>
<!DOCTYPE svg PUBLIC "-//W3C//DTD SVG 1.1//EN"
 "http://www.w3.org/Graphics/SVG/1.1/DTD/svg11.dtd">
<!-- Generated by graphviz version 2.43.0 (0)
 -->
<!-- Title: SetJoystick::setAxisButtonNameChange Pages: 1 -->
<svg width="1635pt" height="328pt"
 viewBox="0.00 0.00 1635.00 328.00" xmlns="http://www.w3.org/2000/svg" xmlns:xlink="http://www.w3.org/1999/xlink">
<g id="graph0" class="graph" transform="scale(1 1) rotate(0) translate(4 324)">
<title>SetJoystick::setAxisButtonNameChange</title>
<polygon fill="white" stroke="transparent" points="-4,4 -4,-324 1631,-324 1631,4 -4,4"/>
<!-- Node1 -->
<g id="node1" class="node">
<title>Node1</title>
<g id="a_node1"><a xlink:title=" ">
<polygon fill="#bfbfbf" stroke="black" points="1493,-238 1493,-268 1627,-268 1627,-238 1493,-238"/>
<text text-anchor="start" x="1501" y="-256" font-family="Helvetica,sans-Serif" font-size="10.00">SetJoystick::setAxisButton</text>
<text text-anchor="middle" x="1560" y="-245" font-family="Helvetica,sans-Serif" font-size="10.00">NameChange</text>
</a>
</g>
</g>
<!-- Node2 -->
<g id="node2" class="node">
<title>Node2</title>
<g id="a_node2"><a xlink:href="$classInputDevice.html#a6ffcebba103a7db02e82c1c7f62387bf" xlink:title=" ">
<polygon fill="white" stroke="black" points="873,-283.5 873,-302.5 1046,-302.5 1046,-283.5 873,-283.5"/>
<text text-anchor="middle" x="959.5" y="-290.5" font-family="Helvetica,sans-Serif" font-size="10.00">InputDevice::enableSetConnections</text>
</a>
</g>
</g>
<!-- Node1&#45;&gt;Node2 -->
<g id="edge1" class="edge">
<title>Node1&#45;&gt;Node2</title>
<path fill="none" stroke="midnightblue" d="M1483.06,-267.4C1474.28,-268.99 1465.45,-270.56 1457,-272 1368.77,-287.09 1347.24,-296.09 1258,-303 1180.01,-309.04 1160.16,-306.21 1082,-303 1070.37,-302.52 1058.13,-301.79 1046.07,-300.93"/>
<polygon fill="midnightblue" stroke="midnightblue" points="1483.72,-270.84 1492.93,-265.6 1482.47,-263.95 1483.72,-270.84"/>
</g>
<!-- Node5 -->
<g id="node5" class="node">
<title>Node5</title>
<g id="a_node5"><a xlink:href="$classSetJoystick.html#a559203c2db1839239a1a684e717ef898" xlink:title=" ">
<polygon fill="white" stroke="black" points="1310,-175 1310,-205 1441,-205 1441,-175 1310,-175"/>
<text text-anchor="start" x="1318" y="-193" font-family="Helvetica,sans-Serif" font-size="10.00">SetJoystick::propogateSet</text>
<text text-anchor="middle" x="1375.5" y="-182" font-family="Helvetica,sans-Serif" font-size="10.00">AxisButtonNameChange</text>
</a>
</g>
</g>
<!-- Node1&#45;&gt;Node5 -->
<g id="edge4" class="edge">
<title>Node1&#45;&gt;Node5</title>
<path fill="none" stroke="midnightblue" d="M1505.55,-234.55C1478.39,-225.17 1445.8,-213.92 1420.17,-205.08"/>
<polygon fill="midnightblue" stroke="midnightblue" points="1504.69,-237.96 1515.29,-237.91 1506.98,-231.34 1504.69,-237.96"/>
</g>
<!-- Node22 -->
<g id="node22" class="node">
<title>Node22</title>
<g id="a_node22"><a xlink:href="$classInputDevice.html#a38ee53ddc49dccd9d7b5b91a22fb1610" xlink:title=" ">
<polygon fill="white" stroke="black" points="1294,-243.5 1294,-262.5 1457,-262.5 1457,-243.5 1294,-243.5"/>
<text text-anchor="middle" x="1375.5" y="-250.5" font-family="Helvetica,sans-Serif" font-size="10.00">InputDevice::setAxisButtonName</text>
</a>
</g>
</g>
<!-- Node1&#45;&gt;Node22 -->
<g id="edge22" class="edge">
<title>Node1&#45;&gt;Node22</title>
<path fill="none" stroke="midnightblue" d="M1482.64,-253C1474.18,-253 1465.55,-253 1457.04,-253"/>
<polygon fill="midnightblue" stroke="midnightblue" points="1482.86,-256.5 1492.86,-253 1482.86,-249.5 1482.86,-256.5"/>
</g>
<!-- Node3 -->
<g id="node3" class="node">
<title>Node3</title>
<g id="a_node3"><a xlink:href="$classGameController.html#afcddb9dcc5442a9746c3ff8760ea1791" xlink:title=" ">
<polygon fill="white" stroke="black" points="678,-262.5 678,-281.5 837,-281.5 837,-262.5 678,-262.5"/>
<text text-anchor="middle" x="757.5" y="-269.5" font-family="Helvetica,sans-Serif" font-size="10.00">GameController::GameController</text>
</a>
</g>
</g>
<!-- Node2&#45;&gt;Node3 -->
<g id="edge2" class="edge">
<title>Node2&#45;&gt;Node3</title>
<path fill="none" stroke="midnightblue" d="M862.74,-282.95C854.14,-282.04 845.49,-281.13 837.05,-280.25"/>
<polygon fill="midnightblue" stroke="midnightblue" points="862.5,-286.44 872.81,-284 863.23,-279.48 862.5,-286.44"/>
</g>
<!-- Node4 -->
<g id="node4" class="node">
<title>Node4</title>
<g id="a_node4"><a xlink:href="$classJoystick.html#a9df5e53506876f3c95e84bdf6c9cbaf1" xlink:title=" ">
<polygon fill="white" stroke="black" points="710.5,-300.5 710.5,-319.5 804.5,-319.5 804.5,-300.5 710.5,-300.5"/>
<text text-anchor="middle" x="757.5" y="-307.5" font-family="Helvetica,sans-Serif" font-size="10.00">Joystick::Joystick</text>
</a>
</g>
</g>
<!-- Node2&#45;&gt;Node4 -->
<g id="edge3" class="edge">
<title>Node2&#45;&gt;Node4</title>
<path fill="none" stroke="midnightblue" d="M862.6,-301.15C842.39,-302.87 821.95,-304.61 804.6,-306.08"/>
<polygon fill="midnightblue" stroke="midnightblue" points="863.14,-304.62 872.81,-300.28 862.55,-297.64 863.14,-304.62"/>
</g>
<!-- Node6 -->
<g id="node6" class="node">
<title>Node6</title>
<g id="a_node6"><a xlink:href="$classSetJoystick.html#a75a8851568f88ac1966ae2ba0704ae42" xlink:title=" ">
<polygon fill="white" stroke="black" points="1082,-99.5 1082,-118.5 1258,-118.5 1258,-99.5 1082,-99.5"/>
<text text-anchor="middle" x="1170" y="-106.5" font-family="Helvetica,sans-Serif" font-size="10.00">SetJoystick::enableAxisConnections</text>
</a>
</g>
</g>
<!-- Node5&#45;&gt;Node6 -->
<g id="edge5" class="edge">
<title>Node5&#45;&gt;Node6</title>
<path fill="none" stroke="midnightblue" d="M1327.35,-171.23C1285.92,-154.74 1227.32,-131.42 1194.91,-118.52"/>
<polygon fill="midnightblue" stroke="midnightblue" points="1326.11,-174.51 1336.7,-174.95 1328.7,-168 1326.11,-174.51"/>
</g>
<!-- Node7 -->
<g id="node7" class="node">
<title>Node7</title>
<g id="a_node7"><a xlink:href="$classGameControllerSet.html#abd666978fe84da99c8338e8020051510" xlink:title=" ">
<polygon fill="white" stroke="black" points="906.5,-50 906.5,-80 1012.5,-80 1012.5,-50 906.5,-50"/>
<text text-anchor="start" x="914.5" y="-68" font-family="Helvetica,sans-Serif" font-size="10.00">GameControllerSet::</text>
<text text-anchor="middle" x="959.5" y="-57" font-family="Helvetica,sans-Serif" font-size="10.00">refreshAxes</text>
</a>
</g>
</g>
<!-- Node6&#45;&gt;Node7 -->
<g id="edge6" class="edge">
<title>Node6&#45;&gt;Node7</title>
<path fill="none" stroke="midnightblue" d="M1113.87,-97.37C1082.52,-90.75 1043.48,-82.51 1012.64,-76"/>
<polygon fill="midnightblue" stroke="midnightblue" points="1113.25,-100.81 1123.76,-99.45 1114.7,-93.96 1113.25,-100.81"/>
</g>
<!-- Node8 -->
<g id="node8" class="node">
<title>Node8</title>
<g id="a_node8"><a xlink:href="$classSetJoystick.html#af8d7d16a13702ae29b6590db35801d14" xlink:title=" ">
<polygon fill="white" stroke="black" points="897,-99.5 897,-118.5 1022,-118.5 1022,-99.5 897,-99.5"/>
<text text-anchor="middle" x="959.5" y="-106.5" font-family="Helvetica,sans-Serif" font-size="10.00">SetJoystick::refreshAxes</text>
</a>
</g>
</g>
<!-- Node6&#45;&gt;Node8 -->
<g id="edge7" class="edge">
<title>Node6&#45;&gt;Node8</title>
<path fill="none" stroke="midnightblue" d="M1071.37,-109C1054.56,-109 1037.53,-109 1022.02,-109"/>
<polygon fill="midnightblue" stroke="midnightblue" points="1071.79,-112.5 1081.79,-109 1071.79,-105.5 1071.79,-112.5"/>
</g>
<!-- Node9 -->
<g id="node9" class="node">
<title>Node9</title>
<g id="a_node9"><a xlink:href="$classSetJoystick.html#adc322b55002b149c9a7432d1008b8537" xlink:title=" ">
<polygon fill="white" stroke="black" points="710,-60.5 710,-79.5 805,-79.5 805,-60.5 710,-60.5"/>
<text text-anchor="middle" x="757.5" y="-67.5" font-family="Helvetica,sans-Serif" font-size="10.00">SetJoystick::reset</text>
</a>
</g>
</g>
<!-- Node8&#45;&gt;Node9 -->
<g id="edge8" class="edge">
<title>Node8&#45;&gt;Node9</title>
<path fill="none" stroke="midnightblue" d="M899.61,-97.52C869.5,-91.65 833.37,-84.6 805.2,-79.11"/>
<polygon fill="midnightblue" stroke="midnightblue" points="899.09,-100.98 909.57,-99.46 900.43,-94.11 899.09,-100.98"/>
</g>
<!-- Node10 -->
<g id="node10" class="node">
<title>Node10</title>
<g id="a_node10"><a xlink:href="$classInputDevice.html#af7b290c37a1bcae1fbd0f0274d6cf646" xlink:title=" ">
<polygon fill="white" stroke="black" points="531.5,-38.5 531.5,-57.5 628.5,-57.5 628.5,-38.5 531.5,-38.5"/>
<text text-anchor="middle" x="580" y="-45.5" font-family="Helvetica,sans-Serif" font-size="10.00">InputDevice::reset</text>
</a>
</g>
</g>
<!-- Node9&#45;&gt;Node10 -->
<g id="edge9" class="edge">
<title>Node9&#45;&gt;Node10</title>
<path fill="none" stroke="midnightblue" d="M699.97,-62.91C676.98,-60.03 650.7,-56.74 628.71,-53.98"/>
<polygon fill="midnightblue" stroke="midnightblue" points="699.57,-66.39 709.93,-64.16 700.44,-59.45 699.57,-66.39"/>
</g>
<!-- Node18 -->
<g id="node18" class="node">
<title>Node18</title>
<g id="a_node18"><a xlink:href="$classGameControllerSet.html#a40b9c9ac22d6fe71c15380dcbca7eb80" xlink:title=" ">
<polygon fill="white" stroke="black" points="527,-77 527,-107 633,-107 633,-77 527,-77"/>
<text text-anchor="start" x="535" y="-95" font-family="Helvetica,sans-Serif" font-size="10.00">GameControllerSet::</text>
<text text-anchor="middle" x="580" y="-84" font-family="Helvetica,sans-Serif" font-size="10.00">resetSticks</text>
</a>
</g>
</g>
<!-- Node9&#45;&gt;Node18 -->
<g id="edge18" class="edge">
<title>Node9&#45;&gt;Node18</title>
<path fill="none" stroke="midnightblue" d="M699.96,-77.09C678.47,-79.78 654.11,-82.84 633.05,-85.47"/>
<polygon fill="midnightblue" stroke="midnightblue" points="700.44,-80.55 709.93,-75.84 699.57,-73.61 700.44,-80.55"/>
</g>
<!-- Node21 -->
<g id="node21" class="node">
<title>Node21</title>
<g id="a_node21"><a xlink:href="$classSetJoystick.html#ab9d47383844cb2c08581352a6c02bdab" xlink:title=" ">
<polygon fill="white" stroke="black" points="518,-0.5 518,-19.5 642,-19.5 642,-0.5 518,-0.5"/>
<text text-anchor="middle" x="580" y="-7.5" font-family="Helvetica,sans-Serif" font-size="10.00">SetJoystick::SetJoystick</text>
</a>
</g>
</g>
<!-- Node9&#45;&gt;Node21 -->
<g id="edge21" class="edge">
<title>Node9&#45;&gt;Node21</title>
<path fill="none" stroke="midnightblue" d="M721.19,-56.92C698.62,-48.67 668.69,-37.93 642,-29 632.43,-25.8 621.95,-22.47 612.43,-19.51"/>
<polygon fill="midnightblue" stroke="midnightblue" points="720.09,-60.25 730.69,-60.41 722.5,-53.68 720.09,-60.25"/>
</g>
<!-- Node11 -->
<g id="node11" class="node">
<title>Node11</title>
<g id="a_node11"><a xlink:href="$classInputDaemon.html#a70fa1dbeac61db6cc29a96cdc57a4518" xlink:title=" ">
<polygon fill="white" stroke="black" points="336,-0.5 336,-19.5 482,-19.5 482,-0.5 336,-0.5"/>
<text text-anchor="middle" x="409" y="-7.5" font-family="Helvetica,sans-Serif" font-size="10.00">InputDaemon::refreshJoystick</text>
</a>
</g>
</g>
<!-- Node10&#45;&gt;Node11 -->
<g id="edge10" class="edge">
<title>Node10&#45;&gt;Node11</title>
<path fill="none" stroke="midnightblue" d="M526.41,-36.18C502.59,-30.82 474.79,-24.57 452.34,-19.52"/>
<polygon fill="midnightblue" stroke="midnightblue" points="525.83,-39.63 536.35,-38.41 527.37,-32.8 525.83,-39.63"/>
</g>
<!-- Node12 -->
<g id="node12" class="node">
<title>Node12</title>
<g id="a_node12"><a xlink:href="$classInputDevice.html#a767b4db5d307c9d851affed3c7e23a30" xlink:title="Obtain current joystick element values, create new SetJoystick objects, and then transfer most recent...">
<polygon fill="white" stroke="black" points="342,-38.5 342,-57.5 476,-57.5 476,-38.5 342,-38.5"/>
<text text-anchor="middle" x="409" y="-45.5" font-family="Helvetica,sans-Serif" font-size="10.00">InputDevice::transferReset</text>
</a>
</g>
</g>
<!-- Node10&#45;&gt;Node12 -->
<g id="edge11" class="edge">
<title>Node10&#45;&gt;Node12</title>
<path fill="none" stroke="midnightblue" d="M521.14,-48C506.63,-48 490.96,-48 476.08,-48"/>
<polygon fill="midnightblue" stroke="midnightblue" points="521.47,-51.5 531.47,-48 521.47,-44.5 521.47,-51.5"/>
</g>
<!-- Node13 -->
<g id="node13" class="node">
<title>Node13</title>
<g id="a_node13"><a xlink:href="$classInputDeviceXml.html#a847bf9ed17b554bf87d513a1aebdcb64" xlink:title=" ">
<polygon fill="white" stroke="black" points="160,-151.5 160,-170.5 300,-170.5 300,-151.5 160,-151.5"/>
<text text-anchor="middle" x="230" y="-158.5" font-family="Helvetica,sans-Serif" font-size="10.00">InputDeviceXml::readConfig</text>
</a>
</g>
</g>
<!-- Node12&#45;&gt;Node13 -->
<g id="edge12" class="edge">
<title>Node12&#45;&gt;Node13</title>
<path fill="none" stroke="midnightblue" d="M343.95,-61.88C341.17,-63.41 338.5,-65.11 336,-67 310.9,-86 323.21,-106.73 300,-128 288.74,-138.32 273.68,-146.03 260.49,-151.39"/>
<polygon fill="midnightblue" stroke="midnightblue" points="345.62,-64.96 353.18,-57.53 342.64,-58.62 345.62,-64.96"/>
</g>
<!-- Node14 -->
<g id="node14" class="node">
<title>Node14</title>
<g id="a_node14"><a xlink:href="$classGameControllerXml.html#a7e47256cae0d3815419bc254413777d1" xlink:title=" ">
<polygon fill="white" stroke="black" points="8,-89 8,-119 116,-119 116,-89 8,-89"/>
<text text-anchor="start" x="16" y="-107" font-family="Helvetica,sans-Serif" font-size="10.00">GameControllerXml::</text>
<text text-anchor="middle" x="62" y="-96" font-family="Helvetica,sans-Serif" font-size="10.00">readConfig</text>
</a>
</g>
</g>
<!-- Node12&#45;&gt;Node14 -->
<g id="edge13" class="edge">
<title>Node12&#45;&gt;Node14</title>
<path fill="none" stroke="midnightblue" d="M331.6,-55C282.36,-60.14 217.1,-68.12 160,-79 145.65,-81.73 130.27,-85.37 116.09,-89.01"/>
<polygon fill="midnightblue" stroke="midnightblue" points="332.26,-58.45 341.85,-53.95 331.54,-51.49 332.26,-58.45"/>
</g>
<!-- Node15 -->
<g id="node15" class="node">
<title>Node15</title>
<g id="a_node15"><a xlink:href="$classGameControllerXml.html#aaa5257d4c6fe13f1d5fc51981e247c25" xlink:title=" ">
<polygon fill="white" stroke="black" points="176,-89 176,-119 284,-119 284,-89 176,-89"/>
<text text-anchor="start" x="184" y="-107" font-family="Helvetica,sans-Serif" font-size="10.00">GameControllerXml::</text>
<text text-anchor="middle" x="230" y="-96" font-family="Helvetica,sans-Serif" font-size="10.00">readJoystickConfig</text>
</a>
</g>
</g>
<!-- Node12&#45;&gt;Node15 -->
<g id="edge14" class="edge">
<title>Node12&#45;&gt;Node15</title>
<path fill="none" stroke="midnightblue" d="M359.5,-60.22C351.62,-62.38 343.56,-64.68 336,-67 314.57,-73.59 291,-81.81 271.63,-88.82"/>
<polygon fill="midnightblue" stroke="midnightblue" points="360.6,-63.55 369.35,-57.59 358.78,-56.79 360.6,-63.55"/>
</g>
<!-- Node16 -->
<g id="node16" class="node">
<title>Node16</title>
<g id="a_node16"><a xlink:href="$classJoyTabWidgetHelper.html#aef94ae0812f28f43eb891ddc210c341e" xlink:title=" ">
<polygon fill="white" stroke="black" points="176.5,-1 176.5,-31 283.5,-31 283.5,-1 176.5,-1"/>
<text text-anchor="start" x="184.5" y="-19" font-family="Helvetica,sans-Serif" font-size="10.00">JoyTabWidgetHelper</text>
<text text-anchor="middle" x="230" y="-8" font-family="Helvetica,sans-Serif" font-size="10.00">::reInitDevice</text>
</a>
</g>
</g>
<!-- Node12&#45;&gt;Node16 -->
<g id="edge16" class="edge">
<title>Node12&#45;&gt;Node16</title>
<path fill="none" stroke="midnightblue" d="M345.35,-36.67C325.2,-33.03 303.09,-29.03 283.73,-25.53"/>
<polygon fill="midnightblue" stroke="midnightblue" points="344.91,-40.15 355.37,-38.49 346.16,-33.26 344.91,-40.15"/>
</g>
<!-- Node15&#45;&gt;Node14 -->
<g id="edge15" class="edge">
<title>Node15&#45;&gt;Node14</title>
<path fill="none" stroke="midnightblue" d="M165.55,-104C149.21,-104 131.8,-104 116.05,-104"/>
<polygon fill="midnightblue" stroke="midnightblue" points="165.56,-107.5 175.56,-104 165.56,-100.5 165.56,-107.5"/>
</g>
<!-- Node17 -->
<g id="node17" class="node">
<title>Node17</title>
<g id="a_node17"><a xlink:href="$classJoyTabWidgetHelper.html#acc5d7d51e925f84f9aa2936ce267f843" xlink:title=" ">
<polygon fill="white" stroke="black" points="0,-1 0,-31 124,-31 124,-1 0,-1"/>
<text text-anchor="start" x="8" y="-19" font-family="Helvetica,sans-Serif" font-size="10.00">JoyTabWidgetHelper</text>
<text text-anchor="middle" x="62" y="-8" font-family="Helvetica,sans-Serif" font-size="10.00">::reInitDeviceWithRevert</text>
</a>
</g>
</g>
<!-- Node16&#45;&gt;Node17 -->
<g id="edge17" class="edge">
<title>Node16&#45;&gt;Node17</title>
<path fill="none" stroke="midnightblue" d="M166.14,-16C152.39,-16 137.85,-16 124.16,-16"/>
<polygon fill="midnightblue" stroke="midnightblue" points="166.48,-19.5 176.48,-16 166.48,-12.5 166.48,-19.5"/>
</g>
<!-- Node19 -->
<g id="node19" class="node">
<title>Node19</title>
<g id="a_node19"><a xlink:href="$classGameControllerSet.html#a9d686fa2df459f7d157d60e05707f712" xlink:title=" ">
<polygon fill="white" stroke="black" points="356,-126 356,-156 462,-156 462,-126 356,-126"/>
<text text-anchor="start" x="364" y="-144" font-family="Helvetica,sans-Serif" font-size="10.00">GameControllerSet::</text>
<text text-anchor="middle" x="409" y="-133" font-family="Helvetica,sans-Serif" font-size="10.00">GameControllerSet</text>
</a>
</g>
</g>
<!-- Node18&#45;&gt;Node19 -->
<g id="edge19" class="edge">
<title>Node18&#45;&gt;Node19</title>
<path fill="none" stroke="midnightblue" d="M517.28,-109.89C499.11,-115.16 479.41,-120.88 461.91,-125.95"/>
<polygon fill="midnightblue" stroke="midnightblue" points="518.29,-113.25 526.92,-107.1 516.34,-106.52 518.29,-113.25"/>
</g>
<!-- Node20 -->
<g id="node20" class="node">
<title>Node20</title>
<g id="a_node20"><a xlink:href="$classGameControllerSet.html#a69d798af242a07017bc0f2e2d0d8a830" xlink:title=" ">
<polygon fill="white" stroke="black" points="356,-77 356,-107 462,-107 462,-77 356,-77"/>
<text text-anchor="start" x="364" y="-95" font-family="Helvetica,sans-Serif" font-size="10.00">GameControllerSet::</text>
<text text-anchor="middle" x="409" y="-84" font-family="Helvetica,sans-Serif" font-size="10.00">reset</text>
</a>
</g>
</g>
<!-- Node18&#45;&gt;Node20 -->
<g id="edge20" class="edge">
<title>Node18&#45;&gt;Node20</title>
<path fill="none" stroke="midnightblue" d="M516.83,-92C498.88,-92 479.48,-92 462.2,-92"/>
<polygon fill="midnightblue" stroke="midnightblue" points="516.92,-95.5 526.92,-92 516.92,-88.5 516.92,-95.5"/>
</g>
<!-- Node22&#45;&gt;Node13 -->
<g id="edge23" class="edge">
<title>Node22&#45;&gt;Node13</title>
<path fill="none" stroke="midnightblue" d="M1347.38,-238.87C1324.29,-227.57 1289.88,-212.43 1258,-205 1128.94,-174.92 1093.02,-185 960.5,-185 960.5,-185 960.5,-185 579,-185 482.1,-185 370.39,-175.62 300.23,-168.59"/>
<polygon fill="midnightblue" stroke="midnightblue" points="1346.04,-242.11 1356.55,-243.45 1349.16,-235.85 1346.04,-242.11"/>
</g>
<!-- Node23 -->
<g id="node23" class="node">
<title>Node23</title>
<g id="a_node23"><a xlink:href="$classGameControllerXml.html#ae6ea19bdaf10425456faf9dd8495a7a3" xlink:title=" ">
<polygon fill="white" stroke="black" points="1116,-214 1116,-244 1224,-244 1224,-214 1116,-214"/>
<text text-anchor="start" x="1124" y="-232" font-family="Helvetica,sans-Serif" font-size="10.00">GameControllerXml::</text>
<text text-anchor="middle" x="1170" y="-221" font-family="Helvetica,sans-Serif" font-size="10.00">readXmlNamesLong</text>
</a>
</g>
</g>
<!-- Node22&#45;&gt;Node23 -->
<g id="edge24" class="edge">
<title>Node22&#45;&gt;Node23</title>
<path fill="none" stroke="midnightblue" d="M1283.82,-242.31C1263.42,-239.9 1242.41,-237.42 1224.13,-235.27"/>
<polygon fill="midnightblue" stroke="midnightblue" points="1283.44,-245.78 1293.78,-243.48 1284.26,-238.83 1283.44,-245.78"/>
</g>
<!-- Node24 -->
<g id="node24" class="node">
<title>Node24</title>
<g id="a_node24"><a xlink:href="$classInputDevice.html#adaf073e157dca5d1e3325d916d6c4823" xlink:title=" ">
<polygon fill="white" stroke="black" points="1100.5,-263 1100.5,-293 1239.5,-293 1239.5,-263 1100.5,-263"/>
<text text-anchor="start" x="1108.5" y="-281" font-family="Helvetica,sans-Serif" font-size="10.00">InputDevice::updateSetAxis</text>
<text text-anchor="middle" x="1170" y="-270" font-family="Helvetica,sans-Serif" font-size="10.00">ButtonNames</text>
</a>
</g>
</g>
<!-- Node22&#45;&gt;Node24 -->
<g id="edge26" class="edge">
<title>Node22&#45;&gt;Node24</title>
<path fill="none" stroke="midnightblue" d="M1283.65,-257.45C1268.92,-259.16 1253.89,-261.1 1239.8,-263.12"/>
<polygon fill="midnightblue" stroke="midnightblue" points="1284.24,-260.9 1293.78,-256.3 1283.45,-253.95 1284.24,-260.9"/>
</g>
<!-- Node23&#45;&gt;Node14 -->
<g id="edge25" class="edge">
<title>Node23&#45;&gt;Node14</title>
<path fill="none" stroke="midnightblue" d="M1105.38,-228.25C1024.69,-227.36 881.27,-226 758.5,-226 758.5,-226 758.5,-226 408,-226 295.9,-226 262.18,-226.12 160,-180 127.05,-165.13 95.33,-136.77 77.58,-119.21"/>
<polygon fill="midnightblue" stroke="midnightblue" points="1105.82,-231.75 1115.86,-228.36 1105.9,-224.75 1105.82,-231.75"/>
</g>
<!-- Node24&#45;&gt;Node2 -->
<g id="edge27" class="edge">
<title>Node24&#45;&gt;Node2</title>
<path fill="none" stroke="midnightblue" d="M1090.13,-283.67C1075.79,-284.71 1060.76,-285.79 1046.23,-286.83"/>
<polygon fill="midnightblue" stroke="midnightblue" points="1090.72,-287.14 1100.44,-282.93 1090.22,-280.16 1090.72,-287.14"/>
</g>
<!-- Node24&#45;&gt;Node22 -->
<g id="edge28" class="edge">
<title>Node24&#45;&gt;Node22</title>
<path fill="none" stroke="midnightblue" d="M1249.61,-274.94C1280.68,-271.55 1314.8,-266.91 1339.52,-262.54"/>
<polygon fill="midnightblue" stroke="midnightblue" points="1249.21,-271.46 1239.64,-275.99 1249.95,-278.42 1249.21,-271.46"/>
</g>
</g>
</svg>
