<?xml version="1.0" encoding="UTF-8" standalone="no"?>
<!DOCTYPE svg PUBLIC "-//W3C//DTD SVG 1.1//EN"
 "http://www.w3.org/Graphics/SVG/1.1/DTD/svg11.dtd">
<!-- Generated by graphviz version 2.43.0 (0)
 -->
<!-- Title: AxisEditDialog::updateThrottleUi Pages: 1 -->
<svg width="787pt" height="69pt"
 viewBox="0.00 0.00 787.00 69.14" xmlns="http://www.w3.org/2000/svg" xmlns:xlink="http://www.w3.org/1999/xlink">
<g id="graph0" class="graph" transform="scale(1 1) rotate(0) translate(4 65.14)">
<title>AxisEditDialog::updateThrottleUi</title>
<polygon fill="white" stroke="transparent" points="-4,4 -4,-65.14 783,-65.14 783,4 -4,4"/>
<!-- Node1 -->
<g id="node1" class="node">
<title>Node1</title>
<g id="a_node1"><a xlink:title=" ">
<polygon fill="#bfbfbf" stroke="black" points="0,-21.5 0,-40.5 159,-40.5 159,-21.5 0,-21.5"/>
<text text-anchor="middle" x="79.5" y="-28.5" font-family="Helvetica,sans-Serif" font-size="10.00">AxisEditDialog::updateThrottleUi</text>
</a>
</g>
</g>
<!-- Node2 -->
<g id="node2" class="node">
<title>Node2</title>
<g id="a_node2"><a xlink:href="$classJoyAxis.html#aa4be4a311b6656e63eacfdde5ce6861a" xlink:title="Set throttle value for axis.">
<polygon fill="white" stroke="black" points="195,-21.5 195,-40.5 299,-40.5 299,-21.5 195,-21.5"/>
<text text-anchor="middle" x="247" y="-28.5" font-family="Helvetica,sans-Serif" font-size="10.00">JoyAxis::setThrottle</text>
</a>
</g>
</g>
<!-- Node1&#45;&gt;Node2 -->
<g id="edge1" class="edge">
<title>Node1&#45;&gt;Node2</title>
<path fill="none" stroke="midnightblue" d="M159.37,-31C167.8,-31 176.29,-31 184.47,-31"/>
<polygon fill="midnightblue" stroke="midnightblue" points="184.66,-34.5 194.66,-31 184.66,-27.5 184.66,-34.5"/>
</g>
<!-- Node3 -->
<g id="node3" class="node">
<title>Node3</title>
<g id="a_node3"><a xlink:href="$classJoyAxis.html#a211c80f9aa20fa22c8f91a5cdcb0831a" xlink:title=" ">
<polygon fill="white" stroke="black" points="335,-21.5 335,-40.5 447,-40.5 447,-21.5 335,-21.5"/>
<text text-anchor="middle" x="391" y="-28.5" font-family="Helvetica,sans-Serif" font-size="10.00">JoyAxis::adjustRange</text>
</a>
</g>
</g>
<!-- Node2&#45;&gt;Node3 -->
<g id="edge2" class="edge">
<title>Node2&#45;&gt;Node3</title>
<path fill="none" stroke="midnightblue" d="M299.27,-31C307.6,-31 316.33,-31 324.95,-31"/>
<polygon fill="midnightblue" stroke="midnightblue" points="324.97,-34.5 334.97,-31 324.97,-27.5 324.97,-34.5"/>
</g>
<!-- Node4 -->
<g id="node4" class="node">
<title>Node4</title>
<g id="a_node4"><a xlink:href="$classJoyAxis.html#a06d99d722b314998440165a01b0f87b3" xlink:title=" ">
<polygon fill="white" stroke="black" points="483,-16 483,-46 618,-46 618,-16 483,-16"/>
<text text-anchor="start" x="491" y="-34" font-family="Helvetica,sans-Serif" font-size="10.00">JoyAxis::calculateThrottled</text>
<text text-anchor="middle" x="550.5" y="-23" font-family="Helvetica,sans-Serif" font-size="10.00">Value</text>
</a>
</g>
</g>
<!-- Node3&#45;&gt;Node4 -->
<g id="edge3" class="edge">
<title>Node3&#45;&gt;Node4</title>
<path fill="none" stroke="midnightblue" d="M447.09,-31C455.37,-31 464.05,-31 472.69,-31"/>
<polygon fill="midnightblue" stroke="midnightblue" points="472.8,-34.5 482.8,-31 472.8,-27.5 472.8,-34.5"/>
</g>
<!-- Node5 -->
<g id="node5" class="node">
<title>Node5</title>
<g id="a_node5"><a xlink:href="$classJoyAxis.html#af3f311fbf20c583224c2320d1fda0226" xlink:title=" ">
<polygon fill="white" stroke="black" points="654,-41.5 654,-60.5 779,-60.5 779,-41.5 654,-41.5"/>
<text text-anchor="middle" x="716.5" y="-48.5" font-family="Helvetica,sans-Serif" font-size="10.00">JoyAxis::getAxisMaxCal</text>
</a>
</g>
</g>
<!-- Node3&#45;&gt;Node5 -->
<g id="edge6" class="edge">
<title>Node3&#45;&gt;Node5</title>
<path fill="none" stroke="midnightblue" d="M419.48,-40.62C437.33,-46.35 461.24,-53.07 483,-56 536.38,-63.2 597.27,-61.54 643.34,-58.29"/>
<polygon fill="midnightblue" stroke="midnightblue" points="643.82,-61.77 653.53,-57.53 643.29,-54.79 643.82,-61.77"/>
</g>
<!-- Node6 -->
<g id="node6" class="node">
<title>Node6</title>
<g id="a_node6"><a xlink:href="$classJoyAxis.html#aff06f563278beb621285f65fb33b784a" xlink:title=" ">
<polygon fill="white" stroke="black" points="656,-0.5 656,-19.5 777,-19.5 777,-0.5 656,-0.5"/>
<text text-anchor="middle" x="716.5" y="-7.5" font-family="Helvetica,sans-Serif" font-size="10.00">JoyAxis::getAxisMinCal</text>
</a>
</g>
</g>
<!-- Node3&#45;&gt;Node6 -->
<g id="edge7" class="edge">
<title>Node3&#45;&gt;Node6</title>
<path fill="none" stroke="midnightblue" d="M419.48,-21.38C437.33,-15.65 461.24,-8.93 483,-6 537.31,1.32 599.39,-0.24 645.73,-3.33"/>
<polygon fill="midnightblue" stroke="midnightblue" points="645.74,-6.84 655.96,-4.06 646.24,0.14 645.74,-6.84"/>
</g>
<!-- Node4&#45;&gt;Node5 -->
<g id="edge4" class="edge">
<title>Node4&#45;&gt;Node5</title>
<path fill="none" stroke="midnightblue" d="M618.21,-39.13C626.68,-40.17 635.39,-41.23 643.94,-42.27"/>
<polygon fill="midnightblue" stroke="midnightblue" points="643.53,-45.75 653.88,-43.49 644.38,-38.8 643.53,-45.75"/>
</g>
<!-- Node4&#45;&gt;Node6 -->
<g id="edge5" class="edge">
<title>Node4&#45;&gt;Node6</title>
<path fill="none" stroke="midnightblue" d="M618.21,-22.46C627.29,-21.3 636.63,-20.1 645.77,-18.93"/>
<polygon fill="midnightblue" stroke="midnightblue" points="646.5,-22.36 655.97,-17.62 645.61,-15.42 646.5,-22.36"/>
</g>
</g>
</svg>
