<?xml version="1.0" encoding="UTF-8" standalone="no"?>
<!DOCTYPE svg PUBLIC "-//W3C//DTD SVG 1.1//EN"
 "http://www.w3.org/Graphics/SVG/1.1/DTD/svg11.dtd">
<!-- Generated by graphviz version 2.43.0 (0)
 -->
<!-- Title: InputDaemon::getTrackjoysticksLocal Pages: 1 -->
<svg width="1027pt" height="315pt"
 viewBox="0.00 0.00 1027.00 314.50" xmlns="http://www.w3.org/2000/svg" xmlns:xlink="http://www.w3.org/1999/xlink">
<g id="graph0" class="graph" transform="scale(1 1) rotate(0) translate(4 310.5)">
<title>InputDaemon::getTrackjoysticksLocal</title>
<polygon fill="white" stroke="transparent" points="-4,4 -4,-310.5 1023,-310.5 1023,4 -4,4"/>
<!-- Node1 -->
<g id="node1" class="node">
<title>Node1</title>
<g id="a_node1"><a xlink:title=" ">
<polygon fill="#bfbfbf" stroke="black" points="863,-137 863,-167 1019,-167 1019,-137 863,-137"/>
<text text-anchor="start" x="871" y="-155" font-family="Helvetica,sans-Serif" font-size="10.00">InputDaemon::getTrackjoysticks</text>
<text text-anchor="middle" x="941" y="-144" font-family="Helvetica,sans-Serif" font-size="10.00">Local</text>
</a>
</g>
</g>
<!-- Node2 -->
<g id="node2" class="node">
<title>Node2</title>
<g id="a_node2"><a xlink:href="$classInputDaemon.html#a5dceec80700a55f0e82e35d44d6d171a" xlink:title=" ">
<polygon fill="white" stroke="black" points="497.5,-123.5 497.5,-142.5 646.5,-142.5 646.5,-123.5 497.5,-123.5"/>
<text text-anchor="middle" x="572" y="-130.5" font-family="Helvetica,sans-Serif" font-size="10.00">InputDaemon::addInputDevice</text>
</a>
</g>
</g>
<!-- Node1&#45;&gt;Node2 -->
<g id="edge1" class="edge">
<title>Node1&#45;&gt;Node2</title>
<path fill="none" stroke="midnightblue" d="M852.33,-147.46C789.51,-144.21 705.86,-139.88 646.52,-136.81"/>
<polygon fill="midnightblue" stroke="midnightblue" points="852.45,-150.97 862.62,-147.99 852.81,-143.98 852.45,-150.97"/>
</g>
<!-- Node3 -->
<g id="node3" class="node">
<title>Node3</title>
<g id="a_node3"><a xlink:href="$classInputDaemon.html#a0cf6bcd3287d97d75c32a3921c633a7a" xlink:title=" ">
<polygon fill="white" stroke="black" points="304,-199.5 304,-218.5 460,-218.5 460,-199.5 304,-199.5"/>
<text text-anchor="middle" x="382" y="-206.5" font-family="Helvetica,sans-Serif" font-size="10.00">InputDaemon::secondInputPass</text>
</a>
</g>
</g>
<!-- Node1&#45;&gt;Node3 -->
<g id="edge20" class="edge">
<title>Node1&#45;&gt;Node3</title>
<path fill="none" stroke="midnightblue" d="M916.81,-173.74C895.38,-192.23 861.69,-217.42 827,-228 681.43,-272.4 496.59,-237.1 419.42,-218.56"/>
<polygon fill="midnightblue" stroke="midnightblue" points="919.23,-176.27 924.4,-167.02 914.6,-171.03 919.23,-176.27"/>
</g>
<!-- Node6 -->
<g id="node6" class="node">
<title>Node6</title>
<g id="a_node6"><a xlink:href="$classInputDaemon.html#a314c26c1cd61de2b923b3e0ee1db0c6e" xlink:title=" ">
<polygon fill="white" stroke="black" points="311,-161.5 311,-180.5 453,-180.5 453,-161.5 311,-161.5"/>
<text text-anchor="middle" x="382" y="-168.5" font-family="Helvetica,sans-Serif" font-size="10.00">InputDaemon::firstInputPass</text>
</a>
</g>
</g>
<!-- Node1&#45;&gt;Node6 -->
<g id="edge5" class="edge">
<title>Node1&#45;&gt;Node6</title>
<path fill="none" stroke="midnightblue" d="M852.65,-155.98C843.99,-156.34 835.32,-156.68 827,-157 695.02,-162 540.93,-166.58 453.37,-169.06"/>
<polygon fill="midnightblue" stroke="midnightblue" points="852.96,-159.47 862.81,-155.55 852.67,-152.47 852.96,-159.47"/>
</g>
<!-- Node7 -->
<g id="node7" class="node">
<title>Node7</title>
<g id="a_node7"><a xlink:href="$classInputDaemon.html#a9e5f5e28dc44a7d61625b76c6497ab0f" xlink:title=" ">
<polygon fill="white" stroke="black" points="685.5,-276 685.5,-306 825.5,-306 825.5,-276 685.5,-276"/>
<text text-anchor="start" x="693.5" y="-294" font-family="Helvetica,sans-Serif" font-size="10.00">InputDaemon::modifyUnplug</text>
<text text-anchor="middle" x="755.5" y="-283" font-family="Helvetica,sans-Serif" font-size="10.00">Events</text>
</a>
</g>
</g>
<!-- Node1&#45;&gt;Node7 -->
<g id="edge7" class="edge">
<title>Node1&#45;&gt;Node7</title>
<path fill="none" stroke="midnightblue" d="M920.96,-174.76C899.95,-198.75 864.16,-236.39 827,-261 818.35,-266.73 808.43,-271.75 798.81,-275.97"/>
<polygon fill="midnightblue" stroke="midnightblue" points="923.61,-177.05 927.5,-167.19 918.32,-172.47 923.61,-177.05"/>
</g>
<!-- Node8 -->
<g id="node8" class="node">
<title>Node8</title>
<g id="a_node8"><a xlink:href="$classInputDaemon.html#a2479784aa7e332c900a20b3e661260eb" xlink:title=" ">
<polygon fill="white" stroke="black" points="687,-74 687,-104 824,-104 824,-74 687,-74"/>
<text text-anchor="start" x="695" y="-92" font-family="Helvetica,sans-Serif" font-size="10.00">InputDaemon::openJoystick</text>
<text text-anchor="middle" x="755.5" y="-81" font-family="Helvetica,sans-Serif" font-size="10.00">Device</text>
</a>
</g>
</g>
<!-- Node1&#45;&gt;Node8 -->
<g id="edge9" class="edge">
<title>Node1&#45;&gt;Node8</title>
<path fill="none" stroke="midnightblue" d="M886.26,-133.55C858.95,-124.17 826.18,-112.92 800.41,-104.08"/>
<polygon fill="midnightblue" stroke="midnightblue" points="885.45,-136.97 896.05,-136.91 887.73,-130.35 885.45,-136.97"/>
</g>
<!-- Node9 -->
<g id="node9" class="node">
<title>Node9</title>
<g id="a_node9"><a xlink:href="$classInputDaemon.html#a7fa47112e0cac297ba679920c594a838" xlink:title=" ">
<polygon fill="white" stroke="black" points="496,-76.5 496,-95.5 648,-95.5 648,-76.5 496,-76.5"/>
<text text-anchor="middle" x="572" y="-83.5" font-family="Helvetica,sans-Serif" font-size="10.00">InputDaemon::refreshJoysticks</text>
</a>
</g>
</g>
<!-- Node1&#45;&gt;Node9 -->
<g id="edge15" class="edge">
<title>Node1&#45;&gt;Node9</title>
<path fill="none" stroke="midnightblue" d="M919.89,-129.37C899.11,-107.84 864.49,-76.88 827,-64 748.3,-36.97 648.21,-61.51 600.58,-76.45"/>
<polygon fill="midnightblue" stroke="midnightblue" points="917.51,-131.94 926.91,-136.83 922.6,-127.15 917.51,-131.94"/>
</g>
<!-- Node12 -->
<g id="node12" class="node">
<title>Node12</title>
<g id="a_node12"><a xlink:href="$classInputDaemon.html#a69164b93be97f28321b0cea7662feb6e" xlink:title=" ">
<polygon fill="white" stroke="black" points="498.5,-0.5 498.5,-19.5 645.5,-19.5 645.5,-0.5 498.5,-0.5"/>
<text text-anchor="middle" x="572" y="-7.5" font-family="Helvetica,sans-Serif" font-size="10.00">InputDaemon::refreshMapping</text>
</a>
</g>
</g>
<!-- Node1&#45;&gt;Node12 -->
<g id="edge16" class="edge">
<title>Node1&#45;&gt;Node12</title>
<path fill="none" stroke="midnightblue" d="M922.21,-128.94C901.98,-104.52 866.59,-66.94 827,-48 769.99,-20.72 698.23,-12 645.55,-9.65"/>
<polygon fill="midnightblue" stroke="midnightblue" points="919.7,-131.4 928.71,-136.97 925.14,-127 919.7,-131.4"/>
</g>
<!-- Node13 -->
<g id="node13" class="node">
<title>Node13</title>
<g id="a_node13"><a xlink:href="$classInputDaemon.html#acd2ed735ec3a24f3c0ad5c280f7cc6fa" xlink:title=" ">
<polygon fill="white" stroke="black" points="684,-199.5 684,-218.5 827,-218.5 827,-199.5 684,-199.5"/>
<text text-anchor="middle" x="755.5" y="-206.5" font-family="Helvetica,sans-Serif" font-size="10.00">InputDaemon::removeDevice</text>
</a>
</g>
</g>
<!-- Node1&#45;&gt;Node13 -->
<g id="edge18" class="edge">
<title>Node1&#45;&gt;Node13</title>
<path fill="none" stroke="midnightblue" d="M881.38,-170.21C850.09,-179.93 812.87,-191.49 787.25,-199.45"/>
<polygon fill="midnightblue" stroke="midnightblue" points="882.8,-173.43 891.31,-167.13 880.72,-166.75 882.8,-173.43"/>
</g>
<!-- Node2&#45;&gt;Node3 -->
<g id="edge2" class="edge">
<title>Node2&#45;&gt;Node3</title>
<path fill="none" stroke="midnightblue" d="M546.68,-147.58C524.68,-160.26 491.07,-178.37 460,-190 450.2,-193.67 439.43,-196.83 429.13,-199.47"/>
<polygon fill="midnightblue" stroke="midnightblue" points="548.49,-150.58 555.36,-142.52 544.96,-144.54 548.49,-150.58"/>
</g>
<!-- Node4 -->
<g id="node4" class="node">
<title>Node4</title>
<g id="a_node4"><a xlink:href="$classInputDaemon.html#ad7f954b25b67cb5a84fdb1a154282bfd" xlink:title=" ">
<polygon fill="white" stroke="black" points="174,-180.5 174,-199.5 268,-199.5 268,-180.5 174,-180.5"/>
<text text-anchor="middle" x="221" y="-187.5" font-family="Helvetica,sans-Serif" font-size="10.00">InputDaemon::run</text>
</a>
</g>
</g>
<!-- Node3&#45;&gt;Node4 -->
<g id="edge3" class="edge">
<title>Node3&#45;&gt;Node4</title>
<path fill="none" stroke="midnightblue" d="M293.84,-198.58C285.02,-197.53 276.33,-196.49 268.2,-195.52"/>
<polygon fill="midnightblue" stroke="midnightblue" points="293.48,-202.07 303.83,-199.78 294.31,-195.12 293.48,-202.07"/>
</g>
<!-- Node5 -->
<g id="node5" class="node">
<title>Node5</title>
<g id="a_node5"><a xlink:href="$classInputDaemon.html#ab7c3d331123e946ed8da490dfee5c265" xlink:title=" ">
<polygon fill="white" stroke="black" points="0,-132.5 0,-151.5 138,-151.5 138,-132.5 0,-132.5"/>
<text text-anchor="middle" x="69" y="-139.5" font-family="Helvetica,sans-Serif" font-size="10.00">InputDaemon::InputDaemon</text>
</a>
</g>
</g>
<!-- Node4&#45;&gt;Node5 -->
<g id="edge4" class="edge">
<title>Node4&#45;&gt;Node5</title>
<path fill="none" stroke="midnightblue" d="M180.37,-177.32C155.15,-169.25 123.02,-158.97 99.94,-151.58"/>
<polygon fill="midnightblue" stroke="midnightblue" points="179.41,-180.69 190.01,-180.4 181.55,-174.02 179.41,-180.69"/>
</g>
<!-- Node6&#45;&gt;Node4 -->
<g id="edge6" class="edge">
<title>Node6&#45;&gt;Node4</title>
<path fill="none" stroke="midnightblue" d="M300.58,-180.61C289.43,-181.94 278.3,-183.27 268.08,-184.49"/>
<polygon fill="midnightblue" stroke="midnightblue" points="301.28,-184.05 310.8,-179.39 300.45,-177.1 301.28,-184.05"/>
</g>
<!-- Node7&#45;&gt;Node4 -->
<g id="edge8" class="edge">
<title>Node7&#45;&gt;Node4</title>
<path fill="none" stroke="midnightblue" d="M675.26,-287.01C584.09,-280.8 430.67,-265.36 304,-228 280.37,-221.03 254.88,-208.32 238.7,-199.53"/>
<polygon fill="midnightblue" stroke="midnightblue" points="675.03,-290.5 685.24,-287.67 675.49,-283.51 675.03,-290.5"/>
</g>
<!-- Node8&#45;&gt;Node2 -->
<g id="edge10" class="edge">
<title>Node8&#45;&gt;Node2</title>
<path fill="none" stroke="midnightblue" d="M682.74,-106.4C658.72,-112.22 632.83,-118.5 612.24,-123.49"/>
<polygon fill="midnightblue" stroke="midnightblue" points="683.65,-109.78 692.55,-104.02 682,-102.97 683.65,-109.78"/>
</g>
<!-- Node8&#45;&gt;Node9 -->
<g id="edge11" class="edge">
<title>Node8&#45;&gt;Node9</title>
<path fill="none" stroke="midnightblue" d="M676.76,-87.72C667.32,-87.56 657.68,-87.4 648.27,-87.24"/>
<polygon fill="midnightblue" stroke="midnightblue" points="676.86,-91.22 686.92,-87.88 676.98,-84.22 676.86,-91.22"/>
</g>
<!-- Node9&#45;&gt;Node5 -->
<g id="edge12" class="edge">
<title>Node9&#45;&gt;Node5</title>
<path fill="none" stroke="midnightblue" d="M486.8,-96.78C477.76,-97.89 468.69,-98.98 460,-100 347.21,-113.18 215.89,-127.01 138.03,-135.05"/>
<polygon fill="midnightblue" stroke="midnightblue" points="487.49,-100.22 496.99,-95.53 486.63,-93.28 487.49,-100.22"/>
</g>
<!-- Node10 -->
<g id="node10" class="node">
<title>Node10</title>
<g id="a_node10"><a xlink:href="$classInputDaemon.html#a7dbb5a72a490efb5b6f881528f1186ba" xlink:title=" ">
<polygon fill="white" stroke="black" points="327,-71.5 327,-90.5 437,-90.5 437,-71.5 327,-71.5"/>
<text text-anchor="middle" x="382" y="-78.5" font-family="Helvetica,sans-Serif" font-size="10.00">InputDaemon::refresh</text>
</a>
</g>
</g>
<!-- Node9&#45;&gt;Node10 -->
<g id="edge13" class="edge">
<title>Node9&#45;&gt;Node10</title>
<path fill="none" stroke="midnightblue" d="M485.68,-83.73C469.18,-83.29 452.32,-82.84 437.16,-82.44"/>
<polygon fill="midnightblue" stroke="midnightblue" points="485.8,-87.24 495.89,-84 485.98,-80.24 485.8,-87.24"/>
</g>
<!-- Node11 -->
<g id="node11" class="node">
<title>Node11</title>
<g id="a_node11"><a xlink:href="$main_8cpp.html#a0ddf1224851353fc92bfbff6f499fa97" xlink:title=" ">
<polygon fill="white" stroke="black" points="202,-47.5 202,-66.5 240,-66.5 240,-47.5 202,-47.5"/>
<text text-anchor="middle" x="221" y="-54.5" font-family="Helvetica,sans-Serif" font-size="10.00">main</text>
</a>
</g>
</g>
<!-- Node10&#45;&gt;Node11 -->
<g id="edge14" class="edge">
<title>Node10&#45;&gt;Node11</title>
<path fill="none" stroke="midnightblue" d="M316.7,-71.29C289.1,-67.13 258.97,-62.58 240.28,-59.76"/>
<polygon fill="midnightblue" stroke="midnightblue" points="316.32,-74.78 326.73,-72.81 317.36,-67.85 316.32,-74.78"/>
</g>
<!-- Node12&#45;&gt;Node11 -->
<g id="edge17" class="edge">
<title>Node12&#45;&gt;Node11</title>
<path fill="none" stroke="midnightblue" d="M490.29,-20.87C408.02,-31.95 286.15,-48.36 240.32,-54.53"/>
<polygon fill="midnightblue" stroke="midnightblue" points="490.93,-24.31 500.37,-19.51 490,-17.38 490.93,-24.31"/>
</g>
<!-- Node13&#45;&gt;Node3 -->
<g id="edge19" class="edge">
<title>Node13&#45;&gt;Node3</title>
<path fill="none" stroke="midnightblue" d="M673.4,-209C610.04,-209 522.56,-209 460.22,-209"/>
<polygon fill="midnightblue" stroke="midnightblue" points="673.75,-212.5 683.75,-209 673.75,-205.5 673.75,-212.5"/>
</g>
</g>
</svg>
