<?xml version="1.0" encoding="UTF-8" standalone="no"?>
<!DOCTYPE svg PUBLIC "-//W3C//DTD SVG 1.1//EN"
 "http://www.w3.org/Graphics/SVG/1.1/DTD/svg11.dtd">
<!-- Generated by graphviz version 2.43.0 (0)
 -->
<!-- Title: EventHandlerFactory::getInstance Pages: 1 -->
<svg width="1216pt" height="1006pt"
 viewBox="0.00 0.00 1216.00 1006.49" xmlns="http://www.w3.org/2000/svg" xmlns:xlink="http://www.w3.org/1999/xlink">
<g id="graph0" class="graph" transform="scale(1 1) rotate(0) translate(4 1002.49)">
<title>EventHandlerFactory::getInstance</title>
<polygon fill="white" stroke="transparent" points="-4,4 -4,-1002.49 1212,-1002.49 1212,4 -4,4"/>
<!-- Node1 -->
<g id="node1" class="node">
<title>Node1</title>
<g id="a_node1"><a xlink:title=" ">
<polygon fill="#bfbfbf" stroke="black" points="1099,-464 1099,-494 1208,-494 1208,-464 1099,-464"/>
<text text-anchor="start" x="1107" y="-482" font-family="Helvetica,sans-Serif" font-size="10.00">EventHandlerFactory</text>
<text text-anchor="middle" x="1153.5" y="-471" font-family="Helvetica,sans-Serif" font-size="10.00">::getInstance</text>
</a>
</g>
</g>
<!-- Node2 -->
<g id="node2" class="node">
<title>Node2</title>
<g id="a_node2"><a xlink:href="$classSimpleKeyGrabberButton.html#ab6a33975387e7840e45cf0a6e5a701df" xlink:title=" ">
<polygon fill="white" stroke="black" points="164.5,-869 164.5,-899 290.5,-899 290.5,-869 164.5,-869"/>
<text text-anchor="start" x="172.5" y="-887" font-family="Helvetica,sans-Serif" font-size="10.00">SimpleKeyGrabberButton</text>
<text text-anchor="middle" x="227.5" y="-876" font-family="Helvetica,sans-Serif" font-size="10.00">::eventFilter</text>
</a>
</g>
</g>
<!-- Node1&#45;&gt;Node2 -->
<g id="edge1" class="edge">
<title>Node1&#45;&gt;Node2</title>
<path fill="none" stroke="midnightblue" d="M1148.41,-504.15C1130.09,-607.1 1045.89,-991 808.5,-991 808.5,-991 808.5,-991 616.5,-991 492.88,-991 454.24,-1016.76 339,-972 298.31,-956.2 260.78,-919.83 241.69,-899.13"/>
<polygon fill="midnightblue" stroke="midnightblue" points="1151.9,-504.5 1150.15,-494.05 1145,-503.3 1151.9,-504.5"/>
</g>
<!-- Node3 -->
<g id="node3" class="node">
<title>Node3</title>
<g id="a_node3"><a xlink:href="$classAboutDialog.html#ae79c07782279783a239fdf819c459d9c" xlink:title=" ">
<polygon fill="white" stroke="black" points="930,-727 930,-757 1050,-757 1050,-727 930,-727"/>
<text text-anchor="start" x="938" y="-745" font-family="Helvetica,sans-Serif" font-size="10.00">AboutDialog::fillInfoText</text>
<text text-anchor="middle" x="990" y="-734" font-family="Helvetica,sans-Serif" font-size="10.00">Browser</text>
</a>
</g>
</g>
<!-- Node1&#45;&gt;Node3 -->
<g id="edge2" class="edge">
<title>Node1&#45;&gt;Node3</title>
<path fill="none" stroke="midnightblue" d="M1149.4,-504.19C1142.35,-551.07 1121.01,-652.34 1063,-712 1057.05,-718.12 1049.67,-723.04 1041.92,-726.99"/>
<polygon fill="midnightblue" stroke="midnightblue" points="1152.86,-504.66 1150.79,-494.27 1145.93,-503.69 1152.86,-504.66"/>
</g>
<!-- Node5 -->
<g id="node5" class="node">
<title>Node5</title>
<g id="a_node5"><a xlink:href="$event_8h.html#ad89c8bfbcf663c1d0ab4db76aadec22e" xlink:title=" ">
<polygon fill="white" stroke="black" points="938,-650.5 938,-669.5 1042,-669.5 1042,-650.5 938,-650.5"/>
<text text-anchor="middle" x="990" y="-657.5" font-family="Helvetica,sans-Serif" font-size="10.00">keycodeToKeyString</text>
</a>
</g>
</g>
<!-- Node1&#45;&gt;Node5 -->
<g id="edge4" class="edge">
<title>Node1&#45;&gt;Node5</title>
<path fill="none" stroke="midnightblue" d="M1145.62,-503.83C1134.39,-539.65 1108.67,-605.4 1063,-641 1056.88,-645.77 1049.68,-649.35 1042.23,-652.03"/>
<polygon fill="midnightblue" stroke="midnightblue" points="1149,-504.74 1148.53,-494.16 1142.3,-502.73 1149,-504.74"/>
</g>
<!-- Node6 -->
<g id="node6" class="node">
<title>Node6</title>
<g id="a_node6"><a xlink:href="$event_8h.html#a7d3de98ba1ae3d3f10e7dc8280d7180a" xlink:title=" ">
<polygon fill="white" stroke="black" points="757,-688.5 757,-707.5 858,-707.5 858,-688.5 757,-688.5"/>
<text text-anchor="middle" x="807.5" y="-695.5" font-family="Helvetica,sans-Serif" font-size="10.00">keysymToKeyString</text>
</a>
</g>
</g>
<!-- Node1&#45;&gt;Node6 -->
<g id="edge35" class="edge">
<title>Node1&#45;&gt;Node6</title>
<path fill="none" stroke="midnightblue" d="M1149.46,-504.13C1142.68,-547.94 1121.97,-637.58 1063,-679 1001,-722.54 908.27,-716.39 853.53,-707.51"/>
<polygon fill="midnightblue" stroke="midnightblue" points="1152.95,-504.43 1150.89,-494.03 1146.02,-503.44 1152.95,-504.43"/>
</g>
<!-- Node261 -->
<g id="node25" class="node">
<title>Node261</title>
<g id="a_node25"><a xlink:href="$classVirtualKeyPushButton.html#a74da413e3983df7fe256e5950f97da7b" xlink:title=" ">
<polygon fill="white" stroke="black" points="558,-420 558,-450 677,-450 677,-420 558,-420"/>
<text text-anchor="start" x="566" y="-438" font-family="Helvetica,sans-Serif" font-size="10.00">VirtualKeyPushButton</text>
<text text-anchor="middle" x="617.5" y="-427" font-family="Helvetica,sans-Serif" font-size="10.00">::VirtualKeyPushButton</text>
</a>
</g>
</g>
<!-- Node1&#45;&gt;Node261 -->
<g id="edge65" class="edge">
<title>Node1&#45;&gt;Node261</title>
<path fill="none" stroke="midnightblue" d="M1129.67,-456.89C1112.78,-442.14 1088.38,-424.04 1063,-416 930.27,-373.97 764.09,-400.55 677.36,-419.95"/>
<polygon fill="midnightblue" stroke="midnightblue" points="1127.57,-459.7 1137.34,-463.8 1132.26,-454.5 1127.57,-459.7"/>
</g>
<!-- Node262 -->
<g id="node26" class="node">
<title>Node262</title>
<g id="a_node26"><a xlink:href="$classButtonEditDialog.html#aa9469772bd8abc88407492e2c9385687" xlink:title=" ">
<polygon fill="white" stroke="black" points="917,-552 917,-582 1063,-582 1063,-552 917,-552"/>
<text text-anchor="start" x="925" y="-570" font-family="Helvetica,sans-Serif" font-size="10.00">ButtonEditDialog::keyRelease</text>
<text text-anchor="middle" x="990" y="-559" font-family="Helvetica,sans-Serif" font-size="10.00">Event</text>
</a>
</g>
</g>
<!-- Node1&#45;&gt;Node262 -->
<g id="edge34" class="edge">
<title>Node1&#45;&gt;Node262</title>
<path fill="none" stroke="midnightblue" d="M1126.36,-500.35C1109.14,-513.65 1085.67,-530.38 1063,-542 1055.82,-545.68 1047.97,-549.03 1040.18,-551.99"/>
<polygon fill="midnightblue" stroke="midnightblue" points="1128.57,-503.07 1134.27,-494.14 1124.25,-497.56 1128.57,-503.07"/>
</g>
<!-- Node46 -->
<g id="node27" class="node">
<title>Node46</title>
<g id="a_node27"><a xlink:href="$main_8cpp.html#a0ddf1224851353fc92bfbff6f499fa97" xlink:title=" ">
<polygon fill="white" stroke="black" points="971,-513.5 971,-532.5 1009,-532.5 1009,-513.5 971,-513.5"/>
<text text-anchor="middle" x="990" y="-520.5" font-family="Helvetica,sans-Serif" font-size="10.00">main</text>
</a>
</g>
</g>
<!-- Node1&#45;&gt;Node46 -->
<g id="edge36" class="edge">
<title>Node1&#45;&gt;Node46</title>
<path fill="none" stroke="midnightblue" d="M1089.21,-496.8C1080.41,-499.24 1071.48,-501.7 1063,-504 1044.66,-508.98 1023.64,-514.51 1009.07,-518.31"/>
<polygon fill="midnightblue" stroke="midnightblue" points="1090.36,-500.11 1099.06,-494.06 1088.48,-493.37 1090.36,-500.11"/>
</g>
<!-- Node263 -->
<g id="node28" class="node">
<title>Node263</title>
<g id="a_node28"><a xlink:href="$classQKeyDisplayDialog.html#a624ae21cd97edb39a74f71f7b5fd2f54" xlink:title=" ">
<polygon fill="white" stroke="black" points="936.5,-464 936.5,-494 1043.5,-494 1043.5,-464 936.5,-464"/>
<text text-anchor="start" x="944.5" y="-482" font-family="Helvetica,sans-Serif" font-size="10.00">QKeyDisplayDialog::</text>
<text text-anchor="middle" x="990" y="-471" font-family="Helvetica,sans-Serif" font-size="10.00">QKeyDisplayDialog</text>
</a>
</g>
</g>
<!-- Node1&#45;&gt;Node263 -->
<g id="edge37" class="edge">
<title>Node1&#45;&gt;Node263</title>
<path fill="none" stroke="midnightblue" d="M1088.58,-479C1073.71,-479 1058.04,-479 1043.72,-479"/>
<polygon fill="midnightblue" stroke="midnightblue" points="1088.72,-482.5 1098.72,-479 1088.72,-475.5 1088.72,-482.5"/>
</g>
<!-- Node264 -->
<g id="node29" class="node">
<title>Node264</title>
<g id="a_node29"><a xlink:href="$classMainSettingsDialog.html#a4e1fe023ac97920e917f4dc78b01915c" xlink:title=" ">
<polygon fill="white" stroke="black" points="929,-601 929,-631 1051,-631 1051,-601 929,-601"/>
<text text-anchor="start" x="937" y="-619" font-family="Helvetica,sans-Serif" font-size="10.00">MainSettingsDialog</text>
<text text-anchor="middle" x="990" y="-608" font-family="Helvetica,sans-Serif" font-size="10.00">::refreshExtraMouseInfo</text>
</a>
</g>
</g>
<!-- Node1&#45;&gt;Node264 -->
<g id="edge38" class="edge">
<title>Node1&#45;&gt;Node264</title>
<path fill="none" stroke="midnightblue" d="M1139.37,-502.81C1124.14,-528.32 1096.77,-568.33 1063,-592 1058.14,-595.4 1052.77,-598.35 1047.21,-600.9"/>
<polygon fill="midnightblue" stroke="midnightblue" points="1142.42,-504.53 1144.41,-494.12 1136.36,-501.01 1142.42,-504.53"/>
</g>
<!-- Node267 -->
<g id="node32" class="node">
<title>Node267</title>
<g id="a_node32"><a xlink:href="$event_8h.html#a62b42b8e69adad83d9ca62a48ce5c9df" xlink:title=" ">
<polygon fill="white" stroke="black" points="777,-169.5 777,-188.5 838,-188.5 838,-169.5 777,-169.5"/>
<text text-anchor="middle" x="807.5" y="-176.5" font-family="Helvetica,sans-Serif" font-size="10.00">sendevent</text>
</a>
</g>
</g>
<!-- Node1&#45;&gt;Node267 -->
<g id="edge42" class="edge">
<title>Node1&#45;&gt;Node267</title>
<path fill="none" stroke="midnightblue" d="M1152.21,-453.68C1150.1,-400.12 1137.05,-275.23 1063,-214 998.04,-160.29 890.28,-166.81 838.32,-173.9"/>
<polygon fill="midnightblue" stroke="midnightblue" points="1148.71,-453.8 1152.5,-463.69 1155.7,-453.6 1148.71,-453.8"/>
</g>
<!-- Node319 -->
<g id="node44" class="node">
<title>Node319</title>
<g id="a_node44"><a xlink:href="$event_8h.html#a5e5e1732efbccf0f208fdf33ddcd9030" xlink:title=" ">
<polygon fill="white" stroke="black" points="765.5,-349.5 765.5,-368.5 849.5,-368.5 849.5,-349.5 765.5,-349.5"/>
<text text-anchor="middle" x="807.5" y="-356.5" font-family="Helvetica,sans-Serif" font-size="10.00">sendKeybEvent</text>
</a>
</g>
</g>
<!-- Node1&#45;&gt;Node319 -->
<g id="edge58" class="edge">
<title>Node1&#45;&gt;Node319</title>
<path fill="none" stroke="midnightblue" d="M1137.92,-455.32C1122.43,-432.48 1095.67,-399.07 1063,-383 994.11,-349.11 902.1,-350.06 849.69,-354.24"/>
<polygon fill="midnightblue" stroke="midnightblue" points="1135.07,-457.36 1143.48,-463.8 1140.92,-453.52 1135.07,-457.36"/>
</g>
<!-- Node320 -->
<g id="node45" class="node">
<title>Node320</title>
<g id="a_node45"><a xlink:href="$event_8h.html#ab9c4ca0a65739caafc9dc8ff4ffb9ab2" xlink:title=" ">
<polygon fill="white" stroke="black" points="945,-311.5 945,-330.5 1035,-330.5 1035,-311.5 945,-311.5"/>
<text text-anchor="middle" x="990" y="-318.5" font-family="Helvetica,sans-Serif" font-size="10.00">sendSpringEvent</text>
</a>
</g>
</g>
<!-- Node1&#45;&gt;Node320 -->
<g id="edge60" class="edge">
<title>Node1&#45;&gt;Node320</title>
<path fill="none" stroke="midnightblue" d="M1142.17,-454.41C1128.38,-424.41 1101.16,-374.12 1063,-345 1054.83,-338.77 1044.95,-334.1 1035.17,-330.63"/>
<polygon fill="midnightblue" stroke="midnightblue" points="1139.07,-456.03 1146.34,-463.74 1145.46,-453.18 1139.07,-456.03"/>
</g>
<!-- Node323 -->
<g id="node47" class="node">
<title>Node323</title>
<g id="a_node47"><a xlink:href="$event_8h.html#ac385b3b72ed4aeb88785482dedaacf72" xlink:title=" ">
<polygon fill="white" stroke="black" points="926.5,-273.5 926.5,-292.5 1053.5,-292.5 1053.5,-273.5 926.5,-273.5"/>
<text text-anchor="middle" x="990" y="-280.5" font-family="Helvetica,sans-Serif" font-size="10.00">sendSpringEventRefactor</text>
</a>
</g>
</g>
<!-- Node1&#45;&gt;Node323 -->
<g id="edge62" class="edge">
<title>Node1&#45;&gt;Node323</title>
<path fill="none" stroke="midnightblue" d="M1146.81,-453.87C1136.74,-415.27 1112.06,-341.7 1063,-302 1058.18,-298.1 1052.63,-294.99 1046.8,-292.52"/>
<polygon fill="midnightblue" stroke="midnightblue" points="1143.46,-454.91 1149.27,-463.77 1150.26,-453.22 1143.46,-454.91"/>
</g>
<!-- Node324 -->
<g id="node48" class="node">
<title>Node324</title>
<g id="a_node48"><a xlink:href="$classXMLConfigMigration.html#a422d184461a5aeddae8214bbd9ac99f9" xlink:title=" ">
<polygon fill="white" stroke="black" points="932.5,-224 932.5,-254 1047.5,-254 1047.5,-224 932.5,-224"/>
<text text-anchor="start" x="940.5" y="-242" font-family="Helvetica,sans-Serif" font-size="10.00">XMLConfigMigration</text>
<text text-anchor="middle" x="990" y="-231" font-family="Helvetica,sans-Serif" font-size="10.00">::version0006Migration</text>
</a>
</g>
</g>
<!-- Node1&#45;&gt;Node324 -->
<g id="edge63" class="edge">
<title>Node1&#45;&gt;Node324</title>
<path fill="none" stroke="midnightblue" d="M1148.85,-453.89C1141.1,-409.43 1118.89,-316.62 1063,-264 1058.47,-259.74 1053.18,-256.2 1047.56,-253.26"/>
<polygon fill="midnightblue" stroke="midnightblue" points="1145.42,-454.55 1150.49,-463.85 1152.32,-453.42 1145.42,-454.55"/>
</g>
<!-- Node328 -->
<g id="node50" class="node">
<title>Node328</title>
<g id="a_node50"><a xlink:href="$event_8h.html#a0e1911cf2881699b5c7086c5e7c7d355" xlink:title=" ">
<polygon fill="white" stroke="black" points="931,-425.5 931,-444.5 1049,-444.5 1049,-425.5 931,-425.5"/>
<text text-anchor="middle" x="990" y="-432.5" font-family="Helvetica,sans-Serif" font-size="10.00">X11KeySymToKeycode</text>
</a>
</g>
</g>
<!-- Node1&#45;&gt;Node328 -->
<g id="edge66" class="edge">
<title>Node1&#45;&gt;Node328</title>
<path fill="none" stroke="midnightblue" d="M1089.05,-461.71C1067.7,-455.9 1044.64,-449.62 1026.26,-444.61"/>
<polygon fill="midnightblue" stroke="midnightblue" points="1088.15,-465.1 1098.72,-464.35 1089.99,-458.34 1088.15,-465.1"/>
</g>
<!-- Node4 -->
<g id="node4" class="node">
<title>Node4</title>
<g id="a_node4"><a xlink:href="$classAboutDialog.html#a66647a6ddd09e3a000e96bd25a835799" xlink:title=" ">
<polygon fill="white" stroke="black" points="743,-732.5 743,-751.5 872,-751.5 872,-732.5 743,-732.5"/>
<text text-anchor="middle" x="807.5" y="-739.5" font-family="Helvetica,sans-Serif" font-size="10.00">AboutDialog::AboutDialog</text>
</a>
</g>
</g>
<!-- Node3&#45;&gt;Node4 -->
<g id="edge3" class="edge">
<title>Node3&#45;&gt;Node4</title>
<path fill="none" stroke="midnightblue" d="M919.75,-742C904.08,-742 887.51,-742 872.09,-742"/>
<polygon fill="midnightblue" stroke="midnightblue" points="919.9,-745.5 929.9,-742 919.9,-738.5 919.9,-745.5"/>
</g>
<!-- Node5&#45;&gt;Node6 -->
<g id="edge5" class="edge">
<title>Node5&#45;&gt;Node6</title>
<path fill="none" stroke="midnightblue" d="M933.52,-671.68C907.92,-677.07 877.92,-683.39 853.72,-688.48"/>
<polygon fill="midnightblue" stroke="midnightblue" points="934.39,-675.07 943.45,-669.59 932.95,-668.22 934.39,-675.07"/>
</g>
<!-- Node260 -->
<g id="node24" class="node">
<title>Node260</title>
<g id="a_node24"><a xlink:href="$classVirtualKeyPushButton.html#a79b2ddfcba784773ccc9fb1a4b64bb3f" xlink:title=" ">
<polygon fill="white" stroke="black" points="751,-464 751,-494 864,-494 864,-464 751,-464"/>
<text text-anchor="start" x="759" y="-482" font-family="Helvetica,sans-Serif" font-size="10.00">VirtualKeyPushButton</text>
<text text-anchor="middle" x="807.5" y="-471" font-family="Helvetica,sans-Serif" font-size="10.00">::setDisplayString</text>
</a>
</g>
</g>
<!-- Node5&#45;&gt;Node260 -->
<g id="edge32" class="edge">
<title>Node5&#45;&gt;Node260</title>
<path fill="none" stroke="midnightblue" d="M928.5,-648.87C924.35,-646.69 920.45,-644.09 917,-641 883.96,-611.45 905.65,-584.84 881,-548 866.7,-526.63 844.7,-506.9 828.69,-494.07"/>
<polygon fill="midnightblue" stroke="midnightblue" points="927.35,-652.19 937.92,-653.01 930.17,-645.78 927.35,-652.19"/>
</g>
<!-- Node6&#45;&gt;Node2 -->
<g id="edge8" class="edge">
<title>Node6&#45;&gt;Node2</title>
<path fill="none" stroke="midnightblue" d="M763.61,-710.81C753.69,-714.31 743.32,-718.42 734,-723 622.8,-777.62 619.16,-838.78 501,-876 431.48,-897.9 346.99,-896.35 290.7,-891.63"/>
<polygon fill="midnightblue" stroke="midnightblue" points="764.97,-714.05 773.32,-707.52 762.72,-707.42 764.97,-714.05"/>
</g>
<!-- Node7 -->
<g id="node7" class="node">
<title>Node7</title>
<g id="a_node7"><a xlink:href="$classVirtualKeyboardMouseWidget.html#a7421c70569311b4b19471a232c3333a8" xlink:title=" ">
<polygon fill="white" stroke="black" points="544.5,-932 544.5,-962 690.5,-962 690.5,-932 544.5,-932"/>
<text text-anchor="start" x="552.5" y="-950" font-family="Helvetica,sans-Serif" font-size="10.00">VirtualKeyboardMouseWidget</text>
<text text-anchor="middle" x="617.5" y="-939" font-family="Helvetica,sans-Serif" font-size="10.00">::addFButtonToOthers</text>
</a>
</g>
</g>
<!-- Node6&#45;&gt;Node7 -->
<g id="edge6" class="edge">
<title>Node6&#45;&gt;Node7</title>
<path fill="none" stroke="midnightblue" d="M747.85,-711.73C742.65,-714.77 737.9,-718.48 734,-723 676.76,-789.44 754.27,-849.74 698,-917 692.89,-923.11 686.4,-927.98 679.33,-931.85"/>
<polygon fill="midnightblue" stroke="midnightblue" points="749.53,-714.81 756.93,-707.23 746.42,-708.54 749.53,-714.81"/>
</g>
<!-- Node12 -->
<g id="node9" class="node">
<title>Node12</title>
<g id="a_node9"><a xlink:href="$classJoyButtonSlot.html#a6e10409ded595380cbdcfd5c827ab32a" xlink:title=" ">
<polygon fill="white" stroke="black" points="547.5,-610.5 547.5,-629.5 687.5,-629.5 687.5,-610.5 547.5,-610.5"/>
<text text-anchor="middle" x="617.5" y="-617.5" font-family="Helvetica,sans-Serif" font-size="10.00">JoyButtonSlot::getSlotString</text>
</a>
</g>
</g>
<!-- Node6&#45;&gt;Node12 -->
<g id="edge9" class="edge">
<title>Node6&#45;&gt;Node12</title>
<path fill="none" stroke="midnightblue" d="M773.9,-684.48C736.06,-668.77 674.6,-643.28 641.45,-629.52"/>
<polygon fill="midnightblue" stroke="midnightblue" points="772.87,-687.84 783.45,-688.44 775.55,-681.37 772.87,-687.84"/>
</g>
<!-- Node8 -->
<g id="node8" class="node">
<title>Node8</title>
<g id="a_node8"><a xlink:href="$classVirtualKeyboardMouseWidget.html#aaa98b51f6ff49d0218b765073bec3255" xlink:title=" ">
<polygon fill="white" stroke="red" points="347,-932 347,-962 493,-962 493,-932 347,-932"/>
<text text-anchor="start" x="355" y="-950" font-family="Helvetica,sans-Serif" font-size="10.00">VirtualKeyboardMouseWidget</text>
<text text-anchor="middle" x="420" y="-939" font-family="Helvetica,sans-Serif" font-size="10.00">::createOtherKeysMenu</text>
</a>
</g>
</g>
<!-- Node7&#45;&gt;Node8 -->
<g id="edge7" class="edge">
<title>Node7&#45;&gt;Node8</title>
<path fill="none" stroke="midnightblue" d="M534,-947C520.47,-947 506.53,-947 493.27,-947"/>
<polygon fill="midnightblue" stroke="midnightblue" points="534.26,-950.5 544.26,-947 534.26,-943.5 534.26,-950.5"/>
</g>
<!-- Node12&#45;&gt;Node2 -->
<g id="edge16" class="edge">
<title>Node12&#45;&gt;Node2</title>
<path fill="none" stroke="midnightblue" d="M612.79,-639.72C603.2,-684.65 573.15,-794.66 501,-846 468.21,-869.33 360.53,-878.41 290.75,-881.89"/>
<polygon fill="midnightblue" stroke="midnightblue" points="616.24,-640.27 614.79,-629.78 609.38,-638.89 616.24,-640.27"/>
</g>
<!-- Node13 -->
<g id="node10" class="node">
<title>Node13</title>
<g id="a_node10"><a xlink:href="$classJoyButton.html#a2662df8f42a2cc23b7bedb0c8a6ebb39" xlink:title=" ">
<polygon fill="white" stroke="red" points="349.5,-337.5 349.5,-356.5 490.5,-356.5 490.5,-337.5 349.5,-337.5"/>
<text text-anchor="middle" x="420" y="-344.5" font-family="Helvetica,sans-Serif" font-size="10.00">JoyButton::activateMiniSlots</text>
</a>
</g>
</g>
<!-- Node12&#45;&gt;Node13 -->
<g id="edge10" class="edge">
<title>Node12&#45;&gt;Node13</title>
<path fill="none" stroke="midnightblue" d="M545.04,-605.18C542.11,-603.08 539.41,-600.7 537,-598 467.89,-520.41 571.08,-443.72 501,-367 497.14,-362.77 492.53,-359.38 487.5,-356.66"/>
<polygon fill="midnightblue" stroke="midnightblue" points="543.39,-608.28 553.78,-610.39 546.97,-602.27 543.39,-608.28"/>
</g>
<!-- Node15 -->
<g id="node11" class="node">
<title>Node15</title>
<g id="a_node11"><a xlink:href="$classJoyButton.html#a5ad4a1a185fbca249220549f45d859ea" xlink:title=" ">
<polygon fill="white" stroke="red" points="166,-271.5 166,-290.5 289,-290.5 289,-271.5 166,-271.5"/>
<text text-anchor="middle" x="227.5" y="-278.5" font-family="Helvetica,sans-Serif" font-size="10.00">JoyButton::activateSlots</text>
</a>
</g>
</g>
<!-- Node12&#45;&gt;Node15 -->
<g id="edge11" class="edge">
<title>Node12&#45;&gt;Node15</title>
<path fill="none" stroke="midnightblue" d="M546.48,-605.65C543.04,-603.45 539.85,-600.91 537,-598 491.46,-551.47 547.18,-501.89 501,-456 448.4,-403.72 401.7,-455.61 339,-416 286.25,-382.67 246.84,-315.57 233.46,-290.62"/>
<polygon fill="midnightblue" stroke="midnightblue" points="544.97,-608.82 555.43,-610.49 548.3,-602.66 544.97,-608.82"/>
</g>
<!-- Node152 -->
<g id="node12" class="node">
<title>Node152</title>
<g id="a_node12"><a xlink:href="$classJoyButton.html#a85ef81bba77c2a23beb5107870038ddc" xlink:title=" ">
<polygon fill="white" stroke="black" points="353.5,-71 353.5,-101 486.5,-101 486.5,-71 353.5,-71"/>
<text text-anchor="start" x="361.5" y="-89" font-family="Helvetica,sans-Serif" font-size="10.00">JoyButton::addEachSlotTo</text>
<text text-anchor="middle" x="420" y="-78" font-family="Helvetica,sans-Serif" font-size="10.00">Actives</text>
</a>
</g>
</g>
<!-- Node12&#45;&gt;Node152 -->
<g id="edge12" class="edge">
<title>Node12&#45;&gt;Node152</title>
<path fill="none" stroke="midnightblue" d="M544.39,-605.05C541.69,-602.98 539.2,-600.64 537,-598 478.89,-528.23 533.8,-275.66 501,-191 486.92,-154.67 456.26,-120.29 437.25,-101.29"/>
<polygon fill="midnightblue" stroke="midnightblue" points="542.72,-608.14 553.05,-610.49 546.44,-602.21 542.72,-608.14"/>
</g>
<!-- Node153 -->
<g id="node13" class="node">
<title>Node153</title>
<g id="a_node13"><a xlink:href="$classAdvanceButtonDialog.html#a4f9a1a007f50de1c3cca1403d08a0790" xlink:title=" ">
<polygon fill="white" stroke="black" points="0,-602 0,-632 116,-632 116,-602 0,-602"/>
<text text-anchor="start" x="8" y="-620" font-family="Helvetica,sans-Serif" font-size="10.00">AdvanceButtonDialog</text>
<text text-anchor="middle" x="58" y="-609" font-family="Helvetica,sans-Serif" font-size="10.00">::AdvanceButtonDialog</text>
</a>
</g>
</g>
<!-- Node12&#45;&gt;Node153 -->
<g id="edge14" class="edge">
<title>Node12&#45;&gt;Node153</title>
<path fill="none" stroke="midnightblue" d="M564.1,-608.31C544.38,-604.12 521.71,-599.56 501,-596 347.67,-569.65 303.18,-532.29 152,-569 125.87,-575.35 98.87,-590.4 80.74,-601.97"/>
<polygon fill="midnightblue" stroke="midnightblue" points="563.61,-611.78 574.12,-610.46 565.08,-604.94 563.61,-611.78"/>
</g>
<!-- Node154 -->
<g id="node14" class="node">
<title>Node154</title>
<g id="a_node14"><a xlink:href="$classJoyButton.html#a773bbe39b094a62cd17776acc06efac6" xlink:title=" ">
<polygon fill="white" stroke="red" points="352,-376 352,-406 488,-406 488,-376 352,-376"/>
<text text-anchor="start" x="360" y="-394" font-family="Helvetica,sans-Serif" font-size="10.00">JoyButton::buildActiveZone</text>
<text text-anchor="middle" x="420" y="-383" font-family="Helvetica,sans-Serif" font-size="10.00">SummarySwitchSlots</text>
</a>
</g>
</g>
<!-- Node12&#45;&gt;Node154 -->
<g id="edge15" class="edge">
<title>Node12&#45;&gt;Node154</title>
<path fill="none" stroke="midnightblue" d="M545.64,-605.36C542.51,-603.22 539.59,-600.78 537,-598 482.24,-539.3 553.1,-482.07 501,-421 495.8,-414.91 489.24,-410.05 482.11,-406.18"/>
<polygon fill="midnightblue" stroke="midnightblue" points="543.98,-608.45 554.4,-610.36 547.45,-602.37 543.98,-608.45"/>
</g>
<!-- Node211 -->
<g id="node15" class="node">
<title>Node211</title>
<g id="a_node15"><a xlink:href="$classJoyButton.html#a9a21207e522749f3d22092f1c0a7c886" xlink:title="Generate a string representing all the currently assigned slots for a button.">
<polygon fill="white" stroke="red" points="356,-817.5 356,-836.5 484,-836.5 484,-817.5 356,-817.5"/>
<text text-anchor="middle" x="420" y="-824.5" font-family="Helvetica,sans-Serif" font-size="10.00">JoyButton::getSlotsString</text>
</a>
</g>
</g>
<!-- Node12&#45;&gt;Node211 -->
<g id="edge17" class="edge">
<title>Node12&#45;&gt;Node211</title>
<path fill="none" stroke="midnightblue" d="M610.21,-639.61C596.77,-678.25 561.44,-764.25 501,-808 495.68,-811.85 489.69,-814.93 483.44,-817.39"/>
<polygon fill="midnightblue" stroke="midnightblue" points="613.69,-640.23 613.56,-629.64 607.06,-638.01 613.69,-640.23"/>
</g>
<!-- Node222 -->
<g id="node16" class="node">
<title>Node222</title>
<g id="a_node16"><a xlink:href="$classJoyButton.html#ad0e91e7eea8ee9487ee3acf57f1bdc41" xlink:title="Generate a string representing a summary of the slots currently assigned to a button.">
<polygon fill="white" stroke="red" points="347,-779.5 347,-798.5 493,-798.5 493,-779.5 347,-779.5"/>
<text text-anchor="middle" x="420" y="-786.5" font-family="Helvetica,sans-Serif" font-size="10.00">JoyButton::getSlotsSummary</text>
</a>
</g>
</g>
<!-- Node12&#45;&gt;Node222 -->
<g id="edge18" class="edge">
<title>Node12&#45;&gt;Node222</title>
<path fill="none" stroke="midnightblue" d="M607.52,-638.72C591.1,-670.87 553.05,-736.35 501,-770 495.01,-773.88 488.3,-776.96 481.39,-779.42"/>
<polygon fill="midnightblue" stroke="midnightblue" points="610.77,-640.05 612.08,-629.54 604.5,-636.94 610.77,-640.05"/>
</g>
<!-- Node228 -->
<g id="node17" class="node">
<title>Node228</title>
<g id="a_node17"><a xlink:href="$classAdvanceButtonDialog.html#ad40bcfad2f4380b746002defc689a2b6" xlink:title=" ">
<polygon fill="white" stroke="black" points="172.5,-676 172.5,-706 282.5,-706 282.5,-676 172.5,-676"/>
<text text-anchor="start" x="180.5" y="-694" font-family="Helvetica,sans-Serif" font-size="10.00">AdvanceButtonDialog</text>
<text text-anchor="middle" x="227.5" y="-683" font-family="Helvetica,sans-Serif" font-size="10.00">::joinSlot</text>
</a>
</g>
</g>
<!-- Node12&#45;&gt;Node228 -->
<g id="edge19" class="edge">
<title>Node12&#45;&gt;Node228</title>
<path fill="none" stroke="midnightblue" d="M564.82,-631.72C544.92,-636.09 521.94,-640.97 501,-645 425.5,-659.54 337.75,-673.9 282.66,-682.61"/>
<polygon fill="midnightblue" stroke="midnightblue" points="565.62,-635.12 574.63,-629.55 564.11,-628.29 565.62,-635.12"/>
</g>
<!-- Node229 -->
<g id="node18" class="node">
<title>Node229</title>
<g id="a_node18"><a xlink:href="$classJoyButtonSlotXml.html#ae1a67e6f62ab1e8753d43416775b420a" xlink:title=" ">
<polygon fill="white" stroke="red" points="345.5,-741.5 345.5,-760.5 494.5,-760.5 494.5,-741.5 345.5,-741.5"/>
<text text-anchor="middle" x="420" y="-748.5" font-family="Helvetica,sans-Serif" font-size="10.00">JoyButtonSlotXml::readConfig</text>
</a>
</g>
</g>
<!-- Node12&#45;&gt;Node229 -->
<g id="edge21" class="edge">
<title>Node12&#45;&gt;Node229</title>
<path fill="none" stroke="midnightblue" d="M603.34,-637.77C583.85,-662.77 544.84,-707.96 501,-732 493.87,-735.91 485.94,-739.02 477.93,-741.5"/>
<polygon fill="midnightblue" stroke="midnightblue" points="606.33,-639.62 609.61,-629.55 600.77,-635.38 606.33,-639.62"/>
</g>
<!-- Node230 -->
<g id="node19" class="node">
<title>Node230</title>
<g id="a_node19"><a xlink:href="$classSimpleKeyGrabberButton.html#a4f7da5dfa576992eb688e4cde774d5cc" xlink:title=" ">
<polygon fill="white" stroke="red" points="357,-692 357,-722 483,-722 483,-692 357,-692"/>
<text text-anchor="start" x="365" y="-710" font-family="Helvetica,sans-Serif" font-size="10.00">SimpleKeyGrabberButton</text>
<text text-anchor="middle" x="420" y="-699" font-family="Helvetica,sans-Serif" font-size="10.00">::refreshButtonLabel</text>
</a>
</g>
</g>
<!-- Node12&#45;&gt;Node230 -->
<g id="edge22" class="edge">
<title>Node12&#45;&gt;Node230</title>
<path fill="none" stroke="midnightblue" d="M589.46,-634.3C566.28,-646.33 531.84,-663.65 501,-677 489.02,-682.19 475.82,-687.35 463.66,-691.9"/>
<polygon fill="midnightblue" stroke="midnightblue" points="591.12,-637.38 598.36,-629.65 587.88,-631.18 591.12,-637.38"/>
</g>
<!-- Node234 -->
<g id="node20" class="node">
<title>Node234</title>
<g id="a_node20"><a xlink:href="$classSimpleKeyGrabberButton.html#a293f8294c8c9b1b3325a07c4369186f4" xlink:title=" ">
<polygon fill="white" stroke="red" points="164.5,-627 164.5,-657 290.5,-657 290.5,-627 164.5,-627"/>
<text text-anchor="start" x="172.5" y="-645" font-family="Helvetica,sans-Serif" font-size="10.00">SimpleKeyGrabberButton</text>
<text text-anchor="middle" x="227.5" y="-634" font-family="Helvetica,sans-Serif" font-size="10.00">::setValue</text>
</a>
</g>
</g>
<!-- Node12&#45;&gt;Node234 -->
<g id="edge25" class="edge">
<title>Node12&#45;&gt;Node234</title>
<path fill="none" stroke="midnightblue" d="M537.07,-624.5C464.1,-628.64 357.43,-634.69 290.54,-638.48"/>
<polygon fill="midnightblue" stroke="midnightblue" points="537.35,-627.99 547.13,-623.93 536.95,-621 537.35,-627.99"/>
</g>
<!-- Node252 -->
<g id="node21" class="node">
<title>Node252</title>
<g id="a_node21"><a xlink:href="$classSimpleKeyGrabberButton.html#a7a3a4926db7e4657ae7dea0fdf7da8c0" xlink:title=" ">
<polygon fill="white" stroke="black" points="164.5,-578 164.5,-608 290.5,-608 290.5,-578 164.5,-578"/>
<text text-anchor="start" x="172.5" y="-596" font-family="Helvetica,sans-Serif" font-size="10.00">SimpleKeyGrabberButton</text>
<text text-anchor="middle" x="227.5" y="-585" font-family="Helvetica,sans-Serif" font-size="10.00">::setValues</text>
</a>
</g>
</g>
<!-- Node12&#45;&gt;Node252 -->
<g id="edge27" class="edge">
<title>Node12&#45;&gt;Node252</title>
<path fill="none" stroke="midnightblue" d="M537.07,-614.47C464.1,-609.39 357.43,-601.97 290.54,-597.32"/>
<polygon fill="midnightblue" stroke="midnightblue" points="536.91,-617.97 547.13,-615.17 537.4,-610.99 536.91,-617.97"/>
</g>
<!-- Node253 -->
<g id="node22" class="node">
<title>Node253</title>
<g id="a_node22"><a xlink:href="$classJoyButtonSlotXml.html#a894dae8b0bcb4519b10279fb02ada1bd" xlink:title=" ">
<polygon fill="white" stroke="red" points="152,-482.5 152,-501.5 303,-501.5 303,-482.5 152,-482.5"/>
<text text-anchor="middle" x="227.5" y="-489.5" font-family="Helvetica,sans-Serif" font-size="10.00">JoyButtonSlotXml::writeConfig</text>
</a>
</g>
</g>
<!-- Node12&#45;&gt;Node253 -->
<g id="edge29" class="edge">
<title>Node12&#45;&gt;Node253</title>
<path fill="none" stroke="midnightblue" d="M547.46,-605.81C543.69,-603.57 540.16,-600.99 537,-598 500.82,-563.84 541.44,-520.98 501,-492 426.59,-438.68 308.98,-465.97 255.99,-482.47"/>
<polygon fill="midnightblue" stroke="midnightblue" points="546.12,-609.06 556.62,-610.44 549.27,-602.81 546.12,-609.06"/>
</g>
<!-- Node259 -->
<g id="node23" class="node">
<title>Node259</title>
<g id="a_node23"><a xlink:href="$classJoyButtonSlotXml.html#af4050a75ee613629694d28a8d5815c8c" xlink:title=" ">
<polygon fill="white" stroke="black" points="339,-501.5 339,-520.5 501,-520.5 501,-501.5 339,-501.5"/>
<text text-anchor="middle" x="420" y="-508.5" font-family="Helvetica,sans-Serif" font-size="10.00">JoyButtonSlotXml::writeEachSlot</text>
</a>
</g>
</g>
<!-- Node12&#45;&gt;Node259 -->
<g id="edge30" class="edge">
<title>Node12&#45;&gt;Node259</title>
<path fill="none" stroke="midnightblue" d="M551.13,-606.6C546.1,-604.19 541.31,-601.35 537,-598 511.54,-578.21 526.25,-555.07 501,-535 493.05,-528.68 483.47,-524.03 473.74,-520.6"/>
<polygon fill="midnightblue" stroke="midnightblue" points="549.82,-609.85 560.4,-610.48 552.53,-603.39 549.82,-609.85"/>
</g>
<!-- Node152&#45;&gt;Node15 -->
<g id="edge13" class="edge">
<title>Node152&#45;&gt;Node15</title>
<path fill="none" stroke="midnightblue" d="M396.86,-108.66C355.32,-151.19 267.25,-241.34 238.09,-271.18"/>
<polygon fill="midnightblue" stroke="midnightblue" points="399.57,-110.9 404.05,-101.3 394.56,-106.01 399.57,-110.9"/>
</g>
<!-- Node228&#45;&gt;Node153 -->
<g id="edge20" class="edge">
<title>Node228&#45;&gt;Node153</title>
<path fill="none" stroke="midnightblue" d="M165.83,-672.48C161.11,-670.73 156.45,-668.9 152,-667 128.22,-656.88 102.42,-642.74 84.04,-632.08"/>
<polygon fill="midnightblue" stroke="midnightblue" points="164.96,-675.89 175.55,-675.95 167.31,-669.29 164.96,-675.89"/>
</g>
<!-- Node230&#45;&gt;Node2 -->
<g id="edge23" class="edge">
<title>Node230&#45;&gt;Node2</title>
<path fill="none" stroke="midnightblue" d="M347.58,-726.58C344.6,-728.25 341.72,-730.05 339,-732 287.32,-769.1 250.26,-837.87 235.53,-868.54"/>
<polygon fill="midnightblue" stroke="midnightblue" points="349.41,-729.58 356.8,-721.99 346.29,-723.31 349.41,-729.58"/>
</g>
<!-- Node230&#45;&gt;Node228 -->
<g id="edge24" class="edge">
<title>Node230&#45;&gt;Node228</title>
<path fill="none" stroke="midnightblue" d="M346.88,-700.94C325.53,-699.15 302.52,-697.22 282.52,-695.54"/>
<polygon fill="midnightblue" stroke="midnightblue" points="346.63,-704.43 356.89,-701.78 347.21,-697.46 346.63,-704.43"/>
</g>
<!-- Node234&#45;&gt;Node153 -->
<g id="edge26" class="edge">
<title>Node234&#45;&gt;Node153</title>
<path fill="none" stroke="midnightblue" d="M154.06,-631.19C141.38,-629.3 128.36,-627.35 116.16,-625.53"/>
<polygon fill="midnightblue" stroke="midnightblue" points="153.72,-634.68 164.13,-632.69 154.76,-627.75 153.72,-634.68"/>
</g>
<!-- Node252&#45;&gt;Node153 -->
<g id="edge28" class="edge">
<title>Node252&#45;&gt;Node153</title>
<path fill="none" stroke="midnightblue" d="M154.06,-603.38C141.38,-605.2 128.36,-607.06 116.16,-608.81"/>
<polygon fill="midnightblue" stroke="midnightblue" points="154.73,-606.82 164.13,-601.94 153.73,-599.89 154.73,-606.82"/>
</g>
<!-- Node259&#45;&gt;Node253 -->
<g id="edge31" class="edge">
<title>Node259&#45;&gt;Node253</title>
<path fill="none" stroke="midnightblue" d="M328.75,-502C320.19,-501.14 311.57,-500.29 303.18,-499.45"/>
<polygon fill="midnightblue" stroke="midnightblue" points="328.46,-505.49 338.76,-503 329.16,-498.52 328.46,-505.49"/>
</g>
<!-- Node260&#45;&gt;Node261 -->
<g id="edge33" class="edge">
<title>Node260&#45;&gt;Node261</title>
<path fill="none" stroke="midnightblue" d="M740.88,-463.64C720.18,-458.8 697.46,-453.48 677.27,-448.75"/>
<polygon fill="midnightblue" stroke="midnightblue" points="740.32,-467.11 750.86,-465.98 741.92,-460.29 740.32,-467.11"/>
</g>
<!-- Node265 -->
<g id="node30" class="node">
<title>Node265</title>
<g id="a_node30"><a xlink:href="$classMainSettingsDialog.html#aeee272ff5482aca59310558ffdb9ebbe" xlink:title=" ">
<polygon fill="white" stroke="black" points="564,-558 564,-588 671,-588 671,-558 564,-558"/>
<text text-anchor="start" x="572" y="-576" font-family="Helvetica,sans-Serif" font-size="10.00">MainSettingsDialog</text>
<text text-anchor="middle" x="617.5" y="-565" font-family="Helvetica,sans-Serif" font-size="10.00">::MainSettingsDialog</text>
</a>
</g>
</g>
<!-- Node264&#45;&gt;Node265 -->
<g id="edge39" class="edge">
<title>Node264&#45;&gt;Node265</title>
<path fill="none" stroke="midnightblue" d="M919,-613.25C867.61,-610.63 796.23,-605.75 734,-597 713.31,-594.09 690.78,-589.69 671.15,-585.45"/>
<polygon fill="midnightblue" stroke="midnightblue" points="918.84,-616.74 929,-613.74 919.18,-609.75 918.84,-616.74"/>
</g>
<!-- Node266 -->
<g id="node31" class="node">
<title>Node266</title>
<g id="a_node31"><a xlink:href="$classMainSettingsDialog.html#a6cf6a429394b9e95e342a4581611e465" xlink:title=" ">
<polygon fill="white" stroke="black" points="743.5,-557 743.5,-587 871.5,-587 871.5,-557 743.5,-557"/>
<text text-anchor="start" x="751.5" y="-575" font-family="Helvetica,sans-Serif" font-size="10.00">MainSettingsDialog</text>
<text text-anchor="middle" x="807.5" y="-564" font-family="Helvetica,sans-Serif" font-size="10.00">::resetMouseAcceleration</text>
</a>
</g>
</g>
<!-- Node264&#45;&gt;Node266 -->
<g id="edge40" class="edge">
<title>Node264&#45;&gt;Node266</title>
<path fill="none" stroke="midnightblue" d="M919.01,-598.94C902.91,-595.01 885.91,-590.87 870.19,-587.04"/>
<polygon fill="midnightblue" stroke="midnightblue" points="918.35,-602.38 928.9,-601.35 920.01,-595.58 918.35,-602.38"/>
</g>
<!-- Node266&#45;&gt;Node265 -->
<g id="edge41" class="edge">
<title>Node266&#45;&gt;Node265</title>
<path fill="none" stroke="midnightblue" d="M733.32,-572.39C712.57,-572.5 690.4,-572.62 671.12,-572.72"/>
<polygon fill="midnightblue" stroke="midnightblue" points="733.39,-575.89 743.38,-572.34 733.36,-568.89 733.39,-575.89"/>
</g>
<!-- Node267&#45;&gt;Node152 -->
<g id="edge43" class="edge">
<title>Node267&#45;&gt;Node152</title>
<path fill="none" stroke="midnightblue" d="M789,-162.62C768.82,-144.86 733.79,-117.4 698,-105 628.77,-81.01 544.1,-78.81 486.73,-80.98"/>
<polygon fill="midnightblue" stroke="midnightblue" points="786.69,-165.25 796.46,-169.35 791.38,-160.05 786.69,-165.25"/>
</g>
<!-- Node268 -->
<g id="node33" class="node">
<title>Node268</title>
<g id="a_node33"><a xlink:href="$classJoyButton.html#a4b16b04fea6fdb16408011661cf774d0" xlink:title=" ">
<polygon fill="white" stroke="black" points="547.5,-300.5 547.5,-319.5 687.5,-319.5 687.5,-300.5 547.5,-300.5"/>
<text text-anchor="middle" x="617.5" y="-307.5" font-family="Helvetica,sans-Serif" font-size="10.00">JoyButton::countActiveSlots</text>
</a>
</g>
</g>
<!-- Node267&#45;&gt;Node268 -->
<g id="edge44" class="edge">
<title>Node267&#45;&gt;Node268</title>
<path fill="none" stroke="midnightblue" d="M767.5,-191.96C755.64,-197.35 743.3,-204.58 734,-214 707.45,-240.88 727.28,-267.13 698,-291 693.27,-294.86 687.89,-297.95 682.2,-300.44"/>
<polygon fill="midnightblue" stroke="midnightblue" points="768.97,-195.14 776.83,-188.03 766.26,-188.68 768.97,-195.14"/>
</g>
<!-- Node306 -->
<g id="node35" class="node">
<title>Node306</title>
<g id="a_node35"><a xlink:href="$classJoyButton.html#acebec2764cf595a7bbfab588569cf195" xlink:title="Take cursor mouse information provided by all buttons and send a cursor mode mouse event to the displ...">
<polygon fill="white" stroke="black" points="543,-262.5 543,-281.5 692,-281.5 692,-262.5 543,-262.5"/>
<text text-anchor="middle" x="617.5" y="-269.5" font-family="Helvetica,sans-Serif" font-size="10.00">JoyButton::moveMouseCursor</text>
</a>
</g>
</g>
<!-- Node267&#45;&gt;Node306 -->
<g id="edge46" class="edge">
<title>Node267&#45;&gt;Node306</title>
<path fill="none" stroke="midnightblue" d="M771.85,-192.63C759.36,-198.32 745.51,-205.59 734,-214 715.22,-227.73 718.08,-240.25 698,-252 690.51,-256.38 682.07,-259.82 673.57,-262.5"/>
<polygon fill="midnightblue" stroke="midnightblue" points="773.33,-195.8 781.08,-188.58 770.52,-189.39 773.33,-195.8"/>
</g>
<!-- Node313 -->
<g id="node37" class="node">
<title>Node313</title>
<g id="a_node37"><a xlink:href="$classJoyKeyRepeatHelper.html#a935c7e7e68d0f12acbcc2783b5f4fdad" xlink:title=" ">
<polygon fill="white" stroke="black" points="563.5,-213 563.5,-243 671.5,-243 671.5,-213 563.5,-213"/>
<text text-anchor="start" x="571.5" y="-231" font-family="Helvetica,sans-Serif" font-size="10.00">JoyKeyRepeatHelper</text>
<text text-anchor="middle" x="617.5" y="-220" font-family="Helvetica,sans-Serif" font-size="10.00">::repeatKeysEvent</text>
</a>
</g>
</g>
<!-- Node267&#45;&gt;Node313 -->
<g id="edge48" class="edge">
<title>Node267&#45;&gt;Node313</title>
<path fill="none" stroke="midnightblue" d="M766.97,-189.3C739.27,-196.52 701.94,-206.25 671.64,-214.15"/>
<polygon fill="midnightblue" stroke="midnightblue" points="767.92,-192.67 776.71,-186.76 766.15,-185.9 767.92,-192.67"/>
</g>
<!-- Node315 -->
<g id="node39" class="node">
<title>Node315</title>
<g id="a_node39"><a xlink:href="$classJoyGradientButton.html#a4f3ade16ee15a36b15b6d8150a22cfd8" xlink:title=" ">
<polygon fill="white" stroke="black" points="562.5,-164 562.5,-194 672.5,-194 672.5,-164 562.5,-164"/>
<text text-anchor="start" x="570.5" y="-182" font-family="Helvetica,sans-Serif" font-size="10.00">JoyGradientButton::</text>
<text text-anchor="middle" x="617.5" y="-171" font-family="Helvetica,sans-Serif" font-size="10.00">wheelEventHorizontal</text>
</a>
</g>
</g>
<!-- Node267&#45;&gt;Node315 -->
<g id="edge50" class="edge">
<title>Node267&#45;&gt;Node315</title>
<path fill="none" stroke="midnightblue" d="M766.36,-179C739.07,-179 702.64,-179 672.76,-179"/>
<polygon fill="midnightblue" stroke="midnightblue" points="766.71,-182.5 776.71,-179 766.71,-175.5 766.71,-182.5"/>
</g>
<!-- Node316 -->
<g id="node40" class="node">
<title>Node316</title>
<g id="a_node40"><a xlink:href="$classJoyButton.html#acee2e3dbcb10fa41c550b3fb272cb24b" xlink:title=" ">
<polygon fill="white" stroke="black" points="537,-38.5 537,-57.5 698,-57.5 698,-38.5 537,-38.5"/>
<text text-anchor="middle" x="617.5" y="-45.5" font-family="Helvetica,sans-Serif" font-size="10.00">JoyButton::wheelEventHorizontal</text>
</a>
</g>
</g>
<!-- Node267&#45;&gt;Node316 -->
<g id="edge51" class="edge">
<title>Node267&#45;&gt;Node316</title>
<path fill="none" stroke="midnightblue" d="M793.21,-161.33C774.49,-137.65 738.14,-95.83 698,-72 687.59,-65.82 675.45,-61.11 663.84,-57.57"/>
<polygon fill="midnightblue" stroke="midnightblue" points="790.6,-163.68 799.49,-169.45 796.14,-159.4 790.6,-163.68"/>
</g>
<!-- Node317 -->
<g id="node42" class="node">
<title>Node317</title>
<g id="a_node42"><a xlink:href="$classJoyGradientButton.html#a2adac49f4b2ebf5357f50788ca8935b3" xlink:title=" ">
<polygon fill="white" stroke="black" points="565.5,-115 565.5,-145 669.5,-145 669.5,-115 565.5,-115"/>
<text text-anchor="start" x="573.5" y="-133" font-family="Helvetica,sans-Serif" font-size="10.00">JoyGradientButton::</text>
<text text-anchor="middle" x="617.5" y="-122" font-family="Helvetica,sans-Serif" font-size="10.00">wheelEventVertical</text>
</a>
</g>
</g>
<!-- Node267&#45;&gt;Node317 -->
<g id="edge54" class="edge">
<title>Node267&#45;&gt;Node317</title>
<path fill="none" stroke="midnightblue" d="M766.78,-168.65C738.53,-161.28 700.32,-151.33 669.77,-143.36"/>
<polygon fill="midnightblue" stroke="midnightblue" points="766.15,-172.1 776.71,-171.24 767.92,-165.33 766.15,-172.1"/>
</g>
<!-- Node318 -->
<g id="node43" class="node">
<title>Node318</title>
<g id="a_node43"><a xlink:href="$classJoyButton.html#a66feeb223e4ca637598b4eb45811ab45" xlink:title=" ">
<polygon fill="white" stroke="black" points="542.5,-0.5 542.5,-19.5 692.5,-19.5 692.5,-0.5 542.5,-0.5"/>
<text text-anchor="middle" x="617.5" y="-7.5" font-family="Helvetica,sans-Serif" font-size="10.00">JoyButton::wheelEventVertical</text>
</a>
</g>
</g>
<!-- Node267&#45;&gt;Node318 -->
<g id="edge55" class="edge">
<title>Node267&#45;&gt;Node318</title>
<path fill="none" stroke="midnightblue" d="M798.37,-160.29C783.41,-128.15 748.38,-62.7 698,-29 692.22,-25.13 685.74,-22.05 679.04,-19.59"/>
<polygon fill="midnightblue" stroke="midnightblue" points="795.21,-161.79 802.52,-169.47 801.59,-158.91 795.21,-161.79"/>
</g>
<!-- Node269 -->
<g id="node34" class="node">
<title>Node269</title>
<g id="a_node34"><a xlink:href="$classJoyButton.html#aba9c70c723490a10bfc6134a0f5882da" xlink:title=" ">
<polygon fill="white" stroke="red" points="351,-299.5 351,-318.5 489,-318.5 489,-299.5 351,-299.5"/>
<text text-anchor="middle" x="420" y="-306.5" font-family="Helvetica,sans-Serif" font-size="10.00">JoyButton::releaseEachSlot</text>
</a>
</g>
</g>
<!-- Node268&#45;&gt;Node269 -->
<g id="edge45" class="edge">
<title>Node268&#45;&gt;Node269</title>
<path fill="none" stroke="midnightblue" d="M536.98,-309.59C521.11,-309.51 504.57,-309.43 489.12,-309.35"/>
<polygon fill="midnightblue" stroke="midnightblue" points="537.28,-313.09 547.3,-309.65 537.32,-306.09 537.28,-313.09"/>
</g>
<!-- Node307 -->
<g id="node36" class="node">
<title>Node307</title>
<g id="a_node36"><a xlink:href="$classJoyButtonMouseHelper.html#ad520f0afa612d5a8e6f1a040312f84d2" xlink:title="Perform mouse movement in cursor mode.">
<polygon fill="white" stroke="red" points="360.5,-250 360.5,-280 479.5,-280 479.5,-250 360.5,-250"/>
<text text-anchor="start" x="368.5" y="-268" font-family="Helvetica,sans-Serif" font-size="10.00">JoyButtonMouseHelper</text>
<text text-anchor="middle" x="420" y="-257" font-family="Helvetica,sans-Serif" font-size="10.00">::moveMouseCursor</text>
</a>
</g>
</g>
<!-- Node306&#45;&gt;Node307 -->
<g id="edge47" class="edge">
<title>Node306&#45;&gt;Node307</title>
<path fill="none" stroke="midnightblue" d="M532.48,-268.99C514.68,-268.35 496.26,-267.69 479.65,-267.1"/>
<polygon fill="midnightblue" stroke="midnightblue" points="532.75,-272.5 542.87,-269.36 533,-265.51 532.75,-272.5"/>
</g>
<!-- Node314 -->
<g id="node38" class="node">
<title>Node314</title>
<g id="a_node38"><a xlink:href="$classJoyKeyRepeatHelper.html#ab193d78dc9dbb158119f8451cc8d0e4a" xlink:title=" ">
<polygon fill="white" stroke="black" points="363,-201 363,-231 477,-231 477,-201 363,-201"/>
<text text-anchor="start" x="371" y="-219" font-family="Helvetica,sans-Serif" font-size="10.00">JoyKeyRepeatHelper</text>
<text text-anchor="middle" x="420" y="-208" font-family="Helvetica,sans-Serif" font-size="10.00">::JoyKeyRepeatHelper</text>
</a>
</g>
</g>
<!-- Node313&#45;&gt;Node314 -->
<g id="edge49" class="edge">
<title>Node313&#45;&gt;Node314</title>
<path fill="none" stroke="midnightblue" d="M553.09,-224.11C528.65,-222.61 500.94,-220.91 477.23,-219.45"/>
<polygon fill="midnightblue" stroke="midnightblue" points="553.14,-227.62 563.34,-224.74 553.57,-220.63 553.14,-227.62"/>
</g>
<!-- Node316&#45;&gt;Node152 -->
<g id="edge52" class="edge">
<title>Node316&#45;&gt;Node152</title>
<path fill="none" stroke="midnightblue" d="M557.42,-59.48C535.11,-63.82 509.61,-68.78 486.73,-73.22"/>
<polygon fill="midnightblue" stroke="midnightblue" points="558.27,-62.88 567.42,-57.54 556.94,-56.01 558.27,-62.88"/>
</g>
<!-- Node19 -->
<g id="node41" class="node">
<title>Node19</title>
<g id="a_node41"><a xlink:href="$classJoyButton.html#aca54bc4605f7db801e8fc41a90d7f223" xlink:title=" ">
<polygon fill="white" stroke="black" points="364.5,-16.5 364.5,-35.5 475.5,-35.5 475.5,-16.5 364.5,-16.5"/>
<text text-anchor="middle" x="420" y="-23.5" font-family="Helvetica,sans-Serif" font-size="10.00">JoyButton::JoyButton</text>
</a>
</g>
</g>
<!-- Node316&#45;&gt;Node19 -->
<g id="edge53" class="edge">
<title>Node316&#45;&gt;Node19</title>
<path fill="none" stroke="midnightblue" d="M526.76,-37.9C509.31,-35.94 491.51,-33.94 475.62,-32.15"/>
<polygon fill="midnightblue" stroke="midnightblue" points="526.65,-41.41 536.98,-39.05 527.44,-34.46 526.65,-41.41"/>
</g>
<!-- Node318&#45;&gt;Node152 -->
<g id="edge56" class="edge">
<title>Node318&#45;&gt;Node152</title>
<path fill="none" stroke="midnightblue" d="M559.09,-22.11C551.59,-24.16 544.06,-26.46 537,-29 519.95,-35.14 478.25,-56.22 449.78,-70.94"/>
<polygon fill="midnightblue" stroke="midnightblue" points="560.11,-25.46 568.91,-19.55 558.35,-18.68 560.11,-25.46"/>
</g>
<!-- Node318&#45;&gt;Node19 -->
<g id="edge57" class="edge">
<title>Node318&#45;&gt;Node19</title>
<path fill="none" stroke="midnightblue" d="M532.09,-16.91C512.97,-18.47 493.16,-20.09 475.66,-21.53"/>
<polygon fill="midnightblue" stroke="midnightblue" points="532.63,-20.38 542.31,-16.07 532.06,-13.4 532.63,-20.38"/>
</g>
<!-- Node319&#45;&gt;Node13 -->
<g id="edge59" class="edge">
<title>Node319&#45;&gt;Node13</title>
<path fill="none" stroke="midnightblue" d="M755.19,-357.4C687.11,-355.28 566.69,-351.54 490.5,-349.16"/>
<polygon fill="midnightblue" stroke="midnightblue" points="755.14,-360.9 765.24,-357.72 755.36,-353.91 755.14,-360.9"/>
</g>
<!-- Node321 -->
<g id="node46" class="node">
<title>Node321</title>
<g id="a_node46"><a xlink:href="$classJoyButton.html#a006c7284a13ca61c95b259c4ea99cb3e" xlink:title="Take spring mouse information provided by all buttons and send a spring mode mouse event to the displ...">
<polygon fill="white" stroke="red" points="734,-311.5 734,-330.5 881,-330.5 881,-311.5 734,-311.5"/>
<text text-anchor="middle" x="807.5" y="-318.5" font-family="Helvetica,sans-Serif" font-size="10.00">JoyButton::moveSpringMouse</text>
</a>
</g>
</g>
<!-- Node320&#45;&gt;Node321 -->
<g id="edge61" class="edge">
<title>Node320&#45;&gt;Node321</title>
<path fill="none" stroke="midnightblue" d="M934.63,-321C917.77,-321 898.92,-321 881.03,-321"/>
<polygon fill="midnightblue" stroke="midnightblue" points="934.84,-324.5 944.84,-321 934.84,-317.5 934.84,-324.5"/>
</g>
<!-- Node325 -->
<g id="node49" class="node">
<title>Node325</title>
<g id="a_node49"><a xlink:href="$classXMLConfigMigration.html#a8af9befbbce30c416f18704190dc4e35" xlink:title=" ">
<polygon fill="white" stroke="red" points="755,-224 755,-254 860,-254 860,-224 755,-224"/>
<text text-anchor="start" x="763" y="-242" font-family="Helvetica,sans-Serif" font-size="10.00">XMLConfigMigration</text>
<text text-anchor="middle" x="807.5" y="-231" font-family="Helvetica,sans-Serif" font-size="10.00">::migrate</text>
</a>
</g>
</g>
<!-- Node324&#45;&gt;Node325 -->
<g id="edge64" class="edge">
<title>Node324&#45;&gt;Node325</title>
<path fill="none" stroke="midnightblue" d="M922.15,-239C901.62,-239 879.35,-239 860.01,-239"/>
<polygon fill="midnightblue" stroke="midnightblue" points="922.38,-242.5 932.38,-239 922.38,-235.5 922.38,-242.5"/>
</g>
<!-- Node328&#45;&gt;Node260 -->
<g id="edge67" class="edge">
<title>Node328&#45;&gt;Node260</title>
<path fill="none" stroke="midnightblue" d="M940.08,-446.92C916.59,-452.65 888.32,-459.54 864.02,-465.46"/>
<polygon fill="midnightblue" stroke="midnightblue" points="940.95,-450.32 949.83,-444.55 939.29,-443.52 940.95,-450.32"/>
</g>
<!-- Node328&#45;&gt;Node261 -->
<g id="edge68" class="edge">
<title>Node328&#45;&gt;Node261</title>
<path fill="none" stroke="midnightblue" d="M920.67,-435C850.74,-435 743.22,-435 677.07,-435"/>
<polygon fill="midnightblue" stroke="midnightblue" points="920.7,-438.5 930.7,-435 920.7,-431.5 920.7,-438.5"/>
</g>
</g>
</svg>
