<?xml version="1.0" encoding="UTF-8" standalone="no"?>
<!DOCTYPE svg PUBLIC "-//W3C//DTD SVG 1.1//EN"
 "http://www.w3.org/Graphics/SVG/1.1/DTD/svg11.dtd">
<!-- Generated by graphviz version 2.43.0 (0)
 -->
<!-- Title: InputDevice::isDeviceEdited Pages: 1 -->
<svg width="1759pt" height="393pt"
 viewBox="0.00 0.00 1759.00 392.97" xmlns="http://www.w3.org/2000/svg" xmlns:xlink="http://www.w3.org/1999/xlink">
<g id="graph0" class="graph" transform="scale(1 1) rotate(0) translate(4 388.97)">
<title>InputDevice::isDeviceEdited</title>
<polygon fill="white" stroke="transparent" points="-4,4 -4,-388.97 1755,-388.97 1755,4 -4,4"/>
<!-- Node1 -->
<g id="node1" class="node">
<title>Node1</title>
<g id="a_node1"><a xlink:title=" ">
<polygon fill="#bfbfbf" stroke="black" points="1610,-88 1610,-107 1751,-107 1751,-88 1610,-88"/>
<text text-anchor="middle" x="1680.5" y="-95" font-family="Helvetica,sans-Serif" font-size="10.00">InputDevice::isDeviceEdited</text>
</a>
</g>
</g>
<!-- Node2 -->
<g id="node2" class="node">
<title>Node2</title>
<g id="a_node2"><a xlink:href="$classJoyTabWidget.html#a52897728ad18ff62995aa44194412948" xlink:title=" ">
<polygon fill="white" stroke="black" points="1410,-182.5 1410,-212.5 1574,-212.5 1574,-182.5 1410,-182.5"/>
<text text-anchor="start" x="1418" y="-200.5" font-family="Helvetica,sans-Serif" font-size="10.00">JoyTabWidget::checkForUnsaved</text>
<text text-anchor="middle" x="1492" y="-189.5" font-family="Helvetica,sans-Serif" font-size="10.00">Profile</text>
</a>
</g>
</g>
<!-- Node1&#45;&gt;Node2 -->
<g id="edge1" class="edge">
<title>Node1&#45;&gt;Node2</title>
<path fill="none" stroke="midnightblue" d="M1652.46,-112C1617.41,-130.79 1556.59,-163.4 1521.05,-182.46"/>
<polygon fill="midnightblue" stroke="midnightblue" points="1654.46,-114.9 1661.62,-107.09 1651.15,-108.73 1654.46,-114.9"/>
</g>
<!-- Node4 -->
<g id="node4" class="node">
<title>Node4</title>
<g id="a_node4"><a xlink:href="$classJoyTabWidget.html#a3a406264aca24134162a4ee13e998b55" xlink:title=" ">
<polygon fill="white" stroke="black" points="842,-120.5 842,-150.5 997,-150.5 997,-120.5 842,-120.5"/>
<text text-anchor="start" x="850" y="-138.5" font-family="Helvetica,sans-Serif" font-size="10.00">JoyTabWidget::discardUnsaved</text>
<text text-anchor="middle" x="919.5" y="-127.5" font-family="Helvetica,sans-Serif" font-size="10.00">ProfileChanges</text>
</a>
</g>
</g>
<!-- Node1&#45;&gt;Node4 -->
<g id="edge40" class="edge">
<title>Node1&#45;&gt;Node4</title>
<path fill="none" stroke="midnightblue" d="M1599.5,-101.51C1452.58,-108.86 1141.61,-124.43 997.19,-131.66"/>
<polygon fill="midnightblue" stroke="midnightblue" points="1599.98,-104.99 1609.79,-100.99 1599.63,-97.99 1599.98,-104.99"/>
</g>
<!-- Node15 -->
<g id="node15" class="node">
<title>Node15</title>
<g id="a_node15"><a xlink:href="$classJoyTabWidget.html#aa64541df4b5629b43351dd13c9651b2a" xlink:title=" ">
<polygon fill="white" stroke="black" points="1034,-316 1034,-335 1181,-335 1181,-316 1034,-316"/>
<text text-anchor="middle" x="1107.5" y="-323" font-family="Helvetica,sans-Serif" font-size="10.00">JoyTabWidget::loadConfigFile</text>
</a>
</g>
</g>
<!-- Node1&#45;&gt;Node15 -->
<g id="edge43" class="edge">
<title>Node1&#45;&gt;Node15</title>
<path fill="none" stroke="midnightblue" d="M1668.01,-116.07C1650.62,-142.83 1615.23,-192.34 1574,-222.5 1456.09,-308.76 1279.49,-325.03 1181.18,-326.82"/>
<polygon fill="midnightblue" stroke="midnightblue" points="1671.16,-117.63 1673.58,-107.32 1665.26,-113.88 1671.16,-117.63"/>
</g>
<!-- Node23 -->
<g id="node23" class="node">
<title>Node23</title>
<g id="a_node23"><a xlink:href="$classMainWindow.html#a1a548fbdf7e11a670e95995c42dfb154" xlink:title=" ">
<polygon fill="white" stroke="black" points="1218.5,-50 1218.5,-69 1373.5,-69 1373.5,-50 1218.5,-50"/>
<text text-anchor="middle" x="1296" y="-57" font-family="Helvetica,sans-Serif" font-size="10.00">MainWindow::joystickTrayShow</text>
</a>
</g>
</g>
<!-- Node1&#45;&gt;Node23 -->
<g id="edge41" class="edge">
<title>Node1&#45;&gt;Node23</title>
<path fill="none" stroke="midnightblue" d="M1600.96,-86.68C1591.88,-85.54 1582.74,-84.46 1574,-83.5 1506.34,-76.08 1429.18,-69.56 1373.51,-65.19"/>
<polygon fill="midnightblue" stroke="midnightblue" points="1600.81,-90.19 1611.17,-87.97 1601.69,-83.24 1600.81,-90.19"/>
</g>
<!-- Node24 -->
<g id="node24" class="node">
<title>Node24</title>
<g id="a_node24"><a xlink:href="$classMainWindow.html#a52df3a0e51f09f939b82d11fbb83f5de" xlink:title="Display a version of the tray menu that shows all recent profiles for all controllers in one list.">
<polygon fill="white" stroke="black" points="1417,-0.5 1417,-30.5 1567,-30.5 1567,-0.5 1417,-0.5"/>
<text text-anchor="start" x="1425" y="-18.5" font-family="Helvetica,sans-Serif" font-size="10.00">MainWindow::singleTrayProfile</text>
<text text-anchor="middle" x="1492" y="-7.5" font-family="Helvetica,sans-Serif" font-size="10.00">MenuShow</text>
</a>
</g>
</g>
<!-- Node1&#45;&gt;Node24 -->
<g id="edge44" class="edge">
<title>Node1&#45;&gt;Node24</title>
<path fill="none" stroke="midnightblue" d="M1652.46,-83.21C1631.36,-72.29 1601.16,-57.19 1574,-45.5 1561.88,-40.28 1548.52,-35.11 1536.2,-30.56"/>
<polygon fill="midnightblue" stroke="midnightblue" points="1650.98,-86.39 1661.47,-87.9 1654.22,-80.18 1650.98,-86.39"/>
</g>
<!-- Node3 -->
<g id="node3" class="node">
<title>Node3</title>
<g id="a_node3"><a xlink:href="$classJoyTabWidget.html#a46cbb4d5798f46f5b9aaab65090ebe24" xlink:title=" ">
<polygon fill="white" stroke="black" points="1230,-182.5 1230,-212.5 1362,-212.5 1362,-182.5 1230,-182.5"/>
<text text-anchor="start" x="1238" y="-200.5" font-family="Helvetica,sans-Serif" font-size="10.00">JoyTabWidget::disconnect</text>
<text text-anchor="middle" x="1296" y="-189.5" font-family="Helvetica,sans-Serif" font-size="10.00">CheckUnsavedEvent</text>
</a>
</g>
</g>
<!-- Node2&#45;&gt;Node3 -->
<g id="edge2" class="edge">
<title>Node2&#45;&gt;Node3</title>
<path fill="none" stroke="midnightblue" d="M1399.74,-190.76C1387.07,-190.71 1374.27,-190.82 1362.21,-191.08"/>
<polygon fill="midnightblue" stroke="midnightblue" points="1399.83,-194.26 1409.85,-190.83 1399.88,-187.26 1399.83,-194.26"/>
</g>
<!-- Node2&#45;&gt;Node15 -->
<g id="edge32" class="edge">
<title>Node2&#45;&gt;Node15</title>
<path fill="none" stroke="midnightblue" d="M1463.76,-218.79C1440.99,-235.55 1407.02,-258.22 1374,-271.5 1311.48,-296.64 1235.8,-310.55 1181.26,-317.93"/>
<polygon fill="midnightblue" stroke="midnightblue" points="1466,-221.48 1471.91,-212.68 1461.81,-215.87 1466,-221.48"/>
</g>
<!-- Node22 -->
<g id="node22" class="node">
<title>Node22</title>
<g id="a_node22"><a xlink:href="$classJoyTabWidget.html#addfb2efb312a0ce8b5c1b9bcc8543bef" xlink:title=" ">
<polygon fill="white" stroke="black" points="1218,-231.5 1218,-261.5 1374,-261.5 1374,-231.5 1218,-231.5"/>
<text text-anchor="start" x="1226" y="-249.5" font-family="Helvetica,sans-Serif" font-size="10.00">JoyTabWidget::reconnectCheck</text>
<text text-anchor="middle" x="1296" y="-238.5" font-family="Helvetica,sans-Serif" font-size="10.00">UnsavedEvent</text>
</a>
</g>
</g>
<!-- Node2&#45;&gt;Node22 -->
<g id="edge33" class="edge">
<title>Node2&#45;&gt;Node22</title>
<path fill="none" stroke="midnightblue" d="M1400.02,-213.74C1376.98,-219.47 1353.48,-225.83 1334.76,-231.49"/>
<polygon fill="midnightblue" stroke="midnightblue" points="1400.97,-217.11 1409.85,-211.33 1399.3,-210.31 1400.97,-217.11"/>
</g>
<!-- Node3&#45;&gt;Node2 -->
<g id="edge3" class="edge">
<title>Node3&#45;&gt;Node2</title>
<path fill="none" stroke="midnightblue" d="M1372.39,-204.1C1384.67,-204.27 1397.44,-204.3 1409.85,-204.17"/>
<polygon fill="midnightblue" stroke="midnightblue" points="1372.27,-200.6 1362.21,-203.92 1372.15,-207.6 1372.27,-200.6"/>
</g>
<!-- Node3&#45;&gt;Node4 -->
<g id="edge4" class="edge">
<title>Node3&#45;&gt;Node4</title>
<path fill="none" stroke="midnightblue" d="M1253.4,-178.34C1232.43,-169.54 1206.35,-159.9 1182,-154.5 1120.78,-140.93 1049.73,-136.47 997.15,-135.23"/>
<polygon fill="midnightblue" stroke="midnightblue" points="1252.08,-181.58 1262.65,-182.3 1254.83,-175.14 1252.08,-181.58"/>
</g>
<!-- Node3&#45;&gt;Node15 -->
<g id="edge19" class="edge">
<title>Node3&#45;&gt;Node15</title>
<path fill="none" stroke="midnightblue" d="M1227,-216.96C1223.87,-218.66 1220.85,-220.51 1218,-222.5 1196.73,-237.38 1200.4,-250.18 1182,-268.5 1163.23,-287.18 1138.35,-305.32 1122.88,-315.95"/>
<polygon fill="midnightblue" stroke="midnightblue" points="1228.61,-220.07 1236.05,-212.54 1225.53,-213.78 1228.61,-220.07"/>
</g>
<!-- Node20 -->
<g id="node20" class="node">
<title>Node20</title>
<g id="a_node20"><a xlink:href="$classJoyTabWidget.html#a7e15bfce4bac6297eda8fc3a4e9d7196" xlink:title=" ">
<polygon fill="white" stroke="black" points="1034.5,-240 1034.5,-259 1180.5,-259 1180.5,-240 1034.5,-240"/>
<text text-anchor="middle" x="1107.5" y="-247" font-family="Helvetica,sans-Serif" font-size="10.00">JoyTabWidget::saveAsConfig</text>
</a>
</g>
</g>
<!-- Node3&#45;&gt;Node20 -->
<g id="edge26" class="edge">
<title>Node3&#45;&gt;Node20</title>
<path fill="none" stroke="midnightblue" d="M1231.18,-215.3C1201.48,-223.57 1167.36,-233.09 1142.65,-239.98"/>
<polygon fill="midnightblue" stroke="midnightblue" points="1232.36,-218.6 1241.06,-212.54 1230.48,-211.85 1232.36,-218.6"/>
</g>
<!-- Node21 -->
<g id="node21" class="node">
<title>Node21</title>
<g id="a_node21"><a xlink:href="$classJoyTabWidget.html#a6b09ad1532669ed27aac287e6aa63faf" xlink:title=" ">
<polygon fill="white" stroke="black" points="1033,-164 1033,-183 1182,-183 1182,-164 1033,-164"/>
<text text-anchor="middle" x="1107.5" y="-171" font-family="Helvetica,sans-Serif" font-size="10.00">JoyTabWidget::saveConfigFile</text>
</a>
</g>
</g>
<!-- Node3&#45;&gt;Node21 -->
<g id="edge28" class="edge">
<title>Node3&#45;&gt;Node21</title>
<path fill="none" stroke="midnightblue" d="M1219.57,-187.79C1207.27,-186.21 1194.55,-184.57 1182.3,-183"/>
<polygon fill="midnightblue" stroke="midnightblue" points="1219.41,-191.3 1229.77,-189.11 1220.3,-184.36 1219.41,-191.3"/>
</g>
<!-- Node5 -->
<g id="node5" class="node">
<title>Node5</title>
<g id="a_node5"><a xlink:href="$classMainWindow.html#a59aa0e5214cb820e8743dea1b81b7d9a" xlink:title=" ">
<polygon fill="white" stroke="black" points="666.5,-123 666.5,-142 797.5,-142 797.5,-123 666.5,-123"/>
<text text-anchor="middle" x="732" y="-130" font-family="Helvetica,sans-Serif" font-size="10.00">MainWindow::quitProgram</text>
</a>
</g>
</g>
<!-- Node4&#45;&gt;Node5 -->
<g id="edge5" class="edge">
<title>Node4&#45;&gt;Node5</title>
<path fill="none" stroke="midnightblue" d="M831.87,-134.1C820.31,-133.91 808.62,-133.72 797.53,-133.54"/>
<polygon fill="midnightblue" stroke="midnightblue" points="831.92,-137.6 841.98,-134.26 832.04,-130.6 831.92,-137.6"/>
</g>
<!-- Node6 -->
<g id="node6" class="node">
<title>Node6</title>
<g id="a_node6"><a xlink:href="$classMainWindow.html#a4b00208df3ff47236e6b46f308647a97" xlink:title=" ">
<polygon fill="white" stroke="black" points="470,-120 470,-139 622,-139 622,-120 470,-120"/>
<text text-anchor="middle" x="546" y="-127" font-family="Helvetica,sans-Serif" font-size="10.00">MainWindow::populateTrayIcon</text>
</a>
</g>
</g>
<!-- Node5&#45;&gt;Node6 -->
<g id="edge6" class="edge">
<title>Node5&#45;&gt;Node6</title>
<path fill="none" stroke="midnightblue" d="M656.2,-131.28C644.98,-131.1 633.4,-130.91 622.17,-130.73"/>
<polygon fill="midnightblue" stroke="midnightblue" points="656.33,-134.78 666.39,-131.45 656.45,-127.78 656.33,-134.78"/>
</g>
<!-- Node7 -->
<g id="node7" class="node">
<title>Node7</title>
<g id="a_node7"><a xlink:href="$classMainWindow.html#a9738583d1ab872fb2784c0faee89cb46" xlink:title=" ">
<polygon fill="white" stroke="black" points="82,-76 82,-95 207,-95 207,-76 82,-76"/>
<text text-anchor="middle" x="144.5" y="-83" font-family="Helvetica,sans-Serif" font-size="10.00">MainWindow::addJoyTab</text>
</a>
</g>
</g>
<!-- Node6&#45;&gt;Node7 -->
<g id="edge7" class="edge">
<title>Node6&#45;&gt;Node7</title>
<path fill="none" stroke="midnightblue" d="M499.51,-117.57C479.54,-112.78 455.74,-107.64 434,-104.5 356.25,-93.25 265.75,-88.66 207.13,-86.78"/>
<polygon fill="midnightblue" stroke="midnightblue" points="498.73,-120.98 509.27,-119.96 500.39,-114.19 498.73,-120.98"/>
</g>
<!-- Node9 -->
<g id="node9" class="node">
<title>Node9</title>
<g id="a_node9"><a xlink:href="$classMainWindow.html#aef8941c9dc542d8ff8416fff1caf8ad7" xlink:title=" ">
<polygon fill="white" stroke="black" points="272.5,-152 272.5,-171 412.5,-171 412.5,-152 272.5,-152"/>
<text text-anchor="middle" x="342.5" y="-159" font-family="Helvetica,sans-Serif" font-size="10.00">MainWindow::fillButtonsMap</text>
</a>
</g>
</g>
<!-- Node6&#45;&gt;Node9 -->
<g id="edge9" class="edge">
<title>Node6&#45;&gt;Node9</title>
<path fill="none" stroke="midnightblue" d="M474.93,-140.63C451.66,-144.32 425.97,-148.4 403.53,-151.97"/>
<polygon fill="midnightblue" stroke="midnightblue" points="475.76,-144.04 485.09,-139.01 474.66,-137.13 475.76,-144.04"/>
</g>
<!-- Node11 -->
<g id="node11" class="node">
<title>Node11</title>
<g id="a_node11"><a xlink:href="$classMainWindow.html#ae9f72ff45056908317963a1e7fa634a0" xlink:title="Build list of current input devices and pass it to settings dialog instance. Open Settings dialog.">
<polygon fill="white" stroke="black" points="264.5,-228.5 264.5,-258.5 420.5,-258.5 420.5,-228.5 264.5,-228.5"/>
<text text-anchor="start" x="272.5" y="-246.5" font-family="Helvetica,sans-Serif" font-size="10.00">MainWindow::openMainSettings</text>
<text text-anchor="middle" x="342.5" y="-235.5" font-family="Helvetica,sans-Serif" font-size="10.00">Dialog</text>
</a>
</g>
</g>
<!-- Node6&#45;&gt;Node11 -->
<g id="edge13" class="edge">
<title>Node6&#45;&gt;Node11</title>
<path fill="none" stroke="midnightblue" d="M527.31,-145.85C506.4,-164.43 469.88,-194.64 434,-213.5 423.01,-219.28 410.69,-224.24 398.77,-228.38"/>
<polygon fill="midnightblue" stroke="midnightblue" points="529.69,-148.41 534.78,-139.11 525.01,-143.21 529.69,-148.41"/>
</g>
<!-- Node13 -->
<g id="node13" class="node">
<title>Node13</title>
<g id="a_node13"><a xlink:href="$classMainWindow.html#ac398cc635954d370088390a0a5bee878" xlink:title=" ">
<polygon fill="white" stroke="black" points="74,-228 74,-247 215,-247 215,-228 74,-228"/>
<text text-anchor="middle" x="144.5" y="-235" font-family="Helvetica,sans-Serif" font-size="10.00">MainWindow::removeJoyTab</text>
</a>
</g>
</g>
<!-- Node6&#45;&gt;Node13 -->
<g id="edge15" class="edge">
<title>Node6&#45;&gt;Node13</title>
<path fill="none" stroke="midnightblue" d="M518.39,-143.89C496.33,-155.28 463.88,-170.83 434,-180.5 391.68,-194.19 273.31,-215.65 202.02,-227.96"/>
<polygon fill="midnightblue" stroke="midnightblue" points="520.22,-146.89 527.45,-139.14 516.97,-140.69 520.22,-146.89"/>
</g>
<!-- Node14 -->
<g id="node14" class="node">
<title>Node14</title>
<g id="a_node14"><a xlink:href="$classMainWindow.html#a2a0aba59f5d3bf3c6fb97f0de103b36f" xlink:title=" ">
<polygon fill="white" stroke="black" points="251,-114 251,-133 434,-133 434,-114 251,-114"/>
<text text-anchor="middle" x="342.5" y="-121" font-family="Helvetica,sans-Serif" font-size="10.00">MainWindow::testMappingUpdateNow</text>
</a>
</g>
</g>
<!-- Node6&#45;&gt;Node14 -->
<g id="edge17" class="edge">
<title>Node6&#45;&gt;Node14</title>
<path fill="none" stroke="midnightblue" d="M459.77,-126.96C451.34,-126.71 442.75,-126.46 434.27,-126.2"/>
<polygon fill="midnightblue" stroke="midnightblue" points="459.87,-130.47 469.97,-127.27 460.08,-123.47 459.87,-130.47"/>
</g>
<!-- Node8 -->
<g id="node8" class="node">
<title>Node8</title>
<g id="a_node8"><a xlink:href="$main_8cpp.html#a0ddf1224851353fc92bfbff6f499fa97" xlink:title=" ">
<polygon fill="white" stroke="black" points="0,-171 0,-190 38,-190 38,-171 0,-171"/>
<text text-anchor="middle" x="19" y="-178" font-family="Helvetica,sans-Serif" font-size="10.00">main</text>
</a>
</g>
</g>
<!-- Node7&#45;&gt;Node8 -->
<g id="edge8" class="edge">
<title>Node7&#45;&gt;Node8</title>
<path fill="none" stroke="midnightblue" d="M93.51,-98.72C86.62,-101.67 79.9,-105.23 74,-109.5 50.92,-126.21 33.12,-155.58 24.93,-170.78"/>
<polygon fill="midnightblue" stroke="midnightblue" points="94.88,-101.94 102.94,-95.06 92.35,-95.41 94.88,-101.94"/>
</g>
<!-- Node9&#45;&gt;Node8 -->
<g id="edge12" class="edge">
<title>Node9&#45;&gt;Node8</title>
<path fill="none" stroke="midnightblue" d="M261.8,-166.21C187.03,-170.63 80.57,-176.92 38.31,-179.42"/>
<polygon fill="midnightblue" stroke="midnightblue" points="262.36,-169.68 272.14,-165.6 261.95,-162.7 262.36,-169.68"/>
</g>
<!-- Node10 -->
<g id="node10" class="node">
<title>Node10</title>
<g id="a_node10"><a xlink:href="$classMainWindow.html#a5d25ebfdfec433fc449d7e35803a9c7c" xlink:title=" ">
<polygon fill="white" stroke="black" points="83.5,-190 83.5,-209 205.5,-209 205.5,-190 83.5,-190"/>
<text text-anchor="middle" x="144.5" y="-197" font-family="Helvetica,sans-Serif" font-size="10.00">MainWindow::fillButtons</text>
</a>
</g>
</g>
<!-- Node9&#45;&gt;Node10 -->
<g id="edge10" class="edge">
<title>Node9&#45;&gt;Node10</title>
<path fill="none" stroke="midnightblue" d="M282.24,-172.99C254.27,-178.41 221.29,-184.81 194.73,-189.96"/>
<polygon fill="midnightblue" stroke="midnightblue" points="283.14,-176.38 292.29,-171.04 281.81,-169.51 283.14,-176.38"/>
</g>
<!-- Node10&#45;&gt;Node8 -->
<g id="edge11" class="edge">
<title>Node10&#45;&gt;Node8</title>
<path fill="none" stroke="midnightblue" d="M73.22,-188.69C60.25,-186.69 47.8,-184.78 38.2,-183.3"/>
<polygon fill="midnightblue" stroke="midnightblue" points="72.78,-192.16 83.2,-190.22 73.85,-185.24 72.78,-192.16"/>
</g>
<!-- Node12 -->
<g id="node12" class="node">
<title>Node12</title>
<g id="a_node12"><a xlink:href="$classMainWindow.html#a2f0c03d3d51748ab794e698322110614" xlink:title=" ">
<polygon fill="white" stroke="black" points="77.5,-275 77.5,-294 211.5,-294 211.5,-275 77.5,-275"/>
<text text-anchor="middle" x="144.5" y="-282" font-family="Helvetica,sans-Serif" font-size="10.00">MainWindow::MainWindow</text>
</a>
</g>
</g>
<!-- Node11&#45;&gt;Node12 -->
<g id="edge14" class="edge">
<title>Node11&#45;&gt;Node12</title>
<path fill="none" stroke="midnightblue" d="M259.69,-260.61C236.27,-265.51 211.58,-270.68 191.18,-274.95"/>
<polygon fill="midnightblue" stroke="midnightblue" points="260.56,-264.01 269.63,-258.53 259.12,-257.16 260.56,-264.01"/>
</g>
<!-- Node13&#45;&gt;Node8 -->
<g id="edge16" class="edge">
<title>Node13&#45;&gt;Node8</title>
<path fill="none" stroke="midnightblue" d="M89.61,-224.78C84.24,-222.92 78.95,-220.83 74,-218.5 58.03,-210.98 41.73,-198.76 31.28,-190.21"/>
<polygon fill="midnightblue" stroke="midnightblue" points="88.7,-228.17 99.29,-227.89 90.84,-221.5 88.7,-228.17"/>
</g>
<!-- Node14&#45;&gt;Node8 -->
<g id="edge18" class="edge">
<title>Node14&#45;&gt;Node8</title>
<path fill="none" stroke="midnightblue" d="M250.29,-134.35C198.31,-141.31 132.14,-151.5 74,-164.5 61.98,-167.19 48.71,-171.11 38.33,-174.39"/>
<polygon fill="midnightblue" stroke="midnightblue" points="251.04,-137.78 260.49,-133 250.12,-130.84 251.04,-137.78"/>
</g>
<!-- Node16 -->
<g id="node16" class="node">
<title>Node16</title>
<g id="a_node16"><a xlink:href="$classMainWindow.html#a0a756973a707af418c4ce416c9c8312c" xlink:title=" ">
<polygon fill="white" stroke="black" points="474,-278 474,-297 618,-297 618,-278 474,-278"/>
<text text-anchor="middle" x="546" y="-285" font-family="Helvetica,sans-Serif" font-size="10.00">MainWindow::autoprofileLoad</text>
</a>
</g>
</g>
<!-- Node15&#45;&gt;Node16 -->
<g id="edge20" class="edge">
<title>Node15&#45;&gt;Node16</title>
<path fill="none" stroke="midnightblue" d="M1038.76,-314.56C1024.97,-312.63 1010.54,-310.82 997,-309.5 863.49,-296.51 706.9,-291.05 618.08,-288.86"/>
<polygon fill="midnightblue" stroke="midnightblue" points="1038.27,-318.03 1048.66,-315.99 1039.26,-311.1 1038.27,-318.03"/>
</g>
<!-- Node17 -->
<g id="node17" class="node">
<title>Node17</title>
<g id="a_node17"><a xlink:href="$classJoyTabWidget.html#a6a6bd9ccd83557de08b6e698598f2123" xlink:title=" ">
<polygon fill="white" stroke="black" points="846,-240 846,-259 993,-259 993,-240 846,-240"/>
<text text-anchor="middle" x="919.5" y="-247" font-family="Helvetica,sans-Serif" font-size="10.00">JoyTabWidget::JoyTabWidget</text>
</a>
</g>
</g>
<!-- Node15&#45;&gt;Node17 -->
<g id="edge22" class="edge">
<title>Node15&#45;&gt;Node17</title>
<path fill="none" stroke="midnightblue" d="M1059.25,-312.75C1050.3,-309.6 1041.18,-305.85 1033,-301.5 1015.1,-291.99 1014.96,-282.91 997,-273.5 985.66,-267.56 972.59,-262.79 960.49,-259.11"/>
<polygon fill="midnightblue" stroke="midnightblue" points="1058.25,-316.11 1068.84,-315.94 1060.46,-309.46 1058.25,-316.11"/>
</g>
<!-- Node18 -->
<g id="node18" class="node">
<title>Node18</title>
<g id="a_node18"><a xlink:href="$classMainWindow.html#a781de6ce6a0b73b8caadfad15e7c7147" xlink:title=" ">
<polygon fill="white" stroke="black" points="849.5,-319 849.5,-338 989.5,-338 989.5,-319 849.5,-319"/>
<text text-anchor="middle" x="919.5" y="-326" font-family="Helvetica,sans-Serif" font-size="10.00">MainWindow::loadConfigFile</text>
</a>
</g>
</g>
<!-- Node15&#45;&gt;Node18 -->
<g id="edge23" class="edge">
<title>Node15&#45;&gt;Node18</title>
<path fill="none" stroke="midnightblue" d="M1023.45,-326.84C1012.11,-327.02 1000.57,-327.21 989.51,-327.39"/>
<polygon fill="midnightblue" stroke="midnightblue" points="1023.85,-330.33 1033.79,-326.67 1023.73,-323.33 1023.85,-330.33"/>
</g>
<!-- Node16&#45;&gt;Node12 -->
<g id="edge21" class="edge">
<title>Node16&#45;&gt;Node12</title>
<path fill="none" stroke="midnightblue" d="M463.32,-286.89C389.01,-286.33 280.69,-285.52 211.66,-285"/>
<polygon fill="midnightblue" stroke="midnightblue" points="463.55,-290.39 473.58,-286.96 463.6,-283.39 463.55,-290.39"/>
</g>
<!-- Node19 -->
<g id="node19" class="node">
<title>Node19</title>
<g id="a_node19"><a xlink:href="$classMainWindow.html#a58c2bb4b8456b8dd246c6beb3623b3d2" xlink:title=" ">
<polygon fill="white" stroke="black" points="658,-316.5 658,-346.5 806,-346.5 806,-316.5 658,-316.5"/>
<text text-anchor="start" x="666" y="-334.5" font-family="Helvetica,sans-Serif" font-size="10.00">MainWindow::alterConfigFrom</text>
<text text-anchor="middle" x="732" y="-323.5" font-family="Helvetica,sans-Serif" font-size="10.00">Settings</text>
</a>
</g>
</g>
<!-- Node18&#45;&gt;Node19 -->
<g id="edge24" class="edge">
<title>Node18&#45;&gt;Node19</title>
<path fill="none" stroke="midnightblue" d="M839.39,-329.78C828.37,-329.96 817.08,-330.14 806.17,-330.32"/>
<polygon fill="midnightblue" stroke="midnightblue" points="839.48,-333.28 849.43,-329.62 839.37,-326.28 839.48,-333.28"/>
</g>
<!-- Node19&#45;&gt;Node8 -->
<g id="edge25" class="edge">
<title>Node19&#45;&gt;Node8</title>
<path fill="none" stroke="midnightblue" d="M667.64,-349.02C541.97,-379.78 257.5,-429 74,-303.5 34.73,-276.64 23.76,-214.48 20.92,-190.34"/>
<polygon fill="midnightblue" stroke="midnightblue" points="668.64,-352.38 677.49,-346.57 666.95,-345.59 668.64,-352.38"/>
</g>
<!-- Node20&#45;&gt;Node17 -->
<g id="edge27" class="edge">
<title>Node20&#45;&gt;Node17</title>
<path fill="none" stroke="midnightblue" d="M1024.12,-249.5C1013.83,-249.5 1003.37,-249.5 993.25,-249.5"/>
<polygon fill="midnightblue" stroke="midnightblue" points="1024.32,-253 1034.32,-249.5 1024.32,-246 1024.32,-253"/>
</g>
<!-- Node21&#45;&gt;Node2 -->
<g id="edge29" class="edge">
<title>Node21&#45;&gt;Node2</title>
<path fill="none" stroke="midnightblue" d="M1192.48,-169.17C1244.82,-167.55 1313.49,-167.36 1374,-173.5 1392.15,-175.34 1411.65,-178.75 1429.43,-182.44"/>
<polygon fill="midnightblue" stroke="midnightblue" points="1192.11,-165.68 1182.24,-169.52 1192.35,-172.68 1192.11,-165.68"/>
</g>
<!-- Node21&#45;&gt;Node4 -->
<g id="edge30" class="edge">
<title>Node21&#45;&gt;Node4</title>
<path fill="none" stroke="midnightblue" d="M1049.54,-161.86C1032.08,-158.3 1012.62,-154.32 994.21,-150.56"/>
<polygon fill="midnightblue" stroke="midnightblue" points="1049.07,-165.34 1059.56,-163.91 1050.47,-158.48 1049.07,-165.34"/>
</g>
<!-- Node21&#45;&gt;Node17 -->
<g id="edge31" class="edge">
<title>Node21&#45;&gt;Node17</title>
<path fill="none" stroke="midnightblue" d="M1073.53,-186.97C1036.28,-202.19 976.6,-226.58 943.87,-239.95"/>
<polygon fill="midnightblue" stroke="midnightblue" points="1075.01,-190.15 1082.94,-183.13 1072.36,-183.67 1075.01,-190.15"/>
</g>
<!-- Node22&#45;&gt;Node2 -->
<g id="edge34" class="edge">
<title>Node22&#45;&gt;Node2</title>
<path fill="none" stroke="midnightblue" d="M1384.06,-231.23C1408.29,-225.26 1433.36,-218.52 1453.13,-212.54"/>
<polygon fill="midnightblue" stroke="midnightblue" points="1383,-227.89 1374.11,-233.65 1384.65,-234.69 1383,-227.89"/>
</g>
<!-- Node22&#45;&gt;Node4 -->
<g id="edge35" class="edge">
<title>Node22&#45;&gt;Node4</title>
<path fill="none" stroke="midnightblue" d="M1207.74,-234.48C1156.03,-225.9 1089.72,-212.32 1033,-192.5 1001.58,-181.52 967.81,-163.49 945.56,-150.64"/>
<polygon fill="midnightblue" stroke="midnightblue" points="1207.45,-237.98 1217.88,-236.13 1208.58,-231.07 1207.45,-237.98"/>
</g>
<!-- Node22&#45;&gt;Node15 -->
<g id="edge37" class="edge">
<title>Node22&#45;&gt;Node15</title>
<path fill="none" stroke="midnightblue" d="M1241.63,-265.4C1233.57,-268.79 1225.46,-272.53 1218,-276.5 1200.81,-285.65 1199.44,-292.83 1182,-301.5 1170.34,-307.3 1156.96,-312.15 1144.85,-315.93"/>
<polygon fill="midnightblue" stroke="midnightblue" points="1243.09,-268.58 1251.03,-261.58 1240.45,-262.1 1243.09,-268.58"/>
</g>
<!-- Node22&#45;&gt;Node17 -->
<g id="edge36" class="edge">
<title>Node22&#45;&gt;Node17</title>
<path fill="none" stroke="midnightblue" d="M1219.41,-263.29C1206.97,-265.46 1194.17,-267.33 1182,-268.5 1116.08,-274.86 1098.99,-274.03 1033,-268.5 1010.89,-266.65 986.6,-262.78 966.26,-259.01"/>
<polygon fill="midnightblue" stroke="midnightblue" points="1220.07,-266.73 1229.29,-261.5 1218.82,-259.84 1220.07,-266.73"/>
</g>
<!-- Node22&#45;&gt;Node20 -->
<g id="edge38" class="edge">
<title>Node22&#45;&gt;Node20</title>
<path fill="none" stroke="midnightblue" d="M1207.62,-247.91C1198.56,-248.05 1189.42,-248.2 1180.56,-248.34"/>
<polygon fill="midnightblue" stroke="midnightblue" points="1207.85,-251.4 1217.8,-247.74 1207.74,-244.4 1207.85,-251.4"/>
</g>
<!-- Node22&#45;&gt;Node21 -->
<g id="edge39" class="edge">
<title>Node22&#45;&gt;Node21</title>
<path fill="none" stroke="midnightblue" d="M1229.9,-227.79C1225.82,-226.13 1221.82,-224.37 1218,-222.5 1200.5,-213.95 1199.44,-206.17 1182,-197.5 1170.34,-191.7 1156.96,-186.85 1144.85,-183.07"/>
<polygon fill="midnightblue" stroke="midnightblue" points="1228.93,-231.16 1239.52,-231.45 1231.43,-224.62 1228.93,-231.16"/>
</g>
<!-- Node23&#45;&gt;Node6 -->
<g id="edge42" class="edge">
<title>Node23&#45;&gt;Node6</title>
<path fill="none" stroke="midnightblue" d="M1208.28,-65.23C1085.56,-73.72 854.27,-91.05 658,-113.5 641.94,-115.34 624.63,-117.66 608.57,-119.97"/>
<polygon fill="midnightblue" stroke="midnightblue" points="1208.64,-68.72 1218.37,-64.54 1208.16,-61.73 1208.64,-68.72"/>
</g>
<!-- Node24&#45;&gt;Node6 -->
<g id="edge45" class="edge">
<title>Node24&#45;&gt;Node6</title>
<path fill="none" stroke="midnightblue" d="M1406.77,-16.54C1329.27,-17.41 1211.14,-18.5 1108.5,-18.5 1108.5,-18.5 1108.5,-18.5 918.5,-18.5 777.48,-18.5 618.47,-92.84 565.36,-119.84"/>
<polygon fill="midnightblue" stroke="midnightblue" points="1407,-20.04 1416.96,-16.42 1406.92,-13.04 1407,-20.04"/>
</g>
</g>
</svg>
