<?xml version="1.0" encoding="UTF-8" standalone="no"?>
<!DOCTYPE svg PUBLIC "-//W3C//DTD SVG 1.1//EN"
 "http://www.w3.org/Graphics/SVG/1.1/DTD/svg11.dtd">
<!-- Generated by graphviz version 2.43.0 (0)
 -->
<!-- Title: InputDaemon::deviceAdded Pages: 1 -->
<svg width="829pt" height="117pt"
 viewBox="0.00 0.00 829.00 116.86" xmlns="http://www.w3.org/2000/svg" xmlns:xlink="http://www.w3.org/1999/xlink">
<g id="graph0" class="graph" transform="scale(1 1) rotate(0) translate(4 112.86)">
<title>InputDaemon::deviceAdded</title>
<polygon fill="white" stroke="transparent" points="-4,4 -4,-112.86 825,-112.86 825,4 -4,4"/>
<!-- Node1 -->
<g id="node1" class="node">
<title>Node1</title>
<g id="a_node1"><a xlink:title=" ">
<polygon fill="#bfbfbf" stroke="black" points="684,-51.36 684,-70.36 821,-70.36 821,-51.36 684,-51.36"/>
<text text-anchor="middle" x="752.5" y="-58.36" font-family="Helvetica,sans-Serif" font-size="10.00">InputDaemon::deviceAdded</text>
</a>
</g>
</g>
<!-- Node2 -->
<g id="node2" class="node">
<title>Node2</title>
<g id="a_node2"><a xlink:href="$classInputDaemon.html#a5dceec80700a55f0e82e35d44d6d171a" xlink:title=" ">
<polygon fill="white" stroke="black" points="497.5,-89.36 497.5,-108.36 646.5,-108.36 646.5,-89.36 497.5,-89.36"/>
<text text-anchor="middle" x="572" y="-96.36" font-family="Helvetica,sans-Serif" font-size="10.00">InputDaemon::addInputDevice</text>
</a>
</g>
</g>
<!-- Node1&#45;&gt;Node2 -->
<g id="edge1" class="edge">
<title>Node1&#45;&gt;Node2</title>
<path fill="none" stroke="midnightblue" d="M696.63,-72.54C671.32,-77.93 641.65,-84.25 617.72,-89.34"/>
<polygon fill="midnightblue" stroke="midnightblue" points="697.4,-75.96 706.46,-70.45 695.95,-69.11 697.4,-75.96"/>
</g>
<!-- Node6 -->
<g id="node6" class="node">
<title>Node6</title>
<g id="a_node6"><a xlink:href="$main_8cpp.html#a0ddf1224851353fc92bfbff6f499fa97" xlink:title=" ">
<polygon fill="white" stroke="black" points="202,-32.36 202,-51.36 240,-51.36 240,-32.36 202,-32.36"/>
<text text-anchor="middle" x="221" y="-39.36" font-family="Helvetica,sans-Serif" font-size="10.00">main</text>
</a>
</g>
</g>
<!-- Node1&#45;&gt;Node6 -->
<g id="edge5" class="edge">
<title>Node1&#45;&gt;Node6</title>
<path fill="none" stroke="midnightblue" d="M673.58,-58.07C547.86,-53.56 307.53,-44.93 240.03,-42.51"/>
<polygon fill="midnightblue" stroke="midnightblue" points="673.78,-61.58 683.9,-58.44 674.03,-54.58 673.78,-61.58"/>
</g>
<!-- Node7 -->
<g id="node7" class="node">
<title>Node7</title>
<g id="a_node7"><a xlink:href="$classInputDaemon.html#a7fa47112e0cac297ba679920c594a838" xlink:title=" ">
<polygon fill="white" stroke="black" points="496,-13.36 496,-32.36 648,-32.36 648,-13.36 496,-13.36"/>
<text text-anchor="middle" x="572" y="-20.36" font-family="Helvetica,sans-Serif" font-size="10.00">InputDaemon::refreshJoysticks</text>
</a>
</g>
</g>
<!-- Node1&#45;&gt;Node7 -->
<g id="edge6" class="edge">
<title>Node1&#45;&gt;Node7</title>
<path fill="none" stroke="midnightblue" d="M696.63,-49.18C671.32,-43.79 641.65,-37.48 617.72,-32.38"/>
<polygon fill="midnightblue" stroke="midnightblue" points="695.95,-52.62 706.46,-51.27 697.4,-45.77 695.95,-52.62"/>
</g>
<!-- Node3 -->
<g id="node3" class="node">
<title>Node3</title>
<g id="a_node3"><a xlink:href="$classInputDaemon.html#a0cf6bcd3287d97d75c32a3921c633a7a" xlink:title=" ">
<polygon fill="white" stroke="black" points="304,-89.36 304,-108.36 460,-108.36 460,-89.36 304,-89.36"/>
<text text-anchor="middle" x="382" y="-96.36" font-family="Helvetica,sans-Serif" font-size="10.00">InputDaemon::secondInputPass</text>
</a>
</g>
</g>
<!-- Node2&#45;&gt;Node3 -->
<g id="edge2" class="edge">
<title>Node2&#45;&gt;Node3</title>
<path fill="none" stroke="midnightblue" d="M487.19,-98.86C478.23,-98.86 469.15,-98.86 460.27,-98.86"/>
<polygon fill="midnightblue" stroke="midnightblue" points="487.24,-102.36 497.24,-98.86 487.24,-95.36 487.24,-102.36"/>
</g>
<!-- Node4 -->
<g id="node4" class="node">
<title>Node4</title>
<g id="a_node4"><a xlink:href="$classInputDaemon.html#ad7f954b25b67cb5a84fdb1a154282bfd" xlink:title=" ">
<polygon fill="white" stroke="black" points="174,-79.36 174,-98.36 268,-98.36 268,-79.36 174,-79.36"/>
<text text-anchor="middle" x="221" y="-86.36" font-family="Helvetica,sans-Serif" font-size="10.00">InputDaemon::run</text>
</a>
</g>
</g>
<!-- Node3&#45;&gt;Node4 -->
<g id="edge3" class="edge">
<title>Node3&#45;&gt;Node4</title>
<path fill="none" stroke="midnightblue" d="M293.84,-93.38C285.02,-92.83 276.33,-92.28 268.2,-91.77"/>
<polygon fill="midnightblue" stroke="midnightblue" points="293.63,-96.88 303.83,-94.01 294.07,-89.89 293.63,-96.88"/>
</g>
<!-- Node5 -->
<g id="node5" class="node">
<title>Node5</title>
<g id="a_node5"><a xlink:href="$classInputDaemon.html#ab7c3d331123e946ed8da490dfee5c265" xlink:title=" ">
<polygon fill="white" stroke="black" points="0,-13.36 0,-32.36 138,-32.36 138,-13.36 0,-13.36"/>
<text text-anchor="middle" x="69" y="-20.36" font-family="Helvetica,sans-Serif" font-size="10.00">InputDaemon::InputDaemon</text>
</a>
</g>
</g>
<!-- Node4&#45;&gt;Node5 -->
<g id="edge4" class="edge">
<title>Node4&#45;&gt;Node5</title>
<path fill="none" stroke="midnightblue" d="M188.92,-75.19C159.92,-62.43 117.4,-43.72 91.84,-32.47"/>
<polygon fill="midnightblue" stroke="midnightblue" points="187.63,-78.44 198.19,-79.27 190.45,-72.04 187.63,-78.44"/>
</g>
<!-- Node7&#45;&gt;Node5 -->
<g id="edge7" class="edge">
<title>Node7&#45;&gt;Node5</title>
<path fill="none" stroke="midnightblue" d="M515.69,-11.5C497.98,-8.37 478.24,-5.41 460,-3.86 347.37,5.71 216,-5.25 138.09,-14.06"/>
<polygon fill="midnightblue" stroke="midnightblue" points="515.39,-15 525.86,-13.35 516.65,-8.12 515.39,-15"/>
</g>
<!-- Node8 -->
<g id="node8" class="node">
<title>Node8</title>
<g id="a_node8"><a xlink:href="$classInputDaemon.html#a7dbb5a72a490efb5b6f881528f1186ba" xlink:title=" ">
<polygon fill="white" stroke="black" points="327,-13.36 327,-32.36 437,-32.36 437,-13.36 327,-13.36"/>
<text text-anchor="middle" x="382" y="-20.36" font-family="Helvetica,sans-Serif" font-size="10.00">InputDaemon::refresh</text>
</a>
</g>
</g>
<!-- Node7&#45;&gt;Node8 -->
<g id="edge8" class="edge">
<title>Node7&#45;&gt;Node8</title>
<path fill="none" stroke="midnightblue" d="M485.68,-22.86C469.18,-22.86 452.32,-22.86 437.16,-22.86"/>
<polygon fill="midnightblue" stroke="midnightblue" points="485.89,-26.36 495.89,-22.86 485.89,-19.36 485.89,-26.36"/>
</g>
<!-- Node8&#45;&gt;Node6 -->
<g id="edge9" class="edge">
<title>Node8&#45;&gt;Node6</title>
<path fill="none" stroke="midnightblue" d="M316.7,-30.55C289.1,-33.84 258.97,-37.45 240.28,-39.68"/>
<polygon fill="midnightblue" stroke="midnightblue" points="317.21,-34.01 326.73,-29.35 316.38,-27.06 317.21,-34.01"/>
</g>
</g>
</svg>
