<?xml version="1.0" encoding="UTF-8" standalone="no"?>
<!DOCTYPE svg PUBLIC "-//W3C//DTD SVG 1.1//EN"
 "http://www.w3.org/Graphics/SVG/1.1/DTD/svg11.dtd">
<!-- Generated by graphviz version 2.43.0 (0)
 -->
<!-- Title: JoyButton::changeStatesQueue Pages: 1 -->
<svg width="2480pt" height="637pt"
 viewBox="0.00 0.00 2480.00 636.50" xmlns="http://www.w3.org/2000/svg" xmlns:xlink="http://www.w3.org/1999/xlink">
<g id="graph0" class="graph" transform="scale(1 1) rotate(0) translate(4 632.5)">
<title>JoyButton::changeStatesQueue</title>
<polygon fill="white" stroke="transparent" points="-4,4 -4,-632.5 2476,-632.5 2476,4 -4,4"/>
<!-- Node1 -->
<g id="node1" class="node">
<title>Node1</title>
<g id="a_node1"><a xlink:title=" ">
<polygon fill="#bfbfbf" stroke="black" points="2317,-334.5 2317,-353.5 2472,-353.5 2472,-334.5 2317,-334.5"/>
<text text-anchor="middle" x="2394.5" y="-341.5" font-family="Helvetica,sans-Serif" font-size="10.00">JoyButton::changeStatesQueue</text>
</a>
</g>
</g>
<!-- Node2 -->
<g id="node2" class="node">
<title>Node2</title>
<g id="a_node2"><a xlink:href="$classJoyButton.html#a52f911105048e6c33180bf267f158b35" xlink:title=" ">
<polygon fill="white" stroke="black" points="2135,-334.5 2135,-353.5 2281,-353.5 2281,-334.5 2135,-334.5"/>
<text text-anchor="middle" x="2208" y="-341.5" font-family="Helvetica,sans-Serif" font-size="10.00">JoyButton::releaseDeskEvent</text>
</a>
</g>
</g>
<!-- Node1&#45;&gt;Node2 -->
<g id="edge1" class="edge">
<title>Node1&#45;&gt;Node2</title>
<path fill="none" stroke="midnightblue" d="M2306.85,-344C2298.29,-344 2289.66,-344 2281.26,-344"/>
<polygon fill="midnightblue" stroke="midnightblue" points="2306.86,-347.5 2316.86,-344 2306.86,-340.5 2306.86,-347.5"/>
</g>
<!-- Node3 -->
<g id="node3" class="node">
<title>Node3</title>
<g id="a_node3"><a xlink:href="$classJoyButton.html#abb0c0c4b3cc8a5eadab90e567c77c4d1" xlink:title=" ">
<polygon fill="white" stroke="black" points="1267,-315.5 1267,-334.5 1424,-334.5 1424,-315.5 1267,-315.5"/>
<text text-anchor="middle" x="1345.5" y="-322.5" font-family="Helvetica,sans-Serif" font-size="10.00">JoyButton::changeTurboParams</text>
</a>
</g>
</g>
<!-- Node2&#45;&gt;Node3 -->
<g id="edge2" class="edge">
<title>Node2&#45;&gt;Node3</title>
<path fill="none" stroke="midnightblue" d="M2124.79,-351.11C2055.35,-356.51 1953.25,-363 1864,-363 1864,-363 1864,-363 1698.5,-363 1592.16,-363 1565.54,-357.01 1460,-344 1439.48,-341.47 1417,-337.88 1397.5,-334.5"/>
<polygon fill="midnightblue" stroke="midnightblue" points="2125.1,-354.6 2134.8,-350.33 2124.55,-347.62 2125.1,-354.6"/>
</g>
<!-- Node128 -->
<g id="node44" class="node">
<title>Node128</title>
<g id="a_node44"><a xlink:href="$classJoyGradientButton.html#aeb260d7d14d0c19360fa34edcf121aa7" xlink:title="Activate a turbo event on a button.">
<polygon fill="white" stroke="black" points="973.5,-272 973.5,-302 1077.5,-302 1077.5,-272 973.5,-272"/>
<text text-anchor="start" x="981.5" y="-290" font-family="Helvetica,sans-Serif" font-size="10.00">JoyGradientButton::</text>
<text text-anchor="middle" x="1025.5" y="-279" font-family="Helvetica,sans-Serif" font-size="10.00">turboEvent</text>
</a>
</g>
</g>
<!-- Node2&#45;&gt;Node128 -->
<g id="edge54" class="edge">
<title>Node2&#45;&gt;Node128</title>
<path fill="none" stroke="midnightblue" d="M2164.97,-356.26C2145.1,-361.71 2120.97,-367.81 2099,-372 1995.62,-391.69 1969.24,-401 1864,-401 1864,-401 1864,-401 1344.5,-401 1228.67,-401 1102.29,-333.15 1050.58,-302.14"/>
<polygon fill="midnightblue" stroke="midnightblue" points="2165.94,-359.62 2174.64,-353.57 2164.07,-352.88 2165.94,-359.62"/>
</g>
<!-- Node129 -->
<g id="node45" class="node">
<title>Node129</title>
<g id="a_node45"><a xlink:href="$classJoyButton.html#a78a19ca8744927a690e484e19127f62f" xlink:title=" ">
<polygon fill="white" stroke="black" points="1965,-158 1965,-188 2099,-188 2099,-158 1965,-158"/>
<text text-anchor="start" x="1973" y="-176" font-family="Helvetica,sans-Serif" font-size="10.00">JoyButton::waitForRelease</text>
<text text-anchor="middle" x="2032" y="-165" font-family="Helvetica,sans-Serif" font-size="10.00">DeskEvent</text>
</a>
</g>
</g>
<!-- Node2&#45;&gt;Node129 -->
<g id="edge55" class="edge">
<title>Node2&#45;&gt;Node129</title>
<path fill="none" stroke="midnightblue" d="M2189.83,-327.13C2155.95,-293.83 2080.93,-220.11 2048.47,-188.21"/>
<polygon fill="midnightblue" stroke="midnightblue" points="2187.56,-329.8 2197.15,-334.32 2192.47,-324.81 2187.56,-329.8"/>
</g>
<!-- Node4 -->
<g id="node4" class="node">
<title>Node4</title>
<g id="a_node4"><a xlink:href="$classJoyButton.html#a3ca2ea0caae21aa3c758d0fec0ecbe6a" xlink:title=" ">
<polygon fill="white" stroke="black" points="1117,-239.5 1117,-258.5 1231,-258.5 1231,-239.5 1117,-239.5"/>
<text text-anchor="middle" x="1174" y="-246.5" font-family="Helvetica,sans-Serif" font-size="10.00">JoyButton::turboEvent</text>
</a>
</g>
</g>
<!-- Node3&#45;&gt;Node4 -->
<g id="edge3" class="edge">
<title>Node3&#45;&gt;Node4</title>
<path fill="none" stroke="midnightblue" d="M1313.58,-311.14C1279.59,-295.9 1225.87,-271.81 1196.29,-258.55"/>
<polygon fill="midnightblue" stroke="midnightblue" points="1312.48,-314.48 1323.03,-315.37 1315.34,-308.09 1312.48,-314.48"/>
</g>
<!-- Node5 -->
<g id="node5" class="node">
<title>Node5</title>
<g id="a_node5"><a xlink:href="$classJoyButton.html#aca54bc4605f7db801e8fc41a90d7f223" xlink:title=" ">
<polygon fill="white" stroke="black" points="970,-144.5 970,-163.5 1081,-163.5 1081,-144.5 970,-144.5"/>
<text text-anchor="middle" x="1025.5" y="-151.5" font-family="Helvetica,sans-Serif" font-size="10.00">JoyButton::JoyButton</text>
</a>
</g>
</g>
<!-- Node4&#45;&gt;Node5 -->
<g id="edge4" class="edge">
<title>Node4&#45;&gt;Node5</title>
<path fill="none" stroke="midnightblue" d="M1149.45,-233.73C1119,-213.98 1066.87,-180.18 1041.39,-163.66"/>
<polygon fill="midnightblue" stroke="midnightblue" points="1147.85,-236.86 1158.15,-239.37 1151.66,-230.99 1147.85,-236.86"/>
</g>
<!-- Node6 -->
<g id="node6" class="node">
<title>Node6</title>
<g id="a_node6"><a xlink:href="$classJoyButton.html#abb09326682e89c3c32975519ee73dfb0" xlink:title=" ">
<polygon fill="white" stroke="black" points="973.5,-217.5 973.5,-236.5 1077.5,-236.5 1077.5,-217.5 973.5,-217.5"/>
<text text-anchor="middle" x="1025.5" y="-224.5" font-family="Helvetica,sans-Serif" font-size="10.00">JoyButton::joyEvent</text>
</a>
</g>
</g>
<!-- Node4&#45;&gt;Node6 -->
<g id="edge5" class="edge">
<title>Node4&#45;&gt;Node6</title>
<path fill="none" stroke="midnightblue" d="M1106.67,-239.04C1096.89,-237.57 1086.94,-236.08 1077.53,-234.66"/>
<polygon fill="midnightblue" stroke="midnightblue" points="1106.37,-242.53 1116.78,-240.56 1107.41,-235.61 1106.37,-242.53"/>
</g>
<!-- Node4&#45;&gt;Node128 -->
<g id="edge53" class="edge">
<title>Node4&#45;&gt;Node128</title>
<path fill="none" stroke="midnightblue" d="M1126.15,-261.15C1110.66,-265.17 1093.35,-269.66 1077.57,-273.75"/>
<polygon fill="midnightblue" stroke="midnightblue" points="1127.23,-264.49 1136.03,-258.59 1125.47,-257.71 1127.23,-264.49"/>
</g>
<!-- Node7 -->
<g id="node7" class="node">
<title>Node7</title>
<g id="a_node7"><a xlink:href="$classJoyButton.html#a4acc0f1d2e12a34874522f558e1e9d3f" xlink:title=" ">
<polygon fill="white" stroke="black" points="790,-464 790,-494 925,-494 925,-464 790,-464"/>
<text text-anchor="start" x="798" y="-482" font-family="Helvetica,sans-Serif" font-size="10.00">JoyButton::activatePending</text>
<text text-anchor="middle" x="857.5" y="-471" font-family="Helvetica,sans-Serif" font-size="10.00">Event</text>
</a>
</g>
</g>
<!-- Node6&#45;&gt;Node7 -->
<g id="edge6" class="edge">
<title>Node6&#45;&gt;Node7</title>
<path fill="none" stroke="midnightblue" d="M992.99,-241.54C984.41,-246.87 975.87,-253.68 970,-262 929.46,-319.42 970.89,-356.17 934,-416 921.64,-436.05 900.66,-452.79 883.95,-463.97"/>
<polygon fill="midnightblue" stroke="midnightblue" points="994.87,-244.5 1001.84,-236.52 991.41,-238.41 994.87,-244.5"/>
</g>
<!-- Node75 -->
<g id="node13" class="node">
<title>Node75</title>
<g id="a_node13"><a xlink:href="$classJoyDPad.html#a1f5c5db45f36b205d1c4a43f1616950a" xlink:title=" ">
<polygon fill="white" stroke="black" points="788.5,-387.5 788.5,-406.5 926.5,-406.5 926.5,-387.5 788.5,-387.5"/>
<text text-anchor="middle" x="857.5" y="-394.5" font-family="Helvetica,sans-Serif" font-size="10.00">JoyDPad::createDeskEvent</text>
</a>
</g>
</g>
<!-- Node6&#45;&gt;Node75 -->
<g id="edge12" class="edge">
<title>Node6&#45;&gt;Node75</title>
<path fill="none" stroke="midnightblue" d="M993.86,-241.61C985.15,-246.99 976.33,-253.81 970,-262 938.54,-302.7 970.31,-335.56 934,-372 927.18,-378.85 918.44,-383.82 909.35,-387.43"/>
<polygon fill="midnightblue" stroke="midnightblue" points="995.82,-244.51 1002.78,-236.52 992.35,-238.43 995.82,-244.51"/>
</g>
<!-- Node86 -->
<g id="node18" class="node">
<title>Node86</title>
<g id="a_node18"><a xlink:href="$classSetJoystick.html#aa93108aaa5ccbf15f1b56b22ec73798b" xlink:title="Perform a release of all elements of a set. Stick and vdpad releases will be handled by the associate...">
<polygon fill="white" stroke="black" points="422,-343.5 422,-362.5 526,-362.5 526,-343.5 422,-343.5"/>
<text text-anchor="middle" x="474" y="-350.5" font-family="Helvetica,sans-Serif" font-size="10.00">SetJoystick::release</text>
</a>
</g>
</g>
<!-- Node6&#45;&gt;Node86 -->
<g id="edge41" class="edge">
<title>Node6&#45;&gt;Node86</title>
<path fill="none" stroke="midnightblue" d="M999.22,-241.98C989.8,-247.88 979.18,-254.93 970,-262 952.81,-275.25 953.76,-286.01 934,-295 793.15,-359.1 741.25,-312.5 588,-334 567.71,-336.85 545.45,-340.48 526.1,-343.8"/>
<polygon fill="midnightblue" stroke="midnightblue" points="1001.1,-244.93 1007.79,-236.71 997.44,-238.96 1001.1,-244.93"/>
</g>
<!-- Node96 -->
<g id="node28" class="node">
<title>Node96</title>
<g id="a_node28"><a xlink:href="$classJoyAxis.html#a0e85739f3da15defbb1ad9ffb7def2d9" xlink:title=" ">
<polygon fill="white" stroke="black" points="791,-343.5 791,-362.5 924,-362.5 924,-343.5 791,-343.5"/>
<text text-anchor="middle" x="857.5" y="-350.5" font-family="Helvetica,sans-Serif" font-size="10.00">JoyAxis::createDeskEvent</text>
</a>
</g>
</g>
<!-- Node6&#45;&gt;Node96 -->
<g id="edge31" class="edge">
<title>Node6&#45;&gt;Node96</title>
<path fill="none" stroke="midnightblue" d="M995.83,-241.64C986.83,-247.17 977.33,-254.08 970,-262 947.04,-286.81 960.01,-307.41 934,-329 926.38,-335.32 917.07,-339.99 907.63,-343.43"/>
<polygon fill="midnightblue" stroke="midnightblue" points="997.68,-244.62 1004.58,-236.58 994.17,-238.56 997.68,-244.62"/>
</g>
<!-- Node100 -->
<g id="node30" class="node">
<title>Node100</title>
<g id="a_node30"><a xlink:href="$classJoyControlStick.html#a18e586ffa9f2fc09004dd1ebc895b3a8" xlink:title="Find the position of the two stick axes, deactivate no longer used stick direction button and then ac...">
<polygon fill="white" stroke="black" points="595.5,-212 595.5,-242 737.5,-242 737.5,-212 595.5,-212"/>
<text text-anchor="start" x="603.5" y="-230" font-family="Helvetica,sans-Serif" font-size="10.00">JoyControlStick::createDesk</text>
<text text-anchor="middle" x="666.5" y="-219" font-family="Helvetica,sans-Serif" font-size="10.00">Event</text>
</a>
</g>
</g>
<!-- Node6&#45;&gt;Node100 -->
<g id="edge34" class="edge">
<title>Node6&#45;&gt;Node100</title>
<path fill="none" stroke="midnightblue" d="M963.22,-227C900.54,-227 803.3,-227 737.6,-227"/>
<polygon fill="midnightblue" stroke="midnightblue" points="963.35,-230.5 973.35,-227 963.35,-223.5 963.35,-230.5"/>
</g>
<!-- Node108 -->
<g id="node33" class="node">
<title>Node108</title>
<g id="a_node33"><a xlink:href="$classJoyControlStick.html#a0bd5c24e572f9485780820d54f755b88" xlink:title="Activate a stick direction button.">
<polygon fill="white" stroke="black" points="795,-168 795,-198 920,-198 920,-168 795,-168"/>
<text text-anchor="start" x="803" y="-186" font-family="Helvetica,sans-Serif" font-size="10.00">JoyControlStick::perform</text>
<text text-anchor="middle" x="857.5" y="-175" font-family="Helvetica,sans-Serif" font-size="10.00">ButtonPress</text>
</a>
</g>
</g>
<!-- Node6&#45;&gt;Node108 -->
<g id="edge37" class="edge">
<title>Node6&#45;&gt;Node108</title>
<path fill="none" stroke="midnightblue" d="M978.59,-214.83C959.02,-209.64 935.97,-203.54 915.34,-198.07"/>
<polygon fill="midnightblue" stroke="midnightblue" points="977.92,-218.27 988.48,-217.45 979.71,-211.51 977.92,-218.27"/>
</g>
<!-- Node109 -->
<g id="node34" class="node">
<title>Node109</title>
<g id="a_node34"><a xlink:href="$classJoyControlStick.html#a32b6c7a796ec7b24e9c0124a6bcffd2e" xlink:title="Stick direction button to release.">
<polygon fill="white" stroke="black" points="795,-256 795,-286 920,-286 920,-256 795,-256"/>
<text text-anchor="start" x="803" y="-274" font-family="Helvetica,sans-Serif" font-size="10.00">JoyControlStick::perform</text>
<text text-anchor="middle" x="857.5" y="-263" font-family="Helvetica,sans-Serif" font-size="10.00">ButtonRelease</text>
</a>
</g>
</g>
<!-- Node6&#45;&gt;Node109 -->
<g id="edge39" class="edge">
<title>Node6&#45;&gt;Node109</title>
<path fill="none" stroke="midnightblue" d="M978.59,-239.17C959.02,-244.36 935.97,-250.46 915.34,-255.93"/>
<polygon fill="midnightblue" stroke="midnightblue" points="979.71,-242.49 988.48,-236.55 977.92,-235.73 979.71,-242.49"/>
</g>
<!-- Node110 -->
<g id="node35" class="node">
<title>Node110</title>
<g id="a_node35"><a xlink:href="$classJoyControlStick.html#a295a9b9b1a5c4d3a49c9d9697a9527e0" xlink:title=" ">
<polygon fill="white" stroke="black" points="796,-80 796,-110 919,-110 919,-80 796,-80"/>
<text text-anchor="start" x="804" y="-98" font-family="Helvetica,sans-Serif" font-size="10.00">JoyControlStick::release</text>
<text text-anchor="middle" x="857.5" y="-87" font-family="Helvetica,sans-Serif" font-size="10.00">ButtonEvents</text>
</a>
</g>
</g>
<!-- Node6&#45;&gt;Node110 -->
<g id="edge42" class="edge">
<title>Node6&#45;&gt;Node110</title>
<path fill="none" stroke="midnightblue" d="M1006.65,-210.59C995.67,-200.19 981.55,-186.25 970,-173 952.48,-152.89 955.18,-141.2 934,-125 926.16,-119 916.96,-114.04 907.73,-110"/>
<polygon fill="midnightblue" stroke="midnightblue" points="1004.31,-213.19 1014,-217.47 1009.09,-208.08 1004.31,-213.19"/>
</g>
<!-- Node123 -->
<g id="node40" class="node">
<title>Node123</title>
<g id="a_node40"><a xlink:href="$classJoyDPad.html#aa20b65bef79d9e80894a9be835b441c1" xlink:title=" ">
<polygon fill="white" stroke="black" points="781,-41.5 781,-60.5 934,-60.5 934,-41.5 781,-41.5"/>
<text text-anchor="middle" x="857.5" y="-48.5" font-family="Helvetica,sans-Serif" font-size="10.00">JoyDPad::releaseButtonEvents</text>
</a>
</g>
</g>
<!-- Node6&#45;&gt;Node123 -->
<g id="edge47" class="edge">
<title>Node6&#45;&gt;Node123</title>
<path fill="none" stroke="midnightblue" d="M1003.85,-210.61C992.54,-200.74 979.04,-187.32 970,-173 944.11,-131.99 969.79,-102.72 934,-70 929.81,-66.17 924.96,-63.09 919.79,-60.6"/>
<polygon fill="midnightblue" stroke="midnightblue" points="1001.69,-213.37 1011.59,-217.14 1006.2,-208.02 1001.69,-213.37"/>
</g>
<!-- Node126 -->
<g id="node42" class="node">
<title>Node126</title>
<g id="a_node42"><a xlink:href="$classJoyAxis.html#a8df3e761cbf9876ab5a3db30c1a02fc3" xlink:title=" ">
<polygon fill="white" stroke="black" points="603.5,-173.5 603.5,-192.5 729.5,-192.5 729.5,-173.5 603.5,-173.5"/>
<text text-anchor="middle" x="666.5" y="-180.5" font-family="Helvetica,sans-Serif" font-size="10.00">JoyAxis::removeVDPads</text>
</a>
</g>
</g>
<!-- Node6&#45;&gt;Node126 -->
<g id="edge49" class="edge">
<title>Node6&#45;&gt;Node126</title>
<path fill="none" stroke="midnightblue" d="M1008.99,-209.93C992.36,-193.02 964.24,-168.21 934,-158 869.58,-136.24 848.6,-150.64 781,-158 753.92,-160.95 723.84,-167.74 701.45,-173.5"/>
<polygon fill="midnightblue" stroke="midnightblue" points="1006.76,-212.66 1016.19,-217.5 1011.83,-207.84 1006.76,-212.66"/>
</g>
<!-- Node127 -->
<g id="node43" class="node">
<title>Node127</title>
<g id="a_node43"><a xlink:href="$classJoyButton.html#ad152d22f7f7d8ea561f363d43903e059" xlink:title=" ">
<polygon fill="white" stroke="black" points="801.5,-0.5 801.5,-19.5 913.5,-19.5 913.5,-0.5 801.5,-0.5"/>
<text text-anchor="middle" x="857.5" y="-7.5" font-family="Helvetica,sans-Serif" font-size="10.00">JoyButton::setVDPad</text>
</a>
</g>
</g>
<!-- Node6&#45;&gt;Node127 -->
<g id="edge51" class="edge">
<title>Node6&#45;&gt;Node127</title>
<path fill="none" stroke="midnightblue" d="M1003.37,-210.9C991.91,-201.11 978.41,-187.7 970,-173 937.86,-116.87 978.96,-78.49 934,-32 928.4,-26.21 921.37,-21.92 913.87,-18.75"/>
<polygon fill="midnightblue" stroke="midnightblue" points="1001.3,-213.72 1011.25,-217.35 1005.73,-208.31 1001.3,-213.72"/>
</g>
<!-- Node8 -->
<g id="node8" class="node">
<title>Node8</title>
<g id="a_node8"><a xlink:href="$classInputDevice.html#af5f9f9065334b90aa45d4c86a63337f1" xlink:title=" ">
<polygon fill="white" stroke="black" points="593.5,-505 593.5,-535 739.5,-535 739.5,-505 593.5,-505"/>
<text text-anchor="start" x="601.5" y="-523" font-family="Helvetica,sans-Serif" font-size="10.00">InputDevice::activatePossible</text>
<text text-anchor="middle" x="666.5" y="-512" font-family="Helvetica,sans-Serif" font-size="10.00">ButtonEvents</text>
</a>
</g>
</g>
<!-- Node7&#45;&gt;Node8 -->
<g id="edge7" class="edge">
<title>Node7&#45;&gt;Node8</title>
<path fill="none" stroke="midnightblue" d="M780.06,-495.58C765.73,-498.69 750.82,-501.92 736.73,-504.98"/>
<polygon fill="midnightblue" stroke="midnightblue" points="780.84,-499 789.87,-493.46 779.35,-492.15 780.84,-499"/>
</g>
<!-- Node9 -->
<g id="node9" class="node">
<title>Node9</title>
<g id="a_node9"><a xlink:href="$classInputDevice.html#a65bcbfa6997970fff86e72e3a13167e0" xlink:title=" ">
<polygon fill="white" stroke="black" points="401,-549 401,-579 547,-579 547,-549 401,-549"/>
<text text-anchor="start" x="409" y="-567" font-family="Helvetica,sans-Serif" font-size="10.00">InputDevice::activatePossible</text>
<text text-anchor="middle" x="474" y="-556" font-family="Helvetica,sans-Serif" font-size="10.00">PendingEvents</text>
</a>
</g>
</g>
<!-- Node8&#45;&gt;Node9 -->
<g id="edge8" class="edge">
<title>Node8&#45;&gt;Node9</title>
<path fill="none" stroke="midnightblue" d="M590.27,-537.38C573.66,-541.21 556.21,-545.24 540.06,-548.97"/>
<polygon fill="midnightblue" stroke="midnightblue" points="591.52,-540.68 600.47,-535.02 589.94,-533.86 591.52,-540.68"/>
</g>
<!-- Node10 -->
<g id="node10" class="node">
<title>Node10</title>
<g id="a_node10"><a xlink:href="$classInputDevice.html#ac34e93b3e44b08cffb86551e15bedfb4" xlink:title=" ">
<polygon fill="white" stroke="red" points="408.5,-510.5 408.5,-529.5 539.5,-529.5 539.5,-510.5 408.5,-510.5"/>
<text text-anchor="middle" x="474" y="-517.5" font-family="Helvetica,sans-Serif" font-size="10.00">InputDevice::reInitButtons</text>
</a>
</g>
</g>
<!-- Node8&#45;&gt;Node10 -->
<g id="edge9" class="edge">
<title>Node8&#45;&gt;Node10</title>
<path fill="none" stroke="midnightblue" d="M583.42,-520C568.77,-520 553.69,-520 539.61,-520"/>
<polygon fill="midnightblue" stroke="midnightblue" points="583.48,-523.5 593.48,-520 583.48,-516.5 583.48,-523.5"/>
</g>
<!-- Node16 -->
<g id="node11" class="node">
<title>Node16</title>
<g id="a_node11"><a xlink:href="$classInputDaemon.html#a0cf6bcd3287d97d75c32a3921c633a7a" xlink:title=" ">
<polygon fill="white" stroke="red" points="396,-472.5 396,-491.5 552,-491.5 552,-472.5 396,-472.5"/>
<text text-anchor="middle" x="474" y="-479.5" font-family="Helvetica,sans-Serif" font-size="10.00">InputDaemon::secondInputPass</text>
</a>
</g>
</g>
<!-- Node8&#45;&gt;Node16 -->
<g id="edge10" class="edge">
<title>Node8&#45;&gt;Node16</title>
<path fill="none" stroke="midnightblue" d="M583.42,-503.63C562.76,-499.5 541.25,-495.21 522.89,-491.55"/>
<polygon fill="midnightblue" stroke="midnightblue" points="582.99,-507.11 593.48,-505.63 584.36,-500.25 582.99,-507.11"/>
</g>
<!-- Node19 -->
<g id="node12" class="node">
<title>Node19</title>
<g id="a_node12"><a xlink:href="$classInputDevice.html#aebcc4b8149c2bab8a0652323206d32bb" xlink:title=" ">
<polygon fill="white" stroke="red" points="408.5,-598 408.5,-628 539.5,-628 539.5,-598 408.5,-598"/>
<text text-anchor="start" x="416.5" y="-616" font-family="Helvetica,sans-Serif" font-size="10.00">InputDevice::setActiveSet</text>
<text text-anchor="middle" x="474" y="-605" font-family="Helvetica,sans-Serif" font-size="10.00">Number</text>
</a>
</g>
</g>
<!-- Node8&#45;&gt;Node19 -->
<g id="edge11" class="edge">
<title>Node8&#45;&gt;Node19</title>
<path fill="none" stroke="midnightblue" d="M635.84,-540.8C613.56,-555.73 581.87,-575.51 552,-589 544.73,-592.28 536.87,-595.3 529.06,-597.99"/>
<polygon fill="midnightblue" stroke="midnightblue" points="637.88,-543.65 644.19,-535.14 633.95,-537.86 637.88,-543.65"/>
</g>
<!-- Node76 -->
<g id="node14" class="node">
<title>Node76</title>
<g id="a_node14"><a xlink:href="$classJoyDPad.html#adfcee6e2b57a7e643c74c26159a32997" xlink:title=" ">
<polygon fill="white" stroke="black" points="588,-382 588,-412 745,-412 745,-382 588,-382"/>
<text text-anchor="start" x="596" y="-400" font-family="Helvetica,sans-Serif" font-size="10.00">JoyDPad::dpadDirectionChange</text>
<text text-anchor="middle" x="666.5" y="-389" font-family="Helvetica,sans-Serif" font-size="10.00">Event</text>
</a>
</g>
</g>
<!-- Node75&#45;&gt;Node76 -->
<g id="edge13" class="edge">
<title>Node75&#45;&gt;Node76</title>
<path fill="none" stroke="midnightblue" d="M778,-397C767.18,-397 756.07,-397 745.26,-397"/>
<polygon fill="midnightblue" stroke="midnightblue" points="778.27,-400.5 788.27,-397 778.27,-393.5 778.27,-400.5"/>
</g>
<!-- Node78 -->
<g id="node16" class="node">
<title>Node78</title>
<g id="a_node16"><a xlink:href="$classJoyDPad.html#ac660764f3e958b5c1cf9da1a5d2f2398" xlink:title=" ">
<polygon fill="white" stroke="red" points="616,-431.5 616,-450.5 717,-450.5 717,-431.5 616,-431.5"/>
<text text-anchor="middle" x="666.5" y="-438.5" font-family="Helvetica,sans-Serif" font-size="10.00">JoyDPad::joyEvent</text>
</a>
</g>
</g>
<!-- Node75&#45;&gt;Node78 -->
<g id="edge15" class="edge">
<title>Node75&#45;&gt;Node78</title>
<path fill="none" stroke="midnightblue" d="M805.49,-408.88C775.04,-415.96 736.89,-424.84 708.43,-431.47"/>
<polygon fill="midnightblue" stroke="midnightblue" points="806.54,-412.22 815.49,-406.55 804.96,-405.41 806.54,-412.22"/>
</g>
<!-- Node77 -->
<g id="node15" class="node">
<title>Node77</title>
<g id="a_node15"><a xlink:href="$classJoyDPad.html#a10f75107588bfe924d270b5151c374e8" xlink:title=" ">
<polygon fill="white" stroke="black" points="422,-384.5 422,-403.5 526,-403.5 526,-384.5 422,-384.5"/>
<text text-anchor="middle" x="474" y="-391.5" font-family="Helvetica,sans-Serif" font-size="10.00">JoyDPad::JoyDPad</text>
</a>
</g>
</g>
<!-- Node76&#45;&gt;Node77 -->
<g id="edge14" class="edge">
<title>Node76&#45;&gt;Node77</title>
<path fill="none" stroke="midnightblue" d="M577.44,-395.61C559.84,-395.34 541.92,-395.05 526.09,-394.8"/>
<polygon fill="midnightblue" stroke="midnightblue" points="577.69,-399.12 587.74,-395.78 577.8,-392.12 577.69,-399.12"/>
</g>
<!-- Node78&#45;&gt;Node16 -->
<g id="edge30" class="edge">
<title>Node78&#45;&gt;Node16</title>
<path fill="none" stroke="midnightblue" d="M611.3,-452.66C582.18,-458.93 546.72,-466.56 519.27,-472.47"/>
<polygon fill="midnightblue" stroke="midnightblue" points="612.28,-456.04 621.32,-450.51 610.8,-449.19 612.28,-456.04"/>
</g>
<!-- Node79 -->
<g id="node17" class="node">
<title>Node79</title>
<g id="a_node17"><a xlink:href="$classJoyDPad.html#a640159e6d6d1cc955e74b95b3f45834c" xlink:title=" ">
<polygon fill="white" stroke="red" points="408.5,-423 408.5,-453 539.5,-453 539.5,-423 408.5,-423"/>
<text text-anchor="start" x="416.5" y="-441" font-family="Helvetica,sans-Serif" font-size="10.00">JoyDPad::activatePending</text>
<text text-anchor="middle" x="474" y="-430" font-family="Helvetica,sans-Serif" font-size="10.00">Event</text>
</a>
</g>
</g>
<!-- Node78&#45;&gt;Node79 -->
<g id="edge16" class="edge">
<title>Node78&#45;&gt;Node79</title>
<path fill="none" stroke="midnightblue" d="M605.87,-440.06C584.86,-439.73 561.15,-439.36 539.74,-439.02"/>
<polygon fill="midnightblue" stroke="midnightblue" points="605.89,-443.56 615.95,-440.22 606,-436.56 605.89,-443.56"/>
</g>
<!-- Node78&#45;&gt;Node86 -->
<g id="edge17" class="edge">
<title>Node78&#45;&gt;Node86</title>
<path fill="none" stroke="midnightblue" d="M606.35,-430.14C599.89,-427.69 593.62,-424.68 588,-421 566.28,-406.78 573.54,-389.5 552,-375 544.16,-369.72 535.05,-365.69 525.9,-362.63"/>
<polygon fill="midnightblue" stroke="midnightblue" points="605.32,-433.48 615.92,-433.35 607.55,-426.85 605.32,-433.48"/>
</g>
<!-- Node87 -->
<g id="node19" class="node">
<title>Node87</title>
<g id="a_node19"><a xlink:href="$classAdvanceStickAssignmentDialog.html#a86cf0001cd774ce5ccec8543b7a9a50b" xlink:title=" ">
<polygon fill="white" stroke="black" points="0,-472 0,-502 162,-502 162,-472 0,-472"/>
<text text-anchor="start" x="8" y="-490" font-family="Helvetica,sans-Serif" font-size="10.00">AdvanceStickAssignmentDialog</text>
<text text-anchor="middle" x="81" y="-479" font-family="Helvetica,sans-Serif" font-size="10.00">::AdvanceStickAssignmentDialog</text>
</a>
</g>
</g>
<!-- Node86&#45;&gt;Node87 -->
<g id="edge18" class="edge">
<title>Node86&#45;&gt;Node87</title>
<path fill="none" stroke="midnightblue" d="M412.73,-366.14C406.84,-368.61 401.15,-371.54 396,-375 374.46,-389.5 381.86,-406.99 360,-421 355.45,-423.91 228.3,-453.44 147.55,-472"/>
<polygon fill="midnightblue" stroke="midnightblue" points="413.97,-369.42 422.1,-362.63 411.51,-362.86 413.97,-369.42"/>
</g>
<!-- Node88 -->
<g id="node20" class="node">
<title>Node88</title>
<g id="a_node20"><a xlink:href="$classButtonEditDialog.html#a3e9feede100cbb6a11c9d87659c196ea" xlink:title=" ">
<polygon fill="white" stroke="black" points="216.5,-470 216.5,-500 341.5,-500 341.5,-470 216.5,-470"/>
<text text-anchor="start" x="224.5" y="-488" font-family="Helvetica,sans-Serif" font-size="10.00">ButtonEditDialog::Button</text>
<text text-anchor="middle" x="279" y="-477" font-family="Helvetica,sans-Serif" font-size="10.00">EditDialog</text>
</a>
</g>
</g>
<!-- Node86&#45;&gt;Node88 -->
<g id="edge19" class="edge">
<title>Node86&#45;&gt;Node88</title>
<path fill="none" stroke="midnightblue" d="M412.31,-364.69C406.41,-367.43 400.83,-370.82 396,-375 366.51,-400.51 388.44,-428.33 360,-455 353.51,-461.09 345.67,-465.97 337.46,-469.88"/>
<polygon fill="midnightblue" stroke="midnightblue" points="413.81,-367.86 421.78,-360.88 411.2,-361.36 413.81,-367.86"/>
</g>
<!-- Node89 -->
<g id="node21" class="node">
<title>Node89</title>
<g id="a_node21"><a xlink:href="$classJoystickStatusWindow.html#a96d9e83b764e14faed4c4dc275d23c45" xlink:title=" ">
<polygon fill="white" stroke="black" points="20,-360 20,-390 142,-390 142,-360 20,-360"/>
<text text-anchor="start" x="28" y="-378" font-family="Helvetica,sans-Serif" font-size="10.00">JoystickStatusWindow</text>
<text text-anchor="middle" x="81" y="-367" font-family="Helvetica,sans-Serif" font-size="10.00">::JoystickStatusWindow</text>
</a>
</g>
</g>
<!-- Node86&#45;&gt;Node89 -->
<g id="edge20" class="edge">
<title>Node86&#45;&gt;Node89</title>
<path fill="none" stroke="midnightblue" d="M411.83,-356.44C338.18,-360.59 215.28,-367.5 142.1,-371.62"/>
<polygon fill="midnightblue" stroke="midnightblue" points="412.1,-359.93 421.88,-355.88 411.7,-352.94 412.1,-359.93"/>
</g>
<!-- Node90 -->
<g id="node22" class="node">
<title>Node90</title>
<g id="a_node22"><a xlink:href="$classQuickSetDialog.html#a57726006cbe2d8534f4be91a05646dd2" xlink:title=" ">
<polygon fill="white" stroke="black" points="15.5,-267 15.5,-297 146.5,-297 146.5,-267 15.5,-267"/>
<text text-anchor="start" x="23.5" y="-285" font-family="Helvetica,sans-Serif" font-size="10.00">QuickSetDialog::QuickSet</text>
<text text-anchor="middle" x="81" y="-274" font-family="Helvetica,sans-Serif" font-size="10.00">Dialog</text>
</a>
</g>
</g>
<!-- Node86&#45;&gt;Node90 -->
<g id="edge21" class="edge">
<title>Node86&#45;&gt;Node90</title>
<path fill="none" stroke="midnightblue" d="M456.39,-335.82C440.77,-319.65 416.75,-294.73 396,-273 379.93,-256.17 381.37,-244.19 360,-235 274.57,-198.25 162.81,-241.94 110.87,-266.91"/>
<polygon fill="midnightblue" stroke="midnightblue" points="454.26,-338.66 463.73,-343.42 459.3,-333.79 454.26,-338.66"/>
</g>
<!-- Node91 -->
<g id="node23" class="node">
<title>Node91</title>
<g id="a_node23"><a xlink:href="$classAdvanceStickAssignmentDialog.html#a48ade79f1dfeb93ff668ac18d0e1243f" xlink:title=" ">
<polygon fill="white" stroke="black" points="201,-519 201,-549 357,-549 357,-519 201,-519"/>
<text text-anchor="start" x="209" y="-537" font-family="Helvetica,sans-Serif" font-size="10.00">AdvanceStickAssignmentDialog</text>
<text text-anchor="middle" x="279" y="-526" font-family="Helvetica,sans-Serif" font-size="10.00">::reenableButtonEvents</text>
</a>
</g>
</g>
<!-- Node86&#45;&gt;Node91 -->
<g id="edge22" class="edge">
<title>Node86&#45;&gt;Node91</title>
<path fill="none" stroke="midnightblue" d="M412.08,-363.68C406.13,-366.61 400.6,-370.31 396,-375 352.48,-419.3 403.23,-465.42 360,-510 356.67,-513.44 352.87,-516.38 348.77,-518.91"/>
<polygon fill="midnightblue" stroke="midnightblue" points="413.82,-366.75 421.72,-359.69 411.14,-360.28 413.82,-366.75"/>
</g>
<!-- Node92 -->
<g id="node24" class="node">
<title>Node92</title>
<g id="a_node24"><a xlink:href="$classJoystickStatusWindow.html#a1a1c28e1d6f480c7424ba81b30b8b4f5" xlink:title=" ">
<polygon fill="white" stroke="black" points="221,-382 221,-412 337,-412 337,-382 221,-382"/>
<text text-anchor="start" x="229" y="-400" font-family="Helvetica,sans-Serif" font-size="10.00">JoystickStatusWindow</text>
<text text-anchor="middle" x="279" y="-389" font-family="Helvetica,sans-Serif" font-size="10.00">::restoreButtonStates</text>
</a>
</g>
</g>
<!-- Node86&#45;&gt;Node92 -->
<g id="edge24" class="edge">
<title>Node86&#45;&gt;Node92</title>
<path fill="none" stroke="midnightblue" d="M421.12,-364.83C395.2,-370.74 363.78,-377.9 337.17,-383.97"/>
<polygon fill="midnightblue" stroke="midnightblue" points="422.15,-368.18 431.12,-362.55 420.59,-361.36 422.15,-368.18"/>
</g>
<!-- Node93 -->
<g id="node25" class="node">
<title>Node93</title>
<g id="a_node25"><a xlink:href="$classGameControllerMappingDialogHelper.html#a4040e6cf676fe8af751125e2928d8a35" xlink:title=" ">
<polygon fill="white" stroke="black" points="198,-245 198,-275 360,-275 360,-245 198,-245"/>
<text text-anchor="start" x="206" y="-263" font-family="Helvetica,sans-Serif" font-size="10.00">GameControllerMappingDialog</text>
<text text-anchor="middle" x="279" y="-252" font-family="Helvetica,sans-Serif" font-size="10.00">Helper::restoreDeviceDeadZones</text>
</a>
</g>
</g>
<!-- Node86&#45;&gt;Node93 -->
<g id="edge26" class="edge">
<title>Node86&#45;&gt;Node93</title>
<path fill="none" stroke="midnightblue" d="M451.4,-337.48C429.31,-322.18 393.58,-298.99 360,-284 352.72,-280.75 344.87,-277.79 337.04,-275.14"/>
<polygon fill="midnightblue" stroke="midnightblue" points="449.51,-340.43 459.71,-343.31 453.53,-334.7 449.51,-340.43"/>
</g>
<!-- Node94 -->
<g id="node26" class="node">
<title>Node94</title>
<g id="a_node26"><a xlink:href="$classQuickSetDialog.html#afacbf395389ca073edf366a412c1626b" xlink:title=" ">
<polygon fill="white" stroke="black" points="200.5,-294 200.5,-324 357.5,-324 357.5,-294 200.5,-294"/>
<text text-anchor="start" x="208.5" y="-312" font-family="Helvetica,sans-Serif" font-size="10.00">QuickSetDialog::restoreJoystick</text>
<text text-anchor="middle" x="279" y="-301" font-family="Helvetica,sans-Serif" font-size="10.00">State</text>
</a>
</g>
</g>
<!-- Node86&#45;&gt;Node94 -->
<g id="edge27" class="edge">
<title>Node86&#45;&gt;Node94</title>
<path fill="none" stroke="midnightblue" d="M421.18,-341.19C398.09,-335.92 370.63,-329.66 346.08,-324.07"/>
<polygon fill="midnightblue" stroke="midnightblue" points="420.59,-344.64 431.12,-343.45 422.15,-337.82 420.59,-344.64"/>
</g>
<!-- Node95 -->
<g id="node27" class="node">
<title>Node95</title>
<g id="a_node27"><a xlink:href="$classGameControllerMappingDialogHelper.html#a7852aab5763281aa59c17f2f1da8dd31" xlink:title=" ">
<polygon fill="white" stroke="black" points="204.5,-157 204.5,-187 353.5,-187 353.5,-157 204.5,-157"/>
<text text-anchor="start" x="212.5" y="-175" font-family="Helvetica,sans-Serif" font-size="10.00">GameControllerMappingDialog</text>
<text text-anchor="middle" x="279" y="-164" font-family="Helvetica,sans-Serif" font-size="10.00">Helper::setupDeadZones</text>
</a>
</g>
</g>
<!-- Node86&#45;&gt;Node95 -->
<g id="edge29" class="edge">
<title>Node86&#45;&gt;Node95</title>
<path fill="none" stroke="midnightblue" d="M454.2,-336.49C437.51,-321.18 413.18,-297.17 396,-273 375.51,-244.16 386.36,-225.6 360,-202 353.15,-195.87 344.92,-190.94 336.39,-187.01"/>
<polygon fill="midnightblue" stroke="midnightblue" points="451.95,-339.17 461.72,-343.28 456.64,-333.98 451.95,-339.17"/>
</g>
<!-- Node91&#45;&gt;Node87 -->
<g id="edge23" class="edge">
<title>Node91&#45;&gt;Node87</title>
<path fill="none" stroke="midnightblue" d="M205.47,-516.61C185.49,-511.82 164,-506.66 144.63,-502.02"/>
<polygon fill="midnightblue" stroke="midnightblue" points="204.9,-520.07 215.45,-519 206.54,-513.26 204.9,-520.07"/>
</g>
<!-- Node92&#45;&gt;Node89 -->
<g id="edge25" class="edge">
<title>Node92&#45;&gt;Node89</title>
<path fill="none" stroke="midnightblue" d="M210.72,-389.45C188.41,-386.94 163.74,-384.18 142.02,-381.74"/>
<polygon fill="midnightblue" stroke="midnightblue" points="210.45,-392.94 220.78,-390.58 211.23,-385.98 210.45,-392.94"/>
</g>
<!-- Node94&#45;&gt;Node90 -->
<g id="edge28" class="edge">
<title>Node94&#45;&gt;Node90</title>
<path fill="none" stroke="midnightblue" d="M190.19,-296.9C175.57,-294.89 160.63,-292.83 146.72,-290.91"/>
<polygon fill="midnightblue" stroke="midnightblue" points="189.87,-300.39 200.25,-298.29 190.83,-293.46 189.87,-300.39"/>
</g>
<!-- Node97 -->
<g id="node29" class="node">
<title>Node97</title>
<g id="a_node29"><a xlink:href="$classJoyAxis.html#a9c5f69db8b88f31a1df043a00ab9d09a" xlink:title=" ">
<polygon fill="white" stroke="red" points="619,-343.5 619,-362.5 714,-362.5 714,-343.5 619,-343.5"/>
<text text-anchor="middle" x="666.5" y="-350.5" font-family="Helvetica,sans-Serif" font-size="10.00">JoyAxis::joyEvent</text>
</a>
</g>
</g>
<!-- Node96&#45;&gt;Node97 -->
<g id="edge32" class="edge">
<title>Node96&#45;&gt;Node97</title>
<path fill="none" stroke="midnightblue" d="M780.72,-353C758.23,-353 734.26,-353 714.2,-353"/>
<polygon fill="midnightblue" stroke="midnightblue" points="780.93,-356.5 790.93,-353 780.93,-349.5 780.93,-356.5"/>
</g>
<!-- Node97&#45;&gt;Node86 -->
<g id="edge33" class="edge">
<title>Node97&#45;&gt;Node86</title>
<path fill="none" stroke="midnightblue" d="M608.73,-353C582.51,-353 551.62,-353 526.14,-353"/>
<polygon fill="midnightblue" stroke="midnightblue" points="608.9,-356.5 618.9,-353 608.9,-349.5 608.9,-356.5"/>
</g>
<!-- Node101 -->
<g id="node31" class="node">
<title>Node101</title>
<g id="a_node31"><a xlink:href="$classJoyControlStick.html#a376fa9faaaba5e00c4b1f9c8caa6236a" xlink:title="Take the input value for the two axes that make up a stick and activate the proper event based on the...">
<polygon fill="white" stroke="red" points="409.5,-195.5 409.5,-214.5 538.5,-214.5 538.5,-195.5 409.5,-195.5"/>
<text text-anchor="middle" x="474" y="-202.5" font-family="Helvetica,sans-Serif" font-size="10.00">JoyControlStick::joyEvent</text>
</a>
</g>
</g>
<!-- Node100&#45;&gt;Node101 -->
<g id="edge35" class="edge">
<title>Node100&#45;&gt;Node101</title>
<path fill="none" stroke="midnightblue" d="M585.25,-217.73C569.7,-215.94 553.6,-214.08 538.67,-212.35"/>
<polygon fill="midnightblue" stroke="midnightblue" points="585.04,-221.23 595.38,-218.9 585.84,-214.28 585.04,-221.23"/>
</g>
<!-- Node106 -->
<g id="node32" class="node">
<title>Node106</title>
<g id="a_node32"><a xlink:href="$classJoyControlStick.html#a1eada62b1da2f1a87dd698a19cc59ae4" xlink:title="Slot called when directionDelayTimer has timed out. The method will call createDeskEvent.">
<polygon fill="white" stroke="red" points="398,-234 398,-264 550,-264 550,-234 398,-234"/>
<text text-anchor="start" x="406" y="-252" font-family="Helvetica,sans-Serif" font-size="10.00">JoyControlStick::stickDirection</text>
<text text-anchor="middle" x="474" y="-241" font-family="Helvetica,sans-Serif" font-size="10.00">ChangeEvent</text>
</a>
</g>
</g>
<!-- Node100&#45;&gt;Node106 -->
<g id="edge36" class="edge">
<title>Node100&#45;&gt;Node106</title>
<path fill="none" stroke="midnightblue" d="M585.24,-236.27C573.59,-237.61 561.64,-238.99 550.1,-240.33"/>
<polygon fill="midnightblue" stroke="midnightblue" points="585.84,-239.72 595.38,-235.1 585.04,-232.77 585.84,-239.72"/>
</g>
<!-- Node108&#45;&gt;Node100 -->
<g id="edge38" class="edge">
<title>Node108&#45;&gt;Node100</title>
<path fill="none" stroke="midnightblue" d="M784.8,-199.69C767.43,-203.74 748.97,-208.03 731.96,-211.99"/>
<polygon fill="midnightblue" stroke="midnightblue" points="785.93,-203.02 794.88,-197.35 784.34,-196.21 785.93,-203.02"/>
</g>
<!-- Node109&#45;&gt;Node100 -->
<g id="edge40" class="edge">
<title>Node109&#45;&gt;Node100</title>
<path fill="none" stroke="midnightblue" d="M784.8,-254.31C767.43,-250.26 748.97,-245.97 731.96,-242.01"/>
<polygon fill="midnightblue" stroke="midnightblue" points="784.34,-257.79 794.88,-256.65 785.93,-250.98 784.34,-257.79"/>
</g>
<!-- Node111 -->
<g id="node36" class="node">
<title>Node111</title>
<g id="a_node36"><a xlink:href="$classJoyControlStickEditDialog.html#aec8873b859f10e904c9ddde9b22c3413" xlink:title=" ">
<polygon fill="white" stroke="red" points="601,-124 601,-154 732,-154 732,-124 601,-124"/>
<text text-anchor="start" x="609" y="-142" font-family="Helvetica,sans-Serif" font-size="10.00">JoyControlStickEditDialog</text>
<text text-anchor="middle" x="666.5" y="-131" font-family="Helvetica,sans-Serif" font-size="10.00">::implementModes</text>
</a>
</g>
</g>
<!-- Node110&#45;&gt;Node111 -->
<g id="edge43" class="edge">
<title>Node110&#45;&gt;Node111</title>
<path fill="none" stroke="midnightblue" d="M785.7,-111.48C768.08,-115.59 749.28,-119.96 731.98,-123.99"/>
<polygon fill="midnightblue" stroke="midnightblue" points="786.97,-114.78 795.92,-109.1 785.39,-107.96 786.97,-114.78"/>
</g>
<!-- Node113 -->
<g id="node37" class="node">
<title>Node113</title>
<g id="a_node37"><a xlink:href="$classJoyAxis.html#aa013bcc6b2391c594f043f8fe0f9b1f2" xlink:title=" ">
<polygon fill="white" stroke="red" points="595,-85.5 595,-104.5 738,-104.5 738,-85.5 595,-85.5"/>
<text text-anchor="middle" x="666.5" y="-92.5" font-family="Helvetica,sans-Serif" font-size="10.00">JoyAxis::removeControlStick</text>
</a>
</g>
</g>
<!-- Node110&#45;&gt;Node113 -->
<g id="edge44" class="edge">
<title>Node110&#45;&gt;Node113</title>
<path fill="none" stroke="midnightblue" d="M785.85,-95C770.3,-95 753.83,-95 738.28,-95"/>
<polygon fill="midnightblue" stroke="midnightblue" points="785.92,-98.5 795.92,-95 785.92,-91.5 785.92,-98.5"/>
</g>
<!-- Node120 -->
<g id="node38" class="node">
<title>Node120</title>
<g id="a_node38"><a xlink:href="$classJoyAxis.html#ac51525cabe4d0ea5aafebe949cde458f" xlink:title=" ">
<polygon fill="white" stroke="red" points="411.5,-116.5 411.5,-135.5 536.5,-135.5 536.5,-116.5 411.5,-116.5"/>
<text text-anchor="middle" x="474" y="-123.5" font-family="Helvetica,sans-Serif" font-size="10.00">JoyAxis::setControlStick</text>
</a>
</g>
</g>
<!-- Node113&#45;&gt;Node120 -->
<g id="edge45" class="edge">
<title>Node113&#45;&gt;Node120</title>
<path fill="none" stroke="midnightblue" d="M597.03,-106.14C576.29,-109.52 553.71,-113.19 533.67,-116.45"/>
<polygon fill="midnightblue" stroke="midnightblue" points="597.74,-109.57 607.05,-104.51 596.62,-102.66 597.74,-109.57"/>
</g>
<!-- Node121 -->
<g id="node39" class="node">
<title>Node121</title>
<g id="a_node39"><a xlink:href="$classJoyAxisButton.html#a8c8633a722e2c0a226924608259221d6" xlink:title=" ">
<polygon fill="white" stroke="black" points="408.5,-53.5 408.5,-72.5 539.5,-72.5 539.5,-53.5 408.5,-53.5"/>
<text text-anchor="middle" x="474" y="-60.5" font-family="Helvetica,sans-Serif" font-size="10.00">JoyAxisButton::setVDPad</text>
</a>
</g>
</g>
<!-- Node113&#45;&gt;Node121 -->
<g id="edge46" class="edge">
<title>Node113&#45;&gt;Node121</title>
<path fill="none" stroke="midnightblue" d="M598.96,-83.82C577.04,-80.14 552.88,-76.08 531.75,-72.53"/>
<polygon fill="midnightblue" stroke="midnightblue" points="598.42,-87.28 608.86,-85.49 599.58,-80.38 598.42,-87.28"/>
</g>
<!-- Node124 -->
<g id="node41" class="node">
<title>Node124</title>
<g id="a_node41"><a xlink:href="$classDPadEditDialog.html#adfad573034ea62490614303638c16040" xlink:title=" ">
<polygon fill="white" stroke="red" points="598,-36 598,-66 735,-66 735,-36 598,-36"/>
<text text-anchor="start" x="606" y="-54" font-family="Helvetica,sans-Serif" font-size="10.00">DPadEditDialog::implement</text>
<text text-anchor="middle" x="666.5" y="-43" font-family="Helvetica,sans-Serif" font-size="10.00">Modes</text>
</a>
</g>
</g>
<!-- Node123&#45;&gt;Node124 -->
<g id="edge48" class="edge">
<title>Node123&#45;&gt;Node124</title>
<path fill="none" stroke="midnightblue" d="M770.63,-51C758.77,-51 746.72,-51 735.25,-51"/>
<polygon fill="midnightblue" stroke="midnightblue" points="770.99,-54.5 780.99,-51 770.99,-47.5 770.99,-54.5"/>
</g>
<!-- Node126&#45;&gt;Node120 -->
<g id="edge50" class="edge">
<title>Node126&#45;&gt;Node120</title>
<path fill="none" stroke="midnightblue" d="M616.6,-170.89C607.08,-168.39 597.21,-165.69 588,-163 558.68,-154.43 525.49,-143.4 502.71,-135.62"/>
<polygon fill="midnightblue" stroke="midnightblue" points="615.78,-174.29 626.34,-173.41 617.54,-167.51 615.78,-174.29"/>
</g>
<!-- Node127&#45;&gt;Node121 -->
<g id="edge52" class="edge">
<title>Node127&#45;&gt;Node121</title>
<path fill="none" stroke="midnightblue" d="M791.23,-9.23C736.5,-9.69 656.52,-12.97 588,-26 556.16,-32.06 520.87,-44.6 498.34,-53.4"/>
<polygon fill="midnightblue" stroke="midnightblue" points="791.5,-12.73 801.48,-9.17 791.46,-5.73 791.5,-12.73"/>
</g>
<!-- Node129&#45;&gt;Node5 -->
<g id="edge56" class="edge">
<title>Node129&#45;&gt;Node5</title>
<path fill="none" stroke="midnightblue" d="M1982.21,-154.49C1918.42,-131.99 1802.77,-97 1700.5,-97 1700.5,-97 1700.5,-97 1344.5,-97 1238.21,-97 1115.03,-128.23 1058.21,-144.46"/>
<polygon fill="midnightblue" stroke="midnightblue" points="1981.39,-157.92 1991.99,-157.98 1983.75,-151.32 1981.39,-157.92"/>
</g>
<!-- Node129&#45;&gt;Node6 -->
<g id="edge57" class="edge">
<title>Node129&#45;&gt;Node6</title>
<path fill="none" stroke="midnightblue" d="M1954.49,-177.11C1758.5,-187.65 1242.25,-215.4 1077.68,-224.25"/>
<polygon fill="midnightblue" stroke="midnightblue" points="1954.91,-180.6 1964.7,-176.56 1954.53,-173.61 1954.91,-180.6"/>
</g>
<!-- Node130 -->
<g id="node46" class="node">
<title>Node130</title>
<g id="a_node46"><a xlink:href="$classJoyButton.html#a4e87da582ac95744c4255fa975e26327" xlink:title=" ">
<polygon fill="white" stroke="black" points="1797,-220.5 1797,-239.5 1929,-239.5 1929,-220.5 1797,-220.5"/>
<text text-anchor="middle" x="1863" y="-227.5" font-family="Helvetica,sans-Serif" font-size="10.00">JoyButton::keyPressEvent</text>
</a>
</g>
</g>
<!-- Node129&#45;&gt;Node130 -->
<g id="edge58" class="edge">
<title>Node129&#45;&gt;Node130</title>
<path fill="none" stroke="midnightblue" d="M1976.91,-191.46C1948.59,-201.13 1915.1,-212.56 1891.98,-220.45"/>
<polygon fill="midnightblue" stroke="midnightblue" points="1978.35,-194.67 1986.69,-188.13 1976.09,-188.04 1978.35,-194.67"/>
</g>
<!-- Node135 -->
<g id="node49" class="node">
<title>Node135</title>
<g id="a_node49"><a xlink:href="$classJoyButton.html#a343f29190a231a50584aacc7f9f63e11" xlink:title=" ">
<polygon fill="white" stroke="black" points="1277,-125.5 1277,-144.5 1414,-144.5 1414,-125.5 1277,-125.5"/>
<text text-anchor="middle" x="1345.5" y="-132.5" font-family="Helvetica,sans-Serif" font-size="10.00">JoyButton::pauseWaitEvent</text>
</a>
</g>
</g>
<!-- Node129&#45;&gt;Node135 -->
<g id="edge69" class="edge">
<title>Node129&#45;&gt;Node135</title>
<path fill="none" stroke="midnightblue" d="M1954.83,-161.74C1946.13,-160.69 1937.38,-159.75 1929,-159 1743.25,-142.46 1523.14,-137.3 1414.35,-135.7"/>
<polygon fill="midnightblue" stroke="midnightblue" points="1954.63,-165.24 1964.99,-163.01 1955.5,-158.29 1954.63,-165.24"/>
</g>
<!-- Node130&#45;&gt;Node5 -->
<g id="edge68" class="edge">
<title>Node130&#45;&gt;Node5</title>
<path fill="none" stroke="midnightblue" d="M1786.66,-223.15C1620.48,-208.03 1225.82,-172.13 1081,-158.96"/>
<polygon fill="midnightblue" stroke="midnightblue" points="1786.51,-226.65 1796.79,-224.07 1787.15,-219.68 1786.51,-226.65"/>
</g>
<!-- Node131 -->
<g id="node47" class="node">
<title>Node131</title>
<g id="a_node47"><a xlink:href="$classJoyButton.html#a5ad4a1a185fbca249220549f45d859ea" xlink:title=" ">
<polygon fill="white" stroke="black" points="1638,-277.5 1638,-296.5 1761,-296.5 1761,-277.5 1638,-277.5"/>
<text text-anchor="middle" x="1699.5" y="-284.5" font-family="Helvetica,sans-Serif" font-size="10.00">JoyButton::activateSlots</text>
</a>
</g>
</g>
<!-- Node130&#45;&gt;Node131 -->
<g id="edge59" class="edge">
<title>Node130&#45;&gt;Node131</title>
<path fill="none" stroke="midnightblue" d="M1825.37,-242.93C1795.65,-253.42 1754.44,-267.96 1727.62,-277.43"/>
<polygon fill="midnightblue" stroke="midnightblue" points="1826.7,-246.17 1834.97,-239.54 1824.37,-239.57 1826.7,-246.17"/>
</g>
<!-- Node132 -->
<g id="node48" class="node">
<title>Node132</title>
<g id="a_node48"><a xlink:href="$classJoyButton.html#a96766131be0f60f91d715b02ec941615" xlink:title=" ">
<polygon fill="white" stroke="red" points="1460,-277.5 1460,-296.5 1602,-296.5 1602,-277.5 1460,-277.5"/>
<text text-anchor="middle" x="1531" y="-284.5" font-family="Helvetica,sans-Serif" font-size="10.00">JoyButton::createDeskEvent</text>
</a>
</g>
</g>
<!-- Node131&#45;&gt;Node132 -->
<g id="edge60" class="edge">
<title>Node131&#45;&gt;Node132</title>
<path fill="none" stroke="midnightblue" d="M1627.7,-287C1619.24,-287 1610.6,-287 1602.14,-287"/>
<polygon fill="midnightblue" stroke="midnightblue" points="1627.92,-290.5 1637.92,-287 1627.92,-283.5 1627.92,-290.5"/>
</g>
<!-- Node138 -->
<g id="node50" class="node">
<title>Node138</title>
<g id="a_node50"><a xlink:href="$classJoyButton.html#ae43c0b46569b42036bf7ea883e93c591" xlink:title=" ">
<polygon fill="white" stroke="black" points="1461,-315.5 1461,-334.5 1601,-334.5 1601,-315.5 1461,-315.5"/>
<text text-anchor="middle" x="1531" y="-322.5" font-family="Helvetica,sans-Serif" font-size="10.00">JoyButton::releaseSlotEvent</text>
</a>
</g>
</g>
<!-- Node131&#45;&gt;Node138 -->
<g id="edge66" class="edge">
<title>Node131&#45;&gt;Node138</title>
<path fill="none" stroke="midnightblue" d="M1646.69,-298.82C1623.22,-304.18 1595.83,-310.43 1573.71,-315.48"/>
<polygon fill="midnightblue" stroke="midnightblue" points="1647.51,-302.23 1656.49,-296.59 1645.96,-295.4 1647.51,-302.23"/>
</g>
<!-- Node132&#45;&gt;Node3 -->
<g id="edge61" class="edge">
<title>Node132&#45;&gt;Node3</title>
<path fill="none" stroke="midnightblue" d="M1473.59,-298.68C1447.57,-304.07 1417.07,-310.39 1392.47,-315.48"/>
<polygon fill="midnightblue" stroke="midnightblue" points="1474.61,-302.04 1483.7,-296.59 1473.19,-295.19 1474.61,-302.04"/>
</g>
<!-- Node132&#45;&gt;Node128 -->
<g id="edge65" class="edge">
<title>Node132&#45;&gt;Node128</title>
<path fill="none" stroke="midnightblue" d="M1449.8,-287C1345.23,-287 1165.34,-287 1077.61,-287"/>
<polygon fill="midnightblue" stroke="midnightblue" points="1449.99,-290.5 1459.99,-287 1449.99,-283.5 1449.99,-290.5"/>
</g>
<!-- Node132&#45;&gt;Node130 -->
<g id="edge62" class="edge">
<title>Node132&#45;&gt;Node130</title>
<path fill="none" stroke="midnightblue" d="M1594.74,-275.66C1608.96,-273.11 1623.99,-270.44 1638,-268 1694.73,-258.1 1759.61,-247.14 1804.89,-239.54"/>
<polygon fill="midnightblue" stroke="midnightblue" points="1593.78,-272.27 1584.55,-277.48 1595.01,-279.16 1593.78,-272.27"/>
</g>
<!-- Node132&#45;&gt;Node135 -->
<g id="edge63" class="edge">
<title>Node132&#45;&gt;Node135</title>
<path fill="none" stroke="midnightblue" d="M1510.7,-271.01C1472.56,-239.42 1388.61,-169.88 1357.97,-144.5"/>
<polygon fill="midnightblue" stroke="midnightblue" points="1508.59,-273.81 1518.52,-277.49 1513.05,-268.42 1508.59,-273.81"/>
</g>
<!-- Node135&#45;&gt;Node5 -->
<g id="edge64" class="edge">
<title>Node135&#45;&gt;Node5</title>
<path fill="none" stroke="midnightblue" d="M1266.52,-139.66C1208.98,-143.1 1132.1,-147.69 1081.03,-150.74"/>
<polygon fill="midnightblue" stroke="midnightblue" points="1266.9,-143.14 1276.67,-139.05 1266.48,-136.16 1266.9,-143.14"/>
</g>
<!-- Node138&#45;&gt;Node2 -->
<g id="edge67" class="edge">
<title>Node138&#45;&gt;Node2</title>
<path fill="none" stroke="midnightblue" d="M1611.26,-327.23C1743.53,-330.95 2007.31,-338.38 2134.76,-341.97"/>
<polygon fill="midnightblue" stroke="midnightblue" points="1611.29,-323.73 1601.19,-326.95 1611.09,-330.73 1611.29,-323.73"/>
</g>
</g>
</svg>
