<?xml version="1.0" encoding="UTF-8" standalone="no"?>
<!DOCTYPE svg PUBLIC "-//W3C//DTD SVG 1.1//EN"
 "http://www.w3.org/Graphics/SVG/1.1/DTD/svg11.dtd">
<!-- Generated by graphviz version 2.43.0 (0)
 -->
<!-- Title: InputDaemon::quit Pages: 1 -->
<svg width="284pt" height="66pt"
 viewBox="0.00 0.00 284.00 66.00" xmlns="http://www.w3.org/2000/svg" xmlns:xlink="http://www.w3.org/1999/xlink">
<g id="graph0" class="graph" transform="scale(1 1) rotate(0) translate(4 62)">
<title>InputDaemon::quit</title>
<polygon fill="white" stroke="transparent" points="-4,4 -4,-62 280,-62 280,4 -4,4"/>
<!-- Node1 -->
<g id="node1" class="node">
<title>Node1</title>
<g id="a_node1"><a xlink:title=" ">
<polygon fill="#bfbfbf" stroke="black" points="180,-19.5 180,-38.5 276,-38.5 276,-19.5 180,-19.5"/>
<text text-anchor="middle" x="228" y="-26.5" font-family="Helvetica,sans-Serif" font-size="10.00">InputDaemon::quit</text>
</a>
</g>
</g>
<!-- Node2 -->
<g id="node2" class="node">
<title>Node2</title>
<g id="a_node2"><a xlink:href="$main_8cpp.html#a0ddf1224851353fc92bfbff6f499fa97" xlink:title=" ">
<polygon fill="white" stroke="black" points="53,-38.5 53,-57.5 91,-57.5 91,-38.5 53,-38.5"/>
<text text-anchor="middle" x="72" y="-45.5" font-family="Helvetica,sans-Serif" font-size="10.00">main</text>
</a>
</g>
</g>
<!-- Node1&#45;&gt;Node2 -->
<g id="edge1" class="edge">
<title>Node1&#45;&gt;Node2</title>
<path fill="none" stroke="midnightblue" d="M169.92,-36.04C142.14,-39.47 110.65,-43.36 91.3,-45.74"/>
<polygon fill="midnightblue" stroke="midnightblue" points="170.46,-39.5 179.96,-34.8 169.6,-32.55 170.46,-39.5"/>
</g>
<!-- Node3 -->
<g id="node3" class="node">
<title>Node3</title>
<g id="a_node3"><a xlink:href="$classInputDaemon.html#a13f3f218c2772d9486bead5ac577407e" xlink:title=" ">
<polygon fill="white" stroke="black" points="0,-0.5 0,-19.5 144,-19.5 144,-0.5 0,-0.5"/>
<text text-anchor="middle" x="72" y="-7.5" font-family="Helvetica,sans-Serif" font-size="10.00">InputDaemon::~InputDaemon</text>
</a>
</g>
</g>
<!-- Node1&#45;&gt;Node3 -->
<g id="edge2" class="edge">
<title>Node1&#45;&gt;Node3</title>
<path fill="none" stroke="midnightblue" d="M169.91,-21.96C161.51,-20.92 152.78,-19.84 144.14,-18.78"/>
<polygon fill="midnightblue" stroke="midnightblue" points="169.6,-25.45 179.96,-23.2 170.46,-18.5 169.6,-25.45"/>
</g>
</g>
</svg>
