<?xml version="1.0" encoding="UTF-8" standalone="no"?>
<!DOCTYPE svg PUBLIC "-//W3C//DTD SVG 1.1//EN"
 "http://www.w3.org/Graphics/SVG/1.1/DTD/svg11.dtd">
<!-- Generated by graphviz version 2.43.0 (0)
 -->
<!-- Title: AutoProfileWatcher::clearProfileAssignments Pages: 1 -->
<svg width="354pt" height="235pt"
 viewBox="0.00 0.00 354.00 235.00" xmlns="http://www.w3.org/2000/svg" xmlns:xlink="http://www.w3.org/1999/xlink">
<g id="graph0" class="graph" transform="scale(1 1) rotate(0) translate(4 231)">
<title>AutoProfileWatcher::clearProfileAssignments</title>
<polygon fill="white" stroke="transparent" points="-4,4 -4,-231 350,-231 350,4 -4,4"/>
<!-- Node1 -->
<g id="node1" class="node">
<title>Node1</title>
<g id="a_node1"><a xlink:title=" ">
<polygon fill="#bfbfbf" stroke="black" points="0,-98.5 0,-128.5 128,-128.5 128,-98.5 0,-98.5"/>
<text text-anchor="start" x="8" y="-116.5" font-family="Helvetica,sans-Serif" font-size="10.00">AutoProfileWatcher</text>
<text text-anchor="middle" x="64" y="-105.5" font-family="Helvetica,sans-Serif" font-size="10.00">::clearProfileAssignments</text>
</a>
</g>
</g>
<!-- Node2 -->
<g id="node2" class="node">
<title>Node2</title>
<g id="a_node2"><a xlink:href="$classAutoProfileWatcher.html#a71d680e2e91636eb48082b830d4fa2af" xlink:title=" ">
<polygon fill="white" stroke="black" points="186,-196.5 186,-226.5 324,-226.5 324,-196.5 186,-196.5"/>
<text text-anchor="start" x="194" y="-214.5" font-family="Helvetica,sans-Serif" font-size="10.00">AutoProfileWatcher</text>
<text text-anchor="middle" x="255" y="-203.5" font-family="Helvetica,sans-Serif" font-size="10.00">::getAppProfileAssignments</text>
</a>
</g>
</g>
<!-- Node1&#45;&gt;Node2 -->
<g id="edge1" class="edge">
<title>Node1&#45;&gt;Node2</title>
<path fill="none" stroke="midnightblue" d="M81.22,-128.75C99.83,-145.46 131.94,-171.97 164,-187.5 168.04,-189.46 172.26,-191.27 176.57,-192.95"/>
<polygon fill="midnightblue" stroke="midnightblue" points="175.55,-196.3 186.14,-196.42 177.93,-189.72 175.55,-196.3"/>
</g>
<!-- Node3 -->
<g id="node3" class="node">
<title>Node3</title>
<g id="a_node3"><a xlink:href="$classAutoProfileWatcher.html#a6f859d7413059615f203f5962dec15ea" xlink:title=" ">
<polygon fill="white" stroke="black" points="179,-147.5 179,-177.5 331,-177.5 331,-147.5 179,-147.5"/>
<text text-anchor="start" x="187" y="-165.5" font-family="Helvetica,sans-Serif" font-size="10.00">AutoProfileWatcher</text>
<text text-anchor="middle" x="255" y="-154.5" font-family="Helvetica,sans-Serif" font-size="10.00">::getDefaultProfileAssignments</text>
</a>
</g>
</g>
<!-- Node1&#45;&gt;Node3 -->
<g id="edge2" class="edge">
<title>Node1&#45;&gt;Node3</title>
<path fill="none" stroke="midnightblue" d="M122.99,-128.53C143.04,-133.73 165.67,-139.6 186.42,-144.98"/>
<polygon fill="midnightblue" stroke="midnightblue" points="185.56,-148.37 196.12,-147.49 187.32,-141.6 185.56,-148.37"/>
</g>
<!-- Node4 -->
<g id="node4" class="node">
<title>Node4</title>
<g id="a_node4"><a xlink:href="$classAutoProfileWatcher.html#ac8d3fde4dea7576bd0ea05913304c826" xlink:title=" ">
<polygon fill="white" stroke="black" points="200,-98.5 200,-128.5 310,-128.5 310,-98.5 200,-98.5"/>
<text text-anchor="start" x="208" y="-116.5" font-family="Helvetica,sans-Serif" font-size="10.00">AutoProfileWatcher</text>
<text text-anchor="middle" x="255" y="-105.5" font-family="Helvetica,sans-Serif" font-size="10.00">::getUniqeIDSetLocal</text>
</a>
</g>
</g>
<!-- Node1&#45;&gt;Node4 -->
<g id="edge3" class="edge">
<title>Node1&#45;&gt;Node4</title>
<path fill="none" stroke="midnightblue" d="M128.2,-113.5C147.94,-113.5 169.73,-113.5 189.55,-113.5"/>
<polygon fill="midnightblue" stroke="midnightblue" points="189.72,-117 199.72,-113.5 189.72,-110 189.72,-117"/>
</g>
<!-- Node5 -->
<g id="node5" class="node">
<title>Node5</title>
<g id="a_node5"><a xlink:href="$classAutoProfileWatcher.html#a711ecd2e6eae6d0270271a9598305dd4" xlink:title=" ">
<polygon fill="white" stroke="black" points="164,-49.5 164,-79.5 346,-79.5 346,-49.5 164,-49.5"/>
<text text-anchor="start" x="172" y="-67.5" font-family="Helvetica,sans-Serif" font-size="10.00">AutoProfileWatcher</text>
<text text-anchor="middle" x="255" y="-56.5" font-family="Helvetica,sans-Serif" font-size="10.00">::getWindowClassProfileAssignments</text>
</a>
</g>
</g>
<!-- Node1&#45;&gt;Node5 -->
<g id="edge4" class="edge">
<title>Node1&#45;&gt;Node5</title>
<path fill="none" stroke="midnightblue" d="M122.99,-98.47C143.04,-93.27 165.67,-87.4 186.42,-82.02"/>
<polygon fill="midnightblue" stroke="midnightblue" points="187.32,-85.4 196.12,-79.51 185.56,-78.63 187.32,-85.4"/>
</g>
<!-- Node6 -->
<g id="node6" class="node">
<title>Node6</title>
<g id="a_node6"><a xlink:href="$classAutoProfileWatcher.html#a3eae9d4ee45d3dabd198ea94d327a857" xlink:title=" ">
<polygon fill="white" stroke="black" points="164,-0.5 164,-30.5 346,-30.5 346,-0.5 164,-0.5"/>
<text text-anchor="start" x="172" y="-18.5" font-family="Helvetica,sans-Serif" font-size="10.00">AutoProfileWatcher</text>
<text text-anchor="middle" x="255" y="-7.5" font-family="Helvetica,sans-Serif" font-size="10.00">::getWindowNameProfileAssignments</text>
</a>
</g>
</g>
<!-- Node1&#45;&gt;Node6 -->
<g id="edge5" class="edge">
<title>Node1&#45;&gt;Node6</title>
<path fill="none" stroke="midnightblue" d="M81.63,-98.23C100.35,-81.79 132.32,-55.93 164,-40.5 168.83,-38.15 173.92,-35.99 179.11,-34"/>
<polygon fill="midnightblue" stroke="midnightblue" points="180.31,-37.29 188.55,-30.63 177.96,-30.7 180.31,-37.29"/>
</g>
</g>
</svg>
