<?xml version="1.0" encoding="UTF-8" standalone="no"?>
<!DOCTYPE svg PUBLIC "-//W3C//DTD SVG 1.1//EN"
 "http://www.w3.org/Graphics/SVG/1.1/DTD/svg11.dtd">
<!-- Generated by graphviz version 2.43.0 (0)
 -->
<!-- Title: VirtualKeyboardMouseWidget::setupKeyboardNumPadLayout Pages: 1 -->
<svg width="1672pt" height="497pt"
 viewBox="0.00 0.00 1672.00 496.50" xmlns="http://www.w3.org/2000/svg" xmlns:xlink="http://www.w3.org/1999/xlink">
<g id="graph0" class="graph" transform="scale(1 1) rotate(0) translate(4 492.5)">
<title>VirtualKeyboardMouseWidget::setupKeyboardNumPadLayout</title>
<polygon fill="white" stroke="transparent" points="-4,4 -4,-492.5 1668,-492.5 1668,4 -4,4"/>
<!-- Node1 -->
<g id="node1" class="node">
<title>Node1</title>
<g id="a_node1"><a xlink:title=" ">
<polygon fill="#bfbfbf" stroke="black" points="0,-377.5 0,-407.5 154,-407.5 154,-377.5 0,-377.5"/>
<text text-anchor="start" x="8" y="-395.5" font-family="Helvetica,sans-Serif" font-size="10.00">VirtualKeyboardMouseWidget</text>
<text text-anchor="middle" x="77" y="-384.5" font-family="Helvetica,sans-Serif" font-size="10.00">::setupKeyboardNumPadLayout</text>
</a>
</g>
</g>
<!-- Node2 -->
<g id="node2" class="node">
<title>Node2</title>
<g id="a_node2"><a xlink:href="$classVirtualKeyboardMouseWidget.html#aa17b07665c13272034f51f8177f38501" xlink:title=" ">
<polygon fill="white" stroke="black" points="190,-402.5 190,-432.5 336,-432.5 336,-402.5 190,-402.5"/>
<text text-anchor="start" x="198" y="-420.5" font-family="Helvetica,sans-Serif" font-size="10.00">VirtualKeyboardMouseWidget</text>
<text text-anchor="middle" x="263" y="-409.5" font-family="Helvetica,sans-Serif" font-size="10.00">::createNewKey</text>
</a>
</g>
</g>
<!-- Node1&#45;&gt;Node2 -->
<g id="edge1" class="edge">
<title>Node1&#45;&gt;Node2</title>
<path fill="none" stroke="midnightblue" d="M154.17,-402.85C162.62,-404 171.26,-405.17 179.79,-406.33"/>
<polygon fill="midnightblue" stroke="midnightblue" points="179.35,-409.8 189.73,-407.68 180.29,-402.87 179.35,-409.8"/>
</g>
<!-- Node3 -->
<g id="node3" class="node">
<title>Node3</title>
<g id="a_node3"><a xlink:href="$classVirtualKeyboardMouseWidget.html#aaa98b51f6ff49d0218b765073bec3255" xlink:title=" ">
<polygon fill="white" stroke="black" points="190,-353.5 190,-383.5 336,-383.5 336,-353.5 190,-353.5"/>
<text text-anchor="start" x="198" y="-371.5" font-family="Helvetica,sans-Serif" font-size="10.00">VirtualKeyboardMouseWidget</text>
<text text-anchor="middle" x="263" y="-360.5" font-family="Helvetica,sans-Serif" font-size="10.00">::createOtherKeysMenu</text>
</a>
</g>
</g>
<!-- Node1&#45;&gt;Node3 -->
<g id="edge2" class="edge">
<title>Node1&#45;&gt;Node3</title>
<path fill="none" stroke="midnightblue" d="M154.17,-382.57C162.62,-381.46 171.26,-380.34 179.79,-379.22"/>
<polygon fill="midnightblue" stroke="midnightblue" points="180.27,-382.69 189.73,-377.93 179.36,-375.75 180.27,-382.69"/>
</g>
<!-- Node4 -->
<g id="node4" class="node">
<title>Node4</title>
<g id="a_node4"><a xlink:href="$classVirtualKeyboardMouseWidget.html#a7421c70569311b4b19471a232c3333a8" xlink:title=" ">
<polygon fill="white" stroke="black" points="377,-353.5 377,-383.5 523,-383.5 523,-353.5 377,-353.5"/>
<text text-anchor="start" x="385" y="-371.5" font-family="Helvetica,sans-Serif" font-size="10.00">VirtualKeyboardMouseWidget</text>
<text text-anchor="middle" x="450" y="-360.5" font-family="Helvetica,sans-Serif" font-size="10.00">::addFButtonToOthers</text>
</a>
</g>
</g>
<!-- Node3&#45;&gt;Node4 -->
<g id="edge3" class="edge">
<title>Node3&#45;&gt;Node4</title>
<path fill="none" stroke="midnightblue" d="M336.06,-368.5C346.1,-368.5 356.48,-368.5 366.7,-368.5"/>
<polygon fill="midnightblue" stroke="midnightblue" points="366.84,-372 376.84,-368.5 366.84,-365 366.84,-372"/>
</g>
<!-- Node5 -->
<g id="node5" class="node">
<title>Node5</title>
<g id="a_node5"><a xlink:href="$classAntKeyMapper.html#acd08c44a2501edcfdb1ef8a68d534b1b" xlink:title=" ">
<polygon fill="white" stroke="black" points="582.5,-427 582.5,-446 719.5,-446 719.5,-427 582.5,-427"/>
<text text-anchor="middle" x="651" y="-434" font-family="Helvetica,sans-Serif" font-size="10.00">AntKeyMapper::getInstance</text>
</a>
</g>
</g>
<!-- Node3&#45;&gt;Node5 -->
<g id="edge36" class="edge">
<title>Node3&#45;&gt;Node5</title>
<path fill="none" stroke="midnightblue" d="M325.23,-383.5C340.46,-387.01 356.79,-390.57 372,-393.5 439.27,-406.47 516.28,-418.14 572.17,-426.03"/>
<polygon fill="midnightblue" stroke="midnightblue" points="571.96,-429.54 582.35,-427.46 572.93,-422.61 571.96,-429.54"/>
</g>
<!-- Node29 -->
<g id="node29" class="node">
<title>Node29</title>
<g id="a_node29"><a xlink:href="$classAntKeyMapper.html#a07957c1e2baac6c4266678d89dc7c3a6" xlink:title=" ">
<polygon fill="white" stroke="black" points="372,-283 372,-302 528,-302 528,-283 372,-283"/>
<text text-anchor="middle" x="450" y="-290" font-family="Helvetica,sans-Serif" font-size="10.00">AntKeyMapper::returnVirtualKey</text>
</a>
</g>
</g>
<!-- Node3&#45;&gt;Node29 -->
<g id="edge37" class="edge">
<title>Node3&#45;&gt;Node29</title>
<path fill="none" stroke="midnightblue" d="M300.55,-353.48C334.24,-339.65 383.78,-319.29 416.22,-305.97"/>
<polygon fill="midnightblue" stroke="midnightblue" points="417.78,-309.11 425.7,-302.07 415.12,-302.64 417.78,-309.11"/>
</g>
<!-- Node4&#45;&gt;Node5 -->
<g id="edge4" class="edge">
<title>Node4&#45;&gt;Node5</title>
<path fill="none" stroke="midnightblue" d="M495.16,-383.59C530.24,-395.58 578.76,-412.16 612.09,-423.55"/>
<polygon fill="midnightblue" stroke="midnightblue" points="611.32,-426.98 621.92,-426.9 613.59,-420.36 611.32,-426.98"/>
</g>
<!-- Node8 -->
<g id="node8" class="node">
<title>Node8</title>
<g id="a_node8"><a xlink:href="$event_8cpp.html#a76ce89b71143c1c09343f45f038b4a67" xlink:title=" ">
<polygon fill="white" stroke="black" points="600.5,-256 600.5,-275 701.5,-275 701.5,-256 600.5,-256"/>
<text text-anchor="middle" x="651" y="-263" font-family="Helvetica,sans-Serif" font-size="10.00">keysymToKeyString</text>
</a>
</g>
</g>
<!-- Node4&#45;&gt;Node8 -->
<g id="edge7" class="edge">
<title>Node4&#45;&gt;Node8</title>
<path fill="none" stroke="midnightblue" d="M480.36,-353.3C518.57,-333.52 584.86,-299.22 622.26,-279.86"/>
<polygon fill="midnightblue" stroke="midnightblue" points="624.28,-282.75 631.55,-275.05 621.06,-276.54 624.28,-282.75"/>
</g>
<!-- Node6 -->
<g id="node6" class="node">
<title>Node6</title>
<g id="a_node6"><a xlink:href="$classAntKeyMapper.html#abe4a434636d370a750d32a14b9a139d3" xlink:title=" ">
<polygon fill="white" stroke="black" points="774,-469 774,-488 924,-488 924,-469 774,-469"/>
<text text-anchor="middle" x="849" y="-476" font-family="Helvetica,sans-Serif" font-size="10.00">AntKeyMapper::AntKeyMapper</text>
</a>
</g>
</g>
<!-- Node5&#45;&gt;Node6 -->
<g id="edge5" class="edge">
<title>Node5&#45;&gt;Node6</title>
<path fill="none" stroke="midnightblue" d="M696.48,-446.03C725.19,-452.18 762.76,-460.23 793.3,-466.78"/>
<polygon fill="midnightblue" stroke="midnightblue" points="792.85,-470.26 803.36,-468.93 794.32,-463.42 792.85,-470.26"/>
</g>
<!-- Node7 -->
<g id="node7" class="node">
<title>Node7</title>
<g id="a_node7"><a xlink:href="$antkeymapper_8cpp.html#a4f87707944cf82e8e59c85d48e24951c" xlink:title=" ">
<polygon fill="white" stroke="black" points="789,-431 789,-450 909,-450 909,-431 789,-431"/>
<text text-anchor="middle" x="849" y="-438" font-family="Helvetica,sans-Serif" font-size="10.00">buildEventGeneratorList</text>
</a>
</g>
</g>
<!-- Node5&#45;&gt;Node7 -->
<g id="edge6" class="edge">
<title>Node5&#45;&gt;Node7</title>
<path fill="none" stroke="midnightblue" d="M719.73,-437.88C738.77,-438.27 759.5,-438.69 778.63,-439.08"/>
<polygon fill="midnightblue" stroke="midnightblue" points="778.71,-442.59 788.77,-439.29 778.85,-435.59 778.71,-442.59"/>
</g>
<!-- Node9 -->
<g id="node9" class="node">
<title>Node9</title>
<g id="a_node9"><a xlink:href="$classX11Extras.html#a643c95dc1de8eb073a0accb41619fe83" xlink:title="Get display instance.">
<polygon fill="white" stroke="black" points="988,-295 988,-314 1087,-314 1087,-295 988,-295"/>
<text text-anchor="middle" x="1037.5" y="-302" font-family="Helvetica,sans-Serif" font-size="10.00">X11Extras::display</text>
</a>
</g>
</g>
<!-- Node8&#45;&gt;Node9 -->
<g id="edge8" class="edge">
<title>Node8&#45;&gt;Node9</title>
<path fill="none" stroke="midnightblue" d="M701.87,-270.56C772.71,-277.74 902.21,-290.88 977.65,-298.53"/>
<polygon fill="midnightblue" stroke="midnightblue" points="977.63,-302.05 987.93,-299.57 978.33,-295.08 977.63,-302.05"/>
</g>
<!-- Node10 -->
<g id="node10" class="node">
<title>Node10</title>
<g id="a_node10"><a xlink:href="$classBaseEventHandler.html#a9a014e472ec57408d16b8b5eed964e90" xlink:title=" ">
<polygon fill="white" stroke="black" points="960,-207 960,-226 1115,-226 1115,-207 960,-207"/>
<text text-anchor="middle" x="1037.5" y="-214" font-family="Helvetica,sans-Serif" font-size="10.00">BaseEventHandler::getIdentifier</text>
</a>
</g>
</g>
<!-- Node8&#45;&gt;Node10 -->
<g id="edge9" class="edge">
<title>Node8&#45;&gt;Node10</title>
<path fill="none" stroke="midnightblue" d="M701.87,-259.14C765.07,-251.09 874.98,-237.08 951.52,-227.33"/>
<polygon fill="midnightblue" stroke="midnightblue" points="952.14,-230.78 961.62,-226.04 951.26,-223.83 952.14,-230.78"/>
</g>
<!-- Node11 -->
<g id="node11" class="node">
<title>Node11</title>
<g id="a_node11"><a xlink:href="$classEventHandlerFactory.html#a90ce153a19fbb91128bd52eb083ce271" xlink:title=" ">
<polygon fill="white" stroke="black" points="983,-245.5 983,-275.5 1092,-275.5 1092,-245.5 983,-245.5"/>
<text text-anchor="start" x="991" y="-263.5" font-family="Helvetica,sans-Serif" font-size="10.00">EventHandlerFactory</text>
<text text-anchor="middle" x="1037.5" y="-252.5" font-family="Helvetica,sans-Serif" font-size="10.00">::getInstance</text>
</a>
</g>
</g>
<!-- Node8&#45;&gt;Node11 -->
<g id="edge10" class="edge">
<title>Node8&#45;&gt;Node11</title>
<path fill="none" stroke="midnightblue" d="M701.87,-264.85C771.06,-263.95 896.21,-262.32 972.3,-261.33"/>
<polygon fill="midnightblue" stroke="midnightblue" points="972.74,-264.83 982.7,-261.2 972.65,-257.83 972.74,-264.83"/>
</g>
<!-- Node14 -->
<g id="node14" class="node">
<title>Node14</title>
<g id="a_node14"><a xlink:href="$classEventHandlerFactory.html#a4c13007f0ece5bf881080c9c04f1f20d" xlink:title=" ">
<polygon fill="white" stroke="black" points="1344,-247.5 1344,-277.5 1453,-277.5 1453,-247.5 1344,-247.5"/>
<text text-anchor="start" x="1352" y="-265.5" font-family="Helvetica,sans-Serif" font-size="10.00">EventHandlerFactory</text>
<text text-anchor="middle" x="1398.5" y="-254.5" font-family="Helvetica,sans-Serif" font-size="10.00">::handler</text>
</a>
</g>
</g>
<!-- Node8&#45;&gt;Node14 -->
<g id="edge19" class="edge">
<title>Node8&#45;&gt;Node14</title>
<path fill="none" stroke="midnightblue" d="M668.09,-275.1C742.38,-318.08 1058.44,-486.44 1289,-383.5 1333.4,-363.68 1367.2,-315.7 1384.54,-286.47"/>
<polygon fill="midnightblue" stroke="midnightblue" points="1387.63,-288.11 1389.59,-277.69 1381.57,-284.62 1387.63,-288.11"/>
</g>
<!-- Node16 -->
<g id="node16" class="node">
<title>Node16</title>
<g id="a_node16"><a xlink:href="$classX11Extras.html#ace76277fced60e6bd6ff880030338182" xlink:title=" ">
<polygon fill="white" stroke="black" points="978,-17 978,-36 1097,-36 1097,-17 978,-17"/>
<text text-anchor="middle" x="1037.5" y="-24" font-family="Helvetica,sans-Serif" font-size="10.00">X11Extras::getInstance</text>
</a>
</g>
</g>
<!-- Node8&#45;&gt;Node16 -->
<g id="edge16" class="edge">
<title>Node8&#45;&gt;Node16</title>
<path fill="none" stroke="midnightblue" d="M701.63,-262.77C714.61,-259.98 727.81,-255.05 738,-246.5 770.06,-219.61 746.52,-191.06 774,-159.5 831.41,-93.58 929.34,-56.37 987.98,-38.93"/>
<polygon fill="midnightblue" stroke="midnightblue" points="989.12,-42.25 997.75,-36.1 987.17,-35.52 989.12,-42.25"/>
</g>
<!-- Node19 -->
<g id="node19" class="node">
<title>Node19</title>
<g id="a_node19"><a xlink:href="$event_8cpp.html#ad239a34cab482dc3cad5a23a9ac1ad78" xlink:title=" ">
<polygon fill="white" stroke="black" points="797,-169 797,-188 901,-188 901,-169 797,-169"/>
<text text-anchor="middle" x="849" y="-176" font-family="Helvetica,sans-Serif" font-size="10.00">keycodeToKeyString</text>
</a>
</g>
</g>
<!-- Node8&#45;&gt;Node19 -->
<g id="edge20" class="edge">
<title>Node8&#45;&gt;Node19</title>
<path fill="none" stroke="midnightblue" d="M701.72,-259.95C714.14,-257.13 727.04,-252.89 738,-246.5 758.66,-234.46 754.26,-220 774,-206.5 782.76,-200.51 792.98,-195.58 802.98,-191.62"/>
<polygon fill="midnightblue" stroke="midnightblue" points="804.27,-194.87 812.44,-188.12 801.84,-188.31 804.27,-194.87"/>
</g>
<!-- Node12 -->
<g id="node12" class="node">
<title>Node12</title>
<g id="a_node12"><a xlink:href="$classEventHandlerFactory.html#ade5162034acc0f8683725fdb124bece0" xlink:title=" ">
<polygon fill="white" stroke="black" points="1157,-343.5 1157,-373.5 1283,-373.5 1283,-343.5 1157,-343.5"/>
<text text-anchor="start" x="1165" y="-361.5" font-family="Helvetica,sans-Serif" font-size="10.00">EventHandlerFactory</text>
<text text-anchor="middle" x="1220" y="-350.5" font-family="Helvetica,sans-Serif" font-size="10.00">::buildEventGeneratorList</text>
</a>
</g>
</g>
<!-- Node11&#45;&gt;Node12 -->
<g id="edge11" class="edge">
<title>Node11&#45;&gt;Node12</title>
<path fill="none" stroke="midnightblue" d="M1092.38,-273.44C1100.36,-276.65 1108.18,-280.62 1115,-285.5 1136.68,-301.03 1129.61,-317.58 1151,-333.5 1153.49,-335.36 1156.14,-337.08 1158.88,-338.7"/>
<polygon fill="midnightblue" stroke="midnightblue" points="1157.44,-341.89 1167.92,-343.45 1160.7,-335.7 1157.44,-341.89"/>
</g>
<!-- Node13 -->
<g id="node13" class="node">
<title>Node13</title>
<g id="a_node13"><a xlink:href="$classEventHandlerFactory.html#a2f843293b2ea47271fc7bd99bd871fa6" xlink:title=" ">
<polygon fill="white" stroke="black" points="1162.5,-294.5 1162.5,-324.5 1277.5,-324.5 1277.5,-294.5 1162.5,-294.5"/>
<text text-anchor="start" x="1170.5" y="-312.5" font-family="Helvetica,sans-Serif" font-size="10.00">EventHandlerFactory</text>
<text text-anchor="middle" x="1220" y="-301.5" font-family="Helvetica,sans-Serif" font-size="10.00">::EventHandlerFactory</text>
</a>
</g>
</g>
<!-- Node11&#45;&gt;Node13 -->
<g id="edge12" class="edge">
<title>Node11&#45;&gt;Node13</title>
<path fill="none" stroke="midnightblue" d="M1092.17,-275.07C1111.55,-280.33 1133.63,-286.33 1153.89,-291.82"/>
<polygon fill="midnightblue" stroke="midnightblue" points="1153.09,-295.24 1163.66,-294.48 1154.93,-288.48 1153.09,-295.24"/>
</g>
<!-- Node11&#45;&gt;Node14 -->
<g id="edge15" class="edge">
<title>Node11&#45;&gt;Node14</title>
<path fill="none" stroke="midnightblue" d="M1092.17,-246.06C1110.67,-241.76 1131.61,-237.63 1151,-235.5 1211.97,-228.81 1228.12,-228.04 1289,-235.5 1305.04,-237.47 1322.13,-241.01 1337.88,-244.9"/>
<polygon fill="midnightblue" stroke="midnightblue" points="1337.46,-248.4 1348.01,-247.49 1339.19,-241.62 1337.46,-248.4"/>
</g>
<!-- Node15 -->
<g id="node15" class="node">
<title>Node15</title>
<g id="a_node15"><a xlink:href="$classEventHandlerFactory.html#afa5ca0171c70b1a24f92b5c8dd00dc92" xlink:title=" ">
<polygon fill="white" stroke="black" points="1165.5,-245.5 1165.5,-275.5 1274.5,-275.5 1274.5,-245.5 1165.5,-245.5"/>
<text text-anchor="start" x="1173.5" y="-263.5" font-family="Helvetica,sans-Serif" font-size="10.00">EventHandlerFactory</text>
<text text-anchor="middle" x="1220" y="-252.5" font-family="Helvetica,sans-Serif" font-size="10.00">::fallBackIdentifier</text>
</a>
</g>
</g>
<!-- Node11&#45;&gt;Node15 -->
<g id="edge14" class="edge">
<title>Node11&#45;&gt;Node15</title>
<path fill="none" stroke="midnightblue" d="M1092.17,-260.5C1111.9,-260.5 1134.45,-260.5 1155,-260.5"/>
<polygon fill="midnightblue" stroke="midnightblue" points="1155.23,-264 1165.23,-260.5 1155.23,-257 1155.23,-264"/>
</g>
<!-- Node13&#45;&gt;Node14 -->
<g id="edge13" class="edge">
<title>Node13&#45;&gt;Node14</title>
<path fill="none" stroke="midnightblue" d="M1277.33,-294.5C1295.38,-289.69 1315.48,-284.34 1334,-279.41"/>
<polygon fill="midnightblue" stroke="midnightblue" points="1335.04,-282.75 1343.81,-276.8 1333.24,-275.99 1335.04,-282.75"/>
</g>
<!-- Node17 -->
<g id="node17" class="node">
<title>Node17</title>
<g id="a_node17"><a xlink:href="$classX11Extras.html#ab9bcb016e23bacb0e988feb8175d2c88" xlink:title=" ">
<polygon fill="white" stroke="black" points="1163,-12 1163,-31 1277,-31 1277,-12 1163,-12"/>
<text text-anchor="middle" x="1220" y="-19" font-family="Helvetica,sans-Serif" font-size="10.00">X11Extras::X11Extras</text>
</a>
</g>
</g>
<!-- Node16&#45;&gt;Node17 -->
<g id="edge17" class="edge">
<title>Node16&#45;&gt;Node17</title>
<path fill="none" stroke="midnightblue" d="M1097.1,-24.88C1114.83,-24.39 1134.41,-23.84 1152.61,-23.34"/>
<polygon fill="midnightblue" stroke="midnightblue" points="1152.94,-26.83 1162.84,-23.06 1152.75,-19.83 1152.94,-26.83"/>
</g>
<!-- Node18 -->
<g id="node18" class="node">
<title>Node18</title>
<g id="a_node18"><a xlink:href="$classX11Extras.html#a6f63e77ed045e174546d77333672b8f0" xlink:title=" ">
<polygon fill="white" stroke="black" points="1331,-0.5 1331,-30.5 1466,-30.5 1466,-0.5 1331,-0.5"/>
<text text-anchor="start" x="1339" y="-18.5" font-family="Helvetica,sans-Serif" font-size="10.00">X11Extras::populateKnown</text>
<text text-anchor="middle" x="1398.5" y="-7.5" font-family="Helvetica,sans-Serif" font-size="10.00">Aliases</text>
</a>
</g>
</g>
<!-- Node17&#45;&gt;Node18 -->
<g id="edge18" class="edge">
<title>Node17&#45;&gt;Node18</title>
<path fill="none" stroke="midnightblue" d="M1277.33,-19.59C1291.18,-19.11 1306.25,-18.6 1320.88,-18.1"/>
<polygon fill="midnightblue" stroke="midnightblue" points="1321.05,-21.6 1330.92,-17.76 1320.81,-14.61 1321.05,-21.6"/>
</g>
<!-- Node19&#45;&gt;Node9 -->
<g id="edge21" class="edge">
<title>Node19&#45;&gt;Node9</title>
<path fill="none" stroke="midnightblue" d="M857.09,-188.08C873.03,-208.95 913.97,-258.68 960,-284.5 965.58,-287.63 971.66,-290.28 977.88,-292.53"/>
<polygon fill="midnightblue" stroke="midnightblue" points="977.11,-295.96 987.71,-295.73 979.28,-289.31 977.11,-295.96"/>
</g>
<!-- Node19&#45;&gt;Node10 -->
<g id="edge25" class="edge">
<title>Node19&#45;&gt;Node10</title>
<path fill="none" stroke="midnightblue" d="M897.06,-188.09C922.23,-193.22 953.4,-199.57 979.88,-204.96"/>
<polygon fill="midnightblue" stroke="midnightblue" points="979.28,-208.41 989.78,-206.98 980.68,-201.55 979.28,-208.41"/>
</g>
<!-- Node19&#45;&gt;Node11 -->
<g id="edge33" class="edge">
<title>Node19&#45;&gt;Node11</title>
<path fill="none" stroke="midnightblue" d="M866.37,-188.05C887.51,-200.14 925.68,-221.11 960,-235.5 965.37,-237.75 971.01,-239.93 976.7,-242"/>
<polygon fill="midnightblue" stroke="midnightblue" points="975.68,-245.35 986.28,-245.38 978.01,-238.75 975.68,-245.35"/>
</g>
<!-- Node19&#45;&gt;Node14 -->
<g id="edge35" class="edge">
<title>Node19&#45;&gt;Node14</title>
<path fill="none" stroke="midnightblue" d="M901.14,-179.67C983.82,-182.55 1151.51,-192.45 1289,-226.5 1308.43,-231.31 1329.4,-237.92 1347.67,-244.16"/>
<polygon fill="midnightblue" stroke="midnightblue" points="1346.64,-247.51 1357.23,-247.48 1348.93,-240.9 1346.64,-247.51"/>
</g>
<!-- Node19&#45;&gt;Node16 -->
<g id="edge34" class="edge">
<title>Node19&#45;&gt;Node16</title>
<path fill="none" stroke="midnightblue" d="M859.4,-168.77C873.73,-153.81 901.75,-124.08 924,-97.5 940.89,-77.32 938.44,-65.59 960,-50.5 966.19,-46.17 973.2,-42.59 980.4,-39.65"/>
<polygon fill="midnightblue" stroke="midnightblue" points="982.1,-42.75 990.28,-36.01 979.69,-36.18 982.1,-42.75"/>
</g>
<!-- Node20 -->
<g id="node20" class="node">
<title>Node20</title>
<g id="a_node20"><a xlink:href="$classUInputHelper.html#ac4c70c9479c1cc0eb515ab1bdf2426f5" xlink:title=" ">
<polygon fill="white" stroke="black" points="1335,-49.5 1335,-79.5 1462,-79.5 1462,-49.5 1335,-49.5"/>
<text text-anchor="start" x="1343" y="-67.5" font-family="Helvetica,sans-Serif" font-size="10.00">UInputHelper::getDisplay</text>
<text text-anchor="middle" x="1398.5" y="-56.5" font-family="Helvetica,sans-Serif" font-size="10.00">String</text>
</a>
</g>
</g>
<!-- Node19&#45;&gt;Node20 -->
<g id="edge22" class="edge">
<title>Node19&#45;&gt;Node20</title>
<path fill="none" stroke="midnightblue" d="M866.2,-168.85C881.83,-159.16 905.73,-143.29 924,-126.5 942.35,-109.64 937.65,-94.53 960,-83.5 1022.08,-52.85 1217.26,-56.2 1324.74,-60.68"/>
<polygon fill="midnightblue" stroke="midnightblue" points="1324.72,-64.18 1334.86,-61.11 1325.02,-57.19 1324.72,-64.18"/>
</g>
<!-- Node22 -->
<g id="node22" class="node">
<title>Node22</title>
<g id="a_node22"><a xlink:href="$classX11Extras.html#abe710bac948c9802105a2d9d06815cac" xlink:title="Get appropriate alias for a known KeySym string that might be blank or contain invalid characters whe...">
<polygon fill="white" stroke="black" points="967.5,-131 967.5,-150 1107.5,-150 1107.5,-131 967.5,-131"/>
<text text-anchor="middle" x="1037.5" y="-138" font-family="Helvetica,sans-Serif" font-size="10.00">X11Extras::getDisplayString</text>
</a>
</g>
</g>
<!-- Node19&#45;&gt;Node22 -->
<g id="edge24" class="edge">
<title>Node19&#45;&gt;Node22</title>
<path fill="none" stroke="midnightblue" d="M897.06,-168.91C922.23,-163.78 953.4,-157.43 979.88,-152.04"/>
<polygon fill="midnightblue" stroke="midnightblue" points="980.68,-155.45 989.78,-150.02 979.28,-148.59 980.68,-155.45"/>
</g>
<!-- Node23 -->
<g id="node23" class="node">
<title>Node23</title>
<g id="a_node23"><a xlink:href="$classUInputHelper.html#a61509601d3dbd8933aaa26c1e2db02f6" xlink:title=" ">
<polygon fill="white" stroke="black" points="972,-93 972,-112 1103,-112 1103,-93 972,-93"/>
<text text-anchor="middle" x="1037.5" y="-100" font-family="Helvetica,sans-Serif" font-size="10.00">UInputHelper::getInstance</text>
</a>
</g>
</g>
<!-- Node19&#45;&gt;Node23 -->
<g id="edge26" class="edge">
<title>Node19&#45;&gt;Node23</title>
<path fill="none" stroke="midnightblue" d="M865.49,-168.98C886.31,-156.54 924.78,-134.79 960,-121.5 966.69,-118.98 973.84,-116.69 980.97,-114.65"/>
<polygon fill="midnightblue" stroke="midnightblue" points="981.92,-118.02 990.66,-112.03 980.09,-111.27 981.92,-118.02"/>
</g>
<!-- Node21 -->
<g id="node21" class="node">
<title>Node21</title>
<g id="a_node21"><a xlink:href="$classUInputHelper.html#a043b0fa7cf4ce5811d01d95f3ca318b7" xlink:title=" ">
<polygon fill="white" stroke="black" points="1508,-49.5 1508,-79.5 1664,-79.5 1664,-49.5 1508,-49.5"/>
<text text-anchor="start" x="1516" y="-67.5" font-family="Helvetica,sans-Serif" font-size="10.00">UInputHelper::getKnownAliases</text>
<text text-anchor="middle" x="1586" y="-56.5" font-family="Helvetica,sans-Serif" font-size="10.00">VKStrings</text>
</a>
</g>
</g>
<!-- Node20&#45;&gt;Node21 -->
<g id="edge23" class="edge">
<title>Node20&#45;&gt;Node21</title>
<path fill="none" stroke="midnightblue" d="M1462.04,-64.5C1473.55,-64.5 1485.75,-64.5 1497.82,-64.5"/>
<polygon fill="midnightblue" stroke="midnightblue" points="1497.92,-68 1507.92,-64.5 1497.92,-61 1497.92,-68"/>
</g>
<!-- Node24 -->
<g id="node24" class="node">
<title>Node24</title>
<g id="a_node24"><a xlink:href="$classUInputHelper.html#a5d56d23a0e0202435c7a5ff1aca9ce55" xlink:title=" ">
<polygon fill="white" stroke="black" points="1151,-99 1151,-118 1289,-118 1289,-99 1151,-99"/>
<text text-anchor="middle" x="1220" y="-106" font-family="Helvetica,sans-Serif" font-size="10.00">UInputHelper::UInputHelper</text>
</a>
</g>
</g>
<!-- Node23&#45;&gt;Node24 -->
<g id="edge27" class="edge">
<title>Node23&#45;&gt;Node24</title>
<path fill="none" stroke="midnightblue" d="M1103.15,-104.65C1115.37,-105.06 1128.26,-105.48 1140.84,-105.9"/>
<polygon fill="midnightblue" stroke="midnightblue" points="1140.72,-109.4 1150.83,-106.23 1140.96,-102.4 1140.72,-109.4"/>
</g>
<!-- Node25 -->
<g id="node25" class="node">
<title>Node25</title>
<g id="a_node25"><a xlink:href="$classUInputHelper.html#a0f4dbb4221502d86f7d0af12a9865568" xlink:title=" ">
<polygon fill="white" stroke="black" points="1325,-98.5 1325,-128.5 1472,-128.5 1472,-98.5 1325,-98.5"/>
<text text-anchor="start" x="1333" y="-116.5" font-family="Helvetica,sans-Serif" font-size="10.00">UInputHelper::populateKnown</text>
<text text-anchor="middle" x="1398.5" y="-105.5" font-family="Helvetica,sans-Serif" font-size="10.00">Aliases</text>
</a>
</g>
</g>
<!-- Node24&#45;&gt;Node25 -->
<g id="edge28" class="edge">
<title>Node24&#45;&gt;Node25</title>
<path fill="none" stroke="midnightblue" d="M1289.24,-110.43C1297.52,-110.67 1306.04,-110.91 1314.5,-111.15"/>
<polygon fill="midnightblue" stroke="midnightblue" points="1314.67,-114.65 1324.76,-111.44 1314.87,-107.66 1314.67,-114.65"/>
</g>
<!-- Node25&#45;&gt;Node21 -->
<g id="edge29" class="edge">
<title>Node25&#45;&gt;Node21</title>
<path fill="none" stroke="midnightblue" d="M1456.42,-98.47C1476,-93.29 1498.11,-87.45 1518.4,-82.09"/>
<polygon fill="midnightblue" stroke="midnightblue" points="1519.42,-85.44 1528.19,-79.51 1517.63,-78.68 1519.42,-85.44"/>
</g>
<!-- Node26 -->
<g id="node26" class="node">
<title>Node26</title>
<g id="a_node26"><a xlink:href="$classUInputHelper.html#a8f3fe71ae635cd3c46eaab79dd11c2e0" xlink:title=" ">
<polygon fill="white" stroke="black" points="1508,-196.5 1508,-226.5 1664,-226.5 1664,-196.5 1508,-196.5"/>
<text text-anchor="start" x="1516" y="-214.5" font-family="Helvetica,sans-Serif" font-size="10.00">UInputHelper::getKnownAliases</text>
<text text-anchor="middle" x="1586" y="-203.5" font-family="Helvetica,sans-Serif" font-size="10.00">X11SymVK</text>
</a>
</g>
</g>
<!-- Node25&#45;&gt;Node26 -->
<g id="edge30" class="edge">
<title>Node25&#45;&gt;Node26</title>
<path fill="none" stroke="midnightblue" d="M1418.5,-128.69C1439.41,-144.83 1474.52,-170.2 1508,-186.5 1512.62,-188.75 1517.49,-190.87 1522.45,-192.84"/>
<polygon fill="midnightblue" stroke="midnightblue" points="1521.45,-196.21 1532.04,-196.47 1523.92,-189.66 1521.45,-196.21"/>
</g>
<!-- Node27 -->
<g id="node27" class="node">
<title>Node27</title>
<g id="a_node27"><a xlink:href="$classUInputHelper.html#a9793030329fbbe1106b255814ef2bd0f" xlink:title=" ">
<polygon fill="white" stroke="black" points="1519,-147.5 1519,-177.5 1653,-177.5 1653,-147.5 1519,-147.5"/>
<text text-anchor="start" x="1527" y="-165.5" font-family="Helvetica,sans-Serif" font-size="10.00">UInputHelper::populateX11</text>
<text text-anchor="middle" x="1586" y="-154.5" font-family="Helvetica,sans-Serif" font-size="10.00">SymVk</text>
</a>
</g>
</g>
<!-- Node25&#45;&gt;Node27 -->
<g id="edge31" class="edge">
<title>Node25&#45;&gt;Node27</title>
<path fill="none" stroke="midnightblue" d="M1456.42,-128.53C1476,-133.71 1498.11,-139.55 1518.4,-144.91"/>
<polygon fill="midnightblue" stroke="midnightblue" points="1517.63,-148.32 1528.19,-147.49 1519.42,-141.56 1517.63,-148.32"/>
</g>
<!-- Node28 -->
<g id="node28" class="node">
<title>Node28</title>
<g id="a_node28"><a xlink:href="$classUInputHelper.html#af02574de230bb0550eebb63f5a669681" xlink:title=" ">
<polygon fill="white" stroke="black" points="1518,-98.5 1518,-128.5 1654,-128.5 1654,-98.5 1518,-98.5"/>
<text text-anchor="start" x="1526" y="-116.5" font-family="Helvetica,sans-Serif" font-size="10.00">UInputHelper::populateXVk</text>
<text text-anchor="middle" x="1586" y="-105.5" font-family="Helvetica,sans-Serif" font-size="10.00">Strings</text>
</a>
</g>
</g>
<!-- Node25&#45;&gt;Node28 -->
<g id="edge32" class="edge">
<title>Node25&#45;&gt;Node28</title>
<path fill="none" stroke="midnightblue" d="M1472.02,-113.5C1483.73,-113.5 1495.89,-113.5 1507.71,-113.5"/>
<polygon fill="midnightblue" stroke="midnightblue" points="1507.98,-117 1517.98,-113.5 1507.98,-110 1507.98,-117"/>
</g>
<!-- Node30 -->
<g id="node30" class="node">
<title>Node30</title>
<g id="a_node30"><a xlink:href="$classQtKeyMapperBase.html#a5df0f313bce11847f8495126373e7178" xlink:title=" ">
<polygon fill="white" stroke="black" points="564,-218 564,-237 738,-237 738,-218 564,-218"/>
<text text-anchor="middle" x="651" y="-225" font-family="Helvetica,sans-Serif" font-size="10.00">QtKeyMapperBase::returnVirtualKey</text>
</a>
</g>
</g>
<!-- Node29&#45;&gt;Node30 -->
<g id="edge38" class="edge">
<title>Node29&#45;&gt;Node30</title>
<path fill="none" stroke="midnightblue" d="M471.44,-282.95C493.79,-272.8 530.83,-256.83 564,-246.5 572.38,-243.89 581.32,-241.49 590.16,-239.35"/>
<polygon fill="midnightblue" stroke="midnightblue" points="591.11,-242.72 600.05,-237.04 589.52,-235.9 591.11,-242.72"/>
</g>
</g>
</svg>
