<?xml version="1.0" encoding="UTF-8" standalone="no"?>
<!DOCTYPE svg PUBLIC "-//W3C//DTD SVG 1.1//EN"
 "http://www.w3.org/Graphics/SVG/1.1/DTD/svg11.dtd">
<!-- Generated by graphviz version 2.43.0 (0)
 -->
<!-- Title: JoyButtonSlot::setSlotMode Pages: 1 -->
<svg width="1614pt" height="837pt"
 viewBox="0.00 0.00 1614.00 837.30" xmlns="http://www.w3.org/2000/svg" xmlns:xlink="http://www.w3.org/1999/xlink">
<g id="graph0" class="graph" transform="scale(1 1) rotate(0) translate(4 833.3)">
<title>JoyButtonSlot::setSlotMode</title>
<polygon fill="white" stroke="transparent" points="-4,4 -4,-833.3 1610,-833.3 1610,4 -4,4"/>
<!-- Node1 -->
<g id="node1" class="node">
<title>Node1</title>
<g id="a_node1"><a xlink:title=" ">
<polygon fill="#bfbfbf" stroke="black" points="1467,-302 1467,-321 1606,-321 1606,-302 1467,-302"/>
<text text-anchor="middle" x="1536.5" y="-309" font-family="Helvetica,sans-Serif" font-size="10.00">JoyButtonSlot::setSlotMode</text>
</a>
</g>
</g>
<!-- Node2 -->
<g id="node2" class="node">
<title>Node2</title>
<g id="a_node2"><a xlink:href="$classSimpleKeyGrabberButton.html#ab6a33975387e7840e45cf0a6e5a701df" xlink:title=" ">
<polygon fill="white" stroke="black" points="1288,-548.5 1288,-578.5 1414,-578.5 1414,-548.5 1288,-548.5"/>
<text text-anchor="start" x="1296" y="-566.5" font-family="Helvetica,sans-Serif" font-size="10.00">SimpleKeyGrabberButton</text>
<text text-anchor="middle" x="1351" y="-555.5" font-family="Helvetica,sans-Serif" font-size="10.00">::eventFilter</text>
</a>
</g>
</g>
<!-- Node1&#45;&gt;Node2 -->
<g id="edge1" class="edge">
<title>Node1&#45;&gt;Node2</title>
<path fill="none" stroke="midnightblue" d="M1532.05,-331.48C1523.37,-375.68 1496.46,-482.32 1431,-539.5 1426.03,-543.84 1420.3,-547.39 1414.24,-550.3"/>
<polygon fill="midnightblue" stroke="midnightblue" points="1535.53,-331.91 1533.92,-321.43 1528.65,-330.63 1535.53,-331.91"/>
</g>
<!-- Node3 -->
<g id="node3" class="node">
<title>Node3</title>
<g id="a_node3"><a xlink:href="$classAdvanceButtonDialog.html#ad40bcfad2f4380b746002defc689a2b6" xlink:title=" ">
<polygon fill="white" stroke="black" points="186,-239.5 186,-269.5 296,-269.5 296,-239.5 186,-239.5"/>
<text text-anchor="start" x="194" y="-257.5" font-family="Helvetica,sans-Serif" font-size="10.00">AdvanceButtonDialog</text>
<text text-anchor="middle" x="241" y="-246.5" font-family="Helvetica,sans-Serif" font-size="10.00">::joinSlot</text>
</a>
</g>
</g>
<!-- Node1&#45;&gt;Node3 -->
<g id="edge2" class="edge">
<title>Node1&#45;&gt;Node3</title>
<path fill="none" stroke="midnightblue" d="M1510.46,-296.7C1451.68,-263.4 1299.42,-185.5 1161.5,-185.5 1161.5,-185.5 1161.5,-185.5 606,-185.5 491.03,-185.5 359.15,-219.14 290.02,-239.44"/>
<polygon fill="midnightblue" stroke="midnightblue" points="1508.97,-299.88 1519.39,-301.82 1512.45,-293.81 1508.97,-299.88"/>
</g>
<!-- Node5 -->
<g id="node5" class="node">
<title>Node5</title>
<g id="a_node5"><a xlink:href="$classJoyButtonSlotXml.html#ae1a67e6f62ab1e8753d43416775b420a" xlink:title=" ">
<polygon fill="white" stroke="black" points="1086,-100 1086,-119 1235,-119 1235,-100 1086,-100"/>
<text text-anchor="middle" x="1160.5" y="-107" font-family="Helvetica,sans-Serif" font-size="10.00">JoyButtonSlotXml::readConfig</text>
</a>
</g>
</g>
<!-- Node1&#45;&gt;Node5 -->
<g id="edge4" class="edge">
<title>Node1&#45;&gt;Node5</title>
<path fill="none" stroke="midnightblue" d="M1526.93,-292.72C1512,-262.24 1478.25,-202.31 1431,-171.5 1412.7,-159.57 1284.21,-133.26 1211.45,-119.06"/>
<polygon fill="midnightblue" stroke="midnightblue" points="1523.81,-294.31 1531.26,-301.85 1530.13,-291.31 1523.81,-294.31"/>
</g>
<!-- Node16 -->
<g id="node16" class="node">
<title>Node16</title>
<g id="a_node16"><a xlink:href="$classJoyButtonSlotXml.html#a09e2c08735c879d0db1e9c8697bff18b" xlink:title=" ">
<polygon fill="white" stroke="black" points="1271,-100 1271,-119 1431,-119 1431,-100 1271,-100"/>
<text text-anchor="middle" x="1351" y="-107" font-family="Helvetica,sans-Serif" font-size="10.00">JoyButtonSlotXml::readEachSlot</text>
</a>
</g>
</g>
<!-- Node1&#45;&gt;Node16 -->
<g id="edge16" class="edge">
<title>Node1&#45;&gt;Node16</title>
<path fill="none" stroke="midnightblue" d="M1529.33,-291.74C1516.84,-255.02 1485.07,-176.11 1431,-133.5 1423.01,-127.2 1413.37,-122.55 1403.62,-119.12"/>
<polygon fill="midnightblue" stroke="midnightblue" points="1526.15,-293.29 1532.59,-301.7 1532.8,-291.11 1526.15,-293.29"/>
</g>
<!-- Node17 -->
<g id="node17" class="node">
<title>Node17</title>
<g id="a_node17"><a xlink:href="$classSimpleKeyGrabberButton.html#a293f8294c8c9b1b3325a07c4369186f4" xlink:title=" ">
<polygon fill="white" stroke="black" points="1288,-450.5 1288,-480.5 1414,-480.5 1414,-450.5 1288,-450.5"/>
<text text-anchor="start" x="1296" y="-468.5" font-family="Helvetica,sans-Serif" font-size="10.00">SimpleKeyGrabberButton</text>
<text text-anchor="middle" x="1351" y="-457.5" font-family="Helvetica,sans-Serif" font-size="10.00">::setValue</text>
</a>
</g>
</g>
<!-- Node1&#45;&gt;Node17 -->
<g id="edge18" class="edge">
<title>Node1&#45;&gt;Node17</title>
<path fill="none" stroke="midnightblue" d="M1516.26,-327.65C1480.59,-357.58 1404.69,-421.28 1369.99,-450.4"/>
<polygon fill="midnightblue" stroke="midnightblue" points="1518.61,-330.24 1524.02,-321.13 1514.11,-324.88 1518.61,-330.24"/>
</g>
<!-- Node40 -->
<g id="node40" class="node">
<title>Node40</title>
<g id="a_node40"><a xlink:href="$classSimpleKeyGrabberButton.html#a7a3a4926db7e4657ae7dea0fdf7da8c0" xlink:title=" ">
<polygon fill="white" stroke="black" points="1288,-499.5 1288,-529.5 1414,-529.5 1414,-499.5 1288,-499.5"/>
<text text-anchor="start" x="1296" y="-517.5" font-family="Helvetica,sans-Serif" font-size="10.00">SimpleKeyGrabberButton</text>
<text text-anchor="middle" x="1351" y="-506.5" font-family="Helvetica,sans-Serif" font-size="10.00">::setValues</text>
</a>
</g>
</g>
<!-- Node1&#45;&gt;Node40 -->
<g id="edge64" class="edge">
<title>Node1&#45;&gt;Node40</title>
<path fill="none" stroke="midnightblue" d="M1529.52,-330.89C1517.2,-367.61 1485.48,-447.46 1431,-490.5 1425.94,-494.5 1420.22,-497.83 1414.22,-500.61"/>
<polygon fill="midnightblue" stroke="midnightblue" points="1532.86,-331.95 1532.6,-321.35 1526.2,-329.79 1532.86,-331.95"/>
</g>
<!-- Node4 -->
<g id="node4" class="node">
<title>Node4</title>
<g id="a_node4"><a xlink:href="$classAdvanceButtonDialog.html#a4f9a1a007f50de1c3cca1403d08a0790" xlink:title=" ">
<polygon fill="white" stroke="black" points="4.5,-446.5 4.5,-476.5 120.5,-476.5 120.5,-446.5 4.5,-446.5"/>
<text text-anchor="start" x="12.5" y="-464.5" font-family="Helvetica,sans-Serif" font-size="10.00">AdvanceButtonDialog</text>
<text text-anchor="middle" x="62.5" y="-453.5" font-family="Helvetica,sans-Serif" font-size="10.00">::AdvanceButtonDialog</text>
</a>
</g>
</g>
<!-- Node3&#45;&gt;Node4 -->
<g id="edge3" class="edge">
<title>Node3&#45;&gt;Node4</title>
<path fill="none" stroke="midnightblue" d="M176.29,-269.68C170.81,-272.43 165.61,-275.67 161,-279.5 105.56,-325.51 77.07,-411.47 67.39,-446.28"/>
<polygon fill="midnightblue" stroke="midnightblue" points="177.98,-272.76 185.71,-265.51 175.15,-266.36 177.98,-272.76"/>
</g>
<!-- Node6 -->
<g id="node6" class="node">
<title>Node6</title>
<g id="a_node6"><a xlink:href="$classJoyButtonXml.html#a9d7b2a6324a2f8fe4f424f78aa43d261" xlink:title=" ">
<polygon fill="white" stroke="black" points="910,-82.5 910,-112.5 1041,-112.5 1041,-82.5 910,-82.5"/>
<text text-anchor="start" x="918" y="-100.5" font-family="Helvetica,sans-Serif" font-size="10.00">JoyButtonXml::readButton</text>
<text text-anchor="middle" x="975.5" y="-89.5" font-family="Helvetica,sans-Serif" font-size="10.00">Config</text>
</a>
</g>
</g>
<!-- Node5&#45;&gt;Node6 -->
<g id="edge5" class="edge">
<title>Node5&#45;&gt;Node6</title>
<path fill="none" stroke="midnightblue" d="M1075.72,-104.01C1064.11,-103.24 1052.34,-102.47 1041.15,-101.74"/>
<polygon fill="midnightblue" stroke="midnightblue" points="1075.65,-107.51 1085.86,-104.67 1076.11,-100.52 1075.65,-107.51"/>
</g>
<!-- Node7 -->
<g id="node7" class="node">
<title>Node7</title>
<g id="a_node7"><a xlink:href="$classJoyButtonXml.html#a9d79d75b14b57419ed1fc5639dde8515" xlink:title=" ">
<polygon fill="white" stroke="black" points="726.5,-88 726.5,-107 857.5,-107 857.5,-88 726.5,-88"/>
<text text-anchor="middle" x="792" y="-95" font-family="Helvetica,sans-Serif" font-size="10.00">JoyButtonXml::readConfig</text>
</a>
</g>
</g>
<!-- Node6&#45;&gt;Node7 -->
<g id="edge6" class="edge">
<title>Node6&#45;&gt;Node7</title>
<path fill="none" stroke="midnightblue" d="M899.89,-97.5C885.86,-97.5 871.3,-97.5 857.6,-97.5"/>
<polygon fill="midnightblue" stroke="midnightblue" points="900,-101 910,-97.5 900,-94 900,-101"/>
</g>
<!-- Node11 -->
<g id="node11" class="node">
<title>Node11</title>
<g id="a_node11"><a xlink:href="$classGameControllerTriggerButton.html#a1c89ef4d420dfe360817c28bc1680c93" xlink:title=" ">
<polygon fill="white" stroke="black" points="720.5,-19.5 720.5,-49.5 863.5,-49.5 863.5,-19.5 720.5,-19.5"/>
<text text-anchor="start" x="728.5" y="-37.5" font-family="Helvetica,sans-Serif" font-size="10.00">GameControllerTriggerButton</text>
<text text-anchor="middle" x="792" y="-26.5" font-family="Helvetica,sans-Serif" font-size="10.00">::readJoystickConfig</text>
</a>
</g>
</g>
<!-- Node6&#45;&gt;Node11 -->
<g id="edge11" class="edge">
<title>Node6&#45;&gt;Node11</title>
<path fill="none" stroke="midnightblue" d="M921.34,-79.05C894.33,-69.67 861.92,-58.42 836.43,-49.58"/>
<polygon fill="midnightblue" stroke="midnightblue" points="920.43,-82.44 931.03,-82.41 922.73,-75.82 920.43,-82.44"/>
</g>
<!-- Node8 -->
<g id="node8" class="node">
<title>Node8</title>
<g id="a_node8"><a xlink:href="$classSetJoystickXml.html#aa95423a01fab878cbc69bffb7f6121f3" xlink:title=" ">
<polygon fill="white" stroke="black" points="357,-69 357,-88 495,-88 495,-69 357,-69"/>
<text text-anchor="middle" x="426" y="-76" font-family="Helvetica,sans-Serif" font-size="10.00">SetJoystickXml::readConfig</text>
</a>
</g>
</g>
<!-- Node7&#45;&gt;Node8 -->
<g id="edge7" class="edge">
<title>Node7&#45;&gt;Node8</title>
<path fill="none" stroke="midnightblue" d="M716.17,-93.59C651.21,-90.2 557.96,-85.34 495.07,-82.05"/>
<polygon fill="midnightblue" stroke="midnightblue" points="716.17,-97.1 726.34,-94.13 716.54,-90.11 716.17,-97.1"/>
</g>
<!-- Node9 -->
<g id="node9" class="node">
<title>Node9</title>
<g id="a_node9"><a xlink:href="$classJoyControlStick.html#ab6ce741115ee3d436c1a7e866abd21e6" xlink:title="Take a XML stream and set the stick and direction button properties according to the values contained...">
<polygon fill="white" stroke="black" points="537.5,-50 537.5,-69 676.5,-69 676.5,-50 537.5,-50"/>
<text text-anchor="middle" x="607" y="-57" font-family="Helvetica,sans-Serif" font-size="10.00">JoyControlStick::readConfig</text>
</a>
</g>
</g>
<!-- Node7&#45;&gt;Node9 -->
<g id="edge8" class="edge">
<title>Node7&#45;&gt;Node9</title>
<path fill="none" stroke="midnightblue" d="M734.75,-85.82C708.79,-80.43 678.38,-74.11 653.85,-69.02"/>
<polygon fill="midnightblue" stroke="midnightblue" points="734.32,-89.3 744.82,-87.91 735.74,-82.45 734.32,-89.3"/>
</g>
<!-- Node10 -->
<g id="node10" class="node">
<title>Node10</title>
<g id="a_node10"><a xlink:href="$classJoyDPadXml.html#ae9a3556242b984c81fc6945acafc5586" xlink:title=" ">
<polygon fill="white" stroke="black" points="531,-126.5 531,-156.5 683,-156.5 683,-126.5 531,-126.5"/>
<text text-anchor="start" x="539" y="-144.5" font-family="Helvetica,sans-Serif" font-size="10.00">JoyDPadXml&lt; GameController</text>
<text text-anchor="middle" x="607" y="-133.5" font-family="Helvetica,sans-Serif" font-size="10.00">DPad &gt;::readMainConfig</text>
</a>
</g>
</g>
<!-- Node7&#45;&gt;Node10 -->
<g id="edge10" class="edge">
<title>Node7&#45;&gt;Node10</title>
<path fill="none" stroke="midnightblue" d="M741.28,-109.46C719.51,-114.69 693.72,-120.89 670.66,-126.43"/>
<polygon fill="midnightblue" stroke="midnightblue" points="742.39,-112.79 751.29,-107.05 740.75,-105.98 742.39,-112.79"/>
</g>
<!-- Node9&#45;&gt;Node8 -->
<g id="edge9" class="edge">
<title>Node9&#45;&gt;Node8</title>
<path fill="none" stroke="midnightblue" d="M527.17,-67.87C516.52,-69 505.66,-70.15 495.21,-71.26"/>
<polygon fill="midnightblue" stroke="midnightblue" points="527.73,-71.33 537.31,-66.79 526.99,-64.37 527.73,-71.33"/>
</g>
<!-- Node12 -->
<g id="node12" class="node">
<title>Node12</title>
<g id="a_node12"><a xlink:href="$classGameControllerTriggerXml.html#a4578ad54daf8a24231e8b0e4e09f1587" xlink:title=" ">
<polygon fill="white" stroke="black" points="541.5,-0.5 541.5,-30.5 672.5,-30.5 672.5,-0.5 541.5,-0.5"/>
<text text-anchor="start" x="549.5" y="-18.5" font-family="Helvetica,sans-Serif" font-size="10.00">GameControllerTriggerXml</text>
<text text-anchor="middle" x="607" y="-7.5" font-family="Helvetica,sans-Serif" font-size="10.00">::readJoystickConfig</text>
</a>
</g>
</g>
<!-- Node11&#45;&gt;Node12 -->
<g id="edge12" class="edge">
<title>Node11&#45;&gt;Node12</title>
<path fill="none" stroke="midnightblue" d="M710.22,-26.11C697.63,-24.81 684.75,-23.47 672.58,-22.2"/>
<polygon fill="midnightblue" stroke="midnightblue" points="709.94,-29.6 720.25,-27.15 710.66,-22.64 709.94,-29.6"/>
</g>
<!-- Node13 -->
<g id="node13" class="node">
<title>Node13</title>
<g id="a_node13"><a xlink:href="$classGameControllerSet.html#a6b551139e353a654212d498309744025" xlink:title=" ">
<polygon fill="white" stroke="black" points="373,-0.5 373,-30.5 479,-30.5 479,-0.5 373,-0.5"/>
<text text-anchor="start" x="381" y="-18.5" font-family="Helvetica,sans-Serif" font-size="10.00">GameControllerSet::</text>
<text text-anchor="middle" x="426" y="-7.5" font-family="Helvetica,sans-Serif" font-size="10.00">readJoystickConfig</text>
</a>
</g>
</g>
<!-- Node12&#45;&gt;Node13 -->
<g id="edge13" class="edge">
<title>Node12&#45;&gt;Node13</title>
<path fill="none" stroke="midnightblue" d="M531.19,-15.5C513.71,-15.5 495.45,-15.5 479.2,-15.5"/>
<polygon fill="midnightblue" stroke="midnightblue" points="531.38,-19 541.38,-15.5 531.38,-12 531.38,-19"/>
</g>
<!-- Node14 -->
<g id="node14" class="node">
<title>Node14</title>
<g id="a_node14"><a xlink:href="$classGameControllerXml.html#aaa5257d4c6fe13f1d5fc51981e247c25" xlink:title=" ">
<polygon fill="white" stroke="black" points="187,-0.5 187,-30.5 295,-30.5 295,-0.5 187,-0.5"/>
<text text-anchor="start" x="195" y="-18.5" font-family="Helvetica,sans-Serif" font-size="10.00">GameControllerXml::</text>
<text text-anchor="middle" x="241" y="-7.5" font-family="Helvetica,sans-Serif" font-size="10.00">readJoystickConfig</text>
</a>
</g>
</g>
<!-- Node13&#45;&gt;Node14 -->
<g id="edge14" class="edge">
<title>Node13&#45;&gt;Node14</title>
<path fill="none" stroke="midnightblue" d="M362.37,-15.5C340.47,-15.5 316.12,-15.5 295.08,-15.5"/>
<polygon fill="midnightblue" stroke="midnightblue" points="362.56,-19 372.56,-15.5 362.56,-12 362.56,-19"/>
</g>
<!-- Node15 -->
<g id="node15" class="node">
<title>Node15</title>
<g id="a_node15"><a xlink:href="$classGameControllerXml.html#a7e47256cae0d3815419bc254413777d1" xlink:title=" ">
<polygon fill="white" stroke="black" points="8.5,-0.5 8.5,-30.5 116.5,-30.5 116.5,-0.5 8.5,-0.5"/>
<text text-anchor="start" x="16.5" y="-18.5" font-family="Helvetica,sans-Serif" font-size="10.00">GameControllerXml::</text>
<text text-anchor="middle" x="62.5" y="-7.5" font-family="Helvetica,sans-Serif" font-size="10.00">readConfig</text>
</a>
</g>
</g>
<!-- Node14&#45;&gt;Node15 -->
<g id="edge15" class="edge">
<title>Node14&#45;&gt;Node15</title>
<path fill="none" stroke="midnightblue" d="M176.51,-15.5C156.93,-15.5 135.57,-15.5 116.75,-15.5"/>
<polygon fill="midnightblue" stroke="midnightblue" points="176.57,-19 186.57,-15.5 176.57,-12 176.57,-19"/>
</g>
<!-- Node16&#45;&gt;Node5 -->
<g id="edge17" class="edge">
<title>Node16&#45;&gt;Node5</title>
<path fill="none" stroke="midnightblue" d="M1260.79,-109.5C1252.15,-109.5 1243.46,-109.5 1235.01,-109.5"/>
<polygon fill="midnightblue" stroke="midnightblue" points="1260.88,-113 1270.88,-109.5 1260.88,-106 1260.88,-113"/>
</g>
<!-- Node17&#45;&gt;Node4 -->
<g id="edge19" class="edge">
<title>Node17&#45;&gt;Node4</title>
<path fill="none" stroke="midnightblue" d="M1278.96,-483.12C1276.06,-485.3 1273.38,-487.75 1271,-490.5 1206.69,-564.72 1308.94,-643.88 1235,-708.5 1161.01,-773.17 891.26,-721.5 793,-721.5 793,-721.5 793,-721.5 425,-721.5 302,-721.5 256.18,-716.41 161,-638.5 106.57,-593.94 77.59,-510.61 67.59,-476.57"/>
<polygon fill="midnightblue" stroke="midnightblue" points="1281.04,-485.95 1287.63,-477.65 1277.3,-480.03 1281.04,-485.95"/>
</g>
<!-- Node18 -->
<g id="node18" class="node">
<title>Node18</title>
<g id="a_node18"><a xlink:href="$classAdvanceButtonDialog.html#af758d9978d99adab296ebd584020fa1b" xlink:title=" ">
<polygon fill="white" stroke="black" points="723.5,-487.5 723.5,-517.5 860.5,-517.5 860.5,-487.5 723.5,-487.5"/>
<text text-anchor="start" x="731.5" y="-505.5" font-family="Helvetica,sans-Serif" font-size="10.00">AdvanceButtonDialog</text>
<text text-anchor="middle" x="792" y="-494.5" font-family="Helvetica,sans-Serif" font-size="10.00">::checkSlotDistanceUpdate</text>
</a>
</g>
</g>
<!-- Node17&#45;&gt;Node18 -->
<g id="edge20" class="edge">
<title>Node17&#45;&gt;Node18</title>
<path fill="none" stroke="midnightblue" d="M1277.74,-464.05C1263.57,-463.82 1248.82,-463.62 1235,-463.5 1168.78,-462.92 1152.08,-459.12 1086,-463.5 1008.3,-468.65 919.76,-481.4 860.54,-490.93"/>
<polygon fill="midnightblue" stroke="midnightblue" points="1277.87,-467.55 1287.93,-464.22 1277.99,-460.56 1277.87,-467.55"/>
</g>
<!-- Node24 -->
<g id="node24" class="node">
<title>Node24</title>
<g id="a_node24"><a xlink:href="$classAdvanceButtonDialog.html#adde227692a4a5abc4f4e9cc027ba5866" xlink:title=" ">
<polygon fill="white" stroke="black" points="186,-288.5 186,-318.5 296,-318.5 296,-288.5 186,-288.5"/>
<text text-anchor="start" x="194" y="-306.5" font-family="Helvetica,sans-Serif" font-size="10.00">AdvanceButtonDialog</text>
<text text-anchor="middle" x="241" y="-295.5" font-family="Helvetica,sans-Serif" font-size="10.00">::splitSlot</text>
</a>
</g>
</g>
<!-- Node17&#45;&gt;Node24 -->
<g id="edge63" class="edge">
<title>Node17&#45;&gt;Node24</title>
<path fill="none" stroke="midnightblue" d="M1336.17,-441.73C1317.29,-411.47 1280.53,-359.86 1235,-332.5 1133.99,-271.8 1094.34,-273.5 976.5,-273.5 976.5,-273.5 976.5,-273.5 606,-273.5 495.67,-273.5 367.16,-287.36 296.15,-296.24"/>
<polygon fill="midnightblue" stroke="midnightblue" points="1333.26,-443.66 1341.45,-450.38 1339.23,-440.02 1333.26,-443.66"/>
</g>
<!-- Node25 -->
<g id="node25" class="node">
<title>Node25</title>
<g id="a_node25"><a xlink:href="$classAdvanceButtonDialog.html#a289c7e5a38da6675e6ae2dd1b333c81e" xlink:title=" ">
<polygon fill="white" stroke="black" points="719,-438.5 719,-468.5 865,-468.5 865,-438.5 719,-438.5"/>
<text text-anchor="start" x="727" y="-456.5" font-family="Helvetica,sans-Serif" font-size="10.00">AdvanceButtonDialog</text>
<text text-anchor="middle" x="792" y="-445.5" font-family="Helvetica,sans-Serif" font-size="10.00">::checkSlotMouseModUpdate</text>
</a>
</g>
</g>
<!-- Node17&#45;&gt;Node25 -->
<g id="edge33" class="edge">
<title>Node17&#45;&gt;Node25</title>
<path fill="none" stroke="midnightblue" d="M1302.41,-447.04C1281.99,-440.06 1257.66,-432.96 1235,-429.5 1165.87,-418.93 971.63,-435.52 865.12,-445.99"/>
<polygon fill="midnightblue" stroke="midnightblue" points="1301.5,-450.43 1312.09,-450.44 1303.82,-443.82 1301.5,-450.43"/>
</g>
<!-- Node26 -->
<g id="node26" class="node">
<title>Node26</title>
<g id="a_node26"><a xlink:href="$classAdvanceButtonDialog.html#a7fa5ece36cbdc4d0f2c74690b15e6527" xlink:title=" ">
<polygon fill="white" stroke="black" points="719,-214.5 719,-244.5 865,-244.5 865,-214.5 719,-214.5"/>
<text text-anchor="start" x="727" y="-232.5" font-family="Helvetica,sans-Serif" font-size="10.00">AdvanceButtonDialog</text>
<text text-anchor="middle" x="792" y="-221.5" font-family="Helvetica,sans-Serif" font-size="10.00">::checkSlotSetChangeUpdate</text>
</a>
</g>
</g>
<!-- Node17&#45;&gt;Node26 -->
<g id="edge36" class="edge">
<title>Node17&#45;&gt;Node26</title>
<path fill="none" stroke="midnightblue" d="M1344.34,-440.62C1332.63,-395.6 1301.15,-301.41 1235,-259.5 1121.95,-187.88 958.38,-199.76 865.2,-214.72"/>
<polygon fill="midnightblue" stroke="midnightblue" points="1340.97,-441.59 1346.78,-450.45 1347.76,-439.9 1340.97,-441.59"/>
</g>
<!-- Node27 -->
<g id="node27" class="node">
<title>Node27</title>
<g id="a_node27"><a xlink:href="$classAdvanceButtonDialog.html#aec7b800bbe03360bef5ec50c7699be12" xlink:title=" ">
<polygon fill="white" stroke="black" points="1101,-341.5 1101,-371.5 1220,-371.5 1220,-341.5 1101,-341.5"/>
<text text-anchor="start" x="1109" y="-359.5" font-family="Helvetica,sans-Serif" font-size="10.00">AdvanceButtonDialog</text>
<text text-anchor="middle" x="1160.5" y="-348.5" font-family="Helvetica,sans-Serif" font-size="10.00">::checkSlotTimeUpdate</text>
</a>
</g>
</g>
<!-- Node17&#45;&gt;Node27 -->
<g id="edge39" class="edge">
<title>Node17&#45;&gt;Node27</title>
<path fill="none" stroke="midnightblue" d="M1319.91,-444.63C1297.08,-429.18 1264.66,-408.02 1235,-391.5 1222.41,-384.49 1208.18,-377.51 1195.62,-371.64"/>
<polygon fill="midnightblue" stroke="midnightblue" points="1318.23,-447.73 1328.46,-450.46 1322.17,-441.94 1318.23,-447.73"/>
</g>
<!-- Node32 -->
<g id="node32" class="node">
<title>Node32</title>
<g id="a_node32"><a xlink:href="$classAdvanceButtonDialog.html#a9a53f03e9d1da8abc0d59c7e1d06f2fa" xlink:title=" ">
<polygon fill="white" stroke="black" points="1105.5,-521.5 1105.5,-551.5 1215.5,-551.5 1215.5,-521.5 1105.5,-521.5"/>
<text text-anchor="start" x="1113.5" y="-539.5" font-family="Helvetica,sans-Serif" font-size="10.00">AdvanceButtonDialog</text>
<text text-anchor="middle" x="1160.5" y="-528.5" font-family="Helvetica,sans-Serif" font-size="10.00">::insertCycleSlot</text>
</a>
</g>
</g>
<!-- Node17&#45;&gt;Node32 -->
<g id="edge48" class="edge">
<title>Node17&#45;&gt;Node32</title>
<path fill="none" stroke="midnightblue" d="M1286.58,-484.06C1281.25,-486.07 1275.99,-488.23 1271,-490.5 1253.94,-498.27 1252.03,-504.65 1235,-512.5 1227.93,-515.76 1220.29,-518.78 1212.7,-521.49"/>
<polygon fill="midnightblue" stroke="midnightblue" points="1288,-487.27 1296.22,-480.59 1285.62,-480.68 1288,-487.27"/>
</g>
<!-- Node35 -->
<g id="node35" class="node">
<title>Node35</title>
<g id="a_node35"><a xlink:href="$classAdvanceButtonDialog.html#a3f6402907f85d2edb4bfbb77a2381882" xlink:title=" ">
<polygon fill="white" stroke="black" points="1105.5,-472.5 1105.5,-502.5 1215.5,-502.5 1215.5,-472.5 1105.5,-472.5"/>
<text text-anchor="start" x="1113.5" y="-490.5" font-family="Helvetica,sans-Serif" font-size="10.00">AdvanceButtonDialog</text>
<text text-anchor="middle" x="1160.5" y="-479.5" font-family="Helvetica,sans-Serif" font-size="10.00">::insertExecuteSlot</text>
</a>
</g>
</g>
<!-- Node17&#45;&gt;Node35 -->
<g id="edge53" class="edge">
<title>Node17&#45;&gt;Node35</title>
<path fill="none" stroke="midnightblue" d="M1277.78,-473.93C1257.18,-476.33 1235.1,-478.91 1215.77,-481.17"/>
<polygon fill="midnightblue" stroke="midnightblue" points="1278.23,-477.4 1287.76,-472.76 1277.42,-470.45 1278.23,-477.4"/>
</g>
<!-- Node36 -->
<g id="node36" class="node">
<title>Node36</title>
<g id="a_node36"><a xlink:href="$classAdvanceButtonDialog.html#a86ab584db16c039fde480a23cce5dfde" xlink:title=" ">
<polygon fill="white" stroke="black" points="1105.5,-668.5 1105.5,-698.5 1215.5,-698.5 1215.5,-668.5 1105.5,-668.5"/>
<text text-anchor="start" x="1113.5" y="-686.5" font-family="Helvetica,sans-Serif" font-size="10.00">AdvanceButtonDialog</text>
<text text-anchor="middle" x="1160.5" y="-675.5" font-family="Helvetica,sans-Serif" font-size="10.00">::insertKindOfSlot</text>
</a>
</g>
</g>
<!-- Node17&#45;&gt;Node36 -->
<g id="edge55" class="edge">
<title>Node17&#45;&gt;Node36</title>
<path fill="none" stroke="midnightblue" d="M1279.11,-483.26C1276.17,-485.41 1273.44,-487.81 1271,-490.5 1219.38,-547.36 1286.36,-602.4 1235,-659.5 1229.7,-665.39 1222.94,-669.84 1215.68,-673.2"/>
<polygon fill="midnightblue" stroke="midnightblue" points="1281.19,-486.09 1287.87,-477.87 1277.52,-480.13 1281.19,-486.09"/>
</g>
<!-- Node37 -->
<g id="node37" class="node">
<title>Node37</title>
<g id="a_node37"><a xlink:href="$classAdvanceButtonDialog.html#a2efe6c11e48224ea986a09e05bc96353" xlink:title=" ">
<polygon fill="white" stroke="black" points="1105.5,-619.5 1105.5,-649.5 1215.5,-649.5 1215.5,-619.5 1105.5,-619.5"/>
<text text-anchor="start" x="1113.5" y="-637.5" font-family="Helvetica,sans-Serif" font-size="10.00">AdvanceButtonDialog</text>
<text text-anchor="middle" x="1160.5" y="-626.5" font-family="Helvetica,sans-Serif" font-size="10.00">::insertTextEntrySlot</text>
</a>
</g>
</g>
<!-- Node17&#45;&gt;Node37 -->
<g id="edge57" class="edge">
<title>Node17&#45;&gt;Node37</title>
<path fill="none" stroke="midnightblue" d="M1279.19,-483.63C1276.25,-485.68 1273.5,-487.96 1271,-490.5 1231.92,-530.17 1273.89,-570.65 1235,-610.5 1229.56,-616.07 1222.81,-620.35 1215.63,-623.64"/>
<polygon fill="midnightblue" stroke="midnightblue" points="1281.09,-486.58 1287.89,-478.45 1277.51,-480.56 1281.09,-486.58"/>
</g>
<!-- Node38 -->
<g id="node38" class="node">
<title>Node38</title>
<g id="a_node38"><a xlink:href="$classAdvanceButtonDialog.html#a437fdaa04ca6082ebb7416cf7ac4e6b5" xlink:title=" ">
<polygon fill="white" stroke="black" points="920.5,-750.5 920.5,-780.5 1030.5,-780.5 1030.5,-750.5 920.5,-750.5"/>
<text text-anchor="start" x="928.5" y="-768.5" font-family="Helvetica,sans-Serif" font-size="10.00">AdvanceButtonDialog</text>
<text text-anchor="middle" x="975.5" y="-757.5" font-family="Helvetica,sans-Serif" font-size="10.00">::placeNewSlot</text>
</a>
</g>
</g>
<!-- Node17&#45;&gt;Node38 -->
<g id="edge59" class="edge">
<title>Node17&#45;&gt;Node38</title>
<path fill="none" stroke="midnightblue" d="M1279.33,-482.73C1276.28,-485.01 1273.47,-487.59 1271,-490.5 1198.11,-576.45 1316.65,-663.82 1235,-741.5 1181.04,-792.84 1089.03,-787.9 1030.58,-777.94"/>
<polygon fill="midnightblue" stroke="midnightblue" points="1281.29,-485.63 1287.9,-477.36 1277.57,-479.7 1281.29,-485.63"/>
</g>
<!-- Node39 -->
<g id="node39" class="node">
<title>Node39</title>
<g id="a_node39"><a xlink:href="$classAdvanceButtonDialog.html#a537e84c8a495aa615b417b3851b59b62" xlink:title=" ">
<polygon fill="white" stroke="black" points="1098.5,-570.5 1098.5,-600.5 1222.5,-600.5 1222.5,-570.5 1098.5,-570.5"/>
<text text-anchor="start" x="1106.5" y="-588.5" font-family="Helvetica,sans-Serif" font-size="10.00">AdvanceButtonDialog</text>
<text text-anchor="middle" x="1160.5" y="-577.5" font-family="Helvetica,sans-Serif" font-size="10.00">::showSelectProfileWind</text>
</a>
</g>
</g>
<!-- Node17&#45;&gt;Node39 -->
<g id="edge61" class="edge">
<title>Node17&#45;&gt;Node39</title>
<path fill="none" stroke="midnightblue" d="M1279.07,-484.61C1276.23,-486.4 1273.52,-488.36 1271,-490.5 1244.03,-513.4 1261.86,-538.48 1235,-561.5 1231.02,-564.91 1226.56,-567.83 1221.83,-570.34"/>
<polygon fill="midnightblue" stroke="midnightblue" points="1280.86,-487.62 1287.92,-479.72 1277.47,-481.49 1280.86,-487.62"/>
</g>
<!-- Node18&#45;&gt;Node4 -->
<g id="edge21" class="edge">
<title>Node18&#45;&gt;Node4</title>
<path fill="none" stroke="midnightblue" d="M713.18,-500.83C594.08,-497.85 359.51,-490.26 161,-473.5 147.91,-472.4 133.88,-470.87 120.65,-469.28"/>
<polygon fill="midnightblue" stroke="midnightblue" points="713.21,-504.33 723.3,-501.08 713.39,-497.34 713.21,-504.33"/>
</g>
<!-- Node19 -->
<g id="node19" class="node">
<title>Node19</title>
<g id="a_node19"><a xlink:href="$classAdvanceButtonDialog.html#a31e78ce60334e0bcef5dad4cd43ee1e9" xlink:title=" ">
<polygon fill="white" stroke="black" points="535,-402.5 535,-432.5 679,-432.5 679,-402.5 535,-402.5"/>
<text text-anchor="start" x="543" y="-420.5" font-family="Helvetica,sans-Serif" font-size="10.00">AdvanceButtonDialog</text>
<text text-anchor="middle" x="607" y="-409.5" font-family="Helvetica,sans-Serif" font-size="10.00">::performStatsWidgetRefresh</text>
</a>
</g>
</g>
<!-- Node18&#45;&gt;Node19 -->
<g id="edge22" class="edge">
<title>Node18&#45;&gt;Node19</title>
<path fill="none" stroke="midnightblue" d="M732.36,-483.94C727.8,-482.2 723.3,-480.38 719,-478.5 688.17,-465.02 654.55,-445.87 632.48,-432.63"/>
<polygon fill="midnightblue" stroke="midnightblue" points="731.16,-487.23 741.75,-487.41 733.58,-480.66 731.16,-487.23"/>
</g>
<!-- Node19&#45;&gt;Node4 -->
<g id="edge23" class="edge">
<title>Node19&#45;&gt;Node4</title>
<path fill="none" stroke="midnightblue" d="M524.89,-421.13C435.57,-425.56 287.79,-434.14 161,-447.5 147.9,-448.88 133.87,-450.7 120.64,-452.56"/>
<polygon fill="midnightblue" stroke="midnightblue" points="525.14,-424.62 534.95,-420.64 524.79,-417.63 525.14,-424.62"/>
</g>
<!-- Node20 -->
<g id="node20" class="node">
<title>Node20</title>
<g id="a_node20"><a xlink:href="$classAdvanceButtonDialog.html#aa97a397aca5e36a6b580309e04ac3a9d" xlink:title=" ">
<polygon fill="white" stroke="black" points="371,-528.5 371,-558.5 481,-558.5 481,-528.5 371,-528.5"/>
<text text-anchor="start" x="379" y="-546.5" font-family="Helvetica,sans-Serif" font-size="10.00">AdvanceButtonDialog</text>
<text text-anchor="middle" x="426" y="-535.5" font-family="Helvetica,sans-Serif" font-size="10.00">::clearAllSlots</text>
</a>
</g>
</g>
<!-- Node19&#45;&gt;Node20 -->
<g id="edge24" class="edge">
<title>Node19&#45;&gt;Node20</title>
<path fill="none" stroke="midnightblue" d="M576.21,-438.47C540.12,-463.87 480.21,-506.05 448.39,-528.44"/>
<polygon fill="midnightblue" stroke="midnightblue" points="578.25,-441.32 584.41,-432.7 574.22,-435.59 578.25,-441.32"/>
</g>
<!-- Node23 -->
<g id="node23" class="node">
<title>Node23</title>
<g id="a_node23"><a xlink:href="$classAdvanceButtonDialog.html#a5e7b569639f67d97fdcf89f6733f4421" xlink:title=" ">
<polygon fill="white" stroke="black" points="371,-307.5 371,-337.5 481,-337.5 481,-307.5 371,-307.5"/>
<text text-anchor="start" x="379" y="-325.5" font-family="Helvetica,sans-Serif" font-size="10.00">AdvanceButtonDialog</text>
<text text-anchor="middle" x="426" y="-314.5" font-family="Helvetica,sans-Serif" font-size="10.00">::deleteSlot</text>
</a>
</g>
</g>
<!-- Node19&#45;&gt;Node23 -->
<g id="edge28" class="edge">
<title>Node19&#45;&gt;Node23</title>
<path fill="none" stroke="midnightblue" d="M568.57,-397.63C534.89,-379.76 486.14,-353.89 455.53,-337.64"/>
<polygon fill="midnightblue" stroke="midnightblue" points="567.16,-400.85 577.64,-402.45 570.44,-394.67 567.16,-400.85"/>
</g>
<!-- Node20&#45;&gt;Node4 -->
<g id="edge25" class="edge">
<title>Node20&#45;&gt;Node4</title>
<path fill="none" stroke="midnightblue" d="M360.76,-542.9C306.43,-540.83 227.1,-534.06 161,-513.5 133.71,-505.01 105.15,-488.79 86.06,-476.71"/>
<polygon fill="midnightblue" stroke="midnightblue" points="360.83,-546.41 370.95,-543.25 361.07,-539.41 360.83,-546.41"/>
</g>
<!-- Node21 -->
<g id="node21" class="node">
<title>Node21</title>
<g id="a_node21"><a xlink:href="$classButtonEditDialog.html#ade8d1ee4ae03d1080932a70c8170d488" xlink:title=" ">
<polygon fill="white" stroke="black" points="161,-750.5 161,-780.5 321,-780.5 321,-750.5 161,-750.5"/>
<text text-anchor="start" x="169" y="-768.5" font-family="Helvetica,sans-Serif" font-size="10.00">ButtonEditDialog::openAdvanced</text>
<text text-anchor="middle" x="241" y="-757.5" font-family="Helvetica,sans-Serif" font-size="10.00">Dialog</text>
</a>
</g>
</g>
<!-- Node20&#45;&gt;Node21 -->
<g id="edge26" class="edge">
<title>Node20&#45;&gt;Node21</title>
<path fill="none" stroke="midnightblue" d="M405.96,-566.6C368.43,-612.13 285.81,-712.36 254.42,-750.43"/>
<polygon fill="midnightblue" stroke="midnightblue" points="408.76,-568.7 412.42,-558.76 403.36,-564.25 408.76,-568.7"/>
</g>
<!-- Node22 -->
<g id="node22" class="node">
<title>Node22</title>
<g id="a_node22"><a xlink:href="$classButtonEditDialog.html#a3e9feede100cbb6a11c9d87659c196ea" xlink:title=" ">
<polygon fill="white" stroke="black" points="0,-750.5 0,-780.5 125,-780.5 125,-750.5 0,-750.5"/>
<text text-anchor="start" x="8" y="-768.5" font-family="Helvetica,sans-Serif" font-size="10.00">ButtonEditDialog::Button</text>
<text text-anchor="middle" x="62.5" y="-757.5" font-family="Helvetica,sans-Serif" font-size="10.00">EditDialog</text>
</a>
</g>
</g>
<!-- Node21&#45;&gt;Node22 -->
<g id="edge27" class="edge">
<title>Node21&#45;&gt;Node22</title>
<path fill="none" stroke="midnightblue" d="M150.7,-765.5C142.1,-765.5 133.51,-765.5 125.26,-765.5"/>
<polygon fill="midnightblue" stroke="midnightblue" points="150.79,-769 160.78,-765.5 150.78,-762 150.79,-769"/>
</g>
<!-- Node23&#45;&gt;Node3 -->
<g id="edge30" class="edge">
<title>Node23&#45;&gt;Node3</title>
<path fill="none" stroke="midnightblue" d="M381.3,-303.46C362.84,-295.67 341.01,-286.79 321,-279.5 311.67,-276.1 301.64,-272.72 291.95,-269.59"/>
<polygon fill="midnightblue" stroke="midnightblue" points="380.05,-306.73 390.62,-307.42 382.79,-300.29 380.05,-306.73"/>
</g>
<!-- Node23&#45;&gt;Node4 -->
<g id="edge29" class="edge">
<title>Node23&#45;&gt;Node4</title>
<path fill="none" stroke="midnightblue" d="M360.84,-330.25C294.29,-339.02 195.24,-354.34 161,-371.5 124.55,-389.76 91.89,-425.8 75.21,-446.3"/>
<polygon fill="midnightblue" stroke="midnightblue" points="361.36,-333.71 370.82,-328.95 360.46,-326.77 361.36,-333.71"/>
</g>
<!-- Node23&#45;&gt;Node24 -->
<g id="edge31" class="edge">
<title>Node23&#45;&gt;Node24</title>
<path fill="none" stroke="midnightblue" d="M360.47,-315.8C339.46,-313.62 316.37,-311.22 296.2,-309.13"/>
<polygon fill="midnightblue" stroke="midnightblue" points="360.28,-319.3 370.59,-316.85 361,-312.34 360.28,-319.3"/>
</g>
<!-- Node24&#45;&gt;Node4 -->
<g id="edge32" class="edge">
<title>Node24&#45;&gt;Node4</title>
<path fill="none" stroke="midnightblue" d="M178.52,-322.85C172.34,-325.96 166.37,-329.49 161,-333.5 118.7,-365.09 85.71,-419.8 71.35,-446.28"/>
<polygon fill="midnightblue" stroke="midnightblue" points="180.08,-325.99 187.69,-318.62 177.15,-319.64 180.08,-325.99"/>
</g>
<!-- Node25&#45;&gt;Node4 -->
<g id="edge34" class="edge">
<title>Node25&#45;&gt;Node4</title>
<path fill="none" stroke="midnightblue" d="M708.92,-454.4C560.06,-456.04 249.12,-459.46 120.79,-460.87"/>
<polygon fill="midnightblue" stroke="midnightblue" points="708.96,-457.9 718.92,-454.29 708.88,-450.9 708.96,-457.9"/>
</g>
<!-- Node25&#45;&gt;Node19 -->
<g id="edge35" class="edge">
<title>Node25&#45;&gt;Node19</title>
<path fill="none" stroke="midnightblue" d="M709.02,-437.37C699.04,-435.41 688.9,-433.42 679.1,-431.49"/>
<polygon fill="midnightblue" stroke="midnightblue" points="708.45,-440.83 718.94,-439.32 709.8,-433.96 708.45,-440.83"/>
</g>
<!-- Node26&#45;&gt;Node4 -->
<g id="edge37" class="edge">
<title>Node26&#45;&gt;Node4</title>
<path fill="none" stroke="midnightblue" d="M737.24,-211.42C620.91,-175.9 341.8,-110.36 161,-230.5 85.04,-280.97 68.11,-403.54 64.46,-446.4"/>
<polygon fill="midnightblue" stroke="midnightblue" points="736.4,-214.83 746.99,-214.45 738.47,-208.14 736.4,-214.83"/>
</g>
<!-- Node26&#45;&gt;Node19 -->
<g id="edge38" class="edge">
<title>Node26&#45;&gt;Node19</title>
<path fill="none" stroke="midnightblue" d="M769.34,-251.75C731.64,-290.48 654.92,-369.29 622.74,-402.36"/>
<polygon fill="midnightblue" stroke="midnightblue" points="771.87,-254.17 776.33,-244.57 766.85,-249.29 771.87,-254.17"/>
</g>
<!-- Node27&#45;&gt;Node4 -->
<g id="edge40" class="edge">
<title>Node27&#45;&gt;Node4</title>
<path fill="none" stroke="midnightblue" d="M1094.81,-339.21C1080.18,-336 1064.64,-333.15 1050,-331.5 903.81,-315.02 865.56,-318.73 719,-331.5 468.16,-353.36 405.25,-368.31 161,-429.5 142.34,-434.18 122.07,-440.6 104.87,-446.47"/>
<polygon fill="midnightblue" stroke="midnightblue" points="1094.24,-342.67 1104.77,-341.47 1095.79,-335.84 1094.24,-342.67"/>
</g>
<!-- Node28 -->
<g id="node28" class="node">
<title>Node28</title>
<g id="a_node28"><a xlink:href="$classAdvanceButtonDialog.html#ae845213154214835f35b01653c3c8cd6" xlink:title=" ">
<polygon fill="white" stroke="black" points="907.5,-389.5 907.5,-419.5 1043.5,-419.5 1043.5,-389.5 907.5,-389.5"/>
<text text-anchor="start" x="915.5" y="-407.5" font-family="Helvetica,sans-Serif" font-size="10.00">AdvanceButtonDialog</text>
<text text-anchor="middle" x="975.5" y="-396.5" font-family="Helvetica,sans-Serif" font-size="10.00">::connectTimeBoxesEvents</text>
</a>
</g>
</g>
<!-- Node27&#45;&gt;Node28 -->
<g id="edge41" class="edge">
<title>Node27&#45;&gt;Node28</title>
<path fill="none" stroke="midnightblue" d="M1092.21,-374.15C1073,-379.19 1052.25,-384.63 1033.7,-389.5"/>
<polygon fill="midnightblue" stroke="midnightblue" points="1093.31,-377.48 1102.1,-371.56 1091.54,-370.71 1093.31,-377.48"/>
</g>
<!-- Node31 -->
<g id="node31" class="node">
<title>Node31</title>
<g id="a_node31"><a xlink:href="$classAdvanceButtonDialog.html#addf68258b6fb4eeae4dde34fc0fb92e7" xlink:title=" ">
<polygon fill="white" stroke="black" points="901,-340.5 901,-370.5 1050,-370.5 1050,-340.5 901,-340.5"/>
<text text-anchor="start" x="909" y="-358.5" font-family="Helvetica,sans-Serif" font-size="10.00">AdvanceButtonDialog</text>
<text text-anchor="middle" x="975.5" y="-347.5" font-family="Helvetica,sans-Serif" font-size="10.00">::disconnectTimeBoxesEvents</text>
</a>
</g>
</g>
<!-- Node27&#45;&gt;Node31 -->
<g id="edge45" class="edge">
<title>Node27&#45;&gt;Node31</title>
<path fill="none" stroke="midnightblue" d="M1090.47,-356.12C1077.33,-356.05 1063.53,-355.98 1050.25,-355.9"/>
<polygon fill="midnightblue" stroke="midnightblue" points="1090.82,-359.62 1100.84,-356.18 1090.86,-352.62 1090.82,-359.62"/>
</g>
<!-- Node29 -->
<g id="node29" class="node">
<title>Node29</title>
<g id="a_node29"><a xlink:href="$classAdvanceButtonDialog.html#a31876eda1370e7e4190f02c8c5863755" xlink:title=" ">
<polygon fill="white" stroke="black" points="725.5,-389.5 725.5,-419.5 858.5,-419.5 858.5,-389.5 725.5,-389.5"/>
<text text-anchor="start" x="733.5" y="-407.5" font-family="Helvetica,sans-Serif" font-size="10.00">AdvanceButtonDialog</text>
<text text-anchor="middle" x="792" y="-396.5" font-family="Helvetica,sans-Serif" font-size="10.00">::refreshTimeComboBoxes</text>
</a>
</g>
</g>
<!-- Node28&#45;&gt;Node29 -->
<g id="edge42" class="edge">
<title>Node28&#45;&gt;Node29</title>
<path fill="none" stroke="midnightblue" d="M897.22,-404.5C884.35,-404.5 871.12,-404.5 858.58,-404.5"/>
<polygon fill="midnightblue" stroke="midnightblue" points="897.43,-408 907.43,-404.5 897.43,-401 897.43,-408"/>
</g>
<!-- Node30 -->
<g id="node30" class="node">
<title>Node30</title>
<g id="a_node30"><a xlink:href="$classAdvanceButtonDialog.html#a634243c95c88918cdb195f5417a585fa" xlink:title=" ">
<polygon fill="white" stroke="black" points="737,-340.5 737,-370.5 847,-370.5 847,-340.5 737,-340.5"/>
<text text-anchor="start" x="745" y="-358.5" font-family="Helvetica,sans-Serif" font-size="10.00">AdvanceButtonDialog</text>
<text text-anchor="middle" x="792" y="-347.5" font-family="Helvetica,sans-Serif" font-size="10.00">::resetTimeBoxes</text>
</a>
</g>
</g>
<!-- Node28&#45;&gt;Node30 -->
<g id="edge44" class="edge">
<title>Node28&#45;&gt;Node30</title>
<path fill="none" stroke="midnightblue" d="M908.8,-386.76C888.58,-381.3 866.56,-375.36 847.2,-370.13"/>
<polygon fill="midnightblue" stroke="midnightblue" points="908,-390.17 918.56,-389.4 909.82,-383.41 908,-390.17"/>
</g>
<!-- Node29&#45;&gt;Node19 -->
<g id="edge43" class="edge">
<title>Node29&#45;&gt;Node19</title>
<path fill="none" stroke="midnightblue" d="M715.14,-409.89C703.27,-410.73 691.05,-411.6 679.29,-412.44"/>
<polygon fill="midnightblue" stroke="midnightblue" points="715.72,-413.36 725.45,-409.16 715.23,-406.37 715.72,-413.36"/>
</g>
<!-- Node31&#45;&gt;Node29 -->
<g id="edge46" class="edge">
<title>Node31&#45;&gt;Node29</title>
<path fill="none" stroke="midnightblue" d="M908.76,-373.25C889.09,-378.56 867.72,-384.33 848.75,-389.45"/>
<polygon fill="midnightblue" stroke="midnightblue" points="909.82,-376.59 918.56,-370.6 908,-369.83 909.82,-376.59"/>
</g>
<!-- Node31&#45;&gt;Node30 -->
<g id="edge47" class="edge">
<title>Node31&#45;&gt;Node30</title>
<path fill="none" stroke="midnightblue" d="M890.74,-355.5C875.93,-355.5 860.87,-355.5 847.15,-355.5"/>
<polygon fill="midnightblue" stroke="midnightblue" points="890.94,-359 900.94,-355.5 890.94,-352 890.94,-359"/>
</g>
<!-- Node33 -->
<g id="node33" class="node">
<title>Node33</title>
<g id="a_node33"><a xlink:href="$classAdvanceButtonDialog.html#a973a9cf7b58950cda18e39fdffb87e09" xlink:title=" ">
<polygon fill="white" stroke="black" points="920.5,-572.5 920.5,-602.5 1030.5,-602.5 1030.5,-572.5 920.5,-572.5"/>
<text text-anchor="start" x="928.5" y="-590.5" font-family="Helvetica,sans-Serif" font-size="10.00">AdvanceButtonDialog</text>
<text text-anchor="middle" x="975.5" y="-579.5" font-family="Helvetica,sans-Serif" font-size="10.00">::insertSlot</text>
</a>
</g>
</g>
<!-- Node32&#45;&gt;Node33 -->
<g id="edge49" class="edge">
<title>Node32&#45;&gt;Node33</title>
<path fill="none" stroke="midnightblue" d="M1095.94,-554.21C1074.55,-560.17 1050.91,-566.76 1030.35,-572.49"/>
<polygon fill="midnightblue" stroke="midnightblue" points="1096.89,-557.58 1105.58,-551.53 1095.01,-550.84 1096.89,-557.58"/>
</g>
<!-- Node33&#45;&gt;Node4 -->
<g id="edge50" class="edge">
<title>Node33&#45;&gt;Node4</title>
<path fill="none" stroke="midnightblue" d="M910.04,-587.5C836.84,-587.5 713.83,-587.5 608,-587.5 608,-587.5 608,-587.5 425,-587.5 305.82,-587.5 269.4,-590.03 161,-540.5 127.12,-525.02 95,-494.97 77.4,-476.72"/>
<polygon fill="midnightblue" stroke="midnightblue" points="910.47,-591 920.47,-587.5 910.47,-584 910.47,-591"/>
</g>
<!-- Node34 -->
<g id="node34" class="node">
<title>Node34</title>
<g id="a_node34"><a xlink:href="$classAdvanceButtonDialog.html#af8430c4a355c90c657d69a44a85e6b84" xlink:title=" ">
<polygon fill="white" stroke="black" points="538.5,-616.5 538.5,-646.5 675.5,-646.5 675.5,-616.5 538.5,-616.5"/>
<text text-anchor="start" x="546.5" y="-634.5" font-family="Helvetica,sans-Serif" font-size="10.00">AdvanceButtonDialog</text>
<text text-anchor="middle" x="607" y="-623.5" font-family="Helvetica,sans-Serif" font-size="10.00">::showSelectProfileWindow</text>
</a>
</g>
</g>
<!-- Node33&#45;&gt;Node34 -->
<g id="edge51" class="edge">
<title>Node33&#45;&gt;Node34</title>
<path fill="none" stroke="midnightblue" d="M910.35,-595.82C895.47,-597.72 879.68,-599.7 865,-601.5 800.79,-609.35 727.5,-617.86 675.66,-623.81"/>
<polygon fill="midnightblue" stroke="midnightblue" points="911.02,-599.26 920.49,-594.52 910.13,-592.32 911.02,-599.26"/>
</g>
<!-- Node34&#45;&gt;Node4 -->
<g id="edge52" class="edge">
<title>Node34&#45;&gt;Node4</title>
<path fill="none" stroke="midnightblue" d="M528.36,-645.5C434.76,-658.25 275.77,-666.43 161,-601.5 110.73,-573.06 80.47,-506.72 68.91,-476.71"/>
<polygon fill="midnightblue" stroke="midnightblue" points="528.91,-648.95 538.32,-644.09 527.93,-642.02 528.91,-648.95"/>
</g>
<!-- Node35&#45;&gt;Node33 -->
<g id="edge54" class="edge">
<title>Node35&#45;&gt;Node33</title>
<path fill="none" stroke="midnightblue" d="M1099.65,-506.31C1094.97,-508.25 1090.37,-510.31 1086,-512.5 1052,-529.52 1016.34,-555.76 995.28,-572.26"/>
<polygon fill="midnightblue" stroke="midnightblue" points="1101.3,-509.42 1109.33,-502.51 1098.74,-502.9 1101.3,-509.42"/>
</g>
<!-- Node36&#45;&gt;Node33 -->
<g id="edge56" class="edge">
<title>Node36&#45;&gt;Node33</title>
<path fill="none" stroke="midnightblue" d="M1097.85,-664.73C1093.8,-663.08 1089.81,-661.33 1086,-659.5 1052.58,-643.41 1017.33,-618.62 996.12,-602.73"/>
<polygon fill="midnightblue" stroke="midnightblue" points="1096.82,-668.09 1107.41,-668.41 1099.34,-661.55 1096.82,-668.09"/>
</g>
<!-- Node37&#45;&gt;Node33 -->
<g id="edge58" class="edge">
<title>Node37&#45;&gt;Node33</title>
<path fill="none" stroke="midnightblue" d="M1095.25,-618C1074.17,-612.58 1050.96,-606.62 1030.7,-601.42"/>
<polygon fill="midnightblue" stroke="midnightblue" points="1094.53,-621.43 1105.09,-620.53 1096.27,-614.65 1094.53,-621.43"/>
</g>
<!-- Node38&#45;&gt;Node21 -->
<g id="edge60" class="edge">
<title>Node38&#45;&gt;Node21</title>
<path fill="none" stroke="midnightblue" d="M910.23,-765.5C776.21,-765.5 467.27,-765.5 321.23,-765.5"/>
<polygon fill="midnightblue" stroke="midnightblue" points="910.34,-769 920.34,-765.5 910.34,-762 910.34,-769"/>
</g>
<!-- Node39&#45;&gt;Node33 -->
<g id="edge62" class="edge">
<title>Node39&#45;&gt;Node33</title>
<path fill="none" stroke="midnightblue" d="M1088.13,-586.28C1068.98,-586.49 1048.6,-586.71 1030.57,-586.91"/>
<polygon fill="midnightblue" stroke="midnightblue" points="1088.35,-589.78 1098.31,-586.17 1088.27,-582.78 1088.35,-589.78"/>
</g>
<!-- Node40&#45;&gt;Node4 -->
<g id="edge65" class="edge">
<title>Node40&#45;&gt;Node4</title>
<path fill="none" stroke="midnightblue" d="M1279.36,-531.75C1276.3,-534.03 1273.48,-536.6 1271,-539.5 1201.75,-620.47 1311.23,-702.06 1235,-776.5 1152.13,-857.42 1092.32,-809.5 976.5,-809.5 976.5,-809.5 976.5,-809.5 425,-809.5 307.36,-809.5 252.67,-864.22 161,-790.5 109.93,-749.43 74.63,-535.98 65.71,-476.75"/>
<polygon fill="midnightblue" stroke="midnightblue" points="1281.31,-534.66 1287.95,-526.39 1277.61,-528.72 1281.31,-534.66"/>
</g>
</g>
</svg>
