<?xml version="1.0" encoding="UTF-8" standalone="no"?>
<!DOCTYPE svg PUBLIC "-//W3C//DTD SVG 1.1//EN"
 "http://www.w3.org/Graphics/SVG/1.1/DTD/svg11.dtd">
<!-- Generated by graphviz version 2.43.0 (0)
 -->
<!-- Title: JoyControlStick::calculateXDistanceFromDeadZone Pages: 1 -->
<svg width="501pt" height="137pt"
 viewBox="0.00 0.00 501.00 137.00" xmlns="http://www.w3.org/2000/svg" xmlns:xlink="http://www.w3.org/1999/xlink">
<g id="graph0" class="graph" transform="scale(1 1) rotate(0) translate(4 133)">
<title>JoyControlStick::calculateXDistanceFromDeadZone</title>
<polygon fill="white" stroke="transparent" points="-4,4 -4,-133 497,-133 497,4 -4,4"/>
<!-- Node1 -->
<g id="node1" class="node">
<title>Node1</title>
<g id="a_node1"><a xlink:title="Get distance of the X axis past the assigned dead zone based on the passed X and Y axis values for th...">
<polygon fill="#bfbfbf" stroke="black" points="0,-49.5 0,-79.5 131,-79.5 131,-49.5 0,-49.5"/>
<text text-anchor="start" x="8" y="-67.5" font-family="Helvetica,sans-Serif" font-size="10.00">JoyControlStick::calculate</text>
<text text-anchor="middle" x="65.5" y="-56.5" font-family="Helvetica,sans-Serif" font-size="10.00">XDistanceFromDeadZone</text>
</a>
</g>
</g>
<!-- Node2 -->
<g id="node2" class="node">
<title>Node2</title>
<g id="a_node2"><a xlink:href="$classJoyControlStick.html#a9a9a23ba2fd1d4304e759a2de2985a69" xlink:title="Calculate the current direction of the stick based on the values of the X and Y axes and the current ...">
<polygon fill="white" stroke="black" points="173,-98.5 173,-128.5 304,-128.5 304,-98.5 173,-98.5"/>
<text text-anchor="start" x="181" y="-116.5" font-family="Helvetica,sans-Serif" font-size="10.00">JoyControlStick::calculate</text>
<text text-anchor="middle" x="238.5" y="-105.5" font-family="Helvetica,sans-Serif" font-size="10.00">StickDirection</text>
</a>
</g>
</g>
<!-- Node1&#45;&gt;Node2 -->
<g id="edge1" class="edge">
<title>Node1&#45;&gt;Node2</title>
<path fill="none" stroke="midnightblue" d="M119.2,-79.6C136.92,-84.68 156.85,-90.39 175.23,-95.66"/>
<polygon fill="midnightblue" stroke="midnightblue" points="174.4,-99.06 184.97,-98.45 176.32,-92.33 174.4,-99.06"/>
</g>
<!-- Node4 -->
<g id="node4" class="node">
<title>Node4</title>
<g id="a_node4"><a xlink:href="$classJoyControlStick.html#a40e3aafc2c097e430c76d3cfc839e358" xlink:title="Get the raw radial distance of the stick. Values will be between 0 &#45; 32,767.">
<polygon fill="white" stroke="black" points="167,-49.5 167,-79.5 310,-79.5 310,-49.5 167,-49.5"/>
<text text-anchor="start" x="175" y="-67.5" font-family="Helvetica,sans-Serif" font-size="10.00">JoyControlStick::getAbsolute</text>
<text text-anchor="middle" x="238.5" y="-56.5" font-family="Helvetica,sans-Serif" font-size="10.00">RawDistance</text>
</a>
</g>
</g>
<!-- Node1&#45;&gt;Node4 -->
<g id="edge3" class="edge">
<title>Node1&#45;&gt;Node4</title>
<path fill="none" stroke="midnightblue" d="M131.15,-64.5C139.51,-64.5 148.15,-64.5 156.73,-64.5"/>
<polygon fill="midnightblue" stroke="midnightblue" points="156.76,-68 166.76,-64.5 156.76,-61 156.76,-68"/>
</g>
<!-- Node5 -->
<g id="node5" class="node">
<title>Node5</title>
<g id="a_node5"><a xlink:href="$classJoyControlStick.html#af1d63f69041b08e3e1e086768a4c22cf" xlink:title=" ">
<polygon fill="white" stroke="black" points="167,-0.5 167,-30.5 310,-30.5 310,-0.5 167,-0.5"/>
<text text-anchor="start" x="175" y="-18.5" font-family="Helvetica,sans-Serif" font-size="10.00">JoyControlStick::getDiagonal</text>
<text text-anchor="middle" x="238.5" y="-7.5" font-family="Helvetica,sans-Serif" font-size="10.00">ZoneAngles</text>
</a>
</g>
</g>
<!-- Node1&#45;&gt;Node5 -->
<g id="edge5" class="edge">
<title>Node1&#45;&gt;Node5</title>
<path fill="none" stroke="midnightblue" d="M119.2,-49.4C136.92,-44.32 156.85,-38.61 175.23,-33.34"/>
<polygon fill="midnightblue" stroke="midnightblue" points="176.32,-36.67 184.97,-30.55 174.4,-29.94 176.32,-36.67"/>
</g>
<!-- Node3 -->
<g id="node3" class="node">
<title>Node3</title>
<g id="a_node3"><a xlink:href="$classJoyAxis.html#a0580ab0df546a1c03b4e8f755ad00272" xlink:title=" ">
<polygon fill="white" stroke="black" points="346,-79 346,-98 493,-98 493,-79 346,-79"/>
<text text-anchor="middle" x="419.5" y="-86" font-family="Helvetica,sans-Serif" font-size="10.00">JoyAxis::getCurrentRawValue</text>
</a>
</g>
</g>
<!-- Node2&#45;&gt;Node3 -->
<g id="edge2" class="edge">
<title>Node2&#45;&gt;Node3</title>
<path fill="none" stroke="midnightblue" d="M304.12,-104.47C315.86,-102.84 328.21,-101.11 340.29,-99.42"/>
<polygon fill="midnightblue" stroke="midnightblue" points="340.93,-102.87 350.35,-98.02 339.96,-95.94 340.93,-102.87"/>
</g>
<!-- Node4&#45;&gt;Node3 -->
<g id="edge4" class="edge">
<title>Node4&#45;&gt;Node3</title>
<path fill="none" stroke="midnightblue" d="M310.25,-73.99C319.12,-75.18 328.25,-76.4 337.27,-77.61"/>
<polygon fill="midnightblue" stroke="midnightblue" points="337.01,-81.11 347.39,-78.97 337.94,-74.17 337.01,-81.11"/>
</g>
</g>
</svg>
