<?xml version="1.0" encoding="UTF-8" standalone="no"?>
<!DOCTYPE svg PUBLIC "-//W3C//DTD SVG 1.1//EN"
 "http://www.w3.org/Graphics/SVG/1.1/DTD/svg11.dtd">
<!-- Generated by graphviz version 2.43.0 (0)
 -->
<!-- Title: AutoProfileWatcher::runAppCheck Pages: 1 -->
<svg width="879pt" height="851pt"
 viewBox="0.00 0.00 879.00 850.57" xmlns="http://www.w3.org/2000/svg" xmlns:xlink="http://www.w3.org/1999/xlink">
<g id="graph0" class="graph" transform="scale(1 1) rotate(0) translate(4 846.57)">
<title>AutoProfileWatcher::runAppCheck</title>
<polygon fill="white" stroke="transparent" points="-4,4 -4,-846.57 875,-846.57 875,4 -4,4"/>
<!-- Node1 -->
<g id="node1" class="node">
<title>Node1</title>
<g id="a_node1"><a xlink:title=" ">
<polygon fill="#bfbfbf" stroke="black" points="0,-357.5 0,-387.5 101,-387.5 101,-357.5 0,-357.5"/>
<text text-anchor="start" x="8" y="-375.5" font-family="Helvetica,sans-Serif" font-size="10.00">AutoProfileWatcher</text>
<text text-anchor="middle" x="50.5" y="-364.5" font-family="Helvetica,sans-Serif" font-size="10.00">::runAppCheck</text>
</a>
</g>
</g>
<!-- Node2 -->
<g id="node2" class="node">
<title>Node2</title>
<g id="a_node2"><a xlink:href="$classAutoProfileWatcher.html#a9192562fc92f52545e3c0fe663026f95" xlink:title=" ">
<polygon fill="white" stroke="black" points="177.5,-614.5 177.5,-644.5 278.5,-644.5 278.5,-614.5 177.5,-614.5"/>
<text text-anchor="start" x="185.5" y="-632.5" font-family="Helvetica,sans-Serif" font-size="10.00">AutoProfileWatcher</text>
<text text-anchor="middle" x="228" y="-621.5" font-family="Helvetica,sans-Serif" font-size="10.00">::findAppLocation</text>
</a>
</g>
</g>
<!-- Node1&#45;&gt;Node2 -->
<g id="edge1" class="edge">
<title>Node1&#45;&gt;Node2</title>
<path fill="none" stroke="midnightblue" d="M52.79,-387.62C57.05,-427.94 74.19,-539.06 137,-599.5 145.62,-607.8 156.6,-613.8 167.9,-618.15"/>
<polygon fill="midnightblue" stroke="midnightblue" points="166.83,-621.48 177.43,-621.42 169.11,-614.86 166.83,-621.48"/>
</g>
<!-- Node9 -->
<g id="node9" class="node">
<title>Node9</title>
<g id="a_node9"><a xlink:href="$classX11Extras.html#ace76277fced60e6bd6ff880030338182" xlink:title=" ">
<polygon fill="white" stroke="black" points="371.5,-500 371.5,-519 490.5,-519 490.5,-500 371.5,-500"/>
<text text-anchor="middle" x="431" y="-507" font-family="Helvetica,sans-Serif" font-size="10.00">X11Extras::getInstance</text>
</a>
</g>
</g>
<!-- Node1&#45;&gt;Node9 -->
<g id="edge25" class="edge">
<title>Node1&#45;&gt;Node9</title>
<path fill="none" stroke="midnightblue" d="M57.45,-387.63C68.6,-413.71 95.36,-466.54 137,-489.5 207.1,-528.16 301.43,-526.92 363.9,-520.18"/>
<polygon fill="midnightblue" stroke="midnightblue" points="364.49,-523.64 374.02,-519.01 363.69,-516.68 364.49,-523.64"/>
</g>
<!-- Node12 -->
<g id="node12" class="node">
<title>Node12</title>
<g id="a_node12"><a xlink:href="$classX11Extras.html#af0461fc5624d3d74bc19b1cd888d8498" xlink:title=" ">
<polygon fill="white" stroke="black" points="355,-705 355,-724 507,-724 507,-705 355,-705"/>
<text text-anchor="middle" x="431" y="-712" font-family="Helvetica,sans-Serif" font-size="10.00">X11Extras::getWindowInFocus</text>
</a>
</g>
</g>
<!-- Node1&#45;&gt;Node12 -->
<g id="edge33" class="edge">
<title>Node1&#45;&gt;Node12</title>
<path fill="none" stroke="midnightblue" d="M51.14,-387.75C50.9,-435.04 57,-580.41 137,-653.5 192.8,-704.48 279.79,-717.22 344.51,-718.72"/>
<polygon fill="midnightblue" stroke="midnightblue" points="344.65,-722.22 354.7,-718.87 344.75,-715.22 344.65,-722.22"/>
</g>
<!-- Node13 -->
<g id="node13" class="node">
<title>Node13</title>
<g id="a_node13"><a xlink:href="$classX11Extras.html#a0e404fe7dacdcebf5b40a0cc7095f3ba" xlink:title=" ">
<polygon fill="white" stroke="black" points="159,-752 159,-771 297,-771 297,-752 159,-752"/>
<text text-anchor="middle" x="228" y="-759" font-family="Helvetica,sans-Serif" font-size="10.00">X11Extras::findParentClient</text>
</a>
</g>
</g>
<!-- Node1&#45;&gt;Node13 -->
<g id="edge15" class="edge">
<title>Node1&#45;&gt;Node13</title>
<path fill="none" stroke="midnightblue" d="M50.93,-387.61C49.75,-439.8 52.58,-614.88 137,-718.5 148.05,-732.06 164.4,-741.62 180.14,-748.22"/>
<polygon fill="midnightblue" stroke="midnightblue" points="179.22,-751.61 189.81,-751.95 181.74,-745.08 179.22,-751.61"/>
</g>
<!-- Node16 -->
<g id="node16" class="node">
<title>Node16</title>
<g id="a_node16"><a xlink:href="$classAutoProfileWatcher.html#a71d680e2e91636eb48082b830d4fa2af" xlink:title=" ">
<polygon fill="white" stroke="black" points="159,-450.5 159,-480.5 297,-480.5 297,-450.5 159,-450.5"/>
<text text-anchor="start" x="167" y="-468.5" font-family="Helvetica,sans-Serif" font-size="10.00">AutoProfileWatcher</text>
<text text-anchor="middle" x="228" y="-457.5" font-family="Helvetica,sans-Serif" font-size="10.00">::getAppProfileAssignments</text>
</a>
</g>
</g>
<!-- Node1&#45;&gt;Node16 -->
<g id="edge22" class="edge">
<title>Node1&#45;&gt;Node16</title>
<path fill="none" stroke="midnightblue" d="M66.55,-387.63C82.66,-403.02 109.63,-426.55 137,-440.5 141.58,-442.83 146.4,-444.97 151.34,-446.93"/>
<polygon fill="midnightblue" stroke="midnightblue" points="150.35,-450.29 160.94,-450.47 152.77,-443.73 150.35,-450.29"/>
</g>
<!-- Node17 -->
<g id="node17" class="node">
<title>Node17</title>
<g id="a_node17"><a xlink:href="$classAutoProfileWatcher.html#a6f859d7413059615f203f5962dec15ea" xlink:title=" ">
<polygon fill="white" stroke="black" points="152,-401.5 152,-431.5 304,-431.5 304,-401.5 152,-401.5"/>
<text text-anchor="start" x="160" y="-419.5" font-family="Helvetica,sans-Serif" font-size="10.00">AutoProfileWatcher</text>
<text text-anchor="middle" x="228" y="-408.5" font-family="Helvetica,sans-Serif" font-size="10.00">::getDefaultProfileAssignments</text>
</a>
</g>
</g>
<!-- Node1&#45;&gt;Node17 -->
<g id="edge23" class="edge">
<title>Node1&#45;&gt;Node17</title>
<path fill="none" stroke="midnightblue" d="M101.32,-384.99C118.67,-389.34 138.48,-394.31 157.15,-398.99"/>
<polygon fill="midnightblue" stroke="midnightblue" points="156.54,-402.44 167.09,-401.48 158.24,-395.65 156.54,-402.44"/>
</g>
<!-- Node18 -->
<g id="node18" class="node">
<title>Node18</title>
<g id="a_node18"><a xlink:href="$classAutoProfileInfo.html#a2c94a2f2793b09a153adbabc8c555eda" xlink:title=" ">
<polygon fill="white" stroke="black" points="169.5,-363 169.5,-382 286.5,-382 286.5,-363 169.5,-363"/>
<text text-anchor="middle" x="228" y="-370" font-family="Helvetica,sans-Serif" font-size="10.00">AutoProfileInfo::getExe</text>
</a>
</g>
</g>
<!-- Node1&#45;&gt;Node18 -->
<g id="edge24" class="edge">
<title>Node1&#45;&gt;Node18</title>
<path fill="none" stroke="midnightblue" d="M101.32,-372.5C119.28,-372.5 139.85,-372.5 159.09,-372.5"/>
<polygon fill="midnightblue" stroke="midnightblue" points="159.3,-376 169.3,-372.5 159.3,-369 159.3,-376"/>
</g>
<!-- Node19 -->
<g id="node19" class="node">
<title>Node19</title>
<g id="a_node19"><a xlink:href="$classAutoProfileWatcher.html#ac8d3fde4dea7576bd0ea05913304c826" xlink:title=" ">
<polygon fill="white" stroke="black" points="173,-313.5 173,-343.5 283,-343.5 283,-313.5 173,-313.5"/>
<text text-anchor="start" x="181" y="-331.5" font-family="Helvetica,sans-Serif" font-size="10.00">AutoProfileWatcher</text>
<text text-anchor="middle" x="228" y="-320.5" font-family="Helvetica,sans-Serif" font-size="10.00">::getUniqeIDSetLocal</text>
</a>
</g>
</g>
<!-- Node1&#45;&gt;Node19 -->
<g id="edge26" class="edge">
<title>Node1&#45;&gt;Node19</title>
<path fill="none" stroke="midnightblue" d="M101.32,-360.01C120.48,-355.21 142.63,-349.65 162.94,-344.56"/>
<polygon fill="midnightblue" stroke="midnightblue" points="163.9,-347.93 172.75,-342.1 162.2,-341.14 163.9,-347.93"/>
</g>
<!-- Node20 -->
<g id="node20" class="node">
<title>Node20</title>
<g id="a_node20"><a xlink:href="$classAutoProfileInfo.html#aba94c3fdd9e66bf8dc42a74237ff911c" xlink:title=" ">
<polygon fill="white" stroke="black" points="157,-275 157,-294 299,-294 299,-275 157,-275"/>
<text text-anchor="middle" x="228" y="-282" font-family="Helvetica,sans-Serif" font-size="10.00">AutoProfileInfo::getUniqueID</text>
</a>
</g>
</g>
<!-- Node1&#45;&gt;Node20 -->
<g id="edge27" class="edge">
<title>Node1&#45;&gt;Node20</title>
<path fill="none" stroke="midnightblue" d="M65.74,-357.37C81.6,-341.47 108.74,-316.92 137,-303.5 142.27,-301 147.86,-298.82 153.59,-296.93"/>
<polygon fill="midnightblue" stroke="midnightblue" points="154.73,-300.24 163.3,-294.01 152.72,-293.54 154.73,-300.24"/>
</g>
<!-- Node21 -->
<g id="node21" class="node">
<title>Node21</title>
<g id="a_node21"><a xlink:href="$classAutoProfileInfo.html#a37dfba098d3c8a8e90beca36b2f3561b" xlink:title=" ">
<polygon fill="white" stroke="black" points="160,-225.5 160,-255.5 296,-255.5 296,-225.5 160,-225.5"/>
<text text-anchor="start" x="168" y="-243.5" font-family="Helvetica,sans-Serif" font-size="10.00">AutoProfileInfo::getWindow</text>
<text text-anchor="middle" x="228" y="-232.5" font-family="Helvetica,sans-Serif" font-size="10.00">Class</text>
</a>
</g>
</g>
<!-- Node1&#45;&gt;Node21 -->
<g id="edge28" class="edge">
<title>Node1&#45;&gt;Node21</title>
<path fill="none" stroke="midnightblue" d="M59.54,-357.21C72.6,-333.86 100.69,-289.48 137,-265.5 141.1,-262.79 145.48,-260.38 150.04,-258.22"/>
<polygon fill="midnightblue" stroke="midnightblue" points="151.75,-261.3 159.57,-254.15 149,-254.86 151.75,-261.3"/>
</g>
<!-- Node22 -->
<g id="node22" class="node">
<title>Node22</title>
<g id="a_node22"><a xlink:href="$classX11Extras.html#ae7ce87e08a42d280a4deb8ae9a792f40" xlink:title=" ">
<polygon fill="white" stroke="black" points="550,-503 550,-522 693,-522 693,-503 550,-503"/>
<text text-anchor="middle" x="621.5" y="-510" font-family="Helvetica,sans-Serif" font-size="10.00">X11Extras::getWindowClass</text>
</a>
</g>
</g>
<!-- Node1&#45;&gt;Node22 -->
<g id="edge29" class="edge">
<title>Node1&#45;&gt;Node22</title>
<path fill="none" stroke="midnightblue" d="M55.01,-387.77C63.15,-419.32 86.64,-491.24 137,-521.5 207.49,-563.85 424.96,-534.25 507,-528.5 522.31,-527.43 538.69,-525.55 554.11,-523.45"/>
<polygon fill="midnightblue" stroke="midnightblue" points="554.67,-526.9 564.09,-522.04 553.7,-519.97 554.67,-526.9"/>
</g>
<!-- Node23 -->
<g id="node23" class="node">
<title>Node23</title>
<g id="a_node23"><a xlink:href="$classAutoProfileWatcher.html#a711ecd2e6eae6d0270271a9598305dd4" xlink:title=" ">
<polygon fill="white" stroke="black" points="137,-176.5 137,-206.5 319,-206.5 319,-176.5 137,-176.5"/>
<text text-anchor="start" x="145" y="-194.5" font-family="Helvetica,sans-Serif" font-size="10.00">AutoProfileWatcher</text>
<text text-anchor="middle" x="228" y="-183.5" font-family="Helvetica,sans-Serif" font-size="10.00">::getWindowClassProfileAssignments</text>
</a>
</g>
</g>
<!-- Node1&#45;&gt;Node23 -->
<g id="edge32" class="edge">
<title>Node1&#45;&gt;Node23</title>
<path fill="none" stroke="midnightblue" d="M55.37,-357.35C64.21,-325.89 88.94,-253.29 137,-215.5 138.62,-214.23 140.3,-213.02 142.04,-211.88"/>
<polygon fill="midnightblue" stroke="midnightblue" points="144.16,-214.69 151.09,-206.68 140.68,-208.62 144.16,-214.69"/>
</g>
<!-- Node24 -->
<g id="node24" class="node">
<title>Node24</title>
<g id="a_node24"><a xlink:href="$classAutoProfileInfo.html#a8136af0d4f8e0fcdc0f6562dd6ec9c48" xlink:title=" ">
<polygon fill="white" stroke="black" points="147,-138 147,-157 309,-157 309,-138 147,-138"/>
<text text-anchor="middle" x="228" y="-145" font-family="Helvetica,sans-Serif" font-size="10.00">AutoProfileInfo::getWindowName</text>
</a>
</g>
</g>
<!-- Node1&#45;&gt;Node24 -->
<g id="edge34" class="edge">
<title>Node1&#45;&gt;Node24</title>
<path fill="none" stroke="midnightblue" d="M53.06,-357.27C57.83,-318.8 75.92,-217.19 137,-166.5 138.99,-164.85 141.09,-163.33 143.27,-161.94"/>
<polygon fill="midnightblue" stroke="midnightblue" points="144.97,-165 152.08,-157.14 141.62,-158.85 144.97,-165"/>
</g>
<!-- Node25 -->
<g id="node25" class="node">
<title>Node25</title>
<g id="a_node25"><a xlink:href="$classAutoProfileWatcher.html#a3eae9d4ee45d3dabd198ea94d327a857" xlink:title=" ">
<polygon fill="white" stroke="black" points="137,-88.5 137,-118.5 319,-118.5 319,-88.5 137,-88.5"/>
<text text-anchor="start" x="145" y="-106.5" font-family="Helvetica,sans-Serif" font-size="10.00">AutoProfileWatcher</text>
<text text-anchor="middle" x="228" y="-95.5" font-family="Helvetica,sans-Serif" font-size="10.00">::getWindowNameProfileAssignments</text>
</a>
</g>
</g>
<!-- Node1&#45;&gt;Node25 -->
<g id="edge35" class="edge">
<title>Node1&#45;&gt;Node25</title>
<path fill="none" stroke="midnightblue" d="M52.16,-357.33C54.86,-314.67 68.51,-192.61 137,-128.5 138.68,-126.92 140.46,-125.45 142.31,-124.06"/>
<polygon fill="midnightblue" stroke="midnightblue" points="144.34,-126.91 150.85,-118.55 140.55,-121.03 144.34,-126.91"/>
</g>
<!-- Node26 -->
<g id="node26" class="node">
<title>Node26</title>
<g id="a_node26"><a xlink:href="$classX11Extras.html#ac4d3c4697880b6d792761b422cfdf5ed" xlink:title=" ">
<polygon fill="white" stroke="black" points="363,-576 363,-595 499,-595 499,-576 363,-576"/>
<text text-anchor="middle" x="431" y="-583" font-family="Helvetica,sans-Serif" font-size="10.00">X11Extras::getWindowTitle</text>
</a>
</g>
</g>
<!-- Node1&#45;&gt;Node26 -->
<g id="edge36" class="edge">
<title>Node1&#45;&gt;Node26</title>
<path fill="none" stroke="midnightblue" d="M53.25,-387.76C58.4,-424.76 77.09,-519.28 137,-561.5 206.75,-610.65 310.37,-605.84 373.87,-596.58"/>
<polygon fill="midnightblue" stroke="midnightblue" points="374.74,-599.99 384.08,-595.01 373.67,-593.07 374.74,-599.99"/>
</g>
<!-- Node27 -->
<g id="node27" class="node">
<title>Node27</title>
<g id="a_node27"><a xlink:href="$classAutoProfileInfo.html#a51f57cf7cda4e66b052d12e5a8879785" xlink:title=" ">
<polygon fill="white" stroke="black" points="167,-50 167,-69 289,-69 289,-50 167,-50"/>
<text text-anchor="middle" x="228" y="-57" font-family="Helvetica,sans-Serif" font-size="10.00">AutoProfileInfo::isActive</text>
</a>
</g>
</g>
<!-- Node1&#45;&gt;Node27 -->
<g id="edge40" class="edge">
<title>Node1&#45;&gt;Node27</title>
<path fill="none" stroke="midnightblue" d="M50.91,-357.26C49.91,-308.61 53.8,-155.69 137,-78.5 142.84,-73.08 149.83,-69.05 157.29,-66.07"/>
<polygon fill="midnightblue" stroke="midnightblue" points="158.58,-69.34 166.95,-62.84 156.36,-62.7 158.58,-69.34"/>
</g>
<!-- Node28 -->
<g id="node28" class="node">
<title>Node28</title>
<g id="a_node28"><a xlink:href="$classAutoProfileInfo.html#a553164ad155d884279b15d8533438c73" xlink:title=" ">
<polygon fill="white" stroke="black" points="166.5,-0.5 166.5,-30.5 289.5,-30.5 289.5,-0.5 166.5,-0.5"/>
<text text-anchor="start" x="174.5" y="-18.5" font-family="Helvetica,sans-Serif" font-size="10.00">AutoProfileInfo::isPartial</text>
<text text-anchor="middle" x="228" y="-7.5" font-family="Helvetica,sans-Serif" font-size="10.00">State</text>
</a>
</g>
</g>
<!-- Node1&#45;&gt;Node28 -->
<g id="edge41" class="edge">
<title>Node1&#45;&gt;Node28</title>
<path fill="none" stroke="midnightblue" d="M53.38,-357.42C60.96,-298.83 91.14,-87.23 137,-40.5 142.59,-34.8 149.36,-30.37 156.64,-26.93"/>
<polygon fill="midnightblue" stroke="midnightblue" points="158.16,-30.1 166.1,-23.08 155.52,-23.61 158.16,-30.1"/>
</g>
<!-- Node3 -->
<g id="node3" class="node">
<title>Node3</title>
<g id="a_node3"><a xlink:href="$classX11Extras.html#a1a495d6ed3faab16025c918e4dc00e44" xlink:title="Find the application file location for a given PID.">
<polygon fill="white" stroke="black" points="366,-655.5 366,-685.5 496,-685.5 496,-655.5 366,-655.5"/>
<text text-anchor="start" x="374" y="-673.5" font-family="Helvetica,sans-Serif" font-size="10.00">X11Extras::getApplication</text>
<text text-anchor="middle" x="431" y="-662.5" font-family="Helvetica,sans-Serif" font-size="10.00">Location</text>
</a>
</g>
</g>
<!-- Node2&#45;&gt;Node3 -->
<g id="edge2" class="edge">
<title>Node2&#45;&gt;Node3</title>
<path fill="none" stroke="midnightblue" d="M278.69,-639.63C301.88,-644.37 329.97,-650.1 355.63,-655.33"/>
<polygon fill="midnightblue" stroke="midnightblue" points="355.2,-658.81 365.7,-657.38 356.6,-651.96 355.2,-658.81"/>
</g>
<!-- Node4 -->
<g id="node4" class="node">
<title>Node4</title>
<g id="a_node4"><a xlink:href="$classX11Extras.html#a5ca91422edbd69ea7189538dca43f2b1" xlink:title="Check window and any parents for the window property &quot;_NET_WM_PID&quot;.">
<polygon fill="white" stroke="black" points="359,-617 359,-636 503,-636 503,-617 359,-617"/>
<text text-anchor="middle" x="431" y="-624" font-family="Helvetica,sans-Serif" font-size="10.00">X11Extras::getApplicationPid</text>
</a>
</g>
</g>
<!-- Node2&#45;&gt;Node4 -->
<g id="edge3" class="edge">
<title>Node2&#45;&gt;Node4</title>
<path fill="none" stroke="midnightblue" d="M278.69,-628.76C299.84,-628.44 325.08,-628.07 348.82,-627.71"/>
<polygon fill="midnightblue" stroke="midnightblue" points="348.94,-631.21 358.89,-627.56 348.84,-624.21 348.94,-631.21"/>
</g>
<!-- Node2&#45;&gt;Node9 -->
<g id="edge10" class="edge">
<title>Node2&#45;&gt;Node9</title>
<path fill="none" stroke="midnightblue" d="M254.46,-614.3C293.22,-591.16 366.57,-547.37 405.04,-524.4"/>
<polygon fill="midnightblue" stroke="midnightblue" points="407.23,-527.17 414.02,-519.04 403.64,-521.16 407.23,-527.17"/>
</g>
<!-- Node2&#45;&gt;Node12 -->
<g id="edge13" class="edge">
<title>Node2&#45;&gt;Node12</title>
<path fill="none" stroke="midnightblue" d="M253.77,-644.7C278.6,-659.41 318.33,-681.47 355,-695.5 361.41,-697.95 368.24,-700.18 375.08,-702.18"/>
<polygon fill="midnightblue" stroke="midnightblue" points="374.48,-705.64 385.05,-704.94 376.34,-698.9 374.48,-705.64"/>
</g>
<!-- Node5 -->
<g id="node5" class="node">
<title>Node5</title>
<g id="a_node5"><a xlink:href="$classX11Extras.html#a9affa85055348376e96413c5c526947d" xlink:title=" ">
<polygon fill="white" stroke="black" points="555.5,-655.5 555.5,-685.5 687.5,-685.5 687.5,-655.5 555.5,-655.5"/>
<text text-anchor="start" x="563.5" y="-673.5" font-family="Helvetica,sans-Serif" font-size="10.00">X11Extras::checkProperty</text>
<text text-anchor="middle" x="621.5" y="-662.5" font-family="Helvetica,sans-Serif" font-size="10.00">OnWin</text>
</a>
</g>
</g>
<!-- Node4&#45;&gt;Node5 -->
<g id="edge4" class="edge">
<title>Node4&#45;&gt;Node5</title>
<path fill="none" stroke="midnightblue" d="M472.9,-636.05C494.31,-641.05 521.2,-647.32 546.15,-653.14"/>
<polygon fill="midnightblue" stroke="midnightblue" points="545.42,-656.57 555.96,-655.43 547.02,-649.75 545.42,-656.57"/>
</g>
<!-- Node6 -->
<g id="node6" class="node">
<title>Node6</title>
<g id="a_node6"><a xlink:href="$classX11Extras.html#a643c95dc1de8eb073a0accb41619fe83" xlink:title="Get display instance.">
<polygon fill="white" stroke="black" points="754,-661 754,-680 853,-680 853,-661 754,-661"/>
<text text-anchor="middle" x="803.5" y="-668" font-family="Helvetica,sans-Serif" font-size="10.00">X11Extras::display</text>
</a>
</g>
</g>
<!-- Node4&#45;&gt;Node6 -->
<g id="edge6" class="edge">
<title>Node4&#45;&gt;Node6</title>
<path fill="none" stroke="midnightblue" d="M503.18,-628.28C557.4,-630.43 633.75,-635.15 700,-645.5 719.85,-648.6 741.51,-653.64 759.78,-658.38"/>
<polygon fill="midnightblue" stroke="midnightblue" points="758.99,-661.79 769.55,-660.96 760.78,-655.02 758.99,-661.79"/>
</g>
<!-- Node7 -->
<g id="node7" class="node">
<title>Node7</title>
<g id="a_node7"><a xlink:href="$classX11Extras.html#a44556cc9630d8685f1978b258c40679d" xlink:title=" ">
<polygon fill="white" stroke="black" points="543,-579 543,-598 700,-598 700,-579 543,-579"/>
<text text-anchor="middle" x="621.5" y="-586" font-family="Helvetica,sans-Serif" font-size="10.00">X11Extras::windowHasProperty</text>
</a>
</g>
</g>
<!-- Node4&#45;&gt;Node7 -->
<g id="edge7" class="edge">
<title>Node4&#45;&gt;Node7</title>
<path fill="none" stroke="midnightblue" d="M479.57,-616.91C505,-611.78 536.5,-605.43 563.27,-600.04"/>
<polygon fill="midnightblue" stroke="midnightblue" points="564.16,-603.43 573.28,-598.02 562.78,-596.57 564.16,-603.43"/>
</g>
<!-- Node5&#45;&gt;Node6 -->
<g id="edge5" class="edge">
<title>Node5&#45;&gt;Node6</title>
<path fill="none" stroke="midnightblue" d="M687.74,-670.5C706.07,-670.5 725.9,-670.5 743.83,-670.5"/>
<polygon fill="midnightblue" stroke="midnightblue" points="743.85,-674 753.85,-670.5 743.85,-667 743.85,-674"/>
</g>
<!-- Node7&#45;&gt;Node6 -->
<g id="edge8" class="edge">
<title>Node7&#45;&gt;Node6</title>
<path fill="none" stroke="midnightblue" d="M658.97,-598.04C672.12,-601.94 686.94,-606.86 700,-612.5 728.32,-624.73 758.87,-642.69 779.18,-655.38"/>
<polygon fill="midnightblue" stroke="midnightblue" points="777.42,-658.41 787.74,-660.8 781.16,-652.5 777.42,-658.41"/>
</g>
<!-- Node8 -->
<g id="node8" class="node">
<title>Node8</title>
<g id="a_node8"><a xlink:href="$x11extras_8cpp.html#abd96e3a47ad21173e08bc83e90a98fda" xlink:title=" ">
<polygon fill="white" stroke="black" points="769.5,-503 769.5,-522 837.5,-522 837.5,-503 769.5,-503"/>
<text text-anchor="middle" x="803.5" y="-510" font-family="Helvetica,sans-Serif" font-size="10.00">freeWindow</text>
</a>
</g>
</g>
<!-- Node7&#45;&gt;Node8 -->
<g id="edge9" class="edge">
<title>Node7&#45;&gt;Node8</title>
<path fill="none" stroke="midnightblue" d="M645.3,-578.87C676.95,-565.51 734.35,-541.27 770.34,-526.08"/>
<polygon fill="midnightblue" stroke="midnightblue" points="772.04,-529.16 779.89,-522.05 769.31,-522.71 772.04,-529.16"/>
</g>
<!-- Node10 -->
<g id="node10" class="node">
<title>Node10</title>
<g id="a_node10"><a xlink:href="$classX11Extras.html#ab9bcb016e23bacb0e988feb8175d2c88" xlink:title=" ">
<polygon fill="white" stroke="black" points="564.5,-427 564.5,-446 678.5,-446 678.5,-427 564.5,-427"/>
<text text-anchor="middle" x="621.5" y="-434" font-family="Helvetica,sans-Serif" font-size="10.00">X11Extras::X11Extras</text>
</a>
</g>
</g>
<!-- Node9&#45;&gt;Node10 -->
<g id="edge11" class="edge">
<title>Node9&#45;&gt;Node10</title>
<path fill="none" stroke="midnightblue" d="M451.77,-499.94C473.74,-489.51 510.45,-472.68 543,-460.5 553.92,-456.42 565.88,-452.46 577.06,-448.99"/>
<polygon fill="midnightblue" stroke="midnightblue" points="578.1,-452.33 586.64,-446.06 576.06,-445.63 578.1,-452.33"/>
</g>
<!-- Node11 -->
<g id="node11" class="node">
<title>Node11</title>
<g id="a_node11"><a xlink:href="$classX11Extras.html#a6f63e77ed045e174546d77333672b8f0" xlink:title=" ">
<polygon fill="white" stroke="black" points="736,-421.5 736,-451.5 871,-451.5 871,-421.5 736,-421.5"/>
<text text-anchor="start" x="744" y="-439.5" font-family="Helvetica,sans-Serif" font-size="10.00">X11Extras::populateKnown</text>
<text text-anchor="middle" x="803.5" y="-428.5" font-family="Helvetica,sans-Serif" font-size="10.00">Aliases</text>
</a>
</g>
</g>
<!-- Node10&#45;&gt;Node11 -->
<g id="edge12" class="edge">
<title>Node10&#45;&gt;Node11</title>
<path fill="none" stroke="midnightblue" d="M678.96,-436.5C693.76,-436.5 709.97,-436.5 725.64,-436.5"/>
<polygon fill="midnightblue" stroke="midnightblue" points="725.84,-440 735.84,-436.5 725.84,-433 725.84,-440"/>
</g>
<!-- Node12&#45;&gt;Node6 -->
<g id="edge14" class="edge">
<title>Node12&#45;&gt;Node6</title>
<path fill="none" stroke="midnightblue" d="M507.18,-712.55C561.11,-710.34 635.37,-705.6 700,-695.5 719.85,-692.4 741.51,-687.36 759.78,-682.62"/>
<polygon fill="midnightblue" stroke="midnightblue" points="760.78,-685.98 769.55,-680.04 758.99,-679.21 760.78,-685.98"/>
</g>
<!-- Node13&#45;&gt;Node6 -->
<g id="edge16" class="edge">
<title>Node13&#45;&gt;Node6</title>
<path fill="none" stroke="midnightblue" d="M249.71,-771.14C318.31,-801.57 542.63,-888.99 700,-809.5 750.01,-784.24 781.63,-721.79 795.06,-689.91"/>
<polygon fill="midnightblue" stroke="midnightblue" points="798.41,-690.95 798.91,-680.36 791.92,-688.32 798.41,-690.95"/>
</g>
<!-- Node14 -->
<g id="node14" class="node">
<title>Node14</title>
<g id="a_node14"><a xlink:href="$classX11Extras.html#addc3448425326be8bcd2b0138abe643a" xlink:title="Go through a window&#39;s properties and search for an Atom from a defined list. If an Atom is found in a...">
<polygon fill="white" stroke="black" points="356.5,-743 356.5,-762 505.5,-762 505.5,-743 356.5,-743"/>
<text text-anchor="middle" x="431" y="-750" font-family="Helvetica,sans-Serif" font-size="10.00">X11Extras::isWindowRelevant</text>
</a>
</g>
</g>
<!-- Node13&#45;&gt;Node14 -->
<g id="edge17" class="edge">
<title>Node13&#45;&gt;Node14</title>
<path fill="none" stroke="midnightblue" d="M297.05,-758.45C312.8,-757.75 329.74,-756.99 346.08,-756.26"/>
<polygon fill="midnightblue" stroke="midnightblue" points="346.33,-759.75 356.16,-755.81 346.02,-752.76 346.33,-759.75"/>
</g>
<!-- Node15 -->
<g id="node15" class="node">
<title>Node15</title>
<g id="a_node15"><a xlink:href="$classX11Extras.html#abebf4a3a16685c4b274980f040671ae9" xlink:title=" ">
<polygon fill="white" stroke="black" points="547,-781 547,-800 696,-800 696,-781 547,-781"/>
<text text-anchor="middle" x="621.5" y="-788" font-family="Helvetica,sans-Serif" font-size="10.00">X11Extras::windowIsViewable</text>
</a>
</g>
</g>
<!-- Node13&#45;&gt;Node15 -->
<g id="edge20" class="edge">
<title>Node13&#45;&gt;Node15</title>
<path fill="none" stroke="midnightblue" d="M297.33,-767.02C316.02,-768.5 336.29,-770.09 355,-771.5 415.8,-776.09 484.47,-780.99 536.73,-784.67"/>
<polygon fill="midnightblue" stroke="midnightblue" points="536.73,-788.18 546.95,-785.39 537.22,-781.2 536.73,-788.18"/>
</g>
<!-- Node14&#45;&gt;Node6 -->
<g id="edge18" class="edge">
<title>Node14&#45;&gt;Node6</title>
<path fill="none" stroke="midnightblue" d="M505.68,-748.34C560.18,-743.88 635.78,-734.81 700,-716.5 727.04,-708.79 756.13,-695.18 776.39,-684.75"/>
<polygon fill="midnightblue" stroke="midnightblue" points="778.08,-687.82 785.31,-680.08 774.82,-681.62 778.08,-687.82"/>
</g>
<!-- Node14&#45;&gt;Node7 -->
<g id="edge19" class="edge">
<title>Node14&#45;&gt;Node7</title>
<path fill="none" stroke="midnightblue" d="M491.94,-742.97C497.39,-740.48 502.54,-737.38 507,-733.5 538.9,-705.79 517.01,-678.82 543,-645.5 556.7,-627.94 577.14,-613.22 593.6,-603.13"/>
<polygon fill="midnightblue" stroke="midnightblue" points="595.43,-606.11 602.26,-598.02 591.87,-600.09 595.43,-606.11"/>
</g>
<!-- Node15&#45;&gt;Node6 -->
<g id="edge21" class="edge">
<title>Node15&#45;&gt;Node6</title>
<path fill="none" stroke="midnightblue" d="M665.38,-780.98C677.06,-777.4 689.41,-772.66 700,-766.5 736.29,-745.41 770.12,-709.27 788.39,-687.86"/>
<polygon fill="midnightblue" stroke="midnightblue" points="791.08,-690.1 794.82,-680.19 785.71,-685.61 791.08,-690.1"/>
</g>
<!-- Node22&#45;&gt;Node6 -->
<g id="edge30" class="edge">
<title>Node22&#45;&gt;Node6</title>
<path fill="none" stroke="midnightblue" d="M669.73,-522.06C680.27,-525.53 690.99,-530.21 700,-536.5 744.05,-567.23 777.59,-622.69 793.07,-651.69"/>
<polygon fill="midnightblue" stroke="midnightblue" points="790.06,-653.49 797.78,-660.75 796.28,-650.27 790.06,-653.49"/>
</g>
<!-- Node22&#45;&gt;Node8 -->
<g id="edge31" class="edge">
<title>Node22&#45;&gt;Node8</title>
<path fill="none" stroke="midnightblue" d="M693.12,-512.5C715.33,-512.5 739.19,-512.5 758.94,-512.5"/>
<polygon fill="midnightblue" stroke="midnightblue" points="759.16,-516 769.16,-512.5 759.16,-509 759.16,-516"/>
</g>
<!-- Node26&#45;&gt;Node6 -->
<g id="edge37" class="edge">
<title>Node26&#45;&gt;Node6</title>
<path fill="none" stroke="midnightblue" d="M460.71,-575.92C511.26,-560.73 618.49,-536.09 700,-569.5 740.81,-586.23 774.09,-627.93 790.81,-652.19"/>
<polygon fill="midnightblue" stroke="midnightblue" points="788.11,-654.46 796.57,-660.84 793.93,-650.57 788.11,-654.46"/>
</g>
<!-- Node26&#45;&gt;Node7 -->
<g id="edge39" class="edge">
<title>Node26&#45;&gt;Node7</title>
<path fill="none" stroke="midnightblue" d="M499.25,-586.57C510.1,-586.74 521.47,-586.92 532.72,-587.1"/>
<polygon fill="midnightblue" stroke="midnightblue" points="532.93,-590.61 542.99,-587.27 533.05,-583.61 532.93,-590.61"/>
</g>
<!-- Node26&#45;&gt;Node8 -->
<g id="edge38" class="edge">
<title>Node26&#45;&gt;Node8</title>
<path fill="none" stroke="midnightblue" d="M445.66,-575.88C461,-564.92 486.42,-546.21 507,-528.5 523.91,-513.94 522.32,-501.89 543,-493.5 617.55,-463.23 713.99,-484.28 765.77,-499.89"/>
<polygon fill="midnightblue" stroke="midnightblue" points="764.92,-503.29 775.51,-502.92 767,-496.61 764.92,-503.29"/>
</g>
</g>
</svg>
