<?xml version="1.0" encoding="UTF-8" standalone="no"?>
<!DOCTYPE svg PUBLIC "-//W3C//DTD SVG 1.1//EN"
 "http://www.w3.org/Graphics/SVG/1.1/DTD/svg11.dtd">
<!-- Generated by graphviz version 2.43.0 (0)
 -->
<!-- Title: DPadPushButtonGroup::generateButtons Pages: 1 -->
<svg width="659pt" height="198pt"
 viewBox="0.00 0.00 659.00 197.50" xmlns="http://www.w3.org/2000/svg" xmlns:xlink="http://www.w3.org/1999/xlink">
<g id="graph0" class="graph" transform="scale(1 1) rotate(0) translate(4 193.5)">
<title>DPadPushButtonGroup::generateButtons</title>
<polygon fill="white" stroke="transparent" points="-4,4 -4,-193.5 655,-193.5 655,4 -4,4"/>
<!-- Node1 -->
<g id="node1" class="node">
<title>Node1</title>
<g id="a_node1"><a xlink:title=" ">
<polygon fill="#bfbfbf" stroke="black" points="0,-44.5 0,-74.5 119,-74.5 119,-44.5 0,-44.5"/>
<text text-anchor="start" x="8" y="-62.5" font-family="Helvetica,sans-Serif" font-size="10.00">DPadPushButtonGroup</text>
<text text-anchor="middle" x="59.5" y="-51.5" font-family="Helvetica,sans-Serif" font-size="10.00">::generateButtons</text>
</a>
</g>
</g>
<!-- Node2 -->
<g id="node2" class="node">
<title>Node2</title>
<g id="a_node2"><a xlink:href="$classDPadPushButtonGroup.html#ad1df6bca89fd9b715a063a0f3a817792" xlink:title=" ">
<polygon fill="white" stroke="black" points="158.5,-88.5 158.5,-118.5 277.5,-118.5 277.5,-88.5 158.5,-88.5"/>
<text text-anchor="start" x="166.5" y="-106.5" font-family="Helvetica,sans-Serif" font-size="10.00">DPadPushButtonGroup</text>
<text text-anchor="middle" x="218" y="-95.5" font-family="Helvetica,sans-Serif" font-size="10.00">::generateBtnForGrid</text>
</a>
</g>
</g>
<!-- Node1&#45;&gt;Node2 -->
<g id="edge1" class="edge">
<title>Node1&#45;&gt;Node2</title>
<path fill="none" stroke="midnightblue" d="M113.92,-74.52C126.69,-78.11 140.45,-81.98 153.62,-85.68"/>
<polygon fill="midnightblue" stroke="midnightblue" points="152.98,-89.14 163.55,-88.47 154.88,-82.4 152.98,-89.14"/>
</g>
<!-- Node10 -->
<g id="node10" class="node">
<title>Node10</title>
<g id="a_node10"><a xlink:href="$classJoyDPad.html#a208a8dec4c87c992cb15705b2a4e4bbb" xlink:title=" ">
<polygon fill="white" stroke="black" points="155,-50 155,-69 281,-69 281,-50 155,-50"/>
<text text-anchor="middle" x="218" y="-57" font-family="Helvetica,sans-Serif" font-size="10.00">JoyDPad::getJoyButtons</text>
</a>
</g>
</g>
<!-- Node1&#45;&gt;Node10 -->
<g id="edge10" class="edge">
<title>Node1&#45;&gt;Node10</title>
<path fill="none" stroke="midnightblue" d="M119.22,-59.5C127.48,-59.5 136.06,-59.5 144.54,-59.5"/>
<polygon fill="midnightblue" stroke="midnightblue" points="144.81,-63 154.81,-59.5 144.81,-56 144.81,-63"/>
</g>
<!-- Node11 -->
<g id="node11" class="node">
<title>Node11</title>
<g id="a_node11"><a xlink:href="$classDPadPushButtonGroup.html#acbe2cb9aabbfc7595c7964111935228e" xlink:title=" ">
<polygon fill="white" stroke="black" points="158.5,-0.5 158.5,-30.5 277.5,-30.5 277.5,-0.5 158.5,-0.5"/>
<text text-anchor="start" x="166.5" y="-18.5" font-family="Helvetica,sans-Serif" font-size="10.00">DPadPushButtonGroup</text>
<text text-anchor="middle" x="218" y="-7.5" font-family="Helvetica,sans-Serif" font-size="10.00">::showDPadDialog</text>
</a>
</g>
</g>
<!-- Node1&#45;&gt;Node11 -->
<g id="edge11" class="edge">
<title>Node1&#45;&gt;Node11</title>
<path fill="none" stroke="midnightblue" d="M113.92,-44.48C126.69,-40.89 140.45,-37.02 153.62,-33.32"/>
<polygon fill="midnightblue" stroke="midnightblue" points="154.88,-36.6 163.55,-30.53 152.98,-29.86 154.88,-36.6"/>
</g>
<!-- Node3 -->
<g id="node3" class="node">
<title>Node3</title>
<g id="a_node3"><a xlink:href="$classJoyButton.html#a08206c3d636852749ad6e1bb731de4fa" xlink:title=" ">
<polygon fill="white" stroke="black" points="317,-137.5 317,-167.5 460,-167.5 460,-137.5 317,-137.5"/>
<text text-anchor="start" x="325" y="-155.5" font-family="Helvetica,sans-Serif" font-size="10.00">JoyButton::establishProperty</text>
<text text-anchor="middle" x="388.5" y="-144.5" font-family="Helvetica,sans-Serif" font-size="10.00">UpdatedConnections</text>
</a>
</g>
</g>
<!-- Node2&#45;&gt;Node3 -->
<g id="edge2" class="edge">
<title>Node2&#45;&gt;Node3</title>
<path fill="none" stroke="midnightblue" d="M270.93,-118.6C288.31,-123.66 307.85,-129.34 325.89,-134.58"/>
<polygon fill="midnightblue" stroke="midnightblue" points="325.16,-138.02 335.74,-137.45 327.12,-131.3 325.16,-138.02"/>
</g>
<!-- Node6 -->
<g id="node6" class="node">
<title>Node6</title>
<g id="a_node6"><a xlink:href="$classDPadPushButtonGroup.html#a74fc4e4e542e261b2430124b56d5ac07" xlink:title=" ">
<polygon fill="white" stroke="black" points="326,-88.5 326,-118.5 451,-118.5 451,-88.5 326,-88.5"/>
<text text-anchor="start" x="334" y="-106.5" font-family="Helvetica,sans-Serif" font-size="10.00">DPadPushButtonGroup</text>
<text text-anchor="middle" x="388.5" y="-95.5" font-family="Helvetica,sans-Serif" font-size="10.00">::openDPadButtonDialog</text>
</a>
</g>
</g>
<!-- Node2&#45;&gt;Node6 -->
<g id="edge5" class="edge">
<title>Node2&#45;&gt;Node6</title>
<path fill="none" stroke="midnightblue" d="M277.93,-103.5C290.14,-103.5 303.13,-103.5 315.73,-103.5"/>
<polygon fill="midnightblue" stroke="midnightblue" points="315.74,-107 325.74,-103.5 315.74,-100 315.74,-107"/>
</g>
<!-- Node9 -->
<g id="node9" class="node">
<title>Node9</title>
<g id="a_node9"><a xlink:href="$classDPadPushButtonGroup.html#aa1687920eaeb158af7d1c4e20d5fa317" xlink:title=" ">
<polygon fill="white" stroke="black" points="325,-39.5 325,-69.5 452,-69.5 452,-39.5 325,-39.5"/>
<text text-anchor="start" x="333" y="-57.5" font-family="Helvetica,sans-Serif" font-size="10.00">DPadPushButtonGroup</text>
<text text-anchor="middle" x="388.5" y="-46.5" font-family="Helvetica,sans-Serif" font-size="10.00">::propogateSlotsChanged</text>
</a>
</g>
</g>
<!-- Node2&#45;&gt;Node9 -->
<g id="edge9" class="edge">
<title>Node2&#45;&gt;Node9</title>
<path fill="none" stroke="midnightblue" d="M270.93,-88.4C288.31,-83.34 307.85,-77.66 325.89,-72.42"/>
<polygon fill="midnightblue" stroke="midnightblue" points="327.12,-75.7 335.74,-69.55 325.16,-68.98 327.12,-75.7"/>
</g>
<!-- Node4 -->
<g id="node4" class="node">
<title>Node4</title>
<g id="a_node4"><a xlink:href="$classSetJoystick.html#af641cbddd22e358218ba68497e40e4e3" xlink:title=" ">
<polygon fill="white" stroke="black" points="504,-132 504,-151 643,-151 643,-132 504,-132"/>
<text text-anchor="middle" x="573.5" y="-139" font-family="Helvetica,sans-Serif" font-size="10.00">SetJoystick::getInputDevice</text>
</a>
</g>
</g>
<!-- Node3&#45;&gt;Node4 -->
<g id="edge3" class="edge">
<title>Node3&#45;&gt;Node4</title>
<path fill="none" stroke="midnightblue" d="M460.25,-148.25C471.19,-147.59 482.54,-146.91 493.64,-146.24"/>
<polygon fill="midnightblue" stroke="midnightblue" points="493.97,-149.73 503.74,-145.63 493.55,-142.74 493.97,-149.73"/>
</g>
<!-- Node5 -->
<g id="node5" class="node">
<title>Node5</title>
<g id="a_node5"><a xlink:href="$classInputDevice.html#af5b2520af7b76ff18bf3c79c02e73569" xlink:title=" ">
<polygon fill="white" stroke="black" points="509,-170 509,-189 638,-189 638,-170 509,-170"/>
<text text-anchor="middle" x="573.5" y="-177" font-family="Helvetica,sans-Serif" font-size="10.00">InputDevice::profileEdited</text>
</a>
</g>
</g>
<!-- Node3&#45;&gt;Node5 -->
<g id="edge4" class="edge">
<title>Node3&#45;&gt;Node5</title>
<path fill="none" stroke="midnightblue" d="M460.25,-162.94C472.87,-164.8 486.05,-166.74 498.75,-168.62"/>
<polygon fill="midnightblue" stroke="midnightblue" points="498.41,-172.11 508.81,-170.1 499.43,-165.18 498.41,-172.11"/>
</g>
<!-- Node6&#45;&gt;Node4 -->
<g id="edge6" class="edge">
<title>Node6&#45;&gt;Node4</title>
<path fill="none" stroke="midnightblue" d="M451.2,-116.31C472.42,-120.72 496.05,-125.62 516.77,-129.93"/>
<polygon fill="midnightblue" stroke="midnightblue" points="516.18,-133.38 526.68,-131.99 517.6,-126.53 516.18,-133.38"/>
</g>
<!-- Node7 -->
<g id="node7" class="node">
<title>Node7</title>
<g id="a_node7"><a xlink:href="$classJoyButtonWidget.html#ab722c96c5d829aa855b769cdb293b187" xlink:title=" ">
<polygon fill="white" stroke="black" points="496,-94 496,-113 651,-113 651,-94 496,-94"/>
<text text-anchor="middle" x="573.5" y="-101" font-family="Helvetica,sans-Serif" font-size="10.00">JoyButtonWidget::getJoyButton</text>
</a>
</g>
</g>
<!-- Node6&#45;&gt;Node7 -->
<g id="edge7" class="edge">
<title>Node6&#45;&gt;Node7</title>
<path fill="none" stroke="midnightblue" d="M451.2,-103.5C462.28,-103.5 474,-103.5 485.63,-103.5"/>
<polygon fill="midnightblue" stroke="midnightblue" points="485.81,-107 495.81,-103.5 485.81,-100 485.81,-107"/>
</g>
<!-- Node8 -->
<g id="node8" class="node">
<title>Node8</title>
<g id="a_node8"><a xlink:href="$classJoyDPad.html#a0101f057cf5bfc971812c6497439ab79" xlink:title=" ">
<polygon fill="white" stroke="black" points="513.5,-56 513.5,-75 633.5,-75 633.5,-56 513.5,-56"/>
<text text-anchor="middle" x="573.5" y="-63" font-family="Helvetica,sans-Serif" font-size="10.00">JoyDPad::getParentSet</text>
</a>
</g>
</g>
<!-- Node6&#45;&gt;Node8 -->
<g id="edge8" class="edge">
<title>Node6&#45;&gt;Node8</title>
<path fill="none" stroke="midnightblue" d="M451.2,-90.69C472.42,-86.28 496.05,-81.38 516.77,-77.07"/>
<polygon fill="midnightblue" stroke="midnightblue" points="517.6,-80.47 526.68,-75.01 516.18,-73.62 517.6,-80.47"/>
</g>
</g>
</svg>
