<?xml version="1.0" encoding="UTF-8" standalone="no"?>
<!DOCTYPE svg PUBLIC "-//W3C//DTD SVG 1.1//EN"
 "http://www.w3.org/Graphics/SVG/1.1/DTD/svg11.dtd">
<!-- Generated by graphviz version 2.43.0 (0)
 -->
<!-- Title: GameController::getName Pages: 1 -->
<svg width="508pt" height="28pt"
 viewBox="0.00 0.00 508.00 28.00" xmlns="http://www.w3.org/2000/svg" xmlns:xlink="http://www.w3.org/1999/xlink">
<g id="graph0" class="graph" transform="scale(1 1) rotate(0) translate(4 24)">
<title>GameController::getName</title>
<polygon fill="white" stroke="transparent" points="-4,4 -4,-24 504,-24 504,4 -4,4"/>
<!-- Node1 -->
<g id="node1" class="node">
<title>Node1</title>
<g id="a_node1"><a xlink:title=" ">
<polygon fill="#bfbfbf" stroke="black" points="0,-0.5 0,-19.5 131,-19.5 131,-0.5 0,-0.5"/>
<text text-anchor="middle" x="65.5" y="-7.5" font-family="Helvetica,sans-Serif" font-size="10.00">GameController::getName</text>
</a>
</g>
</g>
<!-- Node2 -->
<g id="node2" class="node">
<title>Node2</title>
<g id="a_node2"><a xlink:href="$classInputDevice.html#af398dd46ce98825fe56b36e41a13db9b" xlink:title=" ">
<polygon fill="white" stroke="black" points="167,-0.5 167,-19.5 325,-19.5 325,-0.5 167,-0.5"/>
<text text-anchor="middle" x="246" y="-7.5" font-family="Helvetica,sans-Serif" font-size="10.00">InputDevice::getRealJoyNumber</text>
</a>
</g>
</g>
<!-- Node1&#45;&gt;Node2 -->
<g id="edge1" class="edge">
<title>Node1&#45;&gt;Node2</title>
<path fill="none" stroke="midnightblue" d="M131.19,-10C139.51,-10 148.14,-10 156.76,-10"/>
<polygon fill="midnightblue" stroke="midnightblue" points="156.84,-13.5 166.84,-10 156.84,-6.5 156.84,-13.5"/>
</g>
<!-- Node3 -->
<g id="node3" class="node">
<title>Node3</title>
<g id="a_node3"><a xlink:href="$classInputDevice.html#a197e76d4113e8258e6637981830dd219" xlink:title=" ">
<polygon fill="white" stroke="black" points="361,-0.5 361,-19.5 500,-19.5 500,-0.5 361,-0.5"/>
<text text-anchor="middle" x="430.5" y="-7.5" font-family="Helvetica,sans-Serif" font-size="10.00">InputDevice::getJoyNumber</text>
</a>
</g>
</g>
<!-- Node2&#45;&gt;Node3 -->
<g id="edge2" class="edge">
<title>Node2&#45;&gt;Node3</title>
<path fill="none" stroke="midnightblue" d="M325.19,-10C333.65,-10 342.26,-10 350.73,-10"/>
<polygon fill="midnightblue" stroke="midnightblue" points="350.97,-13.5 360.97,-10 350.97,-6.5 350.97,-13.5"/>
</g>
</g>
</svg>
