<?xml version="1.0" encoding="UTF-8" standalone="no"?>
<!DOCTYPE svg PUBLIC "-//W3C//DTD SVG 1.1//EN"
 "http://www.w3.org/Graphics/SVG/1.1/DTD/svg11.dtd">
<!-- Generated by graphviz version 2.43.0 (0)
 -->
<!-- Title: AntiMicroSettings::getCmdSettings Pages: 1 -->
<svg width="348pt" height="39pt"
 viewBox="0.00 0.00 348.00 39.00" xmlns="http://www.w3.org/2000/svg" xmlns:xlink="http://www.w3.org/1999/xlink">
<g id="graph0" class="graph" transform="scale(1 1) rotate(0) translate(4 35)">
<title>AntiMicroSettings::getCmdSettings</title>
<polygon fill="white" stroke="transparent" points="-4,4 -4,-35 344,-35 344,4 -4,4"/>
<!-- Node1 -->
<g id="node1" class="node">
<title>Node1</title>
<g id="a_node1"><a xlink:title=" ">
<polygon fill="#bfbfbf" stroke="black" points="240,-0.5 240,-30.5 340,-30.5 340,-0.5 240,-0.5"/>
<text text-anchor="start" x="248" y="-18.5" font-family="Helvetica,sans-Serif" font-size="10.00">AntiMicroSettings::</text>
<text text-anchor="middle" x="290" y="-7.5" font-family="Helvetica,sans-Serif" font-size="10.00">getCmdSettings</text>
</a>
</g>
</g>
<!-- Node2 -->
<g id="node2" class="node">
<title>Node2</title>
<g id="a_node2"><a xlink:href="$classAntiMicroSettings.html#ae287cccf84413e6f91975bdabd605f5b" xlink:title="Import relevant options given on the command line into a QSettings instance. Used to override any opt...">
<polygon fill="white" stroke="black" points="74,-0.5 74,-30.5 204,-30.5 204,-0.5 74,-0.5"/>
<text text-anchor="start" x="82" y="-18.5" font-family="Helvetica,sans-Serif" font-size="10.00">AntiMicroSettings::</text>
<text text-anchor="middle" x="139" y="-7.5" font-family="Helvetica,sans-Serif" font-size="10.00">importFromCommandLine</text>
</a>
</g>
</g>
<!-- Node1&#45;&gt;Node2 -->
<g id="edge1" class="edge">
<title>Node1&#45;&gt;Node2</title>
<path fill="none" stroke="midnightblue" d="M229.68,-15.5C221.25,-15.5 212.55,-15.5 204.03,-15.5"/>
<polygon fill="midnightblue" stroke="midnightblue" points="229.8,-19 239.8,-15.5 229.8,-12 229.8,-19"/>
</g>
<!-- Node3 -->
<g id="node3" class="node">
<title>Node3</title>
<g id="a_node3"><a xlink:href="$main_8cpp.html#a0ddf1224851353fc92bfbff6f499fa97" xlink:title=" ">
<polygon fill="white" stroke="black" points="0,-6 0,-25 38,-25 38,-6 0,-6"/>
<text text-anchor="middle" x="19" y="-13" font-family="Helvetica,sans-Serif" font-size="10.00">main</text>
</a>
</g>
</g>
<!-- Node2&#45;&gt;Node3 -->
<g id="edge2" class="edge">
<title>Node2&#45;&gt;Node3</title>
<path fill="none" stroke="midnightblue" d="M63.6,-15.5C54.34,-15.5 45.62,-15.5 38.45,-15.5"/>
<polygon fill="midnightblue" stroke="midnightblue" points="63.82,-19 73.82,-15.5 63.82,-12 63.82,-19"/>
</g>
</g>
</svg>
