<?xml version="1.0" encoding="UTF-8" standalone="no"?>
<!DOCTYPE svg PUBLIC "-//W3C//DTD SVG 1.1//EN"
 "http://www.w3.org/Graphics/SVG/1.1/DTD/svg11.dtd">
<!-- Generated by graphviz version 2.43.0 (0)
 -->
<!-- Title: JoyTabWidget::saveDeviceSettings Pages: 1 -->
<svg width="709pt" height="135pt"
 viewBox="0.00 0.00 709.00 134.50" xmlns="http://www.w3.org/2000/svg" xmlns:xlink="http://www.w3.org/1999/xlink">
<g id="graph0" class="graph" transform="scale(1 1) rotate(0) translate(4 130.5)">
<title>JoyTabWidget::saveDeviceSettings</title>
<polygon fill="white" stroke="transparent" points="-4,4 -4,-130.5 705,-130.5 705,4 -4,4"/>
<!-- Node1 -->
<g id="node1" class="node">
<title>Node1</title>
<g id="a_node1"><a xlink:title=" ">
<polygon fill="#bfbfbf" stroke="black" points="0,-74 0,-104 136,-104 136,-74 0,-74"/>
<text text-anchor="start" x="8" y="-92" font-family="Helvetica,sans-Serif" font-size="10.00">JoyTabWidget::saveDevice</text>
<text text-anchor="middle" x="68" y="-81" font-family="Helvetica,sans-Serif" font-size="10.00">Settings</text>
</a>
</g>
</g>
<!-- Node2 -->
<g id="node2" class="node">
<title>Node2</title>
<g id="a_node2"><a xlink:href="$classAntiMicroSettings.html#a4f172ffefe55eeba5afff3d54182f881" xlink:title=" ">
<polygon fill="white" stroke="black" points="379.5,-96 379.5,-126 479.5,-126 479.5,-96 379.5,-96"/>
<text text-anchor="start" x="387.5" y="-114" font-family="Helvetica,sans-Serif" font-size="10.00">AntiMicroSettings::</text>
<text text-anchor="middle" x="429.5" y="-103" font-family="Helvetica,sans-Serif" font-size="10.00">getLock</text>
</a>
</g>
</g>
<!-- Node1&#45;&gt;Node2 -->
<g id="edge1" class="edge">
<title>Node1&#45;&gt;Node2</title>
<path fill="none" stroke="midnightblue" d="M136.2,-93.11C203.09,-97.21 304.79,-103.43 368.9,-107.35"/>
<polygon fill="midnightblue" stroke="midnightblue" points="369.04,-110.87 379.24,-107.99 369.47,-103.88 369.04,-110.87"/>
</g>
<!-- Node3 -->
<g id="node3" class="node">
<title>Node3</title>
<g id="a_node3"><a xlink:href="$classJoyTabWidget.html#afdc2166911c519519a473818504da844" xlink:title=" ">
<polygon fill="white" stroke="black" points="172,-60.5 172,-79.5 313,-79.5 313,-60.5 172,-60.5"/>
<text text-anchor="middle" x="242.5" y="-67.5" font-family="Helvetica,sans-Serif" font-size="10.00">JoyTabWidget::saveSettings</text>
</a>
</g>
</g>
<!-- Node1&#45;&gt;Node3 -->
<g id="edge2" class="edge">
<title>Node1&#45;&gt;Node3</title>
<path fill="none" stroke="midnightblue" d="M136.19,-81.6C144.62,-80.67 153.31,-79.71 161.9,-78.77"/>
<polygon fill="midnightblue" stroke="midnightblue" points="162.38,-82.24 171.94,-77.66 161.61,-75.28 162.38,-82.24"/>
</g>
<!-- Node3&#45;&gt;Node2 -->
<g id="edge3" class="edge">
<title>Node3&#45;&gt;Node2</title>
<path fill="none" stroke="midnightblue" d="M286.41,-79.51C311.02,-84.96 342.27,-91.89 369.2,-97.86"/>
<polygon fill="midnightblue" stroke="midnightblue" points="368.77,-101.35 379.29,-100.09 370.28,-94.51 368.77,-101.35"/>
</g>
<!-- Node4 -->
<g id="node4" class="node">
<title>Node4</title>
<g id="a_node4"><a xlink:href="$namespacePadderCommon.html#aaa09739d2df84421a5a3467a06ce941c" xlink:title="Returns the &quot;human&#45;readable&quot; name of the given profile.">
<polygon fill="white" stroke="black" points="349,-57.5 349,-76.5 510,-76.5 510,-57.5 349,-57.5"/>
<text text-anchor="middle" x="429.5" y="-64.5" font-family="Helvetica,sans-Serif" font-size="10.00">PadderCommon::getProfileName</text>
</a>
</g>
</g>
<!-- Node3&#45;&gt;Node4 -->
<g id="edge4" class="edge">
<title>Node3&#45;&gt;Node4</title>
<path fill="none" stroke="midnightblue" d="M313.18,-68.87C321.57,-68.73 330.23,-68.59 338.86,-68.45"/>
<polygon fill="midnightblue" stroke="midnightblue" points="339.01,-71.95 348.95,-68.29 338.89,-64.95 339.01,-71.95"/>
</g>
<!-- Node5 -->
<g id="node5" class="node">
<title>Node5</title>
<g id="a_node5"><a xlink:href="$classInputDevice.html#a894f087cdfe06136fade922ff053d522" xlink:title=" ">
<polygon fill="white" stroke="black" points="353.5,-19.5 353.5,-38.5 505.5,-38.5 505.5,-19.5 353.5,-19.5"/>
<text text-anchor="middle" x="429.5" y="-26.5" font-family="Helvetica,sans-Serif" font-size="10.00">InputDevice::getStringIdentifier</text>
</a>
</g>
</g>
<!-- Node3&#45;&gt;Node5 -->
<g id="edge5" class="edge">
<title>Node3&#45;&gt;Node5</title>
<path fill="none" stroke="midnightblue" d="M286.41,-60.49C312.93,-54.61 347.18,-47.02 375.4,-40.77"/>
<polygon fill="midnightblue" stroke="midnightblue" points="376.5,-44.11 385.5,-38.53 374.98,-37.28 376.5,-44.11"/>
</g>
<!-- Node6 -->
<g id="node6" class="node">
<title>Node6</title>
<g id="a_node6"><a xlink:href="$classInputDevice.html#a3184377c2e251949cae1a0937aaef78c" xlink:title=" ">
<polygon fill="white" stroke="black" points="556.5,-38.5 556.5,-57.5 690.5,-57.5 690.5,-38.5 556.5,-38.5"/>
<text text-anchor="middle" x="623.5" y="-45.5" font-family="Helvetica,sans-Serif" font-size="10.00">InputDevice::getSDLName</text>
</a>
</g>
</g>
<!-- Node5&#45;&gt;Node6 -->
<g id="edge6" class="edge">
<title>Node5&#45;&gt;Node6</title>
<path fill="none" stroke="midnightblue" d="M505.56,-36.43C518.88,-37.75 532.78,-39.12 546.14,-40.44"/>
<polygon fill="midnightblue" stroke="midnightblue" points="545.94,-43.94 556.23,-41.44 546.63,-36.97 545.94,-43.94"/>
</g>
<!-- Node7 -->
<g id="node7" class="node">
<title>Node7</title>
<g id="a_node7"><a xlink:href="$classInputDevice.html#ad2d9a268b89898a0a29b56d7af63de9e" xlink:title=" ">
<polygon fill="white" stroke="black" points="546,-0.5 546,-19.5 701,-19.5 701,-0.5 546,-0.5"/>
<text text-anchor="middle" x="623.5" y="-7.5" font-family="Helvetica,sans-Serif" font-size="10.00">InputDevice::getUniqueIDString</text>
</a>
</g>
</g>
<!-- Node5&#45;&gt;Node7 -->
<g id="edge7" class="edge">
<title>Node5&#45;&gt;Node7</title>
<path fill="none" stroke="midnightblue" d="M505.56,-21.57C515.5,-20.59 525.75,-19.57 535.86,-18.57"/>
<polygon fill="midnightblue" stroke="midnightblue" points="536.31,-22.05 545.91,-17.58 535.62,-15.08 536.31,-22.05"/>
</g>
</g>
</svg>
