<?xml version="1.0" encoding="UTF-8" standalone="no"?>
<!DOCTYPE svg PUBLIC "-//W3C//DTD SVG 1.1//EN"
 "http://www.w3.org/Graphics/SVG/1.1/DTD/svg11.dtd">
<!-- Generated by graphviz version 2.43.0 (0)
 -->
<!-- Title: MainSettingsDialog::changeLanguage Pages: 1 -->
<svg width="614pt" height="88pt"
 viewBox="0.00 0.00 614.00 88.00" xmlns="http://www.w3.org/2000/svg" xmlns:xlink="http://www.w3.org/1999/xlink">
<g id="graph0" class="graph" transform="scale(1 1) rotate(0) translate(4 84)">
<title>MainSettingsDialog::changeLanguage</title>
<polygon fill="white" stroke="transparent" points="-4,4 -4,-84 610,-84 610,4 -4,4"/>
<!-- Node1 -->
<g id="node1" class="node">
<title>Node1</title>
<g id="a_node1"><a xlink:title=" ">
<polygon fill="#bfbfbf" stroke="black" points="505,-24.5 505,-54.5 606,-54.5 606,-24.5 505,-24.5"/>
<text text-anchor="start" x="513" y="-42.5" font-family="Helvetica,sans-Serif" font-size="10.00">MainSettingsDialog</text>
<text text-anchor="middle" x="555.5" y="-31.5" font-family="Helvetica,sans-Serif" font-size="10.00">::changeLanguage</text>
</a>
</g>
</g>
<!-- Node2 -->
<g id="node2" class="node">
<title>Node2</title>
<g id="a_node2"><a xlink:href="$classMainSettingsDialog.html#a7da8826e7910dfd97ae68b8ac633d3f8" xlink:title=" ">
<polygon fill="white" stroke="black" points="335.5,-49.5 335.5,-79.5 446.5,-79.5 446.5,-49.5 335.5,-49.5"/>
<text text-anchor="start" x="343.5" y="-67.5" font-family="Helvetica,sans-Serif" font-size="10.00">MainSettingsDialog</text>
<text text-anchor="middle" x="391" y="-56.5" font-family="Helvetica,sans-Serif" font-size="10.00">::checkLocaleChange</text>
</a>
</g>
</g>
<!-- Node1&#45;&gt;Node2 -->
<g id="edge1" class="edge">
<title>Node1&#45;&gt;Node2</title>
<path fill="none" stroke="midnightblue" d="M494.73,-48.7C479.02,-51.11 462.15,-53.71 446.71,-56.08"/>
<polygon fill="midnightblue" stroke="midnightblue" points="495.51,-52.12 504.86,-47.14 494.45,-45.2 495.51,-52.12"/>
</g>
<!-- Node5 -->
<g id="node5" class="node">
<title>Node5</title>
<g id="a_node5"><a xlink:href="$classMainWindow.html#ae9f72ff45056908317963a1e7fa634a0" xlink:title="Build list of current input devices and pass it to settings dialog instance. Open Settings dialog.">
<polygon fill="white" stroke="black" points="313,-0.5 313,-30.5 469,-30.5 469,-0.5 313,-0.5"/>
<text text-anchor="start" x="321" y="-18.5" font-family="Helvetica,sans-Serif" font-size="10.00">MainWindow::openMainSettings</text>
<text text-anchor="middle" x="391" y="-7.5" font-family="Helvetica,sans-Serif" font-size="10.00">Dialog</text>
</a>
</g>
</g>
<!-- Node1&#45;&gt;Node5 -->
<g id="edge4" class="edge">
<title>Node1&#45;&gt;Node5</title>
<path fill="none" stroke="midnightblue" d="M494.85,-30.69C486.49,-29.46 477.8,-28.17 469.17,-26.9"/>
<polygon fill="midnightblue" stroke="midnightblue" points="494.46,-34.17 504.86,-32.17 495.48,-27.25 494.46,-34.17"/>
</g>
<!-- Node3 -->
<g id="node3" class="node">
<title>Node3</title>
<g id="a_node3"><a xlink:href="$classMainSettingsDialog.html#a07b54c6c80f72c4c5b28b32a58cbcca6" xlink:title=" ">
<polygon fill="white" stroke="black" points="159.5,-49.5 159.5,-79.5 260.5,-79.5 260.5,-49.5 159.5,-49.5"/>
<text text-anchor="start" x="167.5" y="-67.5" font-family="Helvetica,sans-Serif" font-size="10.00">MainSettingsDialog</text>
<text text-anchor="middle" x="210" y="-56.5" font-family="Helvetica,sans-Serif" font-size="10.00">::saveNewSettings</text>
</a>
</g>
</g>
<!-- Node2&#45;&gt;Node3 -->
<g id="edge2" class="edge">
<title>Node2&#45;&gt;Node3</title>
<path fill="none" stroke="midnightblue" d="M325.1,-64.5C303.89,-64.5 280.69,-64.5 260.78,-64.5"/>
<polygon fill="midnightblue" stroke="midnightblue" points="325.32,-68 335.32,-64.5 325.32,-61 325.32,-68"/>
</g>
<!-- Node4 -->
<g id="node4" class="node">
<title>Node4</title>
<g id="a_node4"><a xlink:href="$classMainSettingsDialog.html#aeee272ff5482aca59310558ffdb9ebbe" xlink:title=" ">
<polygon fill="white" stroke="black" points="0,-49.5 0,-79.5 107,-79.5 107,-49.5 0,-49.5"/>
<text text-anchor="start" x="8" y="-67.5" font-family="Helvetica,sans-Serif" font-size="10.00">MainSettingsDialog</text>
<text text-anchor="middle" x="53.5" y="-56.5" font-family="Helvetica,sans-Serif" font-size="10.00">::MainSettingsDialog</text>
</a>
</g>
</g>
<!-- Node3&#45;&gt;Node4 -->
<g id="edge3" class="edge">
<title>Node3&#45;&gt;Node4</title>
<path fill="none" stroke="midnightblue" d="M148.89,-64.5C135.09,-64.5 120.52,-64.5 107.07,-64.5"/>
<polygon fill="midnightblue" stroke="midnightblue" points="149.26,-68 159.26,-64.5 149.26,-61 149.26,-68"/>
</g>
<!-- Node6 -->
<g id="node6" class="node">
<title>Node6</title>
<g id="a_node6"><a xlink:href="$classMainWindow.html#a2f0c03d3d51748ab794e698322110614" xlink:title=" ">
<polygon fill="white" stroke="black" points="143,-6 143,-25 277,-25 277,-6 143,-6"/>
<text text-anchor="middle" x="210" y="-13" font-family="Helvetica,sans-Serif" font-size="10.00">MainWindow::MainWindow</text>
</a>
</g>
</g>
<!-- Node5&#45;&gt;Node6 -->
<g id="edge5" class="edge">
<title>Node5&#45;&gt;Node6</title>
<path fill="none" stroke="midnightblue" d="M302.68,-15.5C294.04,-15.5 285.37,-15.5 277,-15.5"/>
<polygon fill="midnightblue" stroke="midnightblue" points="302.79,-19 312.79,-15.5 302.79,-12 302.79,-19"/>
</g>
</g>
</svg>
