<?xml version="1.0" encoding="UTF-8" standalone="no"?>
<!DOCTYPE svg PUBLIC "-//W3C//DTD SVG 1.1//EN"
 "http://www.w3.org/Graphics/SVG/1.1/DTD/svg11.dtd">
<!-- Generated by graphviz version 2.43.0 (0)
 -->
<!-- Title: JoyButton::getPreferredKeyPressTime Pages: 1 -->
<svg width="320pt" height="116pt"
 viewBox="0.00 0.00 320.00 115.50" xmlns="http://www.w3.org/2000/svg" xmlns:xlink="http://www.w3.org/1999/xlink">
<g id="graph0" class="graph" transform="scale(1 1) rotate(0) translate(4 111.5)">
<title>JoyButton::getPreferredKeyPressTime</title>
<polygon fill="white" stroke="transparent" points="-4,4 -4,-111.5 316,-111.5 316,4 -4,4"/>
<!-- Node1 -->
<g id="node1" class="node">
<title>Node1</title>
<g id="a_node1"><a xlink:title="Obtain the appropriate key press time for the current event. Order of preference: active key press ti...">
<polygon fill="#bfbfbf" stroke="black" points="0,-33 0,-63 137,-63 137,-33 0,-33"/>
<text text-anchor="start" x="8" y="-51" font-family="Helvetica,sans-Serif" font-size="10.00">JoyButton::getPreferredKey</text>
<text text-anchor="middle" x="68.5" y="-40" font-family="Helvetica,sans-Serif" font-size="10.00">PressTime</text>
</a>
</g>
</g>
<!-- Node2 -->
<g id="node2" class="node">
<title>Node2</title>
<g id="a_node2"><a xlink:href="$classInputDevice.html#a15ce72c69139dfded93523e17d48c7ab" xlink:title=" ">
<polygon fill="white" stroke="black" points="174.5,-77 174.5,-107 310.5,-107 310.5,-77 174.5,-77"/>
<text text-anchor="start" x="182.5" y="-95" font-family="Helvetica,sans-Serif" font-size="10.00">InputDevice::getDeviceKey</text>
<text text-anchor="middle" x="242.5" y="-84" font-family="Helvetica,sans-Serif" font-size="10.00">PressTime</text>
</a>
</g>
</g>
<!-- Node1&#45;&gt;Node2 -->
<g id="edge1" class="edge">
<title>Node1&#45;&gt;Node2</title>
<path fill="none" stroke="midnightblue" d="M128.21,-63.02C142.52,-66.68 157.96,-70.63 172.69,-74.4"/>
<polygon fill="midnightblue" stroke="midnightblue" points="172.21,-77.89 182.76,-76.97 173.94,-71.1 172.21,-77.89"/>
</g>
<!-- Node3 -->
<g id="node3" class="node">
<title>Node3</title>
<g id="a_node3"><a xlink:href="$classSetJoystick.html#af641cbddd22e358218ba68497e40e4e3" xlink:title=" ">
<polygon fill="white" stroke="black" points="173,-38.5 173,-57.5 312,-57.5 312,-38.5 173,-38.5"/>
<text text-anchor="middle" x="242.5" y="-45.5" font-family="Helvetica,sans-Serif" font-size="10.00">SetJoystick::getInputDevice</text>
</a>
</g>
</g>
<!-- Node1&#45;&gt;Node3 -->
<g id="edge2" class="edge">
<title>Node1&#45;&gt;Node3</title>
<path fill="none" stroke="midnightblue" d="M137.48,-48C145.76,-48 154.27,-48 162.69,-48"/>
<polygon fill="midnightblue" stroke="midnightblue" points="162.89,-51.5 172.89,-48 162.89,-44.5 162.89,-51.5"/>
</g>
<!-- Node4 -->
<g id="node4" class="node">
<title>Node4</title>
<g id="a_node4"><a xlink:href="$classJoyButtonSlot.html#a7fa0bf6d891437a2392e47d32b746502" xlink:title=" ">
<polygon fill="white" stroke="black" points="173.5,-0.5 173.5,-19.5 311.5,-19.5 311.5,-0.5 173.5,-0.5"/>
<text text-anchor="middle" x="242.5" y="-7.5" font-family="Helvetica,sans-Serif" font-size="10.00">JoyButtonSlot::getSlotCode</text>
</a>
</g>
</g>
<!-- Node1&#45;&gt;Node4 -->
<g id="edge3" class="edge">
<title>Node1&#45;&gt;Node4</title>
<path fill="none" stroke="midnightblue" d="M137.48,-32.98C154.51,-29.22 172.53,-25.24 188.69,-21.67"/>
<polygon fill="midnightblue" stroke="midnightblue" points="189.49,-25.08 198.5,-19.5 187.98,-18.24 189.49,-25.08"/>
</g>
</g>
</svg>
