<?xml version="1.0" encoding="UTF-8" standalone="no"?>
<!DOCTYPE svg PUBLIC "-//W3C//DTD SVG 1.1//EN"
 "http://www.w3.org/Graphics/SVG/1.1/DTD/svg11.dtd">
<!-- Generated by graphviz version 2.43.0 (0)
 -->
<!-- Title: GameControllerMappingDialog::populateGameControllerBindings Pages: 1 -->
<svg width="743pt" height="278pt"
 viewBox="0.00 0.00 743.00 277.50" xmlns="http://www.w3.org/2000/svg" xmlns:xlink="http://www.w3.org/1999/xlink">
<g id="graph0" class="graph" transform="scale(1 1) rotate(0) translate(4 273.5)">
<title>GameControllerMappingDialog::populateGameControllerBindings</title>
<polygon fill="white" stroke="transparent" points="-4,4 -4,-273.5 739,-273.5 739,4 -4,4"/>
<!-- Node1 -->
<g id="node1" class="node">
<title>Node1</title>
<g id="a_node1"><a xlink:title=" ">
<polygon fill="#bfbfbf" stroke="black" points="0,-124 0,-154 165,-154 165,-124 0,-124"/>
<text text-anchor="start" x="8" y="-142" font-family="Helvetica,sans-Serif" font-size="10.00">GameControllerMappingDialog</text>
<text text-anchor="middle" x="82.5" y="-131" font-family="Helvetica,sans-Serif" font-size="10.00">::populateGameControllerBindings</text>
</a>
</g>
</g>
<!-- Node2 -->
<g id="node2" class="node">
<title>Node2</title>
<g id="a_node2"><a xlink:href="$classGameControllerMappingDialog.html#abb381d0bdff1176412936a3dd4e5155a" xlink:title=" ">
<polygon fill="white" stroke="black" points="205.5,-239 205.5,-269 354.5,-269 354.5,-239 205.5,-239"/>
<text text-anchor="start" x="213.5" y="-257" font-family="Helvetica,sans-Serif" font-size="10.00">GameControllerMappingDialog</text>
<text text-anchor="middle" x="280" y="-246" font-family="Helvetica,sans-Serif" font-size="10.00">::bindingString</text>
</a>
</g>
</g>
<!-- Node1&#45;&gt;Node2 -->
<g id="edge1" class="edge">
<title>Node1&#45;&gt;Node2</title>
<path fill="none" stroke="midnightblue" d="M99.31,-154.32C120.73,-174.31 160.92,-209.2 201,-230 204.51,-231.82 208.18,-233.53 211.93,-235.13"/>
<polygon fill="midnightblue" stroke="midnightblue" points="210.81,-238.45 221.39,-238.88 213.39,-231.94 210.81,-238.45"/>
</g>
<!-- Node3 -->
<g id="node3" class="node">
<title>Node3</title>
<g id="a_node3"><a xlink:href="$classGameControllerMappingDialog.html#a4316f311a7f8bfdb293b714320b092f6" xlink:title=" ">
<polygon fill="white" stroke="black" points="205.5,-190 205.5,-220 354.5,-220 354.5,-190 205.5,-190"/>
<text text-anchor="start" x="213.5" y="-208" font-family="Helvetica,sans-Serif" font-size="10.00">GameControllerMappingDialog</text>
<text text-anchor="middle" x="280" y="-197" font-family="Helvetica,sans-Serif" font-size="10.00">::bindingValues</text>
</a>
</g>
</g>
<!-- Node1&#45;&gt;Node3 -->
<g id="edge2" class="edge">
<title>Node1&#45;&gt;Node3</title>
<path fill="none" stroke="midnightblue" d="M125.83,-154.06C148.15,-161.93 176,-171.63 201,-180 207.77,-182.26 214.88,-184.6 221.94,-186.9"/>
<polygon fill="midnightblue" stroke="midnightblue" points="220.91,-190.24 231.5,-189.99 223.06,-183.58 220.91,-190.24"/>
</g>
<!-- Node4 -->
<g id="node4" class="node">
<title>Node4</title>
<g id="a_node4"><a xlink:href="$classGameController.html#a625c4369e1e1cab6a201b02804024fc2" xlink:title=" ">
<polygon fill="white" stroke="black" points="201,-151.5 201,-170.5 359,-170.5 359,-151.5 201,-151.5"/>
<text text-anchor="middle" x="280" y="-158.5" font-family="Helvetica,sans-Serif" font-size="10.00">GameController::getBindForAxis</text>
</a>
</g>
</g>
<!-- Node1&#45;&gt;Node4 -->
<g id="edge3" class="edge">
<title>Node1&#45;&gt;Node4</title>
<path fill="none" stroke="midnightblue" d="M165.28,-148.2C173.77,-149.16 182.44,-150.13 191,-151.1"/>
<polygon fill="midnightblue" stroke="midnightblue" points="190.66,-154.58 200.99,-152.22 191.45,-147.63 190.66,-154.58"/>
</g>
<!-- Node5 -->
<g id="node5" class="node">
<title>Node5</title>
<g id="a_node5"><a xlink:href="$classGameController.html#a24bf287c7d3b8496ece2033800649120" xlink:title=" ">
<polygon fill="white" stroke="black" points="211,-102 211,-132 349,-132 349,-102 211,-102"/>
<text text-anchor="start" x="219" y="-120" font-family="Helvetica,sans-Serif" font-size="10.00">GameController::getBindFor</text>
<text text-anchor="middle" x="280" y="-109" font-family="Helvetica,sans-Serif" font-size="10.00">Button</text>
</a>
</g>
</g>
<!-- Node1&#45;&gt;Node5 -->
<g id="edge4" class="edge">
<title>Node1&#45;&gt;Node5</title>
<path fill="none" stroke="midnightblue" d="M165.28,-129.8C177.01,-128.48 189.06,-127.12 200.73,-125.81"/>
<polygon fill="midnightblue" stroke="midnightblue" points="201.31,-129.26 210.86,-124.67 200.53,-122.31 201.31,-129.26"/>
</g>
<!-- Node6 -->
<g id="node6" class="node">
<title>Node6</title>
<g id="a_node6"><a xlink:href="$classInputDevice.html#a4c662c7a0415e247266e6b205d064763" xlink:title=" ">
<polygon fill="white" stroke="black" points="207.5,-63.5 207.5,-82.5 352.5,-82.5 352.5,-63.5 207.5,-63.5"/>
<text text-anchor="middle" x="280" y="-70.5" font-family="Helvetica,sans-Serif" font-size="10.00">InputDevice::getNumberAxes</text>
</a>
</g>
</g>
<!-- Node1&#45;&gt;Node6 -->
<g id="edge5" class="edge">
<title>Node1&#45;&gt;Node6</title>
<path fill="none" stroke="midnightblue" d="M118.57,-123.97C141.72,-114.38 172.85,-102.08 201,-93 209.7,-90.19 219.04,-87.52 228.12,-85.09"/>
<polygon fill="midnightblue" stroke="midnightblue" points="229.05,-88.46 237.84,-82.55 227.28,-81.69 229.05,-88.46"/>
</g>
<!-- Node10 -->
<g id="node10" class="node">
<title>Node10</title>
<g id="a_node10"><a xlink:href="$classInputDevice.html#a8d061d1a518f77dcdecbb2ecd32e9d30" xlink:title=" ">
<polygon fill="white" stroke="black" points="201.5,-25.5 201.5,-44.5 358.5,-44.5 358.5,-25.5 201.5,-25.5"/>
<text text-anchor="middle" x="280" y="-32.5" font-family="Helvetica,sans-Serif" font-size="10.00">InputDevice::getNumberButtons</text>
</a>
</g>
</g>
<!-- Node1&#45;&gt;Node10 -->
<g id="edge9" class="edge">
<title>Node1&#45;&gt;Node10</title>
<path fill="none" stroke="midnightblue" d="M100.07,-123.75C121.7,-104.66 161.46,-72.26 201,-54 206.27,-51.57 211.89,-49.42 217.6,-47.54"/>
<polygon fill="midnightblue" stroke="midnightblue" points="218.71,-50.86 227.27,-44.6 216.68,-44.16 218.71,-50.86"/>
</g>
<!-- Node7 -->
<g id="node7" class="node">
<title>Node7</title>
<g id="a_node7"><a xlink:href="$classInputDevice.html#abc23a70bef37f2fc70248cd129af170b" xlink:title=" ">
<polygon fill="white" stroke="black" points="407,-39 407,-69 538,-69 538,-39 407,-39"/>
<text text-anchor="start" x="415" y="-57" font-family="Helvetica,sans-Serif" font-size="10.00">InputDevice::getActiveSet</text>
<text text-anchor="middle" x="472.5" y="-46" font-family="Helvetica,sans-Serif" font-size="10.00">Joystick</text>
</a>
</g>
</g>
<!-- Node6&#45;&gt;Node7 -->
<g id="edge6" class="edge">
<title>Node6&#45;&gt;Node7</title>
<path fill="none" stroke="midnightblue" d="M352.75,-65.84C367.01,-64.42 382.01,-62.93 396.38,-61.49"/>
<polygon fill="midnightblue" stroke="midnightblue" points="397.11,-64.94 406.71,-60.46 396.41,-57.97 397.11,-64.94"/>
</g>
<!-- Node9 -->
<g id="node9" class="node">
<title>Node9</title>
<g id="a_node9"><a xlink:href="$classSetJoystick.html#a7e71493074ed6e796c077aab6e6688b7" xlink:title=" ">
<polygon fill="white" stroke="black" points="401,-88.5 401,-107.5 544,-107.5 544,-88.5 401,-88.5"/>
<text text-anchor="middle" x="472.5" y="-95.5" font-family="Helvetica,sans-Serif" font-size="10.00">SetJoystick::getNumberAxes</text>
</a>
</g>
</g>
<!-- Node6&#45;&gt;Node9 -->
<g id="edge8" class="edge">
<title>Node6&#45;&gt;Node9</title>
<path fill="none" stroke="midnightblue" d="M352.75,-82.42C365.15,-84.04 378.12,-85.74 390.74,-87.4"/>
<polygon fill="midnightblue" stroke="midnightblue" points="390.39,-90.89 400.76,-88.72 391.3,-83.95 390.39,-90.89"/>
</g>
<!-- Node8 -->
<g id="node8" class="node">
<title>Node8</title>
<g id="a_node8"><a xlink:href="$classInputDevice.html#a1c4c65d9e509a5c3bde064871d7e1849" xlink:title=" ">
<polygon fill="white" stroke="black" points="586,-44.5 586,-63.5 735,-63.5 735,-44.5 586,-44.5"/>
<text text-anchor="middle" x="660.5" y="-51.5" font-family="Helvetica,sans-Serif" font-size="10.00">InputDevice::getJoystick_sets</text>
</a>
</g>
</g>
<!-- Node7&#45;&gt;Node8 -->
<g id="edge7" class="edge">
<title>Node7&#45;&gt;Node8</title>
<path fill="none" stroke="midnightblue" d="M538.03,-54C550.2,-54 563.09,-54 575.75,-54"/>
<polygon fill="midnightblue" stroke="midnightblue" points="575.84,-57.5 585.84,-54 575.84,-50.5 575.84,-57.5"/>
</g>
<!-- Node10&#45;&gt;Node7 -->
<g id="edge10" class="edge">
<title>Node10&#45;&gt;Node7</title>
<path fill="none" stroke="midnightblue" d="M358.76,-42.76C371.22,-44 384.09,-45.28 396.48,-46.52"/>
<polygon fill="midnightblue" stroke="midnightblue" points="396.46,-50.03 406.76,-47.54 397.16,-43.07 396.46,-50.03"/>
</g>
<!-- Node11 -->
<g id="node11" class="node">
<title>Node11</title>
<g id="a_node11"><a xlink:href="$classSetJoystick.html#a446e296af015f6304bd7425153a4c4ae" xlink:title=" ">
<polygon fill="white" stroke="black" points="395,-0.5 395,-19.5 550,-19.5 550,-0.5 395,-0.5"/>
<text text-anchor="middle" x="472.5" y="-7.5" font-family="Helvetica,sans-Serif" font-size="10.00">SetJoystick::getNumberButtons</text>
</a>
</g>
</g>
<!-- Node10&#45;&gt;Node11 -->
<g id="edge11" class="edge">
<title>Node10&#45;&gt;Node11</title>
<path fill="none" stroke="midnightblue" d="M353.56,-25.48C365.03,-23.97 376.96,-22.41 388.64,-20.87"/>
<polygon fill="midnightblue" stroke="midnightblue" points="389.36,-24.31 398.82,-19.54 388.45,-17.37 389.36,-24.31"/>
</g>
<!-- Node12 -->
<g id="node12" class="node">
<title>Node12</title>
<g id="a_node12"><a xlink:href="$classSetJoystick.html#ac5baae46a0b3924a83b523ad89819a53" xlink:title=" ">
<polygon fill="white" stroke="black" points="600.5,-0.5 600.5,-19.5 720.5,-19.5 720.5,-0.5 600.5,-0.5"/>
<text text-anchor="middle" x="660.5" y="-7.5" font-family="Helvetica,sans-Serif" font-size="10.00">SetJoystick::getButtons</text>
</a>
</g>
</g>
<!-- Node11&#45;&gt;Node12 -->
<g id="edge12" class="edge">
<title>Node11&#45;&gt;Node12</title>
<path fill="none" stroke="midnightblue" d="M550.23,-10C563.41,-10 577.05,-10 590.03,-10"/>
<polygon fill="midnightblue" stroke="midnightblue" points="590.28,-13.5 600.28,-10 590.28,-6.5 590.28,-13.5"/>
</g>
</g>
</svg>
