<?xml version="1.0" encoding="UTF-8" standalone="no"?>
<!DOCTYPE svg PUBLIC "-//W3C//DTD SVG 1.1//EN"
 "http://www.w3.org/Graphics/SVG/1.1/DTD/svg11.dtd">
<!-- Generated by graphviz version 2.43.0 (0)
 -->
<!-- Title: JoyTabWidget::checkForUnsavedProfile Pages: 1 -->
<svg width="1582pt" height="317pt"
 viewBox="0.00 0.00 1582.00 316.76" xmlns="http://www.w3.org/2000/svg" xmlns:xlink="http://www.w3.org/1999/xlink">
<g id="graph0" class="graph" transform="scale(1 1) rotate(0) translate(4 312.76)">
<title>JoyTabWidget::checkForUnsavedProfile</title>
<polygon fill="white" stroke="transparent" points="-4,4 -4,-312.76 1578,-312.76 1578,4 -4,4"/>
<!-- Node1 -->
<g id="node1" class="node">
<title>Node1</title>
<g id="a_node1"><a xlink:title=" ">
<polygon fill="#bfbfbf" stroke="black" points="1410,-139 1410,-169 1574,-169 1574,-139 1410,-139"/>
<text text-anchor="start" x="1418" y="-157" font-family="Helvetica,sans-Serif" font-size="10.00">JoyTabWidget::checkForUnsaved</text>
<text text-anchor="middle" x="1492" y="-146" font-family="Helvetica,sans-Serif" font-size="10.00">Profile</text>
</a>
</g>
</g>
<!-- Node2 -->
<g id="node2" class="node">
<title>Node2</title>
<g id="a_node2"><a xlink:href="$classJoyTabWidget.html#a46cbb4d5798f46f5b9aaab65090ebe24" xlink:title=" ">
<polygon fill="white" stroke="black" points="1230,-115 1230,-145 1362,-145 1362,-115 1230,-115"/>
<text text-anchor="start" x="1238" y="-133" font-family="Helvetica,sans-Serif" font-size="10.00">JoyTabWidget::disconnect</text>
<text text-anchor="middle" x="1296" y="-122" font-family="Helvetica,sans-Serif" font-size="10.00">CheckUnsavedEvent</text>
</a>
</g>
</g>
<!-- Node1&#45;&gt;Node2 -->
<g id="edge1" class="edge">
<title>Node1&#45;&gt;Node2</title>
<path fill="none" stroke="midnightblue" d="M1411.88,-137.56C1395.35,-135.33 1378.1,-133.27 1362.15,-131.64"/>
<polygon fill="midnightblue" stroke="midnightblue" points="1411.67,-141.07 1422.06,-138.98 1412.63,-134.14 1411.67,-141.07"/>
</g>
<!-- Node14 -->
<g id="node14" class="node">
<title>Node14</title>
<g id="a_node14"><a xlink:href="$classJoyTabWidget.html#aa64541df4b5629b43351dd13c9651b2a" xlink:title=" ">
<polygon fill="white" stroke="black" points="1034,-228.5 1034,-247.5 1181,-247.5 1181,-228.5 1034,-228.5"/>
<text text-anchor="middle" x="1107.5" y="-235.5" font-family="Helvetica,sans-Serif" font-size="10.00">JoyTabWidget::loadConfigFile</text>
</a>
</g>
</g>
<!-- Node1&#45;&gt;Node14 -->
<g id="edge31" class="edge">
<title>Node1&#45;&gt;Node14</title>
<path fill="none" stroke="midnightblue" d="M1452.83,-173.5C1430.42,-184.13 1401.23,-196.59 1374,-204 1310.1,-221.38 1235.08,-229.95 1181.11,-234.13"/>
<polygon fill="midnightblue" stroke="midnightblue" points="1454.51,-176.57 1462,-169.07 1451.47,-170.27 1454.51,-176.57"/>
</g>
<!-- Node21 -->
<g id="node21" class="node">
<title>Node21</title>
<g id="a_node21"><a xlink:href="$classJoyTabWidget.html#addfb2efb312a0ce8b5c1b9bcc8543bef" xlink:title=" ">
<polygon fill="white" stroke="black" points="1218,-164 1218,-194 1374,-194 1374,-164 1218,-164"/>
<text text-anchor="start" x="1226" y="-182" font-family="Helvetica,sans-Serif" font-size="10.00">JoyTabWidget::reconnectCheck</text>
<text text-anchor="middle" x="1296" y="-171" font-family="Helvetica,sans-Serif" font-size="10.00">UnsavedEvent</text>
</a>
</g>
</g>
<!-- Node1&#45;&gt;Node21 -->
<g id="edge32" class="edge">
<title>Node1&#45;&gt;Node21</title>
<path fill="none" stroke="midnightblue" d="M1399.64,-159.03C1387.42,-160.56 1375.09,-162.25 1363.41,-164"/>
<polygon fill="midnightblue" stroke="midnightblue" points="1400.35,-162.47 1409.85,-157.79 1399.5,-155.52 1400.35,-162.47"/>
</g>
<!-- Node2&#45;&gt;Node1 -->
<g id="edge2" class="edge">
<title>Node2&#45;&gt;Node1</title>
<path fill="none" stroke="midnightblue" d="M1372.39,-145.93C1384.67,-147.62 1397.44,-149.22 1409.85,-150.63"/>
<polygon fill="midnightblue" stroke="midnightblue" points="1372.6,-142.42 1362.21,-144.48 1371.62,-149.35 1372.6,-142.42"/>
</g>
<!-- Node3 -->
<g id="node3" class="node">
<title>Node3</title>
<g id="a_node3"><a xlink:href="$classJoyTabWidget.html#a3a406264aca24134162a4ee13e998b55" xlink:title=" ">
<polygon fill="white" stroke="black" points="842,-71 842,-101 997,-101 997,-71 842,-71"/>
<text text-anchor="start" x="850" y="-89" font-family="Helvetica,sans-Serif" font-size="10.00">JoyTabWidget::discardUnsaved</text>
<text text-anchor="middle" x="919.5" y="-78" font-family="Helvetica,sans-Serif" font-size="10.00">ProfileChanges</text>
</a>
</g>
</g>
<!-- Node2&#45;&gt;Node3 -->
<g id="edge3" class="edge">
<title>Node2&#45;&gt;Node3</title>
<path fill="none" stroke="midnightblue" d="M1266.68,-108.82C1244.82,-93.86 1213.14,-75.09 1182,-67 1114.16,-49.37 1033.31,-59.82 979.65,-70.96"/>
<polygon fill="midnightblue" stroke="midnightblue" points="1264.93,-111.87 1275.13,-114.74 1268.95,-106.14 1264.93,-111.87"/>
</g>
<!-- Node2&#45;&gt;Node14 -->
<g id="edge18" class="edge">
<title>Node2&#45;&gt;Node14</title>
<path fill="none" stroke="midnightblue" d="M1231.21,-148.83C1226.66,-150.74 1222.22,-152.8 1218,-155 1212.71,-157.76 1148.85,-206.87 1121.17,-228.22"/>
<polygon fill="midnightblue" stroke="midnightblue" points="1232.61,-152.04 1240.63,-145.11 1230.04,-145.53 1232.61,-152.04"/>
</g>
<!-- Node19 -->
<g id="node19" class="node">
<title>Node19</title>
<g id="a_node19"><a xlink:href="$classJoyTabWidget.html#a7e15bfce4bac6297eda8fc3a4e9d7196" xlink:title=" ">
<polygon fill="white" stroke="black" points="1034.5,-152.5 1034.5,-171.5 1180.5,-171.5 1180.5,-152.5 1034.5,-152.5"/>
<text text-anchor="middle" x="1107.5" y="-159.5" font-family="Helvetica,sans-Serif" font-size="10.00">JoyTabWidget::saveAsConfig</text>
</a>
</g>
</g>
<!-- Node2&#45;&gt;Node19 -->
<g id="edge25" class="edge">
<title>Node2&#45;&gt;Node19</title>
<path fill="none" stroke="midnightblue" d="M1219.84,-142.9C1201.22,-146.09 1181.59,-149.46 1164.09,-152.46"/>
<polygon fill="midnightblue" stroke="midnightblue" points="1220.51,-146.33 1229.77,-141.19 1219.32,-139.43 1220.51,-146.33"/>
</g>
<!-- Node20 -->
<g id="node20" class="node">
<title>Node20</title>
<g id="a_node20"><a xlink:href="$classJoyTabWidget.html#a6b09ad1532669ed27aac287e6aa63faf" xlink:title=" ">
<polygon fill="white" stroke="black" points="1033,-76.5 1033,-95.5 1182,-95.5 1182,-76.5 1033,-76.5"/>
<text text-anchor="middle" x="1107.5" y="-83.5" font-family="Helvetica,sans-Serif" font-size="10.00">JoyTabWidget::saveConfigFile</text>
</a>
</g>
</g>
<!-- Node2&#45;&gt;Node20 -->
<g id="edge27" class="edge">
<title>Node2&#45;&gt;Node20</title>
<path fill="none" stroke="midnightblue" d="M1221.59,-112.68C1196.81,-106.84 1170.07,-100.53 1148.82,-95.51"/>
<polygon fill="midnightblue" stroke="midnightblue" points="1220.8,-116.09 1231.34,-114.98 1222.41,-109.28 1220.8,-116.09"/>
</g>
<!-- Node4 -->
<g id="node4" class="node">
<title>Node4</title>
<g id="a_node4"><a xlink:href="$classMainWindow.html#a59aa0e5214cb820e8743dea1b81b7d9a" xlink:title=" ">
<polygon fill="white" stroke="black" points="666.5,-76.5 666.5,-95.5 797.5,-95.5 797.5,-76.5 666.5,-76.5"/>
<text text-anchor="middle" x="732" y="-83.5" font-family="Helvetica,sans-Serif" font-size="10.00">MainWindow::quitProgram</text>
</a>
</g>
</g>
<!-- Node3&#45;&gt;Node4 -->
<g id="edge4" class="edge">
<title>Node3&#45;&gt;Node4</title>
<path fill="none" stroke="midnightblue" d="M831.87,-86C820.31,-86 808.62,-86 797.53,-86"/>
<polygon fill="midnightblue" stroke="midnightblue" points="831.98,-89.5 841.98,-86 831.98,-82.5 831.98,-89.5"/>
</g>
<!-- Node5 -->
<g id="node5" class="node">
<title>Node5</title>
<g id="a_node5"><a xlink:href="$classMainWindow.html#a4b00208df3ff47236e6b46f308647a97" xlink:title=" ">
<polygon fill="white" stroke="black" points="470,-76.5 470,-95.5 622,-95.5 622,-76.5 470,-76.5"/>
<text text-anchor="middle" x="546" y="-83.5" font-family="Helvetica,sans-Serif" font-size="10.00">MainWindow::populateTrayIcon</text>
</a>
</g>
</g>
<!-- Node4&#45;&gt;Node5 -->
<g id="edge5" class="edge">
<title>Node4&#45;&gt;Node5</title>
<path fill="none" stroke="midnightblue" d="M656.2,-86C644.98,-86 633.4,-86 622.17,-86"/>
<polygon fill="midnightblue" stroke="midnightblue" points="656.39,-89.5 666.39,-86 656.39,-82.5 656.39,-89.5"/>
</g>
<!-- Node6 -->
<g id="node6" class="node">
<title>Node6</title>
<g id="a_node6"><a xlink:href="$classMainWindow.html#a9738583d1ab872fb2784c0faee89cb46" xlink:title=" ">
<polygon fill="white" stroke="black" points="82,-0.5 82,-19.5 207,-19.5 207,-0.5 82,-0.5"/>
<text text-anchor="middle" x="144.5" y="-7.5" font-family="Helvetica,sans-Serif" font-size="10.00">MainWindow::addJoyTab</text>
</a>
</g>
</g>
<!-- Node5&#45;&gt;Node6 -->
<g id="edge6" class="edge">
<title>Node5&#45;&gt;Node6</title>
<path fill="none" stroke="midnightblue" d="M522.59,-70.99C500.94,-57.36 466.7,-38.05 434,-29 357.93,-7.94 266.46,-5.58 207.21,-6.9"/>
<polygon fill="midnightblue" stroke="midnightblue" points="520.75,-73.97 531.06,-76.44 524.54,-68.09 520.75,-73.97"/>
</g>
<!-- Node8 -->
<g id="node8" class="node">
<title>Node8</title>
<g id="a_node8"><a xlink:href="$classMainWindow.html#aef8941c9dc542d8ff8416fff1caf8ad7" xlink:title=" ">
<polygon fill="white" stroke="black" points="272.5,-76.5 272.5,-95.5 412.5,-95.5 412.5,-76.5 272.5,-76.5"/>
<text text-anchor="middle" x="342.5" y="-83.5" font-family="Helvetica,sans-Serif" font-size="10.00">MainWindow::fillButtonsMap</text>
</a>
</g>
</g>
<!-- Node5&#45;&gt;Node8 -->
<g id="edge8" class="edge">
<title>Node5&#45;&gt;Node8</title>
<path fill="none" stroke="midnightblue" d="M459.73,-86C444.01,-86 427.77,-86 412.6,-86"/>
<polygon fill="midnightblue" stroke="midnightblue" points="459.97,-89.5 469.97,-86 459.97,-82.5 459.97,-89.5"/>
</g>
<!-- Node10 -->
<g id="node10" class="node">
<title>Node10</title>
<g id="a_node10"><a xlink:href="$classMainWindow.html#ae9f72ff45056908317963a1e7fa634a0" xlink:title="Build list of current input devices and pass it to settings dialog instance. Open Settings dialog.">
<polygon fill="white" stroke="black" points="264.5,-153 264.5,-183 420.5,-183 420.5,-153 264.5,-153"/>
<text text-anchor="start" x="272.5" y="-171" font-family="Helvetica,sans-Serif" font-size="10.00">MainWindow::openMainSettings</text>
<text text-anchor="middle" x="342.5" y="-160" font-family="Helvetica,sans-Serif" font-size="10.00">Dialog</text>
</a>
</g>
</g>
<!-- Node5&#45;&gt;Node10 -->
<g id="edge12" class="edge">
<title>Node5&#45;&gt;Node10</title>
<path fill="none" stroke="midnightblue" d="M517.27,-100.11C495.06,-111.13 462.93,-126.47 434,-138 420.78,-143.27 406.22,-148.38 392.73,-152.85"/>
<polygon fill="midnightblue" stroke="midnightblue" points="519.06,-103.12 526.44,-95.52 515.93,-96.86 519.06,-103.12"/>
</g>
<!-- Node12 -->
<g id="node12" class="node">
<title>Node12</title>
<g id="a_node12"><a xlink:href="$classMainWindow.html#ac398cc635954d370088390a0a5bee878" xlink:title=" ">
<polygon fill="white" stroke="black" points="74,-152.5 74,-171.5 215,-171.5 215,-152.5 74,-152.5"/>
<text text-anchor="middle" x="144.5" y="-159.5" font-family="Helvetica,sans-Serif" font-size="10.00">MainWindow::removeJoyTab</text>
</a>
</g>
</g>
<!-- Node5&#45;&gt;Node12 -->
<g id="edge14" class="edge">
<title>Node5&#45;&gt;Node12</title>
<path fill="none" stroke="midnightblue" d="M484.54,-97.5C405.6,-112.52 268.87,-138.53 195.49,-152.49"/>
<polygon fill="midnightblue" stroke="midnightblue" points="485.64,-100.86 494.81,-95.55 484.33,-93.98 485.64,-100.86"/>
</g>
<!-- Node13 -->
<g id="node13" class="node">
<title>Node13</title>
<g id="a_node13"><a xlink:href="$classMainWindow.html#a2a0aba59f5d3bf3c6fb97f0de103b36f" xlink:title=" ">
<polygon fill="white" stroke="black" points="251,-38.5 251,-57.5 434,-57.5 434,-38.5 251,-38.5"/>
<text text-anchor="middle" x="342.5" y="-45.5" font-family="Helvetica,sans-Serif" font-size="10.00">MainWindow::testMappingUpdateNow</text>
</a>
</g>
</g>
<!-- Node5&#45;&gt;Node13 -->
<g id="edge16" class="edge">
<title>Node5&#45;&gt;Node13</title>
<path fill="none" stroke="midnightblue" d="M484.45,-74.58C455.62,-69.14 421.54,-62.72 394.11,-57.54"/>
<polygon fill="midnightblue" stroke="midnightblue" points="483.94,-78.05 494.41,-76.46 485.23,-71.17 483.94,-78.05"/>
</g>
<!-- Node7 -->
<g id="node7" class="node">
<title>Node7</title>
<g id="a_node7"><a xlink:href="$main_8cpp.html#a0ddf1224851353fc92bfbff6f499fa97" xlink:title=" ">
<polygon fill="white" stroke="black" points="0,-95.5 0,-114.5 38,-114.5 38,-95.5 0,-95.5"/>
<text text-anchor="middle" x="19" y="-102.5" font-family="Helvetica,sans-Serif" font-size="10.00">main</text>
</a>
</g>
</g>
<!-- Node6&#45;&gt;Node7 -->
<g id="edge7" class="edge">
<title>Node6&#45;&gt;Node7</title>
<path fill="none" stroke="midnightblue" d="M93.51,-23.22C86.62,-26.17 79.9,-29.73 74,-34 50.92,-50.71 33.12,-80.08 24.93,-95.28"/>
<polygon fill="midnightblue" stroke="midnightblue" points="94.88,-26.44 102.94,-19.56 92.35,-19.91 94.88,-26.44"/>
</g>
<!-- Node8&#45;&gt;Node7 -->
<g id="edge11" class="edge">
<title>Node8&#45;&gt;Node7</title>
<path fill="none" stroke="midnightblue" d="M261.8,-90.71C187.03,-95.13 80.57,-101.42 38.31,-103.92"/>
<polygon fill="midnightblue" stroke="midnightblue" points="262.36,-94.18 272.14,-90.1 261.95,-87.2 262.36,-94.18"/>
</g>
<!-- Node9 -->
<g id="node9" class="node">
<title>Node9</title>
<g id="a_node9"><a xlink:href="$classMainWindow.html#a5d25ebfdfec433fc449d7e35803a9c7c" xlink:title=" ">
<polygon fill="white" stroke="black" points="83.5,-114.5 83.5,-133.5 205.5,-133.5 205.5,-114.5 83.5,-114.5"/>
<text text-anchor="middle" x="144.5" y="-121.5" font-family="Helvetica,sans-Serif" font-size="10.00">MainWindow::fillButtons</text>
</a>
</g>
</g>
<!-- Node8&#45;&gt;Node9 -->
<g id="edge9" class="edge">
<title>Node8&#45;&gt;Node9</title>
<path fill="none" stroke="midnightblue" d="M282.24,-97.49C254.27,-102.91 221.29,-109.31 194.73,-114.46"/>
<polygon fill="midnightblue" stroke="midnightblue" points="283.14,-100.88 292.29,-95.54 281.81,-94.01 283.14,-100.88"/>
</g>
<!-- Node9&#45;&gt;Node7 -->
<g id="edge10" class="edge">
<title>Node9&#45;&gt;Node7</title>
<path fill="none" stroke="midnightblue" d="M73.22,-113.19C60.25,-111.19 47.8,-109.28 38.2,-107.8"/>
<polygon fill="midnightblue" stroke="midnightblue" points="72.78,-116.66 83.2,-114.72 73.85,-109.74 72.78,-116.66"/>
</g>
<!-- Node11 -->
<g id="node11" class="node">
<title>Node11</title>
<g id="a_node11"><a xlink:href="$classMainWindow.html#a2f0c03d3d51748ab794e698322110614" xlink:title=" ">
<polygon fill="white" stroke="black" points="77.5,-199.5 77.5,-218.5 211.5,-218.5 211.5,-199.5 77.5,-199.5"/>
<text text-anchor="middle" x="144.5" y="-206.5" font-family="Helvetica,sans-Serif" font-size="10.00">MainWindow::MainWindow</text>
</a>
</g>
</g>
<!-- Node10&#45;&gt;Node11 -->
<g id="edge13" class="edge">
<title>Node10&#45;&gt;Node11</title>
<path fill="none" stroke="midnightblue" d="M259.69,-185.11C236.27,-190.01 211.58,-195.18 191.18,-199.45"/>
<polygon fill="midnightblue" stroke="midnightblue" points="260.56,-188.51 269.63,-183.03 259.12,-181.66 260.56,-188.51"/>
</g>
<!-- Node12&#45;&gt;Node7 -->
<g id="edge15" class="edge">
<title>Node12&#45;&gt;Node7</title>
<path fill="none" stroke="midnightblue" d="M89.61,-149.28C84.24,-147.42 78.95,-145.33 74,-143 58.03,-135.48 41.73,-123.26 31.28,-114.71"/>
<polygon fill="midnightblue" stroke="midnightblue" points="88.7,-152.67 99.29,-152.39 90.84,-146 88.7,-152.67"/>
</g>
<!-- Node13&#45;&gt;Node7 -->
<g id="edge17" class="edge">
<title>Node13&#45;&gt;Node7</title>
<path fill="none" stroke="midnightblue" d="M255.85,-58.89C203.13,-66.22 134.32,-76.93 74,-90 62.02,-92.6 48.75,-96.27 38.36,-99.33"/>
<polygon fill="midnightblue" stroke="midnightblue" points="256.41,-62.34 265.84,-57.51 255.45,-55.41 256.41,-62.34"/>
</g>
<!-- Node15 -->
<g id="node15" class="node">
<title>Node15</title>
<g id="a_node15"><a xlink:href="$classMainWindow.html#a0a756973a707af418c4ce416c9c8312c" xlink:title=" ">
<polygon fill="white" stroke="black" points="474,-201.5 474,-220.5 618,-220.5 618,-201.5 474,-201.5"/>
<text text-anchor="middle" x="546" y="-208.5" font-family="Helvetica,sans-Serif" font-size="10.00">MainWindow::autoprofileLoad</text>
</a>
</g>
</g>
<!-- Node14&#45;&gt;Node15 -->
<g id="edge19" class="edge">
<title>Node14&#45;&gt;Node15</title>
<path fill="none" stroke="midnightblue" d="M1023.64,-233.39C1014.65,-232.91 1005.63,-232.44 997,-232 863.24,-225.21 707.06,-218.11 618.32,-214.15"/>
<polygon fill="midnightblue" stroke="midnightblue" points="1023.59,-236.89 1033.76,-233.93 1023.96,-229.9 1023.59,-236.89"/>
</g>
<!-- Node16 -->
<g id="node16" class="node">
<title>Node16</title>
<g id="a_node16"><a xlink:href="$classJoyTabWidget.html#a6a6bd9ccd83557de08b6e698598f2123" xlink:title=" ">
<polygon fill="white" stroke="black" points="846,-157.5 846,-176.5 993,-176.5 993,-157.5 846,-157.5"/>
<text text-anchor="middle" x="919.5" y="-164.5" font-family="Helvetica,sans-Serif" font-size="10.00">JoyTabWidget::JoyTabWidget</text>
</a>
</g>
</g>
<!-- Node14&#45;&gt;Node16 -->
<g id="edge21" class="edge">
<title>Node14&#45;&gt;Node16</title>
<path fill="none" stroke="midnightblue" d="M1063.97,-225.3C1053.72,-221.91 1042.88,-218.06 1033,-214 1016.45,-207.21 1013.38,-203.18 997,-196 980.87,-188.93 962.42,-181.91 947.68,-176.54"/>
<polygon fill="midnightblue" stroke="midnightblue" points="1062.97,-228.65 1073.56,-228.39 1065.12,-221.99 1062.97,-228.65"/>
</g>
<!-- Node17 -->
<g id="node17" class="node">
<title>Node17</title>
<g id="a_node17"><a xlink:href="$classMainWindow.html#a781de6ce6a0b73b8caadfad15e7c7147" xlink:title=" ">
<polygon fill="white" stroke="black" points="849.5,-241.5 849.5,-260.5 989.5,-260.5 989.5,-241.5 849.5,-241.5"/>
<text text-anchor="middle" x="919.5" y="-248.5" font-family="Helvetica,sans-Serif" font-size="10.00">MainWindow::loadConfigFile</text>
</a>
</g>
</g>
<!-- Node14&#45;&gt;Node17 -->
<g id="edge22" class="edge">
<title>Node14&#45;&gt;Node17</title>
<path fill="none" stroke="midnightblue" d="M1023.8,-243.78C1012.34,-244.58 1000.68,-245.4 989.51,-246.18"/>
<polygon fill="midnightblue" stroke="midnightblue" points="1024.06,-247.27 1033.79,-243.08 1023.57,-240.29 1024.06,-247.27"/>
</g>
<!-- Node15&#45;&gt;Node11 -->
<g id="edge20" class="edge">
<title>Node15&#45;&gt;Node11</title>
<path fill="none" stroke="midnightblue" d="M463.32,-210.59C389.01,-210.22 280.69,-209.68 211.66,-209.33"/>
<polygon fill="midnightblue" stroke="midnightblue" points="463.56,-214.09 473.58,-210.64 463.6,-207.09 463.56,-214.09"/>
</g>
<!-- Node18 -->
<g id="node18" class="node">
<title>Node18</title>
<g id="a_node18"><a xlink:href="$classMainWindow.html#a58c2bb4b8456b8dd246c6beb3623b3d2" xlink:title=" ">
<polygon fill="white" stroke="black" points="658,-239 658,-269 806,-269 806,-239 658,-239"/>
<text text-anchor="start" x="666" y="-257" font-family="Helvetica,sans-Serif" font-size="10.00">MainWindow::alterConfigFrom</text>
<text text-anchor="middle" x="732" y="-246" font-family="Helvetica,sans-Serif" font-size="10.00">Settings</text>
</a>
</g>
</g>
<!-- Node17&#45;&gt;Node18 -->
<g id="edge23" class="edge">
<title>Node17&#45;&gt;Node18</title>
<path fill="none" stroke="midnightblue" d="M839.39,-252.28C828.37,-252.46 817.08,-252.64 806.17,-252.82"/>
<polygon fill="midnightblue" stroke="midnightblue" points="839.48,-255.78 849.43,-252.12 839.37,-248.78 839.48,-255.78"/>
</g>
<!-- Node18&#45;&gt;Node7 -->
<g id="edge24" class="edge">
<title>Node18&#45;&gt;Node7</title>
<path fill="none" stroke="midnightblue" d="M668.61,-271.53C543.48,-302.73 258.13,-353.52 74,-228 34.69,-201.2 23.74,-139.01 20.91,-114.85"/>
<polygon fill="midnightblue" stroke="midnightblue" points="669.58,-274.89 678.42,-269.04 667.86,-268.11 669.58,-274.89"/>
</g>
<!-- Node19&#45;&gt;Node16 -->
<g id="edge26" class="edge">
<title>Node19&#45;&gt;Node16</title>
<path fill="none" stroke="midnightblue" d="M1024.12,-164.21C1013.83,-164.49 1003.37,-164.77 993.25,-165.04"/>
<polygon fill="midnightblue" stroke="midnightblue" points="1024.42,-167.71 1034.32,-163.94 1024.23,-160.71 1024.42,-167.71"/>
</g>
<!-- Node20&#45;&gt;Node1 -->
<g id="edge28" class="edge">
<title>Node20&#45;&gt;Node1</title>
<path fill="none" stroke="midnightblue" d="M1192.48,-85.08C1245.25,-86.2 1314.37,-90.78 1374,-105 1405.49,-112.51 1439.39,-127.55 1462.56,-139"/>
<polygon fill="midnightblue" stroke="midnightblue" points="1192.21,-81.58 1182.15,-84.9 1192.09,-88.58 1192.21,-81.58"/>
</g>
<!-- Node20&#45;&gt;Node3 -->
<g id="edge29" class="edge">
<title>Node20&#45;&gt;Node3</title>
<path fill="none" stroke="midnightblue" d="M1022.96,-86C1014.37,-86 1005.66,-86 997.14,-86"/>
<polygon fill="midnightblue" stroke="midnightblue" points="1022.99,-89.5 1032.99,-86 1022.99,-82.5 1022.99,-89.5"/>
</g>
<!-- Node20&#45;&gt;Node16 -->
<g id="edge30" class="edge">
<title>Node20&#45;&gt;Node16</title>
<path fill="none" stroke="midnightblue" d="M1074.96,-99.73C1037.33,-116.12 975.38,-143.1 942.54,-157.4"/>
<polygon fill="midnightblue" stroke="midnightblue" points="1076.66,-102.81 1084.43,-95.61 1073.87,-96.39 1076.66,-102.81"/>
</g>
<!-- Node21&#45;&gt;Node1 -->
<g id="edge33" class="edge">
<title>Node21&#45;&gt;Node1</title>
<path fill="none" stroke="midnightblue" d="M1384.34,-174.47C1397.83,-172.81 1411.57,-170.95 1424.51,-169.01"/>
<polygon fill="midnightblue" stroke="midnightblue" points="1383.6,-171.03 1374.09,-175.69 1384.43,-177.98 1383.6,-171.03"/>
</g>
<!-- Node21&#45;&gt;Node3 -->
<g id="edge34" class="edge">
<title>Node21&#45;&gt;Node3</title>
<path fill="none" stroke="midnightblue" d="M1238.91,-160.88C1213.61,-152.75 1188.02,-144.61 1182,-143 1120.28,-126.48 1049.42,-111.26 997.05,-100.71"/>
<polygon fill="midnightblue" stroke="midnightblue" points="1237.97,-164.25 1248.56,-163.98 1240.11,-157.58 1237.97,-164.25"/>
</g>
<!-- Node21&#45;&gt;Node14 -->
<g id="edge36" class="edge">
<title>Node21&#45;&gt;Node14</title>
<path fill="none" stroke="midnightblue" d="M1237.57,-197.17C1204.92,-207.5 1165.37,-220.01 1138.73,-228.44"/>
<polygon fill="midnightblue" stroke="midnightblue" points="1238.98,-200.39 1247.46,-194.04 1236.87,-193.72 1238.98,-200.39"/>
</g>
<!-- Node21&#45;&gt;Node16 -->
<g id="edge35" class="edge">
<title>Node21&#45;&gt;Node16</title>
<path fill="none" stroke="midnightblue" d="M1207.83,-182.69C1156.82,-184.1 1091.2,-184.61 1033,-181 1017.68,-180.05 1001.25,-178.38 985.81,-176.52"/>
<polygon fill="midnightblue" stroke="midnightblue" points="1207.93,-186.19 1217.83,-182.4 1207.73,-179.2 1207.93,-186.19"/>
</g>
<!-- Node21&#45;&gt;Node19 -->
<g id="edge37" class="edge">
<title>Node21&#45;&gt;Node19</title>
<path fill="none" stroke="midnightblue" d="M1207.62,-171.03C1198.56,-170.21 1189.42,-169.38 1180.56,-168.57"/>
<polygon fill="midnightblue" stroke="midnightblue" points="1207.52,-174.54 1217.8,-171.96 1208.16,-167.57 1207.52,-174.54"/>
</g>
<!-- Node21&#45;&gt;Node20 -->
<g id="edge38" class="edge">
<title>Node21&#45;&gt;Node20</title>
<path fill="none" stroke="midnightblue" d="M1227.05,-159.46C1223.91,-157.78 1220.87,-155.96 1218,-154 1197.14,-139.74 1202.85,-124.27 1182,-110 1172.92,-103.78 1162.11,-99.08 1151.62,-95.57"/>
<polygon fill="midnightblue" stroke="midnightblue" points="1225.61,-162.65 1236.14,-163.85 1228.65,-156.35 1225.61,-162.65"/>
</g>
</g>
</svg>
