<?xml version="1.0" encoding="UTF-8" standalone="no"?>
<!DOCTYPE svg PUBLIC "-//W3C//DTD SVG 1.1//EN"
 "http://www.w3.org/Graphics/SVG/1.1/DTD/svg11.dtd">
<!-- Generated by graphviz version 2.43.0 (0)
 -->
<!-- Title: InputDevice::setDeviceKeyPressTime Pages: 1 -->
<svg width="493pt" height="165pt"
 viewBox="0.00 0.00 493.00 165.00" xmlns="http://www.w3.org/2000/svg" xmlns:xlink="http://www.w3.org/1999/xlink">
<g id="graph0" class="graph" transform="scale(1 1) rotate(0) translate(4 161)">
<title>InputDevice::setDeviceKeyPressTime</title>
<polygon fill="white" stroke="transparent" points="-4,4 -4,-161 489,-161 489,4 -4,4"/>
<!-- Node1 -->
<g id="node1" class="node">
<title>Node1</title>
<g id="a_node1"><a xlink:title=" ">
<polygon fill="#bfbfbf" stroke="black" points="349,-63.5 349,-93.5 485,-93.5 485,-63.5 349,-63.5"/>
<text text-anchor="start" x="357" y="-81.5" font-family="Helvetica,sans-Serif" font-size="10.00">InputDevice::setDeviceKey</text>
<text text-anchor="middle" x="417" y="-70.5" font-family="Helvetica,sans-Serif" font-size="10.00">PressTime</text>
</a>
</g>
</g>
<!-- Node2 -->
<g id="node2" class="node">
<title>Node2</title>
<g id="a_node2"><a xlink:href="$classExtraProfileSettingsDialog.html#a584bc443f3f3e839776b9f62fbd72f85" xlink:title=" ">
<polygon fill="white" stroke="black" points="177.5,-126.5 177.5,-156.5 308.5,-156.5 308.5,-126.5 177.5,-126.5"/>
<text text-anchor="start" x="185.5" y="-144.5" font-family="Helvetica,sans-Serif" font-size="10.00">ExtraProfileSettingsDialog</text>
<text text-anchor="middle" x="243" y="-133.5" font-family="Helvetica,sans-Serif" font-size="10.00">::changeDeviceKeyPress</text>
</a>
</g>
</g>
<!-- Node1&#45;&gt;Node2 -->
<g id="edge1" class="edge">
<title>Node1&#45;&gt;Node2</title>
<path fill="none" stroke="midnightblue" d="M365.8,-97.09C349.02,-103.28 330.21,-110.21 313,-116.5 304.14,-119.74 294.64,-123.19 285.61,-126.47"/>
<polygon fill="midnightblue" stroke="midnightblue" points="367.25,-100.28 375.42,-93.53 364.82,-93.72 367.25,-100.28"/>
</g>
<!-- Node4 -->
<g id="node4" class="node">
<title>Node4</title>
<g id="a_node4"><a xlink:href="$classInputDeviceXml.html#a847bf9ed17b554bf87d513a1aebdcb64" xlink:title=" ">
<polygon fill="white" stroke="black" points="173,-88 173,-107 313,-107 313,-88 173,-88"/>
<text text-anchor="middle" x="243" y="-95" font-family="Helvetica,sans-Serif" font-size="10.00">InputDeviceXml::readConfig</text>
</a>
</g>
</g>
<!-- Node1&#45;&gt;Node4 -->
<g id="edge3" class="edge">
<title>Node1&#45;&gt;Node4</title>
<path fill="none" stroke="midnightblue" d="M338.38,-87.07C330.01,-88 321.53,-88.94 313.27,-89.85"/>
<polygon fill="midnightblue" stroke="midnightblue" points="338.96,-90.53 348.51,-85.95 338.19,-83.57 338.96,-90.53"/>
</g>
<!-- Node5 -->
<g id="node5" class="node">
<title>Node5</title>
<g id="a_node5"><a xlink:href="$classGameControllerXml.html#a7e47256cae0d3815419bc254413777d1" xlink:title=" ">
<polygon fill="white" stroke="black" points="14.5,-22.5 14.5,-52.5 122.5,-52.5 122.5,-22.5 14.5,-22.5"/>
<text text-anchor="start" x="22.5" y="-40.5" font-family="Helvetica,sans-Serif" font-size="10.00">GameControllerXml::</text>
<text text-anchor="middle" x="68.5" y="-29.5" font-family="Helvetica,sans-Serif" font-size="10.00">readConfig</text>
</a>
</g>
</g>
<!-- Node1&#45;&gt;Node5 -->
<g id="edge4" class="edge">
<title>Node1&#45;&gt;Node5</title>
<path fill="none" stroke="midnightblue" d="M338.47,-69.33C272.76,-61.55 180.26,-50.61 122.64,-43.79"/>
<polygon fill="midnightblue" stroke="midnightblue" points="338.44,-72.85 348.78,-70.55 339.26,-65.9 338.44,-72.85"/>
</g>
<!-- Node6 -->
<g id="node6" class="node">
<title>Node6</title>
<g id="a_node6"><a xlink:href="$classGameControllerXml.html#aaa5257d4c6fe13f1d5fc51981e247c25" xlink:title=" ">
<polygon fill="white" stroke="black" points="189,-0.5 189,-30.5 297,-30.5 297,-0.5 189,-0.5"/>
<text text-anchor="start" x="197" y="-18.5" font-family="Helvetica,sans-Serif" font-size="10.00">GameControllerXml::</text>
<text text-anchor="middle" x="243" y="-7.5" font-family="Helvetica,sans-Serif" font-size="10.00">readJoystickConfig</text>
</a>
</g>
</g>
<!-- Node1&#45;&gt;Node6 -->
<g id="edge5" class="edge">
<title>Node1&#45;&gt;Node6</title>
<path fill="none" stroke="midnightblue" d="M365.29,-59.93C339.76,-50.57 309.21,-39.39 285.16,-30.58"/>
<polygon fill="midnightblue" stroke="midnightblue" points="364.21,-63.26 374.8,-63.41 366.62,-56.68 364.21,-63.26"/>
</g>
<!-- Node3 -->
<g id="node3" class="node">
<title>Node3</title>
<g id="a_node3"><a xlink:href="$classExtraProfileSettingsDialog.html#ad5751d1a02ef93bdff60ef334839d12f" xlink:title=" ">
<polygon fill="white" stroke="black" points="0,-126.5 0,-156.5 137,-156.5 137,-126.5 0,-126.5"/>
<text text-anchor="start" x="8" y="-144.5" font-family="Helvetica,sans-Serif" font-size="10.00">ExtraProfileSettingsDialog</text>
<text text-anchor="middle" x="68.5" y="-133.5" font-family="Helvetica,sans-Serif" font-size="10.00">::ExtraProfileSettingsDialog</text>
</a>
</g>
</g>
<!-- Node2&#45;&gt;Node3 -->
<g id="edge2" class="edge">
<title>Node2&#45;&gt;Node3</title>
<path fill="none" stroke="midnightblue" d="M167.03,-141.5C157.1,-141.5 146.97,-141.5 137.18,-141.5"/>
<polygon fill="midnightblue" stroke="midnightblue" points="167.28,-145 177.28,-141.5 167.28,-138 167.28,-145"/>
</g>
<!-- Node6&#45;&gt;Node5 -->
<g id="edge6" class="edge">
<title>Node6&#45;&gt;Node5</title>
<path fill="none" stroke="midnightblue" d="M178.8,-23.56C160.4,-25.91 140.5,-28.44 122.78,-30.7"/>
<polygon fill="midnightblue" stroke="midnightblue" points="179.36,-27.02 188.84,-22.28 178.47,-20.07 179.36,-27.02"/>
</g>
</g>
</svg>
