<?xml version="1.0" encoding="UTF-8" standalone="no"?>
<!DOCTYPE svg PUBLIC "-//W3C//DTD SVG 1.1//EN"
 "http://www.w3.org/Graphics/SVG/1.1/DTD/svg11.dtd">
<!-- Generated by graphviz version 2.43.0 (0)
 -->
<!-- Title: MainSettingsDialog::fillAllAutoProfilesTable Pages: 1 -->
<svg width="326pt" height="280pt"
 viewBox="0.00 0.00 326.00 280.00" xmlns="http://www.w3.org/2000/svg" xmlns:xlink="http://www.w3.org/1999/xlink">
<g id="graph0" class="graph" transform="scale(1 1) rotate(0) translate(4 276)">
<title>MainSettingsDialog::fillAllAutoProfilesTable</title>
<polygon fill="white" stroke="transparent" points="-4,4 -4,-276 322,-276 322,4 -4,4"/>
<!-- Node1 -->
<g id="node1" class="node">
<title>Node1</title>
<g id="a_node1"><a xlink:title=" ">
<polygon fill="#bfbfbf" stroke="black" points="0,-121 0,-151 120,-151 120,-121 0,-121"/>
<text text-anchor="start" x="8" y="-139" font-family="Helvetica,sans-Serif" font-size="10.00">MainSettingsDialog</text>
<text text-anchor="middle" x="60" y="-128" font-family="Helvetica,sans-Serif" font-size="10.00">::fillAllAutoProfilesTable</text>
</a>
</g>
</g>
<!-- Node2 -->
<g id="node2" class="node">
<title>Node2</title>
<g id="a_node2"><a xlink:href="$classAutoProfileInfo.html#a79dc148898bc863eb5ceedc88d8f7638" xlink:title=" ">
<polygon fill="white" stroke="black" points="158,-252.5 158,-271.5 316,-271.5 316,-252.5 158,-252.5"/>
<text text-anchor="middle" x="237" y="-259.5" font-family="Helvetica,sans-Serif" font-size="10.00">AutoProfileInfo::getDeviceName</text>
</a>
</g>
</g>
<!-- Node1&#45;&gt;Node2 -->
<g id="edge1" class="edge">
<title>Node1&#45;&gt;Node2</title>
<path fill="none" stroke="midnightblue" d="M70.01,-151.06C84.86,-174.53 116.77,-219.54 156,-243 159.65,-245.18 163.54,-247.12 167.56,-248.83"/>
<polygon fill="midnightblue" stroke="midnightblue" points="166.52,-252.18 177.12,-252.43 168.99,-245.63 166.52,-252.18"/>
</g>
<!-- Node3 -->
<g id="node3" class="node">
<title>Node3</title>
<g id="a_node3"><a xlink:href="$classAutoProfileInfo.html#a2c94a2f2793b09a153adbabc8c555eda" xlink:title=" ">
<polygon fill="white" stroke="black" points="178.5,-214.5 178.5,-233.5 295.5,-233.5 295.5,-214.5 178.5,-214.5"/>
<text text-anchor="middle" x="237" y="-221.5" font-family="Helvetica,sans-Serif" font-size="10.00">AutoProfileInfo::getExe</text>
</a>
</g>
</g>
<!-- Node1&#45;&gt;Node3 -->
<g id="edge2" class="edge">
<title>Node1&#45;&gt;Node3</title>
<path fill="none" stroke="midnightblue" d="M77.55,-151.21C95.55,-166.95 125.81,-191.13 156,-205 161.32,-207.44 166.99,-209.59 172.75,-211.48"/>
<polygon fill="midnightblue" stroke="midnightblue" points="171.93,-214.88 182.51,-214.41 173.94,-208.18 171.93,-214.88"/>
</g>
<!-- Node4 -->
<g id="node4" class="node">
<title>Node4</title>
<g id="a_node4"><a xlink:href="$classAutoProfileInfo.html#a542720df3f705eb79255b4b85af7b1a5" xlink:title=" ">
<polygon fill="white" stroke="black" points="173,-165 173,-195 301,-195 301,-165 173,-165"/>
<text text-anchor="start" x="181" y="-183" font-family="Helvetica,sans-Serif" font-size="10.00">AutoProfileInfo::getProfile</text>
<text text-anchor="middle" x="237" y="-172" font-family="Helvetica,sans-Serif" font-size="10.00">Location</text>
</a>
</g>
</g>
<!-- Node1&#45;&gt;Node4 -->
<g id="edge3" class="edge">
<title>Node1&#45;&gt;Node4</title>
<path fill="none" stroke="midnightblue" d="M120.25,-150.9C135.05,-154.62 151.06,-158.64 166.32,-162.48"/>
<polygon fill="midnightblue" stroke="midnightblue" points="165.67,-165.93 176.22,-164.97 167.37,-159.14 165.67,-165.93"/>
</g>
<!-- Node5 -->
<g id="node5" class="node">
<title>Node5</title>
<g id="a_node5"><a xlink:href="$classAutoProfileInfo.html#aba94c3fdd9e66bf8dc42a74237ff911c" xlink:title=" ">
<polygon fill="white" stroke="black" points="166,-126.5 166,-145.5 308,-145.5 308,-126.5 166,-126.5"/>
<text text-anchor="middle" x="237" y="-133.5" font-family="Helvetica,sans-Serif" font-size="10.00">AutoProfileInfo::getUniqueID</text>
</a>
</g>
</g>
<!-- Node1&#45;&gt;Node5 -->
<g id="edge4" class="edge">
<title>Node1&#45;&gt;Node5</title>
<path fill="none" stroke="midnightblue" d="M120.25,-136C131.71,-136 143.9,-136 155.91,-136"/>
<polygon fill="midnightblue" stroke="midnightblue" points="155.92,-139.5 165.92,-136 155.92,-132.5 155.92,-139.5"/>
</g>
<!-- Node6 -->
<g id="node6" class="node">
<title>Node6</title>
<g id="a_node6"><a xlink:href="$classAutoProfileInfo.html#a37dfba098d3c8a8e90beca36b2f3561b" xlink:title=" ">
<polygon fill="white" stroke="black" points="169,-77 169,-107 305,-107 305,-77 169,-77"/>
<text text-anchor="start" x="177" y="-95" font-family="Helvetica,sans-Serif" font-size="10.00">AutoProfileInfo::getWindow</text>
<text text-anchor="middle" x="237" y="-84" font-family="Helvetica,sans-Serif" font-size="10.00">Class</text>
</a>
</g>
</g>
<!-- Node1&#45;&gt;Node6 -->
<g id="edge5" class="edge">
<title>Node1&#45;&gt;Node6</title>
<path fill="none" stroke="midnightblue" d="M120.25,-121.1C135.05,-117.38 151.06,-113.36 166.32,-109.52"/>
<polygon fill="midnightblue" stroke="midnightblue" points="167.37,-112.86 176.22,-107.03 165.67,-106.07 167.37,-112.86"/>
</g>
<!-- Node7 -->
<g id="node7" class="node">
<title>Node7</title>
<g id="a_node7"><a xlink:href="$classAutoProfileInfo.html#a8136af0d4f8e0fcdc0f6562dd6ec9c48" xlink:title=" ">
<polygon fill="white" stroke="black" points="156,-38.5 156,-57.5 318,-57.5 318,-38.5 156,-38.5"/>
<text text-anchor="middle" x="237" y="-45.5" font-family="Helvetica,sans-Serif" font-size="10.00">AutoProfileInfo::getWindowName</text>
</a>
</g>
</g>
<!-- Node1&#45;&gt;Node7 -->
<g id="edge6" class="edge">
<title>Node1&#45;&gt;Node7</title>
<path fill="none" stroke="midnightblue" d="M77.96,-120.81C96.05,-105.36 126.18,-81.79 156,-68 162.2,-65.13 168.87,-62.64 175.61,-60.48"/>
<polygon fill="midnightblue" stroke="midnightblue" points="176.91,-63.75 185.5,-57.55 174.92,-57.04 176.91,-63.75"/>
</g>
<!-- Node8 -->
<g id="node8" class="node">
<title>Node8</title>
<g id="a_node8"><a xlink:href="$classAutoProfileInfo.html#a51f57cf7cda4e66b052d12e5a8879785" xlink:title=" ">
<polygon fill="white" stroke="black" points="176,-0.5 176,-19.5 298,-19.5 298,-0.5 176,-0.5"/>
<text text-anchor="middle" x="237" y="-7.5" font-family="Helvetica,sans-Serif" font-size="10.00">AutoProfileInfo::isActive</text>
</a>
</g>
</g>
<!-- Node1&#45;&gt;Node8 -->
<g id="edge7" class="edge">
<title>Node1&#45;&gt;Node8</title>
<path fill="none" stroke="midnightblue" d="M70.01,-120.94C84.86,-97.47 116.77,-52.46 156,-29 159.65,-26.82 163.54,-24.88 167.56,-23.17"/>
<polygon fill="midnightblue" stroke="midnightblue" points="168.99,-26.37 177.12,-19.57 166.52,-19.82 168.99,-26.37"/>
</g>
</g>
</svg>
