<?xml version="1.0" encoding="UTF-8" standalone="no"?>
<!DOCTYPE svg PUBLIC "-//W3C//DTD SVG 1.1//EN"
 "http://www.w3.org/Graphics/SVG/1.1/DTD/svg11.dtd">
<!-- Generated by graphviz version 2.43.0 (0)
 -->
<!-- Title: JoyAxisWidget::tryFlash Pages: 1 -->
<svg width="495pt" height="66pt"
 viewBox="0.00 0.00 495.00 66.00" xmlns="http://www.w3.org/2000/svg" xmlns:xlink="http://www.w3.org/1999/xlink">
<g id="graph0" class="graph" transform="scale(1 1) rotate(0) translate(4 62)">
<title>JoyAxisWidget::tryFlash</title>
<polygon fill="white" stroke="transparent" points="-4,4 -4,-62 491,-62 491,4 -4,4"/>
<!-- Node1 -->
<g id="node1" class="node">
<title>Node1</title>
<g id="a_node1"><a xlink:title=" ">
<polygon fill="#bfbfbf" stroke="black" points="362,-19.5 362,-38.5 487,-38.5 487,-19.5 362,-19.5"/>
<text text-anchor="middle" x="424.5" y="-26.5" font-family="Helvetica,sans-Serif" font-size="10.00">JoyAxisWidget::tryFlash</text>
</a>
</g>
</g>
<!-- Node2 -->
<g id="node2" class="node">
<title>Node2</title>
<g id="a_node2"><a xlink:href="$classMainWindow.html#a435b6567cdb461077fee16ac1d23523c" xlink:title=" ">
<polygon fill="white" stroke="black" points="162,-38.5 162,-57.5 326,-57.5 326,-38.5 162,-38.5"/>
<text text-anchor="middle" x="244" y="-45.5" font-family="Helvetica,sans-Serif" font-size="10.00">MainWindow::enableFlashActions</text>
</a>
</g>
</g>
<!-- Node1&#45;&gt;Node2 -->
<g id="edge1" class="edge">
<title>Node1&#45;&gt;Node2</title>
<path fill="none" stroke="midnightblue" d="M351.71,-36.64C343.32,-37.53 334.71,-38.45 326.2,-39.36"/>
<polygon fill="midnightblue" stroke="midnightblue" points="352.25,-40.1 361.82,-35.57 351.51,-33.14 352.25,-40.1"/>
</g>
<!-- Node4 -->
<g id="node4" class="node">
<title>Node4</title>
<g id="a_node4"><a xlink:href="$classJoyAxisWidget.html#af03b84951f7731c7e4a773d66c6fe414" xlink:title=" ">
<polygon fill="white" stroke="black" points="166.5,-0.5 166.5,-19.5 321.5,-19.5 321.5,-0.5 166.5,-0.5"/>
<text text-anchor="middle" x="244" y="-7.5" font-family="Helvetica,sans-Serif" font-size="10.00">JoyAxisWidget::JoyAxisWidget</text>
</a>
</g>
</g>
<!-- Node1&#45;&gt;Node4 -->
<g id="edge3" class="edge">
<title>Node1&#45;&gt;Node4</title>
<path fill="none" stroke="midnightblue" d="M351.7,-21.36C341.86,-20.31 331.72,-19.23 321.8,-18.17"/>
<polygon fill="midnightblue" stroke="midnightblue" points="351.51,-24.86 361.82,-22.43 352.25,-17.9 351.51,-24.86"/>
</g>
<!-- Node3 -->
<g id="node3" class="node">
<title>Node3</title>
<g id="a_node3"><a xlink:href="$classMainWindow.html#a3dfe834b2836b316908ace3f38c06db2" xlink:title=" ">
<polygon fill="white" stroke="black" points="0,-38.5 0,-57.5 126,-57.5 126,-38.5 0,-38.5"/>
<text text-anchor="middle" x="63" y="-45.5" font-family="Helvetica,sans-Serif" font-size="10.00">MainWindow::showEvent</text>
</a>
</g>
</g>
<!-- Node2&#45;&gt;Node3 -->
<g id="edge2" class="edge">
<title>Node2&#45;&gt;Node3</title>
<path fill="none" stroke="midnightblue" d="M151.7,-48C143.03,-48 134.38,-48 126.07,-48"/>
<polygon fill="midnightblue" stroke="midnightblue" points="151.88,-51.5 161.88,-48 151.88,-44.5 151.88,-51.5"/>
</g>
</g>
</svg>
