<?xml version="1.0" encoding="UTF-8" standalone="no"?>
<!DOCTYPE svg PUBLIC "-//W3C//DTD SVG 1.1//EN"
 "http://www.w3.org/Graphics/SVG/1.1/DTD/svg11.dtd">
<!-- Generated by graphviz version 2.43.0 (0)
 -->
<!-- Title: JoyAxis::getIndex Pages: 1 -->
<svg width="1582pt" height="421pt"
 viewBox="0.00 0.00 1582.00 421.00" xmlns="http://www.w3.org/2000/svg" xmlns:xlink="http://www.w3.org/1999/xlink">
<g id="graph0" class="graph" transform="scale(1 1) rotate(0) translate(4 417)">
<title>JoyAxis::getIndex</title>
<polygon fill="white" stroke="transparent" points="-4,4 -4,-417 1578,-417 1578,4 -4,4"/>
<!-- Node1 -->
<g id="node1" class="node">
<title>Node1</title>
<g id="a_node1"><a xlink:title=" ">
<polygon fill="#bfbfbf" stroke="black" points="1479,-192 1479,-211 1574,-211 1574,-192 1479,-192"/>
<text text-anchor="middle" x="1526.5" y="-199" font-family="Helvetica,sans-Serif" font-size="10.00">JoyAxis::getIndex</text>
</a>
</g>
</g>
<!-- Node2 -->
<g id="node2" class="node">
<title>Node2</title>
<g id="a_node2"><a xlink:href="$classSetJoystick.html#aa90510371d0a6a4ae107b1d5b985b060" xlink:title=" ">
<polygon fill="white" stroke="black" points="1303,-382.5 1303,-412.5 1434,-412.5 1434,-382.5 1303,-382.5"/>
<text text-anchor="start" x="1311" y="-400.5" font-family="Helvetica,sans-Serif" font-size="10.00">SetJoystick::propogateSet</text>
<text text-anchor="middle" x="1368.5" y="-389.5" font-family="Helvetica,sans-Serif" font-size="10.00">AxisActivated</text>
</a>
</g>
</g>
<!-- Node1&#45;&gt;Node2 -->
<g id="edge1" class="edge">
<title>Node1&#45;&gt;Node2</title>
<path fill="none" stroke="midnightblue" d="M1521.37,-221.41C1512.94,-257.06 1490.42,-331.94 1443,-373.5 1439.06,-376.95 1434.62,-379.91 1429.92,-382.44"/>
<polygon fill="midnightblue" stroke="midnightblue" points="1524.86,-221.83 1523.62,-211.31 1518.03,-220.3 1524.86,-221.83"/>
</g>
<!-- Node19 -->
<g id="node19" class="node">
<title>Node19</title>
<g id="a_node19"><a xlink:href="$classSetJoystick.html#a57e40bcd1589c61ab7084f9e43dcd9ab" xlink:title=" ">
<polygon fill="white" stroke="black" points="1303,-333.5 1303,-363.5 1434,-363.5 1434,-333.5 1303,-333.5"/>
<text text-anchor="start" x="1311" y="-351.5" font-family="Helvetica,sans-Serif" font-size="10.00">SetJoystick::propogateSet</text>
<text text-anchor="middle" x="1368.5" y="-340.5" font-family="Helvetica,sans-Serif" font-size="10.00">AxisButtonClick</text>
</a>
</g>
</g>
<!-- Node1&#45;&gt;Node19 -->
<g id="edge19" class="edge">
<title>Node1&#45;&gt;Node19</title>
<path fill="none" stroke="midnightblue" d="M1517.6,-220.56C1505.47,-247.54 1479.74,-296.69 1443,-324.5 1438.5,-327.9 1433.51,-330.83 1428.29,-333.36"/>
<polygon fill="midnightblue" stroke="midnightblue" points="1520.94,-221.65 1521.71,-211.08 1514.52,-218.87 1520.94,-221.65"/>
</g>
<!-- Node20 -->
<g id="node20" class="node">
<title>Node20</title>
<g id="a_node20"><a xlink:href="$classSetJoystick.html#a559203c2db1839239a1a684e717ef898" xlink:title=" ">
<polygon fill="white" stroke="black" points="1303,-284.5 1303,-314.5 1434,-314.5 1434,-284.5 1303,-284.5"/>
<text text-anchor="start" x="1311" y="-302.5" font-family="Helvetica,sans-Serif" font-size="10.00">SetJoystick::propogateSet</text>
<text text-anchor="middle" x="1368.5" y="-291.5" font-family="Helvetica,sans-Serif" font-size="10.00">AxisButtonNameChange</text>
</a>
</g>
</g>
<!-- Node1&#45;&gt;Node20 -->
<g id="edge21" class="edge">
<title>Node1&#45;&gt;Node20</title>
<path fill="none" stroke="midnightblue" d="M1510.6,-218.47C1495.17,-235.1 1469.64,-260.13 1443,-275.5 1437.19,-278.85 1430.84,-281.81 1424.39,-284.41"/>
<polygon fill="midnightblue" stroke="midnightblue" points="1513.2,-220.82 1517.32,-211.06 1508.01,-216.12 1513.2,-220.82"/>
</g>
<!-- Node21 -->
<g id="node21" class="node">
<title>Node21</title>
<g id="a_node21"><a xlink:href="$classSetJoystick.html#af056c3429ac49876a0510f92923d0d13" xlink:title=" ">
<polygon fill="white" stroke="black" points="1303,-235.5 1303,-265.5 1434,-265.5 1434,-235.5 1303,-235.5"/>
<text text-anchor="start" x="1311" y="-253.5" font-family="Helvetica,sans-Serif" font-size="10.00">SetJoystick::propogateSet</text>
<text text-anchor="middle" x="1368.5" y="-242.5" font-family="Helvetica,sans-Serif" font-size="10.00">AxisButtonRelease</text>
</a>
</g>
</g>
<!-- Node1&#45;&gt;Node21 -->
<g id="edge23" class="edge">
<title>Node1&#45;&gt;Node21</title>
<path fill="none" stroke="midnightblue" d="M1485.29,-214.13C1464.55,-220.64 1439.12,-228.63 1417.37,-235.46"/>
<polygon fill="midnightblue" stroke="midnightblue" points="1486.56,-217.4 1495.05,-211.06 1484.46,-210.72 1486.56,-217.4"/>
</g>
<!-- Node22 -->
<g id="node22" class="node">
<title>Node22</title>
<g id="a_node22"><a xlink:href="$classSetJoystick.html#a2746cd7adb6a4ead514b72c7c0437d5e" xlink:title=" ">
<polygon fill="white" stroke="black" points="1303,-186.5 1303,-216.5 1434,-216.5 1434,-186.5 1303,-186.5"/>
<text text-anchor="start" x="1311" y="-204.5" font-family="Helvetica,sans-Serif" font-size="10.00">SetJoystick::propogateSet</text>
<text text-anchor="middle" x="1368.5" y="-193.5" font-family="Helvetica,sans-Serif" font-size="10.00">AxisNameChange</text>
</a>
</g>
</g>
<!-- Node1&#45;&gt;Node22 -->
<g id="edge25" class="edge">
<title>Node1&#45;&gt;Node22</title>
<path fill="none" stroke="midnightblue" d="M1468.62,-201.5C1457.42,-201.5 1445.59,-201.5 1434.15,-201.5"/>
<polygon fill="midnightblue" stroke="midnightblue" points="1468.69,-205 1478.69,-201.5 1468.69,-198 1468.69,-205"/>
</g>
<!-- Node23 -->
<g id="node23" class="node">
<title>Node23</title>
<g id="a_node23"><a xlink:href="$classSetJoystick.html#a707a2c73b9102a8346ad8f2fb401d48f" xlink:title=" ">
<polygon fill="white" stroke="black" points="1303,-137.5 1303,-167.5 1434,-167.5 1434,-137.5 1303,-137.5"/>
<text text-anchor="start" x="1311" y="-155.5" font-family="Helvetica,sans-Serif" font-size="10.00">SetJoystick::propogateSet</text>
<text text-anchor="middle" x="1368.5" y="-144.5" font-family="Helvetica,sans-Serif" font-size="10.00">AxisReleased</text>
</a>
</g>
</g>
<!-- Node1&#45;&gt;Node23 -->
<g id="edge27" class="edge">
<title>Node1&#45;&gt;Node23</title>
<path fill="none" stroke="midnightblue" d="M1485.29,-188.87C1464.55,-182.36 1439.12,-174.37 1417.37,-167.54"/>
<polygon fill="midnightblue" stroke="midnightblue" points="1484.46,-192.28 1495.05,-191.94 1486.56,-185.6 1484.46,-192.28"/>
</g>
<!-- Node24 -->
<g id="node24" class="node">
<title>Node24</title>
<g id="a_node24"><a xlink:href="$classJoyAxisXml.html#a722916013ad49036b2ad38ab8ec30484" xlink:title=" ">
<polygon fill="white" stroke="black" points="1297,-99 1297,-118 1440,-118 1440,-99 1297,-99"/>
<text text-anchor="middle" x="1368.5" y="-106" font-family="Helvetica,sans-Serif" font-size="10.00">JoyAxisXml::readMainConfig</text>
</a>
</g>
</g>
<!-- Node1&#45;&gt;Node24 -->
<g id="edge29" class="edge">
<title>Node1&#45;&gt;Node24</title>
<path fill="none" stroke="midnightblue" d="M1510.29,-184.03C1494.91,-167.42 1469.66,-142.89 1443,-128.5 1435.09,-124.23 1426.19,-120.81 1417.39,-118.1"/>
<polygon fill="midnightblue" stroke="midnightblue" points="1508.09,-186.82 1517.39,-191.9 1513.29,-182.13 1508.09,-186.82"/>
</g>
<!-- Node29 -->
<g id="node29" class="node">
<title>Node29</title>
<g id="a_node29"><a xlink:href="$classJoyAxisButton.html#a739f27b3f9c6714869cade651c62aa00" xlink:title=" ">
<polygon fill="white" stroke="black" points="1301.5,-49.5 1301.5,-79.5 1435.5,-79.5 1435.5,-49.5 1301.5,-49.5"/>
<text text-anchor="start" x="1309.5" y="-67.5" font-family="Helvetica,sans-Serif" font-size="10.00">JoyAxisButton::setChange</text>
<text text-anchor="middle" x="1368.5" y="-56.5" font-family="Helvetica,sans-Serif" font-size="10.00">SetCondition</text>
</a>
</g>
</g>
<!-- Node1&#45;&gt;Node29 -->
<g id="edge35" class="edge">
<title>Node1&#45;&gt;Node29</title>
<path fill="none" stroke="midnightblue" d="M1516.37,-182.79C1503.36,-158.02 1477.25,-114.57 1443,-89.5 1437.78,-85.68 1431.93,-82.41 1425.88,-79.62"/>
<polygon fill="midnightblue" stroke="midnightblue" points="1513.33,-184.53 1520.98,-191.86 1519.57,-181.36 1513.33,-184.53"/>
</g>
<!-- Node34 -->
<g id="node34" class="node">
<title>Node34</title>
<g id="a_node34"><a xlink:href="$classGameControllerMappingDialog.html#a8a3d4193180a3392dda025775aed26d3" xlink:title=" ">
<polygon fill="white" stroke="black" points="1294,-0.5 1294,-30.5 1443,-30.5 1443,-0.5 1294,-0.5"/>
<text text-anchor="start" x="1302" y="-18.5" font-family="Helvetica,sans-Serif" font-size="10.00">GameControllerMappingDialog</text>
<text text-anchor="middle" x="1368.5" y="-7.5" font-family="Helvetica,sans-Serif" font-size="10.00">::updateLastAxisLineEdit</text>
</a>
</g>
</g>
<!-- Node1&#45;&gt;Node34 -->
<g id="edge40" class="edge">
<title>Node1&#45;&gt;Node34</title>
<path fill="none" stroke="midnightblue" d="M1520.77,-181.81C1511.61,-147.86 1488.25,-78.21 1443,-39.5 1439.02,-36.1 1434.55,-33.17 1429.83,-30.66"/>
<polygon fill="midnightblue" stroke="midnightblue" points="1517.47,-183.04 1523.34,-191.86 1524.26,-181.31 1517.47,-183.04"/>
</g>
<!-- Node3 -->
<g id="node3" class="node">
<title>Node3</title>
<g id="a_node3"><a xlink:href="$classSetJoystick.html#a75a8851568f88ac1966ae2ba0704ae42" xlink:title=" ">
<polygon fill="white" stroke="black" points="1082,-241 1082,-260 1258,-260 1258,-241 1082,-241"/>
<text text-anchor="middle" x="1170" y="-248" font-family="Helvetica,sans-Serif" font-size="10.00">SetJoystick::enableAxisConnections</text>
</a>
</g>
</g>
<!-- Node2&#45;&gt;Node3 -->
<g id="edge2" class="edge">
<title>Node2&#45;&gt;Node3</title>
<path fill="none" stroke="midnightblue" d="M1302.3,-378.11C1299.44,-376.67 1296.66,-375.13 1294,-373.5 1241.75,-341.43 1195.02,-282.88 1177.91,-260.01"/>
<polygon fill="midnightblue" stroke="midnightblue" points="1301.11,-381.41 1311.66,-382.39 1304.02,-375.04 1301.11,-381.41"/>
</g>
<!-- Node4 -->
<g id="node4" class="node">
<title>Node4</title>
<g id="a_node4"><a xlink:href="$classGameControllerSet.html#abd666978fe84da99c8338e8020051510" xlink:title=" ">
<polygon fill="white" stroke="black" points="906.5,-191.5 906.5,-221.5 1012.5,-221.5 1012.5,-191.5 906.5,-191.5"/>
<text text-anchor="start" x="914.5" y="-209.5" font-family="Helvetica,sans-Serif" font-size="10.00">GameControllerSet::</text>
<text text-anchor="middle" x="959.5" y="-198.5" font-family="Helvetica,sans-Serif" font-size="10.00">refreshAxes</text>
</a>
</g>
</g>
<!-- Node3&#45;&gt;Node4 -->
<g id="edge3" class="edge">
<title>Node3&#45;&gt;Node4</title>
<path fill="none" stroke="midnightblue" d="M1113.87,-238.87C1082.52,-232.25 1043.48,-224.01 1012.64,-217.5"/>
<polygon fill="midnightblue" stroke="midnightblue" points="1113.25,-242.31 1123.76,-240.95 1114.7,-235.46 1113.25,-242.31"/>
</g>
<!-- Node5 -->
<g id="node5" class="node">
<title>Node5</title>
<g id="a_node5"><a xlink:href="$classSetJoystick.html#af8d7d16a13702ae29b6590db35801d14" xlink:title=" ">
<polygon fill="white" stroke="black" points="897,-241 897,-260 1022,-260 1022,-241 897,-241"/>
<text text-anchor="middle" x="959.5" y="-248" font-family="Helvetica,sans-Serif" font-size="10.00">SetJoystick::refreshAxes</text>
</a>
</g>
</g>
<!-- Node3&#45;&gt;Node5 -->
<g id="edge4" class="edge">
<title>Node3&#45;&gt;Node5</title>
<path fill="none" stroke="midnightblue" d="M1071.37,-250.5C1054.56,-250.5 1037.53,-250.5 1022.02,-250.5"/>
<polygon fill="midnightblue" stroke="midnightblue" points="1071.79,-254 1081.79,-250.5 1071.79,-247 1071.79,-254"/>
</g>
<!-- Node6 -->
<g id="node6" class="node">
<title>Node6</title>
<g id="a_node6"><a xlink:href="$classSetJoystick.html#adc322b55002b149c9a7432d1008b8537" xlink:title=" ">
<polygon fill="white" stroke="black" points="710,-241 710,-260 805,-260 805,-241 710,-241"/>
<text text-anchor="middle" x="757.5" y="-248" font-family="Helvetica,sans-Serif" font-size="10.00">SetJoystick::reset</text>
</a>
</g>
</g>
<!-- Node5&#45;&gt;Node6 -->
<g id="edge5" class="edge">
<title>Node5&#45;&gt;Node6</title>
<path fill="none" stroke="midnightblue" d="M886.61,-250.5C859.44,-250.5 829.25,-250.5 805.01,-250.5"/>
<polygon fill="midnightblue" stroke="midnightblue" points="886.86,-254 896.86,-250.5 886.86,-247 886.86,-254"/>
</g>
<!-- Node7 -->
<g id="node7" class="node">
<title>Node7</title>
<g id="a_node7"><a xlink:href="$classInputDevice.html#af7b290c37a1bcae1fbd0f0274d6cf646" xlink:title=" ">
<polygon fill="white" stroke="black" points="531.5,-240 531.5,-259 628.5,-259 628.5,-240 531.5,-240"/>
<text text-anchor="middle" x="580" y="-247" font-family="Helvetica,sans-Serif" font-size="10.00">InputDevice::reset</text>
</a>
</g>
</g>
<!-- Node6&#45;&gt;Node7 -->
<g id="edge6" class="edge">
<title>Node6&#45;&gt;Node7</title>
<path fill="none" stroke="midnightblue" d="M699.66,-250.18C676.74,-250.05 650.61,-249.9 628.71,-249.77"/>
<polygon fill="midnightblue" stroke="midnightblue" points="699.91,-253.68 709.93,-250.23 699.95,-246.68 699.91,-253.68"/>
</g>
<!-- Node15 -->
<g id="node15" class="node">
<title>Node15</title>
<g id="a_node15"><a xlink:href="$classGameControllerSet.html#a40b9c9ac22d6fe71c15380dcbca7eb80" xlink:title=" ">
<polygon fill="white" stroke="black" points="527,-190.5 527,-220.5 633,-220.5 633,-190.5 527,-190.5"/>
<text text-anchor="start" x="535" y="-208.5" font-family="Helvetica,sans-Serif" font-size="10.00">GameControllerSet::</text>
<text text-anchor="middle" x="580" y="-197.5" font-family="Helvetica,sans-Serif" font-size="10.00">resetSticks</text>
</a>
</g>
</g>
<!-- Node6&#45;&gt;Node15 -->
<g id="edge15" class="edge">
<title>Node6&#45;&gt;Node15</title>
<path fill="none" stroke="midnightblue" d="M709.52,-238.45C685.97,-232.41 657.37,-225.08 633.14,-218.87"/>
<polygon fill="midnightblue" stroke="midnightblue" points="708.72,-241.86 719.28,-240.96 710.46,-235.08 708.72,-241.86"/>
</g>
<!-- Node18 -->
<g id="node18" class="node">
<title>Node18</title>
<g id="a_node18"><a xlink:href="$classSetJoystick.html#ab9d47383844cb2c08581352a6c02bdab" xlink:title=" ">
<polygon fill="white" stroke="black" points="518,-278 518,-297 642,-297 642,-278 518,-278"/>
<text text-anchor="middle" x="580" y="-285" font-family="Helvetica,sans-Serif" font-size="10.00">SetJoystick::SetJoystick</text>
</a>
</g>
</g>
<!-- Node6&#45;&gt;Node18 -->
<g id="edge18" class="edge">
<title>Node6&#45;&gt;Node18</title>
<path fill="none" stroke="midnightblue" d="M701.23,-262.15C677.12,-267.23 649.21,-273.12 626.35,-277.94"/>
<polygon fill="midnightblue" stroke="midnightblue" points="702.24,-265.52 711.3,-260.03 700.8,-258.67 702.24,-265.52"/>
</g>
<!-- Node8 -->
<g id="node8" class="node">
<title>Node8</title>
<g id="a_node8"><a xlink:href="$classInputDaemon.html#a70fa1dbeac61db6cc29a96cdc57a4518" xlink:title=" ">
<polygon fill="white" stroke="black" points="336,-240 336,-259 482,-259 482,-240 336,-240"/>
<text text-anchor="middle" x="409" y="-247" font-family="Helvetica,sans-Serif" font-size="10.00">InputDaemon::refreshJoystick</text>
</a>
</g>
</g>
<!-- Node7&#45;&gt;Node8 -->
<g id="edge7" class="edge">
<title>Node7&#45;&gt;Node8</title>
<path fill="none" stroke="midnightblue" d="M521.15,-249.5C508.59,-249.5 495.15,-249.5 482.11,-249.5"/>
<polygon fill="midnightblue" stroke="midnightblue" points="521.47,-253 531.47,-249.5 521.47,-246 521.47,-253"/>
</g>
<!-- Node9 -->
<g id="node9" class="node">
<title>Node9</title>
<g id="a_node9"><a xlink:href="$classInputDevice.html#a767b4db5d307c9d851affed3c7e23a30" xlink:title="Obtain current joystick element values, create new SetJoystick objects, and then transfer most recent...">
<polygon fill="white" stroke="black" points="342,-278 342,-297 476,-297 476,-278 342,-278"/>
<text text-anchor="middle" x="409" y="-285" font-family="Helvetica,sans-Serif" font-size="10.00">InputDevice::transferReset</text>
</a>
</g>
</g>
<!-- Node7&#45;&gt;Node9 -->
<g id="edge8" class="edge">
<title>Node7&#45;&gt;Node9</title>
<path fill="none" stroke="midnightblue" d="M526.41,-261.32C502.59,-266.68 474.79,-272.93 452.34,-277.98"/>
<polygon fill="midnightblue" stroke="midnightblue" points="527.37,-264.7 536.35,-259.09 525.83,-257.87 527.37,-264.7"/>
</g>
<!-- Node10 -->
<g id="node10" class="node">
<title>Node10</title>
<g id="a_node10"><a xlink:href="$classInputDeviceXml.html#a847bf9ed17b554bf87d513a1aebdcb64" xlink:title=" ">
<polygon fill="white" stroke="black" points="160,-278 160,-297 300,-297 300,-278 160,-278"/>
<text text-anchor="middle" x="230" y="-285" font-family="Helvetica,sans-Serif" font-size="10.00">InputDeviceXml::readConfig</text>
</a>
</g>
</g>
<!-- Node9&#45;&gt;Node10 -->
<g id="edge9" class="edge">
<title>Node9&#45;&gt;Node10</title>
<path fill="none" stroke="midnightblue" d="M331.81,-287.5C321.25,-287.5 310.45,-287.5 300.04,-287.5"/>
<polygon fill="midnightblue" stroke="midnightblue" points="331.84,-291 341.84,-287.5 331.84,-284 331.84,-291"/>
</g>
<!-- Node11 -->
<g id="node11" class="node">
<title>Node11</title>
<g id="a_node11"><a xlink:href="$classGameControllerXml.html#a7e47256cae0d3815419bc254413777d1" xlink:title=" ">
<polygon fill="white" stroke="black" points="8,-212.5 8,-242.5 116,-242.5 116,-212.5 8,-212.5"/>
<text text-anchor="start" x="16" y="-230.5" font-family="Helvetica,sans-Serif" font-size="10.00">GameControllerXml::</text>
<text text-anchor="middle" x="62" y="-219.5" font-family="Helvetica,sans-Serif" font-size="10.00">readConfig</text>
</a>
</g>
</g>
<!-- Node9&#45;&gt;Node11 -->
<g id="edge10" class="edge">
<title>Node9&#45;&gt;Node11</title>
<path fill="none" stroke="midnightblue" d="M344.26,-276.26C329.71,-273.7 314.32,-271 300,-268.5 236.86,-257.48 164.23,-244.94 116.19,-236.66"/>
<polygon fill="midnightblue" stroke="midnightblue" points="343.71,-279.71 354.17,-278 344.93,-272.82 343.71,-279.71"/>
</g>
<!-- Node12 -->
<g id="node12" class="node">
<title>Node12</title>
<g id="a_node12"><a xlink:href="$classGameControllerXml.html#aaa5257d4c6fe13f1d5fc51981e247c25" xlink:title=" ">
<polygon fill="white" stroke="black" points="176,-190.5 176,-220.5 284,-220.5 284,-190.5 176,-190.5"/>
<text text-anchor="start" x="184" y="-208.5" font-family="Helvetica,sans-Serif" font-size="10.00">GameControllerXml::</text>
<text text-anchor="middle" x="230" y="-197.5" font-family="Helvetica,sans-Serif" font-size="10.00">readJoystickConfig</text>
</a>
</g>
</g>
<!-- Node9&#45;&gt;Node12 -->
<g id="edge11" class="edge">
<title>Node9&#45;&gt;Node12</title>
<path fill="none" stroke="midnightblue" d="M349.22,-274.58C344.64,-272.8 340.18,-270.78 336,-268.5 316.95,-258.09 318.2,-247.32 300,-235.5 291.35,-229.88 281.46,-224.87 271.93,-220.63"/>
<polygon fill="midnightblue" stroke="midnightblue" points="348.15,-277.91 358.74,-277.92 350.47,-271.31 348.15,-277.91"/>
</g>
<!-- Node13 -->
<g id="node13" class="node">
<title>Node13</title>
<g id="a_node13"><a xlink:href="$classJoyTabWidgetHelper.html#aef94ae0812f28f43eb891ddc210c341e" xlink:title=" ">
<polygon fill="white" stroke="black" points="176.5,-316.5 176.5,-346.5 283.5,-346.5 283.5,-316.5 176.5,-316.5"/>
<text text-anchor="start" x="184.5" y="-334.5" font-family="Helvetica,sans-Serif" font-size="10.00">JoyTabWidgetHelper</text>
<text text-anchor="middle" x="230" y="-323.5" font-family="Helvetica,sans-Serif" font-size="10.00">::reInitDevice</text>
</a>
</g>
</g>
<!-- Node9&#45;&gt;Node13 -->
<g id="edge13" class="edge">
<title>Node9&#45;&gt;Node13</title>
<path fill="none" stroke="midnightblue" d="M359.83,-299.48C336.28,-305.33 307.9,-312.38 283.77,-318.38"/>
<polygon fill="midnightblue" stroke="midnightblue" points="360.73,-302.86 369.59,-297.05 359.04,-296.06 360.73,-302.86"/>
</g>
<!-- Node12&#45;&gt;Node11 -->
<g id="edge12" class="edge">
<title>Node12&#45;&gt;Node11</title>
<path fill="none" stroke="midnightblue" d="M165.55,-213.91C149.21,-216.07 131.8,-218.38 116.05,-220.47"/>
<polygon fill="midnightblue" stroke="midnightblue" points="166.11,-217.37 175.56,-212.58 165.19,-210.43 166.11,-217.37"/>
</g>
<!-- Node14 -->
<g id="node14" class="node">
<title>Node14</title>
<g id="a_node14"><a xlink:href="$classJoyTabWidgetHelper.html#acc5d7d51e925f84f9aa2936ce267f843" xlink:title=" ">
<polygon fill="white" stroke="black" points="0,-316.5 0,-346.5 124,-346.5 124,-316.5 0,-316.5"/>
<text text-anchor="start" x="8" y="-334.5" font-family="Helvetica,sans-Serif" font-size="10.00">JoyTabWidgetHelper</text>
<text text-anchor="middle" x="62" y="-323.5" font-family="Helvetica,sans-Serif" font-size="10.00">::reInitDeviceWithRevert</text>
</a>
</g>
</g>
<!-- Node13&#45;&gt;Node14 -->
<g id="edge14" class="edge">
<title>Node13&#45;&gt;Node14</title>
<path fill="none" stroke="midnightblue" d="M166.14,-331.5C152.39,-331.5 137.85,-331.5 124.16,-331.5"/>
<polygon fill="midnightblue" stroke="midnightblue" points="166.48,-335 176.48,-331.5 166.48,-328 166.48,-335"/>
</g>
<!-- Node16 -->
<g id="node16" class="node">
<title>Node16</title>
<g id="a_node16"><a xlink:href="$classGameControllerSet.html#a9d686fa2df459f7d157d60e05707f712" xlink:title=" ">
<polygon fill="white" stroke="black" points="356,-141.5 356,-171.5 462,-171.5 462,-141.5 356,-141.5"/>
<text text-anchor="start" x="364" y="-159.5" font-family="Helvetica,sans-Serif" font-size="10.00">GameControllerSet::</text>
<text text-anchor="middle" x="409" y="-148.5" font-family="Helvetica,sans-Serif" font-size="10.00">GameControllerSet</text>
</a>
</g>
</g>
<!-- Node15&#45;&gt;Node16 -->
<g id="edge16" class="edge">
<title>Node15&#45;&gt;Node16</title>
<path fill="none" stroke="midnightblue" d="M517.28,-187.61C499.11,-182.34 479.41,-176.62 461.91,-171.55"/>
<polygon fill="midnightblue" stroke="midnightblue" points="516.34,-190.98 526.92,-190.4 518.29,-184.25 516.34,-190.98"/>
</g>
<!-- Node17 -->
<g id="node17" class="node">
<title>Node17</title>
<g id="a_node17"><a xlink:href="$classGameControllerSet.html#a69d798af242a07017bc0f2e2d0d8a830" xlink:title=" ">
<polygon fill="white" stroke="black" points="356,-190.5 356,-220.5 462,-220.5 462,-190.5 356,-190.5"/>
<text text-anchor="start" x="364" y="-208.5" font-family="Helvetica,sans-Serif" font-size="10.00">GameControllerSet::</text>
<text text-anchor="middle" x="409" y="-197.5" font-family="Helvetica,sans-Serif" font-size="10.00">reset</text>
</a>
</g>
</g>
<!-- Node15&#45;&gt;Node17 -->
<g id="edge17" class="edge">
<title>Node15&#45;&gt;Node17</title>
<path fill="none" stroke="midnightblue" d="M516.83,-205.5C498.88,-205.5 479.48,-205.5 462.2,-205.5"/>
<polygon fill="midnightblue" stroke="midnightblue" points="516.92,-209 526.92,-205.5 516.92,-202 516.92,-209"/>
</g>
<!-- Node19&#45;&gt;Node3 -->
<g id="edge20" class="edge">
<title>Node19&#45;&gt;Node3</title>
<path fill="none" stroke="midnightblue" d="M1306.73,-329.87C1302.38,-328.16 1298.09,-326.37 1294,-324.5 1252.29,-305.44 1207,-275.55 1184.82,-260.25"/>
<polygon fill="midnightblue" stroke="midnightblue" points="1305.72,-333.23 1316.32,-333.44 1308.17,-326.67 1305.72,-333.23"/>
</g>
<!-- Node20&#45;&gt;Node3 -->
<g id="edge22" class="edge">
<title>Node20&#45;&gt;Node3</title>
<path fill="none" stroke="midnightblue" d="M1297.3,-282C1267.62,-274.59 1234.21,-266.26 1209.21,-260.03"/>
<polygon fill="midnightblue" stroke="midnightblue" points="1296.66,-285.44 1307.21,-284.47 1298.35,-278.65 1296.66,-285.44"/>
</g>
<!-- Node21&#45;&gt;Node3 -->
<g id="edge24" class="edge">
<title>Node21&#45;&gt;Node3</title>
<path fill="none" stroke="midnightblue" d="M1292.66,-250.5C1281.37,-250.5 1269.64,-250.5 1258.12,-250.5"/>
<polygon fill="midnightblue" stroke="midnightblue" points="1292.89,-254 1302.89,-250.5 1292.89,-247 1292.89,-254"/>
</g>
<!-- Node22&#45;&gt;Node3 -->
<g id="edge26" class="edge">
<title>Node22&#45;&gt;Node3</title>
<path fill="none" stroke="midnightblue" d="M1297.3,-219C1267.62,-226.41 1234.21,-234.74 1209.21,-240.97"/>
<polygon fill="midnightblue" stroke="midnightblue" points="1298.35,-222.35 1307.21,-216.53 1296.66,-215.56 1298.35,-222.35"/>
</g>
<!-- Node23&#45;&gt;Node3 -->
<g id="edge28" class="edge">
<title>Node23&#45;&gt;Node3</title>
<path fill="none" stroke="midnightblue" d="M1309.28,-171.04C1304.06,-173.08 1298.9,-175.24 1294,-177.5 1252.5,-196.62 1207.12,-225.97 1184.87,-240.96"/>
<polygon fill="midnightblue" stroke="midnightblue" points="1310.57,-174.29 1318.71,-167.5 1308.11,-167.74 1310.57,-174.29"/>
</g>
<!-- Node25 -->
<g id="node25" class="node">
<title>Node25</title>
<g id="a_node25"><a xlink:href="$classJoyAxisXml.html#abfcf483748d22f52a9f76d2bf23e9a3d" xlink:title=" ">
<polygon fill="white" stroke="black" points="1109,-146 1109,-165 1231,-165 1231,-146 1109,-146"/>
<text text-anchor="middle" x="1170" y="-153" font-family="Helvetica,sans-Serif" font-size="10.00">JoyAxisXml::readConfig</text>
</a>
</g>
</g>
<!-- Node24&#45;&gt;Node25 -->
<g id="edge30" class="edge">
<title>Node24&#45;&gt;Node25</title>
<path fill="none" stroke="midnightblue" d="M1321.69,-120.6C1302.11,-125.67 1278.97,-131.53 1258,-136.5 1244.46,-139.71 1229.69,-143.01 1216.22,-145.94"/>
<polygon fill="midnightblue" stroke="midnightblue" points="1322.78,-123.93 1331.58,-118.03 1321.02,-117.16 1322.78,-123.93"/>
</g>
<!-- Node27 -->
<g id="node27" class="node">
<title>Node27</title>
<g id="a_node27"><a xlink:href="$classGameControllerTriggerXml.html#a4578ad54daf8a24231e8b0e4e09f1587" xlink:title=" ">
<polygon fill="white" stroke="black" points="1104.5,-96.5 1104.5,-126.5 1235.5,-126.5 1235.5,-96.5 1104.5,-96.5"/>
<text text-anchor="start" x="1112.5" y="-114.5" font-family="Helvetica,sans-Serif" font-size="10.00">GameControllerTriggerXml</text>
<text text-anchor="middle" x="1170" y="-103.5" font-family="Helvetica,sans-Serif" font-size="10.00">::readJoystickConfig</text>
</a>
</g>
</g>
<!-- Node24&#45;&gt;Node27 -->
<g id="edge32" class="edge">
<title>Node24&#45;&gt;Node27</title>
<path fill="none" stroke="midnightblue" d="M1286.44,-109.74C1269.57,-110 1252,-110.26 1235.81,-110.51"/>
<polygon fill="midnightblue" stroke="midnightblue" points="1286.89,-113.23 1296.84,-109.58 1286.78,-106.23 1286.89,-113.23"/>
</g>
<!-- Node26 -->
<g id="node26" class="node">
<title>Node26</title>
<g id="a_node26"><a xlink:href="$classSetJoystickXml.html#aa95423a01fab878cbc69bffb7f6121f3" xlink:title=" ">
<polygon fill="white" stroke="black" points="890.5,-146 890.5,-165 1028.5,-165 1028.5,-146 890.5,-146"/>
<text text-anchor="middle" x="959.5" y="-153" font-family="Helvetica,sans-Serif" font-size="10.00">SetJoystickXml::readConfig</text>
</a>
</g>
</g>
<!-- Node25&#45;&gt;Node26 -->
<g id="edge31" class="edge">
<title>Node25&#45;&gt;Node26</title>
<path fill="none" stroke="midnightblue" d="M1098.75,-155.5C1076.09,-155.5 1051.03,-155.5 1028.53,-155.5"/>
<polygon fill="midnightblue" stroke="midnightblue" points="1098.97,-159 1108.97,-155.5 1098.97,-152 1098.97,-159"/>
</g>
<!-- Node28 -->
<g id="node28" class="node">
<title>Node28</title>
<g id="a_node28"><a xlink:href="$classGameControllerSet.html#a6b551139e353a654212d498309744025" xlink:title=" ">
<polygon fill="white" stroke="black" points="704.5,-97.5 704.5,-127.5 810.5,-127.5 810.5,-97.5 704.5,-97.5"/>
<text text-anchor="start" x="712.5" y="-115.5" font-family="Helvetica,sans-Serif" font-size="10.00">GameControllerSet::</text>
<text text-anchor="middle" x="757.5" y="-104.5" font-family="Helvetica,sans-Serif" font-size="10.00">readJoystickConfig</text>
</a>
</g>
</g>
<!-- Node27&#45;&gt;Node28 -->
<g id="edge33" class="edge">
<title>Node27&#45;&gt;Node28</title>
<path fill="none" stroke="midnightblue" d="M1094.39,-111.68C1012.31,-111.88 882.52,-112.2 810.68,-112.37"/>
<polygon fill="midnightblue" stroke="midnightblue" points="1094.42,-115.18 1104.41,-111.66 1094.4,-108.18 1094.42,-115.18"/>
</g>
<!-- Node28&#45;&gt;Node12 -->
<g id="edge34" class="edge">
<title>Node28&#45;&gt;Node12</title>
<path fill="none" stroke="midnightblue" d="M694.19,-104.97C610.3,-97.16 457.57,-91.2 336,-132.5 300.26,-144.64 265.69,-172.85 246.49,-190.43"/>
<polygon fill="midnightblue" stroke="midnightblue" points="694.02,-108.47 704.31,-105.96 694.7,-101.51 694.02,-108.47"/>
</g>
<!-- Node30 -->
<g id="node30" class="node">
<title>Node30</title>
<g id="a_node30"><a xlink:href="$classInputDevice.html#a8c4b7481037b00a0f8d4efaeb520a9dd" xlink:title=" ">
<polygon fill="white" stroke="black" points="1099.5,-47.5 1099.5,-77.5 1240.5,-77.5 1240.5,-47.5 1099.5,-47.5"/>
<text text-anchor="start" x="1107.5" y="-65.5" font-family="Helvetica,sans-Serif" font-size="10.00">InputDevice::changeSetAxis</text>
<text text-anchor="middle" x="1170" y="-54.5" font-family="Helvetica,sans-Serif" font-size="10.00">ButtonAssociation</text>
</a>
</g>
</g>
<!-- Node29&#45;&gt;Node30 -->
<g id="edge36" class="edge">
<title>Node29&#45;&gt;Node30</title>
<path fill="none" stroke="midnightblue" d="M1291.05,-63.72C1274.45,-63.55 1256.98,-63.38 1240.66,-63.21"/>
<polygon fill="midnightblue" stroke="midnightblue" points="1291.21,-67.22 1301.25,-63.83 1291.28,-60.22 1291.21,-67.22"/>
</g>
<!-- Node31 -->
<g id="node31" class="node">
<title>Node31</title>
<g id="a_node31"><a xlink:href="$classInputDevice.html#a6ffcebba103a7db02e82c1c7f62387bf" xlink:title=" ">
<polygon fill="white" stroke="black" points="873,-53 873,-72 1046,-72 1046,-53 873,-53"/>
<text text-anchor="middle" x="959.5" y="-60" font-family="Helvetica,sans-Serif" font-size="10.00">InputDevice::enableSetConnections</text>
</a>
</g>
</g>
<!-- Node30&#45;&gt;Node31 -->
<g id="edge37" class="edge">
<title>Node30&#45;&gt;Node31</title>
<path fill="none" stroke="midnightblue" d="M1089.15,-62.5C1075.06,-62.5 1060.34,-62.5 1046.1,-62.5"/>
<polygon fill="midnightblue" stroke="midnightblue" points="1089.28,-66 1099.28,-62.5 1089.28,-59 1089.28,-66"/>
</g>
<!-- Node32 -->
<g id="node32" class="node">
<title>Node32</title>
<g id="a_node32"><a xlink:href="$classGameController.html#afcddb9dcc5442a9746c3ff8760ea1791" xlink:title=" ">
<polygon fill="white" stroke="black" points="678,-57 678,-76 837,-76 837,-57 678,-57"/>
<text text-anchor="middle" x="757.5" y="-64" font-family="Helvetica,sans-Serif" font-size="10.00">GameController::GameController</text>
</a>
</g>
</g>
<!-- Node31&#45;&gt;Node32 -->
<g id="edge38" class="edge">
<title>Node31&#45;&gt;Node32</title>
<path fill="none" stroke="midnightblue" d="M862.74,-64.42C854.14,-64.59 845.49,-64.76 837.05,-64.93"/>
<polygon fill="midnightblue" stroke="midnightblue" points="862.88,-67.91 872.81,-64.21 862.74,-60.91 862.88,-67.91"/>
</g>
<!-- Node33 -->
<g id="node33" class="node">
<title>Node33</title>
<g id="a_node33"><a xlink:href="$classJoystick.html#a9df5e53506876f3c95e84bdf6c9cbaf1" xlink:title=" ">
<polygon fill="white" stroke="black" points="710.5,-19 710.5,-38 804.5,-38 804.5,-19 710.5,-19"/>
<text text-anchor="middle" x="757.5" y="-26" font-family="Helvetica,sans-Serif" font-size="10.00">Joystick::Joystick</text>
</a>
</g>
</g>
<!-- Node31&#45;&gt;Node33 -->
<g id="edge39" class="edge">
<title>Node31&#45;&gt;Node33</title>
<path fill="none" stroke="midnightblue" d="M892.55,-51.29C863.78,-46.4 830.75,-40.78 804.68,-36.35"/>
<polygon fill="midnightblue" stroke="midnightblue" points="892.08,-54.76 902.52,-52.98 893.25,-47.86 892.08,-54.76"/>
</g>
</g>
</svg>
