<?xml version="1.0" encoding="UTF-8" standalone="no"?>
<!DOCTYPE svg PUBLIC "-//W3C//DTD SVG 1.1//EN"
 "http://www.w3.org/Graphics/SVG/1.1/DTD/svg11.dtd">
<!-- Generated by graphviz version 2.43.0 (0)
 -->
<!-- Title: SetJoystick::propogateSetVDPadNameChange Pages: 1 -->
<svg width="827pt" height="112pt"
 viewBox="0.00 0.00 827.00 112.00" xmlns="http://www.w3.org/2000/svg" xmlns:xlink="http://www.w3.org/1999/xlink">
<g id="graph0" class="graph" transform="scale(1 1) rotate(0) translate(4 108)">
<title>SetJoystick::propogateSetVDPadNameChange</title>
<polygon fill="white" stroke="transparent" points="-4,4 -4,-108 823,-108 823,4 -4,4"/>
<!-- Node1 -->
<g id="node1" class="node">
<title>Node1</title>
<g id="a_node1"><a xlink:title=" ">
<polygon fill="#bfbfbf" stroke="black" points="688,-48.5 688,-78.5 819,-78.5 819,-48.5 688,-48.5"/>
<text text-anchor="start" x="696" y="-66.5" font-family="Helvetica,sans-Serif" font-size="10.00">SetJoystick::propogateSet</text>
<text text-anchor="middle" x="753.5" y="-55.5" font-family="Helvetica,sans-Serif" font-size="10.00">VDPadNameChange</text>
</a>
</g>
</g>
<!-- Node2 -->
<g id="node2" class="node">
<title>Node2</title>
<g id="a_node2"><a xlink:href="$classSetJoystick.html#a5d361ae7d236016146559f96be00685b" xlink:title=" ">
<polygon fill="white" stroke="black" points="532,-54 532,-73 652,-73 652,-54 532,-54"/>
<text text-anchor="middle" x="592" y="-61" font-family="Helvetica,sans-Serif" font-size="10.00">SetJoystick::addVDPad</text>
</a>
</g>
</g>
<!-- Node1&#45;&gt;Node2 -->
<g id="edge1" class="edge">
<title>Node1&#45;&gt;Node2</title>
<path fill="none" stroke="midnightblue" d="M677.37,-63.5C668.91,-63.5 660.38,-63.5 652.17,-63.5"/>
<polygon fill="midnightblue" stroke="midnightblue" points="677.63,-67 687.63,-63.5 677.63,-60 677.63,-67"/>
</g>
<!-- Node3 -->
<g id="node3" class="node">
<title>Node3</title>
<g id="a_node3"><a xlink:href="$classAdvanceStickAssignmentDialog.html#af9a53f130a627d0e5973bed035907801" xlink:title=" ">
<polygon fill="white" stroke="black" points="340,-73.5 340,-103.5 496,-103.5 496,-73.5 340,-73.5"/>
<text text-anchor="start" x="348" y="-91.5" font-family="Helvetica,sans-Serif" font-size="10.00">AdvanceStickAssignmentDialog</text>
<text text-anchor="middle" x="418" y="-80.5" font-family="Helvetica,sans-Serif" font-size="10.00">::changeStateVDPadWidgets</text>
</a>
</g>
</g>
<!-- Node2&#45;&gt;Node3 -->
<g id="edge2" class="edge">
<title>Node2&#45;&gt;Node3</title>
<path fill="none" stroke="midnightblue" d="M521.71,-73.57C513.32,-74.79 504.71,-76.04 496.22,-77.28"/>
<polygon fill="midnightblue" stroke="midnightblue" points="522.41,-77.01 531.81,-72.1 521.41,-70.08 522.41,-77.01"/>
</g>
<!-- Node5 -->
<g id="node5" class="node">
<title>Node5</title>
<g id="a_node5"><a xlink:href="$classGameControllerSet.html#afbbd676e52346412a864cdd084b5c9ce" xlink:title=" ">
<polygon fill="white" stroke="black" points="365,-24.5 365,-54.5 471,-54.5 471,-24.5 365,-24.5"/>
<text text-anchor="start" x="373" y="-42.5" font-family="Helvetica,sans-Serif" font-size="10.00">GameControllerSet::</text>
<text text-anchor="middle" x="418" y="-31.5" font-family="Helvetica,sans-Serif" font-size="10.00">populateSticksDPad</text>
</a>
</g>
</g>
<!-- Node2&#45;&gt;Node5 -->
<g id="edge4" class="edge">
<title>Node2&#45;&gt;Node5</title>
<path fill="none" stroke="midnightblue" d="M521.47,-53.8C504.66,-51.45 486.97,-48.98 471.11,-46.77"/>
<polygon fill="midnightblue" stroke="midnightblue" points="521.42,-57.32 531.81,-55.24 522.39,-50.39 521.42,-57.32"/>
</g>
<!-- Node4 -->
<g id="node4" class="node">
<title>Node4</title>
<g id="a_node4"><a xlink:href="$classAdvanceStickAssignmentDialog.html#a86cf0001cd774ce5ccec8543b7a9a50b" xlink:title=" ">
<polygon fill="white" stroke="black" points="142,-73.5 142,-103.5 304,-103.5 304,-73.5 142,-73.5"/>
<text text-anchor="start" x="150" y="-91.5" font-family="Helvetica,sans-Serif" font-size="10.00">AdvanceStickAssignmentDialog</text>
<text text-anchor="middle" x="223" y="-80.5" font-family="Helvetica,sans-Serif" font-size="10.00">::AdvanceStickAssignmentDialog</text>
</a>
</g>
</g>
<!-- Node3&#45;&gt;Node4 -->
<g id="edge3" class="edge">
<title>Node3&#45;&gt;Node4</title>
<path fill="none" stroke="midnightblue" d="M329.89,-88.5C321.32,-88.5 312.64,-88.5 304.15,-88.5"/>
<polygon fill="midnightblue" stroke="midnightblue" points="329.89,-92 339.89,-88.5 329.89,-85 329.89,-92"/>
</g>
<!-- Node6 -->
<g id="node6" class="node">
<title>Node6</title>
<g id="a_node6"><a xlink:href="$classGameControllerSet.html#a40b9c9ac22d6fe71c15380dcbca7eb80" xlink:title=" ">
<polygon fill="white" stroke="black" points="170,-24.5 170,-54.5 276,-54.5 276,-24.5 170,-24.5"/>
<text text-anchor="start" x="178" y="-42.5" font-family="Helvetica,sans-Serif" font-size="10.00">GameControllerSet::</text>
<text text-anchor="middle" x="223" y="-31.5" font-family="Helvetica,sans-Serif" font-size="10.00">resetSticks</text>
</a>
</g>
</g>
<!-- Node5&#45;&gt;Node6 -->
<g id="edge5" class="edge">
<title>Node5&#45;&gt;Node6</title>
<path fill="none" stroke="midnightblue" d="M354.55,-39.5C329.27,-39.5 300.41,-39.5 276.27,-39.5"/>
<polygon fill="midnightblue" stroke="midnightblue" points="354.77,-43 364.77,-39.5 354.77,-36 354.77,-43"/>
</g>
<!-- Node7 -->
<g id="node7" class="node">
<title>Node7</title>
<g id="a_node7"><a xlink:href="$classGameControllerSet.html#a9d686fa2df459f7d157d60e05707f712" xlink:title=" ">
<polygon fill="white" stroke="black" points="0,-49.5 0,-79.5 106,-79.5 106,-49.5 0,-49.5"/>
<text text-anchor="start" x="8" y="-67.5" font-family="Helvetica,sans-Serif" font-size="10.00">GameControllerSet::</text>
<text text-anchor="middle" x="53" y="-56.5" font-family="Helvetica,sans-Serif" font-size="10.00">GameControllerSet</text>
</a>
</g>
</g>
<!-- Node6&#45;&gt;Node7 -->
<g id="edge6" class="edge">
<title>Node6&#45;&gt;Node7</title>
<path fill="none" stroke="midnightblue" d="M159.6,-48.79C142.03,-51.4 123.11,-54.22 106.2,-56.73"/>
<polygon fill="midnightblue" stroke="midnightblue" points="160.39,-52.21 169.76,-47.27 159.36,-45.28 160.39,-52.21"/>
</g>
<!-- Node8 -->
<g id="node8" class="node">
<title>Node8</title>
<g id="a_node8"><a xlink:href="$classGameControllerSet.html#a69d798af242a07017bc0f2e2d0d8a830" xlink:title=" ">
<polygon fill="white" stroke="black" points="0,-0.5 0,-30.5 106,-30.5 106,-0.5 0,-0.5"/>
<text text-anchor="start" x="8" y="-18.5" font-family="Helvetica,sans-Serif" font-size="10.00">GameControllerSet::</text>
<text text-anchor="middle" x="53" y="-7.5" font-family="Helvetica,sans-Serif" font-size="10.00">reset</text>
</a>
</g>
</g>
<!-- Node6&#45;&gt;Node8 -->
<g id="edge7" class="edge">
<title>Node6&#45;&gt;Node8</title>
<path fill="none" stroke="midnightblue" d="M159.6,-30.59C142.03,-28.08 123.11,-25.37 106.2,-22.96"/>
<polygon fill="midnightblue" stroke="midnightblue" points="159.37,-34.09 169.76,-32.04 160.36,-27.16 159.37,-34.09"/>
</g>
</g>
</svg>
