<?xml version="1.0" encoding="UTF-8" standalone="no"?>
<!DOCTYPE svg PUBLIC "-//W3C//DTD SVG 1.1//EN"
 "http://www.w3.org/Graphics/SVG/1.1/DTD/svg11.dtd">
<!-- Generated by graphviz version 2.43.0 (0)
 -->
<!-- Title: JoyControlStickPushButton::showContextMenu Pages: 1 -->
<svg width="909pt" height="454pt"
 viewBox="0.00 0.00 909.00 454.00" xmlns="http://www.w3.org/2000/svg" xmlns:xlink="http://www.w3.org/1999/xlink">
<g id="graph0" class="graph" transform="scale(1 1) rotate(0) translate(4 450)">
<title>JoyControlStickPushButton::showContextMenu</title>
<polygon fill="white" stroke="transparent" points="-4,4 -4,-450 905,-450 905,4 -4,4"/>
<!-- Node1 -->
<g id="node1" class="node">
<title>Node1</title>
<g id="a_node1"><a xlink:title=" ">
<polygon fill="#bfbfbf" stroke="black" points="0,-137 0,-167 137,-167 137,-137 0,-137"/>
<text text-anchor="start" x="8" y="-155" font-family="Helvetica,sans-Serif" font-size="10.00">JoyControlStickPushButton</text>
<text text-anchor="middle" x="68.5" y="-144" font-family="Helvetica,sans-Serif" font-size="10.00">::showContextMenu</text>
</a>
</g>
</g>
<!-- Node2 -->
<g id="node2" class="node">
<title>Node2</title>
<g id="a_node2"><a xlink:href="$classJoyControlStickContextMenu.html#a0290b608bf0fd639af32767a20a4b7a8" xlink:title=" ">
<polygon fill="white" stroke="black" points="173,-137 173,-167 318,-167 318,-137 173,-137"/>
<text text-anchor="start" x="181" y="-155" font-family="Helvetica,sans-Serif" font-size="10.00">JoyControlStickContextMenu</text>
<text text-anchor="middle" x="245.5" y="-144" font-family="Helvetica,sans-Serif" font-size="10.00">::buildMenu</text>
</a>
</g>
</g>
<!-- Node1&#45;&gt;Node2 -->
<g id="edge1" class="edge">
<title>Node1&#45;&gt;Node2</title>
<path fill="none" stroke="midnightblue" d="M137.16,-152C145.59,-152 154.29,-152 162.9,-152"/>
<polygon fill="midnightblue" stroke="midnightblue" points="162.96,-155.5 172.96,-152 162.96,-148.5 162.96,-155.5"/>
</g>
<!-- Node3 -->
<g id="node3" class="node">
<title>Node3</title>
<g id="a_node3"><a xlink:href="$classJoyControlStick.html#af2228e6ed7156093dd5140e53000a918" xlink:title=" ">
<polygon fill="white" stroke="black" points="540.5,-186.5 540.5,-205.5 685.5,-205.5 685.5,-186.5 540.5,-186.5"/>
<text text-anchor="middle" x="613" y="-193.5" font-family="Helvetica,sans-Serif" font-size="10.00">JoyControlStick::getJoyMode</text>
</a>
</g>
</g>
<!-- Node2&#45;&gt;Node3 -->
<g id="edge2" class="edge">
<title>Node2&#45;&gt;Node3</title>
<path fill="none" stroke="midnightblue" d="M306.77,-167.04C322.09,-170.42 338.59,-173.69 354,-176 412.51,-184.75 479.09,-189.79 529.95,-192.62"/>
<polygon fill="midnightblue" stroke="midnightblue" points="530.06,-196.13 540.24,-193.18 530.44,-189.14 530.06,-196.13"/>
</g>
<!-- Node4 -->
<g id="node4" class="node">
<title>Node4</title>
<g id="a_node4"><a xlink:href="$classJoyControlStickContextMenu.html#ae95cb2129e13935a34fb6f4300a690f7" xlink:title=" ">
<polygon fill="white" stroke="black" points="354,-301 354,-331 499,-331 499,-301 354,-301"/>
<text text-anchor="start" x="362" y="-319" font-family="Helvetica,sans-Serif" font-size="10.00">JoyControlStickContextMenu</text>
<text text-anchor="middle" x="426.5" y="-308" font-family="Helvetica,sans-Serif" font-size="10.00">::getPresetIndex</text>
</a>
</g>
</g>
<!-- Node2&#45;&gt;Node4 -->
<g id="edge3" class="edge">
<title>Node2&#45;&gt;Node4</title>
<path fill="none" stroke="midnightblue" d="M263.02,-167.13C294.72,-196.18 364.23,-259.86 401.22,-293.75"/>
<polygon fill="midnightblue" stroke="midnightblue" points="399.28,-296.73 409.02,-300.9 404.01,-291.57 399.28,-296.73"/>
</g>
<!-- Node14 -->
<g id="node14" class="node">
<title>Node14</title>
<g id="a_node14"><a xlink:href="$classJoyControlStickContextMenu.html#aa7763ec88ca2297cb0693c46aaffd7cb" xlink:title=" ">
<polygon fill="white" stroke="black" points="354,-39 354,-69 499,-69 499,-39 354,-39"/>
<text text-anchor="start" x="362" y="-57" font-family="Helvetica,sans-Serif" font-size="10.00">JoyControlStickContextMenu</text>
<text text-anchor="middle" x="426.5" y="-46" font-family="Helvetica,sans-Serif" font-size="10.00">::openMouseSettingsDialog</text>
</a>
</g>
</g>
<!-- Node2&#45;&gt;Node14 -->
<g id="edge13" class="edge">
<title>Node2&#45;&gt;Node14</title>
<path fill="none" stroke="midnightblue" d="M264.92,-136.93C285.57,-120.62 320.56,-94.71 354,-78 357.59,-76.21 361.34,-74.5 365.17,-72.88"/>
<polygon fill="midnightblue" stroke="midnightblue" points="366.78,-76.01 374.78,-69.06 364.19,-69.5 366.78,-76.01"/>
</g>
<!-- Node15 -->
<g id="node15" class="node">
<title>Node15</title>
<g id="a_node15"><a xlink:href="$classJoyControlStickContextMenu.html#ac5445252e43228e7a6a3f5ae0c994b43" xlink:title=" ">
<polygon fill="white" stroke="black" points="354,-88 354,-118 499,-118 499,-88 354,-88"/>
<text text-anchor="start" x="362" y="-106" font-family="Helvetica,sans-Serif" font-size="10.00">JoyControlStickContextMenu</text>
<text text-anchor="middle" x="426.5" y="-95" font-family="Helvetica,sans-Serif" font-size="10.00">::setStickMode</text>
</a>
</g>
</g>
<!-- Node2&#45;&gt;Node15 -->
<g id="edge14" class="edge">
<title>Node2&#45;&gt;Node15</title>
<path fill="none" stroke="midnightblue" d="M301.67,-136.9C320.38,-131.77 341.46,-126 360.85,-120.7"/>
<polygon fill="midnightblue" stroke="midnightblue" points="361.79,-124.07 370.52,-118.05 359.95,-117.32 361.79,-124.07"/>
</g>
<!-- Node17 -->
<g id="node17" class="node">
<title>Node17</title>
<g id="a_node17"><a xlink:href="$classJoyControlStickContextMenu.html#a00fe5d89b13fa5116b5cadd7480e8d93" xlink:title=" ">
<polygon fill="white" stroke="black" points="354,-137 354,-167 499,-167 499,-137 354,-137"/>
<text text-anchor="start" x="362" y="-155" font-family="Helvetica,sans-Serif" font-size="10.00">JoyControlStickContextMenu</text>
<text text-anchor="middle" x="426.5" y="-144" font-family="Helvetica,sans-Serif" font-size="10.00">::setStickPreset</text>
</a>
</g>
</g>
<!-- Node2&#45;&gt;Node17 -->
<g id="edge16" class="edge">
<title>Node2&#45;&gt;Node17</title>
<path fill="none" stroke="midnightblue" d="M318.02,-152C326.49,-152 335.18,-152 343.78,-152"/>
<polygon fill="midnightblue" stroke="midnightblue" points="343.8,-155.5 353.8,-152 343.8,-148.5 343.8,-155.5"/>
</g>
<!-- Node5 -->
<g id="node5" class="node">
<title>Node5</title>
<g id="a_node5"><a xlink:href="$classJoyButton.html#ae1d364dfa70f47fae3db99ffbcdea44b" xlink:title=" ">
<polygon fill="white" stroke="black" points="541.5,-350.5 541.5,-369.5 684.5,-369.5 684.5,-350.5 541.5,-350.5"/>
<text text-anchor="middle" x="613" y="-357.5" font-family="Helvetica,sans-Serif" font-size="10.00">JoyButton::getAssignedSlots</text>
</a>
</g>
</g>
<!-- Node4&#45;&gt;Node5 -->
<g id="edge4" class="edge">
<title>Node4&#45;&gt;Node5</title>
<path fill="none" stroke="midnightblue" d="M490.48,-331.02C513.92,-336.61 540.19,-342.87 562.28,-348.14"/>
<polygon fill="midnightblue" stroke="midnightblue" points="561.57,-351.57 572.11,-350.49 563.2,-344.76 561.57,-351.57"/>
</g>
<!-- Node6 -->
<g id="node6" class="node">
<title>Node6</title>
<g id="a_node6"><a xlink:href="$classJoyControlStick.html#ae57242ae6e71190d82ef4dbf31f11dd0" xlink:title="Get a pointer to the stick direction button for the desired direction.">
<polygon fill="white" stroke="black" points="541,-301 541,-331 685,-331 685,-301 541,-301"/>
<text text-anchor="start" x="549" y="-319" font-family="Helvetica,sans-Serif" font-size="10.00">JoyControlStick::getDirection</text>
<text text-anchor="middle" x="613" y="-308" font-family="Helvetica,sans-Serif" font-size="10.00">Button</text>
</a>
</g>
</g>
<!-- Node4&#45;&gt;Node6 -->
<g id="edge5" class="edge">
<title>Node4&#45;&gt;Node6</title>
<path fill="none" stroke="midnightblue" d="M499.1,-316C509.46,-316 520.19,-316 530.72,-316"/>
<polygon fill="midnightblue" stroke="midnightblue" points="530.75,-319.5 540.75,-316 530.75,-312.5 530.75,-319.5"/>
</g>
<!-- Node7 -->
<g id="node7" class="node">
<title>Node7</title>
<g id="a_node7"><a xlink:href="$classAntKeyMapper.html#acd08c44a2501edcfdb1ef8a68d534b1b" xlink:title=" ">
<polygon fill="white" stroke="black" points="544.5,-224.5 544.5,-243.5 681.5,-243.5 681.5,-224.5 544.5,-224.5"/>
<text text-anchor="middle" x="613" y="-231.5" font-family="Helvetica,sans-Serif" font-size="10.00">AntKeyMapper::getInstance</text>
</a>
</g>
</g>
<!-- Node4&#45;&gt;Node7 -->
<g id="edge6" class="edge">
<title>Node4&#45;&gt;Node7</title>
<path fill="none" stroke="midnightblue" d="M449.18,-300.76C470.23,-286.58 503.54,-265.79 535,-253 541.17,-250.49 547.76,-248.25 554.39,-246.27"/>
<polygon fill="midnightblue" stroke="midnightblue" points="555.4,-249.62 564.08,-243.55 553.51,-242.88 555.4,-249.62"/>
</g>
<!-- Node10 -->
<g id="node10" class="node">
<title>Node10</title>
<g id="a_node10"><a xlink:href="$classJoyButtonSlot.html#a7fa0bf6d891437a2392e47d32b746502" xlink:title=" ">
<polygon fill="white" stroke="black" points="544,-262.5 544,-281.5 682,-281.5 682,-262.5 544,-262.5"/>
<text text-anchor="middle" x="613" y="-269.5" font-family="Helvetica,sans-Serif" font-size="10.00">JoyButtonSlot::getSlotCode</text>
</a>
</g>
</g>
<!-- Node4&#45;&gt;Node10 -->
<g id="edge9" class="edge">
<title>Node4&#45;&gt;Node10</title>
<path fill="none" stroke="midnightblue" d="M490.48,-300.98C513.92,-295.39 540.19,-289.13 562.28,-283.86"/>
<polygon fill="midnightblue" stroke="midnightblue" points="563.2,-287.24 572.11,-281.51 561.57,-280.43 563.2,-287.24"/>
</g>
<!-- Node11 -->
<g id="node11" class="node">
<title>Node11</title>
<g id="a_node11"><a xlink:href="$classJoyButtonSlot.html#abed7fe134c404b403ea79c0753f6eaaf" xlink:title=" ">
<polygon fill="white" stroke="black" points="543.5,-426.5 543.5,-445.5 682.5,-445.5 682.5,-426.5 543.5,-426.5"/>
<text text-anchor="middle" x="613" y="-433.5" font-family="Helvetica,sans-Serif" font-size="10.00">JoyButtonSlot::getSlotMode</text>
</a>
</g>
</g>
<!-- Node4&#45;&gt;Node11 -->
<g id="edge10" class="edge">
<title>Node4&#45;&gt;Node11</title>
<path fill="none" stroke="midnightblue" d="M439.29,-331.23C457.4,-353.54 494.28,-394.86 535,-417 539.24,-419.3 543.76,-421.33 548.4,-423.12"/>
<polygon fill="midnightblue" stroke="midnightblue" points="547.47,-426.5 558.06,-426.46 549.75,-419.88 547.47,-426.5"/>
</g>
<!-- Node12 -->
<g id="node12" class="node">
<title>Node12</title>
<g id="a_node12"><a xlink:href="$classAntKeyMapper.html#a07957c1e2baac6c4266678d89dc7c3a6" xlink:title=" ">
<polygon fill="white" stroke="black" points="535,-388.5 535,-407.5 691,-407.5 691,-388.5 535,-388.5"/>
<text text-anchor="middle" x="613" y="-395.5" font-family="Helvetica,sans-Serif" font-size="10.00">AntKeyMapper::returnVirtualKey</text>
</a>
</g>
</g>
<!-- Node4&#45;&gt;Node12 -->
<g id="edge11" class="edge">
<title>Node4&#45;&gt;Node12</title>
<path fill="none" stroke="midnightblue" d="M449.18,-331.24C470.23,-345.42 503.54,-366.21 535,-379 541.17,-381.51 547.76,-383.75 554.39,-385.73"/>
<polygon fill="midnightblue" stroke="midnightblue" points="553.51,-389.12 564.08,-388.45 555.4,-382.38 553.51,-389.12"/>
</g>
<!-- Node8 -->
<g id="node8" class="node">
<title>Node8</title>
<g id="a_node8"><a xlink:href="$classAntKeyMapper.html#abe4a434636d370a750d32a14b9a139d3" xlink:title=" ">
<polygon fill="white" stroke="black" points="739,-243.5 739,-262.5 889,-262.5 889,-243.5 739,-243.5"/>
<text text-anchor="middle" x="814" y="-250.5" font-family="Helvetica,sans-Serif" font-size="10.00">AntKeyMapper::AntKeyMapper</text>
</a>
</g>
</g>
<!-- Node7&#45;&gt;Node8 -->
<g id="edge7" class="edge">
<title>Node7&#45;&gt;Node8</title>
<path fill="none" stroke="midnightblue" d="M681.65,-240.46C696.72,-241.9 712.87,-243.44 728.52,-244.93"/>
<polygon fill="midnightblue" stroke="midnightblue" points="728.42,-248.44 738.71,-245.91 729.09,-241.47 728.42,-248.44"/>
</g>
<!-- Node9 -->
<g id="node9" class="node">
<title>Node9</title>
<g id="a_node9"><a xlink:href="$antkeymapper_8cpp.html#a4f87707944cf82e8e59c85d48e24951c" xlink:title=" ">
<polygon fill="white" stroke="black" points="754,-205.5 754,-224.5 874,-224.5 874,-205.5 754,-205.5"/>
<text text-anchor="middle" x="814" y="-212.5" font-family="Helvetica,sans-Serif" font-size="10.00">buildEventGeneratorList</text>
</a>
</g>
</g>
<!-- Node7&#45;&gt;Node9 -->
<g id="edge8" class="edge">
<title>Node7&#45;&gt;Node9</title>
<path fill="none" stroke="midnightblue" d="M681.65,-227.54C701.7,-225.63 723.68,-223.53 743.82,-221.6"/>
<polygon fill="midnightblue" stroke="midnightblue" points="744.24,-225.08 753.86,-220.65 743.57,-218.11 744.24,-225.08"/>
</g>
<!-- Node13 -->
<g id="node13" class="node">
<title>Node13</title>
<g id="a_node13"><a xlink:href="$classQtKeyMapperBase.html#a5df0f313bce11847f8495126373e7178" xlink:title=" ">
<polygon fill="white" stroke="black" points="727,-388.5 727,-407.5 901,-407.5 901,-388.5 727,-388.5"/>
<text text-anchor="middle" x="814" y="-395.5" font-family="Helvetica,sans-Serif" font-size="10.00">QtKeyMapperBase::returnVirtualKey</text>
</a>
</g>
</g>
<!-- Node12&#45;&gt;Node13 -->
<g id="edge12" class="edge">
<title>Node12&#45;&gt;Node13</title>
<path fill="none" stroke="midnightblue" d="M691.22,-398C699.63,-398 708.25,-398 716.84,-398"/>
<polygon fill="midnightblue" stroke="midnightblue" points="716.9,-401.5 726.9,-398 716.9,-394.5 716.9,-401.5"/>
</g>
<!-- Node16 -->
<g id="node16" class="node">
<title>Node16</title>
<g id="a_node16"><a xlink:href="$classJoyControlStick.html#a7979a689bc339467288892614fffed13" xlink:title=" ">
<polygon fill="white" stroke="black" points="540.5,-0.5 540.5,-19.5 685.5,-19.5 685.5,-0.5 540.5,-0.5"/>
<text text-anchor="middle" x="613" y="-7.5" font-family="Helvetica,sans-Serif" font-size="10.00">JoyControlStick::setJoyMode</text>
</a>
</g>
</g>
<!-- Node15&#45;&gt;Node16 -->
<g id="edge15" class="edge">
<title>Node15&#45;&gt;Node16</title>
<path fill="none" stroke="midnightblue" d="M481.98,-87.91C488,-85.11 493.82,-81.83 499,-78 520.73,-61.93 512.54,-44.02 535,-29 538.1,-26.93 541.41,-25.08 544.84,-23.43"/>
<polygon fill="midnightblue" stroke="midnightblue" points="546.3,-26.61 554.18,-19.53 543.6,-20.16 546.3,-26.61"/>
</g>
<!-- Node17&#45;&gt;Node3 -->
<g id="edge19" class="edge">
<title>Node17&#45;&gt;Node3</title>
<path fill="none" stroke="midnightblue" d="M490.48,-167.02C513.92,-172.61 540.19,-178.87 562.28,-184.14"/>
<polygon fill="midnightblue" stroke="midnightblue" points="561.57,-187.57 572.11,-186.49 563.2,-180.76 561.57,-187.57"/>
</g>
<!-- Node17&#45;&gt;Node7 -->
<g id="edge18" class="edge">
<title>Node17&#45;&gt;Node7</title>
<path fill="none" stroke="midnightblue" d="M449.18,-167.24C470.23,-181.42 503.54,-202.21 535,-215 541.17,-217.51 547.76,-219.75 554.39,-221.73"/>
<polygon fill="midnightblue" stroke="midnightblue" points="553.51,-225.12 564.08,-224.45 555.4,-218.38 553.51,-225.12"/>
</g>
<!-- Node17&#45;&gt;Node16 -->
<g id="edge21" class="edge">
<title>Node17&#45;&gt;Node16</title>
<path fill="none" stroke="midnightblue" d="M485.61,-136.92C490.5,-134.15 495.06,-130.87 499,-127 532.07,-94.45 500.43,-59.96 535,-29 536.75,-27.43 538.61,-25.99 540.55,-24.66"/>
<polygon fill="midnightblue" stroke="midnightblue" points="542.6,-27.53 549.57,-19.55 539.14,-21.44 542.6,-27.53"/>
</g>
<!-- Node18 -->
<g id="node18" class="node">
<title>Node18</title>
<g id="a_node18"><a xlink:href="$classJoyControlStickContextMenu.html#ad2bcaf30656d4ef472d20e55b43a4f0d" xlink:title=" ">
<polygon fill="white" stroke="black" points="540.5,-137 540.5,-167 685.5,-167 685.5,-137 540.5,-137"/>
<text text-anchor="start" x="548.5" y="-155" font-family="Helvetica,sans-Serif" font-size="10.00">JoyControlStickContextMenu</text>
<text text-anchor="middle" x="613" y="-144" font-family="Helvetica,sans-Serif" font-size="10.00">::getHelperLocal</text>
</a>
</g>
</g>
<!-- Node17&#45;&gt;Node18 -->
<g id="edge17" class="edge">
<title>Node17&#45;&gt;Node18</title>
<path fill="none" stroke="midnightblue" d="M499.1,-152C509.28,-152 519.81,-152 530.17,-152"/>
<polygon fill="midnightblue" stroke="midnightblue" points="530.44,-155.5 540.44,-152 530.44,-148.5 530.44,-155.5"/>
</g>
<!-- Node19 -->
<g id="node19" class="node">
<title>Node19</title>
<g id="a_node19"><a xlink:href="$classJoyControlStick.html#abf2153ee9f2364f55640feb2a6ca60d6" xlink:title="Set the diagonal range value for a stick.">
<polygon fill="white" stroke="black" points="541.5,-88 541.5,-118 684.5,-118 684.5,-88 541.5,-88"/>
<text text-anchor="start" x="549.5" y="-106" font-family="Helvetica,sans-Serif" font-size="10.00">JoyControlStick::setDiagonal</text>
<text text-anchor="middle" x="613" y="-95" font-family="Helvetica,sans-Serif" font-size="10.00">Range</text>
</a>
</g>
</g>
<!-- Node17&#45;&gt;Node19 -->
<g id="edge20" class="edge">
<title>Node17&#45;&gt;Node19</title>
<path fill="none" stroke="midnightblue" d="M484.11,-136.97C503.59,-131.79 525.58,-125.95 545.76,-120.59"/>
<polygon fill="midnightblue" stroke="midnightblue" points="546.73,-123.96 555.5,-118.01 544.93,-117.19 546.73,-123.96"/>
</g>
<!-- Node20 -->
<g id="node20" class="node">
<title>Node20</title>
<g id="a_node20"><a xlink:href="$classJoyControlStickContextMenuHelper.html#adfdb19d552a70502449f88a5e0ad6a41" xlink:title=" ">
<polygon fill="white" stroke="black" points="540.5,-39 540.5,-69 685.5,-69 685.5,-39 540.5,-39"/>
<text text-anchor="start" x="548.5" y="-57" font-family="Helvetica,sans-Serif" font-size="10.00">JoyControlStickContextMenu</text>
<text text-anchor="middle" x="613" y="-46" font-family="Helvetica,sans-Serif" font-size="10.00">Helper::setPendingSlots</text>
</a>
</g>
</g>
<!-- Node17&#45;&gt;Node20 -->
<g id="edge22" class="edge">
<title>Node17&#45;&gt;Node20</title>
<path fill="none" stroke="midnightblue" d="M481.98,-136.91C488,-134.11 493.82,-130.83 499,-127 520.73,-110.93 513,-93.69 535,-78 537.09,-76.51 539.29,-75.1 541.55,-73.78"/>
<polygon fill="midnightblue" stroke="midnightblue" points="543.3,-76.82 550.57,-69.11 540.08,-70.6 543.3,-76.82"/>
</g>
</g>
</svg>
