<?xml version="1.0" encoding="UTF-8" standalone="no"?>
<!DOCTYPE svg PUBLIC "-//W3C//DTD SVG 1.1//EN"
 "http://www.w3.org/Graphics/SVG/1.1/DTD/svg11.dtd">
<!-- Generated by graphviz version 2.43.0 (0)
 -->
<!-- Title: JoyButton::setAssignmentChanged Pages: 1 -->
<svg width="1519pt" height="469pt"
 viewBox="0.00 0.00 1519.00 468.50" xmlns="http://www.w3.org/2000/svg" xmlns:xlink="http://www.w3.org/1999/xlink">
<g id="graph0" class="graph" transform="scale(1 1) rotate(0) translate(4 464.5)">
<title>JoyButton::setAssignmentChanged</title>
<polygon fill="white" stroke="transparent" points="-4,4 -4,-464.5 1515,-464.5 1515,4 -4,4"/>
<!-- Node1 -->
<g id="node1" class="node">
<title>Node1</title>
<g id="a_node1"><a xlink:title=" ">
<polygon fill="#bfbfbf" stroke="black" points="1379,-176 1379,-206 1511,-206 1511,-176 1379,-176"/>
<text text-anchor="start" x="1387" y="-194" font-family="Helvetica,sans-Serif" font-size="10.00">JoyButton::setAssignment</text>
<text text-anchor="middle" x="1445" y="-183" font-family="Helvetica,sans-Serif" font-size="10.00">Changed</text>
</a>
</g>
</g>
<!-- Node2 -->
<g id="node2" class="node">
<title>Node2</title>
<g id="a_node2"><a xlink:href="$classSetJoystick.html#a35a6e4800b346b637eba5a66345e73ee" xlink:title=" ">
<polygon fill="white" stroke="black" points="1193,-235 1193,-265 1323,-265 1323,-235 1193,-235"/>
<text text-anchor="start" x="1201" y="-253" font-family="Helvetica,sans-Serif" font-size="10.00">SetJoystick::enableButton</text>
<text text-anchor="middle" x="1258" y="-242" font-family="Helvetica,sans-Serif" font-size="10.00">Connections</text>
</a>
</g>
</g>
<!-- Node1&#45;&gt;Node2 -->
<g id="edge1" class="edge">
<title>Node1&#45;&gt;Node2</title>
<path fill="none" stroke="midnightblue" d="M1387.12,-209.14C1361.14,-217.42 1330.74,-227.12 1306.08,-234.99"/>
<polygon fill="midnightblue" stroke="midnightblue" points="1388.37,-212.41 1396.84,-206.04 1386.25,-205.74 1388.37,-212.41"/>
</g>
<!-- Node17 -->
<g id="node17" class="node">
<title>Node17</title>
<g id="a_node17"><a xlink:href="$classJoyButton.html#a451a0eaac9ee0a8804107a8b8c6659d1" xlink:title=" ">
<polygon fill="white" stroke="black" points="1173,-159.5 1173,-178.5 1343,-178.5 1343,-159.5 1173,-159.5"/>
<text text-anchor="middle" x="1258" y="-166.5" font-family="Helvetica,sans-Serif" font-size="10.00">JoyButton::setChangeSetCondition</text>
</a>
</g>
</g>
<!-- Node1&#45;&gt;Node17 -->
<g id="edge17" class="edge">
<title>Node1&#45;&gt;Node17</title>
<path fill="none" stroke="midnightblue" d="M1368.75,-182.05C1359.01,-180.89 1349.01,-179.7 1339.2,-178.54"/>
<polygon fill="midnightblue" stroke="midnightblue" points="1368.43,-185.54 1378.78,-183.24 1369.26,-178.59 1368.43,-185.54"/>
</g>
<!-- Node3 -->
<g id="node3" class="node">
<title>Node3</title>
<g id="a_node3"><a xlink:href="$classSetJoystick.html#ae963eb0bae6e55ff9308c2173cf94db7" xlink:title=" ">
<polygon fill="white" stroke="black" points="993.5,-298.5 993.5,-317.5 1130.5,-317.5 1130.5,-298.5 993.5,-298.5"/>
<text text-anchor="middle" x="1062" y="-305.5" font-family="Helvetica,sans-Serif" font-size="10.00">SetJoystick::refreshButtons</text>
</a>
</g>
</g>
<!-- Node2&#45;&gt;Node3 -->
<g id="edge2" class="edge">
<title>Node2&#45;&gt;Node3</title>
<path fill="none" stroke="midnightblue" d="M1197.04,-267.93C1163.38,-277.99 1122.71,-290.15 1095.06,-298.41"/>
<polygon fill="midnightblue" stroke="midnightblue" points="1198.21,-271.23 1206.79,-265.01 1196.2,-264.52 1198.21,-271.23"/>
</g>
<!-- Node4 -->
<g id="node4" class="node">
<title>Node4</title>
<g id="a_node4"><a xlink:href="$classSetJoystick.html#adc322b55002b149c9a7432d1008b8537" xlink:title=" ">
<polygon fill="white" stroke="black" points="817,-325.5 817,-344.5 912,-344.5 912,-325.5 817,-325.5"/>
<text text-anchor="middle" x="864.5" y="-332.5" font-family="Helvetica,sans-Serif" font-size="10.00">SetJoystick::reset</text>
</a>
</g>
</g>
<!-- Node3&#45;&gt;Node4 -->
<g id="edge3" class="edge">
<title>Node3&#45;&gt;Node4</title>
<path fill="none" stroke="midnightblue" d="M983.25,-318.74C959.17,-322.06 933.41,-325.62 912.13,-328.56"/>
<polygon fill="midnightblue" stroke="midnightblue" points="984.02,-322.16 993.45,-317.33 983.06,-315.23 984.02,-322.16"/>
</g>
<!-- Node5 -->
<g id="node5" class="node">
<title>Node5</title>
<g id="a_node5"><a xlink:href="$classInputDevice.html#af7b290c37a1bcae1fbd0f0274d6cf646" xlink:title=" ">
<polygon fill="white" stroke="black" points="614,-304.5 614,-323.5 711,-323.5 711,-304.5 614,-304.5"/>
<text text-anchor="middle" x="662.5" y="-311.5" font-family="Helvetica,sans-Serif" font-size="10.00">InputDevice::reset</text>
</a>
</g>
</g>
<!-- Node4&#45;&gt;Node5 -->
<g id="edge4" class="edge">
<title>Node4&#45;&gt;Node5</title>
<path fill="none" stroke="midnightblue" d="M806.9,-329.06C776.71,-325.89 739.98,-322.03 711.26,-319.01"/>
<polygon fill="midnightblue" stroke="midnightblue" points="806.55,-332.54 816.86,-330.1 807.28,-325.58 806.55,-332.54"/>
</g>
<!-- Node13 -->
<g id="node13" class="node">
<title>Node13</title>
<g id="a_node13"><a xlink:href="$classGameControllerSet.html#a40b9c9ac22d6fe71c15380dcbca7eb80" xlink:title=" ">
<polygon fill="white" stroke="black" points="609.5,-381 609.5,-411 715.5,-411 715.5,-381 609.5,-381"/>
<text text-anchor="start" x="617.5" y="-399" font-family="Helvetica,sans-Serif" font-size="10.00">GameControllerSet::</text>
<text text-anchor="middle" x="662.5" y="-388" font-family="Helvetica,sans-Serif" font-size="10.00">resetSticks</text>
</a>
</g>
</g>
<!-- Node4&#45;&gt;Node13 -->
<g id="edge13" class="edge">
<title>Node4&#45;&gt;Node13</title>
<path fill="none" stroke="midnightblue" d="M822.39,-347.54C790.61,-357.23 746.49,-370.69 712.81,-380.96"/>
<polygon fill="midnightblue" stroke="midnightblue" points="823.71,-350.8 832.25,-344.53 821.66,-344.1 823.71,-350.8"/>
</g>
<!-- Node16 -->
<g id="node16" class="node">
<title>Node16</title>
<g id="a_node16"><a xlink:href="$classSetJoystick.html#ab9d47383844cb2c08581352a6c02bdab" xlink:title=" ">
<polygon fill="white" stroke="black" points="600.5,-342.5 600.5,-361.5 724.5,-361.5 724.5,-342.5 600.5,-342.5"/>
<text text-anchor="middle" x="662.5" y="-349.5" font-family="Helvetica,sans-Serif" font-size="10.00">SetJoystick::SetJoystick</text>
</a>
</g>
</g>
<!-- Node4&#45;&gt;Node16 -->
<g id="edge16" class="edge">
<title>Node4&#45;&gt;Node16</title>
<path fill="none" stroke="midnightblue" d="M806.57,-339.84C780.98,-342.01 750.73,-344.59 724.65,-346.8"/>
<polygon fill="midnightblue" stroke="midnightblue" points="807.19,-343.3 816.86,-338.96 806.6,-336.32 807.19,-343.3"/>
</g>
<!-- Node6 -->
<g id="node6" class="node">
<title>Node6</title>
<g id="a_node6"><a xlink:href="$classInputDaemon.html#a70fa1dbeac61db6cc29a96cdc57a4518" xlink:title=" ">
<polygon fill="white" stroke="black" points="384.5,-342.5 384.5,-361.5 530.5,-361.5 530.5,-342.5 384.5,-342.5"/>
<text text-anchor="middle" x="457.5" y="-349.5" font-family="Helvetica,sans-Serif" font-size="10.00">InputDaemon::refreshJoystick</text>
</a>
</g>
</g>
<!-- Node5&#45;&gt;Node6 -->
<g id="edge5" class="edge">
<title>Node5&#45;&gt;Node6</title>
<path fill="none" stroke="midnightblue" d="M604.06,-324.75C574.24,-330.33 538.14,-337.09 509.34,-342.48"/>
<polygon fill="midnightblue" stroke="midnightblue" points="604.72,-328.19 613.91,-322.91 603.43,-321.31 604.72,-328.19"/>
</g>
<!-- Node7 -->
<g id="node7" class="node">
<title>Node7</title>
<g id="a_node7"><a xlink:href="$classInputDevice.html#a767b4db5d307c9d851affed3c7e23a30" xlink:title="Obtain current joystick element values, create new SetJoystick objects, and then transfer most recent...">
<polygon fill="white" stroke="black" points="390.5,-304.5 390.5,-323.5 524.5,-323.5 524.5,-304.5 390.5,-304.5"/>
<text text-anchor="middle" x="457.5" y="-311.5" font-family="Helvetica,sans-Serif" font-size="10.00">InputDevice::transferReset</text>
</a>
</g>
</g>
<!-- Node5&#45;&gt;Node7 -->
<g id="edge6" class="edge">
<title>Node5&#45;&gt;Node7</title>
<path fill="none" stroke="midnightblue" d="M603.63,-314C578.98,-314 550.1,-314 524.62,-314"/>
<polygon fill="midnightblue" stroke="midnightblue" points="603.91,-317.5 613.91,-314 603.91,-310.5 603.91,-317.5"/>
</g>
<!-- Node8 -->
<g id="node8" class="node">
<title>Node8</title>
<g id="a_node8"><a xlink:href="$classInputDeviceXml.html#a847bf9ed17b554bf87d513a1aebdcb64" xlink:title=" ">
<polygon fill="white" stroke="black" points="176,-392.5 176,-411.5 316,-411.5 316,-392.5 176,-392.5"/>
<text text-anchor="middle" x="246" y="-399.5" font-family="Helvetica,sans-Serif" font-size="10.00">InputDeviceXml::readConfig</text>
</a>
</g>
</g>
<!-- Node7&#45;&gt;Node8 -->
<g id="edge7" class="edge">
<title>Node7&#45;&gt;Node8</title>
<path fill="none" stroke="midnightblue" d="M380.74,-326.24C376.28,-328.18 372,-330.41 368,-333 345.31,-347.68 354.54,-367.1 332,-382 325.42,-386.35 318.01,-389.75 310.38,-392.42"/>
<polygon fill="midnightblue" stroke="midnightblue" points="381.99,-329.5 390.08,-322.66 379.49,-322.97 381.99,-329.5"/>
</g>
<!-- Node9 -->
<g id="node9" class="node">
<title>Node9</title>
<g id="a_node9"><a xlink:href="$classGameControllerXml.html#a7e47256cae0d3815419bc254413777d1" xlink:title=" ">
<polygon fill="white" stroke="black" points="8,-275 8,-305 116,-305 116,-275 8,-275"/>
<text text-anchor="start" x="16" y="-293" font-family="Helvetica,sans-Serif" font-size="10.00">GameControllerXml::</text>
<text text-anchor="middle" x="62" y="-282" font-family="Helvetica,sans-Serif" font-size="10.00">readConfig</text>
</a>
</g>
</g>
<!-- Node7&#45;&gt;Node9 -->
<g id="edge8" class="edge">
<title>Node7&#45;&gt;Node9</title>
<path fill="none" stroke="midnightblue" d="M379.99,-309.33C302.39,-304.6 184.3,-297.4 116.3,-293.25"/>
<polygon fill="midnightblue" stroke="midnightblue" points="380,-312.84 390.19,-309.96 380.42,-305.85 380,-312.84"/>
</g>
<!-- Node10 -->
<g id="node10" class="node">
<title>Node10</title>
<g id="a_node10"><a xlink:href="$classGameControllerXml.html#aaa5257d4c6fe13f1d5fc51981e247c25" xlink:title=" ">
<polygon fill="white" stroke="black" points="192,-255 192,-285 300,-285 300,-255 192,-255"/>
<text text-anchor="start" x="200" y="-273" font-family="Helvetica,sans-Serif" font-size="10.00">GameControllerXml::</text>
<text text-anchor="middle" x="246" y="-262" font-family="Helvetica,sans-Serif" font-size="10.00">readJoystickConfig</text>
</a>
</g>
</g>
<!-- Node7&#45;&gt;Node10 -->
<g id="edge9" class="edge">
<title>Node7&#45;&gt;Node10</title>
<path fill="none" stroke="midnightblue" d="M401.18,-302.38C369.92,-295.82 331.04,-287.65 300.14,-281.16"/>
<polygon fill="midnightblue" stroke="midnightblue" points="400.54,-305.82 411.04,-304.45 401.97,-298.97 400.54,-305.82"/>
</g>
<!-- Node11 -->
<g id="node11" class="node">
<title>Node11</title>
<g id="a_node11"><a xlink:href="$classJoyTabWidgetHelper.html#aef94ae0812f28f43eb891ddc210c341e" xlink:title=" ">
<polygon fill="white" stroke="black" points="192.5,-343 192.5,-373 299.5,-373 299.5,-343 192.5,-343"/>
<text text-anchor="start" x="200.5" y="-361" font-family="Helvetica,sans-Serif" font-size="10.00">JoyTabWidgetHelper</text>
<text text-anchor="middle" x="246" y="-350" font-family="Helvetica,sans-Serif" font-size="10.00">::reInitDevice</text>
</a>
</g>
</g>
<!-- Node7&#45;&gt;Node11 -->
<g id="edge11" class="edge">
<title>Node7&#45;&gt;Node11</title>
<path fill="none" stroke="midnightblue" d="M401.14,-325.63C369.76,-332.22 330.71,-340.42 299.76,-346.92"/>
<polygon fill="midnightblue" stroke="midnightblue" points="401.97,-329.03 411.04,-323.55 400.54,-322.18 401.97,-329.03"/>
</g>
<!-- Node10&#45;&gt;Node9 -->
<g id="edge10" class="edge">
<title>Node10&#45;&gt;Node9</title>
<path fill="none" stroke="midnightblue" d="M181.89,-276.94C160.47,-279.29 136.76,-281.89 116.2,-284.15"/>
<polygon fill="midnightblue" stroke="midnightblue" points="182.31,-280.41 191.87,-275.84 181.55,-273.45 182.31,-280.41"/>
</g>
<!-- Node12 -->
<g id="node12" class="node">
<title>Node12</title>
<g id="a_node12"><a xlink:href="$classJoyTabWidgetHelper.html#acc5d7d51e925f84f9aa2936ce267f843" xlink:title=" ">
<polygon fill="white" stroke="black" points="0,-343 0,-373 124,-373 124,-343 0,-343"/>
<text text-anchor="start" x="8" y="-361" font-family="Helvetica,sans-Serif" font-size="10.00">JoyTabWidgetHelper</text>
<text text-anchor="middle" x="62" y="-350" font-family="Helvetica,sans-Serif" font-size="10.00">::reInitDeviceWithRevert</text>
</a>
</g>
</g>
<!-- Node11&#45;&gt;Node12 -->
<g id="edge12" class="edge">
<title>Node11&#45;&gt;Node12</title>
<path fill="none" stroke="midnightblue" d="M182.14,-358C163.38,-358 142.84,-358 124.19,-358"/>
<polygon fill="midnightblue" stroke="midnightblue" points="182.36,-361.5 192.36,-358 182.36,-354.5 182.36,-361.5"/>
</g>
<!-- Node14 -->
<g id="node14" class="node">
<title>Node14</title>
<g id="a_node14"><a xlink:href="$classGameControllerSet.html#a9d686fa2df459f7d157d60e05707f712" xlink:title=" ">
<polygon fill="white" stroke="black" points="404.5,-430 404.5,-460 510.5,-460 510.5,-430 404.5,-430"/>
<text text-anchor="start" x="412.5" y="-448" font-family="Helvetica,sans-Serif" font-size="10.00">GameControllerSet::</text>
<text text-anchor="middle" x="457.5" y="-437" font-family="Helvetica,sans-Serif" font-size="10.00">GameControllerSet</text>
</a>
</g>
</g>
<!-- Node13&#45;&gt;Node14 -->
<g id="edge14" class="edge">
<title>Node13&#45;&gt;Node14</title>
<path fill="none" stroke="midnightblue" d="M599.65,-410.93C571.23,-417.79 537.88,-425.84 510.73,-432.39"/>
<polygon fill="midnightblue" stroke="midnightblue" points="600.59,-414.3 609.49,-408.56 598.94,-407.5 600.59,-414.3"/>
</g>
<!-- Node15 -->
<g id="node15" class="node">
<title>Node15</title>
<g id="a_node15"><a xlink:href="$classGameControllerSet.html#a69d798af242a07017bc0f2e2d0d8a830" xlink:title=" ">
<polygon fill="white" stroke="black" points="404.5,-381 404.5,-411 510.5,-411 510.5,-381 404.5,-381"/>
<text text-anchor="start" x="412.5" y="-399" font-family="Helvetica,sans-Serif" font-size="10.00">GameControllerSet::</text>
<text text-anchor="middle" x="457.5" y="-388" font-family="Helvetica,sans-Serif" font-size="10.00">reset</text>
</a>
</g>
</g>
<!-- Node13&#45;&gt;Node15 -->
<g id="edge15" class="edge">
<title>Node13&#45;&gt;Node15</title>
<path fill="none" stroke="midnightblue" d="M599.28,-396C570.94,-396 537.76,-396 510.73,-396"/>
<polygon fill="midnightblue" stroke="midnightblue" points="599.49,-399.5 609.49,-396 599.49,-392.5 599.49,-399.5"/>
</g>
<!-- Node18 -->
<g id="node18" class="node">
<title>Node18</title>
<g id="a_node18"><a xlink:href="$classInputDevice.html#adfaa12cfd6363502a049a8bb32b1e992" xlink:title=" ">
<polygon fill="white" stroke="black" points="987,-32 987,-62 1137,-62 1137,-32 987,-32"/>
<text text-anchor="start" x="995" y="-50" font-family="Helvetica,sans-Serif" font-size="10.00">InputDevice::changeSetButton</text>
<text text-anchor="middle" x="1062" y="-39" font-family="Helvetica,sans-Serif" font-size="10.00">Association</text>
</a>
</g>
</g>
<!-- Node17&#45;&gt;Node18 -->
<g id="edge18" class="edge">
<title>Node17&#45;&gt;Node18</title>
<path fill="none" stroke="midnightblue" d="M1240.48,-152.05C1218.61,-130.49 1178.01,-93.36 1137,-71 1130.83,-67.64 1124.12,-64.65 1117.33,-62.03"/>
<polygon fill="midnightblue" stroke="midnightblue" points="1238.11,-154.63 1247.65,-159.24 1243.06,-149.69 1238.11,-154.63"/>
</g>
<!-- Node22 -->
<g id="node22" class="node">
<title>Node22</title>
<g id="a_node22"><a xlink:href="$classJoyButtonContextMenu.html#af87e510b98bc2c294281e7de7507c956" xlink:title=" ">
<polygon fill="white" stroke="black" points="1002.5,-130 1002.5,-160 1121.5,-160 1121.5,-130 1002.5,-130"/>
<text text-anchor="start" x="1010.5" y="-148" font-family="Helvetica,sans-Serif" font-size="10.00">JoyButtonContextMenu</text>
<text text-anchor="middle" x="1062" y="-137" font-family="Helvetica,sans-Serif" font-size="10.00">::disableSetMode</text>
</a>
</g>
</g>
<!-- Node17&#45;&gt;Node22 -->
<g id="edge22" class="edge">
<title>Node17&#45;&gt;Node22</title>
<path fill="none" stroke="midnightblue" d="M1169.93,-158.23C1153.57,-156.2 1136.83,-154.13 1121.6,-152.25"/>
<polygon fill="midnightblue" stroke="midnightblue" points="1169.69,-161.73 1180.05,-159.48 1170.55,-154.78 1169.69,-161.73"/>
</g>
<!-- Node28 -->
<g id="node28" class="node">
<title>Node28</title>
<g id="a_node28"><a xlink:href="$classJoyButtonXml.html#a9d7b2a6324a2f8fe4f424f78aa43d261" xlink:title=" ">
<polygon fill="white" stroke="black" points="996.5,-179 996.5,-209 1127.5,-209 1127.5,-179 996.5,-179"/>
<text text-anchor="start" x="1004.5" y="-197" font-family="Helvetica,sans-Serif" font-size="10.00">JoyButtonXml::readButton</text>
<text text-anchor="middle" x="1062" y="-186" font-family="Helvetica,sans-Serif" font-size="10.00">Config</text>
</a>
</g>
</g>
<!-- Node17&#45;&gt;Node28 -->
<g id="edge28" class="edge">
<title>Node17&#45;&gt;Node28</title>
<path fill="none" stroke="midnightblue" d="M1172.76,-179.86C1157.7,-181.8 1142.22,-183.79 1127.81,-185.65"/>
<polygon fill="midnightblue" stroke="midnightblue" points="1173.63,-183.27 1183.1,-178.52 1172.74,-176.33 1173.63,-183.27"/>
</g>
<!-- Node36 -->
<g id="node36" class="node">
<title>Node36</title>
<g id="a_node36"><a xlink:href="$classJoyButtonContextMenu.html#ad163e6b82faaf5467255ba1ffcbe003d" xlink:title=" ">
<polygon fill="white" stroke="black" points="1002.5,-81 1002.5,-111 1121.5,-111 1121.5,-81 1002.5,-81"/>
<text text-anchor="start" x="1010.5" y="-99" font-family="Helvetica,sans-Serif" font-size="10.00">JoyButtonContextMenu</text>
<text text-anchor="middle" x="1062" y="-88" font-family="Helvetica,sans-Serif" font-size="10.00">::switchSetMode</text>
</a>
</g>
</g>
<!-- Node17&#45;&gt;Node36 -->
<g id="edge38" class="edge">
<title>Node17&#45;&gt;Node36</title>
<path fill="none" stroke="midnightblue" d="M1225.74,-155.49C1201.66,-145.27 1167.46,-131.14 1137,-120 1128.76,-116.98 1119.93,-113.95 1111.34,-111.11"/>
<polygon fill="midnightblue" stroke="midnightblue" points="1224.5,-158.77 1235.07,-159.48 1227.25,-152.33 1224.5,-158.77"/>
</g>
<!-- Node38 -->
<g id="node38" class="node">
<title>Node38</title>
<g id="a_node38"><a xlink:href="$classAdvanceButtonDialog.html#aa9ce9cbd457fb41cbea00da74c01334b" xlink:title=" ">
<polygon fill="white" stroke="black" points="1007,-242 1007,-272 1117,-272 1117,-242 1007,-242"/>
<text text-anchor="start" x="1015" y="-260" font-family="Helvetica,sans-Serif" font-size="10.00">AdvanceButtonDialog</text>
<text text-anchor="middle" x="1062" y="-249" font-family="Helvetica,sans-Serif" font-size="10.00">::updateSetSelection</text>
</a>
</g>
</g>
<!-- Node17&#45;&gt;Node38 -->
<g id="edge41" class="edge">
<title>Node17&#45;&gt;Node38</title>
<path fill="none" stroke="midnightblue" d="M1226.53,-182.82C1191.16,-198.87 1133,-225.25 1096.41,-241.84"/>
<polygon fill="midnightblue" stroke="midnightblue" points="1228.21,-185.9 1235.87,-178.59 1225.32,-179.53 1228.21,-185.9"/>
</g>
<!-- Node19 -->
<g id="node19" class="node">
<title>Node19</title>
<g id="a_node19"><a xlink:href="$classInputDevice.html#a6ffcebba103a7db02e82c1c7f62387bf" xlink:title=" ">
<polygon fill="white" stroke="black" points="778,-37.5 778,-56.5 951,-56.5 951,-37.5 778,-37.5"/>
<text text-anchor="middle" x="864.5" y="-44.5" font-family="Helvetica,sans-Serif" font-size="10.00">InputDevice::enableSetConnections</text>
</a>
</g>
</g>
<!-- Node18&#45;&gt;Node19 -->
<g id="edge19" class="edge">
<title>Node18&#45;&gt;Node19</title>
<path fill="none" stroke="midnightblue" d="M976.59,-47C968.15,-47 959.56,-47 951.1,-47"/>
<polygon fill="midnightblue" stroke="midnightblue" points="976.81,-50.5 986.81,-47 976.81,-43.5 976.81,-50.5"/>
</g>
<!-- Node20 -->
<g id="node20" class="node">
<title>Node20</title>
<g id="a_node20"><a xlink:href="$classGameController.html#afcddb9dcc5442a9746c3ff8760ea1791" xlink:title=" ">
<polygon fill="white" stroke="black" points="583,-0.5 583,-19.5 742,-19.5 742,-0.5 583,-0.5"/>
<text text-anchor="middle" x="662.5" y="-7.5" font-family="Helvetica,sans-Serif" font-size="10.00">GameController::GameController</text>
</a>
</g>
</g>
<!-- Node19&#45;&gt;Node20 -->
<g id="edge20" class="edge">
<title>Node19&#45;&gt;Node20</title>
<path fill="none" stroke="midnightblue" d="M801.98,-35.62C774.18,-30.48 741.7,-24.47 715.18,-19.56"/>
<polygon fill="midnightblue" stroke="midnightblue" points="801.53,-39.09 812,-37.47 802.8,-32.21 801.53,-39.09"/>
</g>
<!-- Node21 -->
<g id="node21" class="node">
<title>Node21</title>
<g id="a_node21"><a xlink:href="$classJoystick.html#a9df5e53506876f3c95e84bdf6c9cbaf1" xlink:title=" ">
<polygon fill="white" stroke="black" points="615.5,-38.5 615.5,-57.5 709.5,-57.5 709.5,-38.5 615.5,-38.5"/>
<text text-anchor="middle" x="662.5" y="-45.5" font-family="Helvetica,sans-Serif" font-size="10.00">Joystick::Joystick</text>
</a>
</g>
</g>
<!-- Node19&#45;&gt;Node21 -->
<g id="edge21" class="edge">
<title>Node19&#45;&gt;Node21</title>
<path fill="none" stroke="midnightblue" d="M767.6,-47.48C747.39,-47.58 726.95,-47.68 709.6,-47.77"/>
<polygon fill="midnightblue" stroke="midnightblue" points="767.83,-50.98 777.81,-47.43 767.79,-43.98 767.83,-50.98"/>
</g>
<!-- Node23 -->
<g id="node23" class="node">
<title>Node23</title>
<g id="a_node23"><a xlink:href="$classJoyButtonContextMenu.html#a6d0d9eb23e12fc8291d419ec0599971e" xlink:title=" ">
<polygon fill="white" stroke="black" points="603,-79 603,-109 722,-109 722,-79 603,-79"/>
<text text-anchor="start" x="611" y="-97" font-family="Helvetica,sans-Serif" font-size="10.00">JoyButtonContextMenu</text>
<text text-anchor="middle" x="662.5" y="-86" font-family="Helvetica,sans-Serif" font-size="10.00">::buildMenu</text>
</a>
</g>
</g>
<!-- Node22&#45;&gt;Node23 -->
<g id="edge23" class="edge">
<title>Node22&#45;&gt;Node23</title>
<path fill="none" stroke="midnightblue" d="M992.42,-141.08C934.93,-137.22 850.79,-130.25 778,-119 759.7,-116.17 739.94,-112.2 722.08,-108.25"/>
<polygon fill="midnightblue" stroke="midnightblue" points="992.27,-144.57 1002.48,-141.74 992.73,-137.59 992.27,-144.57"/>
</g>
<!-- Node24 -->
<g id="node24" class="node">
<title>Node24</title>
<g id="a_node24"><a xlink:href="$classJoyButtonWidget.html#a681d3c384a94a2febb23b1f733cfcbaf" xlink:title=" ">
<polygon fill="white" stroke="black" points="368,-106.5 368,-125.5 547,-125.5 547,-106.5 368,-106.5"/>
<text text-anchor="middle" x="457.5" y="-113.5" font-family="Helvetica,sans-Serif" font-size="10.00">JoyButtonWidget::showContextMenu</text>
</a>
</g>
</g>
<!-- Node23&#45;&gt;Node24 -->
<g id="edge24" class="edge">
<title>Node23&#45;&gt;Node24</title>
<path fill="none" stroke="midnightblue" d="M592.63,-101.46C577.7,-103.08 561.71,-104.81 546.17,-106.5"/>
<polygon fill="midnightblue" stroke="midnightblue" points="593.22,-104.92 602.78,-100.36 592.47,-97.96 593.22,-104.92"/>
</g>
<!-- Node26 -->
<g id="node26" class="node">
<title>Node26</title>
<g id="a_node26"><a xlink:href="$classJoyControlStickButtonPushButton.html#abde61056729a9ef096bc23ff81129ab6" xlink:title=" ">
<polygon fill="white" stroke="black" points="389,-54 389,-84 526,-84 526,-54 389,-54"/>
<text text-anchor="start" x="397" y="-72" font-family="Helvetica,sans-Serif" font-size="10.00">JoyControlStickButtonPush</text>
<text text-anchor="middle" x="457.5" y="-61" font-family="Helvetica,sans-Serif" font-size="10.00">Button::showContextMenu</text>
</a>
</g>
</g>
<!-- Node23&#45;&gt;Node26 -->
<g id="edge26" class="edge">
<title>Node23&#45;&gt;Node26</title>
<path fill="none" stroke="midnightblue" d="M592.74,-85.53C571.2,-82.88 547.47,-79.96 526.02,-77.32"/>
<polygon fill="midnightblue" stroke="midnightblue" points="592.43,-89.02 602.78,-86.77 593.29,-82.07 592.43,-89.02"/>
</g>
<!-- Node25 -->
<g id="node25" class="node">
<title>Node25</title>
<g id="a_node25"><a xlink:href="$classJoyButtonWidget.html#aeeb6cb187733cbf7c9f1c5a0fe8f7b34" xlink:title=" ">
<polygon fill="white" stroke="black" points="175,-104 175,-134 317,-134 317,-104 175,-104"/>
<text text-anchor="start" x="183" y="-122" font-family="Helvetica,sans-Serif" font-size="10.00">JoyButtonWidget::JoyButton</text>
<text text-anchor="middle" x="246" y="-111" font-family="Helvetica,sans-Serif" font-size="10.00">Widget</text>
</a>
</g>
</g>
<!-- Node24&#45;&gt;Node25 -->
<g id="edge25" class="edge">
<title>Node24&#45;&gt;Node25</title>
<path fill="none" stroke="midnightblue" d="M357.56,-117.42C343.9,-117.61 330.12,-117.81 317.13,-118"/>
<polygon fill="midnightblue" stroke="midnightblue" points="358.01,-120.91 367.96,-117.27 357.91,-113.91 358.01,-120.91"/>
</g>
<!-- Node27 -->
<g id="node27" class="node">
<title>Node27</title>
<g id="a_node27"><a xlink:href="$classJoyControlStickButtonPushButton.html#a5542b1bc905c0a35639b4731083852fa" xlink:title=" ">
<polygon fill="white" stroke="black" points="160,-43.5 160,-84.5 332,-84.5 332,-43.5 160,-43.5"/>
<text text-anchor="start" x="168" y="-72.5" font-family="Helvetica,sans-Serif" font-size="10.00">JoyControlStickButtonPush</text>
<text text-anchor="start" x="168" y="-61.5" font-family="Helvetica,sans-Serif" font-size="10.00">Button::JoyControlStickButtonPush</text>
<text text-anchor="middle" x="246" y="-50.5" font-family="Helvetica,sans-Serif" font-size="10.00">Button</text>
</a>
</g>
</g>
<!-- Node26&#45;&gt;Node27 -->
<g id="edge27" class="edge">
<title>Node26&#45;&gt;Node27</title>
<path fill="none" stroke="midnightblue" d="M378.46,-67.14C363.35,-66.78 347.45,-66.4 332.13,-66.03"/>
<polygon fill="midnightblue" stroke="midnightblue" points="378.69,-70.64 388.77,-67.38 378.86,-63.65 378.69,-70.64"/>
</g>
<!-- Node29 -->
<g id="node29" class="node">
<title>Node29</title>
<g id="a_node29"><a xlink:href="$classJoyButtonXml.html#a9d79d75b14b57419ed1fc5639dde8515" xlink:title=" ">
<polygon fill="white" stroke="black" points="799,-172.5 799,-191.5 930,-191.5 930,-172.5 799,-172.5"/>
<text text-anchor="middle" x="864.5" y="-179.5" font-family="Helvetica,sans-Serif" font-size="10.00">JoyButtonXml::readConfig</text>
</a>
</g>
</g>
<!-- Node28&#45;&gt;Node29 -->
<g id="edge29" class="edge">
<title>Node28&#45;&gt;Node29</title>
<path fill="none" stroke="midnightblue" d="M986.33,-189.42C967.88,-188.28 948.26,-187.08 930.32,-185.98"/>
<polygon fill="midnightblue" stroke="midnightblue" points="986.25,-192.92 996.44,-190.04 986.68,-185.93 986.25,-192.92"/>
</g>
<!-- Node33 -->
<g id="node33" class="node">
<title>Node33</title>
<g id="a_node33"><a xlink:href="$classGameControllerTriggerButton.html#a1c89ef4d420dfe360817c28bc1680c93" xlink:title=" ">
<polygon fill="white" stroke="black" points="793,-211 793,-241 936,-241 936,-211 793,-211"/>
<text text-anchor="start" x="801" y="-229" font-family="Helvetica,sans-Serif" font-size="10.00">GameControllerTriggerButton</text>
<text text-anchor="middle" x="864.5" y="-218" font-family="Helvetica,sans-Serif" font-size="10.00">::readJoystickConfig</text>
</a>
</g>
</g>
<!-- Node28&#45;&gt;Node33 -->
<g id="edge34" class="edge">
<title>Node28&#45;&gt;Node33</title>
<path fill="none" stroke="midnightblue" d="M986.31,-206.23C969.81,-208.93 952.38,-211.78 936.05,-214.45"/>
<polygon fill="midnightblue" stroke="midnightblue" points="987.14,-209.64 996.44,-204.57 986.01,-202.73 987.14,-209.64"/>
</g>
<!-- Node30 -->
<g id="node30" class="node">
<title>Node30</title>
<g id="a_node30"><a xlink:href="$classSetJoystickXml.html#aa95423a01fab878cbc69bffb7f6121f3" xlink:title=" ">
<polygon fill="white" stroke="black" points="388.5,-194.5 388.5,-213.5 526.5,-213.5 526.5,-194.5 388.5,-194.5"/>
<text text-anchor="middle" x="457.5" y="-201.5" font-family="Helvetica,sans-Serif" font-size="10.00">SetJoystickXml::readConfig</text>
</a>
</g>
</g>
<!-- Node29&#45;&gt;Node30 -->
<g id="edge30" class="edge">
<title>Node29&#45;&gt;Node30</title>
<path fill="none" stroke="midnightblue" d="M816.48,-170.16C760.47,-157.81 664.28,-142.17 583,-157 543.91,-164.13 501.14,-182.9 477.29,-194.44"/>
<polygon fill="midnightblue" stroke="midnightblue" points="815.93,-173.62 826.45,-172.42 817.47,-166.79 815.93,-173.62"/>
</g>
<!-- Node31 -->
<g id="node31" class="node">
<title>Node31</title>
<g id="a_node31"><a xlink:href="$classJoyControlStick.html#ab6ce741115ee3d436c1a7e866abd21e6" xlink:title="Take a XML stream and set the stick and direction button properties according to the values contained...">
<polygon fill="white" stroke="black" points="593,-216.5 593,-235.5 732,-235.5 732,-216.5 593,-216.5"/>
<text text-anchor="middle" x="662.5" y="-223.5" font-family="Helvetica,sans-Serif" font-size="10.00">JoyControlStick::readConfig</text>
</a>
</g>
</g>
<!-- Node29&#45;&gt;Node31 -->
<g id="edge31" class="edge">
<title>Node29&#45;&gt;Node31</title>
<path fill="none" stroke="midnightblue" d="M809.94,-193.78C777.65,-200.89 737.06,-209.82 706.81,-216.47"/>
<polygon fill="midnightblue" stroke="midnightblue" points="811.09,-197.11 820.1,-191.55 809.58,-190.28 811.09,-197.11"/>
</g>
<!-- Node32 -->
<g id="node32" class="node">
<title>Node32</title>
<g id="a_node32"><a xlink:href="$classJoyDPadXml.html#ae9a3556242b984c81fc6945acafc5586" xlink:title=" ">
<polygon fill="white" stroke="black" points="586.5,-167 586.5,-197 738.5,-197 738.5,-167 586.5,-167"/>
<text text-anchor="start" x="594.5" y="-185" font-family="Helvetica,sans-Serif" font-size="10.00">JoyDPadXml&lt; GameController</text>
<text text-anchor="middle" x="662.5" y="-174" font-family="Helvetica,sans-Serif" font-size="10.00">DPad &gt;::readMainConfig</text>
</a>
</g>
</g>
<!-- Node29&#45;&gt;Node32 -->
<g id="edge33" class="edge">
<title>Node29&#45;&gt;Node32</title>
<path fill="none" stroke="midnightblue" d="M788.8,-182C772.43,-182 755.11,-182 738.72,-182"/>
<polygon fill="midnightblue" stroke="midnightblue" points="788.84,-185.5 798.84,-182 788.84,-178.5 788.84,-185.5"/>
</g>
<!-- Node31&#45;&gt;Node30 -->
<g id="edge32" class="edge">
<title>Node31&#45;&gt;Node30</title>
<path fill="none" stroke="midnightblue" d="M582.66,-217.46C564.22,-215.46 544.74,-213.35 526.81,-211.4"/>
<polygon fill="midnightblue" stroke="midnightblue" points="582.45,-220.95 592.77,-218.55 583.21,-213.99 582.45,-220.95"/>
</g>
<!-- Node34 -->
<g id="node34" class="node">
<title>Node34</title>
<g id="a_node34"><a xlink:href="$classGameControllerTriggerXml.html#a4578ad54daf8a24231e8b0e4e09f1587" xlink:title=" ">
<polygon fill="white" stroke="black" points="597,-255 597,-285 728,-285 728,-255 597,-255"/>
<text text-anchor="start" x="605" y="-273" font-family="Helvetica,sans-Serif" font-size="10.00">GameControllerTriggerXml</text>
<text text-anchor="middle" x="662.5" y="-262" font-family="Helvetica,sans-Serif" font-size="10.00">::readJoystickConfig</text>
</a>
</g>
</g>
<!-- Node33&#45;&gt;Node34 -->
<g id="edge35" class="edge">
<title>Node33&#45;&gt;Node34</title>
<path fill="none" stroke="midnightblue" d="M785.42,-243.18C766.45,-247.35 746.36,-251.77 728.09,-255.79"/>
<polygon fill="midnightblue" stroke="midnightblue" points="786.22,-246.59 795.23,-241.02 784.71,-239.75 786.22,-246.59"/>
</g>
<!-- Node35 -->
<g id="node35" class="node">
<title>Node35</title>
<g id="a_node35"><a xlink:href="$classGameControllerSet.html#a6b551139e353a654212d498309744025" xlink:title=" ">
<polygon fill="white" stroke="black" points="404.5,-255 404.5,-285 510.5,-285 510.5,-255 404.5,-255"/>
<text text-anchor="start" x="412.5" y="-273" font-family="Helvetica,sans-Serif" font-size="10.00">GameControllerSet::</text>
<text text-anchor="middle" x="457.5" y="-262" font-family="Helvetica,sans-Serif" font-size="10.00">readJoystickConfig</text>
</a>
</g>
</g>
<!-- Node34&#45;&gt;Node35 -->
<g id="edge36" class="edge">
<title>Node34&#45;&gt;Node35</title>
<path fill="none" stroke="midnightblue" d="M586.7,-270C561.42,-270 533.77,-270 510.64,-270"/>
<polygon fill="midnightblue" stroke="midnightblue" points="586.99,-273.5 596.99,-270 586.99,-266.5 586.99,-273.5"/>
</g>
<!-- Node35&#45;&gt;Node10 -->
<g id="edge37" class="edge">
<title>Node35&#45;&gt;Node10</title>
<path fill="none" stroke="midnightblue" d="M394.13,-270C364.25,-270 328.84,-270 300.25,-270"/>
<polygon fill="midnightblue" stroke="midnightblue" points="394.44,-273.5 404.44,-270 394.44,-266.5 394.44,-273.5"/>
</g>
<!-- Node37 -->
<g id="node37" class="node">
<title>Node37</title>
<g id="a_node37"><a xlink:href="$classJoyButtonContextMenu.html#a4fdfe771c441058419ab8dcdc0a17574" xlink:title=" ">
<polygon fill="white" stroke="black" points="805,-80 805,-110 924,-110 924,-80 805,-80"/>
<text text-anchor="start" x="813" y="-98" font-family="Helvetica,sans-Serif" font-size="10.00">JoyButtonContextMenu</text>
<text text-anchor="middle" x="864.5" y="-87" font-family="Helvetica,sans-Serif" font-size="10.00">::createActionForGroup</text>
</a>
</g>
</g>
<!-- Node36&#45;&gt;Node37 -->
<g id="edge39" class="edge">
<title>Node36&#45;&gt;Node37</title>
<path fill="none" stroke="midnightblue" d="M992.29,-95.65C970.03,-95.53 945.57,-95.41 924.12,-95.3"/>
<polygon fill="midnightblue" stroke="midnightblue" points="992.33,-99.15 1002.34,-95.7 992.36,-92.15 992.33,-99.15"/>
</g>
<!-- Node37&#45;&gt;Node23 -->
<g id="edge40" class="edge">
<title>Node37&#45;&gt;Node23</title>
<path fill="none" stroke="midnightblue" d="M794.56,-94.66C770.98,-94.54 744.85,-94.41 722.15,-94.29"/>
<polygon fill="midnightblue" stroke="midnightblue" points="794.83,-98.16 804.84,-94.71 794.86,-91.16 794.83,-98.16"/>
</g>
<!-- Node39 -->
<g id="node39" class="node">
<title>Node39</title>
<g id="a_node39"><a xlink:href="$classAdvanceButtonDialog.html#a4f9a1a007f50de1c3cca1403d08a0790" xlink:title=" ">
<polygon fill="white" stroke="black" points="806.5,-260 806.5,-290 922.5,-290 922.5,-260 806.5,-260"/>
<text text-anchor="start" x="814.5" y="-278" font-family="Helvetica,sans-Serif" font-size="10.00">AdvanceButtonDialog</text>
<text text-anchor="middle" x="864.5" y="-267" font-family="Helvetica,sans-Serif" font-size="10.00">::AdvanceButtonDialog</text>
</a>
</g>
</g>
<!-- Node38&#45;&gt;Node39 -->
<g id="edge42" class="edge">
<title>Node38&#45;&gt;Node39</title>
<path fill="none" stroke="midnightblue" d="M996.74,-262.92C972.79,-265.12 945.79,-267.61 922.54,-269.75"/>
<polygon fill="midnightblue" stroke="midnightblue" points="997.17,-266.39 1006.8,-261.99 996.52,-259.42 997.17,-266.39"/>
</g>
</g>
</svg>
