<?xml version="1.0" encoding="UTF-8" standalone="no"?>
<!DOCTYPE svg PUBLIC "-//W3C//DTD SVG 1.1//EN"
 "http://www.w3.org/Graphics/SVG/1.1/DTD/svg11.dtd">
<!-- Generated by graphviz version 2.43.0 (0)
 -->
<!-- Title: GameControllerSet::readConfig Pages: 1 -->
<svg width="586pt" height="180pt"
 viewBox="0.00 0.00 586.00 180.00" xmlns="http://www.w3.org/2000/svg" xmlns:xlink="http://www.w3.org/1999/xlink">
<g id="graph0" class="graph" transform="scale(1 1) rotate(0) translate(4 176)">
<title>GameControllerSet::readConfig</title>
<polygon fill="white" stroke="transparent" points="-4,4 -4,-176 582,-176 582,4 -4,4"/>
<!-- Node1 -->
<g id="node1" class="node">
<title>Node1</title>
<g id="a_node1"><a xlink:title=" ">
<polygon fill="#bfbfbf" stroke="black" points="0,-49 0,-79 106,-79 106,-49 0,-49"/>
<text text-anchor="start" x="8" y="-67" font-family="Helvetica,sans-Serif" font-size="10.00">GameControllerSet::</text>
<text text-anchor="middle" x="53" y="-56" font-family="Helvetica,sans-Serif" font-size="10.00">readConfig</text>
</a>
</g>
</g>
<!-- Node2 -->
<g id="node2" class="node">
<title>Node2</title>
<g id="a_node2"><a xlink:href="$classGameControllerSet.html#a61ba9987e5c3e43db2713d48daa4984f" xlink:title=" ">
<polygon fill="white" stroke="black" points="145.5,-71 145.5,-101 251.5,-101 251.5,-71 145.5,-71"/>
<text text-anchor="start" x="153.5" y="-89" font-family="Helvetica,sans-Serif" font-size="10.00">GameControllerSet::</text>
<text text-anchor="middle" x="198.5" y="-78" font-family="Helvetica,sans-Serif" font-size="10.00">getElemFromXml</text>
</a>
</g>
</g>
<!-- Node1&#45;&gt;Node2 -->
<g id="edge1" class="edge">
<title>Node1&#45;&gt;Node2</title>
<path fill="none" stroke="midnightblue" d="M106.21,-72C115.61,-73.45 125.49,-74.96 135.14,-76.44"/>
<polygon fill="midnightblue" stroke="midnightblue" points="134.67,-79.91 145.09,-77.96 135.73,-72.99 134.67,-79.91"/>
</g>
<!-- Node11 -->
<g id="node11" class="node">
<title>Node11</title>
<g id="a_node11"><a xlink:href="$classSetJoystick.html#ab34fbf5679a1d7e50368a40c0dd8d6e1" xlink:title=" ">
<polygon fill="white" stroke="black" points="142,-32.5 142,-51.5 255,-51.5 255,-32.5 142,-32.5"/>
<text text-anchor="middle" x="198.5" y="-39.5" font-family="Helvetica,sans-Serif" font-size="10.00">SetJoystick::setName</text>
</a>
</g>
</g>
<!-- Node1&#45;&gt;Node11 -->
<g id="edge10" class="edge">
<title>Node1&#45;&gt;Node11</title>
<path fill="none" stroke="midnightblue" d="M106.21,-56C114.51,-54.72 123.18,-53.39 131.74,-52.08"/>
<polygon fill="midnightblue" stroke="midnightblue" points="132.34,-55.53 141.7,-50.55 131.28,-48.61 132.34,-55.53"/>
</g>
<!-- Node3 -->
<g id="node3" class="node">
<title>Node3</title>
<g id="a_node3"><a xlink:href="$classSetJoystick.html#a7c8f524fe045b89901ba945c5e1045cf" xlink:title=" ">
<polygon fill="white" stroke="black" points="295.5,-152.5 295.5,-171.5 417.5,-171.5 417.5,-152.5 295.5,-152.5"/>
<text text-anchor="middle" x="356.5" y="-159.5" font-family="Helvetica,sans-Serif" font-size="10.00">SetJoystick::getJoyAxis</text>
</a>
</g>
</g>
<!-- Node2&#45;&gt;Node3 -->
<g id="edge2" class="edge">
<title>Node2&#45;&gt;Node3</title>
<path fill="none" stroke="midnightblue" d="M220.04,-101.06C238.02,-113.68 265.22,-131.43 291,-143 296.06,-145.27 301.46,-147.35 306.91,-149.24"/>
<polygon fill="midnightblue" stroke="midnightblue" points="306.09,-152.65 316.68,-152.42 308.26,-146 306.09,-152.65"/>
</g>
<!-- Node4 -->
<g id="node4" class="node">
<title>Node4</title>
<g id="a_node4"><a xlink:href="$classSetJoystick.html#a652994327142229429b0d6f43a96103a" xlink:title=" ">
<polygon fill="white" stroke="black" points="291,-114.5 291,-133.5 422,-133.5 422,-114.5 291,-114.5"/>
<text text-anchor="middle" x="356.5" y="-121.5" font-family="Helvetica,sans-Serif" font-size="10.00">SetJoystick::getJoyButton</text>
</a>
</g>
</g>
<!-- Node2&#45;&gt;Node4 -->
<g id="edge3" class="edge">
<title>Node2&#45;&gt;Node4</title>
<path fill="none" stroke="midnightblue" d="M251.88,-98.76C269.49,-103.05 289.06,-107.82 306.41,-112.04"/>
<polygon fill="midnightblue" stroke="midnightblue" points="305.79,-115.49 316.33,-114.46 307.45,-108.69 305.79,-115.49"/>
</g>
<!-- Node6 -->
<g id="node6" class="node">
<title>Node6</title>
<g id="a_node6"><a xlink:href="$classSetJoystick.html#a7b74d7b4a0adfc9c25cdbe4433d9b275" xlink:title=" ">
<polygon fill="white" stroke="black" points="294,-76.5 294,-95.5 419,-95.5 419,-76.5 294,-76.5"/>
<text text-anchor="middle" x="356.5" y="-83.5" font-family="Helvetica,sans-Serif" font-size="10.00">SetJoystick::getJoyStick</text>
</a>
</g>
</g>
<!-- Node2&#45;&gt;Node6 -->
<g id="edge5" class="edge">
<title>Node2&#45;&gt;Node6</title>
<path fill="none" stroke="midnightblue" d="M251.88,-86C262.08,-86 272.93,-86 283.63,-86"/>
<polygon fill="midnightblue" stroke="midnightblue" points="283.81,-89.5 293.81,-86 283.81,-82.5 283.81,-89.5"/>
</g>
<!-- Node8 -->
<g id="node8" class="node">
<title>Node8</title>
<g id="a_node8"><a xlink:href="$classSetJoystick.html#abcdc88c96a95fb0f5d8a721582d22851" xlink:title=" ">
<polygon fill="white" stroke="black" points="297.5,-38.5 297.5,-57.5 415.5,-57.5 415.5,-38.5 297.5,-38.5"/>
<text text-anchor="middle" x="356.5" y="-45.5" font-family="Helvetica,sans-Serif" font-size="10.00">SetJoystick::getVDPad</text>
</a>
</g>
</g>
<!-- Node2&#45;&gt;Node8 -->
<g id="edge7" class="edge">
<title>Node2&#45;&gt;Node8</title>
<path fill="none" stroke="midnightblue" d="M251.88,-73.24C269.49,-68.95 289.06,-64.18 306.41,-59.96"/>
<polygon fill="midnightblue" stroke="midnightblue" points="307.45,-63.31 316.33,-57.54 305.79,-56.51 307.45,-63.31"/>
</g>
<!-- Node10 -->
<g id="node10" class="node">
<title>Node10</title>
<g id="a_node10"><a xlink:href="$gamecontrollerset_8cpp.html#ab41ef642e9519cc1ff2745fcd23fca2c" xlink:title=" ">
<polygon fill="white" stroke="black" points="328.5,-0.5 328.5,-19.5 384.5,-19.5 384.5,-0.5 328.5,-0.5"/>
<text text-anchor="middle" x="356.5" y="-7.5" font-family="Helvetica,sans-Serif" font-size="10.00">readConf</text>
</a>
</g>
</g>
<!-- Node2&#45;&gt;Node10 -->
<g id="edge9" class="edge">
<title>Node2&#45;&gt;Node10</title>
<path fill="none" stroke="midnightblue" d="M237.04,-70.97C243.21,-67.97 249.41,-64.62 255,-61 272.97,-49.36 272.28,-39.39 291,-29 299.47,-24.3 309.23,-20.65 318.55,-17.86"/>
<polygon fill="midnightblue" stroke="midnightblue" points="319.68,-21.18 328.4,-15.17 317.84,-14.43 319.68,-21.18"/>
</g>
<!-- Node5 -->
<g id="node5" class="node">
<title>Node5</title>
<g id="a_node5"><a xlink:href="$classSetJoystick.html#ac5baae46a0b3924a83b523ad89819a53" xlink:title=" ">
<polygon fill="white" stroke="black" points="458,-114.5 458,-133.5 578,-133.5 578,-114.5 458,-114.5"/>
<text text-anchor="middle" x="518" y="-121.5" font-family="Helvetica,sans-Serif" font-size="10.00">SetJoystick::getButtons</text>
</a>
</g>
</g>
<!-- Node4&#45;&gt;Node5 -->
<g id="edge4" class="edge">
<title>Node4&#45;&gt;Node5</title>
<path fill="none" stroke="midnightblue" d="M422.37,-124C430.71,-124 439.28,-124 447.68,-124"/>
<polygon fill="midnightblue" stroke="midnightblue" points="447.83,-127.5 457.83,-124 447.83,-120.5 447.83,-127.5"/>
</g>
<!-- Node7 -->
<g id="node7" class="node">
<title>Node7</title>
<g id="a_node7"><a xlink:href="$classSetJoystick.html#a7ca499fe41a0a9841b4fe904b07cbc30" xlink:title=" ">
<polygon fill="white" stroke="black" points="461,-76.5 461,-95.5 575,-95.5 575,-76.5 461,-76.5"/>
<text text-anchor="middle" x="518" y="-83.5" font-family="Helvetica,sans-Serif" font-size="10.00">SetJoystick::getSticks</text>
</a>
</g>
</g>
<!-- Node6&#45;&gt;Node7 -->
<g id="edge6" class="edge">
<title>Node6&#45;&gt;Node7</title>
<path fill="none" stroke="midnightblue" d="M419.17,-86C429.49,-86 440.24,-86 450.67,-86"/>
<polygon fill="midnightblue" stroke="midnightblue" points="450.97,-89.5 460.97,-86 450.97,-82.5 450.97,-89.5"/>
</g>
<!-- Node9 -->
<g id="node9" class="node">
<title>Node9</title>
<g id="a_node9"><a xlink:href="$classSetJoystick.html#ad859311bfde76dbdaac274cb5ede63d6" xlink:title=" ">
<polygon fill="white" stroke="black" points="458.5,-38.5 458.5,-57.5 577.5,-57.5 577.5,-38.5 458.5,-38.5"/>
<text text-anchor="middle" x="518" y="-45.5" font-family="Helvetica,sans-Serif" font-size="10.00">SetJoystick::getVdpads</text>
</a>
</g>
</g>
<!-- Node8&#45;&gt;Node9 -->
<g id="edge8" class="edge">
<title>Node8&#45;&gt;Node9</title>
<path fill="none" stroke="midnightblue" d="M415.53,-48C426.13,-48 437.28,-48 448.16,-48"/>
<polygon fill="midnightblue" stroke="midnightblue" points="448.47,-51.5 458.47,-48 448.47,-44.5 448.47,-51.5"/>
</g>
</g>
</svg>
