<?xml version="1.0" encoding="UTF-8" standalone="no"?>
<!DOCTYPE svg PUBLIC "-//W3C//DTD SVG 1.1//EN"
 "http://www.w3.org/Graphics/SVG/1.1/DTD/svg11.dtd">
<!-- Generated by graphviz version 2.43.0 (0)
 -->
<!-- Title: JoyDPad::getButtonsPresetMouseCurve Pages: 1 -->
<svg width="520pt" height="50pt"
 viewBox="0.00 0.00 520.00 50.00" xmlns="http://www.w3.org/2000/svg" xmlns:xlink="http://www.w3.org/1999/xlink">
<g id="graph0" class="graph" transform="scale(1 1) rotate(0) translate(4 46)">
<title>JoyDPad::getButtonsPresetMouseCurve</title>
<polygon fill="white" stroke="transparent" points="-4,4 -4,-46 516,-46 516,4 -4,4"/>
<!-- Node1 -->
<g id="node1" class="node">
<title>Node1</title>
<g id="a_node1"><a xlink:title=" ">
<polygon fill="#bfbfbf" stroke="black" points="373,-6 373,-36 512,-36 512,-6 373,-6"/>
<text text-anchor="start" x="381" y="-24" font-family="Helvetica,sans-Serif" font-size="10.00">JoyDPad::getButtonsPreset</text>
<text text-anchor="middle" x="442.5" y="-13" font-family="Helvetica,sans-Serif" font-size="10.00">MouseCurve</text>
</a>
</g>
</g>
<!-- Node2 -->
<g id="node2" class="node">
<title>Node2</title>
<g id="a_node2"><a xlink:href="$classMouseDPadSettingsDialog.html#a583229478a1ebd127437fe61ef7f0be1" xlink:title=" ">
<polygon fill="white" stroke="black" points="176,-0.5 176,-41.5 337,-41.5 337,-0.5 176,-0.5"/>
<text text-anchor="start" x="184" y="-29.5" font-family="Helvetica,sans-Serif" font-size="10.00">MouseDPadSettingsDialog</text>
<text text-anchor="start" x="184" y="-18.5" font-family="Helvetica,sans-Serif" font-size="10.00">::updateAccelerationCurvePreset</text>
<text text-anchor="middle" x="256.5" y="-7.5" font-family="Helvetica,sans-Serif" font-size="10.00">ComboBox</text>
</a>
</g>
</g>
<!-- Node1&#45;&gt;Node2 -->
<g id="edge1" class="edge">
<title>Node1&#45;&gt;Node2</title>
<path fill="none" stroke="midnightblue" d="M362.77,-21C354.32,-21 345.71,-21 337.24,-21"/>
<polygon fill="midnightblue" stroke="midnightblue" points="362.99,-24.5 372.99,-21 362.99,-17.5 362.99,-24.5"/>
</g>
<!-- Node3 -->
<g id="node3" class="node">
<title>Node3</title>
<g id="a_node3"><a xlink:href="$classMouseDPadSettingsDialog.html#a51ae7b4e5b371e35d4f470787f5fc846" xlink:title=" ">
<polygon fill="white" stroke="black" points="0,-6 0,-36 140,-36 140,-6 0,-6"/>
<text text-anchor="start" x="8" y="-24" font-family="Helvetica,sans-Serif" font-size="10.00">MouseDPadSettingsDialog</text>
<text text-anchor="middle" x="70" y="-13" font-family="Helvetica,sans-Serif" font-size="10.00">::MouseDPadSettingsDialog</text>
</a>
</g>
</g>
<!-- Node2&#45;&gt;Node3 -->
<g id="edge2" class="edge">
<title>Node2&#45;&gt;Node3</title>
<path fill="none" stroke="midnightblue" d="M165.83,-21C157.21,-21 148.55,-21 140.17,-21"/>
<polygon fill="midnightblue" stroke="midnightblue" points="165.92,-24.5 175.92,-21 165.92,-17.5 165.92,-24.5"/>
</g>
</g>
</svg>
