<?xml version="1.0" encoding="UTF-8" standalone="no"?>
<!DOCTYPE svg PUBLIC "-//W3C//DTD SVG 1.1//EN"
 "http://www.w3.org/Graphics/SVG/1.1/DTD/svg11.dtd">
<!-- Generated by graphviz version 2.43.0 (0)
 -->
<!-- Title: AdvanceStickAssignmentDialog::changeStateVDPadWidgets Pages: 1 -->
<svg width="690pt" height="362pt"
 viewBox="0.00 0.00 690.00 361.50" xmlns="http://www.w3.org/2000/svg" xmlns:xlink="http://www.w3.org/1999/xlink">
<g id="graph0" class="graph" transform="scale(1 1) rotate(0) translate(4 357.5)">
<title>AdvanceStickAssignmentDialog::changeStateVDPadWidgets</title>
<polygon fill="white" stroke="transparent" points="-4,4 -4,-357.5 686,-357.5 686,4 -4,4"/>
<!-- Node1 -->
<g id="node1" class="node">
<title>Node1</title>
<g id="a_node1"><a xlink:title=" ">
<polygon fill="#bfbfbf" stroke="black" points="0,-52 0,-82 156,-82 156,-52 0,-52"/>
<text text-anchor="start" x="8" y="-70" font-family="Helvetica,sans-Serif" font-size="10.00">AdvanceStickAssignmentDialog</text>
<text text-anchor="middle" x="78" y="-59" font-family="Helvetica,sans-Serif" font-size="10.00">::changeStateVDPadWidgets</text>
</a>
</g>
</g>
<!-- Node2 -->
<g id="node2" class="node">
<title>Node2</title>
<g id="a_node2"><a xlink:href="$classSetJoystick.html#a5d361ae7d236016146559f96be00685b" xlink:title=" ">
<polygon fill="white" stroke="black" points="206.5,-164.5 206.5,-183.5 326.5,-183.5 326.5,-164.5 206.5,-164.5"/>
<text text-anchor="middle" x="266.5" y="-171.5" font-family="Helvetica,sans-Serif" font-size="10.00">SetJoystick::addVDPad</text>
</a>
</g>
</g>
<!-- Node1&#45;&gt;Node2 -->
<g id="edge1" class="edge">
<title>Node1&#45;&gt;Node2</title>
<path fill="none" stroke="midnightblue" d="M105.33,-82.1C141.09,-102.62 204.61,-139.06 239.96,-159.35"/>
<polygon fill="midnightblue" stroke="midnightblue" points="238.31,-162.43 248.72,-164.37 241.79,-156.36 238.31,-162.43"/>
</g>
<!-- Node15 -->
<g id="node15" class="node">
<title>Node15</title>
<g id="a_node15"><a xlink:href="$classInputDevice.html#a1c4c65d9e509a5c3bde064871d7e1849" xlink:title=" ">
<polygon fill="white" stroke="black" points="192,-76.5 192,-95.5 341,-95.5 341,-76.5 192,-76.5"/>
<text text-anchor="middle" x="266.5" y="-83.5" font-family="Helvetica,sans-Serif" font-size="10.00">InputDevice::getJoystick_sets</text>
</a>
</g>
</g>
<!-- Node1&#45;&gt;Node15 -->
<g id="edge21" class="edge">
<title>Node1&#45;&gt;Node15</title>
<path fill="none" stroke="midnightblue" d="M156.2,-74.87C164.7,-75.73 173.38,-76.62 181.96,-77.49"/>
<polygon fill="midnightblue" stroke="midnightblue" points="181.65,-80.98 191.95,-78.51 182.36,-74.01 181.65,-80.98"/>
</g>
<!-- Node16 -->
<g id="node16" class="node">
<title>Node16</title>
<g id="a_node16"><a xlink:href="$classSetJoystick.html#abcdc88c96a95fb0f5d8a721582d22851" xlink:title=" ">
<polygon fill="white" stroke="black" points="207.5,-38.5 207.5,-57.5 325.5,-57.5 325.5,-38.5 207.5,-38.5"/>
<text text-anchor="middle" x="266.5" y="-45.5" font-family="Helvetica,sans-Serif" font-size="10.00">SetJoystick::getVDPad</text>
</a>
</g>
</g>
<!-- Node1&#45;&gt;Node16 -->
<g id="edge22" class="edge">
<title>Node1&#45;&gt;Node16</title>
<path fill="none" stroke="midnightblue" d="M156.2,-59.13C169.86,-57.74 183.99,-56.3 197.37,-54.94"/>
<polygon fill="midnightblue" stroke="midnightblue" points="197.84,-58.41 207.44,-53.92 197.13,-51.45 197.84,-58.41"/>
</g>
<!-- Node18 -->
<g id="node18" class="node">
<title>Node18</title>
<g id="a_node18"><a xlink:href="$classSetJoystick.html#a48f0e4f996b21a056c9eb40bf4968295" xlink:title=" ">
<polygon fill="white" stroke="black" points="198.5,-0.5 198.5,-19.5 334.5,-19.5 334.5,-0.5 198.5,-0.5"/>
<text text-anchor="middle" x="266.5" y="-7.5" font-family="Helvetica,sans-Serif" font-size="10.00">SetJoystick::removeVDPad</text>
</a>
</g>
</g>
<!-- Node1&#45;&gt;Node18 -->
<g id="edge24" class="edge">
<title>Node1&#45;&gt;Node18</title>
<path fill="none" stroke="midnightblue" d="M121.43,-51.93C142.53,-44.64 168.49,-35.98 192,-29 199.9,-26.65 208.34,-24.32 216.56,-22.13"/>
<polygon fill="midnightblue" stroke="midnightblue" points="217.66,-25.46 226.45,-19.54 215.89,-18.69 217.66,-25.46"/>
</g>
<!-- Node3 -->
<g id="node3" class="node">
<title>Node3</title>
<g id="a_node3"><a xlink:href="$classJoyDPad.html#a2f5d634341589f42960a9ecc41454112" xlink:title=" ">
<polygon fill="white" stroke="black" points="390.5,-186.5 390.5,-205.5 500.5,-205.5 500.5,-186.5 390.5,-186.5"/>
<text text-anchor="middle" x="445.5" y="-193.5" font-family="Helvetica,sans-Serif" font-size="10.00">JoyDPad::getButtons</text>
</a>
</g>
</g>
<!-- Node2&#45;&gt;Node3 -->
<g id="edge2" class="edge">
<title>Node2&#45;&gt;Node3</title>
<path fill="none" stroke="midnightblue" d="M326.93,-181.39C344.06,-183.52 362.82,-185.85 380.22,-188.01"/>
<polygon fill="midnightblue" stroke="midnightblue" points="379.94,-191.5 390.29,-189.26 380.8,-184.56 379.94,-191.5"/>
</g>
<!-- Node4 -->
<g id="node4" class="node">
<title>Node4</title>
<g id="a_node4"><a xlink:href="$classSetJoystick.html#aeb069bf5f9e89bf2fb7dc73d89b5fbbd" xlink:title=" ">
<polygon fill="white" stroke="black" points="380,-137 380,-167 511,-167 511,-137 380,-137"/>
<text text-anchor="start" x="388" y="-155" font-family="Helvetica,sans-Serif" font-size="10.00">SetJoystick::propogateSet</text>
<text text-anchor="middle" x="445.5" y="-144" font-family="Helvetica,sans-Serif" font-size="10.00">Change</text>
</a>
</g>
</g>
<!-- Node2&#45;&gt;Node4 -->
<g id="edge3" class="edge">
<title>Node2&#45;&gt;Node4</title>
<path fill="none" stroke="midnightblue" d="M326.93,-166.61C340.59,-164.92 355.29,-163.09 369.51,-161.32"/>
<polygon fill="midnightblue" stroke="midnightblue" points="370.26,-164.75 379.75,-160.05 369.4,-157.81 370.26,-164.75"/>
</g>
<!-- Node5 -->
<g id="node5" class="node">
<title>Node5</title>
<g id="a_node5"><a xlink:href="$classSetJoystick.html#a34909d7126daa4494789b77ce86dea27" xlink:title=" ">
<polygon fill="white" stroke="black" points="380,-88 380,-118 511,-118 511,-88 380,-88"/>
<text text-anchor="start" x="388" y="-106" font-family="Helvetica,sans-Serif" font-size="10.00">SetJoystick::propogateSet</text>
<text text-anchor="middle" x="445.5" y="-95" font-family="Helvetica,sans-Serif" font-size="10.00">DPadButtonClick</text>
</a>
</g>
</g>
<!-- Node2&#45;&gt;Node5 -->
<g id="edge4" class="edge">
<title>Node2&#45;&gt;Node5</title>
<path fill="none" stroke="midnightblue" d="M288.73,-164.41C310.67,-154.61 345.99,-139.15 377,-127 381.54,-125.22 386.27,-123.43 391.03,-121.66"/>
<polygon fill="midnightblue" stroke="midnightblue" points="392.59,-124.81 400.78,-118.09 390.18,-118.24 392.59,-124.81"/>
</g>
<!-- Node10 -->
<g id="node10" class="node">
<title>Node10</title>
<g id="a_node10"><a xlink:href="$classSetJoystick.html#a979ed0c246f09523b8f4480898148cf6" xlink:title=" ">
<polygon fill="white" stroke="black" points="380,-39 380,-69 511,-69 511,-39 380,-39"/>
<text text-anchor="start" x="388" y="-57" font-family="Helvetica,sans-Serif" font-size="10.00">SetJoystick::propogateSet</text>
<text text-anchor="middle" x="445.5" y="-46" font-family="Helvetica,sans-Serif" font-size="10.00">DPadButtonRelease</text>
</a>
</g>
</g>
<!-- Node2&#45;&gt;Node10 -->
<g id="edge9" class="edge">
<title>Node2&#45;&gt;Node10</title>
<path fill="none" stroke="midnightblue" d="M277.46,-164.39C300.08,-142.71 355.09,-90.86 377,-78 379.84,-76.33 382.82,-74.75 385.87,-73.26"/>
<polygon fill="midnightblue" stroke="midnightblue" points="387.53,-76.35 395.21,-69.05 384.65,-69.97 387.53,-76.35"/>
</g>
<!-- Node11 -->
<g id="node11" class="node">
<title>Node11</title>
<g id="a_node11"><a xlink:href="$classSetJoystick.html#a5ee5db087902e0fa5f5a94877af31651" xlink:title=" ">
<polygon fill="white" stroke="black" points="380,-225 380,-255 511,-255 511,-225 380,-225"/>
<text text-anchor="start" x="388" y="-243" font-family="Helvetica,sans-Serif" font-size="10.00">SetJoystick::propogateSet</text>
<text text-anchor="middle" x="445.5" y="-232" font-family="Helvetica,sans-Serif" font-size="10.00">VDPadButtonAssociation</text>
</a>
</g>
</g>
<!-- Node2&#45;&gt;Node11 -->
<g id="edge14" class="edge">
<title>Node2&#45;&gt;Node11</title>
<path fill="none" stroke="midnightblue" d="M293.16,-183.64C315.34,-191.96 348.28,-204.3 377,-215 382.55,-217.07 388.36,-219.23 394.14,-221.37"/>
<polygon fill="midnightblue" stroke="midnightblue" points="393.21,-224.76 403.8,-224.95 395.64,-218.19 393.21,-224.76"/>
</g>
<!-- Node12 -->
<g id="node12" class="node">
<title>Node12</title>
<g id="a_node12"><a xlink:href="$classSetJoystick.html#a8a0b672ba22e9004dd0d082f856a2df5" xlink:title=" ">
<polygon fill="white" stroke="black" points="377,-274 377,-304 514,-304 514,-274 377,-274"/>
<text text-anchor="start" x="385" y="-292" font-family="Helvetica,sans-Serif" font-size="10.00">SetJoystick::propogateSet</text>
<text text-anchor="middle" x="445.5" y="-281" font-family="Helvetica,sans-Serif" font-size="10.00">VDPadButtonNameChange</text>
</a>
</g>
</g>
<!-- Node2&#45;&gt;Node12 -->
<g id="edge15" class="edge">
<title>Node2&#45;&gt;Node12</title>
<path fill="none" stroke="midnightblue" d="M276.6,-183.53C294.36,-201.66 335.54,-241.4 377,-265 380.01,-266.71 383.16,-268.34 386.39,-269.87"/>
<polygon fill="midnightblue" stroke="midnightblue" points="385.08,-273.12 395.65,-273.96 387.91,-266.72 385.08,-273.12"/>
</g>
<!-- Node14 -->
<g id="node14" class="node">
<title>Node14</title>
<g id="a_node14"><a xlink:href="$classSetJoystick.html#a05e3d7619aa147cabdc5d314a9d0bf0a" xlink:title=" ">
<polygon fill="white" stroke="black" points="380,-323 380,-353 511,-353 511,-323 380,-323"/>
<text text-anchor="start" x="388" y="-341" font-family="Helvetica,sans-Serif" font-size="10.00">SetJoystick::propogateSet</text>
<text text-anchor="middle" x="445.5" y="-330" font-family="Helvetica,sans-Serif" font-size="10.00">VDPadNameChange</text>
</a>
</g>
</g>
<!-- Node2&#45;&gt;Node14 -->
<g id="edge19" class="edge">
<title>Node2&#45;&gt;Node14</title>
<path fill="none" stroke="midnightblue" d="M272.5,-183.68C285.95,-208.83 325.43,-276.84 377,-314 379.08,-315.49 381.25,-316.9 383.5,-318.23"/>
<polygon fill="midnightblue" stroke="midnightblue" points="382,-321.4 392.47,-322.96 385.26,-315.2 382,-321.4"/>
</g>
<!-- Node6 -->
<g id="node6" class="node">
<title>Node6</title>
<g id="a_node6"><a xlink:href="$classJoyButton.html#aa1eb52e9cce61ac403f9b451c512f197" xlink:title=" ">
<polygon fill="white" stroke="black" points="550,-88.5 550,-107.5 682,-107.5 682,-88.5 550,-88.5"/>
<text text-anchor="middle" x="616" y="-95.5" font-family="Helvetica,sans-Serif" font-size="10.00">JoyButton::getButtonState</text>
</a>
</g>
</g>
<!-- Node5&#45;&gt;Node6 -->
<g id="edge5" class="edge">
<title>Node5&#45;&gt;Node6</title>
<path fill="none" stroke="midnightblue" d="M511.16,-101.08C520.5,-100.8 530.18,-100.52 539.7,-100.23"/>
<polygon fill="midnightblue" stroke="midnightblue" points="540.06,-103.73 549.95,-99.93 539.85,-96.73 540.06,-103.73"/>
</g>
<!-- Node7 -->
<g id="node7" class="node">
<title>Node7</title>
<g id="a_node7"><a xlink:href="$classJoyDPadButton.html#a3562e822a51b68df01e9a76267428728" xlink:title=" ">
<polygon fill="white" stroke="black" points="551,-126.5 551,-145.5 681,-145.5 681,-126.5 551,-126.5"/>
<text text-anchor="middle" x="616" y="-133.5" font-family="Helvetica,sans-Serif" font-size="10.00">JoyDPadButton::getDPad</text>
</a>
</g>
</g>
<!-- Node5&#45;&gt;Node7 -->
<g id="edge6" class="edge">
<title>Node5&#45;&gt;Node7</title>
<path fill="none" stroke="midnightblue" d="M511.16,-115.66C526.1,-118.59 541.89,-121.68 556.54,-124.55"/>
<polygon fill="midnightblue" stroke="midnightblue" points="555.99,-128.01 566.47,-126.5 557.33,-121.14 555.99,-128.01"/>
</g>
<!-- Node8 -->
<g id="node8" class="node">
<title>Node8</title>
<g id="a_node8"><a xlink:href="$classJoyButton.html#abbccee98e377453167a47b49874eeab7" xlink:title=" ">
<polygon fill="white" stroke="black" points="550,-39 550,-69 682,-69 682,-39 550,-39"/>
<text text-anchor="start" x="558" y="-57" font-family="Helvetica,sans-Serif" font-size="10.00">JoyButton::getIgnoreEvent</text>
<text text-anchor="middle" x="616" y="-46" font-family="Helvetica,sans-Serif" font-size="10.00">State</text>
</a>
</g>
</g>
<!-- Node5&#45;&gt;Node8 -->
<g id="edge7" class="edge">
<title>Node5&#45;&gt;Node8</title>
<path fill="none" stroke="midnightblue" d="M498.43,-87.9C515.81,-82.84 535.35,-77.16 553.39,-71.92"/>
<polygon fill="midnightblue" stroke="midnightblue" points="554.62,-75.2 563.24,-69.05 552.66,-68.48 554.62,-75.2"/>
</g>
<!-- Node9 -->
<g id="node9" class="node">
<title>Node9</title>
<g id="a_node9"><a xlink:href="$classJoyDPad.html#a089e9a69356d82336da47361bfc94b63" xlink:title=" ">
<polygon fill="white" stroke="black" points="565.5,-203.5 565.5,-222.5 666.5,-222.5 666.5,-203.5 565.5,-203.5"/>
<text text-anchor="middle" x="616" y="-210.5" font-family="Helvetica,sans-Serif" font-size="10.00">JoyDPad::getIndex</text>
</a>
</g>
</g>
<!-- Node5&#45;&gt;Node9 -->
<g id="edge8" class="edge">
<title>Node5&#45;&gt;Node9</title>
<path fill="none" stroke="midnightblue" d="M495.75,-118.12C502.05,-120.75 508.29,-123.7 514,-127 523.04,-132.22 569.91,-173.16 596.51,-196.62"/>
<polygon fill="midnightblue" stroke="midnightblue" points="594.24,-199.28 604.05,-203.28 598.87,-194.04 594.24,-199.28"/>
</g>
<!-- Node10&#45;&gt;Node6 -->
<g id="edge10" class="edge">
<title>Node10&#45;&gt;Node6</title>
<path fill="none" stroke="midnightblue" d="M504.02,-69.02C525.14,-74.54 548.77,-80.7 568.77,-85.93"/>
<polygon fill="midnightblue" stroke="midnightblue" points="568.01,-89.35 578.57,-88.49 569.78,-82.57 568.01,-89.35"/>
</g>
<!-- Node10&#45;&gt;Node7 -->
<g id="edge11" class="edge">
<title>Node10&#45;&gt;Node7</title>
<path fill="none" stroke="midnightblue" d="M497.55,-69.11C503.3,-71.69 508.91,-74.64 514,-78 533.69,-91 529.95,-104.57 550,-117 553.39,-119.1 557.02,-120.98 560.77,-122.65"/>
<polygon fill="midnightblue" stroke="midnightblue" points="559.68,-125.99 570.27,-126.42 562.26,-119.48 559.68,-125.99"/>
</g>
<!-- Node10&#45;&gt;Node8 -->
<g id="edge12" class="edge">
<title>Node10&#45;&gt;Node8</title>
<path fill="none" stroke="midnightblue" d="M511.16,-54C520.5,-54 530.18,-54 539.7,-54"/>
<polygon fill="midnightblue" stroke="midnightblue" points="539.95,-57.5 549.95,-54 539.95,-50.5 539.95,-57.5"/>
</g>
<!-- Node10&#45;&gt;Node9 -->
<g id="edge13" class="edge">
<title>Node10&#45;&gt;Node9</title>
<path fill="none" stroke="midnightblue" d="M501.37,-69.09C505.93,-71.62 510.23,-74.57 514,-78 541.96,-103.4 527.45,-124.69 550,-155 562.19,-171.38 579.6,-186.61 593.33,-197.35"/>
<polygon fill="midnightblue" stroke="midnightblue" points="591.25,-200.16 601.33,-203.43 595.48,-194.59 591.25,-200.16"/>
</g>
<!-- Node12&#45;&gt;Node7 -->
<g id="edge16" class="edge">
<title>Node12&#45;&gt;Node7</title>
<path fill="none" stroke="midnightblue" d="M500.92,-273.96C505.63,-271.42 510.08,-268.45 514,-265 540.56,-241.63 528.43,-222.04 550,-194 562.45,-177.82 579.84,-162.58 593.5,-151.78"/>
<polygon fill="midnightblue" stroke="midnightblue" points="595.66,-154.54 601.45,-145.67 591.39,-148.99 595.66,-154.54"/>
</g>
<!-- Node12&#45;&gt;Node9 -->
<g id="edge17" class="edge">
<title>Node12&#45;&gt;Node9</title>
<path fill="none" stroke="midnightblue" d="M491.49,-273.95C499.07,-271.15 506.81,-268.11 514,-265 540.25,-253.64 569.17,-238.46 589.32,-227.44"/>
<polygon fill="midnightblue" stroke="midnightblue" points="591.12,-230.44 598.18,-222.54 587.73,-224.31 591.12,-230.44"/>
</g>
<!-- Node13 -->
<g id="node13" class="node">
<title>Node13</title>
<g id="a_node13"><a xlink:href="$classJoyButton.html#aa659d5a0860f5047862ca0761d8d775a" xlink:title="Get 0 indexed number of button.">
<polygon fill="white" stroke="black" points="550.5,-279.5 550.5,-298.5 681.5,-298.5 681.5,-279.5 550.5,-279.5"/>
<text text-anchor="middle" x="616" y="-286.5" font-family="Helvetica,sans-Serif" font-size="10.00">JoyButton::getJoyNumber</text>
</a>
</g>
</g>
<!-- Node12&#45;&gt;Node13 -->
<g id="edge18" class="edge">
<title>Node12&#45;&gt;Node13</title>
<path fill="none" stroke="midnightblue" d="M514.06,-289C522.69,-289 531.55,-289 540.27,-289"/>
<polygon fill="midnightblue" stroke="midnightblue" points="540.43,-292.5 550.43,-289 540.43,-285.5 540.43,-292.5"/>
</g>
<!-- Node14&#45;&gt;Node9 -->
<g id="edge20" class="edge">
<title>Node14&#45;&gt;Node9</title>
<path fill="none" stroke="midnightblue" d="M498.45,-322.86C503.92,-320.3 509.22,-317.36 514,-314 534.66,-299.46 532.44,-288.17 550,-270 564.2,-255.3 581.69,-240.11 594.94,-229.11"/>
<polygon fill="midnightblue" stroke="midnightblue" points="597.45,-231.58 602.97,-222.54 593.01,-226.17 597.45,-231.58"/>
</g>
<!-- Node17 -->
<g id="node17" class="node">
<title>Node17</title>
<g id="a_node17"><a xlink:href="$classSetJoystick.html#ad859311bfde76dbdaac274cb5ede63d6" xlink:title=" ">
<polygon fill="white" stroke="black" points="386,-0.5 386,-19.5 505,-19.5 505,-0.5 386,-0.5"/>
<text text-anchor="middle" x="445.5" y="-7.5" font-family="Helvetica,sans-Serif" font-size="10.00">SetJoystick::getVdpads</text>
</a>
</g>
</g>
<!-- Node16&#45;&gt;Node17 -->
<g id="edge23" class="edge">
<title>Node16&#45;&gt;Node17</title>
<path fill="none" stroke="midnightblue" d="M312.16,-38.41C335.84,-33.33 365.11,-27.04 390.1,-21.68"/>
<polygon fill="midnightblue" stroke="midnightblue" points="391.11,-25.04 400.16,-19.52 389.64,-18.2 391.11,-25.04"/>
</g>
<!-- Node18&#45;&gt;Node17 -->
<g id="edge25" class="edge">
<title>Node18&#45;&gt;Node17</title>
<path fill="none" stroke="midnightblue" d="M334.67,-10C348.07,-10 362.17,-10 375.63,-10"/>
<polygon fill="midnightblue" stroke="midnightblue" points="375.78,-13.5 385.78,-10 375.78,-6.5 375.78,-13.5"/>
</g>
</g>
</svg>
