<?xml version="1.0" encoding="UTF-8" standalone="no"?>
<!DOCTYPE svg PUBLIC "-//W3C//DTD SVG 1.1//EN"
 "http://www.w3.org/Graphics/SVG/1.1/DTD/svg11.dtd">
<!-- Generated by graphviz version 2.43.0 (0)
 -->
<!-- Title: AdvanceStickAssignmentDialog::changeStateStickOneWidgets Pages: 1 -->
<svg width="699pt" height="143pt"
 viewBox="0.00 0.00 699.00 142.50" xmlns="http://www.w3.org/2000/svg" xmlns:xlink="http://www.w3.org/1999/xlink">
<g id="graph0" class="graph" transform="scale(1 1) rotate(0) translate(4 138.5)">
<title>AdvanceStickAssignmentDialog::changeStateStickOneWidgets</title>
<polygon fill="white" stroke="transparent" points="-4,4 -4,-138.5 695,-138.5 695,4 -4,4"/>
<!-- Node1 -->
<g id="node1" class="node">
<title>Node1</title>
<g id="a_node1"><a xlink:title=" ">
<polygon fill="#bfbfbf" stroke="black" points="0,-39 0,-69 156,-69 156,-39 0,-39"/>
<text text-anchor="start" x="8" y="-57" font-family="Helvetica,sans-Serif" font-size="10.00">AdvanceStickAssignmentDialog</text>
<text text-anchor="middle" x="78" y="-46" font-family="Helvetica,sans-Serif" font-size="10.00">::changeStateStickOneWidgets</text>
</a>
</g>
</g>
<!-- Node2 -->
<g id="node2" class="node">
<title>Node2</title>
<g id="a_node2"><a xlink:href="$classInputDevice.html#abc23a70bef37f2fc70248cd129af170b" xlink:title=" ">
<polygon fill="white" stroke="black" points="195.5,-104 195.5,-134 326.5,-134 326.5,-104 195.5,-104"/>
<text text-anchor="start" x="203.5" y="-122" font-family="Helvetica,sans-Serif" font-size="10.00">InputDevice::getActiveSet</text>
<text text-anchor="middle" x="261" y="-111" font-family="Helvetica,sans-Serif" font-size="10.00">Joystick</text>
</a>
</g>
</g>
<!-- Node1&#45;&gt;Node2 -->
<g id="edge1" class="edge">
<title>Node1&#45;&gt;Node2</title>
<path fill="none" stroke="midnightblue" d="M120.98,-69.08C147.04,-78.44 180.73,-90.53 208.41,-100.47"/>
<polygon fill="midnightblue" stroke="midnightblue" points="207.34,-103.81 217.93,-103.89 209.71,-97.22 207.34,-103.81"/>
</g>
<!-- Node4 -->
<g id="node4" class="node">
<title>Node4</title>
<g id="a_node4"><a xlink:href="$classSetJoystick.html#a7b74d7b4a0adfc9c25cdbe4433d9b275" xlink:title=" ">
<polygon fill="white" stroke="black" points="373.5,-0.5 373.5,-19.5 498.5,-19.5 498.5,-0.5 373.5,-0.5"/>
<text text-anchor="middle" x="436" y="-7.5" font-family="Helvetica,sans-Serif" font-size="10.00">SetJoystick::getJoyStick</text>
</a>
</g>
</g>
<!-- Node1&#45;&gt;Node4 -->
<g id="edge3" class="edge">
<title>Node1&#45;&gt;Node4</title>
<path fill="none" stroke="midnightblue" d="M139.7,-38.94C156.55,-35.2 174.91,-31.55 192,-29 249.24,-20.47 314.68,-15.63 363.22,-12.98"/>
<polygon fill="midnightblue" stroke="midnightblue" points="363.51,-16.47 373.31,-12.44 363.14,-9.48 363.51,-16.47"/>
</g>
<!-- Node6 -->
<g id="node6" class="node">
<title>Node6</title>
<g id="a_node6"><a xlink:href="$classInputDevice.html#a49af664c647b88bf60595ad0a961c53c" xlink:title=" ">
<polygon fill="white" stroke="black" points="192,-39 192,-69 330,-69 330,-39 192,-39"/>
<text text-anchor="start" x="200" y="-57" font-family="Helvetica,sans-Serif" font-size="10.00">InputDevice::removeControl</text>
<text text-anchor="middle" x="261" y="-46" font-family="Helvetica,sans-Serif" font-size="10.00">Stick</text>
</a>
</g>
</g>
<!-- Node1&#45;&gt;Node6 -->
<g id="edge5" class="edge">
<title>Node1&#45;&gt;Node6</title>
<path fill="none" stroke="midnightblue" d="M156.02,-54C164.5,-54 173.15,-54 181.65,-54"/>
<polygon fill="midnightblue" stroke="midnightblue" points="181.92,-57.5 191.92,-54 181.92,-50.5 181.92,-57.5"/>
</g>
<!-- Node3 -->
<g id="node3" class="node">
<title>Node3</title>
<g id="a_node3"><a xlink:href="$classInputDevice.html#a1c4c65d9e509a5c3bde064871d7e1849" xlink:title=" ">
<polygon fill="white" stroke="black" points="542,-107.5 542,-126.5 691,-126.5 691,-107.5 542,-107.5"/>
<text text-anchor="middle" x="616.5" y="-114.5" font-family="Helvetica,sans-Serif" font-size="10.00">InputDevice::getJoystick_sets</text>
</a>
</g>
</g>
<!-- Node2&#45;&gt;Node3 -->
<g id="edge2" class="edge">
<title>Node2&#45;&gt;Node3</title>
<path fill="none" stroke="midnightblue" d="M326.84,-118.63C384.42,-118.31 468.94,-117.83 531.65,-117.47"/>
<polygon fill="midnightblue" stroke="midnightblue" points="531.93,-120.97 541.91,-117.42 531.89,-113.97 531.93,-120.97"/>
</g>
<!-- Node5 -->
<g id="node5" class="node">
<title>Node5</title>
<g id="a_node5"><a xlink:href="$classSetJoystick.html#a7ca499fe41a0a9841b4fe904b07cbc30" xlink:title=" ">
<polygon fill="white" stroke="black" points="559.5,-22.5 559.5,-41.5 673.5,-41.5 673.5,-22.5 559.5,-22.5"/>
<text text-anchor="middle" x="616.5" y="-29.5" font-family="Helvetica,sans-Serif" font-size="10.00">SetJoystick::getSticks</text>
</a>
</g>
</g>
<!-- Node4&#45;&gt;Node5 -->
<g id="edge4" class="edge">
<title>Node4&#45;&gt;Node5</title>
<path fill="none" stroke="midnightblue" d="M498.68,-17.6C514.95,-19.61 532.58,-21.78 549.09,-23.82"/>
<polygon fill="midnightblue" stroke="midnightblue" points="548.85,-27.31 559.21,-25.06 549.71,-20.36 548.85,-27.31"/>
</g>
<!-- Node6&#45;&gt;Node4 -->
<g id="edge6" class="edge">
<title>Node6&#45;&gt;Node4</title>
<path fill="none" stroke="midnightblue" d="M321.05,-38.98C342.84,-33.44 367.22,-27.24 387.82,-22"/>
<polygon fill="midnightblue" stroke="midnightblue" points="388.77,-25.37 397.6,-19.51 387.04,-18.59 388.77,-25.37"/>
</g>
<!-- Node7 -->
<g id="node7" class="node">
<title>Node7</title>
<g id="a_node7"><a xlink:href="$classInputDevice.html#aee4515edc1daad9be16eb4e25862ae25" xlink:title=" ">
<polygon fill="white" stroke="black" points="366,-88.5 366,-107.5 506,-107.5 506,-88.5 366,-88.5"/>
<text text-anchor="middle" x="436" y="-95.5" font-family="Helvetica,sans-Serif" font-size="10.00">InputDevice::getSetJoystick</text>
</a>
</g>
</g>
<!-- Node6&#45;&gt;Node7 -->
<g id="edge7" class="edge">
<title>Node6&#45;&gt;Node7</title>
<path fill="none" stroke="midnightblue" d="M321.05,-69.02C342.84,-74.56 367.22,-80.76 387.82,-86"/>
<polygon fill="midnightblue" stroke="midnightblue" points="387.04,-89.41 397.6,-88.49 388.77,-82.63 387.04,-89.41"/>
</g>
<!-- Node8 -->
<g id="node8" class="node">
<title>Node8</title>
<g id="a_node8"><a xlink:href="$classSetJoystick.html#adaabb617dba2a8ba29d146df36933ab1" xlink:title=" ">
<polygon fill="white" stroke="black" points="368,-39 368,-69 504,-69 504,-39 368,-39"/>
<text text-anchor="start" x="376" y="-57" font-family="Helvetica,sans-Serif" font-size="10.00">SetJoystick::removeControl</text>
<text text-anchor="middle" x="436" y="-46" font-family="Helvetica,sans-Serif" font-size="10.00">Stick</text>
</a>
</g>
</g>
<!-- Node6&#45;&gt;Node8 -->
<g id="edge9" class="edge">
<title>Node6&#45;&gt;Node8</title>
<path fill="none" stroke="midnightblue" d="M330.37,-54C339.36,-54 348.63,-54 357.75,-54"/>
<polygon fill="midnightblue" stroke="midnightblue" points="357.97,-57.5 367.97,-54 357.97,-50.5 357.97,-57.5"/>
</g>
<!-- Node7&#45;&gt;Node3 -->
<g id="edge8" class="edge">
<title>Node7&#45;&gt;Node3</title>
<path fill="none" stroke="midnightblue" d="M506.01,-105.35C514.47,-106.25 523.19,-107.17 531.84,-108.09"/>
<polygon fill="midnightblue" stroke="midnightblue" points="531.62,-111.59 541.94,-109.17 532.37,-104.63 531.62,-111.59"/>
</g>
<!-- Node8&#45;&gt;Node5 -->
<g id="edge10" class="edge">
<title>Node8&#45;&gt;Node5</title>
<path fill="none" stroke="midnightblue" d="M504.23,-45.71C519,-43.89 534.64,-41.97 549.37,-40.15"/>
<polygon fill="midnightblue" stroke="midnightblue" points="549.9,-43.61 559.4,-38.91 549.05,-36.66 549.9,-43.61"/>
</g>
</g>
</svg>
