<?xml version="1.0" encoding="UTF-8" standalone="no"?>
<!DOCTYPE svg PUBLIC "-//W3C//DTD SVG 1.1//EN"
 "http://www.w3.org/Graphics/SVG/1.1/DTD/svg11.dtd">
<!-- Generated by graphviz version 2.43.0 (0)
 -->
<!-- Title: JoyAxis::getDistanceFromDeadZone Pages: 1 -->
<svg width="529pt" height="88pt"
 viewBox="0.00 0.00 529.00 88.00" xmlns="http://www.w3.org/2000/svg" xmlns:xlink="http://www.w3.org/1999/xlink">
<g id="graph0" class="graph" transform="scale(1 1) rotate(0) translate(4 84)">
<title>JoyAxis::getDistanceFromDeadZone</title>
<polygon fill="white" stroke="transparent" points="-4,4 -4,-84 525,-84 525,4 -4,4"/>
<!-- Node1 -->
<g id="node1" class="node">
<title>Node1</title>
<g id="a_node1"><a xlink:title=" ">
<polygon fill="#bfbfbf" stroke="black" points="388,-24.5 388,-54.5 521,-54.5 521,-24.5 388,-24.5"/>
<text text-anchor="start" x="396" y="-42.5" font-family="Helvetica,sans-Serif" font-size="10.00">JoyAxis::getDistanceFrom</text>
<text text-anchor="middle" x="454.5" y="-31.5" font-family="Helvetica,sans-Serif" font-size="10.00">DeadZone</text>
</a>
</g>
</g>
<!-- Node2 -->
<g id="node2" class="node">
<title>Node2</title>
<g id="a_node2"><a xlink:href="$classJoyAxisButton.html#a1f5d5038f18c38e3cd7b53d618831f56" xlink:title="Get the distance that an element is away from its assigned dead zone.">
<polygon fill="white" stroke="black" points="208.5,-49.5 208.5,-79.5 347.5,-79.5 347.5,-49.5 208.5,-49.5"/>
<text text-anchor="start" x="216.5" y="-67.5" font-family="Helvetica,sans-Serif" font-size="10.00">JoyAxisButton::getDistance</text>
<text text-anchor="middle" x="278" y="-56.5" font-family="Helvetica,sans-Serif" font-size="10.00">FromDeadZone</text>
</a>
</g>
</g>
<!-- Node1&#45;&gt;Node2 -->
<g id="edge1" class="edge">
<title>Node1&#45;&gt;Node2</title>
<path fill="none" stroke="midnightblue" d="M377.34,-50.41C367.47,-51.82 357.41,-53.27 347.68,-54.66"/>
<polygon fill="midnightblue" stroke="midnightblue" points="378.13,-53.83 387.53,-48.95 377.13,-46.91 378.13,-53.83"/>
</g>
<!-- Node4 -->
<g id="node4" class="node">
<title>Node4</title>
<g id="a_node4"><a xlink:href="$classJoyAxisButton.html#a7bbc63efd1b9d52a38ae9188256f6166" xlink:title=" ">
<polygon fill="white" stroke="black" points="204,-0.5 204,-30.5 352,-30.5 352,-0.5 204,-0.5"/>
<text text-anchor="start" x="212" y="-18.5" font-family="Helvetica,sans-Serif" font-size="10.00">JoyAxisButton::getLastMouse</text>
<text text-anchor="middle" x="278" y="-7.5" font-family="Helvetica,sans-Serif" font-size="10.00">DistanceFromDeadZone</text>
</a>
</g>
</g>
<!-- Node1&#45;&gt;Node4 -->
<g id="edge3" class="edge">
<title>Node1&#45;&gt;Node4</title>
<path fill="none" stroke="midnightblue" d="M377.37,-29.03C368.97,-27.87 360.43,-26.7 352.07,-25.55"/>
<polygon fill="midnightblue" stroke="midnightblue" points="377.15,-32.53 387.53,-30.43 378.1,-25.6 377.15,-32.53"/>
</g>
<!-- Node3 -->
<g id="node3" class="node">
<title>Node3</title>
<g id="a_node3"><a xlink:href="$classJoyAxisButton.html#ae2f8659056c3f7c769a0b65efadc7351" xlink:title="Get the distance factor that should be used for mouse movement.">
<polygon fill="white" stroke="black" points="0,-49.5 0,-79.5 168,-79.5 168,-49.5 0,-49.5"/>
<text text-anchor="start" x="8" y="-67.5" font-family="Helvetica,sans-Serif" font-size="10.00">JoyAxisButton::getMouseDistance</text>
<text text-anchor="middle" x="84" y="-56.5" font-family="Helvetica,sans-Serif" font-size="10.00">FromDeadZone</text>
</a>
</g>
</g>
<!-- Node2&#45;&gt;Node3 -->
<g id="edge2" class="edge">
<title>Node2&#45;&gt;Node3</title>
<path fill="none" stroke="midnightblue" d="M198.29,-64.5C188.39,-64.5 178.23,-64.5 168.27,-64.5"/>
<polygon fill="midnightblue" stroke="midnightblue" points="198.5,-68 208.5,-64.5 198.5,-61 198.5,-68"/>
</g>
</g>
</svg>
