<?xml version="1.0" encoding="UTF-8" standalone="no"?>
<!DOCTYPE svg PUBLIC "-//W3C//DTD SVG 1.1//EN"
 "http://www.w3.org/Graphics/SVG/1.1/DTD/svg11.dtd">
<!-- Generated by graphviz version 2.43.0 (0)
 -->
<!-- Title: MainSettingsDialog::processAutoProfileActiveClick Pages: 1 -->
<svg width="842pt" height="275pt"
 viewBox="0.00 0.00 842.00 275.00" xmlns="http://www.w3.org/2000/svg" xmlns:xlink="http://www.w3.org/1999/xlink">
<g id="graph0" class="graph" transform="scale(1 1) rotate(0) translate(4 271)">
<title>MainSettingsDialog::processAutoProfileActiveClick</title>
<polygon fill="white" stroke="transparent" points="-4,4 -4,-271 838,-271 838,4 -4,4"/>
<!-- Node1 -->
<g id="node1" class="node">
<title>Node1</title>
<g id="a_node1"><a xlink:title=" ">
<polygon fill="#bfbfbf" stroke="black" points="702,-39 702,-80 834,-80 834,-39 702,-39"/>
<text text-anchor="start" x="710" y="-68" font-family="Helvetica,sans-Serif" font-size="10.00">MainSettingsDialog</text>
<text text-anchor="start" x="710" y="-57" font-family="Helvetica,sans-Serif" font-size="10.00">::processAutoProfileActive</text>
<text text-anchor="middle" x="768" y="-46" font-family="Helvetica,sans-Serif" font-size="10.00">Click</text>
</a>
</g>
</g>
<!-- Node2 -->
<g id="node2" class="node">
<title>Node2</title>
<g id="a_node2"><a xlink:href="$classMainSettingsDialog.html#af6cf8a841503ca703d48c336a8e2de4c" xlink:title=" ">
<polygon fill="white" stroke="black" points="516,-143.5 516,-173.5 666,-173.5 666,-143.5 516,-143.5"/>
<text text-anchor="start" x="524" y="-161.5" font-family="Helvetica,sans-Serif" font-size="10.00">MainSettingsDialog</text>
<text text-anchor="middle" x="591" y="-150.5" font-family="Helvetica,sans-Serif" font-size="10.00">::changeDeviceForProfileTable</text>
</a>
</g>
</g>
<!-- Node1&#45;&gt;Node2 -->
<g id="edge1" class="edge">
<title>Node1&#45;&gt;Node2</title>
<path fill="none" stroke="midnightblue" d="M721.8,-85.07C689.04,-103.6 645.88,-128.02 618.52,-143.5"/>
<polygon fill="midnightblue" stroke="midnightblue" points="723.76,-87.98 730.74,-80.01 720.31,-81.89 723.76,-87.98"/>
</g>
<!-- Node5 -->
<g id="node5" class="node">
<title>Node5</title>
<g id="a_node5"><a xlink:href="$classMainSettingsDialog.html#aeee272ff5482aca59310558ffdb9ebbe" xlink:title=" ">
<polygon fill="white" stroke="black" points="0,-167.5 0,-197.5 107,-197.5 107,-167.5 0,-167.5"/>
<text text-anchor="start" x="8" y="-185.5" font-family="Helvetica,sans-Serif" font-size="10.00">MainSettingsDialog</text>
<text text-anchor="middle" x="53.5" y="-174.5" font-family="Helvetica,sans-Serif" font-size="10.00">::MainSettingsDialog</text>
</a>
</g>
</g>
<!-- Node1&#45;&gt;Node5 -->
<g id="edge11" class="edge">
<title>Node1&#45;&gt;Node5</title>
<path fill="none" stroke="midnightblue" d="M691.67,-56.49C601.57,-54.32 446.54,-55.07 316,-78.5 236.45,-92.78 217.28,-102.66 143,-134.5 120.83,-144 96.85,-157.21 79.44,-167.36"/>
<polygon fill="midnightblue" stroke="midnightblue" points="691.71,-60 701.79,-56.76 691.89,-53 691.71,-60"/>
</g>
<!-- Node9 -->
<g id="node9" class="node">
<title>Node9</title>
<g id="a_node9"><a xlink:href="$classMainSettingsDialog.html#a44ca8872f2013476a550ea82f50037f9" xlink:title=" ">
<polygon fill="white" stroke="black" points="540.5,-0.5 540.5,-30.5 641.5,-30.5 641.5,-0.5 540.5,-0.5"/>
<text text-anchor="start" x="548.5" y="-18.5" font-family="Helvetica,sans-Serif" font-size="10.00">MainSettingsDialog</text>
<text text-anchor="middle" x="591" y="-7.5" font-family="Helvetica,sans-Serif" font-size="10.00">::resetAutoProfSett</text>
</a>
</g>
</g>
<!-- Node1&#45;&gt;Node9 -->
<g id="edge12" class="edge">
<title>Node1&#45;&gt;Node9</title>
<path fill="none" stroke="midnightblue" d="M691.92,-40.62C674.91,-36.35 657.27,-31.91 641.63,-27.98"/>
<polygon fill="midnightblue" stroke="midnightblue" points="691.28,-44.07 701.84,-43.12 692.99,-37.28 691.28,-44.07"/>
</g>
<!-- Node3 -->
<g id="node3" class="node">
<title>Node3</title>
<g id="a_node3"><a xlink:href="$classMainSettingsDialog.html#a93b08d27242d0c828ef66623b30b9645" xlink:title=" ">
<polygon fill="white" stroke="black" points="344.5,-236.5 344.5,-266.5 451.5,-266.5 451.5,-236.5 344.5,-236.5"/>
<text text-anchor="start" x="352.5" y="-254.5" font-family="Helvetica,sans-Serif" font-size="10.00">MainSettingsDialog</text>
<text text-anchor="middle" x="398" y="-243.5" font-family="Helvetica,sans-Serif" font-size="10.00">::addNewAutoProfile</text>
</a>
</g>
</g>
<!-- Node2&#45;&gt;Node3 -->
<g id="edge2" class="edge">
<title>Node2&#45;&gt;Node3</title>
<path fill="none" stroke="midnightblue" d="M557.43,-179.06C535.92,-192.15 506.86,-208.94 480,-221.5 468.45,-226.9 455.64,-232.02 443.68,-236.45"/>
<polygon fill="midnightblue" stroke="midnightblue" points="559.46,-181.91 566.15,-173.7 555.8,-175.95 559.46,-181.91"/>
</g>
<!-- Node2&#45;&gt;Node5 -->
<g id="edge5" class="edge">
<title>Node2&#45;&gt;Node5</title>
<path fill="none" stroke="midnightblue" d="M535.55,-176.43C518.01,-181.37 498.37,-186.04 480,-188.5 346.73,-206.35 187.89,-195.79 107.2,-188.19"/>
<polygon fill="midnightblue" stroke="midnightblue" points="536.97,-179.66 545.6,-173.5 535.02,-172.94 536.97,-179.66"/>
</g>
<!-- Node6 -->
<g id="node6" class="node">
<title>Node6</title>
<g id="a_node6"><a xlink:href="$classMainSettingsDialog.html#aaf6959912e05c9922d76c4dc7256dc9d" xlink:title=" ">
<polygon fill="white" stroke="black" points="337,-138 337,-179 459,-179 459,-138 337,-138"/>
<text text-anchor="start" x="345" y="-167" font-family="Helvetica,sans-Serif" font-size="10.00">MainSettingsDialog</text>
<text text-anchor="start" x="345" y="-156" font-family="Helvetica,sans-Serif" font-size="10.00">::transferAllProfileEditTo</text>
<text text-anchor="middle" x="398" y="-145" font-family="Helvetica,sans-Serif" font-size="10.00">CurrentTableRow</text>
</a>
</g>
</g>
<!-- Node2&#45;&gt;Node6 -->
<g id="edge6" class="edge">
<title>Node2&#45;&gt;Node6</title>
<path fill="none" stroke="midnightblue" d="M505.67,-158.5C490.01,-158.5 473.95,-158.5 459.19,-158.5"/>
<polygon fill="midnightblue" stroke="midnightblue" points="505.88,-162 515.88,-158.5 505.88,-155 505.88,-162"/>
</g>
<!-- Node8 -->
<g id="node8" class="node">
<title>Node8</title>
<g id="a_node8"><a xlink:href="$classMainSettingsDialog.html#a4436dd11af937b91f0c1c6f18601d976" xlink:title=" ">
<polygon fill="white" stroke="black" points="316,-88.5 316,-118.5 480,-118.5 480,-88.5 316,-88.5"/>
<text text-anchor="start" x="324" y="-106.5" font-family="Helvetica,sans-Serif" font-size="10.00">MainSettingsDialog</text>
<text text-anchor="middle" x="398" y="-95.5" font-family="Helvetica,sans-Serif" font-size="10.00">::transferEditsToCurrentTableRow</text>
</a>
</g>
</g>
<!-- Node2&#45;&gt;Node8 -->
<g id="edge9" class="edge">
<title>Node2&#45;&gt;Node8</title>
<path fill="none" stroke="midnightblue" d="M528.11,-140.68C503.25,-133.52 474.91,-125.36 451.13,-118.51"/>
<polygon fill="midnightblue" stroke="midnightblue" points="527.23,-144.07 537.81,-143.47 529.17,-137.34 527.23,-144.07"/>
</g>
<!-- Node4 -->
<g id="node4" class="node">
<title>Node4</title>
<g id="a_node4"><a xlink:href="$classMainSettingsDialog.html#a8395cc7c66e5b30092f4b36f3e47a808" xlink:title=" ">
<polygon fill="white" stroke="black" points="143,-236.5 143,-266.5 280,-266.5 280,-236.5 143,-236.5"/>
<text text-anchor="start" x="151" y="-254.5" font-family="Helvetica,sans-Serif" font-size="10.00">MainSettingsDialog</text>
<text text-anchor="middle" x="211.5" y="-243.5" font-family="Helvetica,sans-Serif" font-size="10.00">::openAddAutoProfileDialog</text>
</a>
</g>
</g>
<!-- Node3&#45;&gt;Node4 -->
<g id="edge3" class="edge">
<title>Node3&#45;&gt;Node4</title>
<path fill="none" stroke="midnightblue" d="M334.11,-251.5C316.74,-251.5 297.83,-251.5 280.21,-251.5"/>
<polygon fill="midnightblue" stroke="midnightblue" points="334.13,-255 344.13,-251.5 334.13,-248 334.13,-255"/>
</g>
<!-- Node4&#45;&gt;Node5 -->
<g id="edge4" class="edge">
<title>Node4&#45;&gt;Node5</title>
<path fill="none" stroke="midnightblue" d="M167.08,-232.3C142.31,-221.34 111.7,-207.8 88.66,-197.61"/>
<polygon fill="midnightblue" stroke="midnightblue" points="165.7,-235.51 176.27,-236.36 168.54,-229.11 165.7,-235.51"/>
</g>
<!-- Node7 -->
<g id="node7" class="node">
<title>Node7</title>
<g id="a_node7"><a xlink:href="$classMainSettingsDialog.html#ad5b67a6742eafcd666fc73752f94a638" xlink:title=" ">
<polygon fill="white" stroke="black" points="143,-143.5 143,-173.5 280,-173.5 280,-143.5 143,-143.5"/>
<text text-anchor="start" x="151" y="-161.5" font-family="Helvetica,sans-Serif" font-size="10.00">MainSettingsDialog</text>
<text text-anchor="middle" x="211.5" y="-150.5" font-family="Helvetica,sans-Serif" font-size="10.00">::openEditAutoProfileDialog</text>
</a>
</g>
</g>
<!-- Node6&#45;&gt;Node7 -->
<g id="edge7" class="edge">
<title>Node6&#45;&gt;Node7</title>
<path fill="none" stroke="midnightblue" d="M326.49,-158.5C311.32,-158.5 295.31,-158.5 280.25,-158.5"/>
<polygon fill="midnightblue" stroke="midnightblue" points="326.84,-162 336.84,-158.5 326.84,-155 326.84,-162"/>
</g>
<!-- Node7&#45;&gt;Node5 -->
<g id="edge8" class="edge">
<title>Node7&#45;&gt;Node5</title>
<path fill="none" stroke="midnightblue" d="M133.07,-170.41C124.26,-171.77 115.45,-173.12 107.07,-174.41"/>
<polygon fill="midnightblue" stroke="midnightblue" points="133.63,-173.87 142.98,-168.89 132.57,-166.95 133.63,-173.87"/>
</g>
<!-- Node8&#45;&gt;Node7 -->
<g id="edge10" class="edge">
<title>Node8&#45;&gt;Node7</title>
<path fill="none" stroke="midnightblue" d="M336.9,-121.42C312.96,-128.55 285.73,-136.67 262.85,-143.49"/>
<polygon fill="midnightblue" stroke="midnightblue" points="338,-124.74 346.58,-118.53 336,-118.03 338,-124.74"/>
</g>
<!-- Node10 -->
<g id="node10" class="node">
<title>Node10</title>
<g id="a_node10"><a xlink:href="$classMainSettingsDialog.html#abc72f49787d551981e5d7569635115ad" xlink:title=" ">
<polygon fill="white" stroke="black" points="343,-0.5 343,-30.5 453,-30.5 453,-0.5 343,-0.5"/>
<text text-anchor="start" x="351" y="-18.5" font-family="Helvetica,sans-Serif" font-size="10.00">MainSettingsDialog</text>
<text text-anchor="middle" x="398" y="-7.5" font-family="Helvetica,sans-Serif" font-size="10.00">::on_resetBtn_clicked</text>
</a>
</g>
</g>
<!-- Node9&#45;&gt;Node10 -->
<g id="edge13" class="edge">
<title>Node9&#45;&gt;Node10</title>
<path fill="none" stroke="midnightblue" d="M530.01,-15.5C505.4,-15.5 477.11,-15.5 453.13,-15.5"/>
<polygon fill="midnightblue" stroke="midnightblue" points="530.32,-19 540.32,-15.5 530.32,-12 530.32,-19"/>
</g>
</g>
</svg>
