<?xml version="1.0" encoding="UTF-8" standalone="no"?>
<!DOCTYPE svg PUBLIC "-//W3C//DTD SVG 1.1//EN"
 "http://www.w3.org/Graphics/SVG/1.1/DTD/svg11.dtd">
<!-- Generated by graphviz version 2.43.0 (0)
 -->
<!-- Title: JoyControlStick::getStickDelay Pages: 1 -->
<svg width="505pt" height="61pt"
 viewBox="0.00 0.00 505.00 61.00" xmlns="http://www.w3.org/2000/svg" xmlns:xlink="http://www.w3.org/1999/xlink">
<g id="graph0" class="graph" transform="scale(1 1) rotate(0) translate(4 57)">
<title>JoyControlStick::getStickDelay</title>
<polygon fill="white" stroke="transparent" points="-4,4 -4,-57 501,-57 501,4 -4,4"/>
<!-- Node1 -->
<g id="node1" class="node">
<title>Node1</title>
<g id="a_node1"><a xlink:title=" ">
<polygon fill="#bfbfbf" stroke="black" points="369,-22.5 369,-52.5 497,-52.5 497,-22.5 369,-22.5"/>
<text text-anchor="start" x="377" y="-40.5" font-family="Helvetica,sans-Serif" font-size="10.00">JoyControlStick::getStick</text>
<text text-anchor="middle" x="433" y="-29.5" font-family="Helvetica,sans-Serif" font-size="10.00">Delay</text>
</a>
</g>
</g>
<!-- Node2 -->
<g id="node2" class="node">
<title>Node2</title>
<g id="a_node2"><a xlink:href="$classJoyControlStickEditDialog.html#a2baa35c50ff7528a03ec6f2ba1ed657d" xlink:title=" ">
<polygon fill="white" stroke="black" points="0,-22.5 0,-52.5 137,-52.5 137,-22.5 0,-22.5"/>
<text text-anchor="start" x="8" y="-40.5" font-family="Helvetica,sans-Serif" font-size="10.00">JoyControlStickEditDialog</text>
<text text-anchor="middle" x="68.5" y="-29.5" font-family="Helvetica,sans-Serif" font-size="10.00">::JoyControlStickEditDialog</text>
</a>
</g>
</g>
<!-- Node1&#45;&gt;Node2 -->
<g id="edge1" class="edge">
<title>Node1&#45;&gt;Node2</title>
<path fill="none" stroke="midnightblue" d="M358.76,-39.97C350.08,-40.19 341.34,-40.37 333,-40.5 261.9,-41.58 244.1,-41.53 173,-40.5 161.41,-40.33 149.08,-40.06 137.14,-39.74"/>
<polygon fill="midnightblue" stroke="midnightblue" points="358.99,-43.46 368.9,-39.7 358.81,-36.47 358.99,-43.46"/>
</g>
<!-- Node3 -->
<g id="node3" class="node">
<title>Node3</title>
<g id="a_node3"><a xlink:href="$classJoyControlStickEditDialogHelper.html#aa89c6dafde2e62360d537b05f3cc19c0" xlink:title=" ">
<polygon fill="white" stroke="black" points="173,-0.5 173,-30.5 333,-30.5 333,-0.5 173,-0.5"/>
<text text-anchor="start" x="181" y="-18.5" font-family="Helvetica,sans-Serif" font-size="10.00">JoyControlStickEditDialog</text>
<text text-anchor="middle" x="253" y="-7.5" font-family="Helvetica,sans-Serif" font-size="10.00">Helper::updateControlStickDelay</text>
</a>
</g>
</g>
<!-- Node1&#45;&gt;Node3 -->
<g id="edge2" class="edge">
<title>Node1&#45;&gt;Node3</title>
<path fill="none" stroke="midnightblue" d="M358.79,-28.45C350.33,-27.41 341.68,-26.34 333.14,-25.28"/>
<polygon fill="midnightblue" stroke="midnightblue" points="358.64,-31.96 368.99,-29.71 359.5,-25.01 358.64,-31.96"/>
</g>
<!-- Node3&#45;&gt;Node2 -->
<g id="edge3" class="edge">
<title>Node3&#45;&gt;Node2</title>
<path fill="none" stroke="midnightblue" d="M162.72,-26.26C154.15,-27.3 145.56,-28.33 137.25,-29.33"/>
<polygon fill="midnightblue" stroke="midnightblue" points="163.24,-29.73 172.75,-25.05 162.4,-22.78 163.24,-29.73"/>
</g>
</g>
</svg>
