<?xml version="1.0" encoding="UTF-8" standalone="no"?>
<!DOCTYPE svg PUBLIC "-//W3C//DTD SVG 1.1//EN"
 "http://www.w3.org/Graphics/SVG/1.1/DTD/svg11.dtd">
<!-- Generated by graphviz version 2.43.0 (0)
 -->
<!-- Title: /home/pawel/antimicrox/src/mousedialog Pages: 1 -->
<svg width="208pt" height="183pt"
 viewBox="0.00 0.00 208.00 183.00" xmlns="http://www.w3.org/2000/svg" xmlns:xlink="http://www.w3.org/1999/xlink">
<g id="graph0" class="graph" transform="scale(1 1) rotate(0) translate(4 179)">
<title>/home/pawel/antimicrox/src/mousedialog</title>
<polygon fill="white" stroke="transparent" points="-4,4 -4,-179 204,-179 204,4 -4,4"/>
<g id="clust1" class="cluster">
<title>clusterdir_68267d1309a1af8e8297ef4c3efbcdba</title>
<g id="a_clust1"><a xlink:href="dir_68267d1309a1af8e8297ef4c3efbcdba.html" xlink:title="src">
<polygon fill="#ddddee" stroke="black" points="8,-8 8,-167 112,-167 112,-8 8,-8"/>
<text text-anchor="middle" x="60" y="-155" font-family="Helvetica,sans-Serif" font-size="10.00">src</text>
</a>
</g>
</g>
<g id="clust2" class="cluster">
<title>clusterdir_7da2a409898ddb5fdf292c7bb37fd82b</title>
<g id="a_clust2"><a xlink:href="dir_7da2a409898ddb5fdf292c7bb37fd82b.html">
<polygon fill="#eeeeff" stroke="black" points="16,-16 16,-140 104,-140 104,-16 16,-16"/>
</a>
</g>
</g>
<!-- dir_7da2a409898ddb5fdf292c7bb37fd82b -->
<g id="node1" class="node">
<title>dir_7da2a409898ddb5fdf292c7bb37fd82b</title>
<text text-anchor="middle" x="60" y="-111.5" font-family="Helvetica,sans-Serif" font-size="10.00">mousedialog</text>
</g>
<!-- dir_4299a579fb76121bc24126b61315a410 -->
<g id="node2" class="node">
<title>dir_4299a579fb76121bc24126b61315a410</title>
<g id="a_node2"><a xlink:href="dir_4299a579fb76121bc24126b61315a410.html" xlink:title="uihelpers">
<polygon fill="white" stroke="black" points="88,-60 32,-60 32,-24 88,-24 88,-60"/>
<text text-anchor="middle" x="60" y="-39.5" font-family="Helvetica,sans-Serif" font-size="10.00">uihelpers</text>
</a>
</g>
</g>
<!-- dir_7da2a409898ddb5fdf292c7bb37fd82b&#45;&gt;dir_4299a579fb76121bc24126b61315a410 -->
<g id="edge2" class="edge">
<title>dir_7da2a409898ddb5fdf292c7bb37fd82b&#45;&gt;dir_4299a579fb76121bc24126b61315a410</title>
<path fill="none" stroke="black" d="M60,-95.7C60,-87.98 60,-78.71 60,-70.11"/>
<polygon fill="black" stroke="black" points="63.5,-70.1 60,-60.1 56.5,-70.1 63.5,-70.1"/>
<g id="a_edge2&#45;headlabel"><a xlink:href="dir_000008_000009.html" xlink:title="4">
<text text-anchor="middle" x="66.34" y="-71.2" font-family="Helvetica,sans-Serif" font-size="10.00">4</text>
</a>
</g>
</g>
<!-- dir_7e98ab78f7c4c69c748bca1aedeab2ac -->
<g id="node3" class="node">
<title>dir_7e98ab78f7c4c69c748bca1aedeab2ac</title>
<g id="a_node3"><a xlink:href="dir_7e98ab78f7c4c69c748bca1aedeab2ac.html" xlink:title="joybuttontypes">
<polygon fill="none" stroke="black" points="200,-60 120,-60 120,-24 200,-24 200,-60"/>
<text text-anchor="middle" x="160" y="-39.5" font-family="Helvetica,sans-Serif" font-size="10.00">joybuttontypes</text>
</a>
</g>
</g>
<!-- dir_7da2a409898ddb5fdf292c7bb37fd82b&#45;&gt;dir_7e98ab78f7c4c69c748bca1aedeab2ac -->
<g id="edge1" class="edge">
<title>dir_7da2a409898ddb5fdf292c7bb37fd82b&#45;&gt;dir_7e98ab78f7c4c69c748bca1aedeab2ac</title>
<path fill="none" stroke="black" d="M84.46,-95.88C97.3,-86.89 113.2,-75.76 127.09,-66.03"/>
<polygon fill="black" stroke="black" points="129.26,-68.79 135.44,-60.19 125.24,-63.06 129.26,-68.79"/>
<g id="a_edge1&#45;headlabel"><a xlink:href="dir_000008_000006.html" xlink:title="1">
<text text-anchor="middle" x="127.94" y="-70.68" font-family="Helvetica,sans-Serif" font-size="10.00">1</text>
</a>
</g>
</g>
</g>
</svg>
