<?xml version="1.0" encoding="UTF-8" standalone="no"?>
<!DOCTYPE svg PUBLIC "-//W3C//DTD SVG 1.1//EN"
 "http://www.w3.org/Graphics/SVG/1.1/DTD/svg11.dtd">
<!-- Generated by graphviz version 2.43.0 (0)
 -->
<!-- Title: /home/pawel/antimicrox/src/joycontrolstickstatusbox.cpp Pages: 1 -->
<svg width="1752pt" height="375pt"
 viewBox="0.00 0.00 1752.00 375.00" xmlns="http://www.w3.org/2000/svg" xmlns:xlink="http://www.w3.org/1999/xlink">
<g id="graph0" class="graph" transform="scale(1 1) rotate(0) translate(4 371)">
<title>/home/pawel/antimicrox/src/joycontrolstickstatusbox.cpp</title>
<polygon fill="white" stroke="transparent" points="-4,4 -4,-371 1748,-371 1748,4 -4,4"/>
<!-- Node1 -->
<g id="node1" class="node">
<title>Node1</title>
<g id="a_node1"><a xlink:title=" ">
<polygon fill="#bfbfbf" stroke="black" points="865,-336.5 865,-366.5 1024,-366.5 1024,-336.5 865,-336.5"/>
<text text-anchor="start" x="873" y="-354.5" font-family="Helvetica,sans-Serif" font-size="10.00">/home/pawel/antimicrox</text>
<text text-anchor="middle" x="944.5" y="-343.5" font-family="Helvetica,sans-Serif" font-size="10.00">/src/joycontrolstickstatusbox.cpp</text>
</a>
</g>
</g>
<!-- Node2 -->
<g id="node2" class="node">
<title>Node2</title>
<g id="a_node2"><a xlink:href="$joycontrolstickstatusbox_8h.html" xlink:title=" ">
<polygon fill="white" stroke="black" points="5,-280.5 5,-299.5 134,-299.5 134,-280.5 5,-280.5"/>
<text text-anchor="middle" x="69.5" y="-287.5" font-family="Helvetica,sans-Serif" font-size="10.00">joycontrolstickstatusbox.h</text>
</a>
</g>
</g>
<!-- Node1&#45;&gt;Node2 -->
<g id="edge1" class="edge">
<title>Node1&#45;&gt;Node2</title>
<path fill="none" stroke="midnightblue" d="M864.75,-346.76C721.28,-339.75 410.23,-323.2 148.5,-300 147.19,-299.88 145.86,-299.76 144.52,-299.64"/>
<polygon fill="midnightblue" stroke="midnightblue" points="144.43,-296.11 134.14,-298.63 143.76,-303.08 144.43,-296.11"/>
</g>
<!-- Node5 -->
<g id="node5" class="node">
<title>Node5</title>
<g id="a_node5"><a xlink:href="$common_8h.html" xlink:title=" ">
<polygon fill="white" stroke="black" points="1398.5,-224.5 1398.5,-243.5 1460.5,-243.5 1460.5,-224.5 1398.5,-224.5"/>
<text text-anchor="middle" x="1429.5" y="-231.5" font-family="Helvetica,sans-Serif" font-size="10.00">common.h</text>
</a>
</g>
</g>
<!-- Node1&#45;&gt;Node5 -->
<g id="edge4" class="edge">
<title>Node1&#45;&gt;Node5</title>
<path fill="none" stroke="midnightblue" d="M936.38,-336.4C928.48,-320.62 919.55,-295.27 933.5,-280 963.93,-246.68 1274.49,-237.78 1388.13,-235.63"/>
<polygon fill="midnightblue" stroke="midnightblue" points="1388.25,-239.13 1398.18,-235.45 1388.12,-232.13 1388.25,-239.13"/>
</g>
<!-- Node24 -->
<g id="node24" class="node">
<title>Node24</title>
<g id="a_node24"><a xlink:href="$globalvariables_8h.html" xlink:title=" ">
<polygon fill="white" stroke="black" points="229,-56.5 229,-75.5 318,-75.5 318,-56.5 229,-56.5"/>
<text text-anchor="middle" x="273.5" y="-63.5" font-family="Helvetica,sans-Serif" font-size="10.00">globalvariables.h</text>
</a>
</g>
</g>
<!-- Node1&#45;&gt;Node24 -->
<g id="edge25" class="edge">
<title>Node1&#45;&gt;Node24</title>
<path fill="none" stroke="midnightblue" d="M864.89,-345.71C680.25,-333.55 238.5,-297.88 238.5,-235 238.5,-235 238.5,-235 238.5,-177 238.5,-143.07 253.81,-105.91 264.18,-84.63"/>
<polygon fill="midnightblue" stroke="midnightblue" points="267.38,-86.05 268.78,-75.54 261.14,-82.88 267.38,-86.05"/>
</g>
<!-- Node25 -->
<g id="node25" class="node">
<title>Node25</title>
<g id="a_node25"><a xlink:title=" ">
<polygon fill="white" stroke="#bfbfbf" points="166.5,-0.5 166.5,-19.5 206.5,-19.5 206.5,-0.5 166.5,-0.5"/>
<text text-anchor="middle" x="186.5" y="-7.5" font-family="Helvetica,sans-Serif" font-size="10.00">QList</text>
</a>
</g>
</g>
<!-- Node1&#45;&gt;Node25 -->
<g id="edge57" class="edge">
<title>Node1&#45;&gt;Node25</title>
<path fill="none" stroke="midnightblue" d="M864.88,-347.06C721.02,-340.33 423.36,-323.98 322.5,-300 247.83,-282.24 162.5,-311.76 162.5,-235 162.5,-235 162.5,-235 162.5,-121 162.5,-88.06 172.9,-50.82 180.01,-29.21"/>
<polygon fill="midnightblue" stroke="midnightblue" points="183.34,-30.29 183.26,-19.7 176.72,-28.03 183.34,-30.29"/>
</g>
<!-- Node26 -->
<g id="node26" class="node">
<title>Node26</title>
<g id="a_node26"><a xlink:href="$joyaxis_8h.html" xlink:title=" ">
<polygon fill="white" stroke="black" points="724.5,-280.5 724.5,-299.5 780.5,-299.5 780.5,-280.5 724.5,-280.5"/>
<text text-anchor="middle" x="752.5" y="-287.5" font-family="Helvetica,sans-Serif" font-size="10.00">joyaxis.h</text>
</a>
</g>
</g>
<!-- Node1&#45;&gt;Node26 -->
<g id="edge28" class="edge">
<title>Node1&#45;&gt;Node26</title>
<path fill="none" stroke="midnightblue" d="M899,-336.4C865.68,-326.07 821.01,-312.23 789.79,-302.56"/>
<polygon fill="midnightblue" stroke="midnightblue" points="790.75,-299.19 780.16,-299.57 788.67,-305.87 790.75,-299.19"/>
</g>
<!-- Node42 -->
<g id="node42" class="node">
<title>Node42</title>
<g id="a_node42"><a xlink:href="$joycontrolstick_8h.html" xlink:title=" ">
<polygon fill="white" stroke="black" points="799,-280.5 799,-299.5 886,-299.5 886,-280.5 799,-280.5"/>
<text text-anchor="middle" x="842.5" y="-287.5" font-family="Helvetica,sans-Serif" font-size="10.00">joycontrolstick.h</text>
</a>
</g>
</g>
<!-- Node1&#45;&gt;Node42 -->
<g id="edge51" class="edge">
<title>Node1&#45;&gt;Node42</title>
<path fill="none" stroke="midnightblue" d="M920.33,-336.4C903.98,-326.86 882.49,-314.32 866.23,-304.84"/>
<polygon fill="midnightblue" stroke="midnightblue" points="867.74,-301.67 857.34,-299.66 864.22,-307.72 867.74,-301.67"/>
</g>
<!-- Node44 -->
<g id="node44" class="node">
<title>Node44</title>
<g id="a_node44"><a xlink:title=" ">
<polygon fill="white" stroke="#bfbfbf" points="942.5,-280.5 942.5,-299.5 1006.5,-299.5 1006.5,-280.5 942.5,-280.5"/>
<text text-anchor="middle" x="974.5" y="-287.5" font-family="Helvetica,sans-Serif" font-size="10.00">qdrawutil.h</text>
</a>
</g>
</g>
<!-- Node1&#45;&gt;Node44 -->
<g id="edge54" class="edge">
<title>Node1&#45;&gt;Node44</title>
<path fill="none" stroke="midnightblue" d="M951.61,-336.4C955.79,-328.11 961.11,-317.55 965.57,-308.71"/>
<polygon fill="midnightblue" stroke="midnightblue" points="968.76,-310.16 970.13,-299.66 962.51,-307.01 968.76,-310.16"/>
</g>
<!-- Node45 -->
<g id="node45" class="node">
<title>Node45</title>
<g id="a_node45"><a xlink:title=" ">
<polygon fill="white" stroke="#bfbfbf" points="1025,-280.5 1025,-299.5 1078,-299.5 1078,-280.5 1025,-280.5"/>
<text text-anchor="middle" x="1051.5" y="-287.5" font-family="Helvetica,sans-Serif" font-size="10.00">QDebug</text>
</a>
</g>
</g>
<!-- Node1&#45;&gt;Node45 -->
<g id="edge55" class="edge">
<title>Node1&#45;&gt;Node45</title>
<path fill="none" stroke="midnightblue" d="M969.86,-336.4C987.17,-326.77 1009.98,-314.09 1027.08,-304.58"/>
<polygon fill="midnightblue" stroke="midnightblue" points="1028.89,-307.58 1035.93,-299.66 1025.49,-301.46 1028.89,-307.58"/>
</g>
<!-- Node46 -->
<g id="node46" class="node">
<title>Node46</title>
<g id="a_node46"><a xlink:title=" ">
<polygon fill="white" stroke="#bfbfbf" points="1096,-280.5 1096,-299.5 1183,-299.5 1183,-280.5 1096,-280.5"/>
<text text-anchor="middle" x="1139.5" y="-287.5" font-family="Helvetica,sans-Serif" font-size="10.00">QLinearGradient</text>
</a>
</g>
</g>
<!-- Node1&#45;&gt;Node46 -->
<g id="edge56" class="edge">
<title>Node1&#45;&gt;Node46</title>
<path fill="none" stroke="midnightblue" d="M990.71,-336.4C1024.55,-326.07 1069.92,-312.23 1101.63,-302.56"/>
<polygon fill="midnightblue" stroke="midnightblue" points="1102.87,-305.84 1111.41,-299.57 1100.82,-299.14 1102.87,-305.84"/>
</g>
<!-- Node47 -->
<g id="node47" class="node">
<title>Node47</title>
<g id="a_node47"><a xlink:title=" ">
<polygon fill="white" stroke="#bfbfbf" points="1201,-280.5 1201,-299.5 1272,-299.5 1272,-280.5 1201,-280.5"/>
<text text-anchor="middle" x="1236.5" y="-287.5" font-family="Helvetica,sans-Serif" font-size="10.00">QPaintEvent</text>
</a>
</g>
</g>
<!-- Node1&#45;&gt;Node47 -->
<g id="edge58" class="edge">
<title>Node1&#45;&gt;Node47</title>
<path fill="none" stroke="midnightblue" d="M1013.46,-336.48C1060.79,-326.84 1125.34,-313.7 1190.86,-300.33"/>
<polygon fill="midnightblue" stroke="midnightblue" points="1191.86,-303.7 1200.96,-298.27 1190.46,-296.84 1191.86,-303.7"/>
</g>
<!-- Node48 -->
<g id="node48" class="node">
<title>Node48</title>
<g id="a_node48"><a xlink:title=" ">
<polygon fill="white" stroke="#bfbfbf" points="1290,-280.5 1290,-299.5 1345,-299.5 1345,-280.5 1290,-280.5"/>
<text text-anchor="middle" x="1317.5" y="-287.5" font-family="Helvetica,sans-Serif" font-size="10.00">QPainter</text>
</a>
</g>
</g>
<!-- Node1&#45;&gt;Node48 -->
<g id="edge59" class="edge">
<title>Node1&#45;&gt;Node48</title>
<path fill="none" stroke="midnightblue" d="M1024.2,-340.76C1090.38,-332.16 1187.15,-318.42 1279.83,-300.2"/>
<polygon fill="midnightblue" stroke="midnightblue" points="1280.53,-303.63 1289.65,-298.24 1279.16,-296.76 1280.53,-303.63"/>
</g>
<!-- Node49 -->
<g id="node49" class="node">
<title>Node49</title>
<g id="a_node49"><a xlink:title=" ">
<polygon fill="white" stroke="#bfbfbf" points="1363.5,-280.5 1363.5,-299.5 1433.5,-299.5 1433.5,-280.5 1363.5,-280.5"/>
<text text-anchor="middle" x="1398.5" y="-287.5" font-family="Helvetica,sans-Serif" font-size="10.00">QSizePolicy</text>
</a>
</g>
</g>
<!-- Node1&#45;&gt;Node49 -->
<g id="edge60" class="edge">
<title>Node1&#45;&gt;Node49</title>
<path fill="none" stroke="midnightblue" d="M1024.13,-342.58C1104.67,-334.14 1232.94,-319.53 1353.35,-300.08"/>
<polygon fill="midnightblue" stroke="midnightblue" points="1354.18,-303.49 1363.48,-298.42 1353.05,-296.58 1354.18,-303.49"/>
</g>
<!-- Node3 -->
<g id="node3" class="node">
<title>Node3</title>
<g id="a_node3"><a xlink:title=" ">
<polygon fill="white" stroke="#bfbfbf" points="0,-224.5 0,-243.5 43,-243.5 43,-224.5 0,-224.5"/>
<text text-anchor="middle" x="21.5" y="-231.5" font-family="Helvetica,sans-Serif" font-size="10.00">QSize</text>
</a>
</g>
</g>
<!-- Node2&#45;&gt;Node3 -->
<g id="edge2" class="edge">
<title>Node2&#45;&gt;Node3</title>
<path fill="none" stroke="midnightblue" d="M61.57,-280.08C54.65,-272.3 44.43,-260.8 36.05,-251.37"/>
<polygon fill="midnightblue" stroke="midnightblue" points="38.54,-248.9 29.28,-243.75 33.31,-253.55 38.54,-248.9"/>
</g>
<!-- Node4 -->
<g id="node4" class="node">
<title>Node4</title>
<g id="a_node4"><a xlink:title=" ">
<polygon fill="white" stroke="#bfbfbf" points="61,-224.5 61,-243.5 116,-243.5 116,-224.5 61,-224.5"/>
<text text-anchor="middle" x="88.5" y="-231.5" font-family="Helvetica,sans-Serif" font-size="10.00">QWidget</text>
</a>
</g>
</g>
<!-- Node2&#45;&gt;Node4 -->
<g id="edge3" class="edge">
<title>Node2&#45;&gt;Node4</title>
<path fill="none" stroke="midnightblue" d="M72.64,-280.08C75.18,-272.85 78.86,-262.41 82.03,-253.4"/>
<polygon fill="midnightblue" stroke="midnightblue" points="85.4,-254.35 85.42,-243.75 78.8,-252.02 85.4,-254.35"/>
</g>
<!-- Node6 -->
<g id="node6" class="node">
<title>Node6</title>
<g id="a_node6"><a xlink:href="$antimicrosettings_8h.html" xlink:title=" ">
<polygon fill="white" stroke="black" points="1301,-168.5 1301,-187.5 1400,-187.5 1400,-168.5 1301,-168.5"/>
<text text-anchor="middle" x="1350.5" y="-175.5" font-family="Helvetica,sans-Serif" font-size="10.00">antimicrosettings.h</text>
</a>
</g>
</g>
<!-- Node5&#45;&gt;Node6 -->
<g id="edge5" class="edge">
<title>Node5&#45;&gt;Node6</title>
<path fill="none" stroke="midnightblue" d="M1416.81,-224.32C1404.6,-215.98 1385.92,-203.21 1371.5,-193.35"/>
<polygon fill="midnightblue" stroke="midnightblue" points="1373.39,-190.41 1363.16,-187.65 1369.44,-196.19 1373.39,-190.41"/>
</g>
<!-- Node14 -->
<g id="node14" class="node">
<title>Node14</title>
<g id="a_node14"><a xlink:title=" ">
<polygon fill="white" stroke="#bfbfbf" points="1384.5,-0.5 1384.5,-19.5 1438.5,-19.5 1438.5,-0.5 1384.5,-0.5"/>
<text text-anchor="middle" x="1411.5" y="-7.5" font-family="Helvetica,sans-Serif" font-size="10.00">QThread</text>
</a>
</g>
</g>
<!-- Node5&#45;&gt;Node14 -->
<g id="edge22" class="edge">
<title>Node5&#45;&gt;Node14</title>
<path fill="none" stroke="midnightblue" d="M1428.79,-224.3C1426.15,-191.63 1416.76,-75.87 1413.04,-29.96"/>
<polygon fill="midnightblue" stroke="midnightblue" points="1416.52,-29.57 1412.22,-19.88 1409.54,-30.13 1416.52,-29.57"/>
</g>
<!-- Node17 -->
<g id="node17" class="node">
<title>Node17</title>
<g id="a_node17"><a xlink:title=" ">
<polygon fill="white" stroke="#bfbfbf" points="1232,-168.5 1232,-187.5 1283,-187.5 1283,-168.5 1232,-168.5"/>
<text text-anchor="middle" x="1257.5" y="-175.5" font-family="Helvetica,sans-Serif" font-size="10.00">config.h</text>
</a>
</g>
</g>
<!-- Node5&#45;&gt;Node17 -->
<g id="edge16" class="edge">
<title>Node5&#45;&gt;Node17</title>
<path fill="none" stroke="midnightblue" d="M1402.25,-224.44C1372.63,-215.15 1325.21,-200.26 1292.77,-190.07"/>
<polygon fill="midnightblue" stroke="midnightblue" points="1293.81,-186.73 1283.22,-187.08 1291.71,-193.41 1293.81,-186.73"/>
</g>
<!-- Node18 -->
<g id="node18" class="node">
<title>Node18</title>
<g id="a_node18"><a xlink:href="$mousehelper_8h.html" xlink:title=" ">
<polygon fill="white" stroke="black" points="1120.5,-112.5 1120.5,-131.5 1200.5,-131.5 1200.5,-112.5 1120.5,-112.5"/>
<text text-anchor="middle" x="1160.5" y="-119.5" font-family="Helvetica,sans-Serif" font-size="10.00">mousehelper.h</text>
</a>
</g>
</g>
<!-- Node5&#45;&gt;Node18 -->
<g id="edge17" class="edge">
<title>Node5&#45;&gt;Node18</title>
<path fill="none" stroke="midnightblue" d="M1398.21,-231.75C1356.05,-228.86 1279.79,-219.34 1223.5,-188 1202.35,-176.22 1183.84,-155.09 1172.46,-140.12"/>
<polygon fill="midnightblue" stroke="midnightblue" points="1175.05,-137.74 1166.33,-131.73 1169.4,-141.87 1175.05,-137.74"/>
</g>
<!-- Node20 -->
<g id="node20" class="node">
<title>Node20</title>
<g id="a_node20"><a xlink:title=" ">
<polygon fill="white" stroke="#bfbfbf" points="1458,-168.5 1458,-187.5 1495,-187.5 1495,-168.5 1458,-168.5"/>
<text text-anchor="middle" x="1476.5" y="-175.5" font-family="Helvetica,sans-Serif" font-size="10.00">QDir</text>
</a>
</g>
</g>
<!-- Node5&#45;&gt;Node20 -->
<g id="edge20" class="edge">
<title>Node5&#45;&gt;Node20</title>
<path fill="none" stroke="midnightblue" d="M1437.26,-224.08C1444.04,-216.3 1454.04,-204.8 1462.26,-195.37"/>
<polygon fill="midnightblue" stroke="midnightblue" points="1464.96,-197.59 1468.88,-187.75 1459.68,-193 1464.96,-197.59"/>
</g>
<!-- Node21 -->
<g id="node21" class="node">
<title>Node21</title>
<g id="a_node21"><a xlink:title=" ">
<polygon fill="white" stroke="#bfbfbf" points="1513,-168.5 1513,-187.5 1556,-187.5 1556,-168.5 1513,-168.5"/>
<text text-anchor="middle" x="1534.5" y="-175.5" font-family="Helvetica,sans-Serif" font-size="10.00">QIcon</text>
</a>
</g>
</g>
<!-- Node5&#45;&gt;Node21 -->
<g id="edge21" class="edge">
<title>Node5&#45;&gt;Node21</title>
<path fill="none" stroke="midnightblue" d="M1446.37,-224.32C1463.21,-215.66 1489.31,-202.24 1508.74,-192.25"/>
<polygon fill="midnightblue" stroke="midnightblue" points="1510.38,-195.34 1517.67,-187.65 1507.18,-189.12 1510.38,-195.34"/>
</g>
<!-- Node22 -->
<g id="node22" class="node">
<title>Node22</title>
<g id="a_node22"><a xlink:title=" ">
<polygon fill="white" stroke="#bfbfbf" points="1574,-168.5 1574,-187.5 1641,-187.5 1641,-168.5 1574,-168.5"/>
<text text-anchor="middle" x="1607.5" y="-175.5" font-family="Helvetica,sans-Serif" font-size="10.00">QTranslator</text>
</a>
</g>
</g>
<!-- Node5&#45;&gt;Node22 -->
<g id="edge23" class="edge">
<title>Node5&#45;&gt;Node22</title>
<path fill="none" stroke="midnightblue" d="M1457.7,-224.44C1487.91,-215.28 1536.01,-200.69 1569.53,-190.52"/>
<polygon fill="midnightblue" stroke="midnightblue" points="1570.87,-193.77 1579.43,-187.52 1568.84,-187.07 1570.87,-193.77"/>
</g>
<!-- Node23 -->
<g id="node23" class="node">
<title>Node23</title>
<g id="a_node23"><a xlink:title=" ">
<polygon fill="white" stroke="#bfbfbf" points="1659,-168.5 1659,-187.5 1744,-187.5 1744,-168.5 1659,-168.5"/>
<text text-anchor="middle" x="1701.5" y="-175.5" font-family="Helvetica,sans-Serif" font-size="10.00">QWaitCondition</text>
</a>
</g>
</g>
<!-- Node5&#45;&gt;Node23 -->
<g id="edge24" class="edge">
<title>Node5&#45;&gt;Node23</title>
<path fill="none" stroke="midnightblue" d="M1460.7,-226.81C1506.55,-217.7 1592.71,-200.6 1648.57,-189.51"/>
<polygon fill="midnightblue" stroke="midnightblue" points="1649.5,-192.89 1658.63,-187.51 1648.14,-186.03 1649.5,-192.89"/>
</g>
<!-- Node7 -->
<g id="node7" class="node">
<title>Node7</title>
<g id="a_node7"><a xlink:href="$commandlineutility_8h.html" xlink:title=" ">
<polygon fill="white" stroke="black" points="1297,-112.5 1297,-131.5 1402,-131.5 1402,-112.5 1297,-112.5"/>
<text text-anchor="middle" x="1349.5" y="-119.5" font-family="Helvetica,sans-Serif" font-size="10.00">commandlineutility.h</text>
</a>
</g>
</g>
<!-- Node6&#45;&gt;Node7 -->
<g id="edge6" class="edge">
<title>Node6&#45;&gt;Node7</title>
<path fill="none" stroke="midnightblue" d="M1350.33,-168.08C1350.2,-161.01 1350.02,-150.86 1349.85,-141.99"/>
<polygon fill="midnightblue" stroke="midnightblue" points="1353.35,-141.68 1349.66,-131.75 1346.35,-141.81 1353.35,-141.68"/>
</g>
<!-- Node16 -->
<g id="node16" class="node">
<title>Node16</title>
<g id="a_node16"><a xlink:title=" ">
<polygon fill="white" stroke="#bfbfbf" points="1218.5,-112.5 1218.5,-131.5 1278.5,-131.5 1278.5,-112.5 1218.5,-112.5"/>
<text text-anchor="middle" x="1248.5" y="-119.5" font-family="Helvetica,sans-Serif" font-size="10.00">QSettings</text>
</a>
</g>
</g>
<!-- Node6&#45;&gt;Node16 -->
<g id="edge15" class="edge">
<title>Node6&#45;&gt;Node16</title>
<path fill="none" stroke="midnightblue" d="M1334.11,-168.32C1317.83,-159.7 1292.63,-146.36 1273.78,-136.39"/>
<polygon fill="midnightblue" stroke="midnightblue" points="1275.32,-133.24 1264.85,-131.65 1272.05,-139.43 1275.32,-133.24"/>
</g>
<!-- Node8 -->
<g id="node8" class="node">
<title>Node8</title>
<g id="a_node8"><a xlink:title=" ">
<polygon fill="white" stroke="#bfbfbf" points="1330.5,-56.5 1330.5,-75.5 1402.5,-75.5 1402.5,-56.5 1330.5,-56.5"/>
<text text-anchor="middle" x="1366.5" y="-63.5" font-family="Helvetica,sans-Serif" font-size="10.00">QApplication</text>
</a>
</g>
</g>
<!-- Node7&#45;&gt;Node8 -->
<g id="edge7" class="edge">
<title>Node7&#45;&gt;Node8</title>
<path fill="none" stroke="midnightblue" d="M1352.31,-112.08C1354.58,-104.85 1357.87,-94.41 1360.71,-85.4"/>
<polygon fill="midnightblue" stroke="midnightblue" points="1364.08,-86.34 1363.75,-75.75 1357.4,-84.24 1364.08,-86.34"/>
</g>
<!-- Node9 -->
<g id="node9" class="node">
<title>Node9</title>
<g id="a_node9"><a xlink:href="$logger_8h.html" xlink:title=" ">
<polygon fill="white" stroke="black" points="1223,-56.5 1223,-75.5 1274,-75.5 1274,-56.5 1223,-56.5"/>
<text text-anchor="middle" x="1248.5" y="-63.5" font-family="Helvetica,sans-Serif" font-size="10.00">logger.h</text>
</a>
</g>
</g>
<!-- Node7&#45;&gt;Node9 -->
<g id="edge8" class="edge">
<title>Node7&#45;&gt;Node9</title>
<path fill="none" stroke="midnightblue" d="M1333.27,-112.32C1317.15,-103.7 1292.2,-90.36 1273.54,-80.39"/>
<polygon fill="midnightblue" stroke="midnightblue" points="1275.16,-77.28 1264.69,-75.65 1271.86,-83.46 1275.16,-77.28"/>
</g>
<!-- Node10 -->
<g id="node10" class="node">
<title>Node10</title>
<g id="a_node10"><a xlink:title=" ">
<polygon fill="white" stroke="#bfbfbf" points="1164.5,-0.5 1164.5,-19.5 1204.5,-19.5 1204.5,-0.5 1164.5,-0.5"/>
<text text-anchor="middle" x="1184.5" y="-7.5" font-family="Helvetica,sans-Serif" font-size="10.00">QFile</text>
</a>
</g>
</g>
<!-- Node9&#45;&gt;Node10 -->
<g id="edge9" class="edge">
<title>Node9&#45;&gt;Node10</title>
<path fill="none" stroke="midnightblue" d="M1238.22,-56.32C1228.66,-48.26 1214.22,-36.08 1202.72,-26.37"/>
<polygon fill="midnightblue" stroke="midnightblue" points="1204.87,-23.61 1194.97,-19.83 1200.36,-28.96 1204.87,-23.61"/>
</g>
<!-- Node11 -->
<g id="node11" class="node">
<title>Node11</title>
<g id="a_node11"><a xlink:title=" ">
<polygon fill="white" stroke="#bfbfbf" points="1223,-0.5 1223,-19.5 1274,-19.5 1274,-0.5 1223,-0.5"/>
<text text-anchor="middle" x="1248.5" y="-7.5" font-family="Helvetica,sans-Serif" font-size="10.00">QMutex</text>
</a>
</g>
</g>
<!-- Node9&#45;&gt;Node11 -->
<g id="edge10" class="edge">
<title>Node9&#45;&gt;Node11</title>
<path fill="none" stroke="midnightblue" d="M1248.5,-56.08C1248.5,-49.01 1248.5,-38.86 1248.5,-29.99"/>
<polygon fill="midnightblue" stroke="midnightblue" points="1252,-29.75 1248.5,-19.75 1245,-29.75 1252,-29.75"/>
</g>
<!-- Node12 -->
<g id="node12" class="node">
<title>Node12</title>
<g id="a_node12"><a xlink:title=" ">
<polygon fill="white" stroke="#bfbfbf" points="930,-0.5 930,-19.5 983,-19.5 983,-0.5 930,-0.5"/>
<text text-anchor="middle" x="956.5" y="-7.5" font-family="Helvetica,sans-Serif" font-size="10.00">QObject</text>
</a>
</g>
</g>
<!-- Node9&#45;&gt;Node12 -->
<g id="edge11" class="edge">
<title>Node9&#45;&gt;Node12</title>
<path fill="none" stroke="midnightblue" d="M1222.72,-59.02C1217.99,-57.98 1213.11,-56.93 1208.5,-56 1132.2,-40.61 1042.34,-25.22 993.2,-17.03"/>
<polygon fill="midnightblue" stroke="midnightblue" points="993.5,-13.53 983.06,-15.34 992.35,-20.43 993.5,-13.53"/>
</g>
<!-- Node13 -->
<g id="node13" class="node">
<title>Node13</title>
<g id="a_node13"><a xlink:title=" ">
<polygon fill="white" stroke="#bfbfbf" points="1292.5,-0.5 1292.5,-19.5 1366.5,-19.5 1366.5,-0.5 1292.5,-0.5"/>
<text text-anchor="middle" x="1329.5" y="-7.5" font-family="Helvetica,sans-Serif" font-size="10.00">QTextStream</text>
</a>
</g>
</g>
<!-- Node9&#45;&gt;Node13 -->
<g id="edge12" class="edge">
<title>Node9&#45;&gt;Node13</title>
<path fill="none" stroke="midnightblue" d="M1261.51,-56.32C1274.03,-47.98 1293.18,-35.21 1307.97,-25.35"/>
<polygon fill="midnightblue" stroke="midnightblue" points="1310.14,-28.11 1316.52,-19.65 1306.26,-22.29 1310.14,-28.11"/>
</g>
<!-- Node9&#45;&gt;Node14 -->
<g id="edge13" class="edge">
<title>Node9&#45;&gt;Node14</title>
<path fill="none" stroke="midnightblue" d="M1274.33,-56.44C1301.75,-47.36 1345.28,-32.94 1375.93,-22.78"/>
<polygon fill="midnightblue" stroke="midnightblue" points="1377.4,-25.98 1385.79,-19.52 1375.2,-19.34 1377.4,-25.98"/>
</g>
<!-- Node15 -->
<g id="node15" class="node">
<title>Node15</title>
<g id="a_node15"><a xlink:title=" ">
<polygon fill="white" stroke="#bfbfbf" points="1094.5,-0.5 1094.5,-19.5 1146.5,-19.5 1146.5,-0.5 1094.5,-0.5"/>
<text text-anchor="middle" x="1120.5" y="-7.5" font-family="Helvetica,sans-Serif" font-size="10.00">sstream</text>
</a>
</g>
</g>
<!-- Node9&#45;&gt;Node15 -->
<g id="edge14" class="edge">
<title>Node9&#45;&gt;Node15</title>
<path fill="none" stroke="midnightblue" d="M1228.22,-56.44C1207.15,-47.56 1173.98,-33.56 1150.01,-23.45"/>
<polygon fill="midnightblue" stroke="midnightblue" points="1151.26,-20.18 1140.69,-19.52 1148.54,-26.63 1151.26,-20.18"/>
</g>
<!-- Node18&#45;&gt;Node12 -->
<g id="edge18" class="edge">
<title>Node18&#45;&gt;Node12</title>
<path fill="none" stroke="midnightblue" d="M1165.57,-112.34C1172.78,-98.75 1183.74,-72.31 1170.5,-56 1148.59,-29 1048.45,-17.6 993.26,-13.3"/>
<polygon fill="midnightblue" stroke="midnightblue" points="993.42,-9.8 983.19,-12.55 992.9,-16.78 993.42,-9.8"/>
</g>
<!-- Node19 -->
<g id="node19" class="node">
<title>Node19</title>
<g id="a_node19"><a xlink:title=" ">
<polygon fill="white" stroke="#bfbfbf" points="1079,-56.5 1079,-75.5 1128,-75.5 1128,-56.5 1079,-56.5"/>
<text text-anchor="middle" x="1103.5" y="-63.5" font-family="Helvetica,sans-Serif" font-size="10.00">QTimer</text>
</a>
</g>
</g>
<!-- Node18&#45;&gt;Node19 -->
<g id="edge19" class="edge">
<title>Node18&#45;&gt;Node19</title>
<path fill="none" stroke="midnightblue" d="M1151.34,-112.32C1143,-104.42 1130.47,-92.55 1120.32,-82.94"/>
<polygon fill="midnightblue" stroke="midnightblue" points="1122.49,-80.17 1112.82,-75.83 1117.68,-85.25 1122.49,-80.17"/>
</g>
<!-- Node24&#45;&gt;Node12 -->
<g id="edge27" class="edge">
<title>Node24&#45;&gt;Node12</title>
<path fill="none" stroke="midnightblue" d="M318.24,-57.21C321.37,-56.77 324.48,-56.36 327.5,-56 551.48,-29.38 822.34,-16.46 919.56,-12.43"/>
<polygon fill="midnightblue" stroke="midnightblue" points="919.9,-15.92 929.75,-12.02 919.61,-8.93 919.9,-15.92"/>
</g>
<!-- Node24&#45;&gt;Node25 -->
<g id="edge26" class="edge">
<title>Node24&#45;&gt;Node25</title>
<path fill="none" stroke="midnightblue" d="M259.52,-56.32C245.95,-47.9 225.12,-34.97 209.18,-25.07"/>
<polygon fill="midnightblue" stroke="midnightblue" points="210.79,-21.95 200.44,-19.65 207.09,-27.9 210.79,-21.95"/>
</g>
<!-- Node26&#45;&gt;Node12 -->
<g id="edge30" class="edge">
<title>Node26&#45;&gt;Node12</title>
<path fill="none" stroke="midnightblue" d="M774.18,-280.44C849.21,-250.34 1095.59,-147.28 1137.5,-76 1142.01,-68.34 1142.97,-63 1137.5,-56 1119.94,-33.54 1040.91,-20.69 993.27,-14.85"/>
<polygon fill="midnightblue" stroke="midnightblue" points="993.67,-11.38 983.33,-13.68 992.85,-18.33 993.67,-11.38"/>
</g>
<!-- Node26&#45;&gt;Node25 -->
<g id="edge29" class="edge">
<title>Node26&#45;&gt;Node25</title>
<path fill="none" stroke="midnightblue" d="M724.49,-284.92C638.62,-271.07 375.42,-218.54 219.5,-76 205.8,-63.48 196.97,-43.98 191.92,-29.6"/>
<polygon fill="midnightblue" stroke="midnightblue" points="195.17,-28.26 188.78,-19.8 188.5,-30.4 195.17,-28.26"/>
</g>
<!-- Node27 -->
<g id="node27" class="node">
<title>Node27</title>
<g id="a_node27"><a xlink:href="$joyaxisbutton_8h.html" xlink:title=" ">
<polygon fill="white" stroke="black" points="678,-224.5 678,-243.5 827,-243.5 827,-224.5 678,-224.5"/>
<text text-anchor="middle" x="752.5" y="-231.5" font-family="Helvetica,sans-Serif" font-size="10.00">joybuttontypes/joyaxisbutton.h</text>
</a>
</g>
</g>
<!-- Node26&#45;&gt;Node27 -->
<g id="edge31" class="edge">
<title>Node26&#45;&gt;Node27</title>
<path fill="none" stroke="midnightblue" d="M752.5,-280.08C752.5,-273.01 752.5,-262.86 752.5,-253.99"/>
<polygon fill="midnightblue" stroke="midnightblue" points="756,-253.75 752.5,-243.75 749,-253.75 756,-253.75"/>
</g>
<!-- Node28 -->
<g id="node28" class="node">
<title>Node28</title>
<g id="a_node28"><a xlink:href="$joygradientbutton_8h.html" xlink:title=" ">
<polygon fill="white" stroke="black" points="670,-168.5 670,-187.5 835,-187.5 835,-168.5 670,-168.5"/>
<text text-anchor="middle" x="752.5" y="-175.5" font-family="Helvetica,sans-Serif" font-size="10.00">joybuttontypes/joygradientbutton.h</text>
</a>
</g>
</g>
<!-- Node27&#45;&gt;Node28 -->
<g id="edge32" class="edge">
<title>Node27&#45;&gt;Node28</title>
<path fill="none" stroke="midnightblue" d="M752.5,-224.08C752.5,-217.01 752.5,-206.86 752.5,-197.99"/>
<polygon fill="midnightblue" stroke="midnightblue" points="756,-197.75 752.5,-187.75 749,-197.75 756,-197.75"/>
</g>
<!-- Node29 -->
<g id="node29" class="node">
<title>Node29</title>
<g id="a_node29"><a xlink:href="$joybutton_8h.html" xlink:title=" ">
<polygon fill="white" stroke="black" points="720,-112.5 720,-131.5 785,-131.5 785,-112.5 720,-112.5"/>
<text text-anchor="middle" x="752.5" y="-119.5" font-family="Helvetica,sans-Serif" font-size="10.00">joybutton.h</text>
</a>
</g>
</g>
<!-- Node28&#45;&gt;Node29 -->
<g id="edge33" class="edge">
<title>Node28&#45;&gt;Node29</title>
<path fill="none" stroke="midnightblue" d="M752.5,-168.08C752.5,-161.01 752.5,-150.86 752.5,-141.99"/>
<polygon fill="midnightblue" stroke="midnightblue" points="756,-141.75 752.5,-131.75 749,-141.75 756,-141.75"/>
</g>
<!-- Node29&#45;&gt;Node14 -->
<g id="edge49" class="edge">
<title>Node29&#45;&gt;Node14</title>
<path fill="none" stroke="midnightblue" d="M785.11,-119.93C885.56,-116.38 1189.15,-103.59 1283.5,-76 1301.82,-70.64 1304.52,-64.71 1321.5,-56 1342.75,-45.1 1366.96,-33.01 1384.92,-24.11"/>
<polygon fill="midnightblue" stroke="midnightblue" points="1386.78,-27.09 1394.19,-19.52 1383.68,-20.82 1386.78,-27.09"/>
</g>
<!-- Node29&#45;&gt;Node19 -->
<g id="edge50" class="edge">
<title>Node29&#45;&gt;Node19</title>
<path fill="none" stroke="midnightblue" d="M785.12,-117.65C841.13,-111.63 959.34,-97.71 1068.81,-75.92"/>
<polygon fill="midnightblue" stroke="midnightblue" points="1069.59,-79.33 1078.7,-73.93 1068.2,-72.47 1069.59,-79.33"/>
</g>
<!-- Node29&#45;&gt;Node24 -->
<g id="edge34" class="edge">
<title>Node29&#45;&gt;Node24</title>
<path fill="none" stroke="midnightblue" d="M719.9,-118.22C650.11,-112.11 480.91,-96.56 328.29,-76.03"/>
<polygon fill="midnightblue" stroke="midnightblue" points="328.64,-72.55 318.26,-74.67 327.7,-79.48 328.64,-72.55"/>
</g>
<!-- Node30 -->
<g id="node30" class="node">
<title>Node30</title>
<g id="a_node30"><a xlink:href="$joybuttonmousehelper_8h.html" xlink:title=" ">
<polygon fill="white" stroke="black" points="803.5,-56.5 803.5,-75.5 923.5,-75.5 923.5,-56.5 803.5,-56.5"/>
<text text-anchor="middle" x="863.5" y="-63.5" font-family="Helvetica,sans-Serif" font-size="10.00">joybuttonmousehelper.h</text>
</a>
</g>
</g>
<!-- Node29&#45;&gt;Node30 -->
<g id="edge35" class="edge">
<title>Node29&#45;&gt;Node30</title>
<path fill="none" stroke="midnightblue" d="M770.33,-112.32C788.22,-103.62 815.98,-90.12 836.55,-80.11"/>
<polygon fill="midnightblue" stroke="midnightblue" points="838.25,-83.18 845.71,-75.65 835.19,-76.88 838.25,-83.18"/>
</g>
<!-- Node31 -->
<g id="node31" class="node">
<title>Node31</title>
<g id="a_node31"><a xlink:href="$joybuttonslot_8h.html" xlink:title=" ">
<polygon fill="white" stroke="black" points="336.5,-56.5 336.5,-75.5 416.5,-75.5 416.5,-56.5 336.5,-56.5"/>
<text text-anchor="middle" x="376.5" y="-63.5" font-family="Helvetica,sans-Serif" font-size="10.00">joybuttonslot.h</text>
</a>
</g>
</g>
<!-- Node29&#45;&gt;Node31 -->
<g id="edge37" class="edge">
<title>Node29&#45;&gt;Node31</title>
<path fill="none" stroke="midnightblue" d="M719.94,-117.01C662.72,-109.9 540.2,-94.18 426.5,-76.1"/>
<polygon fill="midnightblue" stroke="midnightblue" points="427.01,-72.64 416.59,-74.51 425.91,-79.55 427.01,-72.64"/>
</g>
<!-- Node37 -->
<g id="node37" class="node">
<title>Node37</title>
<g id="a_node37"><a xlink:href="$springmousemoveinfo_8h.html" xlink:title=" ">
<polygon fill="white" stroke="black" points="942,-56.5 942,-75.5 1061,-75.5 1061,-56.5 942,-56.5"/>
<text text-anchor="middle" x="1001.5" y="-63.5" font-family="Helvetica,sans-Serif" font-size="10.00">springmousemoveinfo.h</text>
</a>
</g>
</g>
<!-- Node29&#45;&gt;Node37 -->
<g id="edge44" class="edge">
<title>Node29&#45;&gt;Node37</title>
<path fill="none" stroke="midnightblue" d="M785.05,-113.94C827.6,-104.71 902.52,-88.47 952.09,-77.72"/>
<polygon fill="midnightblue" stroke="midnightblue" points="952.92,-81.12 961.95,-75.58 951.44,-74.28 952.92,-81.12"/>
</g>
<!-- Node38 -->
<g id="node38" class="node">
<title>Node38</title>
<g id="a_node38"><a xlink:title=" ">
<polygon fill="white" stroke="#bfbfbf" points="435,-56.5 435,-75.5 522,-75.5 522,-56.5 435,-56.5"/>
<text text-anchor="middle" x="478.5" y="-63.5" font-family="Helvetica,sans-Serif" font-size="10.00">QDeadlineTimer</text>
</a>
</g>
</g>
<!-- Node29&#45;&gt;Node38 -->
<g id="edge45" class="edge">
<title>Node29&#45;&gt;Node38</title>
<path fill="none" stroke="midnightblue" d="M719.99,-114.59C673.55,-105.44 587.67,-88.52 531.83,-77.51"/>
<polygon fill="midnightblue" stroke="midnightblue" points="532.26,-74.03 521.77,-75.53 530.91,-80.9 532.26,-74.03"/>
</g>
<!-- Node39 -->
<g id="node39" class="node">
<title>Node39</title>
<g id="a_node39"><a xlink:title=" ">
<polygon fill="white" stroke="#bfbfbf" points="540,-56.5 540,-75.5 593,-75.5 593,-56.5 540,-56.5"/>
<text text-anchor="middle" x="566.5" y="-63.5" font-family="Helvetica,sans-Serif" font-size="10.00">QQueue</text>
</a>
</g>
</g>
<!-- Node29&#45;&gt;Node39 -->
<g id="edge46" class="edge">
<title>Node29&#45;&gt;Node39</title>
<path fill="none" stroke="midnightblue" d="M723.03,-112.44C690.49,-103 638.08,-87.78 602.98,-77.59"/>
<polygon fill="midnightblue" stroke="midnightblue" points="603.7,-74.16 593.12,-74.73 601.75,-80.88 603.7,-74.16"/>
</g>
<!-- Node40 -->
<g id="node40" class="node">
<title>Node40</title>
<g id="a_node40"><a xlink:title=" ">
<polygon fill="white" stroke="#bfbfbf" points="611.5,-56.5 611.5,-75.5 701.5,-75.5 701.5,-56.5 611.5,-56.5"/>
<text text-anchor="middle" x="656.5" y="-63.5" font-family="Helvetica,sans-Serif" font-size="10.00">QReadWriteLock</text>
</a>
</g>
</g>
<!-- Node29&#45;&gt;Node40 -->
<g id="edge47" class="edge">
<title>Node29&#45;&gt;Node40</title>
<path fill="none" stroke="midnightblue" d="M737.08,-112.32C721.96,-103.82 698.68,-90.73 681.03,-80.8"/>
<polygon fill="midnightblue" stroke="midnightblue" points="682.32,-77.51 671.89,-75.65 678.89,-83.61 682.32,-77.51"/>
</g>
<!-- Node41 -->
<g id="node41" class="node">
<title>Node41</title>
<g id="a_node41"><a xlink:title=" ">
<polygon fill="white" stroke="#bfbfbf" points="720,-56.5 720,-75.5 785,-75.5 785,-56.5 720,-56.5"/>
<text text-anchor="middle" x="752.5" y="-63.5" font-family="Helvetica,sans-Serif" font-size="10.00">QRunnable</text>
</a>
</g>
</g>
<!-- Node29&#45;&gt;Node41 -->
<g id="edge48" class="edge">
<title>Node29&#45;&gt;Node41</title>
<path fill="none" stroke="midnightblue" d="M752.5,-112.08C752.5,-105.01 752.5,-94.86 752.5,-85.99"/>
<polygon fill="midnightblue" stroke="midnightblue" points="756,-85.75 752.5,-75.75 749,-85.75 756,-85.75"/>
</g>
<!-- Node30&#45;&gt;Node12 -->
<g id="edge36" class="edge">
<title>Node30&#45;&gt;Node12</title>
<path fill="none" stroke="midnightblue" d="M878.44,-56.32C893.09,-47.82 915.63,-34.73 932.74,-24.8"/>
<polygon fill="midnightblue" stroke="midnightblue" points="934.7,-27.7 941.6,-19.65 931.19,-21.65 934.7,-27.7"/>
</g>
<!-- Node31&#45;&gt;Node12 -->
<g id="edge39" class="edge">
<title>Node31&#45;&gt;Node12</title>
<path fill="none" stroke="midnightblue" d="M416.56,-57.31C419.58,-56.84 422.59,-56.39 425.5,-56 610.36,-31.25 833.35,-17.57 919.79,-12.88"/>
<polygon fill="midnightblue" stroke="midnightblue" points="920.08,-16.37 929.88,-12.34 919.71,-9.38 920.08,-16.37"/>
</g>
<!-- Node32 -->
<g id="node32" class="node">
<title>Node32</title>
<g id="a_node32"><a xlink:title=" ">
<polygon fill="white" stroke="#bfbfbf" points="574.5,-0.5 574.5,-19.5 658.5,-19.5 658.5,-0.5 574.5,-0.5"/>
<text text-anchor="middle" x="616.5" y="-7.5" font-family="Helvetica,sans-Serif" font-size="10.00">QElapsedTimer</text>
</a>
</g>
</g>
<!-- Node31&#45;&gt;Node32 -->
<g id="edge38" class="edge">
<title>Node31&#45;&gt;Node32</title>
<path fill="none" stroke="midnightblue" d="M414.53,-56.44C456.31,-47.04 523.48,-31.93 568.77,-21.74"/>
<polygon fill="midnightblue" stroke="midnightblue" points="569.66,-25.13 578.65,-19.52 568.12,-18.3 569.66,-25.13"/>
</g>
<!-- Node33 -->
<g id="node33" class="node">
<title>Node33</title>
<g id="a_node33"><a xlink:title=" ">
<polygon fill="white" stroke="#bfbfbf" points="225,-0.5 225,-19.5 280,-19.5 280,-0.5 225,-0.5"/>
<text text-anchor="middle" x="252.5" y="-7.5" font-family="Helvetica,sans-Serif" font-size="10.00">QPointer</text>
</a>
</g>
</g>
<!-- Node31&#45;&gt;Node33 -->
<g id="edge40" class="edge">
<title>Node31&#45;&gt;Node33</title>
<path fill="none" stroke="midnightblue" d="M356.85,-56.44C336.54,-47.6 304.6,-33.69 281.4,-23.59"/>
<polygon fill="midnightblue" stroke="midnightblue" points="282.62,-20.3 272.06,-19.52 279.83,-26.72 282.62,-20.3"/>
</g>
<!-- Node34 -->
<g id="node34" class="node">
<title>Node34</title>
<g id="a_node34"><a xlink:title=" ">
<polygon fill="white" stroke="#bfbfbf" points="298.5,-0.5 298.5,-19.5 344.5,-19.5 344.5,-0.5 298.5,-0.5"/>
<text text-anchor="middle" x="321.5" y="-7.5" font-family="Helvetica,sans-Serif" font-size="10.00">QTime</text>
</a>
</g>
</g>
<!-- Node31&#45;&gt;Node34 -->
<g id="edge41" class="edge">
<title>Node31&#45;&gt;Node34</title>
<path fill="none" stroke="midnightblue" d="M367.42,-56.08C359.33,-48.14 347.3,-36.34 337.59,-26.8"/>
<polygon fill="midnightblue" stroke="midnightblue" points="340,-24.26 330.41,-19.75 335.1,-29.25 340,-24.26"/>
</g>
<!-- Node35 -->
<g id="node35" class="node">
<title>Node35</title>
<g id="a_node35"><a xlink:title=" ">
<polygon fill="white" stroke="#bfbfbf" points="362.5,-0.5 362.5,-19.5 416.5,-19.5 416.5,-0.5 362.5,-0.5"/>
<text text-anchor="middle" x="389.5" y="-7.5" font-family="Helvetica,sans-Serif" font-size="10.00">QVariant</text>
</a>
</g>
</g>
<!-- Node31&#45;&gt;Node35 -->
<g id="edge42" class="edge">
<title>Node31&#45;&gt;Node35</title>
<path fill="none" stroke="midnightblue" d="M378.65,-56.08C380.37,-48.93 382.85,-38.64 385,-29.69"/>
<polygon fill="midnightblue" stroke="midnightblue" points="388.46,-30.29 387.39,-19.75 381.65,-28.65 388.46,-30.29"/>
</g>
<!-- Node36 -->
<g id="node36" class="node">
<title>Node36</title>
<g id="a_node36"><a xlink:title=" ">
<polygon fill="white" stroke="#bfbfbf" points="434.5,-0.5 434.5,-19.5 556.5,-19.5 556.5,-0.5 434.5,-0.5"/>
<text text-anchor="middle" x="495.5" y="-7.5" font-family="Helvetica,sans-Serif" font-size="10.00">QtWidgets/QApplication</text>
</a>
</g>
</g>
<!-- Node31&#45;&gt;Node36 -->
<g id="edge43" class="edge">
<title>Node31&#45;&gt;Node36</title>
<path fill="none" stroke="midnightblue" d="M395.36,-56.44C414.77,-47.64 445.23,-33.81 467.46,-23.72"/>
<polygon fill="midnightblue" stroke="midnightblue" points="469.07,-26.84 476.73,-19.52 466.18,-20.46 469.07,-26.84"/>
</g>
<!-- Node42&#45;&gt;Node29 -->
<g id="edge52" class="edge">
<title>Node42&#45;&gt;Node29</title>
<path fill="none" stroke="midnightblue" d="M845.5,-280.25C852.19,-259.08 866,-204.23 843.5,-168 832.78,-150.74 813.26,-139.9 795.04,-133.2"/>
<polygon fill="midnightblue" stroke="midnightblue" points="796,-129.83 785.4,-129.97 793.78,-136.46 796,-129.83"/>
</g>
<!-- Node43 -->
<g id="node43" class="node">
<title>Node43</title>
<g id="a_node43"><a xlink:href="$joycontrolstickdirectionstype_8h.html" xlink:title=" ">
<polygon fill="white" stroke="black" points="942,-224.5 942,-243.5 1089,-243.5 1089,-224.5 942,-224.5"/>
<text text-anchor="middle" x="1015.5" y="-231.5" font-family="Helvetica,sans-Serif" font-size="10.00">joycontrolstickdirectionstype.h</text>
</a>
</g>
</g>
<!-- Node42&#45;&gt;Node43 -->
<g id="edge53" class="edge">
<title>Node42&#45;&gt;Node43</title>
<path fill="none" stroke="midnightblue" d="M869.91,-280.44C899.27,-271.28 946.02,-256.69 978.6,-246.52"/>
<polygon fill="midnightblue" stroke="midnightblue" points="979.71,-249.84 988.22,-243.52 977.63,-243.16 979.71,-249.84"/>
</g>
</g>
</svg>
