<?xml version="1.0" encoding="UTF-8" standalone="no"?>
<!DOCTYPE svg PUBLIC "-//W3C//DTD SVG 1.1//EN"
 "http://www.w3.org/Graphics/SVG/1.1/DTD/svg11.dtd">
<!-- Generated by graphviz version 2.43.0 (0)
 -->
<!-- Title: /home/pawel/antimicrox/src/joycontrolstickbuttonpushbutton.cpp Pages: 1 -->
<svg width="1108pt" height="319pt"
 viewBox="0.00 0.00 1107.50 319.00" xmlns="http://www.w3.org/2000/svg" xmlns:xlink="http://www.w3.org/1999/xlink">
<g id="graph0" class="graph" transform="scale(1 1) rotate(0) translate(4 315)">
<title>/home/pawel/antimicrox/src/joycontrolstickbuttonpushbutton.cpp</title>
<polygon fill="white" stroke="transparent" points="-4,4 -4,-315 1103.5,-315 1103.5,4 -4,4"/>
<!-- Node1 -->
<g id="node1" class="node">
<title>Node1</title>
<g id="a_node1"><a xlink:title=" ">
<polygon fill="#bfbfbf" stroke="black" points="478,-280.5 478,-310.5 670,-310.5 670,-280.5 478,-280.5"/>
<text text-anchor="start" x="486" y="-298.5" font-family="Helvetica,sans-Serif" font-size="10.00">/home/pawel/antimicrox</text>
<text text-anchor="middle" x="574" y="-287.5" font-family="Helvetica,sans-Serif" font-size="10.00">/src/joycontrolstickbuttonpushbutton.cpp</text>
</a>
</g>
</g>
<!-- Node2 -->
<g id="node2" class="node">
<title>Node2</title>
<g id="a_node2"><a xlink:href="$joycontrolstickbuttonpushbutton_8h.html" xlink:title=" ">
<polygon fill="white" stroke="black" points="0,-224.5 0,-243.5 162,-243.5 162,-224.5 0,-224.5"/>
<text text-anchor="middle" x="81" y="-231.5" font-family="Helvetica,sans-Serif" font-size="10.00">joycontrolstickbuttonpushbutton.h</text>
</a>
</g>
</g>
<!-- Node1&#45;&gt;Node2 -->
<g id="edge1" class="edge">
<title>Node1&#45;&gt;Node2</title>
<path fill="none" stroke="midnightblue" d="M477.77,-282.89C385.59,-271.76 248.06,-255.16 161.52,-244.72"/>
<polygon fill="midnightblue" stroke="midnightblue" points="161.83,-241.23 151.48,-243.51 160.99,-248.18 161.83,-241.23"/>
</g>
<!-- Node5 -->
<g id="node5" class="node">
<title>Node5</title>
<g id="a_node5"><a xlink:href="$joybuttoncontextmenu_8h.html" xlink:title=" ">
<polygon fill="white" stroke="black" points="180.5,-224.5 180.5,-243.5 301.5,-243.5 301.5,-224.5 180.5,-224.5"/>
<text text-anchor="middle" x="241" y="-231.5" font-family="Helvetica,sans-Serif" font-size="10.00">joybuttoncontextmenu.h</text>
</a>
</g>
</g>
<!-- Node1&#45;&gt;Node5 -->
<g id="edge4" class="edge">
<title>Node1&#45;&gt;Node5</title>
<path fill="none" stroke="midnightblue" d="M495.51,-280.47C435.17,-269.69 353.2,-255.05 298.77,-245.32"/>
<polygon fill="midnightblue" stroke="midnightblue" points="299.07,-241.82 288.61,-243.51 297.84,-248.71 299.07,-241.82"/>
</g>
<!-- Node6 -->
<g id="node6" class="node">
<title>Node6</title>
<g id="a_node6"><a xlink:title=" ">
<polygon fill="white" stroke="#bfbfbf" points="262,-168.5 262,-187.5 310,-187.5 310,-168.5 262,-168.5"/>
<text text-anchor="middle" x="286" y="-175.5" font-family="Helvetica,sans-Serif" font-size="10.00">QMenu</text>
</a>
</g>
</g>
<!-- Node1&#45;&gt;Node6 -->
<g id="edge35" class="edge">
<title>Node1&#45;&gt;Node6</title>
<path fill="none" stroke="midnightblue" d="M477.92,-285.4C436.28,-278.39 388.2,-265.97 349,-244 327.88,-232.16 309.37,-211.04 297.97,-196.09"/>
<polygon fill="midnightblue" stroke="midnightblue" points="300.57,-193.71 291.84,-187.72 294.92,-197.85 300.57,-193.71"/>
</g>
<!-- Node7 -->
<g id="node7" class="node">
<title>Node7</title>
<g id="a_node7"><a xlink:href="$joycontrolstickbutton_8h.html" xlink:title=" ">
<polygon fill="white" stroke="black" points="592.5,-224.5 592.5,-243.5 773.5,-243.5 773.5,-224.5 592.5,-224.5"/>
<text text-anchor="middle" x="683" y="-231.5" font-family="Helvetica,sans-Serif" font-size="10.00">joybuttontypes/joycontrolstickbutton.h</text>
</a>
</g>
</g>
<!-- Node1&#45;&gt;Node7 -->
<g id="edge6" class="edge">
<title>Node1&#45;&gt;Node7</title>
<path fill="none" stroke="midnightblue" d="M599.83,-280.4C617.47,-270.77 640.7,-258.09 658.13,-248.58"/>
<polygon fill="midnightblue" stroke="midnightblue" points="660.04,-251.52 667.14,-243.66 656.69,-245.38 660.04,-251.52"/>
</g>
<!-- Node28 -->
<g id="node28" class="node">
<title>Node28</title>
<g id="a_node28"><a xlink:href="$joycontrolstickmodifierbutton_8h.html" xlink:title=" ">
<polygon fill="white" stroke="black" points="358,-224.5 358,-243.5 574,-243.5 574,-224.5 358,-224.5"/>
<text text-anchor="middle" x="466" y="-231.5" font-family="Helvetica,sans-Serif" font-size="10.00">joybuttontypes/joycontrolstickmodifierbutton.h</text>
</a>
</g>
</g>
<!-- Node1&#45;&gt;Node28 -->
<g id="edge29" class="edge">
<title>Node1&#45;&gt;Node28</title>
<path fill="none" stroke="midnightblue" d="M548.41,-280.4C530.93,-270.77 507.91,-258.09 490.64,-248.58"/>
<polygon fill="midnightblue" stroke="midnightblue" points="492.16,-245.42 481.71,-243.66 488.78,-251.55 492.16,-245.42"/>
</g>
<!-- Node29 -->
<g id="node29" class="node">
<title>Node29</title>
<g id="a_node29"><a xlink:href="$joycontrolstick_8h.html" xlink:title=" ">
<polygon fill="white" stroke="black" points="791.5,-224.5 791.5,-243.5 878.5,-243.5 878.5,-224.5 791.5,-224.5"/>
<text text-anchor="middle" x="835" y="-231.5" font-family="Helvetica,sans-Serif" font-size="10.00">joycontrolstick.h</text>
</a>
</g>
</g>
<!-- Node1&#45;&gt;Node29 -->
<g id="edge31" class="edge">
<title>Node1&#45;&gt;Node29</title>
<path fill="none" stroke="midnightblue" d="M635.52,-280.47C682.12,-269.85 745.19,-255.47 787.84,-245.75"/>
<polygon fill="midnightblue" stroke="midnightblue" points="788.71,-249.14 797.69,-243.51 787.16,-242.32 788.71,-249.14"/>
</g>
<!-- Node30 -->
<g id="node30" class="node">
<title>Node30</title>
<g id="a_node30"><a xlink:title=" ">
<polygon fill="white" stroke="#bfbfbf" points="896.5,-224.5 896.5,-243.5 949.5,-243.5 949.5,-224.5 896.5,-224.5"/>
<text text-anchor="middle" x="923" y="-231.5" font-family="Helvetica,sans-Serif" font-size="10.00">QDebug</text>
</a>
</g>
</g>
<!-- Node1&#45;&gt;Node30 -->
<g id="edge34" class="edge">
<title>Node1&#45;&gt;Node30</title>
<path fill="none" stroke="midnightblue" d="M670.27,-281.37C730.07,-272.65 808.68,-260.2 886.35,-244.21"/>
<polygon fill="midnightblue" stroke="midnightblue" points="887.23,-247.6 896.31,-242.13 885.8,-240.74 887.23,-247.6"/>
</g>
<!-- Node31 -->
<g id="node31" class="node">
<title>Node31</title>
<g id="a_node31"><a xlink:title=" ">
<polygon fill="white" stroke="#bfbfbf" points="967.5,-224.5 967.5,-243.5 1022.5,-243.5 1022.5,-224.5 967.5,-224.5"/>
<text text-anchor="middle" x="995" y="-231.5" font-family="Helvetica,sans-Serif" font-size="10.00">QWidget</text>
</a>
</g>
</g>
<!-- Node1&#45;&gt;Node31 -->
<g id="edge36" class="edge">
<title>Node1&#45;&gt;Node31</title>
<path fill="none" stroke="midnightblue" d="M670.21,-284.97C745.94,-276.76 854.29,-263.42 957.22,-244.18"/>
<polygon fill="midnightblue" stroke="midnightblue" points="957.99,-247.59 967.16,-242.29 956.69,-240.71 957.99,-247.59"/>
</g>
<!-- Node3 -->
<g id="node3" class="node">
<title>Node3</title>
<g id="a_node3"><a xlink:href="$flashbuttonwidget_8h.html" xlink:title=" ">
<polygon fill="white" stroke="black" points="30.5,-168.5 30.5,-187.5 131.5,-187.5 131.5,-168.5 30.5,-168.5"/>
<text text-anchor="middle" x="81" y="-175.5" font-family="Helvetica,sans-Serif" font-size="10.00">flashbuttonwidget.h</text>
</a>
</g>
</g>
<!-- Node2&#45;&gt;Node3 -->
<g id="edge2" class="edge">
<title>Node2&#45;&gt;Node3</title>
<path fill="none" stroke="midnightblue" d="M81,-224.08C81,-217.01 81,-206.86 81,-197.99"/>
<polygon fill="midnightblue" stroke="midnightblue" points="84.5,-197.75 81,-187.75 77.5,-197.75 84.5,-197.75"/>
</g>
<!-- Node4 -->
<g id="node4" class="node">
<title>Node4</title>
<g id="a_node4"><a xlink:title=" ">
<polygon fill="white" stroke="#bfbfbf" points="43.5,-112.5 43.5,-131.5 118.5,-131.5 118.5,-112.5 43.5,-112.5"/>
<text text-anchor="middle" x="81" y="-119.5" font-family="Helvetica,sans-Serif" font-size="10.00">QPushButton</text>
</a>
</g>
</g>
<!-- Node3&#45;&gt;Node4 -->
<g id="edge3" class="edge">
<title>Node3&#45;&gt;Node4</title>
<path fill="none" stroke="midnightblue" d="M81,-168.08C81,-161.01 81,-150.86 81,-141.99"/>
<polygon fill="midnightblue" stroke="midnightblue" points="84.5,-141.75 81,-131.75 77.5,-141.75 84.5,-141.75"/>
</g>
<!-- Node5&#45;&gt;Node6 -->
<g id="edge5" class="edge">
<title>Node5&#45;&gt;Node6</title>
<path fill="none" stroke="midnightblue" d="M248.43,-224.08C254.85,-216.38 264.31,-205.03 272.12,-195.65"/>
<polygon fill="midnightblue" stroke="midnightblue" points="274.99,-197.67 278.71,-187.75 269.62,-193.19 274.99,-197.67"/>
</g>
<!-- Node8 -->
<g id="node8" class="node">
<title>Node8</title>
<g id="a_node8"><a xlink:href="$joygradientbutton_8h.html" xlink:title=" ">
<polygon fill="white" stroke="black" points="476.5,-168.5 476.5,-187.5 641.5,-187.5 641.5,-168.5 476.5,-168.5"/>
<text text-anchor="middle" x="559" y="-175.5" font-family="Helvetica,sans-Serif" font-size="10.00">joybuttontypes/joygradientbutton.h</text>
</a>
</g>
</g>
<!-- Node7&#45;&gt;Node8 -->
<g id="edge7" class="edge">
<title>Node7&#45;&gt;Node8</title>
<path fill="none" stroke="midnightblue" d="M663.35,-224.44C643.04,-215.6 611.1,-201.69 587.9,-191.59"/>
<polygon fill="midnightblue" stroke="midnightblue" points="589.12,-188.3 578.56,-187.52 586.33,-194.72 589.12,-188.3"/>
</g>
<!-- Node27 -->
<g id="node27" class="node">
<title>Node27</title>
<g id="a_node27"><a xlink:href="$joycontrolstickdirectionstype_8h.html" xlink:title=" ">
<polygon fill="white" stroke="black" points="659.5,-168.5 659.5,-187.5 806.5,-187.5 806.5,-168.5 659.5,-168.5"/>
<text text-anchor="middle" x="733" y="-175.5" font-family="Helvetica,sans-Serif" font-size="10.00">joycontrolstickdirectionstype.h</text>
</a>
</g>
</g>
<!-- Node7&#45;&gt;Node27 -->
<g id="edge28" class="edge">
<title>Node7&#45;&gt;Node27</title>
<path fill="none" stroke="midnightblue" d="M691.26,-224.08C698.46,-216.3 709.11,-204.8 717.85,-195.37"/>
<polygon fill="midnightblue" stroke="midnightblue" points="720.67,-197.47 724.9,-187.75 715.53,-192.71 720.67,-197.47"/>
</g>
<!-- Node9 -->
<g id="node9" class="node">
<title>Node9</title>
<g id="a_node9"><a xlink:href="$joybutton_8h.html" xlink:title=" ">
<polygon fill="white" stroke="black" points="664.5,-112.5 664.5,-131.5 729.5,-131.5 729.5,-112.5 664.5,-112.5"/>
<text text-anchor="middle" x="697" y="-119.5" font-family="Helvetica,sans-Serif" font-size="10.00">joybutton.h</text>
</a>
</g>
</g>
<!-- Node8&#45;&gt;Node9 -->
<g id="edge8" class="edge">
<title>Node8&#45;&gt;Node9</title>
<path fill="none" stroke="midnightblue" d="M580.87,-168.44C603.78,-159.48 639.98,-145.31 665.87,-135.18"/>
<polygon fill="midnightblue" stroke="midnightblue" points="667.2,-138.42 675.24,-131.52 664.65,-131.9 667.2,-138.42"/>
</g>
<!-- Node10 -->
<g id="node10" class="node">
<title>Node10</title>
<g id="a_node10"><a xlink:href="$globalvariables_8h.html" xlink:title=" ">
<polygon fill="white" stroke="black" points="129.5,-56.5 129.5,-75.5 218.5,-75.5 218.5,-56.5 129.5,-56.5"/>
<text text-anchor="middle" x="174" y="-63.5" font-family="Helvetica,sans-Serif" font-size="10.00">globalvariables.h</text>
</a>
</g>
</g>
<!-- Node9&#45;&gt;Node10 -->
<g id="edge9" class="edge">
<title>Node9&#45;&gt;Node10</title>
<path fill="none" stroke="midnightblue" d="M664.43,-118.7C589.4,-113.23 398.39,-98.31 228.89,-76.17"/>
<polygon fill="midnightblue" stroke="midnightblue" points="229.16,-72.68 218.78,-74.84 228.24,-79.62 229.16,-72.68"/>
</g>
<!-- Node13 -->
<g id="node13" class="node">
<title>Node13</title>
<g id="a_node13"><a xlink:href="$joybuttonmousehelper_8h.html" xlink:title=" ">
<polygon fill="white" stroke="black" points="236,-56.5 236,-75.5 356,-75.5 356,-56.5 236,-56.5"/>
<text text-anchor="middle" x="296" y="-63.5" font-family="Helvetica,sans-Serif" font-size="10.00">joybuttonmousehelper.h</text>
</a>
</g>
</g>
<!-- Node9&#45;&gt;Node13 -->
<g id="edge12" class="edge">
<title>Node9&#45;&gt;Node13</title>
<path fill="none" stroke="midnightblue" d="M664.18,-116.58C599.41,-107.86 453.83,-88.25 366.38,-76.48"/>
<polygon fill="midnightblue" stroke="midnightblue" points="366.66,-72.98 356.28,-75.12 365.72,-79.92 366.66,-72.98"/>
</g>
<!-- Node14 -->
<g id="node14" class="node">
<title>Node14</title>
<g id="a_node14"><a xlink:href="$joybuttonslot_8h.html" xlink:title=" ">
<polygon fill="white" stroke="black" points="374,-56.5 374,-75.5 454,-75.5 454,-56.5 374,-56.5"/>
<text text-anchor="middle" x="414" y="-63.5" font-family="Helvetica,sans-Serif" font-size="10.00">joybuttonslot.h</text>
</a>
</g>
</g>
<!-- Node9&#45;&gt;Node14 -->
<g id="edge14" class="edge">
<title>Node9&#45;&gt;Node14</title>
<path fill="none" stroke="midnightblue" d="M664.26,-114.75C615.12,-105.38 521.92,-87.59 464.17,-76.57"/>
<polygon fill="midnightblue" stroke="midnightblue" points="464.64,-73.1 454.17,-74.66 463.33,-79.98 464.64,-73.1"/>
</g>
<!-- Node20 -->
<g id="node20" class="node">
<title>Node20</title>
<g id="a_node20"><a xlink:href="$springmousemoveinfo_8h.html" xlink:title=" ">
<polygon fill="white" stroke="black" points="472.5,-56.5 472.5,-75.5 591.5,-75.5 591.5,-56.5 472.5,-56.5"/>
<text text-anchor="middle" x="532" y="-63.5" font-family="Helvetica,sans-Serif" font-size="10.00">springmousemoveinfo.h</text>
</a>
</g>
</g>
<!-- Node9&#45;&gt;Node20 -->
<g id="edge21" class="edge">
<title>Node9&#45;&gt;Node20</title>
<path fill="none" stroke="midnightblue" d="M670.86,-112.44C642.98,-103.32 598.65,-88.81 567.6,-78.65"/>
<polygon fill="midnightblue" stroke="midnightblue" points="568.62,-75.3 558.02,-75.52 566.44,-81.95 568.62,-75.3"/>
</g>
<!-- Node21 -->
<g id="node21" class="node">
<title>Node21</title>
<g id="a_node21"><a xlink:title=" ">
<polygon fill="white" stroke="#bfbfbf" points="609.5,-56.5 609.5,-75.5 696.5,-75.5 696.5,-56.5 609.5,-56.5"/>
<text text-anchor="middle" x="653" y="-63.5" font-family="Helvetica,sans-Serif" font-size="10.00">QDeadlineTimer</text>
</a>
</g>
</g>
<!-- Node9&#45;&gt;Node21 -->
<g id="edge22" class="edge">
<title>Node9&#45;&gt;Node21</title>
<path fill="none" stroke="midnightblue" d="M689.73,-112.08C683.46,-104.38 674.21,-93.03 666.57,-83.65"/>
<polygon fill="midnightblue" stroke="midnightblue" points="669.16,-81.29 660.13,-75.75 663.73,-85.71 669.16,-81.29"/>
</g>
<!-- Node22 -->
<g id="node22" class="node">
<title>Node22</title>
<g id="a_node22"><a xlink:title=" ">
<polygon fill="white" stroke="#bfbfbf" points="714.5,-56.5 714.5,-75.5 767.5,-75.5 767.5,-56.5 714.5,-56.5"/>
<text text-anchor="middle" x="741" y="-63.5" font-family="Helvetica,sans-Serif" font-size="10.00">QQueue</text>
</a>
</g>
</g>
<!-- Node9&#45;&gt;Node22 -->
<g id="edge23" class="edge">
<title>Node9&#45;&gt;Node22</title>
<path fill="none" stroke="midnightblue" d="M704.27,-112.08C710.54,-104.38 719.79,-93.03 727.43,-83.65"/>
<polygon fill="midnightblue" stroke="midnightblue" points="730.27,-85.71 733.87,-75.75 724.84,-81.29 730.27,-85.71"/>
</g>
<!-- Node23 -->
<g id="node23" class="node">
<title>Node23</title>
<g id="a_node23"><a xlink:title=" ">
<polygon fill="white" stroke="#bfbfbf" points="786,-56.5 786,-75.5 876,-75.5 876,-56.5 786,-56.5"/>
<text text-anchor="middle" x="831" y="-63.5" font-family="Helvetica,sans-Serif" font-size="10.00">QReadWriteLock</text>
</a>
</g>
</g>
<!-- Node9&#45;&gt;Node23 -->
<g id="edge24" class="edge">
<title>Node9&#45;&gt;Node23</title>
<path fill="none" stroke="midnightblue" d="M718.23,-112.44C740.38,-103.52 775.32,-89.44 800.44,-79.32"/>
<polygon fill="midnightblue" stroke="midnightblue" points="801.9,-82.5 809.87,-75.52 799.28,-76.01 801.9,-82.5"/>
</g>
<!-- Node24 -->
<g id="node24" class="node">
<title>Node24</title>
<g id="a_node24"><a xlink:title=" ">
<polygon fill="white" stroke="#bfbfbf" points="894.5,-56.5 894.5,-75.5 959.5,-75.5 959.5,-56.5 894.5,-56.5"/>
<text text-anchor="middle" x="927" y="-63.5" font-family="Helvetica,sans-Serif" font-size="10.00">QRunnable</text>
</a>
</g>
</g>
<!-- Node9&#45;&gt;Node24 -->
<g id="edge25" class="edge">
<title>Node9&#45;&gt;Node24</title>
<path fill="none" stroke="midnightblue" d="M729.95,-113.26C770.63,-103.71 839.89,-87.45 884.52,-76.97"/>
<polygon fill="midnightblue" stroke="midnightblue" points="885.54,-80.33 894.48,-74.64 883.94,-73.51 885.54,-80.33"/>
</g>
<!-- Node25 -->
<g id="node25" class="node">
<title>Node25</title>
<g id="a_node25"><a xlink:title=" ">
<polygon fill="white" stroke="#bfbfbf" points="978,-56.5 978,-75.5 1032,-75.5 1032,-56.5 978,-56.5"/>
<text text-anchor="middle" x="1005" y="-63.5" font-family="Helvetica,sans-Serif" font-size="10.00">QThread</text>
</a>
</g>
</g>
<!-- Node9&#45;&gt;Node25 -->
<g id="edge26" class="edge">
<title>Node9&#45;&gt;Node25</title>
<path fill="none" stroke="midnightblue" d="M729.82,-116.45C779.29,-109.4 876.11,-94.85 967.91,-76.09"/>
<polygon fill="midnightblue" stroke="midnightblue" points="968.84,-79.47 977.93,-74.02 967.43,-72.61 968.84,-79.47"/>
</g>
<!-- Node26 -->
<g id="node26" class="node">
<title>Node26</title>
<g id="a_node26"><a xlink:title=" ">
<polygon fill="white" stroke="#bfbfbf" points="1050.5,-56.5 1050.5,-75.5 1099.5,-75.5 1099.5,-56.5 1050.5,-56.5"/>
<text text-anchor="middle" x="1075" y="-63.5" font-family="Helvetica,sans-Serif" font-size="10.00">QTimer</text>
</a>
</g>
</g>
<!-- Node9&#45;&gt;Node26 -->
<g id="edge27" class="edge">
<title>Node9&#45;&gt;Node26</title>
<path fill="none" stroke="midnightblue" d="M729.96,-118.11C789.8,-112.57 920.43,-99.05 1040.14,-75.93"/>
<polygon fill="midnightblue" stroke="midnightblue" points="1041.06,-79.32 1050.2,-73.96 1039.72,-72.45 1041.06,-79.32"/>
</g>
<!-- Node11 -->
<g id="node11" class="node">
<title>Node11</title>
<g id="a_node11"><a xlink:title=" ">
<polygon fill="white" stroke="#bfbfbf" points="154,-0.5 154,-19.5 194,-19.5 194,-0.5 154,-0.5"/>
<text text-anchor="middle" x="174" y="-7.5" font-family="Helvetica,sans-Serif" font-size="10.00">QList</text>
</a>
</g>
</g>
<!-- Node10&#45;&gt;Node11 -->
<g id="edge10" class="edge">
<title>Node10&#45;&gt;Node11</title>
<path fill="none" stroke="midnightblue" d="M174,-56.08C174,-49.01 174,-38.86 174,-29.99"/>
<polygon fill="midnightblue" stroke="midnightblue" points="177.5,-29.75 174,-19.75 170.5,-29.75 177.5,-29.75"/>
</g>
<!-- Node12 -->
<g id="node12" class="node">
<title>Node12</title>
<g id="a_node12"><a xlink:title=" ">
<polygon fill="white" stroke="#bfbfbf" points="212.5,-0.5 212.5,-19.5 265.5,-19.5 265.5,-0.5 212.5,-0.5"/>
<text text-anchor="middle" x="239" y="-7.5" font-family="Helvetica,sans-Serif" font-size="10.00">QObject</text>
</a>
</g>
</g>
<!-- Node10&#45;&gt;Node12 -->
<g id="edge11" class="edge">
<title>Node10&#45;&gt;Node12</title>
<path fill="none" stroke="midnightblue" d="M184.44,-56.32C194.15,-48.26 208.82,-36.08 220.5,-26.37"/>
<polygon fill="midnightblue" stroke="midnightblue" points="222.91,-28.92 228.37,-19.83 218.44,-23.53 222.91,-28.92"/>
</g>
<!-- Node13&#45;&gt;Node12 -->
<g id="edge13" class="edge">
<title>Node13&#45;&gt;Node12</title>
<path fill="none" stroke="midnightblue" d="M286.84,-56.32C278.5,-48.42 265.97,-36.55 255.82,-26.94"/>
<polygon fill="midnightblue" stroke="midnightblue" points="257.99,-24.17 248.32,-19.83 253.18,-29.25 257.99,-24.17"/>
</g>
<!-- Node14&#45;&gt;Node12 -->
<g id="edge16" class="edge">
<title>Node14&#45;&gt;Node12</title>
<path fill="none" stroke="midnightblue" d="M386.27,-56.44C356.31,-47.2 308.45,-32.43 275.46,-22.25"/>
<polygon fill="midnightblue" stroke="midnightblue" points="276.33,-18.85 265.74,-19.25 274.26,-25.54 276.33,-18.85"/>
</g>
<!-- Node15 -->
<g id="node15" class="node">
<title>Node15</title>
<g id="a_node15"><a xlink:title=" ">
<polygon fill="white" stroke="#bfbfbf" points="284,-0.5 284,-19.5 368,-19.5 368,-0.5 284,-0.5"/>
<text text-anchor="middle" x="326" y="-7.5" font-family="Helvetica,sans-Serif" font-size="10.00">QElapsedTimer</text>
</a>
</g>
</g>
<!-- Node14&#45;&gt;Node15 -->
<g id="edge15" class="edge">
<title>Node14&#45;&gt;Node15</title>
<path fill="none" stroke="midnightblue" d="M399.86,-56.32C386.13,-47.9 365.06,-34.97 348.94,-25.07"/>
<polygon fill="midnightblue" stroke="midnightblue" points="350.46,-21.9 340.1,-19.65 346.8,-27.87 350.46,-21.9"/>
</g>
<!-- Node16 -->
<g id="node16" class="node">
<title>Node16</title>
<g id="a_node16"><a xlink:title=" ">
<polygon fill="white" stroke="#bfbfbf" points="386.5,-0.5 386.5,-19.5 441.5,-19.5 441.5,-0.5 386.5,-0.5"/>
<text text-anchor="middle" x="414" y="-7.5" font-family="Helvetica,sans-Serif" font-size="10.00">QPointer</text>
</a>
</g>
</g>
<!-- Node14&#45;&gt;Node16 -->
<g id="edge17" class="edge">
<title>Node14&#45;&gt;Node16</title>
<path fill="none" stroke="midnightblue" d="M414,-56.08C414,-49.01 414,-38.86 414,-29.99"/>
<polygon fill="midnightblue" stroke="midnightblue" points="417.5,-29.75 414,-19.75 410.5,-29.75 417.5,-29.75"/>
</g>
<!-- Node17 -->
<g id="node17" class="node">
<title>Node17</title>
<g id="a_node17"><a xlink:title=" ">
<polygon fill="white" stroke="#bfbfbf" points="460,-0.5 460,-19.5 506,-19.5 506,-0.5 460,-0.5"/>
<text text-anchor="middle" x="483" y="-7.5" font-family="Helvetica,sans-Serif" font-size="10.00">QTime</text>
</a>
</g>
</g>
<!-- Node14&#45;&gt;Node17 -->
<g id="edge18" class="edge">
<title>Node14&#45;&gt;Node17</title>
<path fill="none" stroke="midnightblue" d="M425.09,-56.32C435.49,-48.18 451.26,-35.84 463.72,-26.09"/>
<polygon fill="midnightblue" stroke="midnightblue" points="465.99,-28.75 471.71,-19.83 461.68,-23.24 465.99,-28.75"/>
</g>
<!-- Node18 -->
<g id="node18" class="node">
<title>Node18</title>
<g id="a_node18"><a xlink:title=" ">
<polygon fill="white" stroke="#bfbfbf" points="524,-0.5 524,-19.5 578,-19.5 578,-0.5 524,-0.5"/>
<text text-anchor="middle" x="551" y="-7.5" font-family="Helvetica,sans-Serif" font-size="10.00">QVariant</text>
</a>
</g>
</g>
<!-- Node14&#45;&gt;Node18 -->
<g id="edge19" class="edge">
<title>Node14&#45;&gt;Node18</title>
<path fill="none" stroke="midnightblue" d="M435.71,-56.44C458.35,-47.52 494.07,-33.44 519.75,-23.32"/>
<polygon fill="midnightblue" stroke="midnightblue" points="521.37,-26.44 529.39,-19.52 518.81,-19.93 521.37,-26.44"/>
</g>
<!-- Node19 -->
<g id="node19" class="node">
<title>Node19</title>
<g id="a_node19"><a xlink:title=" ">
<polygon fill="white" stroke="#bfbfbf" points="596,-0.5 596,-19.5 718,-19.5 718,-0.5 596,-0.5"/>
<text text-anchor="middle" x="657" y="-7.5" font-family="Helvetica,sans-Serif" font-size="10.00">QtWidgets/QApplication</text>
</a>
</g>
</g>
<!-- Node14&#45;&gt;Node19 -->
<g id="edge20" class="edge">
<title>Node14&#45;&gt;Node19</title>
<path fill="none" stroke="midnightblue" d="M452.5,-56.44C494.81,-47.04 562.82,-31.93 608.67,-21.74"/>
<polygon fill="midnightblue" stroke="midnightblue" points="609.67,-25.1 618.68,-19.52 608.15,-18.27 609.67,-25.1"/>
</g>
<!-- Node28&#45;&gt;Node8 -->
<g id="edge30" class="edge">
<title>Node28&#45;&gt;Node8</title>
<path fill="none" stroke="midnightblue" d="M480.94,-224.32C495.59,-215.82 518.13,-202.73 535.24,-192.8"/>
<polygon fill="midnightblue" stroke="midnightblue" points="537.2,-195.7 544.1,-187.65 533.69,-189.65 537.2,-195.7"/>
</g>
<!-- Node29&#45;&gt;Node9 -->
<g id="edge32" class="edge">
<title>Node29&#45;&gt;Node9</title>
<path fill="none" stroke="midnightblue" d="M834.82,-224.23C834.08,-210.51 830.7,-183.88 816,-168 796.13,-146.54 764.98,-135.24 739.53,-129.33"/>
<polygon fill="midnightblue" stroke="midnightblue" points="740.24,-125.9 729.74,-127.25 738.79,-132.75 740.24,-125.9"/>
</g>
<!-- Node29&#45;&gt;Node27 -->
<g id="edge33" class="edge">
<title>Node29&#45;&gt;Node27</title>
<path fill="none" stroke="midnightblue" d="M818.61,-224.32C802.33,-215.7 777.13,-202.36 758.28,-192.39"/>
<polygon fill="midnightblue" stroke="midnightblue" points="759.82,-189.24 749.35,-187.65 756.55,-195.43 759.82,-189.24"/>
</g>
</g>
</svg>
