<?xml version="1.0" encoding="UTF-8" standalone="no"?>
<!DOCTYPE svg PUBLIC "-//W3C//DTD SVG 1.1//EN"
 "http://www.w3.org/Graphics/SVG/1.1/DTD/svg11.dtd">
<!-- Generated by graphviz version 2.43.0 (0)
 -->
<!-- Title: /home/pawel/antimicrox/src/joytabwidget.h Pages: 1 -->
<svg width="729pt" height="106pt"
 viewBox="0.00 0.00 729.00 106.00" xmlns="http://www.w3.org/2000/svg" xmlns:xlink="http://www.w3.org/1999/xlink">
<g id="graph0" class="graph" transform="scale(1 1) rotate(0) translate(4 102)">
<title>/home/pawel/antimicrox/src/joytabwidget.h</title>
<polygon fill="white" stroke="transparent" points="-4,4 -4,-102 725,-102 725,4 -4,4"/>
<!-- Node1 -->
<g id="node1" class="node">
<title>Node1</title>
<g id="a_node1"><a xlink:title=" ">
<polygon fill="#bfbfbf" stroke="black" points="298,-67.5 298,-97.5 417,-97.5 417,-67.5 298,-67.5"/>
<text text-anchor="start" x="306" y="-85.5" font-family="Helvetica,sans-Serif" font-size="10.00">/home/pawel/antimicrox</text>
<text text-anchor="middle" x="357.5" y="-74.5" font-family="Helvetica,sans-Serif" font-size="10.00">/src/joytabwidget.h</text>
</a>
</g>
</g>
<!-- Node2 -->
<g id="node2" class="node">
<title>Node2</title>
<g id="a_node2"><a xlink:href="$advancebuttondialog_8cpp.html" xlink:title=" ">
<polygon fill="white" stroke="black" points="0,-0.5 0,-30.5 143,-30.5 143,-0.5 0,-0.5"/>
<text text-anchor="start" x="8" y="-18.5" font-family="Helvetica,sans-Serif" font-size="10.00">/home/pawel/antimicrox</text>
<text text-anchor="middle" x="71.5" y="-7.5" font-family="Helvetica,sans-Serif" font-size="10.00">/src/advancebuttondialog.cpp</text>
</a>
</g>
</g>
<!-- Node1&#45;&gt;Node2 -->
<g id="edge1" class="edge">
<title>Node1&#45;&gt;Node2</title>
<path fill="none" stroke="midnightblue" d="M288.06,-65.72C240.88,-55 179.02,-40.94 133.5,-30.59"/>
<polygon fill="midnightblue" stroke="midnightblue" points="287.37,-69.15 297.89,-67.95 288.92,-62.32 287.37,-69.15"/>
</g>
<!-- Node3 -->
<g id="node3" class="node">
<title>Node3</title>
<g id="a_node3"><a xlink:href="$calibration_8cpp.html" xlink:title=" ">
<polygon fill="white" stroke="black" points="161,-0.5 161,-30.5 280,-30.5 280,-0.5 161,-0.5"/>
<text text-anchor="start" x="169" y="-18.5" font-family="Helvetica,sans-Serif" font-size="10.00">/home/pawel/antimicrox</text>
<text text-anchor="middle" x="220.5" y="-7.5" font-family="Helvetica,sans-Serif" font-size="10.00">/src/calibration.cpp</text>
</a>
</g>
</g>
<!-- Node1&#45;&gt;Node3 -->
<g id="edge2" class="edge">
<title>Node1&#45;&gt;Node3</title>
<path fill="none" stroke="midnightblue" d="M318.49,-62.99C296.78,-52.69 270.17,-40.07 250.17,-30.58"/>
<polygon fill="midnightblue" stroke="midnightblue" points="317.24,-66.27 327.77,-67.4 320.24,-59.95 317.24,-66.27"/>
</g>
<!-- Node4 -->
<g id="node4" class="node">
<title>Node4</title>
<g id="a_node4"><a xlink:href="$joytabwidget_8cpp.html" xlink:title=" ">
<polygon fill="white" stroke="black" points="298,-0.5 298,-30.5 417,-30.5 417,-0.5 298,-0.5"/>
<text text-anchor="start" x="306" y="-18.5" font-family="Helvetica,sans-Serif" font-size="10.00">/home/pawel/antimicrox</text>
<text text-anchor="middle" x="357.5" y="-7.5" font-family="Helvetica,sans-Serif" font-size="10.00">/src/joytabwidget.cpp</text>
</a>
</g>
</g>
<!-- Node1&#45;&gt;Node4 -->
<g id="edge3" class="edge">
<title>Node1&#45;&gt;Node4</title>
<path fill="none" stroke="midnightblue" d="M357.5,-57.11C357.5,-48.15 357.5,-38.32 357.5,-30.58"/>
<polygon fill="midnightblue" stroke="midnightblue" points="354,-57.4 357.5,-67.4 361,-57.4 354,-57.4"/>
</g>
<!-- Node5 -->
<g id="node5" class="node">
<title>Node5</title>
<g id="a_node5"><a xlink:href="$joytabwidgetcontainer_8cpp.html" xlink:title=" ">
<polygon fill="white" stroke="black" points="435,-0.5 435,-30.5 584,-30.5 584,-0.5 435,-0.5"/>
<text text-anchor="start" x="443" y="-18.5" font-family="Helvetica,sans-Serif" font-size="10.00">/home/pawel/antimicrox</text>
<text text-anchor="middle" x="509.5" y="-7.5" font-family="Helvetica,sans-Serif" font-size="10.00">/src/joytabwidgetcontainer.cpp</text>
</a>
</g>
</g>
<!-- Node1&#45;&gt;Node5 -->
<g id="edge4" class="edge">
<title>Node1&#45;&gt;Node5</title>
<path fill="none" stroke="midnightblue" d="M399.81,-63.41C424.08,-53.03 454.09,-40.2 476.58,-30.58"/>
<polygon fill="midnightblue" stroke="midnightblue" points="398.3,-60.25 390.48,-67.4 401.05,-66.68 398.3,-60.25"/>
</g>
<!-- Node6 -->
<g id="node6" class="node">
<title>Node6</title>
<g id="a_node6"><a xlink:href="$mainwindow_8cpp.html" xlink:title=" ">
<polygon fill="white" stroke="black" points="602,-0.5 602,-30.5 721,-30.5 721,-0.5 602,-0.5"/>
<text text-anchor="start" x="610" y="-18.5" font-family="Helvetica,sans-Serif" font-size="10.00">/home/pawel/antimicrox</text>
<text text-anchor="middle" x="661.5" y="-7.5" font-family="Helvetica,sans-Serif" font-size="10.00">/src/mainwindow.cpp</text>
</a>
</g>
</g>
<!-- Node1&#45;&gt;Node6 -->
<g id="edge5" class="edge">
<title>Node1&#45;&gt;Node6</title>
<path fill="none" stroke="midnightblue" d="M427.16,-66.61C479.97,-55.31 551.78,-39.96 601.94,-29.24"/>
<polygon fill="midnightblue" stroke="midnightblue" points="426.25,-63.22 417.2,-68.74 427.71,-70.07 426.25,-63.22"/>
</g>
</g>
</svg>
