<?xml version="1.0" encoding="UTF-8" standalone="no"?>
<!DOCTYPE svg PUBLIC "-//W3C//DTD SVG 1.1//EN"
 "http://www.w3.org/Graphics/SVG/1.1/DTD/svg11.dtd">
<!-- Generated by graphviz version 2.43.0 (0)
 -->
<!-- Title: /home/pawel/antimicrox/src/slotitemlistwidget.cpp Pages: 1 -->
<svg width="662pt" height="207pt"
 viewBox="0.00 0.00 661.50 207.00" xmlns="http://www.w3.org/2000/svg" xmlns:xlink="http://www.w3.org/1999/xlink">
<g id="graph0" class="graph" transform="scale(1 1) rotate(0) translate(4 203)">
<title>/home/pawel/antimicrox/src/slotitemlistwidget.cpp</title>
<polygon fill="white" stroke="transparent" points="-4,4 -4,-203 657.5,-203 657.5,4 -4,4"/>
<!-- Node1 -->
<g id="node1" class="node">
<title>Node1</title>
<g id="a_node1"><a xlink:title=" ">
<polygon fill="#bfbfbf" stroke="black" points="335,-168.5 335,-198.5 465,-198.5 465,-168.5 335,-168.5"/>
<text text-anchor="start" x="343" y="-186.5" font-family="Helvetica,sans-Serif" font-size="10.00">/home/pawel/antimicrox</text>
<text text-anchor="middle" x="400" y="-175.5" font-family="Helvetica,sans-Serif" font-size="10.00">/src/slotitemlistwidget.cpp</text>
</a>
</g>
</g>
<!-- Node2 -->
<g id="node2" class="node">
<title>Node2</title>
<g id="a_node2"><a xlink:href="$slotitemlistwidget_8h.html" xlink:title=" ">
<polygon fill="white" stroke="black" points="71,-112.5 71,-131.5 171,-131.5 171,-112.5 71,-112.5"/>
<text text-anchor="middle" x="121" y="-119.5" font-family="Helvetica,sans-Serif" font-size="10.00">slotitemlistwidget.h</text>
</a>
</g>
</g>
<!-- Node1&#45;&gt;Node2 -->
<g id="edge1" class="edge">
<title>Node1&#45;&gt;Node2</title>
<path fill="none" stroke="midnightblue" d="M334.94,-168.62C284.94,-157.96 216.9,-143.45 171.09,-133.68"/>
<polygon fill="midnightblue" stroke="midnightblue" points="171.6,-130.21 161.09,-131.55 170.14,-137.06 171.6,-130.21"/>
</g>
<!-- Node4 -->
<g id="node4" class="node">
<title>Node4</title>
<g id="a_node4"><a xlink:href="$simplekeygrabberbutton_8h.html" xlink:title=" ">
<polygon fill="white" stroke="black" points="189,-112.5 189,-131.5 317,-131.5 317,-112.5 189,-112.5"/>
<text text-anchor="middle" x="253" y="-119.5" font-family="Helvetica,sans-Serif" font-size="10.00">simplekeygrabberbutton.h</text>
</a>
</g>
</g>
<!-- Node1&#45;&gt;Node4 -->
<g id="edge3" class="edge">
<title>Node1&#45;&gt;Node4</title>
<path fill="none" stroke="midnightblue" d="M365.16,-168.4C340.5,-158.42 307.71,-145.15 283.97,-135.53"/>
<polygon fill="midnightblue" stroke="midnightblue" points="284.97,-132.17 274.39,-131.66 282.35,-138.65 284.97,-132.17"/>
</g>
<!-- Node13 -->
<g id="node13" class="node">
<title>Node13</title>
<g id="a_node13"><a xlink:title=" ">
<polygon fill="white" stroke="#bfbfbf" points="335.5,-112.5 335.5,-131.5 388.5,-131.5 388.5,-112.5 335.5,-112.5"/>
<text text-anchor="middle" x="362" y="-119.5" font-family="Helvetica,sans-Serif" font-size="10.00">QDebug</text>
</a>
</g>
</g>
<!-- Node1&#45;&gt;Node13 -->
<g id="edge12" class="edge">
<title>Node1&#45;&gt;Node13</title>
<path fill="none" stroke="midnightblue" d="M390.99,-168.4C385.59,-159.93 378.67,-149.1 372.95,-140.14"/>
<polygon fill="midnightblue" stroke="midnightblue" points="375.86,-138.2 367.53,-131.66 369.96,-141.97 375.86,-138.2"/>
</g>
<!-- Node14 -->
<g id="node14" class="node">
<title>Node14</title>
<g id="a_node14"><a xlink:title=" ">
<polygon fill="white" stroke="#bfbfbf" points="406.5,-112.5 406.5,-131.5 471.5,-131.5 471.5,-112.5 406.5,-112.5"/>
<text text-anchor="middle" x="439" y="-119.5" font-family="Helvetica,sans-Serif" font-size="10.00">QKeyEvent</text>
</a>
</g>
</g>
<!-- Node1&#45;&gt;Node14 -->
<g id="edge13" class="edge">
<title>Node1&#45;&gt;Node14</title>
<path fill="none" stroke="midnightblue" d="M409.24,-168.4C414.79,-159.93 421.89,-149.1 427.77,-140.14"/>
<polygon fill="midnightblue" stroke="midnightblue" points="430.77,-141.94 433.33,-131.66 424.92,-138.1 430.77,-141.94"/>
</g>
<!-- Node15 -->
<g id="node15" class="node">
<title>Node15</title>
<g id="a_node15"><a xlink:title=" ">
<polygon fill="white" stroke="#bfbfbf" points="490,-112.5 490,-131.5 580,-131.5 580,-112.5 490,-112.5"/>
<text text-anchor="middle" x="535" y="-119.5" font-family="Helvetica,sans-Serif" font-size="10.00">QListWidgetItem</text>
</a>
</g>
</g>
<!-- Node1&#45;&gt;Node15 -->
<g id="edge14" class="edge">
<title>Node1&#45;&gt;Node15</title>
<path fill="none" stroke="midnightblue" d="M431.99,-168.4C454.44,-158.51 484.21,-145.38 505.98,-135.79"/>
<polygon fill="midnightblue" stroke="midnightblue" points="507.62,-138.89 515.36,-131.66 504.79,-132.49 507.62,-138.89"/>
</g>
<!-- Node16 -->
<g id="node16" class="node">
<title>Node16</title>
<g id="a_node16"><a xlink:title=" ">
<polygon fill="white" stroke="#bfbfbf" points="598.5,-112.5 598.5,-131.5 653.5,-131.5 653.5,-112.5 598.5,-112.5"/>
<text text-anchor="middle" x="626" y="-119.5" font-family="Helvetica,sans-Serif" font-size="10.00">QWidget</text>
</a>
</g>
</g>
<!-- Node1&#45;&gt;Node16 -->
<g id="edge15" class="edge">
<title>Node1&#45;&gt;Node16</title>
<path fill="none" stroke="midnightblue" d="M453.27,-168.47C494.9,-157.51 551.71,-142.56 588.62,-132.84"/>
<polygon fill="midnightblue" stroke="midnightblue" points="589.7,-136.18 598.48,-130.25 587.91,-129.41 589.7,-136.18"/>
</g>
<!-- Node3 -->
<g id="node3" class="node">
<title>Node3</title>
<g id="a_node3"><a xlink:title=" ">
<polygon fill="white" stroke="#bfbfbf" points="85.5,-56.5 85.5,-75.5 156.5,-75.5 156.5,-56.5 85.5,-56.5"/>
<text text-anchor="middle" x="121" y="-63.5" font-family="Helvetica,sans-Serif" font-size="10.00">QListWidget</text>
</a>
</g>
</g>
<!-- Node2&#45;&gt;Node3 -->
<g id="edge2" class="edge">
<title>Node2&#45;&gt;Node3</title>
<path fill="none" stroke="midnightblue" d="M121,-112.08C121,-105.01 121,-94.86 121,-85.99"/>
<polygon fill="midnightblue" stroke="midnightblue" points="124.5,-85.75 121,-75.75 117.5,-85.75 124.5,-85.75"/>
</g>
<!-- Node5 -->
<g id="node5" class="node">
<title>Node5</title>
<g id="a_node5"><a xlink:href="$joybuttonslot_8h.html" xlink:title=" ">
<polygon fill="white" stroke="black" points="194,-56.5 194,-75.5 274,-75.5 274,-56.5 194,-56.5"/>
<text text-anchor="middle" x="234" y="-63.5" font-family="Helvetica,sans-Serif" font-size="10.00">joybuttonslot.h</text>
</a>
</g>
</g>
<!-- Node4&#45;&gt;Node5 -->
<g id="edge4" class="edge">
<title>Node4&#45;&gt;Node5</title>
<path fill="none" stroke="midnightblue" d="M249.86,-112.08C247.32,-104.85 243.64,-94.41 240.47,-85.4"/>
<polygon fill="midnightblue" stroke="midnightblue" points="243.7,-84.02 237.08,-75.75 237.1,-86.35 243.7,-84.02"/>
</g>
<!-- Node12 -->
<g id="node12" class="node">
<title>Node12</title>
<g id="a_node12"><a xlink:title=" ">
<polygon fill="white" stroke="#bfbfbf" points="292.5,-56.5 292.5,-75.5 367.5,-75.5 367.5,-56.5 292.5,-56.5"/>
<text text-anchor="middle" x="330" y="-63.5" font-family="Helvetica,sans-Serif" font-size="10.00">QPushButton</text>
</a>
</g>
</g>
<!-- Node4&#45;&gt;Node12 -->
<g id="edge11" class="edge">
<title>Node4&#45;&gt;Node12</title>
<path fill="none" stroke="midnightblue" d="M265.37,-112.32C277.16,-104.06 295.13,-91.45 309.14,-81.63"/>
<polygon fill="midnightblue" stroke="midnightblue" points="311.48,-84.26 317.66,-75.65 307.46,-78.53 311.48,-84.26"/>
</g>
<!-- Node6 -->
<g id="node6" class="node">
<title>Node6</title>
<g id="a_node6"><a xlink:title=" ">
<polygon fill="white" stroke="#bfbfbf" points="0,-0.5 0,-19.5 84,-19.5 84,-0.5 0,-0.5"/>
<text text-anchor="middle" x="42" y="-7.5" font-family="Helvetica,sans-Serif" font-size="10.00">QElapsedTimer</text>
</a>
</g>
</g>
<!-- Node5&#45;&gt;Node6 -->
<g id="edge5" class="edge">
<title>Node5&#45;&gt;Node6</title>
<path fill="none" stroke="midnightblue" d="M203.58,-56.44C170.72,-47.2 118.22,-32.44 82.03,-22.26"/>
<polygon fill="midnightblue" stroke="midnightblue" points="82.85,-18.85 72.28,-19.52 80.96,-25.59 82.85,-18.85"/>
</g>
<!-- Node7 -->
<g id="node7" class="node">
<title>Node7</title>
<g id="a_node7"><a xlink:title=" ">
<polygon fill="white" stroke="#bfbfbf" points="101.5,-0.5 101.5,-19.5 154.5,-19.5 154.5,-0.5 101.5,-0.5"/>
<text text-anchor="middle" x="128" y="-7.5" font-family="Helvetica,sans-Serif" font-size="10.00">QObject</text>
</a>
</g>
</g>
<!-- Node5&#45;&gt;Node7 -->
<g id="edge6" class="edge">
<title>Node5&#45;&gt;Node7</title>
<path fill="none" stroke="midnightblue" d="M216.97,-56.32C199.97,-47.66 173.62,-34.24 154.01,-24.25"/>
<polygon fill="midnightblue" stroke="midnightblue" points="155.49,-21.08 144.99,-19.65 152.31,-27.31 155.49,-21.08"/>
</g>
<!-- Node8 -->
<g id="node8" class="node">
<title>Node8</title>
<g id="a_node8"><a xlink:title=" ">
<polygon fill="white" stroke="#bfbfbf" points="172.5,-0.5 172.5,-19.5 227.5,-19.5 227.5,-0.5 172.5,-0.5"/>
<text text-anchor="middle" x="200" y="-7.5" font-family="Helvetica,sans-Serif" font-size="10.00">QPointer</text>
</a>
</g>
</g>
<!-- Node5&#45;&gt;Node8 -->
<g id="edge7" class="edge">
<title>Node5&#45;&gt;Node8</title>
<path fill="none" stroke="midnightblue" d="M228.39,-56.08C223.63,-48.53 216.68,-37.49 210.85,-28.23"/>
<polygon fill="midnightblue" stroke="midnightblue" points="213.8,-26.35 205.51,-19.75 207.88,-30.08 213.8,-26.35"/>
</g>
<!-- Node9 -->
<g id="node9" class="node">
<title>Node9</title>
<g id="a_node9"><a xlink:title=" ">
<polygon fill="white" stroke="#bfbfbf" points="246,-0.5 246,-19.5 292,-19.5 292,-0.5 246,-0.5"/>
<text text-anchor="middle" x="269" y="-7.5" font-family="Helvetica,sans-Serif" font-size="10.00">QTime</text>
</a>
</g>
</g>
<!-- Node5&#45;&gt;Node9 -->
<g id="edge8" class="edge">
<title>Node5&#45;&gt;Node9</title>
<path fill="none" stroke="midnightblue" d="M239.78,-56.08C244.67,-48.53 251.83,-37.49 257.83,-28.23"/>
<polygon fill="midnightblue" stroke="midnightblue" points="260.83,-30.05 263.33,-19.75 254.95,-26.24 260.83,-30.05"/>
</g>
<!-- Node10 -->
<g id="node10" class="node">
<title>Node10</title>
<g id="a_node10"><a xlink:title=" ">
<polygon fill="white" stroke="#bfbfbf" points="310,-0.5 310,-19.5 364,-19.5 364,-0.5 310,-0.5"/>
<text text-anchor="middle" x="337" y="-7.5" font-family="Helvetica,sans-Serif" font-size="10.00">QVariant</text>
</a>
</g>
</g>
<!-- Node5&#45;&gt;Node10 -->
<g id="edge9" class="edge">
<title>Node5&#45;&gt;Node10</title>
<path fill="none" stroke="midnightblue" d="M250.55,-56.32C266.99,-47.7 292.43,-34.36 311.47,-24.39"/>
<polygon fill="midnightblue" stroke="midnightblue" points="313.26,-27.4 320.49,-19.65 310.01,-21.2 313.26,-27.4"/>
</g>
<!-- Node11 -->
<g id="node11" class="node">
<title>Node11</title>
<g id="a_node11"><a xlink:title=" ">
<polygon fill="white" stroke="#bfbfbf" points="382,-0.5 382,-19.5 504,-19.5 504,-0.5 382,-0.5"/>
<text text-anchor="middle" x="443" y="-7.5" font-family="Helvetica,sans-Serif" font-size="10.00">QtWidgets/QApplication</text>
</a>
</g>
</g>
<!-- Node5&#45;&gt;Node11 -->
<g id="edge10" class="edge">
<title>Node5&#45;&gt;Node11</title>
<path fill="none" stroke="midnightblue" d="M267.12,-56.44C303.12,-47.14 360.77,-32.25 400.19,-22.06"/>
<polygon fill="midnightblue" stroke="midnightblue" points="401.23,-25.41 410.04,-19.52 399.48,-18.63 401.23,-25.41"/>
</g>
</g>
</svg>
