<?xml version="1.0" encoding="UTF-8" standalone="no"?>
<!DOCTYPE svg PUBLIC "-//W3C//DTD SVG 1.1//EN"
 "http://www.w3.org/Graphics/SVG/1.1/DTD/svg11.dtd">
<!-- Generated by graphviz version 2.43.0 (0)
 -->
<!-- Title: /home/pawel/antimicrox/src/gui/buttoneditdialog.h Pages: 1 -->
<svg width="1352pt" height="106pt"
 viewBox="0.00 0.00 1352.00 106.00" xmlns="http://www.w3.org/2000/svg" xmlns:xlink="http://www.w3.org/1999/xlink">
<g id="graph0" class="graph" transform="scale(1 1) rotate(0) translate(4 102)">
<title>/home/pawel/antimicrox/src/gui/buttoneditdialog.h</title>
<polygon fill="white" stroke="transparent" points="-4,4 -4,-102 1348,-102 1348,4 -4,4"/>
<!-- Node1 -->
<g id="node1" class="node">
<title>Node1</title>
<g id="a_node1"><a xlink:title=" ">
<polygon fill="#bfbfbf" stroke="black" points="578,-67.5 578,-97.5 706,-97.5 706,-67.5 578,-67.5"/>
<text text-anchor="start" x="586" y="-85.5" font-family="Helvetica,sans-Serif" font-size="10.00">/home/pawel/antimicrox</text>
<text text-anchor="middle" x="642" y="-74.5" font-family="Helvetica,sans-Serif" font-size="10.00">/src/gui/buttoneditdialog.h</text>
</a>
</g>
</g>
<!-- Node2 -->
<g id="node2" class="node">
<title>Node2</title>
<g id="a_node2"><a xlink:href="dpadpushbuttongroup_8cpp.html" target="_top" xlink:title=" ">
<polygon fill="white" stroke="black" points="0,-0.5 0,-30.5 148,-30.5 148,-0.5 0,-0.5"/>
<text text-anchor="start" x="8" y="-18.5" font-family="Helvetica,sans-Serif" font-size="10.00">/home/pawel/antimicrox</text>
<text text-anchor="middle" x="74" y="-7.5" font-family="Helvetica,sans-Serif" font-size="10.00">/src/dpadpushbuttongroup.cpp</text>
</a>
</g>
</g>
<!-- Node1&#45;&gt;Node2 -->
<g id="edge1" class="edge">
<title>Node1&#45;&gt;Node2</title>
<path fill="none" stroke="midnightblue" d="M567.77,-75.38C472.45,-67.15 302.01,-51.19 157,-31 154.1,-30.6 151.15,-30.17 148.17,-29.72"/>
<polygon fill="midnightblue" stroke="midnightblue" points="567.62,-78.88 577.89,-76.25 568.22,-71.9 567.62,-78.88"/>
</g>
<!-- Node3 -->
<g id="node3" class="node">
<title>Node3</title>
<g id="a_node3"><a xlink:href="axiseditdialog_8cpp.html" target="_top" xlink:title=" ">
<polygon fill="white" stroke="black" points="166.5,-0.5 166.5,-30.5 297.5,-30.5 297.5,-0.5 166.5,-0.5"/>
<text text-anchor="start" x="174.5" y="-18.5" font-family="Helvetica,sans-Serif" font-size="10.00">/home/pawel/antimicrox</text>
<text text-anchor="middle" x="232" y="-7.5" font-family="Helvetica,sans-Serif" font-size="10.00">/src/gui/axiseditdialog.cpp</text>
</a>
</g>
</g>
<!-- Node1&#45;&gt;Node3 -->
<g id="edge2" class="edge">
<title>Node1&#45;&gt;Node3</title>
<path fill="none" stroke="midnightblue" d="M567.55,-71.28C499.36,-61.68 395.7,-46.52 306,-31 303.29,-30.53 300.53,-30.04 297.74,-29.54"/>
<polygon fill="midnightblue" stroke="midnightblue" points="567.37,-74.78 577.76,-72.71 568.35,-67.85 567.37,-74.78"/>
</g>
<!-- Node4 -->
<g id="node4" class="node">
<title>Node4</title>
<g id="a_node4"><a xlink:href="buttoneditdialog_8cpp.html" target="_top" xlink:title=" ">
<polygon fill="white" stroke="black" points="315.5,-0.5 315.5,-30.5 454.5,-30.5 454.5,-0.5 315.5,-0.5"/>
<text text-anchor="start" x="323.5" y="-18.5" font-family="Helvetica,sans-Serif" font-size="10.00">/home/pawel/antimicrox</text>
<text text-anchor="middle" x="385" y="-7.5" font-family="Helvetica,sans-Serif" font-size="10.00">/src/gui/buttoneditdialog.cpp</text>
</a>
</g>
</g>
<!-- Node1&#45;&gt;Node4 -->
<g id="edge3" class="edge">
<title>Node1&#45;&gt;Node4</title>
<path fill="none" stroke="midnightblue" d="M576.7,-64.98C534.72,-54.37 480.76,-40.72 440.79,-30.61"/>
<polygon fill="midnightblue" stroke="midnightblue" points="576,-68.42 586.55,-67.48 577.71,-61.63 576,-68.42"/>
</g>
<!-- Node5 -->
<g id="node5" class="node">
<title>Node5</title>
<g id="a_node5"><a xlink:href="joycontrolstickeditdialog_8cpp.html" target="_top" xlink:title=" ">
<polygon fill="white" stroke="black" points="472.5,-0.5 472.5,-30.5 645.5,-30.5 645.5,-0.5 472.5,-0.5"/>
<text text-anchor="start" x="480.5" y="-18.5" font-family="Helvetica,sans-Serif" font-size="10.00">/home/pawel/antimicrox</text>
<text text-anchor="middle" x="559" y="-7.5" font-family="Helvetica,sans-Serif" font-size="10.00">/src/gui/joycontrolstickeditdialog.cpp</text>
</a>
</g>
</g>
<!-- Node1&#45;&gt;Node5 -->
<g id="edge4" class="edge">
<title>Node1&#45;&gt;Node5</title>
<path fill="none" stroke="midnightblue" d="M616.04,-61.17C603.35,-51.23 588.39,-39.51 576.97,-30.58"/>
<polygon fill="midnightblue" stroke="midnightblue" points="613.96,-63.99 623.99,-67.4 618.28,-58.47 613.96,-63.99"/>
</g>
<!-- Node6 -->
<g id="node6" class="node">
<title>Node6</title>
<g id="a_node6"><a xlink:href="joytabwidget_8cpp.html" target="_top" xlink:title=" ">
<polygon fill="white" stroke="black" points="663.5,-0.5 663.5,-30.5 788.5,-30.5 788.5,-0.5 663.5,-0.5"/>
<text text-anchor="start" x="671.5" y="-18.5" font-family="Helvetica,sans-Serif" font-size="10.00">/home/pawel/antimicrox</text>
<text text-anchor="middle" x="726" y="-7.5" font-family="Helvetica,sans-Serif" font-size="10.00">/src/gui/joytabwidget.cpp</text>
</a>
</g>
</g>
<!-- Node1&#45;&gt;Node6 -->
<g id="edge5" class="edge">
<title>Node1&#45;&gt;Node6</title>
<path fill="none" stroke="midnightblue" d="M668.28,-61.17C681.12,-51.23 696.26,-39.51 707.81,-30.58"/>
<polygon fill="midnightblue" stroke="midnightblue" points="665.99,-58.51 660.23,-67.4 670.28,-64.04 665.99,-58.51"/>
</g>
<!-- Node7 -->
<g id="node7" class="node">
<title>Node7</title>
<g id="a_node7"><a xlink:href="quicksetdialog_8cpp.html" target="_top" xlink:title=" ">
<polygon fill="white" stroke="black" points="806.5,-0.5 806.5,-30.5 939.5,-30.5 939.5,-0.5 806.5,-0.5"/>
<text text-anchor="start" x="814.5" y="-18.5" font-family="Helvetica,sans-Serif" font-size="10.00">/home/pawel/antimicrox</text>
<text text-anchor="middle" x="873" y="-7.5" font-family="Helvetica,sans-Serif" font-size="10.00">/src/gui/quicksetdialog.cpp</text>
</a>
</g>
</g>
<!-- Node1&#45;&gt;Node7 -->
<g id="edge6" class="edge">
<title>Node1&#45;&gt;Node7</title>
<path fill="none" stroke="midnightblue" d="M701.65,-64.71C739.24,-54.14 787.23,-40.63 822.85,-30.61"/>
<polygon fill="midnightblue" stroke="midnightblue" points="700.52,-61.4 691.84,-67.48 702.41,-68.14 700.52,-61.4"/>
</g>
<!-- Node8 -->
<g id="node8" class="node">
<title>Node8</title>
<g id="a_node8"><a xlink:href="virtualkeyboardmousewidget_8cpp.html" target="_top" xlink:title=" ">
<polygon fill="white" stroke="black" points="958,-0.5 958,-30.5 1178,-30.5 1178,-0.5 958,-0.5"/>
<text text-anchor="start" x="966" y="-18.5" font-family="Helvetica,sans-Serif" font-size="10.00">/home/pawel/antimicrox</text>
<text text-anchor="middle" x="1068" y="-7.5" font-family="Helvetica,sans-Serif" font-size="10.00">/src/keyboard/virtualkeyboardmousewidget.cpp</text>
</a>
</g>
</g>
<!-- Node1&#45;&gt;Node8 -->
<g id="edge7" class="edge">
<title>Node1&#45;&gt;Node8</title>
<path fill="none" stroke="midnightblue" d="M716.17,-70.18C788.35,-59.17 898.23,-42.4 975.96,-30.54"/>
<polygon fill="midnightblue" stroke="midnightblue" points="715.6,-66.73 706.24,-71.7 716.65,-73.65 715.6,-66.73"/>
</g>
<!-- Node9 -->
<g id="node9" class="node">
<title>Node9</title>
<g id="a_node9"><a xlink:href="stickpushbuttongroup_8cpp.html" target="_top" xlink:title=" ">
<polygon fill="white" stroke="black" points="1196,-0.5 1196,-30.5 1344,-30.5 1344,-0.5 1196,-0.5"/>
<text text-anchor="start" x="1204" y="-18.5" font-family="Helvetica,sans-Serif" font-size="10.00">/home/pawel/antimicrox</text>
<text text-anchor="middle" x="1270" y="-7.5" font-family="Helvetica,sans-Serif" font-size="10.00">/src/stickpushbuttongroup.cpp</text>
</a>
</g>
</g>
<!-- Node1&#45;&gt;Node9 -->
<g id="edge8" class="edge">
<title>Node1&#45;&gt;Node9</title>
<path fill="none" stroke="midnightblue" d="M716.56,-76.5C821.73,-69.02 1019.51,-53.35 1187,-31 1189.9,-30.61 1192.85,-30.2 1195.83,-29.76"/>
<polygon fill="midnightblue" stroke="midnightblue" points="716.1,-73.03 706.37,-77.22 716.59,-80.01 716.1,-73.03"/>
</g>
</g>
</svg>
