<?xml version="1.0" encoding="UTF-8" standalone="no"?>
<!DOCTYPE svg PUBLIC "-//W3C//DTD SVG 1.1//EN"
 "http://www.w3.org/Graphics/SVG/1.1/DTD/svg11.dtd">
<!-- Generated by graphviz version 2.43.0 (0)
 -->
<!-- Title: MouseAxisSettingsDialog::calculateMouseSpeedPreset Pages: 1 -->
<svg width="335pt" height="142pt"
 viewBox="0.00 0.00 335.00 142.00" xmlns="http://www.w3.org/2000/svg" xmlns:xlink="http://www.w3.org/1999/xlink">
<g id="graph0" class="graph" transform="scale(1 1) rotate(0) translate(4 138)">
<title>MouseAxisSettingsDialog::calculateMouseSpeedPreset</title>
<polygon fill="white" stroke="transparent" points="-4,4 -4,-138 331,-138 331,4 -4,4"/>
<!-- Node1 -->
<g id="node1" class="node">
<title>Node1</title>
<g id="a_node1"><a xlink:title=" ">
<polygon fill="#bfbfbf" stroke="black" points="0,-52 0,-82 147,-82 147,-52 0,-52"/>
<text text-anchor="start" x="8" y="-70" font-family="Helvetica,sans-Serif" font-size="10.00">MouseAxisSettingsDialog</text>
<text text-anchor="middle" x="73.5" y="-59" font-family="Helvetica,sans-Serif" font-size="10.00">::calculateMouseSpeedPreset</text>
</a>
</g>
</g>
<!-- Node2 -->
<g id="node2" class="node">
<title>Node2</title>
<g id="a_node2"><a xlink:href="classJoyButton.html#a76e65a13abf96d01fa11ed9fd3b08a7b" target="_top" xlink:title=" ">
<polygon fill="white" stroke="black" points="183,-114.5 183,-133.5 327,-133.5 327,-114.5 183,-114.5"/>
<text text-anchor="middle" x="255" y="-121.5" font-family="Helvetica,sans-Serif" font-size="10.00">JoyButton::getMouseSpeedX</text>
</a>
</g>
</g>
<!-- Node1&#45;&gt;Node2 -->
<g id="edge1" class="edge">
<title>Node1&#45;&gt;Node2</title>
<path fill="none" stroke="midnightblue" d="M115.22,-82.08C135.47,-89.37 160.4,-98.03 183,-105 190.54,-107.33 198.59,-109.64 206.45,-111.81"/>
<polygon fill="midnightblue" stroke="midnightblue" points="205.7,-115.23 216.26,-114.47 207.53,-108.47 205.7,-115.23"/>
</g>
<!-- Node3 -->
<g id="node3" class="node">
<title>Node3</title>
<g id="a_node3"><a xlink:href="classJoyButton.html#a897f0f78773ace1b5916222bd757b1bc" target="_top" xlink:title=" ">
<polygon fill="white" stroke="black" points="183,-76.5 183,-95.5 327,-95.5 327,-76.5 183,-76.5"/>
<text text-anchor="middle" x="255" y="-83.5" font-family="Helvetica,sans-Serif" font-size="10.00">JoyButton::getMouseSpeedY</text>
</a>
</g>
</g>
<!-- Node1&#45;&gt;Node3 -->
<g id="edge2" class="edge">
<title>Node1&#45;&gt;Node3</title>
<path fill="none" stroke="midnightblue" d="M147.25,-74.7C155.7,-75.6 164.36,-76.51 172.92,-77.42"/>
<polygon fill="midnightblue" stroke="midnightblue" points="172.58,-80.9 182.89,-78.47 173.32,-73.94 172.58,-80.9"/>
</g>
<!-- Node4 -->
<g id="node4" class="node">
<title>Node4</title>
<g id="a_node4"><a xlink:href="classJoyAxis.html#aae658e2a7b83ce73ce3d7d1ed13eabc6" target="_top" xlink:title=" ">
<polygon fill="white" stroke="black" points="192,-38.5 192,-57.5 318,-57.5 318,-38.5 192,-38.5"/>
<text text-anchor="middle" x="255" y="-45.5" font-family="Helvetica,sans-Serif" font-size="10.00">JoyAxis::getNAxisButton</text>
</a>
</g>
</g>
<!-- Node1&#45;&gt;Node4 -->
<g id="edge3" class="edge">
<title>Node1&#45;&gt;Node4</title>
<path fill="none" stroke="midnightblue" d="M147.25,-59.3C158.56,-58.1 170.24,-56.87 181.55,-55.67"/>
<polygon fill="midnightblue" stroke="midnightblue" points="182.22,-59.12 191.8,-54.58 181.49,-52.16 182.22,-59.12"/>
</g>
<!-- Node5 -->
<g id="node5" class="node">
<title>Node5</title>
<g id="a_node5"><a xlink:href="classJoyAxis.html#ad51d55d2a95190468209f7481eae8639" target="_top" xlink:title=" ">
<polygon fill="white" stroke="black" points="192.5,-0.5 192.5,-19.5 317.5,-19.5 317.5,-0.5 192.5,-0.5"/>
<text text-anchor="middle" x="255" y="-7.5" font-family="Helvetica,sans-Serif" font-size="10.00">JoyAxis::getPAxisButton</text>
</a>
</g>
</g>
<!-- Node1&#45;&gt;Node5 -->
<g id="edge4" class="edge">
<title>Node1&#45;&gt;Node5</title>
<path fill="none" stroke="midnightblue" d="M115.22,-51.92C135.47,-44.63 160.4,-35.97 183,-29 190.54,-26.67 198.59,-24.36 206.45,-22.19"/>
<polygon fill="midnightblue" stroke="midnightblue" points="207.53,-25.53 216.26,-19.53 205.7,-18.77 207.53,-25.53"/>
</g>
</g>
</svg>
