<?xml version="1.0" encoding="UTF-8" standalone="no"?>
<!DOCTYPE svg PUBLIC "-//W3C//DTD SVG 1.1//EN"
 "http://www.w3.org/Graphics/SVG/1.1/DTD/svg11.dtd">
<!-- Generated by graphviz version 2.43.0 (0)
 -->
<!-- Title: VirtualKeyboardMouseWidget::createOtherKeysMenu Pages: 1 -->
<svg width="714pt" height="61pt"
 viewBox="0.00 0.00 714.00 61.00" xmlns="http://www.w3.org/2000/svg" xmlns:xlink="http://www.w3.org/1999/xlink">
<g id="graph0" class="graph" transform="scale(1 1) rotate(0) translate(4 57)">
<title>VirtualKeyboardMouseWidget::createOtherKeysMenu</title>
<polygon fill="white" stroke="transparent" points="-4,4 -4,-57 710,-57 710,4 -4,4"/>
<!-- Node1 -->
<g id="node1" class="node">
<title>Node1</title>
<g id="a_node1"><a xlink:title=" ">
<polygon fill="#bfbfbf" stroke="black" points="560,-0.5 560,-30.5 706,-30.5 706,-0.5 560,-0.5"/>
<text text-anchor="start" x="568" y="-18.5" font-family="Helvetica,sans-Serif" font-size="10.00">VirtualKeyboardMouseWidget</text>
<text text-anchor="middle" x="633" y="-7.5" font-family="Helvetica,sans-Serif" font-size="10.00">::createOtherKeysMenu</text>
</a>
</g>
</g>
<!-- Node2 -->
<g id="node2" class="node">
<title>Node2</title>
<g id="a_node2"><a xlink:href="classVirtualKeyboardMouseWidget.html#af85edb3fbf4cf97fafb0b31b2d2cf210" target="_top" xlink:title=" ">
<polygon fill="white" stroke="black" points="370,-22.5 370,-52.5 524,-52.5 524,-22.5 370,-22.5"/>
<text text-anchor="start" x="378" y="-40.5" font-family="Helvetica,sans-Serif" font-size="10.00">VirtualKeyboardMouseWidget</text>
<text text-anchor="middle" x="447" y="-29.5" font-family="Helvetica,sans-Serif" font-size="10.00">::setupKeyboardNumPadLayout</text>
</a>
</g>
</g>
<!-- Node1&#45;&gt;Node2 -->
<g id="edge1" class="edge">
<title>Node1&#45;&gt;Node2</title>
<path fill="none" stroke="midnightblue" d="M549.86,-25.32C541.33,-26.34 532.69,-27.37 524.23,-28.39"/>
<polygon fill="midnightblue" stroke="midnightblue" points="550.29,-28.79 559.81,-24.13 549.46,-21.84 550.29,-28.79"/>
</g>
<!-- Node3 -->
<g id="node3" class="node">
<title>Node3</title>
<g id="a_node3"><a xlink:href="classVirtualKeyboardMouseWidget.html#a8b9789b09bbd9f161c85cc34cdb5213a" target="_top" xlink:title=" ">
<polygon fill="white" stroke="black" points="188,-0.5 188,-30.5 334,-30.5 334,-0.5 188,-0.5"/>
<text text-anchor="start" x="196" y="-18.5" font-family="Helvetica,sans-Serif" font-size="10.00">VirtualKeyboardMouseWidget</text>
<text text-anchor="middle" x="261" y="-7.5" font-family="Helvetica,sans-Serif" font-size="10.00">::setupVirtualKeyboardLayout</text>
</a>
</g>
</g>
<!-- Node1&#45;&gt;Node3 -->
<g id="edge4" class="edge">
<title>Node1&#45;&gt;Node3</title>
<path fill="none" stroke="midnightblue" d="M549.78,-13.82C541.08,-13.69 532.36,-13.58 524,-13.5 455.56,-12.87 438.44,-12.87 370,-13.5 358.37,-13.61 346.04,-13.78 334.03,-13.98"/>
<polygon fill="midnightblue" stroke="midnightblue" points="549.91,-17.32 559.97,-13.98 550.02,-10.32 549.91,-17.32"/>
</g>
<!-- Node2&#45;&gt;Node3 -->
<g id="edge2" class="edge">
<title>Node2&#45;&gt;Node3</title>
<path fill="none" stroke="midnightblue" d="M359.84,-27.2C351.28,-26.18 342.66,-25.14 334.27,-24.14"/>
<polygon fill="midnightblue" stroke="midnightblue" points="359.49,-30.68 369.83,-28.39 360.32,-23.73 359.49,-30.68"/>
</g>
<!-- Node4 -->
<g id="node4" class="node">
<title>Node4</title>
<g id="a_node4"><a xlink:href="classVirtualKeyboardMouseWidget.html#a5117686d29ac16c0d1f947da9ba7b7a4" target="_top" xlink:title=" ">
<polygon fill="white" stroke="black" points="0,-0.5 0,-30.5 152,-30.5 152,-0.5 0,-0.5"/>
<text text-anchor="start" x="8" y="-18.5" font-family="Helvetica,sans-Serif" font-size="10.00">VirtualKeyboardMouseWidget</text>
<text text-anchor="middle" x="76" y="-7.5" font-family="Helvetica,sans-Serif" font-size="10.00">::VirtualKeyboardMouseWidget</text>
</a>
</g>
</g>
<!-- Node3&#45;&gt;Node4 -->
<g id="edge3" class="edge">
<title>Node3&#45;&gt;Node4</title>
<path fill="none" stroke="midnightblue" d="M177.89,-15.5C169.27,-15.5 160.54,-15.5 152.01,-15.5"/>
<polygon fill="midnightblue" stroke="midnightblue" points="177.94,-19 187.94,-15.5 177.94,-12 177.94,-19"/>
</g>
</g>
</svg>
