<?xml version="1.0" encoding="UTF-8" standalone="no"?>
<!DOCTYPE svg PUBLIC "-//W3C//DTD SVG 1.1//EN"
 "http://www.w3.org/Graphics/SVG/1.1/DTD/svg11.dtd">
<!-- Generated by graphviz version 2.43.0 (0)
 -->
<!-- Title: AutoProfileInfo::setExe Pages: 1 -->
<svg width="675pt" height="225pt"
 viewBox="0.00 0.00 675.00 224.50" xmlns="http://www.w3.org/2000/svg" xmlns:xlink="http://www.w3.org/1999/xlink">
<g id="graph0" class="graph" transform="scale(1 1) rotate(0) translate(4 220.5)">
<title>AutoProfileInfo::setExe</title>
<polygon fill="white" stroke="transparent" points="-4,4 -4,-220.5 671,-220.5 671,4 -4,4"/>
<!-- Node1 -->
<g id="node1" class="node">
<title>Node1</title>
<g id="a_node1"><a xlink:title=" ">
<polygon fill="#bfbfbf" stroke="black" points="550,-128 550,-147 667,-147 667,-128 550,-128"/>
<text text-anchor="middle" x="608.5" y="-135" font-family="Helvetica,sans-Serif" font-size="10.00">AutoProfileInfo::setExe</text>
</a>
</g>
</g>
<!-- Node2 -->
<g id="node2" class="node">
<title>Node2</title>
<g id="a_node2"><a xlink:href="$classAutoProfileInfo.html#ab2d60c700b0bafaa42c7d4a870678299" xlink:title=" ">
<polygon fill="white" stroke="black" points="362,-197 362,-216 514,-216 514,-197 362,-197"/>
<text text-anchor="middle" x="438" y="-204" font-family="Helvetica,sans-Serif" font-size="10.00">AutoProfileInfo::AutoProfileInfo</text>
</a>
</g>
</g>
<!-- Node1&#45;&gt;Node2 -->
<g id="edge1" class="edge">
<title>Node1&#45;&gt;Node2</title>
<path fill="none" stroke="midnightblue" d="M583.88,-152.21C565.42,-163.18 538.82,-177.89 514,-187.5 504.48,-191.19 494,-194.36 483.98,-197"/>
<polygon fill="midnightblue" stroke="midnightblue" points="585.75,-155.17 592.49,-147.01 582.13,-149.18 585.75,-155.17"/>
</g>
<!-- Node3 -->
<g id="node3" class="node">
<title>Node3</title>
<g id="a_node3"><a xlink:href="$classMainSettingsDialog.html#ae075b085dd2e591e721a3c45e41754b1" xlink:title=" ">
<polygon fill="white" stroke="black" points="381.5,-147.5 381.5,-177.5 494.5,-177.5 494.5,-147.5 381.5,-147.5"/>
<text text-anchor="start" x="389.5" y="-165.5" font-family="Helvetica,sans-Serif" font-size="10.00">MainSettingsDialog</text>
<text text-anchor="middle" x="438" y="-154.5" font-family="Helvetica,sans-Serif" font-size="10.00">::populateAutoProfiles</text>
</a>
</g>
</g>
<!-- Node1&#45;&gt;Node3 -->
<g id="edge2" class="edge">
<title>Node1&#45;&gt;Node3</title>
<path fill="none" stroke="midnightblue" d="M539.74,-147.55C524.73,-149.78 509,-152.11 494.55,-154.26"/>
<polygon fill="midnightblue" stroke="midnightblue" points="540.61,-150.96 549.98,-146.03 539.58,-144.04 540.61,-150.96"/>
</g>
<!-- Node5 -->
<g id="node5" class="node">
<title>Node5</title>
<g id="a_node5"><a xlink:href="$classAddEditAutoProfileDialog.html#a6c236891f9ad9def8e162a795c6cc73b" xlink:title=" ">
<polygon fill="white" stroke="black" points="368,-98.5 368,-128.5 508,-128.5 508,-98.5 368,-98.5"/>
<text text-anchor="start" x="376" y="-116.5" font-family="Helvetica,sans-Serif" font-size="10.00">AddEditAutoProfileDialog</text>
<text text-anchor="middle" x="438" y="-105.5" font-family="Helvetica,sans-Serif" font-size="10.00">::saveAutoProfileInformation</text>
</a>
</g>
</g>
<!-- Node1&#45;&gt;Node5 -->
<g id="edge4" class="edge">
<title>Node1&#45;&gt;Node5</title>
<path fill="none" stroke="midnightblue" d="M540.06,-127.89C529.57,-126.4 518.72,-124.85 508.19,-123.36"/>
<polygon fill="midnightblue" stroke="midnightblue" points="539.59,-131.36 549.98,-129.31 540.58,-124.43 539.59,-131.36"/>
</g>
<!-- Node7 -->
<g id="node7" class="node">
<title>Node7</title>
<g id="a_node7"><a xlink:href="$classAutoProfileWatcher.html#a561af8319ef8031986ac0eaee221c6a3" xlink:title=" ">
<polygon fill="white" stroke="black" points="377,-49.5 377,-79.5 499,-79.5 499,-49.5 377,-49.5"/>
<text text-anchor="start" x="385" y="-67.5" font-family="Helvetica,sans-Serif" font-size="10.00">AutoProfileWatcher</text>
<text text-anchor="middle" x="438" y="-56.5" font-family="Helvetica,sans-Serif" font-size="10.00">::syncProfileAssignment</text>
</a>
</g>
</g>
<!-- Node1&#45;&gt;Node7 -->
<g id="edge6" class="edge">
<title>Node1&#45;&gt;Node7</title>
<path fill="none" stroke="midnightblue" d="M581.67,-122.89C563.18,-112.76 537.49,-99.38 514,-89.5 505.65,-85.99 496.62,-82.63 487.82,-79.57"/>
<polygon fill="midnightblue" stroke="midnightblue" points="580.2,-126.07 590.64,-127.85 583.59,-119.95 580.2,-126.07"/>
</g>
<!-- Node4 -->
<g id="node4" class="node">
<title>Node4</title>
<g id="a_node4"><a xlink:href="$classMainSettingsDialog.html#aeee272ff5482aca59310558ffdb9ebbe" xlink:title=" ">
<polygon fill="white" stroke="black" points="194.5,-147.5 194.5,-177.5 301.5,-177.5 301.5,-147.5 194.5,-147.5"/>
<text text-anchor="start" x="202.5" y="-165.5" font-family="Helvetica,sans-Serif" font-size="10.00">MainSettingsDialog</text>
<text text-anchor="middle" x="248" y="-154.5" font-family="Helvetica,sans-Serif" font-size="10.00">::MainSettingsDialog</text>
</a>
</g>
</g>
<!-- Node3&#45;&gt;Node4 -->
<g id="edge3" class="edge">
<title>Node3&#45;&gt;Node4</title>
<path fill="none" stroke="midnightblue" d="M371.09,-162.5C348.33,-162.5 323.15,-162.5 301.6,-162.5"/>
<polygon fill="midnightblue" stroke="midnightblue" points="371.36,-166 381.36,-162.5 371.36,-159 371.36,-166"/>
</g>
<!-- Node6 -->
<g id="node6" class="node">
<title>Node6</title>
<g id="a_node6"><a xlink:href="$classAddEditAutoProfileDialog.html#a518993ac329de2e2bee5eeb392d124ec" xlink:title=" ">
<polygon fill="white" stroke="black" points="181.5,-98.5 181.5,-128.5 314.5,-128.5 314.5,-98.5 181.5,-98.5"/>
<text text-anchor="start" x="189.5" y="-116.5" font-family="Helvetica,sans-Serif" font-size="10.00">AddEditAutoProfileDialog</text>
<text text-anchor="middle" x="248" y="-105.5" font-family="Helvetica,sans-Serif" font-size="10.00">::AddEditAutoProfileDialog</text>
</a>
</g>
</g>
<!-- Node5&#45;&gt;Node6 -->
<g id="edge5" class="edge">
<title>Node5&#45;&gt;Node6</title>
<path fill="none" stroke="midnightblue" d="M357.49,-113.5C343.21,-113.5 328.46,-113.5 314.62,-113.5"/>
<polygon fill="midnightblue" stroke="midnightblue" points="357.8,-117 367.8,-113.5 357.8,-110 357.8,-117"/>
</g>
<!-- Node8 -->
<g id="node8" class="node">
<title>Node8</title>
<g id="a_node8"><a xlink:href="$classAutoProfileWatcher.html#a6c9832eb02480c6909f49cbb05d5113c" xlink:title=" ">
<polygon fill="white" stroke="black" points="194.5,-49.5 194.5,-79.5 301.5,-79.5 301.5,-49.5 194.5,-49.5"/>
<text text-anchor="start" x="202.5" y="-67.5" font-family="Helvetica,sans-Serif" font-size="10.00">AutoProfileWatcher</text>
<text text-anchor="middle" x="248" y="-56.5" font-family="Helvetica,sans-Serif" font-size="10.00">::AutoProfileWatcher</text>
</a>
</g>
</g>
<!-- Node7&#45;&gt;Node8 -->
<g id="edge7" class="edge">
<title>Node7&#45;&gt;Node8</title>
<path fill="none" stroke="midnightblue" d="M366.91,-64.5C345.34,-64.5 321.97,-64.5 301.78,-64.5"/>
<polygon fill="midnightblue" stroke="midnightblue" points="367,-68 377,-64.5 367,-61 367,-68"/>
</g>
<!-- Node9 -->
<g id="node9" class="node">
<title>Node9</title>
<g id="a_node9"><a xlink:href="$classMainWindow.html#ae9f72ff45056908317963a1e7fa634a0" xlink:title="Build list of current input devices and pass it to settings dialog instance. Open Settings dialog.">
<polygon fill="white" stroke="black" points="170,-0.5 170,-30.5 326,-30.5 326,-0.5 170,-0.5"/>
<text text-anchor="start" x="178" y="-18.5" font-family="Helvetica,sans-Serif" font-size="10.00">MainWindow::openMainSettings</text>
<text text-anchor="middle" x="248" y="-7.5" font-family="Helvetica,sans-Serif" font-size="10.00">Dialog</text>
</a>
</g>
</g>
<!-- Node7&#45;&gt;Node9 -->
<g id="edge8" class="edge">
<title>Node7&#45;&gt;Node9</title>
<path fill="none" stroke="midnightblue" d="M369.39,-46.88C348.82,-41.52 326.42,-35.68 306.57,-30.51"/>
<polygon fill="midnightblue" stroke="midnightblue" points="368.76,-50.33 379.32,-49.47 370.52,-43.56 368.76,-50.33"/>
</g>
<!-- Node10 -->
<g id="node10" class="node">
<title>Node10</title>
<g id="a_node10"><a xlink:href="$classMainWindow.html#a2f0c03d3d51748ab794e698322110614" xlink:title=" ">
<polygon fill="white" stroke="black" points="0,-6 0,-25 134,-25 134,-6 0,-6"/>
<text text-anchor="middle" x="67" y="-13" font-family="Helvetica,sans-Serif" font-size="10.00">MainWindow::MainWindow</text>
</a>
</g>
</g>
<!-- Node9&#45;&gt;Node10 -->
<g id="edge9" class="edge">
<title>Node9&#45;&gt;Node10</title>
<path fill="none" stroke="midnightblue" d="M159.68,-15.5C151.04,-15.5 142.37,-15.5 134,-15.5"/>
<polygon fill="midnightblue" stroke="midnightblue" points="159.79,-19 169.79,-15.5 159.79,-12 159.79,-19"/>
</g>
</g>
</svg>
