<?xml version="1.0" encoding="UTF-8" standalone="no"?>
<!DOCTYPE svg PUBLIC "-//W3C//DTD SVG 1.1//EN"
 "http://www.w3.org/Graphics/SVG/1.1/DTD/svg11.dtd">
<!-- Generated by graphviz version 2.43.0 (0)
 -->
<!-- Title: SetJoystick::enableAxisConnections Pages: 1 -->
<svg width="554pt" height="508pt"
 viewBox="0.00 0.00 554.00 507.50" xmlns="http://www.w3.org/2000/svg" xmlns:xlink="http://www.w3.org/1999/xlink">
<g id="graph0" class="graph" transform="scale(1 1) rotate(0) translate(4 503.5)">
<title>SetJoystick::enableAxisConnections</title>
<polygon fill="white" stroke="transparent" points="-4,4 -4,-503.5 550,-503.5 550,4 -4,4"/>
<!-- Node1 -->
<g id="node1" class="node">
<title>Node1</title>
<g id="a_node1"><a xlink:title=" ">
<polygon fill="#bfbfbf" stroke="black" points="0,-251 0,-270 176,-270 176,-251 0,-251"/>
<text text-anchor="middle" x="88" y="-258" font-family="Helvetica,sans-Serif" font-size="10.00">SetJoystick::enableAxisConnections</text>
</a>
</g>
</g>
<!-- Node2 -->
<g id="node2" class="node">
<title>Node2</title>
<g id="a_node2"><a xlink:href="classJoyAxis.html#aae658e2a7b83ce73ce3d7d1ed13eabc6" target="_top" xlink:title=" ">
<polygon fill="white" stroke="black" points="214.5,-480 214.5,-499 340.5,-499 340.5,-480 214.5,-480"/>
<text text-anchor="middle" x="277.5" y="-487" font-family="Helvetica,sans-Serif" font-size="10.00">JoyAxis::getNAxisButton</text>
</a>
</g>
</g>
<!-- Node1&#45;&gt;Node2 -->
<g id="edge1" class="edge">
<title>Node1&#45;&gt;Node2</title>
<path fill="none" stroke="midnightblue" d="M91.81,-270.16C101.97,-303.43 140.11,-414.28 212,-470.5 214.33,-472.32 216.83,-473.97 219.44,-475.46"/>
<polygon fill="midnightblue" stroke="midnightblue" points="218.15,-478.72 228.67,-479.93 221.2,-472.42 218.15,-478.72"/>
</g>
<!-- Node3 -->
<g id="node3" class="node">
<title>Node3</title>
<g id="a_node3"><a xlink:href="classJoyAxis.html#ad51d55d2a95190468209f7481eae8639" target="_top" xlink:title=" ">
<polygon fill="white" stroke="black" points="215,-442 215,-461 340,-461 340,-442 215,-442"/>
<text text-anchor="middle" x="277.5" y="-449" font-family="Helvetica,sans-Serif" font-size="10.00">JoyAxis::getPAxisButton</text>
</a>
</g>
</g>
<!-- Node1&#45;&gt;Node3 -->
<g id="edge2" class="edge">
<title>Node1&#45;&gt;Node3</title>
<path fill="none" stroke="midnightblue" d="M93.21,-270.41C106.25,-299.87 148.88,-387.6 212,-432.5 214.71,-434.43 217.62,-436.16 220.64,-437.72"/>
<polygon fill="midnightblue" stroke="midnightblue" points="219.44,-441.02 230,-441.9 222.29,-434.63 219.44,-441.02"/>
</g>
<!-- Node4 -->
<g id="node4" class="node">
<title>Node4</title>
<g id="a_node4"><a xlink:href="classSetJoystick.html#aa90510371d0a6a4ae107b1d5b985b060" target="_top" xlink:title=" ">
<polygon fill="white" stroke="black" points="212,-392.5 212,-422.5 343,-422.5 343,-392.5 212,-392.5"/>
<text text-anchor="start" x="220" y="-410.5" font-family="Helvetica,sans-Serif" font-size="10.00">SetJoystick::propogateSet</text>
<text text-anchor="middle" x="277.5" y="-399.5" font-family="Helvetica,sans-Serif" font-size="10.00">AxisActivated</text>
</a>
</g>
</g>
<!-- Node1&#45;&gt;Node4 -->
<g id="edge3" class="edge">
<title>Node1&#45;&gt;Node4</title>
<path fill="none" stroke="midnightblue" d="M96.26,-270.21C113.76,-293.01 160.67,-350.54 212,-383.5 214.45,-385.07 217.02,-386.57 219.66,-387.98"/>
<polygon fill="midnightblue" stroke="midnightblue" points="218.34,-391.23 228.86,-392.46 221.41,-384.93 218.34,-391.23"/>
</g>
<!-- Node6 -->
<g id="node6" class="node">
<title>Node6</title>
<g id="a_node6"><a xlink:href="classSetJoystick.html#ae234f327dec2c686d25862963e22fca1" target="_top" xlink:title=" ">
<polygon fill="white" stroke="black" points="212,-98.5 212,-128.5 343,-128.5 343,-98.5 212,-98.5"/>
<text text-anchor="start" x="220" y="-116.5" font-family="Helvetica,sans-Serif" font-size="10.00">SetJoystick::propogateSet</text>
<text text-anchor="middle" x="277.5" y="-105.5" font-family="Helvetica,sans-Serif" font-size="10.00">AxisButtonAssociation</text>
</a>
</g>
</g>
<!-- Node1&#45;&gt;Node6 -->
<g id="edge5" class="edge">
<title>Node1&#45;&gt;Node6</title>
<path fill="none" stroke="midnightblue" d="M96.26,-250.79C113.76,-227.99 160.67,-170.46 212,-137.5 214.45,-135.93 217.02,-134.43 219.66,-133.02"/>
<polygon fill="midnightblue" stroke="midnightblue" points="221.41,-136.07 228.86,-128.54 218.34,-129.77 221.41,-136.07"/>
</g>
<!-- Node7 -->
<g id="node7" class="node">
<title>Node7</title>
<g id="a_node7"><a xlink:href="classSetJoystick.html#a57e40bcd1589c61ab7084f9e43dcd9ab" target="_top" xlink:title=" ">
<polygon fill="white" stroke="black" points="212,-147.5 212,-177.5 343,-177.5 343,-147.5 212,-147.5"/>
<text text-anchor="start" x="220" y="-165.5" font-family="Helvetica,sans-Serif" font-size="10.00">SetJoystick::propogateSet</text>
<text text-anchor="middle" x="277.5" y="-154.5" font-family="Helvetica,sans-Serif" font-size="10.00">AxisButtonClick</text>
</a>
</g>
</g>
<!-- Node1&#45;&gt;Node7 -->
<g id="edge6" class="edge">
<title>Node1&#45;&gt;Node7</title>
<path fill="none" stroke="midnightblue" d="M102.91,-250.95C125.22,-235.92 170.69,-206.4 212,-186.5 215.59,-184.77 219.34,-183.08 223.15,-181.46"/>
<polygon fill="midnightblue" stroke="midnightblue" points="224.75,-184.59 232.67,-177.56 222.09,-178.11 224.75,-184.59"/>
</g>
<!-- Node10 -->
<g id="node10" class="node">
<title>Node10</title>
<g id="a_node10"><a xlink:href="classSetJoystick.html#a559203c2db1839239a1a684e717ef898" target="_top" xlink:title=" ">
<polygon fill="white" stroke="black" points="212,-245.5 212,-275.5 343,-275.5 343,-245.5 212,-245.5"/>
<text text-anchor="start" x="220" y="-263.5" font-family="Helvetica,sans-Serif" font-size="10.00">SetJoystick::propogateSet</text>
<text text-anchor="middle" x="277.5" y="-252.5" font-family="Helvetica,sans-Serif" font-size="10.00">AxisButtonNameChange</text>
</a>
</g>
</g>
<!-- Node1&#45;&gt;Node10 -->
<g id="edge10" class="edge">
<title>Node1&#45;&gt;Node10</title>
<path fill="none" stroke="midnightblue" d="M176.16,-260.5C184.73,-260.5 193.37,-260.5 201.8,-260.5"/>
<polygon fill="midnightblue" stroke="midnightblue" points="201.95,-264 211.95,-260.5 201.95,-257 201.95,-264"/>
</g>
<!-- Node12 -->
<g id="node12" class="node">
<title>Node12</title>
<g id="a_node12"><a xlink:href="classSetJoystick.html#af056c3429ac49876a0510f92923d0d13" target="_top" xlink:title=" ">
<polygon fill="white" stroke="black" points="212,-196.5 212,-226.5 343,-226.5 343,-196.5 212,-196.5"/>
<text text-anchor="start" x="220" y="-214.5" font-family="Helvetica,sans-Serif" font-size="10.00">SetJoystick::propogateSet</text>
<text text-anchor="middle" x="277.5" y="-203.5" font-family="Helvetica,sans-Serif" font-size="10.00">AxisButtonRelease</text>
</a>
</g>
</g>
<!-- Node1&#45;&gt;Node12 -->
<g id="edge14" class="edge">
<title>Node1&#45;&gt;Node12</title>
<path fill="none" stroke="midnightblue" d="M125.6,-250.94C149.34,-244.73 180.98,-236.46 209.16,-229.1"/>
<polygon fill="midnightblue" stroke="midnightblue" points="210.17,-232.45 218.96,-226.54 208.4,-225.68 210.17,-232.45"/>
</g>
<!-- Node13 -->
<g id="node13" class="node">
<title>Node13</title>
<g id="a_node13"><a xlink:href="classSetJoystick.html#a2746cd7adb6a4ead514b72c7c0437d5e" target="_top" xlink:title=" ">
<polygon fill="white" stroke="black" points="212,-343.5 212,-373.5 343,-373.5 343,-343.5 212,-343.5"/>
<text text-anchor="start" x="220" y="-361.5" font-family="Helvetica,sans-Serif" font-size="10.00">SetJoystick::propogateSet</text>
<text text-anchor="middle" x="277.5" y="-350.5" font-family="Helvetica,sans-Serif" font-size="10.00">AxisNameChange</text>
</a>
</g>
</g>
<!-- Node1&#45;&gt;Node13 -->
<g id="edge18" class="edge">
<title>Node1&#45;&gt;Node13</title>
<path fill="none" stroke="midnightblue" d="M102.91,-270.05C125.22,-285.08 170.69,-314.6 212,-334.5 215.59,-336.23 219.34,-337.92 223.15,-339.54"/>
<polygon fill="midnightblue" stroke="midnightblue" points="222.09,-342.89 232.67,-343.44 224.75,-336.41 222.09,-342.89"/>
</g>
<!-- Node14 -->
<g id="node14" class="node">
<title>Node14</title>
<g id="a_node14"><a xlink:href="classSetJoystick.html#a707a2c73b9102a8346ad8f2fb401d48f" target="_top" xlink:title=" ">
<polygon fill="white" stroke="black" points="212,-294.5 212,-324.5 343,-324.5 343,-294.5 212,-294.5"/>
<text text-anchor="start" x="220" y="-312.5" font-family="Helvetica,sans-Serif" font-size="10.00">SetJoystick::propogateSet</text>
<text text-anchor="middle" x="277.5" y="-301.5" font-family="Helvetica,sans-Serif" font-size="10.00">AxisReleased</text>
</a>
</g>
</g>
<!-- Node1&#45;&gt;Node14 -->
<g id="edge20" class="edge">
<title>Node1&#45;&gt;Node14</title>
<path fill="none" stroke="midnightblue" d="M125.6,-270.06C149.34,-276.27 180.98,-284.54 209.16,-291.9"/>
<polygon fill="midnightblue" stroke="midnightblue" points="208.4,-295.32 218.96,-294.46 210.17,-288.55 208.4,-295.32"/>
</g>
<!-- Node15 -->
<g id="node15" class="node">
<title>Node15</title>
<g id="a_node15"><a xlink:href="classSetJoystick.html#a1b5df193132075192fe7a64ebc9933fb" target="_top" xlink:title=" ">
<polygon fill="white" stroke="black" points="212,-49.5 212,-79.5 343,-79.5 343,-49.5 212,-49.5"/>
<text text-anchor="start" x="220" y="-67.5" font-family="Helvetica,sans-Serif" font-size="10.00">SetJoystick::propogateSet</text>
<text text-anchor="middle" x="277.5" y="-56.5" font-family="Helvetica,sans-Serif" font-size="10.00">AxisThrottleSetting</text>
</a>
</g>
</g>
<!-- Node1&#45;&gt;Node15 -->
<g id="edge22" class="edge">
<title>Node1&#45;&gt;Node15</title>
<path fill="none" stroke="midnightblue" d="M93.36,-250.79C106.81,-221.89 150.48,-135.57 212,-88.5 213.81,-87.11 215.71,-85.8 217.68,-84.56"/>
<polygon fill="midnightblue" stroke="midnightblue" points="219.62,-87.48 226.64,-79.55 216.21,-81.37 219.62,-87.48"/>
</g>
<!-- Node17 -->
<g id="node17" class="node">
<title>Node17</title>
<g id="a_node17"><a xlink:href="classSetJoystick.html#aeb069bf5f9e89bf2fb7dc73d89b5fbbd" target="_top" xlink:title=" ">
<polygon fill="white" stroke="black" points="212,-0.5 212,-30.5 343,-30.5 343,-0.5 212,-0.5"/>
<text text-anchor="start" x="220" y="-18.5" font-family="Helvetica,sans-Serif" font-size="10.00">SetJoystick::propogateSet</text>
<text text-anchor="middle" x="277.5" y="-7.5" font-family="Helvetica,sans-Serif" font-size="10.00">Change</text>
</a>
</g>
</g>
<!-- Node1&#45;&gt;Node17 -->
<g id="edge24" class="edge">
<title>Node1&#45;&gt;Node17</title>
<path fill="none" stroke="midnightblue" d="M91.66,-251C101.6,-217.21 139.71,-101.58 212,-39.5 213.5,-38.22 215.07,-37 216.7,-35.84"/>
<polygon fill="midnightblue" stroke="midnightblue" points="218.58,-38.79 225.27,-30.57 214.92,-32.83 218.58,-38.79"/>
</g>
<!-- Node5 -->
<g id="node5" class="node">
<title>Node5</title>
<g id="a_node5"><a xlink:href="classJoyAxis.html#afddf7399e2086fda738fe588f5e7d7cd" target="_top" xlink:title=" ">
<polygon fill="white" stroke="black" points="415,-294 415,-313 510,-313 510,-294 415,-294"/>
<text text-anchor="middle" x="462.5" y="-301" font-family="Helvetica,sans-Serif" font-size="10.00">JoyAxis::getIndex</text>
</a>
</g>
</g>
<!-- Node4&#45;&gt;Node5 -->
<g id="edge4" class="edge">
<title>Node4&#45;&gt;Node5</title>
<path fill="none" stroke="midnightblue" d="M323.16,-392.46C329.93,-389.74 336.73,-386.72 343,-383.5 379.6,-364.68 418.5,-336.67 441.37,-319.28"/>
<polygon fill="midnightblue" stroke="midnightblue" points="443.52,-322.05 449.31,-313.18 439.25,-316.5 443.52,-322.05"/>
</g>
<!-- Node7&#45;&gt;Node5 -->
<g id="edge9" class="edge">
<title>Node7&#45;&gt;Node5</title>
<path fill="none" stroke="midnightblue" d="M331.19,-177.57C335.49,-180.1 339.51,-183.06 343,-186.5 374.55,-217.63 346.34,-249.54 379,-279.5 386.42,-286.31 395.66,-291.19 405.25,-294.7"/>
<polygon fill="midnightblue" stroke="midnightblue" points="404.31,-298.07 414.9,-297.76 406.43,-291.4 404.31,-298.07"/>
</g>
<!-- Node8 -->
<g id="node8" class="node">
<title>Node8</title>
<g id="a_node8"><a xlink:href="classJoyAxisButton.html#a8b73356f8efc91ad97e2c281b3603cc8" target="_top" xlink:title=" ">
<polygon fill="white" stroke="black" points="403,-202 403,-221 522,-221 522,-202 403,-202"/>
<text text-anchor="middle" x="462.5" y="-209" font-family="Helvetica,sans-Serif" font-size="10.00">JoyAxisButton::getAxis</text>
</a>
</g>
</g>
<!-- Node7&#45;&gt;Node8 -->
<g id="edge7" class="edge">
<title>Node7&#45;&gt;Node8</title>
<path fill="none" stroke="midnightblue" d="M334.9,-177.6C361.02,-184.6 391.64,-192.79 416.22,-199.38"/>
<polygon fill="midnightblue" stroke="midnightblue" points="415.45,-202.79 426.01,-202 417.26,-196.03 415.45,-202.79"/>
</g>
<!-- Node9 -->
<g id="node9" class="node">
<title>Node9</title>
<g id="a_node9"><a xlink:href="classJoyButton.html#abbccee98e377453167a47b49874eeab7" target="_top" xlink:title=" ">
<polygon fill="white" stroke="black" points="396.5,-149.5 396.5,-179.5 528.5,-179.5 528.5,-149.5 396.5,-149.5"/>
<text text-anchor="start" x="404.5" y="-167.5" font-family="Helvetica,sans-Serif" font-size="10.00">JoyButton::getIgnoreEvent</text>
<text text-anchor="middle" x="462.5" y="-156.5" font-family="Helvetica,sans-Serif" font-size="10.00">State</text>
</a>
</g>
</g>
<!-- Node7&#45;&gt;Node9 -->
<g id="edge8" class="edge">
<title>Node7&#45;&gt;Node9</title>
<path fill="none" stroke="midnightblue" d="M343.02,-163.21C356.93,-163.36 371.76,-163.52 386.04,-163.68"/>
<polygon fill="midnightblue" stroke="midnightblue" points="386.29,-167.18 396.33,-163.79 386.37,-160.18 386.29,-167.18"/>
</g>
<!-- Node10&#45;&gt;Node5 -->
<g id="edge12" class="edge">
<title>Node10&#45;&gt;Node5</title>
<path fill="none" stroke="midnightblue" d="M342.5,-275.54C365.02,-280.83 389.98,-286.69 411.2,-291.68"/>
<polygon fill="midnightblue" stroke="midnightblue" points="410.44,-295.1 420.98,-293.98 412.04,-288.28 410.44,-295.1"/>
</g>
<!-- Node10&#45;&gt;Node8 -->
<g id="edge11" class="edge">
<title>Node10&#45;&gt;Node8</title>
<path fill="none" stroke="midnightblue" d="M334.9,-245.4C361.02,-238.4 391.64,-230.21 416.22,-223.62"/>
<polygon fill="midnightblue" stroke="midnightblue" points="417.26,-226.97 426.01,-221 415.45,-220.21 417.26,-226.97"/>
</g>
<!-- Node11 -->
<g id="node11" class="node">
<title>Node11</title>
<g id="a_node11"><a xlink:href="classJoyButton.html#aa659d5a0860f5047862ca0761d8d775a" target="_top" xlink:title="Get 0 indexed number of button.">
<polygon fill="white" stroke="black" points="397,-251 397,-270 528,-270 528,-251 397,-251"/>
<text text-anchor="middle" x="462.5" y="-258" font-family="Helvetica,sans-Serif" font-size="10.00">JoyButton::getJoyNumber</text>
</a>
</g>
</g>
<!-- Node10&#45;&gt;Node11 -->
<g id="edge13" class="edge">
<title>Node10&#45;&gt;Node11</title>
<path fill="none" stroke="midnightblue" d="M343.02,-260.5C357.1,-260.5 372.11,-260.5 386.55,-260.5"/>
<polygon fill="midnightblue" stroke="midnightblue" points="386.95,-264 396.95,-260.5 386.95,-257 386.95,-264"/>
</g>
<!-- Node12&#45;&gt;Node5 -->
<g id="edge17" class="edge">
<title>Node12&#45;&gt;Node5</title>
<path fill="none" stroke="midnightblue" d="M325.75,-226.58C331.81,-229.43 337.73,-232.72 343,-236.5 363.26,-251.02 358.13,-265.87 379,-279.5 386.97,-284.71 396.1,-288.81 405.31,-292.03"/>
<polygon fill="midnightblue" stroke="midnightblue" points="404.3,-295.38 414.89,-295.08 406.42,-288.71 404.3,-295.38"/>
</g>
<!-- Node12&#45;&gt;Node8 -->
<g id="edge15" class="edge">
<title>Node12&#45;&gt;Node8</title>
<path fill="none" stroke="midnightblue" d="M343.02,-211.5C358.97,-211.5 376.13,-211.5 392.3,-211.5"/>
<polygon fill="midnightblue" stroke="midnightblue" points="392.75,-215 402.75,-211.5 392.75,-208 392.75,-215"/>
</g>
<!-- Node12&#45;&gt;Node9 -->
<g id="edge16" class="edge">
<title>Node12&#45;&gt;Node9</title>
<path fill="none" stroke="midnightblue" d="M336.91,-196.5C354.82,-191.9 374.68,-186.8 393.19,-182.04"/>
<polygon fill="midnightblue" stroke="midnightblue" points="394.21,-185.4 403.02,-179.52 392.47,-178.62 394.21,-185.4"/>
</g>
<!-- Node13&#45;&gt;Node5 -->
<g id="edge19" class="edge">
<title>Node13&#45;&gt;Node5</title>
<path fill="none" stroke="midnightblue" d="M328.51,-343.47C357.25,-334.83 392.93,-324.11 420.1,-315.94"/>
<polygon fill="midnightblue" stroke="midnightblue" points="421.12,-319.29 429.69,-313.06 419.1,-312.59 421.12,-319.29"/>
</g>
<!-- Node14&#45;&gt;Node5 -->
<g id="edge21" class="edge">
<title>Node14&#45;&gt;Node5</title>
<path fill="none" stroke="midnightblue" d="M343.02,-307.38C363.08,-306.73 385.04,-306.01 404.55,-305.37"/>
<polygon fill="midnightblue" stroke="midnightblue" points="404.93,-308.86 414.81,-305.03 404.7,-301.86 404.93,-308.86"/>
</g>
<!-- Node16 -->
<g id="node16" class="node">
<title>Node16</title>
<g id="a_node16"><a xlink:href="classJoyAxis.html#a26e2606a8916cfd5fe8f4fc15c7dc886" target="_top" xlink:title=" ">
<polygon fill="white" stroke="black" points="379,-55 379,-74 546,-74 546,-55 379,-55"/>
<text text-anchor="middle" x="462.5" y="-62" font-family="Helvetica,sans-Serif" font-size="10.00">JoyAxis::getCurrentlyAssignedSet</text>
</a>
</g>
</g>
<!-- Node15&#45;&gt;Node16 -->
<g id="edge23" class="edge">
<title>Node15&#45;&gt;Node16</title>
<path fill="none" stroke="midnightblue" d="M343.02,-64.5C351.38,-64.5 360.06,-64.5 368.77,-64.5"/>
<polygon fill="midnightblue" stroke="midnightblue" points="368.97,-68 378.97,-64.5 368.97,-61 368.97,-68"/>
</g>
</g>
</svg>
