<?xml version="1.0" encoding="UTF-8" standalone="no"?>
<!DOCTYPE svg PUBLIC "-//W3C//DTD SVG 1.1//EN"
 "http://www.w3.org/Graphics/SVG/1.1/DTD/svg11.dtd">
<!-- Generated by graphviz version 2.43.0 (0)
 -->
<!-- Title: X11Extras::findClientWindow Pages: 1 -->
<svg width="666pt" height="155pt"
 viewBox="0.00 0.00 666.00 154.68" xmlns="http://www.w3.org/2000/svg" xmlns:xlink="http://www.w3.org/1999/xlink">
<g id="graph0" class="graph" transform="scale(1 1) rotate(0) translate(4 150.68)">
<title>X11Extras::findClientWindow</title>
<polygon fill="white" stroke="transparent" points="-4,4 -4,-150.68 662,-150.68 662,4 -4,4"/>
<!-- Node1 -->
<g id="node1" class="node">
<title>Node1</title>
<g id="a_node1"><a xlink:title="Find the proper client window within a hierarchy. This check is needed in some environments where the...">
<polygon fill="#bfbfbf" stroke="black" points="0,-57.5 0,-76.5 145,-76.5 145,-57.5 0,-57.5"/>
<text text-anchor="middle" x="72.5" y="-64.5" font-family="Helvetica,sans-Serif" font-size="10.00">X11Extras::findClientWindow</text>
</a>
</g>
</g>
<!-- Node2 -->
<g id="node2" class="node">
<title>Node2</title>
<g id="a_node2"><a xlink:href="$classX11Extras.html#a643c95dc1de8eb073a0accb41619fe83" xlink:title="Get display instance.">
<polygon fill="white" stroke="black" points="559,-66.5 559,-85.5 658,-85.5 658,-66.5 559,-66.5"/>
<text text-anchor="middle" x="608.5" y="-73.5" font-family="Helvetica,sans-Serif" font-size="10.00">X11Extras::display</text>
</a>
</g>
</g>
<!-- Node1&#45;&gt;Node2 -->
<g id="edge1" class="edge">
<title>Node1&#45;&gt;Node2</title>
<path fill="none" stroke="midnightblue" d="M145.1,-66.38C196.54,-66.08 267.55,-65.99 330,-67 405.54,-68.22 492.61,-71.32 548.77,-73.54"/>
<polygon fill="midnightblue" stroke="midnightblue" points="548.76,-77.04 558.89,-73.95 549.03,-70.05 548.76,-77.04"/>
</g>
<!-- Node3 -->
<g id="node3" class="node">
<title>Node3</title>
<g id="a_node3"><a xlink:href="$x11extras_8cpp.html#abd96e3a47ad21173e08bc83e90a98fda" xlink:title=" ">
<polygon fill="white" stroke="black" points="574.5,-123.5 574.5,-142.5 642.5,-142.5 642.5,-123.5 574.5,-123.5"/>
<text text-anchor="middle" x="608.5" y="-130.5" font-family="Helvetica,sans-Serif" font-size="10.00">freeWindow</text>
</a>
</g>
</g>
<!-- Node1&#45;&gt;Node3 -->
<g id="edge2" class="edge">
<title>Node1&#45;&gt;Node3</title>
<path fill="none" stroke="midnightblue" d="M97.53,-76.56C119.12,-84.9 151.82,-96.89 181,-105 328.35,-145.97 370.33,-152 523,-143 536.38,-142.21 550.89,-140.72 564.05,-139.13"/>
<polygon fill="midnightblue" stroke="midnightblue" points="564.79,-142.57 574.27,-137.85 563.91,-135.63 564.79,-142.57"/>
</g>
<!-- Node4 -->
<g id="node4" class="node">
<title>Node4</title>
<g id="a_node4"><a xlink:href="$classX11Extras.html#addc3448425326be8bcd2b0138abe643a" xlink:title="Go through a window&#39;s properties and search for an Atom from a defined list. If an Atom is found in a...">
<polygon fill="white" stroke="black" points="181,-76.5 181,-95.5 330,-95.5 330,-76.5 181,-76.5"/>
<text text-anchor="middle" x="255.5" y="-83.5" font-family="Helvetica,sans-Serif" font-size="10.00">X11Extras::isWindowRelevant</text>
</a>
</g>
</g>
<!-- Node1&#45;&gt;Node4 -->
<g id="edge3" class="edge">
<title>Node1&#45;&gt;Node4</title>
<path fill="none" stroke="midnightblue" d="M145.04,-74.51C153.49,-75.4 162.17,-76.31 170.77,-77.21"/>
<polygon fill="midnightblue" stroke="midnightblue" points="170.5,-80.7 180.81,-78.26 171.23,-73.74 170.5,-80.7"/>
</g>
<!-- Node6 -->
<g id="node6" class="node">
<title>Node6</title>
<g id="a_node6"><a xlink:href="$classX11Extras.html#abebf4a3a16685c4b274980f040671ae9" xlink:title=" ">
<polygon fill="white" stroke="black" points="370,-0.5 370,-19.5 519,-19.5 519,-0.5 370,-0.5"/>
<text text-anchor="middle" x="444.5" y="-7.5" font-family="Helvetica,sans-Serif" font-size="10.00">X11Extras::windowIsViewable</text>
</a>
</g>
</g>
<!-- Node1&#45;&gt;Node6 -->
<g id="edge8" class="edge">
<title>Node1&#45;&gt;Node6</title>
<path fill="none" stroke="midnightblue" d="M99.18,-57.47C120.73,-49.88 152.46,-39.62 181,-34 240.14,-22.35 307.92,-16.33 359.78,-13.24"/>
<polygon fill="midnightblue" stroke="midnightblue" points="360.15,-16.72 369.94,-12.66 359.76,-9.74 360.15,-16.72"/>
</g>
<!-- Node4&#45;&gt;Node2 -->
<g id="edge4" class="edge">
<title>Node4&#45;&gt;Node2</title>
<path fill="none" stroke="midnightblue" d="M330.08,-83.9C395.07,-82.05 488.6,-79.39 548.71,-77.67"/>
<polygon fill="midnightblue" stroke="midnightblue" points="548.9,-81.17 558.8,-77.39 548.7,-74.17 548.9,-81.17"/>
</g>
<!-- Node5 -->
<g id="node5" class="node">
<title>Node5</title>
<g id="a_node5"><a xlink:href="$classX11Extras.html#a44556cc9630d8685f1978b258c40679d" xlink:title=" ">
<polygon fill="white" stroke="black" points="366,-114.5 366,-133.5 523,-133.5 523,-114.5 366,-114.5"/>
<text text-anchor="middle" x="444.5" y="-121.5" font-family="Helvetica,sans-Serif" font-size="10.00">X11Extras::windowHasProperty</text>
</a>
</g>
</g>
<!-- Node4&#45;&gt;Node5 -->
<g id="edge5" class="edge">
<title>Node4&#45;&gt;Node5</title>
<path fill="none" stroke="midnightblue" d="M303.69,-95.59C328.92,-100.72 360.17,-107.07 386.73,-112.46"/>
<polygon fill="midnightblue" stroke="midnightblue" points="386.15,-115.92 396.65,-114.48 387.55,-109.06 386.15,-115.92"/>
</g>
<!-- Node5&#45;&gt;Node2 -->
<g id="edge6" class="edge">
<title>Node5&#45;&gt;Node2</title>
<path fill="none" stroke="midnightblue" d="M477.89,-114.4C503.06,-106.95 538.15,-96.55 565.48,-88.45"/>
<polygon fill="midnightblue" stroke="midnightblue" points="566.57,-91.78 575.16,-85.58 564.58,-85.07 566.57,-91.78"/>
</g>
<!-- Node5&#45;&gt;Node3 -->
<g id="edge7" class="edge">
<title>Node5&#45;&gt;Node3</title>
<path fill="none" stroke="midnightblue" d="M523.18,-128.32C537.26,-129.1 551.48,-129.89 564.13,-130.59"/>
<polygon fill="midnightblue" stroke="midnightblue" points="564.16,-134.1 574.34,-131.16 564.55,-127.11 564.16,-134.1"/>
</g>
<!-- Node6&#45;&gt;Node2 -->
<g id="edge9" class="edge">
<title>Node6&#45;&gt;Node2</title>
<path fill="none" stroke="midnightblue" d="M480.64,-19.58C494.06,-23.57 509.4,-28.56 523,-34 543.09,-42.04 564.94,-52.97 581.39,-61.66"/>
<polygon fill="midnightblue" stroke="midnightblue" points="579.93,-64.84 590.4,-66.48 583.23,-58.67 579.93,-64.84"/>
</g>
</g>
</svg>
