<?xml version="1.0" encoding="UTF-8" standalone="no"?>
<!DOCTYPE svg PUBLIC "-//W3C//DTD SVG 1.1//EN"
 "http://www.w3.org/Graphics/SVG/1.1/DTD/svg11.dtd">
<!-- Generated by graphviz version 2.43.0 (0)
 -->
<!-- Title: JoyButton::setButtonName Pages: 1 -->
<!--zoomable 719 -->
<svg id="main" version="1.1" xmlns="http://www.w3.org/2000/svg" xmlns:xlink="http://www.w3.org/1999/xlink" xml:space="preserve" onload="init(evt)">
<style type="text/css"><![CDATA[
.edge:hover path { stroke: red; }
.edge:hover polygon { stroke: red; fill: red; }
]]></style>
<script type="text/javascript"><![CDATA[
var edges = document.getElementsByTagName('g');
if (edges && edges.length) {
  for (var i=0;i<edges.length;i++) {
    if (edges[i].id.substr(0,4)=='edge') {
      edges[i].setAttribute('class','edge');
    }
  }
}
]]></script>
        <defs>
                <circle id="rim" cx="0" cy="0" r="7"/>
                <circle id="rim2" cx="0" cy="0" r="3.5"/>
                <g id="zoomPlus">
                        <use xlink:href="#rim" fill="#404040">
                                <set attributeName="fill" to="#808080" begin="zoomplus.mouseover" end="zoomplus.mouseout"/>
                        </use>
                        <path d="M-4,0h8M0,-4v8" fill="none" stroke="white" stroke-width="1.5" pointer-events="none"/>
                </g>
                <g id="zoomMin">
                        <use xlink:href="#rim" fill="#404040">
                                <set attributeName="fill" to="#808080" begin="zoomminus.mouseover" end="zoomminus.mouseout"/>
                        </use>
                        <path d="M-4,0h8" fill="none" stroke="white" stroke-width="1.5" pointer-events="none"/>
                </g>
                <g id="dirArrow">
                        <path fill="none" stroke="white" stroke-width="1.5" d="M0,-3.0v7 M-2.5,-0.5L0,-3.0L2.5,-0.5"/>
                </g>
               <g id="resetDef">
                       <use xlink:href="#rim2" fill="#404040">
                               <set attributeName="fill" to="#808080" begin="reset.mouseover" end="reset.mouseout"/>
                       </use>
               </g>
        </defs>

<script type="text/javascript">
var viewWidth = 1539;
var viewHeight = 719;
var sectionId = 'dynsection-226';
</script>
<script xlink:href="svgpan.js"/>
<svg id="graph" class="graph">
<g id="viewport">
<title>JoyButton::setButtonName</title>
<polygon fill="white" stroke="transparent" points="-4,4 -4,-715.35 1535,-715.35 1535,4 -4,4"/>
<!-- Node1 -->
<g id="node1" class="node">
<title>Node1</title>
<g id="a_node1"><a xlink:title=" ">
<polygon fill="#bfbfbf" stroke="black" points="1396,-221 1396,-240 1531,-240 1531,-221 1396,-221"/>
<text text-anchor="middle" x="1463.5" y="-228" font-family="Helvetica,sans-Serif" font-size="10.00">JoyButton::setButtonName</text>
</a>
</g>
</g>
<!-- Node2 -->
<g id="node2" class="node">
<title>Node2</title>
<g id="a_node2"><a xlink:href="classButtonEditDialog.html#a82f6d5a24f90b015034e1a3985c410b8" target="_top" xlink:title=" ">
<polygon fill="white" stroke="black" points="1209.5,-562.5 1209.5,-592.5 1335.5,-592.5 1335.5,-562.5 1209.5,-562.5"/>
<text text-anchor="start" x="1217.5" y="-580.5" font-family="Helvetica,sans-Serif" font-size="10.00">ButtonEditDialog::refresh</text>
<text text-anchor="middle" x="1272.5" y="-569.5" font-family="Helvetica,sans-Serif" font-size="10.00">ForLastBtn</text>
</a>
</g>
</g>
<!-- Node1&#45;&gt;Node2 -->
<g id="edge1" class="edge">
<title>Node1&#45;&gt;Node2</title>
<path fill="none" stroke="midnightblue" d="M1452.37,-249.1C1418.93,-310.5 1312.46,-505.97 1281.82,-562.22"/>
<polygon fill="midnightblue" stroke="midnightblue" points="1455.54,-250.6 1457.25,-240.14 1449.39,-247.25 1455.54,-250.6"/>
</g>
<!-- Node15 -->
<g id="node15" class="node">
<title>Node15</title>
<g id="a_node15"><a xlink:href="classInputDevice.html#a38ee53ddc49dccd9d7b5b91a22fb1610" target="_top" xlink:title=" ">
<polygon fill="white" stroke="black" points="1191,-104 1191,-123 1354,-123 1354,-104 1191,-104"/>
<text text-anchor="middle" x="1272.5" y="-111" font-family="Helvetica,sans-Serif" font-size="10.00">InputDevice::setAxisButtonName</text>
</a>
</g>
</g>
<!-- Node1&#45;&gt;Node15 -->
<g id="edge23" class="edge">
<title>Node1&#45;&gt;Node15</title>
<path fill="none" stroke="midnightblue" d="M1438.31,-215.53C1398.86,-191.1 1321.76,-143.38 1288.92,-123.04"/>
<polygon fill="midnightblue" stroke="midnightblue" points="1436.69,-218.64 1447.03,-220.93 1440.37,-212.69 1436.69,-218.64"/>
</g>
<!-- Node23 -->
<g id="node23" class="node">
<title>Node23</title>
<g id="a_node23"><a xlink:href="classInputDevice.html#a5a47b5126be20615a458dc864153c79c" target="_top" xlink:title=" ">
<polygon fill="white" stroke="black" points="1201,-363 1201,-382 1344,-382 1344,-363 1201,-363"/>
<text text-anchor="middle" x="1272.5" y="-370" font-family="Helvetica,sans-Serif" font-size="10.00">InputDevice::setButtonName</text>
</a>
</g>
</g>
<!-- Node1&#45;&gt;Node23 -->
<g id="edge32" class="edge">
<title>Node1&#45;&gt;Node23</title>
<path fill="none" stroke="midnightblue" d="M1441.71,-246.12C1402.47,-275.61 1318.53,-338.67 1286.39,-362.82"/>
<polygon fill="midnightblue" stroke="midnightblue" points="1443.91,-248.84 1449.81,-240.04 1439.71,-243.25 1443.91,-248.84"/>
</g>
<!-- Node27 -->
<g id="node27" class="node">
<title>Node27</title>
<g id="a_node27"><a xlink:href="classInputDevice.html#a1058ad2d1f91bf4e7e8505e0baec286c" target="_top" xlink:title=" ">
<polygon fill="white" stroke="black" points="1188.5,-36 1188.5,-55 1356.5,-55 1356.5,-36 1188.5,-36"/>
<text text-anchor="middle" x="1272.5" y="-43" font-family="Helvetica,sans-Serif" font-size="10.00">InputDevice::setDPadButtonName</text>
</a>
</g>
</g>
<!-- Node1&#45;&gt;Node27 -->
<g id="edge41" class="edge">
<title>Node1&#45;&gt;Node27</title>
<path fill="none" stroke="midnightblue" d="M1452.03,-212.1C1435.38,-184.04 1400.56,-130.08 1360,-94.5 1340.67,-77.54 1314.54,-63.72 1296.07,-55.14"/>
<polygon fill="midnightblue" stroke="midnightblue" points="1449.08,-213.99 1457.14,-220.87 1455.13,-210.47 1449.08,-213.99"/>
</g>
<!-- Node29 -->
<g id="node29" class="node">
<title>Node29</title>
<g id="a_node29"><a xlink:href="classInputDevice.html#afb3c54a95a3f41f4a6f322d244e29673" target="_top" xlink:title=" ">
<polygon fill="white" stroke="black" points="1189.5,-197 1189.5,-216 1355.5,-216 1355.5,-197 1189.5,-197"/>
<text text-anchor="middle" x="1272.5" y="-204" font-family="Helvetica,sans-Serif" font-size="10.00">InputDevice::setStickButtonName</text>
</a>
</g>
</g>
<!-- Node1&#45;&gt;Node29 -->
<g id="edge46" class="edge">
<title>Node1&#45;&gt;Node29</title>
<path fill="none" stroke="midnightblue" d="M1385.69,-220.75C1373.43,-219.19 1360.77,-217.58 1348.55,-216.03"/>
<polygon fill="midnightblue" stroke="midnightblue" points="1385.5,-224.25 1395.87,-222.04 1386.39,-217.31 1385.5,-224.25"/>
</g>
<!-- Node32 -->
<g id="node32" class="node">
<title>Node32</title>
<g id="a_node32"><a xlink:href="classInputDevice.html#afd9e415c909a9215390476e04cb79e51" target="_top" xlink:title=" ">
<polygon fill="white" stroke="black" points="1185,-265 1185,-284 1360,-284 1360,-265 1185,-265"/>
<text text-anchor="middle" x="1272.5" y="-272" font-family="Helvetica,sans-Serif" font-size="10.00">InputDevice::setVDPadButtonName</text>
</a>
</g>
</g>
<!-- Node1&#45;&gt;Node32 -->
<g id="edge54" class="edge">
<title>Node1&#45;&gt;Node32</title>
<path fill="none" stroke="midnightblue" d="M1411.49,-242.38C1381.04,-249.46 1342.89,-258.34 1314.43,-264.97"/>
<polygon fill="midnightblue" stroke="midnightblue" points="1412.54,-245.72 1421.49,-240.05 1410.96,-238.91 1412.54,-245.72"/>
</g>
<!-- Node3 -->
<g id="node3" class="node">
<title>Node3</title>
<g id="a_node3"><a xlink:href="classButtonEditDialog.html#a3e9feede100cbb6a11c9d87659c196ea" target="_top" xlink:title=" ">
<polygon fill="white" stroke="black" points="0,-586.5 0,-616.5 125,-616.5 125,-586.5 0,-586.5"/>
<text text-anchor="start" x="8" y="-604.5" font-family="Helvetica,sans-Serif" font-size="10.00">ButtonEditDialog::Button</text>
<text text-anchor="middle" x="62.5" y="-593.5" font-family="Helvetica,sans-Serif" font-size="10.00">EditDialog</text>
</a>
</g>
</g>
<!-- Node2&#45;&gt;Node3 -->
<g id="edge2" class="edge">
<title>Node2&#45;&gt;Node3</title>
<path fill="none" stroke="midnightblue" d="M1249.76,-599.73C1226.87,-621.65 1188.71,-654.16 1149,-670.5 1036.03,-716.98 998.66,-706.5 876.5,-706.5 876.5,-706.5 876.5,-706.5 456.5,-706.5 324.58,-706.5 283.44,-727.61 161,-678.5 126.77,-664.77 94.76,-635.03 77.29,-616.79"/>
<polygon fill="midnightblue" stroke="midnightblue" points="1252.21,-602.23 1256.92,-592.74 1247.32,-597.23 1252.21,-602.23"/>
</g>
<!-- Node4 -->
<g id="node4" class="node">
<title>Node4</title>
<g id="a_node4"><a xlink:href="classButtonEditDialog.html#a7b7f4ddddf1b67c7883cc03d7469987f" target="_top" xlink:title=" ">
<polygon fill="white" stroke="black" points="611,-521.5 611,-551.5 736,-551.5 736,-521.5 611,-521.5"/>
<text text-anchor="start" x="619" y="-539.5" font-family="Helvetica,sans-Serif" font-size="10.00">ButtonEditDialog::closed</text>
<text text-anchor="middle" x="673.5" y="-528.5" font-family="Helvetica,sans-Serif" font-size="10.00">AdvancedDialog</text>
</a>
</g>
</g>
<!-- Node2&#45;&gt;Node4 -->
<g id="edge3" class="edge">
<title>Node2&#45;&gt;Node4</title>
<path fill="none" stroke="midnightblue" d="M1199.24,-572.54C1080.76,-564.4 847.26,-548.36 736.11,-540.73"/>
<polygon fill="midnightblue" stroke="midnightblue" points="1199.08,-576.03 1209.3,-573.23 1199.56,-569.05 1199.08,-576.03"/>
</g>
<!-- Node6 -->
<g id="node6" class="node">
<title>Node6</title>
<g id="a_node6"><a xlink:href="classButtonEditDialog.html#a70b199304a9e842bff9cc50ca6c48abb" target="_top" xlink:title=" ">
<polygon fill="white" stroke="black" points="1012.5,-480.5 1012.5,-510.5 1134.5,-510.5 1134.5,-480.5 1012.5,-480.5"/>
<text text-anchor="start" x="1020.5" y="-498.5" font-family="Helvetica,sans-Serif" font-size="10.00">ButtonEditDialog::nullify</text>
<text text-anchor="middle" x="1073.5" y="-487.5" font-family="Helvetica,sans-Serif" font-size="10.00">DialogPointer</text>
</a>
</g>
</g>
<!-- Node2&#45;&gt;Node6 -->
<g id="edge6" class="edge">
<title>Node2&#45;&gt;Node6</title>
<path fill="none" stroke="midnightblue" d="M1227.2,-558.46C1203.96,-548.53 1174.99,-536.25 1149,-525.5 1137.15,-520.6 1124.19,-515.34 1112.46,-510.63"/>
<polygon fill="midnightblue" stroke="midnightblue" points="1225.89,-561.71 1236.46,-562.42 1228.64,-555.27 1225.89,-561.71"/>
</g>
<!-- Node8 -->
<g id="node8" class="node">
<title>Node8</title>
<g id="a_node8"><a xlink:href="classVirtualKeyboardMouseWidget.html#a379b1e56c40759f5efbb912692779997" target="_top" xlink:title=" ">
<polygon fill="white" stroke="black" points="1000.5,-606.5 1000.5,-636.5 1146.5,-636.5 1146.5,-606.5 1000.5,-606.5"/>
<text text-anchor="start" x="1008.5" y="-624.5" font-family="Helvetica,sans-Serif" font-size="10.00">VirtualKeyboardMouseWidget</text>
<text text-anchor="middle" x="1073.5" y="-613.5" font-family="Helvetica,sans-Serif" font-size="10.00">::nullifyDialogPointer</text>
</a>
</g>
</g>
<!-- Node2&#45;&gt;Node8 -->
<g id="edge10" class="edge">
<title>Node2&#45;&gt;Node8</title>
<path fill="none" stroke="midnightblue" d="M1199.42,-593.6C1180.56,-597.81 1160.31,-602.34 1141.71,-606.49"/>
<polygon fill="midnightblue" stroke="midnightblue" points="1200.44,-596.96 1209.44,-591.36 1198.92,-590.13 1200.44,-596.96"/>
</g>
<!-- Node9 -->
<g id="node9" class="node">
<title>Node9</title>
<g id="a_node9"><a xlink:href="classVirtualKeyboardMouseWidget.html#ae1533c129fa9bf28b976c09eb9dd1420" target="_top" xlink:title=" ">
<polygon fill="white" stroke="black" points="793,-583.5 793,-613.5 958,-613.5 958,-583.5 793,-583.5"/>
<text text-anchor="start" x="801" y="-601.5" font-family="Helvetica,sans-Serif" font-size="10.00">VirtualKeyboardMouseWidget</text>
<text text-anchor="middle" x="875.5" y="-590.5" font-family="Helvetica,sans-Serif" font-size="10.00">::processSingleKeyboardSelection</text>
</a>
</g>
</g>
<!-- Node2&#45;&gt;Node9 -->
<g id="edge21" class="edge">
<title>Node2&#45;&gt;Node9</title>
<path fill="none" stroke="midnightblue" d="M1199.13,-581.35C1131.02,-584.97 1029.15,-590.38 958.16,-594.16"/>
<polygon fill="midnightblue" stroke="midnightblue" points="1199.55,-584.83 1209.35,-580.8 1199.17,-577.84 1199.55,-584.83"/>
</g>
<!-- Node13 -->
<g id="node13" class="node">
<title>Node13</title>
<g id="a_node13"><a xlink:href="classVirtualKeyboardMouseWidget.html#ae535d1ab2f639bb93110c6081dce1731" target="_top" xlink:title=" ">
<polygon fill="white" stroke="black" points="798.5,-647.5 798.5,-677.5 952.5,-677.5 952.5,-647.5 798.5,-647.5"/>
<text text-anchor="start" x="806.5" y="-665.5" font-family="Helvetica,sans-Serif" font-size="10.00">VirtualKeyboardMouseWidget</text>
<text text-anchor="middle" x="875.5" y="-654.5" font-family="Helvetica,sans-Serif" font-size="10.00">::processSingleMouseSelection</text>
</a>
</g>
</g>
<!-- Node2&#45;&gt;Node13 -->
<g id="edge22" class="edge">
<title>Node2&#45;&gt;Node13</title>
<path fill="none" stroke="midnightblue" d="M1243.35,-598.3C1219.54,-614.63 1183.83,-636.26 1149,-646.5 1084.66,-665.41 1008.2,-668.3 952.66,-667.11"/>
<polygon fill="midnightblue" stroke="midnightblue" points="1245.37,-601.15 1251.56,-592.55 1241.36,-595.42 1245.37,-601.15"/>
</g>
<!-- Node5 -->
<g id="node5" class="node">
<title>Node5</title>
<g id="a_node5"><a xlink:href="classButtonEditDialog.html#ade8d1ee4ae03d1080932a70c8170d488" target="_top" xlink:title=" ">
<polygon fill="white" stroke="black" points="161,-586.5 161,-616.5 321,-616.5 321,-586.5 161,-586.5"/>
<text text-anchor="start" x="169" y="-604.5" font-family="Helvetica,sans-Serif" font-size="10.00">ButtonEditDialog::openAdvanced</text>
<text text-anchor="middle" x="241" y="-593.5" font-family="Helvetica,sans-Serif" font-size="10.00">Dialog</text>
</a>
</g>
</g>
<!-- Node4&#45;&gt;Node5 -->
<g id="edge4" class="edge">
<title>Node4&#45;&gt;Node5</title>
<path fill="none" stroke="midnightblue" d="M600.72,-541.49C536.49,-546.65 439.95,-556.16 357,-571.5 335.9,-575.4 312.96,-581.08 293.17,-586.46"/>
<polygon fill="midnightblue" stroke="midnightblue" points="601.05,-544.97 610.75,-540.69 600.5,-537.99 601.05,-544.97"/>
</g>
<!-- Node5&#45;&gt;Node3 -->
<g id="edge5" class="edge">
<title>Node5&#45;&gt;Node3</title>
<path fill="none" stroke="midnightblue" d="M150.7,-601.5C142.1,-601.5 133.51,-601.5 125.26,-601.5"/>
<polygon fill="midnightblue" stroke="midnightblue" points="150.79,-605 160.78,-601.5 150.78,-598 150.79,-605"/>
</g>
<!-- Node7 -->
<g id="node7" class="node">
<title>Node7</title>
<g id="a_node7"><a xlink:href="classButtonEditDialog.html#a3f4f84fb02db14ed369dfa2cbe3eb9de" target="_top" xlink:title=" ">
<polygon fill="white" stroke="black" points="810,-480.5 810,-510.5 941,-510.5 941,-480.5 810,-480.5"/>
<text text-anchor="start" x="818" y="-498.5" font-family="Helvetica,sans-Serif" font-size="10.00">ButtonEditDialog::process</text>
<text text-anchor="middle" x="875.5" y="-487.5" font-family="Helvetica,sans-Serif" font-size="10.00">SlotAssignment</text>
</a>
</g>
</g>
<!-- Node6&#45;&gt;Node7 -->
<g id="edge7" class="edge">
<title>Node6&#45;&gt;Node7</title>
<path fill="none" stroke="midnightblue" d="M1002.15,-495.5C982.3,-495.5 960.8,-495.5 941.29,-495.5"/>
<polygon fill="midnightblue" stroke="midnightblue" points="1002.36,-499 1012.36,-495.5 1002.36,-492 1002.36,-499"/>
</g>
<!-- Node7&#45;&gt;Node3 -->
<g id="edge8" class="edge">
<title>Node7&#45;&gt;Node3</title>
<path fill="none" stroke="midnightblue" d="M799.51,-498.8C742.96,-501.58 663.52,-506.15 594,-512.5 400.21,-530.21 351.26,-536.65 161,-577.5 148.39,-580.21 134.92,-583.36 122.15,-586.46"/>
<polygon fill="midnightblue" stroke="midnightblue" points="799.98,-502.28 809.8,-498.3 799.64,-495.29 799.98,-502.28"/>
</g>
<!-- Node7&#45;&gt;Node4 -->
<g id="edge9" class="edge">
<title>Node7&#45;&gt;Node4</title>
<path fill="none" stroke="midnightblue" d="M800,-510.77C778.99,-515.08 756.38,-519.71 736.21,-523.85"/>
<polygon fill="midnightblue" stroke="midnightblue" points="800.75,-514.19 809.84,-508.75 799.34,-507.33 800.75,-514.19"/>
</g>
<!-- Node8&#45;&gt;Node9 -->
<g id="edge11" class="edge">
<title>Node8&#45;&gt;Node9</title>
<path fill="none" stroke="midnightblue" d="M990.25,-611.85C979.61,-610.6 968.72,-609.32 958.09,-608.07"/>
<polygon fill="midnightblue" stroke="midnightblue" points="990.01,-615.34 1000.35,-613.03 990.83,-608.39 990.01,-615.34"/>
</g>
<!-- Node8&#45;&gt;Node13 -->
<g id="edge17" class="edge">
<title>Node8&#45;&gt;Node13</title>
<path fill="none" stroke="midnightblue" d="M990.53,-638.65C976.53,-641.58 962.08,-644.6 948.36,-647.47"/>
<polygon fill="midnightblue" stroke="midnightblue" points="991.56,-642.01 1000.63,-636.53 990.12,-635.16 991.56,-642.01"/>
</g>
<!-- Node10 -->
<g id="node10" class="node">
<title>Node10</title>
<g id="a_node10"><a xlink:href="classVirtualKeyboardMouseWidget.html#a4d88483823d27bf1ba22c334d2407595" target="_top" xlink:title=" ">
<polygon fill="white" stroke="black" points="378.5,-581 378.5,-622 536.5,-622 536.5,-581 378.5,-581"/>
<text text-anchor="start" x="386.5" y="-610" font-family="Helvetica,sans-Serif" font-size="10.00">VirtualKeyboardMouseWidget</text>
<text text-anchor="start" x="386.5" y="-599" font-family="Helvetica,sans-Serif" font-size="10.00">::establishVirtualKeyboardSingle</text>
<text text-anchor="middle" x="457.5" y="-588" font-family="Helvetica,sans-Serif" font-size="10.00">SignalConnections</text>
</a>
</g>
</g>
<!-- Node9&#45;&gt;Node10 -->
<g id="edge12" class="edge">
<title>Node9&#45;&gt;Node10</title>
<path fill="none" stroke="midnightblue" d="M782.84,-599.15C728.04,-599.54 657.04,-600.04 594,-600.5 575.42,-600.63 555.4,-600.78 536.6,-600.92"/>
<polygon fill="midnightblue" stroke="midnightblue" points="782.9,-602.65 792.88,-599.08 782.85,-595.65 782.9,-602.65"/>
</g>
<!-- Node12 -->
<g id="node12" class="node">
<title>Node12</title>
<g id="a_node12"><a xlink:href="classVirtualKeyboardMouseWidget.html#a019229171c104fb3d7b85a41c1dfc2d1" target="_top" xlink:title=" ">
<polygon fill="white" stroke="black" points="600.5,-609.5 600.5,-639.5 746.5,-639.5 746.5,-609.5 600.5,-609.5"/>
<text text-anchor="start" x="608.5" y="-627.5" font-family="Helvetica,sans-Serif" font-size="10.00">VirtualKeyboardMouseWidget</text>
<text text-anchor="middle" x="673.5" y="-616.5" font-family="Helvetica,sans-Serif" font-size="10.00">::otherKeysActionSingle</text>
</a>
</g>
</g>
<!-- Node9&#45;&gt;Node12 -->
<g id="edge15" class="edge">
<title>Node9&#45;&gt;Node12</title>
<path fill="none" stroke="midnightblue" d="M782.73,-610.43C770.6,-612.01 758.31,-613.61 746.57,-615.13"/>
<polygon fill="midnightblue" stroke="midnightblue" points="783.4,-613.87 792.86,-609.11 782.5,-606.93 783.4,-613.87"/>
</g>
<!-- Node10&#45;&gt;Node5 -->
<g id="edge13" class="edge">
<title>Node10&#45;&gt;Node5</title>
<path fill="none" stroke="midnightblue" d="M368.27,-601.5C352.63,-601.5 336.43,-601.5 321.07,-601.5"/>
<polygon fill="midnightblue" stroke="midnightblue" points="368.45,-605 378.45,-601.5 368.45,-598 368.45,-605"/>
</g>
<!-- Node11 -->
<g id="node11" class="node">
<title>Node11</title>
<g id="a_node11"><a xlink:href="classVirtualKeyboardMouseWidget.html#a5117686d29ac16c0d1f947da9ba7b7a4" target="_top" xlink:title=" ">
<polygon fill="white" stroke="black" points="165,-638.5 165,-668.5 317,-668.5 317,-638.5 165,-638.5"/>
<text text-anchor="start" x="173" y="-656.5" font-family="Helvetica,sans-Serif" font-size="10.00">VirtualKeyboardMouseWidget</text>
<text text-anchor="middle" x="241" y="-645.5" font-family="Helvetica,sans-Serif" font-size="10.00">::VirtualKeyboardMouseWidget</text>
</a>
</g>
</g>
<!-- Node10&#45;&gt;Node11 -->
<g id="edge14" class="edge">
<title>Node10&#45;&gt;Node11</title>
<path fill="none" stroke="midnightblue" d="M368.61,-622.81C347.01,-628.04 324.31,-633.55 304.2,-638.42"/>
<polygon fill="midnightblue" stroke="midnightblue" points="369.56,-626.18 378.45,-620.42 367.91,-619.37 369.56,-626.18"/>
</g>
<!-- Node12&#45;&gt;Node10 -->
<g id="edge16" class="edge">
<title>Node12&#45;&gt;Node10</title>
<path fill="none" stroke="midnightblue" d="M590.12,-615.65C572.53,-613.76 554,-611.76 536.58,-609.89"/>
<polygon fill="midnightblue" stroke="midnightblue" points="590.03,-619.16 600.35,-616.75 590.78,-612.2 590.03,-619.16"/>
</g>
<!-- Node14 -->
<g id="node14" class="node">
<title>Node14</title>
<g id="a_node14"><a xlink:href="classVirtualKeyboardMouseWidget.html#ae98ecab176697aed0ca87609ceceaf06" target="_top" xlink:title=" ">
<polygon fill="white" stroke="black" points="357,-641.5 357,-671.5 558,-671.5 558,-641.5 357,-641.5"/>
<text text-anchor="start" x="365" y="-659.5" font-family="Helvetica,sans-Serif" font-size="10.00">VirtualKeyboardMouseWidget</text>
<text text-anchor="middle" x="457.5" y="-648.5" font-family="Helvetica,sans-Serif" font-size="10.00">::establishVirtualMouseSignalConnections</text>
</a>
</g>
</g>
<!-- Node13&#45;&gt;Node14 -->
<g id="edge18" class="edge">
<title>Node13&#45;&gt;Node14</title>
<path fill="none" stroke="midnightblue" d="M788.1,-661.25C721.17,-660.29 628.35,-658.95 558.26,-657.94"/>
<polygon fill="midnightblue" stroke="midnightblue" points="788.15,-664.75 798.2,-661.4 788.25,-657.76 788.15,-664.75"/>
</g>
<!-- Node14&#45;&gt;Node5 -->
<g id="edge19" class="edge">
<title>Node14&#45;&gt;Node5</title>
<path fill="none" stroke="midnightblue" d="M386.42,-638.98C376.54,-636.48 366.51,-633.94 357,-631.5 338.21,-626.69 317.71,-621.37 299.3,-616.56"/>
<polygon fill="midnightblue" stroke="midnightblue" points="385.68,-642.4 396.23,-641.45 387.39,-635.61 385.68,-642.4"/>
</g>
<!-- Node14&#45;&gt;Node11 -->
<g id="edge20" class="edge">
<title>Node14&#45;&gt;Node11</title>
<path fill="none" stroke="midnightblue" d="M346.76,-654.97C336.73,-654.82 326.73,-654.68 317.11,-654.55"/>
<polygon fill="midnightblue" stroke="midnightblue" points="346.74,-658.47 356.79,-655.11 346.84,-651.47 346.74,-658.47"/>
</g>
<!-- Node16 -->
<g id="node16" class="node">
<title>Node16</title>
<g id="a_node16"><a xlink:href="classInputDeviceXml.html#a847bf9ed17b554bf87d513a1aebdcb64" target="_top" xlink:title=" ">
<polygon fill="white" stroke="black" points="1003.5,-148 1003.5,-167 1143.5,-167 1143.5,-148 1003.5,-148"/>
<text text-anchor="middle" x="1073.5" y="-155" font-family="Helvetica,sans-Serif" font-size="10.00">InputDeviceXml::readConfig</text>
</a>
</g>
</g>
<!-- Node15&#45;&gt;Node16 -->
<g id="edge24" class="edge">
<title>Node15&#45;&gt;Node16</title>
<path fill="none" stroke="midnightblue" d="M1218.74,-125.28C1186.94,-132.39 1146.96,-141.32 1117.16,-147.97"/>
<polygon fill="midnightblue" stroke="midnightblue" points="1219.76,-128.64 1228.75,-123.05 1218.23,-121.81 1219.76,-128.64"/>
</g>
<!-- Node17 -->
<g id="node17" class="node">
<title>Node17</title>
<g id="a_node17"><a xlink:href="classGameControllerXml.html#ae6ea19bdaf10425456faf9dd8495a7a3" target="_top" xlink:title=" ">
<polygon fill="white" stroke="black" points="1019.5,-98.5 1019.5,-128.5 1127.5,-128.5 1127.5,-98.5 1019.5,-98.5"/>
<text text-anchor="start" x="1027.5" y="-116.5" font-family="Helvetica,sans-Serif" font-size="10.00">GameControllerXml::</text>
<text text-anchor="middle" x="1073.5" y="-105.5" font-family="Helvetica,sans-Serif" font-size="10.00">readXmlNamesLong</text>
</a>
</g>
</g>
<!-- Node15&#45;&gt;Node17 -->
<g id="edge25" class="edge">
<title>Node15&#45;&gt;Node17</title>
<path fill="none" stroke="midnightblue" d="M1180.77,-113.5C1162.63,-113.5 1144.13,-113.5 1127.75,-113.5"/>
<polygon fill="midnightblue" stroke="midnightblue" points="1180.8,-117 1190.8,-113.5 1180.8,-110 1180.8,-117"/>
</g>
<!-- Node19 -->
<g id="node19" class="node">
<title>Node19</title>
<g id="a_node19"><a xlink:href="classInputDevice.html#adaf073e157dca5d1e3325d916d6c4823" target="_top" xlink:title=" ">
<polygon fill="white" stroke="black" points="1004,-49.5 1004,-79.5 1143,-79.5 1143,-49.5 1004,-49.5"/>
<text text-anchor="start" x="1012" y="-67.5" font-family="Helvetica,sans-Serif" font-size="10.00">InputDevice::updateSetAxis</text>
<text text-anchor="middle" x="1073.5" y="-56.5" font-family="Helvetica,sans-Serif" font-size="10.00">ButtonNames</text>
</a>
</g>
</g>
<!-- Node15&#45;&gt;Node19 -->
<g id="edge27" class="edge">
<title>Node15&#45;&gt;Node19</title>
<path fill="none" stroke="midnightblue" d="M1240.76,-100.79C1214.79,-92.75 1176.62,-82.79 1143.4,-75.17"/>
<polygon fill="midnightblue" stroke="midnightblue" points="1239.83,-104.17 1250.42,-103.89 1241.96,-97.5 1239.83,-104.17"/>
</g>
<!-- Node18 -->
<g id="node18" class="node">
<title>Node18</title>
<g id="a_node18"><a xlink:href="classGameControllerXml.html#a7e47256cae0d3815419bc254413777d1" target="_top" xlink:title=" ">
<polygon fill="white" stroke="black" points="821.5,-284.5 821.5,-314.5 929.5,-314.5 929.5,-284.5 821.5,-284.5"/>
<text text-anchor="start" x="829.5" y="-302.5" font-family="Helvetica,sans-Serif" font-size="10.00">GameControllerXml::</text>
<text text-anchor="middle" x="875.5" y="-291.5" font-family="Helvetica,sans-Serif" font-size="10.00">readConfig</text>
</a>
</g>
</g>
<!-- Node17&#45;&gt;Node18 -->
<g id="edge26" class="edge">
<title>Node17&#45;&gt;Node18</title>
<path fill="none" stroke="midnightblue" d="M1010.12,-129.77C1005.75,-132.28 1001.65,-135.17 998,-138.5 968.62,-165.35 985.1,-188.09 962,-220.5 943.82,-246.01 916.31,-269.59 897.43,-284.22"/>
<polygon fill="midnightblue" stroke="midnightblue" points="1011.99,-132.75 1019.37,-125.15 1008.86,-126.49 1011.99,-132.75"/>
</g>
<!-- Node19&#45;&gt;Node15 -->
<g id="edge31" class="edge">
<title>Node19&#45;&gt;Node15</title>
<path fill="none" stroke="midnightblue" d="M1122.72,-82.39C1148.26,-89.69 1179.97,-97.74 1207.54,-103.96"/>
<polygon fill="midnightblue" stroke="midnightblue" points="1123.47,-78.97 1112.89,-79.53 1121.52,-85.69 1123.47,-78.97"/>
</g>
<!-- Node20 -->
<g id="node20" class="node">
<title>Node20</title>
<g id="a_node20"><a xlink:href="classInputDevice.html#a6ffcebba103a7db02e82c1c7f62387bf" target="_top" xlink:title=" ">
<polygon fill="white" stroke="black" points="789,-192 789,-211 962,-211 962,-192 789,-192"/>
<text text-anchor="middle" x="875.5" y="-199" font-family="Helvetica,sans-Serif" font-size="10.00">InputDevice::enableSetConnections</text>
</a>
</g>
</g>
<!-- Node19&#45;&gt;Node20 -->
<g id="edge28" class="edge">
<title>Node19&#45;&gt;Node20</title>
<path fill="none" stroke="midnightblue" d="M1007.25,-83.61C1004.06,-85.14 1000.96,-86.76 998,-88.5 948.3,-117.65 902.1,-170.22 884.26,-191.83"/>
<polygon fill="midnightblue" stroke="midnightblue" points="1008.66,-86.82 1016.41,-79.59 1005.85,-80.41 1008.66,-86.82"/>
</g>
<!-- Node21 -->
<g id="node21" class="node">
<title>Node21</title>
<g id="a_node21"><a xlink:href="classGameController.html#afcddb9dcc5442a9746c3ff8760ea1791" target="_top" xlink:title=" ">
<polygon fill="white" stroke="black" points="594,-211 594,-230 753,-230 753,-211 594,-211"/>
<text text-anchor="middle" x="673.5" y="-218" font-family="Helvetica,sans-Serif" font-size="10.00">GameController::GameController</text>
</a>
</g>
</g>
<!-- Node20&#45;&gt;Node21 -->
<g id="edge29" class="edge">
<title>Node20&#45;&gt;Node21</title>
<path fill="none" stroke="midnightblue" d="M778.74,-210.6C770.14,-211.41 761.49,-212.24 753.05,-213.04"/>
<polygon fill="midnightblue" stroke="midnightblue" points="779.19,-214.07 788.81,-209.64 778.53,-207.1 779.19,-214.07"/>
</g>
<!-- Node22 -->
<g id="node22" class="node">
<title>Node22</title>
<g id="a_node22"><a xlink:href="classJoystick.html#a9df5e53506876f3c95e84bdf6c9cbaf1" target="_top" xlink:title=" ">
<polygon fill="white" stroke="black" points="626.5,-173 626.5,-192 720.5,-192 720.5,-173 626.5,-173"/>
<text text-anchor="middle" x="673.5" y="-180" font-family="Helvetica,sans-Serif" font-size="10.00">Joystick::Joystick</text>
</a>
</g>
</g>
<!-- Node20&#45;&gt;Node22 -->
<g id="edge30" class="edge">
<title>Node20&#45;&gt;Node22</title>
<path fill="none" stroke="midnightblue" d="M778.6,-192.39C758.39,-190.47 737.95,-188.53 720.6,-186.88"/>
<polygon fill="midnightblue" stroke="midnightblue" points="778.53,-195.9 788.81,-193.36 779.19,-188.93 778.53,-195.9"/>
</g>
<!-- Node23&#45;&gt;Node16 -->
<g id="edge33" class="edge">
<title>Node23&#45;&gt;Node16</title>
<path fill="none" stroke="midnightblue" d="M1248.37,-356.84C1228.85,-342.5 1201.51,-319.57 1185,-293.5 1155.89,-247.54 1188.4,-214.02 1149,-176.5 1144.94,-172.63 1140.21,-169.52 1135.13,-167.03"/>
<polygon fill="midnightblue" stroke="midnightblue" points="1246.55,-359.84 1256.72,-362.81 1250.62,-354.15 1246.55,-359.84"/>
</g>
<!-- Node24 -->
<g id="node24" class="node">
<title>Node24</title>
<g id="a_node24"><a xlink:href="classGameControllerXml.html#aaa5257d4c6fe13f1d5fc51981e247c25" target="_top" xlink:title=" ">
<polygon fill="white" stroke="black" points="1019.5,-333.5 1019.5,-363.5 1127.5,-363.5 1127.5,-333.5 1019.5,-333.5"/>
<text text-anchor="start" x="1027.5" y="-351.5" font-family="Helvetica,sans-Serif" font-size="10.00">GameControllerXml::</text>
<text text-anchor="middle" x="1073.5" y="-340.5" font-family="Helvetica,sans-Serif" font-size="10.00">readJoystickConfig</text>
</a>
</g>
</g>
<!-- Node23&#45;&gt;Node24 -->
<g id="edge34" class="edge">
<title>Node23&#45;&gt;Node24</title>
<path fill="none" stroke="midnightblue" d="M1190.9,-362.68C1169.55,-360.08 1147.05,-357.34 1127.57,-354.97"/>
<polygon fill="midnightblue" stroke="midnightblue" points="1190.59,-366.17 1200.93,-363.9 1191.43,-359.22 1190.59,-366.17"/>
</g>
<!-- Node25 -->
<g id="node25" class="node">
<title>Node25</title>
<g id="a_node25"><a xlink:href="classGameControllerXml.html#a6cc4ca448e7b6462630d535f75f3a96b" target="_top" xlink:title=" ">
<polygon fill="white" stroke="black" points="1019.5,-431.5 1019.5,-461.5 1127.5,-461.5 1127.5,-431.5 1019.5,-431.5"/>
<text text-anchor="start" x="1027.5" y="-449.5" font-family="Helvetica,sans-Serif" font-size="10.00">GameControllerXml::</text>
<text text-anchor="middle" x="1073.5" y="-438.5" font-family="Helvetica,sans-Serif" font-size="10.00">readXmlNamesShort</text>
</a>
</g>
</g>
<!-- Node23&#45;&gt;Node25 -->
<g id="edge36" class="edge">
<title>Node23&#45;&gt;Node25</title>
<path fill="none" stroke="midnightblue" d="M1240.37,-385.97C1215.76,-396.43 1180.44,-411.04 1149,-422.5 1140.7,-425.53 1131.81,-428.56 1123.17,-431.41"/>
<polygon fill="midnightblue" stroke="midnightblue" points="1241.75,-389.19 1249.57,-382.04 1239,-382.75 1241.75,-389.19"/>
</g>
<!-- Node26 -->
<g id="node26" class="node">
<title>Node26</title>
<g id="a_node26"><a xlink:href="classInputDevice.html#ac755b9a6c5992b14f07fbb5118ba2da9" target="_top" xlink:title=" ">
<polygon fill="white" stroke="black" points="999.5,-382.5 999.5,-412.5 1147.5,-412.5 1147.5,-382.5 999.5,-382.5"/>
<text text-anchor="start" x="1007.5" y="-400.5" font-family="Helvetica,sans-Serif" font-size="10.00">InputDevice::updateSetButton</text>
<text text-anchor="middle" x="1073.5" y="-389.5" font-family="Helvetica,sans-Serif" font-size="10.00">Names</text>
</a>
</g>
</g>
<!-- Node23&#45;&gt;Node26 -->
<g id="edge38" class="edge">
<title>Node23&#45;&gt;Node26</title>
<path fill="none" stroke="midnightblue" d="M1190.91,-376.08C1174.64,-377.96 1157.7,-380.18 1141.94,-382.5"/>
<polygon fill="midnightblue" stroke="midnightblue" points="1191.39,-379.55 1200.93,-374.95 1190.61,-372.59 1191.39,-379.55"/>
</g>
<!-- Node24&#45;&gt;Node18 -->
<g id="edge35" class="edge">
<title>Node24&#45;&gt;Node18</title>
<path fill="none" stroke="midnightblue" d="M1009.42,-332.73C983.67,-326.29 954.21,-318.93 929.58,-312.77"/>
<polygon fill="midnightblue" stroke="midnightblue" points="1008.91,-336.21 1019.46,-335.24 1010.61,-329.42 1008.91,-336.21"/>
</g>
<!-- Node25&#45;&gt;Node18 -->
<g id="edge37" class="edge">
<title>Node25&#45;&gt;Node18</title>
<path fill="none" stroke="midnightblue" d="M1010.07,-428.93C1005.88,-426.99 1001.81,-424.85 998,-422.5 949.94,-392.93 906.94,-340.46 887.49,-314.67"/>
<polygon fill="midnightblue" stroke="midnightblue" points="1008.82,-432.21 1019.39,-432.9 1011.56,-425.76 1008.82,-432.21"/>
</g>
<!-- Node26&#45;&gt;Node20 -->
<g id="edge39" class="edge">
<title>Node26&#45;&gt;Node20</title>
<path fill="none" stroke="midnightblue" d="M1001.44,-376.54C1000.25,-375.57 999.1,-374.56 998,-373.5 964.53,-341.36 988.38,-313.67 962,-275.5 942.8,-247.72 910.81,-223.87 891.87,-211.2"/>
<polygon fill="midnightblue" stroke="midnightblue" points="999.6,-379.52 1009.82,-382.3 1003.56,-373.75 999.6,-379.52"/>
</g>
<!-- Node26&#45;&gt;Node23 -->
<g id="edge40" class="edge">
<title>Node26&#45;&gt;Node23</title>
<path fill="none" stroke="midnightblue" d="M1158.1,-393.57C1186.08,-390.28 1215.69,-386.05 1237.63,-382.04"/>
<polygon fill="midnightblue" stroke="midnightblue" points="1157.43,-390.13 1147.89,-394.74 1158.22,-397.08 1157.43,-390.13"/>
</g>
<!-- Node27&#45;&gt;Node16 -->
<g id="edge42" class="edge">
<title>Node27&#45;&gt;Node16</title>
<path fill="none" stroke="midnightblue" d="M1240.74,-59.52C1223.4,-68.22 1201.9,-80.43 1185,-94.5 1165.85,-110.45 1170.01,-124.09 1149,-137.5 1142.23,-141.82 1134.54,-145.22 1126.73,-147.88"/>
<polygon fill="midnightblue" stroke="midnightblue" points="1242.44,-62.58 1249.89,-55.05 1239.37,-56.29 1242.44,-62.58"/>
</g>
<!-- Node28 -->
<g id="node28" class="node">
<title>Node28</title>
<g id="a_node28"><a xlink:href="classInputDevice.html#a1aed75415ee98b95e4c89647a9432afa" target="_top" xlink:title=" ">
<polygon fill="white" stroke="black" points="1001.5,-0.5 1001.5,-30.5 1145.5,-30.5 1145.5,-0.5 1001.5,-0.5"/>
<text text-anchor="start" x="1009.5" y="-18.5" font-family="Helvetica,sans-Serif" font-size="10.00">InputDevice::updateSetDPad</text>
<text text-anchor="middle" x="1073.5" y="-7.5" font-family="Helvetica,sans-Serif" font-size="10.00">ButtonNames</text>
</a>
</g>
</g>
<!-- Node27&#45;&gt;Node28 -->
<g id="edge43" class="edge">
<title>Node27&#45;&gt;Node28</title>
<path fill="none" stroke="midnightblue" d="M1231.52,-33.86C1206.88,-28.95 1174.57,-23.71 1145.67,-19.82"/>
<polygon fill="midnightblue" stroke="midnightblue" points="1231.08,-37.34 1241.58,-35.93 1232.49,-30.48 1231.08,-37.34"/>
</g>
<!-- Node28&#45;&gt;Node20 -->
<g id="edge44" class="edge">
<title>Node28&#45;&gt;Node20</title>
<path fill="none" stroke="midnightblue" d="M1004.51,-35.31C1002.26,-36.62 1000.08,-38.02 998,-39.5 937.89,-82.37 894.64,-163.92 881.04,-191.84"/>
<polygon fill="midnightblue" stroke="midnightblue" points="1006.22,-38.36 1013.48,-30.65 1002.99,-32.15 1006.22,-38.36"/>
</g>
<!-- Node28&#45;&gt;Node27 -->
<g id="edge45" class="edge">
<title>Node28&#45;&gt;Node27</title>
<path fill="none" stroke="midnightblue" d="M1142.44,-32.3C1157.19,-34.84 1172.97,-37.32 1188.24,-39.5"/>
<polygon fill="midnightblue" stroke="midnightblue" points="1142.86,-28.82 1132.4,-30.53 1141.64,-35.71 1142.86,-28.82"/>
</g>
<!-- Node29&#45;&gt;Node16 -->
<g id="edge47" class="edge">
<title>Node29&#45;&gt;Node16</title>
<path fill="none" stroke="midnightblue" d="M1223.33,-194.52C1189.34,-186.06 1144.42,-174.89 1112.85,-167.04"/>
<polygon fill="midnightblue" stroke="midnightblue" points="1222.5,-197.92 1233.05,-196.94 1224.19,-191.13 1222.5,-197.92"/>
</g>
<!-- Node29&#45;&gt;Node24 -->
<g id="edge48" class="edge">
<title>Node29&#45;&gt;Node24</title>
<path fill="none" stroke="midnightblue" d="M1237.02,-220.38C1219.79,-228.61 1199.57,-240.42 1185,-255.5 1160.97,-280.38 1175.44,-302.2 1149,-324.5 1142.77,-329.76 1135.37,-333.87 1127.68,-337.08"/>
<polygon fill="midnightblue" stroke="midnightblue" points="1238.59,-223.51 1246.23,-216.17 1235.68,-217.14 1238.59,-223.51"/>
</g>
<!-- Node30 -->
<g id="node30" class="node">
<title>Node30</title>
<g id="a_node30"><a xlink:href="classGameControllerXml.html#ae5f862960b70f00d38eb26f94e8d9cba" target="_top" xlink:title=" ">
<polygon fill="white" stroke="black" points="1017,-235.5 1017,-265.5 1130,-265.5 1130,-235.5 1017,-235.5"/>
<text text-anchor="start" x="1025" y="-253.5" font-family="Helvetica,sans-Serif" font-size="10.00">GameControllerXml::</text>
<text text-anchor="middle" x="1073.5" y="-242.5" font-family="Helvetica,sans-Serif" font-size="10.00">readXmlNamesMiddle</text>
</a>
</g>
</g>
<!-- Node29&#45;&gt;Node30 -->
<g id="edge49" class="edge">
<title>Node29&#45;&gt;Node30</title>
<path fill="none" stroke="midnightblue" d="M1218.97,-218.23C1191.59,-224.35 1158.1,-231.83 1130.27,-238.04"/>
<polygon fill="midnightblue" stroke="midnightblue" points="1219.76,-221.64 1228.75,-216.05 1218.23,-214.81 1219.76,-221.64"/>
</g>
<!-- Node31 -->
<g id="node31" class="node">
<title>Node31</title>
<g id="a_node31"><a xlink:href="classInputDevice.html#acc8b931a7b219403ecd8eae444d8534f" target="_top" xlink:title=" ">
<polygon fill="white" stroke="black" points="1002.5,-186.5 1002.5,-216.5 1144.5,-216.5 1144.5,-186.5 1002.5,-186.5"/>
<text text-anchor="start" x="1010.5" y="-204.5" font-family="Helvetica,sans-Serif" font-size="10.00">InputDevice::updateSetStick</text>
<text text-anchor="middle" x="1073.5" y="-193.5" font-family="Helvetica,sans-Serif" font-size="10.00">ButtonNames</text>
</a>
</g>
</g>
<!-- Node29&#45;&gt;Node31 -->
<g id="edge51" class="edge">
<title>Node29&#45;&gt;Node31</title>
<path fill="none" stroke="midnightblue" d="M1179.2,-197.42C1167.56,-197.08 1155.81,-196.86 1144.59,-196.78"/>
<polygon fill="midnightblue" stroke="midnightblue" points="1179.27,-200.92 1189.38,-197.75 1179.5,-193.93 1179.27,-200.92"/>
</g>
<!-- Node30&#45;&gt;Node18 -->
<g id="edge50" class="edge">
<title>Node30&#45;&gt;Node18</title>
<path fill="none" stroke="midnightblue" d="M1007.02,-266.87C981.85,-273.16 953.45,-280.26 929.58,-286.23"/>
<polygon fill="midnightblue" stroke="midnightblue" points="1008.01,-270.23 1016.86,-264.41 1006.31,-263.44 1008.01,-270.23"/>
</g>
<!-- Node31&#45;&gt;Node20 -->
<g id="edge52" class="edge">
<title>Node31&#45;&gt;Node20</title>
<path fill="none" stroke="midnightblue" d="M992.14,-201.5C982.3,-201.5 972.22,-201.5 962.3,-201.5"/>
<polygon fill="midnightblue" stroke="midnightblue" points="992.29,-205 1002.29,-201.5 992.29,-198 992.29,-205"/>
</g>
<!-- Node31&#45;&gt;Node29 -->
<g id="edge53" class="edge">
<title>Node31&#45;&gt;Node29</title>
<path fill="none" stroke="midnightblue" d="M1154.92,-210.19C1166.29,-210.61 1177.98,-210.91 1189.38,-211.08"/>
<polygon fill="midnightblue" stroke="midnightblue" points="1154.73,-206.68 1144.59,-209.77 1154.44,-213.67 1154.73,-206.68"/>
</g>
<!-- Node32&#45;&gt;Node16 -->
<g id="edge55" class="edge">
<title>Node32&#45;&gt;Node16</title>
<path fill="none" stroke="midnightblue" d="M1239.7,-260.54C1222.37,-251.98 1201.22,-239.91 1185,-225.5 1164.8,-207.55 1171.4,-191.61 1149,-176.5 1143.25,-172.62 1136.76,-169.53 1130.07,-167.07"/>
<polygon fill="midnightblue" stroke="midnightblue" points="1238.34,-263.77 1248.87,-264.93 1241.36,-257.46 1238.34,-263.77"/>
</g>
<!-- Node32&#45;&gt;Node24 -->
<g id="edge56" class="edge">
<title>Node32&#45;&gt;Node24</title>
<path fill="none" stroke="midnightblue" d="M1240.37,-287.97C1215.76,-298.43 1180.44,-313.04 1149,-324.5 1140.7,-327.53 1131.81,-330.56 1123.17,-333.41"/>
<polygon fill="midnightblue" stroke="midnightblue" points="1241.75,-291.19 1249.57,-284.04 1239,-284.75 1241.75,-291.19"/>
</g>
<!-- Node32&#45;&gt;Node30 -->
<g id="edge57" class="edge">
<title>Node32&#45;&gt;Node30</title>
<path fill="none" stroke="midnightblue" d="M1183.36,-263.76C1165.24,-261.55 1146.65,-259.29 1130.08,-257.27"/>
<polygon fill="midnightblue" stroke="midnightblue" points="1183.01,-267.24 1193.36,-264.98 1183.85,-260.3 1183.01,-267.24"/>
</g>
<!-- Node33 -->
<g id="node33" class="node">
<title>Node33</title>
<g id="a_node33"><a xlink:href="classInputDevice.html#ac45d96f574a4b1c64b93932e49711377" target="_top" xlink:title=" ">
<polygon fill="white" stroke="black" points="998,-284.5 998,-314.5 1149,-314.5 1149,-284.5 998,-284.5"/>
<text text-anchor="start" x="1006" y="-302.5" font-family="Helvetica,sans-Serif" font-size="10.00">InputDevice::updateSetVDPad</text>
<text text-anchor="middle" x="1073.5" y="-291.5" font-family="Helvetica,sans-Serif" font-size="10.00">ButtonNames</text>
</a>
</g>
</g>
<!-- Node32&#45;&gt;Node33 -->
<g id="edge58" class="edge">
<title>Node32&#45;&gt;Node33</title>
<path fill="none" stroke="midnightblue" d="M1174.68,-280.04C1163.62,-281.43 1152.54,-282.94 1141.98,-284.49"/>
<polygon fill="midnightblue" stroke="midnightblue" points="1175.31,-283.49 1184.81,-278.8 1174.45,-276.54 1175.31,-283.49"/>
</g>
<!-- Node33&#45;&gt;Node20 -->
<g id="edge59" class="edge">
<title>Node33&#45;&gt;Node20</title>
<path fill="none" stroke="midnightblue" d="M1013.22,-280.93C1008.02,-278.9 1002.88,-276.75 998,-274.5 956.89,-255.53 912.11,-226.12 890.17,-211.07"/>
<polygon fill="midnightblue" stroke="midnightblue" points="1012.03,-284.22 1022.62,-284.44 1014.48,-277.66 1012.03,-284.22"/>
</g>
<!-- Node33&#45;&gt;Node32 -->
<g id="edge60" class="edge">
<title>Node33&#45;&gt;Node32</title>
<path fill="none" stroke="midnightblue" d="M1159.23,-295.44C1186.87,-292.17 1215.98,-287.99 1237.63,-284.04"/>
<polygon fill="midnightblue" stroke="midnightblue" points="1158.66,-291.98 1149.13,-296.6 1159.46,-298.93 1158.66,-291.98"/>
</g>
</g>
</svg>
        <g id="navigator" transform="translate(0 0)" fill="#404254">
                <rect fill="#f2f5e9" fill-opacity="0.5" stroke="#606060" stroke-width=".5" x="0" y="0" width="60" height="60"/>
                <use id="zoomplus" xlink:href="#zoomPlus" x="17" y="9" onmousedown="handleZoom(evt,'in')"/>
                <use id="zoomminus" xlink:href="#zoomMin" x="42" y="9" onmousedown="handleZoom(evt,'out')"/>
                <use id="reset" xlink:href="#resetDef" x="30" y="36" onmousedown="handleReset()"/>
                <g id="arrowUp" xlink:href="#dirArrow" transform="translate(30 24)" onmousedown="handlePan(0,-1)">
                  <use xlink:href="#rim" fill="#404040">
                        <set attributeName="fill" to="#808080" begin="arrowUp.mouseover" end="arrowUp.mouseout"/>
                  </use>
                  <path fill="none" stroke="white" stroke-width="1.5" d="M0,-3.0v7 M-2.5,-0.5L0,-3.0L2.5,-0.5"/>
                </g>
                <g id="arrowRight" xlink:href="#dirArrow" transform="rotate(90) translate(36 -43)" onmousedown="handlePan(1,0)">
                  <use xlink:href="#rim" fill="#404040">
                        <set attributeName="fill" to="#808080" begin="arrowRight.mouseover" end="arrowRight.mouseout"/>
                  </use>
                  <path fill="none" stroke="white" stroke-width="1.5" d="M0,-3.0v7 M-2.5,-0.5L0,-3.0L2.5,-0.5"/>
                </g>
                <g id="arrowDown" xlink:href="#dirArrow" transform="rotate(180) translate(-30 -48)" onmousedown="handlePan(0,1)">
                  <use xlink:href="#rim" fill="#404040">
                        <set attributeName="fill" to="#808080" begin="arrowDown.mouseover" end="arrowDown.mouseout"/>
                  </use>
                  <path fill="none" stroke="white" stroke-width="1.5" d="M0,-3.0v7 M-2.5,-0.5L0,-3.0L2.5,-0.5"/>
                </g>
                <g id="arrowLeft" xlink:href="#dirArrow" transform="rotate(270) translate(-36 17)" onmousedown="handlePan(-1,0)">
                  <use xlink:href="#rim" fill="#404040">
                        <set attributeName="fill" to="#808080" begin="arrowLeft.mouseover" end="arrowLeft.mouseout"/>
                  </use>
                  <path fill="none" stroke="white" stroke-width="1.5" d="M0,-3.0v7 M-2.5,-0.5L0,-3.0L2.5,-0.5"/>
                </g>
        </g>
        <svg viewBox="0 0 15 15" width="100%" height="30px" preserveAspectRatio="xMaxYMin meet">
         <g id="arrow_out" transform="scale(0.3 0.3)">
          <a xlink:href="classJoyButton_a5577eb227e3fd535fdcbbf395648e215_icgraph_org.svg" target="_base">
           <rect id="button" ry="5" rx="5" y="6" x="6" height="38" width="38"
                fill="#f2f5e9" fill-opacity="0.5" stroke="#606060" stroke-width="1.0"/>
           <path id="arrow"
             d="M 11.500037,31.436501 C 11.940474,20.09759 22.043105,11.32322 32.158766,21.979434 L 37.068811,17.246167 C 37.068811,17.246167 37.088388,32 37.088388,32 L 22.160133,31.978069 C 22.160133,31.978069 26.997745,27.140456 26.997745,27.140456 C 18.528582,18.264221 13.291696,25.230495 11.500037,31.436501 z"
             style="fill:#404040;"/>
          </a>
         </g>
        </svg>
</svg>
