<?xml version="1.0" encoding="UTF-8" standalone="no"?>
<!DOCTYPE svg PUBLIC "-//W3C//DTD SVG 1.1//EN"
 "http://www.w3.org/Graphics/SVG/1.1/DTD/svg11.dtd">
<!-- Generated by graphviz version 2.43.0 (0)
 -->
<!-- Title: JoyButtonContextMenu::buildMenu Pages: 1 -->
<svg width="2666pt" height="477pt"
 viewBox="0.00 0.00 2666.00 477.00" xmlns="http://www.w3.org/2000/svg" xmlns:xlink="http://www.w3.org/1999/xlink">
<g id="graph0" class="graph" transform="scale(1 1) rotate(0) translate(4 473)">
<title>JoyButtonContextMenu::buildMenu</title>
<polygon fill="white" stroke="transparent" points="-4,4 -4,-473 2662,-473 2662,4 -4,4"/>
<!-- Node1 -->
<g id="node1" class="node">
<title>Node1</title>
<g id="a_node1"><a xlink:title=" ">
<polygon fill="#bfbfbf" stroke="black" points="0,-208.5 0,-238.5 119,-238.5 119,-208.5 0,-208.5"/>
<text text-anchor="start" x="8" y="-226.5" font-family="Helvetica,sans-Serif" font-size="10.00">JoyButtonContextMenu</text>
<text text-anchor="middle" x="59.5" y="-215.5" font-family="Helvetica,sans-Serif" font-size="10.00">::buildMenu</text>
</a>
</g>
</g>
<!-- Node2 -->
<g id="node2" class="node">
<title>Node2</title>
<g id="a_node2"><a xlink:href="$classJoyButtonContextMenu.html#a2bf2a3dd54357aa74bd8e1c8591d85f5" xlink:title=" ">
<polygon fill="white" stroke="black" points="157.5,-416.5 157.5,-446.5 276.5,-446.5 276.5,-416.5 157.5,-416.5"/>
<text text-anchor="start" x="165.5" y="-434.5" font-family="Helvetica,sans-Serif" font-size="10.00">JoyButtonContextMenu</text>
<text text-anchor="middle" x="217" y="-423.5" font-family="Helvetica,sans-Serif" font-size="10.00">::clearButton</text>
</a>
</g>
</g>
<!-- Node1&#45;&gt;Node2 -->
<g id="edge1" class="edge">
<title>Node1&#45;&gt;Node2</title>
<path fill="none" stroke="midnightblue" d="M64.95,-238.58C75.49,-271.95 104.88,-352.91 155,-401.5 158.72,-405.1 162.95,-408.35 167.42,-411.27"/>
<polygon fill="midnightblue" stroke="midnightblue" points="165.82,-414.39 176.22,-416.45 169.38,-408.36 165.82,-414.39"/>
</g>
<!-- Node3 -->
<g id="node3" class="node">
<title>Node3</title>
<g id="a_node3"><a xlink:href="$classJoyButtonContextMenu.html#a4fdfe771c441058419ab8dcdc0a17574" xlink:title=" ">
<polygon fill="white" stroke="black" points="157.5,-328.5 157.5,-358.5 276.5,-358.5 276.5,-328.5 157.5,-328.5"/>
<text text-anchor="start" x="165.5" y="-346.5" font-family="Helvetica,sans-Serif" font-size="10.00">JoyButtonContextMenu</text>
<text text-anchor="middle" x="217" y="-335.5" font-family="Helvetica,sans-Serif" font-size="10.00">::createActionForGroup</text>
</a>
</g>
</g>
<!-- Node1&#45;&gt;Node3 -->
<g id="edge2" class="edge">
<title>Node1&#45;&gt;Node3</title>
<path fill="none" stroke="midnightblue" d="M73.72,-238.68C91,-257.86 122.85,-291.08 155,-313.5 160.21,-317.13 165.92,-320.56 171.7,-323.72"/>
<polygon fill="midnightblue" stroke="midnightblue" points="170.28,-326.92 180.77,-328.44 173.51,-320.71 170.28,-326.92"/>
</g>
<!-- Node4 -->
<g id="node4" class="node">
<title>Node4</title>
<g id="a_node4"><a xlink:href="$classJoyButton.html#afd17822071a59e87f898a46cc60bcbf2" xlink:title=" ">
<polygon fill="white" stroke="black" points="315,-378 315,-397 485,-397 485,-378 315,-378"/>
<text text-anchor="middle" x="400" y="-385" font-family="Helvetica,sans-Serif" font-size="10.00">JoyButton::getChangeSetCondition</text>
</a>
</g>
</g>
<!-- Node1&#45;&gt;Node4 -->
<g id="edge54" class="edge">
<title>Node1&#45;&gt;Node4</title>
<path fill="none" stroke="midnightblue" d="M65.29,-238.71C75.86,-269.42 104.35,-338.45 155,-368.5 206.9,-399.29 276.32,-401.76 327.84,-397.86"/>
<polygon fill="midnightblue" stroke="midnightblue" points="328.23,-401.34 337.89,-397.01 327.63,-394.37 328.23,-401.34"/>
</g>
<!-- Node5 -->
<g id="node5" class="node">
<title>Node5</title>
<g id="a_node5"><a xlink:href="$classJoyButton.html#a695a0a6c64d168b62dfbdd3c925a786d" xlink:title=" ">
<polygon fill="white" stroke="black" points="332,-290 332,-309 468,-309 468,-290 332,-290"/>
<text text-anchor="middle" x="400" y="-297" font-family="Helvetica,sans-Serif" font-size="10.00">JoyButton::getSetSelection</text>
</a>
</g>
</g>
<!-- Node1&#45;&gt;Node5 -->
<g id="edge57" class="edge">
<title>Node1&#45;&gt;Node5</title>
<path fill="none" stroke="midnightblue" d="M94.02,-238.66C111.83,-246.18 134.26,-254.85 155,-260.5 209.87,-275.44 273.35,-285.37 321.8,-291.46"/>
<polygon fill="midnightblue" stroke="midnightblue" points="321.55,-294.96 331.9,-292.71 322.4,-288.01 321.55,-294.96"/>
</g>
<!-- Node46 -->
<g id="node40" class="node">
<title>Node46</title>
<g id="a_node40"><a xlink:href="$classJoyButtonContextMenu.html#af87e510b98bc2c294281e7de7507c956" xlink:title=" ">
<polygon fill="white" stroke="black" points="340.5,-240.5 340.5,-270.5 459.5,-270.5 459.5,-240.5 340.5,-240.5"/>
<text text-anchor="start" x="348.5" y="-258.5" font-family="Helvetica,sans-Serif" font-size="10.00">JoyButtonContextMenu</text>
<text text-anchor="middle" x="400" y="-247.5" font-family="Helvetica,sans-Serif" font-size="10.00">::disableSetMode</text>
</a>
</g>
</g>
<!-- Node1&#45;&gt;Node46 -->
<g id="edge52" class="edge">
<title>Node1&#45;&gt;Node46</title>
<path fill="none" stroke="midnightblue" d="M119.01,-236.64C130.87,-238.91 143.3,-241.02 155,-242.5 213.74,-249.93 280.96,-253.12 329.95,-254.49"/>
<polygon fill="midnightblue" stroke="midnightblue" points="330.03,-257.99 340.12,-254.75 330.21,-251 330.03,-257.99"/>
</g>
<!-- Node47 -->
<g id="node41" class="node">
<title>Node47</title>
<g id="a_node41"><a xlink:href="$classSetJoystick.html#a3a7ae87b62fac9deace237039cb5ea85" xlink:title=" ">
<polygon fill="white" stroke="black" points="162,-214 162,-233 272,-233 272,-214 162,-214"/>
<text text-anchor="middle" x="217" y="-221" font-family="Helvetica,sans-Serif" font-size="10.00">SetJoystick::getIndex</text>
</a>
</g>
</g>
<!-- Node1&#45;&gt;Node47 -->
<g id="edge55" class="edge">
<title>Node1&#45;&gt;Node47</title>
<path fill="none" stroke="midnightblue" d="M119.29,-223.5C129.91,-223.5 141.04,-223.5 151.81,-223.5"/>
<polygon fill="midnightblue" stroke="midnightblue" points="151.99,-227 161.99,-223.5 151.99,-220 151.99,-227"/>
</g>
<!-- Node48 -->
<g id="node42" class="node">
<title>Node48</title>
<g id="a_node42"><a xlink:href="$classJoyButton.html#a28e4e0906126f95384245e73988bdb19" xlink:title=" ">
<polygon fill="white" stroke="black" points="155,-176 155,-195 279,-195 279,-176 155,-176"/>
<text text-anchor="middle" x="217" y="-183" font-family="Helvetica,sans-Serif" font-size="10.00">JoyButton::getParentSet</text>
</a>
</g>
</g>
<!-- Node1&#45;&gt;Node48 -->
<g id="edge56" class="edge">
<title>Node1&#45;&gt;Node48</title>
<path fill="none" stroke="midnightblue" d="M119.29,-209.13C134.94,-205.31 151.69,-201.22 166.77,-197.53"/>
<polygon fill="midnightblue" stroke="midnightblue" points="168.03,-200.83 176.91,-195.05 166.37,-194.03 168.03,-200.83"/>
</g>
<!-- Node49 -->
<g id="node43" class="node">
<title>Node49</title>
<g id="a_node43"><a xlink:href="$classJoyButton.html#a4305272f6fe2c5708f2ad7f1ce911514" xlink:title=" ">
<polygon fill="white" stroke="black" points="334,-135 334,-154 466,-154 466,-135 334,-135"/>
<text text-anchor="middle" x="400" y="-142" font-family="Helvetica,sans-Serif" font-size="10.00">JoyButton::getToggleState</text>
</a>
</g>
</g>
<!-- Node1&#45;&gt;Node49 -->
<g id="edge58" class="edge">
<title>Node1&#45;&gt;Node49</title>
<path fill="none" stroke="midnightblue" d="M79.49,-208.46C97.72,-194.93 126.59,-175.8 155,-166.5 209.63,-148.62 274.57,-143.49 323.72,-142.62"/>
<polygon fill="midnightblue" stroke="midnightblue" points="324,-146.12 333.96,-142.5 323.92,-139.12 324,-146.12"/>
</g>
<!-- Node50 -->
<g id="node44" class="node">
<title>Node50</title>
<g id="a_node44"><a xlink:href="$classJoyButton.html#ad2123134411e4ab2c8f15b65f3c4ae79" xlink:title=" ">
<polygon fill="white" stroke="black" points="337.5,-47 337.5,-66 462.5,-66 462.5,-47 337.5,-47"/>
<text text-anchor="middle" x="400" y="-54" font-family="Helvetica,sans-Serif" font-size="10.00">JoyButton::isUsingTurbo</text>
</a>
</g>
</g>
<!-- Node1&#45;&gt;Node50 -->
<g id="edge59" class="edge">
<title>Node1&#45;&gt;Node50</title>
<path fill="none" stroke="midnightblue" d="M65.32,-208.34C75.95,-177.73 104.53,-108.86 155,-78.5 206.59,-47.46 275.74,-44.02 327.25,-47.15"/>
<polygon fill="midnightblue" stroke="midnightblue" points="327.08,-50.65 337.3,-47.86 327.57,-43.67 327.08,-50.65"/>
</g>
<!-- Node51 -->
<g id="node45" class="node">
<title>Node51</title>
<g id="a_node45"><a xlink:href="$classJoyButtonContextMenu.html#a605d2a0aec849577c31c7e02499ad16b" xlink:title=" ">
<polygon fill="white" stroke="black" points="157.5,-88.5 157.5,-118.5 276.5,-118.5 276.5,-88.5 157.5,-88.5"/>
<text text-anchor="start" x="165.5" y="-106.5" font-family="Helvetica,sans-Serif" font-size="10.00">JoyButtonContextMenu</text>
<text text-anchor="middle" x="217" y="-95.5" font-family="Helvetica,sans-Serif" font-size="10.00">::switchToggle</text>
</a>
</g>
</g>
<!-- Node1&#45;&gt;Node51 -->
<g id="edge60" class="edge">
<title>Node1&#45;&gt;Node51</title>
<path fill="none" stroke="midnightblue" d="M73.72,-208.32C91,-189.14 122.85,-155.92 155,-133.5 160.21,-129.87 165.92,-126.44 171.7,-123.28"/>
<polygon fill="midnightblue" stroke="midnightblue" points="173.51,-126.29 180.77,-118.56 170.28,-120.08 173.51,-126.29"/>
</g>
<!-- Node53 -->
<g id="node47" class="node">
<title>Node53</title>
<g id="a_node47"><a xlink:href="$classJoyButtonContextMenu.html#a80d87bf07ab7e3ac49086785c0387ecd" xlink:title=" ">
<polygon fill="white" stroke="black" points="157.5,-0.5 157.5,-30.5 276.5,-30.5 276.5,-0.5 157.5,-0.5"/>
<text text-anchor="start" x="165.5" y="-18.5" font-family="Helvetica,sans-Serif" font-size="10.00">JoyButtonContextMenu</text>
<text text-anchor="middle" x="217" y="-7.5" font-family="Helvetica,sans-Serif" font-size="10.00">::switchTurbo</text>
</a>
</g>
</g>
<!-- Node1&#45;&gt;Node53 -->
<g id="edge63" class="edge">
<title>Node1&#45;&gt;Node53</title>
<path fill="none" stroke="midnightblue" d="M64.95,-208.42C75.49,-175.05 104.88,-94.09 155,-45.5 158.72,-41.9 162.95,-38.65 167.42,-35.73"/>
<polygon fill="midnightblue" stroke="midnightblue" points="169.38,-38.64 176.22,-30.55 165.82,-32.61 169.38,-38.64"/>
</g>
<!-- Node3&#45;&gt;Node4 -->
<g id="edge3" class="edge">
<title>Node3&#45;&gt;Node4</title>
<path fill="none" stroke="midnightblue" d="M275.12,-358.52C288.2,-361.88 302.07,-365.37 315,-368.5 324.92,-370.9 335.52,-373.37 345.73,-375.7"/>
<polygon fill="midnightblue" stroke="midnightblue" points="345.25,-379.18 355.78,-377.98 346.8,-372.36 345.25,-379.18"/>
</g>
<!-- Node3&#45;&gt;Node5 -->
<g id="edge4" class="edge">
<title>Node3&#45;&gt;Node5</title>
<path fill="none" stroke="midnightblue" d="M276.71,-328.89C289.34,-325.77 302.61,-322.51 315,-319.5 325.82,-316.87 337.43,-314.09 348.46,-311.46"/>
<polygon fill="midnightblue" stroke="midnightblue" points="349.48,-314.81 358.39,-309.09 347.85,-308 349.48,-314.81"/>
</g>
<!-- Node6 -->
<g id="node6" class="node">
<title>Node6</title>
<g id="a_node6"><a xlink:href="$classJoyButtonContextMenu.html#ad163e6b82faaf5467255ba1ffcbe003d" xlink:title=" ">
<polygon fill="white" stroke="black" points="340.5,-328.5 340.5,-358.5 459.5,-358.5 459.5,-328.5 340.5,-328.5"/>
<text text-anchor="start" x="348.5" y="-346.5" font-family="Helvetica,sans-Serif" font-size="10.00">JoyButtonContextMenu</text>
<text text-anchor="middle" x="400" y="-335.5" font-family="Helvetica,sans-Serif" font-size="10.00">::switchSetMode</text>
</a>
</g>
</g>
<!-- Node3&#45;&gt;Node6 -->
<g id="edge5" class="edge">
<title>Node3&#45;&gt;Node6</title>
<path fill="none" stroke="midnightblue" d="M276.77,-343.5C293.76,-343.5 312.47,-343.5 330.03,-343.5"/>
<polygon fill="midnightblue" stroke="midnightblue" points="330.22,-347 340.22,-343.5 330.22,-340 330.22,-347"/>
</g>
<!-- Node7 -->
<g id="node7" class="node">
<title>Node7</title>
<g id="a_node7"><a xlink:href="$classJoyButton.html#a451a0eaac9ee0a8804107a8b8c6659d1" xlink:title=" ">
<polygon fill="white" stroke="black" points="521,-258 521,-277 691,-277 691,-258 521,-258"/>
<text text-anchor="middle" x="606" y="-265" font-family="Helvetica,sans-Serif" font-size="10.00">JoyButton::setChangeSetCondition</text>
</a>
</g>
</g>
<!-- Node6&#45;&gt;Node7 -->
<g id="edge6" class="edge">
<title>Node6&#45;&gt;Node7</title>
<path fill="none" stroke="midnightblue" d="M455.07,-328.39C465.08,-325.31 475.41,-321.95 485,-318.5 516.26,-307.25 551.12,-292.13 575.18,-281.28"/>
<polygon fill="midnightblue" stroke="midnightblue" points="576.81,-284.39 584.47,-277.06 573.92,-278.01 576.81,-284.39"/>
</g>
<!-- Node45 -->
<g id="node39" class="node">
<title>Node45</title>
<g id="a_node39"><a xlink:href="$classJoyButton.html#af7ffbb38754f3f898935e6cc975ebb6a" xlink:title=" ">
<polygon fill="white" stroke="black" points="727,-277 727,-296 897,-296 897,-277 727,-277"/>
<text text-anchor="middle" x="812" y="-284" font-family="Helvetica,sans-Serif" font-size="10.00">JoyButton::setChangeSetSelection</text>
</a>
</g>
</g>
<!-- Node6&#45;&gt;Node45 -->
<g id="edge51" class="edge">
<title>Node6&#45;&gt;Node45</title>
<path fill="none" stroke="midnightblue" d="M459.74,-335.33C531.41,-325.37 652.83,-308.49 732.47,-297.42"/>
<polygon fill="midnightblue" stroke="midnightblue" points="733.03,-300.87 742.45,-296.03 732.06,-293.94 733.03,-300.87"/>
</g>
<!-- Node8 -->
<g id="node8" class="node">
<title>Node8</title>
<g id="a_node8"><a xlink:href="$classJoyButton.html#ad2df77b5daa94a848b015265ec1869d6" xlink:title="Generate active zone string and notify other objects.">
<polygon fill="white" stroke="black" points="933,-233.5 933,-263.5 1069,-263.5 1069,-233.5 933,-233.5"/>
<text text-anchor="start" x="941" y="-251.5" font-family="Helvetica,sans-Serif" font-size="10.00">JoyButton::buildActiveZone</text>
<text text-anchor="middle" x="1001" y="-240.5" font-family="Helvetica,sans-Serif" font-size="10.00">SummaryString</text>
</a>
</g>
</g>
<!-- Node7&#45;&gt;Node8 -->
<g id="edge7" class="edge">
<title>Node7&#45;&gt;Node8</title>
<path fill="none" stroke="midnightblue" d="M691.31,-263.42C759.96,-260.11 856.08,-255.46 922.75,-252.23"/>
<polygon fill="midnightblue" stroke="midnightblue" points="922.96,-255.73 932.78,-251.75 922.62,-248.74 922.96,-255.73"/>
</g>
<!-- Node7&#45;&gt;Node45 -->
<g id="edge49" class="edge">
<title>Node7&#45;&gt;Node45</title>
<path fill="none" stroke="midnightblue" d="M691.15,-275.34C699.59,-276.12 708.2,-276.93 716.74,-277.72"/>
<polygon fill="midnightblue" stroke="midnightblue" points="716.43,-281.21 726.71,-278.65 717.08,-274.24 716.43,-281.21"/>
</g>
<!-- Node9 -->
<g id="node9" class="node">
<title>Node9</title>
<g id="a_node9"><a xlink:href="$classJoyButton.html#ae76ccd3147106953d53a565730c1d8ee" xlink:title="Generate a string that represents slots that will be activated or slots that are currently active if ...">
<polygon fill="white" stroke="black" points="1105,-233.5 1105,-263.5 1234,-263.5 1234,-233.5 1105,-233.5"/>
<text text-anchor="start" x="1113" y="-251.5" font-family="Helvetica,sans-Serif" font-size="10.00">JoyButton::getActiveZone</text>
<text text-anchor="middle" x="1169.5" y="-240.5" font-family="Helvetica,sans-Serif" font-size="10.00">Summary</text>
</a>
</g>
</g>
<!-- Node8&#45;&gt;Node9 -->
<g id="edge8" class="edge">
<title>Node8&#45;&gt;Node9</title>
<path fill="none" stroke="midnightblue" d="M1069.24,-248.5C1077.58,-248.5 1086.15,-248.5 1094.58,-248.5"/>
<polygon fill="midnightblue" stroke="midnightblue" points="1094.78,-252 1104.78,-248.5 1094.78,-245 1094.78,-252"/>
</g>
<!-- Node44 -->
<g id="node38" class="node">
<title>Node44</title>
<g id="a_node38"><a xlink:href="$classJoyButton.html#a1b49d9ab85f0d5d128e2eca616747018" xlink:title=" ">
<polygon fill="white" stroke="black" points="1106,-184.5 1106,-214.5 1233,-214.5 1233,-184.5 1106,-184.5"/>
<text text-anchor="start" x="1114" y="-202.5" font-family="Helvetica,sans-Serif" font-size="10.00">JoyButton::lockForWrited</text>
<text text-anchor="middle" x="1169.5" y="-191.5" font-family="Helvetica,sans-Serif" font-size="10.00">String</text>
</a>
</g>
</g>
<!-- Node8&#45;&gt;Node44 -->
<g id="edge48" class="edge">
<title>Node8&#45;&gt;Node44</title>
<path fill="none" stroke="midnightblue" d="M1053.31,-233.4C1070.49,-228.34 1089.8,-222.66 1107.63,-217.42"/>
<polygon fill="midnightblue" stroke="midnightblue" points="1108.75,-220.73 1117.36,-214.55 1106.77,-214.02 1108.75,-220.73"/>
</g>
<!-- Node10 -->
<g id="node10" class="node">
<title>Node10</title>
<g id="a_node10"><a xlink:href="$classJoyButton.html#a9404c4ca344265ce68c0eb9b6b95048b" xlink:title=" ">
<polygon fill="white" stroke="black" points="1275.5,-233.5 1275.5,-263.5 1411.5,-263.5 1411.5,-233.5 1275.5,-233.5"/>
<text text-anchor="start" x="1283.5" y="-251.5" font-family="Helvetica,sans-Serif" font-size="10.00">JoyButton::buildActiveZone</text>
<text text-anchor="middle" x="1343.5" y="-240.5" font-family="Helvetica,sans-Serif" font-size="10.00">Summary</text>
</a>
</g>
</g>
<!-- Node9&#45;&gt;Node10 -->
<g id="edge9" class="edge">
<title>Node9&#45;&gt;Node10</title>
<path fill="none" stroke="midnightblue" d="M1234.06,-248.5C1244.18,-248.5 1254.74,-248.5 1265.14,-248.5"/>
<polygon fill="midnightblue" stroke="midnightblue" points="1265.45,-252 1275.45,-248.5 1265.45,-245 1265.45,-252"/>
</g>
<!-- Node42 -->
<g id="node36" class="node">
<title>Node42</title>
<g id="a_node36"><a xlink:href="$classJoyButton.html#a7494c1753b3f16ba988076e9eb34ff47" xlink:title=" ">
<polygon fill="white" stroke="black" points="1271,-157 1271,-176 1416,-176 1416,-157 1271,-157"/>
<text text-anchor="middle" x="1343.5" y="-164" font-family="Helvetica,sans-Serif" font-size="10.00">JoyButton::getActiveZoneList</text>
</a>
</g>
</g>
<!-- Node9&#45;&gt;Node42 -->
<g id="edge43" class="edge">
<title>Node9&#45;&gt;Node42</title>
<path fill="none" stroke="midnightblue" d="M1212.83,-233.38C1219.96,-230.58 1227.24,-227.57 1234,-224.5 1263.31,-211.19 1295.71,-193.46 1317.41,-181.11"/>
<polygon fill="midnightblue" stroke="midnightblue" points="1319.36,-184.03 1326.29,-176.02 1315.87,-177.96 1319.36,-184.03"/>
</g>
<!-- Node11 -->
<g id="node11" class="node">
<title>Node11</title>
<g id="a_node11"><a xlink:href="$classJoyButton.html#a773bbe39b094a62cd17776acc06efac6" xlink:title=" ">
<polygon fill="white" stroke="black" points="1456.5,-233.5 1456.5,-263.5 1592.5,-263.5 1592.5,-233.5 1456.5,-233.5"/>
<text text-anchor="start" x="1464.5" y="-251.5" font-family="Helvetica,sans-Serif" font-size="10.00">JoyButton::buildActiveZone</text>
<text text-anchor="middle" x="1524.5" y="-240.5" font-family="Helvetica,sans-Serif" font-size="10.00">SummarySwitchSlots</text>
</a>
</g>
</g>
<!-- Node10&#45;&gt;Node11 -->
<g id="edge10" class="edge">
<title>Node10&#45;&gt;Node11</title>
<path fill="none" stroke="midnightblue" d="M1411.66,-248.5C1422.94,-248.5 1434.73,-248.5 1446.24,-248.5"/>
<polygon fill="midnightblue" stroke="midnightblue" points="1446.26,-252 1456.26,-248.5 1446.26,-245 1446.26,-252"/>
</g>
<!-- Node14 -->
<g id="node14" class="node">
<title>Node14</title>
<g id="a_node14"><a xlink:href="$classJoyButtonSlot.html#a4fb0606a34134786bc642627bc25aedd" xlink:title=" ">
<polygon fill="white" stroke="black" points="1820.5,-321 1820.5,-340 1956.5,-340 1956.5,-321 1820.5,-321"/>
<text text-anchor="middle" x="1888.5" y="-328" font-family="Helvetica,sans-Serif" font-size="10.00">JoyButtonSlot::getMixSlots</text>
</a>
</g>
</g>
<!-- Node10&#45;&gt;Node14 -->
<g id="edge40" class="edge">
<title>Node10&#45;&gt;Node14</title>
<path fill="none" stroke="midnightblue" d="M1363.95,-263.73C1384.68,-278.99 1419.14,-301.58 1453,-311.5 1573.93,-346.92 1721.85,-344.23 1810.17,-338.07"/>
<polygon fill="midnightblue" stroke="midnightblue" points="1810.66,-341.54 1820.38,-337.32 1810.15,-334.56 1810.66,-341.54"/>
</g>
<!-- Node39 -->
<g id="node33" class="node">
<title>Node39</title>
<g id="a_node33"><a xlink:href="$classJoyButton.html#a64f1660931aea2fa8df1bf5e313c05ba" xlink:title=" ">
<polygon fill="white" stroke="black" points="1459.5,-195 1459.5,-214 1589.5,-214 1589.5,-195 1459.5,-195"/>
<text text-anchor="middle" x="1524.5" y="-202" font-family="Helvetica,sans-Serif" font-size="10.00">JoyButton::getActiveSlots</text>
</a>
</g>
</g>
<!-- Node10&#45;&gt;Node39 -->
<g id="edge39" class="edge">
<title>Node10&#45;&gt;Node39</title>
<path fill="none" stroke="midnightblue" d="M1405.6,-233.48C1428.25,-227.91 1453.6,-221.68 1474.97,-216.43"/>
<polygon fill="midnightblue" stroke="midnightblue" points="1475.93,-219.8 1484.8,-214.01 1474.26,-213 1475.93,-219.8"/>
</g>
<!-- Node40 -->
<g id="node34" class="node">
<title>Node40</title>
<g id="a_node34"><a xlink:href="$classJoyButtonSlot.html#abed7fe134c404b403ea79c0753f6eaaf" xlink:title=" ">
<polygon fill="white" stroke="black" points="1455,-119 1455,-138 1594,-138 1594,-119 1455,-119"/>
<text text-anchor="middle" x="1524.5" y="-126" font-family="Helvetica,sans-Serif" font-size="10.00">JoyButtonSlot::getSlotMode</text>
</a>
</g>
</g>
<!-- Node10&#45;&gt;Node40 -->
<g id="edge41" class="edge">
<title>Node10&#45;&gt;Node40</title>
<path fill="none" stroke="midnightblue" d="M1367.17,-233.3C1401.54,-210.26 1466.46,-166.74 1500.83,-143.7"/>
<polygon fill="midnightblue" stroke="midnightblue" points="1502.91,-146.52 1509.27,-138.04 1499.01,-140.7 1502.91,-146.52"/>
</g>
<!-- Node41 -->
<g id="node35" class="node">
<title>Node41</title>
<g id="a_node35"><a xlink:href="$classJoyButtonSlot.html#a1e38b923aa69abbcfb9abb008e692444" xlink:title=" ">
<polygon fill="white" stroke="black" points="1456,-283 1456,-302 1593,-302 1593,-283 1456,-283"/>
<text text-anchor="middle" x="1524.5" y="-290" font-family="Helvetica,sans-Serif" font-size="10.00">JoyButtonSlot::getTextData</text>
</a>
</g>
</g>
<!-- Node10&#45;&gt;Node41 -->
<g id="edge42" class="edge">
<title>Node10&#45;&gt;Node41</title>
<path fill="none" stroke="midnightblue" d="M1405.6,-263.52C1428.25,-269.09 1453.6,-275.32 1474.97,-280.57"/>
<polygon fill="midnightblue" stroke="midnightblue" points="1474.26,-284 1484.8,-282.99 1475.93,-277.2 1474.26,-284"/>
</g>
<!-- Node12 -->
<g id="node12" class="node">
<title>Node12</title>
<g id="a_node12"><a xlink:href="$classJoyButton.html#acb0ee9af0f5a44bd07ca5cfbfd026cf6" xlink:title=" ">
<polygon fill="white" stroke="black" points="1633,-179 1633,-198 1771,-198 1771,-179 1633,-179"/>
<text text-anchor="middle" x="1702" y="-186" font-family="Helvetica,sans-Serif" font-size="10.00">JoyButton::findJoySlotsEnd</text>
</a>
</g>
</g>
<!-- Node11&#45;&gt;Node12 -->
<g id="edge11" class="edge">
<title>Node11&#45;&gt;Node12</title>
<path fill="none" stroke="midnightblue" d="M1569.79,-233.36C1598.73,-223.47 1636.1,-210.69 1663.56,-201.3"/>
<polygon fill="midnightblue" stroke="midnightblue" points="1664.86,-204.55 1673.19,-198.01 1662.6,-197.93 1664.86,-204.55"/>
</g>
<!-- Node13 -->
<g id="node13" class="node">
<title>Node13</title>
<g id="a_node13"><a xlink:href="$classJoyButtonSlot.html#a6e10409ded595380cbdcfd5c827ab32a" xlink:title=" ">
<polygon fill="white" stroke="black" points="1632,-239 1632,-258 1772,-258 1772,-239 1632,-239"/>
<text text-anchor="middle" x="1702" y="-246" font-family="Helvetica,sans-Serif" font-size="10.00">JoyButtonSlot::getSlotString</text>
</a>
</g>
</g>
<!-- Node11&#45;&gt;Node13 -->
<g id="edge12" class="edge">
<title>Node11&#45;&gt;Node13</title>
<path fill="none" stroke="midnightblue" d="M1592.6,-248.5C1602.15,-248.5 1612.05,-248.5 1621.81,-248.5"/>
<polygon fill="midnightblue" stroke="midnightblue" points="1621.9,-252 1631.9,-248.5 1621.9,-245 1621.9,-252"/>
</g>
<!-- Node13&#45;&gt;Node14 -->
<g id="edge13" class="edge">
<title>Node13&#45;&gt;Node14</title>
<path fill="none" stroke="midnightblue" d="M1724.53,-258.07C1757.16,-272.57 1819.31,-300.19 1856.71,-316.82"/>
<polygon fill="midnightblue" stroke="midnightblue" points="1855.55,-320.13 1866.11,-320.99 1858.39,-313.73 1855.55,-320.13"/>
</g>
<!-- Node16 -->
<g id="node16" class="node">
<title>Node16</title>
<g id="a_node16"><a xlink:href="$namespacePadderCommon.html#aaa09739d2df84421a5a3467a06ce941c" xlink:title="Returns the &quot;human&#45;readable&quot; name of the given profile.">
<polygon fill="white" stroke="black" points="1808,-182 1808,-201 1969,-201 1969,-182 1808,-182"/>
<text text-anchor="middle" x="1888.5" y="-189" font-family="Helvetica,sans-Serif" font-size="10.00">PadderCommon::getProfileName</text>
</a>
</g>
</g>
<!-- Node13&#45;&gt;Node16 -->
<g id="edge15" class="edge">
<title>Node13&#45;&gt;Node16</title>
<path fill="none" stroke="midnightblue" d="M1726.93,-238.97C1748.05,-230.76 1779.77,-218.95 1808,-210.5 1816.21,-208.04 1824.97,-205.69 1833.56,-203.52"/>
<polygon fill="midnightblue" stroke="midnightblue" points="1834.65,-206.86 1843.53,-201.08 1832.98,-200.06 1834.65,-206.86"/>
</g>
<!-- Node17 -->
<g id="node17" class="node">
<title>Node17</title>
<g id="a_node17"><a xlink:href="$event_8cpp.html#a76ce89b71143c1c09343f45f038b4a67" xlink:title=" ">
<polygon fill="white" stroke="black" points="1838,-258 1838,-277 1939,-277 1939,-258 1838,-258"/>
<text text-anchor="middle" x="1888.5" y="-265" font-family="Helvetica,sans-Serif" font-size="10.00">keysymToKeyString</text>
</a>
</g>
</g>
<!-- Node13&#45;&gt;Node17 -->
<g id="edge16" class="edge">
<title>Node13&#45;&gt;Node17</title>
<path fill="none" stroke="midnightblue" d="M1772.23,-255.63C1790.43,-257.5 1809.92,-259.51 1827.59,-261.33"/>
<polygon fill="midnightblue" stroke="midnightblue" points="1827.45,-264.83 1837.76,-262.38 1828.17,-257.87 1827.45,-264.83"/>
</g>
<!-- Node38 -->
<g id="node32" class="node">
<title>Node38</title>
<g id="a_node32"><a xlink:href="$classJoyButtonSlot.html#a37ff2b523177bae4ea6a44b82f2973eb" xlink:title=" ">
<polygon fill="white" stroke="black" points="1811,-220 1811,-239 1966,-239 1966,-220 1811,-220"/>
<text text-anchor="middle" x="1888.5" y="-227" font-family="Helvetica,sans-Serif" font-size="10.00">JoyButtonSlot::movementString</text>
</a>
</g>
</g>
<!-- Node13&#45;&gt;Node38 -->
<g id="edge38" class="edge">
<title>Node13&#45;&gt;Node38</title>
<path fill="none" stroke="midnightblue" d="M1772.23,-241.37C1781.46,-240.42 1791.03,-239.43 1800.52,-238.46"/>
<polygon fill="midnightblue" stroke="midnightblue" points="1801.18,-241.91 1810.77,-237.4 1800.46,-234.94 1801.18,-241.91"/>
</g>
<!-- Node15 -->
<g id="node15" class="node">
<title>Node15</title>
<g id="a_node15"><a xlink:href="$classJoyButtonSlot.html#a9ba9cb0dda063a7df5575072c0aabe01" xlink:title=" ">
<polygon fill="white" stroke="black" points="2005,-372.5 2005,-402.5 2134,-402.5 2134,-372.5 2005,-372.5"/>
<text text-anchor="start" x="2013" y="-390.5" font-family="Helvetica,sans-Serif" font-size="10.00">JoyButtonSlot::secureMix</text>
<text text-anchor="middle" x="2069.5" y="-379.5" font-family="Helvetica,sans-Serif" font-size="10.00">SlotsInit</text>
</a>
</g>
</g>
<!-- Node14&#45;&gt;Node15 -->
<g id="edge14" class="edge">
<title>Node14&#45;&gt;Node15</title>
<path fill="none" stroke="midnightblue" d="M1919.46,-340.04C1944.52,-348.02 1980.97,-359.63 2011.55,-369.36"/>
<polygon fill="midnightblue" stroke="midnightblue" points="2010.66,-372.75 2021.25,-372.45 2012.78,-366.08 2010.66,-372.75"/>
</g>
<!-- Node18 -->
<g id="node18" class="node">
<title>Node18</title>
<g id="a_node18"><a xlink:href="$classX11Extras.html#a643c95dc1de8eb073a0accb41619fe83" xlink:title="Get display instance.">
<polygon fill="white" stroke="black" points="2198,-182 2198,-201 2297,-201 2297,-182 2198,-182"/>
<text text-anchor="middle" x="2247.5" y="-189" font-family="Helvetica,sans-Serif" font-size="10.00">X11Extras::display</text>
</a>
</g>
</g>
<!-- Node17&#45;&gt;Node18 -->
<g id="edge17" class="edge">
<title>Node17&#45;&gt;Node18</title>
<path fill="none" stroke="midnightblue" d="M1934.35,-257.95C1999.77,-244.03 2121.22,-218.17 2191.8,-203.14"/>
<polygon fill="midnightblue" stroke="midnightblue" points="2192.78,-206.51 2201.83,-201.01 2191.32,-199.67 2192.78,-206.51"/>
</g>
<!-- Node19 -->
<g id="node19" class="node">
<title>Node19</title>
<g id="a_node19"><a xlink:href="$classBaseEventHandler.html#a9a014e472ec57408d16b8b5eed964e90" xlink:title=" ">
<polygon fill="white" stroke="black" points="2170,-144 2170,-163 2325,-163 2325,-144 2170,-144"/>
<text text-anchor="middle" x="2247.5" y="-151" font-family="Helvetica,sans-Serif" font-size="10.00">BaseEventHandler::getIdentifier</text>
</a>
</g>
</g>
<!-- Node17&#45;&gt;Node19 -->
<g id="edge18" class="edge">
<title>Node17&#45;&gt;Node19</title>
<path fill="none" stroke="midnightblue" d="M1939.07,-260.21C1949.38,-257.47 1959.87,-253.69 1969,-248.5 1988.95,-237.16 1985.06,-222.85 2005,-211.5 2052.32,-184.57 2111.71,-170.1 2159.76,-162.34"/>
<polygon fill="midnightblue" stroke="midnightblue" points="2160.48,-165.77 2169.83,-160.79 2159.41,-158.85 2160.48,-165.77"/>
</g>
<!-- Node20 -->
<g id="node20" class="node">
<title>Node20</title>
<g id="a_node20"><a xlink:href="$classEventHandlerFactory.html#a90ce153a19fbb91128bd52eb083ce271" xlink:title=" ">
<polygon fill="white" stroke="black" points="2193,-384.5 2193,-414.5 2302,-414.5 2302,-384.5 2193,-384.5"/>
<text text-anchor="start" x="2201" y="-402.5" font-family="Helvetica,sans-Serif" font-size="10.00">EventHandlerFactory</text>
<text text-anchor="middle" x="2247.5" y="-391.5" font-family="Helvetica,sans-Serif" font-size="10.00">::getInstance</text>
</a>
</g>
</g>
<!-- Node17&#45;&gt;Node20 -->
<g id="edge19" class="edge">
<title>Node17&#45;&gt;Node20</title>
<path fill="none" stroke="midnightblue" d="M1939.09,-276.21C2000.82,-287.7 2102.02,-308.9 2134,-329.5 2155.53,-343.37 2148.95,-359.91 2170,-374.5 2174.2,-377.41 2178.76,-380 2183.49,-382.3"/>
<polygon fill="midnightblue" stroke="midnightblue" points="2182.19,-385.55 2192.75,-386.37 2185.01,-379.14 2182.19,-385.55"/>
</g>
<!-- Node23 -->
<g id="node23" class="node">
<title>Node23</title>
<g id="a_node23"><a xlink:href="$classEventHandlerFactory.html#a4c13007f0ece5bf881080c9c04f1f20d" xlink:title=" ">
<polygon fill="white" stroke="black" points="2536,-233.5 2536,-263.5 2645,-263.5 2645,-233.5 2536,-233.5"/>
<text text-anchor="start" x="2544" y="-251.5" font-family="Helvetica,sans-Serif" font-size="10.00">EventHandlerFactory</text>
<text text-anchor="middle" x="2590.5" y="-240.5" font-family="Helvetica,sans-Serif" font-size="10.00">::handler</text>
</a>
</g>
</g>
<!-- Node17&#45;&gt;Node23 -->
<g id="edge28" class="edge">
<title>Node17&#45;&gt;Node23</title>
<path fill="none" stroke="midnightblue" d="M1939.12,-263.11C1949.89,-260.23 1960.57,-255.67 1969,-248.5 2000.57,-221.66 1972.55,-188.27 2005,-162.5 2116.79,-73.71 2185.18,-105.65 2325,-134.5 2412.18,-152.49 2506.02,-200.59 2555.1,-228.22"/>
<polygon fill="midnightblue" stroke="midnightblue" points="2553.59,-231.39 2564.02,-233.3 2557.05,-225.31 2553.59,-231.39"/>
</g>
<!-- Node25 -->
<g id="node25" class="node">
<title>Node25</title>
<g id="a_node25"><a xlink:href="$classX11Extras.html#ace76277fced60e6bd6ff880030338182" xlink:title=" ">
<polygon fill="white" stroke="black" points="2188,-434 2188,-453 2307,-453 2307,-434 2188,-434"/>
<text text-anchor="middle" x="2247.5" y="-441" font-family="Helvetica,sans-Serif" font-size="10.00">X11Extras::getInstance</text>
</a>
</g>
</g>
<!-- Node17&#45;&gt;Node25 -->
<g id="edge25" class="edge">
<title>Node17&#45;&gt;Node25</title>
<path fill="none" stroke="midnightblue" d="M1907.13,-277.08C1929.47,-288.98 1969.35,-309.42 2005,-323.5 2060.83,-345.55 2086.92,-326.26 2134,-363.5 2158.69,-383.03 2144.76,-405.69 2170,-424.5 2172.69,-426.5 2175.56,-428.3 2178.56,-429.9"/>
<polygon fill="midnightblue" stroke="midnightblue" points="2177.33,-433.19 2187.88,-434.18 2180.25,-426.83 2177.33,-433.19"/>
</g>
<!-- Node28 -->
<g id="node28" class="node">
<title>Node28</title>
<g id="a_node28"><a xlink:href="$event_8cpp.html#ad239a34cab482dc3cad5a23a9ac1ad78" xlink:title=" ">
<polygon fill="white" stroke="black" points="2017.5,-258 2017.5,-277 2121.5,-277 2121.5,-258 2017.5,-258"/>
<text text-anchor="middle" x="2069.5" y="-265" font-family="Helvetica,sans-Serif" font-size="10.00">keycodeToKeyString</text>
</a>
</g>
</g>
<!-- Node17&#45;&gt;Node28 -->
<g id="edge29" class="edge">
<title>Node17&#45;&gt;Node28</title>
<path fill="none" stroke="midnightblue" d="M1939.36,-267.5C1960.35,-267.5 1984.98,-267.5 2007.07,-267.5"/>
<polygon fill="midnightblue" stroke="midnightblue" points="2007.35,-271 2017.35,-267.5 2007.35,-264 2007.35,-271"/>
</g>
<!-- Node21 -->
<g id="node21" class="node">
<title>Node21</title>
<g id="a_node21"><a xlink:href="$classEventHandlerFactory.html#ade5162034acc0f8683725fdb124bece0" xlink:title=" ">
<polygon fill="white" stroke="black" points="2361,-345.5 2361,-375.5 2487,-375.5 2487,-345.5 2361,-345.5"/>
<text text-anchor="start" x="2369" y="-363.5" font-family="Helvetica,sans-Serif" font-size="10.00">EventHandlerFactory</text>
<text text-anchor="middle" x="2424" y="-352.5" font-family="Helvetica,sans-Serif" font-size="10.00">::buildEventGeneratorList</text>
</a>
</g>
</g>
<!-- Node20&#45;&gt;Node21 -->
<g id="edge20" class="edge">
<title>Node20&#45;&gt;Node21</title>
<path fill="none" stroke="midnightblue" d="M2302.28,-387.48C2317.62,-384.05 2334.59,-380.26 2350.84,-376.63"/>
<polygon fill="midnightblue" stroke="midnightblue" points="2351.85,-379.99 2360.84,-374.39 2350.32,-373.16 2351.85,-379.99"/>
</g>
<!-- Node22 -->
<g id="node22" class="node">
<title>Node22</title>
<g id="a_node22"><a xlink:href="$classEventHandlerFactory.html#a2f843293b2ea47271fc7bd99bd871fa6" xlink:title=" ">
<polygon fill="white" stroke="black" points="2366.5,-296.5 2366.5,-326.5 2481.5,-326.5 2481.5,-296.5 2366.5,-296.5"/>
<text text-anchor="start" x="2374.5" y="-314.5" font-family="Helvetica,sans-Serif" font-size="10.00">EventHandlerFactory</text>
<text text-anchor="middle" x="2424" y="-303.5" font-family="Helvetica,sans-Serif" font-size="10.00">::EventHandlerFactory</text>
</a>
</g>
</g>
<!-- Node20&#45;&gt;Node22 -->
<g id="edge21" class="edge">
<title>Node20&#45;&gt;Node22</title>
<path fill="none" stroke="midnightblue" d="M2302.31,-385.7C2310.21,-382.61 2318.03,-378.91 2325,-374.5 2344.66,-362.06 2341.77,-349.59 2361,-336.5 2363.73,-334.64 2366.63,-332.88 2369.61,-331.23"/>
<polygon fill="midnightblue" stroke="midnightblue" points="2371.43,-334.23 2378.76,-326.58 2368.26,-327.99 2371.43,-334.23"/>
</g>
<!-- Node20&#45;&gt;Node23 -->
<g id="edge24" class="edge">
<title>Node20&#45;&gt;Node23</title>
<path fill="none" stroke="midnightblue" d="M2302.37,-388.5C2310.63,-385.03 2318.54,-380.48 2325,-374.5 2355.7,-346.06 2328.3,-313.61 2361,-287.5 2407.19,-250.62 2475.6,-243.22 2525.52,-243.61"/>
<polygon fill="midnightblue" stroke="midnightblue" points="2525.5,-247.11 2535.57,-243.8 2525.63,-240.12 2525.5,-247.11"/>
</g>
<!-- Node24 -->
<g id="node24" class="node">
<title>Node24</title>
<g id="a_node24"><a xlink:href="$classEventHandlerFactory.html#afa5ca0171c70b1a24f92b5c8dd00dc92" xlink:title=" ">
<polygon fill="white" stroke="black" points="2369.5,-394.5 2369.5,-424.5 2478.5,-424.5 2478.5,-394.5 2369.5,-394.5"/>
<text text-anchor="start" x="2377.5" y="-412.5" font-family="Helvetica,sans-Serif" font-size="10.00">EventHandlerFactory</text>
<text text-anchor="middle" x="2424" y="-401.5" font-family="Helvetica,sans-Serif" font-size="10.00">::fallBackIdentifier</text>
</a>
</g>
</g>
<!-- Node20&#45;&gt;Node24 -->
<g id="edge23" class="edge">
<title>Node20&#45;&gt;Node24</title>
<path fill="none" stroke="midnightblue" d="M2302.28,-402.58C2320.28,-403.61 2340.51,-404.77 2359.2,-405.84"/>
<polygon fill="midnightblue" stroke="midnightblue" points="2359.21,-409.35 2369.4,-406.43 2359.61,-402.36 2359.21,-409.35"/>
</g>
<!-- Node22&#45;&gt;Node23 -->
<g id="edge22" class="edge">
<title>Node22&#45;&gt;Node23</title>
<path fill="none" stroke="midnightblue" d="M2464.4,-296.41C2487.31,-287.64 2516.37,-276.51 2540.71,-267.18"/>
<polygon fill="midnightblue" stroke="midnightblue" points="2542.05,-270.42 2550.13,-263.58 2539.54,-263.88 2542.05,-270.42"/>
</g>
<!-- Node26 -->
<g id="node26" class="node">
<title>Node26</title>
<g id="a_node26"><a xlink:href="$classX11Extras.html#ab9bcb016e23bacb0e988feb8175d2c88" xlink:title=" ">
<polygon fill="white" stroke="black" points="2367,-444 2367,-463 2481,-463 2481,-444 2367,-444"/>
<text text-anchor="middle" x="2424" y="-451" font-family="Helvetica,sans-Serif" font-size="10.00">X11Extras::X11Extras</text>
</a>
</g>
</g>
<!-- Node25&#45;&gt;Node26 -->
<g id="edge26" class="edge">
<title>Node25&#45;&gt;Node26</title>
<path fill="none" stroke="midnightblue" d="M2307.09,-446.86C2323.08,-447.77 2340.51,-448.77 2356.89,-449.71"/>
<polygon fill="midnightblue" stroke="midnightblue" points="2356.74,-453.21 2366.93,-450.29 2357.14,-446.22 2356.74,-453.21"/>
</g>
<!-- Node27 -->
<g id="node27" class="node">
<title>Node27</title>
<g id="a_node27"><a xlink:href="$classX11Extras.html#a6f63e77ed045e174546d77333672b8f0" xlink:title=" ">
<polygon fill="white" stroke="black" points="2523,-438.5 2523,-468.5 2658,-468.5 2658,-438.5 2523,-438.5"/>
<text text-anchor="start" x="2531" y="-456.5" font-family="Helvetica,sans-Serif" font-size="10.00">X11Extras::populateKnown</text>
<text text-anchor="middle" x="2590.5" y="-445.5" font-family="Helvetica,sans-Serif" font-size="10.00">Aliases</text>
</a>
</g>
</g>
<!-- Node26&#45;&gt;Node27 -->
<g id="edge27" class="edge">
<title>Node26&#45;&gt;Node27</title>
<path fill="none" stroke="midnightblue" d="M2481.15,-453.5C2491.31,-453.5 2502.06,-453.5 2512.69,-453.5"/>
<polygon fill="midnightblue" stroke="midnightblue" points="2512.81,-457 2522.81,-453.5 2512.81,-450 2512.81,-457"/>
</g>
<!-- Node28&#45;&gt;Node18 -->
<g id="edge30" class="edge">
<title>Node28&#45;&gt;Node18</title>
<path fill="none" stroke="midnightblue" d="M2088.86,-258C2101.55,-251.42 2118.81,-242.45 2134,-234.5 2150.03,-226.11 2153.3,-222.46 2170,-215.5 2180.03,-211.32 2191.05,-207.46 2201.54,-204.11"/>
<polygon fill="midnightblue" stroke="midnightblue" points="2202.85,-207.37 2211.37,-201.06 2200.78,-200.68 2202.85,-207.37"/>
</g>
<!-- Node28&#45;&gt;Node19 -->
<g id="edge33" class="edge">
<title>Node28&#45;&gt;Node19</title>
<path fill="none" stroke="midnightblue" d="M2077.8,-257.71C2092.82,-238.32 2129.19,-194.94 2170,-172.5 2174.2,-170.19 2178.68,-168.16 2183.29,-166.37"/>
<polygon fill="midnightblue" stroke="midnightblue" points="2184.59,-169.62 2192.89,-163.02 2182.29,-163.01 2184.59,-169.62"/>
</g>
<!-- Node28&#45;&gt;Node20 -->
<g id="edge35" class="edge">
<title>Node28&#45;&gt;Node20</title>
<path fill="none" stroke="midnightblue" d="M2110.59,-277.11C2119.07,-280.57 2127.43,-285.24 2134,-291.5 2163.1,-319.24 2140.27,-347.43 2170,-374.5 2174.07,-378.2 2178.69,-381.36 2183.61,-384.05"/>
<polygon fill="midnightblue" stroke="midnightblue" points="2182.18,-387.25 2192.72,-388.4 2185.2,-380.93 2182.18,-387.25"/>
</g>
<!-- Node28&#45;&gt;Node23 -->
<g id="edge37" class="edge">
<title>Node28&#45;&gt;Node23</title>
<path fill="none" stroke="midnightblue" d="M2112.39,-257.93C2130.07,-254.3 2150.94,-250.56 2170,-248.5 2295.51,-234.96 2443.38,-239.76 2525.79,-244.27"/>
<polygon fill="midnightblue" stroke="midnightblue" points="2525.81,-247.77 2536,-244.84 2526.21,-240.78 2525.81,-247.77"/>
</g>
<!-- Node28&#45;&gt;Node25 -->
<g id="edge36" class="edge">
<title>Node28&#45;&gt;Node25</title>
<path fill="none" stroke="midnightblue" d="M2083.33,-277.17C2097.45,-288.39 2119.99,-308.1 2134,-329.5 2158.74,-367.27 2136.23,-394.52 2170,-424.5 2172.69,-426.89 2175.64,-428.99 2178.76,-430.83"/>
<polygon fill="midnightblue" stroke="midnightblue" points="2177.42,-434.08 2187.94,-435.38 2180.53,-427.8 2177.42,-434.08"/>
</g>
<!-- Node29 -->
<g id="node29" class="node">
<title>Node29</title>
<g id="a_node29"><a xlink:href="$classUInputHelper.html#ac4c70c9479c1cc0eb515ab1bdf2426f5" xlink:title=" ">
<polygon fill="white" stroke="red" points="2184,-296.5 2184,-326.5 2311,-326.5 2311,-296.5 2184,-296.5"/>
<text text-anchor="start" x="2192" y="-314.5" font-family="Helvetica,sans-Serif" font-size="10.00">UInputHelper::getDisplay</text>
<text text-anchor="middle" x="2247.5" y="-303.5" font-family="Helvetica,sans-Serif" font-size="10.00">String</text>
</a>
</g>
</g>
<!-- Node28&#45;&gt;Node29 -->
<g id="edge31" class="edge">
<title>Node28&#45;&gt;Node29</title>
<path fill="none" stroke="midnightblue" d="M2108.69,-277.05C2128.5,-282 2153.34,-288.21 2176.46,-293.99"/>
<polygon fill="midnightblue" stroke="midnightblue" points="2175.69,-297.4 2186.24,-296.43 2177.39,-290.61 2175.69,-297.4"/>
</g>
<!-- Node31 -->
<g id="node30" class="node">
<title>Node31</title>
<g id="a_node30"><a xlink:href="$classX11Extras.html#abe710bac948c9802105a2d9d06815cac" xlink:title="Get appropriate alias for a known KeySym string that might be blank or contain invalid characters whe...">
<polygon fill="white" stroke="black" points="2177.5,-258 2177.5,-277 2317.5,-277 2317.5,-258 2177.5,-258"/>
<text text-anchor="middle" x="2247.5" y="-265" font-family="Helvetica,sans-Serif" font-size="10.00">X11Extras::getDisplayString</text>
</a>
</g>
</g>
<!-- Node28&#45;&gt;Node31 -->
<g id="edge32" class="edge">
<title>Node28&#45;&gt;Node31</title>
<path fill="none" stroke="midnightblue" d="M2121.88,-267.5C2136.11,-267.5 2151.9,-267.5 2167.32,-267.5"/>
<polygon fill="midnightblue" stroke="midnightblue" points="2167.39,-271 2177.39,-267.5 2167.39,-264 2167.39,-271"/>
</g>
<!-- Node32 -->
<g id="node31" class="node">
<title>Node32</title>
<g id="a_node31"><a xlink:href="$classUInputHelper.html#a61509601d3dbd8933aaa26c1e2db02f6" xlink:title=" ">
<polygon fill="white" stroke="red" points="2182,-346 2182,-365 2313,-365 2313,-346 2182,-346"/>
<text text-anchor="middle" x="2247.5" y="-353" font-family="Helvetica,sans-Serif" font-size="10.00">UInputHelper::getInstance</text>
</a>
</g>
</g>
<!-- Node28&#45;&gt;Node32 -->
<g id="edge34" class="edge">
<title>Node28&#45;&gt;Node32</title>
<path fill="none" stroke="midnightblue" d="M2105.81,-277.06C2115.49,-280.66 2125.61,-285.4 2134,-291.5 2154.72,-306.56 2148.43,-322.68 2170,-336.5 2173.34,-338.64 2176.9,-340.54 2180.6,-342.22"/>
<polygon fill="midnightblue" stroke="midnightblue" points="2179.42,-345.52 2190,-345.99 2182.02,-339.02 2179.42,-345.52"/>
</g>
<!-- Node42&#45;&gt;Node12 -->
<g id="edge44" class="edge">
<title>Node42&#45;&gt;Node12</title>
<path fill="none" stroke="midnightblue" d="M1416.21,-170.93C1476.02,-174.62 1561.09,-179.87 1622.67,-183.67"/>
<polygon fill="midnightblue" stroke="midnightblue" points="1622.53,-187.16 1632.73,-184.29 1622.96,-180.18 1622.53,-187.16"/>
</g>
<!-- Node42&#45;&gt;Node39 -->
<g id="edge45" class="edge">
<title>Node42&#45;&gt;Node39</title>
<path fill="none" stroke="midnightblue" d="M1389.67,-176.09C1413.72,-181.19 1443.47,-187.51 1468.82,-192.89"/>
<polygon fill="midnightblue" stroke="midnightblue" points="1468.15,-196.33 1478.66,-194.98 1469.6,-189.48 1468.15,-196.33"/>
</g>
<!-- Node42&#45;&gt;Node40 -->
<g id="edge47" class="edge">
<title>Node42&#45;&gt;Node40</title>
<path fill="none" stroke="midnightblue" d="M1389.67,-156.91C1413.72,-151.81 1443.47,-145.49 1468.82,-140.11"/>
<polygon fill="midnightblue" stroke="midnightblue" points="1469.6,-143.52 1478.66,-138.02 1468.15,-136.67 1469.6,-143.52"/>
</g>
<!-- Node43 -->
<g id="node37" class="node">
<title>Node43</title>
<g id="a_node37"><a xlink:href="$classJoyButton.html#ae1d364dfa70f47fae3db99ffbcdea44b" xlink:title=" ">
<polygon fill="white" stroke="black" points="1453,-81 1453,-100 1596,-100 1596,-81 1453,-81"/>
<text text-anchor="middle" x="1524.5" y="-88" font-family="Helvetica,sans-Serif" font-size="10.00">JoyButton::getAssignedSlots</text>
</a>
</g>
</g>
<!-- Node42&#45;&gt;Node43 -->
<g id="edge46" class="edge">
<title>Node42&#45;&gt;Node43</title>
<path fill="none" stroke="midnightblue" d="M1360.15,-156.86C1380.79,-144.49 1418.53,-123.01 1453,-109.5 1459.19,-107.08 1465.79,-104.85 1472.39,-102.84"/>
<polygon fill="midnightblue" stroke="midnightblue" points="1473.37,-106.2 1482,-100.05 1471.42,-99.48 1473.37,-106.2"/>
</g>
<!-- Node45&#45;&gt;Node8 -->
<g id="edge50" class="edge">
<title>Node45&#45;&gt;Node8</title>
<path fill="none" stroke="midnightblue" d="M860.19,-276.91C879.15,-273.06 901.51,-268.51 922.72,-264.2"/>
<polygon fill="midnightblue" stroke="midnightblue" points="923.59,-267.6 932.7,-262.18 922.2,-260.74 923.59,-267.6"/>
</g>
<!-- Node46&#45;&gt;Node7 -->
<g id="edge53" class="edge">
<title>Node46&#45;&gt;Node7</title>
<path fill="none" stroke="midnightblue" d="M459.73,-258.95C475.67,-259.89 493.34,-260.93 510.71,-261.95"/>
<polygon fill="midnightblue" stroke="midnightblue" points="510.7,-265.46 520.89,-262.55 511.11,-258.47 510.7,-265.46"/>
</g>
<!-- Node51&#45;&gt;Node49 -->
<g id="edge61" class="edge">
<title>Node51&#45;&gt;Node49</title>
<path fill="none" stroke="midnightblue" d="M276.77,-116.81C299.41,-121.94 325.1,-127.76 347.05,-132.73"/>
<polygon fill="midnightblue" stroke="midnightblue" points="346.33,-136.16 356.86,-134.95 347.88,-129.33 346.33,-136.16"/>
</g>
<!-- Node52 -->
<g id="node46" class="node">
<title>Node52</title>
<g id="a_node46"><a xlink:href="$classJoyButton.html#a3850d1fdd6cac80b3ca0c0b3d2bfe6a6" xlink:title=" ">
<polygon fill="white" stroke="black" points="345.5,-94 345.5,-113 454.5,-113 454.5,-94 345.5,-94"/>
<text text-anchor="middle" x="400" y="-101" font-family="Helvetica,sans-Serif" font-size="10.00">JoyButton::setToggle</text>
</a>
</g>
</g>
<!-- Node51&#45;&gt;Node52 -->
<g id="edge62" class="edge">
<title>Node51&#45;&gt;Node52</title>
<path fill="none" stroke="midnightblue" d="M276.77,-103.5C295.49,-103.5 316.29,-103.5 335.34,-103.5"/>
<polygon fill="midnightblue" stroke="midnightblue" points="335.43,-107 345.43,-103.5 335.43,-100 335.43,-107"/>
</g>
<!-- Node53&#45;&gt;Node50 -->
<g id="edge64" class="edge">
<title>Node53&#45;&gt;Node50</title>
<path fill="none" stroke="midnightblue" d="M276.77,-28.81C299.41,-33.94 325.1,-39.76 347.05,-44.73"/>
<polygon fill="midnightblue" stroke="midnightblue" points="346.33,-48.16 356.86,-46.95 347.88,-41.33 346.33,-48.16"/>
</g>
<!-- Node54 -->
<g id="node48" class="node">
<title>Node54</title>
<g id="a_node48"><a xlink:href="$classJoyButton.html#a0750530dac3901ece7c78c19d15e0d54" xlink:title=" ">
<polygon fill="white" stroke="black" points="1108,-42 1108,-61 1231,-61 1231,-42 1108,-42"/>
<text text-anchor="middle" x="1169.5" y="-49" font-family="Helvetica,sans-Serif" font-size="10.00">JoyButton::setUseTurbo</text>
</a>
</g>
</g>
<!-- Node53&#45;&gt;Node54 -->
<g id="edge65" class="edge">
<title>Node53&#45;&gt;Node54</title>
<path fill="none" stroke="midnightblue" d="M276.68,-15.99C352.5,-16.58 488.6,-17.5 605,-17.5 605,-17.5 605,-17.5 813,-17.5 912.13,-17.5 1026.11,-30.76 1097.72,-40.72"/>
<polygon fill="midnightblue" stroke="midnightblue" points="1097.58,-44.24 1107.97,-42.16 1098.55,-37.3 1097.58,-44.24"/>
</g>
<!-- Node55 -->
<g id="node49" class="node">
<title>Node55</title>
<g id="a_node49"><a xlink:href="$classJoyButton.html#a6e3ee0e05fe5d243b142c5f22011c2e9" xlink:title=" ">
<polygon fill="white" stroke="black" points="1270,-81 1270,-100 1417,-100 1417,-81 1270,-81"/>
<text text-anchor="middle" x="1343.5" y="-88" font-family="Helvetica,sans-Serif" font-size="10.00">JoyButton::containsSequence</text>
</a>
</g>
</g>
<!-- Node54&#45;&gt;Node55 -->
<g id="edge66" class="edge">
<title>Node54&#45;&gt;Node55</title>
<path fill="none" stroke="midnightblue" d="M1212.58,-61.04C1236.09,-66.37 1265.59,-73.06 1290.54,-78.72"/>
<polygon fill="midnightblue" stroke="midnightblue" points="1290.03,-82.19 1300.56,-80.99 1291.58,-75.37 1290.03,-82.19"/>
</g>
<!-- Node56 -->
<g id="node50" class="node">
<title>Node56</title>
<g id="a_node50"><a xlink:href="$classJoyButton.html#a42d517ef696229862b238c52c4ff345c" xlink:title=" ">
<polygon fill="white" stroke="black" points="1275,-42 1275,-61 1412,-61 1412,-42 1275,-42"/>
<text text-anchor="middle" x="1343.5" y="-49" font-family="Helvetica,sans-Serif" font-size="10.00">JoyButton::setTurboInterval</text>
</a>
</g>
</g>
<!-- Node54&#45;&gt;Node56 -->
<g id="edge69" class="edge">
<title>Node54&#45;&gt;Node56</title>
<path fill="none" stroke="midnightblue" d="M1231.14,-45.02C1241.95,-44.78 1253.35,-44.7 1264.56,-44.78"/>
<polygon fill="midnightblue" stroke="midnightblue" points="1264.75,-48.28 1274.79,-44.89 1264.83,-41.28 1264.75,-48.28"/>
</g>
<!-- Node55&#45;&gt;Node40 -->
<g id="edge68" class="edge">
<title>Node55&#45;&gt;Node40</title>
<path fill="none" stroke="midnightblue" d="M1389.67,-100.09C1413.72,-105.19 1443.47,-111.51 1468.82,-116.89"/>
<polygon fill="midnightblue" stroke="midnightblue" points="1468.15,-120.33 1478.66,-118.98 1469.6,-113.48 1468.15,-120.33"/>
</g>
<!-- Node55&#45;&gt;Node43 -->
<g id="edge67" class="edge">
<title>Node55&#45;&gt;Node43</title>
<path fill="none" stroke="midnightblue" d="M1417.05,-90.5C1425.55,-90.5 1434.26,-90.5 1442.85,-90.5"/>
<polygon fill="midnightblue" stroke="midnightblue" points="1442.88,-94 1452.88,-90.5 1442.88,-87 1442.88,-94"/>
</g>
<!-- Node56&#45;&gt;Node54 -->
<g id="edge70" class="edge">
<title>Node56&#45;&gt;Node54</title>
<path fill="none" stroke="midnightblue" d="M1274.79,-58.11C1263.76,-58.28 1252.31,-58.29 1241.21,-58.15"/>
<polygon fill="midnightblue" stroke="midnightblue" points="1241.2,-54.65 1231.14,-57.98 1241.08,-61.65 1241.2,-54.65"/>
</g>
</g>
</svg>
