<?xml version="1.0" encoding="UTF-8" standalone="no"?>
<!DOCTYPE svg PUBLIC "-//W3C//DTD SVG 1.1//EN"
 "http://www.w3.org/Graphics/SVG/1.1/DTD/svg11.dtd">
<!-- Generated by graphviz version 2.43.0 (0)
 -->
<!-- Title: JoyButton::setUseTurbo Pages: 1 -->
<svg width="493pt" height="85pt"
 viewBox="0.00 0.00 493.00 85.00" xmlns="http://www.w3.org/2000/svg" xmlns:xlink="http://www.w3.org/1999/xlink">
<g id="graph0" class="graph" transform="scale(1 1) rotate(0) translate(4 81)">
<title>JoyButton::setUseTurbo</title>
<polygon fill="white" stroke="transparent" points="-4,4 -4,-81 489,-81 489,4 -4,4"/>
<!-- Node1 -->
<g id="node1" class="node">
<title>Node1</title>
<g id="a_node1"><a xlink:title=" ">
<polygon fill="#bfbfbf" stroke="black" points="0,-0.5 0,-19.5 123,-19.5 123,-0.5 0,-0.5"/>
<text text-anchor="middle" x="61.5" y="-7.5" font-family="Helvetica,sans-Serif" font-size="10.00">JoyButton::setUseTurbo</text>
</a>
</g>
</g>
<!-- Node2 -->
<g id="node2" class="node">
<title>Node2</title>
<g id="a_node2"><a xlink:href="$classJoyButton.html#a6e3ee0e05fe5d243b142c5f22011c2e9" xlink:title=" ">
<polygon fill="white" stroke="black" points="159,-38.5 159,-57.5 306,-57.5 306,-38.5 159,-38.5"/>
<text text-anchor="middle" x="232.5" y="-45.5" font-family="Helvetica,sans-Serif" font-size="10.00">JoyButton::containsSequence</text>
</a>
</g>
</g>
<!-- Node1&#45;&gt;Node2 -->
<g id="edge1" class="edge">
<title>Node1&#45;&gt;Node2</title>
<path fill="none" stroke="midnightblue" d="M105.15,-19.59C127.65,-24.65 155.45,-30.9 179.24,-36.25"/>
<polygon fill="midnightblue" stroke="midnightblue" points="178.64,-39.7 189.16,-38.48 180.17,-32.87 178.64,-39.7"/>
</g>
<!-- Node5 -->
<g id="node5" class="node">
<title>Node5</title>
<g id="a_node5"><a xlink:href="$classJoyButton.html#a42d517ef696229862b238c52c4ff345c" xlink:title=" ">
<polygon fill="white" stroke="black" points="164,-0.5 164,-19.5 301,-19.5 301,-0.5 164,-0.5"/>
<text text-anchor="middle" x="232.5" y="-7.5" font-family="Helvetica,sans-Serif" font-size="10.00">JoyButton::setTurboInterval</text>
</a>
</g>
</g>
<!-- Node1&#45;&gt;Node5 -->
<g id="edge4" class="edge">
<title>Node1&#45;&gt;Node5</title>
<path fill="none" stroke="midnightblue" d="M123.04,-3.5C132.98,-3.29 143.41,-3.21 153.7,-3.27"/>
<polygon fill="midnightblue" stroke="midnightblue" points="153.89,-6.77 163.93,-3.37 153.96,0.23 153.89,-6.77"/>
</g>
<!-- Node3 -->
<g id="node3" class="node">
<title>Node3</title>
<g id="a_node3"><a xlink:href="$classJoyButton.html#ae1d364dfa70f47fae3db99ffbcdea44b" xlink:title=" ">
<polygon fill="white" stroke="black" points="342,-57.5 342,-76.5 485,-76.5 485,-57.5 342,-57.5"/>
<text text-anchor="middle" x="413.5" y="-64.5" font-family="Helvetica,sans-Serif" font-size="10.00">JoyButton::getAssignedSlots</text>
</a>
</g>
</g>
<!-- Node2&#45;&gt;Node3 -->
<g id="edge2" class="edge">
<title>Node2&#45;&gt;Node3</title>
<path fill="none" stroke="midnightblue" d="M306.05,-55.7C314.55,-56.6 323.26,-57.53 331.85,-58.44"/>
<polygon fill="midnightblue" stroke="midnightblue" points="331.57,-61.93 341.88,-59.5 332.31,-54.97 331.57,-61.93"/>
</g>
<!-- Node4 -->
<g id="node4" class="node">
<title>Node4</title>
<g id="a_node4"><a xlink:href="$classJoyButtonSlot.html#abed7fe134c404b403ea79c0753f6eaaf" xlink:title=" ">
<polygon fill="white" stroke="black" points="344,-19.5 344,-38.5 483,-38.5 483,-19.5 344,-19.5"/>
<text text-anchor="middle" x="413.5" y="-26.5" font-family="Helvetica,sans-Serif" font-size="10.00">JoyButtonSlot::getSlotMode</text>
</a>
</g>
</g>
<!-- Node2&#45;&gt;Node4 -->
<g id="edge3" class="edge">
<title>Node2&#45;&gt;Node4</title>
<path fill="none" stroke="midnightblue" d="M306.05,-40.3C315.23,-39.32 324.66,-38.32 333.93,-37.34"/>
<polygon fill="midnightblue" stroke="midnightblue" points="334.33,-40.82 343.9,-36.28 333.59,-33.86 334.33,-40.82"/>
</g>
<!-- Node5&#45;&gt;Node1 -->
<g id="edge5" class="edge">
<title>Node5&#45;&gt;Node1</title>
<path fill="none" stroke="midnightblue" d="M163.93,-16.63C153.79,-16.78 143.32,-16.79 133.12,-16.67"/>
<polygon fill="midnightblue" stroke="midnightblue" points="133.09,-13.17 123.04,-16.5 132.98,-20.17 133.09,-13.17"/>
</g>
</g>
</svg>
