<?xml version="1.0" encoding="UTF-8" standalone="no"?>
<!DOCTYPE svg PUBLIC "-//W3C//DTD SVG 1.1//EN"
 "http://www.w3.org/Graphics/SVG/1.1/DTD/svg11.dtd">
<!-- Generated by graphviz version 2.43.0 (0)
 -->
<!-- Title: MouseControlStickSettingsDialog::calculateMouseSpeedPreset Pages: 1 -->
<svg width="363pt" height="104pt"
 viewBox="0.00 0.00 363.00 104.00" xmlns="http://www.w3.org/2000/svg" xmlns:xlink="http://www.w3.org/1999/xlink">
<g id="graph0" class="graph" transform="scale(1 1) rotate(0) translate(4 100)">
<title>MouseControlStickSettingsDialog::calculateMouseSpeedPreset</title>
<polygon fill="white" stroke="transparent" points="-4,4 -4,-100 359,-100 359,4 -4,4"/>
<!-- Node1 -->
<g id="node1" class="node">
<title>Node1</title>
<g id="a_node1"><a xlink:title=" ">
<polygon fill="#bfbfbf" stroke="black" points="0,-33 0,-63 175,-63 175,-33 0,-33"/>
<text text-anchor="start" x="8" y="-51" font-family="Helvetica,sans-Serif" font-size="10.00">MouseControlStickSettings</text>
<text text-anchor="middle" x="87.5" y="-40" font-family="Helvetica,sans-Serif" font-size="10.00">Dialog::calculateMouseSpeedPreset</text>
</a>
</g>
</g>
<!-- Node2 -->
<g id="node2" class="node">
<title>Node2</title>
<g id="a_node2"><a xlink:href="classJoyControlStick.html#a2b073090095e78d41f83f68835412550" target="_top" xlink:title=" ">
<polygon fill="white" stroke="black" points="213.5,-76.5 213.5,-95.5 352.5,-95.5 352.5,-76.5 213.5,-76.5"/>
<text text-anchor="middle" x="283" y="-83.5" font-family="Helvetica,sans-Serif" font-size="10.00">JoyControlStick::getButtons</text>
</a>
</g>
</g>
<!-- Node1&#45;&gt;Node2 -->
<g id="edge1" class="edge">
<title>Node1&#45;&gt;Node2</title>
<path fill="none" stroke="midnightblue" d="M164.98,-63.02C184.5,-66.85 205.17,-70.91 223.62,-74.54"/>
<polygon fill="midnightblue" stroke="midnightblue" points="223.13,-78.01 233.62,-76.5 224.48,-71.14 223.13,-78.01"/>
</g>
<!-- Node3 -->
<g id="node3" class="node">
<title>Node3</title>
<g id="a_node3"><a xlink:href="classJoyButton.html#a76e65a13abf96d01fa11ed9fd3b08a7b" target="_top" xlink:title=" ">
<polygon fill="white" stroke="black" points="211,-38.5 211,-57.5 355,-57.5 355,-38.5 211,-38.5"/>
<text text-anchor="middle" x="283" y="-45.5" font-family="Helvetica,sans-Serif" font-size="10.00">JoyButton::getMouseSpeedX</text>
</a>
</g>
</g>
<!-- Node1&#45;&gt;Node3 -->
<g id="edge2" class="edge">
<title>Node1&#45;&gt;Node3</title>
<path fill="none" stroke="midnightblue" d="M175.06,-48C183.58,-48 192.2,-48 200.65,-48"/>
<polygon fill="midnightblue" stroke="midnightblue" points="200.87,-51.5 210.87,-48 200.87,-44.5 200.87,-51.5"/>
</g>
<!-- Node4 -->
<g id="node4" class="node">
<title>Node4</title>
<g id="a_node4"><a xlink:href="classJoyButton.html#a897f0f78773ace1b5916222bd757b1bc" target="_top" xlink:title=" ">
<polygon fill="white" stroke="black" points="211,-0.5 211,-19.5 355,-19.5 355,-0.5 211,-0.5"/>
<text text-anchor="middle" x="283" y="-7.5" font-family="Helvetica,sans-Serif" font-size="10.00">JoyButton::getMouseSpeedY</text>
</a>
</g>
</g>
<!-- Node1&#45;&gt;Node4 -->
<g id="edge3" class="edge">
<title>Node1&#45;&gt;Node4</title>
<path fill="none" stroke="midnightblue" d="M164.98,-32.98C184.5,-29.15 205.17,-25.09 223.62,-21.46"/>
<polygon fill="midnightblue" stroke="midnightblue" points="224.48,-24.86 233.62,-19.5 223.13,-17.99 224.48,-24.86"/>
</g>
</g>
</svg>
