<?xml version="1.0" encoding="UTF-8" standalone="no"?>
<!DOCTYPE svg PUBLIC "-//W3C//DTD SVG 1.1//EN"
 "http://www.w3.org/Graphics/SVG/1.1/DTD/svg11.dtd">
<!-- Generated by graphviz version 2.43.0 (0)
 -->
<!-- Title: DPadEditDialogHelper::updateJoyDPadDelay Pages: 1 -->
<svg width="289pt" height="66pt"
 viewBox="0.00 0.00 289.00 66.00" xmlns="http://www.w3.org/2000/svg" xmlns:xlink="http://www.w3.org/1999/xlink">
<g id="graph0" class="graph" transform="scale(1 1) rotate(0) translate(4 62)">
<title>DPadEditDialogHelper::updateJoyDPadDelay</title>
<polygon fill="white" stroke="transparent" points="-4,4 -4,-62 285,-62 285,4 -4,4"/>
<!-- Node1 -->
<g id="node1" class="node">
<title>Node1</title>
<g id="a_node1"><a xlink:title=" ">
<polygon fill="#bfbfbf" stroke="black" points="0,-14 0,-44 118,-44 118,-14 0,-14"/>
<text text-anchor="start" x="8" y="-32" font-family="Helvetica,sans-Serif" font-size="10.00">DPadEditDialogHelper</text>
<text text-anchor="middle" x="59" y="-21" font-family="Helvetica,sans-Serif" font-size="10.00">::updateJoyDPadDelay</text>
</a>
</g>
</g>
<!-- Node2 -->
<g id="node2" class="node">
<title>Node2</title>
<g id="a_node2"><a xlink:href="classJoyDPad.html#a642b801fba7ca92115b95eb6d0d95b52" target="_top" xlink:title=" ">
<polygon fill="white" stroke="black" points="154,-38.5 154,-57.5 281,-57.5 281,-38.5 154,-38.5"/>
<text text-anchor="middle" x="217.5" y="-45.5" font-family="Helvetica,sans-Serif" font-size="10.00">JoyDPad::getDPadDelay</text>
</a>
</g>
</g>
<!-- Node1&#45;&gt;Node2 -->
<g id="edge1" class="edge">
<title>Node1&#45;&gt;Node2</title>
<path fill="none" stroke="midnightblue" d="M118.27,-36.07C126.64,-37.09 135.34,-38.15 143.95,-39.19"/>
<polygon fill="midnightblue" stroke="midnightblue" points="143.63,-42.68 153.98,-40.41 144.47,-35.73 143.63,-42.68"/>
</g>
<!-- Node3 -->
<g id="node3" class="node">
<title>Node3</title>
<g id="a_node3"><a xlink:href="classJoyDPad.html#af6ce40c6bed6e6ceb12b2060014d818c" target="_top" xlink:title=" ">
<polygon fill="white" stroke="black" points="154,-0.5 154,-19.5 281,-19.5 281,-0.5 154,-0.5"/>
<text text-anchor="middle" x="217.5" y="-7.5" font-family="Helvetica,sans-Serif" font-size="10.00">JoyDPad::setDPadDelay</text>
</a>
</g>
</g>
<!-- Node1&#45;&gt;Node3 -->
<g id="edge2" class="edge">
<title>Node1&#45;&gt;Node3</title>
<path fill="none" stroke="midnightblue" d="M118.27,-21.93C126.64,-20.91 135.34,-19.85 143.95,-18.81"/>
<polygon fill="midnightblue" stroke="midnightblue" points="144.47,-22.27 153.98,-17.59 143.63,-15.32 144.47,-22.27"/>
</g>
</g>
</svg>
