<?xml version="1.0" encoding="UTF-8" standalone="no"?>
<!DOCTYPE svg PUBLIC "-//W3C//DTD SVG 1.1//EN"
 "http://www.w3.org/Graphics/SVG/1.1/DTD/svg11.dtd">
<!-- Generated by graphviz version 2.43.0 (0)
 -->
<!-- Title: JoyButton::buildActiveZoneSummaryString Pages: 1 -->
<svg width="1970pt" height="496pt"
 viewBox="0.00 0.00 1970.00 496.00" xmlns="http://www.w3.org/2000/svg" xmlns:xlink="http://www.w3.org/1999/xlink">
<g id="graph0" class="graph" transform="scale(1 1) rotate(0) translate(4 492)">
<title>JoyButton::buildActiveZoneSummaryString</title>
<polygon fill="white" stroke="transparent" points="-4,4 -4,-492 1966,-492 1966,4 -4,4"/>
<!-- Node1 -->
<g id="node1" class="node">
<title>Node1</title>
<g id="a_node1"><a xlink:title="Generate active zone string and notify other objects.">
<polygon fill="#bfbfbf" stroke="black" points="0,-123.5 0,-153.5 136,-153.5 136,-123.5 0,-123.5"/>
<text text-anchor="start" x="8" y="-141.5" font-family="Helvetica,sans-Serif" font-size="10.00">JoyButton::buildActiveZone</text>
<text text-anchor="middle" x="68" y="-130.5" font-family="Helvetica,sans-Serif" font-size="10.00">SummaryString</text>
</a>
</g>
</g>
<!-- Node2 -->
<g id="node2" class="node">
<title>Node2</title>
<g id="a_node2"><a xlink:href="classJoyButton.html#ae76ccd3147106953d53a565730c1d8ee" target="_top" xlink:title="Generate a string that represents slots that will be activated or slots that are currently active if ...">
<polygon fill="white" stroke="black" points="172,-148.5 172,-178.5 301,-178.5 301,-148.5 172,-148.5"/>
<text text-anchor="start" x="180" y="-166.5" font-family="Helvetica,sans-Serif" font-size="10.00">JoyButton::getActiveZone</text>
<text text-anchor="middle" x="236.5" y="-155.5" font-family="Helvetica,sans-Serif" font-size="10.00">Summary</text>
</a>
</g>
</g>
<!-- Node1&#45;&gt;Node2 -->
<g id="edge1" class="edge">
<title>Node1&#45;&gt;Node2</title>
<path fill="none" stroke="midnightblue" d="M136.24,-148.6C144.68,-149.86 153.34,-151.16 161.86,-152.44"/>
<polygon fill="midnightblue" stroke="midnightblue" points="161.37,-155.91 171.78,-153.93 162.41,-148.99 161.37,-155.91"/>
</g>
<!-- Node39 -->
<g id="node39" class="node">
<title>Node39</title>
<g id="a_node39"><a xlink:href="classJoyButton.html#a1b49d9ab85f0d5d128e2eca616747018" target="_top" xlink:title=" ">
<polygon fill="white" stroke="black" points="173,-99.5 173,-129.5 300,-129.5 300,-99.5 173,-99.5"/>
<text text-anchor="start" x="181" y="-117.5" font-family="Helvetica,sans-Serif" font-size="10.00">JoyButton::lockForWrited</text>
<text text-anchor="middle" x="236.5" y="-106.5" font-family="Helvetica,sans-Serif" font-size="10.00">String</text>
</a>
</g>
</g>
<!-- Node1&#45;&gt;Node39 -->
<g id="edge50" class="edge">
<title>Node1&#45;&gt;Node39</title>
<path fill="none" stroke="midnightblue" d="M136.24,-128.81C145.03,-127.54 154.06,-126.24 162.93,-124.96"/>
<polygon fill="midnightblue" stroke="midnightblue" points="163.46,-128.42 172.86,-123.53 162.46,-121.49 163.46,-128.42"/>
</g>
<!-- Node3 -->
<g id="node3" class="node">
<title>Node3</title>
<g id="a_node3"><a xlink:href="classJoyButton.html#a9404c4ca344265ce68c0eb9b6b95048b" target="_top" xlink:title=" ">
<polygon fill="white" stroke="black" points="341.5,-118.5 341.5,-148.5 477.5,-148.5 477.5,-118.5 341.5,-118.5"/>
<text text-anchor="start" x="349.5" y="-136.5" font-family="Helvetica,sans-Serif" font-size="10.00">JoyButton::buildActiveZone</text>
<text text-anchor="middle" x="409.5" y="-125.5" font-family="Helvetica,sans-Serif" font-size="10.00">Summary</text>
</a>
</g>
</g>
<!-- Node2&#45;&gt;Node3 -->
<g id="edge2" class="edge">
<title>Node2&#45;&gt;Node3</title>
<path fill="none" stroke="midnightblue" d="M301.17,-152.33C311,-150.6 321.24,-148.81 331.33,-147.04"/>
<polygon fill="midnightblue" stroke="midnightblue" points="332.09,-150.46 341.34,-145.28 330.88,-143.56 332.09,-150.46"/>
</g>
<!-- Node37 -->
<g id="node37" class="node">
<title>Node37</title>
<g id="a_node37"><a xlink:href="classJoyButton.html#a7494c1753b3f16ba988076e9eb34ff47" target="_top" xlink:title=" ">
<polygon fill="white" stroke="black" points="337,-184 337,-203 482,-203 482,-184 337,-184"/>
<text text-anchor="middle" x="409.5" y="-191" font-family="Helvetica,sans-Serif" font-size="10.00">JoyButton::getActiveZoneList</text>
</a>
</g>
</g>
<!-- Node2&#45;&gt;Node37 -->
<g id="edge45" class="edge">
<title>Node2&#45;&gt;Node37</title>
<path fill="none" stroke="midnightblue" d="M301.17,-174.67C315.23,-177.14 330.14,-179.75 344.22,-182.22"/>
<polygon fill="midnightblue" stroke="midnightblue" points="343.85,-185.71 354.31,-183.99 345.06,-178.82 343.85,-185.71"/>
</g>
<!-- Node4 -->
<g id="node4" class="node">
<title>Node4</title>
<g id="a_node4"><a xlink:href="classJoyButton.html#a773bbe39b094a62cd17776acc06efac6" target="_top" xlink:title=" ">
<polygon fill="white" stroke="black" points="521.5,-58.5 521.5,-88.5 657.5,-88.5 657.5,-58.5 521.5,-58.5"/>
<text text-anchor="start" x="529.5" y="-76.5" font-family="Helvetica,sans-Serif" font-size="10.00">JoyButton::buildActiveZone</text>
<text text-anchor="middle" x="589.5" y="-65.5" font-family="Helvetica,sans-Serif" font-size="10.00">SummarySwitchSlots</text>
</a>
</g>
</g>
<!-- Node3&#45;&gt;Node4 -->
<g id="edge3" class="edge">
<title>Node3&#45;&gt;Node4</title>
<path fill="none" stroke="midnightblue" d="M455.42,-118.36C479.33,-110.3 508.92,-100.32 534.12,-91.83"/>
<polygon fill="midnightblue" stroke="midnightblue" points="535.55,-95.04 543.91,-88.53 533.31,-88.41 535.55,-95.04"/>
</g>
<!-- Node7 -->
<g id="node7" class="node">
<title>Node7</title>
<g id="a_node7"><a xlink:href="classJoyButtonSlot.html#a4fb0606a34134786bc642627bc25aedd" target="_top" xlink:title=" ">
<polygon fill="white" stroke="black" points="885.5,-20 885.5,-39 1021.5,-39 1021.5,-20 885.5,-20"/>
<text text-anchor="middle" x="953.5" y="-27" font-family="Helvetica,sans-Serif" font-size="10.00">JoyButtonSlot::getMixSlots</text>
</a>
</g>
</g>
<!-- Node3&#45;&gt;Node7 -->
<g id="edge42" class="edge">
<title>Node3&#45;&gt;Node7</title>
<path fill="none" stroke="midnightblue" d="M423.62,-118.41C442.25,-98.2 478.53,-63.19 518,-48.5 636.56,-4.37 786.04,-9.86 875.18,-18.93"/>
<polygon fill="midnightblue" stroke="midnightblue" points="874.91,-22.42 885.22,-19.99 875.64,-15.46 874.91,-22.42"/>
</g>
<!-- Node34 -->
<g id="node34" class="node">
<title>Node34</title>
<g id="a_node34"><a xlink:href="classJoyButton.html#a64f1660931aea2fa8df1bf5e313c05ba" target="_top" xlink:title=" ">
<polygon fill="white" stroke="black" points="524.5,-184 524.5,-203 654.5,-203 654.5,-184 524.5,-184"/>
<text text-anchor="middle" x="589.5" y="-191" font-family="Helvetica,sans-Serif" font-size="10.00">JoyButton::getActiveSlots</text>
</a>
</g>
</g>
<!-- Node3&#45;&gt;Node34 -->
<g id="edge41" class="edge">
<title>Node3&#45;&gt;Node34</title>
<path fill="none" stroke="midnightblue" d="M447.48,-148.67C468.06,-156.84 494.25,-166.79 518,-174.5 525.21,-176.84 532.9,-179.12 540.45,-181.25"/>
<polygon fill="midnightblue" stroke="midnightblue" points="539.67,-184.67 550.24,-183.94 541.53,-177.92 539.67,-184.67"/>
</g>
<!-- Node35 -->
<g id="node35" class="node">
<title>Node35</title>
<g id="a_node35"><a xlink:href="classJoyButtonSlot.html#abed7fe134c404b403ea79c0753f6eaaf" target="_top" xlink:title=" ">
<polygon fill="white" stroke="black" points="520,-146 520,-165 659,-165 659,-146 520,-146"/>
<text text-anchor="middle" x="589.5" y="-153" font-family="Helvetica,sans-Serif" font-size="10.00">JoyButtonSlot::getSlotMode</text>
</a>
</g>
</g>
<!-- Node3&#45;&gt;Node35 -->
<g id="edge43" class="edge">
<title>Node3&#45;&gt;Node35</title>
<path fill="none" stroke="midnightblue" d="M477.54,-141.79C488,-143.08 498.88,-144.42 509.57,-145.75"/>
<polygon fill="midnightblue" stroke="midnightblue" points="509.39,-149.25 519.74,-147 510.25,-142.3 509.39,-149.25"/>
</g>
<!-- Node36 -->
<g id="node36" class="node">
<title>Node36</title>
<g id="a_node36"><a xlink:href="classJoyButtonSlot.html#a1e38b923aa69abbcfb9abb008e692444" target="_top" xlink:title=" ">
<polygon fill="white" stroke="black" points="521,-108 521,-127 658,-127 658,-108 521,-108"/>
<text text-anchor="middle" x="589.5" y="-115" font-family="Helvetica,sans-Serif" font-size="10.00">JoyButtonSlot::getTextData</text>
</a>
</g>
</g>
<!-- Node3&#45;&gt;Node36 -->
<g id="edge44" class="edge">
<title>Node3&#45;&gt;Node36</title>
<path fill="none" stroke="midnightblue" d="M477.54,-127.47C488.41,-126.5 499.74,-125.48 510.83,-124.48"/>
<polygon fill="midnightblue" stroke="midnightblue" points="511.28,-127.96 520.93,-123.57 510.66,-120.98 511.28,-127.96"/>
</g>
<!-- Node5 -->
<g id="node5" class="node">
<title>Node5</title>
<g id="a_node5"><a xlink:href="classJoyButton.html#acb0ee9af0f5a44bd07ca5cfbfd026cf6" target="_top" xlink:title=" ">
<polygon fill="white" stroke="black" points="698,-181 698,-200 836,-200 836,-181 698,-181"/>
<text text-anchor="middle" x="767" y="-188" font-family="Helvetica,sans-Serif" font-size="10.00">JoyButton::findJoySlotsEnd</text>
</a>
</g>
</g>
<!-- Node4&#45;&gt;Node5 -->
<g id="edge4" class="edge">
<title>Node4&#45;&gt;Node5</title>
<path fill="none" stroke="midnightblue" d="M640.49,-88.55C647.58,-91.44 654.61,-94.76 661,-98.5 696.47,-119.29 731.03,-152.92 750.32,-173.25"/>
<polygon fill="midnightblue" stroke="midnightblue" points="748.01,-175.9 757.38,-180.82 753.13,-171.12 748.01,-175.9"/>
</g>
<!-- Node6 -->
<g id="node6" class="node">
<title>Node6</title>
<g id="a_node6"><a xlink:href="classJoyButtonSlot.html#a6e10409ded595380cbdcfd5c827ab32a" target="_top" xlink:title=" ">
<polygon fill="white" stroke="black" points="697,-64 697,-83 837,-83 837,-64 697,-64"/>
<text text-anchor="middle" x="767" y="-71" font-family="Helvetica,sans-Serif" font-size="10.00">JoyButtonSlot::getSlotString</text>
</a>
</g>
</g>
<!-- Node4&#45;&gt;Node6 -->
<g id="edge5" class="edge">
<title>Node4&#45;&gt;Node6</title>
<path fill="none" stroke="midnightblue" d="M657.6,-73.5C667.15,-73.5 677.05,-73.5 686.81,-73.5"/>
<polygon fill="midnightblue" stroke="midnightblue" points="686.9,-77 696.9,-73.5 686.9,-70 686.9,-77"/>
</g>
<!-- Node6&#45;&gt;Node7 -->
<g id="edge6" class="edge">
<title>Node6&#45;&gt;Node7</title>
<path fill="none" stroke="midnightblue" d="M808.03,-63.95C835.84,-57.32 873.08,-48.44 902.78,-41.36"/>
<polygon fill="midnightblue" stroke="midnightblue" points="903.63,-44.75 912.54,-39.03 902.01,-37.94 903.63,-44.75"/>
</g>
<!-- Node9 -->
<g id="node9" class="node">
<title>Node9</title>
<g id="a_node9"><a xlink:href="namespacePadderCommon.html#aaa09739d2df84421a5a3467a06ce941c" target="_top" xlink:title="Returns the &quot;human&#45;readable&quot; name of the given profile.">
<polygon fill="white" stroke="black" points="873,-61 873,-80 1034,-80 1034,-61 873,-61"/>
<text text-anchor="middle" x="953.5" y="-68" font-family="Helvetica,sans-Serif" font-size="10.00">PadderCommon::getProfileName</text>
</a>
</g>
</g>
<!-- Node6&#45;&gt;Node9 -->
<g id="edge8" class="edge">
<title>Node6&#45;&gt;Node9</title>
<path fill="none" stroke="midnightblue" d="M837.23,-72.37C845.6,-72.24 854.25,-72.1 862.87,-71.96"/>
<polygon fill="midnightblue" stroke="midnightblue" points="863.01,-75.46 872.96,-71.79 862.9,-68.46 863.01,-75.46"/>
</g>
<!-- Node10 -->
<g id="node10" class="node">
<title>Node10</title>
<g id="a_node10"><a xlink:href="event_8cpp.html#a76ce89b71143c1c09343f45f038b4a67" target="_top" xlink:title=" ">
<polygon fill="white" stroke="black" points="903,-147 903,-166 1004,-166 1004,-147 903,-147"/>
<text text-anchor="middle" x="953.5" y="-154" font-family="Helvetica,sans-Serif" font-size="10.00">keysymToKeyString</text>
</a>
</g>
</g>
<!-- Node6&#45;&gt;Node10 -->
<g id="edge9" class="edge">
<title>Node6&#45;&gt;Node10</title>
<path fill="none" stroke="midnightblue" d="M785.14,-83.16C805.67,-94.53 841.26,-113.62 873,-127.5 886.09,-133.22 900.7,-138.78 913.79,-143.48"/>
<polygon fill="midnightblue" stroke="midnightblue" points="912.86,-146.86 923.45,-146.89 915.19,-140.26 912.86,-146.86"/>
</g>
<!-- Node33 -->
<g id="node33" class="node">
<title>Node33</title>
<g id="a_node33"><a xlink:href="classJoyButtonSlot.html#a37ff2b523177bae4ea6a44b82f2973eb" target="_top" xlink:title=" ">
<polygon fill="white" stroke="black" points="876,-99 876,-118 1031,-118 1031,-99 876,-99"/>
<text text-anchor="middle" x="953.5" y="-106" font-family="Helvetica,sans-Serif" font-size="10.00">JoyButtonSlot::movementString</text>
</a>
</g>
</g>
<!-- Node6&#45;&gt;Node33 -->
<g id="edge40" class="edge">
<title>Node6&#45;&gt;Node33</title>
<path fill="none" stroke="midnightblue" d="M818.42,-83.06C841.19,-87.39 868.29,-92.53 892.14,-97.05"/>
<polygon fill="midnightblue" stroke="midnightblue" points="891.67,-100.52 902.15,-98.95 892.97,-93.65 891.67,-100.52"/>
</g>
<!-- Node8 -->
<g id="node8" class="node">
<title>Node8</title>
<g id="a_node8"><a xlink:href="classJoyButtonSlot.html#a9ba9cb0dda063a7df5575072c0aabe01" target="_top" xlink:title=" ">
<polygon fill="white" stroke="black" points="1070,-0.5 1070,-30.5 1199,-30.5 1199,-0.5 1070,-0.5"/>
<text text-anchor="start" x="1078" y="-18.5" font-family="Helvetica,sans-Serif" font-size="10.00">JoyButtonSlot::secureMix</text>
<text text-anchor="middle" x="1134.5" y="-7.5" font-family="Helvetica,sans-Serif" font-size="10.00">SlotsInit</text>
</a>
</g>
</g>
<!-- Node7&#45;&gt;Node8 -->
<g id="edge7" class="edge">
<title>Node7&#45;&gt;Node8</title>
<path fill="none" stroke="midnightblue" d="M1021.66,-24.25C1034.11,-23.27 1047.17,-22.25 1059.8,-21.26"/>
<polygon fill="midnightblue" stroke="midnightblue" points="1060.12,-24.75 1069.81,-20.48 1059.57,-17.77 1060.12,-24.75"/>
</g>
<!-- Node11 -->
<g id="node11" class="node">
<title>Node11</title>
<g id="a_node11"><a xlink:href="classX11Extras.html#a643c95dc1de8eb073a0accb41619fe83" target="_top" xlink:title="Get display instance.">
<polygon fill="white" stroke="black" points="1274.5,-147 1274.5,-166 1373.5,-166 1373.5,-147 1274.5,-147"/>
<text text-anchor="middle" x="1324" y="-154" font-family="Helvetica,sans-Serif" font-size="10.00">X11Extras::display</text>
</a>
</g>
</g>
<!-- Node10&#45;&gt;Node11 -->
<g id="edge10" class="edge">
<title>Node10&#45;&gt;Node11</title>
<path fill="none" stroke="midnightblue" d="M1004.2,-156.5C1071.7,-156.5 1192.18,-156.5 1264.13,-156.5"/>
<polygon fill="midnightblue" stroke="midnightblue" points="1264.38,-160 1274.38,-156.5 1264.38,-153 1264.38,-160"/>
</g>
<!-- Node12 -->
<g id="node12" class="node">
<title>Node12</title>
<g id="a_node12"><a xlink:href="classBaseEventHandler.html#a9a014e472ec57408d16b8b5eed964e90" target="_top" xlink:title=" ">
<polygon fill="white" stroke="black" points="1246.5,-109 1246.5,-128 1401.5,-128 1401.5,-109 1246.5,-109"/>
<text text-anchor="middle" x="1324" y="-116" font-family="Helvetica,sans-Serif" font-size="10.00">BaseEventHandler::getIdentifier</text>
</a>
</g>
</g>
<!-- Node10&#45;&gt;Node12 -->
<g id="edge11" class="edge">
<title>Node10&#45;&gt;Node12</title>
<path fill="none" stroke="midnightblue" d="M1004.2,-151.38C1063.58,-145.25 1163.97,-134.9 1236.25,-127.45"/>
<polygon fill="midnightblue" stroke="midnightblue" points="1236.66,-130.92 1246.25,-126.41 1235.94,-123.96 1236.66,-130.92"/>
</g>
<!-- Node13 -->
<g id="node13" class="node">
<title>Node13</title>
<g id="a_node13"><a xlink:href="classX11Extras.html#ace76277fced60e6bd6ff880030338182" target="_top" xlink:title=" ">
<polygon fill="white" stroke="black" points="1264.5,-463 1264.5,-482 1383.5,-482 1383.5,-463 1264.5,-463"/>
<text text-anchor="middle" x="1324" y="-470" font-family="Helvetica,sans-Serif" font-size="10.00">X11Extras::getInstance</text>
</a>
</g>
</g>
<!-- Node10&#45;&gt;Node13 -->
<g id="edge12" class="edge">
<title>Node10&#45;&gt;Node13</title>
<path fill="none" stroke="midnightblue" d="M960.41,-166.08C986.63,-207.66 1097.21,-373.76 1235,-448.5 1243.47,-453.1 1252.89,-456.86 1262.32,-459.93"/>
<polygon fill="midnightblue" stroke="midnightblue" points="1261.54,-463.35 1272.12,-462.89 1263.56,-456.65 1261.54,-463.35"/>
</g>
<!-- Node16 -->
<g id="node16" class="node">
<title>Node16</title>
<g id="a_node16"><a xlink:href="classEventHandlerFactory.html#a90ce153a19fbb91128bd52eb083ce271" target="_top" xlink:title=" ">
<polygon fill="white" stroke="black" points="1269.5,-185.5 1269.5,-215.5 1378.5,-215.5 1378.5,-185.5 1269.5,-185.5"/>
<text text-anchor="start" x="1277.5" y="-203.5" font-family="Helvetica,sans-Serif" font-size="10.00">EventHandlerFactory</text>
<text text-anchor="middle" x="1324" y="-192.5" font-family="Helvetica,sans-Serif" font-size="10.00">::getInstance</text>
</a>
</g>
</g>
<!-- Node10&#45;&gt;Node16 -->
<g id="edge15" class="edge">
<title>Node10&#45;&gt;Node16</title>
<path fill="none" stroke="midnightblue" d="M1004.24,-162.56C1024.62,-165.03 1048.44,-167.92 1070,-170.5 1134.3,-178.21 1207.81,-186.91 1258.96,-192.95"/>
<polygon fill="midnightblue" stroke="midnightblue" points="1258.86,-196.47 1269.2,-194.16 1259.68,-189.51 1258.86,-196.47"/>
</g>
<!-- Node19 -->
<g id="node19" class="node">
<title>Node19</title>
<g id="a_node19"><a xlink:href="classEventHandlerFactory.html#a4c13007f0ece5bf881080c9c04f1f20d" target="_top" xlink:title=" ">
<polygon fill="white" stroke="black" points="1642,-153.5 1642,-183.5 1751,-183.5 1751,-153.5 1642,-153.5"/>
<text text-anchor="start" x="1650" y="-171.5" font-family="Helvetica,sans-Serif" font-size="10.00">EventHandlerFactory</text>
<text text-anchor="middle" x="1696.5" y="-160.5" font-family="Helvetica,sans-Serif" font-size="10.00">::handler</text>
</a>
</g>
</g>
<!-- Node10&#45;&gt;Node19 -->
<g id="edge21" class="edge">
<title>Node10&#45;&gt;Node19</title>
<path fill="none" stroke="midnightblue" d="M981.71,-146.94C1070.74,-117.15 1360.64,-31.82 1587,-98.5 1618.94,-107.91 1650.34,-129.97 1671.08,-146.82"/>
<polygon fill="midnightblue" stroke="midnightblue" points="1669.1,-149.73 1679.02,-153.45 1673.58,-144.36 1669.1,-149.73"/>
</g>
<!-- Node21 -->
<g id="node21" class="node">
<title>Node21</title>
<g id="a_node21"><a xlink:href="event_8cpp.html#ad239a34cab482dc3cad5a23a9ac1ad78" target="_top" xlink:title=" ">
<polygon fill="white" stroke="black" points="1082.5,-273 1082.5,-292 1186.5,-292 1186.5,-273 1082.5,-273"/>
<text text-anchor="middle" x="1134.5" y="-280" font-family="Helvetica,sans-Serif" font-size="10.00">keycodeToKeyString</text>
</a>
</g>
</g>
<!-- Node10&#45;&gt;Node21 -->
<g id="edge22" class="edge">
<title>Node10&#45;&gt;Node21</title>
<path fill="none" stroke="midnightblue" d="M968.25,-166.18C999.17,-187.94 1074.41,-240.9 1111.74,-267.18"/>
<polygon fill="midnightblue" stroke="midnightblue" points="1109.76,-270.07 1119.95,-272.96 1113.79,-264.34 1109.76,-270.07"/>
</g>
<!-- Node14 -->
<g id="node14" class="node">
<title>Node14</title>
<g id="a_node14"><a xlink:href="classX11Extras.html#ab9bcb016e23bacb0e988feb8175d2c88" target="_top" xlink:title=" ">
<polygon fill="white" stroke="black" points="1461,-463 1461,-482 1575,-482 1575,-463 1461,-463"/>
<text text-anchor="middle" x="1518" y="-470" font-family="Helvetica,sans-Serif" font-size="10.00">X11Extras::X11Extras</text>
</a>
</g>
</g>
<!-- Node13&#45;&gt;Node14 -->
<g id="edge13" class="edge">
<title>Node13&#45;&gt;Node14</title>
<path fill="none" stroke="midnightblue" d="M1383.65,-472.5C1404.78,-472.5 1428.78,-472.5 1450.54,-472.5"/>
<polygon fill="midnightblue" stroke="midnightblue" points="1450.68,-476 1460.68,-472.5 1450.68,-469 1450.68,-476"/>
</g>
<!-- Node15 -->
<g id="node15" class="node">
<title>Node15</title>
<g id="a_node15"><a xlink:href="classX11Extras.html#a6f63e77ed045e174546d77333672b8f0" target="_top" xlink:title=" ">
<polygon fill="white" stroke="black" points="1629,-457.5 1629,-487.5 1764,-487.5 1764,-457.5 1629,-457.5"/>
<text text-anchor="start" x="1637" y="-475.5" font-family="Helvetica,sans-Serif" font-size="10.00">X11Extras::populateKnown</text>
<text text-anchor="middle" x="1696.5" y="-464.5" font-family="Helvetica,sans-Serif" font-size="10.00">Aliases</text>
</a>
</g>
</g>
<!-- Node14&#45;&gt;Node15 -->
<g id="edge14" class="edge">
<title>Node14&#45;&gt;Node15</title>
<path fill="none" stroke="midnightblue" d="M1575.33,-472.5C1589.18,-472.5 1604.25,-472.5 1618.88,-472.5"/>
<polygon fill="midnightblue" stroke="midnightblue" points="1618.92,-476 1628.92,-472.5 1618.92,-469 1618.92,-476"/>
</g>
<!-- Node17 -->
<g id="node17" class="node">
<title>Node17</title>
<g id="a_node17"><a xlink:href="classEventHandlerFactory.html#ade5162034acc0f8683725fdb124bece0" target="_top" xlink:title=" ">
<polygon fill="white" stroke="black" points="1455,-126.5 1455,-156.5 1581,-156.5 1581,-126.5 1455,-126.5"/>
<text text-anchor="start" x="1463" y="-144.5" font-family="Helvetica,sans-Serif" font-size="10.00">EventHandlerFactory</text>
<text text-anchor="middle" x="1518" y="-133.5" font-family="Helvetica,sans-Serif" font-size="10.00">::buildEventGeneratorList</text>
</a>
</g>
</g>
<!-- Node16&#45;&gt;Node17 -->
<g id="edge16" class="edge">
<title>Node16&#45;&gt;Node17</title>
<path fill="none" stroke="midnightblue" d="M1378.62,-185.63C1389.99,-182.37 1401.91,-178.89 1413,-175.5 1429.17,-170.56 1446.67,-164.95 1462.62,-159.72"/>
<polygon fill="midnightblue" stroke="midnightblue" points="1463.92,-162.98 1472.33,-156.53 1461.74,-156.33 1463.92,-162.98"/>
</g>
<!-- Node18 -->
<g id="node18" class="node">
<title>Node18</title>
<g id="a_node18"><a xlink:href="classEventHandlerFactory.html#a2f843293b2ea47271fc7bd99bd871fa6" target="_top" xlink:title=" ">
<polygon fill="white" stroke="black" points="1460.5,-224.5 1460.5,-254.5 1575.5,-254.5 1575.5,-224.5 1460.5,-224.5"/>
<text text-anchor="start" x="1468.5" y="-242.5" font-family="Helvetica,sans-Serif" font-size="10.00">EventHandlerFactory</text>
<text text-anchor="middle" x="1518" y="-231.5" font-family="Helvetica,sans-Serif" font-size="10.00">::EventHandlerFactory</text>
</a>
</g>
</g>
<!-- Node16&#45;&gt;Node18 -->
<g id="edge17" class="edge">
<title>Node16&#45;&gt;Node18</title>
<path fill="none" stroke="midnightblue" d="M1378.74,-211.42C1400.97,-215.93 1426.97,-221.21 1450.4,-225.97"/>
<polygon fill="midnightblue" stroke="midnightblue" points="1449.76,-229.41 1460.26,-227.97 1451.15,-222.55 1449.76,-229.41"/>
</g>
<!-- Node16&#45;&gt;Node19 -->
<g id="edge20" class="edge">
<title>Node16&#45;&gt;Node19</title>
<path fill="none" stroke="midnightblue" d="M1378.66,-192.01C1390.77,-188.33 1402.98,-183.05 1413,-175.5 1437.23,-157.23 1422.49,-132.25 1449,-117.5 1518.24,-78.98 1613.05,-120.61 1662.48,-148.18"/>
<polygon fill="midnightblue" stroke="midnightblue" points="1661.04,-151.38 1671.45,-153.3 1664.51,-145.3 1661.04,-151.38"/>
</g>
<!-- Node20 -->
<g id="node20" class="node">
<title>Node20</title>
<g id="a_node20"><a xlink:href="classEventHandlerFactory.html#afa5ca0171c70b1a24f92b5c8dd00dc92" target="_top" xlink:title=" ">
<polygon fill="white" stroke="black" points="1463.5,-175.5 1463.5,-205.5 1572.5,-205.5 1572.5,-175.5 1463.5,-175.5"/>
<text text-anchor="start" x="1471.5" y="-193.5" font-family="Helvetica,sans-Serif" font-size="10.00">EventHandlerFactory</text>
<text text-anchor="middle" x="1518" y="-182.5" font-family="Helvetica,sans-Serif" font-size="10.00">::fallBackIdentifier</text>
</a>
</g>
</g>
<!-- Node16&#45;&gt;Node20 -->
<g id="edge19" class="edge">
<title>Node16&#45;&gt;Node20</title>
<path fill="none" stroke="midnightblue" d="M1378.74,-197.7C1401.84,-196.5 1429.02,-195.08 1453.15,-193.83"/>
<polygon fill="midnightblue" stroke="midnightblue" points="1453.47,-197.31 1463.27,-193.3 1453.11,-190.32 1453.47,-197.31"/>
</g>
<!-- Node18&#45;&gt;Node19 -->
<g id="edge18" class="edge">
<title>Node18&#45;&gt;Node19</title>
<path fill="none" stroke="midnightblue" d="M1563.06,-224.45C1571.06,-221.58 1579.31,-218.52 1587,-215.5 1609.11,-206.82 1633.39,-196.39 1653.37,-187.56"/>
<polygon fill="midnightblue" stroke="midnightblue" points="1654.79,-190.76 1662.51,-183.5 1651.95,-184.36 1654.79,-190.76"/>
</g>
<!-- Node21&#45;&gt;Node11 -->
<g id="edge23" class="edge">
<title>Node21&#45;&gt;Node11</title>
<path fill="none" stroke="midnightblue" d="M1141.62,-272.79C1155.47,-251.67 1191.42,-201.47 1235,-176.5 1243.96,-171.37 1254.15,-167.55 1264.33,-164.71"/>
<polygon fill="midnightblue" stroke="midnightblue" points="1265.19,-168.1 1274.05,-162.28 1263.5,-161.31 1265.19,-168.1"/>
</g>
<!-- Node21&#45;&gt;Node12 -->
<g id="edge28" class="edge">
<title>Node21&#45;&gt;Node12</title>
<path fill="none" stroke="midnightblue" d="M1139.12,-272.85C1149.54,-246.49 1182.27,-172.88 1235,-137.5 1237.94,-135.52 1241.06,-133.75 1244.29,-132.16"/>
<polygon fill="midnightblue" stroke="midnightblue" points="1245.85,-135.29 1253.65,-128.13 1243.08,-128.86 1245.85,-135.29"/>
</g>
<!-- Node21&#45;&gt;Node13 -->
<g id="edge36" class="edge">
<title>Node21&#45;&gt;Node13</title>
<path fill="none" stroke="midnightblue" d="M1141.85,-292.02C1153.52,-309.65 1179.06,-348.66 1199,-382.5 1215.97,-411.29 1208.79,-427.78 1235,-448.5 1240.89,-453.16 1247.62,-456.91 1254.68,-459.94"/>
<polygon fill="midnightblue" stroke="midnightblue" points="1253.86,-463.37 1264.45,-463.64 1256.34,-456.83 1253.86,-463.37"/>
</g>
<!-- Node21&#45;&gt;Node16 -->
<g id="edge37" class="edge">
<title>Node21&#45;&gt;Node16</title>
<path fill="none" stroke="midnightblue" d="M1149.76,-272.84C1168.58,-260.44 1203.07,-238.94 1235,-225.5 1242.79,-222.22 1251.13,-219.23 1259.48,-216.54"/>
<polygon fill="midnightblue" stroke="midnightblue" points="1260.71,-219.82 1269.23,-213.53 1258.65,-213.13 1260.71,-219.82"/>
</g>
<!-- Node21&#45;&gt;Node19 -->
<g id="edge38" class="edge">
<title>Node21&#45;&gt;Node19</title>
<path fill="none" stroke="midnightblue" d="M1186.52,-284.72C1288.9,-288.49 1515.67,-293.17 1587,-264.5 1624.83,-249.3 1658.25,-214.86 1677.68,-191.64"/>
<polygon fill="midnightblue" stroke="midnightblue" points="1680.59,-193.61 1684.19,-183.65 1675.16,-189.19 1680.59,-193.61"/>
</g>
<!-- Node22 -->
<g id="node22" class="node">
<title>Node22</title>
<g id="a_node22"><a xlink:href="classWinExtras.html#a3487e64cfb407033d7e28a761d1e76dc" target="_top" xlink:title=" ">
<polygon fill="white" stroke="black" points="1254,-349 1254,-368 1394,-368 1394,-349 1254,-349"/>
<text text-anchor="middle" x="1324" y="-356" font-family="Helvetica,sans-Serif" font-size="10.00">WinExtras::getDisplayString</text>
</a>
</g>
</g>
<!-- Node21&#45;&gt;Node22 -->
<g id="edge24" class="edge">
<title>Node21&#45;&gt;Node22</title>
<path fill="none" stroke="midnightblue" d="M1148.99,-292.04C1167.53,-304.71 1202.29,-326.95 1235,-339.5 1241.82,-342.12 1249.09,-344.41 1256.41,-346.42"/>
<polygon fill="midnightblue" stroke="midnightblue" points="1255.83,-349.88 1266.38,-348.97 1257.56,-343.1 1255.83,-349.88"/>
</g>
<!-- Node23 -->
<g id="node23" class="node">
<title>Node23</title>
<g id="a_node23"><a xlink:href="classUInputHelper.html#ac4c70c9479c1cc0eb515ab1bdf2426f5" target="_top" xlink:title=" ">
<polygon fill="white" stroke="black" points="1633,-407.5 1633,-437.5 1760,-437.5 1760,-407.5 1633,-407.5"/>
<text text-anchor="start" x="1641" y="-425.5" font-family="Helvetica,sans-Serif" font-size="10.00">UInputHelper::getDisplay</text>
<text text-anchor="middle" x="1696.5" y="-414.5" font-family="Helvetica,sans-Serif" font-size="10.00">String</text>
</a>
</g>
</g>
<!-- Node21&#45;&gt;Node23 -->
<g id="edge25" class="edge">
<title>Node21&#45;&gt;Node23</title>
<path fill="none" stroke="midnightblue" d="M1169.41,-292.1C1180.06,-296.53 1191.09,-302.8 1199,-311.5 1231.9,-347.69 1195.37,-386.83 1235,-415.5 1294.89,-458.84 1508.54,-443.22 1622.56,-431.2"/>
<polygon fill="midnightblue" stroke="midnightblue" points="1623.04,-434.67 1632.61,-430.13 1622.29,-427.71 1623.04,-434.67"/>
</g>
<!-- Node25 -->
<g id="node25" class="node">
<title>Node25</title>
<g id="a_node25"><a xlink:href="classX11Extras.html#abe710bac948c9802105a2d9d06815cac" target="_top" xlink:title="Get appropriate alias for a known KeySym string that might be blank or contain invalid characters whe...">
<polygon fill="white" stroke="black" points="1254,-235 1254,-254 1394,-254 1394,-235 1254,-235"/>
<text text-anchor="middle" x="1324" y="-242" font-family="Helvetica,sans-Serif" font-size="10.00">X11Extras::getDisplayString</text>
</a>
</g>
</g>
<!-- Node21&#45;&gt;Node25 -->
<g id="edge27" class="edge">
<title>Node21&#45;&gt;Node25</title>
<path fill="none" stroke="midnightblue" d="M1182.81,-272.91C1208.11,-267.78 1239.45,-261.43 1266.07,-256.04"/>
<polygon fill="midnightblue" stroke="midnightblue" points="1266.92,-259.44 1276.03,-254.02 1265.53,-252.58 1266.92,-259.44"/>
</g>
<!-- Node26 -->
<g id="node26" class="node">
<title>Node26</title>
<g id="a_node26"><a xlink:href="classUInputHelper.html#a61509601d3dbd8933aaa26c1e2db02f6" target="_top" xlink:title=" ">
<polygon fill="white" stroke="black" points="1258.5,-311 1258.5,-330 1389.5,-330 1389.5,-311 1258.5,-311"/>
<text text-anchor="middle" x="1324" y="-318" font-family="Helvetica,sans-Serif" font-size="10.00">UInputHelper::getInstance</text>
</a>
</g>
</g>
<!-- Node21&#45;&gt;Node26 -->
<g id="edge29" class="edge">
<title>Node21&#45;&gt;Node26</title>
<path fill="none" stroke="midnightblue" d="M1182.81,-292.09C1208.11,-297.22 1239.45,-303.57 1266.07,-308.96"/>
<polygon fill="midnightblue" stroke="midnightblue" points="1265.53,-312.42 1276.03,-310.98 1266.92,-305.56 1265.53,-312.42"/>
</g>
<!-- Node32 -->
<g id="node32" class="node">
<title>Node32</title>
<g id="a_node32"><a xlink:href="classWinExtras.html#a0bfa711c1abe72486dfebc8ff6fe7f5a" target="_top" xlink:title="Convert a virtual key into the corresponding keyboard scan code.">
<polygon fill="white" stroke="black" points="1235,-387 1235,-406 1413,-406 1413,-387 1235,-387"/>
<text text-anchor="middle" x="1324" y="-394" font-family="Helvetica,sans-Serif" font-size="10.00">WinExtras::scancodeFromVirtualKey</text>
</a>
</g>
</g>
<!-- Node21&#45;&gt;Node32 -->
<g id="edge39" class="edge">
<title>Node21&#45;&gt;Node32</title>
<path fill="none" stroke="midnightblue" d="M1142.52,-292.1C1157.29,-311.54 1193.64,-355.57 1235,-377.5 1239.46,-379.86 1244.2,-381.93 1249.07,-383.75"/>
<polygon fill="midnightblue" stroke="midnightblue" points="1247.97,-387.07 1258.56,-386.93 1250.19,-380.43 1247.97,-387.07"/>
</g>
<!-- Node24 -->
<g id="node24" class="node">
<title>Node24</title>
<g id="a_node24"><a xlink:href="classUInputHelper.html#a043b0fa7cf4ce5811d01d95f3ca318b7" target="_top" xlink:title=" ">
<polygon fill="white" stroke="black" points="1806,-407.5 1806,-437.5 1962,-437.5 1962,-407.5 1806,-407.5"/>
<text text-anchor="start" x="1814" y="-425.5" font-family="Helvetica,sans-Serif" font-size="10.00">UInputHelper::getKnownAliases</text>
<text text-anchor="middle" x="1884" y="-414.5" font-family="Helvetica,sans-Serif" font-size="10.00">VKStrings</text>
</a>
</g>
</g>
<!-- Node23&#45;&gt;Node24 -->
<g id="edge26" class="edge">
<title>Node23&#45;&gt;Node24</title>
<path fill="none" stroke="midnightblue" d="M1760.04,-422.5C1771.55,-422.5 1783.75,-422.5 1795.82,-422.5"/>
<polygon fill="midnightblue" stroke="midnightblue" points="1795.92,-426 1805.92,-422.5 1795.92,-419 1795.92,-426"/>
</g>
<!-- Node27 -->
<g id="node27" class="node">
<title>Node27</title>
<g id="a_node27"><a xlink:href="classUInputHelper.html#a5d56d23a0e0202435c7a5ff1aca9ce55" target="_top" xlink:title=" ">
<polygon fill="white" stroke="black" points="1449,-313 1449,-332 1587,-332 1587,-313 1449,-313"/>
<text text-anchor="middle" x="1518" y="-320" font-family="Helvetica,sans-Serif" font-size="10.00">UInputHelper::UInputHelper</text>
</a>
</g>
</g>
<!-- Node26&#45;&gt;Node27 -->
<g id="edge30" class="edge">
<title>Node26&#45;&gt;Node27</title>
<path fill="none" stroke="midnightblue" d="M1389.73,-321.17C1405.51,-321.34 1422.55,-321.52 1438.88,-321.69"/>
<polygon fill="midnightblue" stroke="midnightblue" points="1438.9,-325.19 1448.94,-321.79 1438.97,-318.19 1438.9,-325.19"/>
</g>
<!-- Node28 -->
<g id="node28" class="node">
<title>Node28</title>
<g id="a_node28"><a xlink:href="classUInputHelper.html#a0f4dbb4221502d86f7d0af12a9865568" target="_top" xlink:title=" ">
<polygon fill="white" stroke="black" points="1623,-307.5 1623,-337.5 1770,-337.5 1770,-307.5 1623,-307.5"/>
<text text-anchor="start" x="1631" y="-325.5" font-family="Helvetica,sans-Serif" font-size="10.00">UInputHelper::populateKnown</text>
<text text-anchor="middle" x="1696.5" y="-314.5" font-family="Helvetica,sans-Serif" font-size="10.00">Aliases</text>
</a>
</g>
</g>
<!-- Node27&#45;&gt;Node28 -->
<g id="edge31" class="edge">
<title>Node27&#45;&gt;Node28</title>
<path fill="none" stroke="midnightblue" d="M1587.24,-322.5C1595.52,-322.5 1604.04,-322.5 1612.5,-322.5"/>
<polygon fill="midnightblue" stroke="midnightblue" points="1612.76,-326 1622.76,-322.5 1612.76,-319 1612.76,-326"/>
</g>
<!-- Node28&#45;&gt;Node24 -->
<g id="edge32" class="edge">
<title>Node28&#45;&gt;Node24</title>
<path fill="none" stroke="midnightblue" d="M1716.12,-337.55C1736.99,-353.83 1772.32,-379.73 1806,-396.5 1811.18,-399.08 1816.67,-401.5 1822.25,-403.74"/>
<polygon fill="midnightblue" stroke="midnightblue" points="1821.08,-407.04 1831.67,-407.36 1823.59,-400.51 1821.08,-407.04"/>
</g>
<!-- Node29 -->
<g id="node29" class="node">
<title>Node29</title>
<g id="a_node29"><a xlink:href="classUInputHelper.html#a8f3fe71ae635cd3c46eaab79dd11c2e0" target="_top" xlink:title=" ">
<polygon fill="white" stroke="black" points="1806,-356.5 1806,-386.5 1962,-386.5 1962,-356.5 1806,-356.5"/>
<text text-anchor="start" x="1814" y="-374.5" font-family="Helvetica,sans-Serif" font-size="10.00">UInputHelper::getKnownAliases</text>
<text text-anchor="middle" x="1884" y="-363.5" font-family="Helvetica,sans-Serif" font-size="10.00">X11SymVK</text>
</a>
</g>
</g>
<!-- Node28&#45;&gt;Node29 -->
<g id="edge33" class="edge">
<title>Node28&#45;&gt;Node29</title>
<path fill="none" stroke="midnightblue" d="M1754.42,-337.53C1774,-342.71 1796.11,-348.55 1816.4,-353.91"/>
<polygon fill="midnightblue" stroke="midnightblue" points="1815.63,-357.32 1826.19,-356.49 1817.42,-350.56 1815.63,-357.32"/>
</g>
<!-- Node30 -->
<g id="node30" class="node">
<title>Node30</title>
<g id="a_node30"><a xlink:href="classUInputHelper.html#a9793030329fbbe1106b255814ef2bd0f" target="_top" xlink:title=" ">
<polygon fill="white" stroke="black" points="1817,-307.5 1817,-337.5 1951,-337.5 1951,-307.5 1817,-307.5"/>
<text text-anchor="start" x="1825" y="-325.5" font-family="Helvetica,sans-Serif" font-size="10.00">UInputHelper::populateX11</text>
<text text-anchor="middle" x="1884" y="-314.5" font-family="Helvetica,sans-Serif" font-size="10.00">SymVk</text>
</a>
</g>
</g>
<!-- Node28&#45;&gt;Node30 -->
<g id="edge34" class="edge">
<title>Node28&#45;&gt;Node30</title>
<path fill="none" stroke="midnightblue" d="M1770.02,-322.5C1782.08,-322.5 1794.63,-322.5 1806.79,-322.5"/>
<polygon fill="midnightblue" stroke="midnightblue" points="1806.89,-326 1816.89,-322.5 1806.89,-319 1806.89,-326"/>
</g>
<!-- Node31 -->
<g id="node31" class="node">
<title>Node31</title>
<g id="a_node31"><a xlink:href="classUInputHelper.html#af02574de230bb0550eebb63f5a669681" target="_top" xlink:title=" ">
<polygon fill="white" stroke="black" points="1816,-258.5 1816,-288.5 1952,-288.5 1952,-258.5 1816,-258.5"/>
<text text-anchor="start" x="1824" y="-276.5" font-family="Helvetica,sans-Serif" font-size="10.00">UInputHelper::populateXVk</text>
<text text-anchor="middle" x="1884" y="-265.5" font-family="Helvetica,sans-Serif" font-size="10.00">Strings</text>
</a>
</g>
</g>
<!-- Node28&#45;&gt;Node31 -->
<g id="edge35" class="edge">
<title>Node28&#45;&gt;Node31</title>
<path fill="none" stroke="midnightblue" d="M1754.42,-307.47C1774,-302.29 1796.11,-296.45 1816.4,-291.09"/>
<polygon fill="midnightblue" stroke="midnightblue" points="1817.42,-294.44 1826.19,-288.51 1815.63,-287.68 1817.42,-294.44"/>
</g>
<!-- Node37&#45;&gt;Node5 -->
<g id="edge46" class="edge">
<title>Node37&#45;&gt;Node5</title>
<path fill="none" stroke="midnightblue" d="M423.54,-203.16C442.94,-216.87 481.1,-241.32 518,-250.5 579.68,-265.84 599.57,-266.81 661,-250.5 693.17,-241.96 725.77,-220.98 745.92,-206.25"/>
<polygon fill="midnightblue" stroke="midnightblue" points="748.11,-208.98 754.01,-200.18 743.91,-203.39 748.11,-208.98"/>
</g>
<!-- Node37&#45;&gt;Node34 -->
<g id="edge47" class="edge">
<title>Node37&#45;&gt;Node34</title>
<path fill="none" stroke="midnightblue" d="M482.13,-193.5C492.75,-193.5 503.7,-193.5 514.37,-193.5"/>
<polygon fill="midnightblue" stroke="midnightblue" points="514.48,-197 524.48,-193.5 514.48,-190 514.48,-197"/>
</g>
<!-- Node37&#45;&gt;Node35 -->
<g id="edge49" class="edge">
<title>Node37&#45;&gt;Node35</title>
<path fill="none" stroke="midnightblue" d="M455.42,-183.91C479.33,-178.81 508.92,-172.49 534.12,-167.11"/>
<polygon fill="midnightblue" stroke="midnightblue" points="534.86,-170.53 543.91,-165.02 533.4,-163.69 534.86,-170.53"/>
</g>
<!-- Node38 -->
<g id="node38" class="node">
<title>Node38</title>
<g id="a_node38"><a xlink:href="classJoyButton.html#ae1d364dfa70f47fae3db99ffbcdea44b" target="_top" xlink:title=" ">
<polygon fill="white" stroke="black" points="518,-222 518,-241 661,-241 661,-222 518,-222"/>
<text text-anchor="middle" x="589.5" y="-229" font-family="Helvetica,sans-Serif" font-size="10.00">JoyButton::getAssignedSlots</text>
</a>
</g>
</g>
<!-- Node37&#45;&gt;Node38 -->
<g id="edge48" class="edge">
<title>Node37&#45;&gt;Node38</title>
<path fill="none" stroke="midnightblue" d="M455.42,-203.09C479.33,-208.19 508.92,-214.51 534.12,-219.89"/>
<polygon fill="midnightblue" stroke="midnightblue" points="533.4,-223.31 543.91,-221.98 534.86,-216.47 533.4,-223.31"/>
</g>
</g>
</svg>
