<?xml version="1.0" encoding="UTF-8" standalone="no"?>
<!DOCTYPE svg PUBLIC "-//W3C//DTD SVG 1.1//EN"
 "http://www.w3.org/Graphics/SVG/1.1/DTD/svg11.dtd">
<!-- Generated by graphviz version 2.43.0 (0)
 -->
<!-- Title: AutoProfileWatcher::findAppLocation Pages: 1 -->
<svg width="653pt" height="209pt"
 viewBox="0.00 0.00 653.00 209.00" xmlns="http://www.w3.org/2000/svg" xmlns:xlink="http://www.w3.org/1999/xlink">
<g id="graph0" class="graph" transform="scale(1 1) rotate(0) translate(4 205)">
<title>AutoProfileWatcher::findAppLocation</title>
<polygon fill="white" stroke="transparent" points="-4,4 -4,-205 649,-205 649,4 -4,4"/>
<!-- Node1 -->
<g id="node1" class="node">
<title>Node1</title>
<g id="a_node1"><a xlink:title=" ">
<polygon fill="#bfbfbf" stroke="black" points="0,-82.5 0,-112.5 101,-112.5 101,-82.5 0,-82.5"/>
<text text-anchor="start" x="8" y="-100.5" font-family="Helvetica,sans-Serif" font-size="10.00">AutoProfileWatcher</text>
<text text-anchor="middle" x="50.5" y="-89.5" font-family="Helvetica,sans-Serif" font-size="10.00">::findAppLocation</text>
</a>
</g>
</g>
<!-- Node2 -->
<g id="node2" class="node">
<title>Node2</title>
<g id="a_node2"><a xlink:href="classX11Extras.html#a1a495d6ed3faab16025c918e4dc00e44" target="_top" xlink:title="Find the application file location for a given PID.">
<polygon fill="white" stroke="black" points="144,-170.5 144,-200.5 274,-200.5 274,-170.5 144,-170.5"/>
<text text-anchor="start" x="152" y="-188.5" font-family="Helvetica,sans-Serif" font-size="10.00">X11Extras::getApplication</text>
<text text-anchor="middle" x="209" y="-177.5" font-family="Helvetica,sans-Serif" font-size="10.00">Location</text>
</a>
</g>
</g>
<!-- Node1&#45;&gt;Node2 -->
<g id="edge1" class="edge">
<title>Node1&#45;&gt;Node2</title>
<path fill="none" stroke="midnightblue" d="M68.81,-112.67C85.39,-126.59 111.58,-147.04 137,-160.5 141.01,-162.62 145.23,-164.63 149.54,-166.51"/>
<polygon fill="midnightblue" stroke="midnightblue" points="148.48,-169.86 159.06,-170.43 151.14,-163.38 148.48,-169.86"/>
</g>
<!-- Node3 -->
<g id="node3" class="node">
<title>Node3</title>
<g id="a_node3"><a xlink:href="classX11Extras.html#a5ca91422edbd69ea7189538dca43f2b1" target="_top" xlink:title="Check window and any parents for the window property &quot;_NET_WM_PID&quot;.">
<polygon fill="white" stroke="black" points="137,-132 137,-151 281,-151 281,-132 137,-132"/>
<text text-anchor="middle" x="209" y="-139" font-family="Helvetica,sans-Serif" font-size="10.00">X11Extras::getApplicationPid</text>
</a>
</g>
</g>
<!-- Node1&#45;&gt;Node3 -->
<g id="edge2" class="edge">
<title>Node1&#45;&gt;Node3</title>
<path fill="none" stroke="midnightblue" d="M101.18,-112.23C112.91,-115.66 125.38,-119.25 137,-122.5 145.13,-124.77 153.79,-127.14 162.17,-129.4"/>
<polygon fill="midnightblue" stroke="midnightblue" points="161.27,-132.78 171.84,-131.99 163.08,-126.02 161.27,-132.78"/>
</g>
<!-- Node8 -->
<g id="node8" class="node">
<title>Node8</title>
<g id="a_node8"><a xlink:href="classWinExtras.html#a71cc9f5d653d596a27c72847b5e403ce" target="_top" xlink:title="Check foreground window (window in focus) and obtain the corresponding exe file path.">
<polygon fill="white" stroke="black" points="143.5,-82.5 143.5,-112.5 274.5,-112.5 274.5,-82.5 143.5,-82.5"/>
<text text-anchor="start" x="151.5" y="-100.5" font-family="Helvetica,sans-Serif" font-size="10.00">WinExtras::getForeground</text>
<text text-anchor="middle" x="209" y="-89.5" font-family="Helvetica,sans-Serif" font-size="10.00">WindowExePath</text>
</a>
</g>
</g>
<!-- Node1&#45;&gt;Node8 -->
<g id="edge9" class="edge">
<title>Node1&#45;&gt;Node8</title>
<path fill="none" stroke="midnightblue" d="M101.02,-97.5C111.3,-97.5 122.36,-97.5 133.31,-97.5"/>
<polygon fill="midnightblue" stroke="midnightblue" points="133.33,-101 143.33,-97.5 133.33,-94 133.33,-101"/>
</g>
<!-- Node9 -->
<g id="node9" class="node">
<title>Node9</title>
<g id="a_node9"><a xlink:href="classX11Extras.html#ace76277fced60e6bd6ff880030338182" target="_top" xlink:title=" ">
<polygon fill="white" stroke="black" points="149.5,-6 149.5,-25 268.5,-25 268.5,-6 149.5,-6"/>
<text text-anchor="middle" x="209" y="-13" font-family="Helvetica,sans-Serif" font-size="10.00">X11Extras::getInstance</text>
</a>
</g>
</g>
<!-- Node1&#45;&gt;Node9 -->
<g id="edge10" class="edge">
<title>Node1&#45;&gt;Node9</title>
<path fill="none" stroke="midnightblue" d="M70.61,-82.31C87.35,-69.56 112.74,-51.55 137,-39.5 145.47,-35.29 154.86,-31.54 163.96,-28.32"/>
<polygon fill="midnightblue" stroke="midnightblue" points="165.31,-31.56 173.66,-25.04 163.07,-24.93 165.31,-31.56"/>
</g>
<!-- Node12 -->
<g id="node12" class="node">
<title>Node12</title>
<g id="a_node12"><a xlink:href="classX11Extras.html#af0461fc5624d3d74bc19b1cd888d8498" target="_top" xlink:title=" ">
<polygon fill="white" stroke="black" points="319.5,-47 319.5,-66 471.5,-66 471.5,-47 319.5,-47"/>
<text text-anchor="middle" x="395.5" y="-54" font-family="Helvetica,sans-Serif" font-size="10.00">X11Extras::getWindowInFocus</text>
</a>
</g>
</g>
<!-- Node1&#45;&gt;Node12 -->
<g id="edge13" class="edge">
<title>Node1&#45;&gt;Node12</title>
<path fill="none" stroke="midnightblue" d="M98.59,-82.4C110.97,-78.95 124.39,-75.66 137,-73.5 193.91,-63.74 258.77,-59.5 309.17,-57.7"/>
<polygon fill="midnightblue" stroke="midnightblue" points="309.49,-61.19 319.37,-57.36 309.26,-54.19 309.49,-61.19"/>
</g>
<!-- Node4 -->
<g id="node4" class="node">
<title>Node4</title>
<g id="a_node4"><a xlink:href="classX11Extras.html#a9affa85055348376e96413c5c526947d" target="_top" xlink:title=" ">
<polygon fill="white" stroke="black" points="329.5,-124.5 329.5,-154.5 461.5,-154.5 461.5,-124.5 329.5,-124.5"/>
<text text-anchor="start" x="337.5" y="-142.5" font-family="Helvetica,sans-Serif" font-size="10.00">X11Extras::checkProperty</text>
<text text-anchor="middle" x="395.5" y="-131.5" font-family="Helvetica,sans-Serif" font-size="10.00">OnWin</text>
</a>
</g>
</g>
<!-- Node3&#45;&gt;Node4 -->
<g id="edge3" class="edge">
<title>Node3&#45;&gt;Node4</title>
<path fill="none" stroke="midnightblue" d="M281.07,-140.73C293.44,-140.6 306.35,-140.46 318.84,-140.32"/>
<polygon fill="midnightblue" stroke="midnightblue" points="319.25,-143.82 329.21,-140.21 319.17,-136.82 319.25,-143.82"/>
</g>
<!-- Node5 -->
<g id="node5" class="node">
<title>Node5</title>
<g id="a_node5"><a xlink:href="classX11Extras.html#a643c95dc1de8eb073a0accb41619fe83" target="_top" xlink:title="Get display instance.">
<polygon fill="white" stroke="black" points="528,-108 528,-127 627,-127 627,-108 528,-108"/>
<text text-anchor="middle" x="577.5" y="-115" font-family="Helvetica,sans-Serif" font-size="10.00">X11Extras::display</text>
</a>
</g>
</g>
<!-- Node3&#45;&gt;Node5 -->
<g id="edge5" class="edge">
<title>Node3&#45;&gt;Node5</title>
<path fill="none" stroke="midnightblue" d="M245.41,-131.93C270.96,-125.21 303.29,-117.14 317,-115.5 385.57,-107.29 465.06,-109.63 517.81,-112.83"/>
<polygon fill="midnightblue" stroke="midnightblue" points="517.79,-116.33 527.99,-113.47 518.23,-109.35 517.79,-116.33"/>
</g>
<!-- Node6 -->
<g id="node6" class="node">
<title>Node6</title>
<g id="a_node6"><a xlink:href="classX11Extras.html#a44556cc9630d8685f1978b258c40679d" target="_top" xlink:title=" ">
<polygon fill="white" stroke="black" points="317,-174 317,-193 474,-193 474,-174 317,-174"/>
<text text-anchor="middle" x="395.5" y="-181" font-family="Helvetica,sans-Serif" font-size="10.00">X11Extras::windowHasProperty</text>
</a>
</g>
</g>
<!-- Node3&#45;&gt;Node6 -->
<g id="edge6" class="edge">
<title>Node3&#45;&gt;Node6</title>
<path fill="none" stroke="midnightblue" d="M251.87,-151.03C278.78,-157.16 313.95,-165.16 342.63,-171.69"/>
<polygon fill="midnightblue" stroke="midnightblue" points="341.95,-175.13 352.48,-173.93 343.51,-168.3 341.95,-175.13"/>
</g>
<!-- Node4&#45;&gt;Node5 -->
<g id="edge4" class="edge">
<title>Node4&#45;&gt;Node5</title>
<path fill="none" stroke="midnightblue" d="M461.74,-131.53C480.07,-129.29 499.9,-126.86 517.83,-124.67"/>
<polygon fill="midnightblue" stroke="midnightblue" points="518.35,-128.13 527.85,-123.45 517.5,-121.19 518.35,-128.13"/>
</g>
<!-- Node6&#45;&gt;Node5 -->
<g id="edge7" class="edge">
<title>Node6&#45;&gt;Node5</title>
<path fill="none" stroke="midnightblue" d="M441.59,-173.97C452.33,-171.29 463.66,-168.1 474,-164.5 500.33,-155.33 529.1,-141.81 549.43,-131.63"/>
<polygon fill="midnightblue" stroke="midnightblue" points="551.08,-134.71 558.42,-127.07 547.91,-128.47 551.08,-134.71"/>
</g>
<!-- Node7 -->
<g id="node7" class="node">
<title>Node7</title>
<g id="a_node7"><a xlink:href="x11extras_8cpp.html#abd96e3a47ad21173e08bc83e90a98fda" target="_top" xlink:title=" ">
<polygon fill="white" stroke="black" points="543.5,-174 543.5,-193 611.5,-193 611.5,-174 543.5,-174"/>
<text text-anchor="middle" x="577.5" y="-181" font-family="Helvetica,sans-Serif" font-size="10.00">freeWindow</text>
</a>
</g>
</g>
<!-- Node6&#45;&gt;Node7 -->
<g id="edge8" class="edge">
<title>Node6&#45;&gt;Node7</title>
<path fill="none" stroke="midnightblue" d="M474.14,-183.5C494.35,-183.5 515.4,-183.5 533.11,-183.5"/>
<polygon fill="midnightblue" stroke="midnightblue" points="533.13,-187 543.13,-183.5 533.13,-180 533.13,-187"/>
</g>
<!-- Node10 -->
<g id="node10" class="node">
<title>Node10</title>
<g id="a_node10"><a xlink:href="classX11Extras.html#ab9bcb016e23bacb0e988feb8175d2c88" target="_top" xlink:title=" ">
<polygon fill="white" stroke="black" points="338.5,-6 338.5,-25 452.5,-25 452.5,-6 338.5,-6"/>
<text text-anchor="middle" x="395.5" y="-13" font-family="Helvetica,sans-Serif" font-size="10.00">X11Extras::X11Extras</text>
</a>
</g>
</g>
<!-- Node9&#45;&gt;Node10 -->
<g id="edge11" class="edge">
<title>Node9&#45;&gt;Node10</title>
<path fill="none" stroke="midnightblue" d="M268.63,-15.5C287.59,-15.5 308.74,-15.5 328.22,-15.5"/>
<polygon fill="midnightblue" stroke="midnightblue" points="328.23,-19 338.23,-15.5 328.23,-12 328.23,-19"/>
</g>
<!-- Node11 -->
<g id="node11" class="node">
<title>Node11</title>
<g id="a_node11"><a xlink:href="classX11Extras.html#a6f63e77ed045e174546d77333672b8f0" target="_top" xlink:title=" ">
<polygon fill="white" stroke="black" points="510,-0.5 510,-30.5 645,-30.5 645,-0.5 510,-0.5"/>
<text text-anchor="start" x="518" y="-18.5" font-family="Helvetica,sans-Serif" font-size="10.00">X11Extras::populateKnown</text>
<text text-anchor="middle" x="577.5" y="-7.5" font-family="Helvetica,sans-Serif" font-size="10.00">Aliases</text>
</a>
</g>
</g>
<!-- Node10&#45;&gt;Node11 -->
<g id="edge12" class="edge">
<title>Node10&#45;&gt;Node11</title>
<path fill="none" stroke="midnightblue" d="M452.96,-15.5C467.76,-15.5 483.97,-15.5 499.64,-15.5"/>
<polygon fill="midnightblue" stroke="midnightblue" points="499.84,-19 509.84,-15.5 499.84,-12 499.84,-19"/>
</g>
<!-- Node12&#45;&gt;Node5 -->
<g id="edge14" class="edge">
<title>Node12&#45;&gt;Node5</title>
<path fill="none" stroke="midnightblue" d="M426.74,-66.06C441.09,-70.64 458.46,-76.26 474,-81.5 496.17,-88.97 520.92,-97.65 540.55,-104.62"/>
<polygon fill="midnightblue" stroke="midnightblue" points="539.42,-107.93 550.02,-107.99 541.77,-101.34 539.42,-107.93"/>
</g>
</g>
</svg>
