<?xml version="1.0" encoding="UTF-8" standalone="no"?>
<!DOCTYPE svg PUBLIC "-//W3C//DTD SVG 1.1//EN"
 "http://www.w3.org/Graphics/SVG/1.1/DTD/svg11.dtd">
<!-- Generated by graphviz version 2.43.0 (0)
 -->
<!-- Title: AddEditAutoProfileDialog::getAutoProfile Pages: 1 -->
<svg width="651pt" height="88pt"
 viewBox="0.00 0.00 651.00 88.00" xmlns="http://www.w3.org/2000/svg" xmlns:xlink="http://www.w3.org/1999/xlink">
<g id="graph0" class="graph" transform="scale(1 1) rotate(0) translate(4 84)">
<title>AddEditAutoProfileDialog::getAutoProfile</title>
<polygon fill="white" stroke="transparent" points="-4,4 -4,-84 647,-84 647,4 -4,4"/>
<!-- Node1 -->
<g id="node1" class="node">
<title>Node1</title>
<g id="a_node1"><a xlink:title=" ">
<polygon fill="#bfbfbf" stroke="black" points="516,-24.5 516,-54.5 643,-54.5 643,-24.5 516,-24.5"/>
<text text-anchor="start" x="524" y="-42.5" font-family="Helvetica,sans-Serif" font-size="10.00">AddEditAutoProfileDialog</text>
<text text-anchor="middle" x="579.5" y="-31.5" font-family="Helvetica,sans-Serif" font-size="10.00">::getAutoProfile</text>
</a>
</g>
</g>
<!-- Node2 -->
<g id="node2" class="node">
<title>Node2</title>
<g id="a_node2"><a xlink:href="classMainSettingsDialog.html#a93b08d27242d0c828ef66623b30b9645" target="_top" xlink:title=" ">
<polygon fill="white" stroke="black" points="344.5,-49.5 344.5,-79.5 451.5,-79.5 451.5,-49.5 344.5,-49.5"/>
<text text-anchor="start" x="352.5" y="-67.5" font-family="Helvetica,sans-Serif" font-size="10.00">MainSettingsDialog</text>
<text text-anchor="middle" x="398" y="-56.5" font-family="Helvetica,sans-Serif" font-size="10.00">::addNewAutoProfile</text>
</a>
</g>
</g>
<!-- Node1&#45;&gt;Node2 -->
<g id="edge1" class="edge">
<title>Node1&#45;&gt;Node2</title>
<path fill="none" stroke="midnightblue" d="M506.01,-49.6C487.87,-52.12 468.75,-54.78 451.78,-57.15"/>
<polygon fill="midnightblue" stroke="midnightblue" points="506.55,-53.05 515.97,-48.21 505.58,-46.12 506.55,-53.05"/>
</g>
<!-- Node5 -->
<g id="node5" class="node">
<title>Node5</title>
<g id="a_node5"><a xlink:href="classMainSettingsDialog.html#a4436dd11af937b91f0c1c6f18601d976" target="_top" xlink:title=" ">
<polygon fill="white" stroke="black" points="316,-0.5 316,-30.5 480,-30.5 480,-0.5 316,-0.5"/>
<text text-anchor="start" x="324" y="-18.5" font-family="Helvetica,sans-Serif" font-size="10.00">MainSettingsDialog</text>
<text text-anchor="middle" x="398" y="-7.5" font-family="Helvetica,sans-Serif" font-size="10.00">::transferEditsToCurrentTableRow</text>
</a>
</g>
</g>
<!-- Node1&#45;&gt;Node5 -->
<g id="edge4" class="edge">
<title>Node1&#45;&gt;Node5</title>
<path fill="none" stroke="midnightblue" d="M505.82,-29.78C497.4,-28.66 488.77,-27.5 480.25,-26.36"/>
<polygon fill="midnightblue" stroke="midnightblue" points="505.6,-33.28 515.97,-31.14 506.52,-26.35 505.6,-33.28"/>
</g>
<!-- Node3 -->
<g id="node3" class="node">
<title>Node3</title>
<g id="a_node3"><a xlink:href="classMainSettingsDialog.html#a8395cc7c66e5b30092f4b36f3e47a808" target="_top" xlink:title=" ">
<polygon fill="white" stroke="black" points="143,-49.5 143,-79.5 280,-79.5 280,-49.5 143,-49.5"/>
<text text-anchor="start" x="151" y="-67.5" font-family="Helvetica,sans-Serif" font-size="10.00">MainSettingsDialog</text>
<text text-anchor="middle" x="211.5" y="-56.5" font-family="Helvetica,sans-Serif" font-size="10.00">::openAddAutoProfileDialog</text>
</a>
</g>
</g>
<!-- Node2&#45;&gt;Node3 -->
<g id="edge2" class="edge">
<title>Node2&#45;&gt;Node3</title>
<path fill="none" stroke="midnightblue" d="M334.11,-64.5C316.74,-64.5 297.83,-64.5 280.21,-64.5"/>
<polygon fill="midnightblue" stroke="midnightblue" points="334.13,-68 344.13,-64.5 334.13,-61 334.13,-68"/>
</g>
<!-- Node4 -->
<g id="node4" class="node">
<title>Node4</title>
<g id="a_node4"><a xlink:href="classMainSettingsDialog.html#aeee272ff5482aca59310558ffdb9ebbe" target="_top" xlink:title=" ">
<polygon fill="white" stroke="black" points="0,-24.5 0,-54.5 107,-54.5 107,-24.5 0,-24.5"/>
<text text-anchor="start" x="8" y="-42.5" font-family="Helvetica,sans-Serif" font-size="10.00">MainSettingsDialog</text>
<text text-anchor="middle" x="53.5" y="-31.5" font-family="Helvetica,sans-Serif" font-size="10.00">::MainSettingsDialog</text>
</a>
</g>
</g>
<!-- Node3&#45;&gt;Node4 -->
<g id="edge3" class="edge">
<title>Node3&#45;&gt;Node4</title>
<path fill="none" stroke="midnightblue" d="M133.07,-52.09C124.26,-50.68 115.45,-49.27 107.07,-47.92"/>
<polygon fill="midnightblue" stroke="midnightblue" points="132.56,-55.55 142.98,-53.68 133.66,-48.64 132.56,-55.55"/>
</g>
<!-- Node6 -->
<g id="node6" class="node">
<title>Node6</title>
<g id="a_node6"><a xlink:href="classMainSettingsDialog.html#ad5b67a6742eafcd666fc73752f94a638" target="_top" xlink:title=" ">
<polygon fill="white" stroke="black" points="143,-0.5 143,-30.5 280,-30.5 280,-0.5 143,-0.5"/>
<text text-anchor="start" x="151" y="-18.5" font-family="Helvetica,sans-Serif" font-size="10.00">MainSettingsDialog</text>
<text text-anchor="middle" x="211.5" y="-7.5" font-family="Helvetica,sans-Serif" font-size="10.00">::openEditAutoProfileDialog</text>
</a>
</g>
</g>
<!-- Node5&#45;&gt;Node6 -->
<g id="edge5" class="edge">
<title>Node5&#45;&gt;Node6</title>
<path fill="none" stroke="midnightblue" d="M305.73,-15.5C297.13,-15.5 288.52,-15.5 280.19,-15.5"/>
<polygon fill="midnightblue" stroke="midnightblue" points="305.81,-19 315.81,-15.5 305.81,-12 305.81,-19"/>
</g>
<!-- Node6&#45;&gt;Node4 -->
<g id="edge6" class="edge">
<title>Node6&#45;&gt;Node4</title>
<path fill="none" stroke="midnightblue" d="M133.07,-27.41C124.26,-28.77 115.45,-30.12 107.07,-31.41"/>
<polygon fill="midnightblue" stroke="midnightblue" points="133.63,-30.87 142.98,-25.89 132.57,-23.95 133.63,-30.87"/>
</g>
</g>
</svg>
