<?xml version="1.0" encoding="UTF-8" standalone="no"?>
<!DOCTYPE svg PUBLIC "-//W3C//DTD SVG 1.1//EN"
 "http://www.w3.org/Graphics/SVG/1.1/DTD/svg11.dtd">
<!-- Generated by graphviz version 2.43.0 (0)
 -->
<!-- Title: JoyTabWidget::isDisplayingNames Pages: 1 -->
<svg width="802pt" height="180pt"
 viewBox="0.00 0.00 802.00 180.00" xmlns="http://www.w3.org/2000/svg" xmlns:xlink="http://www.w3.org/1999/xlink">
<g id="graph0" class="graph" transform="scale(1 1) rotate(0) translate(4 176)">
<title>JoyTabWidget::isDisplayingNames</title>
<polygon fill="white" stroke="transparent" points="-4,4 -4,-176 798,-176 798,4 -4,4"/>
<!-- Node1 -->
<g id="node1" class="node">
<title>Node1</title>
<g id="a_node1"><a xlink:title=" ">
<polygon fill="#bfbfbf" stroke="black" points="656,-17 656,-47 794,-47 794,-17 656,-17"/>
<text text-anchor="start" x="664" y="-35" font-family="Helvetica,sans-Serif" font-size="10.00">JoyTabWidget::isDisplaying</text>
<text text-anchor="middle" x="725" y="-24" font-family="Helvetica,sans-Serif" font-size="10.00">Names</text>
</a>
</g>
</g>
<!-- Node2 -->
<g id="node2" class="node">
<title>Node2</title>
<g id="a_node2"><a xlink:href="classMainWindow.html#a627932aa1841755a0d029f2390914cc1" target="_top" xlink:title=" ">
<polygon fill="white" stroke="black" points="473,-55 473,-85 620,-85 620,-55 473,-55"/>
<text text-anchor="start" x="481" y="-73" font-family="Helvetica,sans-Serif" font-size="10.00">MainWindow::propogateName</text>
<text text-anchor="middle" x="546.5" y="-62" font-family="Helvetica,sans-Serif" font-size="10.00">DisplayStatus</text>
</a>
</g>
</g>
<!-- Node1&#45;&gt;Node2 -->
<g id="edge1" class="edge">
<title>Node1&#45;&gt;Node2</title>
<path fill="none" stroke="midnightblue" d="M645.91,-48.81C636.39,-50.86 626.7,-52.95 617.31,-54.97"/>
<polygon fill="midnightblue" stroke="midnightblue" points="646.72,-52.22 655.76,-46.69 645.25,-45.38 646.72,-52.22"/>
</g>
<!-- Node8 -->
<g id="node8" class="node">
<title>Node8</title>
<g id="a_node8"><a xlink:href="classMainWindow.html#a2c35d5c779a997e6e9c5f440bf7c22a2" target="_top" xlink:title=" ">
<polygon fill="white" stroke="black" points="74,-0.5 74,-19.5 218,-19.5 218,-0.5 74,-0.5"/>
<text text-anchor="middle" x="146" y="-7.5" font-family="Helvetica,sans-Serif" font-size="10.00">MainWindow::saveAppConfig</text>
</a>
</g>
</g>
<!-- Node1&#45;&gt;Node8 -->
<g id="edge10" class="edge">
<title>Node1&#45;&gt;Node8</title>
<path fill="none" stroke="midnightblue" d="M645.55,-29.01C532.82,-24.71 326.68,-16.85 218.15,-12.71"/>
<polygon fill="midnightblue" stroke="midnightblue" points="645.7,-32.52 655.83,-29.4 645.97,-25.52 645.7,-32.52"/>
</g>
<!-- Node3 -->
<g id="node3" class="node">
<title>Node3</title>
<g id="a_node3"><a xlink:href="classMainWindow.html#a9738583d1ab872fb2784c0faee89cb46" target="_top" xlink:title=" ">
<polygon fill="white" stroke="black" points="83.5,-152.5 83.5,-171.5 208.5,-171.5 208.5,-152.5 83.5,-152.5"/>
<text text-anchor="middle" x="146" y="-159.5" font-family="Helvetica,sans-Serif" font-size="10.00">MainWindow::addJoyTab</text>
</a>
</g>
</g>
<!-- Node2&#45;&gt;Node3 -->
<g id="edge2" class="edge">
<title>Node2&#45;&gt;Node3</title>
<path fill="none" stroke="midnightblue" d="M493.22,-88.24C475.5,-94.05 455.51,-100.21 437,-105 357.89,-125.46 264.98,-142.52 206.06,-152.5"/>
<polygon fill="midnightblue" stroke="midnightblue" points="494.42,-91.53 502.81,-85.06 492.22,-84.89 494.42,-91.53"/>
</g>
<!-- Node5 -->
<g id="node5" class="node">
<title>Node5</title>
<g id="a_node5"><a xlink:href="classMainWindow.html#aef8941c9dc542d8ff8416fff1caf8ad7" target="_top" xlink:title=" ">
<polygon fill="white" stroke="black" points="275.5,-76.5 275.5,-95.5 415.5,-95.5 415.5,-76.5 275.5,-76.5"/>
<text text-anchor="middle" x="345.5" y="-83.5" font-family="Helvetica,sans-Serif" font-size="10.00">MainWindow::fillButtonsMap</text>
</a>
</g>
</g>
<!-- Node2&#45;&gt;Node5 -->
<g id="edge4" class="edge">
<title>Node2&#45;&gt;Node5</title>
<path fill="none" stroke="midnightblue" d="M462.64,-76.66C447.02,-77.92 430.83,-79.22 415.68,-80.44"/>
<polygon fill="midnightblue" stroke="midnightblue" points="463.12,-80.13 472.81,-75.84 462.56,-73.16 463.12,-80.13"/>
</g>
<!-- Node7 -->
<g id="node7" class="node">
<title>Node7</title>
<g id="a_node7"><a xlink:href="classMainWindow.html#a2a0aba59f5d3bf3c6fb97f0de103b36f" target="_top" xlink:title=" ">
<polygon fill="white" stroke="black" points="254,-38.5 254,-57.5 437,-57.5 437,-38.5 254,-38.5"/>
<text text-anchor="middle" x="345.5" y="-45.5" font-family="Helvetica,sans-Serif" font-size="10.00">MainWindow::testMappingUpdateNow</text>
</a>
</g>
</g>
<!-- Node2&#45;&gt;Node7 -->
<g id="edge8" class="edge">
<title>Node2&#45;&gt;Node7</title>
<path fill="none" stroke="midnightblue" d="M462.56,-60.83C452.63,-59.73 442.47,-58.61 432.5,-57.51"/>
<polygon fill="midnightblue" stroke="midnightblue" points="462.49,-64.34 472.81,-61.96 463.26,-57.39 462.49,-64.34"/>
</g>
<!-- Node4 -->
<g id="node4" class="node">
<title>Node4</title>
<g id="a_node4"><a xlink:href="main_8cpp.html#a0ddf1224851353fc92bfbff6f499fa97" target="_top" xlink:title=" ">
<polygon fill="white" stroke="black" points="0,-76.5 0,-95.5 38,-95.5 38,-76.5 0,-76.5"/>
<text text-anchor="middle" x="19" y="-83.5" font-family="Helvetica,sans-Serif" font-size="10.00">main</text>
</a>
</g>
</g>
<!-- Node3&#45;&gt;Node4 -->
<g id="edge3" class="edge">
<title>Node3&#45;&gt;Node4</title>
<path fill="none" stroke="midnightblue" d="M97.1,-149.05C89.11,-145.99 81.11,-142.32 74,-138 55.09,-126.51 37.48,-107.35 27.79,-95.77"/>
<polygon fill="midnightblue" stroke="midnightblue" points="96.18,-152.44 106.78,-152.49 98.53,-145.84 96.18,-152.44"/>
</g>
<!-- Node5&#45;&gt;Node4 -->
<g id="edge7" class="edge">
<title>Node5&#45;&gt;Node4</title>
<path fill="none" stroke="midnightblue" d="M290.28,-97.35C235.39,-107.08 148.27,-117.68 74,-105 61.66,-102.89 48.38,-98.26 38.08,-94.09"/>
<polygon fill="midnightblue" stroke="midnightblue" points="290.93,-100.79 300.14,-95.55 289.67,-93.91 290.93,-100.79"/>
</g>
<!-- Node6 -->
<g id="node6" class="node">
<title>Node6</title>
<g id="a_node6"><a xlink:href="classMainWindow.html#a5d25ebfdfec433fc449d7e35803a9c7c" target="_top" xlink:title=" ">
<polygon fill="white" stroke="black" points="85,-76.5 85,-95.5 207,-95.5 207,-76.5 85,-76.5"/>
<text text-anchor="middle" x="146" y="-83.5" font-family="Helvetica,sans-Serif" font-size="10.00">MainWindow::fillButtons</text>
</a>
</g>
</g>
<!-- Node5&#45;&gt;Node6 -->
<g id="edge5" class="edge">
<title>Node5&#45;&gt;Node6</title>
<path fill="none" stroke="midnightblue" d="M265.39,-86C245.98,-86 225.51,-86 207.16,-86"/>
<polygon fill="midnightblue" stroke="midnightblue" points="265.42,-89.5 275.42,-86 265.42,-82.5 265.42,-89.5"/>
</g>
<!-- Node6&#45;&gt;Node4 -->
<g id="edge6" class="edge">
<title>Node6&#45;&gt;Node4</title>
<path fill="none" stroke="midnightblue" d="M74.36,-86C60.93,-86 48,-86 38.13,-86"/>
<polygon fill="midnightblue" stroke="midnightblue" points="74.7,-89.5 84.7,-86 74.7,-82.5 74.7,-89.5"/>
</g>
<!-- Node7&#45;&gt;Node4 -->
<g id="edge9" class="edge">
<title>Node7&#45;&gt;Node4</title>
<path fill="none" stroke="midnightblue" d="M243.72,-48.68C192.46,-50.63 129.43,-55.52 74,-67 61.74,-69.54 48.46,-74.18 38.15,-78.24"/>
<polygon fill="midnightblue" stroke="midnightblue" points="243.94,-52.17 253.81,-48.32 243.7,-45.18 243.94,-52.17"/>
</g>
<!-- Node8&#45;&gt;Node4 -->
<g id="edge11" class="edge">
<title>Node8&#45;&gt;Node4</title>
<path fill="none" stroke="midnightblue" d="M97.1,-22.95C89.11,-26.01 81.11,-29.68 74,-34 55.09,-45.49 37.48,-64.65 27.79,-76.23"/>
<polygon fill="midnightblue" stroke="midnightblue" points="98.53,-26.16 106.78,-19.51 96.18,-19.56 98.53,-26.16"/>
</g>
</g>
</svg>
