<?xml version="1.0" encoding="UTF-8" standalone="no"?>
<!DOCTYPE svg PUBLIC "-//W3C//DTD SVG 1.1//EN"
 "http://www.w3.org/Graphics/SVG/1.1/DTD/svg11.dtd">
<!-- Generated by graphviz version 2.43.0 (0)
 -->
<!-- Title: SetJoystick::setStickButtonNameChange Pages: 1 -->
<svg width="1088pt" height="356pt"
 viewBox="0.00 0.00 1088.00 356.00" xmlns="http://www.w3.org/2000/svg" xmlns:xlink="http://www.w3.org/1999/xlink">
<g id="graph0" class="graph" transform="scale(1 1) rotate(0) translate(4 352)">
<title>SetJoystick::setStickButtonNameChange</title>
<polygon fill="white" stroke="transparent" points="-4,4 -4,-352 1084,-352 1084,4 -4,4"/>
<!-- Node1 -->
<g id="node1" class="node">
<title>Node1</title>
<g id="a_node1"><a xlink:title=" ">
<polygon fill="#bfbfbf" stroke="black" points="943,-181.5 943,-211.5 1080,-211.5 1080,-181.5 943,-181.5"/>
<text text-anchor="start" x="951" y="-199.5" font-family="Helvetica,sans-Serif" font-size="10.00">SetJoystick::setStickButton</text>
<text text-anchor="middle" x="1011.5" y="-188.5" font-family="Helvetica,sans-Serif" font-size="10.00">NameChange</text>
</a>
</g>
</g>
<!-- Node2 -->
<g id="node2" class="node">
<title>Node2</title>
<g id="a_node2"><a xlink:href="classInputDevice.html#a6ffcebba103a7db02e82c1c7f62387bf" target="_top" xlink:title=" ">
<polygon fill="white" stroke="black" points="353,-148 353,-167 526,-167 526,-148 353,-148"/>
<text text-anchor="middle" x="439.5" y="-155" font-family="Helvetica,sans-Serif" font-size="10.00">InputDevice::enableSetConnections</text>
</a>
</g>
</g>
<!-- Node1&#45;&gt;Node2 -->
<g id="edge1" class="edge">
<title>Node1&#45;&gt;Node2</title>
<path fill="none" stroke="midnightblue" d="M932.63,-195.64C843.03,-194.04 691.56,-189.48 562,-176.5 539.27,-174.22 514.31,-170.53 492.97,-167"/>
<polygon fill="midnightblue" stroke="midnightblue" points="932.65,-199.14 942.71,-195.81 932.77,-192.14 932.65,-199.14"/>
</g>
<!-- Node5 -->
<g id="node5" class="node">
<title>Node5</title>
<g id="a_node5"><a xlink:href="classSetJoystick.html#a6506ecba3209c605da73d86f87a10e2b" target="_top" xlink:title=" ">
<polygon fill="white" stroke="black" points="758.5,-225.5 758.5,-255.5 889.5,-255.5 889.5,-225.5 758.5,-225.5"/>
<text text-anchor="start" x="766.5" y="-243.5" font-family="Helvetica,sans-Serif" font-size="10.00">SetJoystick::propogateSet</text>
<text text-anchor="middle" x="824" y="-232.5" font-family="Helvetica,sans-Serif" font-size="10.00">StickButtonNameChange</text>
</a>
</g>
</g>
<!-- Node1&#45;&gt;Node5 -->
<g id="edge4" class="edge">
<title>Node1&#45;&gt;Node5</title>
<path fill="none" stroke="midnightblue" d="M937.24,-213.88C921.08,-217.71 904.08,-221.74 888.35,-225.47"/>
<polygon fill="midnightblue" stroke="midnightblue" points="938.26,-217.23 947.18,-211.52 936.64,-210.42 938.26,-217.23"/>
</g>
<!-- Node14 -->
<g id="node14" class="node">
<title>Node14</title>
<g id="a_node14"><a xlink:href="classInputDevice.html#afb3c54a95a3f41f4a6f322d244e29673" target="_top" xlink:title=" ">
<polygon fill="white" stroke="black" points="741,-119 741,-138 907,-138 907,-119 741,-119"/>
<text text-anchor="middle" x="824" y="-126" font-family="Helvetica,sans-Serif" font-size="10.00">InputDevice::setStickButtonName</text>
</a>
</g>
</g>
<!-- Node1&#45;&gt;Node14 -->
<g id="edge13" class="edge">
<title>Node1&#45;&gt;Node14</title>
<path fill="none" stroke="midnightblue" d="M959.71,-177.88C924.58,-165 879.27,-148.39 851.18,-138.1"/>
<polygon fill="midnightblue" stroke="midnightblue" points="958.74,-181.25 969.33,-181.41 961.15,-174.68 958.74,-181.25"/>
</g>
<!-- Node3 -->
<g id="node3" class="node">
<title>Node3</title>
<g id="a_node3"><a xlink:href="classGameController.html#afcddb9dcc5442a9746c3ff8760ea1791" target="_top" xlink:title=" ">
<polygon fill="white" stroke="black" points="150,-159 150,-178 309,-178 309,-159 150,-159"/>
<text text-anchor="middle" x="229.5" y="-166" font-family="Helvetica,sans-Serif" font-size="10.00">GameController::GameController</text>
</a>
</g>
</g>
<!-- Node2&#45;&gt;Node3 -->
<g id="edge2" class="edge">
<title>Node2&#45;&gt;Node3</title>
<path fill="none" stroke="midnightblue" d="M342.77,-162.56C331.57,-163.15 320.25,-163.75 309.32,-164.33"/>
<polygon fill="midnightblue" stroke="midnightblue" points="343.2,-166.05 353,-162.02 342.83,-159.05 343.2,-166.05"/>
</g>
<!-- Node4 -->
<g id="node4" class="node">
<title>Node4</title>
<g id="a_node4"><a xlink:href="classJoystick.html#a9df5e53506876f3c95e84bdf6c9cbaf1" target="_top" xlink:title=" ">
<polygon fill="white" stroke="black" points="182.5,-121 182.5,-140 276.5,-140 276.5,-121 182.5,-121"/>
<text text-anchor="middle" x="229.5" y="-128" font-family="Helvetica,sans-Serif" font-size="10.00">Joystick::Joystick</text>
</a>
</g>
</g>
<!-- Node2&#45;&gt;Node4 -->
<g id="edge3" class="edge">
<title>Node2&#45;&gt;Node4</title>
<path fill="none" stroke="midnightblue" d="M355.03,-146.66C328.29,-143.19 299.66,-139.48 276.61,-136.49"/>
<polygon fill="midnightblue" stroke="midnightblue" points="354.8,-150.16 365.17,-147.98 355.7,-143.22 354.8,-150.16"/>
</g>
<!-- Node6 -->
<g id="node6" class="node">
<title>Node6</title>
<g id="a_node6"><a xlink:href="classSetJoystick.html#a65a723b0018e2f387b44e7a0acfffc5b" target="_top" xlink:title=" ">
<polygon fill="white" stroke="black" points="562,-231 562,-250 705,-250 705,-231 562,-231"/>
<text text-anchor="middle" x="633.5" y="-238" font-family="Helvetica,sans-Serif" font-size="10.00">SetJoystick::addControlStick</text>
</a>
</g>
</g>
<!-- Node5&#45;&gt;Node6 -->
<g id="edge5" class="edge">
<title>Node5&#45;&gt;Node6</title>
<path fill="none" stroke="midnightblue" d="M748.19,-240.5C734.01,-240.5 719.21,-240.5 705.15,-240.5"/>
<polygon fill="midnightblue" stroke="midnightblue" points="748.39,-244 758.39,-240.5 748.39,-237 748.39,-244"/>
</g>
<!-- Node7 -->
<g id="node7" class="node">
<title>Node7</title>
<g id="a_node7"><a xlink:href="classAdvanceStickAssignmentDialog.html#a3d447d0544efde715f4774ff0789b9b1" target="_top" xlink:title=" ">
<polygon fill="white" stroke="black" points="358.5,-268.5 358.5,-298.5 520.5,-298.5 520.5,-268.5 358.5,-268.5"/>
<text text-anchor="start" x="366.5" y="-286.5" font-family="Helvetica,sans-Serif" font-size="10.00">AdvanceStickAssignmentDialog</text>
<text text-anchor="middle" x="439.5" y="-275.5" font-family="Helvetica,sans-Serif" font-size="10.00">::checkForAxisAssignmentSticks</text>
</a>
</g>
</g>
<!-- Node6&#45;&gt;Node7 -->
<g id="edge6" class="edge">
<title>Node6&#45;&gt;Node7</title>
<path fill="none" stroke="midnightblue" d="M579.92,-252.28C557.57,-257.28 531.23,-263.18 507.5,-268.49"/>
<polygon fill="midnightblue" stroke="midnightblue" points="580.9,-255.64 589.89,-250.04 579.37,-248.81 580.9,-255.64"/>
</g>
<!-- Node10 -->
<g id="node10" class="node">
<title>Node10</title>
<g id="a_node10"><a xlink:href="classGameControllerSet.html#afbbd676e52346412a864cdd084b5c9ce" target="_top" xlink:title=" ">
<polygon fill="white" stroke="black" points="386.5,-219.5 386.5,-249.5 492.5,-249.5 492.5,-219.5 386.5,-219.5"/>
<text text-anchor="start" x="394.5" y="-237.5" font-family="Helvetica,sans-Serif" font-size="10.00">GameControllerSet::</text>
<text text-anchor="middle" x="439.5" y="-226.5" font-family="Helvetica,sans-Serif" font-size="10.00">populateSticksDPad</text>
</a>
</g>
</g>
<!-- Node6&#45;&gt;Node10 -->
<g id="edge9" class="edge">
<title>Node6&#45;&gt;Node10</title>
<path fill="none" stroke="midnightblue" d="M551.79,-237.98C531.81,-237.35 510.92,-236.7 492.7,-236.13"/>
<polygon fill="midnightblue" stroke="midnightblue" points="551.72,-241.48 561.82,-238.29 551.94,-234.48 551.72,-241.48"/>
</g>
<!-- Node8 -->
<g id="node8" class="node">
<title>Node8</title>
<g id="a_node8"><a xlink:href="classAdvanceStickAssignmentDialog.html#a0558948fa11d0753485a53d6729e1e53" target="_top" xlink:title=" ">
<polygon fill="white" stroke="black" points="142,-268.5 142,-298.5 317,-298.5 317,-268.5 142,-268.5"/>
<text text-anchor="start" x="150" y="-286.5" font-family="Helvetica,sans-Serif" font-size="10.00">AdvanceStickAssignmentDialog</text>
<text text-anchor="middle" x="229.5" y="-275.5" font-family="Helvetica,sans-Serif" font-size="10.00">::checkForAxisAssignmentStickOne</text>
</a>
</g>
</g>
<!-- Node7&#45;&gt;Node8 -->
<g id="edge7" class="edge">
<title>Node7&#45;&gt;Node8</title>
<path fill="none" stroke="midnightblue" d="M348.16,-283.5C337.86,-283.5 327.39,-283.5 317.14,-283.5"/>
<polygon fill="midnightblue" stroke="midnightblue" points="348.38,-287 358.38,-283.5 348.38,-280 348.38,-287"/>
</g>
<!-- Node9 -->
<g id="node9" class="node">
<title>Node9</title>
<g id="a_node9"><a xlink:href="classAdvanceStickAssignmentDialog.html#a60498e3f0a4ade4f6644478cb78d3cbc" target="_top" xlink:title=" ">
<polygon fill="white" stroke="black" points="142.5,-317.5 142.5,-347.5 316.5,-347.5 316.5,-317.5 142.5,-317.5"/>
<text text-anchor="start" x="150.5" y="-335.5" font-family="Helvetica,sans-Serif" font-size="10.00">AdvanceStickAssignmentDialog</text>
<text text-anchor="middle" x="229.5" y="-324.5" font-family="Helvetica,sans-Serif" font-size="10.00">::checkForAxisAssignmentStickTwo</text>
</a>
</g>
</g>
<!-- Node7&#45;&gt;Node9 -->
<g id="edge8" class="edge">
<title>Node7&#45;&gt;Node9</title>
<path fill="none" stroke="midnightblue" d="M364.93,-300.83C341.84,-306.27 316.55,-312.23 294.2,-317.49"/>
<polygon fill="midnightblue" stroke="midnightblue" points="365.75,-304.23 374.68,-298.53 364.14,-297.42 365.75,-304.23"/>
</g>
<!-- Node11 -->
<g id="node11" class="node">
<title>Node11</title>
<g id="a_node11"><a xlink:href="classGameControllerSet.html#a40b9c9ac22d6fe71c15380dcbca7eb80" target="_top" xlink:title=" ">
<polygon fill="white" stroke="black" points="176.5,-219.5 176.5,-249.5 282.5,-249.5 282.5,-219.5 176.5,-219.5"/>
<text text-anchor="start" x="184.5" y="-237.5" font-family="Helvetica,sans-Serif" font-size="10.00">GameControllerSet::</text>
<text text-anchor="middle" x="229.5" y="-226.5" font-family="Helvetica,sans-Serif" font-size="10.00">resetSticks</text>
</a>
</g>
</g>
<!-- Node10&#45;&gt;Node11 -->
<g id="edge10" class="edge">
<title>Node10&#45;&gt;Node11</title>
<path fill="none" stroke="midnightblue" d="M376,-234.5C346.24,-234.5 311.05,-234.5 282.74,-234.5"/>
<polygon fill="midnightblue" stroke="midnightblue" points="376.28,-238 386.28,-234.5 376.28,-231 376.28,-238"/>
</g>
<!-- Node12 -->
<g id="node12" class="node">
<title>Node12</title>
<g id="a_node12"><a xlink:href="classGameControllerSet.html#a9d686fa2df459f7d157d60e05707f712" target="_top" xlink:title=" ">
<polygon fill="white" stroke="black" points="0,-243.5 0,-273.5 106,-273.5 106,-243.5 0,-243.5"/>
<text text-anchor="start" x="8" y="-261.5" font-family="Helvetica,sans-Serif" font-size="10.00">GameControllerSet::</text>
<text text-anchor="middle" x="53" y="-250.5" font-family="Helvetica,sans-Serif" font-size="10.00">GameControllerSet</text>
</a>
</g>
</g>
<!-- Node11&#45;&gt;Node12 -->
<g id="edge11" class="edge">
<title>Node11&#45;&gt;Node12</title>
<path fill="none" stroke="midnightblue" d="M166.05,-243.09C146.38,-245.79 124.88,-248.75 106.02,-251.35"/>
<polygon fill="midnightblue" stroke="midnightblue" points="166.71,-246.53 176.14,-241.7 165.76,-239.6 166.71,-246.53"/>
</g>
<!-- Node13 -->
<g id="node13" class="node">
<title>Node13</title>
<g id="a_node13"><a xlink:href="classGameControllerSet.html#a69d798af242a07017bc0f2e2d0d8a830" target="_top" xlink:title=" ">
<polygon fill="white" stroke="black" points="0,-194.5 0,-224.5 106,-224.5 106,-194.5 0,-194.5"/>
<text text-anchor="start" x="8" y="-212.5" font-family="Helvetica,sans-Serif" font-size="10.00">GameControllerSet::</text>
<text text-anchor="middle" x="53" y="-201.5" font-family="Helvetica,sans-Serif" font-size="10.00">reset</text>
</a>
</g>
</g>
<!-- Node11&#45;&gt;Node13 -->
<g id="edge12" class="edge">
<title>Node11&#45;&gt;Node13</title>
<path fill="none" stroke="midnightblue" d="M166.05,-225.55C146.38,-222.74 124.88,-219.65 106.02,-216.95"/>
<polygon fill="midnightblue" stroke="midnightblue" points="165.75,-229.05 176.14,-227 166.74,-222.12 165.75,-229.05"/>
</g>
<!-- Node15 -->
<g id="node15" class="node">
<title>Node15</title>
<g id="a_node15"><a xlink:href="classInputDeviceXml.html#a847bf9ed17b554bf87d513a1aebdcb64" target="_top" xlink:title=" ">
<polygon fill="white" stroke="black" points="563.5,-50 563.5,-69 703.5,-69 703.5,-50 563.5,-50"/>
<text text-anchor="middle" x="633.5" y="-57" font-family="Helvetica,sans-Serif" font-size="10.00">InputDeviceXml::readConfig</text>
</a>
</g>
</g>
<!-- Node14&#45;&gt;Node15 -->
<g id="edge14" class="edge">
<title>Node14&#45;&gt;Node15</title>
<path fill="none" stroke="midnightblue" d="M793.75,-114.77C770.13,-104.02 735.87,-89.14 705,-78.5 694.93,-75.03 683.88,-71.79 673.58,-69.01"/>
<polygon fill="midnightblue" stroke="midnightblue" points="792.32,-117.97 802.87,-118.96 795.24,-111.61 792.32,-117.97"/>
</g>
<!-- Node16 -->
<g id="node16" class="node">
<title>Node16</title>
<g id="a_node16"><a xlink:href="classGameControllerXml.html#aaa5257d4c6fe13f1d5fc51981e247c25" target="_top" xlink:title=" ">
<polygon fill="white" stroke="black" points="579.5,-0.5 579.5,-30.5 687.5,-30.5 687.5,-0.5 579.5,-0.5"/>
<text text-anchor="start" x="587.5" y="-18.5" font-family="Helvetica,sans-Serif" font-size="10.00">GameControllerXml::</text>
<text text-anchor="middle" x="633.5" y="-7.5" font-family="Helvetica,sans-Serif" font-size="10.00">readJoystickConfig</text>
</a>
</g>
</g>
<!-- Node14&#45;&gt;Node16 -->
<g id="edge15" class="edge">
<title>Node14&#45;&gt;Node16</title>
<path fill="none" stroke="midnightblue" d="M804.72,-112.09C782.48,-92.82 743.17,-60.9 705,-40.5 698.13,-36.83 690.6,-33.5 683.11,-30.57"/>
<polygon fill="midnightblue" stroke="midnightblue" points="802.54,-114.84 812.37,-118.81 807.16,-109.58 802.54,-114.84"/>
</g>
<!-- Node18 -->
<g id="node18" class="node">
<title>Node18</title>
<g id="a_node18"><a xlink:href="classGameControllerXml.html#ae5f862960b70f00d38eb26f94e8d9cba" target="_top" xlink:title=" ">
<polygon fill="white" stroke="black" points="577,-88.5 577,-118.5 690,-118.5 690,-88.5 577,-88.5"/>
<text text-anchor="start" x="585" y="-106.5" font-family="Helvetica,sans-Serif" font-size="10.00">GameControllerXml::</text>
<text text-anchor="middle" x="633.5" y="-95.5" font-family="Helvetica,sans-Serif" font-size="10.00">readXmlNamesMiddle</text>
</a>
</g>
</g>
<!-- Node14&#45;&gt;Node18 -->
<g id="edge17" class="edge">
<title>Node14&#45;&gt;Node18</title>
<path fill="none" stroke="midnightblue" d="M741.16,-117.65C723.98,-115.37 706.24,-113.01 690.27,-110.9"/>
<polygon fill="midnightblue" stroke="midnightblue" points="740.83,-121.13 751.2,-118.98 741.75,-114.19 740.83,-121.13"/>
</g>
<!-- Node19 -->
<g id="node19" class="node">
<title>Node19</title>
<g id="a_node19"><a xlink:href="classInputDevice.html#acc8b931a7b219403ecd8eae444d8534f" target="_top" xlink:title=" ">
<polygon fill="white" stroke="black" points="562.5,-137.5 562.5,-167.5 704.5,-167.5 704.5,-137.5 562.5,-137.5"/>
<text text-anchor="start" x="570.5" y="-155.5" font-family="Helvetica,sans-Serif" font-size="10.00">InputDevice::updateSetStick</text>
<text text-anchor="middle" x="633.5" y="-144.5" font-family="Helvetica,sans-Serif" font-size="10.00">ButtonNames</text>
</a>
</g>
</g>
<!-- Node14&#45;&gt;Node19 -->
<g id="edge19" class="edge">
<title>Node14&#45;&gt;Node19</title>
<path fill="none" stroke="midnightblue" d="M730.93,-133.47C720.96,-134.73 710.96,-136.09 701.37,-137.5"/>
<polygon fill="midnightblue" stroke="midnightblue" points="731.37,-136.95 740.87,-132.26 730.52,-130 731.37,-136.95"/>
</g>
<!-- Node17 -->
<g id="node17" class="node">
<title>Node17</title>
<g id="a_node17"><a xlink:href="classGameControllerXml.html#a7e47256cae0d3815419bc254413777d1" target="_top" xlink:title=" ">
<polygon fill="white" stroke="black" points="385.5,-44.5 385.5,-74.5 493.5,-74.5 493.5,-44.5 385.5,-44.5"/>
<text text-anchor="start" x="393.5" y="-62.5" font-family="Helvetica,sans-Serif" font-size="10.00">GameControllerXml::</text>
<text text-anchor="middle" x="439.5" y="-51.5" font-family="Helvetica,sans-Serif" font-size="10.00">readConfig</text>
</a>
</g>
</g>
<!-- Node16&#45;&gt;Node17 -->
<g id="edge16" class="edge">
<title>Node16&#45;&gt;Node17</title>
<path fill="none" stroke="midnightblue" d="M569.37,-29.97C544.93,-35.57 517.25,-41.91 493.83,-47.28"/>
<polygon fill="midnightblue" stroke="midnightblue" points="570.31,-33.34 579.27,-27.7 568.74,-26.52 570.31,-33.34"/>
</g>
<!-- Node18&#45;&gt;Node17 -->
<g id="edge18" class="edge">
<title>Node18&#45;&gt;Node17</title>
<path fill="none" stroke="midnightblue" d="M566.91,-88.47C543,-82.99 516.29,-76.87 493.6,-71.67"/>
<polygon fill="midnightblue" stroke="midnightblue" points="566.44,-91.95 576.97,-90.77 568,-85.13 566.44,-91.95"/>
</g>
<!-- Node19&#45;&gt;Node2 -->
<g id="edge20" class="edge">
<title>Node19&#45;&gt;Node2</title>
<path fill="none" stroke="midnightblue" d="M552.31,-154.59C543.66,-154.81 534.83,-155.04 526.12,-155.27"/>
<polygon fill="midnightblue" stroke="midnightblue" points="552.46,-158.09 562.37,-154.33 552.28,-151.09 552.46,-158.09"/>
</g>
<!-- Node19&#45;&gt;Node14 -->
<g id="edge21" class="edge">
<title>Node19&#45;&gt;Node14</title>
<path fill="none" stroke="midnightblue" d="M714.54,-148.99C740.92,-145.89 768.83,-141.87 789.73,-138.03"/>
<polygon fill="midnightblue" stroke="midnightblue" points="714.05,-145.52 704.51,-150.13 714.85,-152.48 714.05,-145.52"/>
</g>
</g>
</svg>
