<?xml version="1.0" encoding="UTF-8" standalone="no"?>
<!DOCTYPE svg PUBLIC "-//W3C//DTD SVG 1.1//EN"
 "http://www.w3.org/Graphics/SVG/1.1/DTD/svg11.dtd">
<!-- Generated by graphviz version 2.43.0 (0)
 -->
<!-- Title: InputDevice::changeSetStickButtonAssociation Pages: 1 -->
<!--zoomable 496 -->
<svg id="main" version="1.1" xmlns="http://www.w3.org/2000/svg" xmlns:xlink="http://www.w3.org/1999/xlink" xml:space="preserve" onload="init(evt)">
<style type="text/css"><![CDATA[
.edge:hover path { stroke: red; }
.edge:hover polygon { stroke: red; fill: red; }
]]></style>
<script type="text/javascript"><![CDATA[
var edges = document.getElementsByTagName('g');
if (edges && edges.length) {
  for (var i=0;i<edges.length;i++) {
    if (edges[i].id.substr(0,4)=='edge') {
      edges[i].setAttribute('class','edge');
    }
  }
}
]]></script>
        <defs>
                <circle id="rim" cx="0" cy="0" r="7"/>
                <circle id="rim2" cx="0" cy="0" r="3.5"/>
                <g id="zoomPlus">
                        <use xlink:href="#rim" fill="#404040">
                                <set attributeName="fill" to="#808080" begin="zoomplus.mouseover" end="zoomplus.mouseout"/>
                        </use>
                        <path d="M-4,0h8M0,-4v8" fill="none" stroke="white" stroke-width="1.5" pointer-events="none"/>
                </g>
                <g id="zoomMin">
                        <use xlink:href="#rim" fill="#404040">
                                <set attributeName="fill" to="#808080" begin="zoomminus.mouseover" end="zoomminus.mouseout"/>
                        </use>
                        <path d="M-4,0h8" fill="none" stroke="white" stroke-width="1.5" pointer-events="none"/>
                </g>
                <g id="dirArrow">
                        <path fill="none" stroke="white" stroke-width="1.5" d="M0,-3.0v7 M-2.5,-0.5L0,-3.0L2.5,-0.5"/>
                </g>
               <g id="resetDef">
                       <use xlink:href="#rim2" fill="#404040">
                               <set attributeName="fill" to="#808080" begin="reset.mouseover" end="reset.mouseout"/>
                       </use>
               </g>
        </defs>

<script type="text/javascript">
var viewWidth = 2541;
var viewHeight = 496;
var sectionId = 'dynsection-31';
</script>
<script xlink:href="svgpan.js"/>
<svg id="graph" class="graph">
<g id="viewport">
<title>InputDevice::changeSetStickButtonAssociation</title>
<polygon fill="white" stroke="transparent" points="-4,4 -4,-492 2537,-492 2537,4 -4,4"/>
<!-- Node1 -->
<g id="node1" class="node">
<title>Node1</title>
<g id="a_node1"><a xlink:title=" ">
<polygon fill="#bfbfbf" stroke="black" points="0,-126.5 0,-156.5 144,-156.5 144,-126.5 0,-126.5"/>
<text text-anchor="start" x="8" y="-144.5" font-family="Helvetica,sans-Serif" font-size="10.00">InputDevice::changeSetStick</text>
<text text-anchor="middle" x="72" y="-133.5" font-family="Helvetica,sans-Serif" font-size="10.00">ButtonAssociation</text>
</a>
</g>
</g>
<!-- Node2 -->
<g id="node2" class="node">
<title>Node2</title>
<g id="a_node2"><a xlink:href="classInputDevice.html#a1c4c65d9e509a5c3bde064871d7e1849" target="_top" xlink:title=" ">
<polygon fill="white" stroke="black" points="180,-176 180,-195 329,-195 329,-176 180,-176"/>
<text text-anchor="middle" x="254.5" y="-183" font-family="Helvetica,sans-Serif" font-size="10.00">InputDevice::getJoystick_sets</text>
</a>
</g>
</g>
<!-- Node1&#45;&gt;Node2 -->
<g id="edge1" class="edge">
<title>Node1&#45;&gt;Node2</title>
<path fill="none" stroke="midnightblue" d="M134.61,-156.52C157.45,-162.09 183.01,-168.32 204.57,-173.57"/>
<polygon fill="midnightblue" stroke="midnightblue" points="203.93,-177.02 214.48,-175.99 205.59,-170.22 203.93,-177.02"/>
</g>
<!-- Node3 -->
<g id="node3" class="node">
<title>Node3</title>
<g id="a_node3"><a xlink:href="classJoyControlStickButton.html#af18ce44fbabeb525ede1a777cbc67de2" target="_top" xlink:title=" ">
<polygon fill="white" stroke="black" points="191.5,-126.5 191.5,-156.5 317.5,-156.5 317.5,-126.5 191.5,-126.5"/>
<text text-anchor="start" x="199.5" y="-144.5" font-family="Helvetica,sans-Serif" font-size="10.00">JoyControlStickButton</text>
<text text-anchor="middle" x="254.5" y="-133.5" font-family="Helvetica,sans-Serif" font-size="10.00">::setChangeSetCondition</text>
</a>
</g>
</g>
<!-- Node1&#45;&gt;Node3 -->
<g id="edge2" class="edge">
<title>Node1&#45;&gt;Node3</title>
<path fill="none" stroke="midnightblue" d="M144.08,-141.5C156.26,-141.5 168.92,-141.5 181.13,-141.5"/>
<polygon fill="midnightblue" stroke="midnightblue" points="181.26,-145 191.26,-141.5 181.26,-138 181.26,-145"/>
</g>
<!-- Node44 -->
<g id="node44" class="node">
<title>Node44</title>
<g id="a_node44"><a xlink:href="classJoyButton.html#af7ffbb38754f3f898935e6cc975ebb6a" target="_top" xlink:title=" ">
<polygon fill="white" stroke="black" points="365,-91 365,-110 535,-110 535,-91 365,-91"/>
<text text-anchor="middle" x="450" y="-98" font-family="Helvetica,sans-Serif" font-size="10.00">JoyButton::setChangeSetSelection</text>
</a>
</g>
</g>
<!-- Node1&#45;&gt;Node44 -->
<g id="edge57" class="edge">
<title>Node1&#45;&gt;Node44</title>
<path fill="none" stroke="midnightblue" d="M129.3,-126.45C145.55,-122.63 163.39,-118.92 180,-116.5 237.62,-108.12 302.79,-104.1 354.55,-102.19"/>
<polygon fill="midnightblue" stroke="midnightblue" points="354.85,-105.68 364.72,-101.84 354.6,-98.69 354.85,-105.68"/>
</g>
<!-- Node4 -->
<g id="node4" class="node">
<title>Node4</title>
<g id="a_node4"><a xlink:href="classJoyButton.html#ad2df77b5daa94a848b015265ec1869d6" target="_top" xlink:title="Generate active zone string and notify other objects.">
<polygon fill="white" stroke="black" points="571,-123.5 571,-153.5 707,-153.5 707,-123.5 571,-123.5"/>
<text text-anchor="start" x="579" y="-141.5" font-family="Helvetica,sans-Serif" font-size="10.00">JoyButton::buildActiveZone</text>
<text text-anchor="middle" x="639" y="-130.5" font-family="Helvetica,sans-Serif" font-size="10.00">SummaryString</text>
</a>
</g>
</g>
<!-- Node3&#45;&gt;Node4 -->
<g id="edge3" class="edge">
<title>Node3&#45;&gt;Node4</title>
<path fill="none" stroke="midnightblue" d="M317.58,-152.17C333.02,-154.38 349.57,-156.38 365,-157.5 440.36,-162.98 459.76,-164.38 535,-157.5 543.39,-156.73 552.13,-155.62 560.8,-154.31"/>
<polygon fill="midnightblue" stroke="midnightblue" points="561.6,-157.73 570.93,-152.7 560.5,-150.82 561.6,-157.73"/>
</g>
<!-- Node43 -->
<g id="node43" class="node">
<title>Node43</title>
<g id="a_node43"><a xlink:href="classJoyControlStick.html#a2bf34c9768e9975e311a1ea8918468b1" target="_top" xlink:title=" ">
<polygon fill="white" stroke="black" points="385.5,-129 385.5,-148 514.5,-148 514.5,-129 385.5,-129"/>
<text text-anchor="middle" x="450" y="-136" font-family="Helvetica,sans-Serif" font-size="10.00">JoyControlStick::getIndex</text>
</a>
</g>
</g>
<!-- Node3&#45;&gt;Node43 -->
<g id="edge54" class="edge">
<title>Node3&#45;&gt;Node43</title>
<path fill="none" stroke="midnightblue" d="M317.52,-140.54C335.89,-140.25 356.18,-139.94 375.21,-139.64"/>
<polygon fill="midnightblue" stroke="midnightblue" points="375.39,-143.14 385.33,-139.49 375.28,-136.14 375.39,-143.14"/>
</g>
<!-- Node3&#45;&gt;Node44 -->
<g id="edge55" class="edge">
<title>Node3&#45;&gt;Node44</title>
<path fill="none" stroke="midnightblue" d="M317.52,-128.36C342.09,-123.15 370.1,-117.22 393.94,-112.17"/>
<polygon fill="midnightblue" stroke="midnightblue" points="394.82,-115.56 403.88,-110.06 393.37,-108.71 394.82,-115.56"/>
</g>
<!-- Node5 -->
<g id="node5" class="node">
<title>Node5</title>
<g id="a_node5"><a xlink:href="classJoyButton.html#ae76ccd3147106953d53a565730c1d8ee" target="_top" xlink:title="Generate a string that represents slots that will be activated or slots that are currently active if ...">
<polygon fill="white" stroke="black" points="743,-148.5 743,-178.5 872,-178.5 872,-148.5 743,-148.5"/>
<text text-anchor="start" x="751" y="-166.5" font-family="Helvetica,sans-Serif" font-size="10.00">JoyButton::getActiveZone</text>
<text text-anchor="middle" x="807.5" y="-155.5" font-family="Helvetica,sans-Serif" font-size="10.00">Summary</text>
</a>
</g>
</g>
<!-- Node4&#45;&gt;Node5 -->
<g id="edge4" class="edge">
<title>Node4&#45;&gt;Node5</title>
<path fill="none" stroke="midnightblue" d="M707.24,-148.6C715.68,-149.86 724.34,-151.16 732.86,-152.44"/>
<polygon fill="midnightblue" stroke="midnightblue" points="732.37,-155.91 742.78,-153.93 733.41,-148.99 732.37,-155.91"/>
</g>
<!-- Node42 -->
<g id="node42" class="node">
<title>Node42</title>
<g id="a_node42"><a xlink:href="classJoyButton.html#a1b49d9ab85f0d5d128e2eca616747018" target="_top" xlink:title=" ">
<polygon fill="white" stroke="black" points="744,-99.5 744,-129.5 871,-129.5 871,-99.5 744,-99.5"/>
<text text-anchor="start" x="752" y="-117.5" font-family="Helvetica,sans-Serif" font-size="10.00">JoyButton::lockForWrited</text>
<text text-anchor="middle" x="807.5" y="-106.5" font-family="Helvetica,sans-Serif" font-size="10.00">String</text>
</a>
</g>
</g>
<!-- Node4&#45;&gt;Node42 -->
<g id="edge53" class="edge">
<title>Node4&#45;&gt;Node42</title>
<path fill="none" stroke="midnightblue" d="M707.24,-128.81C716.03,-127.54 725.06,-126.24 733.93,-124.96"/>
<polygon fill="midnightblue" stroke="midnightblue" points="734.46,-128.42 743.86,-123.53 733.46,-121.49 734.46,-128.42"/>
</g>
<!-- Node6 -->
<g id="node6" class="node">
<title>Node6</title>
<g id="a_node6"><a xlink:href="classJoyButton.html#a9404c4ca344265ce68c0eb9b6b95048b" target="_top" xlink:title=" ">
<polygon fill="white" stroke="black" points="912.5,-118.5 912.5,-148.5 1048.5,-148.5 1048.5,-118.5 912.5,-118.5"/>
<text text-anchor="start" x="920.5" y="-136.5" font-family="Helvetica,sans-Serif" font-size="10.00">JoyButton::buildActiveZone</text>
<text text-anchor="middle" x="980.5" y="-125.5" font-family="Helvetica,sans-Serif" font-size="10.00">Summary</text>
</a>
</g>
</g>
<!-- Node5&#45;&gt;Node6 -->
<g id="edge5" class="edge">
<title>Node5&#45;&gt;Node6</title>
<path fill="none" stroke="midnightblue" d="M872.17,-152.33C882,-150.6 892.24,-148.81 902.33,-147.04"/>
<polygon fill="midnightblue" stroke="midnightblue" points="903.09,-150.46 912.34,-145.28 901.88,-143.56 903.09,-150.46"/>
</g>
<!-- Node40 -->
<g id="node40" class="node">
<title>Node40</title>
<g id="a_node40"><a xlink:href="classJoyButton.html#a7494c1753b3f16ba988076e9eb34ff47" target="_top" xlink:title=" ">
<polygon fill="white" stroke="black" points="908,-184 908,-203 1053,-203 1053,-184 908,-184"/>
<text text-anchor="middle" x="980.5" y="-191" font-family="Helvetica,sans-Serif" font-size="10.00">JoyButton::getActiveZoneList</text>
</a>
</g>
</g>
<!-- Node5&#45;&gt;Node40 -->
<g id="edge48" class="edge">
<title>Node5&#45;&gt;Node40</title>
<path fill="none" stroke="midnightblue" d="M872.17,-174.67C886.23,-177.14 901.14,-179.75 915.22,-182.22"/>
<polygon fill="midnightblue" stroke="midnightblue" points="914.85,-185.71 925.31,-183.99 916.06,-178.82 914.85,-185.71"/>
</g>
<!-- Node7 -->
<g id="node7" class="node">
<title>Node7</title>
<g id="a_node7"><a xlink:href="classJoyButton.html#a773bbe39b094a62cd17776acc06efac6" target="_top" xlink:title=" ">
<polygon fill="white" stroke="black" points="1092.5,-58.5 1092.5,-88.5 1228.5,-88.5 1228.5,-58.5 1092.5,-58.5"/>
<text text-anchor="start" x="1100.5" y="-76.5" font-family="Helvetica,sans-Serif" font-size="10.00">JoyButton::buildActiveZone</text>
<text text-anchor="middle" x="1160.5" y="-65.5" font-family="Helvetica,sans-Serif" font-size="10.00">SummarySwitchSlots</text>
</a>
</g>
</g>
<!-- Node6&#45;&gt;Node7 -->
<g id="edge6" class="edge">
<title>Node6&#45;&gt;Node7</title>
<path fill="none" stroke="midnightblue" d="M1026.42,-118.36C1050.33,-110.3 1079.92,-100.32 1105.12,-91.83"/>
<polygon fill="midnightblue" stroke="midnightblue" points="1106.55,-95.04 1114.91,-88.53 1104.31,-88.41 1106.55,-95.04"/>
</g>
<!-- Node10 -->
<g id="node10" class="node">
<title>Node10</title>
<g id="a_node10"><a xlink:href="classJoyButtonSlot.html#a4fb0606a34134786bc642627bc25aedd" target="_top" xlink:title=" ">
<polygon fill="white" stroke="black" points="1456.5,-20 1456.5,-39 1592.5,-39 1592.5,-20 1456.5,-20"/>
<text text-anchor="middle" x="1524.5" y="-27" font-family="Helvetica,sans-Serif" font-size="10.00">JoyButtonSlot::getMixSlots</text>
</a>
</g>
</g>
<!-- Node6&#45;&gt;Node10 -->
<g id="edge45" class="edge">
<title>Node6&#45;&gt;Node10</title>
<path fill="none" stroke="midnightblue" d="M994.62,-118.41C1013.25,-98.2 1049.53,-63.19 1089,-48.5 1207.56,-4.37 1357.04,-9.86 1446.18,-18.93"/>
<polygon fill="midnightblue" stroke="midnightblue" points="1445.91,-22.42 1456.22,-19.99 1446.64,-15.46 1445.91,-22.42"/>
</g>
<!-- Node37 -->
<g id="node37" class="node">
<title>Node37</title>
<g id="a_node37"><a xlink:href="classJoyButton.html#a64f1660931aea2fa8df1bf5e313c05ba" target="_top" xlink:title=" ">
<polygon fill="white" stroke="black" points="1095.5,-184 1095.5,-203 1225.5,-203 1225.5,-184 1095.5,-184"/>
<text text-anchor="middle" x="1160.5" y="-191" font-family="Helvetica,sans-Serif" font-size="10.00">JoyButton::getActiveSlots</text>
</a>
</g>
</g>
<!-- Node6&#45;&gt;Node37 -->
<g id="edge44" class="edge">
<title>Node6&#45;&gt;Node37</title>
<path fill="none" stroke="midnightblue" d="M1018.48,-148.67C1039.06,-156.84 1065.25,-166.79 1089,-174.5 1096.21,-176.84 1103.9,-179.12 1111.45,-181.25"/>
<polygon fill="midnightblue" stroke="midnightblue" points="1110.67,-184.67 1121.24,-183.94 1112.53,-177.92 1110.67,-184.67"/>
</g>
<!-- Node38 -->
<g id="node38" class="node">
<title>Node38</title>
<g id="a_node38"><a xlink:href="classJoyButtonSlot.html#abed7fe134c404b403ea79c0753f6eaaf" target="_top" xlink:title=" ">
<polygon fill="white" stroke="black" points="1091,-146 1091,-165 1230,-165 1230,-146 1091,-146"/>
<text text-anchor="middle" x="1160.5" y="-153" font-family="Helvetica,sans-Serif" font-size="10.00">JoyButtonSlot::getSlotMode</text>
</a>
</g>
</g>
<!-- Node6&#45;&gt;Node38 -->
<g id="edge46" class="edge">
<title>Node6&#45;&gt;Node38</title>
<path fill="none" stroke="midnightblue" d="M1048.54,-141.79C1059,-143.08 1069.88,-144.42 1080.57,-145.75"/>
<polygon fill="midnightblue" stroke="midnightblue" points="1080.39,-149.25 1090.74,-147 1081.25,-142.3 1080.39,-149.25"/>
</g>
<!-- Node39 -->
<g id="node39" class="node">
<title>Node39</title>
<g id="a_node39"><a xlink:href="classJoyButtonSlot.html#a1e38b923aa69abbcfb9abb008e692444" target="_top" xlink:title=" ">
<polygon fill="white" stroke="black" points="1092,-108 1092,-127 1229,-127 1229,-108 1092,-108"/>
<text text-anchor="middle" x="1160.5" y="-115" font-family="Helvetica,sans-Serif" font-size="10.00">JoyButtonSlot::getTextData</text>
</a>
</g>
</g>
<!-- Node6&#45;&gt;Node39 -->
<g id="edge47" class="edge">
<title>Node6&#45;&gt;Node39</title>
<path fill="none" stroke="midnightblue" d="M1048.54,-127.47C1059.41,-126.5 1070.74,-125.48 1081.83,-124.48"/>
<polygon fill="midnightblue" stroke="midnightblue" points="1082.28,-127.96 1091.93,-123.57 1081.66,-120.98 1082.28,-127.96"/>
</g>
<!-- Node8 -->
<g id="node8" class="node">
<title>Node8</title>
<g id="a_node8"><a xlink:href="classJoyButton.html#acb0ee9af0f5a44bd07ca5cfbfd026cf6" target="_top" xlink:title=" ">
<polygon fill="white" stroke="black" points="1269,-181 1269,-200 1407,-200 1407,-181 1269,-181"/>
<text text-anchor="middle" x="1338" y="-188" font-family="Helvetica,sans-Serif" font-size="10.00">JoyButton::findJoySlotsEnd</text>
</a>
</g>
</g>
<!-- Node7&#45;&gt;Node8 -->
<g id="edge7" class="edge">
<title>Node7&#45;&gt;Node8</title>
<path fill="none" stroke="midnightblue" d="M1211.49,-88.55C1218.58,-91.44 1225.61,-94.76 1232,-98.5 1267.47,-119.29 1302.03,-152.92 1321.32,-173.25"/>
<polygon fill="midnightblue" stroke="midnightblue" points="1319.01,-175.9 1328.38,-180.82 1324.13,-171.12 1319.01,-175.9"/>
</g>
<!-- Node9 -->
<g id="node9" class="node">
<title>Node9</title>
<g id="a_node9"><a xlink:href="classJoyButtonSlot.html#a6e10409ded595380cbdcfd5c827ab32a" target="_top" xlink:title=" ">
<polygon fill="white" stroke="black" points="1268,-64 1268,-83 1408,-83 1408,-64 1268,-64"/>
<text text-anchor="middle" x="1338" y="-71" font-family="Helvetica,sans-Serif" font-size="10.00">JoyButtonSlot::getSlotString</text>
</a>
</g>
</g>
<!-- Node7&#45;&gt;Node9 -->
<g id="edge8" class="edge">
<title>Node7&#45;&gt;Node9</title>
<path fill="none" stroke="midnightblue" d="M1228.6,-73.5C1238.15,-73.5 1248.05,-73.5 1257.81,-73.5"/>
<polygon fill="midnightblue" stroke="midnightblue" points="1257.9,-77 1267.9,-73.5 1257.9,-70 1257.9,-77"/>
</g>
<!-- Node9&#45;&gt;Node10 -->
<g id="edge9" class="edge">
<title>Node9&#45;&gt;Node10</title>
<path fill="none" stroke="midnightblue" d="M1379.03,-63.95C1406.84,-57.32 1444.08,-48.44 1473.78,-41.36"/>
<polygon fill="midnightblue" stroke="midnightblue" points="1474.63,-44.75 1483.54,-39.03 1473.01,-37.94 1474.63,-44.75"/>
</g>
<!-- Node12 -->
<g id="node12" class="node">
<title>Node12</title>
<g id="a_node12"><a xlink:href="namespacePadderCommon.html#aaa09739d2df84421a5a3467a06ce941c" target="_top" xlink:title="Returns the &quot;human&#45;readable&quot; name of the given profile.">
<polygon fill="white" stroke="black" points="1444,-61 1444,-80 1605,-80 1605,-61 1444,-61"/>
<text text-anchor="middle" x="1524.5" y="-68" font-family="Helvetica,sans-Serif" font-size="10.00">PadderCommon::getProfileName</text>
</a>
</g>
</g>
<!-- Node9&#45;&gt;Node12 -->
<g id="edge11" class="edge">
<title>Node9&#45;&gt;Node12</title>
<path fill="none" stroke="midnightblue" d="M1408.23,-72.37C1416.6,-72.24 1425.25,-72.1 1433.87,-71.96"/>
<polygon fill="midnightblue" stroke="midnightblue" points="1434.01,-75.46 1443.96,-71.79 1433.9,-68.46 1434.01,-75.46"/>
</g>
<!-- Node13 -->
<g id="node13" class="node">
<title>Node13</title>
<g id="a_node13"><a xlink:href="event_8cpp.html#a76ce89b71143c1c09343f45f038b4a67" target="_top" xlink:title=" ">
<polygon fill="white" stroke="black" points="1474,-147 1474,-166 1575,-166 1575,-147 1474,-147"/>
<text text-anchor="middle" x="1524.5" y="-154" font-family="Helvetica,sans-Serif" font-size="10.00">keysymToKeyString</text>
</a>
</g>
</g>
<!-- Node9&#45;&gt;Node13 -->
<g id="edge12" class="edge">
<title>Node9&#45;&gt;Node13</title>
<path fill="none" stroke="midnightblue" d="M1356.14,-83.16C1376.67,-94.53 1412.26,-113.62 1444,-127.5 1457.09,-133.22 1471.7,-138.78 1484.79,-143.48"/>
<polygon fill="midnightblue" stroke="midnightblue" points="1483.86,-146.86 1494.45,-146.89 1486.19,-140.26 1483.86,-146.86"/>
</g>
<!-- Node36 -->
<g id="node36" class="node">
<title>Node36</title>
<g id="a_node36"><a xlink:href="classJoyButtonSlot.html#a37ff2b523177bae4ea6a44b82f2973eb" target="_top" xlink:title=" ">
<polygon fill="white" stroke="black" points="1447,-99 1447,-118 1602,-118 1602,-99 1447,-99"/>
<text text-anchor="middle" x="1524.5" y="-106" font-family="Helvetica,sans-Serif" font-size="10.00">JoyButtonSlot::movementString</text>
</a>
</g>
</g>
<!-- Node9&#45;&gt;Node36 -->
<g id="edge43" class="edge">
<title>Node9&#45;&gt;Node36</title>
<path fill="none" stroke="midnightblue" d="M1389.42,-83.06C1412.19,-87.39 1439.29,-92.53 1463.14,-97.05"/>
<polygon fill="midnightblue" stroke="midnightblue" points="1462.67,-100.52 1473.15,-98.95 1463.97,-93.65 1462.67,-100.52"/>
</g>
<!-- Node11 -->
<g id="node11" class="node">
<title>Node11</title>
<g id="a_node11"><a xlink:href="classJoyButtonSlot.html#a9ba9cb0dda063a7df5575072c0aabe01" target="_top" xlink:title=" ">
<polygon fill="white" stroke="black" points="1641,-0.5 1641,-30.5 1770,-30.5 1770,-0.5 1641,-0.5"/>
<text text-anchor="start" x="1649" y="-18.5" font-family="Helvetica,sans-Serif" font-size="10.00">JoyButtonSlot::secureMix</text>
<text text-anchor="middle" x="1705.5" y="-7.5" font-family="Helvetica,sans-Serif" font-size="10.00">SlotsInit</text>
</a>
</g>
</g>
<!-- Node10&#45;&gt;Node11 -->
<g id="edge10" class="edge">
<title>Node10&#45;&gt;Node11</title>
<path fill="none" stroke="midnightblue" d="M1592.66,-24.25C1605.11,-23.27 1618.17,-22.25 1630.8,-21.26"/>
<polygon fill="midnightblue" stroke="midnightblue" points="1631.12,-24.75 1640.81,-20.48 1630.57,-17.77 1631.12,-24.75"/>
</g>
<!-- Node14 -->
<g id="node14" class="node">
<title>Node14</title>
<g id="a_node14"><a xlink:href="classX11Extras.html#a643c95dc1de8eb073a0accb41619fe83" target="_top" xlink:title="Get display instance.">
<polygon fill="white" stroke="black" points="1845.5,-147 1845.5,-166 1944.5,-166 1944.5,-147 1845.5,-147"/>
<text text-anchor="middle" x="1895" y="-154" font-family="Helvetica,sans-Serif" font-size="10.00">X11Extras::display</text>
</a>
</g>
</g>
<!-- Node13&#45;&gt;Node14 -->
<g id="edge13" class="edge">
<title>Node13&#45;&gt;Node14</title>
<path fill="none" stroke="midnightblue" d="M1575.2,-156.5C1642.7,-156.5 1763.18,-156.5 1835.13,-156.5"/>
<polygon fill="midnightblue" stroke="midnightblue" points="1835.38,-160 1845.38,-156.5 1835.38,-153 1835.38,-160"/>
</g>
<!-- Node15 -->
<g id="node15" class="node">
<title>Node15</title>
<g id="a_node15"><a xlink:href="classBaseEventHandler.html#a9a014e472ec57408d16b8b5eed964e90" target="_top" xlink:title=" ">
<polygon fill="white" stroke="black" points="1817.5,-109 1817.5,-128 1972.5,-128 1972.5,-109 1817.5,-109"/>
<text text-anchor="middle" x="1895" y="-116" font-family="Helvetica,sans-Serif" font-size="10.00">BaseEventHandler::getIdentifier</text>
</a>
</g>
</g>
<!-- Node13&#45;&gt;Node15 -->
<g id="edge14" class="edge">
<title>Node13&#45;&gt;Node15</title>
<path fill="none" stroke="midnightblue" d="M1575.2,-151.38C1634.58,-145.25 1734.97,-134.9 1807.25,-127.45"/>
<polygon fill="midnightblue" stroke="midnightblue" points="1807.66,-130.92 1817.25,-126.41 1806.94,-123.96 1807.66,-130.92"/>
</g>
<!-- Node16 -->
<g id="node16" class="node">
<title>Node16</title>
<g id="a_node16"><a xlink:href="classX11Extras.html#ace76277fced60e6bd6ff880030338182" target="_top" xlink:title=" ">
<polygon fill="white" stroke="black" points="1835.5,-463 1835.5,-482 1954.5,-482 1954.5,-463 1835.5,-463"/>
<text text-anchor="middle" x="1895" y="-470" font-family="Helvetica,sans-Serif" font-size="10.00">X11Extras::getInstance</text>
</a>
</g>
</g>
<!-- Node13&#45;&gt;Node16 -->
<g id="edge15" class="edge">
<title>Node13&#45;&gt;Node16</title>
<path fill="none" stroke="midnightblue" d="M1531.41,-166.08C1557.63,-207.66 1668.21,-373.76 1806,-448.5 1814.47,-453.1 1823.89,-456.86 1833.32,-459.93"/>
<polygon fill="midnightblue" stroke="midnightblue" points="1832.54,-463.35 1843.12,-462.89 1834.56,-456.65 1832.54,-463.35"/>
</g>
<!-- Node19 -->
<g id="node19" class="node">
<title>Node19</title>
<g id="a_node19"><a xlink:href="classEventHandlerFactory.html#a90ce153a19fbb91128bd52eb083ce271" target="_top" xlink:title=" ">
<polygon fill="white" stroke="black" points="1840.5,-185.5 1840.5,-215.5 1949.5,-215.5 1949.5,-185.5 1840.5,-185.5"/>
<text text-anchor="start" x="1848.5" y="-203.5" font-family="Helvetica,sans-Serif" font-size="10.00">EventHandlerFactory</text>
<text text-anchor="middle" x="1895" y="-192.5" font-family="Helvetica,sans-Serif" font-size="10.00">::getInstance</text>
</a>
</g>
</g>
<!-- Node13&#45;&gt;Node19 -->
<g id="edge18" class="edge">
<title>Node13&#45;&gt;Node19</title>
<path fill="none" stroke="midnightblue" d="M1575.24,-162.56C1595.62,-165.03 1619.44,-167.92 1641,-170.5 1705.3,-178.21 1778.81,-186.91 1829.96,-192.95"/>
<polygon fill="midnightblue" stroke="midnightblue" points="1829.86,-196.47 1840.2,-194.16 1830.68,-189.51 1829.86,-196.47"/>
</g>
<!-- Node22 -->
<g id="node22" class="node">
<title>Node22</title>
<g id="a_node22"><a xlink:href="classEventHandlerFactory.html#a4c13007f0ece5bf881080c9c04f1f20d" target="_top" xlink:title=" ">
<polygon fill="white" stroke="black" points="2213,-153.5 2213,-183.5 2322,-183.5 2322,-153.5 2213,-153.5"/>
<text text-anchor="start" x="2221" y="-171.5" font-family="Helvetica,sans-Serif" font-size="10.00">EventHandlerFactory</text>
<text text-anchor="middle" x="2267.5" y="-160.5" font-family="Helvetica,sans-Serif" font-size="10.00">::handler</text>
</a>
</g>
</g>
<!-- Node13&#45;&gt;Node22 -->
<g id="edge24" class="edge">
<title>Node13&#45;&gt;Node22</title>
<path fill="none" stroke="midnightblue" d="M1552.41,-146.92C1641.12,-116.81 1931.56,-30 2158,-97.5 2190.19,-107.1 2221.71,-129.62 2242.41,-146.75"/>
<polygon fill="midnightblue" stroke="midnightblue" points="2240.17,-149.44 2250.06,-153.24 2244.7,-144.1 2240.17,-149.44"/>
</g>
<!-- Node24 -->
<g id="node24" class="node">
<title>Node24</title>
<g id="a_node24"><a xlink:href="event_8cpp.html#ad239a34cab482dc3cad5a23a9ac1ad78" target="_top" xlink:title=" ">
<polygon fill="white" stroke="black" points="1653.5,-273 1653.5,-292 1757.5,-292 1757.5,-273 1653.5,-273"/>
<text text-anchor="middle" x="1705.5" y="-280" font-family="Helvetica,sans-Serif" font-size="10.00">keycodeToKeyString</text>
</a>
</g>
</g>
<!-- Node13&#45;&gt;Node24 -->
<g id="edge25" class="edge">
<title>Node13&#45;&gt;Node24</title>
<path fill="none" stroke="midnightblue" d="M1539.25,-166.18C1570.17,-187.94 1645.41,-240.9 1682.74,-267.18"/>
<polygon fill="midnightblue" stroke="midnightblue" points="1680.76,-270.07 1690.95,-272.96 1684.79,-264.34 1680.76,-270.07"/>
</g>
<!-- Node17 -->
<g id="node17" class="node">
<title>Node17</title>
<g id="a_node17"><a xlink:href="classX11Extras.html#ab9bcb016e23bacb0e988feb8175d2c88" target="_top" xlink:title=" ">
<polygon fill="white" stroke="black" points="2032,-463 2032,-482 2146,-482 2146,-463 2032,-463"/>
<text text-anchor="middle" x="2089" y="-470" font-family="Helvetica,sans-Serif" font-size="10.00">X11Extras::X11Extras</text>
</a>
</g>
</g>
<!-- Node16&#45;&gt;Node17 -->
<g id="edge16" class="edge">
<title>Node16&#45;&gt;Node17</title>
<path fill="none" stroke="midnightblue" d="M1954.65,-472.5C1975.78,-472.5 1999.78,-472.5 2021.54,-472.5"/>
<polygon fill="midnightblue" stroke="midnightblue" points="2021.68,-476 2031.68,-472.5 2021.68,-469 2021.68,-476"/>
</g>
<!-- Node18 -->
<g id="node18" class="node">
<title>Node18</title>
<g id="a_node18"><a xlink:href="classX11Extras.html#a6f63e77ed045e174546d77333672b8f0" target="_top" xlink:title=" ">
<polygon fill="white" stroke="black" points="2200,-457.5 2200,-487.5 2335,-487.5 2335,-457.5 2200,-457.5"/>
<text text-anchor="start" x="2208" y="-475.5" font-family="Helvetica,sans-Serif" font-size="10.00">X11Extras::populateKnown</text>
<text text-anchor="middle" x="2267.5" y="-464.5" font-family="Helvetica,sans-Serif" font-size="10.00">Aliases</text>
</a>
</g>
</g>
<!-- Node17&#45;&gt;Node18 -->
<g id="edge17" class="edge">
<title>Node17&#45;&gt;Node18</title>
<path fill="none" stroke="midnightblue" d="M2146.33,-472.5C2160.18,-472.5 2175.25,-472.5 2189.88,-472.5"/>
<polygon fill="midnightblue" stroke="midnightblue" points="2189.92,-476 2199.92,-472.5 2189.92,-469 2189.92,-476"/>
</g>
<!-- Node20 -->
<g id="node20" class="node">
<title>Node20</title>
<g id="a_node20"><a xlink:href="classEventHandlerFactory.html#ade5162034acc0f8683725fdb124bece0" target="_top" xlink:title=" ">
<polygon fill="white" stroke="black" points="2026,-126.5 2026,-156.5 2152,-156.5 2152,-126.5 2026,-126.5"/>
<text text-anchor="start" x="2034" y="-144.5" font-family="Helvetica,sans-Serif" font-size="10.00">EventHandlerFactory</text>
<text text-anchor="middle" x="2089" y="-133.5" font-family="Helvetica,sans-Serif" font-size="10.00">::buildEventGeneratorList</text>
</a>
</g>
</g>
<!-- Node19&#45;&gt;Node20 -->
<g id="edge19" class="edge">
<title>Node19&#45;&gt;Node20</title>
<path fill="none" stroke="midnightblue" d="M1949.62,-185.63C1960.99,-182.37 1972.91,-178.89 1984,-175.5 2000.17,-170.56 2017.67,-164.95 2033.62,-159.72"/>
<polygon fill="midnightblue" stroke="midnightblue" points="2034.92,-162.98 2043.33,-156.53 2032.74,-156.33 2034.92,-162.98"/>
</g>
<!-- Node21 -->
<g id="node21" class="node">
<title>Node21</title>
<g id="a_node21"><a xlink:href="classEventHandlerFactory.html#a2f843293b2ea47271fc7bd99bd871fa6" target="_top" xlink:title=" ">
<polygon fill="white" stroke="black" points="2031.5,-224.5 2031.5,-254.5 2146.5,-254.5 2146.5,-224.5 2031.5,-224.5"/>
<text text-anchor="start" x="2039.5" y="-242.5" font-family="Helvetica,sans-Serif" font-size="10.00">EventHandlerFactory</text>
<text text-anchor="middle" x="2089" y="-231.5" font-family="Helvetica,sans-Serif" font-size="10.00">::EventHandlerFactory</text>
</a>
</g>
</g>
<!-- Node19&#45;&gt;Node21 -->
<g id="edge20" class="edge">
<title>Node19&#45;&gt;Node21</title>
<path fill="none" stroke="midnightblue" d="M1949.74,-211.42C1971.97,-215.93 1997.97,-221.21 2021.4,-225.97"/>
<polygon fill="midnightblue" stroke="midnightblue" points="2020.76,-229.41 2031.26,-227.97 2022.15,-222.55 2020.76,-229.41"/>
</g>
<!-- Node19&#45;&gt;Node22 -->
<g id="edge23" class="edge">
<title>Node19&#45;&gt;Node22</title>
<path fill="none" stroke="midnightblue" d="M1949.71,-192.06C1961.81,-188.38 1974.01,-183.09 1984,-175.5 2008.46,-156.91 1993.21,-131.54 2020,-116.5 2089.33,-77.58 2184.49,-120.16 2233.84,-148.11"/>
<polygon fill="midnightblue" stroke="midnightblue" points="2232.39,-151.31 2242.79,-153.31 2235.9,-145.26 2232.39,-151.31"/>
</g>
<!-- Node23 -->
<g id="node23" class="node">
<title>Node23</title>
<g id="a_node23"><a xlink:href="classEventHandlerFactory.html#afa5ca0171c70b1a24f92b5c8dd00dc92" target="_top" xlink:title=" ">
<polygon fill="white" stroke="black" points="2034.5,-175.5 2034.5,-205.5 2143.5,-205.5 2143.5,-175.5 2034.5,-175.5"/>
<text text-anchor="start" x="2042.5" y="-193.5" font-family="Helvetica,sans-Serif" font-size="10.00">EventHandlerFactory</text>
<text text-anchor="middle" x="2089" y="-182.5" font-family="Helvetica,sans-Serif" font-size="10.00">::fallBackIdentifier</text>
</a>
</g>
</g>
<!-- Node19&#45;&gt;Node23 -->
<g id="edge22" class="edge">
<title>Node19&#45;&gt;Node23</title>
<path fill="none" stroke="midnightblue" d="M1949.74,-197.7C1972.84,-196.5 2000.02,-195.08 2024.15,-193.83"/>
<polygon fill="midnightblue" stroke="midnightblue" points="2024.47,-197.31 2034.27,-193.3 2024.11,-190.32 2024.47,-197.31"/>
</g>
<!-- Node21&#45;&gt;Node22 -->
<g id="edge21" class="edge">
<title>Node21&#45;&gt;Node22</title>
<path fill="none" stroke="midnightblue" d="M2131.84,-224.48C2140.52,-221.27 2149.58,-217.83 2158,-214.5 2179.42,-206.03 2202.98,-196.11 2222.66,-187.66"/>
<polygon fill="midnightblue" stroke="midnightblue" points="2224.19,-190.81 2231.98,-183.64 2221.41,-184.39 2224.19,-190.81"/>
</g>
<!-- Node24&#45;&gt;Node14 -->
<g id="edge26" class="edge">
<title>Node24&#45;&gt;Node14</title>
<path fill="none" stroke="midnightblue" d="M1712.37,-272.98C1725.98,-251.78 1761.9,-200.58 1806,-175.5 1815.06,-170.35 1825.37,-166.59 1835.67,-163.85"/>
<polygon fill="midnightblue" stroke="midnightblue" points="1836.57,-167.23 1845.49,-161.52 1834.96,-160.42 1836.57,-167.23"/>
</g>
<!-- Node24&#45;&gt;Node15 -->
<g id="edge31" class="edge">
<title>Node24&#45;&gt;Node15</title>
<path fill="none" stroke="midnightblue" d="M1710.12,-272.85C1720.54,-246.49 1753.27,-172.88 1806,-137.5 1808.94,-135.52 1812.06,-133.75 1815.29,-132.16"/>
<polygon fill="midnightblue" stroke="midnightblue" points="1816.85,-135.29 1824.65,-128.13 1814.08,-128.86 1816.85,-135.29"/>
</g>
<!-- Node24&#45;&gt;Node16 -->
<g id="edge39" class="edge">
<title>Node24&#45;&gt;Node16</title>
<path fill="none" stroke="midnightblue" d="M1712.85,-292.02C1724.52,-309.65 1750.06,-348.66 1770,-382.5 1786.97,-411.29 1779.79,-427.78 1806,-448.5 1811.89,-453.16 1818.62,-456.91 1825.68,-459.94"/>
<polygon fill="midnightblue" stroke="midnightblue" points="1824.86,-463.37 1835.45,-463.64 1827.34,-456.83 1824.86,-463.37"/>
</g>
<!-- Node24&#45;&gt;Node19 -->
<g id="edge40" class="edge">
<title>Node24&#45;&gt;Node19</title>
<path fill="none" stroke="midnightblue" d="M1720.76,-272.84C1739.58,-260.44 1774.07,-238.94 1806,-225.5 1813.79,-222.22 1822.13,-219.23 1830.48,-216.54"/>
<polygon fill="midnightblue" stroke="midnightblue" points="1831.71,-219.82 1840.23,-213.53 1829.65,-213.13 1831.71,-219.82"/>
</g>
<!-- Node24&#45;&gt;Node22 -->
<g id="edge41" class="edge">
<title>Node24&#45;&gt;Node22</title>
<path fill="none" stroke="midnightblue" d="M1757.52,-284.56C1859.88,-288.03 2086.62,-292.06 2158,-263.5 2195.47,-248.51 2228.77,-214.73 2248.3,-191.76"/>
<polygon fill="midnightblue" stroke="midnightblue" points="2251.17,-193.78 2254.85,-183.85 2245.78,-189.32 2251.17,-193.78"/>
</g>
<!-- Node25 -->
<g id="node25" class="node">
<title>Node25</title>
<g id="a_node25"><a xlink:href="classWinExtras.html#a3487e64cfb407033d7e28a761d1e76dc" target="_top" xlink:title=" ">
<polygon fill="white" stroke="black" points="1825,-349 1825,-368 1965,-368 1965,-349 1825,-349"/>
<text text-anchor="middle" x="1895" y="-356" font-family="Helvetica,sans-Serif" font-size="10.00">WinExtras::getDisplayString</text>
</a>
</g>
</g>
<!-- Node24&#45;&gt;Node25 -->
<g id="edge27" class="edge">
<title>Node24&#45;&gt;Node25</title>
<path fill="none" stroke="midnightblue" d="M1719.99,-292.04C1738.53,-304.71 1773.29,-326.95 1806,-339.5 1812.82,-342.12 1820.09,-344.41 1827.41,-346.42"/>
<polygon fill="midnightblue" stroke="midnightblue" points="1826.83,-349.88 1837.38,-348.97 1828.56,-343.1 1826.83,-349.88"/>
</g>
<!-- Node26 -->
<g id="node26" class="node">
<title>Node26</title>
<g id="a_node26"><a xlink:href="classUInputHelper.html#ac4c70c9479c1cc0eb515ab1bdf2426f5" target="_top" xlink:title=" ">
<polygon fill="white" stroke="black" points="2204,-407.5 2204,-437.5 2331,-437.5 2331,-407.5 2204,-407.5"/>
<text text-anchor="start" x="2212" y="-425.5" font-family="Helvetica,sans-Serif" font-size="10.00">UInputHelper::getDisplay</text>
<text text-anchor="middle" x="2267.5" y="-414.5" font-family="Helvetica,sans-Serif" font-size="10.00">String</text>
</a>
</g>
</g>
<!-- Node24&#45;&gt;Node26 -->
<g id="edge28" class="edge">
<title>Node24&#45;&gt;Node26</title>
<path fill="none" stroke="midnightblue" d="M1739.09,-292.11C1750.14,-296.75 1761.76,-303.35 1770,-312.5 1802.44,-348.54 1766.67,-387.13 1806,-415.5 1865.96,-458.75 2079.57,-443.17 2193.58,-431.18"/>
<polygon fill="midnightblue" stroke="midnightblue" points="2194.05,-434.65 2203.62,-430.11 2193.3,-427.69 2194.05,-434.65"/>
</g>
<!-- Node28 -->
<g id="node28" class="node">
<title>Node28</title>
<g id="a_node28"><a xlink:href="classX11Extras.html#abe710bac948c9802105a2d9d06815cac" target="_top" xlink:title="Get appropriate alias for a known KeySym string that might be blank or contain invalid characters whe...">
<polygon fill="white" stroke="black" points="1825,-235 1825,-254 1965,-254 1965,-235 1825,-235"/>
<text text-anchor="middle" x="1895" y="-242" font-family="Helvetica,sans-Serif" font-size="10.00">X11Extras::getDisplayString</text>
</a>
</g>
</g>
<!-- Node24&#45;&gt;Node28 -->
<g id="edge30" class="edge">
<title>Node24&#45;&gt;Node28</title>
<path fill="none" stroke="midnightblue" d="M1753.81,-272.91C1779.11,-267.78 1810.45,-261.43 1837.07,-256.04"/>
<polygon fill="midnightblue" stroke="midnightblue" points="1837.92,-259.44 1847.03,-254.02 1836.53,-252.58 1837.92,-259.44"/>
</g>
<!-- Node29 -->
<g id="node29" class="node">
<title>Node29</title>
<g id="a_node29"><a xlink:href="classUInputHelper.html#a61509601d3dbd8933aaa26c1e2db02f6" target="_top" xlink:title=" ">
<polygon fill="white" stroke="black" points="1829.5,-311 1829.5,-330 1960.5,-330 1960.5,-311 1829.5,-311"/>
<text text-anchor="middle" x="1895" y="-318" font-family="Helvetica,sans-Serif" font-size="10.00">UInputHelper::getInstance</text>
</a>
</g>
</g>
<!-- Node24&#45;&gt;Node29 -->
<g id="edge32" class="edge">
<title>Node24&#45;&gt;Node29</title>
<path fill="none" stroke="midnightblue" d="M1753.81,-292.09C1779.11,-297.22 1810.45,-303.57 1837.07,-308.96"/>
<polygon fill="midnightblue" stroke="midnightblue" points="1836.53,-312.42 1847.03,-310.98 1837.92,-305.56 1836.53,-312.42"/>
</g>
<!-- Node35 -->
<g id="node35" class="node">
<title>Node35</title>
<g id="a_node35"><a xlink:href="classWinExtras.html#a0bfa711c1abe72486dfebc8ff6fe7f5a" target="_top" xlink:title="Convert a virtual key into the corresponding keyboard scan code.">
<polygon fill="white" stroke="black" points="1806,-387 1806,-406 1984,-406 1984,-387 1806,-387"/>
<text text-anchor="middle" x="1895" y="-394" font-family="Helvetica,sans-Serif" font-size="10.00">WinExtras::scancodeFromVirtualKey</text>
</a>
</g>
</g>
<!-- Node24&#45;&gt;Node35 -->
<g id="edge42" class="edge">
<title>Node24&#45;&gt;Node35</title>
<path fill="none" stroke="midnightblue" d="M1713.52,-292.1C1728.29,-311.54 1764.64,-355.57 1806,-377.5 1810.46,-379.86 1815.2,-381.93 1820.07,-383.75"/>
<polygon fill="midnightblue" stroke="midnightblue" points="1818.97,-387.07 1829.56,-386.93 1821.19,-380.43 1818.97,-387.07"/>
</g>
<!-- Node27 -->
<g id="node27" class="node">
<title>Node27</title>
<g id="a_node27"><a xlink:href="classUInputHelper.html#a043b0fa7cf4ce5811d01d95f3ca318b7" target="_top" xlink:title=" ">
<polygon fill="white" stroke="black" points="2377,-407.5 2377,-437.5 2533,-437.5 2533,-407.5 2377,-407.5"/>
<text text-anchor="start" x="2385" y="-425.5" font-family="Helvetica,sans-Serif" font-size="10.00">UInputHelper::getKnownAliases</text>
<text text-anchor="middle" x="2455" y="-414.5" font-family="Helvetica,sans-Serif" font-size="10.00">VKStrings</text>
</a>
</g>
</g>
<!-- Node26&#45;&gt;Node27 -->
<g id="edge29" class="edge">
<title>Node26&#45;&gt;Node27</title>
<path fill="none" stroke="midnightblue" d="M2331.04,-422.5C2342.55,-422.5 2354.75,-422.5 2366.82,-422.5"/>
<polygon fill="midnightblue" stroke="midnightblue" points="2366.92,-426 2376.92,-422.5 2366.92,-419 2366.92,-426"/>
</g>
<!-- Node30 -->
<g id="node30" class="node">
<title>Node30</title>
<g id="a_node30"><a xlink:href="classUInputHelper.html#a5d56d23a0e0202435c7a5ff1aca9ce55" target="_top" xlink:title=" ">
<polygon fill="white" stroke="black" points="2020,-313 2020,-332 2158,-332 2158,-313 2020,-313"/>
<text text-anchor="middle" x="2089" y="-320" font-family="Helvetica,sans-Serif" font-size="10.00">UInputHelper::UInputHelper</text>
</a>
</g>
</g>
<!-- Node29&#45;&gt;Node30 -->
<g id="edge33" class="edge">
<title>Node29&#45;&gt;Node30</title>
<path fill="none" stroke="midnightblue" d="M1960.73,-321.17C1976.51,-321.34 1993.55,-321.52 2009.88,-321.69"/>
<polygon fill="midnightblue" stroke="midnightblue" points="2009.9,-325.19 2019.94,-321.79 2009.97,-318.19 2009.9,-325.19"/>
</g>
<!-- Node31 -->
<g id="node31" class="node">
<title>Node31</title>
<g id="a_node31"><a xlink:href="classUInputHelper.html#a0f4dbb4221502d86f7d0af12a9865568" target="_top" xlink:title=" ">
<polygon fill="white" stroke="black" points="2194,-307.5 2194,-337.5 2341,-337.5 2341,-307.5 2194,-307.5"/>
<text text-anchor="start" x="2202" y="-325.5" font-family="Helvetica,sans-Serif" font-size="10.00">UInputHelper::populateKnown</text>
<text text-anchor="middle" x="2267.5" y="-314.5" font-family="Helvetica,sans-Serif" font-size="10.00">Aliases</text>
</a>
</g>
</g>
<!-- Node30&#45;&gt;Node31 -->
<g id="edge34" class="edge">
<title>Node30&#45;&gt;Node31</title>
<path fill="none" stroke="midnightblue" d="M2158.24,-322.5C2166.52,-322.5 2175.04,-322.5 2183.5,-322.5"/>
<polygon fill="midnightblue" stroke="midnightblue" points="2183.76,-326 2193.76,-322.5 2183.76,-319 2183.76,-326"/>
</g>
<!-- Node31&#45;&gt;Node27 -->
<g id="edge35" class="edge">
<title>Node31&#45;&gt;Node27</title>
<path fill="none" stroke="midnightblue" d="M2287.57,-337.54C2308.55,-353.55 2343.72,-378.81 2377,-395.5 2382.96,-398.49 2389.32,-401.29 2395.75,-403.87"/>
<polygon fill="midnightblue" stroke="midnightblue" points="2394.57,-407.17 2405.16,-407.49 2397.09,-400.63 2394.57,-407.17"/>
</g>
<!-- Node32 -->
<g id="node32" class="node">
<title>Node32</title>
<g id="a_node32"><a xlink:href="classUInputHelper.html#a8f3fe71ae635cd3c46eaab79dd11c2e0" target="_top" xlink:title=" ">
<polygon fill="white" stroke="black" points="2377,-356.5 2377,-386.5 2533,-386.5 2533,-356.5 2377,-356.5"/>
<text text-anchor="start" x="2385" y="-374.5" font-family="Helvetica,sans-Serif" font-size="10.00">UInputHelper::getKnownAliases</text>
<text text-anchor="middle" x="2455" y="-363.5" font-family="Helvetica,sans-Serif" font-size="10.00">X11SymVK</text>
</a>
</g>
</g>
<!-- Node31&#45;&gt;Node32 -->
<g id="edge36" class="edge">
<title>Node31&#45;&gt;Node32</title>
<path fill="none" stroke="midnightblue" d="M2325.42,-337.53C2345,-342.71 2367.11,-348.55 2387.4,-353.91"/>
<polygon fill="midnightblue" stroke="midnightblue" points="2386.63,-357.32 2397.19,-356.49 2388.42,-350.56 2386.63,-357.32"/>
</g>
<!-- Node33 -->
<g id="node33" class="node">
<title>Node33</title>
<g id="a_node33"><a xlink:href="classUInputHelper.html#a9793030329fbbe1106b255814ef2bd0f" target="_top" xlink:title=" ">
<polygon fill="white" stroke="black" points="2388,-307.5 2388,-337.5 2522,-337.5 2522,-307.5 2388,-307.5"/>
<text text-anchor="start" x="2396" y="-325.5" font-family="Helvetica,sans-Serif" font-size="10.00">UInputHelper::populateX11</text>
<text text-anchor="middle" x="2455" y="-314.5" font-family="Helvetica,sans-Serif" font-size="10.00">SymVk</text>
</a>
</g>
</g>
<!-- Node31&#45;&gt;Node33 -->
<g id="edge37" class="edge">
<title>Node31&#45;&gt;Node33</title>
<path fill="none" stroke="midnightblue" d="M2341.02,-322.5C2353.08,-322.5 2365.63,-322.5 2377.79,-322.5"/>
<polygon fill="midnightblue" stroke="midnightblue" points="2377.89,-326 2387.89,-322.5 2377.89,-319 2377.89,-326"/>
</g>
<!-- Node34 -->
<g id="node34" class="node">
<title>Node34</title>
<g id="a_node34"><a xlink:href="classUInputHelper.html#af02574de230bb0550eebb63f5a669681" target="_top" xlink:title=" ">
<polygon fill="white" stroke="black" points="2387,-258.5 2387,-288.5 2523,-288.5 2523,-258.5 2387,-258.5"/>
<text text-anchor="start" x="2395" y="-276.5" font-family="Helvetica,sans-Serif" font-size="10.00">UInputHelper::populateXVk</text>
<text text-anchor="middle" x="2455" y="-265.5" font-family="Helvetica,sans-Serif" font-size="10.00">Strings</text>
</a>
</g>
</g>
<!-- Node31&#45;&gt;Node34 -->
<g id="edge38" class="edge">
<title>Node31&#45;&gt;Node34</title>
<path fill="none" stroke="midnightblue" d="M2325.42,-307.47C2345,-302.29 2367.11,-296.45 2387.4,-291.09"/>
<polygon fill="midnightblue" stroke="midnightblue" points="2388.42,-294.44 2397.19,-288.51 2386.63,-287.68 2388.42,-294.44"/>
</g>
<!-- Node40&#45;&gt;Node8 -->
<g id="edge49" class="edge">
<title>Node40&#45;&gt;Node8</title>
<path fill="none" stroke="midnightblue" d="M994.54,-203.16C1013.94,-216.87 1052.1,-241.32 1089,-250.5 1150.68,-265.84 1170.57,-266.81 1232,-250.5 1264.17,-241.96 1296.77,-220.98 1316.92,-206.25"/>
<polygon fill="midnightblue" stroke="midnightblue" points="1319.11,-208.98 1325.01,-200.18 1314.91,-203.39 1319.11,-208.98"/>
</g>
<!-- Node40&#45;&gt;Node37 -->
<g id="edge50" class="edge">
<title>Node40&#45;&gt;Node37</title>
<path fill="none" stroke="midnightblue" d="M1053.13,-193.5C1063.75,-193.5 1074.7,-193.5 1085.37,-193.5"/>
<polygon fill="midnightblue" stroke="midnightblue" points="1085.48,-197 1095.48,-193.5 1085.48,-190 1085.48,-197"/>
</g>
<!-- Node40&#45;&gt;Node38 -->
<g id="edge52" class="edge">
<title>Node40&#45;&gt;Node38</title>
<path fill="none" stroke="midnightblue" d="M1026.42,-183.91C1050.33,-178.81 1079.92,-172.49 1105.12,-167.11"/>
<polygon fill="midnightblue" stroke="midnightblue" points="1105.86,-170.53 1114.91,-165.02 1104.4,-163.69 1105.86,-170.53"/>
</g>
<!-- Node41 -->
<g id="node41" class="node">
<title>Node41</title>
<g id="a_node41"><a xlink:href="classJoyButton.html#ae1d364dfa70f47fae3db99ffbcdea44b" target="_top" xlink:title=" ">
<polygon fill="white" stroke="black" points="1089,-222 1089,-241 1232,-241 1232,-222 1089,-222"/>
<text text-anchor="middle" x="1160.5" y="-229" font-family="Helvetica,sans-Serif" font-size="10.00">JoyButton::getAssignedSlots</text>
</a>
</g>
</g>
<!-- Node40&#45;&gt;Node41 -->
<g id="edge51" class="edge">
<title>Node40&#45;&gt;Node41</title>
<path fill="none" stroke="midnightblue" d="M1026.42,-203.09C1050.33,-208.19 1079.92,-214.51 1105.12,-219.89"/>
<polygon fill="midnightblue" stroke="midnightblue" points="1104.4,-223.31 1114.91,-221.98 1105.86,-216.47 1104.4,-223.31"/>
</g>
<!-- Node44&#45;&gt;Node4 -->
<g id="edge56" class="edge">
<title>Node44&#45;&gt;Node4</title>
<path fill="none" stroke="midnightblue" d="M498.19,-110.09C517.15,-113.94 539.51,-118.49 560.72,-122.8"/>
<polygon fill="midnightblue" stroke="midnightblue" points="560.2,-126.26 570.7,-124.82 561.59,-119.4 560.2,-126.26"/>
</g>
</g>
</svg>
        <g id="navigator" transform="translate(0 0)" fill="#404254">
                <rect fill="#f2f5e9" fill-opacity="0.5" stroke="#606060" stroke-width=".5" x="0" y="0" width="60" height="60"/>
                <use id="zoomplus" xlink:href="#zoomPlus" x="17" y="9" onmousedown="handleZoom(evt,'in')"/>
                <use id="zoomminus" xlink:href="#zoomMin" x="42" y="9" onmousedown="handleZoom(evt,'out')"/>
                <use id="reset" xlink:href="#resetDef" x="30" y="36" onmousedown="handleReset()"/>
                <g id="arrowUp" xlink:href="#dirArrow" transform="translate(30 24)" onmousedown="handlePan(0,-1)">
                  <use xlink:href="#rim" fill="#404040">
                        <set attributeName="fill" to="#808080" begin="arrowUp.mouseover" end="arrowUp.mouseout"/>
                  </use>
                  <path fill="none" stroke="white" stroke-width="1.5" d="M0,-3.0v7 M-2.5,-0.5L0,-3.0L2.5,-0.5"/>
                </g>
                <g id="arrowRight" xlink:href="#dirArrow" transform="rotate(90) translate(36 -43)" onmousedown="handlePan(1,0)">
                  <use xlink:href="#rim" fill="#404040">
                        <set attributeName="fill" to="#808080" begin="arrowRight.mouseover" end="arrowRight.mouseout"/>
                  </use>
                  <path fill="none" stroke="white" stroke-width="1.5" d="M0,-3.0v7 M-2.5,-0.5L0,-3.0L2.5,-0.5"/>
                </g>
                <g id="arrowDown" xlink:href="#dirArrow" transform="rotate(180) translate(-30 -48)" onmousedown="handlePan(0,1)">
                  <use xlink:href="#rim" fill="#404040">
                        <set attributeName="fill" to="#808080" begin="arrowDown.mouseover" end="arrowDown.mouseout"/>
                  </use>
                  <path fill="none" stroke="white" stroke-width="1.5" d="M0,-3.0v7 M-2.5,-0.5L0,-3.0L2.5,-0.5"/>
                </g>
                <g id="arrowLeft" xlink:href="#dirArrow" transform="rotate(270) translate(-36 17)" onmousedown="handlePan(-1,0)">
                  <use xlink:href="#rim" fill="#404040">
                        <set attributeName="fill" to="#808080" begin="arrowLeft.mouseover" end="arrowLeft.mouseout"/>
                  </use>
                  <path fill="none" stroke="white" stroke-width="1.5" d="M0,-3.0v7 M-2.5,-0.5L0,-3.0L2.5,-0.5"/>
                </g>
        </g>
        <svg viewBox="0 0 15 15" width="100%" height="30px" preserveAspectRatio="xMaxYMin meet">
         <g id="arrow_out" transform="scale(0.3 0.3)">
          <a xlink:href="classInputDevice_a5aa8a74d0cc3739e08e6f753dc6df9cd_cgraph_org.svg" target="_base">
           <rect id="button" ry="5" rx="5" y="6" x="6" height="38" width="38"
                fill="#f2f5e9" fill-opacity="0.5" stroke="#606060" stroke-width="1.0"/>
           <path id="arrow"
             d="M 11.500037,31.436501 C 11.940474,20.09759 22.043105,11.32322 32.158766,21.979434 L 37.068811,17.246167 C 37.068811,17.246167 37.088388,32 37.088388,32 L 22.160133,31.978069 C 22.160133,31.978069 26.997745,27.140456 26.997745,27.140456 C 18.528582,18.264221 13.291696,25.230495 11.500037,31.436501 z"
             style="fill:#404040;"/>
          </a>
         </g>
        </svg>
</svg>
