<?xml version="1.0" encoding="UTF-8" standalone="no"?>
<!DOCTYPE svg PUBLIC "-//W3C//DTD SVG 1.1//EN"
 "http://www.w3.org/Graphics/SVG/1.1/DTD/svg11.dtd">
<!-- Generated by graphviz version 2.43.0 (0)
 -->
<!-- Title: JoyButton::setWeightModifier Pages: 1 -->
<svg width="596pt" height="88pt"
 viewBox="0.00 0.00 596.00 88.00" xmlns="http://www.w3.org/2000/svg" xmlns:xlink="http://www.w3.org/1999/xlink">
<g id="graph0" class="graph" transform="scale(1 1) rotate(0) translate(4 84)">
<title>JoyButton::setWeightModifier</title>
<polygon fill="white" stroke="transparent" points="-4,4 -4,-84 592,-84 592,4 -4,4"/>
<!-- Node1 -->
<g id="node1" class="node">
<title>Node1</title>
<g id="a_node1"><a xlink:title="Set the weight modifier to use for mouse smoothing.">
<polygon fill="#bfbfbf" stroke="black" points="443,-30 443,-49 588,-49 588,-30 443,-30"/>
<text text-anchor="middle" x="515.5" y="-37" font-family="Helvetica,sans-Serif" font-size="10.00">JoyButton::setWeightModifier</text>
</a>
</g>
</g>
<!-- Node2 -->
<g id="node2" class="node">
<title>Node2</title>
<g id="a_node2"><a xlink:href="$classAppLaunchHelper.html#a68ac2ed000b4799c038329475fb475b9" xlink:title=" ">
<polygon fill="white" stroke="black" points="241,-49.5 241,-79.5 407,-79.5 407,-49.5 241,-49.5"/>
<text text-anchor="start" x="249" y="-67.5" font-family="Helvetica,sans-Serif" font-size="10.00">AppLaunchHelper::enablePossible</text>
<text text-anchor="middle" x="324" y="-56.5" font-family="Helvetica,sans-Serif" font-size="10.00">MouseSmoothing</text>
</a>
</g>
</g>
<!-- Node1&#45;&gt;Node2 -->
<g id="edge1" class="edge">
<title>Node1&#45;&gt;Node2</title>
<path fill="none" stroke="midnightblue" d="M432.94,-50.26C424.42,-51.38 415.76,-52.53 407.23,-53.65"/>
<polygon fill="midnightblue" stroke="midnightblue" points="433.4,-53.73 442.86,-48.95 432.49,-46.79 433.4,-53.73"/>
</g>
<!-- Node5 -->
<g id="node5" class="node">
<title>Node5</title>
<g id="a_node5"><a xlink:href="$classMainSettingsDialog.html#a07b54c6c80f72c4c5b28b32a58cbcca6" xlink:title=" ">
<polygon fill="white" stroke="black" points="273.5,-0.5 273.5,-30.5 374.5,-30.5 374.5,-0.5 273.5,-0.5"/>
<text text-anchor="start" x="281.5" y="-18.5" font-family="Helvetica,sans-Serif" font-size="10.00">MainSettingsDialog</text>
<text text-anchor="middle" x="324" y="-7.5" font-family="Helvetica,sans-Serif" font-size="10.00">::saveNewSettings</text>
</a>
</g>
</g>
<!-- Node1&#45;&gt;Node5 -->
<g id="edge4" class="edge">
<title>Node1&#45;&gt;Node5</title>
<path fill="none" stroke="midnightblue" d="M432.9,-29.16C413.07,-26.65 392.47,-24.04 374.64,-21.79"/>
<polygon fill="midnightblue" stroke="midnightblue" points="432.5,-32.64 442.86,-30.43 433.38,-25.7 432.5,-32.64"/>
</g>
<!-- Node3 -->
<g id="node3" class="node">
<title>Node3</title>
<g id="a_node3"><a xlink:href="$classAppLaunchHelper.html#ab38c79745e55b3c4665c5b29a5d57a0f" xlink:title=" ">
<polygon fill="white" stroke="black" points="74,-49.5 74,-79.5 205,-79.5 205,-49.5 74,-49.5"/>
<text text-anchor="start" x="82" y="-67.5" font-family="Helvetica,sans-Serif" font-size="10.00">AppLaunchHelper::initRun</text>
<text text-anchor="middle" x="139.5" y="-56.5" font-family="Helvetica,sans-Serif" font-size="10.00">Methods</text>
</a>
</g>
</g>
<!-- Node2&#45;&gt;Node3 -->
<g id="edge2" class="edge">
<title>Node2&#45;&gt;Node3</title>
<path fill="none" stroke="midnightblue" d="M230.74,-64.5C222.13,-64.5 213.54,-64.5 205.26,-64.5"/>
<polygon fill="midnightblue" stroke="midnightblue" points="230.83,-68 240.83,-64.5 230.83,-61 230.83,-68"/>
</g>
<!-- Node4 -->
<g id="node4" class="node">
<title>Node4</title>
<g id="a_node4"><a xlink:href="$main_8cpp.html#a0ddf1224851353fc92bfbff6f499fa97" xlink:title=" ">
<polygon fill="white" stroke="black" points="0,-55 0,-74 38,-74 38,-55 0,-55"/>
<text text-anchor="middle" x="19" y="-62" font-family="Helvetica,sans-Serif" font-size="10.00">main</text>
</a>
</g>
</g>
<!-- Node3&#45;&gt;Node4 -->
<g id="edge3" class="edge">
<title>Node3&#45;&gt;Node4</title>
<path fill="none" stroke="midnightblue" d="M63.49,-64.5C54.24,-64.5 45.54,-64.5 38.39,-64.5"/>
<polygon fill="midnightblue" stroke="midnightblue" points="63.7,-68 73.7,-64.5 63.7,-61 63.7,-68"/>
</g>
<!-- Node6 -->
<g id="node6" class="node">
<title>Node6</title>
<g id="a_node6"><a xlink:href="$classMainSettingsDialog.html#aeee272ff5482aca59310558ffdb9ebbe" xlink:title=" ">
<polygon fill="white" stroke="black" points="86,-0.5 86,-30.5 193,-30.5 193,-0.5 86,-0.5"/>
<text text-anchor="start" x="94" y="-18.5" font-family="Helvetica,sans-Serif" font-size="10.00">MainSettingsDialog</text>
<text text-anchor="middle" x="139.5" y="-7.5" font-family="Helvetica,sans-Serif" font-size="10.00">::MainSettingsDialog</text>
</a>
</g>
</g>
<!-- Node5&#45;&gt;Node6 -->
<g id="edge5" class="edge">
<title>Node5&#45;&gt;Node6</title>
<path fill="none" stroke="midnightblue" d="M263,-15.5C240.45,-15.5 215.01,-15.5 193.18,-15.5"/>
<polygon fill="midnightblue" stroke="midnightblue" points="263.13,-19 273.13,-15.5 263.13,-12 263.13,-19"/>
</g>
</g>
</svg>
