<?xml version="1.0" encoding="UTF-8" standalone="no"?>
<!DOCTYPE svg PUBLIC "-//W3C//DTD SVG 1.1//EN"
 "http://www.w3.org/Graphics/SVG/1.1/DTD/svg11.dtd">
<!-- Generated by graphviz version 2.43.0 (0)
 -->
<!-- Title: QuickSetDialog::showStickButtonDialog Pages: 1 -->
<svg width="486pt" height="39pt"
 viewBox="0.00 0.00 486.00 39.00" xmlns="http://www.w3.org/2000/svg" xmlns:xlink="http://www.w3.org/1999/xlink">
<g id="graph0" class="graph" transform="scale(1 1) rotate(0) translate(4 35)">
<title>QuickSetDialog::showStickButtonDialog</title>
<polygon fill="white" stroke="transparent" points="-4,4 -4,-35 482,-35 482,4 -4,4"/>
<!-- Node1 -->
<g id="node1" class="node">
<title>Node1</title>
<g id="a_node1"><a xlink:title=" ">
<polygon fill="#bfbfbf" stroke="black" points="0,-0.5 0,-30.5 137,-30.5 137,-0.5 0,-0.5"/>
<text text-anchor="start" x="8" y="-18.5" font-family="Helvetica,sans-Serif" font-size="10.00">QuickSetDialog::showStick</text>
<text text-anchor="middle" x="68.5" y="-7.5" font-family="Helvetica,sans-Serif" font-size="10.00">ButtonDialog</text>
</a>
</g>
</g>
<!-- Node2 -->
<g id="node2" class="node">
<title>Node2</title>
<g id="a_node2"><a xlink:href="classQuickSetDialog.html#af61daea37a622937669c8043f42e70b8" target="_top" xlink:title=" ">
<polygon fill="white" stroke="black" points="173,-0.5 173,-30.5 323,-30.5 323,-0.5 173,-0.5"/>
<text text-anchor="start" x="181" y="-18.5" font-family="Helvetica,sans-Serif" font-size="10.00">QuickSetDialog::invokeMethod</text>
<text text-anchor="middle" x="248" y="-7.5" font-family="Helvetica,sans-Serif" font-size="10.00">LastBtn</text>
</a>
</g>
</g>
<!-- Node1&#45;&gt;Node2 -->
<g id="edge1" class="edge">
<title>Node1&#45;&gt;Node2</title>
<path fill="none" stroke="midnightblue" d="M137.11,-15.5C145.49,-15.5 154.14,-15.5 162.73,-15.5"/>
<polygon fill="midnightblue" stroke="midnightblue" points="162.77,-19 172.77,-15.5 162.77,-12 162.77,-19"/>
</g>
<!-- Node3 -->
<g id="node3" class="node">
<title>Node3</title>
<g id="a_node3"><a xlink:href="classButtonEditDialogHelper.html#a2160209c705906abf0510c903f432f42" target="_top" xlink:title=" ">
<polygon fill="white" stroke="black" points="359,-0.5 359,-30.5 478,-30.5 478,-0.5 359,-0.5"/>
<text text-anchor="start" x="367" y="-18.5" font-family="Helvetica,sans-Serif" font-size="10.00">ButtonEditDialogHelper</text>
<text text-anchor="middle" x="418.5" y="-7.5" font-family="Helvetica,sans-Serif" font-size="10.00">::setThisButton</text>
</a>
</g>
</g>
<!-- Node2&#45;&gt;Node3 -->
<g id="edge2" class="edge">
<title>Node2&#45;&gt;Node3</title>
<path fill="none" stroke="midnightblue" d="M323.4,-15.5C331.86,-15.5 340.45,-15.5 348.84,-15.5"/>
<polygon fill="midnightblue" stroke="midnightblue" points="348.93,-19 358.93,-15.5 348.93,-12 348.93,-19"/>
</g>
</g>
</svg>
