<?xml version="1.0" encoding="UTF-8" standalone="no"?>
<!DOCTYPE svg PUBLIC "-//W3C//DTD SVG 1.1//EN"
 "http://www.w3.org/Graphics/SVG/1.1/DTD/svg11.dtd">
<!-- Generated by graphviz version 2.43.0 (0)
 -->
<!-- Title: JoyButton::distanceEvent Pages: 1 -->
<svg width="1383pt" height="634pt"
 viewBox="0.00 0.00 1383.00 633.50" xmlns="http://www.w3.org/2000/svg" xmlns:xlink="http://www.w3.org/1999/xlink">
<g id="graph0" class="graph" transform="scale(1 1) rotate(0) translate(4 629.5)">
<title>JoyButton::distanceEvent</title>
<polygon fill="white" stroke="transparent" points="-4,4 -4,-629.5 1379,-629.5 1379,4 -4,4"/>
<!-- Node1 -->
<g id="node1" class="node">
<title>Node1</title>
<g id="a_node1"><a xlink:title=" ">
<polygon fill="#bfbfbf" stroke="black" points="0,-503 0,-522 128,-522 128,-503 0,-503"/>
<text text-anchor="middle" x="64" y="-510" font-family="Helvetica,sans-Serif" font-size="10.00">JoyButton::distanceEvent</text>
</a>
</g>
</g>
<!-- Node2 -->
<g id="node2" class="node">
<title>Node2</title>
<g id="a_node2"><a xlink:href="classJoyButton.html#a620db17aa5f321ed72d92f742bde3669" target="_top" xlink:title=" ">
<polygon fill="white" stroke="black" points="164,-560.5 164,-590.5 307,-590.5 307,-560.5 164,-560.5"/>
<text text-anchor="start" x="172" y="-578.5" font-family="Helvetica,sans-Serif" font-size="10.00">JoyButton::containsDistance</text>
<text text-anchor="middle" x="235.5" y="-567.5" font-family="Helvetica,sans-Serif" font-size="10.00">Slots</text>
</a>
</g>
</g>
<!-- Node1&#45;&gt;Node2 -->
<g id="edge1" class="edge">
<title>Node1&#45;&gt;Node2</title>
<path fill="none" stroke="midnightblue" d="M90.74,-522.07C115.48,-531.26 153.53,-545.4 184.27,-556.83"/>
<polygon fill="midnightblue" stroke="midnightblue" points="183.37,-560.23 193.97,-560.43 185.81,-553.67 183.37,-560.23"/>
</g>
<!-- Node3 -->
<g id="node3" class="node">
<title>Node3</title>
<g id="a_node3"><a xlink:href="classJoyButton.html#ae1d364dfa70f47fae3db99ffbcdea44b" target="_top" xlink:title=" ">
<polygon fill="white" stroke="black" points="346,-606 346,-625 489,-625 489,-606 346,-606"/>
<text text-anchor="middle" x="417.5" y="-613" font-family="Helvetica,sans-Serif" font-size="10.00">JoyButton::getAssignedSlots</text>
</a>
</g>
</g>
<!-- Node1&#45;&gt;Node3 -->
<g id="edge4" class="edge">
<title>Node1&#45;&gt;Node3</title>
<path fill="none" stroke="midnightblue" d="M72.16,-522.06C86.91,-540.9 122.77,-582.45 164,-599.5 218.32,-621.96 284.85,-625.31 335.98,-623.39"/>
<polygon fill="midnightblue" stroke="midnightblue" points="336.16,-626.89 345.99,-622.94 335.85,-619.9 336.16,-626.89"/>
</g>
<!-- Node4 -->
<g id="node4" class="node">
<title>Node4</title>
<g id="a_node4"><a xlink:href="classJoyButtonSlot.html#abed7fe134c404b403ea79c0753f6eaaf" target="_top" xlink:title=" ">
<polygon fill="white" stroke="black" points="915,-543 915,-562 1054,-562 1054,-543 915,-543"/>
<text text-anchor="middle" x="984.5" y="-550" font-family="Helvetica,sans-Serif" font-size="10.00">JoyButtonSlot::getSlotMode</text>
</a>
</g>
</g>
<!-- Node1&#45;&gt;Node4 -->
<g id="edge7" class="edge">
<title>Node1&#45;&gt;Node4</title>
<path fill="none" stroke="midnightblue" d="M128.12,-517.97C198.44,-523.58 315.51,-531.5 416.5,-531.5 416.5,-531.5 416.5,-531.5 614,-531.5 714.33,-531.5 829.75,-539.31 904.51,-545.41"/>
<polygon fill="midnightblue" stroke="midnightblue" points="904.53,-548.92 914.78,-546.26 905.11,-541.95 904.53,-548.92"/>
</g>
<!-- Node5 -->
<g id="node5" class="node">
<title>Node5</title>
<g id="a_node5"><a xlink:href="classJoyButton.html#a447ec98d3ffd8b2a8668c14d2646851c" target="_top" xlink:title="Get the distance that an element is away from its assigned dead zone.">
<polygon fill="white" stroke="black" points="542,-0.5 542,-30.5 684,-30.5 684,-0.5 542,-0.5"/>
<text text-anchor="start" x="550" y="-18.5" font-family="Helvetica,sans-Serif" font-size="10.00">JoyButton::getDistanceFrom</text>
<text text-anchor="middle" x="613" y="-7.5" font-family="Helvetica,sans-Serif" font-size="10.00">DeadZone</text>
</a>
</g>
</g>
<!-- Node1&#45;&gt;Node5 -->
<g id="edge5" class="edge">
<title>Node1&#45;&gt;Node5</title>
<path fill="none" stroke="midnightblue" d="M66.91,-502.83C74.49,-465.97 104.98,-331.66 164,-237.5 224.43,-141.1 241.57,-106.05 343,-54.5 401.51,-24.76 475.85,-15.83 531.55,-13.87"/>
<polygon fill="midnightblue" stroke="midnightblue" points="531.83,-17.36 541.72,-13.58 531.63,-10.36 531.83,-17.36"/>
</g>
<!-- Node6 -->
<g id="node6" class="node">
<title>Node6</title>
<g id="a_node6"><a xlink:href="classJoyButtonSlot.html#a7fa0bf6d891437a2392e47d32b746502" target="_top" xlink:title=" ">
<polygon fill="white" stroke="black" points="348.5,-484 348.5,-503 486.5,-503 486.5,-484 348.5,-484"/>
<text text-anchor="middle" x="417.5" y="-491" font-family="Helvetica,sans-Serif" font-size="10.00">JoyButtonSlot::getSlotCode</text>
</a>
</g>
</g>
<!-- Node1&#45;&gt;Node6 -->
<g id="edge6" class="edge">
<title>Node1&#45;&gt;Node6</title>
<path fill="none" stroke="midnightblue" d="M128.25,-509.08C187.04,-505.9 274.8,-501.16 338.04,-497.74"/>
<polygon fill="midnightblue" stroke="midnightblue" points="338.56,-501.22 348.36,-497.18 338.19,-494.23 338.56,-501.22"/>
</g>
<!-- Node7 -->
<g id="node7" class="node">
<title>Node7</title>
<g id="a_node7"><a xlink:href="classJoyButton.html#a81b400c291611a14a4856e13fad49f76" target="_top" xlink:title=" ">
<polygon fill="white" stroke="black" points="173,-247.5 173,-277.5 298,-277.5 298,-247.5 173,-247.5"/>
<text text-anchor="start" x="181" y="-265.5" font-family="Helvetica,sans-Serif" font-size="10.00">JoyButton::releaseActive</text>
<text text-anchor="middle" x="235.5" y="-254.5" font-family="Helvetica,sans-Serif" font-size="10.00">Slots</text>
</a>
</g>
</g>
<!-- Node1&#45;&gt;Node7 -->
<g id="edge8" class="edge">
<title>Node1&#45;&gt;Node7</title>
<path fill="none" stroke="midnightblue" d="M71.64,-502.7C96.24,-466.43 182.51,-339.18 218.52,-286.07"/>
<polygon fill="midnightblue" stroke="midnightblue" points="221.53,-287.87 224.24,-277.63 215.74,-283.94 221.53,-287.87"/>
</g>
<!-- Node2&#45;&gt;Node3 -->
<g id="edge2" class="edge">
<title>Node2&#45;&gt;Node3</title>
<path fill="none" stroke="midnightblue" d="M304.04,-590.51C323.82,-594.91 345.16,-599.65 363.87,-603.8"/>
<polygon fill="midnightblue" stroke="midnightblue" points="363.16,-607.23 373.68,-605.99 364.68,-600.4 363.16,-607.23"/>
</g>
<!-- Node2&#45;&gt;Node4 -->
<g id="edge3" class="edge">
<title>Node2&#45;&gt;Node4</title>
<path fill="none" stroke="midnightblue" d="M307.11,-573.33C446.96,-569.02 758.25,-559.44 904.6,-554.93"/>
<polygon fill="midnightblue" stroke="midnightblue" points="904.96,-558.42 914.84,-554.61 904.74,-551.42 904.96,-558.42"/>
</g>
<!-- Node7&#45;&gt;Node4 -->
<g id="edge17" class="edge">
<title>Node7&#45;&gt;Node4</title>
<path fill="none" stroke="midnightblue" d="M253.8,-277.69C296.82,-314.59 413.45,-409.3 528,-455.5 669.24,-512.47 719.51,-472.48 865,-517.5 881.73,-522.68 884.39,-527.95 901,-533.5 908.73,-536.08 916.98,-538.44 925.17,-540.54"/>
<polygon fill="midnightblue" stroke="midnightblue" points="924.53,-543.99 935.08,-542.98 926.21,-537.19 924.53,-543.99"/>
</g>
<!-- Node7&#45;&gt;Node6 -->
<g id="edge16" class="edge">
<title>Node7&#45;&gt;Node6</title>
<path fill="none" stroke="midnightblue" d="M240.06,-277.75C249.73,-315.84 280.09,-415.9 343,-469.5 347.9,-473.67 353.53,-477.12 359.46,-479.97"/>
<polygon fill="midnightblue" stroke="midnightblue" points="358.38,-483.32 368.96,-483.98 361.11,-476.87 358.38,-483.32"/>
</g>
<!-- Node8 -->
<g id="node8" class="node">
<title>Node8</title>
<g id="a_node8"><a xlink:href="classJoyButtonSlot.html#a3b849071be5e1d6f7850209f4187aadb" target="_top" xlink:title=" ">
<polygon fill="white" stroke="black" points="353.5,-198.5 353.5,-228.5 481.5,-228.5 481.5,-198.5 353.5,-198.5"/>
<text text-anchor="start" x="361.5" y="-216.5" font-family="Helvetica,sans-Serif" font-size="10.00">JoyButtonSlot::assignMix</text>
<text text-anchor="middle" x="417.5" y="-205.5" font-family="Helvetica,sans-Serif" font-size="10.00">SlotsToNull</text>
</a>
</g>
</g>
<!-- Node7&#45;&gt;Node8 -->
<g id="edge9" class="edge">
<title>Node7&#45;&gt;Node8</title>
<path fill="none" stroke="midnightblue" d="M291.97,-247.4C310.8,-242.27 331.99,-236.5 351.49,-231.2"/>
<polygon fill="midnightblue" stroke="midnightblue" points="352.48,-234.56 361.21,-228.55 350.64,-227.8 352.48,-234.56"/>
</g>
<!-- Node9 -->
<g id="node9" class="node">
<title>Node9</title>
<g id="a_node9"><a xlink:href="classJoyButton.html#a64f1660931aea2fa8df1bf5e313c05ba" target="_top" xlink:title=" ">
<polygon fill="white" stroke="black" points="352.5,-160 352.5,-179 482.5,-179 482.5,-160 352.5,-160"/>
<text text-anchor="middle" x="417.5" y="-167" font-family="Helvetica,sans-Serif" font-size="10.00">JoyButton::getActiveSlots</text>
</a>
</g>
</g>
<!-- Node7&#45;&gt;Node9 -->
<g id="edge10" class="edge">
<title>Node7&#45;&gt;Node9</title>
<path fill="none" stroke="midnightblue" d="M254.14,-247.27C274.33,-230.57 309.03,-204.08 343,-188.5 348.3,-186.07 353.95,-183.91 359.69,-182.01"/>
<polygon fill="midnightblue" stroke="midnightblue" points="360.84,-185.32 369.37,-179.03 358.78,-178.62 360.84,-185.32"/>
</g>
<!-- Node10 -->
<g id="node10" class="node">
<title>Node10</title>
<g id="a_node10"><a xlink:href="classJoyButton.html#a3a8371dc64de08da55ff78aa7e4bb4d2" target="_top" xlink:title=" ">
<polygon fill="white" stroke="black" points="352.5,-110.5 352.5,-140.5 482.5,-140.5 482.5,-110.5 352.5,-110.5"/>
<text text-anchor="start" x="360.5" y="-128.5" font-family="Helvetica,sans-Serif" font-size="10.00">JoyButton::getActiveSlots</text>
<text text-anchor="middle" x="417.5" y="-117.5" font-family="Helvetica,sans-Serif" font-size="10.00">Local</text>
</a>
</g>
</g>
<!-- Node7&#45;&gt;Node10 -->
<g id="edge11" class="edge">
<title>Node7&#45;&gt;Node10</title>
<path fill="none" stroke="midnightblue" d="M247.17,-247.22C264.59,-223.33 301.41,-177.11 343,-150.5 346.14,-148.49 349.45,-146.63 352.87,-144.9"/>
<polygon fill="midnightblue" stroke="midnightblue" points="354.5,-148 362.11,-140.63 351.57,-141.65 354.5,-148"/>
</g>
<!-- Node11 -->
<g id="node11" class="node">
<title>Node11</title>
<g id="a_node11"><a xlink:href="classJoyButtonSlot.html#a4fb0606a34134786bc642627bc25aedd" target="_top" xlink:title=" ">
<polygon fill="white" stroke="black" points="349.5,-64 349.5,-83 485.5,-83 485.5,-64 349.5,-64"/>
<text text-anchor="middle" x="417.5" y="-71" font-family="Helvetica,sans-Serif" font-size="10.00">JoyButtonSlot::getMixSlots</text>
</a>
</g>
</g>
<!-- Node7&#45;&gt;Node11 -->
<g id="edge12" class="edge">
<title>Node7&#45;&gt;Node11</title>
<path fill="none" stroke="midnightblue" d="M242.59,-247.22C255.99,-215.43 291.05,-141.71 343,-100.5 350.04,-94.91 358.35,-90.41 366.8,-86.81"/>
<polygon fill="midnightblue" stroke="midnightblue" points="368.28,-89.99 376.34,-83.11 365.75,-83.46 368.28,-89.99"/>
</g>
<!-- Node13 -->
<g id="node13" class="node">
<title>Node13</title>
<g id="a_node13"><a xlink:href="classJoyButton.html#a352acb56d462240c593e7b70bca74f55" target="_top" xlink:title="Get the distance factor that should be used for mouse movement.">
<polygon fill="white" stroke="black" points="343,-247.5 343,-277.5 492,-277.5 492,-247.5 343,-247.5"/>
<text text-anchor="start" x="351" y="-265.5" font-family="Helvetica,sans-Serif" font-size="10.00">JoyButton::getMouseDistance</text>
<text text-anchor="middle" x="417.5" y="-254.5" font-family="Helvetica,sans-Serif" font-size="10.00">FromDeadZone</text>
</a>
</g>
</g>
<!-- Node7&#45;&gt;Node13 -->
<g id="edge14" class="edge">
<title>Node7&#45;&gt;Node13</title>
<path fill="none" stroke="midnightblue" d="M298.19,-262.5C309.29,-262.5 321.03,-262.5 332.63,-262.5"/>
<polygon fill="midnightblue" stroke="midnightblue" points="332.77,-266 342.77,-262.5 332.77,-259 332.77,-266"/>
</g>
<!-- Node14 -->
<g id="node14" class="node">
<title>Node14</title>
<g id="a_node14"><a xlink:href="classJoyButton.html#aba9c70c723490a10bfc6134a0f5882da" target="_top" xlink:title=" ">
<polygon fill="white" stroke="black" points="348.5,-297 348.5,-316 486.5,-316 486.5,-297 348.5,-297"/>
<text text-anchor="middle" x="417.5" y="-304" font-family="Helvetica,sans-Serif" font-size="10.00">JoyButton::releaseEachSlot</text>
</a>
</g>
</g>
<!-- Node7&#45;&gt;Node14 -->
<g id="edge18" class="edge">
<title>Node7&#45;&gt;Node14</title>
<path fill="none" stroke="midnightblue" d="M297.94,-277.52C320.71,-283.09 346.21,-289.32 367.7,-294.57"/>
<polygon fill="midnightblue" stroke="midnightblue" points="367.04,-298.01 377.59,-296.99 368.7,-291.21 367.04,-298.01"/>
</g>
<!-- Node12 -->
<g id="node12" class="node">
<title>Node12</title>
<g id="a_node12"><a xlink:href="classJoyButtonSlot.html#a9ba9cb0dda063a7df5575072c0aabe01" target="_top" xlink:title=" ">
<polygon fill="white" stroke="black" points="548.5,-49.5 548.5,-79.5 677.5,-79.5 677.5,-49.5 548.5,-49.5"/>
<text text-anchor="start" x="556.5" y="-67.5" font-family="Helvetica,sans-Serif" font-size="10.00">JoyButtonSlot::secureMix</text>
<text text-anchor="middle" x="613" y="-56.5" font-family="Helvetica,sans-Serif" font-size="10.00">SlotsInit</text>
</a>
</g>
</g>
<!-- Node11&#45;&gt;Node12 -->
<g id="edge13" class="edge">
<title>Node11&#45;&gt;Node12</title>
<path fill="none" stroke="midnightblue" d="M485.63,-70.38C502.61,-69.59 520.92,-68.74 538.2,-67.93"/>
<polygon fill="midnightblue" stroke="midnightblue" points="538.41,-71.43 548.24,-67.47 538.09,-64.43 538.41,-71.43"/>
</g>
<!-- Node13&#45;&gt;Node5 -->
<g id="edge15" class="edge">
<title>Node13&#45;&gt;Node5</title>
<path fill="none" stroke="midnightblue" d="M480.35,-247.43C484.69,-244.66 488.66,-241.38 492,-237.5 550.4,-169.75 467.94,-105.78 528,-39.5 529.61,-37.72 531.35,-36.07 533.19,-34.53"/>
<polygon fill="midnightblue" stroke="midnightblue" points="535.59,-37.12 541.82,-28.55 531.6,-31.37 535.59,-37.12"/>
</g>
<!-- Node15 -->
<g id="node15" class="node">
<title>Node15</title>
<g id="a_node15"><a xlink:href="classJoyButton.html#a5871532865ec08e2f5141bb95feaa64e" target="_top" xlink:title=" ">
<polygon fill="white" stroke="black" points="541,-213.5 541,-243.5 685,-243.5 685,-213.5 541,-213.5"/>
<text text-anchor="start" x="549" y="-231.5" font-family="Helvetica,sans-Serif" font-size="10.00">JoyButton::checkSpringDead</text>
<text text-anchor="middle" x="613" y="-220.5" font-family="Helvetica,sans-Serif" font-size="10.00">Circle</text>
</a>
</g>
</g>
<!-- Node14&#45;&gt;Node15 -->
<g id="edge19" class="edge">
<title>Node14&#45;&gt;Node15</title>
<path fill="none" stroke="midnightblue" d="M466.84,-296.89C475.51,-294.19 484.24,-290.78 492,-286.5 511.01,-276.02 509.12,-264.2 528,-253.5 531.9,-251.29 536.02,-249.25 540.25,-247.39"/>
<polygon fill="midnightblue" stroke="midnightblue" points="541.72,-250.57 549.66,-243.56 539.08,-244.09 541.72,-250.57"/>
</g>
<!-- Node20 -->
<g id="node20" class="node">
<title>Node20</title>
<g id="a_node20"><a xlink:href="classJoyButton.html#a4b16b04fea6fdb16408011661cf774d0" target="_top" xlink:title=" ">
<polygon fill="white" stroke="black" points="543,-263 543,-282 683,-282 683,-263 543,-263"/>
<text text-anchor="middle" x="613" y="-270" font-family="Helvetica,sans-Serif" font-size="10.00">JoyButton::countActiveSlots</text>
</a>
</g>
</g>
<!-- Node14&#45;&gt;Node20 -->
<g id="edge24" class="edge">
<title>Node14&#45;&gt;Node20</title>
<path fill="none" stroke="midnightblue" d="M472.66,-296.98C496.05,-292.87 523.58,-288.04 547.97,-283.75"/>
<polygon fill="midnightblue" stroke="midnightblue" points="548.61,-287.19 557.86,-282.01 547.4,-280.3 548.61,-287.19"/>
</g>
<!-- Node33 -->
<g id="node33" class="node">
<title>Node33</title>
<g id="a_node33"><a xlink:href="classJoyButtonSlot.html#a5a832589b803608127a43ae8f46fcba3" target="_top" xlink:title=" ">
<polygon fill="white" stroke="black" points="538.5,-175 538.5,-194 687.5,-194 687.5,-175 538.5,-175"/>
<text text-anchor="middle" x="613" y="-182" font-family="Helvetica,sans-Serif" font-size="10.00">JoyButtonSlot::getEasingTime</text>
</a>
</g>
</g>
<!-- Node14&#45;&gt;Node33 -->
<g id="edge40" class="edge">
<title>Node14&#45;&gt;Node33</title>
<path fill="none" stroke="midnightblue" d="M474.97,-296.9C481.15,-294.23 487,-290.83 492,-286.5 522.4,-260.18 497.04,-229.16 528,-203.5 530.01,-201.83 532.15,-200.3 534.37,-198.9"/>
<polygon fill="midnightblue" stroke="midnightblue" points="536.18,-201.9 543.35,-194.1 532.88,-195.73 536.18,-201.9"/>
</g>
<!-- Node34 -->
<g id="node34" class="node">
<title>Node34</title>
<g id="a_node34"><a xlink:href="classJoyButtonSlot.html#ab0658ac4e6648852de5f9b622e4c2d25" target="_top" xlink:title=" ">
<polygon fill="white" stroke="black" points="533.5,-137 533.5,-156 692.5,-156 692.5,-137 533.5,-137"/>
<text text-anchor="middle" x="613" y="-144" font-family="Helvetica,sans-Serif" font-size="10.00">JoyButtonSlot::getMouseInterval</text>
</a>
</g>
</g>
<!-- Node14&#45;&gt;Node34 -->
<g id="edge41" class="edge">
<title>Node14&#45;&gt;Node34</title>
<path fill="none" stroke="midnightblue" d="M476.59,-296.96C482.26,-294.27 487.55,-290.84 492,-286.5 532.14,-247.3 487.02,-203.83 528,-165.5 529.52,-164.08 531.11,-162.76 532.78,-161.54"/>
<polygon fill="midnightblue" stroke="midnightblue" points="534.92,-164.33 541.63,-156.13 531.27,-158.36 534.92,-164.33"/>
</g>
<!-- Node35 -->
<g id="node35" class="node">
<title>Node35</title>
<g id="a_node35"><a xlink:href="classJoyButton.html#a581ec2c6d19bb51b2dd5bbe0f4da50fb" target="_top" xlink:title=" ">
<polygon fill="white" stroke="black" points="546,-99 546,-118 680,-118 680,-99 546,-99"/>
<text text-anchor="middle" x="613" y="-106" font-family="Helvetica,sans-Serif" font-size="10.00">JoyButton::getMouseMode</text>
</a>
</g>
</g>
<!-- Node14&#45;&gt;Node35 -->
<g id="edge42" class="edge">
<title>Node14&#45;&gt;Node35</title>
<path fill="none" stroke="midnightblue" d="M477.6,-296.9C482.94,-294.2 487.88,-290.8 492,-286.5 542.12,-234.18 476.76,-178.73 528,-127.5 530.7,-124.8 533.69,-122.46 536.89,-120.42"/>
<polygon fill="midnightblue" stroke="midnightblue" points="538.6,-123.47 545.8,-115.7 535.33,-117.28 538.6,-123.47"/>
</g>
<!-- Node36 -->
<g id="node36" class="node">
<title>Node36</title>
<g id="a_node36"><a xlink:href="classJoyButton.html#a40347dcd1d4e6c5165d8967293ccd6a5" target="_top" xlink:title=" ">
<polygon fill="white" stroke="black" points="541,-427 541,-446 685,-446 685,-427 541,-427"/>
<text text-anchor="middle" x="613" y="-434" font-family="Helvetica,sans-Serif" font-size="10.00">JoyButton::releaseMoveSlots</text>
</a>
</g>
</g>
<!-- Node14&#45;&gt;Node36 -->
<g id="edge43" class="edge">
<title>Node14&#45;&gt;Node36</title>
<path fill="none" stroke="midnightblue" d="M424.91,-316.01C440.06,-337.71 480.44,-391.07 528,-417.5 532,-419.73 536.25,-421.69 540.63,-423.43"/>
<polygon fill="midnightblue" stroke="midnightblue" points="539.78,-426.84 550.38,-426.87 542.11,-420.24 539.78,-426.84"/>
</g>
<!-- Node37 -->
<g id="node37" class="node">
<title>Node37</title>
<g id="a_node37"><a xlink:href="classJoyButtonSlot.html#a62b0c4b9a9c5e72ab31d2ce9b7a776fb" target="_top" xlink:title=" ">
<polygon fill="white" stroke="black" points="544.5,-389 544.5,-408 681.5,-408 681.5,-389 544.5,-389"/>
<text text-anchor="middle" x="613" y="-396" font-family="Helvetica,sans-Serif" font-size="10.00">JoyButtonSlot::setDistance</text>
</a>
</g>
</g>
<!-- Node14&#45;&gt;Node37 -->
<g id="edge44" class="edge">
<title>Node14&#45;&gt;Node37</title>
<path fill="none" stroke="midnightblue" d="M430.18,-316.19C449.38,-331.64 489.36,-361.81 528,-378.5 534.89,-381.48 542.3,-384.05 549.76,-386.27"/>
<polygon fill="midnightblue" stroke="midnightblue" points="548.98,-389.69 559.55,-388.99 550.85,-382.94 548.98,-389.69"/>
</g>
<!-- Node38 -->
<g id="node38" class="node">
<title>Node38</title>
<g id="a_node38"><a xlink:href="classJoyButtonSlot.html#afeedd345cee7fc0f154dcc1cd3db480b" target="_top" xlink:title=" ">
<polygon fill="white" stroke="black" points="549,-339.5 549,-369.5 677,-369.5 677,-339.5 549,-339.5"/>
<text text-anchor="start" x="557" y="-357.5" font-family="Helvetica,sans-Serif" font-size="10.00">JoyButtonSlot::setEasing</text>
<text text-anchor="middle" x="613" y="-346.5" font-family="Helvetica,sans-Serif" font-size="10.00">Status</text>
</a>
</g>
</g>
<!-- Node14&#45;&gt;Node38 -->
<g id="edge45" class="edge">
<title>Node14&#45;&gt;Node38</title>
<path fill="none" stroke="midnightblue" d="M457.19,-316.1C481.26,-322.07 512.95,-329.93 541.38,-336.98"/>
<polygon fill="midnightblue" stroke="midnightblue" points="540.73,-340.43 551.28,-339.44 542.41,-333.63 540.73,-340.43"/>
</g>
<!-- Node39 -->
<g id="node39" class="node">
<title>Node39</title>
<g id="a_node39"><a xlink:href="classJoyButton.html#a258948e91868a4d7c7e256d4959645f7" target="_top" xlink:title=" ">
<polygon fill="white" stroke="black" points="528,-301 528,-320 698,-320 698,-301 528,-301"/>
<text text-anchor="middle" x="613" y="-308" font-family="Helvetica,sans-Serif" font-size="10.00">JoyButton::updateMouseProperties</text>
</a>
</g>
</g>
<!-- Node14&#45;&gt;Node39 -->
<g id="edge46" class="edge">
<title>Node14&#45;&gt;Node39</title>
<path fill="none" stroke="midnightblue" d="M486.72,-307.91C496.78,-308.12 507.29,-308.34 517.76,-308.55"/>
<polygon fill="midnightblue" stroke="midnightblue" points="517.71,-312.05 527.78,-308.76 517.85,-305.05 517.71,-312.05"/>
</g>
<!-- Node16 -->
<g id="node16" class="node">
<title>Node16</title>
<g id="a_node16"><a xlink:href="classJoyButton.html#a60ecfef194078a1d77b4bf7a5e187cbf" target="_top" xlink:title=" ">
<polygon fill="white" stroke="black" points="734,-129.5 734,-159.5 865,-159.5 865,-129.5 734,-129.5"/>
<text text-anchor="start" x="742" y="-147.5" font-family="Helvetica,sans-Serif" font-size="10.00">JoyButton::getSpringDead</text>
<text text-anchor="middle" x="799.5" y="-136.5" font-family="Helvetica,sans-Serif" font-size="10.00">CircleMultiplier</text>
</a>
</g>
</g>
<!-- Node15&#45;&gt;Node16 -->
<g id="edge20" class="edge">
<title>Node15&#45;&gt;Node16</title>
<path fill="none" stroke="midnightblue" d="M676.89,-213.46C684.23,-210.65 691.44,-207.35 698,-203.5 717.25,-192.21 715.14,-180.42 734,-168.5 736.46,-166.94 739.04,-165.47 741.69,-164.07"/>
<polygon fill="midnightblue" stroke="midnightblue" points="743.43,-167.11 750.91,-159.61 740.38,-160.81 743.43,-167.11"/>
</g>
<!-- Node17 -->
<g id="node17" class="node">
<title>Node17</title>
<g id="a_node17"><a xlink:href="classJoyButton.html#a3aade33277da726eb99567f30efa0f00" target="_top" xlink:title=" ">
<polygon fill="white" stroke="black" points="734,-178.5 734,-208.5 865,-208.5 865,-178.5 734,-178.5"/>
<text text-anchor="start" x="742" y="-196.5" font-family="Helvetica,sans-Serif" font-size="10.00">JoyButton::setSpringDead</text>
<text text-anchor="middle" x="799.5" y="-185.5" font-family="Helvetica,sans-Serif" font-size="10.00">Circle</text>
</a>
</g>
</g>
<!-- Node15&#45;&gt;Node17 -->
<g id="edge21" class="edge">
<title>Node15&#45;&gt;Node17</title>
<path fill="none" stroke="midnightblue" d="M685.07,-215.02C697.72,-212.62 710.94,-210.11 723.7,-207.69"/>
<polygon fill="midnightblue" stroke="midnightblue" points="724.64,-211.07 733.81,-205.77 723.33,-204.2 724.64,-211.07"/>
</g>
<!-- Node18 -->
<g id="node18" class="node">
<title>Node18</title>
<g id="a_node18"><a xlink:href="classJoyButton.html#a38f4e806f3c8320d744dd45c329ec0b4" target="_top" xlink:title=" ">
<polygon fill="white" stroke="black" points="914.5,-94.5 914.5,-124.5 1054.5,-124.5 1054.5,-94.5 914.5,-94.5"/>
<text text-anchor="start" x="922.5" y="-112.5" font-family="Helvetica,sans-Serif" font-size="10.00">JoyButton::getCurrentSpring</text>
<text text-anchor="middle" x="984.5" y="-101.5" font-family="Helvetica,sans-Serif" font-size="10.00">DeadCircle</text>
</a>
</g>
</g>
<!-- Node17&#45;&gt;Node18 -->
<g id="edge22" class="edge">
<title>Node17&#45;&gt;Node18</title>
<path fill="none" stroke="midnightblue" d="M846.39,-178.37C852.85,-175.49 859.24,-172.2 865,-168.5 883.78,-156.45 881.71,-144.73 901,-133.5 903.99,-131.76 907.12,-130.14 910.33,-128.62"/>
<polygon fill="midnightblue" stroke="midnightblue" points="911.77,-131.82 919.57,-124.65 909,-125.38 911.77,-131.82"/>
</g>
<!-- Node19 -->
<g id="node19" class="node">
<title>Node19</title>
<g id="a_node19"><a xlink:href="classJoyButton.html#a17e7d44ff2d956493113d7312ab406dc" target="_top" xlink:title=" ">
<polygon fill="white" stroke="black" points="901,-143.5 901,-173.5 1068,-173.5 1068,-143.5 901,-143.5"/>
<text text-anchor="start" x="909" y="-161.5" font-family="Helvetica,sans-Serif" font-size="10.00">JoyButton::getLastMouseDistance</text>
<text text-anchor="middle" x="984.5" y="-150.5" font-family="Helvetica,sans-Serif" font-size="10.00">FromDeadZone</text>
</a>
</g>
</g>
<!-- Node17&#45;&gt;Node19 -->
<g id="edge23" class="edge">
<title>Node17&#45;&gt;Node19</title>
<path fill="none" stroke="midnightblue" d="M865.02,-181.16C874.67,-179.32 884.75,-177.39 894.79,-175.47"/>
<polygon fill="midnightblue" stroke="midnightblue" points="895.64,-178.87 904.8,-173.55 894.32,-171.99 895.64,-178.87"/>
</g>
<!-- Node21 -->
<g id="node21" class="node">
<title>Node21</title>
<g id="a_node21"><a xlink:href="event_8cpp.html#a42a7842a656f2dfc8b8545391502de03" target="_top" xlink:title=" ">
<polygon fill="white" stroke="black" points="769,-357 769,-376 830,-376 830,-357 769,-357"/>
<text text-anchor="middle" x="799.5" y="-364" font-family="Helvetica,sans-Serif" font-size="10.00">sendevent</text>
</a>
</g>
</g>
<!-- Node20&#45;&gt;Node21 -->
<g id="edge25" class="edge">
<title>Node20&#45;&gt;Node21</title>
<path fill="none" stroke="midnightblue" d="M671.1,-282.01C680.31,-284.51 689.58,-287.62 698,-291.5 730.21,-306.34 762.12,-332.66 781.07,-349.84"/>
<polygon fill="midnightblue" stroke="midnightblue" points="778.87,-352.58 788.59,-356.8 783.63,-347.44 778.87,-352.58"/>
</g>
<!-- Node21&#45;&gt;Node4 -->
<g id="edge34" class="edge">
<title>Node21&#45;&gt;Node4</title>
<path fill="none" stroke="midnightblue" d="M807.76,-376.08C820.23,-392.75 846.2,-428.39 865,-460.5 883.28,-491.72 872.63,-511.05 901,-533.5 903.19,-535.24 905.52,-536.82 907.94,-538.26"/>
<polygon fill="midnightblue" stroke="midnightblue" points="906.58,-541.5 917.08,-542.9 909.74,-535.25 906.58,-541.5"/>
</g>
<!-- Node22 -->
<g id="node22" class="node">
<title>Node22</title>
<g id="a_node22"><a xlink:href="event_8cpp.html#a5d4afd531123bc0d5093ae323f20519f" target="_top" xlink:title=" ">
<polygon fill="white" stroke="black" points="937,-193 937,-212 1032,-212 1032,-193 937,-193"/>
<text text-anchor="middle" x="984.5" y="-200" font-family="Helvetica,sans-Serif" font-size="10.00">detectedScriptExt</text>
</a>
</g>
</g>
<!-- Node21&#45;&gt;Node22 -->
<g id="edge26" class="edge">
<title>Node21&#45;&gt;Node22</title>
<path fill="none" stroke="midnightblue" d="M804.21,-356.89C814.88,-330.62 848.26,-257.24 901,-221.5 908.77,-216.23 917.81,-212.41 926.98,-209.64"/>
<polygon fill="midnightblue" stroke="midnightblue" points="928.16,-212.95 936.95,-207.03 926.39,-206.18 928.16,-212.95"/>
</g>
<!-- Node23 -->
<g id="node23" class="node">
<title>Node23</title>
<g id="a_node23"><a xlink:href="classJoyButtonSlot.html#a9f38f6c91eeb67ec4b9ad46a535ceeef" target="_top" xlink:title=" ">
<polygon fill="white" stroke="black" points="914,-505 914,-524 1055,-524 1055,-505 914,-505"/>
<text text-anchor="middle" x="984.5" y="-512" font-family="Helvetica,sans-Serif" font-size="10.00">JoyButtonSlot::getExtraData</text>
</a>
</g>
</g>
<!-- Node21&#45;&gt;Node23 -->
<g id="edge27" class="edge">
<title>Node21&#45;&gt;Node23</title>
<path fill="none" stroke="midnightblue" d="M806.91,-376.24C824.9,-403.32 876.17,-478.53 901,-494.5 905.05,-497.1 909.41,-499.37 913.93,-501.34"/>
<polygon fill="midnightblue" stroke="midnightblue" points="912.81,-504.66 923.4,-504.98 915.32,-498.12 912.81,-504.66"/>
</g>
<!-- Node24 -->
<g id="node24" class="node">
<title>Node24</title>
<g id="a_node24"><a xlink:href="classEventHandlerFactory.html#a90ce153a19fbb91128bd52eb083ce271" target="_top" xlink:title=" ">
<polygon fill="white" stroke="black" points="930,-455.5 930,-485.5 1039,-485.5 1039,-455.5 930,-455.5"/>
<text text-anchor="start" x="938" y="-473.5" font-family="Helvetica,sans-Serif" font-size="10.00">EventHandlerFactory</text>
<text text-anchor="middle" x="984.5" y="-462.5" font-family="Helvetica,sans-Serif" font-size="10.00">::getInstance</text>
</a>
</g>
</g>
<!-- Node21&#45;&gt;Node24 -->
<g id="edge28" class="edge">
<title>Node21&#45;&gt;Node24</title>
<path fill="none" stroke="midnightblue" d="M811.25,-376.05C828.92,-391.36 865.66,-421.57 901,-440.5 908.71,-444.63 917.11,-448.42 925.51,-451.81"/>
<polygon fill="midnightblue" stroke="midnightblue" points="924.35,-455.11 934.94,-455.46 926.88,-448.58 924.35,-455.11"/>
</g>
<!-- Node27 -->
<g id="node27" class="node">
<title>Node27</title>
<g id="a_node27"><a xlink:href="classEventHandlerFactory.html#a4c13007f0ece5bf881080c9c04f1f20d" target="_top" xlink:title=" ">
<polygon fill="white" stroke="black" points="1266,-548.5 1266,-578.5 1375,-578.5 1375,-548.5 1266,-548.5"/>
<text text-anchor="start" x="1274" y="-566.5" font-family="Helvetica,sans-Serif" font-size="10.00">EventHandlerFactory</text>
<text text-anchor="middle" x="1320.5" y="-555.5" font-family="Helvetica,sans-Serif" font-size="10.00">::handler</text>
</a>
</g>
</g>
<!-- Node21&#45;&gt;Node27 -->
<g id="edge36" class="edge">
<title>Node21&#45;&gt;Node27</title>
<path fill="none" stroke="midnightblue" d="M819.61,-376.13C839.44,-385.69 871.61,-399.96 901,-407.5 1043.58,-444.08 1102.15,-372.56 1230,-445.5 1267.76,-467.04 1294.68,-511.6 1308.61,-539.37"/>
<polygon fill="midnightblue" stroke="midnightblue" points="1305.49,-540.95 1312.99,-548.43 1311.79,-537.9 1305.49,-540.95"/>
</g>
<!-- Node29 -->
<g id="node29" class="node">
<title>Node29</title>
<g id="a_node29"><a xlink:href="classJoyButtonSlot.html#a1e38b923aa69abbcfb9abb008e692444" target="_top" xlink:title=" ">
<polygon fill="white" stroke="black" points="916,-379 916,-398 1053,-398 1053,-379 916,-379"/>
<text text-anchor="middle" x="984.5" y="-386" font-family="Helvetica,sans-Serif" font-size="10.00">JoyButtonSlot::getTextData</text>
</a>
</g>
</g>
<!-- Node21&#45;&gt;Node29 -->
<g id="edge35" class="edge">
<title>Node21&#45;&gt;Node29</title>
<path fill="none" stroke="midnightblue" d="M830.31,-370.08C850.79,-372.55 878.98,-375.93 905.6,-379.13"/>
<polygon fill="midnightblue" stroke="midnightblue" points="905.36,-382.63 915.7,-380.35 906.19,-375.68 905.36,-382.63"/>
</g>
<!-- Node30 -->
<g id="node30" class="node">
<title>Node30</title>
<g id="a_node30"><a xlink:href="classBaseEventHandler.html#afd723bd1451d78a34976642783026c40" target="_top" xlink:title=" ">
<polygon fill="white" stroke="black" points="902,-329.5 902,-359.5 1067,-359.5 1067,-329.5 902,-329.5"/>
<text text-anchor="start" x="910" y="-347.5" font-family="Helvetica,sans-Serif" font-size="10.00">BaseEventHandler::sendKeyboard</text>
<text text-anchor="middle" x="984.5" y="-336.5" font-family="Helvetica,sans-Serif" font-size="10.00">Event</text>
</a>
</g>
</g>
<!-- Node21&#45;&gt;Node30 -->
<g id="edge37" class="edge">
<title>Node21&#45;&gt;Node30</title>
<path fill="none" stroke="midnightblue" d="M830.31,-362.92C847.26,-360.88 869.5,-358.21 891.76,-355.53"/>
<polygon fill="midnightblue" stroke="midnightblue" points="892.45,-358.97 901.96,-354.3 891.62,-352.02 892.45,-358.97"/>
</g>
<!-- Node31 -->
<g id="node31" class="node">
<title>Node31</title>
<g id="a_node31"><a xlink:href="classBaseEventHandler.html#a068ae99c4210979beb9e397960f33641" target="_top" xlink:title=" ">
<polygon fill="white" stroke="black" points="907.5,-280.5 907.5,-310.5 1061.5,-310.5 1061.5,-280.5 907.5,-280.5"/>
<text text-anchor="start" x="915.5" y="-298.5" font-family="Helvetica,sans-Serif" font-size="10.00">BaseEventHandler::sendMouse</text>
<text text-anchor="middle" x="984.5" y="-287.5" font-family="Helvetica,sans-Serif" font-size="10.00">ButtonEvent</text>
</a>
</g>
</g>
<!-- Node21&#45;&gt;Node31 -->
<g id="edge38" class="edge">
<title>Node21&#45;&gt;Node31</title>
<path fill="none" stroke="midnightblue" d="M818.66,-356.97C838.51,-346.79 871.44,-330.64 901,-319.5 906.37,-317.48 911.98,-315.52 917.65,-313.66"/>
<polygon fill="midnightblue" stroke="midnightblue" points="918.74,-316.99 927.2,-310.61 916.61,-310.32 918.74,-316.99"/>
</g>
<!-- Node32 -->
<g id="node32" class="node">
<title>Node32</title>
<g id="a_node32"><a xlink:href="classBaseEventHandler.html#a9474d07cb2e38dca07ffac6f08a161ed" target="_top" xlink:title=" ">
<polygon fill="white" stroke="black" points="913,-231.5 913,-261.5 1056,-261.5 1056,-231.5 913,-231.5"/>
<text text-anchor="start" x="921" y="-249.5" font-family="Helvetica,sans-Serif" font-size="10.00">BaseEventHandler::sendText</text>
<text text-anchor="middle" x="984.5" y="-238.5" font-family="Helvetica,sans-Serif" font-size="10.00">EntryEvent</text>
</a>
</g>
</g>
<!-- Node21&#45;&gt;Node32 -->
<g id="edge39" class="edge">
<title>Node21&#45;&gt;Node32</title>
<path fill="none" stroke="midnightblue" d="M807.96,-356.75C823.26,-337.4 860.23,-293.99 901,-270.5 904.07,-268.73 907.27,-267.09 910.56,-265.56"/>
<polygon fill="midnightblue" stroke="midnightblue" points="912.2,-268.67 920.04,-261.54 909.46,-262.22 912.2,-268.67"/>
</g>
<!-- Node25 -->
<g id="node25" class="node">
<title>Node25</title>
<g id="a_node25"><a xlink:href="classEventHandlerFactory.html#ade5162034acc0f8683725fdb124bece0" target="_top" xlink:title=" ">
<polygon fill="white" stroke="black" points="1104,-455.5 1104,-485.5 1230,-485.5 1230,-455.5 1104,-455.5"/>
<text text-anchor="start" x="1112" y="-473.5" font-family="Helvetica,sans-Serif" font-size="10.00">EventHandlerFactory</text>
<text text-anchor="middle" x="1167" y="-462.5" font-family="Helvetica,sans-Serif" font-size="10.00">::buildEventGeneratorList</text>
</a>
</g>
</g>
<!-- Node24&#45;&gt;Node25 -->
<g id="edge29" class="edge">
<title>Node24&#45;&gt;Node25</title>
<path fill="none" stroke="midnightblue" d="M1039.17,-470.5C1056.35,-470.5 1075.67,-470.5 1093.95,-470.5"/>
<polygon fill="midnightblue" stroke="midnightblue" points="1093.97,-474 1103.97,-470.5 1093.97,-467 1093.97,-474"/>
</g>
<!-- Node26 -->
<g id="node26" class="node">
<title>Node26</title>
<g id="a_node26"><a xlink:href="classEventHandlerFactory.html#a2f843293b2ea47271fc7bd99bd871fa6" target="_top" xlink:title=" ">
<polygon fill="white" stroke="black" points="1109.5,-592.5 1109.5,-622.5 1224.5,-622.5 1224.5,-592.5 1109.5,-592.5"/>
<text text-anchor="start" x="1117.5" y="-610.5" font-family="Helvetica,sans-Serif" font-size="10.00">EventHandlerFactory</text>
<text text-anchor="middle" x="1167" y="-599.5" font-family="Helvetica,sans-Serif" font-size="10.00">::EventHandlerFactory</text>
</a>
</g>
</g>
<!-- Node24&#45;&gt;Node26 -->
<g id="edge30" class="edge">
<title>Node24&#45;&gt;Node26</title>
<path fill="none" stroke="midnightblue" d="M1039.17,-479.45C1049.61,-483.1 1059.83,-488.25 1068,-495.5 1097.77,-521.91 1076.38,-548.84 1104,-577.5 1107.4,-581.03 1111.3,-584.19 1115.45,-587.03"/>
<polygon fill="midnightblue" stroke="midnightblue" points="1113.89,-590.17 1124.25,-592.37 1117.52,-584.19 1113.89,-590.17"/>
</g>
<!-- Node24&#45;&gt;Node27 -->
<g id="edge33" class="edge">
<title>Node24&#45;&gt;Node27</title>
<path fill="none" stroke="midnightblue" d="M1039.28,-481.4C1049.36,-484.9 1059.42,-489.49 1068,-495.5 1089.85,-510.79 1080.73,-530.48 1104,-543.5 1150.09,-569.28 1210.53,-572.78 1255.67,-570.69"/>
<polygon fill="midnightblue" stroke="midnightblue" points="1256.14,-574.17 1265.93,-570.11 1255.74,-567.18 1256.14,-574.17"/>
</g>
<!-- Node28 -->
<g id="node28" class="node">
<title>Node28</title>
<g id="a_node28"><a xlink:href="classEventHandlerFactory.html#afa5ca0171c70b1a24f92b5c8dd00dc92" target="_top" xlink:title=" ">
<polygon fill="white" stroke="black" points="1112.5,-504.5 1112.5,-534.5 1221.5,-534.5 1221.5,-504.5 1112.5,-504.5"/>
<text text-anchor="start" x="1120.5" y="-522.5" font-family="Helvetica,sans-Serif" font-size="10.00">EventHandlerFactory</text>
<text text-anchor="middle" x="1167" y="-511.5" font-family="Helvetica,sans-Serif" font-size="10.00">::fallBackIdentifier</text>
</a>
</g>
</g>
<!-- Node24&#45;&gt;Node28 -->
<g id="edge32" class="edge">
<title>Node24&#45;&gt;Node28</title>
<path fill="none" stroke="midnightblue" d="M1039.17,-485.07C1059.08,-490.48 1081.86,-496.66 1102.57,-502.28"/>
<polygon fill="midnightblue" stroke="midnightblue" points="1101.66,-505.66 1112.23,-504.9 1103.49,-498.9 1101.66,-505.66"/>
</g>
<!-- Node26&#45;&gt;Node27 -->
<g id="edge31" class="edge">
<title>Node26&#45;&gt;Node27</title>
<path fill="none" stroke="midnightblue" d="M1219.71,-592.48C1232.08,-588.89 1245.39,-585.02 1258.15,-581.32"/>
<polygon fill="midnightblue" stroke="midnightblue" points="1259.14,-584.68 1267.76,-578.53 1257.18,-577.95 1259.14,-584.68"/>
</g>
</g>
</svg>
