<?xml version="1.0" encoding="UTF-8" standalone="no"?>
<!DOCTYPE svg PUBLIC "-//W3C//DTD SVG 1.1//EN"
 "http://www.w3.org/Graphics/SVG/1.1/DTD/svg11.dtd">
<!-- Generated by graphviz version 2.43.0 (0)
 -->
<!-- Title: AntiMicroSettings::applySettingsToLogger Pages: 1 -->
<svg width="454pt" height="203pt"
 viewBox="0.00 0.00 454.00 202.50" xmlns="http://www.w3.org/2000/svg" xmlns:xlink="http://www.w3.org/1999/xlink">
<g id="graph0" class="graph" transform="scale(1 1) rotate(0) translate(4 198.5)">
<title>AntiMicroSettings::applySettingsToLogger</title>
<polygon fill="white" stroke="transparent" points="-4,4 -4,-198.5 450,-198.5 450,4 -4,4"/>
<!-- Node1 -->
<g id="node1" class="node">
<title>Node1</title>
<g id="a_node1"><a xlink:title="applies settings from command line to logger">
<polygon fill="#bfbfbf" stroke="black" points="0,-71 0,-101 116,-101 116,-71 0,-71"/>
<text text-anchor="start" x="8" y="-89" font-family="Helvetica,sans-Serif" font-size="10.00">AntiMicroSettings::</text>
<text text-anchor="middle" x="58" y="-78" font-family="Helvetica,sans-Serif" font-size="10.00">applySettingsToLogger</text>
</a>
</g>
</g>
<!-- Node2 -->
<g id="node2" class="node">
<title>Node2</title>
<g id="a_node2"><a xlink:href="$classCommandLineUtility.html#aba6b64467cd8351051bac970ceba52f7" xlink:title=" ">
<polygon fill="white" stroke="black" points="164,-164 164,-194 269,-194 269,-164 164,-164"/>
<text text-anchor="start" x="172" y="-182" font-family="Helvetica,sans-Serif" font-size="10.00">CommandLineUtility</text>
<text text-anchor="middle" x="216.5" y="-171" font-family="Helvetica,sans-Serif" font-size="10.00">::getCurrentLogFile</text>
</a>
</g>
</g>
<!-- Node1&#45;&gt;Node2 -->
<g id="edge1" class="edge">
<title>Node1&#45;&gt;Node2</title>
<path fill="none" stroke="midnightblue" d="M76.18,-101.04C94.13,-116.19 123.59,-139.49 152,-155 155.04,-156.66 158.22,-158.26 161.46,-159.78"/>
<polygon fill="midnightblue" stroke="midnightblue" points="160.17,-163.03 170.73,-163.88 163,-156.63 160.17,-163.03"/>
</g>
<!-- Node3 -->
<g id="node3" class="node">
<title>Node3</title>
<g id="a_node3"><a xlink:href="$classCommandLineUtility.html#ab7ae77d077c422505fb129a7aad2cf6c" xlink:title=" ">
<polygon fill="white" stroke="black" points="163,-115 163,-145 270,-145 270,-115 163,-115"/>
<text text-anchor="start" x="171" y="-133" font-family="Helvetica,sans-Serif" font-size="10.00">CommandLineUtility</text>
<text text-anchor="middle" x="216.5" y="-122" font-family="Helvetica,sans-Serif" font-size="10.00">::getCurrentLogLevel</text>
</a>
</g>
</g>
<!-- Node1&#45;&gt;Node3 -->
<g id="edge2" class="edge">
<title>Node1&#45;&gt;Node3</title>
<path fill="none" stroke="midnightblue" d="M112.42,-101.02C125.53,-104.71 139.68,-108.68 153.17,-112.48"/>
<polygon fill="midnightblue" stroke="midnightblue" points="152.28,-115.86 162.85,-115.2 154.17,-109.12 152.28,-115.86"/>
</g>
<!-- Node4 -->
<g id="node4" class="node">
<title>Node4</title>
<g id="a_node4"><a xlink:href="$classLogger.html#ace51996c11edf4539338cdec420dc62b" xlink:title="Get the Instance of logger.">
<polygon fill="white" stroke="black" points="165,-76.5 165,-95.5 268,-95.5 268,-76.5 165,-76.5"/>
<text text-anchor="middle" x="216.5" y="-83.5" font-family="Helvetica,sans-Serif" font-size="10.00">Logger::getInstance</text>
</a>
</g>
</g>
<!-- Node1&#45;&gt;Node4 -->
<g id="edge3" class="edge">
<title>Node1&#45;&gt;Node4</title>
<path fill="none" stroke="midnightblue" d="M116.39,-86C128.79,-86 141.95,-86 154.49,-86"/>
<polygon fill="midnightblue" stroke="midnightblue" points="154.84,-89.5 164.84,-86 154.84,-82.5 154.84,-89.5"/>
</g>
<!-- Node5 -->
<g id="node5" class="node">
<title>Node5</title>
<g id="a_node5"><a xlink:href="$classLogger.html#a5fbd8b1351633453037807a8707b46d7" xlink:title=" ">
<polygon fill="white" stroke="black" points="152,-38.5 152,-57.5 281,-57.5 281,-38.5 152,-38.5"/>
<text text-anchor="middle" x="216.5" y="-45.5" font-family="Helvetica,sans-Serif" font-size="10.00">Logger::setCurrentLogFile</text>
</a>
</g>
</g>
<!-- Node1&#45;&gt;Node5 -->
<g id="edge4" class="edge">
<title>Node1&#45;&gt;Node5</title>
<path fill="none" stroke="midnightblue" d="M116.39,-72.07C132.7,-68.1 150.32,-63.83 166.12,-59.99"/>
<polygon fill="midnightblue" stroke="midnightblue" points="167.31,-63.3 176.2,-57.54 165.66,-56.5 167.31,-63.3"/>
</g>
<!-- Node8 -->
<g id="node8" class="node">
<title>Node8</title>
<g id="a_node8"><a xlink:href="$classLogger.html#a00fdcdbeb39a2d5d4fb27cc36c35c101" xlink:title="Set the highest logging level. Determines which messages are output to the output stream.">
<polygon fill="white" stroke="black" points="164.5,-0.5 164.5,-19.5 268.5,-19.5 268.5,-0.5 164.5,-0.5"/>
<text text-anchor="middle" x="216.5" y="-7.5" font-family="Helvetica,sans-Serif" font-size="10.00">Logger::setLogLevel</text>
</a>
</g>
</g>
<!-- Node1&#45;&gt;Node8 -->
<g id="edge7" class="edge">
<title>Node1&#45;&gt;Node8</title>
<path fill="none" stroke="midnightblue" d="M79.93,-70.99C98.23,-58.4 125.89,-40.67 152,-29 157.06,-26.74 162.45,-24.66 167.89,-22.77"/>
<polygon fill="midnightblue" stroke="midnightblue" points="169.23,-26.01 177.64,-19.57 167.05,-19.36 169.23,-26.01"/>
</g>
<!-- Node6 -->
<g id="node6" class="node">
<title>Node6</title>
<g id="a_node6"><a xlink:href="$classLogger.html#ac0b2a3d6502a6235b19103a81cdfc39a" xlink:title="Flushes output stream and closes stream if requested.">
<polygon fill="white" stroke="black" points="329.5,-57.5 329.5,-76.5 433.5,-76.5 433.5,-57.5 329.5,-57.5"/>
<text text-anchor="middle" x="381.5" y="-64.5" font-family="Helvetica,sans-Serif" font-size="10.00">Logger::closeLogger</text>
</a>
</g>
</g>
<!-- Node5&#45;&gt;Node6 -->
<g id="edge5" class="edge">
<title>Node5&#45;&gt;Node6</title>
<path fill="none" stroke="midnightblue" d="M281.45,-55.45C293.86,-56.9 306.83,-58.41 319.15,-59.85"/>
<polygon fill="midnightblue" stroke="midnightblue" points="318.97,-63.35 329.31,-61.03 319.78,-56.4 318.97,-63.35"/>
</g>
<!-- Node7 -->
<g id="node7" class="node">
<title>Node7</title>
<g id="a_node7"><a xlink:href="$classLogger.html#a08f0798b1c7c7737c3c3ba493117f45d" xlink:title=" ">
<polygon fill="white" stroke="black" points="317,-19.5 317,-38.5 446,-38.5 446,-19.5 317,-19.5"/>
<text text-anchor="middle" x="381.5" y="-26.5" font-family="Helvetica,sans-Serif" font-size="10.00">Logger::setCurrentStream</text>
</a>
</g>
</g>
<!-- Node5&#45;&gt;Node7 -->
<g id="edge6" class="edge">
<title>Node5&#45;&gt;Node7</title>
<path fill="none" stroke="midnightblue" d="M281.45,-40.55C289.85,-39.57 298.51,-38.56 307.05,-37.56"/>
<polygon fill="midnightblue" stroke="midnightblue" points="307.47,-41.04 317,-36.4 306.66,-34.08 307.47,-41.04"/>
</g>
</g>
</svg>
