<?xml version="1.0" encoding="UTF-8" standalone="no"?>
<!DOCTYPE svg PUBLIC "-//W3C//DTD SVG 1.1//EN"
 "http://www.w3.org/Graphics/SVG/1.1/DTD/svg11.dtd">
<!-- Generated by graphviz version 2.43.0 (0)
 -->
<!-- Title: JoyControlStickButton::getCurrentSpringDeadCircle Pages: 1 -->
<svg width="860pt" height="186pt"
 viewBox="0.00 0.00 860.00 186.39" xmlns="http://www.w3.org/2000/svg" xmlns:xlink="http://www.w3.org/1999/xlink">
<g id="graph0" class="graph" transform="scale(1 1) rotate(0) translate(4 182.39)">
<title>JoyControlStickButton::getCurrentSpringDeadCircle</title>
<polygon fill="white" stroke="transparent" points="-4,4 -4,-182.39 856,-182.39 856,4 -4,4"/>
<!-- Node1 -->
<g id="node1" class="node">
<title>Node1</title>
<g id="a_node1"><a xlink:title=" ">
<polygon fill="#bfbfbf" stroke="black" points="0,-79.19 0,-109.19 145,-109.19 145,-79.19 0,-79.19"/>
<text text-anchor="start" x="8" y="-97.19" font-family="Helvetica,sans-Serif" font-size="10.00">JoyControlStickButton</text>
<text text-anchor="middle" x="72.5" y="-86.19" font-family="Helvetica,sans-Serif" font-size="10.00">::getCurrentSpringDeadCircle</text>
</a>
</g>
</g>
<!-- Node2 -->
<g id="node2" class="node">
<title>Node2</title>
<g id="a_node2"><a xlink:href="classJoyControlStick.html#adc7f1ec205b3951e973ae9a44609e197" target="_top" xlink:title=" ">
<polygon fill="white" stroke="black" points="181,-116.19 181,-146.19 314,-146.19 314,-116.19 181,-116.19"/>
<text text-anchor="start" x="189" y="-134.19" font-family="Helvetica,sans-Serif" font-size="10.00">JoyControlStick::getSpring</text>
<text text-anchor="middle" x="247.5" y="-123.19" font-family="Helvetica,sans-Serif" font-size="10.00">DeadCircleX</text>
</a>
</g>
</g>
<!-- Node1&#45;&gt;Node2 -->
<g id="edge1" class="edge">
<title>Node1&#45;&gt;Node2</title>
<path fill="none" stroke="midnightblue" d="M143.87,-109.24C152.77,-111.14 161.91,-113.1 170.89,-115.02"/>
<polygon fill="midnightblue" stroke="midnightblue" points="170.43,-118.5 180.94,-117.17 171.9,-111.66 170.43,-118.5"/>
</g>
<!-- Node8 -->
<g id="node8" class="node">
<title>Node8</title>
<g id="a_node8"><a xlink:href="classJoyControlStick.html#a35a83aade124012d5181a739f421ff0b" target="_top" xlink:title=" ">
<polygon fill="white" stroke="black" points="181,-55.19 181,-85.19 314,-85.19 314,-55.19 181,-55.19"/>
<text text-anchor="start" x="189" y="-73.19" font-family="Helvetica,sans-Serif" font-size="10.00">JoyControlStick::getSpring</text>
<text text-anchor="middle" x="247.5" y="-62.19" font-family="Helvetica,sans-Serif" font-size="10.00">DeadCircleY</text>
</a>
</g>
</g>
<!-- Node1&#45;&gt;Node8 -->
<g id="edge8" class="edge">
<title>Node1&#45;&gt;Node8</title>
<path fill="none" stroke="midnightblue" d="M145.11,-84.26C153.6,-83.08 162.28,-81.87 170.82,-80.69"/>
<polygon fill="midnightblue" stroke="midnightblue" points="171.34,-84.15 180.76,-79.31 170.37,-77.22 171.34,-84.15"/>
</g>
<!-- Node3 -->
<g id="node3" class="node">
<title>Node3</title>
<g id="a_node3"><a xlink:href="classJoyControlStick.html#ac6fc21b89fe06fed5bc9434b38fe65ff" target="_top" xlink:title=" ">
<polygon fill="white" stroke="black" points="354.5,-129.19 354.5,-159.19 485.5,-159.19 485.5,-129.19 354.5,-129.19"/>
<text text-anchor="start" x="362.5" y="-147.19" font-family="Helvetica,sans-Serif" font-size="10.00">JoyControlStick::calculate</text>
<text text-anchor="middle" x="420" y="-136.19" font-family="Helvetica,sans-Serif" font-size="10.00">XDiagonalDeadZone</text>
</a>
</g>
</g>
<!-- Node2&#45;&gt;Node3 -->
<g id="edge2" class="edge">
<title>Node2&#45;&gt;Node3</title>
<path fill="none" stroke="midnightblue" d="M314.42,-136.22C324.16,-136.96 334.25,-137.73 344.15,-138.48"/>
<polygon fill="midnightblue" stroke="midnightblue" points="344.14,-141.99 354.38,-139.26 344.67,-135.01 344.14,-141.99"/>
</g>
<!-- Node5 -->
<g id="node5" class="node">
<title>Node5</title>
<g id="a_node5"><a xlink:href="classJoyAxis.html#a0580ab0df546a1c03b4e8f755ad00272" target="_top" xlink:title=" ">
<polygon fill="white" stroke="black" points="705,-121.69 705,-140.69 852,-140.69 852,-121.69 705,-121.69"/>
<text text-anchor="middle" x="778.5" y="-128.69" font-family="Helvetica,sans-Serif" font-size="10.00">JoyAxis::getCurrentRawValue</text>
</a>
</g>
</g>
<!-- Node2&#45;&gt;Node5 -->
<g id="edge6" class="edge">
<title>Node2&#45;&gt;Node5</title>
<path fill="none" stroke="midnightblue" d="M280.12,-146.38C299.74,-154.95 325.75,-164.8 350,-169.19 487.71,-194.12 653.46,-162.02 731.98,-143.15"/>
<polygon fill="midnightblue" stroke="midnightblue" points="733.14,-146.47 742.02,-140.69 731.48,-139.67 733.14,-146.47"/>
</g>
<!-- Node7 -->
<g id="node7" class="node">
<title>Node7</title>
<g id="a_node7"><a xlink:href="classJoyAxis.html#ac5fab6f5b5159f85843c97032f669c8b" target="_top" xlink:title=" ">
<polygon fill="white" stroke="black" points="350,-80.19 350,-110.19 490,-110.19 490,-80.19 350,-80.19"/>
<text text-anchor="start" x="358" y="-98.19" font-family="Helvetica,sans-Serif" font-size="10.00">JoyAxis::getLastKnownRaw</text>
<text text-anchor="middle" x="420" y="-87.19" font-family="Helvetica,sans-Serif" font-size="10.00">Value</text>
</a>
</g>
</g>
<!-- Node2&#45;&gt;Node7 -->
<g id="edge7" class="edge">
<title>Node2&#45;&gt;Node7</title>
<path fill="none" stroke="midnightblue" d="M314.42,-117.27C322.77,-115.51 331.38,-113.69 339.91,-111.89"/>
<polygon fill="midnightblue" stroke="midnightblue" points="340.81,-115.28 349.87,-109.79 339.36,-108.43 340.81,-115.28"/>
</g>
<!-- Node4 -->
<g id="node4" class="node">
<title>Node4</title>
<g id="a_node4"><a xlink:href="classJoyControlStick.html#a9a9a23ba2fd1d4304e759a2de2985a69" target="_top" xlink:title="Calculate the current direction of the stick based on the values of the X and Y axes and the current ...">
<polygon fill="white" stroke="black" points="532,-116.19 532,-146.19 663,-146.19 663,-116.19 532,-116.19"/>
<text text-anchor="start" x="540" y="-134.19" font-family="Helvetica,sans-Serif" font-size="10.00">JoyControlStick::calculate</text>
<text text-anchor="middle" x="597.5" y="-123.19" font-family="Helvetica,sans-Serif" font-size="10.00">StickDirection</text>
</a>
</g>
</g>
<!-- Node3&#45;&gt;Node4 -->
<g id="edge3" class="edge">
<title>Node3&#45;&gt;Node4</title>
<path fill="none" stroke="midnightblue" d="M485.85,-139.39C497.6,-138.52 509.94,-137.6 521.94,-136.71"/>
<polygon fill="midnightblue" stroke="midnightblue" points="522.2,-140.2 531.92,-135.97 521.68,-133.22 522.2,-140.2"/>
</g>
<!-- Node6 -->
<g id="node6" class="node">
<title>Node6</title>
<g id="a_node6"><a xlink:href="classJoyControlStick.html#af1d63f69041b08e3e1e086768a4c22cf" target="_top" xlink:title=" ">
<polygon fill="white" stroke="black" points="526,-55.19 526,-85.19 669,-85.19 669,-55.19 526,-55.19"/>
<text text-anchor="start" x="534" y="-73.19" font-family="Helvetica,sans-Serif" font-size="10.00">JoyControlStick::getDiagonal</text>
<text text-anchor="middle" x="597.5" y="-62.19" font-family="Helvetica,sans-Serif" font-size="10.00">ZoneAngles</text>
</a>
</g>
</g>
<!-- Node3&#45;&gt;Node6 -->
<g id="edge5" class="edge">
<title>Node3&#45;&gt;Node6</title>
<path fill="none" stroke="midnightblue" d="M466.53,-129.11C474.41,-126.28 482.48,-123.25 490,-120.19 512.7,-110.94 537.52,-99.38 557.48,-89.7"/>
<polygon fill="midnightblue" stroke="midnightblue" points="559.12,-92.8 566.57,-85.26 556.05,-86.51 559.12,-92.8"/>
</g>
<!-- Node4&#45;&gt;Node5 -->
<g id="edge4" class="edge">
<title>Node4&#45;&gt;Node5</title>
<path fill="none" stroke="midnightblue" d="M663.12,-131.19C673.37,-131.19 684.09,-131.19 694.68,-131.19"/>
<polygon fill="midnightblue" stroke="midnightblue" points="694.77,-134.69 704.77,-131.19 694.77,-127.69 694.77,-134.69"/>
</g>
<!-- Node8&#45;&gt;Node5 -->
<g id="edge12" class="edge">
<title>Node8&#45;&gt;Node5</title>
<path fill="none" stroke="midnightblue" d="M271.98,-55.07C291.86,-43.22 321.58,-27.69 350,-21.19 488.63,10.52 538.11,9.41 669,-46.19 706.36,-62.06 741.85,-94.22 761.54,-114.11"/>
<polygon fill="midnightblue" stroke="midnightblue" points="759.28,-116.81 768.74,-121.56 764.31,-111.94 759.28,-116.81"/>
</g>
<!-- Node8&#45;&gt;Node7 -->
<g id="edge13" class="edge">
<title>Node8&#45;&gt;Node7</title>
<path fill="none" stroke="midnightblue" d="M314.42,-79.86C322.77,-81.08 331.38,-82.34 339.91,-83.59"/>
<polygon fill="midnightblue" stroke="midnightblue" points="339.47,-87.07 349.87,-85.05 340.48,-80.14 339.47,-87.07"/>
</g>
<!-- Node9 -->
<g id="node9" class="node">
<title>Node9</title>
<g id="a_node9"><a xlink:href="classJoyControlStick.html#a43fbe48eb9346deff4cf7264d36912c9" target="_top" xlink:title=" ">
<polygon fill="white" stroke="black" points="354.5,-31.19 354.5,-61.19 485.5,-61.19 485.5,-31.19 354.5,-31.19"/>
<text text-anchor="start" x="362.5" y="-49.19" font-family="Helvetica,sans-Serif" font-size="10.00">JoyControlStick::calculate</text>
<text text-anchor="middle" x="420" y="-38.19" font-family="Helvetica,sans-Serif" font-size="10.00">YDiagonalDeadZone</text>
</a>
</g>
</g>
<!-- Node8&#45;&gt;Node9 -->
<g id="edge9" class="edge">
<title>Node8&#45;&gt;Node9</title>
<path fill="none" stroke="midnightblue" d="M314.42,-60.91C324.26,-59.53 334.46,-58.09 344.46,-56.68"/>
<polygon fill="midnightblue" stroke="midnightblue" points="344.96,-60.15 354.38,-55.29 343.99,-53.22 344.96,-60.15"/>
</g>
<!-- Node9&#45;&gt;Node4 -->
<g id="edge10" class="edge">
<title>Node9&#45;&gt;Node4</title>
<path fill="none" stroke="midnightblue" d="M467.3,-61.22C475.02,-64.22 482.84,-67.57 490,-71.19 507.16,-79.86 509.41,-85.47 526,-95.19 535.62,-100.83 546.23,-106.51 556.23,-111.64"/>
<polygon fill="midnightblue" stroke="midnightblue" points="554.69,-114.79 565.2,-116.18 557.86,-108.54 554.69,-114.79"/>
</g>
<!-- Node9&#45;&gt;Node6 -->
<g id="edge11" class="edge">
<title>Node9&#45;&gt;Node6</title>
<path fill="none" stroke="midnightblue" d="M485.85,-55.06C495.59,-56.39 505.74,-57.78 515.76,-59.15"/>
<polygon fill="midnightblue" stroke="midnightblue" points="515.34,-62.62 525.72,-60.51 516.29,-55.69 515.34,-62.62"/>
</g>
</g>
</svg>
