<?xml version="1.0" encoding="UTF-8" standalone="no"?>
<!DOCTYPE svg PUBLIC "-//W3C//DTD SVG 1.1//EN"
 "http://www.w3.org/Graphics/SVG/1.1/DTD/svg11.dtd">
<!-- Generated by graphviz version 2.43.0 (0)
 -->
<!-- Title: JoyControlStick::getAxisX Pages: 1 -->
<!--zoomable 363 -->
<svg id="main" version="1.1" xmlns="http://www.w3.org/2000/svg" xmlns:xlink="http://www.w3.org/1999/xlink" xml:space="preserve" onload="init(evt)">
<style type="text/css"><![CDATA[
.edge:hover path { stroke: red; }
.edge:hover polygon { stroke: red; fill: red; }
]]></style>
<script type="text/javascript"><![CDATA[
var edges = document.getElementsByTagName('g');
if (edges && edges.length) {
  for (var i=0;i<edges.length;i++) {
    if (edges[i].id.substr(0,4)=='edge') {
      edges[i].setAttribute('class','edge');
    }
  }
}
]]></script>
        <defs>
                <circle id="rim" cx="0" cy="0" r="7"/>
                <circle id="rim2" cx="0" cy="0" r="3.5"/>
                <g id="zoomPlus">
                        <use xlink:href="#rim" fill="#404040">
                                <set attributeName="fill" to="#808080" begin="zoomplus.mouseover" end="zoomplus.mouseout"/>
                        </use>
                        <path d="M-4,0h8M0,-4v8" fill="none" stroke="white" stroke-width="1.5" pointer-events="none"/>
                </g>
                <g id="zoomMin">
                        <use xlink:href="#rim" fill="#404040">
                                <set attributeName="fill" to="#808080" begin="zoomminus.mouseover" end="zoomminus.mouseout"/>
                        </use>
                        <path d="M-4,0h8" fill="none" stroke="white" stroke-width="1.5" pointer-events="none"/>
                </g>
                <g id="dirArrow">
                        <path fill="none" stroke="white" stroke-width="1.5" d="M0,-3.0v7 M-2.5,-0.5L0,-3.0L2.5,-0.5"/>
                </g>
               <g id="resetDef">
                       <use xlink:href="#rim2" fill="#404040">
                               <set attributeName="fill" to="#808080" begin="reset.mouseover" end="reset.mouseout"/>
                       </use>
               </g>
        </defs>

<script type="text/javascript">
var viewWidth = 890;
var viewHeight = 363;
var sectionId = 'dynsection-80';
</script>
<script xlink:href="svgpan.js"/>
<svg id="graph" class="graph">
<g id="viewport">
<title>JoyControlStick::getAxisX</title>
<polygon fill="white" stroke="transparent" points="-4,4 -4,-359 886,-359 886,4 -4,4"/>
<!-- Node1 -->
<g id="node1" class="node">
<title>Node1</title>
<g id="a_node1"><a xlink:title=" ">
<polygon fill="#bfbfbf" stroke="black" points="751,-126 751,-145 882,-145 882,-126 751,-126"/>
<text text-anchor="middle" x="816.5" y="-133" font-family="Helvetica,sans-Serif" font-size="10.00">JoyControlStick::getAxisX</text>
</a>
</g>
</g>
<!-- Node2 -->
<g id="node2" class="node">
<title>Node2</title>
<g id="a_node2"><a xlink:href="classAdvanceStickAssignmentDialog.html#a413695eacc51854fa9e524ca92b9bddb" target="_top" xlink:title=" ">
<polygon fill="white" stroke="black" points="559,-251.5 559,-281.5 715,-281.5 715,-251.5 559,-251.5"/>
<text text-anchor="start" x="567" y="-269.5" font-family="Helvetica,sans-Serif" font-size="10.00">AdvanceStickAssignmentDialog</text>
<text text-anchor="middle" x="637" y="-258.5" font-family="Helvetica,sans-Serif" font-size="10.00">::refreshStickConfiguration</text>
</a>
</g>
</g>
<!-- Node1&#45;&gt;Node2 -->
<g id="edge1" class="edge">
<title>Node1&#45;&gt;Node2</title>
<path fill="none" stroke="midnightblue" d="M794.04,-151.34C759.58,-176.77 692.35,-226.39 658.51,-251.37"/>
<polygon fill="midnightblue" stroke="midnightblue" points="796.48,-153.89 802.45,-145.13 792.32,-148.25 796.48,-153.89"/>
</g>
<!-- Node7 -->
<g id="node7" class="node">
<title>Node7</title>
<g id="a_node7"><a xlink:href="classJoyControlStick.html#a61e269bc3ba21ed3d087bdd1c2c9aafd" target="_top" xlink:title=" ">
<polygon fill="white" stroke="black" points="562,-164 562,-183 712,-183 712,-164 562,-164"/>
<text text-anchor="middle" x="637" y="-171" font-family="Helvetica,sans-Serif" font-size="10.00">JoyControlStick::setDeadZone</text>
</a>
</g>
</g>
<!-- Node1&#45;&gt;Node7 -->
<g id="edge6" class="edge">
<title>Node1&#45;&gt;Node7</title>
<path fill="none" stroke="midnightblue" d="M760.6,-147.25C735.5,-152.63 706.16,-158.91 682.47,-163.98"/>
<polygon fill="midnightblue" stroke="midnightblue" points="761.66,-150.6 770.71,-145.09 760.2,-143.76 761.66,-150.6"/>
</g>
<!-- Node16 -->
<g id="node16" class="node">
<title>Node16</title>
<g id="a_node16"><a xlink:href="classJoyControlStick.html#aa236bf1eb5e70e282a47bde20c4ef6a3" target="_top" xlink:title=" ">
<polygon fill="white" stroke="black" points="564,-126 564,-145 710,-145 710,-126 564,-126"/>
<text text-anchor="middle" x="637" y="-133" font-family="Helvetica,sans-Serif" font-size="10.00">JoyControlStick::setMaxZone</text>
</a>
</g>
</g>
<!-- Node1&#45;&gt;Node16 -->
<g id="edge16" class="edge">
<title>Node1&#45;&gt;Node16</title>
<path fill="none" stroke="midnightblue" d="M740.83,-135.5C730.64,-135.5 720.19,-135.5 710.04,-135.5"/>
<polygon fill="midnightblue" stroke="midnightblue" points="740.92,-139 750.92,-135.5 740.92,-132 740.92,-139"/>
</g>
<!-- Node17 -->
<g id="node17" class="node">
<title>Node17</title>
<g id="a_node17"><a xlink:href="classCalibration.html#a67756310429bca0aa53d0a9a42a6caca" target="_top" xlink:title="Creates progress bars for axes and creates connections.">
<polygon fill="white" stroke="black" points="566,-88 566,-107 708,-107 708,-88 566,-88"/>
<text text-anchor="middle" x="637" y="-95" font-family="Helvetica,sans-Serif" font-size="10.00">Calibration::setProgressBars</text>
</a>
</g>
</g>
<!-- Node1&#45;&gt;Node17 -->
<g id="edge20" class="edge">
<title>Node1&#45;&gt;Node17</title>
<path fill="none" stroke="midnightblue" d="M760.6,-123.75C735.5,-118.37 706.16,-112.09 682.47,-107.02"/>
<polygon fill="midnightblue" stroke="midnightblue" points="760.2,-127.24 770.71,-125.91 761.66,-120.4 760.2,-127.24"/>
</g>
<!-- Node18 -->
<g id="node18" class="node">
<title>Node18</title>
<g id="a_node18"><a xlink:href="classInputDeviceXml.html#a12bf094c5ab0ab10dae089e41fbc778c" target="_top" xlink:title=" ">
<polygon fill="white" stroke="black" points="566,-50 566,-69 708,-69 708,-50 566,-50"/>
<text text-anchor="middle" x="637" y="-57" font-family="Helvetica,sans-Serif" font-size="10.00">InputDeviceXml::writeConfig</text>
</a>
</g>
</g>
<!-- Node1&#45;&gt;Node18 -->
<g id="edge21" class="edge">
<title>Node1&#45;&gt;Node18</title>
<path fill="none" stroke="midnightblue" d="M792.88,-120.27C773.08,-107.54 743.15,-89.71 715,-78.5 705.66,-74.78 695.39,-71.64 685.47,-69.05"/>
<polygon fill="midnightblue" stroke="midnightblue" points="791.19,-123.35 801.48,-125.89 795.02,-117.49 791.19,-123.35"/>
</g>
<!-- Node3 -->
<g id="node3" class="node">
<title>Node3</title>
<g id="a_node3"><a xlink:href="classAdvanceStickAssignmentDialog.html#a86cf0001cd774ce5ccec8543b7a9a50b" target="_top" xlink:title=" ">
<polygon fill="white" stroke="black" points="361,-251.5 361,-281.5 523,-281.5 523,-251.5 361,-251.5"/>
<text text-anchor="start" x="369" y="-269.5" font-family="Helvetica,sans-Serif" font-size="10.00">AdvanceStickAssignmentDialog</text>
<text text-anchor="middle" x="442" y="-258.5" font-family="Helvetica,sans-Serif" font-size="10.00">::AdvanceStickAssignmentDialog</text>
</a>
</g>
</g>
<!-- Node2&#45;&gt;Node3 -->
<g id="edge2" class="edge">
<title>Node2&#45;&gt;Node3</title>
<path fill="none" stroke="midnightblue" d="M548.89,-266.5C540.32,-266.5 531.64,-266.5 523.15,-266.5"/>
<polygon fill="midnightblue" stroke="midnightblue" points="548.89,-270 558.89,-266.5 548.89,-263 548.89,-270"/>
</g>
<!-- Node4 -->
<g id="node4" class="node">
<title>Node4</title>
<g id="a_node4"><a xlink:href="classAdvanceStickAssignmentDialog.html#a3d447d0544efde715f4774ff0789b9b1" target="_top" xlink:title=" ">
<polygon fill="white" stroke="black" points="361,-300.5 361,-330.5 523,-330.5 523,-300.5 361,-300.5"/>
<text text-anchor="start" x="369" y="-318.5" font-family="Helvetica,sans-Serif" font-size="10.00">AdvanceStickAssignmentDialog</text>
<text text-anchor="middle" x="442" y="-307.5" font-family="Helvetica,sans-Serif" font-size="10.00">::checkForAxisAssignmentSticks</text>
</a>
</g>
</g>
<!-- Node2&#45;&gt;Node4 -->
<g id="edge3" class="edge">
<title>Node2&#45;&gt;Node4</title>
<path fill="none" stroke="midnightblue" d="M566.88,-284.05C545.68,-289.43 522.57,-295.3 502.11,-300.49"/>
<polygon fill="midnightblue" stroke="midnightblue" points="567.95,-287.39 576.78,-281.53 566.23,-280.6 567.95,-287.39"/>
</g>
<!-- Node5 -->
<g id="node5" class="node">
<title>Node5</title>
<g id="a_node5"><a xlink:href="classAdvanceStickAssignmentDialog.html#a0558948fa11d0753485a53d6729e1e53" target="_top" xlink:title=" ">
<polygon fill="white" stroke="black" points="150,-275.5 150,-305.5 325,-305.5 325,-275.5 150,-275.5"/>
<text text-anchor="start" x="158" y="-293.5" font-family="Helvetica,sans-Serif" font-size="10.00">AdvanceStickAssignmentDialog</text>
<text text-anchor="middle" x="237.5" y="-282.5" font-family="Helvetica,sans-Serif" font-size="10.00">::checkForAxisAssignmentStickOne</text>
</a>
</g>
</g>
<!-- Node4&#45;&gt;Node5 -->
<g id="edge4" class="edge">
<title>Node4&#45;&gt;Node5</title>
<path fill="none" stroke="midnightblue" d="M351,-304.39C342.45,-303.33 333.8,-302.27 325.29,-301.21"/>
<polygon fill="midnightblue" stroke="midnightblue" points="350.61,-307.87 360.97,-305.62 351.47,-300.92 350.61,-307.87"/>
</g>
<!-- Node6 -->
<g id="node6" class="node">
<title>Node6</title>
<g id="a_node6"><a xlink:href="classAdvanceStickAssignmentDialog.html#a60498e3f0a4ade4f6644478cb78d3cbc" target="_top" xlink:title=" ">
<polygon fill="white" stroke="black" points="150.5,-324.5 150.5,-354.5 324.5,-354.5 324.5,-324.5 150.5,-324.5"/>
<text text-anchor="start" x="158.5" y="-342.5" font-family="Helvetica,sans-Serif" font-size="10.00">AdvanceStickAssignmentDialog</text>
<text text-anchor="middle" x="237.5" y="-331.5" font-family="Helvetica,sans-Serif" font-size="10.00">::checkForAxisAssignmentStickTwo</text>
</a>
</g>
</g>
<!-- Node4&#45;&gt;Node6 -->
<g id="edge5" class="edge">
<title>Node4&#45;&gt;Node6</title>
<path fill="none" stroke="midnightblue" d="M350.81,-326.19C342.1,-327.22 333.28,-328.27 324.62,-329.29"/>
<polygon fill="midnightblue" stroke="midnightblue" points="351.45,-329.64 360.97,-324.99 350.62,-322.69 351.45,-329.64"/>
</g>
<!-- Node8 -->
<g id="node8" class="node">
<title>Node8</title>
<g id="a_node8"><a xlink:href="classJoyControlStickEditDialog.html#a2baa35c50ff7528a03ec6f2ba1ed657d" target="_top" xlink:title=" ">
<polygon fill="white" stroke="black" points="373.5,-202.5 373.5,-232.5 510.5,-232.5 510.5,-202.5 373.5,-202.5"/>
<text text-anchor="start" x="381.5" y="-220.5" font-family="Helvetica,sans-Serif" font-size="10.00">JoyControlStickEditDialog</text>
<text text-anchor="middle" x="442" y="-209.5" font-family="Helvetica,sans-Serif" font-size="10.00">::JoyControlStickEditDialog</text>
</a>
</g>
</g>
<!-- Node7&#45;&gt;Node8 -->
<g id="edge7" class="edge">
<title>Node7&#45;&gt;Node8</title>
<path fill="none" stroke="midnightblue" d="M584.18,-185.31C561.09,-190.58 533.63,-196.84 509.08,-202.43"/>
<polygon fill="midnightblue" stroke="midnightblue" points="585.15,-188.68 594.12,-183.05 583.59,-181.86 585.15,-188.68"/>
</g>
<!-- Node9 -->
<g id="node9" class="node">
<title>Node9</title>
<g id="a_node9"><a xlink:href="classJoyControlStick.html#ab6ce741115ee3d436c1a7e866abd21e6" target="_top" xlink:title="Take a XML stream and set the stick and direction button properties according to the values contained...">
<polygon fill="white" stroke="black" points="372.5,-164 372.5,-183 511.5,-183 511.5,-164 372.5,-164"/>
<text text-anchor="middle" x="442" y="-171" font-family="Helvetica,sans-Serif" font-size="10.00">JoyControlStick::readConfig</text>
</a>
</g>
</g>
<!-- Node7&#45;&gt;Node9 -->
<g id="edge8" class="edge">
<title>Node7&#45;&gt;Node9</title>
<path fill="none" stroke="midnightblue" d="M551.8,-173.5C538.43,-173.5 524.75,-173.5 511.8,-173.5"/>
<polygon fill="midnightblue" stroke="midnightblue" points="551.93,-177 561.93,-173.5 551.93,-170 551.93,-177"/>
</g>
<!-- Node11 -->
<g id="node11" class="node">
<title>Node11</title>
<g id="a_node11"><a xlink:href="classCalibration.html#a8e5394c1bbe44565c442c313ca284ace" target="_top" xlink:title=" ">
<polygon fill="white" stroke="black" points="371,-126 371,-145 513,-145 513,-126 371,-126"/>
<text text-anchor="middle" x="442" y="-133" font-family="Helvetica,sans-Serif" font-size="10.00">Calibration::restoreCalValues</text>
</a>
</g>
</g>
<!-- Node7&#45;&gt;Node11 -->
<g id="edge10" class="edge">
<title>Node7&#45;&gt;Node11</title>
<path fill="none" stroke="midnightblue" d="M577.4,-161.96C549.87,-156.54 517.45,-150.16 491.35,-145.02"/>
<polygon fill="midnightblue" stroke="midnightblue" points="576.81,-165.41 587.3,-163.91 578.16,-158.55 576.81,-165.41"/>
</g>
<!-- Node13 -->
<g id="node13" class="node">
<title>Node13</title>
<g id="a_node13"><a xlink:href="classCalibration.html#a61d733b70d5fd8a60c8f98e50469ed0e" target="_top" xlink:title="Updates variables contents and shows message.">
<polygon fill="white" stroke="black" points="379.5,-88 379.5,-107 504.5,-107 504.5,-88 379.5,-88"/>
<text text-anchor="middle" x="442" y="-95" font-family="Helvetica,sans-Serif" font-size="10.00">Calibration::saveSettings</text>
</a>
</g>
</g>
<!-- Node7&#45;&gt;Node13 -->
<g id="edge12" class="edge">
<title>Node7&#45;&gt;Node13</title>
<path fill="none" stroke="midnightblue" d="M571.2,-160.47C566.96,-158.72 562.85,-156.74 559,-154.5 538.89,-142.8 543.16,-128.12 523,-116.5 516.32,-112.65 508.9,-109.58 501.35,-107.13"/>
<polygon fill="midnightblue" stroke="midnightblue" points="570.05,-163.77 580.64,-163.93 572.46,-157.2 570.05,-163.77"/>
</g>
<!-- Node10 -->
<g id="node10" class="node">
<title>Node10</title>
<g id="a_node10"><a xlink:href="classSetJoystickXml.html#aa95423a01fab878cbc69bffb7f6121f3" target="_top" xlink:title=" ">
<polygon fill="white" stroke="black" points="168.5,-164 168.5,-183 306.5,-183 306.5,-164 168.5,-164"/>
<text text-anchor="middle" x="237.5" y="-171" font-family="Helvetica,sans-Serif" font-size="10.00">SetJoystickXml::readConfig</text>
</a>
</g>
</g>
<!-- Node9&#45;&gt;Node10 -->
<g id="edge9" class="edge">
<title>Node9&#45;&gt;Node10</title>
<path fill="none" stroke="midnightblue" d="M362.35,-173.5C343.96,-173.5 324.53,-173.5 306.64,-173.5"/>
<polygon fill="midnightblue" stroke="midnightblue" points="362.44,-177 372.44,-173.5 362.44,-170 362.44,-177"/>
</g>
<!-- Node12 -->
<g id="node12" class="node">
<title>Node12</title>
<g id="a_node12"><a xlink:href="classCalibration.html#aac3cc29daae69f616489ddd29407f6fe" target="_top" xlink:title="Resets memory of all variables to default, updates window and shows message.">
<polygon fill="white" stroke="black" points="174.5,-126 174.5,-145 300.5,-145 300.5,-126 174.5,-126"/>
<text text-anchor="middle" x="237.5" y="-133" font-family="Helvetica,sans-Serif" font-size="10.00">Calibration::resetSettings</text>
</a>
</g>
</g>
<!-- Node11&#45;&gt;Node12 -->
<g id="edge11" class="edge">
<title>Node11&#45;&gt;Node12</title>
<path fill="none" stroke="midnightblue" d="M360.71,-135.5C340.68,-135.5 319.51,-135.5 300.52,-135.5"/>
<polygon fill="midnightblue" stroke="midnightblue" points="360.74,-139 370.74,-135.5 360.74,-132 360.74,-139"/>
</g>
<!-- Node14 -->
<g id="node14" class="node">
<title>Node14</title>
<g id="a_node14"><a xlink:href="classCalibration.html#a27a8dcaa8bc1ae3ebf2da993b29a4e2e" target="_top" xlink:title=" ">
<polygon fill="white" stroke="black" points="0,-69 0,-88 114,-88 114,-69 0,-69"/>
<text text-anchor="middle" x="57" y="-76" font-family="Helvetica,sans-Serif" font-size="10.00">Calibration::Calibration</text>
</a>
</g>
</g>
<!-- Node13&#45;&gt;Node14 -->
<g id="edge13" class="edge">
<title>Node13&#45;&gt;Node14</title>
<path fill="none" stroke="midnightblue" d="M369.31,-93.94C295.4,-90.28 181.69,-84.64 114.08,-81.28"/>
<polygon fill="midnightblue" stroke="midnightblue" points="369.3,-97.45 379.46,-94.45 369.65,-90.46 369.3,-97.45"/>
</g>
<!-- Node15 -->
<g id="node15" class="node">
<title>Node15</title>
<g id="a_node15"><a xlink:href="classCalibration.html#a7d5b82418dba451e1b59bef20f2890d2" target="_top" xlink:title="Initializes widget for moving axes (animations) and changes storing data for variables.">
<polygon fill="white" stroke="black" points="154,-50 154,-69 321,-69 321,-50 154,-50"/>
<text text-anchor="middle" x="237.5" y="-57" font-family="Helvetica,sans-Serif" font-size="10.00">Calibration::createAxesConnection</text>
</a>
</g>
</g>
<!-- Node13&#45;&gt;Node15 -->
<g id="edge14" class="edge">
<title>Node13&#45;&gt;Node15</title>
<path fill="none" stroke="midnightblue" d="M380.15,-86.08C351.18,-80.64 316.92,-74.22 289.36,-69.04"/>
<polygon fill="midnightblue" stroke="midnightblue" points="379.69,-89.56 390.16,-87.96 380.98,-82.68 379.69,-89.56"/>
</g>
<!-- Node15&#45;&gt;Node14 -->
<g id="edge15" class="edge">
<title>Node15&#45;&gt;Node14</title>
<path fill="none" stroke="midnightblue" d="M143.71,-69.38C133.64,-70.45 123.63,-71.51 114.19,-72.52"/>
<polygon fill="midnightblue" stroke="midnightblue" points="144.21,-72.84 153.78,-68.3 143.47,-65.88 144.21,-72.84"/>
</g>
<!-- Node16&#45;&gt;Node9 -->
<g id="edge17" class="edge">
<title>Node16&#45;&gt;Node9</title>
<path fill="none" stroke="midnightblue" d="M577.4,-147.04C549.87,-152.46 517.45,-158.84 491.35,-163.98"/>
<polygon fill="midnightblue" stroke="midnightblue" points="578.16,-150.45 587.3,-145.09 576.81,-143.59 578.16,-150.45"/>
</g>
<!-- Node16&#45;&gt;Node11 -->
<g id="edge18" class="edge">
<title>Node16&#45;&gt;Node11</title>
<path fill="none" stroke="midnightblue" d="M553.64,-135.5C540.15,-135.5 526.29,-135.5 513.13,-135.5"/>
<polygon fill="midnightblue" stroke="midnightblue" points="553.86,-139 563.86,-135.5 553.86,-132 553.86,-139"/>
</g>
<!-- Node16&#45;&gt;Node13 -->
<g id="edge19" class="edge">
<title>Node16&#45;&gt;Node13</title>
<path fill="none" stroke="midnightblue" d="M577.4,-123.96C549.87,-118.54 517.45,-112.16 491.35,-107.02"/>
<polygon fill="midnightblue" stroke="midnightblue" points="576.81,-127.41 587.3,-125.91 578.16,-120.55 576.81,-127.41"/>
</g>
<!-- Node19 -->
<g id="node19" class="node">
<title>Node19</title>
<g id="a_node19"><a xlink:href="classXMLConfigWriter.html#aacd0a3991eedf223f3586d33559903d4" target="_top" xlink:title=" ">
<polygon fill="white" stroke="black" points="383,-28 383,-47 501,-47 501,-28 383,-28"/>
<text text-anchor="middle" x="442" y="-35" font-family="Helvetica,sans-Serif" font-size="10.00">XMLConfigWriter::write</text>
</a>
</g>
</g>
<!-- Node18&#45;&gt;Node19 -->
<g id="edge22" class="edge">
<title>Node18&#45;&gt;Node19</title>
<path fill="none" stroke="midnightblue" d="M555.71,-50.35C537.4,-48.26 518.29,-46.08 501.12,-44.13"/>
<polygon fill="midnightblue" stroke="midnightblue" points="555.44,-53.84 565.78,-51.5 556.24,-46.89 555.44,-53.84"/>
</g>
<!-- Node20 -->
<g id="node20" class="node">
<title>Node20</title>
<g id="a_node20"><a xlink:href="classJoyTabWidgetHelper.html#ad1754369989cbe4a3e10c8c01e3fb89b" target="_top" xlink:title=" ">
<polygon fill="white" stroke="black" points="184,-0.5 184,-30.5 291,-30.5 291,-0.5 184,-0.5"/>
<text text-anchor="start" x="192" y="-18.5" font-family="Helvetica,sans-Serif" font-size="10.00">JoyTabWidgetHelper</text>
<text text-anchor="middle" x="237.5" y="-7.5" font-family="Helvetica,sans-Serif" font-size="10.00">::writeConfigFile</text>
</a>
</g>
</g>
<!-- Node19&#45;&gt;Node20 -->
<g id="edge23" class="edge">
<title>Node19&#45;&gt;Node20</title>
<path fill="none" stroke="midnightblue" d="M372.92,-30.1C346.19,-27.2 315.99,-23.92 291,-21.2"/>
<polygon fill="midnightblue" stroke="midnightblue" points="372.65,-33.6 382.97,-31.2 373.41,-26.64 372.65,-33.6"/>
</g>
</g>
</svg>
        <g id="navigator" transform="translate(0 0)" fill="#404254">
                <rect fill="#f2f5e9" fill-opacity="0.5" stroke="#606060" stroke-width=".5" x="0" y="0" width="60" height="60"/>
                <use id="zoomplus" xlink:href="#zoomPlus" x="17" y="9" onmousedown="handleZoom(evt,'in')"/>
                <use id="zoomminus" xlink:href="#zoomMin" x="42" y="9" onmousedown="handleZoom(evt,'out')"/>
                <use id="reset" xlink:href="#resetDef" x="30" y="36" onmousedown="handleReset()"/>
                <g id="arrowUp" xlink:href="#dirArrow" transform="translate(30 24)" onmousedown="handlePan(0,-1)">
                  <use xlink:href="#rim" fill="#404040">
                        <set attributeName="fill" to="#808080" begin="arrowUp.mouseover" end="arrowUp.mouseout"/>
                  </use>
                  <path fill="none" stroke="white" stroke-width="1.5" d="M0,-3.0v7 M-2.5,-0.5L0,-3.0L2.5,-0.5"/>
                </g>
                <g id="arrowRight" xlink:href="#dirArrow" transform="rotate(90) translate(36 -43)" onmousedown="handlePan(1,0)">
                  <use xlink:href="#rim" fill="#404040">
                        <set attributeName="fill" to="#808080" begin="arrowRight.mouseover" end="arrowRight.mouseout"/>
                  </use>
                  <path fill="none" stroke="white" stroke-width="1.5" d="M0,-3.0v7 M-2.5,-0.5L0,-3.0L2.5,-0.5"/>
                </g>
                <g id="arrowDown" xlink:href="#dirArrow" transform="rotate(180) translate(-30 -48)" onmousedown="handlePan(0,1)">
                  <use xlink:href="#rim" fill="#404040">
                        <set attributeName="fill" to="#808080" begin="arrowDown.mouseover" end="arrowDown.mouseout"/>
                  </use>
                  <path fill="none" stroke="white" stroke-width="1.5" d="M0,-3.0v7 M-2.5,-0.5L0,-3.0L2.5,-0.5"/>
                </g>
                <g id="arrowLeft" xlink:href="#dirArrow" transform="rotate(270) translate(-36 17)" onmousedown="handlePan(-1,0)">
                  <use xlink:href="#rim" fill="#404040">
                        <set attributeName="fill" to="#808080" begin="arrowLeft.mouseover" end="arrowLeft.mouseout"/>
                  </use>
                  <path fill="none" stroke="white" stroke-width="1.5" d="M0,-3.0v7 M-2.5,-0.5L0,-3.0L2.5,-0.5"/>
                </g>
        </g>
        <svg viewBox="0 0 15 15" width="100%" height="30px" preserveAspectRatio="xMaxYMin meet">
         <g id="arrow_out" transform="scale(0.3 0.3)">
          <a xlink:href="classJoyControlStick_a289947c34f708ce31ff20e79a17dcd67_icgraph_org.svg" target="_base">
           <rect id="button" ry="5" rx="5" y="6" x="6" height="38" width="38"
                fill="#f2f5e9" fill-opacity="0.5" stroke="#606060" stroke-width="1.0"/>
           <path id="arrow"
             d="M 11.500037,31.436501 C 11.940474,20.09759 22.043105,11.32322 32.158766,21.979434 L 37.068811,17.246167 C 37.068811,17.246167 37.088388,32 37.088388,32 L 22.160133,31.978069 C 22.160133,31.978069 26.997745,27.140456 26.997745,27.140456 C 18.528582,18.264221 13.291696,25.230495 11.500037,31.436501 z"
             style="fill:#404040;"/>
          </a>
         </g>
        </svg>
</svg>
