<?xml version="1.0" encoding="UTF-8" standalone="no"?>
<!DOCTYPE svg PUBLIC "-//W3C//DTD SVG 1.1//EN"
 "http://www.w3.org/Graphics/SVG/1.1/DTD/svg11.dtd">
<!-- Generated by graphviz version 2.43.0 (0)
 -->
<!-- Title: X11Extras::getPos Pages: 1 -->
<!--zoomable 119 -->
<svg id="main" version="1.1" xmlns="http://www.w3.org/2000/svg" xmlns:xlink="http://www.w3.org/1999/xlink" xml:space="preserve" onload="init(evt)">
<style type="text/css"><![CDATA[
.edge:hover path { stroke: red; }
.edge:hover polygon { stroke: red; fill: red; }
]]></style>
<script type="text/javascript"><![CDATA[
var edges = document.getElementsByTagName('g');
if (edges && edges.length) {
  for (var i=0;i<edges.length;i++) {
    if (edges[i].id.substr(0,4)=='edge') {
      edges[i].setAttribute('class','edge');
    }
  }
}
]]></script>
        <defs>
                <circle id="rim" cx="0" cy="0" r="7"/>
                <circle id="rim2" cx="0" cy="0" r="3.5"/>
                <g id="zoomPlus">
                        <use xlink:href="#rim" fill="#404040">
                                <set attributeName="fill" to="#808080" begin="zoomplus.mouseover" end="zoomplus.mouseout"/>
                        </use>
                        <path d="M-4,0h8M0,-4v8" fill="none" stroke="white" stroke-width="1.5" pointer-events="none"/>
                </g>
                <g id="zoomMin">
                        <use xlink:href="#rim" fill="#404040">
                                <set attributeName="fill" to="#808080" begin="zoomminus.mouseover" end="zoomminus.mouseout"/>
                        </use>
                        <path d="M-4,0h8" fill="none" stroke="white" stroke-width="1.5" pointer-events="none"/>
                </g>
                <g id="dirArrow">
                        <path fill="none" stroke="white" stroke-width="1.5" d="M0,-3.0v7 M-2.5,-0.5L0,-3.0L2.5,-0.5"/>
                </g>
               <g id="resetDef">
                       <use xlink:href="#rim2" fill="#404040">
                               <set attributeName="fill" to="#808080" begin="reset.mouseover" end="reset.mouseout"/>
                       </use>
               </g>
        </defs>

<script type="text/javascript">
var viewWidth = 1448;
var viewHeight = 119;
var sectionId = 'dynsection-28';
</script>
<script xlink:href="svgpan.js"/>
<svg id="graph" class="graph">
<g id="viewport">
<title>X11Extras::getPos</title>
<polygon fill="white" stroke="transparent" points="-4,4 -4,-114.5 1444,-114.5 1444,4 -4,4"/>
<!-- Node1 -->
<g id="node1" class="node">
<title>Node1</title>
<g id="a_node1"><a xlink:title=" ">
<polygon fill="#bfbfbf" stroke="black" points="1341,-22.5 1341,-41.5 1440,-41.5 1440,-22.5 1341,-22.5"/>
<text text-anchor="middle" x="1390.5" y="-29.5" font-family="Helvetica,sans-Serif" font-size="10.00">X11Extras::getPos</text>
</a>
</g>
</g>
<!-- Node2 -->
<g id="node2" class="node">
<title>Node2</title>
<g id="a_node2"><a xlink:href="event_8h.html#ab9c4ca0a65739caafc9dc8ff4ffb9ab2" target="_top" xlink:title=" ">
<polygon fill="white" stroke="black" points="1215,-22.5 1215,-41.5 1305,-41.5 1305,-22.5 1215,-22.5"/>
<text text-anchor="middle" x="1260" y="-29.5" font-family="Helvetica,sans-Serif" font-size="10.00">sendSpringEvent</text>
</a>
</g>
</g>
<!-- Node1&#45;&gt;Node2 -->
<g id="edge1" class="edge">
<title>Node1&#45;&gt;Node2</title>
<path fill="none" stroke="midnightblue" d="M1330.83,-32C1322.14,-32 1313.32,-32 1305,-32"/>
<polygon fill="midnightblue" stroke="midnightblue" points="1330.92,-35.5 1340.92,-32 1330.92,-28.5 1330.92,-35.5"/>
</g>
<!-- Node3 -->
<g id="node3" class="node">
<title>Node3</title>
<g id="a_node3"><a xlink:href="classJoyButton.html#a006c7284a13ca61c95b259c4ea99cb3e" target="_top" xlink:title="Take spring mouse information provided by all buttons and send a spring mode mouse event to the displ...">
<polygon fill="white" stroke="black" points="1032,-22.5 1032,-41.5 1179,-41.5 1179,-22.5 1032,-22.5"/>
<text text-anchor="middle" x="1105.5" y="-29.5" font-family="Helvetica,sans-Serif" font-size="10.00">JoyButton::moveSpringMouse</text>
</a>
</g>
</g>
<!-- Node2&#45;&gt;Node3 -->
<g id="edge2" class="edge">
<title>Node2&#45;&gt;Node3</title>
<path fill="none" stroke="midnightblue" d="M1204.68,-32C1196.43,-32 1187.8,-32 1179.24,-32"/>
<polygon fill="midnightblue" stroke="midnightblue" points="1204.89,-35.5 1214.89,-32 1204.89,-28.5 1204.89,-35.5"/>
</g>
<!-- Node4 -->
<g id="node4" class="node">
<title>Node4</title>
<g id="a_node4"><a xlink:href="classJoyButtonMouseHelper.html#aeecd17e4fb7215f22b4280d3db9f71f9" target="_top" xlink:title="Perform mouse movement in spring mode.">
<polygon fill="white" stroke="black" points="877,-17 877,-47 996,-47 996,-17 877,-17"/>
<text text-anchor="start" x="885" y="-35" font-family="Helvetica,sans-Serif" font-size="10.00">JoyButtonMouseHelper</text>
<text text-anchor="middle" x="936.5" y="-24" font-family="Helvetica,sans-Serif" font-size="10.00">::moveSpringMouse</text>
</a>
</g>
</g>
<!-- Node3&#45;&gt;Node4 -->
<g id="edge3" class="edge">
<title>Node3&#45;&gt;Node4</title>
<path fill="none" stroke="midnightblue" d="M1021.68,-32C1013.09,-32 1004.48,-32 996.24,-32"/>
<polygon fill="midnightblue" stroke="midnightblue" points="1021.74,-35.5 1031.74,-32 1021.74,-28.5 1021.74,-35.5"/>
</g>
<!-- Node5 -->
<g id="node5" class="node">
<title>Node5</title>
<g id="a_node5"><a xlink:href="classJoyButtonMouseHelper.html#a7bf98a02c2949419a441fa9213251ff5" target="_top" xlink:title="Perform mouse events for all buttons and slots.">
<polygon fill="white" stroke="black" points="722,-17 722,-47 841,-47 841,-17 722,-17"/>
<text text-anchor="start" x="730" y="-35" font-family="Helvetica,sans-Serif" font-size="10.00">JoyButtonMouseHelper</text>
<text text-anchor="middle" x="781.5" y="-24" font-family="Helvetica,sans-Serif" font-size="10.00">::mouseEvent</text>
</a>
</g>
</g>
<!-- Node4&#45;&gt;Node5 -->
<g id="edge4" class="edge">
<title>Node4&#45;&gt;Node5</title>
<path fill="none" stroke="midnightblue" d="M866.51,-32C858.01,-32 849.38,-32 841.06,-32"/>
<polygon fill="midnightblue" stroke="midnightblue" points="866.78,-35.5 876.78,-32 866.78,-28.5 866.78,-35.5"/>
</g>
<!-- Node6 -->
<g id="node6" class="node">
<title>Node6</title>
<g id="a_node6"><a xlink:href="classJoyButton.html#a8328ffb189d41be9e27902729df71aeb" target="_top" xlink:title="Change initial settings used for mouse event timer being used by the application.">
<polygon fill="white" stroke="black" points="542,-39 542,-69 677,-69 677,-39 542,-39"/>
<text text-anchor="start" x="550" y="-57" font-family="Helvetica,sans-Serif" font-size="10.00">JoyButton::establishMouse</text>
<text text-anchor="middle" x="609.5" y="-46" font-family="Helvetica,sans-Serif" font-size="10.00">TimerConnections</text>
</a>
</g>
</g>
<!-- Node5&#45;&gt;Node6 -->
<g id="edge5" class="edge">
<title>Node5&#45;&gt;Node6</title>
<path fill="none" stroke="midnightblue" d="M712.05,-40.86C700.59,-42.34 688.71,-43.88 677.29,-45.36"/>
<polygon fill="midnightblue" stroke="midnightblue" points="712.53,-44.33 722,-39.57 711.63,-37.38 712.53,-44.33"/>
</g>
<!-- Node11 -->
<g id="node11" class="node">
<title>Node11</title>
<g id="a_node11"><a xlink:href="classJoyButton.html#a796b6cd5a6b46036949bcecde9ed520c" target="_top" xlink:title=" ">
<polygon fill="white" stroke="black" points="533,-0.5 533,-19.5 686,-19.5 686,-0.5 533,-0.5"/>
<text text-anchor="middle" x="609.5" y="-7.5" font-family="Helvetica,sans-Serif" font-size="10.00">JoyButton::invokeMouseEvents</text>
</a>
</g>
</g>
<!-- Node5&#45;&gt;Node11 -->
<g id="edge10" class="edge">
<title>Node5&#45;&gt;Node11</title>
<path fill="none" stroke="midnightblue" d="M711.83,-23.11C702.71,-21.93 693.33,-20.72 684.13,-19.53"/>
<polygon fill="midnightblue" stroke="midnightblue" points="711.63,-26.62 722,-24.43 712.53,-19.67 711.63,-26.62"/>
</g>
<!-- Node7 -->
<g id="node7" class="node">
<title>Node7</title>
<g id="a_node7"><a xlink:href="classAppLaunchHelper.html#ae934f543f3740dd9355e4142b490b5e9" target="_top" xlink:title=" ">
<polygon fill="white" stroke="black" points="349.5,-80 349.5,-110 488.5,-110 488.5,-80 349.5,-80"/>
<text text-anchor="start" x="357.5" y="-98" font-family="Helvetica,sans-Serif" font-size="10.00">AppLaunchHelper::establish</text>
<text text-anchor="middle" x="419" y="-87" font-family="Helvetica,sans-Serif" font-size="10.00">MouseTimerConnections</text>
</a>
</g>
</g>
<!-- Node6&#45;&gt;Node7 -->
<g id="edge6" class="edge">
<title>Node6&#45;&gt;Node7</title>
<path fill="none" stroke="midnightblue" d="M531.94,-70.65C517.58,-73.78 502.65,-77.02 488.54,-80.09"/>
<polygon fill="midnightblue" stroke="midnightblue" points="532.75,-74.06 541.78,-68.51 531.26,-67.22 532.75,-74.06"/>
</g>
<!-- Node10 -->
<g id="node10" class="node">
<title>Node10</title>
<g id="a_node10"><a xlink:href="classJoyButton.html#aca54bc4605f7db801e8fc41a90d7f223" target="_top" xlink:title=" ">
<polygon fill="white" stroke="black" points="363.5,-41.5 363.5,-60.5 474.5,-60.5 474.5,-41.5 363.5,-41.5"/>
<text text-anchor="middle" x="419" y="-48.5" font-family="Helvetica,sans-Serif" font-size="10.00">JoyButton::JoyButton</text>
</a>
</g>
</g>
<!-- Node6&#45;&gt;Node10 -->
<g id="edge9" class="edge">
<title>Node6&#45;&gt;Node10</title>
<path fill="none" stroke="midnightblue" d="M531.57,-52.78C512.44,-52.47 492.32,-52.15 474.51,-51.87"/>
<polygon fill="midnightblue" stroke="midnightblue" points="531.72,-56.28 541.78,-52.94 531.83,-49.28 531.72,-56.28"/>
</g>
<!-- Node8 -->
<g id="node8" class="node">
<title>Node8</title>
<g id="a_node8"><a xlink:href="classAppLaunchHelper.html#ab38c79745e55b3c4665c5b29a5d57a0f" target="_top" xlink:title=" ">
<polygon fill="white" stroke="black" points="174,-80 174,-110 305,-110 305,-80 174,-80"/>
<text text-anchor="start" x="182" y="-98" font-family="Helvetica,sans-Serif" font-size="10.00">AppLaunchHelper::initRun</text>
<text text-anchor="middle" x="239.5" y="-87" font-family="Helvetica,sans-Serif" font-size="10.00">Methods</text>
</a>
</g>
</g>
<!-- Node7&#45;&gt;Node8 -->
<g id="edge7" class="edge">
<title>Node7&#45;&gt;Node8</title>
<path fill="none" stroke="midnightblue" d="M339.05,-95C327.72,-95 316.17,-95 305.16,-95"/>
<polygon fill="midnightblue" stroke="midnightblue" points="339.37,-98.5 349.37,-95 339.37,-91.5 339.37,-98.5"/>
</g>
<!-- Node9 -->
<g id="node9" class="node">
<title>Node9</title>
<g id="a_node9"><a xlink:href="main_8cpp.html#a0ddf1224851353fc92bfbff6f499fa97" target="_top" xlink:title=" ">
<polygon fill="white" stroke="black" points="50,-85.5 50,-104.5 88,-104.5 88,-85.5 50,-85.5"/>
<text text-anchor="middle" x="69" y="-92.5" font-family="Helvetica,sans-Serif" font-size="10.00">main</text>
</a>
</g>
</g>
<!-- Node8&#45;&gt;Node9 -->
<g id="edge8" class="edge">
<title>Node8&#45;&gt;Node9</title>
<path fill="none" stroke="midnightblue" d="M163.62,-95C135.64,-95 106.27,-95 88.05,-95"/>
<polygon fill="midnightblue" stroke="midnightblue" points="163.84,-98.5 173.84,-95 163.84,-91.5 163.84,-98.5"/>
</g>
<!-- Node12 -->
<g id="node12" class="node">
<title>Node12</title>
<g id="a_node12"><a xlink:href="classInputDaemon.html#a0cf6bcd3287d97d75c32a3921c633a7a" target="_top" xlink:title=" ">
<polygon fill="white" stroke="black" points="341,-0.5 341,-19.5 497,-19.5 497,-0.5 341,-0.5"/>
<text text-anchor="middle" x="419" y="-7.5" font-family="Helvetica,sans-Serif" font-size="10.00">InputDaemon::secondInputPass</text>
</a>
</g>
</g>
<!-- Node11&#45;&gt;Node12 -->
<g id="edge11" class="edge">
<title>Node11&#45;&gt;Node12</title>
<path fill="none" stroke="midnightblue" d="M522.9,-10C514.31,-10 505.63,-10 497.14,-10"/>
<polygon fill="midnightblue" stroke="midnightblue" points="522.92,-13.5 532.92,-10 522.92,-6.5 522.92,-13.5"/>
</g>
<!-- Node13 -->
<g id="node13" class="node">
<title>Node13</title>
<g id="a_node13"><a xlink:href="classInputDaemon.html#ad7f954b25b67cb5a84fdb1a154282bfd" target="_top" xlink:title=" ">
<polygon fill="white" stroke="black" points="192.5,-0.5 192.5,-19.5 286.5,-19.5 286.5,-0.5 192.5,-0.5"/>
<text text-anchor="middle" x="239.5" y="-7.5" font-family="Helvetica,sans-Serif" font-size="10.00">InputDaemon::run</text>
</a>
</g>
</g>
<!-- Node12&#45;&gt;Node13 -->
<g id="edge12" class="edge">
<title>Node12&#45;&gt;Node13</title>
<path fill="none" stroke="midnightblue" d="M330.89,-10C315.57,-10 300.2,-10 286.58,-10"/>
<polygon fill="midnightblue" stroke="midnightblue" points="330.92,-13.5 340.92,-10 330.92,-6.5 330.92,-13.5"/>
</g>
<!-- Node14 -->
<g id="node14" class="node">
<title>Node14</title>
<g id="a_node14"><a xlink:href="classInputDaemon.html#ab7c3d331123e946ed8da490dfee5c265" target="_top" xlink:title=" ">
<polygon fill="white" stroke="black" points="0,-0.5 0,-19.5 138,-19.5 138,-0.5 0,-0.5"/>
<text text-anchor="middle" x="69" y="-7.5" font-family="Helvetica,sans-Serif" font-size="10.00">InputDaemon::InputDaemon</text>
</a>
</g>
</g>
<!-- Node13&#45;&gt;Node14 -->
<g id="edge13" class="edge">
<title>Node13&#45;&gt;Node14</title>
<path fill="none" stroke="midnightblue" d="M182.37,-10C168.19,-10 152.81,-10 138.11,-10"/>
<polygon fill="midnightblue" stroke="midnightblue" points="182.46,-13.5 192.46,-10 182.46,-6.5 182.46,-13.5"/>
</g>
</g>
</svg>
        <g id="navigator" transform="translate(0 0)" fill="#404254">
                <rect fill="#f2f5e9" fill-opacity="0.5" stroke="#606060" stroke-width=".5" x="0" y="0" width="60" height="60"/>
                <use id="zoomplus" xlink:href="#zoomPlus" x="17" y="9" onmousedown="handleZoom(evt,'in')"/>
                <use id="zoomminus" xlink:href="#zoomMin" x="42" y="9" onmousedown="handleZoom(evt,'out')"/>
                <use id="reset" xlink:href="#resetDef" x="30" y="36" onmousedown="handleReset()"/>
                <g id="arrowUp" xlink:href="#dirArrow" transform="translate(30 24)" onmousedown="handlePan(0,-1)">
                  <use xlink:href="#rim" fill="#404040">
                        <set attributeName="fill" to="#808080" begin="arrowUp.mouseover" end="arrowUp.mouseout"/>
                  </use>
                  <path fill="none" stroke="white" stroke-width="1.5" d="M0,-3.0v7 M-2.5,-0.5L0,-3.0L2.5,-0.5"/>
                </g>
                <g id="arrowRight" xlink:href="#dirArrow" transform="rotate(90) translate(36 -43)" onmousedown="handlePan(1,0)">
                  <use xlink:href="#rim" fill="#404040">
                        <set attributeName="fill" to="#808080" begin="arrowRight.mouseover" end="arrowRight.mouseout"/>
                  </use>
                  <path fill="none" stroke="white" stroke-width="1.5" d="M0,-3.0v7 M-2.5,-0.5L0,-3.0L2.5,-0.5"/>
                </g>
                <g id="arrowDown" xlink:href="#dirArrow" transform="rotate(180) translate(-30 -48)" onmousedown="handlePan(0,1)">
                  <use xlink:href="#rim" fill="#404040">
                        <set attributeName="fill" to="#808080" begin="arrowDown.mouseover" end="arrowDown.mouseout"/>
                  </use>
                  <path fill="none" stroke="white" stroke-width="1.5" d="M0,-3.0v7 M-2.5,-0.5L0,-3.0L2.5,-0.5"/>
                </g>
                <g id="arrowLeft" xlink:href="#dirArrow" transform="rotate(270) translate(-36 17)" onmousedown="handlePan(-1,0)">
                  <use xlink:href="#rim" fill="#404040">
                        <set attributeName="fill" to="#808080" begin="arrowLeft.mouseover" end="arrowLeft.mouseout"/>
                  </use>
                  <path fill="none" stroke="white" stroke-width="1.5" d="M0,-3.0v7 M-2.5,-0.5L0,-3.0L2.5,-0.5"/>
                </g>
        </g>
        <svg viewBox="0 0 15 15" width="100%" height="30px" preserveAspectRatio="xMaxYMin meet">
         <g id="arrow_out" transform="scale(0.3 0.3)">
          <a xlink:href="classX11Extras_ad8f5c52f7fd053fc6b6354e8f29612bb_icgraph_org.svg" target="_base">
           <rect id="button" ry="5" rx="5" y="6" x="6" height="38" width="38"
                fill="#f2f5e9" fill-opacity="0.5" stroke="#606060" stroke-width="1.0"/>
           <path id="arrow"
             d="M 11.500037,31.436501 C 11.940474,20.09759 22.043105,11.32322 32.158766,21.979434 L 37.068811,17.246167 C 37.068811,17.246167 37.088388,32 37.088388,32 L 22.160133,31.978069 C 22.160133,31.978069 26.997745,27.140456 26.997745,27.140456 C 18.528582,18.264221 13.291696,25.230495 11.500037,31.436501 z"
             style="fill:#404040;"/>
          </a>
         </g>
        </svg>
</svg>
