<?xml version="1.0" encoding="UTF-8" standalone="no"?>
<!DOCTYPE svg PUBLIC "-//W3C//DTD SVG 1.1//EN"
 "http://www.w3.org/Graphics/SVG/1.1/DTD/svg11.dtd">
<!-- Generated by graphviz version 2.43.0 (0)
 -->
<!-- Title: JoyAxis::setInitialThrottle Pages: 1 -->
<svg width="616pt" height="69pt"
 viewBox="0.00 0.00 616.00 69.14" xmlns="http://www.w3.org/2000/svg" xmlns:xlink="http://www.w3.org/1999/xlink">
<g id="graph0" class="graph" transform="scale(1 1) rotate(0) translate(4 65.14)">
<title>JoyAxis::setInitialThrottle</title>
<polygon fill="white" stroke="transparent" points="-4,4 -4,-65.14 612,-65.14 612,4 -4,4"/>
<!-- Node1 -->
<g id="node1" class="node">
<title>Node1</title>
<g id="a_node1"><a xlink:title="Set the initial calibrated throttle based on the first event passed by SDL.">
<polygon fill="#bfbfbf" stroke="black" points="0,-21.5 0,-40.5 128,-40.5 128,-21.5 0,-21.5"/>
<text text-anchor="middle" x="64" y="-28.5" font-family="Helvetica,sans-Serif" font-size="10.00">JoyAxis::setInitialThrottle</text>
</a>
</g>
</g>
<!-- Node2 -->
<g id="node2" class="node">
<title>Node2</title>
<g id="a_node2"><a xlink:href="classJoyAxis.html#a211c80f9aa20fa22c8f91a5cdcb0831a" target="_top" xlink:title=" ">
<polygon fill="white" stroke="black" points="164,-21.5 164,-40.5 276,-40.5 276,-21.5 164,-21.5"/>
<text text-anchor="middle" x="220" y="-28.5" font-family="Helvetica,sans-Serif" font-size="10.00">JoyAxis::adjustRange</text>
</a>
</g>
</g>
<!-- Node1&#45;&gt;Node2 -->
<g id="edge1" class="edge">
<title>Node1&#45;&gt;Node2</title>
<path fill="none" stroke="midnightblue" d="M128.08,-31C136.47,-31 145.08,-31 153.51,-31"/>
<polygon fill="midnightblue" stroke="midnightblue" points="153.66,-34.5 163.66,-31 153.66,-27.5 153.66,-34.5"/>
</g>
<!-- Node3 -->
<g id="node3" class="node">
<title>Node3</title>
<g id="a_node3"><a xlink:href="classJoyAxis.html#a06d99d722b314998440165a01b0f87b3" target="_top" xlink:title=" ">
<polygon fill="white" stroke="black" points="312,-16 312,-46 447,-46 447,-16 312,-16"/>
<text text-anchor="start" x="320" y="-34" font-family="Helvetica,sans-Serif" font-size="10.00">JoyAxis::calculateThrottled</text>
<text text-anchor="middle" x="379.5" y="-23" font-family="Helvetica,sans-Serif" font-size="10.00">Value</text>
</a>
</g>
</g>
<!-- Node2&#45;&gt;Node3 -->
<g id="edge2" class="edge">
<title>Node2&#45;&gt;Node3</title>
<path fill="none" stroke="midnightblue" d="M276.09,-31C284.37,-31 293.05,-31 301.69,-31"/>
<polygon fill="midnightblue" stroke="midnightblue" points="301.8,-34.5 311.8,-31 301.8,-27.5 301.8,-34.5"/>
</g>
<!-- Node4 -->
<g id="node4" class="node">
<title>Node4</title>
<g id="a_node4"><a xlink:href="classJoyAxis.html#af3f311fbf20c583224c2320d1fda0226" target="_top" xlink:title=" ">
<polygon fill="white" stroke="black" points="483,-41.5 483,-60.5 608,-60.5 608,-41.5 483,-41.5"/>
<text text-anchor="middle" x="545.5" y="-48.5" font-family="Helvetica,sans-Serif" font-size="10.00">JoyAxis::getAxisMaxCal</text>
</a>
</g>
</g>
<!-- Node2&#45;&gt;Node4 -->
<g id="edge5" class="edge">
<title>Node2&#45;&gt;Node4</title>
<path fill="none" stroke="midnightblue" d="M248.48,-40.62C266.33,-46.35 290.24,-53.07 312,-56 365.38,-63.2 426.27,-61.54 472.34,-58.29"/>
<polygon fill="midnightblue" stroke="midnightblue" points="472.82,-61.77 482.53,-57.53 472.29,-54.79 472.82,-61.77"/>
</g>
<!-- Node5 -->
<g id="node5" class="node">
<title>Node5</title>
<g id="a_node5"><a xlink:href="classJoyAxis.html#aff06f563278beb621285f65fb33b784a" target="_top" xlink:title=" ">
<polygon fill="white" stroke="black" points="485,-0.5 485,-19.5 606,-19.5 606,-0.5 485,-0.5"/>
<text text-anchor="middle" x="545.5" y="-7.5" font-family="Helvetica,sans-Serif" font-size="10.00">JoyAxis::getAxisMinCal</text>
</a>
</g>
</g>
<!-- Node2&#45;&gt;Node5 -->
<g id="edge6" class="edge">
<title>Node2&#45;&gt;Node5</title>
<path fill="none" stroke="midnightblue" d="M248.48,-21.38C266.33,-15.65 290.24,-8.93 312,-6 366.31,1.32 428.39,-0.24 474.73,-3.33"/>
<polygon fill="midnightblue" stroke="midnightblue" points="474.74,-6.84 484.96,-4.06 475.24,0.14 474.74,-6.84"/>
</g>
<!-- Node3&#45;&gt;Node4 -->
<g id="edge3" class="edge">
<title>Node3&#45;&gt;Node4</title>
<path fill="none" stroke="midnightblue" d="M447.21,-39.13C455.68,-40.17 464.39,-41.23 472.94,-42.27"/>
<polygon fill="midnightblue" stroke="midnightblue" points="472.53,-45.75 482.88,-43.49 473.38,-38.8 472.53,-45.75"/>
</g>
<!-- Node3&#45;&gt;Node5 -->
<g id="edge4" class="edge">
<title>Node3&#45;&gt;Node5</title>
<path fill="none" stroke="midnightblue" d="M447.21,-22.46C456.29,-21.3 465.63,-20.1 474.77,-18.93"/>
<polygon fill="midnightblue" stroke="midnightblue" points="475.5,-22.36 484.97,-17.62 474.61,-15.42 475.5,-22.36"/>
</g>
</g>
</svg>
