<?xml version="1.0" encoding="UTF-8" standalone="no"?>
<!DOCTYPE svg PUBLIC "-//W3C//DTD SVG 1.1//EN"
 "http://www.w3.org/Graphics/SVG/1.1/DTD/svg11.dtd">
<!-- Generated by graphviz version 2.43.0 (0)
 -->
<!-- Title: AdvanceStickAssignmentDialog::quickAssignVDPadLeft Pages: 1 -->
<svg width="331pt" height="104pt"
 viewBox="0.00 0.00 331.00 104.00" xmlns="http://www.w3.org/2000/svg" xmlns:xlink="http://www.w3.org/1999/xlink">
<g id="graph0" class="graph" transform="scale(1 1) rotate(0) translate(4 100)">
<title>AdvanceStickAssignmentDialog::quickAssignVDPadLeft</title>
<polygon fill="white" stroke="transparent" points="-4,4 -4,-100 327,-100 327,4 -4,4"/>
<!-- Node1 -->
<g id="node1" class="node">
<title>Node1</title>
<g id="a_node1"><a xlink:title=" ">
<polygon fill="#bfbfbf" stroke="black" points="0,-33 0,-63 156,-63 156,-33 0,-33"/>
<text text-anchor="start" x="8" y="-51" font-family="Helvetica,sans-Serif" font-size="10.00">AdvanceStickAssignmentDialog</text>
<text text-anchor="middle" x="78" y="-40" font-family="Helvetica,sans-Serif" font-size="10.00">::quickAssignVDPadLeft</text>
</a>
</g>
</g>
<!-- Node2 -->
<g id="node2" class="node">
<title>Node2</title>
<g id="a_node2"><a xlink:href="classJoyAxisButton.html#a8b73356f8efc91ad97e2c281b3603cc8" target="_top" xlink:title=" ">
<polygon fill="white" stroke="black" points="198,-76.5 198,-95.5 317,-95.5 317,-76.5 198,-76.5"/>
<text text-anchor="middle" x="257.5" y="-83.5" font-family="Helvetica,sans-Serif" font-size="10.00">JoyAxisButton::getAxis</text>
</a>
</g>
</g>
<!-- Node1&#45;&gt;Node2 -->
<g id="edge1" class="edge">
<title>Node1&#45;&gt;Node2</title>
<path fill="none" stroke="midnightblue" d="M149.15,-63.02C166.73,-66.78 185.32,-70.76 202,-74.33"/>
<polygon fill="midnightblue" stroke="midnightblue" points="201.61,-77.83 212.12,-76.5 203.07,-70.98 201.61,-77.83"/>
</g>
<!-- Node3 -->
<g id="node3" class="node">
<title>Node3</title>
<g id="a_node3"><a xlink:href="classJoyAxis.html#aae658e2a7b83ce73ce3d7d1ed13eabc6" target="_top" xlink:title=" ">
<polygon fill="white" stroke="black" points="194.5,-38.5 194.5,-57.5 320.5,-57.5 320.5,-38.5 194.5,-38.5"/>
<text text-anchor="middle" x="257.5" y="-45.5" font-family="Helvetica,sans-Serif" font-size="10.00">JoyAxis::getNAxisButton</text>
</a>
</g>
</g>
<!-- Node1&#45;&gt;Node3 -->
<g id="edge2" class="edge">
<title>Node1&#45;&gt;Node3</title>
<path fill="none" stroke="midnightblue" d="M156.08,-48C165.49,-48 175.08,-48 184.42,-48"/>
<polygon fill="midnightblue" stroke="midnightblue" points="184.43,-51.5 194.43,-48 184.43,-44.5 184.43,-51.5"/>
</g>
<!-- Node4 -->
<g id="node4" class="node">
<title>Node4</title>
<g id="a_node4"><a xlink:href="classJoyAxis.html#a9ceda991c13da3a99868acc436ed20f3" target="_top" xlink:title=" ">
<polygon fill="white" stroke="black" points="192,-0.5 192,-19.5 323,-19.5 323,-0.5 192,-0.5"/>
<text text-anchor="middle" x="257.5" y="-7.5" font-family="Helvetica,sans-Serif" font-size="10.00">JoyAxis::getRealJoyIndex</text>
</a>
</g>
</g>
<!-- Node1&#45;&gt;Node4 -->
<g id="edge3" class="edge">
<title>Node1&#45;&gt;Node4</title>
<path fill="none" stroke="midnightblue" d="M149.15,-32.98C166.73,-29.22 185.32,-25.24 202,-21.67"/>
<polygon fill="midnightblue" stroke="midnightblue" points="203.07,-25.02 212.12,-19.5 201.61,-18.17 203.07,-25.02"/>
</g>
</g>
</svg>
