<?xml version="1.0" encoding="UTF-8" standalone="no"?>
<!DOCTYPE svg PUBLIC "-//W3C//DTD SVG 1.1//EN"
 "http://www.w3.org/Graphics/SVG/1.1/DTD/svg11.dtd">
<!-- Generated by graphviz version 2.43.0 (0)
 -->
<!-- Title: X11Extras::findParentClient Pages: 1 -->
<svg width="659pt" height="142pt"
 viewBox="0.00 0.00 659.00 142.00" xmlns="http://www.w3.org/2000/svg" xmlns:xlink="http://www.w3.org/1999/xlink">
<g id="graph0" class="graph" transform="scale(1 1) rotate(0) translate(4 138)">
<title>X11Extras::findParentClient</title>
<polygon fill="white" stroke="transparent" points="-4,4 -4,-138 655,-138 655,4 -4,4"/>
<!-- Node1 -->
<g id="node1" class="node">
<title>Node1</title>
<g id="a_node1"><a xlink:title=" ">
<polygon fill="#bfbfbf" stroke="black" points="0,-76.5 0,-95.5 138,-95.5 138,-76.5 0,-76.5"/>
<text text-anchor="middle" x="69" y="-83.5" font-family="Helvetica,sans-Serif" font-size="10.00">X11Extras::findParentClient</text>
</a>
</g>
</g>
<!-- Node2 -->
<g id="node2" class="node">
<title>Node2</title>
<g id="a_node2"><a xlink:href="classX11Extras.html#a643c95dc1de8eb073a0accb41619fe83" target="_top" xlink:title="Get display instance.">
<polygon fill="white" stroke="black" points="552,-57.5 552,-76.5 651,-76.5 651,-57.5 552,-57.5"/>
<text text-anchor="middle" x="601.5" y="-64.5" font-family="Helvetica,sans-Serif" font-size="10.00">X11Extras::display</text>
</a>
</g>
</g>
<!-- Node1&#45;&gt;Node2 -->
<g id="edge1" class="edge">
<title>Node1&#45;&gt;Node2</title>
<path fill="none" stroke="midnightblue" d="M138.03,-84.45C225.51,-82.32 382.12,-78.06 516,-72 524.34,-71.62 533.13,-71.17 541.77,-70.69"/>
<polygon fill="midnightblue" stroke="midnightblue" points="542.02,-74.18 551.81,-70.11 541.62,-67.19 542.02,-74.18"/>
</g>
<!-- Node3 -->
<g id="node3" class="node">
<title>Node3</title>
<g id="a_node3"><a xlink:href="classX11Extras.html#addc3448425326be8bcd2b0138abe643a" target="_top" xlink:title="Go through a window&#39;s properties and search for an Atom from a defined list. If an Atom is found in a...">
<polygon fill="white" stroke="black" points="174,-38.5 174,-57.5 323,-57.5 323,-38.5 174,-38.5"/>
<text text-anchor="middle" x="248.5" y="-45.5" font-family="Helvetica,sans-Serif" font-size="10.00">X11Extras::isWindowRelevant</text>
</a>
</g>
</g>
<!-- Node1&#45;&gt;Node3 -->
<g id="edge2" class="edge">
<title>Node1&#45;&gt;Node3</title>
<path fill="none" stroke="midnightblue" d="M114.79,-76.41C138.53,-71.33 167.88,-65.04 192.94,-59.68"/>
<polygon fill="midnightblue" stroke="midnightblue" points="193.99,-63.04 203.03,-57.52 192.52,-56.19 193.99,-63.04"/>
</g>
<!-- Node6 -->
<g id="node6" class="node">
<title>Node6</title>
<g id="a_node6"><a xlink:href="classX11Extras.html#abebf4a3a16685c4b274980f040671ae9" target="_top" xlink:title=" ">
<polygon fill="white" stroke="black" points="363,-114.5 363,-133.5 512,-133.5 512,-114.5 363,-114.5"/>
<text text-anchor="middle" x="437.5" y="-121.5" font-family="Helvetica,sans-Serif" font-size="10.00">X11Extras::windowIsViewable</text>
</a>
</g>
</g>
<!-- Node1&#45;&gt;Node6 -->
<g id="edge7" class="edge">
<title>Node1&#45;&gt;Node6</title>
<path fill="none" stroke="midnightblue" d="M137.64,-95.53C149.74,-97.11 162.23,-98.67 174,-100 233.68,-106.74 301.17,-112.88 352.77,-117.26"/>
<polygon fill="midnightblue" stroke="midnightblue" points="352.61,-120.76 362.87,-118.11 353.2,-113.78 352.61,-120.76"/>
</g>
<!-- Node3&#45;&gt;Node2 -->
<g id="edge3" class="edge">
<title>Node3&#45;&gt;Node2</title>
<path fill="none" stroke="midnightblue" d="M323.08,-51.98C388.07,-55.5 481.6,-60.56 541.71,-63.82"/>
<polygon fill="midnightblue" stroke="midnightblue" points="541.62,-67.32 551.8,-64.36 542,-60.33 541.62,-67.32"/>
</g>
<!-- Node4 -->
<g id="node4" class="node">
<title>Node4</title>
<g id="a_node4"><a xlink:href="classX11Extras.html#a44556cc9630d8685f1978b258c40679d" target="_top" xlink:title=" ">
<polygon fill="white" stroke="black" points="359,-0.5 359,-19.5 516,-19.5 516,-0.5 359,-0.5"/>
<text text-anchor="middle" x="437.5" y="-7.5" font-family="Helvetica,sans-Serif" font-size="10.00">X11Extras::windowHasProperty</text>
</a>
</g>
</g>
<!-- Node3&#45;&gt;Node4 -->
<g id="edge4" class="edge">
<title>Node3&#45;&gt;Node4</title>
<path fill="none" stroke="midnightblue" d="M296.69,-38.41C321.92,-33.28 353.17,-26.93 379.73,-21.54"/>
<polygon fill="midnightblue" stroke="midnightblue" points="380.55,-24.94 389.65,-19.52 379.15,-18.08 380.55,-24.94"/>
</g>
<!-- Node4&#45;&gt;Node2 -->
<g id="edge5" class="edge">
<title>Node4&#45;&gt;Node2</title>
<path fill="none" stroke="midnightblue" d="M471.1,-19.53C485.01,-23.74 501.37,-28.89 516,-34 533.2,-40.01 552.1,-47.33 567.66,-53.54"/>
<polygon fill="midnightblue" stroke="midnightblue" points="566.77,-56.96 577.35,-57.44 569.38,-50.46 566.77,-56.96"/>
</g>
<!-- Node5 -->
<g id="node5" class="node">
<title>Node5</title>
<g id="a_node5"><a xlink:href="x11extras_8cpp.html#abd96e3a47ad21173e08bc83e90a98fda" target="_top" xlink:title=" ">
<polygon fill="white" stroke="black" points="567.5,-0.5 567.5,-19.5 635.5,-19.5 635.5,-0.5 567.5,-0.5"/>
<text text-anchor="middle" x="601.5" y="-7.5" font-family="Helvetica,sans-Serif" font-size="10.00">freeWindow</text>
</a>
</g>
</g>
<!-- Node4&#45;&gt;Node5 -->
<g id="edge6" class="edge">
<title>Node4&#45;&gt;Node5</title>
<path fill="none" stroke="midnightblue" d="M516.18,-10C530.26,-10 544.48,-10 557.13,-10"/>
<polygon fill="midnightblue" stroke="midnightblue" points="557.34,-13.5 567.34,-10 557.34,-6.5 557.34,-13.5"/>
</g>
<!-- Node6&#45;&gt;Node2 -->
<g id="edge8" class="edge">
<title>Node6&#45;&gt;Node2</title>
<path fill="none" stroke="midnightblue" d="M471.1,-114.47C485.01,-110.26 501.37,-105.11 516,-100 533.2,-93.99 552.1,-86.67 567.66,-80.46"/>
<polygon fill="midnightblue" stroke="midnightblue" points="569.38,-83.54 577.35,-76.56 566.77,-77.04 569.38,-83.54"/>
</g>
</g>
</svg>
