<?xml version="1.0" encoding="UTF-8" standalone="no"?>
<!DOCTYPE svg PUBLIC "-//W3C//DTD SVG 1.1//EN"
 "http://www.w3.org/Graphics/SVG/1.1/DTD/svg11.dtd">
<!-- Generated by graphviz version 2.43.0 (0)
 -->
<!-- Title: ButtonEditDialog::keyGrabbed Pages: 1 -->
<svg width="695pt" height="152pt"
 viewBox="0.00 0.00 695.00 152.47" xmlns="http://www.w3.org/2000/svg" xmlns:xlink="http://www.w3.org/1999/xlink">
<g id="graph0" class="graph" transform="scale(1 1) rotate(0) translate(4 148.47)">
<title>ButtonEditDialog::keyGrabbed</title>
<polygon fill="white" stroke="transparent" points="-4,4 -4,-148.47 691,-148.47 691,4 -4,4"/>
<!-- Node1 -->
<g id="node1" class="node">
<title>Node1</title>
<g id="a_node1"><a xlink:title=" ">
<polygon fill="#bfbfbf" stroke="black" points="539,-72 539,-91 687,-91 687,-72 539,-72"/>
<text text-anchor="middle" x="613" y="-79" font-family="Helvetica,sans-Serif" font-size="10.00">ButtonEditDialog::keyGrabbed</text>
</a>
</g>
</g>
<!-- Node2 -->
<g id="node2" class="node">
<title>Node2</title>
<g id="a_node2"><a xlink:href="classButtonEditDialog.html#a3e9feede100cbb6a11c9d87659c196ea" target="_top" xlink:title=" ">
<polygon fill="white" stroke="black" points="0,-110.5 0,-140.5 125,-140.5 125,-110.5 0,-110.5"/>
<text text-anchor="start" x="8" y="-128.5" font-family="Helvetica,sans-Serif" font-size="10.00">ButtonEditDialog::Button</text>
<text text-anchor="middle" x="62.5" y="-117.5" font-family="Helvetica,sans-Serif" font-size="10.00">EditDialog</text>
</a>
</g>
</g>
<!-- Node1&#45;&gt;Node2 -->
<g id="edge1" class="edge">
<title>Node1&#45;&gt;Node2</title>
<path fill="none" stroke="midnightblue" d="M586.2,-95.87C564.69,-106.98 532.85,-121.46 503,-127.5 370.44,-154.33 210.75,-143.05 125.05,-133.57"/>
<polygon fill="midnightblue" stroke="midnightblue" points="588.12,-98.82 595.32,-91.04 584.84,-92.63 588.12,-98.82"/>
</g>
<!-- Node3 -->
<g id="node3" class="node">
<title>Node3</title>
<g id="a_node3"><a xlink:href="classButtonEditDialog.html#a7b7f4ddddf1b67c7883cc03d7469987f" target="_top" xlink:title=" ">
<polygon fill="white" stroke="black" points="367.5,-88.5 367.5,-118.5 492.5,-118.5 492.5,-88.5 367.5,-88.5"/>
<text text-anchor="start" x="375.5" y="-106.5" font-family="Helvetica,sans-Serif" font-size="10.00">ButtonEditDialog::closed</text>
<text text-anchor="middle" x="430" y="-95.5" font-family="Helvetica,sans-Serif" font-size="10.00">AdvancedDialog</text>
</a>
</g>
</g>
<!-- Node1&#45;&gt;Node3 -->
<g id="edge2" class="edge">
<title>Node1&#45;&gt;Node3</title>
<path fill="none" stroke="midnightblue" d="M528.78,-91.62C516.65,-93.09 504.35,-94.58 492.76,-95.99"/>
<polygon fill="midnightblue" stroke="midnightblue" points="529.4,-95.07 538.9,-90.38 528.55,-88.12 529.4,-95.07"/>
</g>
<!-- Node4 -->
<g id="node4" class="node">
<title>Node4</title>
<g id="a_node4"><a xlink:href="classButtonEditDialog.html#ade8d1ee4ae03d1080932a70c8170d488" target="_top" xlink:title=" ">
<polygon fill="white" stroke="black" points="161,-88.5 161,-118.5 321,-118.5 321,-88.5 161,-88.5"/>
<text text-anchor="start" x="169" y="-106.5" font-family="Helvetica,sans-Serif" font-size="10.00">ButtonEditDialog::openAdvanced</text>
<text text-anchor="middle" x="241" y="-95.5" font-family="Helvetica,sans-Serif" font-size="10.00">Dialog</text>
</a>
</g>
</g>
<!-- Node1&#45;&gt;Node4 -->
<g id="edge6" class="edge">
<title>Node1&#45;&gt;Node4</title>
<path fill="none" stroke="midnightblue" d="M528.85,-75.56C478.9,-73.22 414.14,-72.36 357,-78.5 338.11,-80.53 317.76,-84.38 299.52,-88.47"/>
<polygon fill="midnightblue" stroke="midnightblue" points="528.8,-79.06 538.96,-76.06 529.15,-72.07 528.8,-79.06"/>
</g>
<!-- Node5 -->
<g id="node5" class="node">
<title>Node5</title>
<g id="a_node5"><a xlink:href="classButtonEditDialog.html#aa9469772bd8abc88407492e2c9385687" target="_top" xlink:title=" ">
<polygon fill="white" stroke="black" points="357,-0.5 357,-30.5 503,-30.5 503,-0.5 357,-0.5"/>
<text text-anchor="start" x="365" y="-18.5" font-family="Helvetica,sans-Serif" font-size="10.00">ButtonEditDialog::keyRelease</text>
<text text-anchor="middle" x="430" y="-7.5" font-family="Helvetica,sans-Serif" font-size="10.00">Event</text>
</a>
</g>
</g>
<!-- Node1&#45;&gt;Node5 -->
<g id="edge5" class="edge">
<title>Node1&#45;&gt;Node5</title>
<path fill="none" stroke="midnightblue" d="M576.08,-68.4C546.22,-57.51 503.72,-42.02 472.43,-30.61"/>
<polygon fill="midnightblue" stroke="midnightblue" points="575.09,-71.77 585.68,-71.9 577.49,-65.19 575.09,-71.77"/>
</g>
<!-- Node3&#45;&gt;Node4 -->
<g id="edge3" class="edge">
<title>Node3&#45;&gt;Node4</title>
<path fill="none" stroke="midnightblue" d="M357.04,-103.5C345.25,-103.5 332.97,-103.5 321.02,-103.5"/>
<polygon fill="midnightblue" stroke="midnightblue" points="357.25,-107 367.25,-103.5 357.25,-100 357.25,-107"/>
</g>
<!-- Node4&#45;&gt;Node2 -->
<g id="edge4" class="edge">
<title>Node4&#45;&gt;Node2</title>
<path fill="none" stroke="midnightblue" d="M150.7,-114.63C142.1,-115.7 133.51,-116.77 125.26,-117.8"/>
<polygon fill="midnightblue" stroke="midnightblue" points="151.29,-118.08 160.78,-113.37 150.43,-111.14 151.29,-118.08"/>
</g>
</g>
</svg>
