<?xml version="1.0" encoding="UTF-8" standalone="no"?>
<!DOCTYPE svg PUBLIC "-//W3C//DTD SVG 1.1//EN"
 "http://www.w3.org/Graphics/SVG/1.1/DTD/svg11.dtd">
<!-- Generated by graphviz version 2.43.0 (0)
 -->
<!-- Title: SetJoystickXml Pages: 1 -->
<!--zoomable 639 -->
<svg id="main" version="1.1" xmlns="http://www.w3.org/2000/svg" xmlns:xlink="http://www.w3.org/1999/xlink" xml:space="preserve" onload="init(evt)">
<style type="text/css"><![CDATA[
.edge:hover path { stroke: red; }
.edge:hover polygon { stroke: red; fill: red; }
]]></style>
<script type="text/javascript"><![CDATA[
var edges = document.getElementsByTagName('g');
if (edges && edges.length) {
  for (var i=0;i<edges.length;i++) {
    if (edges[i].id.substr(0,4)=='edge') {
      edges[i].setAttribute('class','edge');
    }
  }
}
]]></script>
        <defs>
                <circle id="rim" cx="0" cy="0" r="7"/>
                <circle id="rim2" cx="0" cy="0" r="3.5"/>
                <g id="zoomPlus">
                        <use xlink:href="#rim" fill="#404040">
                                <set attributeName="fill" to="#808080" begin="zoomplus.mouseover" end="zoomplus.mouseout"/>
                        </use>
                        <path d="M-4,0h8M0,-4v8" fill="none" stroke="white" stroke-width="1.5" pointer-events="none"/>
                </g>
                <g id="zoomMin">
                        <use xlink:href="#rim" fill="#404040">
                                <set attributeName="fill" to="#808080" begin="zoomminus.mouseover" end="zoomminus.mouseout"/>
                        </use>
                        <path d="M-4,0h8" fill="none" stroke="white" stroke-width="1.5" pointer-events="none"/>
                </g>
                <g id="dirArrow">
                        <path fill="none" stroke="white" stroke-width="1.5" d="M0,-3.0v7 M-2.5,-0.5L0,-3.0L2.5,-0.5"/>
                </g>
               <g id="resetDef">
                       <use xlink:href="#rim2" fill="#404040">
                               <set attributeName="fill" to="#808080" begin="reset.mouseover" end="reset.mouseout"/>
                       </use>
               </g>
        </defs>

<script type="text/javascript">
var viewWidth = 2092;
var viewHeight = 639;
var sectionId = 'dynsection-1';
</script>
<script xlink:href="svgpan.js"/>
<svg id="graph" class="graph">
<g id="viewport">
<title>SetJoystickXml</title>
<polygon fill="white" stroke="transparent" points="-4,4 -4,-635 2088,-635 2088,4 -4,4"/>
<!-- Node1 -->
<g id="node1" class="node">
<title>Node1</title>
<g id="a_node1"><a xlink:title=" ">
<polygon fill="#bfbfbf" stroke="black" points="279,-417.5 279,-436.5 364,-436.5 364,-417.5 279,-417.5"/>
<text text-anchor="middle" x="321.5" y="-424.5" font-family="Helvetica,sans-Serif" font-size="10.00">SetJoystickXml</text>
</a>
</g>
</g>
<!-- Node3 -->
<g id="node3" class="node">
<title>Node3</title>
<g id="a_node3"><a xlink:href="classSetJoystick.html" target="_top" xlink:title=" ">
<polygon fill="white" stroke="black" points="519,-404.5 519,-423.5 587,-423.5 587,-404.5 519,-404.5"/>
<text text-anchor="middle" x="553" y="-411.5" font-family="Helvetica,sans-Serif" font-size="10.00">SetJoystick</text>
</a>
</g>
</g>
<!-- Node1&#45;&gt;Node3 -->
<g id="edge3" class="edge">
<title>Node1&#45;&gt;Node3</title>
<path fill="none" stroke="midnightblue" d="M374.07,-424.08C418.4,-421.57 481.01,-418.02 518.93,-415.87"/>
<polygon fill="midnightblue" stroke="midnightblue" points="373.85,-420.59 364.06,-424.65 374.24,-427.57 373.85,-420.59"/>
</g>
<!-- Node2 -->
<g id="node2" class="node">
<title>Node2</title>
<g id="a_node2"><a xlink:title=" ">
<polygon fill="white" stroke="#bfbfbf" points="117.5,-285.5 117.5,-304.5 170.5,-304.5 170.5,-285.5 117.5,-285.5"/>
<text text-anchor="middle" x="144" y="-292.5" font-family="Helvetica,sans-Serif" font-size="10.00">QObject</text>
</a>
</g>
</g>
<!-- Node2&#45;&gt;Node1 -->
<g id="edge1" class="edge">
<title>Node2&#45;&gt;Node1</title>
<path fill="none" stroke="midnightblue" d="M165.95,-310.76C202.65,-338.36 277.51,-394.67 307.58,-417.28"/>
<polygon fill="midnightblue" stroke="midnightblue" points="168,-307.92 157.9,-304.71 163.79,-313.51 168,-307.92"/>
</g>
<!-- Node4 -->
<g id="node4" class="node">
<title>Node4</title>
<g id="a_node4"><a xlink:href="classInputDevice.html" target="_top" xlink:title=" ">
<polygon fill="white" stroke="black" points="287,-475.5 287,-494.5 356,-494.5 356,-475.5 287,-475.5"/>
<text text-anchor="middle" x="321.5" y="-482.5" font-family="Helvetica,sans-Serif" font-size="10.00">InputDevice</text>
</a>
</g>
</g>
<!-- Node2&#45;&gt;Node4 -->
<g id="edge5" class="edge">
<title>Node2&#45;&gt;Node4</title>
<path fill="none" stroke="midnightblue" d="M158.34,-313.1C170.91,-329.85 190.51,-355.21 209,-376 238.24,-408.87 247.41,-415.38 279,-446 289.51,-456.19 301.74,-467.63 310.18,-475.47"/>
<polygon fill="midnightblue" stroke="midnightblue" points="160.92,-310.7 152.14,-304.77 155.3,-314.88 160.92,-310.7"/>
</g>
<!-- Node7 -->
<g id="node7" class="node">
<title>Node7</title>
<g id="a_node7"><a xlink:href="classJoyAxisXml.html" target="_top" xlink:title=" ">
<polygon fill="white" stroke="black" points="1754.5,-501.5 1754.5,-520.5 1823.5,-520.5 1823.5,-501.5 1754.5,-501.5"/>
<text text-anchor="middle" x="1789" y="-508.5" font-family="Helvetica,sans-Serif" font-size="10.00">JoyAxisXml</text>
</a>
</g>
</g>
<!-- Node2&#45;&gt;Node7 -->
<g id="edge9" class="edge">
<title>Node2&#45;&gt;Node7</title>
<path fill="none" stroke="midnightblue" d="M146.01,-314.69C149.06,-356.28 161.2,-454.44 209,-518 244.17,-564.76 261.99,-588 320.5,-588 320.5,-588 320.5,-588 1602,-588 1671.55,-588 1745.36,-541.47 1774.79,-520.75"/>
<polygon fill="midnightblue" stroke="midnightblue" points="149.49,-314.3 145.37,-304.54 142.51,-314.74 149.49,-314.3"/>
</g>
<!-- Node8 -->
<g id="node8" class="node">
<title>Node8</title>
<g id="a_node8"><a xlink:href="classJoyAxis.html" target="_top" xlink:title=" ">
<polygon fill="white" stroke="black" points="1575,-227.5 1575,-246.5 1627,-246.5 1627,-227.5 1575,-227.5"/>
<text text-anchor="middle" x="1601" y="-234.5" font-family="Helvetica,sans-Serif" font-size="10.00">JoyAxis</text>
</a>
</g>
</g>
<!-- Node2&#45;&gt;Node8 -->
<g id="edge11" class="edge">
<title>Node2&#45;&gt;Node8</title>
<path fill="none" stroke="midnightblue" d="M148.57,-275.1C160.64,-214.77 205.79,-38 320.5,-38 320.5,-38 320.5,-38 1411,-38 1495.91,-38 1482.08,-116.86 1541,-178 1557.89,-195.52 1578.02,-215.46 1589.86,-227.09"/>
<polygon fill="midnightblue" stroke="midnightblue" points="145.07,-274.76 146.63,-285.24 151.94,-276.07 145.07,-274.76"/>
</g>
<!-- Node11 -->
<g id="node11" class="node">
<title>Node11</title>
<g id="a_node11"><a xlink:href="classJoyButton.html" target="_top" xlink:title=" ">
<polygon fill="white" stroke="black" points="1080,-218.5 1080,-237.5 1141,-237.5 1141,-218.5 1080,-218.5"/>
<text text-anchor="middle" x="1110.5" y="-225.5" font-family="Helvetica,sans-Serif" font-size="10.00">JoyButton</text>
</a>
</g>
</g>
<!-- Node2&#45;&gt;Node11 -->
<g id="edge16" class="edge">
<title>Node2&#45;&gt;Node11</title>
<path fill="none" stroke="midnightblue" d="M158.46,-277.28C185.33,-244.12 249.2,-176 320.5,-176 320.5,-176 320.5,-176 732.5,-176 879.63,-176 919.36,-171.93 1062,-208 1071.72,-210.46 1082.02,-214.59 1090.54,-218.47"/>
<polygon fill="midnightblue" stroke="midnightblue" points="155.61,-275.24 152.16,-285.26 161.1,-279.58 155.61,-275.24"/>
</g>
<!-- Node12 -->
<g id="node12" class="node">
<title>Node12</title>
<g id="a_node12"><a xlink:href="classJoyButtonMouseHelper.html" target="_top" xlink:title=" ">
<polygon fill="white" stroke="black" points="382,-327.5 382,-346.5 501,-346.5 501,-327.5 382,-327.5"/>
<text text-anchor="middle" x="441.5" y="-334.5" font-family="Helvetica,sans-Serif" font-size="10.00">JoyButtonMouseHelper</text>
</a>
</g>
</g>
<!-- Node2&#45;&gt;Node12 -->
<g id="edge18" class="edge">
<title>Node2&#45;&gt;Node12</title>
<path fill="none" stroke="midnightblue" d="M180.7,-300.07C230.6,-307.17 321.79,-320.13 381.78,-328.65"/>
<polygon fill="midnightblue" stroke="midnightblue" points="181.1,-296.6 170.71,-298.65 180.11,-303.53 181.1,-296.6"/>
</g>
<!-- Node13 -->
<g id="node13" class="node">
<title>Node13</title>
<g id="a_node13"><a xlink:href="classJoyButtonSlot.html" target="_top" xlink:title=" ">
<polygon fill="white" stroke="black" points="605,-224.5 605,-243.5 683,-243.5 683,-224.5 605,-224.5"/>
<text text-anchor="middle" x="644" y="-231.5" font-family="Helvetica,sans-Serif" font-size="10.00">JoyButtonSlot</text>
</a>
</g>
</g>
<!-- Node2&#45;&gt;Node13 -->
<g id="edge21" class="edge">
<title>Node2&#45;&gt;Node13</title>
<path fill="none" stroke="midnightblue" d="M180.81,-290.61C271.76,-279.47 511.05,-250.16 604.67,-238.69"/>
<polygon fill="midnightblue" stroke="midnightblue" points="180.23,-287.16 170.73,-291.85 181.08,-294.11 180.23,-287.16"/>
</g>
<!-- Node15 -->
<g id="node15" class="node">
<title>Node15</title>
<g id="a_node15"><a xlink:href="classJoyDPad.html" target="_top" xlink:title=" ">
<polygon fill="white" stroke="black" points="703,-128.5 703,-147.5 760,-147.5 760,-128.5 703,-128.5"/>
<text text-anchor="middle" x="731.5" y="-135.5" font-family="Helvetica,sans-Serif" font-size="10.00">JoyDPad</text>
</a>
</g>
</g>
<!-- Node2&#45;&gt;Node15 -->
<g id="edge24" class="edge">
<title>Node2&#45;&gt;Node15</title>
<path fill="none" stroke="midnightblue" d="M148.05,-275.31C153.89,-245.05 169.76,-187.94 209,-162 368.72,-56.41 619.95,-108.74 702.91,-130.26"/>
<polygon fill="midnightblue" stroke="midnightblue" points="144.55,-275.01 146.27,-285.46 151.44,-276.21 144.55,-275.01"/>
</g>
<!-- Node17 -->
<g id="node17" class="node">
<title>Node17</title>
<g id="a_node17"><a xlink:href="classJoyControlStick.html" target="_top" xlink:title=" ">
<polygon fill="white" stroke="black" points="1746,-178.5 1746,-197.5 1832,-197.5 1832,-178.5 1746,-178.5"/>
<text text-anchor="middle" x="1789" y="-185.5" font-family="Helvetica,sans-Serif" font-size="10.00">JoyControlStick</text>
</a>
</g>
</g>
<!-- Node2&#45;&gt;Node17 -->
<g id="edge31" class="edge">
<title>Node2&#45;&gt;Node17</title>
<path fill="none" stroke="midnightblue" d="M145.07,-275.01C146.23,-230.61 154.85,-122.49 209,-56 244.02,-13 265.05,0 320.5,0 320.5,0 320.5,0 1602,0 1703.47,0 1768.36,-140.11 1784.21,-178.42"/>
<polygon fill="midnightblue" stroke="midnightblue" points="141.57,-275.03 144.9,-285.08 148.56,-275.14 141.57,-275.03"/>
</g>
<!-- Node21 -->
<g id="node21" class="node">
<title>Node21</title>
<g id="a_node21"><a xlink:href="classJoyButtonXml.html" target="_top" xlink:title=" ">
<polygon fill="white" stroke="black" points="1245,-455.5 1245,-474.5 1323,-474.5 1323,-455.5 1245,-455.5"/>
<text text-anchor="middle" x="1284" y="-462.5" font-family="Helvetica,sans-Serif" font-size="10.00">JoyButtonXml</text>
</a>
</g>
</g>
<!-- Node2&#45;&gt;Node21 -->
<g id="edge41" class="edge">
<title>Node2&#45;&gt;Node21</title>
<path fill="none" stroke="midnightblue" d="M148.62,-314.74C160.84,-374.6 206.4,-550 320.5,-550 320.5,-550 320.5,-550 1111.5,-550 1178.63,-550 1246.6,-497.08 1272.29,-474.75"/>
<polygon fill="midnightblue" stroke="midnightblue" points="152.01,-313.83 146.66,-304.68 145.14,-315.17 152.01,-313.83"/>
</g>
<!-- Node3&#45;&gt;Node1 -->
<g id="edge2" class="edge">
<title>Node3&#45;&gt;Node1</title>
<path fill="none" stroke="#9a32cd" stroke-dasharray="5,2" d="M508.72,-403.1C506.12,-402.67 503.53,-402.29 501,-402 448.46,-395.9 433.85,-391.55 382,-402 367.28,-404.97 351.67,-411.68 340.13,-417.4"/>
<polygon fill="#9a32cd" stroke="#9a32cd" points="508.25,-406.57 518.73,-405.01 509.56,-399.7 508.25,-406.57"/>
<text text-anchor="middle" x="441.5" y="-405" font-family="Helvetica,sans-Serif" font-size="10.00"> m_setJoystick</text>
</g>
<!-- Node3&#45;&gt;Node8 -->
<g id="edge12" class="edge">
<title>Node3&#45;&gt;Node8</title>
<path fill="none" stroke="#9a32cd" stroke-dasharray="5,2" d="M597.56,-415.39C700.23,-418.56 965.39,-426 1187,-426 1187,-426 1187,-426 1411,-426 1513.55,-426 1579.89,-285.15 1596.12,-246.63"/>
<polygon fill="#9a32cd" stroke="#9a32cd" points="597.39,-411.89 587.28,-415.08 597.17,-418.88 597.39,-411.89"/>
<text text-anchor="middle" x="1110.5" y="-428" font-family="Helvetica,sans-Serif" font-size="10.00"> m_parentSet</text>
</g>
<!-- Node3&#45;&gt;Node11 -->
<g id="edge19" class="edge">
<title>Node3&#45;&gt;Node11</title>
<path fill="none" stroke="#9a32cd" stroke-dasharray="5,2" d="M597.34,-411.09C716.9,-402.9 1043.81,-379.31 1062,-365 1102.95,-332.78 1108.73,-263.09 1109.45,-237.59"/>
<polygon fill="#9a32cd" stroke="#9a32cd" points="596.83,-407.62 587.09,-411.79 597.31,-414.6 596.83,-407.62"/>
<text text-anchor="middle" x="831" y="-400" font-family="Helvetica,sans-Serif" font-size="10.00"> m_parentSet</text>
</g>
<!-- Node3&#45;&gt;Node15 -->
<g id="edge25" class="edge">
<title>Node3&#45;&gt;Node15</title>
<path fill="none" stroke="#9a32cd" stroke-dasharray="5,2" d="M570.59,-396.77C597.07,-368.57 649.34,-309.98 683,-253 704.64,-216.36 721.11,-168.01 727.54,-147.67"/>
<polygon fill="#9a32cd" stroke="#9a32cd" points="567.88,-394.54 563.54,-404.2 572.96,-399.36 567.88,-394.54"/>
<text text-anchor="middle" x="644" y="-358" font-family="Helvetica,sans-Serif" font-size="10.00"> m_parentSet</text>
</g>
<!-- Node4&#45;&gt;Node3 -->
<g id="edge4" class="edge">
<title>Node4&#45;&gt;Node3</title>
<path fill="none" stroke="#9a32cd" stroke-dasharray="5,2" d="M365.81,-473.87C402.18,-464.22 455.37,-449.43 501,-434 510.28,-430.86 520.35,-427.01 529.07,-423.53"/>
<polygon fill="#9a32cd" stroke="#9a32cd" points="364.8,-470.51 356.02,-476.45 366.58,-477.28 364.8,-470.51"/>
<text text-anchor="middle" x="441.5" y="-472" font-family="Helvetica,sans-Serif" font-size="10.00"> m_device</text>
</g>
<!-- Node5 -->
<g id="node5" class="node">
<title>Node5</title>
<g id="a_node5"><a xlink:href="classAntiMicroSettings.html" target="_top" xlink:title=" ">
<polygon fill="white" stroke="black" points="97,-611.5 97,-630.5 191,-630.5 191,-611.5 97,-611.5"/>
<text text-anchor="middle" x="144" y="-618.5" font-family="Helvetica,sans-Serif" font-size="10.00">AntiMicroSettings</text>
</a>
</g>
</g>
<!-- Node5&#45;&gt;Node4 -->
<g id="edge6" class="edge">
<title>Node5&#45;&gt;Node4</title>
<path fill="none" stroke="#9a32cd" stroke-dasharray="5,2" d="M165.35,-605.23C201.97,-576.86 277.95,-517.97 307.94,-494.73"/>
<polygon fill="#9a32cd" stroke="#9a32cd" points="163.1,-602.54 157.34,-611.44 167.39,-608.08 163.1,-602.54"/>
<text text-anchor="middle" x="235" y="-572" font-family="Helvetica,sans-Serif" font-size="10.00"> m_settings</text>
</g>
<!-- Node6 -->
<g id="node6" class="node">
<title>Node6</title>
<g id="a_node6"><a xlink:title=" ">
<polygon fill="white" stroke="#bfbfbf" points="0,-611.5 0,-630.5 60,-630.5 60,-611.5 0,-611.5"/>
<text text-anchor="middle" x="30" y="-618.5" font-family="Helvetica,sans-Serif" font-size="10.00">QSettings</text>
</a>
</g>
</g>
<!-- Node6&#45;&gt;Node5 -->
<g id="edge7" class="edge">
<title>Node6&#45;&gt;Node5</title>
<path fill="none" stroke="midnightblue" d="M70.21,-621C78.75,-621 87.87,-621 96.65,-621"/>
<polygon fill="midnightblue" stroke="midnightblue" points="70.13,-617.5 60.13,-621 70.13,-624.5 70.13,-617.5"/>
</g>
<!-- Node7&#45;&gt;Node1 -->
<g id="edge8" class="edge">
<title>Node7&#45;&gt;Node1</title>
<path fill="none" stroke="#9a32cd" stroke-dasharray="5,2" d="M1744.27,-511C1706.58,-511 1650.7,-511 1602,-511 552,-511 552,-511 552,-511 475.5,-511 450.16,-518.75 382,-484 371.92,-478.86 372.12,-473.87 364,-466 353.49,-455.81 341.26,-444.37 332.82,-436.53"/>
<polygon fill="#9a32cd" stroke="#9a32cd" points="1744.4,-514.5 1754.4,-511 1744.4,-507.5 1744.4,-514.5"/>
<text text-anchor="middle" x="1110.5" y="-514" font-family="Helvetica,sans-Serif" font-size="10.00"> joyAxisXml</text>
</g>
<!-- Node8&#45;&gt;Node7 -->
<g id="edge10" class="edge">
<title>Node8&#45;&gt;Node7</title>
<path fill="none" stroke="#9a32cd" stroke-dasharray="5,2" d="M1614.33,-255.17C1650.31,-308.17 1754.32,-461.38 1781.46,-501.37"/>
<polygon fill="#9a32cd" stroke="#9a32cd" points="1617.13,-253.06 1608.62,-246.75 1611.34,-256.99 1617.13,-253.06"/>
<text text-anchor="middle" x="1703.5" y="-425" font-family="Helvetica,sans-Serif" font-size="10.00"> m_joyAxis</text>
</g>
<!-- Node9 -->
<g id="node9" class="node">
<title>Node9</title>
<g id="a_node9"><a xlink:href="classJoyAxisButton.html" target="_top" xlink:title=" ">
<polygon fill="white" stroke="black" points="1370,-218.5 1370,-237.5 1450,-237.5 1450,-218.5 1370,-218.5"/>
<text text-anchor="middle" x="1410" y="-225.5" font-family="Helvetica,sans-Serif" font-size="10.00">JoyAxisButton</text>
</a>
</g>
</g>
<!-- Node8&#45;&gt;Node9 -->
<g id="edge29" class="edge">
<title>Node8&#45;&gt;Node9</title>
<path fill="none" stroke="#9a32cd" stroke-dasharray="5,2" d="M1564.75,-225.27C1551.78,-221.52 1536.87,-217.86 1523,-216 1498.77,-212.76 1492.31,-213.47 1468,-216 1462.17,-216.61 1456.05,-217.56 1450.08,-218.66"/>
<polygon fill="#9a32cd" stroke="#9a32cd" points="1564.1,-228.73 1574.68,-228.27 1566.12,-222.03 1564.1,-228.73"/>
<text text-anchor="middle" x="1495.5" y="-219" font-family="Helvetica,sans-Serif" font-size="10.00"> m_axis</text>
</g>
<!-- Node8&#45;&gt;Node17 -->
<g id="edge39" class="edge">
<title>Node8&#45;&gt;Node17</title>
<path fill="none" stroke="#9a32cd" stroke-dasharray="5,2" d="M1620.88,-221.07C1635.65,-209.69 1657.25,-195.33 1679,-189 1700.44,-182.76 1725.27,-182.06 1745.82,-183.12"/>
<polygon fill="#9a32cd" stroke="#9a32cd" points="1618.66,-218.36 1613.03,-227.33 1623.03,-223.83 1618.66,-218.36"/>
<text text-anchor="middle" x="1703.5" y="-203" font-family="Helvetica,sans-Serif" font-size="10.00"> axisX</text>
<text text-anchor="middle" x="1703.5" y="-192" font-family="Helvetica,sans-Serif" font-size="10.00">axisY</text>
</g>
<!-- Node9&#45;&gt;Node8 -->
<g id="edge13" class="edge">
<title>Node9&#45;&gt;Node8</title>
<path fill="none" stroke="#9a32cd" stroke-dasharray="5,2" d="M1460.18,-230.34C1496.9,-232.09 1545.59,-234.41 1574.76,-235.8"/>
<polygon fill="#9a32cd" stroke="#9a32cd" points="1460.32,-226.84 1450.16,-229.86 1459.98,-233.84 1460.32,-226.84"/>
<text text-anchor="middle" x="1495.5" y="-259" font-family="Helvetica,sans-Serif" font-size="10.00"> paxisbutton</text>
<text text-anchor="middle" x="1495.5" y="-248" font-family="Helvetica,sans-Serif" font-size="10.00">activeButton</text>
<text text-anchor="middle" x="1495.5" y="-237" font-family="Helvetica,sans-Serif" font-size="10.00">naxisbutton</text>
</g>
<!-- Node10 -->
<g id="node10" class="node">
<title>Node10</title>
<g id="a_node10"><a xlink:href="classJoyGradientButton.html" target="_top" xlink:title=" ">
<polygon fill="white" stroke="black" points="1235,-218.5 1235,-237.5 1333,-237.5 1333,-218.5 1235,-218.5"/>
<text text-anchor="middle" x="1284" y="-225.5" font-family="Helvetica,sans-Serif" font-size="10.00">JoyGradientButton</text>
</a>
</g>
</g>
<!-- Node10&#45;&gt;Node9 -->
<g id="edge14" class="edge">
<title>Node10&#45;&gt;Node9</title>
<path fill="none" stroke="midnightblue" d="M1343.35,-228C1352.33,-228 1361.41,-228 1369.84,-228"/>
<polygon fill="midnightblue" stroke="midnightblue" points="1343.3,-224.5 1333.3,-228 1343.3,-231.5 1343.3,-224.5"/>
</g>
<!-- Node19 -->
<g id="node19" class="node">
<title>Node19</title>
<g id="a_node19"><a xlink:href="classJoyControlStickModifierButton.html" target="_top" xlink:title=" ">
<polygon fill="white" stroke="black" points="1935,-265.5 1935,-284.5 2084,-284.5 2084,-265.5 1935,-265.5"/>
<text text-anchor="middle" x="2009.5" y="-272.5" font-family="Helvetica,sans-Serif" font-size="10.00">JoyControlStickModifierButton</text>
</a>
</g>
</g>
<!-- Node10&#45;&gt;Node19 -->
<g id="edge34" class="edge">
<title>Node10&#45;&gt;Node19</title>
<path fill="none" stroke="midnightblue" d="M1300.75,-244.8C1322.75,-266.36 1364.95,-301 1409,-301 1409,-301 1409,-301 1790,-301 1847.68,-301 1913.34,-291.95 1957.49,-284.53"/>
<polygon fill="midnightblue" stroke="midnightblue" points="1303.11,-242.21 1293.59,-237.54 1298.12,-247.12 1303.11,-242.21"/>
</g>
<!-- Node20 -->
<g id="node20" class="node">
<title>Node20</title>
<g id="a_node20"><a xlink:href="classJoyControlStickButton.html" target="_top" xlink:title=" ">
<polygon fill="white" stroke="black" points="1952,-141.5 1952,-160.5 2067,-160.5 2067,-141.5 1952,-141.5"/>
<text text-anchor="middle" x="2009.5" y="-148.5" font-family="Helvetica,sans-Serif" font-size="10.00">JoyControlStickButton</text>
</a>
</g>
</g>
<!-- Node10&#45;&gt;Node20 -->
<g id="edge37" class="edge">
<title>Node10&#45;&gt;Node20</title>
<path fill="none" stroke="midnightblue" d="M1294.98,-209.14C1313.12,-177.7 1354.73,-118 1409,-118 1409,-118 1409,-118 1790,-118 1853.3,-118 1925.77,-131.71 1969.3,-141.46"/>
<polygon fill="midnightblue" stroke="midnightblue" points="1291.72,-207.8 1289.92,-218.24 1297.84,-211.19 1291.72,-207.8"/>
</g>
<!-- Node11&#45;&gt;Node10 -->
<g id="edge15" class="edge">
<title>Node11&#45;&gt;Node10</title>
<path fill="none" stroke="midnightblue" d="M1151.54,-228C1176.37,-228 1208.44,-228 1234.69,-228"/>
<polygon fill="midnightblue" stroke="midnightblue" points="1151.37,-224.5 1141.37,-228 1151.37,-231.5 1151.37,-224.5"/>
</g>
<!-- Node16 -->
<g id="node16" class="node">
<title>Node16</title>
<g id="a_node16"><a xlink:href="classJoyDPadButton.html" target="_top" xlink:title=" ">
<polygon fill="white" stroke="black" points="1241,-104.5 1241,-123.5 1327,-123.5 1327,-104.5 1241,-104.5"/>
<text text-anchor="middle" x="1284" y="-111.5" font-family="Helvetica,sans-Serif" font-size="10.00">JoyDPadButton</text>
</a>
</g>
</g>
<!-- Node11&#45;&gt;Node16 -->
<g id="edge27" class="edge">
<title>Node11&#45;&gt;Node16</title>
<path fill="none" stroke="midnightblue" d="M1134.17,-212.93C1169.91,-189.17 1238.39,-143.66 1268.35,-123.74"/>
<polygon fill="midnightblue" stroke="midnightblue" points="1132.22,-210.03 1125.83,-218.48 1136.09,-215.86 1132.22,-210.03"/>
</g>
<!-- Node11&#45;&gt;Node21 -->
<g id="edge42" class="edge">
<title>Node11&#45;&gt;Node21</title>
<path fill="none" stroke="#9a32cd" stroke-dasharray="5,2" d="M1124.45,-245.9C1158.55,-293.01 1249.93,-419.29 1275.98,-455.3"/>
<polygon fill="#9a32cd" stroke="#9a32cd" points="1127.13,-243.63 1118.44,-237.58 1121.46,-247.74 1127.13,-243.63"/>
<text text-anchor="middle" x="1188" y="-370" font-family="Helvetica,sans-Serif" font-size="10.00"> m_joyButton</text>
</g>
<!-- Node12&#45;&gt;Node11 -->
<g id="edge17" class="edge">
<title>Node12&#45;&gt;Node11</title>
<path fill="none" stroke="#9a32cd" stroke-dasharray="5,2" d="M511.24,-341.81C616.79,-348.52 813.73,-358.15 882,-342 969.7,-321.26 1062.09,-261.18 1096.01,-237.63"/>
<polygon fill="#9a32cd" stroke="#9a32cd" points="511.21,-338.3 501.01,-341.15 510.76,-345.29 511.21,-338.3"/>
<text text-anchor="middle" x="731.5" y="-353" font-family="Helvetica,sans-Serif" font-size="10.00"> mouseHelper</text>
</g>
<!-- Node13&#45;&gt;Node11 -->
<g id="edge20" class="edge">
<title>Node13&#45;&gt;Node11</title>
<path fill="none" stroke="#9a32cd" stroke-dasharray="5,2" d="M693.02,-223.34C718.68,-218.19 750.9,-212.57 780,-210 890.43,-200.26 1022.17,-215.53 1079.92,-223.56"/>
<polygon fill="#9a32cd" stroke="#9a32cd" points="692.26,-219.93 683.17,-225.36 693.67,-226.78 692.26,-219.93"/>
<text text-anchor="middle" x="831" y="-334" font-family="Helvetica,sans-Serif" font-size="10.00"> currentDelay</text>
<text text-anchor="middle" x="831" y="-323" font-family="Helvetica,sans-Serif" font-size="10.00">lastActiveKey</text>
<text text-anchor="middle" x="831" y="-312" font-family="Helvetica,sans-Serif" font-size="10.00">currentSetChangeSlot</text>
<text text-anchor="middle" x="831" y="-301" font-family="Helvetica,sans-Serif" font-size="10.00">currentKeyPress</text>
<text text-anchor="middle" x="831" y="-290" font-family="Helvetica,sans-Serif" font-size="10.00">currentRelease</text>
<text text-anchor="middle" x="831" y="-279" font-family="Helvetica,sans-Serif" font-size="10.00">currentCycle</text>
<text text-anchor="middle" x="831" y="-268" font-family="Helvetica,sans-Serif" font-size="10.00">previousCycle</text>
<text text-anchor="middle" x="831" y="-257" font-family="Helvetica,sans-Serif" font-size="10.00">m_currentDistance</text>
<text text-anchor="middle" x="831" y="-246" font-family="Helvetica,sans-Serif" font-size="10.00">currentPause</text>
<text text-anchor="start" x="780" y="-235" font-family="Helvetica,sans-Serif" font-size="10.00">currentWheelHorizontal</text>
<text text-anchor="middle" x="831" y="-224" font-family="Helvetica,sans-Serif" font-size="10.00">Event</text>
<text text-anchor="middle" x="831" y="-213" font-family="Helvetica,sans-Serif" font-size="10.00">...</text>
</g>
<!-- Node14 -->
<g id="node14" class="node">
<title>Node14</title>
<g id="a_node14"><a xlink:href="classVDPad.html" target="_top" xlink:title=" ">
<polygon fill="white" stroke="black" points="900,-142.5 900,-161.5 948,-161.5 948,-142.5 900,-142.5"/>
<text text-anchor="middle" x="924" y="-149.5" font-family="Helvetica,sans-Serif" font-size="10.00">VDPad</text>
</a>
</g>
</g>
<!-- Node14&#45;&gt;Node11 -->
<g id="edge22" class="edge">
<title>Node14&#45;&gt;Node11</title>
<path fill="none" stroke="#9a32cd" stroke-dasharray="5,2" d="M958.34,-147.95C987.53,-146.01 1030.15,-147.2 1062,-165 1083.76,-177.16 1098.59,-203.87 1105.34,-218.3"/>
<polygon fill="#9a32cd" stroke="#9a32cd" points="957.91,-144.47 948.24,-148.78 958.49,-151.45 957.91,-144.47"/>
<text text-anchor="middle" x="1014" y="-168" font-family="Helvetica,sans-Serif" font-size="10.00"> m_vdpad</text>
</g>
<!-- Node15&#45;&gt;Node14 -->
<g id="edge23" class="edge">
<title>Node15&#45;&gt;Node14</title>
<path fill="none" stroke="midnightblue" d="M770.52,-140.79C809.1,-143.63 867.59,-147.93 899.76,-150.29"/>
<polygon fill="midnightblue" stroke="midnightblue" points="770.43,-137.28 760.2,-140.04 769.92,-144.26 770.43,-137.28"/>
</g>
<!-- Node15&#45;&gt;Node16 -->
<g id="edge28" class="edge">
<title>Node15&#45;&gt;Node16</title>
<path fill="none" stroke="#9a32cd" stroke-dasharray="5,2" d="M770.03,-129.72C773.39,-129.09 776.75,-128.51 780,-128 904.12,-108.65 936.39,-107.58 1062,-109 1124.17,-109.7 1196.15,-111.52 1240.64,-112.76"/>
<polygon fill="#9a32cd" stroke="#9a32cd" points="769.17,-126.32 760.04,-131.69 770.53,-133.19 769.17,-126.32"/>
<text text-anchor="middle" x="1014" y="-112" font-family="Helvetica,sans-Serif" font-size="10.00"> m_dpad</text>
</g>
<!-- Node16&#45;&gt;Node15 -->
<g id="edge26" class="edge">
<title>Node16&#45;&gt;Node15</title>
<path fill="none" stroke="#9a32cd" stroke-dasharray="5,2" d="M1230.59,-116.28C1116.15,-121.27 847.18,-133 760.18,-136.79"/>
<polygon fill="#9a32cd" stroke="#9a32cd" points="1231.01,-119.77 1240.85,-115.84 1230.7,-112.78 1231.01,-119.77"/>
<text text-anchor="middle" x="1014" y="-131" font-family="Helvetica,sans-Serif" font-size="10.00"> activeDiagonalButton</text>
</g>
<!-- Node17&#45;&gt;Node8 -->
<g id="edge30" class="edge">
<title>Node17&#45;&gt;Node8</title>
<path fill="none" stroke="#9a32cd" stroke-dasharray="5,2" d="M1760.71,-202.01C1750.65,-206.72 1739.01,-211.62 1728,-215 1693.82,-225.49 1652.8,-231.49 1627.06,-234.49"/>
<polygon fill="#9a32cd" stroke="#9a32cd" points="1762.33,-205.12 1769.82,-197.62 1759.29,-198.82 1762.33,-205.12"/>
<text text-anchor="middle" x="1703.5" y="-230" font-family="Helvetica,sans-Serif" font-size="10.00"> m_stick</text>
</g>
<!-- Node17&#45;&gt;Node19 -->
<g id="edge35" class="edge">
<title>Node17&#45;&gt;Node19</title>
<path fill="none" stroke="#9a32cd" stroke-dasharray="5,2" d="M1819.59,-201.78C1829.23,-206.14 1840.02,-210.9 1850,-215 1879.4,-227.08 1887.27,-228.77 1917,-240 1939.59,-248.54 1965.27,-258.37 1983.67,-265.44"/>
<polygon fill="#9a32cd" stroke="#9a32cd" points="1820.95,-198.56 1810.4,-197.58 1818.05,-204.92 1820.95,-198.56"/>
<text text-anchor="middle" x="1883.5" y="-243" font-family="Helvetica,sans-Serif" font-size="10.00"> stick</text>
</g>
<!-- Node17&#45;&gt;Node20 -->
<g id="edge38" class="edge">
<title>Node17&#45;&gt;Node20</title>
<path fill="none" stroke="#9a32cd" stroke-dasharray="5,2" d="M1810.49,-172.48C1821.56,-165.05 1835.84,-156.93 1850,-153 1882.88,-143.89 1921.1,-143.13 1951.77,-144.78"/>
<polygon fill="#9a32cd" stroke="#9a32cd" points="1808.17,-169.83 1802.01,-178.45 1812.2,-175.55 1808.17,-169.83"/>
<text text-anchor="middle" x="1883.5" y="-156" font-family="Helvetica,sans-Serif" font-size="10.00"> stick</text>
</g>
<!-- Node18 -->
<g id="node18" class="node">
<title>Node18</title>
<g id="a_node18"><a xlink:href="classJoyStickDirectionsType.html" target="_top" xlink:title=" ">
<polygon fill="white" stroke="black" points="1541,-149.5 1541,-168.5 1661,-168.5 1661,-149.5 1541,-149.5"/>
<text text-anchor="middle" x="1601" y="-156.5" font-family="Helvetica,sans-Serif" font-size="10.00">JoyStickDirectionsType</text>
</a>
</g>
</g>
<!-- Node18&#45;&gt;Node17 -->
<g id="edge32" class="edge">
<title>Node18&#45;&gt;Node17</title>
<path fill="none" stroke="midnightblue" d="M1671.32,-165.01C1689.81,-167.07 1709.72,-169.72 1728,-173 1736.24,-174.48 1745.03,-176.45 1753.27,-178.48"/>
<polygon fill="midnightblue" stroke="midnightblue" points="1671.53,-161.51 1661.21,-163.92 1670.78,-168.47 1671.53,-161.51"/>
</g>
<!-- Node19&#45;&gt;Node17 -->
<g id="edge33" class="edge">
<title>Node19&#45;&gt;Node17</title>
<path fill="none" stroke="#9a32cd" stroke-dasharray="5,2" d="M1924.46,-274.04C1899.4,-270.99 1872.61,-264.82 1850,-253 1825.23,-240.05 1805.35,-212.66 1795.93,-197.91"/>
<polygon fill="#9a32cd" stroke="#9a32cd" points="1924.39,-277.56 1934.7,-275.13 1925.13,-270.6 1924.39,-277.56"/>
<text text-anchor="middle" x="1883.5" y="-275" font-family="Helvetica,sans-Serif" font-size="10.00"> modifierButton</text>
</g>
<!-- Node20&#45;&gt;Node17 -->
<g id="edge36" class="edge">
<title>Node20&#45;&gt;Node17</title>
<path fill="none" stroke="#9a32cd" stroke-dasharray="5,2" d="M1942.15,-162.23C1906.38,-168.29 1863.3,-175.59 1832.13,-180.87"/>
<polygon fill="#9a32cd" stroke="#9a32cd" points="1942.76,-165.68 1952.04,-160.56 1941.59,-158.78 1942.76,-165.68"/>
<text text-anchor="middle" x="1883.5" y="-203" font-family="Helvetica,sans-Serif" font-size="10.00"> activeButton1</text>
<text text-anchor="middle" x="1883.5" y="-192" font-family="Helvetica,sans-Serif" font-size="10.00">activeButton2</text>
<text text-anchor="middle" x="1883.5" y="-181" font-family="Helvetica,sans-Serif" font-size="10.00">activeButton3</text>
</g>
<!-- Node21&#45;&gt;Node1 -->
<g id="edge40" class="edge">
<title>Node21&#45;&gt;Node1</title>
<path fill="none" stroke="#9a32cd" stroke-dasharray="5,2" d="M1234.63,-465C1200.27,-465 1153.05,-465 1111.5,-465 643,-465 643,-465 643,-465 542.28,-465 424.99,-446.27 364.06,-435.11"/>
<polygon fill="#9a32cd" stroke="#9a32cd" points="1234.86,-468.5 1244.86,-465 1234.86,-461.5 1234.86,-468.5"/>
<text text-anchor="middle" x="831" y="-468" font-family="Helvetica,sans-Serif" font-size="10.00"> joyButtonXml</text>
</g>
</g>
</svg>
        <g id="navigator" transform="translate(0 0)" fill="#404254">
                <rect fill="#f2f5e9" fill-opacity="0.5" stroke="#606060" stroke-width=".5" x="0" y="0" width="60" height="60"/>
                <use id="zoomplus" xlink:href="#zoomPlus" x="17" y="9" onmousedown="handleZoom(evt,'in')"/>
                <use id="zoomminus" xlink:href="#zoomMin" x="42" y="9" onmousedown="handleZoom(evt,'out')"/>
                <use id="reset" xlink:href="#resetDef" x="30" y="36" onmousedown="handleReset()"/>
                <g id="arrowUp" xlink:href="#dirArrow" transform="translate(30 24)" onmousedown="handlePan(0,-1)">
                  <use xlink:href="#rim" fill="#404040">
                        <set attributeName="fill" to="#808080" begin="arrowUp.mouseover" end="arrowUp.mouseout"/>
                  </use>
                  <path fill="none" stroke="white" stroke-width="1.5" d="M0,-3.0v7 M-2.5,-0.5L0,-3.0L2.5,-0.5"/>
                </g>
                <g id="arrowRight" xlink:href="#dirArrow" transform="rotate(90) translate(36 -43)" onmousedown="handlePan(1,0)">
                  <use xlink:href="#rim" fill="#404040">
                        <set attributeName="fill" to="#808080" begin="arrowRight.mouseover" end="arrowRight.mouseout"/>
                  </use>
                  <path fill="none" stroke="white" stroke-width="1.5" d="M0,-3.0v7 M-2.5,-0.5L0,-3.0L2.5,-0.5"/>
                </g>
                <g id="arrowDown" xlink:href="#dirArrow" transform="rotate(180) translate(-30 -48)" onmousedown="handlePan(0,1)">
                  <use xlink:href="#rim" fill="#404040">
                        <set attributeName="fill" to="#808080" begin="arrowDown.mouseover" end="arrowDown.mouseout"/>
                  </use>
                  <path fill="none" stroke="white" stroke-width="1.5" d="M0,-3.0v7 M-2.5,-0.5L0,-3.0L2.5,-0.5"/>
                </g>
                <g id="arrowLeft" xlink:href="#dirArrow" transform="rotate(270) translate(-36 17)" onmousedown="handlePan(-1,0)">
                  <use xlink:href="#rim" fill="#404040">
                        <set attributeName="fill" to="#808080" begin="arrowLeft.mouseover" end="arrowLeft.mouseout"/>
                  </use>
                  <path fill="none" stroke="white" stroke-width="1.5" d="M0,-3.0v7 M-2.5,-0.5L0,-3.0L2.5,-0.5"/>
                </g>
        </g>
        <svg viewBox="0 0 15 15" width="100%" height="30px" preserveAspectRatio="xMaxYMin meet">
         <g id="arrow_out" transform="scale(0.3 0.3)">
          <a xlink:href="classSetJoystickXml__coll__graph_org.svg" target="_base">
           <rect id="button" ry="5" rx="5" y="6" x="6" height="38" width="38"
                fill="#f2f5e9" fill-opacity="0.5" stroke="#606060" stroke-width="1.0"/>
           <path id="arrow"
             d="M 11.500037,31.436501 C 11.940474,20.09759 22.043105,11.32322 32.158766,21.979434 L 37.068811,17.246167 C 37.068811,17.246167 37.088388,32 37.088388,32 L 22.160133,31.978069 C 22.160133,31.978069 26.997745,27.140456 26.997745,27.140456 C 18.528582,18.264221 13.291696,25.230495 11.500037,31.436501 z"
             style="fill:#404040;"/>
          </a>
         </g>
        </svg>
</svg>
