<?xml version="1.0" encoding="UTF-8" standalone="no"?>
<!DOCTYPE svg PUBLIC "-//W3C//DTD SVG 1.1//EN"
 "http://www.w3.org/Graphics/SVG/1.1/DTD/svg11.dtd">
<!-- Generated by graphviz version 2.43.0 (0)
 -->
<!-- Title: MainWindow::changeEvent Pages: 1 -->
<!--zoomable 253 -->
<svg id="main" version="1.1" xmlns="http://www.w3.org/2000/svg" xmlns:xlink="http://www.w3.org/1999/xlink" xml:space="preserve" onload="init(evt)">
<style type="text/css"><![CDATA[
.edge:hover path { stroke: red; }
.edge:hover polygon { stroke: red; fill: red; }
]]></style>
<script type="text/javascript"><![CDATA[
var edges = document.getElementsByTagName('g');
if (edges && edges.length) {
  for (var i=0;i<edges.length;i++) {
    if (edges[i].id.substr(0,4)=='edge') {
      edges[i].setAttribute('class','edge');
    }
  }
}
]]></script>
        <defs>
                <circle id="rim" cx="0" cy="0" r="7"/>
                <circle id="rim2" cx="0" cy="0" r="3.5"/>
                <g id="zoomPlus">
                        <use xlink:href="#rim" fill="#404040">
                                <set attributeName="fill" to="#808080" begin="zoomplus.mouseover" end="zoomplus.mouseout"/>
                        </use>
                        <path d="M-4,0h8M0,-4v8" fill="none" stroke="white" stroke-width="1.5" pointer-events="none"/>
                </g>
                <g id="zoomMin">
                        <use xlink:href="#rim" fill="#404040">
                                <set attributeName="fill" to="#808080" begin="zoomminus.mouseover" end="zoomminus.mouseout"/>
                        </use>
                        <path d="M-4,0h8" fill="none" stroke="white" stroke-width="1.5" pointer-events="none"/>
                </g>
                <g id="dirArrow">
                        <path fill="none" stroke="white" stroke-width="1.5" d="M0,-3.0v7 M-2.5,-0.5L0,-3.0L2.5,-0.5"/>
                </g>
               <g id="resetDef">
                       <use xlink:href="#rim2" fill="#404040">
                               <set attributeName="fill" to="#808080" begin="reset.mouseover" end="reset.mouseout"/>
                       </use>
               </g>
        </defs>

<script type="text/javascript">
var viewWidth = 823;
var viewHeight = 253;
var sectionId = 'dynsection-9';
</script>
<script xlink:href="svgpan.js"/>
<svg id="graph" class="graph">
<g id="viewport">
<title>MainWindow::changeEvent</title>
<polygon fill="white" stroke="transparent" points="-4,4 -4,-248.5 819,-248.5 819,4 -4,4"/>
<!-- Node1 -->
<g id="node1" class="node">
<title>Node1</title>
<g id="a_node1"><a xlink:title=" ">
<polygon fill="#bfbfbf" stroke="black" points="0,-96.5 0,-115.5 134,-115.5 134,-96.5 0,-96.5"/>
<text text-anchor="middle" x="67" y="-103.5" font-family="Helvetica,sans-Serif" font-size="10.00">MainWindow::changeEvent</text>
</a>
</g>
</g>
<!-- Node2 -->
<g id="node2" class="node">
<title>Node2</title>
<g id="a_node2"><a xlink:href="classMainWindow.html#a5b10214725195446d31959dbde52df71" target="_top" xlink:title=" ">
<polygon fill="white" stroke="black" points="340,-110 340,-140 473,-140 473,-110 340,-110"/>
<text text-anchor="start" x="348" y="-128" font-family="Helvetica,sans-Serif" font-size="10.00">MainWindow::disableFlash</text>
<text text-anchor="middle" x="406.5" y="-117" font-family="Helvetica,sans-Serif" font-size="10.00">Actions</text>
</a>
</g>
</g>
<!-- Node1&#45;&gt;Node2 -->
<g id="edge1" class="edge">
<title>Node1&#45;&gt;Node2</title>
<path fill="none" stroke="midnightblue" d="M134.28,-109.73C190.42,-112.89 270.91,-117.42 329.62,-120.73"/>
<polygon fill="midnightblue" stroke="midnightblue" points="329.77,-124.24 339.95,-121.31 330.16,-117.25 329.77,-124.24"/>
</g>
<!-- Node11 -->
<g id="node11" class="node">
<title>Node11</title>
<g id="a_node11"><a xlink:href="classMainWindow.html#a732dcadb7bd3365f28d2b38b6d22b5a7" target="_top" xlink:title=" ">
<polygon fill="white" stroke="black" points="171.5,-134.5 171.5,-153.5 302.5,-153.5 302.5,-134.5 171.5,-134.5"/>
<text text-anchor="middle" x="237" y="-141.5" font-family="Helvetica,sans-Serif" font-size="10.00">MainWindow::hideWindow</text>
</a>
</g>
</g>
<!-- Node1&#45;&gt;Node11 -->
<g id="edge18" class="edge">
<title>Node1&#45;&gt;Node11</title>
<path fill="none" stroke="midnightblue" d="M110.39,-115.59C132.76,-120.65 160.4,-126.9 184.05,-132.25"/>
<polygon fill="midnightblue" stroke="midnightblue" points="183.39,-135.69 193.91,-134.48 184.93,-128.86 183.39,-135.69"/>
</g>
<!-- Node12 -->
<g id="node12" class="node">
<title>Node12</title>
<g id="a_node12"><a xlink:href="classMainWindow.html#a2836e718ab96e25231b80d346a7841ad" target="_top" xlink:title=" ">
<polygon fill="white" stroke="black" points="170,-58.5 170,-77.5 304,-77.5 304,-58.5 170,-58.5"/>
<text text-anchor="middle" x="237" y="-65.5" font-family="Helvetica,sans-Serif" font-size="10.00">MainWindow::retranslateUi</text>
</a>
</g>
</g>
<!-- Node1&#45;&gt;Node12 -->
<g id="edge20" class="edge">
<title>Node1&#45;&gt;Node12</title>
<path fill="none" stroke="midnightblue" d="M110.39,-96.41C132.76,-91.35 160.4,-85.1 184.05,-79.75"/>
<polygon fill="midnightblue" stroke="midnightblue" points="184.93,-83.14 193.91,-77.52 183.39,-76.31 184.93,-83.14"/>
</g>
<!-- Node3 -->
<g id="node3" class="node">
<title>Node3</title>
<g id="a_node3"><a xlink:href="classJoyButtonWidget.html#a6ed827523fd9bca4cafd2e329f5a6583" target="_top" xlink:title=" ">
<polygon fill="white" stroke="black" points="527,-39 527,-69 655,-69 655,-39 527,-39"/>
<text text-anchor="start" x="535" y="-57" font-family="Helvetica,sans-Serif" font-size="10.00">JoyButtonWidget::disable</text>
<text text-anchor="middle" x="591" y="-46" font-family="Helvetica,sans-Serif" font-size="10.00">Flashes</text>
</a>
</g>
</g>
<!-- Node2&#45;&gt;Node3 -->
<g id="edge2" class="edge">
<title>Node2&#45;&gt;Node3</title>
<path fill="none" stroke="midnightblue" d="M437.21,-109.85C457.19,-100.01 484.29,-87.32 509,-78 514.36,-75.98 519.98,-74.01 525.64,-72.13"/>
<polygon fill="midnightblue" stroke="midnightblue" points="526.73,-75.46 535.18,-69.06 524.58,-68.8 526.73,-75.46"/>
</g>
<!-- Node6 -->
<g id="node6" class="node">
<title>Node6</title>
<g id="a_node6"><a xlink:href="classJoyControlStickPushButton.html#a8d4df51632a062b38edfffcd9f18324c" target="_top" xlink:title=" ">
<polygon fill="white" stroke="black" points="522.5,-214 522.5,-244 659.5,-244 659.5,-214 522.5,-214"/>
<text text-anchor="start" x="530.5" y="-232" font-family="Helvetica,sans-Serif" font-size="10.00">JoyControlStickPushButton</text>
<text text-anchor="middle" x="591" y="-221" font-family="Helvetica,sans-Serif" font-size="10.00">::disableFlashes</text>
</a>
</g>
</g>
<!-- Node2&#45;&gt;Node6 -->
<g id="edge5" class="edge">
<title>Node2&#45;&gt;Node6</title>
<path fill="none" stroke="midnightblue" d="M423.1,-140.13C442.02,-157.72 475.53,-186.56 509,-204 513.26,-206.22 517.75,-208.28 522.35,-210.19"/>
<polygon fill="midnightblue" stroke="midnightblue" points="521.3,-213.53 531.89,-213.88 523.83,-207.01 521.3,-213.53"/>
</g>
<!-- Node7 -->
<g id="node7" class="node">
<title>Node7</title>
<g id="a_node7"><a xlink:href="classJoyAxisWidget.html#abb07c31ce716701a4bde8218be75ae81" target="_top" xlink:title=" ">
<polygon fill="white" stroke="black" points="514,-175.5 514,-194.5 668,-194.5 668,-175.5 514,-175.5"/>
<text text-anchor="middle" x="591" y="-182.5" font-family="Helvetica,sans-Serif" font-size="10.00">JoyAxisWidget::disableFlashes</text>
</a>
</g>
</g>
<!-- Node2&#45;&gt;Node7 -->
<g id="edge8" class="edge">
<title>Node2&#45;&gt;Node7</title>
<path fill="none" stroke="midnightblue" d="M441.32,-140.18C460.83,-148.56 485.99,-158.7 509,-166 517.02,-168.54 525.57,-170.91 534.02,-173.05"/>
<polygon fill="midnightblue" stroke="midnightblue" points="533.28,-176.48 543.83,-175.46 534.95,-169.68 533.28,-176.48"/>
</g>
<!-- Node8 -->
<g id="node8" class="node">
<title>Node8</title>
<g id="a_node8"><a xlink:href="classDPadPushButton.html#a1d981d9f300c310133d2581eac17091e" target="_top" xlink:title=" ">
<polygon fill="white" stroke="black" points="509,-137.5 509,-156.5 673,-156.5 673,-137.5 509,-137.5"/>
<text text-anchor="middle" x="591" y="-144.5" font-family="Helvetica,sans-Serif" font-size="10.00">DPadPushButton::disableFlashes</text>
</a>
</g>
</g>
<!-- Node2&#45;&gt;Node8 -->
<g id="edge11" class="edge">
<title>Node2&#45;&gt;Node8</title>
<path fill="none" stroke="midnightblue" d="M473.13,-132.91C482.13,-134 491.5,-135.13 500.84,-136.25"/>
<polygon fill="midnightblue" stroke="midnightblue" points="500.6,-139.75 510.94,-137.47 501.43,-132.8 500.6,-139.75"/>
</g>
<!-- Node9 -->
<g id="node9" class="node">
<title>Node9</title>
<g id="a_node9"><a xlink:href="classJoyControlStickButtonPushButton.html#ab92f9abd7a079ac556cfe3d618e859b2" target="_top" xlink:title=" ">
<polygon fill="white" stroke="black" points="522.5,-88 522.5,-118 659.5,-118 659.5,-88 522.5,-88"/>
<text text-anchor="start" x="530.5" y="-106" font-family="Helvetica,sans-Serif" font-size="10.00">JoyControlStickButtonPush</text>
<text text-anchor="middle" x="591" y="-95" font-family="Helvetica,sans-Serif" font-size="10.00">Button::disableFlashes</text>
</a>
</g>
</g>
<!-- Node2&#45;&gt;Node9 -->
<g id="edge14" class="edge">
<title>Node2&#45;&gt;Node9</title>
<path fill="none" stroke="midnightblue" d="M473.13,-117.09C485.91,-115.55 499.43,-113.92 512.55,-112.34"/>
<polygon fill="midnightblue" stroke="midnightblue" points="512.99,-115.81 522.5,-111.14 512.15,-108.86 512.99,-115.81"/>
</g>
<!-- Node10 -->
<g id="node10" class="node">
<title>Node10</title>
<g id="a_node10"><a xlink:href="classJoyTabWidget.html#a2b7d0077726b2b2bf406be8a4fa631af" target="_top" xlink:title=" ">
<polygon fill="white" stroke="black" points="524,-0.5 524,-19.5 658,-19.5 658,-0.5 524,-0.5"/>
<text text-anchor="middle" x="591" y="-7.5" font-family="Helvetica,sans-Serif" font-size="10.00">JoyTabWidget::getJoystick</text>
</a>
</g>
</g>
<!-- Node2&#45;&gt;Node10 -->
<g id="edge17" class="edge">
<title>Node2&#45;&gt;Node10</title>
<path fill="none" stroke="midnightblue" d="M419.15,-109.76C436.38,-88.32 470.77,-49.59 509,-29 513.3,-26.68 517.89,-24.65 522.6,-22.86"/>
<polygon fill="midnightblue" stroke="midnightblue" points="524.06,-26.05 532.4,-19.52 521.81,-19.43 524.06,-26.05"/>
</g>
<!-- Node4 -->
<g id="node4" class="node">
<title>Node4</title>
<g id="a_node4"><a xlink:href="classFlashButtonWidget.html#ad8d71480fd154aad271af693af681394" target="_top" xlink:title=" ">
<polygon fill="white" stroke="black" points="709,-153 709,-183 815,-183 815,-153 709,-153"/>
<text text-anchor="start" x="717" y="-171" font-family="Helvetica,sans-Serif" font-size="10.00">FlashButtonWidget::</text>
<text text-anchor="middle" x="762" y="-160" font-family="Helvetica,sans-Serif" font-size="10.00">flash</text>
</a>
</g>
</g>
<!-- Node3&#45;&gt;Node4 -->
<g id="edge3" class="edge">
<title>Node3&#45;&gt;Node4</title>
<path fill="none" stroke="midnightblue" d="M655.09,-67.21C661.52,-70.12 667.64,-73.67 673,-78 698.99,-99 684.6,-121.18 709,-144 710.25,-145.17 711.56,-146.29 712.93,-147.36"/>
<polygon fill="midnightblue" stroke="midnightblue" points="710.99,-150.27 721.23,-152.99 714.92,-144.48 710.99,-150.27"/>
</g>
<!-- Node5 -->
<g id="node5" class="node">
<title>Node5</title>
<g id="a_node5"><a xlink:href="classFlashButtonWidget.html#a84af4cf2103d6f054e117915850199ec" target="_top" xlink:title=" ">
<polygon fill="white" stroke="black" points="709,-104 709,-134 815,-134 815,-104 709,-104"/>
<text text-anchor="start" x="717" y="-122" font-family="Helvetica,sans-Serif" font-size="10.00">FlashButtonWidget::</text>
<text text-anchor="middle" x="762" y="-111" font-family="Helvetica,sans-Serif" font-size="10.00">unflash</text>
</a>
</g>
</g>
<!-- Node3&#45;&gt;Node5 -->
<g id="edge4" class="edge">
<title>Node3&#45;&gt;Node5</title>
<path fill="none" stroke="midnightblue" d="M646.83,-69.05C655.65,-71.81 664.63,-74.83 673,-78 689.45,-84.23 707.11,-92.19 722.26,-99.44"/>
<polygon fill="midnightblue" stroke="midnightblue" points="720.81,-102.63 731.33,-103.84 723.86,-96.33 720.81,-102.63"/>
</g>
<!-- Node6&#45;&gt;Node4 -->
<g id="edge6" class="edge">
<title>Node6&#45;&gt;Node4</title>
<path fill="none" stroke="midnightblue" d="M643.22,-213.95C653.15,-210.82 663.44,-207.42 673,-204 687.39,-198.85 702.89,-192.71 716.81,-186.97"/>
<polygon fill="midnightblue" stroke="midnightblue" points="718.27,-190.16 726.16,-183.09 715.59,-183.69 718.27,-190.16"/>
</g>
<!-- Node6&#45;&gt;Node5 -->
<g id="edge7" class="edge">
<title>Node6&#45;&gt;Node5</title>
<path fill="none" stroke="midnightblue" d="M656.57,-213.99C662.43,-211.2 668.02,-207.9 673,-204 697.47,-184.81 686.02,-164.95 709,-144 710.68,-142.46 712.48,-141 714.35,-139.62"/>
<polygon fill="midnightblue" stroke="midnightblue" points="716.49,-142.4 722.97,-134.01 712.68,-136.53 716.49,-142.4"/>
</g>
<!-- Node7&#45;&gt;Node4 -->
<g id="edge9" class="edge">
<title>Node7&#45;&gt;Node4</title>
<path fill="none" stroke="midnightblue" d="M668.1,-177.35C678.24,-176.33 688.55,-175.29 698.42,-174.29"/>
<polygon fill="midnightblue" stroke="midnightblue" points="698.94,-177.76 708.54,-173.28 698.24,-170.8 698.94,-177.76"/>
</g>
<!-- Node7&#45;&gt;Node5 -->
<g id="edge10" class="edge">
<title>Node7&#45;&gt;Node5</title>
<path fill="none" stroke="midnightblue" d="M643.76,-175.45C653.65,-172.91 663.78,-169.78 673,-166 690.35,-158.88 692.53,-152.96 709,-144 712.27,-142.22 715.69,-140.43 719.14,-138.67"/>
<polygon fill="midnightblue" stroke="midnightblue" points="720.9,-141.7 728.29,-134.11 717.78,-135.44 720.9,-141.7"/>
</g>
<!-- Node8&#45;&gt;Node4 -->
<g id="edge12" class="edge">
<title>Node8&#45;&gt;Node4</title>
<path fill="none" stroke="midnightblue" d="M668.59,-156.52C678.7,-157.77 688.96,-159.05 698.79,-160.27"/>
<polygon fill="midnightblue" stroke="midnightblue" points="698.5,-163.76 708.86,-161.52 699.37,-156.81 698.5,-163.76"/>
</g>
<!-- Node8&#45;&gt;Node5 -->
<g id="edge13" class="edge">
<title>Node8&#45;&gt;Node5</title>
<path fill="none" stroke="midnightblue" d="M649.69,-137.44C665.6,-134.81 682.94,-131.93 699.08,-129.26"/>
<polygon fill="midnightblue" stroke="midnightblue" points="699.66,-132.71 708.96,-127.62 698.52,-125.8 699.66,-132.71"/>
</g>
<!-- Node9&#45;&gt;Node4 -->
<g id="edge15" class="edge">
<title>Node9&#45;&gt;Node4</title>
<path fill="none" stroke="midnightblue" d="M644.19,-118.03C653.84,-121.12 663.78,-124.5 673,-128 677.9,-129.86 698.96,-139.42 719.24,-148.73"/>
<polygon fill="midnightblue" stroke="midnightblue" points="717.9,-151.97 728.45,-152.96 720.82,-145.61 717.9,-151.97"/>
</g>
<!-- Node9&#45;&gt;Node5 -->
<g id="edge16" class="edge">
<title>Node9&#45;&gt;Node5</title>
<path fill="none" stroke="midnightblue" d="M659.76,-109.42C672.66,-110.64 686.1,-111.91 698.82,-113.11"/>
<polygon fill="midnightblue" stroke="midnightblue" points="698.55,-116.6 708.83,-114.06 699.21,-109.63 698.55,-116.6"/>
</g>
<!-- Node11&#45;&gt;Node2 -->
<g id="edge19" class="edge">
<title>Node11&#45;&gt;Node2</title>
<path fill="none" stroke="midnightblue" d="M302.76,-136.65C311.59,-135.65 320.72,-134.62 329.72,-133.6"/>
<polygon fill="midnightblue" stroke="midnightblue" points="330.26,-137.06 339.81,-132.45 329.48,-130.1 330.26,-137.06"/>
</g>
</g>
</svg>
        <g id="navigator" transform="translate(0 0)" fill="#404254">
                <rect fill="#f2f5e9" fill-opacity="0.5" stroke="#606060" stroke-width=".5" x="0" y="0" width="60" height="60"/>
                <use id="zoomplus" xlink:href="#zoomPlus" x="17" y="9" onmousedown="handleZoom(evt,'in')"/>
                <use id="zoomminus" xlink:href="#zoomMin" x="42" y="9" onmousedown="handleZoom(evt,'out')"/>
                <use id="reset" xlink:href="#resetDef" x="30" y="36" onmousedown="handleReset()"/>
                <g id="arrowUp" xlink:href="#dirArrow" transform="translate(30 24)" onmousedown="handlePan(0,-1)">
                  <use xlink:href="#rim" fill="#404040">
                        <set attributeName="fill" to="#808080" begin="arrowUp.mouseover" end="arrowUp.mouseout"/>
                  </use>
                  <path fill="none" stroke="white" stroke-width="1.5" d="M0,-3.0v7 M-2.5,-0.5L0,-3.0L2.5,-0.5"/>
                </g>
                <g id="arrowRight" xlink:href="#dirArrow" transform="rotate(90) translate(36 -43)" onmousedown="handlePan(1,0)">
                  <use xlink:href="#rim" fill="#404040">
                        <set attributeName="fill" to="#808080" begin="arrowRight.mouseover" end="arrowRight.mouseout"/>
                  </use>
                  <path fill="none" stroke="white" stroke-width="1.5" d="M0,-3.0v7 M-2.5,-0.5L0,-3.0L2.5,-0.5"/>
                </g>
                <g id="arrowDown" xlink:href="#dirArrow" transform="rotate(180) translate(-30 -48)" onmousedown="handlePan(0,1)">
                  <use xlink:href="#rim" fill="#404040">
                        <set attributeName="fill" to="#808080" begin="arrowDown.mouseover" end="arrowDown.mouseout"/>
                  </use>
                  <path fill="none" stroke="white" stroke-width="1.5" d="M0,-3.0v7 M-2.5,-0.5L0,-3.0L2.5,-0.5"/>
                </g>
                <g id="arrowLeft" xlink:href="#dirArrow" transform="rotate(270) translate(-36 17)" onmousedown="handlePan(-1,0)">
                  <use xlink:href="#rim" fill="#404040">
                        <set attributeName="fill" to="#808080" begin="arrowLeft.mouseover" end="arrowLeft.mouseout"/>
                  </use>
                  <path fill="none" stroke="white" stroke-width="1.5" d="M0,-3.0v7 M-2.5,-0.5L0,-3.0L2.5,-0.5"/>
                </g>
        </g>
        <svg viewBox="0 0 15 15" width="100%" height="30px" preserveAspectRatio="xMaxYMin meet">
         <g id="arrow_out" transform="scale(0.3 0.3)">
          <a xlink:href="classMainWindow_ac7c881667b4ba4986b5a0030452ee3f0_cgraph_org.svg" target="_base">
           <rect id="button" ry="5" rx="5" y="6" x="6" height="38" width="38"
                fill="#f2f5e9" fill-opacity="0.5" stroke="#606060" stroke-width="1.0"/>
           <path id="arrow"
             d="M 11.500037,31.436501 C 11.940474,20.09759 22.043105,11.32322 32.158766,21.979434 L 37.068811,17.246167 C 37.068811,17.246167 37.088388,32 37.088388,32 L 22.160133,31.978069 C 22.160133,31.978069 26.997745,27.140456 26.997745,27.140456 C 18.528582,18.264221 13.291696,25.230495 11.500037,31.436501 z"
             style="fill:#404040;"/>
          </a>
         </g>
        </svg>
</svg>
