<?xml version="1.0" encoding="UTF-8" standalone="no"?>
<!DOCTYPE svg PUBLIC "-//W3C//DTD SVG 1.1//EN"
 "http://www.w3.org/Graphics/SVG/1.1/DTD/svg11.dtd">
<!-- Generated by graphviz version 2.43.0 (0)
 -->
<!-- Title: JoyButtonSlot::setSlotCode Pages: 1 -->
<svg width="1766pt" height="880pt"
 viewBox="0.00 0.00 1766.00 879.78" xmlns="http://www.w3.org/2000/svg" xmlns:xlink="http://www.w3.org/1999/xlink">
<g id="graph0" class="graph" transform="scale(1 1) rotate(0) translate(4 875.78)">
<title>JoyButtonSlot::setSlotCode</title>
<polygon fill="white" stroke="transparent" points="-4,4 -4,-875.78 1762,-875.78 1762,4 -4,4"/>
<!-- Node1 -->
<g id="node1" class="node">
<title>Node1</title>
<g id="a_node1"><a xlink:title=" ">
<polygon fill="#bfbfbf" stroke="black" points="1620,-140.91 1620,-159.91 1758,-159.91 1758,-140.91 1620,-140.91"/>
<text text-anchor="middle" x="1689" y="-147.91" font-family="Helvetica,sans-Serif" font-size="10.00">JoyButtonSlot::setSlotCode</text>
</a>
</g>
</g>
<!-- Node2 -->
<g id="node2" class="node">
<title>Node2</title>
<g id="a_node2"><a xlink:href="classSimpleKeyGrabberButton.html#ab6a33975387e7840e45cf0a6e5a701df" target="_top" xlink:title=" ">
<polygon fill="white" stroke="black" points="1445,-536.41 1445,-566.41 1571,-566.41 1571,-536.41 1445,-536.41"/>
<text text-anchor="start" x="1453" y="-554.41" font-family="Helvetica,sans-Serif" font-size="10.00">SimpleKeyGrabberButton</text>
<text text-anchor="middle" x="1508" y="-543.41" font-family="Helvetica,sans-Serif" font-size="10.00">::eventFilter</text>
</a>
</g>
</g>
<!-- Node1&#45;&gt;Node2 -->
<g id="edge1" class="edge">
<title>Node1&#45;&gt;Node2</title>
<path fill="none" stroke="midnightblue" d="M1688.67,-170.51C1689.61,-232.61 1683.85,-423.43 1584,-527.41 1580.31,-531.25 1576,-534.48 1571.35,-537.2"/>
<polygon fill="midnightblue" stroke="midnightblue" points="1692.16,-170.08 1688.43,-160.17 1685.16,-170.25 1692.16,-170.08"/>
</g>
<!-- Node3 -->
<g id="node3" class="node">
<title>Node3</title>
<g id="a_node3"><a xlink:href="classAdvanceButtonDialog.html#ad40bcfad2f4380b746002defc689a2b6" target="_top" xlink:title=" ">
<polygon fill="white" stroke="black" points="330,-171.41 330,-201.41 440,-201.41 440,-171.41 330,-171.41"/>
<text text-anchor="start" x="338" y="-189.41" font-family="Helvetica,sans-Serif" font-size="10.00">AdvanceButtonDialog</text>
<text text-anchor="middle" x="385" y="-178.41" font-family="Helvetica,sans-Serif" font-size="10.00">::joinSlot</text>
</a>
</g>
</g>
<!-- Node1&#45;&gt;Node3 -->
<g id="edge2" class="edge">
<title>Node1&#45;&gt;Node3</title>
<path fill="none" stroke="midnightblue" d="M1632.11,-161.78C1616.59,-164.62 1599.68,-167.42 1584,-169.41 1465.97,-184.34 1435.97,-188.41 1317,-188.41 1317,-188.41 1317,-188.41 760,-188.41 646.21,-188.41 512.94,-187.47 440.19,-186.88"/>
<polygon fill="midnightblue" stroke="midnightblue" points="1632.9,-165.19 1642.09,-159.92 1631.62,-158.31 1632.9,-165.19"/>
</g>
<!-- Node5 -->
<g id="node5" class="node">
<title>Node5</title>
<g id="a_node5"><a xlink:href="classJoyButtonSlotXml.html#ae1a67e6f62ab1e8753d43416775b420a" target="_top" xlink:title=" ">
<polygon fill="white" stroke="black" points="1051,-72.91 1051,-91.91 1200,-91.91 1200,-72.91 1051,-72.91"/>
<text text-anchor="middle" x="1125.5" y="-79.91" font-family="Helvetica,sans-Serif" font-size="10.00">JoyButtonSlotXml::readConfig</text>
</a>
</g>
</g>
<!-- Node1&#45;&gt;Node5 -->
<g id="edge4" class="edge">
<title>Node1&#45;&gt;Node5</title>
<path fill="none" stroke="midnightblue" d="M1656.35,-136.95C1636.04,-128.86 1608.89,-119.08 1584,-113.41 1451.07,-83.14 1291.26,-79.49 1200.02,-80.4"/>
<polygon fill="midnightblue" stroke="midnightblue" points="1655.15,-140.24 1665.73,-140.75 1657.78,-133.75 1655.15,-140.24"/>
</g>
<!-- Node16 -->
<g id="node16" class="node">
<title>Node16</title>
<g id="a_node16"><a xlink:href="classJoyButtonSlotXml.html#a09e2c08735c879d0db1e9c8697bff18b" target="_top" xlink:title=" ">
<polygon fill="white" stroke="black" points="1236,-102.91 1236,-121.91 1396,-121.91 1396,-102.91 1236,-102.91"/>
<text text-anchor="middle" x="1316" y="-109.91" font-family="Helvetica,sans-Serif" font-size="10.00">JoyButtonSlotXml::readEachSlot</text>
</a>
</g>
</g>
<!-- Node1&#45;&gt;Node16 -->
<g id="edge16" class="edge">
<title>Node1&#45;&gt;Node16</title>
<path fill="none" stroke="midnightblue" d="M1632.11,-139.03C1616.59,-136.19 1599.68,-133.39 1584,-131.41 1521.07,-123.44 1449.34,-118.57 1396.08,-115.76"/>
<polygon fill="midnightblue" stroke="midnightblue" points="1631.62,-142.5 1642.09,-140.9 1632.9,-135.62 1631.62,-142.5"/>
</g>
<!-- Node17 -->
<g id="node17" class="node">
<title>Node17</title>
<g id="a_node17"><a xlink:href="classWinVMultiEventHandler.html#a0a98b762b1770a4590dac5e2bc24d7a9" target="_top" xlink:title=" ">
<polygon fill="white" stroke="black" points="1448,-15.41 1448,-45.41 1568,-45.41 1568,-15.41 1448,-15.41"/>
<text text-anchor="start" x="1456" y="-33.41" font-family="Helvetica,sans-Serif" font-size="10.00">WinVMultiEventHandler</text>
<text text-anchor="middle" x="1508" y="-22.41" font-family="Helvetica,sans-Serif" font-size="10.00">::sendKeyboardEvent</text>
</a>
</g>
</g>
<!-- Node1&#45;&gt;Node17 -->
<g id="edge18" class="edge">
<title>Node1&#45;&gt;Node17</title>
<path fill="none" stroke="midnightblue" d="M1671.99,-133.47C1652.65,-113.8 1618.42,-81.36 1584,-60.41 1574.66,-54.72 1564.04,-49.71 1553.8,-45.5"/>
<polygon fill="midnightblue" stroke="midnightblue" points="1669.62,-136.06 1679.09,-140.82 1674.65,-131.2 1669.62,-136.06"/>
</g>
<!-- Node18 -->
<g id="node18" class="node">
<title>Node18</title>
<g id="a_node18"><a xlink:href="classJoyButtonSlotXml.html#a1df87c1930541705c06f0d29d57648c4" target="_top" xlink:title=" ">
<polygon fill="white" stroke="black" points="1432,-140.91 1432,-159.91 1584,-159.91 1584,-140.91 1432,-140.91"/>
<text text-anchor="middle" x="1508" y="-147.91" font-family="Helvetica,sans-Serif" font-size="10.00">JoyButtonSlotXml::setSlotData</text>
</a>
</g>
</g>
<!-- Node1&#45;&gt;Node18 -->
<g id="edge19" class="edge">
<title>Node1&#45;&gt;Node18</title>
<path fill="none" stroke="midnightblue" d="M1609.6,-150.41C1601.15,-150.41 1592.57,-150.41 1584.16,-150.41"/>
<polygon fill="midnightblue" stroke="midnightblue" points="1609.82,-153.91 1619.82,-150.41 1609.82,-146.91 1609.82,-153.91"/>
</g>
<!-- Node19 -->
<g id="node19" class="node">
<title>Node19</title>
<g id="a_node19"><a xlink:href="classSimpleKeyGrabberButton.html#a293f8294c8c9b1b3325a07c4369186f4" target="_top" xlink:title=" ">
<polygon fill="white" stroke="black" points="1445,-487.41 1445,-517.41 1571,-517.41 1571,-487.41 1445,-487.41"/>
<text text-anchor="start" x="1453" y="-505.41" font-family="Helvetica,sans-Serif" font-size="10.00">SimpleKeyGrabberButton</text>
<text text-anchor="middle" x="1508" y="-494.41" font-family="Helvetica,sans-Serif" font-size="10.00">::setValue</text>
</a>
</g>
</g>
<!-- Node1&#45;&gt;Node19 -->
<g id="edge21" class="edge">
<title>Node1&#45;&gt;Node19</title>
<path fill="none" stroke="midnightblue" d="M1678.39,-169.3C1646.63,-231.76 1545.41,-430.8 1516.67,-487.32"/>
<polygon fill="midnightblue" stroke="midnightblue" points="1681.61,-170.69 1683.03,-160.19 1675.37,-167.52 1681.61,-170.69"/>
</g>
<!-- Node4 -->
<g id="node4" class="node">
<title>Node4</title>
<g id="a_node4"><a xlink:href="classAdvanceButtonDialog.html#a4f9a1a007f50de1c3cca1403d08a0790" target="_top" xlink:title=" ">
<polygon fill="white" stroke="black" points="148.5,-403.41 148.5,-433.41 264.5,-433.41 264.5,-403.41 148.5,-403.41"/>
<text text-anchor="start" x="156.5" y="-421.41" font-family="Helvetica,sans-Serif" font-size="10.00">AdvanceButtonDialog</text>
<text text-anchor="middle" x="206.5" y="-410.41" font-family="Helvetica,sans-Serif" font-size="10.00">::AdvanceButtonDialog</text>
</a>
</g>
</g>
<!-- Node3&#45;&gt;Node4 -->
<g id="edge3" class="edge">
<title>Node3&#45;&gt;Node4</title>
<path fill="none" stroke="midnightblue" d="M320.33,-201.22C314.8,-204.04 309.58,-207.4 305,-211.41 243.85,-264.89 218.18,-365.02 210.33,-403.14"/>
<polygon fill="midnightblue" stroke="midnightblue" points="322.16,-204.23 329.86,-196.95 319.3,-197.84 322.16,-204.23"/>
</g>
<!-- Node6 -->
<g id="node6" class="node">
<title>Node6</title>
<g id="a_node6"><a xlink:href="classJoyButtonXml.html#a9d7b2a6324a2f8fe4f424f78aa43d261" target="_top" xlink:title=" ">
<polygon fill="white" stroke="black" points="876.5,-67.41 876.5,-97.41 1007.5,-97.41 1007.5,-67.41 876.5,-67.41"/>
<text text-anchor="start" x="884.5" y="-85.41" font-family="Helvetica,sans-Serif" font-size="10.00">JoyButtonXml::readButton</text>
<text text-anchor="middle" x="942" y="-74.41" font-family="Helvetica,sans-Serif" font-size="10.00">Config</text>
</a>
</g>
</g>
<!-- Node5&#45;&gt;Node6 -->
<g id="edge5" class="edge">
<title>Node5&#45;&gt;Node6</title>
<path fill="none" stroke="midnightblue" d="M1040.77,-82.41C1029.64,-82.41 1018.36,-82.41 1007.62,-82.41"/>
<polygon fill="midnightblue" stroke="midnightblue" points="1040.94,-85.91 1050.94,-82.41 1040.94,-78.91 1040.94,-85.91"/>
</g>
<!-- Node7 -->
<g id="node7" class="node">
<title>Node7</title>
<g id="a_node7"><a xlink:href="classJoyButtonXml.html#a9d79d75b14b57419ed1fc5639dde8515" target="_top" xlink:title=" ">
<polygon fill="white" stroke="black" points="695.5,-54.91 695.5,-73.91 826.5,-73.91 826.5,-54.91 695.5,-54.91"/>
<text text-anchor="middle" x="761" y="-61.91" font-family="Helvetica,sans-Serif" font-size="10.00">JoyButtonXml::readConfig</text>
</a>
</g>
</g>
<!-- Node6&#45;&gt;Node7 -->
<g id="edge6" class="edge">
<title>Node6&#45;&gt;Node7</title>
<path fill="none" stroke="midnightblue" d="M866.36,-74.9C853.13,-73.57 839.45,-72.2 826.53,-70.9"/>
<polygon fill="midnightblue" stroke="midnightblue" points="866.08,-78.39 876.38,-75.91 866.78,-71.43 866.08,-78.39"/>
</g>
<!-- Node11 -->
<g id="node11" class="node">
<title>Node11</title>
<g id="a_node11"><a xlink:href="classGameControllerTriggerButton.html#a1c89ef4d420dfe360817c28bc1680c93" target="_top" xlink:title=" ">
<polygon fill="white" stroke="black" points="689.5,-101.41 689.5,-131.41 832.5,-131.41 832.5,-101.41 689.5,-101.41"/>
<text text-anchor="start" x="697.5" y="-119.41" font-family="Helvetica,sans-Serif" font-size="10.00">GameControllerTriggerButton</text>
<text text-anchor="middle" x="761" y="-108.41" font-family="Helvetica,sans-Serif" font-size="10.00">::readJoystickConfig</text>
</a>
</g>
</g>
<!-- Node6&#45;&gt;Node11 -->
<g id="edge11" class="edge">
<title>Node6&#45;&gt;Node11</title>
<path fill="none" stroke="midnightblue" d="M866.25,-96.61C855.1,-98.72 843.64,-100.9 832.58,-103"/>
<polygon fill="midnightblue" stroke="midnightblue" points="867.21,-99.99 876.38,-94.68 865.9,-93.11 867.21,-99.99"/>
</g>
<!-- Node8 -->
<g id="node8" class="node">
<title>Node8</title>
<g id="a_node8"><a xlink:href="classSetJoystickXml.html#aa95423a01fab878cbc69bffb7f6121f3" target="_top" xlink:title=" ">
<polygon fill="white" stroke="black" points="316,-2.91 316,-21.91 454,-21.91 454,-2.91 316,-2.91"/>
<text text-anchor="middle" x="385" y="-9.91" font-family="Helvetica,sans-Serif" font-size="10.00">SetJoystickXml::readConfig</text>
</a>
</g>
</g>
<!-- Node7&#45;&gt;Node8 -->
<g id="edge7" class="edge">
<title>Node7&#45;&gt;Node8</title>
<path fill="none" stroke="midnightblue" d="M737.06,-49.45C716.13,-36.75 683.86,-19.51 653,-12.41 586.71,2.85 508.68,0.61 454.16,-4.07"/>
<polygon fill="midnightblue" stroke="midnightblue" points="735.22,-52.43 745.56,-54.74 738.92,-46.48 735.22,-52.43"/>
</g>
<!-- Node9 -->
<g id="node9" class="node">
<title>Node9</title>
<g id="a_node9"><a xlink:href="classJoyControlStick.html#ab6ce741115ee3d436c1a7e866abd21e6" target="_top" xlink:title="Take a XML stream and set the stick and direction button properties according to the values contained...">
<polygon fill="white" stroke="black" points="507.5,-21.91 507.5,-40.91 646.5,-40.91 646.5,-21.91 507.5,-21.91"/>
<text text-anchor="middle" x="577" y="-28.91" font-family="Helvetica,sans-Serif" font-size="10.00">JoyControlStick::readConfig</text>
</a>
</g>
</g>
<!-- Node7&#45;&gt;Node9 -->
<g id="edge8" class="edge">
<title>Node7&#45;&gt;Node9</title>
<path fill="none" stroke="midnightblue" d="M697.23,-53.03C675.49,-49.08 651.36,-44.71 630.52,-40.93"/>
<polygon fill="midnightblue" stroke="midnightblue" points="696.89,-56.52 707.36,-54.86 698.14,-49.63 696.89,-56.52"/>
</g>
<!-- Node10 -->
<g id="node10" class="node">
<title>Node10</title>
<g id="a_node10"><a xlink:href="classJoyDPadXml.html#ae9a3556242b984c81fc6945acafc5586" target="_top" xlink:title=" ">
<polygon fill="white" stroke="black" points="501,-60.41 501,-90.41 653,-90.41 653,-60.41 501,-60.41"/>
<text text-anchor="start" x="509" y="-78.41" font-family="Helvetica,sans-Serif" font-size="10.00">JoyDPadXml&lt; GameController</text>
<text text-anchor="middle" x="577" y="-67.41" font-family="Helvetica,sans-Serif" font-size="10.00">DPad &gt;::readMainConfig</text>
</a>
</g>
</g>
<!-- Node7&#45;&gt;Node10 -->
<g id="edge10" class="edge">
<title>Node7&#45;&gt;Node10</title>
<path fill="none" stroke="midnightblue" d="M685.24,-68.93C674.61,-69.57 663.67,-70.23 653.03,-70.87"/>
<polygon fill="midnightblue" stroke="midnightblue" points="685.55,-72.41 695.32,-68.32 685.13,-65.43 685.55,-72.41"/>
</g>
<!-- Node9&#45;&gt;Node8 -->
<g id="edge9" class="edge">
<title>Node9&#45;&gt;Node8</title>
<path fill="none" stroke="midnightblue" d="M497.13,-23.52C482.86,-22.09 468.1,-20.62 454.18,-19.23"/>
<polygon fill="midnightblue" stroke="midnightblue" points="497.11,-27.04 507.41,-24.55 497.8,-20.07 497.11,-27.04"/>
</g>
<!-- Node12 -->
<g id="node12" class="node">
<title>Node12</title>
<g id="a_node12"><a xlink:href="classGameControllerTriggerXml.html#a4578ad54daf8a24231e8b0e4e09f1587" target="_top" xlink:title=" ">
<polygon fill="white" stroke="black" points="511.5,-109.41 511.5,-139.41 642.5,-139.41 642.5,-109.41 511.5,-109.41"/>
<text text-anchor="start" x="519.5" y="-127.41" font-family="Helvetica,sans-Serif" font-size="10.00">GameControllerTriggerXml</text>
<text text-anchor="middle" x="577" y="-116.41" font-family="Helvetica,sans-Serif" font-size="10.00">::readJoystickConfig</text>
</a>
</g>
</g>
<!-- Node11&#45;&gt;Node12 -->
<g id="edge12" class="edge">
<title>Node11&#45;&gt;Node12</title>
<path fill="none" stroke="midnightblue" d="M679.18,-119.96C666.95,-120.5 654.47,-121.05 642.64,-121.57"/>
<polygon fill="midnightblue" stroke="midnightblue" points="679.54,-123.45 689.37,-119.51 679.23,-116.45 679.54,-123.45"/>
</g>
<!-- Node13 -->
<g id="node13" class="node">
<title>Node13</title>
<g id="a_node13"><a xlink:href="classGameControllerSet.html#a6b551139e353a654212d498309744025" target="_top" xlink:title=" ">
<polygon fill="white" stroke="black" points="332,-109.41 332,-139.41 438,-139.41 438,-109.41 332,-109.41"/>
<text text-anchor="start" x="340" y="-127.41" font-family="Helvetica,sans-Serif" font-size="10.00">GameControllerSet::</text>
<text text-anchor="middle" x="385" y="-116.41" font-family="Helvetica,sans-Serif" font-size="10.00">readJoystickConfig</text>
</a>
</g>
</g>
<!-- Node12&#45;&gt;Node13 -->
<g id="edge13" class="edge">
<title>Node12&#45;&gt;Node13</title>
<path fill="none" stroke="midnightblue" d="M501.18,-124.41C480.08,-124.41 457.59,-124.41 438.14,-124.41"/>
<polygon fill="midnightblue" stroke="midnightblue" points="501.41,-127.91 511.41,-124.41 501.41,-120.91 501.41,-127.91"/>
</g>
<!-- Node14 -->
<g id="node14" class="node">
<title>Node14</title>
<g id="a_node14"><a xlink:href="classGameControllerXml.html#aaa5257d4c6fe13f1d5fc51981e247c25" target="_top" xlink:title=" ">
<polygon fill="white" stroke="black" points="152.5,-109.41 152.5,-139.41 260.5,-139.41 260.5,-109.41 152.5,-109.41"/>
<text text-anchor="start" x="160.5" y="-127.41" font-family="Helvetica,sans-Serif" font-size="10.00">GameControllerXml::</text>
<text text-anchor="middle" x="206.5" y="-116.41" font-family="Helvetica,sans-Serif" font-size="10.00">readJoystickConfig</text>
</a>
</g>
</g>
<!-- Node13&#45;&gt;Node14 -->
<g id="edge14" class="edge">
<title>Node13&#45;&gt;Node14</title>
<path fill="none" stroke="midnightblue" d="M321.77,-124.41C301.81,-124.41 279.9,-124.41 260.66,-124.41"/>
<polygon fill="midnightblue" stroke="midnightblue" points="322,-127.91 332,-124.41 322,-120.91 322,-127.91"/>
</g>
<!-- Node15 -->
<g id="node15" class="node">
<title>Node15</title>
<g id="a_node15"><a xlink:href="classGameControllerXml.html#a7e47256cae0d3815419bc254413777d1" target="_top" xlink:title=" ">
<polygon fill="white" stroke="black" points="0,-109.41 0,-139.41 108,-139.41 108,-109.41 0,-109.41"/>
<text text-anchor="start" x="8" y="-127.41" font-family="Helvetica,sans-Serif" font-size="10.00">GameControllerXml::</text>
<text text-anchor="middle" x="54" y="-116.41" font-family="Helvetica,sans-Serif" font-size="10.00">readConfig</text>
</a>
</g>
</g>
<!-- Node14&#45;&gt;Node15 -->
<g id="edge15" class="edge">
<title>Node14&#45;&gt;Node15</title>
<path fill="none" stroke="midnightblue" d="M142.16,-124.41C130.82,-124.41 119.1,-124.41 108.09,-124.41"/>
<polygon fill="midnightblue" stroke="midnightblue" points="142.44,-127.91 152.44,-124.41 142.44,-120.91 142.44,-127.91"/>
</g>
<!-- Node16&#45;&gt;Node5 -->
<g id="edge17" class="edge">
<title>Node16&#45;&gt;Node5</title>
<path fill="none" stroke="midnightblue" d="M1245.13,-101.29C1225.78,-98.21 1204.96,-94.9 1186.25,-91.92"/>
<polygon fill="midnightblue" stroke="midnightblue" points="1244.67,-104.76 1255.1,-102.87 1245.77,-97.85 1244.67,-104.76"/>
</g>
<!-- Node18&#45;&gt;Node16 -->
<g id="edge20" class="edge">
<title>Node18&#45;&gt;Node16</title>
<path fill="none" stroke="midnightblue" d="M1448.95,-138.8C1421.93,-133.39 1390.18,-127.04 1364.6,-121.93"/>
<polygon fill="midnightblue" stroke="midnightblue" points="1448.56,-142.29 1459.05,-140.82 1449.94,-135.43 1448.56,-142.29"/>
</g>
<!-- Node19&#45;&gt;Node4 -->
<g id="edge22" class="edge">
<title>Node19&#45;&gt;Node4</title>
<path fill="none" stroke="midnightblue" d="M1436.8,-522.54C1435.09,-524.05 1433.48,-525.67 1432,-527.41 1368.26,-602.11 1468.6,-679.28 1396,-745.41 1351.61,-785.84 1186.54,-764.41 1126.5,-764.41 1126.5,-764.41 1126.5,-764.41 576,-764.41 437.69,-764.41 400.52,-711.44 305,-611.41 252.76,-556.7 222.35,-468.54 211.77,-433.49"/>
<polygon fill="midnightblue" stroke="midnightblue" points="1438.88,-525.36 1444.88,-516.63 1434.75,-519.71 1438.88,-525.36"/>
</g>
<!-- Node20 -->
<g id="node20" class="node">
<title>Node20</title>
<g id="a_node20"><a xlink:href="classAdvanceButtonDialog.html#af758d9978d99adab296ebd584020fa1b" target="_top" xlink:title=" ">
<polygon fill="white" stroke="black" points="873.5,-490.41 873.5,-520.41 1010.5,-520.41 1010.5,-490.41 873.5,-490.41"/>
<text text-anchor="start" x="881.5" y="-508.41" font-family="Helvetica,sans-Serif" font-size="10.00">AdvanceButtonDialog</text>
<text text-anchor="middle" x="942" y="-497.41" font-family="Helvetica,sans-Serif" font-size="10.00">::checkSlotDistanceUpdate</text>
</a>
</g>
</g>
<!-- Node19&#45;&gt;Node20 -->
<g id="edge23" class="edge">
<title>Node19&#45;&gt;Node20</title>
<path fill="none" stroke="midnightblue" d="M1434.58,-500.91C1421.73,-500.7 1408.47,-500.52 1396,-500.41 1324.89,-499.77 1307.11,-499.8 1236,-500.41 1158.8,-501.07 1070.17,-502.7 1010.79,-503.92"/>
<polygon fill="midnightblue" stroke="midnightblue" points="1434.71,-504.42 1444.77,-501.09 1434.83,-497.42 1434.71,-504.42"/>
</g>
<!-- Node26 -->
<g id="node26" class="node">
<title>Node26</title>
<g id="a_node26"><a xlink:href="classAdvanceButtonDialog.html#adde227692a4a5abc4f4e9cc027ba5866" target="_top" xlink:title=" ">
<polygon fill="white" stroke="black" points="330,-220.41 330,-250.41 440,-250.41 440,-220.41 330,-220.41"/>
<text text-anchor="start" x="338" y="-238.41" font-family="Helvetica,sans-Serif" font-size="10.00">AdvanceButtonDialog</text>
<text text-anchor="middle" x="385" y="-227.41" font-family="Helvetica,sans-Serif" font-size="10.00">::splitSlot</text>
</a>
</g>
</g>
<!-- Node19&#45;&gt;Node26 -->
<g id="edge66" class="edge">
<title>Node19&#45;&gt;Node26</title>
<path fill="none" stroke="midnightblue" d="M1501.47,-477.48C1490.07,-432.19 1459.52,-336.54 1396,-287.41 1298.86,-212.27 1249.31,-226.41 1126.5,-226.41 1126.5,-226.41 1126.5,-226.41 760,-226.41 646.18,-226.41 512.92,-230.63 440.18,-233.29"/>
<polygon fill="midnightblue" stroke="midnightblue" points="1498.1,-478.45 1503.85,-487.35 1504.91,-476.81 1498.1,-478.45"/>
</g>
<!-- Node27 -->
<g id="node27" class="node">
<title>Node27</title>
<g id="a_node27"><a xlink:href="classAdvanceButtonDialog.html#a289c7e5a38da6675e6ae2dd1b333c81e" target="_top" xlink:title=" ">
<polygon fill="white" stroke="black" points="869,-441.41 869,-471.41 1015,-471.41 1015,-441.41 869,-441.41"/>
<text text-anchor="start" x="877" y="-459.41" font-family="Helvetica,sans-Serif" font-size="10.00">AdvanceButtonDialog</text>
<text text-anchor="middle" x="942" y="-448.41" font-family="Helvetica,sans-Serif" font-size="10.00">::checkSlotMouseModUpdate</text>
</a>
</g>
</g>
<!-- Node19&#45;&gt;Node27 -->
<g id="edge36" class="edge">
<title>Node19&#45;&gt;Node27</title>
<path fill="none" stroke="midnightblue" d="M1434.58,-496.5C1326.28,-487.67 1123.34,-471.12 1015.18,-462.3"/>
<polygon fill="midnightblue" stroke="midnightblue" points="1434.51,-500.01 1444.76,-497.33 1435.08,-493.03 1434.51,-500.01"/>
</g>
<!-- Node28 -->
<g id="node28" class="node">
<title>Node28</title>
<g id="a_node28"><a xlink:href="classAdvanceButtonDialog.html#a7fa5ece36cbdc4d0f2c74690b15e6527" target="_top" xlink:title=" ">
<polygon fill="white" stroke="black" points="869,-255.41 869,-285.41 1015,-285.41 1015,-255.41 869,-255.41"/>
<text text-anchor="start" x="877" y="-273.41" font-family="Helvetica,sans-Serif" font-size="10.00">AdvanceButtonDialog</text>
<text text-anchor="middle" x="942" y="-262.41" font-family="Helvetica,sans-Serif" font-size="10.00">::checkSlotSetChangeUpdate</text>
</a>
</g>
</g>
<!-- Node19&#45;&gt;Node28 -->
<g id="edge39" class="edge">
<title>Node19&#45;&gt;Node28</title>
<path fill="none" stroke="midnightblue" d="M1494.62,-478.11C1477.03,-445.98 1441.77,-389.78 1396,-358.41 1280.19,-279.03 1110.65,-267.09 1015.21,-267.46"/>
<polygon fill="midnightblue" stroke="midnightblue" points="1491.71,-480.08 1499.51,-487.25 1497.88,-476.78 1491.71,-480.08"/>
</g>
<!-- Node29 -->
<g id="node29" class="node">
<title>Node29</title>
<g id="a_node29"><a xlink:href="classAdvanceButtonDialog.html#aec7b800bbe03360bef5ec50c7699be12" target="_top" xlink:title=" ">
<polygon fill="white" stroke="black" points="1256.5,-367.41 1256.5,-397.41 1375.5,-397.41 1375.5,-367.41 1256.5,-367.41"/>
<text text-anchor="start" x="1264.5" y="-385.41" font-family="Helvetica,sans-Serif" font-size="10.00">AdvanceButtonDialog</text>
<text text-anchor="middle" x="1316" y="-374.41" font-family="Helvetica,sans-Serif" font-size="10.00">::checkSlotTimeUpdate</text>
</a>
</g>
</g>
<!-- Node19&#45;&gt;Node29 -->
<g id="edge42" class="edge">
<title>Node19&#45;&gt;Node29</title>
<path fill="none" stroke="midnightblue" d="M1476.82,-481.57C1454.68,-466.46 1423.76,-445.72 1396,-428.41 1378.9,-417.74 1359.32,-406.34 1343.93,-397.55"/>
<polygon fill="midnightblue" stroke="midnightblue" points="1474.92,-484.51 1485.14,-487.27 1478.87,-478.73 1474.92,-484.51"/>
</g>
<!-- Node34 -->
<g id="node34" class="node">
<title>Node34</title>
<g id="a_node34"><a xlink:href="classAdvanceButtonDialog.html#a9a53f03e9d1da8abc0d59c7e1d06f2fa" target="_top" xlink:title=" ">
<polygon fill="white" stroke="black" points="1261,-607.41 1261,-637.41 1371,-637.41 1371,-607.41 1261,-607.41"/>
<text text-anchor="start" x="1269" y="-625.41" font-family="Helvetica,sans-Serif" font-size="10.00">AdvanceButtonDialog</text>
<text text-anchor="middle" x="1316" y="-614.41" font-family="Helvetica,sans-Serif" font-size="10.00">::insertCycleSlot</text>
</a>
</g>
</g>
<!-- Node19&#45;&gt;Node34 -->
<g id="edge51" class="edge">
<title>Node19&#45;&gt;Node34</title>
<path fill="none" stroke="midnightblue" d="M1438.19,-522.68C1436.03,-524.15 1433.96,-525.72 1432,-527.41 1405.21,-550.51 1423.1,-575.66 1396,-598.41 1388.86,-604.4 1380.26,-608.89 1371.39,-612.27"/>
<polygon fill="midnightblue" stroke="midnightblue" points="1440.09,-525.62 1446.92,-517.52 1436.53,-519.6 1440.09,-525.62"/>
</g>
<!-- Node37 -->
<g id="node37" class="node">
<title>Node37</title>
<g id="a_node37"><a xlink:href="classAdvanceButtonDialog.html#a3f6402907f85d2edb4bfbb77a2381882" target="_top" xlink:title=" ">
<polygon fill="white" stroke="black" points="1261,-558.41 1261,-588.41 1371,-588.41 1371,-558.41 1261,-558.41"/>
<text text-anchor="start" x="1269" y="-576.41" font-family="Helvetica,sans-Serif" font-size="10.00">AdvanceButtonDialog</text>
<text text-anchor="middle" x="1316" y="-565.41" font-family="Helvetica,sans-Serif" font-size="10.00">::insertExecuteSlot</text>
</a>
</g>
</g>
<!-- Node19&#45;&gt;Node37 -->
<g id="edge56" class="edge">
<title>Node19&#45;&gt;Node37</title>
<path fill="none" stroke="midnightblue" d="M1446.67,-521.17C1441.65,-523.14 1436.7,-525.22 1432,-527.41 1415,-535.31 1413.11,-541.73 1396,-549.41 1388.15,-552.93 1379.64,-556.12 1371.22,-558.94"/>
<polygon fill="midnightblue" stroke="midnightblue" points="1448.22,-524.32 1456.36,-517.54 1445.77,-517.77 1448.22,-524.32"/>
</g>
<!-- Node38 -->
<g id="node38" class="node">
<title>Node38</title>
<g id="a_node38"><a xlink:href="classAdvanceButtonDialog.html#a86ab584db16c039fde480a23cce5dfde" target="_top" xlink:title=" ">
<polygon fill="white" stroke="black" points="1261,-509.41 1261,-539.41 1371,-539.41 1371,-509.41 1261,-509.41"/>
<text text-anchor="start" x="1269" y="-527.41" font-family="Helvetica,sans-Serif" font-size="10.00">AdvanceButtonDialog</text>
<text text-anchor="middle" x="1316" y="-516.41" font-family="Helvetica,sans-Serif" font-size="10.00">::insertKindOfSlot</text>
</a>
</g>
</g>
<!-- Node19&#45;&gt;Node38 -->
<g id="edge58" class="edge">
<title>Node19&#45;&gt;Node38</title>
<path fill="none" stroke="midnightblue" d="M1434.58,-510.79C1413.48,-513.24 1390.8,-515.86 1371.05,-518.15"/>
<polygon fill="midnightblue" stroke="midnightblue" points="1435.26,-514.24 1444.79,-509.61 1434.45,-507.29 1435.26,-514.24"/>
</g>
<!-- Node39 -->
<g id="node39" class="node">
<title>Node39</title>
<g id="a_node39"><a xlink:href="classAdvanceButtonDialog.html#a2efe6c11e48224ea986a09e05bc96353" target="_top" xlink:title=" ">
<polygon fill="white" stroke="black" points="1261,-705.41 1261,-735.41 1371,-735.41 1371,-705.41 1261,-705.41"/>
<text text-anchor="start" x="1269" y="-723.41" font-family="Helvetica,sans-Serif" font-size="10.00">AdvanceButtonDialog</text>
<text text-anchor="middle" x="1316" y="-712.41" font-family="Helvetica,sans-Serif" font-size="10.00">::insertTextEntrySlot</text>
</a>
</g>
</g>
<!-- Node19&#45;&gt;Node39 -->
<g id="edge60" class="edge">
<title>Node19&#45;&gt;Node39</title>
<path fill="none" stroke="midnightblue" d="M1436.39,-523.08C1434.84,-524.43 1433.37,-525.87 1432,-527.41 1380.82,-584.66 1447.95,-639.85 1396,-696.41 1389.31,-703.69 1380.49,-708.79 1371.17,-712.36"/>
<polygon fill="midnightblue" stroke="midnightblue" points="1438.7,-525.73 1444.74,-517.03 1434.59,-520.06 1438.7,-525.73"/>
</g>
<!-- Node40 -->
<g id="node40" class="node">
<title>Node40</title>
<g id="a_node40"><a xlink:href="classAdvanceButtonDialog.html#a437fdaa04ca6082ebb7416cf7ac4e6b5" target="_top" xlink:title=" ">
<polygon fill="white" stroke="black" points="706,-793.41 706,-823.41 816,-823.41 816,-793.41 706,-793.41"/>
<text text-anchor="start" x="714" y="-811.41" font-family="Helvetica,sans-Serif" font-size="10.00">AdvanceButtonDialog</text>
<text text-anchor="middle" x="761" y="-800.41" font-family="Helvetica,sans-Serif" font-size="10.00">::placeNewSlot</text>
</a>
</g>
</g>
<!-- Node19&#45;&gt;Node40 -->
<g id="edge62" class="edge">
<title>Node19&#45;&gt;Node40</title>
<path fill="none" stroke="midnightblue" d="M1436.36,-522.86C1434.81,-524.27 1433.35,-525.79 1432,-527.41 1359.77,-613.91 1479.39,-702.6 1396,-778.41 1229.05,-930.18 923.59,-858.36 807.98,-823.53"/>
<polygon fill="midnightblue" stroke="midnightblue" points="1438.88,-525.34 1444.79,-516.55 1434.68,-519.74 1438.88,-525.34"/>
</g>
<!-- Node41 -->
<g id="node41" class="node">
<title>Node41</title>
<g id="a_node41"><a xlink:href="classAdvanceButtonDialog.html#a537e84c8a495aa615b417b3851b59b62" target="_top" xlink:title=" ">
<polygon fill="white" stroke="black" points="1254,-656.41 1254,-686.41 1378,-686.41 1378,-656.41 1254,-656.41"/>
<text text-anchor="start" x="1262" y="-674.41" font-family="Helvetica,sans-Serif" font-size="10.00">AdvanceButtonDialog</text>
<text text-anchor="middle" x="1316" y="-663.41" font-family="Helvetica,sans-Serif" font-size="10.00">::showSelectProfileWind</text>
</a>
</g>
</g>
<!-- Node19&#45;&gt;Node41 -->
<g id="edge64" class="edge">
<title>Node19&#45;&gt;Node41</title>
<path fill="none" stroke="midnightblue" d="M1436.43,-523.33C1434.88,-524.61 1433.4,-525.97 1432,-527.41 1393.23,-567.37 1435.3,-607.97 1396,-647.41 1390.94,-652.48 1384.84,-656.49 1378.31,-659.66"/>
<polygon fill="midnightblue" stroke="midnightblue" points="1438.52,-526.15 1444.73,-517.56 1434.52,-520.4 1438.52,-526.15"/>
</g>
<!-- Node20&#45;&gt;Node4 -->
<g id="edge24" class="edge">
<title>Node20&#45;&gt;Node4</title>
<path fill="none" stroke="midnightblue" d="M862.98,-516.2C740.15,-530.07 496.02,-544.89 305,-476.41 276.26,-466.1 246.58,-447.02 227.63,-433.56"/>
<polygon fill="midnightblue" stroke="midnightblue" points="863.52,-519.66 873.05,-515.03 862.71,-512.71 863.52,-519.66"/>
</g>
<!-- Node21 -->
<g id="node21" class="node">
<title>Node21</title>
<g id="a_node21"><a xlink:href="classAdvanceButtonDialog.html#a31e78ce60334e0bcef5dad4cd43ee1e9" target="_top" xlink:title=" ">
<polygon fill="white" stroke="black" points="689,-384.41 689,-414.41 833,-414.41 833,-384.41 689,-384.41"/>
<text text-anchor="start" x="697" y="-402.41" font-family="Helvetica,sans-Serif" font-size="10.00">AdvanceButtonDialog</text>
<text text-anchor="middle" x="761" y="-391.41" font-family="Helvetica,sans-Serif" font-size="10.00">::performStatsWidgetRefresh</text>
</a>
</g>
</g>
<!-- Node20&#45;&gt;Node21 -->
<g id="edge25" class="edge">
<title>Node20&#45;&gt;Node21</title>
<path fill="none" stroke="midnightblue" d="M879.72,-486.57C876.04,-484.95 872.44,-483.23 869,-481.41 833.85,-462.76 798.2,-432.72 778.21,-414.64"/>
<polygon fill="midnightblue" stroke="midnightblue" points="878.42,-489.82 889,-490.39 881.08,-483.35 878.42,-489.82"/>
</g>
<!-- Node21&#45;&gt;Node4 -->
<g id="edge26" class="edge">
<title>Node21&#45;&gt;Node4</title>
<path fill="none" stroke="midnightblue" d="M678.9,-402.2C565.68,-406.09 363.09,-413.06 264.51,-416.45"/>
<polygon fill="midnightblue" stroke="midnightblue" points="679.03,-405.69 688.9,-401.85 678.79,-398.7 679.03,-405.69"/>
</g>
<!-- Node22 -->
<g id="node22" class="node">
<title>Node22</title>
<g id="a_node22"><a xlink:href="classAdvanceButtonDialog.html#aa97a397aca5e36a6b580309e04ac3a9d" target="_top" xlink:title=" ">
<polygon fill="white" stroke="black" points="522,-466.41 522,-496.41 632,-496.41 632,-466.41 522,-466.41"/>
<text text-anchor="start" x="530" y="-484.41" font-family="Helvetica,sans-Serif" font-size="10.00">AdvanceButtonDialog</text>
<text text-anchor="middle" x="577" y="-473.41" font-family="Helvetica,sans-Serif" font-size="10.00">::clearAllSlots</text>
</a>
</g>
</g>
<!-- Node21&#45;&gt;Node22 -->
<g id="edge27" class="edge">
<title>Node21&#45;&gt;Node22</title>
<path fill="none" stroke="midnightblue" d="M717.41,-418.6C685.1,-433.15 641.3,-452.89 611.48,-466.32"/>
<polygon fill="midnightblue" stroke="midnightblue" points="718.94,-421.75 726.62,-414.45 716.06,-415.36 718.94,-421.75"/>
</g>
<!-- Node25 -->
<g id="node25" class="node">
<title>Node25</title>
<g id="a_node25"><a xlink:href="classAdvanceButtonDialog.html#a5e7b569639f67d97fdcf89f6733f4421" target="_top" xlink:title=" ">
<polygon fill="white" stroke="black" points="522,-257.41 522,-287.41 632,-287.41 632,-257.41 522,-257.41"/>
<text text-anchor="start" x="530" y="-275.41" font-family="Helvetica,sans-Serif" font-size="10.00">AdvanceButtonDialog</text>
<text text-anchor="middle" x="577" y="-264.41" font-family="Helvetica,sans-Serif" font-size="10.00">::deleteSlot</text>
</a>
</g>
</g>
<!-- Node21&#45;&gt;Node25 -->
<g id="edge31" class="edge">
<title>Node21&#45;&gt;Node25</title>
<path fill="none" stroke="midnightblue" d="M730.08,-378.53C693.35,-352.9 631.98,-310.07 599.56,-287.46"/>
<polygon fill="midnightblue" stroke="midnightblue" points="728.2,-381.49 738.41,-384.34 732.21,-375.75 728.2,-381.49"/>
</g>
<!-- Node22&#45;&gt;Node4 -->
<g id="edge28" class="edge">
<title>Node22&#45;&gt;Node4</title>
<path fill="none" stroke="midnightblue" d="M511.95,-478.23C456.63,-474.55 374.83,-466.9 305,-451.41 285.11,-447 263.6,-439.97 245.86,-433.53"/>
<polygon fill="midnightblue" stroke="midnightblue" points="511.76,-481.72 521.96,-478.87 512.21,-474.74 511.76,-481.72"/>
</g>
<!-- Node23 -->
<g id="node23" class="node">
<title>Node23</title>
<g id="a_node23"><a xlink:href="classButtonEditDialog.html#ade8d1ee4ae03d1080932a70c8170d488" target="_top" xlink:title=" ">
<polygon fill="white" stroke="black" points="305,-793.41 305,-823.41 465,-823.41 465,-793.41 305,-793.41"/>
<text text-anchor="start" x="313" y="-811.41" font-family="Helvetica,sans-Serif" font-size="10.00">ButtonEditDialog::openAdvanced</text>
<text text-anchor="middle" x="385" y="-800.41" font-family="Helvetica,sans-Serif" font-size="10.00">Dialog</text>
</a>
</g>
</g>
<!-- Node22&#45;&gt;Node23 -->
<g id="edge29" class="edge">
<title>Node22&#45;&gt;Node23</title>
<path fill="none" stroke="midnightblue" d="M561.89,-505.7C524.77,-569.57 425.22,-740.91 394.89,-793.11"/>
<polygon fill="midnightblue" stroke="midnightblue" points="565.09,-507.15 567.09,-496.74 559.04,-503.63 565.09,-507.15"/>
</g>
<!-- Node24 -->
<g id="node24" class="node">
<title>Node24</title>
<g id="a_node24"><a xlink:href="classButtonEditDialog.html#a3e9feede100cbb6a11c9d87659c196ea" target="_top" xlink:title=" ">
<polygon fill="white" stroke="black" points="144,-793.41 144,-823.41 269,-823.41 269,-793.41 144,-793.41"/>
<text text-anchor="start" x="152" y="-811.41" font-family="Helvetica,sans-Serif" font-size="10.00">ButtonEditDialog::Button</text>
<text text-anchor="middle" x="206.5" y="-800.41" font-family="Helvetica,sans-Serif" font-size="10.00">EditDialog</text>
</a>
</g>
</g>
<!-- Node23&#45;&gt;Node24 -->
<g id="edge30" class="edge">
<title>Node23&#45;&gt;Node24</title>
<path fill="none" stroke="midnightblue" d="M294.7,-808.41C286.1,-808.41 277.51,-808.41 269.26,-808.41"/>
<polygon fill="midnightblue" stroke="midnightblue" points="294.79,-811.91 304.78,-808.41 294.78,-804.91 294.79,-811.91"/>
</g>
<!-- Node25&#45;&gt;Node3 -->
<g id="edge33" class="edge">
<title>Node25&#45;&gt;Node3</title>
<path fill="none" stroke="midnightblue" d="M542.79,-251.92C521.18,-239.14 492.06,-222.99 465,-211.41 456.67,-207.84 447.65,-204.52 438.8,-201.53"/>
<polygon fill="midnightblue" stroke="midnightblue" points="541.19,-255.04 551.57,-257.16 544.78,-249.03 541.19,-255.04"/>
</g>
<!-- Node25&#45;&gt;Node4 -->
<g id="edge32" class="edge">
<title>Node25&#45;&gt;Node4</title>
<path fill="none" stroke="midnightblue" d="M511.85,-266.88C454.33,-264.8 369.32,-269.04 305,-303.41 261.6,-326.6 229.36,-377.75 215.3,-403.29"/>
<polygon fill="midnightblue" stroke="midnightblue" points="511.77,-270.38 521.91,-267.32 512.07,-263.39 511.77,-270.38"/>
</g>
<!-- Node25&#45;&gt;Node26 -->
<g id="edge34" class="edge">
<title>Node25&#45;&gt;Node26</title>
<path fill="none" stroke="midnightblue" d="M511.7,-259.89C488.49,-255.37 462.53,-250.31 440.26,-245.98"/>
<polygon fill="midnightblue" stroke="midnightblue" points="511.32,-263.38 521.81,-261.85 512.66,-256.51 511.32,-263.38"/>
</g>
<!-- Node26&#45;&gt;Node4 -->
<g id="edge35" class="edge">
<title>Node26&#45;&gt;Node4</title>
<path fill="none" stroke="midnightblue" d="M320.96,-254.96C315.28,-257.99 309.85,-261.46 305,-265.41 257.36,-304.18 225.73,-372.66 213.36,-403.09"/>
<polygon fill="midnightblue" stroke="midnightblue" points="322.58,-258.06 330.04,-250.54 319.52,-251.76 322.58,-258.06"/>
</g>
<!-- Node27&#45;&gt;Node4 -->
<g id="edge37" class="edge">
<title>Node27&#45;&gt;Node4</title>
<path fill="none" stroke="midnightblue" d="M858.93,-452.16C708.97,-444.39 394.26,-428.08 264.9,-421.38"/>
<polygon fill="midnightblue" stroke="midnightblue" points="858.83,-455.66 869,-452.68 859.19,-448.66 858.83,-455.66"/>
</g>
<!-- Node27&#45;&gt;Node21 -->
<g id="edge38" class="edge">
<title>Node27&#45;&gt;Node21</title>
<path fill="none" stroke="midnightblue" d="M883.81,-438.2C859.82,-430.56 832.25,-421.78 809.41,-414.5"/>
<polygon fill="midnightblue" stroke="midnightblue" points="882.91,-441.58 893.5,-441.28 885.03,-434.91 882.91,-441.58"/>
</g>
<!-- Node28&#45;&gt;Node4 -->
<g id="edge40" class="edge">
<title>Node28&#45;&gt;Node4</title>
<path fill="none" stroke="midnightblue" d="M858.64,-278.39C692.39,-294.66 330.28,-331.02 305,-341.41 270.88,-355.42 238.84,-385.07 221.33,-403.21"/>
<polygon fill="midnightblue" stroke="midnightblue" points="859.21,-281.85 868.82,-277.39 858.53,-274.88 859.21,-281.85"/>
</g>
<!-- Node28&#45;&gt;Node21 -->
<g id="edge41" class="edge">
<title>Node28&#45;&gt;Node21</title>
<path fill="none" stroke="midnightblue" d="M911.93,-291.36C875.78,-317.41 814.96,-361.24 783.03,-384.25"/>
<polygon fill="midnightblue" stroke="midnightblue" points="914.05,-294.14 920.12,-285.46 909.96,-288.47 914.05,-294.14"/>
</g>
<!-- Node29&#45;&gt;Node4 -->
<g id="edge43" class="edge">
<title>Node29&#45;&gt;Node4</title>
<path fill="none" stroke="midnightblue" d="M1278.63,-362.86C1256.58,-352.13 1227.47,-339.91 1200,-334.41 846.9,-263.67 411.5,-363.61 261.35,-403.35"/>
<polygon fill="midnightblue" stroke="midnightblue" points="1277.12,-366.02 1287.63,-367.35 1280.24,-359.75 1277.12,-366.02"/>
</g>
<!-- Node30 -->
<g id="node30" class="node">
<title>Node30</title>
<g id="a_node30"><a xlink:href="classAdvanceButtonDialog.html#ae845213154214835f35b01653c3c8cd6" target="_top" xlink:title=" ">
<polygon fill="white" stroke="black" points="1057.5,-343.41 1057.5,-373.41 1193.5,-373.41 1193.5,-343.41 1057.5,-343.41"/>
<text text-anchor="start" x="1065.5" y="-361.41" font-family="Helvetica,sans-Serif" font-size="10.00">AdvanceButtonDialog</text>
<text text-anchor="middle" x="1125.5" y="-350.41" font-family="Helvetica,sans-Serif" font-size="10.00">::connectTimeBoxesEvents</text>
</a>
</g>
</g>
<!-- Node29&#45;&gt;Node30 -->
<g id="edge44" class="edge">
<title>Node29&#45;&gt;Node30</title>
<path fill="none" stroke="midnightblue" d="M1246.42,-373.68C1229.22,-371.49 1210.77,-369.14 1193.64,-366.96"/>
<polygon fill="midnightblue" stroke="midnightblue" points="1246.03,-377.15 1256.39,-374.95 1246.91,-370.21 1246.03,-377.15"/>
</g>
<!-- Node33 -->
<g id="node33" class="node">
<title>Node33</title>
<g id="a_node33"><a xlink:href="classAdvanceButtonDialog.html#addf68258b6fb4eeae4dde34fc0fb92e7" target="_top" xlink:title=" ">
<polygon fill="white" stroke="black" points="1051,-392.41 1051,-422.41 1200,-422.41 1200,-392.41 1051,-392.41"/>
<text text-anchor="start" x="1059" y="-410.41" font-family="Helvetica,sans-Serif" font-size="10.00">AdvanceButtonDialog</text>
<text text-anchor="middle" x="1125.5" y="-399.41" font-family="Helvetica,sans-Serif" font-size="10.00">::disconnectTimeBoxesEvents</text>
</a>
</g>
</g>
<!-- Node29&#45;&gt;Node33 -->
<g id="edge48" class="edge">
<title>Node29&#45;&gt;Node33</title>
<path fill="none" stroke="midnightblue" d="M1246.17,-391.54C1231.16,-393.53 1215.23,-395.64 1200.04,-397.65"/>
<polygon fill="midnightblue" stroke="midnightblue" points="1246.94,-394.97 1256.39,-390.18 1246.02,-388.03 1246.94,-394.97"/>
</g>
<!-- Node31 -->
<g id="node31" class="node">
<title>Node31</title>
<g id="a_node31"><a xlink:href="classAdvanceButtonDialog.html#a31876eda1370e7e4190f02c8c5863755" target="_top" xlink:title=" ">
<polygon fill="white" stroke="black" points="875.5,-392.41 875.5,-422.41 1008.5,-422.41 1008.5,-392.41 875.5,-392.41"/>
<text text-anchor="start" x="883.5" y="-410.41" font-family="Helvetica,sans-Serif" font-size="10.00">AdvanceButtonDialog</text>
<text text-anchor="middle" x="942" y="-399.41" font-family="Helvetica,sans-Serif" font-size="10.00">::refreshTimeComboBoxes</text>
</a>
</g>
</g>
<!-- Node30&#45;&gt;Node31 -->
<g id="edge45" class="edge">
<title>Node30&#45;&gt;Node31</title>
<path fill="none" stroke="midnightblue" d="M1058.76,-376.16C1039.09,-381.47 1017.72,-387.24 998.75,-392.36"/>
<polygon fill="midnightblue" stroke="midnightblue" points="1059.82,-379.49 1068.56,-373.51 1058,-372.74 1059.82,-379.49"/>
</g>
<!-- Node32 -->
<g id="node32" class="node">
<title>Node32</title>
<g id="a_node32"><a xlink:href="classAdvanceButtonDialog.html#a634243c95c88918cdb195f5417a585fa" target="_top" xlink:title=" ">
<polygon fill="white" stroke="black" points="887,-343.41 887,-373.41 997,-373.41 997,-343.41 887,-343.41"/>
<text text-anchor="start" x="895" y="-361.41" font-family="Helvetica,sans-Serif" font-size="10.00">AdvanceButtonDialog</text>
<text text-anchor="middle" x="942" y="-350.41" font-family="Helvetica,sans-Serif" font-size="10.00">::resetTimeBoxes</text>
</a>
</g>
</g>
<!-- Node30&#45;&gt;Node32 -->
<g id="edge47" class="edge">
<title>Node30&#45;&gt;Node32</title>
<path fill="none" stroke="midnightblue" d="M1047.05,-358.41C1030.21,-358.41 1012.75,-358.41 997.06,-358.41"/>
<polygon fill="midnightblue" stroke="midnightblue" points="1047.43,-361.91 1057.43,-358.41 1047.43,-354.91 1047.43,-361.91"/>
</g>
<!-- Node31&#45;&gt;Node21 -->
<g id="edge46" class="edge">
<title>Node31&#45;&gt;Node21</title>
<path fill="none" stroke="midnightblue" d="M865.24,-404.02C854.57,-403.54 843.63,-403.06 833.05,-402.58"/>
<polygon fill="midnightblue" stroke="midnightblue" points="865.22,-407.52 875.36,-404.47 865.53,-400.53 865.22,-407.52"/>
</g>
<!-- Node33&#45;&gt;Node31 -->
<g id="edge49" class="edge">
<title>Node33&#45;&gt;Node31</title>
<path fill="none" stroke="midnightblue" d="M1040.72,-407.41C1030,-407.41 1019.15,-407.41 1008.78,-407.41"/>
<polygon fill="midnightblue" stroke="midnightblue" points="1040.94,-410.91 1050.94,-407.41 1040.94,-403.91 1040.94,-410.91"/>
</g>
<!-- Node33&#45;&gt;Node32 -->
<g id="edge50" class="edge">
<title>Node33&#45;&gt;Node32</title>
<path fill="none" stroke="midnightblue" d="M1058.8,-389.67C1038.58,-384.21 1016.56,-378.27 997.2,-373.04"/>
<polygon fill="midnightblue" stroke="midnightblue" points="1058,-393.08 1068.56,-392.31 1059.82,-386.32 1058,-393.08"/>
</g>
<!-- Node35 -->
<g id="node35" class="node">
<title>Node35</title>
<g id="a_node35"><a xlink:href="classAdvanceButtonDialog.html#a973a9cf7b58950cda18e39fdffb87e09" target="_top" xlink:title=" ">
<polygon fill="white" stroke="black" points="1070.5,-598.41 1070.5,-628.41 1180.5,-628.41 1180.5,-598.41 1070.5,-598.41"/>
<text text-anchor="start" x="1078.5" y="-616.41" font-family="Helvetica,sans-Serif" font-size="10.00">AdvanceButtonDialog</text>
<text text-anchor="middle" x="1125.5" y="-605.41" font-family="Helvetica,sans-Serif" font-size="10.00">::insertSlot</text>
</a>
</g>
</g>
<!-- Node34&#45;&gt;Node35 -->
<g id="edge52" class="edge">
<title>Node34&#45;&gt;Node35</title>
<path fill="none" stroke="midnightblue" d="M1250.7,-619.34C1227.86,-618.25 1202.41,-617.03 1180.52,-615.99"/>
<polygon fill="midnightblue" stroke="midnightblue" points="1250.83,-622.85 1260.98,-619.83 1251.16,-615.86 1250.83,-622.85"/>
</g>
<!-- Node35&#45;&gt;Node4 -->
<g id="edge53" class="edge">
<title>Node35&#45;&gt;Node4</title>
<path fill="none" stroke="midnightblue" d="M1060.12,-613.41C987.65,-613.41 866.37,-613.41 762,-613.41 762,-613.41 762,-613.41 576,-613.41 454.38,-613.41 406.92,-641.77 305,-575.41 251.76,-540.74 222.55,-465.78 212.05,-433.59"/>
<polygon fill="midnightblue" stroke="midnightblue" points="1060.45,-616.91 1070.45,-613.41 1060.45,-609.91 1060.45,-616.91"/>
</g>
<!-- Node36 -->
<g id="node36" class="node">
<title>Node36</title>
<g id="a_node36"><a xlink:href="classAdvanceButtonDialog.html#af8430c4a355c90c657d69a44a85e6b84" target="_top" xlink:title=" ">
<polygon fill="white" stroke="black" points="692.5,-554.41 692.5,-584.41 829.5,-584.41 829.5,-554.41 692.5,-554.41"/>
<text text-anchor="start" x="700.5" y="-572.41" font-family="Helvetica,sans-Serif" font-size="10.00">AdvanceButtonDialog</text>
<text text-anchor="middle" x="761" y="-561.41" font-family="Helvetica,sans-Serif" font-size="10.00">::showSelectProfileWindow</text>
</a>
</g>
</g>
<!-- Node35&#45;&gt;Node36 -->
<g id="edge54" class="edge">
<title>Node35&#45;&gt;Node36</title>
<path fill="none" stroke="midnightblue" d="M1060.35,-605.11C1045.47,-603.21 1029.68,-601.22 1015,-599.41 952.22,-591.67 880.64,-583.22 829.67,-577.26"/>
<polygon fill="midnightblue" stroke="midnightblue" points="1060.12,-608.61 1070.49,-606.4 1061.01,-601.66 1060.12,-608.61"/>
</g>
<!-- Node36&#45;&gt;Node4 -->
<g id="edge55" class="edge">
<title>Node36&#45;&gt;Node4</title>
<path fill="none" stroke="midnightblue" d="M682.18,-582.37C587.36,-594.26 424.97,-601.74 305,-539.41 259.51,-515.77 227.84,-460.57 214.53,-433.68"/>
<polygon fill="midnightblue" stroke="midnightblue" points="682.81,-585.82 692.28,-581.06 681.91,-578.88 682.81,-585.82"/>
</g>
<!-- Node37&#45;&gt;Node35 -->
<g id="edge57" class="edge">
<title>Node37&#45;&gt;Node35</title>
<path fill="none" stroke="midnightblue" d="M1251.01,-586.99C1228.09,-591.85 1202.51,-597.28 1180.52,-601.94"/>
<polygon fill="midnightblue" stroke="midnightblue" points="1251.93,-590.37 1260.98,-584.87 1250.47,-583.52 1251.93,-590.37"/>
</g>
<!-- Node38&#45;&gt;Node35 -->
<g id="edge59" class="edge">
<title>Node38&#45;&gt;Node35</title>
<path fill="none" stroke="midnightblue" d="M1251.89,-542.98C1246.46,-545 1241.1,-547.15 1236,-549.41 1204.4,-563.43 1170.38,-584.33 1148.79,-598.39"/>
<polygon fill="midnightblue" stroke="midnightblue" points="1253.45,-546.14 1261.7,-539.49 1251.11,-539.54 1253.45,-546.14"/>
</g>
<!-- Node39&#45;&gt;Node35 -->
<g id="edge61" class="edge">
<title>Node39&#45;&gt;Node35</title>
<path fill="none" stroke="midnightblue" d="M1251.31,-703.24C1246.04,-701.17 1240.87,-698.89 1236,-696.41 1199.66,-677.87 1163.01,-647.06 1142.68,-628.65"/>
<polygon fill="midnightblue" stroke="midnightblue" points="1250.28,-706.59 1260.88,-706.76 1252.7,-700.02 1250.28,-706.59"/>
</g>
<!-- Node40&#45;&gt;Node23 -->
<g id="edge63" class="edge">
<title>Node40&#45;&gt;Node23</title>
<path fill="none" stroke="midnightblue" d="M695.28,-808.41C631.44,-808.41 533.74,-808.41 465.27,-808.41"/>
<polygon fill="midnightblue" stroke="midnightblue" points="695.62,-811.91 705.62,-808.41 695.62,-804.91 695.62,-811.91"/>
</g>
<!-- Node41&#45;&gt;Node35 -->
<g id="edge65" class="edge">
<title>Node41&#45;&gt;Node35</title>
<path fill="none" stroke="midnightblue" d="M1255.61,-653.41C1248.99,-651.39 1242.35,-649.36 1236,-647.41 1215.93,-641.24 1193.8,-634.38 1174.72,-628.45"/>
<polygon fill="midnightblue" stroke="midnightblue" points="1254.67,-656.78 1265.26,-656.35 1256.71,-650.09 1254.67,-656.78"/>
</g>
</g>
</svg>
