<?xml version="1.0" encoding="UTF-8" standalone="no"?>
<!DOCTYPE svg PUBLIC "-//W3C//DTD SVG 1.1//EN"
 "http://www.w3.org/Graphics/SVG/1.1/DTD/svg11.dtd">
<!-- Generated by graphviz version 2.43.0 (0)
 -->
<!-- Title: JoyControlStick::getButtonsStartAccelerationMultiplier Pages: 1 -->
<svg width="554pt" height="50pt"
 viewBox="0.00 0.00 554.00 50.00" xmlns="http://www.w3.org/2000/svg" xmlns:xlink="http://www.w3.org/1999/xlink">
<g id="graph0" class="graph" transform="scale(1 1) rotate(0) translate(4 46)">
<title>JoyControlStick::getButtonsStartAccelerationMultiplier</title>
<polygon fill="white" stroke="transparent" points="-4,4 -4,-46 550,-46 550,4 -4,4"/>
<!-- Node1 -->
<g id="node1" class="node">
<title>Node1</title>
<g id="a_node1"><a xlink:title=" ">
<polygon fill="#bfbfbf" stroke="black" points="407,-6 407,-36 546,-36 546,-6 407,-6"/>
<text text-anchor="start" x="415" y="-24" font-family="Helvetica,sans-Serif" font-size="10.00">JoyControlStick::getButtons</text>
<text text-anchor="middle" x="476.5" y="-13" font-family="Helvetica,sans-Serif" font-size="10.00">StartAccelerationMultiplier</text>
</a>
</g>
</g>
<!-- Node2 -->
<g id="node2" class="node">
<title>Node2</title>
<g id="a_node2"><a xlink:href="$classMouseControlStickSettingsDialog.html#a9f14f0ca3c9ef820ff5ceaafaad2a554" xlink:title=" ">
<polygon fill="white" stroke="black" points="206,-0.5 206,-41.5 371,-41.5 371,-0.5 206,-0.5"/>
<text text-anchor="start" x="214" y="-29.5" font-family="Helvetica,sans-Serif" font-size="10.00">MouseControlStickSettings</text>
<text text-anchor="start" x="214" y="-18.5" font-family="Helvetica,sans-Serif" font-size="10.00">Dialog::calculateStartAcceleration</text>
<text text-anchor="middle" x="288.5" y="-7.5" font-family="Helvetica,sans-Serif" font-size="10.00">Multiplier</text>
</a>
</g>
</g>
<!-- Node1&#45;&gt;Node2 -->
<g id="edge1" class="edge">
<title>Node1&#45;&gt;Node2</title>
<path fill="none" stroke="midnightblue" d="M396.6,-21C388.19,-21 379.61,-21 371.17,-21"/>
<polygon fill="midnightblue" stroke="midnightblue" points="396.77,-24.5 406.77,-21 396.77,-17.5 396.77,-24.5"/>
</g>
<!-- Node3 -->
<g id="node3" class="node">
<title>Node3</title>
<g id="a_node3"><a xlink:href="$classMouseControlStickSettingsDialog.html#aac9d5ef09dced4cee0df95d99ae13369" xlink:title=" ">
<polygon fill="white" stroke="black" points="0,-0.5 0,-41.5 170,-41.5 170,-0.5 0,-0.5"/>
<text text-anchor="start" x="8" y="-29.5" font-family="Helvetica,sans-Serif" font-size="10.00">MouseControlStickSettings</text>
<text text-anchor="start" x="8" y="-18.5" font-family="Helvetica,sans-Serif" font-size="10.00">Dialog::MouseControlStickSettings</text>
<text text-anchor="middle" x="85" y="-7.5" font-family="Helvetica,sans-Serif" font-size="10.00">Dialog</text>
</a>
</g>
</g>
<!-- Node2&#45;&gt;Node3 -->
<g id="edge2" class="edge">
<title>Node2&#45;&gt;Node3</title>
<path fill="none" stroke="midnightblue" d="M195.82,-21C187.25,-21 178.58,-21 170.08,-21"/>
<polygon fill="midnightblue" stroke="midnightblue" points="195.83,-24.5 205.83,-21 195.83,-17.5 195.83,-24.5"/>
</g>
</g>
</svg>
