<?xml version="1.0" encoding="UTF-8" standalone="no"?>
<!DOCTYPE svg PUBLIC "-//W3C//DTD SVG 1.1//EN"
 "http://www.w3.org/Graphics/SVG/1.1/DTD/svg11.dtd">
<!-- Generated by graphviz version 2.43.0 (0)
 -->
<!-- Title: CapturedWindowInfoDialog::CapturedWindowInfoDialog Pages: 1 -->
<svg width="717pt" height="329pt"
 viewBox="0.00 0.00 717.00 329.00" xmlns="http://www.w3.org/2000/svg" xmlns:xlink="http://www.w3.org/1999/xlink">
<g id="graph0" class="graph" transform="scale(1 1) rotate(0) translate(4 325)">
<title>CapturedWindowInfoDialog::CapturedWindowInfoDialog</title>
<polygon fill="white" stroke="transparent" points="-4,4 -4,-325 713,-325 713,4 -4,4"/>
<!-- Node1 -->
<g id="node1" class="node">
<title>Node1</title>
<g id="a_node1"><a xlink:title=" ">
<polygon fill="#bfbfbf" stroke="black" points="0,-142.5 0,-172.5 141,-172.5 141,-142.5 0,-142.5"/>
<text text-anchor="start" x="8" y="-160.5" font-family="Helvetica,sans-Serif" font-size="10.00">CapturedWindowInfoDialog</text>
<text text-anchor="middle" x="70.5" y="-149.5" font-family="Helvetica,sans-Serif" font-size="10.00">::CapturedWindowInfoDialog</text>
</a>
</g>
</g>
<!-- Node2 -->
<g id="node2" class="node">
<title>Node2</title>
<g id="a_node2"><a xlink:href="classX11Extras.html#a1a495d6ed3faab16025c918e4dc00e44" target="_top" xlink:title="Find the application file location for a given PID.">
<polygon fill="white" stroke="black" points="196,-290.5 196,-320.5 326,-320.5 326,-290.5 196,-290.5"/>
<text text-anchor="start" x="204" y="-308.5" font-family="Helvetica,sans-Serif" font-size="10.00">X11Extras::getApplication</text>
<text text-anchor="middle" x="261" y="-297.5" font-family="Helvetica,sans-Serif" font-size="10.00">Location</text>
</a>
</g>
</g>
<!-- Node1&#45;&gt;Node2 -->
<g id="edge1" class="edge">
<title>Node1&#45;&gt;Node2</title>
<path fill="none" stroke="midnightblue" d="M80.5,-172.82C96.56,-198.83 132.68,-251.64 177,-280.5 180.15,-282.55 183.47,-284.44 186.91,-286.18"/>
<polygon fill="midnightblue" stroke="midnightblue" points="185.67,-289.46 196.22,-290.44 188.58,-283.09 185.67,-289.46"/>
</g>
<!-- Node3 -->
<g id="node3" class="node">
<title>Node3</title>
<g id="a_node3"><a xlink:href="classX11Extras.html#a5ca91422edbd69ea7189538dca43f2b1" target="_top" xlink:title="Check window and any parents for the window property &quot;_NET_WM_PID&quot;.">
<polygon fill="white" stroke="black" points="189,-252 189,-271 333,-271 333,-252 189,-252"/>
<text text-anchor="middle" x="261" y="-259" font-family="Helvetica,sans-Serif" font-size="10.00">X11Extras::getApplicationPid</text>
</a>
</g>
</g>
<!-- Node1&#45;&gt;Node3 -->
<g id="edge2" class="edge">
<title>Node1&#45;&gt;Node3</title>
<path fill="none" stroke="midnightblue" d="M85.7,-172.58C104.67,-191.79 140.18,-224.64 177,-242.5 181.99,-244.92 187.3,-247.04 192.72,-248.89"/>
<polygon fill="midnightblue" stroke="midnightblue" points="191.99,-252.33 202.57,-251.95 194.06,-245.64 191.99,-252.33"/>
</g>
<!-- Node8 -->
<g id="node8" class="node">
<title>Node8</title>
<g id="a_node8"><a xlink:href="classWinExtras.html#aea45e724d345e5df2f0962cf6ddcecc0" target="_top" xlink:title="Get the window text of the window currently in focus.">
<polygon fill="white" stroke="black" points="177,-214 177,-233 345,-233 345,-214 177,-214"/>
<text text-anchor="middle" x="261" y="-221" font-family="Helvetica,sans-Serif" font-size="10.00">WinExtras::getCurrentWindowText</text>
</a>
</g>
</g>
<!-- Node1&#45;&gt;Node8 -->
<g id="edge9" class="edge">
<title>Node1&#45;&gt;Node8</title>
<path fill="none" stroke="midnightblue" d="M101.35,-172.67C122.15,-182.77 150.75,-195.74 177,-204.5 184.68,-207.06 192.86,-209.4 201,-211.48"/>
<polygon fill="midnightblue" stroke="midnightblue" points="200.3,-214.92 210.85,-213.91 201.97,-208.12 200.3,-214.92"/>
</g>
<!-- Node9 -->
<g id="node9" class="node">
<title>Node9</title>
<g id="a_node9"><a xlink:href="classWinExtras.html#a71cc9f5d653d596a27c72847b5e403ce" target="_top" xlink:title="Check foreground window (window in focus) and obtain the corresponding exe file path.">
<polygon fill="white" stroke="black" points="195.5,-164.5 195.5,-194.5 326.5,-194.5 326.5,-164.5 195.5,-164.5"/>
<text text-anchor="start" x="203.5" y="-182.5" font-family="Helvetica,sans-Serif" font-size="10.00">WinExtras::getForeground</text>
<text text-anchor="middle" x="261" y="-171.5" font-family="Helvetica,sans-Serif" font-size="10.00">WindowExePath</text>
</a>
</g>
</g>
<!-- Node1&#45;&gt;Node9 -->
<g id="edge10" class="edge">
<title>Node1&#45;&gt;Node9</title>
<path fill="none" stroke="midnightblue" d="M141.15,-165.63C155.56,-167.31 170.78,-169.09 185.35,-170.79"/>
<polygon fill="midnightblue" stroke="midnightblue" points="184.98,-174.27 195.32,-171.95 185.79,-167.31 184.98,-174.27"/>
</g>
<!-- Node10 -->
<g id="node10" class="node">
<title>Node10</title>
<g id="a_node10"><a xlink:href="classX11Extras.html#ace76277fced60e6bd6ff880030338182" target="_top" xlink:title=" ">
<polygon fill="white" stroke="black" points="201.5,-50 201.5,-69 320.5,-69 320.5,-50 201.5,-50"/>
<text text-anchor="middle" x="261" y="-57" font-family="Helvetica,sans-Serif" font-size="10.00">X11Extras::getInstance</text>
</a>
</g>
</g>
<!-- Node1&#45;&gt;Node10 -->
<g id="edge11" class="edge">
<title>Node1&#45;&gt;Node10</title>
<path fill="none" stroke="midnightblue" d="M89.03,-142.44C109.09,-125.89 143.5,-99.54 177,-83.5 186.43,-78.98 196.88,-75.15 207.1,-71.95"/>
<polygon fill="midnightblue" stroke="midnightblue" points="208.18,-75.28 216.78,-69.09 206.2,-68.57 208.18,-75.28"/>
</g>
<!-- Node13 -->
<g id="node13" class="node">
<title>Node13</title>
<g id="a_node13"><a xlink:href="classX11Extras.html#ae7ce87e08a42d280a4deb8ae9a792f40" target="_top" xlink:title=" ">
<polygon fill="white" stroke="black" points="388,-88 388,-107 531,-107 531,-88 388,-88"/>
<text text-anchor="middle" x="459.5" y="-95" font-family="Helvetica,sans-Serif" font-size="10.00">X11Extras::getWindowClass</text>
</a>
</g>
</g>
<!-- Node1&#45;&gt;Node13 -->
<g id="edge14" class="edge">
<title>Node1&#45;&gt;Node13</title>
<path fill="none" stroke="midnightblue" d="M103.03,-142.34C123.6,-133.19 151.3,-122.22 177,-116.5 243.64,-101.67 321.16,-97.35 377.96,-96.5"/>
<polygon fill="midnightblue" stroke="midnightblue" points="378,-100 387.96,-96.38 377.92,-93 378,-100"/>
</g>
<!-- Node14 -->
<g id="node14" class="node">
<title>Node14</title>
<g id="a_node14"><a xlink:href="classX11Extras.html#ac4d3c4697880b6d792761b422cfdf5ed" target="_top" xlink:title=" ">
<polygon fill="white" stroke="black" points="193,-126 193,-145 329,-145 329,-126 193,-126"/>
<text text-anchor="middle" x="261" y="-133" font-family="Helvetica,sans-Serif" font-size="10.00">X11Extras::getWindowTitle</text>
</a>
</g>
</g>
<!-- Node1&#45;&gt;Node14 -->
<g id="edge17" class="edge">
<title>Node1&#45;&gt;Node14</title>
<path fill="none" stroke="midnightblue" d="M141.15,-149.37C154.74,-147.78 169.06,-146.11 182.88,-144.5"/>
<polygon fill="midnightblue" stroke="midnightblue" points="183.3,-147.98 192.83,-143.34 182.49,-141.02 183.3,-147.98"/>
</g>
<!-- Node15 -->
<g id="node15" class="node">
<title>Node15</title>
<g id="a_node15"><a xlink:href="classCapturedWindowInfoDialog.html#ad05efeb53b02ab866dc20e6b275c9d3e" target="_top" xlink:title=" ">
<polygon fill="white" stroke="black" points="193.5,-0.5 193.5,-30.5 328.5,-30.5 328.5,-0.5 193.5,-0.5"/>
<text text-anchor="start" x="201.5" y="-18.5" font-family="Helvetica,sans-Serif" font-size="10.00">CapturedWindowInfoDialog</text>
<text text-anchor="middle" x="261" y="-7.5" font-family="Helvetica,sans-Serif" font-size="10.00">::populateOption</text>
</a>
</g>
</g>
<!-- Node1&#45;&gt;Node15 -->
<g id="edge21" class="edge">
<title>Node1&#45;&gt;Node15</title>
<path fill="none" stroke="midnightblue" d="M81.21,-142.15C97.81,-117.15 134.03,-67.73 177,-40.5 180.34,-38.39 183.86,-36.44 187.5,-34.66"/>
<polygon fill="midnightblue" stroke="midnightblue" points="189.04,-37.8 196.74,-30.54 186.19,-31.41 189.04,-37.8"/>
</g>
<!-- Node4 -->
<g id="node4" class="node">
<title>Node4</title>
<g id="a_node4"><a xlink:href="classX11Extras.html#a9affa85055348376e96413c5c526947d" target="_top" xlink:title=" ">
<polygon fill="white" stroke="black" points="393.5,-240.5 393.5,-270.5 525.5,-270.5 525.5,-240.5 393.5,-240.5"/>
<text text-anchor="start" x="401.5" y="-258.5" font-family="Helvetica,sans-Serif" font-size="10.00">X11Extras::checkProperty</text>
<text text-anchor="middle" x="459.5" y="-247.5" font-family="Helvetica,sans-Serif" font-size="10.00">OnWin</text>
</a>
</g>
</g>
<!-- Node3&#45;&gt;Node4 -->
<g id="edge3" class="edge">
<title>Node3&#45;&gt;Node4</title>
<path fill="none" stroke="midnightblue" d="M333.22,-259.33C349.5,-258.83 366.86,-258.3 383.3,-257.8"/>
<polygon fill="midnightblue" stroke="midnightblue" points="383.51,-261.29 393.4,-257.49 383.3,-254.29 383.51,-261.29"/>
</g>
<!-- Node5 -->
<g id="node5" class="node">
<title>Node5</title>
<g id="a_node5"><a xlink:href="classX11Extras.html#a643c95dc1de8eb073a0accb41619fe83" target="_top" xlink:title="Get display instance.">
<polygon fill="white" stroke="black" points="592,-202 592,-221 691,-221 691,-202 592,-202"/>
<text text-anchor="middle" x="641.5" y="-209" font-family="Helvetica,sans-Serif" font-size="10.00">X11Extras::display</text>
</a>
</g>
</g>
<!-- Node3&#45;&gt;Node5 -->
<g id="edge5" class="edge">
<title>Node3&#45;&gt;Node5</title>
<path fill="none" stroke="midnightblue" d="M310.43,-271.01C331.94,-274.78 357.64,-278.65 381,-280.5 450.56,-286.02 471.26,-300.87 538,-280.5 571.6,-270.24 604.16,-244.87 623.26,-227.92"/>
<polygon fill="midnightblue" stroke="midnightblue" points="625.78,-230.35 630.81,-221.03 621.07,-225.18 625.78,-230.35"/>
</g>
<!-- Node6 -->
<g id="node6" class="node">
<title>Node6</title>
<g id="a_node6"><a xlink:href="classX11Extras.html#a44556cc9630d8685f1978b258c40679d" target="_top" xlink:title=" ">
<polygon fill="white" stroke="black" points="381,-202 381,-221 538,-221 538,-202 381,-202"/>
<text text-anchor="middle" x="459.5" y="-209" font-family="Helvetica,sans-Serif" font-size="10.00">X11Extras::windowHasProperty</text>
</a>
</g>
</g>
<!-- Node3&#45;&gt;Node6 -->
<g id="edge6" class="edge">
<title>Node3&#45;&gt;Node6</title>
<path fill="none" stroke="midnightblue" d="M306.51,-251.93C319.01,-249.07 332.57,-245.82 345,-242.5 361.16,-238.19 364.9,-236.04 381,-231.5 390.43,-228.84 400.55,-226.13 410.25,-223.6"/>
<polygon fill="midnightblue" stroke="midnightblue" points="411.37,-226.93 420.17,-221.03 409.62,-220.15 411.37,-226.93"/>
</g>
<!-- Node4&#45;&gt;Node5 -->
<g id="edge4" class="edge">
<title>Node4&#45;&gt;Node5</title>
<path fill="none" stroke="midnightblue" d="M521.94,-240.48C544.71,-234.91 570.21,-228.68 591.7,-223.43"/>
<polygon fill="midnightblue" stroke="midnightblue" points="592.7,-226.79 601.59,-221.01 591.04,-219.99 592.7,-226.79"/>
</g>
<!-- Node6&#45;&gt;Node5 -->
<g id="edge7" class="edge">
<title>Node6&#45;&gt;Node5</title>
<path fill="none" stroke="midnightblue" d="M538.14,-211.5C552.7,-211.5 567.7,-211.5 581.57,-211.5"/>
<polygon fill="midnightblue" stroke="midnightblue" points="581.94,-215 591.94,-211.5 581.94,-208 581.94,-215"/>
</g>
<!-- Node7 -->
<g id="node7" class="node">
<title>Node7</title>
<g id="a_node7"><a xlink:href="x11extras_8cpp.html#abd96e3a47ad21173e08bc83e90a98fda" target="_top" xlink:title=" ">
<polygon fill="white" stroke="black" points="607.5,-126 607.5,-145 675.5,-145 675.5,-126 607.5,-126"/>
<text text-anchor="middle" x="641.5" y="-133" font-family="Helvetica,sans-Serif" font-size="10.00">freeWindow</text>
</a>
</g>
</g>
<!-- Node6&#45;&gt;Node7 -->
<g id="edge8" class="edge">
<title>Node6&#45;&gt;Node7</title>
<path fill="none" stroke="midnightblue" d="M483.3,-201.87C514.95,-188.51 572.35,-164.27 608.34,-149.08"/>
<polygon fill="midnightblue" stroke="midnightblue" points="610.04,-152.16 617.89,-145.05 607.31,-145.71 610.04,-152.16"/>
</g>
<!-- Node11 -->
<g id="node11" class="node">
<title>Node11</title>
<g id="a_node11"><a xlink:href="classX11Extras.html#ab9bcb016e23bacb0e988feb8175d2c88" target="_top" xlink:title=" ">
<polygon fill="white" stroke="black" points="402.5,-50 402.5,-69 516.5,-69 516.5,-50 402.5,-50"/>
<text text-anchor="middle" x="459.5" y="-57" font-family="Helvetica,sans-Serif" font-size="10.00">X11Extras::X11Extras</text>
</a>
</g>
</g>
<!-- Node10&#45;&gt;Node11 -->
<g id="edge12" class="edge">
<title>Node10&#45;&gt;Node11</title>
<path fill="none" stroke="midnightblue" d="M320.69,-59.5C343.25,-59.5 369.15,-59.5 392.36,-59.5"/>
<polygon fill="midnightblue" stroke="midnightblue" points="392.47,-63 402.47,-59.5 392.47,-56 392.47,-63"/>
</g>
<!-- Node12 -->
<g id="node12" class="node">
<title>Node12</title>
<g id="a_node12"><a xlink:href="classX11Extras.html#a6f63e77ed045e174546d77333672b8f0" target="_top" xlink:title=" ">
<polygon fill="white" stroke="black" points="574,-44.5 574,-74.5 709,-74.5 709,-44.5 574,-44.5"/>
<text text-anchor="start" x="582" y="-62.5" font-family="Helvetica,sans-Serif" font-size="10.00">X11Extras::populateKnown</text>
<text text-anchor="middle" x="641.5" y="-51.5" font-family="Helvetica,sans-Serif" font-size="10.00">Aliases</text>
</a>
</g>
</g>
<!-- Node11&#45;&gt;Node12 -->
<g id="edge13" class="edge">
<title>Node11&#45;&gt;Node12</title>
<path fill="none" stroke="midnightblue" d="M516.96,-59.5C531.76,-59.5 547.97,-59.5 563.64,-59.5"/>
<polygon fill="midnightblue" stroke="midnightblue" points="563.84,-63 573.84,-59.5 563.84,-56 563.84,-63"/>
</g>
<!-- Node13&#45;&gt;Node5 -->
<g id="edge15" class="edge">
<title>Node13&#45;&gt;Node5</title>
<path fill="none" stroke="midnightblue" d="M475.54,-107.02C506.77,-126.81 578.9,-172.49 616.59,-196.35"/>
<polygon fill="midnightblue" stroke="midnightblue" points="615.06,-199.53 625.38,-201.92 618.8,-193.62 615.06,-199.53"/>
</g>
<!-- Node13&#45;&gt;Node7 -->
<g id="edge16" class="edge">
<title>Node13&#45;&gt;Node7</title>
<path fill="none" stroke="midnightblue" d="M505.92,-107.09C533.9,-113 569.58,-120.53 597.16,-126.35"/>
<polygon fill="midnightblue" stroke="midnightblue" points="596.8,-129.85 607.31,-128.49 598.25,-123 596.8,-129.85"/>
</g>
<!-- Node14&#45;&gt;Node5 -->
<g id="edge18" class="edge">
<title>Node14&#45;&gt;Node5</title>
<path fill="none" stroke="midnightblue" d="M309.55,-145.05C379.05,-159 508.21,-184.94 582.96,-199.95"/>
<polygon fill="midnightblue" stroke="midnightblue" points="582.65,-203.45 593.14,-201.99 584.03,-196.59 582.65,-203.45"/>
</g>
<!-- Node14&#45;&gt;Node6 -->
<g id="edge20" class="edge">
<title>Node14&#45;&gt;Node6</title>
<path fill="none" stroke="midnightblue" d="M318.28,-145.09C327.49,-147.77 336.72,-151.18 345,-155.5 363.97,-165.41 362.35,-176.98 381,-187.5 388.93,-191.97 397.79,-195.71 406.62,-198.81"/>
<polygon fill="midnightblue" stroke="midnightblue" points="405.53,-202.14 416.13,-201.92 407.71,-195.49 405.53,-202.14"/>
</g>
<!-- Node14&#45;&gt;Node7 -->
<g id="edge19" class="edge">
<title>Node14&#45;&gt;Node7</title>
<path fill="none" stroke="midnightblue" d="M329.23,-135.5C406.5,-135.5 531.09,-135.5 596.76,-135.5"/>
<polygon fill="midnightblue" stroke="midnightblue" points="597.16,-139 607.16,-135.5 597.16,-132 597.16,-139"/>
</g>
</g>
</svg>
