<?xml version="1.0" encoding="UTF-8" standalone="no"?>
<!DOCTYPE svg PUBLIC "-//W3C//DTD SVG 1.1//EN"
 "http://www.w3.org/Graphics/SVG/1.1/DTD/svg11.dtd">
<!-- Generated by graphviz version 2.43.0 (0)
 -->
<!-- Title: ControllerOptionsInfo::hasProfile Pages: 1 -->
<svg width="375pt" height="88pt"
 viewBox="0.00 0.00 375.00 88.00" xmlns="http://www.w3.org/2000/svg" xmlns:xlink="http://www.w3.org/1999/xlink">
<g id="graph0" class="graph" transform="scale(1 1) rotate(0) translate(4 84)">
<title>ControllerOptionsInfo::hasProfile</title>
<polygon fill="white" stroke="transparent" points="-4,4 -4,-84 371,-84 371,4 -4,4"/>
<!-- Node1 -->
<g id="node1" class="node">
<title>Node1</title>
<g id="a_node1"><a xlink:title=" ">
<polygon fill="#bfbfbf" stroke="black" points="258,-24.5 258,-54.5 367,-54.5 367,-24.5 258,-24.5"/>
<text text-anchor="start" x="266" y="-42.5" font-family="Helvetica,sans-Serif" font-size="10.00">ControllerOptionsInfo</text>
<text text-anchor="middle" x="312.5" y="-31.5" font-family="Helvetica,sans-Serif" font-size="10.00">::hasProfile</text>
</a>
</g>
</g>
<!-- Node2 -->
<g id="node2" class="node">
<title>Node2</title>
<g id="a_node2"><a xlink:href="$classMainWindow.html#a58c2bb4b8456b8dd246c6beb3623b3d2" xlink:title=" ">
<polygon fill="white" stroke="black" points="74,-49.5 74,-79.5 222,-79.5 222,-49.5 74,-49.5"/>
<text text-anchor="start" x="82" y="-67.5" font-family="Helvetica,sans-Serif" font-size="10.00">MainWindow::alterConfigFrom</text>
<text text-anchor="middle" x="148" y="-56.5" font-family="Helvetica,sans-Serif" font-size="10.00">Settings</text>
</a>
</g>
</g>
<!-- Node1&#45;&gt;Node2 -->
<g id="edge1" class="edge">
<title>Node1&#45;&gt;Node2</title>
<path fill="none" stroke="midnightblue" d="M247.72,-49.31C239.29,-50.61 230.6,-51.95 222.03,-53.26"/>
<polygon fill="midnightblue" stroke="midnightblue" points="248.49,-52.74 257.84,-47.76 247.43,-45.82 248.49,-52.74"/>
</g>
<!-- Node4 -->
<g id="node4" class="node">
<title>Node4</title>
<g id="a_node4"><a xlink:href="$classCommandLineUtility.html#ac3966c94e16a72abfa6283e76dade356" xlink:title=" ">
<polygon fill="white" stroke="black" points="94,-0.5 94,-30.5 202,-30.5 202,-0.5 94,-0.5"/>
<text text-anchor="start" x="102" y="-18.5" font-family="Helvetica,sans-Serif" font-size="10.00">CommandLineUtility</text>
<text text-anchor="middle" x="148" y="-7.5" font-family="Helvetica,sans-Serif" font-size="10.00">::hasProfileInOptions</text>
</a>
</g>
</g>
<!-- Node1&#45;&gt;Node4 -->
<g id="edge3" class="edge">
<title>Node1&#45;&gt;Node4</title>
<path fill="none" stroke="midnightblue" d="M247.57,-30.06C232.49,-27.83 216.58,-25.48 202.05,-23.33"/>
<polygon fill="midnightblue" stroke="midnightblue" points="247.44,-33.58 257.84,-31.57 248.46,-26.65 247.44,-33.58"/>
</g>
<!-- Node3 -->
<g id="node3" class="node">
<title>Node3</title>
<g id="a_node3"><a xlink:href="$main_8cpp.html#a0ddf1224851353fc92bfbff6f499fa97" xlink:title=" ">
<polygon fill="white" stroke="black" points="0,-30 0,-49 38,-49 38,-30 0,-30"/>
<text text-anchor="middle" x="19" y="-37" font-family="Helvetica,sans-Serif" font-size="10.00">main</text>
</a>
</g>
</g>
<!-- Node2&#45;&gt;Node3 -->
<g id="edge2" class="edge">
<title>Node2&#45;&gt;Node3</title>
<path fill="none" stroke="midnightblue" d="M63.78,-48.12C54.29,-46.25 45.46,-44.51 38.25,-43.09"/>
<polygon fill="midnightblue" stroke="midnightblue" points="63.37,-51.6 73.86,-50.1 64.72,-44.74 63.37,-51.6"/>
</g>
<!-- Node4&#45;&gt;Node3 -->
<g id="edge4" class="edge">
<title>Node4&#45;&gt;Node3</title>
<path fill="none" stroke="midnightblue" d="M84.03,-27.4C67.24,-30.57 50.4,-33.76 38.2,-36.06"/>
<polygon fill="midnightblue" stroke="midnightblue" points="84.7,-30.84 93.88,-25.54 83.4,-23.96 84.7,-30.84"/>
</g>
</g>
</svg>
