<?xml version="1.0" encoding="UTF-8" standalone="no"?>
<!DOCTYPE svg PUBLIC "-//W3C//DTD SVG 1.1//EN"
 "http://www.w3.org/Graphics/SVG/1.1/DTD/svg11.dtd">
<!-- Generated by graphviz version 2.43.0 (0)
 -->
<!-- Title: DPadEditDialogHelper Pages: 1 -->
<!--zoomable 827 -->
<svg id="main" version="1.1" xmlns="http://www.w3.org/2000/svg" xmlns:xlink="http://www.w3.org/1999/xlink" xml:space="preserve" onload="init(evt)">
<style type="text/css"><![CDATA[
.edge:hover path { stroke: red; }
.edge:hover polygon { stroke: red; fill: red; }
]]></style>
<script type="text/javascript"><![CDATA[
var edges = document.getElementsByTagName('g');
if (edges && edges.length) {
  for (var i=0;i<edges.length;i++) {
    if (edges[i].id.substr(0,4)=='edge') {
      edges[i].setAttribute('class','edge');
    }
  }
}
]]></script>
        <defs>
                <circle id="rim" cx="0" cy="0" r="7"/>
                <circle id="rim2" cx="0" cy="0" r="3.5"/>
                <g id="zoomPlus">
                        <use xlink:href="#rim" fill="#404040">
                                <set attributeName="fill" to="#808080" begin="zoomplus.mouseover" end="zoomplus.mouseout"/>
                        </use>
                        <path d="M-4,0h8M0,-4v8" fill="none" stroke="white" stroke-width="1.5" pointer-events="none"/>
                </g>
                <g id="zoomMin">
                        <use xlink:href="#rim" fill="#404040">
                                <set attributeName="fill" to="#808080" begin="zoomminus.mouseover" end="zoomminus.mouseout"/>
                        </use>
                        <path d="M-4,0h8" fill="none" stroke="white" stroke-width="1.5" pointer-events="none"/>
                </g>
                <g id="dirArrow">
                        <path fill="none" stroke="white" stroke-width="1.5" d="M0,-3.0v7 M-2.5,-0.5L0,-3.0L2.5,-0.5"/>
                </g>
               <g id="resetDef">
                       <use xlink:href="#rim2" fill="#404040">
                               <set attributeName="fill" to="#808080" begin="reset.mouseover" end="reset.mouseout"/>
                       </use>
               </g>
        </defs>

<script type="text/javascript">
var viewWidth = 1933;
var viewHeight = 827;
var sectionId = 'dynsection-1';
</script>
<script xlink:href="svgpan.js"/>
<svg id="graph" class="graph">
<g id="viewport">
<title>DPadEditDialogHelper</title>
<polygon fill="white" stroke="transparent" points="-4,4 -4,-823 1929,-823 1929,4 -4,4"/>
<!-- Node1 -->
<g id="node1" class="node">
<title>Node1</title>
<g id="a_node1"><a xlink:title=" ">
<polygon fill="#bfbfbf" stroke="black" points="503,-735.5 503,-754.5 618,-754.5 618,-735.5 503,-735.5"/>
<text text-anchor="middle" x="560.5" y="-742.5" font-family="Helvetica,sans-Serif" font-size="10.00">DPadEditDialogHelper</text>
</a>
</g>
</g>
<!-- Node2 -->
<g id="node2" class="node">
<title>Node2</title>
<g id="a_node2"><a xlink:title=" ">
<polygon fill="white" stroke="#bfbfbf" points="117.5,-328.5 117.5,-347.5 170.5,-347.5 170.5,-328.5 117.5,-328.5"/>
<text text-anchor="middle" x="144" y="-335.5" font-family="Helvetica,sans-Serif" font-size="10.00">QObject</text>
</a>
</g>
</g>
<!-- Node2&#45;&gt;Node1 -->
<g id="edge1" class="edge">
<title>Node2&#45;&gt;Node1</title>
<path fill="none" stroke="midnightblue" d="M148.87,-357.65C160.38,-411.99 198.7,-566.81 279,-667 310.04,-705.73 319.54,-719.54 366,-737 409.75,-753.44 463.04,-754.38 502.61,-751.82"/>
<polygon fill="midnightblue" stroke="midnightblue" points="152.26,-356.73 146.82,-347.64 145.4,-358.14 152.26,-356.73"/>
</g>
<!-- Node3 -->
<g id="node3" class="node">
<title>Node3</title>
<g id="a_node3"><a xlink:href="classJoyDPad.html" target="_top" xlink:title=" ">
<polygon fill="white" stroke="black" points="285,-638.5 285,-657.5 342,-657.5 342,-638.5 285,-638.5"/>
<text text-anchor="middle" x="313.5" y="-645.5" font-family="Helvetica,sans-Serif" font-size="10.00">JoyDPad</text>
</a>
</g>
</g>
<!-- Node2&#45;&gt;Node3 -->
<g id="edge3" class="edge">
<title>Node2&#45;&gt;Node3</title>
<path fill="none" stroke="midnightblue" d="M154,-357.02C166.09,-382.34 188.42,-428.42 209,-467 244.43,-533.43 290.61,-611.4 306.69,-638.3"/>
<polygon fill="midnightblue" stroke="midnightblue" points="157.08,-355.34 149.62,-347.81 150.76,-358.34 157.08,-355.34"/>
</g>
<!-- Node5 -->
<g id="node5" class="node">
<title>Node5</title>
<g id="a_node5"><a xlink:href="classSetJoystickXml.html" target="_top" xlink:title=" ">
<polygon fill="white" stroke="black" points="1637,-311.5 1637,-330.5 1722,-330.5 1722,-311.5 1637,-311.5"/>
<text text-anchor="middle" x="1679.5" y="-318.5" font-family="Helvetica,sans-Serif" font-size="10.00">SetJoystickXml</text>
</a>
</g>
</g>
<!-- Node2&#45;&gt;Node5 -->
<g id="edge6" class="edge">
<title>Node2&#45;&gt;Node5</title>
<path fill="none" stroke="midnightblue" d="M157.49,-320.14C169.26,-304.4 188.16,-281.74 209,-267 249.67,-238.24 262.69,-224 312.5,-224 312.5,-224 312.5,-224 1166.5,-224 1354.98,-224 1409.77,-214.85 1587,-279 1612.97,-288.4 1641.74,-302.2 1659.96,-311.38"/>
<polygon fill="midnightblue" stroke="midnightblue" points="154.47,-318.35 151.42,-328.49 160.13,-322.46 154.47,-318.35"/>
</g>
<!-- Node6 -->
<g id="node6" class="node">
<title>Node6</title>
<g id="a_node6"><a xlink:href="classJoyAxisXml.html" target="_top" xlink:title=" ">
<polygon fill="white" stroke="black" points="1424.5,-265.5 1424.5,-284.5 1493.5,-284.5 1493.5,-265.5 1424.5,-265.5"/>
<text text-anchor="middle" x="1459" y="-272.5" font-family="Helvetica,sans-Serif" font-size="10.00">JoyAxisXml</text>
</a>
</g>
</g>
<!-- Node2&#45;&gt;Node6 -->
<g id="edge9" class="edge">
<title>Node2&#45;&gt;Node6</title>
<path fill="none" stroke="midnightblue" d="M164.76,-322.3C194.82,-300.04 254.66,-262 312.5,-262 312.5,-262 312.5,-262 1272,-262 1325.41,-262 1387.24,-267.4 1424.45,-271.24"/>
<polygon fill="midnightblue" stroke="midnightblue" points="162.61,-319.54 156.76,-328.37 166.84,-325.11 162.61,-319.54"/>
</g>
<!-- Node7 -->
<g id="node7" class="node">
<title>Node7</title>
<g id="a_node7"><a xlink:href="classJoyAxis.html" target="_top" xlink:title=" ">
<polygon fill="white" stroke="black" points="1245,-104.5 1245,-123.5 1297,-123.5 1297,-104.5 1245,-104.5"/>
<text text-anchor="middle" x="1271" y="-111.5" font-family="Helvetica,sans-Serif" font-size="10.00">JoyAxis</text>
</a>
</g>
</g>
<!-- Node2&#45;&gt;Node7 -->
<g id="edge11" class="edge">
<title>Node2&#45;&gt;Node7</title>
<path fill="none" stroke="midnightblue" d="M147.42,-317.96C156.3,-254.63 193.04,-63 312.5,-63 312.5,-63 312.5,-63 1081,-63 1140.5,-63 1154.46,-76.47 1211,-95 1222.04,-98.62 1234.27,-102.57 1244.72,-105.92"/>
<polygon fill="midnightblue" stroke="midnightblue" points="143.91,-317.84 146.08,-328.21 150.85,-318.75 143.91,-317.84"/>
</g>
<!-- Node10 -->
<g id="node10" class="node">
<title>Node10</title>
<g id="a_node10"><a xlink:href="classJoyButton.html" target="_top" xlink:title=" ">
<polygon fill="white" stroke="black" points="750,-372.5 750,-391.5 811,-391.5 811,-372.5 750,-372.5"/>
<text text-anchor="middle" x="780.5" y="-379.5" font-family="Helvetica,sans-Serif" font-size="10.00">JoyButton</text>
</a>
</g>
</g>
<!-- Node2&#45;&gt;Node10 -->
<g id="edge16" class="edge">
<title>Node2&#45;&gt;Node10</title>
<path fill="none" stroke="midnightblue" d="M180.9,-340.25C272.67,-346.03 523.32,-362.1 732,-378 737.78,-378.44 743.95,-378.94 749.86,-379.43"/>
<polygon fill="midnightblue" stroke="midnightblue" points="180.96,-336.74 170.76,-339.61 180.52,-343.73 180.96,-336.74"/>
</g>
<!-- Node11 -->
<g id="node11" class="node">
<title>Node11</title>
<g id="a_node11"><a xlink:href="classJoyButtonMouseHelper.html" target="_top" xlink:title=" ">
<polygon fill="white" stroke="black" points="366,-477.5 366,-496.5 485,-496.5 485,-477.5 366,-477.5"/>
<text text-anchor="middle" x="425.5" y="-484.5" font-family="Helvetica,sans-Serif" font-size="10.00">JoyButtonMouseHelper</text>
</a>
</g>
</g>
<!-- Node2&#45;&gt;Node11 -->
<g id="edge18" class="edge">
<title>Node2&#45;&gt;Node11</title>
<path fill="none" stroke="midnightblue" d="M171.97,-352.38C228.58,-382.56 358.53,-451.83 406.38,-477.34"/>
<polygon fill="midnightblue" stroke="midnightblue" points="173.38,-349.16 162.91,-347.55 170.09,-355.34 173.38,-349.16"/>
</g>
<!-- Node12 -->
<g id="node12" class="node">
<title>Node12</title>
<g id="a_node12"><a xlink:href="classJoyButtonSlot.html" target="_top" xlink:title=" ">
<polygon fill="white" stroke="black" points="386.5,-372.5 386.5,-391.5 464.5,-391.5 464.5,-372.5 386.5,-372.5"/>
<text text-anchor="middle" x="425.5" y="-379.5" font-family="Helvetica,sans-Serif" font-size="10.00">JoyButtonSlot</text>
</a>
</g>
</g>
<!-- Node2&#45;&gt;Node12 -->
<g id="edge21" class="edge">
<title>Node2&#45;&gt;Node12</title>
<path fill="none" stroke="midnightblue" d="M180.75,-346.33C189.93,-348.33 199.81,-350.36 209,-352 270.73,-363.03 343.01,-372.37 386.21,-377.57"/>
<polygon fill="midnightblue" stroke="midnightblue" points="181.28,-342.86 170.76,-344.11 179.76,-349.69 181.28,-342.86"/>
</g>
<!-- Node14 -->
<g id="node14" class="node">
<title>Node14</title>
<g id="a_node14"><a xlink:href="classJoyControlStick.html" target="_top" xlink:title=" ">
<polygon fill="white" stroke="black" points="1416,-70.5 1416,-89.5 1502,-89.5 1502,-70.5 1416,-70.5"/>
<text text-anchor="middle" x="1459" y="-77.5" font-family="Helvetica,sans-Serif" font-size="10.00">JoyControlStick</text>
</a>
</g>
</g>
<!-- Node2&#45;&gt;Node14 -->
<g id="edge26" class="edge">
<title>Node2&#45;&gt;Node14</title>
<path fill="none" stroke="midnightblue" d="M145.53,-318.19C148.59,-245.82 169.52,0 312.5,0 312.5,0 312.5,0 1166.5,0 1271.72,0 1390.93,-49.07 1437.67,-70.35"/>
<polygon fill="midnightblue" stroke="midnightblue" points="142.03,-318.13 145.17,-328.25 149.02,-318.38 142.03,-318.13"/>
</g>
<!-- Node18 -->
<g id="node18" class="node">
<title>Node18</title>
<g id="a_node18"><a xlink:href="classJoyButtonXml.html" target="_top" xlink:title=" ">
<polygon fill="white" stroke="black" points="915,-311.5 915,-330.5 993,-330.5 993,-311.5 915,-311.5"/>
<text text-anchor="middle" x="954" y="-318.5" font-family="Helvetica,sans-Serif" font-size="10.00">JoyButtonXml</text>
</a>
</g>
</g>
<!-- Node2&#45;&gt;Node18 -->
<g id="edge36" class="edge">
<title>Node2&#45;&gt;Node18</title>
<path fill="none" stroke="midnightblue" d="M180.54,-337.25C313.01,-334.47 777.49,-324.69 914.61,-321.81"/>
<polygon fill="midnightblue" stroke="midnightblue" points="180.44,-333.75 170.52,-337.46 180.59,-340.75 180.44,-333.75"/>
</g>
<!-- Node19 -->
<g id="node19" class="node">
<title>Node19</title>
<g id="a_node19"><a xlink:href="classInputDevice.html" target="_top" xlink:title=" ">
<polygon fill="white" stroke="black" points="279,-779.5 279,-798.5 348,-798.5 348,-779.5 279,-779.5"/>
<text text-anchor="middle" x="313.5" y="-786.5" font-family="Helvetica,sans-Serif" font-size="10.00">InputDevice</text>
</a>
</g>
</g>
<!-- Node2&#45;&gt;Node19 -->
<g id="edge39" class="edge">
<title>Node2&#45;&gt;Node19</title>
<path fill="none" stroke="midnightblue" d="M145.2,-357.93C146.38,-433.53 154.41,-701.33 209,-762 226.39,-781.33 255.71,-787.59 278.72,-789.3"/>
<polygon fill="midnightblue" stroke="midnightblue" points="148.7,-357.47 145.07,-347.51 141.7,-357.56 148.7,-357.47"/>
</g>
<!-- Node3&#45;&gt;Node1 -->
<g id="edge2" class="edge">
<title>Node3&#45;&gt;Node1</title>
<path fill="none" stroke="#9a32cd" stroke-dasharray="5,2" d="M326.76,-666.19C336.07,-678.52 349.97,-694.15 366,-703 413.15,-729.04 432.43,-714.23 485,-726 497.76,-728.86 511.67,-732.31 523.98,-735.49"/>
<polygon fill="#9a32cd" stroke="#9a32cd" points="329.51,-664.01 320.83,-657.93 323.82,-668.09 329.51,-664.01"/>
<text text-anchor="middle" x="425.5" y="-729" font-family="Helvetica,sans-Serif" font-size="10.00"> dpad</text>
</g>
<!-- Node13 -->
<g id="node13" class="node">
<title>Node13</title>
<g id="a_node13"><a xlink:href="classVDPad.html" target="_top" xlink:title=" ">
<polygon fill="white" stroke="black" points="536.5,-581.5 536.5,-600.5 584.5,-600.5 584.5,-581.5 536.5,-581.5"/>
<text text-anchor="middle" x="560.5" y="-588.5" font-family="Helvetica,sans-Serif" font-size="10.00">VDPad</text>
</a>
</g>
</g>
<!-- Node3&#45;&gt;Node13 -->
<g id="edge23" class="edge">
<title>Node3&#45;&gt;Node13</title>
<path fill="none" stroke="midnightblue" d="M334.03,-632.54C343.22,-626.07 354.65,-619.1 366,-615 424.74,-593.78 499.32,-590.68 536.4,-590.61"/>
<polygon fill="midnightblue" stroke="midnightblue" points="331.94,-629.74 325.97,-638.5 336.09,-635.37 331.94,-629.74"/>
</g>
<!-- Node22 -->
<g id="node22" class="node">
<title>Node22</title>
<g id="a_node22"><a xlink:href="classJoyDPadButton.html" target="_top" xlink:title=" ">
<polygon fill="white" stroke="black" points="911,-619.5 911,-638.5 997,-638.5 997,-619.5 911,-619.5"/>
<text text-anchor="middle" x="954" y="-626.5" font-family="Helvetica,sans-Serif" font-size="10.00">JoyDPadButton</text>
</a>
</g>
</g>
<!-- Node3&#45;&gt;Node22 -->
<g id="edge44" class="edge">
<title>Node3&#45;&gt;Node22</title>
<path fill="none" stroke="#9a32cd" stroke-dasharray="5,2" d="M352.24,-652.09C356.87,-652.46 361.54,-652.78 366,-653 418.83,-655.56 432.11,-653.6 485,-653 572.52,-652.01 881.25,-643.68 887,-643 895.72,-641.97 905,-640.34 913.76,-638.55"/>
<polygon fill="#9a32cd" stroke="#9a32cd" points="352.53,-648.6 342.26,-651.19 351.91,-655.57 352.53,-648.6"/>
<text text-anchor="middle" x="684" y="-652" font-family="Helvetica,sans-Serif" font-size="10.00"> m_dpad</text>
</g>
<!-- Node4 -->
<g id="node4" class="node">
<title>Node4</title>
<g id="a_node4"><a xlink:href="classSetJoystick.html" target="_top" xlink:title=" ">
<polygon fill="white" stroke="black" points="1857,-357.5 1857,-376.5 1925,-376.5 1925,-357.5 1857,-357.5"/>
<text text-anchor="middle" x="1891" y="-364.5" font-family="Helvetica,sans-Serif" font-size="10.00">SetJoystick</text>
</a>
</g>
</g>
<!-- Node4&#45;&gt;Node3 -->
<g id="edge4" class="edge">
<title>Node4&#45;&gt;Node3</title>
<path fill="none" stroke="#9a32cd" stroke-dasharray="5,2" d="M1887.52,-386.81C1877.24,-459.18 1831.22,-705 1680.5,-705 683,-705 683,-705 683,-705 541.1,-705 503.95,-700.23 366,-667 356.27,-664.66 345.86,-661.04 336.96,-657.59"/>
<polygon fill="#9a32cd" stroke="#9a32cd" points="1891,-387.13 1888.87,-376.75 1884.07,-386.2 1891,-387.13"/>
<text text-anchor="middle" x="1080" y="-708" font-family="Helvetica,sans-Serif" font-size="10.00"> m_parentSet</text>
</g>
<!-- Node4&#45;&gt;Node5 -->
<g id="edge7" class="edge">
<title>Node4&#45;&gt;Node5</title>
<path fill="none" stroke="#9a32cd" stroke-dasharray="5,2" d="M1874.47,-350.04C1865.16,-341.11 1852.52,-331 1839,-326 1801.3,-312.05 1755.05,-312.39 1722.26,-315.25"/>
<polygon fill="#9a32cd" stroke="#9a32cd" points="1872.23,-352.75 1881.74,-357.43 1877.22,-347.84 1872.23,-352.75"/>
<text text-anchor="middle" x="1805.5" y="-329" font-family="Helvetica,sans-Serif" font-size="10.00"> m_setJoystick</text>
</g>
<!-- Node4&#45;&gt;Node7 -->
<g id="edge12" class="edge">
<title>Node4&#45;&gt;Node7</title>
<path fill="none" stroke="#9a32cd" stroke-dasharray="5,2" d="M1877.49,-349.02C1868.1,-336.65 1854.28,-320.59 1839,-310 1655.15,-182.62 1380.75,-131.03 1297.1,-117.71"/>
<polygon fill="#9a32cd" stroke="#9a32cd" points="1874.78,-351.24 1883.5,-357.25 1880.43,-347.11 1874.78,-351.24"/>
<text text-anchor="middle" x="1553.5" y="-192" font-family="Helvetica,sans-Serif" font-size="10.00"> m_parentSet</text>
</g>
<!-- Node4&#45;&gt;Node10 -->
<g id="edge19" class="edge">
<title>Node4&#45;&gt;Node10</title>
<path fill="none" stroke="#9a32cd" stroke-dasharray="5,2" d="M1846.69,-371.26C1804.36,-375.05 1738.07,-380 1680.5,-380 953,-380 953,-380 953,-380 903.27,-380 845.44,-380.85 811.24,-381.44"/>
<polygon fill="#9a32cd" stroke="#9a32cd" points="1847.02,-374.74 1856.66,-370.35 1846.38,-367.77 1847.02,-374.74"/>
<text text-anchor="middle" x="1271" y="-383" font-family="Helvetica,sans-Serif" font-size="10.00"> m_parentSet</text>
</g>
<!-- Node5&#45;&gt;Node4 -->
<g id="edge5" class="edge">
<title>Node5&#45;&gt;Node4</title>
<path fill="none" stroke="midnightblue" d="M1732.22,-332.36C1771.1,-340.89 1823.22,-352.34 1856.71,-359.69"/>
<polygon fill="midnightblue" stroke="midnightblue" points="1732.66,-328.87 1722.14,-330.14 1731.16,-335.71 1732.66,-328.87"/>
</g>
<!-- Node6&#45;&gt;Node5 -->
<g id="edge8" class="edge">
<title>Node6&#45;&gt;Node5</title>
<path fill="none" stroke="#9a32cd" stroke-dasharray="5,2" d="M1503.71,-281.09C1528.3,-284.8 1559.49,-289.98 1587,-296 1606.95,-300.36 1629.04,-306.36 1646.52,-311.39"/>
<polygon fill="#9a32cd" stroke="#9a32cd" points="1504.01,-277.6 1493.6,-279.59 1502.98,-284.52 1504.01,-277.6"/>
<text text-anchor="middle" x="1553.5" y="-299" font-family="Helvetica,sans-Serif" font-size="10.00"> joyAxisXml</text>
</g>
<!-- Node7&#45;&gt;Node6 -->
<g id="edge10" class="edge">
<title>Node7&#45;&gt;Node6</title>
<path fill="none" stroke="#9a32cd" stroke-dasharray="5,2" d="M1290.95,-130.4C1329.47,-163.74 1415.85,-238.51 1446.74,-265.26"/>
<polygon fill="#9a32cd" stroke="#9a32cd" points="1292.93,-127.49 1283.08,-123.59 1288.35,-132.78 1292.93,-127.49"/>
<text text-anchor="middle" x="1373.5" y="-226" font-family="Helvetica,sans-Serif" font-size="10.00"> m_joyAxis</text>
</g>
<!-- Node8 -->
<g id="node8" class="node">
<title>Node8</title>
<g id="a_node8"><a xlink:href="classJoyAxisButton.html" target="_top" xlink:title=" ">
<polygon fill="white" stroke="black" points="1040,-130.5 1040,-149.5 1120,-149.5 1120,-130.5 1040,-130.5"/>
<text text-anchor="middle" x="1080" y="-137.5" font-family="Helvetica,sans-Serif" font-size="10.00">JoyAxisButton</text>
</a>
</g>
</g>
<!-- Node7&#45;&gt;Node8 -->
<g id="edge24" class="edge">
<title>Node7&#45;&gt;Node8</title>
<path fill="none" stroke="#9a32cd" stroke-dasharray="5,2" d="M1234.81,-122.21C1221.74,-125.02 1206.75,-127.96 1193,-130 1168.86,-133.57 1141.59,-136.04 1120.01,-137.63"/>
<polygon fill="#9a32cd" stroke="#9a32cd" points="1235.8,-125.57 1244.82,-120 1234.3,-118.74 1235.8,-125.57"/>
<text text-anchor="middle" x="1165.5" y="-140" font-family="Helvetica,sans-Serif" font-size="10.00"> m_axis</text>
</g>
<!-- Node7&#45;&gt;Node14 -->
<g id="edge34" class="edge">
<title>Node7&#45;&gt;Node14</title>
<path fill="none" stroke="#9a32cd" stroke-dasharray="5,2" d="M1306.97,-107.62C1332.25,-103.01 1367.24,-96.63 1398,-91 1403.73,-89.95 1409.77,-88.85 1415.71,-87.76"/>
<polygon fill="#9a32cd" stroke="#9a32cd" points="1306.31,-104.19 1297.1,-109.42 1307.57,-111.07 1306.31,-104.19"/>
<text text-anchor="middle" x="1373.5" y="-114" font-family="Helvetica,sans-Serif" font-size="10.00"> axisX</text>
<text text-anchor="middle" x="1373.5" y="-103" font-family="Helvetica,sans-Serif" font-size="10.00">axisY</text>
</g>
<!-- Node8&#45;&gt;Node7 -->
<g id="edge13" class="edge">
<title>Node8&#45;&gt;Node7</title>
<path fill="none" stroke="#9a32cd" stroke-dasharray="5,2" d="M1106.51,-124.77C1111.13,-121.7 1115.8,-118.38 1120,-115 1128.81,-107.91 1127.55,-101.33 1138,-97 1160.58,-87.65 1168.7,-94.35 1193,-97 1210.56,-98.91 1229.97,-103.22 1244.91,-107.01"/>
<polygon fill="#9a32cd" stroke="#9a32cd" points="1104.41,-121.96 1097.86,-130.29 1108.17,-127.86 1104.41,-121.96"/>
<text text-anchor="middle" x="1165.5" y="-122" font-family="Helvetica,sans-Serif" font-size="10.00"> paxisbutton</text>
<text text-anchor="middle" x="1165.5" y="-111" font-family="Helvetica,sans-Serif" font-size="10.00">activeButton</text>
<text text-anchor="middle" x="1165.5" y="-100" font-family="Helvetica,sans-Serif" font-size="10.00">naxisbutton</text>
</g>
<!-- Node9 -->
<g id="node9" class="node">
<title>Node9</title>
<g id="a_node9"><a xlink:href="classJoyGradientButton.html" target="_top" xlink:title=" ">
<polygon fill="white" stroke="black" points="905,-152.5 905,-171.5 1003,-171.5 1003,-152.5 905,-152.5"/>
<text text-anchor="middle" x="954" y="-159.5" font-family="Helvetica,sans-Serif" font-size="10.00">JoyGradientButton</text>
</a>
</g>
</g>
<!-- Node9&#45;&gt;Node8 -->
<g id="edge14" class="edge">
<title>Node9&#45;&gt;Node8</title>
<path fill="none" stroke="midnightblue" d="M1013.35,-151.65C1022.33,-150.05 1031.41,-148.44 1039.84,-146.95"/>
<polygon fill="midnightblue" stroke="midnightblue" points="1012.53,-148.24 1003.3,-153.43 1013.75,-155.13 1012.53,-148.24"/>
</g>
<!-- Node16 -->
<g id="node16" class="node">
<title>Node16</title>
<g id="a_node16"><a xlink:href="classJoyControlStickModifierButton.html" target="_top" xlink:title=" ">
<polygon fill="white" stroke="black" points="1605,-140.5 1605,-159.5 1754,-159.5 1754,-140.5 1605,-140.5"/>
<text text-anchor="middle" x="1679.5" y="-147.5" font-family="Helvetica,sans-Serif" font-size="10.00">JoyControlStickModifierButton</text>
</a>
</g>
</g>
<!-- Node9&#45;&gt;Node16 -->
<g id="edge29" class="edge">
<title>Node9&#45;&gt;Node16</title>
<path fill="none" stroke="midnightblue" d="M1013.05,-164.27C1124.46,-168.09 1375.94,-174.2 1587,-161 1593.07,-160.62 1599.35,-160.11 1605.65,-159.52"/>
<polygon fill="midnightblue" stroke="midnightblue" points="1013.15,-160.77 1003.03,-163.92 1012.9,-167.76 1013.15,-160.77"/>
</g>
<!-- Node17 -->
<g id="node17" class="node">
<title>Node17</title>
<g id="a_node17"><a xlink:href="classJoyControlStickButton.html" target="_top" xlink:title=" ">
<polygon fill="white" stroke="black" points="1622,-16.5 1622,-35.5 1737,-35.5 1737,-16.5 1622,-16.5"/>
<text text-anchor="middle" x="1679.5" y="-23.5" font-family="Helvetica,sans-Serif" font-size="10.00">JoyControlStickButton</text>
</a>
</g>
</g>
<!-- Node9&#45;&gt;Node17 -->
<g id="edge32" class="edge">
<title>Node9&#45;&gt;Node17</title>
<path fill="none" stroke="midnightblue" d="M982.75,-147.82C999.22,-139.61 1020.6,-129.29 1040,-121 1241.17,-35.05 1301.81,-27.8 1520,-12 1549.7,-9.85 1557.31,-9.74 1587,-12 1599.5,-12.95 1612.88,-14.62 1625.43,-16.49"/>
<polygon fill="midnightblue" stroke="midnightblue" points="981.04,-144.76 973.68,-152.38 984.19,-151.02 981.04,-144.76"/>
</g>
<!-- Node10&#45;&gt;Node9 -->
<g id="edge15" class="edge">
<title>Node10&#45;&gt;Node9</title>
<path fill="none" stroke="midnightblue" d="M795.43,-364.13C830.05,-319.72 919.07,-205.52 945.5,-171.62"/>
<polygon fill="midnightblue" stroke="midnightblue" points="792.48,-362.22 789.09,-372.26 798,-366.53 792.48,-362.22"/>
</g>
<!-- Node10&#45;&gt;Node18 -->
<g id="edge37" class="edge">
<title>Node10&#45;&gt;Node18</title>
<path fill="none" stroke="#9a32cd" stroke-dasharray="5,2" d="M805.22,-366.98C812.64,-362.7 820.99,-358.31 829,-355 856.85,-343.48 889.81,-334.66 914.74,-328.89"/>
<polygon fill="#9a32cd" stroke="#9a32cd" points="803.2,-364.11 796.41,-372.24 806.79,-370.12 803.2,-364.11"/>
<text text-anchor="middle" x="858" y="-358" font-family="Helvetica,sans-Serif" font-size="10.00"> m_joyButton</text>
</g>
<!-- Node10&#45;&gt;Node22 -->
<g id="edge43" class="edge">
<title>Node10&#45;&gt;Node22</title>
<path fill="none" stroke="midnightblue" d="M794.01,-400.01C827.89,-448.81 920.63,-582.38 946.32,-619.38"/>
<polygon fill="midnightblue" stroke="midnightblue" points="796.8,-397.9 788.22,-391.68 791.05,-401.89 796.8,-397.9"/>
</g>
<!-- Node11&#45;&gt;Node10 -->
<g id="edge17" class="edge">
<title>Node11&#45;&gt;Node10</title>
<path fill="none" stroke="#9a32cd" stroke-dasharray="5,2" d="M453.66,-500.99C467.94,-507.57 485.97,-514.68 503,-518 553.17,-527.78 569.99,-535.52 618,-518 689.62,-491.86 751.47,-418.42 772.15,-391.79"/>
<polygon fill="#9a32cd" stroke="#9a32cd" points="454.97,-497.74 444.44,-496.58 451.95,-504.05 454.97,-497.74"/>
<text text-anchor="middle" x="560.5" y="-531" font-family="Helvetica,sans-Serif" font-size="10.00"> mouseHelper</text>
</g>
<!-- Node12&#45;&gt;Node10 -->
<g id="edge20" class="edge">
<title>Node12&#45;&gt;Node10</title>
<path fill="none" stroke="#9a32cd" stroke-dasharray="5,2" d="M474.62,-382C548.72,-382 688.6,-382 749.69,-382"/>
<polygon fill="#9a32cd" stroke="#9a32cd" points="474.61,-378.5 464.61,-382 474.61,-385.5 474.61,-378.5"/>
<text text-anchor="middle" x="560.5" y="-506" font-family="Helvetica,sans-Serif" font-size="10.00"> currentDelay</text>
<text text-anchor="middle" x="560.5" y="-495" font-family="Helvetica,sans-Serif" font-size="10.00">lastActiveKey</text>
<text text-anchor="middle" x="560.5" y="-484" font-family="Helvetica,sans-Serif" font-size="10.00">currentSetChangeSlot</text>
<text text-anchor="middle" x="560.5" y="-473" font-family="Helvetica,sans-Serif" font-size="10.00">currentKeyPress</text>
<text text-anchor="middle" x="560.5" y="-462" font-family="Helvetica,sans-Serif" font-size="10.00">currentRelease</text>
<text text-anchor="middle" x="560.5" y="-451" font-family="Helvetica,sans-Serif" font-size="10.00">currentCycle</text>
<text text-anchor="middle" x="560.5" y="-440" font-family="Helvetica,sans-Serif" font-size="10.00">previousCycle</text>
<text text-anchor="middle" x="560.5" y="-429" font-family="Helvetica,sans-Serif" font-size="10.00">m_currentDistance</text>
<text text-anchor="middle" x="560.5" y="-418" font-family="Helvetica,sans-Serif" font-size="10.00">currentPause</text>
<text text-anchor="start" x="509.5" y="-407" font-family="Helvetica,sans-Serif" font-size="10.00">currentWheelHorizontal</text>
<text text-anchor="middle" x="560.5" y="-396" font-family="Helvetica,sans-Serif" font-size="10.00">Event</text>
<text text-anchor="middle" x="560.5" y="-385" font-family="Helvetica,sans-Serif" font-size="10.00">...</text>
</g>
<!-- Node13&#45;&gt;Node10 -->
<g id="edge22" class="edge">
<title>Node13&#45;&gt;Node10</title>
<path fill="none" stroke="#9a32cd" stroke-dasharray="5,2" d="M594.97,-590.37C638.8,-588.84 712.36,-583.64 732,-566 758.63,-542.08 774.24,-426.5 778.38,-391.84"/>
<polygon fill="#9a32cd" stroke="#9a32cd" points="594.67,-586.88 584.78,-590.68 594.88,-593.87 594.67,-586.88"/>
<text text-anchor="middle" x="684" y="-591" font-family="Helvetica,sans-Serif" font-size="10.00"> m_vdpad</text>
</g>
<!-- Node14&#45;&gt;Node7 -->
<g id="edge25" class="edge">
<title>Node14&#45;&gt;Node7</title>
<path fill="none" stroke="#9a32cd" stroke-dasharray="5,2" d="M1405.95,-72.83C1387.48,-72.14 1366.87,-73.53 1349,-80 1339.21,-83.55 1340.12,-89.98 1331,-95 1320.54,-100.76 1308.05,-105.1 1297.27,-108.16"/>
<polygon fill="#9a32cd" stroke="#9a32cd" points="1405.77,-76.33 1415.95,-73.41 1406.17,-69.34 1405.77,-76.33"/>
<text text-anchor="middle" x="1373.5" y="-83" font-family="Helvetica,sans-Serif" font-size="10.00"> m_stick</text>
</g>
<!-- Node14&#45;&gt;Node16 -->
<g id="edge30" class="edge">
<title>Node14&#45;&gt;Node16</title>
<path fill="none" stroke="#9a32cd" stroke-dasharray="5,2" d="M1476.01,-96.84C1487.26,-107.58 1503.24,-120.79 1520,-128 1546.41,-139.36 1577.38,-145.14 1604.89,-147.98"/>
<polygon fill="#9a32cd" stroke="#9a32cd" points="1478.27,-94.15 1468.71,-89.58 1473.33,-99.11 1478.27,-94.15"/>
<text text-anchor="middle" x="1553.5" y="-149" font-family="Helvetica,sans-Serif" font-size="10.00"> stick</text>
</g>
<!-- Node14&#45;&gt;Node17 -->
<g id="edge33" class="edge">
<title>Node14&#45;&gt;Node17</title>
<path fill="none" stroke="#9a32cd" stroke-dasharray="5,2" d="M1512.16,-74.17C1535.3,-70.98 1562.74,-66.35 1587,-60 1611.43,-53.61 1638.42,-43.14 1656.71,-35.5"/>
<polygon fill="#9a32cd" stroke="#9a32cd" points="1511.64,-70.71 1502.19,-75.5 1512.56,-77.65 1511.64,-70.71"/>
<text text-anchor="middle" x="1553.5" y="-76" font-family="Helvetica,sans-Serif" font-size="10.00"> stick</text>
</g>
<!-- Node15 -->
<g id="node15" class="node">
<title>Node15</title>
<g id="a_node15"><a xlink:href="classJoyStickDirectionsType.html" target="_top" xlink:title=" ">
<polygon fill="white" stroke="black" points="1211,-66.5 1211,-85.5 1331,-85.5 1331,-66.5 1211,-66.5"/>
<text text-anchor="middle" x="1271" y="-73.5" font-family="Helvetica,sans-Serif" font-size="10.00">JoyStickDirectionsType</text>
</a>
</g>
</g>
<!-- Node15&#45;&gt;Node14 -->
<g id="edge27" class="edge">
<title>Node15&#45;&gt;Node14</title>
<path fill="none" stroke="midnightblue" d="M1315.77,-64.27C1340.05,-59.3 1370.77,-55.58 1398,-60 1410.57,-62.04 1424.07,-66.34 1435.07,-70.43"/>
<polygon fill="midnightblue" stroke="midnightblue" points="1314.81,-60.89 1305.78,-66.45 1316.3,-67.73 1314.81,-60.89"/>
</g>
<!-- Node16&#45;&gt;Node14 -->
<g id="edge28" class="edge">
<title>Node16&#45;&gt;Node14</title>
<path fill="none" stroke="#9a32cd" stroke-dasharray="5,2" d="M1643.86,-136.93C1626.82,-130.65 1605.93,-123.16 1587,-117 1556.1,-106.94 1520.56,-96.7 1494.95,-89.55"/>
<polygon fill="#9a32cd" stroke="#9a32cd" points="1642.81,-140.27 1653.4,-140.47 1645.24,-133.71 1642.81,-140.27"/>
<text text-anchor="middle" x="1553.5" y="-120" font-family="Helvetica,sans-Serif" font-size="10.00"> modifierButton</text>
</g>
<!-- Node17&#45;&gt;Node14 -->
<g id="edge31" class="edge">
<title>Node17&#45;&gt;Node14</title>
<path fill="none" stroke="#9a32cd" stroke-dasharray="5,2" d="M1611.65,-16.14C1582.62,-14.44 1548.74,-16.02 1520,-27 1497.15,-35.73 1477.36,-57.51 1467.22,-70.27"/>
<polygon fill="#9a32cd" stroke="#9a32cd" points="1611.48,-19.64 1621.71,-16.87 1611.99,-12.66 1611.48,-19.64"/>
<text text-anchor="middle" x="1553.5" y="-52" font-family="Helvetica,sans-Serif" font-size="10.00"> activeButton1</text>
<text text-anchor="middle" x="1553.5" y="-41" font-family="Helvetica,sans-Serif" font-size="10.00">activeButton2</text>
<text text-anchor="middle" x="1553.5" y="-30" font-family="Helvetica,sans-Serif" font-size="10.00">activeButton3</text>
</g>
<!-- Node18&#45;&gt;Node5 -->
<g id="edge35" class="edge">
<title>Node18&#45;&gt;Node5</title>
<path fill="none" stroke="#9a32cd" stroke-dasharray="5,2" d="M1003.42,-321C1026.34,-321 1054.08,-321 1079,-321 1079,-321 1079,-321 1460,-321 1521.45,-321 1592.63,-321 1636.61,-321"/>
<polygon fill="#9a32cd" stroke="#9a32cd" points="1003.26,-317.5 993.26,-321 1003.26,-324.5 1003.26,-317.5"/>
<text text-anchor="middle" x="1271" y="-324" font-family="Helvetica,sans-Serif" font-size="10.00"> joyButtonXml</text>
</g>
<!-- Node19&#45;&gt;Node4 -->
<g id="edge38" class="edge">
<title>Node19&#45;&gt;Node4</title>
<path fill="none" stroke="#9a32cd" stroke-dasharray="5,2" d="M358.43,-788.43C407.46,-787.83 489.16,-787 559.5,-787 559.5,-787 559.5,-787 1680.5,-787 1870.36,-787 1888.16,-439.08 1889.83,-376.56"/>
<polygon fill="#9a32cd" stroke="#9a32cd" points="358.14,-784.93 348.18,-788.55 358.23,-791.93 358.14,-784.93"/>
<text text-anchor="middle" x="1080" y="-790" font-family="Helvetica,sans-Serif" font-size="10.00"> m_device</text>
</g>
<!-- Node20 -->
<g id="node20" class="node">
<title>Node20</title>
<g id="a_node20"><a xlink:href="classAntiMicroSettings.html" target="_top" xlink:title=" ">
<polygon fill="white" stroke="black" points="97,-799.5 97,-818.5 191,-818.5 191,-799.5 97,-799.5"/>
<text text-anchor="middle" x="144" y="-806.5" font-family="Helvetica,sans-Serif" font-size="10.00">AntiMicroSettings</text>
</a>
</g>
</g>
<!-- Node20&#45;&gt;Node19 -->
<g id="edge40" class="edge">
<title>Node20&#45;&gt;Node19</title>
<path fill="none" stroke="#9a32cd" stroke-dasharray="5,2" d="M201.24,-802.28C227.02,-799.21 256.7,-795.66 278.92,-793.01"/>
<polygon fill="#9a32cd" stroke="#9a32cd" points="200.73,-798.82 191.21,-803.48 201.56,-805.77 200.73,-798.82"/>
<text text-anchor="middle" x="235" y="-803" font-family="Helvetica,sans-Serif" font-size="10.00"> m_settings</text>
</g>
<!-- Node21 -->
<g id="node21" class="node">
<title>Node21</title>
<g id="a_node21"><a xlink:title=" ">
<polygon fill="white" stroke="#bfbfbf" points="0,-799.5 0,-818.5 60,-818.5 60,-799.5 0,-799.5"/>
<text text-anchor="middle" x="30" y="-806.5" font-family="Helvetica,sans-Serif" font-size="10.00">QSettings</text>
</a>
</g>
</g>
<!-- Node21&#45;&gt;Node20 -->
<g id="edge41" class="edge">
<title>Node21&#45;&gt;Node20</title>
<path fill="none" stroke="midnightblue" d="M70.21,-809C78.75,-809 87.87,-809 96.65,-809"/>
<polygon fill="midnightblue" stroke="midnightblue" points="70.13,-805.5 60.13,-809 70.13,-812.5 70.13,-805.5"/>
</g>
<!-- Node22&#45;&gt;Node3 -->
<g id="edge42" class="edge">
<title>Node22&#45;&gt;Node3</title>
<path fill="none" stroke="#9a32cd" stroke-dasharray="5,2" d="M900.89,-629.38C838.07,-629.94 729.29,-631.23 636,-634 527.1,-637.23 397.56,-643.66 342.01,-646.54"/>
<polygon fill="#9a32cd" stroke="#9a32cd" points="900.97,-632.88 910.94,-629.29 900.91,-625.88 900.97,-632.88"/>
<text text-anchor="middle" x="684" y="-637" font-family="Helvetica,sans-Serif" font-size="10.00"> activeDiagonalButton</text>
</g>
</g>
</svg>
        <g id="navigator" transform="translate(0 0)" fill="#404254">
                <rect fill="#f2f5e9" fill-opacity="0.5" stroke="#606060" stroke-width=".5" x="0" y="0" width="60" height="60"/>
                <use id="zoomplus" xlink:href="#zoomPlus" x="17" y="9" onmousedown="handleZoom(evt,'in')"/>
                <use id="zoomminus" xlink:href="#zoomMin" x="42" y="9" onmousedown="handleZoom(evt,'out')"/>
                <use id="reset" xlink:href="#resetDef" x="30" y="36" onmousedown="handleReset()"/>
                <g id="arrowUp" xlink:href="#dirArrow" transform="translate(30 24)" onmousedown="handlePan(0,-1)">
                  <use xlink:href="#rim" fill="#404040">
                        <set attributeName="fill" to="#808080" begin="arrowUp.mouseover" end="arrowUp.mouseout"/>
                  </use>
                  <path fill="none" stroke="white" stroke-width="1.5" d="M0,-3.0v7 M-2.5,-0.5L0,-3.0L2.5,-0.5"/>
                </g>
                <g id="arrowRight" xlink:href="#dirArrow" transform="rotate(90) translate(36 -43)" onmousedown="handlePan(1,0)">
                  <use xlink:href="#rim" fill="#404040">
                        <set attributeName="fill" to="#808080" begin="arrowRight.mouseover" end="arrowRight.mouseout"/>
                  </use>
                  <path fill="none" stroke="white" stroke-width="1.5" d="M0,-3.0v7 M-2.5,-0.5L0,-3.0L2.5,-0.5"/>
                </g>
                <g id="arrowDown" xlink:href="#dirArrow" transform="rotate(180) translate(-30 -48)" onmousedown="handlePan(0,1)">
                  <use xlink:href="#rim" fill="#404040">
                        <set attributeName="fill" to="#808080" begin="arrowDown.mouseover" end="arrowDown.mouseout"/>
                  </use>
                  <path fill="none" stroke="white" stroke-width="1.5" d="M0,-3.0v7 M-2.5,-0.5L0,-3.0L2.5,-0.5"/>
                </g>
                <g id="arrowLeft" xlink:href="#dirArrow" transform="rotate(270) translate(-36 17)" onmousedown="handlePan(-1,0)">
                  <use xlink:href="#rim" fill="#404040">
                        <set attributeName="fill" to="#808080" begin="arrowLeft.mouseover" end="arrowLeft.mouseout"/>
                  </use>
                  <path fill="none" stroke="white" stroke-width="1.5" d="M0,-3.0v7 M-2.5,-0.5L0,-3.0L2.5,-0.5"/>
                </g>
        </g>
        <svg viewBox="0 0 15 15" width="100%" height="30px" preserveAspectRatio="xMaxYMin meet">
         <g id="arrow_out" transform="scale(0.3 0.3)">
          <a xlink:href="classDPadEditDialogHelper__coll__graph_org.svg" target="_base">
           <rect id="button" ry="5" rx="5" y="6" x="6" height="38" width="38"
                fill="#f2f5e9" fill-opacity="0.5" stroke="#606060" stroke-width="1.0"/>
           <path id="arrow"
             d="M 11.500037,31.436501 C 11.940474,20.09759 22.043105,11.32322 32.158766,21.979434 L 37.068811,17.246167 C 37.068811,17.246167 37.088388,32 37.088388,32 L 22.160133,31.978069 C 22.160133,31.978069 26.997745,27.140456 26.997745,27.140456 C 18.528582,18.264221 13.291696,25.230495 11.500037,31.436501 z"
             style="fill:#404040;"/>
          </a>
         </g>
        </svg>
</svg>
