<?xml version="1.0" encoding="UTF-8" standalone="no"?>
<!DOCTYPE svg PUBLIC "-//W3C//DTD SVG 1.1//EN"
 "http://www.w3.org/Graphics/SVG/1.1/DTD/svg11.dtd">
<!-- Generated by graphviz version 2.43.0 (0)
 -->
<!-- Title: MainSettingsDialog::saveNewSettings Pages: 1 -->
<svg width="534pt" height="592pt"
 viewBox="0.00 0.00 534.00 592.44" xmlns="http://www.w3.org/2000/svg" xmlns:xlink="http://www.w3.org/1999/xlink">
<g id="graph0" class="graph" transform="scale(1 1) rotate(0) translate(4 588.44)">
<title>MainSettingsDialog::saveNewSettings</title>
<polygon fill="white" stroke="transparent" points="-4,4 -4,-588.44 530,-588.44 530,4 -4,4"/>
<!-- Node1 -->
<g id="node1" class="node">
<title>Node1</title>
<g id="a_node1"><a xlink:title=" ">
<polygon fill="#bfbfbf" stroke="black" points="0,-276.5 0,-306.5 101,-306.5 101,-276.5 0,-276.5"/>
<text text-anchor="start" x="8" y="-294.5" font-family="Helvetica,sans-Serif" font-size="10.00">MainSettingsDialog</text>
<text text-anchor="middle" x="50.5" y="-283.5" font-family="Helvetica,sans-Serif" font-size="10.00">::saveNewSettings</text>
</a>
</g>
</g>
<!-- Node2 -->
<g id="node2" class="node">
<title>Node2</title>
<g id="a_node2"><a xlink:href="$classMainSettingsDialog.html#a7da8826e7910dfd97ae68b8ac633d3f8" xlink:title=" ">
<polygon fill="white" stroke="black" points="169.5,-301.5 169.5,-331.5 280.5,-331.5 280.5,-301.5 169.5,-301.5"/>
<text text-anchor="start" x="177.5" y="-319.5" font-family="Helvetica,sans-Serif" font-size="10.00">MainSettingsDialog</text>
<text text-anchor="middle" x="225" y="-308.5" font-family="Helvetica,sans-Serif" font-size="10.00">::checkLocaleChange</text>
</a>
</g>
</g>
<!-- Node1&#45;&gt;Node2 -->
<g id="edge1" class="edge">
<title>Node1&#45;&gt;Node2</title>
<path fill="none" stroke="midnightblue" d="M101.39,-298.73C119.44,-301.35 140.09,-304.34 159.24,-307.11"/>
<polygon fill="midnightblue" stroke="midnightblue" points="158.99,-310.61 169.39,-308.59 159.99,-303.69 158.99,-310.61"/>
</g>
<!-- Node3 -->
<g id="node3" class="node">
<title>Node3</title>
<g id="a_node3"><a xlink:href="$classAntiMicroSettings.html#a4f172ffefe55eeba5afff3d54182f881" xlink:title=" ">
<polygon fill="white" stroke="black" points="387.5,-512.5 387.5,-542.5 487.5,-542.5 487.5,-512.5 387.5,-512.5"/>
<text text-anchor="start" x="395.5" y="-530.5" font-family="Helvetica,sans-Serif" font-size="10.00">AntiMicroSettings::</text>
<text text-anchor="middle" x="437.5" y="-519.5" font-family="Helvetica,sans-Serif" font-size="10.00">getLock</text>
</a>
</g>
</g>
<!-- Node1&#45;&gt;Node3 -->
<g id="edge3" class="edge">
<title>Node1&#45;&gt;Node3</title>
<path fill="none" stroke="midnightblue" d="M50.9,-306.56C49.95,-353.13 54.2,-495.29 137,-555.5 214.37,-611.77 334.39,-573.17 396.39,-546.66"/>
<polygon fill="midnightblue" stroke="midnightblue" points="398.07,-549.74 405.82,-542.52 395.26,-543.33 398.07,-549.74"/>
</g>
<!-- Node4 -->
<g id="node4" class="node">
<title>Node4</title>
<g id="a_node4"><a xlink:href="$classJoyButton.html#a65766cc767496485cc211a6e1511137a" xlink:title=" ">
<polygon fill="white" stroke="black" points="156,-477 156,-496 294,-496 294,-477 156,-477"/>
<text text-anchor="middle" x="225" y="-484" font-family="Helvetica,sans-Serif" font-size="10.00">JoyButton::getMouseHelper</text>
</a>
</g>
</g>
<!-- Node1&#45;&gt;Node4 -->
<g id="edge4" class="edge">
<title>Node1&#45;&gt;Node4</title>
<path fill="none" stroke="midnightblue" d="M54.21,-306.53C61.24,-340.86 83.34,-425.27 137,-467.5 139.97,-469.84 143.16,-471.9 146.51,-473.72"/>
<polygon fill="midnightblue" stroke="midnightblue" points="145.16,-476.95 155.7,-478 148.11,-470.6 145.16,-476.95"/>
</g>
<!-- Node5 -->
<g id="node5" class="node">
<title>Node5</title>
<g id="a_node5"><a xlink:href="$classJoyButton.html#adcbf2eb84178a075252fd096c5aee4e9" xlink:title=" ">
<polygon fill="white" stroke="black" points="157.5,-427.5 157.5,-457.5 292.5,-457.5 292.5,-427.5 157.5,-427.5"/>
<text text-anchor="start" x="165.5" y="-445.5" font-family="Helvetica,sans-Serif" font-size="10.00">JoyButton::getStaticMouse</text>
<text text-anchor="middle" x="225" y="-434.5" font-family="Helvetica,sans-Serif" font-size="10.00">EventTimer</text>
</a>
</g>
</g>
<!-- Node1&#45;&gt;Node5 -->
<g id="edge5" class="edge">
<title>Node1&#45;&gt;Node5</title>
<path fill="none" stroke="midnightblue" d="M57.69,-306.85C69.22,-333.47 96.55,-388.18 137,-417.5 140.44,-419.99 144.11,-422.23 147.95,-424.25"/>
<polygon fill="midnightblue" stroke="midnightblue" points="146.59,-427.48 157.12,-428.57 149.57,-421.15 146.59,-427.48"/>
</g>
<!-- Node6 -->
<g id="node6" class="node">
<title>Node6</title>
<g id="a_node6"><a xlink:href="$classJoyButton.html#a17ca5850b4db9dc5dc83083533d34768" xlink:title=" ">
<polygon fill="white" stroke="black" points="142.5,-389 142.5,-408 307.5,-408 307.5,-389 142.5,-389"/>
<text text-anchor="middle" x="225" y="-396" font-family="Helvetica,sans-Serif" font-size="10.00">JoyButton::getTestOldMouseTime</text>
</a>
</g>
</g>
<!-- Node1&#45;&gt;Node6 -->
<g id="edge6" class="edge">
<title>Node1&#45;&gt;Node6</title>
<path fill="none" stroke="midnightblue" d="M61.73,-306.57C76.11,-326.52 104.23,-361.28 137,-379.5 141.17,-381.82 145.6,-383.86 150.17,-385.64"/>
<polygon fill="midnightblue" stroke="midnightblue" points="149.1,-388.98 159.7,-388.98 151.41,-382.37 149.1,-388.98"/>
</g>
<!-- Node7 -->
<g id="node7" class="node">
<title>Node7</title>
<g id="a_node7"><a xlink:href="$namespacePadderCommon.html#a354573bde6a47232b838ceccca533b02" xlink:title=" ">
<polygon fill="white" stroke="black" points="140.5,-351 140.5,-370 309.5,-370 309.5,-351 140.5,-351"/>
<text text-anchor="middle" x="225" y="-358" font-family="Helvetica,sans-Serif" font-size="10.00">PadderCommon::lockInputDevices</text>
</a>
</g>
</g>
<!-- Node1&#45;&gt;Node7 -->
<g id="edge7" class="edge">
<title>Node1&#45;&gt;Node7</title>
<path fill="none" stroke="midnightblue" d="M73.03,-306.67C89.76,-317.8 113.93,-332.5 137,-341.5 143.73,-344.13 150.91,-346.43 158.14,-348.44"/>
<polygon fill="midnightblue" stroke="midnightblue" points="157.44,-351.87 168,-350.99 159.2,-345.09 157.44,-351.87"/>
</g>
<!-- Node8 -->
<g id="node8" class="node">
<title>Node8</title>
<g id="a_node8"><a xlink:href="$classMainSettingsDialog.html#a2ac3157f0e50f95986221adbbb008239" xlink:title=" ">
<polygon fill="white" stroke="black" points="161.5,-252.5 161.5,-282.5 288.5,-282.5 288.5,-252.5 161.5,-252.5"/>
<text text-anchor="start" x="169.5" y="-270.5" font-family="Helvetica,sans-Serif" font-size="10.00">MainSettingsDialog</text>
<text text-anchor="middle" x="225" y="-259.5" font-family="Helvetica,sans-Serif" font-size="10.00">::saveAutoProfileSettings</text>
</a>
</g>
</g>
<!-- Node1&#45;&gt;Node8 -->
<g id="edge8" class="edge">
<title>Node1&#45;&gt;Node8</title>
<path fill="none" stroke="midnightblue" d="M101.39,-284.56C116.89,-282.4 134.29,-279.98 151.02,-277.65"/>
<polygon fill="midnightblue" stroke="midnightblue" points="151.9,-281.07 161.32,-276.22 150.93,-274.13 151.9,-281.07"/>
</g>
<!-- Node18 -->
<g id="node18" class="node">
<title>Node18</title>
<g id="a_node18"><a xlink:href="$classJoyButton.html#a7d1de2cfa68b7d10c7ba42288b72e9e9" xlink:title="Set the gamepad poll rate to be used in the application.">
<polygon fill="white" stroke="black" points="137,-176 137,-195 313,-195 313,-176 137,-176"/>
<text text-anchor="middle" x="225" y="-183" font-family="Helvetica,sans-Serif" font-size="10.00">JoyButton::setGamepadRefreshRate</text>
</a>
</g>
</g>
<!-- Node1&#45;&gt;Node18 -->
<g id="edge19" class="edge">
<title>Node1&#45;&gt;Node18</title>
<path fill="none" stroke="midnightblue" d="M62.02,-276.26C76.52,-256.49 104.56,-222.42 137,-204.5 141.18,-202.19 145.61,-200.17 150.19,-198.38"/>
<polygon fill="midnightblue" stroke="midnightblue" points="151.43,-201.66 159.72,-195.06 149.12,-195.05 151.43,-201.66"/>
</g>
<!-- Node20 -->
<g id="node20" class="node">
<title>Node20</title>
<g id="a_node20"><a xlink:href="$classJoyButton.html#a4474e5e2e8c765aa5dcd68b5d7ef4b91" xlink:title="Set mouse history buffer size used for mouse smoothing.">
<polygon fill="white" stroke="black" points="144.5,-214 144.5,-233 305.5,-233 305.5,-214 144.5,-214"/>
<text text-anchor="middle" x="225" y="-221" font-family="Helvetica,sans-Serif" font-size="10.00">JoyButton::setMouseHistorySize</text>
</a>
</g>
</g>
<!-- Node1&#45;&gt;Node20 -->
<g id="edge21" class="edge">
<title>Node1&#45;&gt;Node20</title>
<path fill="none" stroke="midnightblue" d="M74.21,-276.38C90.95,-265.83 114.61,-252.15 137,-243.5 144.79,-240.49 153.16,-237.86 161.52,-235.58"/>
<polygon fill="midnightblue" stroke="midnightblue" points="162.47,-238.95 171.29,-233.07 160.73,-232.17 162.47,-238.95"/>
</g>
<!-- Node21 -->
<g id="node21" class="node">
<title>Node21</title>
<g id="a_node21"><a xlink:href="$classJoyButton.html#a77fcc637c78243eff0d2911e18d79933" xlink:title="Set the mouse refresh rate when a mouse slot is active.">
<polygon fill="white" stroke="black" points="143,-50 143,-69 307,-69 307,-50 143,-50"/>
<text text-anchor="middle" x="225" y="-57" font-family="Helvetica,sans-Serif" font-size="10.00">JoyButton::setMouseRefreshRate</text>
</a>
</g>
</g>
<!-- Node1&#45;&gt;Node21 -->
<g id="edge22" class="edge">
<title>Node1&#45;&gt;Node21</title>
<path fill="none" stroke="midnightblue" d="M52.84,-276.36C57.15,-237.13 74.33,-131.51 137,-78.5 138.82,-76.96 140.74,-75.53 142.74,-74.22"/>
<polygon fill="midnightblue" stroke="midnightblue" points="144.89,-77.03 151.94,-69.11 141.5,-70.9 144.89,-77.03"/>
</g>
<!-- Node23 -->
<g id="node23" class="node">
<title>Node23</title>
<g id="a_node23"><a xlink:href="$classJoyButton.html#a2aace0b4e094ecc9f3642eaa90841e4f" xlink:title=" ">
<polygon fill="white" stroke="black" points="159,-126.5 159,-156.5 291,-156.5 291,-126.5 159,-126.5"/>
<text text-anchor="start" x="167" y="-144.5" font-family="Helvetica,sans-Serif" font-size="10.00">JoyButton::setSpringMode</text>
<text text-anchor="middle" x="225" y="-133.5" font-family="Helvetica,sans-Serif" font-size="10.00">Screen</text>
</a>
</g>
</g>
<!-- Node1&#45;&gt;Node23 -->
<g id="edge24" class="edge">
<title>Node1&#45;&gt;Node23</title>
<path fill="none" stroke="midnightblue" d="M57.73,-276.27C69.31,-249.86 96.71,-195.59 137,-166.5 140.93,-163.66 145.18,-161.14 149.62,-158.91"/>
<polygon fill="midnightblue" stroke="midnightblue" points="151.25,-162.01 158.93,-154.71 148.38,-155.63 151.25,-162.01"/>
</g>
<!-- Node24 -->
<g id="node24" class="node">
<title>Node24</title>
<g id="a_node24"><a xlink:href="$classJoyButton.html#af85f86003ec07d782d02ca515039f229" xlink:title="Set the weight modifier to use for mouse smoothing.">
<polygon fill="white" stroke="black" points="152.5,-88 152.5,-107 297.5,-107 297.5,-88 152.5,-88"/>
<text text-anchor="middle" x="225" y="-95" font-family="Helvetica,sans-Serif" font-size="10.00">JoyButton::setWeightModifier</text>
</a>
</g>
</g>
<!-- Node1&#45;&gt;Node24 -->
<g id="edge25" class="edge">
<title>Node1&#45;&gt;Node24</title>
<path fill="none" stroke="midnightblue" d="M54.35,-276.42C61.62,-242.4 84.1,-159.41 137,-117.5 139.82,-115.27 142.84,-113.27 146.01,-111.5"/>
<polygon fill="midnightblue" stroke="midnightblue" points="147.77,-114.53 155.26,-107.04 144.73,-108.23 147.77,-114.53"/>
</g>
<!-- Node25 -->
<g id="node25" class="node">
<title>Node25</title>
<g id="a_node25"><a xlink:href="$classMainSettingsDialog.html#a42978a685f72cc5ad338029a6639903b" xlink:title=" ">
<polygon fill="white" stroke="black" points="167,-515.5 167,-545.5 283,-545.5 283,-515.5 167,-515.5"/>
<text text-anchor="start" x="175" y="-533.5" font-family="Helvetica,sans-Serif" font-size="10.00">MainSettingsDialog</text>
<text text-anchor="middle" x="225" y="-522.5" font-family="Helvetica,sans-Serif" font-size="10.00">::syncMappingSettings</text>
</a>
</g>
</g>
<!-- Node1&#45;&gt;Node25 -->
<g id="edge26" class="edge">
<title>Node1&#45;&gt;Node25</title>
<path fill="none" stroke="midnightblue" d="M53.05,-306.76C57.85,-345.84 76.02,-450.35 137,-505.5 142.9,-510.84 149.87,-515.04 157.25,-518.35"/>
<polygon fill="midnightblue" stroke="midnightblue" points="156.19,-521.69 166.78,-522.08 158.75,-515.18 156.19,-521.69"/>
</g>
<!-- Node26 -->
<g id="node26" class="node">
<title>Node26</title>
<g id="a_node26"><a xlink:href="$namespacePadderCommon.html#a5de97eeb52ef44a36a1caba613b7a343" xlink:title=" ">
<polygon fill="white" stroke="black" points="153.5,-0.5 153.5,-30.5 296.5,-30.5 296.5,-0.5 153.5,-0.5"/>
<text text-anchor="start" x="161.5" y="-18.5" font-family="Helvetica,sans-Serif" font-size="10.00">PadderCommon::unlockInput</text>
<text text-anchor="middle" x="225" y="-7.5" font-family="Helvetica,sans-Serif" font-size="10.00">Devices</text>
</a>
</g>
</g>
<!-- Node1&#45;&gt;Node26 -->
<g id="edge28" class="edge">
<title>Node1&#45;&gt;Node26</title>
<path fill="none" stroke="midnightblue" d="M52.03,-276.25C54.37,-232.76 67.17,-107.02 137,-40.5 139.31,-38.29 141.81,-36.28 144.45,-34.45"/>
<polygon fill="midnightblue" stroke="midnightblue" points="146.49,-37.3 153.28,-29.16 142.9,-31.29 146.49,-37.3"/>
</g>
<!-- Node2&#45;&gt;Node3 -->
<g id="edge2" class="edge">
<title>Node2&#45;&gt;Node3</title>
<path fill="none" stroke="midnightblue" d="M280.57,-322.75C292.63,-326.5 304.36,-332.37 313,-341.5 362.49,-393.83 300.3,-446.44 349,-499.5 356.76,-507.95 367.06,-513.87 377.87,-518"/>
<polygon fill="midnightblue" stroke="midnightblue" points="376.86,-521.35 387.45,-521.19 379.07,-514.71 376.86,-521.35"/>
</g>
<!-- Node8&#45;&gt;Node3 -->
<g id="edge12" class="edge">
<title>Node8&#45;&gt;Node3</title>
<path fill="none" stroke="midnightblue" d="M288.51,-276.14C297.76,-279.88 306.39,-285.13 313,-292.5 375.38,-361.99 287.66,-429.09 349,-499.5 356.54,-508.15 366.74,-514.15 377.53,-518.31"/>
<polygon fill="midnightblue" stroke="midnightblue" points="376.51,-521.66 387.1,-521.5 378.73,-515.02 376.51,-521.66"/>
</g>
<!-- Node9 -->
<g id="node9" class="node">
<title>Node9</title>
<g id="a_node9"><a xlink:href="$classMainSettingsDialog.html#a13f64f1f6b38c47b6fb5f37533dfdeb8" xlink:title=" ">
<polygon fill="white" stroke="black" points="349,-334.5 349,-364.5 526,-364.5 526,-334.5 349,-334.5"/>
<text text-anchor="start" x="357" y="-352.5" font-family="Helvetica,sans-Serif" font-size="10.00">MainSettingsDialog</text>
<text text-anchor="middle" x="437.5" y="-341.5" font-family="Helvetica,sans-Serif" font-size="10.00">::convToUniqueIDAutoProfGroupSett</text>
</a>
</g>
</g>
<!-- Node8&#45;&gt;Node9 -->
<g id="edge9" class="edge">
<title>Node8&#45;&gt;Node9</title>
<path fill="none" stroke="midnightblue" d="M288.67,-281.82C297.09,-284.8 305.43,-288.33 313,-292.5 331.75,-302.82 330.24,-314.19 349,-324.5 353,-326.7 357.22,-328.72 361.54,-330.58"/>
<polygon fill="midnightblue" stroke="midnightblue" points="360.57,-333.96 371.16,-334.38 363.15,-327.45 360.57,-333.96"/>
</g>
<!-- Node10 -->
<g id="node10" class="node">
<title>Node10</title>
<g id="a_node10"><a xlink:href="$classAutoProfileInfo.html#a79dc148898bc863eb5ceedc88d8f7638" xlink:title=" ">
<polygon fill="white" stroke="black" points="358.5,-296 358.5,-315 516.5,-315 516.5,-296 358.5,-296"/>
<text text-anchor="middle" x="437.5" y="-303" font-family="Helvetica,sans-Serif" font-size="10.00">AutoProfileInfo::getDeviceName</text>
</a>
</g>
</g>
<!-- Node8&#45;&gt;Node10 -->
<g id="edge10" class="edge">
<title>Node8&#45;&gt;Node10</title>
<path fill="none" stroke="midnightblue" d="M288.59,-278.8C315.45,-283.65 346.78,-289.3 373.67,-294.16"/>
<polygon fill="midnightblue" stroke="midnightblue" points="373.28,-297.64 383.74,-295.98 374.53,-290.76 373.28,-297.64"/>
</g>
<!-- Node11 -->
<g id="node11" class="node">
<title>Node11</title>
<g id="a_node11"><a xlink:href="$classAutoProfileInfo.html#a2c94a2f2793b09a153adbabc8c555eda" xlink:title=" ">
<polygon fill="white" stroke="black" points="379,-258 379,-277 496,-277 496,-258 379,-258"/>
<text text-anchor="middle" x="437.5" y="-265" font-family="Helvetica,sans-Serif" font-size="10.00">AutoProfileInfo::getExe</text>
</a>
</g>
</g>
<!-- Node8&#45;&gt;Node11 -->
<g id="edge11" class="edge">
<title>Node8&#45;&gt;Node11</title>
<path fill="none" stroke="midnightblue" d="M288.59,-267.5C313.84,-267.5 343.03,-267.5 368.77,-267.5"/>
<polygon fill="midnightblue" stroke="midnightblue" points="368.83,-271 378.83,-267.5 368.83,-264 368.83,-271"/>
</g>
<!-- Node12 -->
<g id="node12" class="node">
<title>Node12</title>
<g id="a_node12"><a xlink:href="$classAutoProfileInfo.html#a542720df3f705eb79255b4b85af7b1a5" xlink:title=" ">
<polygon fill="white" stroke="black" points="373.5,-208.5 373.5,-238.5 501.5,-238.5 501.5,-208.5 373.5,-208.5"/>
<text text-anchor="start" x="381.5" y="-226.5" font-family="Helvetica,sans-Serif" font-size="10.00">AutoProfileInfo::getProfile</text>
<text text-anchor="middle" x="437.5" y="-215.5" font-family="Helvetica,sans-Serif" font-size="10.00">Location</text>
</a>
</g>
</g>
<!-- Node8&#45;&gt;Node12 -->
<g id="edge13" class="edge">
<title>Node8&#45;&gt;Node12</title>
<path fill="none" stroke="midnightblue" d="M288.59,-254.42C312.13,-249.5 339.09,-243.86 363.5,-238.76"/>
<polygon fill="midnightblue" stroke="midnightblue" points="364.35,-242.16 373.43,-236.68 362.92,-235.3 364.35,-242.16"/>
</g>
<!-- Node13 -->
<g id="node13" class="node">
<title>Node13</title>
<g id="a_node13"><a xlink:href="$classAutoProfileInfo.html#aba94c3fdd9e66bf8dc42a74237ff911c" xlink:title=" ">
<polygon fill="white" stroke="black" points="366.5,-170 366.5,-189 508.5,-189 508.5,-170 366.5,-170"/>
<text text-anchor="middle" x="437.5" y="-177" font-family="Helvetica,sans-Serif" font-size="10.00">AutoProfileInfo::getUniqueID</text>
</a>
</g>
</g>
<!-- Node8&#45;&gt;Node13 -->
<g id="edge14" class="edge">
<title>Node8&#45;&gt;Node13</title>
<path fill="none" stroke="midnightblue" d="M288.82,-254.35C297.31,-251.2 305.62,-247.3 313,-242.5 333.89,-228.91 327.74,-212.51 349,-199.5 353.37,-196.82 358.07,-194.5 362.93,-192.49"/>
<polygon fill="midnightblue" stroke="midnightblue" points="364.26,-195.73 372.44,-189 361.85,-189.16 364.26,-195.73"/>
</g>
<!-- Node14 -->
<g id="node14" class="node">
<title>Node14</title>
<g id="a_node14"><a xlink:href="$classAutoProfileInfo.html#a37dfba098d3c8a8e90beca36b2f3561b" xlink:title=" ">
<polygon fill="white" stroke="black" points="369.5,-120.5 369.5,-150.5 505.5,-150.5 505.5,-120.5 369.5,-120.5"/>
<text text-anchor="start" x="377.5" y="-138.5" font-family="Helvetica,sans-Serif" font-size="10.00">AutoProfileInfo::getWindow</text>
<text text-anchor="middle" x="437.5" y="-127.5" font-family="Helvetica,sans-Serif" font-size="10.00">Class</text>
</a>
</g>
</g>
<!-- Node8&#45;&gt;Node14 -->
<g id="edge15" class="edge">
<title>Node8&#45;&gt;Node14</title>
<path fill="none" stroke="midnightblue" d="M288.87,-256.71C297.64,-253.22 306.02,-248.6 313,-242.5 342.96,-216.3 319.02,-186.68 349,-160.5 352.44,-157.5 356.22,-154.85 360.22,-152.53"/>
<polygon fill="midnightblue" stroke="midnightblue" points="361.94,-155.57 369.27,-147.92 358.77,-149.33 361.94,-155.57"/>
</g>
<!-- Node15 -->
<g id="node15" class="node">
<title>Node15</title>
<g id="a_node15"><a xlink:href="$classAutoProfileInfo.html#a8136af0d4f8e0fcdc0f6562dd6ec9c48" xlink:title=" ">
<polygon fill="white" stroke="black" points="356.5,-471 356.5,-490 518.5,-490 518.5,-471 356.5,-471"/>
<text text-anchor="middle" x="437.5" y="-478" font-family="Helvetica,sans-Serif" font-size="10.00">AutoProfileInfo::getWindowName</text>
</a>
</g>
</g>
<!-- Node8&#45;&gt;Node15 -->
<g id="edge16" class="edge">
<title>Node8&#45;&gt;Node15</title>
<path fill="none" stroke="midnightblue" d="M288.72,-276.53C297.83,-280.23 306.36,-285.37 313,-292.5 365.37,-348.67 294.8,-407.09 349,-461.5 350.28,-462.79 351.63,-464 353.03,-465.13"/>
<polygon fill="midnightblue" stroke="midnightblue" points="351.37,-468.23 361.64,-470.86 355.25,-462.41 351.37,-468.23"/>
</g>
<!-- Node16 -->
<g id="node16" class="node">
<title>Node16</title>
<g id="a_node16"><a xlink:href="$classAutoProfileInfo.html#a51f57cf7cda4e66b052d12e5a8879785" xlink:title=" ">
<polygon fill="white" stroke="black" points="376.5,-433 376.5,-452 498.5,-452 498.5,-433 376.5,-433"/>
<text text-anchor="middle" x="437.5" y="-440" font-family="Helvetica,sans-Serif" font-size="10.00">AutoProfileInfo::isActive</text>
</a>
</g>
</g>
<!-- Node8&#45;&gt;Node16 -->
<g id="edge17" class="edge">
<title>Node8&#45;&gt;Node16</title>
<path fill="none" stroke="midnightblue" d="M288.8,-277.05C297.79,-280.69 306.26,-285.68 313,-292.5 355.45,-335.44 305.16,-381.98 349,-423.5 354.08,-428.31 360.08,-432.02 366.52,-434.86"/>
<polygon fill="midnightblue" stroke="midnightblue" points="365.62,-438.26 376.21,-438.43 368.04,-431.69 365.62,-438.26"/>
</g>
<!-- Node17 -->
<g id="node17" class="node">
<title>Node17</title>
<g id="a_node17"><a xlink:href="$classAutoProfileInfo.html#a553164ad155d884279b15d8533438c73" xlink:title=" ">
<polygon fill="white" stroke="black" points="376,-383.5 376,-413.5 499,-413.5 499,-383.5 376,-383.5"/>
<text text-anchor="start" x="384" y="-401.5" font-family="Helvetica,sans-Serif" font-size="10.00">AutoProfileInfo::isPartial</text>
<text text-anchor="middle" x="437.5" y="-390.5" font-family="Helvetica,sans-Serif" font-size="10.00">State</text>
</a>
</g>
</g>
<!-- Node8&#45;&gt;Node17 -->
<g id="edge18" class="edge">
<title>Node8&#45;&gt;Node17</title>
<path fill="none" stroke="midnightblue" d="M288.87,-278.29C297.64,-281.78 306.02,-286.4 313,-292.5 342.96,-318.7 318.88,-348.48 349,-374.5 354.21,-379 360.18,-382.66 366.51,-385.64"/>
<polygon fill="midnightblue" stroke="midnightblue" points="365.42,-388.97 376,-389.53 368.08,-382.5 365.42,-388.97"/>
</g>
<!-- Node19 -->
<g id="node19" class="node">
<title>Node19</title>
<g id="a_node19"><a xlink:href="$classJoyButtonMouseHelper.html#ae4655a0a7f9e15f5701715e0c87fa8c7" xlink:title=" ">
<polygon fill="white" stroke="black" points="367.5,-71.5 367.5,-101.5 507.5,-101.5 507.5,-71.5 367.5,-71.5"/>
<text text-anchor="start" x="375.5" y="-89.5" font-family="Helvetica,sans-Serif" font-size="10.00">JoyButtonMouseHelper</text>
<text text-anchor="middle" x="437.5" y="-78.5" font-family="Helvetica,sans-Serif" font-size="10.00">::carryGamePollRateUpdate</text>
</a>
</g>
</g>
<!-- Node18&#45;&gt;Node19 -->
<g id="edge20" class="edge">
<title>Node18&#45;&gt;Node19</title>
<path fill="none" stroke="midnightblue" d="M294.65,-175.93C301.15,-173.45 307.4,-170.36 313,-166.5 337.06,-149.93 325.48,-128.82 349,-111.5 351.89,-109.37 354.95,-107.43 358.13,-105.65"/>
<polygon fill="midnightblue" stroke="midnightblue" points="359.98,-108.64 367.38,-101.06 356.87,-102.37 359.98,-108.64"/>
</g>
<!-- Node22 -->
<g id="node22" class="node">
<title>Node22</title>
<g id="a_node22"><a xlink:href="$classJoyButtonMouseHelper.html#af68566bd3590fd3070cf044a61824c75" xlink:title=" ">
<polygon fill="white" stroke="black" points="357.5,-22.5 357.5,-52.5 517.5,-52.5 517.5,-22.5 357.5,-22.5"/>
<text text-anchor="start" x="365.5" y="-40.5" font-family="Helvetica,sans-Serif" font-size="10.00">JoyButtonMouseHelper</text>
<text text-anchor="middle" x="437.5" y="-29.5" font-family="Helvetica,sans-Serif" font-size="10.00">::carryMouseRefreshRateUpdate</text>
</a>
</g>
</g>
<!-- Node21&#45;&gt;Node22 -->
<g id="edge23" class="edge">
<title>Node21&#45;&gt;Node22</title>
<path fill="none" stroke="midnightblue" d="M307.08,-51.03C320.19,-49.66 333.82,-48.23 347.11,-46.84"/>
<polygon fill="midnightblue" stroke="midnightblue" points="347.61,-50.31 357.19,-45.79 346.88,-43.35 347.61,-50.31"/>
</g>
<!-- Node25&#45;&gt;Node3 -->
<g id="edge27" class="edge">
<title>Node25&#45;&gt;Node3</title>
<path fill="none" stroke="midnightblue" d="M283.24,-529.68C312.43,-529.27 347.88,-528.76 377.34,-528.34"/>
<polygon fill="midnightblue" stroke="midnightblue" points="377.54,-531.84 387.49,-528.2 377.44,-524.84 377.54,-531.84"/>
</g>
</g>
</svg>
