<?xml version="1.0" encoding="UTF-8" standalone="no"?>
<!DOCTYPE svg PUBLIC "-//W3C//DTD SVG 1.1//EN"
 "http://www.w3.org/Graphics/SVG/1.1/DTD/svg11.dtd">
<!-- Generated by graphviz version 2.43.0 (0)
 -->
<!-- Title: JoyControlStick::getButtonsPresetSensitivity Pages: 1 -->
<svg width="333pt" height="78pt"
 viewBox="0.00 0.00 333.00 77.50" xmlns="http://www.w3.org/2000/svg" xmlns:xlink="http://www.w3.org/1999/xlink">
<g id="graph0" class="graph" transform="scale(1 1) rotate(0) translate(4 73.5)">
<title>JoyControlStick::getButtonsPresetSensitivity</title>
<polygon fill="white" stroke="transparent" points="-4,4 -4,-73.5 329,-73.5 329,4 -4,4"/>
<!-- Node1 -->
<g id="node1" class="node">
<title>Node1</title>
<g id="a_node1"><a xlink:title=" ">
<polygon fill="#bfbfbf" stroke="black" points="0,-17 0,-47 139,-47 139,-17 0,-17"/>
<text text-anchor="start" x="8" y="-35" font-family="Helvetica,sans-Serif" font-size="10.00">JoyControlStick::getButtons</text>
<text text-anchor="middle" x="69.5" y="-24" font-family="Helvetica,sans-Serif" font-size="10.00">PresetSensitivity</text>
</a>
</g>
</g>
<!-- Node2 -->
<g id="node2" class="node">
<title>Node2</title>
<g id="a_node2"><a xlink:href="classJoyControlStick.html#a79d9ede9279281b0074eca6e2d99e8ec" target="_top" xlink:title=" ">
<polygon fill="white" stroke="black" points="175,-39 175,-69 325,-69 325,-39 175,-39"/>
<text text-anchor="start" x="183" y="-57" font-family="Helvetica,sans-Serif" font-size="10.00">JoyControlStick::getApplicable</text>
<text text-anchor="middle" x="250" y="-46" font-family="Helvetica,sans-Serif" font-size="10.00">Buttons</text>
</a>
</g>
</g>
<!-- Node1&#45;&gt;Node2 -->
<g id="edge1" class="edge">
<title>Node1&#45;&gt;Node2</title>
<path fill="none" stroke="midnightblue" d="M139,-40.44C147.41,-41.48 156.08,-42.55 164.69,-43.61"/>
<polygon fill="midnightblue" stroke="midnightblue" points="164.39,-47.1 174.75,-44.85 165.25,-40.15 164.39,-47.1"/>
</g>
<!-- Node3 -->
<g id="node3" class="node">
<title>Node3</title>
<g id="a_node3"><a xlink:href="classJoyButton.html#ac401cbfb9ac4d75cef4f8bc786172118" target="_top" xlink:title=" ">
<polygon fill="white" stroke="black" points="187,-0.5 187,-19.5 313,-19.5 313,-0.5 187,-0.5"/>
<text text-anchor="middle" x="250" y="-7.5" font-family="Helvetica,sans-Serif" font-size="10.00">JoyButton::getSensitivity</text>
</a>
</g>
</g>
<!-- Node1&#45;&gt;Node3 -->
<g id="edge2" class="edge">
<title>Node1&#45;&gt;Node3</title>
<path fill="none" stroke="midnightblue" d="M139,-23.56C151.29,-22.04 164.14,-20.46 176.53,-18.93"/>
<polygon fill="midnightblue" stroke="midnightblue" points="177.32,-22.36 186.82,-17.66 176.47,-15.41 177.32,-22.36"/>
</g>
</g>
</svg>
