<?xml version="1.0" encoding="UTF-8" standalone="no"?>
<!DOCTYPE svg PUBLIC "-//W3C//DTD SVG 1.1//EN"
 "http://www.w3.org/Graphics/SVG/1.1/DTD/svg11.dtd">
<!-- Generated by graphviz version 2.43.0 (0)
 -->
<!-- Title: JoyAxis::getRawDistance Pages: 1 -->
<svg width="347pt" height="88pt"
 viewBox="0.00 0.00 347.00 88.00" xmlns="http://www.w3.org/2000/svg" xmlns:xlink="http://www.w3.org/1999/xlink">
<g id="graph0" class="graph" transform="scale(1 1) rotate(0) translate(4 84)">
<title>JoyAxis::getRawDistance</title>
<polygon fill="white" stroke="transparent" points="-4,4 -4,-84 343,-84 343,4 -4,4"/>
<!-- Node1 -->
<g id="node1" class="node">
<title>Node1</title>
<g id="a_node1"><a xlink:title="Get the current value for an axis in either direction converted to the range of &#45;1....">
<polygon fill="#bfbfbf" stroke="black" points="209,-30 209,-49 339,-49 339,-30 209,-30"/>
<text text-anchor="middle" x="274" y="-37" font-family="Helvetica,sans-Serif" font-size="10.00">JoyAxis::getRawDistance</text>
</a>
</g>
</g>
<!-- Node2 -->
<g id="node2" class="node">
<title>Node2</title>
<g id="a_node2"><a xlink:href="classJoyAxisButton.html#a429addc0206287a1b5662c97c000e9b4" target="_top" xlink:title=" ">
<polygon fill="white" stroke="black" points="9.5,-49.5 9.5,-79.5 163.5,-79.5 163.5,-49.5 9.5,-49.5"/>
<text text-anchor="start" x="17.5" y="-67.5" font-family="Helvetica,sans-Serif" font-size="10.00">JoyAxisButton::getAcceleration</text>
<text text-anchor="middle" x="86.5" y="-56.5" font-family="Helvetica,sans-Serif" font-size="10.00">Distance</text>
</a>
</g>
</g>
<!-- Node1&#45;&gt;Node2 -->
<g id="edge1" class="edge">
<title>Node1&#45;&gt;Node2</title>
<path fill="none" stroke="midnightblue" d="M198.87,-49.49C187.31,-51.05 175.35,-52.66 163.74,-54.23"/>
<polygon fill="midnightblue" stroke="midnightblue" points="199.46,-52.94 208.9,-48.14 198.52,-46.01 199.46,-52.94"/>
</g>
<!-- Node3 -->
<g id="node3" class="node">
<title>Node3</title>
<g id="a_node3"><a xlink:href="classJoyAxisButton.html#a75bae441e0c77e1821b1764f65baa529" target="_top" xlink:title=" ">
<polygon fill="white" stroke="black" points="0,-0.5 0,-30.5 173,-30.5 173,-0.5 0,-0.5"/>
<text text-anchor="start" x="8" y="-18.5" font-family="Helvetica,sans-Serif" font-size="10.00">JoyAxisButton::getLastAcceleration</text>
<text text-anchor="middle" x="86.5" y="-7.5" font-family="Helvetica,sans-Serif" font-size="10.00">Distance</text>
</a>
</g>
</g>
<!-- Node1&#45;&gt;Node3 -->
<g id="edge2" class="edge">
<title>Node1&#45;&gt;Node3</title>
<path fill="none" stroke="midnightblue" d="M198.77,-29.9C190.36,-28.81 181.74,-27.69 173.19,-26.59"/>
<polygon fill="midnightblue" stroke="midnightblue" points="198.54,-33.39 208.9,-31.21 199.43,-26.45 198.54,-33.39"/>
</g>
</g>
</svg>
