<?xml version="1.0" encoding="UTF-8" standalone="no"?>
<!DOCTYPE svg PUBLIC "-//W3C//DTD SVG 1.1//EN"
 "http://www.w3.org/Graphics/SVG/1.1/DTD/svg11.dtd">
<!-- Generated by graphviz version 2.43.0 (0)
 -->
<!-- Title: DPadContextMenu::generateActionMode Pages: 1 -->
<svg width="507pt" height="39pt"
 viewBox="0.00 0.00 507.00 39.00" xmlns="http://www.w3.org/2000/svg" xmlns:xlink="http://www.w3.org/1999/xlink">
<g id="graph0" class="graph" transform="scale(1 1) rotate(0) translate(4 35)">
<title>DPadContextMenu::generateActionMode</title>
<polygon fill="white" stroke="transparent" points="-4,4 -4,-35 503,-35 503,4 -4,4"/>
<!-- Node1 -->
<g id="node1" class="node">
<title>Node1</title>
<g id="a_node1"><a xlink:title=" ">
<polygon fill="#bfbfbf" stroke="black" points="0,-0.5 0,-30.5 143,-30.5 143,-0.5 0,-0.5"/>
<text text-anchor="start" x="8" y="-18.5" font-family="Helvetica,sans-Serif" font-size="10.00">DPadContextMenu::generate</text>
<text text-anchor="middle" x="71.5" y="-7.5" font-family="Helvetica,sans-Serif" font-size="10.00">ActionMode</text>
</a>
</g>
</g>
<!-- Node2 -->
<g id="node2" class="node">
<title>Node2</title>
<g id="a_node2"><a xlink:href="classDPadContextMenu.html#a13e390013b02411aabc85d1e4b17891a" target="_top" xlink:title="Set the appropriate mode for a DPad based on the item chosen.">
<polygon fill="white" stroke="black" points="179,-6 179,-25 347,-25 347,-6 179,-6"/>
<text text-anchor="middle" x="263" y="-13" font-family="Helvetica,sans-Serif" font-size="10.00">DPadContextMenu::setDPadMode</text>
</a>
</g>
</g>
<!-- Node1&#45;&gt;Node2 -->
<g id="edge1" class="edge">
<title>Node1&#45;&gt;Node2</title>
<path fill="none" stroke="midnightblue" d="M143.06,-15.5C151.46,-15.5 160.13,-15.5 168.77,-15.5"/>
<polygon fill="midnightblue" stroke="midnightblue" points="168.9,-19 178.9,-15.5 168.9,-12 168.9,-19"/>
</g>
<!-- Node3 -->
<g id="node3" class="node">
<title>Node3</title>
<g id="a_node3"><a xlink:href="classJoyDPad.html#ae912673a382e0ffcdd1472373ffe832b" target="_top" xlink:title=" ">
<polygon fill="white" stroke="black" points="383,-6 383,-25 499,-25 499,-6 383,-6"/>
<text text-anchor="middle" x="441" y="-13" font-family="Helvetica,sans-Serif" font-size="10.00">JoyDPad::setJoyMode</text>
</a>
</g>
</g>
<!-- Node2&#45;&gt;Node3 -->
<g id="edge2" class="edge">
<title>Node2&#45;&gt;Node3</title>
<path fill="none" stroke="midnightblue" d="M347.1,-15.5C355.71,-15.5 364.38,-15.5 372.78,-15.5"/>
<polygon fill="midnightblue" stroke="midnightblue" points="372.87,-19 382.87,-15.5 372.87,-12 372.87,-19"/>
</g>
</g>
</svg>
