<?xml version="1.0" encoding="UTF-8" standalone="no"?>
<!DOCTYPE svg PUBLIC "-//W3C//DTD SVG 1.1//EN"
 "http://www.w3.org/Graphics/SVG/1.1/DTD/svg11.dtd">
<!-- Generated by graphviz version 2.43.0 (0)
 -->
<!-- Title: JoyButton::setSpringWidth Pages: 1 -->
<svg width="1164pt" height="304pt"
 viewBox="0.00 0.00 1164.00 304.36" xmlns="http://www.w3.org/2000/svg" xmlns:xlink="http://www.w3.org/1999/xlink">
<g id="graph0" class="graph" transform="scale(1 1) rotate(0) translate(4 300.36)">
<title>JoyButton::setSpringWidth</title>
<polygon fill="white" stroke="transparent" points="-4,4 -4,-300.36 1160,-300.36 1160,4 -4,4"/>
<!-- Node1 -->
<g id="node1" class="node">
<title>Node1</title>
<g id="a_node1"><a xlink:title=" ">
<polygon fill="#bfbfbf" stroke="black" points="1022,-90.5 1022,-109.5 1156,-109.5 1156,-90.5 1022,-90.5"/>
<text text-anchor="middle" x="1089" y="-97.5" font-family="Helvetica,sans-Serif" font-size="10.00">JoyButton::setSpringWidth</text>
</a>
</g>
</g>
<!-- Node2 -->
<g id="node2" class="node">
<title>Node2</title>
<g id="a_node2"><a xlink:href="$classJoyButtonXml.html#a9d7b2a6324a2f8fe4f424f78aa43d261" xlink:title=" ">
<polygon fill="white" stroke="black" points="851,-159 851,-189 982,-189 982,-159 851,-159"/>
<text text-anchor="start" x="859" y="-177" font-family="Helvetica,sans-Serif" font-size="10.00">JoyButtonXml::readButton</text>
<text text-anchor="middle" x="916.5" y="-166" font-family="Helvetica,sans-Serif" font-size="10.00">Config</text>
</a>
</g>
</g>
<!-- Node1&#45;&gt;Node2 -->
<g id="edge1" class="edge">
<title>Node1&#45;&gt;Node2</title>
<path fill="none" stroke="midnightblue" d="M1061.26,-114.19C1040.92,-124.73 1012.07,-139.09 986,-150 978.68,-153.07 970.81,-156.08 963.11,-158.87"/>
<polygon fill="midnightblue" stroke="midnightblue" points="1062.99,-117.24 1070.24,-109.51 1059.76,-111.03 1062.99,-117.24"/>
</g>
<!-- Node12 -->
<g id="node12" class="node">
<title>Node12</title>
<g id="a_node12"><a xlink:href="$classJoyDPad.html#a155353a48732ebfab8dab8d9e3be14f5" xlink:title=" ">
<polygon fill="white" stroke="black" points="847.5,-110 847.5,-140 985.5,-140 985.5,-110 847.5,-110"/>
<text text-anchor="start" x="855.5" y="-128" font-family="Helvetica,sans-Serif" font-size="10.00">JoyDPad::setButtonsSpring</text>
<text text-anchor="middle" x="916.5" y="-117" font-family="Helvetica,sans-Serif" font-size="10.00">Width</text>
</a>
</g>
</g>
<!-- Node1&#45;&gt;Node12 -->
<g id="edge12" class="edge">
<title>Node1&#45;&gt;Node12</title>
<path fill="none" stroke="midnightblue" d="M1012.91,-111.01C1003.84,-112.34 994.62,-113.69 985.67,-115.01"/>
<polygon fill="midnightblue" stroke="midnightblue" points="1013.67,-114.44 1023.05,-109.52 1012.65,-107.51 1013.67,-114.44"/>
</g>
<!-- Node15 -->
<g id="node15" class="node">
<title>Node15</title>
<g id="a_node15"><a xlink:href="$classJoyAxis.html#a49f70f585de01ea1fd7230da452ce30b" xlink:title=" ">
<polygon fill="white" stroke="black" points="850,-61 850,-91 983,-91 983,-61 850,-61"/>
<text text-anchor="start" x="858" y="-79" font-family="Helvetica,sans-Serif" font-size="10.00">JoyAxis::setButtonsSpring</text>
<text text-anchor="middle" x="916.5" y="-68" font-family="Helvetica,sans-Serif" font-size="10.00">Width</text>
</a>
</g>
</g>
<!-- Node1&#45;&gt;Node15 -->
<g id="edge15" class="edge">
<title>Node1&#45;&gt;Node15</title>
<path fill="none" stroke="midnightblue" d="M1011.43,-89.22C1002,-87.89 992.42,-86.55 983.17,-85.24"/>
<polygon fill="midnightblue" stroke="midnightblue" points="1011.2,-92.72 1021.59,-90.65 1012.18,-85.79 1011.2,-92.72"/>
</g>
<!-- Node18 -->
<g id="node18" class="node">
<title>Node18</title>
<g id="a_node18"><a xlink:href="$classJoyControlStick.html#a154037f9f823973c376ef5c212b4fe5c" xlink:title=" ">
<polygon fill="white" stroke="black" points="847,-12 847,-42 986,-42 986,-12 847,-12"/>
<text text-anchor="start" x="855" y="-30" font-family="Helvetica,sans-Serif" font-size="10.00">JoyControlStick::setButtons</text>
<text text-anchor="middle" x="916.5" y="-19" font-family="Helvetica,sans-Serif" font-size="10.00">SpringWidth</text>
</a>
</g>
</g>
<!-- Node1&#45;&gt;Node18 -->
<g id="edge18" class="edge">
<title>Node1&#45;&gt;Node18</title>
<path fill="none" stroke="midnightblue" d="M1060.49,-85.76C1040.17,-75.5 1011.7,-61.64 986,-51 978.55,-47.92 970.54,-44.87 962.72,-42.05"/>
<polygon fill="midnightblue" stroke="midnightblue" points="1058.98,-88.92 1069.48,-90.34 1062.16,-82.68 1058.98,-88.92"/>
</g>
<!-- Node3 -->
<g id="node3" class="node">
<title>Node3</title>
<g id="a_node3"><a xlink:href="$classJoyButtonXml.html#a9d79d75b14b57419ed1fc5639dde8515" xlink:title=" ">
<polygon fill="white" stroke="black" points="674,-235.5 674,-254.5 805,-254.5 805,-235.5 674,-235.5"/>
<text text-anchor="middle" x="739.5" y="-242.5" font-family="Helvetica,sans-Serif" font-size="10.00">JoyButtonXml::readConfig</text>
</a>
</g>
</g>
<!-- Node2&#45;&gt;Node3 -->
<g id="edge2" class="edge">
<title>Node2&#45;&gt;Node3</title>
<path fill="none" stroke="midnightblue" d="M868.73,-192.98C834.99,-206.66 790.86,-224.57 764.15,-235.41"/>
<polygon fill="midnightblue" stroke="midnightblue" points="870.44,-196.06 878.39,-189.06 867.8,-189.57 870.44,-196.06"/>
</g>
<!-- Node7 -->
<g id="node7" class="node">
<title>Node7</title>
<g id="a_node7"><a xlink:href="$classGameControllerTriggerButton.html#a1c89ef4d420dfe360817c28bc1680c93" xlink:title=" ">
<polygon fill="white" stroke="black" points="668,-159 668,-189 811,-189 811,-159 668,-159"/>
<text text-anchor="start" x="676" y="-177" font-family="Helvetica,sans-Serif" font-size="10.00">GameControllerTriggerButton</text>
<text text-anchor="middle" x="739.5" y="-166" font-family="Helvetica,sans-Serif" font-size="10.00">::readJoystickConfig</text>
</a>
</g>
</g>
<!-- Node2&#45;&gt;Node7 -->
<g id="edge7" class="edge">
<title>Node2&#45;&gt;Node7</title>
<path fill="none" stroke="midnightblue" d="M840.7,-174C830.87,-174 820.83,-174 811.08,-174"/>
<polygon fill="midnightblue" stroke="midnightblue" points="840.83,-177.5 850.83,-174 840.83,-170.5 840.83,-177.5"/>
</g>
<!-- Node4 -->
<g id="node4" class="node">
<title>Node4</title>
<g id="a_node4"><a xlink:href="$classSetJoystickXml.html#aa95423a01fab878cbc69bffb7f6121f3" xlink:title=" ">
<polygon fill="white" stroke="black" points="288,-276.5 288,-295.5 426,-295.5 426,-276.5 288,-276.5"/>
<text text-anchor="middle" x="357" y="-283.5" font-family="Helvetica,sans-Serif" font-size="10.00">SetJoystickXml::readConfig</text>
</a>
</g>
</g>
<!-- Node3&#45;&gt;Node4 -->
<g id="edge3" class="edge">
<title>Node3&#45;&gt;Node4</title>
<path fill="none" stroke="midnightblue" d="M710.6,-259C689.59,-268.73 659.75,-280.84 632,-286 562.78,-298.86 482.02,-296.85 426.19,-292.87"/>
<polygon fill="midnightblue" stroke="midnightblue" points="712.35,-262.05 719.88,-254.59 709.34,-255.72 712.35,-262.05"/>
</g>
<!-- Node5 -->
<g id="node5" class="node">
<title>Node5</title>
<g id="a_node5"><a xlink:href="$classJoyControlStick.html#ab6ce741115ee3d436c1a7e866abd21e6" xlink:title="Take a XML stream and set the stick and direction button properties according to the values contained...">
<polygon fill="white" stroke="black" points="477.5,-257.5 477.5,-276.5 616.5,-276.5 616.5,-257.5 477.5,-257.5"/>
<text text-anchor="middle" x="547" y="-264.5" font-family="Helvetica,sans-Serif" font-size="10.00">JoyControlStick::readConfig</text>
</a>
</g>
</g>
<!-- Node3&#45;&gt;Node5 -->
<g id="edge4" class="edge">
<title>Node3&#45;&gt;Node5</title>
<path fill="none" stroke="midnightblue" d="M663.71,-253.64C648.25,-255.42 632.04,-257.29 616.81,-259.05"/>
<polygon fill="midnightblue" stroke="midnightblue" points="664.21,-257.1 673.74,-252.48 663.4,-250.15 664.21,-257.1"/>
</g>
<!-- Node6 -->
<g id="node6" class="node">
<title>Node6</title>
<g id="a_node6"><a xlink:href="$classJoyDPadXml.html#ae9a3556242b984c81fc6945acafc5586" xlink:title=" ">
<polygon fill="white" stroke="black" points="471,-208 471,-238 623,-238 623,-208 471,-208"/>
<text text-anchor="start" x="479" y="-226" font-family="Helvetica,sans-Serif" font-size="10.00">JoyDPadXml&lt; GameController</text>
<text text-anchor="middle" x="547" y="-215" font-family="Helvetica,sans-Serif" font-size="10.00">DPad &gt;::readMainConfig</text>
</a>
</g>
</g>
<!-- Node3&#45;&gt;Node6 -->
<g id="edge6" class="edge">
<title>Node3&#45;&gt;Node6</title>
<path fill="none" stroke="midnightblue" d="M663.67,-236.36C650.33,-234.82 636.43,-233.21 623.09,-231.67"/>
<polygon fill="midnightblue" stroke="midnightblue" points="663.4,-239.85 673.74,-237.52 664.21,-232.9 663.4,-239.85"/>
</g>
<!-- Node5&#45;&gt;Node4 -->
<g id="edge5" class="edge">
<title>Node5&#45;&gt;Node4</title>
<path fill="none" stroke="midnightblue" d="M467.04,-274.98C453.46,-276.35 439.44,-277.77 426.17,-279.11"/>
<polygon fill="midnightblue" stroke="midnightblue" points="467.73,-278.43 477.33,-273.94 467.03,-271.46 467.73,-278.43"/>
</g>
<!-- Node8 -->
<g id="node8" class="node">
<title>Node8</title>
<g id="a_node8"><a xlink:href="$classGameControllerTriggerXml.html#a4578ad54daf8a24231e8b0e4e09f1587" xlink:title=" ">
<polygon fill="white" stroke="black" points="481.5,-159 481.5,-189 612.5,-189 612.5,-159 481.5,-159"/>
<text text-anchor="start" x="489.5" y="-177" font-family="Helvetica,sans-Serif" font-size="10.00">GameControllerTriggerXml</text>
<text text-anchor="middle" x="547" y="-166" font-family="Helvetica,sans-Serif" font-size="10.00">::readJoystickConfig</text>
</a>
</g>
</g>
<!-- Node7&#45;&gt;Node8 -->
<g id="edge8" class="edge">
<title>Node7&#45;&gt;Node8</title>
<path fill="none" stroke="midnightblue" d="M657.54,-174C642.52,-174 627.02,-174 612.57,-174"/>
<polygon fill="midnightblue" stroke="midnightblue" points="657.84,-177.5 667.84,-174 657.84,-170.5 657.84,-177.5"/>
</g>
<!-- Node9 -->
<g id="node9" class="node">
<title>Node9</title>
<g id="a_node9"><a xlink:href="$classGameControllerSet.html#a6b551139e353a654212d498309744025" xlink:title=" ">
<polygon fill="white" stroke="black" points="304,-159 304,-189 410,-189 410,-159 304,-159"/>
<text text-anchor="start" x="312" y="-177" font-family="Helvetica,sans-Serif" font-size="10.00">GameControllerSet::</text>
<text text-anchor="middle" x="357" y="-166" font-family="Helvetica,sans-Serif" font-size="10.00">readJoystickConfig</text>
</a>
</g>
</g>
<!-- Node8&#45;&gt;Node9 -->
<g id="edge9" class="edge">
<title>Node8&#45;&gt;Node9</title>
<path fill="none" stroke="midnightblue" d="M471.07,-174C450.63,-174 428.93,-174 410.07,-174"/>
<polygon fill="midnightblue" stroke="midnightblue" points="471.3,-177.5 481.3,-174 471.3,-170.5 471.3,-177.5"/>
</g>
<!-- Node10 -->
<g id="node10" class="node">
<title>Node10</title>
<g id="a_node10"><a xlink:href="$classGameControllerXml.html#aaa5257d4c6fe13f1d5fc51981e247c25" xlink:title=" ">
<polygon fill="white" stroke="black" points="144,-159 144,-189 252,-189 252,-159 144,-159"/>
<text text-anchor="start" x="152" y="-177" font-family="Helvetica,sans-Serif" font-size="10.00">GameControllerXml::</text>
<text text-anchor="middle" x="198" y="-166" font-family="Helvetica,sans-Serif" font-size="10.00">readJoystickConfig</text>
</a>
</g>
</g>
<!-- Node9&#45;&gt;Node10 -->
<g id="edge10" class="edge">
<title>Node9&#45;&gt;Node10</title>
<path fill="none" stroke="midnightblue" d="M293.42,-174C279.74,-174 265.39,-174 252.12,-174"/>
<polygon fill="midnightblue" stroke="midnightblue" points="293.72,-177.5 303.72,-174 293.72,-170.5 293.72,-177.5"/>
</g>
<!-- Node11 -->
<g id="node11" class="node">
<title>Node11</title>
<g id="a_node11"><a xlink:href="$classGameControllerXml.html#a7e47256cae0d3815419bc254413777d1" xlink:title=" ">
<polygon fill="white" stroke="black" points="0,-159 0,-189 108,-189 108,-159 0,-159"/>
<text text-anchor="start" x="8" y="-177" font-family="Helvetica,sans-Serif" font-size="10.00">GameControllerXml::</text>
<text text-anchor="middle" x="54" y="-166" font-family="Helvetica,sans-Serif" font-size="10.00">readConfig</text>
</a>
</g>
</g>
<!-- Node10&#45;&gt;Node11 -->
<g id="edge11" class="edge">
<title>Node10&#45;&gt;Node11</title>
<path fill="none" stroke="midnightblue" d="M133.48,-174C125,-174 116.38,-174 108.11,-174"/>
<polygon fill="midnightblue" stroke="midnightblue" points="133.72,-177.5 143.72,-174 133.72,-170.5 133.72,-177.5"/>
</g>
<!-- Node13 -->
<g id="node13" class="node">
<title>Node13</title>
<g id="a_node13"><a xlink:href="$classMouseDPadSettingsDialog.html#ac8bcdb0ffe3d82be97060f89aeff9f91" xlink:title=" ">
<polygon fill="white" stroke="black" points="672.5,-110 672.5,-140 806.5,-140 806.5,-110 672.5,-110"/>
<text text-anchor="start" x="680.5" y="-128" font-family="Helvetica,sans-Serif" font-size="10.00">MouseDPadSettingsDialog</text>
<text text-anchor="middle" x="739.5" y="-117" font-family="Helvetica,sans-Serif" font-size="10.00">::updateSpringWidth</text>
</a>
</g>
</g>
<!-- Node12&#45;&gt;Node13 -->
<g id="edge13" class="edge">
<title>Node12&#45;&gt;Node13</title>
<path fill="none" stroke="midnightblue" d="M837.24,-125C827.06,-125 816.71,-125 806.75,-125"/>
<polygon fill="midnightblue" stroke="midnightblue" points="837.34,-128.5 847.34,-125 837.34,-121.5 837.34,-128.5"/>
</g>
<!-- Node14 -->
<g id="node14" class="node">
<title>Node14</title>
<g id="a_node14"><a xlink:href="$classMouseDPadSettingsDialog.html#a51ae7b4e5b371e35d4f470787f5fc846" xlink:title=" ">
<polygon fill="white" stroke="black" points="477,-110 477,-140 617,-140 617,-110 477,-110"/>
<text text-anchor="start" x="485" y="-128" font-family="Helvetica,sans-Serif" font-size="10.00">MouseDPadSettingsDialog</text>
<text text-anchor="middle" x="547" y="-117" font-family="Helvetica,sans-Serif" font-size="10.00">::MouseDPadSettingsDialog</text>
</a>
</g>
</g>
<!-- Node13&#45;&gt;Node14 -->
<g id="edge14" class="edge">
<title>Node13&#45;&gt;Node14</title>
<path fill="none" stroke="midnightblue" d="M662.23,-125C647.36,-125 631.84,-125 617.21,-125"/>
<polygon fill="midnightblue" stroke="midnightblue" points="662.41,-128.5 672.41,-125 662.41,-121.5 662.41,-128.5"/>
</g>
<!-- Node16 -->
<g id="node16" class="node">
<title>Node16</title>
<g id="a_node16"><a xlink:href="$classMouseAxisSettingsDialog.html#a5a1a9b2b1511587e826e933fab21a581" xlink:title=" ">
<polygon fill="white" stroke="black" points="675,-61 675,-91 804,-91 804,-61 675,-61"/>
<text text-anchor="start" x="683" y="-79" font-family="Helvetica,sans-Serif" font-size="10.00">MouseAxisSettingsDialog</text>
<text text-anchor="middle" x="739.5" y="-68" font-family="Helvetica,sans-Serif" font-size="10.00">::updateSpringWidth</text>
</a>
</g>
</g>
<!-- Node15&#45;&gt;Node16 -->
<g id="edge16" class="edge">
<title>Node15&#45;&gt;Node16</title>
<path fill="none" stroke="midnightblue" d="M839.57,-76C827.77,-76 815.69,-76 804.21,-76"/>
<polygon fill="midnightblue" stroke="midnightblue" points="839.84,-79.5 849.84,-76 839.84,-72.5 839.84,-79.5"/>
</g>
<!-- Node17 -->
<g id="node17" class="node">
<title>Node17</title>
<g id="a_node17"><a xlink:href="$classMouseAxisSettingsDialog.html#a33546e4b608264ce6d2758678eb6d2e7" xlink:title=" ">
<polygon fill="white" stroke="black" points="479.5,-61 479.5,-91 614.5,-91 614.5,-61 479.5,-61"/>
<text text-anchor="start" x="487.5" y="-79" font-family="Helvetica,sans-Serif" font-size="10.00">MouseAxisSettingsDialog</text>
<text text-anchor="middle" x="547" y="-68" font-family="Helvetica,sans-Serif" font-size="10.00">::MouseAxisSettingsDialog</text>
</a>
</g>
</g>
<!-- Node16&#45;&gt;Node17 -->
<g id="edge17" class="edge">
<title>Node16&#45;&gt;Node17</title>
<path fill="none" stroke="midnightblue" d="M664.66,-76C648.16,-76 630.76,-76 614.57,-76"/>
<polygon fill="midnightblue" stroke="midnightblue" points="664.8,-79.5 674.8,-76 664.8,-72.5 664.8,-79.5"/>
</g>
<!-- Node19 -->
<g id="node19" class="node">
<title>Node19</title>
<g id="a_node19"><a xlink:href="$classMouseControlStickSettingsDialog.html#a3977169301705da988ab57c8e31e774e" xlink:title=" ">
<polygon fill="white" stroke="black" points="671.5,-9 671.5,-39 807.5,-39 807.5,-9 671.5,-9"/>
<text text-anchor="start" x="679.5" y="-27" font-family="Helvetica,sans-Serif" font-size="10.00">MouseControlStickSettings</text>
<text text-anchor="middle" x="739.5" y="-16" font-family="Helvetica,sans-Serif" font-size="10.00">Dialog::updateSpringWidth</text>
</a>
</g>
</g>
<!-- Node18&#45;&gt;Node19 -->
<g id="edge19" class="edge">
<title>Node18&#45;&gt;Node19</title>
<path fill="none" stroke="midnightblue" d="M836.75,-25.65C826.99,-25.48 817.09,-25.31 807.53,-25.15"/>
<polygon fill="midnightblue" stroke="midnightblue" points="836.78,-29.15 846.84,-25.82 836.9,-22.15 836.78,-29.15"/>
</g>
<!-- Node20 -->
<g id="node20" class="node">
<title>Node20</title>
<g id="a_node20"><a xlink:href="$classMouseControlStickSettingsDialog.html#aac9d5ef09dced4cee0df95d99ae13369" xlink:title=" ">
<polygon fill="white" stroke="black" points="462,-0.5 462,-41.5 632,-41.5 632,-0.5 462,-0.5"/>
<text text-anchor="start" x="470" y="-29.5" font-family="Helvetica,sans-Serif" font-size="10.00">MouseControlStickSettings</text>
<text text-anchor="start" x="470" y="-18.5" font-family="Helvetica,sans-Serif" font-size="10.00">Dialog::MouseControlStickSettings</text>
<text text-anchor="middle" x="547" y="-7.5" font-family="Helvetica,sans-Serif" font-size="10.00">Dialog</text>
</a>
</g>
</g>
<!-- Node19&#45;&gt;Node20 -->
<g id="edge20" class="edge">
<title>Node19&#45;&gt;Node20</title>
<path fill="none" stroke="midnightblue" d="M661.13,-22.78C651.62,-22.63 641.86,-22.48 632.25,-22.33"/>
<polygon fill="midnightblue" stroke="midnightblue" points="661.28,-26.28 671.34,-22.94 661.39,-19.29 661.28,-26.28"/>
</g>
</g>
</svg>
