<?xml version="1.0" encoding="UTF-8" standalone="no"?>
<!DOCTYPE svg PUBLIC "-//W3C//DTD SVG 1.1//EN"
 "http://www.w3.org/Graphics/SVG/1.1/DTD/svg11.dtd">
<!-- Generated by graphviz version 2.43.0 (0)
 -->
<!-- Title: JoyTabWidget::removeConfig Pages: 1 -->
<svg width="893pt" height="167pt"
 viewBox="0.00 0.00 893.00 167.00" xmlns="http://www.w3.org/2000/svg" xmlns:xlink="http://www.w3.org/1999/xlink">
<g id="graph0" class="graph" transform="scale(1 1) rotate(0) translate(4 163)">
<title>JoyTabWidget::removeConfig</title>
<polygon fill="white" stroke="transparent" points="-4,4 -4,-163 889,-163 889,4 -4,4"/>
<!-- Node1 -->
<g id="node1" class="node">
<title>Node1</title>
<g id="a_node1"><a xlink:title=" ">
<polygon fill="#bfbfbf" stroke="black" points="0,-117.5 0,-136.5 145,-136.5 145,-117.5 0,-117.5"/>
<text text-anchor="middle" x="72.5" y="-124.5" font-family="Helvetica,sans-Serif" font-size="10.00">JoyTabWidget::removeConfig</text>
</a>
</g>
</g>
<!-- Node2 -->
<g id="node2" class="node">
<title>Node2</title>
<g id="a_node2"><a xlink:href="classInputDevice.html#a197e76d4113e8258e6637981830dd219" target="_top" xlink:title=" ">
<polygon fill="white" stroke="black" points="181,-139.5 181,-158.5 320,-158.5 320,-139.5 181,-139.5"/>
<text text-anchor="middle" x="250.5" y="-146.5" font-family="Helvetica,sans-Serif" font-size="10.00">InputDevice::getJoyNumber</text>
</a>
</g>
</g>
<!-- Node1&#45;&gt;Node2 -->
<g id="edge1" class="edge">
<title>Node1&#45;&gt;Node2</title>
<path fill="none" stroke="midnightblue" d="M145.09,-135.95C153.57,-137.01 162.26,-138.1 170.83,-139.17"/>
<polygon fill="midnightblue" stroke="midnightblue" points="170.47,-142.65 180.82,-140.42 171.34,-135.7 170.47,-142.65"/>
</g>
<!-- Node3 -->
<g id="node3" class="node">
<title>Node3</title>
<g id="a_node3"><a xlink:href="classJoyTabWidget.html#aa1bde824a4ce46e48e71a11636174943" target="_top" xlink:title=" ">
<polygon fill="white" stroke="black" points="182.5,-90 182.5,-120 318.5,-120 318.5,-90 182.5,-90"/>
<text text-anchor="start" x="190.5" y="-108" font-family="Helvetica,sans-Serif" font-size="10.00">JoyTabWidget::saveDevice</text>
<text text-anchor="middle" x="250.5" y="-97" font-family="Helvetica,sans-Serif" font-size="10.00">Settings</text>
</a>
</g>
</g>
<!-- Node1&#45;&gt;Node3 -->
<g id="edge2" class="edge">
<title>Node1&#45;&gt;Node3</title>
<path fill="none" stroke="midnightblue" d="M145.09,-118.05C154.01,-116.94 163.16,-115.79 172.16,-114.67"/>
<polygon fill="midnightblue" stroke="midnightblue" points="172.75,-118.12 182.24,-113.41 171.88,-111.17 172.75,-118.12"/>
</g>
<!-- Node4 -->
<g id="node4" class="node">
<title>Node4</title>
<g id="a_node4"><a xlink:href="classAntiMicroSettings.html#a4f172ffefe55eeba5afff3d54182f881" target="_top" xlink:title=" ">
<polygon fill="white" stroke="black" points="563.5,-115 563.5,-145 663.5,-145 663.5,-115 563.5,-115"/>
<text text-anchor="start" x="571.5" y="-133" font-family="Helvetica,sans-Serif" font-size="10.00">AntiMicroSettings::</text>
<text text-anchor="middle" x="613.5" y="-122" font-family="Helvetica,sans-Serif" font-size="10.00">getLock</text>
</a>
</g>
</g>
<!-- Node3&#45;&gt;Node4 -->
<g id="edge3" class="edge">
<title>Node3&#45;&gt;Node4</title>
<path fill="none" stroke="midnightblue" d="M318.56,-109.64C386.01,-114.31 489,-121.45 553.46,-125.91"/>
<polygon fill="midnightblue" stroke="midnightblue" points="553.24,-129.4 563.46,-126.6 553.72,-122.42 553.24,-129.4"/>
</g>
<!-- Node5 -->
<g id="node5" class="node">
<title>Node5</title>
<g id="a_node5"><a xlink:href="classJoyTabWidget.html#afdc2166911c519519a473818504da844" target="_top" xlink:title=" ">
<polygon fill="white" stroke="black" points="356,-76.5 356,-95.5 497,-95.5 497,-76.5 356,-76.5"/>
<text text-anchor="middle" x="426.5" y="-83.5" font-family="Helvetica,sans-Serif" font-size="10.00">JoyTabWidget::saveSettings</text>
</a>
</g>
</g>
<!-- Node3&#45;&gt;Node5 -->
<g id="edge4" class="edge">
<title>Node3&#45;&gt;Node5</title>
<path fill="none" stroke="midnightblue" d="M318.77,-97.65C327.6,-96.69 336.71,-95.7 345.71,-94.71"/>
<polygon fill="midnightblue" stroke="midnightblue" points="346.26,-98.17 355.82,-93.61 345.5,-91.22 346.26,-98.17"/>
</g>
<!-- Node5&#45;&gt;Node4 -->
<g id="edge5" class="edge">
<title>Node5&#45;&gt;Node4</title>
<path fill="none" stroke="midnightblue" d="M467.64,-95.55C492.63,-101.49 525.22,-109.24 553.15,-115.88"/>
<polygon fill="midnightblue" stroke="midnightblue" points="552.67,-119.37 563.21,-118.28 554.29,-112.56 552.67,-119.37"/>
</g>
<!-- Node6 -->
<g id="node6" class="node">
<title>Node6</title>
<g id="a_node6"><a xlink:href="namespacePadderCommon.html#aaa09739d2df84421a5a3467a06ce941c" target="_top" xlink:title="Returns the &quot;human&#45;readable&quot; name of the given profile.">
<polygon fill="white" stroke="black" points="533,-76.5 533,-95.5 694,-95.5 694,-76.5 533,-76.5"/>
<text text-anchor="middle" x="613.5" y="-83.5" font-family="Helvetica,sans-Serif" font-size="10.00">PadderCommon::getProfileName</text>
</a>
</g>
</g>
<!-- Node5&#45;&gt;Node6 -->
<g id="edge6" class="edge">
<title>Node5&#45;&gt;Node6</title>
<path fill="none" stroke="midnightblue" d="M497.18,-86C505.57,-86 514.23,-86 522.86,-86"/>
<polygon fill="midnightblue" stroke="midnightblue" points="522.95,-89.5 532.95,-86 522.95,-82.5 522.95,-89.5"/>
</g>
<!-- Node7 -->
<g id="node7" class="node">
<title>Node7</title>
<g id="a_node7"><a xlink:href="classInputDevice.html#a3184377c2e251949cae1a0937aaef78c" target="_top" xlink:title=" ">
<polygon fill="white" stroke="black" points="740.5,-38.5 740.5,-57.5 874.5,-57.5 874.5,-38.5 740.5,-38.5"/>
<text text-anchor="middle" x="807.5" y="-45.5" font-family="Helvetica,sans-Serif" font-size="10.00">InputDevice::getSDLName</text>
</a>
</g>
</g>
<!-- Node5&#45;&gt;Node7 -->
<g id="edge7" class="edge">
<title>Node5&#45;&gt;Node7</title>
<path fill="none" stroke="midnightblue" d="M474.07,-76.49C492.38,-73.04 513.61,-69.41 533,-67 599.36,-58.74 675.27,-53.83 730.25,-51.07"/>
<polygon fill="midnightblue" stroke="midnightblue" points="730.45,-54.57 740.26,-50.58 730.11,-47.57 730.45,-54.57"/>
</g>
<!-- Node8 -->
<g id="node8" class="node">
<title>Node8</title>
<g id="a_node8"><a xlink:href="classInputDevice.html#a894f087cdfe06136fade922ff053d522" target="_top" xlink:title=" ">
<polygon fill="white" stroke="black" points="537.5,-0.5 537.5,-19.5 689.5,-19.5 689.5,-0.5 537.5,-0.5"/>
<text text-anchor="middle" x="613.5" y="-7.5" font-family="Helvetica,sans-Serif" font-size="10.00">InputDevice::getStringIdentifier</text>
</a>
</g>
</g>
<!-- Node5&#45;&gt;Node8 -->
<g id="edge8" class="edge">
<title>Node5&#45;&gt;Node8</title>
<path fill="none" stroke="midnightblue" d="M444.65,-76.45C465.2,-65.27 500.9,-46.66 533,-34 543.79,-29.75 555.65,-25.8 566.84,-22.38"/>
<polygon fill="midnightblue" stroke="midnightblue" points="567.87,-25.72 576.45,-19.52 565.87,-19.01 567.87,-25.72"/>
</g>
<!-- Node8&#45;&gt;Node7 -->
<g id="edge9" class="edge">
<title>Node8&#45;&gt;Node7</title>
<path fill="none" stroke="midnightblue" d="M662.95,-19.59C688.97,-24.74 721.23,-31.12 748.57,-36.53"/>
<polygon fill="midnightblue" stroke="midnightblue" points="747.91,-39.97 758.4,-38.48 749.27,-33.1 747.91,-39.97"/>
</g>
<!-- Node9 -->
<g id="node9" class="node">
<title>Node9</title>
<g id="a_node9"><a xlink:href="classInputDevice.html#ad2d9a268b89898a0a29b56d7af63de9e" target="_top" xlink:title=" ">
<polygon fill="white" stroke="black" points="730,-0.5 730,-19.5 885,-19.5 885,-0.5 730,-0.5"/>
<text text-anchor="middle" x="807.5" y="-7.5" font-family="Helvetica,sans-Serif" font-size="10.00">InputDevice::getUniqueIDString</text>
</a>
</g>
</g>
<!-- Node8&#45;&gt;Node9 -->
<g id="edge10" class="edge">
<title>Node8&#45;&gt;Node9</title>
<path fill="none" stroke="midnightblue" d="M689.56,-10C699.5,-10 709.75,-10 719.86,-10"/>
<polygon fill="midnightblue" stroke="midnightblue" points="719.91,-13.5 729.91,-10 719.91,-6.5 719.91,-13.5"/>
</g>
</g>
</svg>
