<?xml version="1.0" encoding="UTF-8" standalone="no"?>
<!DOCTYPE svg PUBLIC "-//W3C//DTD SVG 1.1//EN"
 "http://www.w3.org/Graphics/SVG/1.1/DTD/svg11.dtd">
<!-- Generated by graphviz version 2.43.0 (0)
 -->
<!-- Title: InputDevice::setCalibrationThrottle Pages: 1 -->
<svg width="1803pt" height="761pt"
 viewBox="0.00 0.00 1803.00 761.40" xmlns="http://www.w3.org/2000/svg" xmlns:xlink="http://www.w3.org/1999/xlink">
<g id="graph0" class="graph" transform="scale(1 1) rotate(0) translate(4 757.4)">
<title>InputDevice::setCalibrationThrottle</title>
<polygon fill="white" stroke="transparent" points="-4,4 -4,-757.4 1799,-757.4 1799,4 -4,4"/>
<!-- Node1 -->
<g id="node1" class="node">
<title>Node1</title>
<g id="a_node1"><a xlink:title=" ">
<polygon fill="#bfbfbf" stroke="black" points="1661,-332 1661,-362 1795,-362 1795,-332 1661,-332"/>
<text text-anchor="start" x="1669" y="-350" font-family="Helvetica,sans-Serif" font-size="10.00">InputDevice::setCalibration</text>
<text text-anchor="middle" x="1728" y="-339" font-family="Helvetica,sans-Serif" font-size="10.00">Throttle</text>
</a>
</g>
</g>
<!-- Node2 -->
<g id="node2" class="node">
<title>Node2</title>
<g id="a_node2"><a xlink:href="$classJoyAxis.html#a365e03ea3bbfc5c099fe04dedc4d0ad7" xlink:title=" ">
<polygon fill="white" stroke="black" points="1488,-337.5 1488,-356.5 1625,-356.5 1625,-337.5 1488,-337.5"/>
<text text-anchor="middle" x="1556.5" y="-344.5" font-family="Helvetica,sans-Serif" font-size="10.00">JoyAxis::performCalibration</text>
</a>
</g>
</g>
<!-- Node1&#45;&gt;Node2 -->
<g id="edge1" class="edge">
<title>Node1&#45;&gt;Node2</title>
<path fill="none" stroke="midnightblue" d="M1650.92,-347C1642.29,-347 1633.53,-347 1625.01,-347"/>
<polygon fill="midnightblue" stroke="midnightblue" points="1650.98,-350.5 1660.98,-347 1650.98,-343.5 1650.98,-350.5"/>
</g>
<!-- Node3 -->
<g id="node3" class="node">
<title>Node3</title>
<g id="a_node3"><a xlink:href="$classJoyAxis.html#a9c5f69db8b88f31a1df043a00ab9d09a" xlink:title=" ">
<polygon fill="white" stroke="black" points="1357,-337.5 1357,-356.5 1452,-356.5 1452,-337.5 1357,-337.5"/>
<text text-anchor="middle" x="1404.5" y="-344.5" font-family="Helvetica,sans-Serif" font-size="10.00">JoyAxis::joyEvent</text>
</a>
</g>
</g>
<!-- Node2&#45;&gt;Node3 -->
<g id="edge2" class="edge">
<title>Node2&#45;&gt;Node3</title>
<path fill="none" stroke="midnightblue" d="M1477.69,-347C1468.94,-347 1460.24,-347 1452.06,-347"/>
<polygon fill="midnightblue" stroke="midnightblue" points="1477.96,-350.5 1487.96,-347 1477.96,-343.5 1477.96,-350.5"/>
</g>
<!-- Node4 -->
<g id="node4" class="node">
<title>Node4</title>
<g id="a_node4"><a xlink:href="$classJoyAxis.html#a6db16ad8451e2f2b09215385d5371151" xlink:title=" ">
<polygon fill="white" stroke="black" points="1195,-436 1195,-466 1321,-466 1321,-436 1195,-436"/>
<text text-anchor="start" x="1203" y="-454" font-family="Helvetica,sans-Serif" font-size="10.00">JoyAxis::activatePending</text>
<text text-anchor="middle" x="1258" y="-443" font-family="Helvetica,sans-Serif" font-size="10.00">Event</text>
</a>
</g>
</g>
<!-- Node3&#45;&gt;Node4 -->
<g id="edge3" class="edge">
<title>Node3&#45;&gt;Node4</title>
<path fill="none" stroke="midnightblue" d="M1382,-362.47C1354.58,-382.21 1307.43,-416.14 1280.17,-435.77"/>
<polygon fill="midnightblue" stroke="midnightblue" points="1384.09,-365.28 1390.16,-356.6 1380,-359.6 1384.09,-365.28"/>
</g>
<!-- Node72 -->
<g id="node41" class="node">
<title>Node72</title>
<g id="a_node41"><a xlink:href="$classSetJoystick.html#aa93108aaa5ccbf15f1b56b22ec73798b" xlink:title="Perform a release of all elements of a set. Stick and vdpad releases will be handled by the associate...">
<polygon fill="white" stroke="black" points="1206,-315.5 1206,-334.5 1310,-334.5 1310,-315.5 1206,-315.5"/>
<text text-anchor="middle" x="1258" y="-322.5" font-family="Helvetica,sans-Serif" font-size="10.00">SetJoystick::release</text>
</a>
</g>
</g>
<!-- Node3&#45;&gt;Node72 -->
<g id="edge54" class="edge">
<title>Node3&#45;&gt;Node72</title>
<path fill="none" stroke="midnightblue" d="M1346.97,-338.39C1334.84,-336.55 1322.09,-334.61 1310.18,-332.79"/>
<polygon fill="midnightblue" stroke="midnightblue" points="1346.57,-341.87 1356.98,-339.92 1347.62,-334.95 1346.57,-341.87"/>
</g>
<!-- Node5 -->
<g id="node5" class="node">
<title>Node5</title>
<g id="a_node5"><a xlink:href="$classInputDevice.html#ae8668b4649e0439c1dd30abd72c3283e" xlink:title=" ">
<polygon fill="white" stroke="black" points="1005,-518 1005,-548 1151,-548 1151,-518 1005,-518"/>
<text text-anchor="start" x="1013" y="-536" font-family="Helvetica,sans-Serif" font-size="10.00">InputDevice::activatePossible</text>
<text text-anchor="middle" x="1078" y="-525" font-family="Helvetica,sans-Serif" font-size="10.00">AxisEvents</text>
</a>
</g>
</g>
<!-- Node4&#45;&gt;Node5 -->
<g id="edge4" class="edge">
<title>Node4&#45;&gt;Node5</title>
<path fill="none" stroke="midnightblue" d="M1226.41,-471.73C1207.58,-483.81 1182.61,-498.66 1159,-509 1151.56,-512.26 1143.55,-515.24 1135.57,-517.91"/>
<polygon fill="midnightblue" stroke="midnightblue" points="1228.39,-474.61 1234.87,-466.22 1224.58,-468.74 1228.39,-474.61"/>
</g>
<!-- Node6 -->
<g id="node6" class="node">
<title>Node6</title>
<g id="a_node6"><a xlink:href="$classInputDevice.html#a65bcbfa6997970fff86e72e3a13167e0" xlink:title=" ">
<polygon fill="white" stroke="black" points="807,-452 807,-482 953,-482 953,-452 807,-452"/>
<text text-anchor="start" x="815" y="-470" font-family="Helvetica,sans-Serif" font-size="10.00">InputDevice::activatePossible</text>
<text text-anchor="middle" x="880" y="-459" font-family="Helvetica,sans-Serif" font-size="10.00">PendingEvents</text>
</a>
</g>
</g>
<!-- Node5&#45;&gt;Node6 -->
<g id="edge5" class="edge">
<title>Node5&#45;&gt;Node6</title>
<path fill="none" stroke="midnightblue" d="M1013.01,-514.74C1007.56,-512.9 1002.16,-510.98 997,-509 980.48,-502.66 977.48,-498.43 961,-492 952.05,-488.51 942.4,-485.16 933,-482.1"/>
<polygon fill="midnightblue" stroke="midnightblue" points="1012.24,-518.17 1022.84,-517.95 1014.42,-511.52 1012.24,-518.17"/>
</g>
<!-- Node7 -->
<g id="node7" class="node">
<title>Node7</title>
<g id="a_node7"><a xlink:href="$classInputDevice.html#ac34e93b3e44b08cffb86551e15bedfb4" xlink:title=" ">
<polygon fill="white" stroke="black" points="814.5,-660.5 814.5,-679.5 945.5,-679.5 945.5,-660.5 814.5,-660.5"/>
<text text-anchor="middle" x="880" y="-667.5" font-family="Helvetica,sans-Serif" font-size="10.00">InputDevice::reInitButtons</text>
</a>
</g>
</g>
<!-- Node5&#45;&gt;Node7 -->
<g id="edge6" class="edge">
<title>Node5&#45;&gt;Node7</title>
<path fill="none" stroke="midnightblue" d="M1046.87,-554.06C1003.68,-584.25 925.93,-638.59 894.62,-660.48"/>
<polygon fill="midnightblue" stroke="midnightblue" points="1049.08,-556.78 1055.28,-548.18 1045.07,-551.05 1049.08,-556.78"/>
</g>
<!-- Node13 -->
<g id="node13" class="node">
<title>Node13</title>
<g id="a_node13"><a xlink:href="$classInputDaemon.html#a0cf6bcd3287d97d75c32a3921c633a7a" xlink:title=" ">
<polygon fill="white" stroke="black" points="802,-501.5 802,-520.5 958,-520.5 958,-501.5 802,-501.5"/>
<text text-anchor="middle" x="880" y="-508.5" font-family="Helvetica,sans-Serif" font-size="10.00">InputDaemon::secondInputPass</text>
</a>
</g>
</g>
<!-- Node5&#45;&gt;Node13 -->
<g id="edge13" class="edge">
<title>Node5&#45;&gt;Node13</title>
<path fill="none" stroke="midnightblue" d="M994.78,-523.77C982.69,-522.41 970.26,-521.02 958.27,-519.67"/>
<polygon fill="midnightblue" stroke="midnightblue" points="994.52,-527.26 1004.85,-524.9 995.3,-520.31 994.52,-527.26"/>
</g>
<!-- Node16 -->
<g id="node16" class="node">
<title>Node16</title>
<g id="a_node16"><a xlink:href="$classInputDevice.html#aebcc4b8149c2bab8a0652323206d32bb" xlink:title=" ">
<polygon fill="white" stroke="black" points="814.5,-540 814.5,-570 945.5,-570 945.5,-540 814.5,-540"/>
<text text-anchor="start" x="822.5" y="-558" font-family="Helvetica,sans-Serif" font-size="10.00">InputDevice::setActiveSet</text>
<text text-anchor="middle" x="880" y="-547" font-family="Helvetica,sans-Serif" font-size="10.00">Number</text>
</a>
</g>
</g>
<!-- Node5&#45;&gt;Node16 -->
<g id="edge16" class="edge">
<title>Node5&#45;&gt;Node16</title>
<path fill="none" stroke="midnightblue" d="M994.72,-542.24C978.3,-544.08 961.27,-545.99 945.55,-547.75"/>
<polygon fill="midnightblue" stroke="midnightblue" points="995.3,-545.69 1004.85,-541.1 994.52,-538.74 995.3,-545.69"/>
</g>
<!-- Node8 -->
<g id="node8" class="node">
<title>Node8</title>
<g id="a_node8"><a xlink:href="$classInputDeviceXml.html#a847bf9ed17b554bf87d513a1aebdcb64" xlink:title=" ">
<polygon fill="white" stroke="black" points="606.5,-660.5 606.5,-679.5 746.5,-679.5 746.5,-660.5 606.5,-660.5"/>
<text text-anchor="middle" x="676.5" y="-667.5" font-family="Helvetica,sans-Serif" font-size="10.00">InputDeviceXml::readConfig</text>
</a>
</g>
</g>
<!-- Node7&#45;&gt;Node8 -->
<g id="edge7" class="edge">
<title>Node7&#45;&gt;Node8</title>
<path fill="none" stroke="midnightblue" d="M804.36,-670C785.45,-670 765.22,-670 746.59,-670"/>
<polygon fill="midnightblue" stroke="midnightblue" points="804.41,-673.5 814.41,-670 804.41,-666.5 804.41,-673.5"/>
</g>
<!-- Node9 -->
<g id="node9" class="node">
<title>Node9</title>
<g id="a_node9"><a xlink:href="$classGameControllerXml.html#a7e47256cae0d3815419bc254413777d1" xlink:title=" ">
<polygon fill="white" stroke="black" points="420.5,-721 420.5,-751 528.5,-751 528.5,-721 420.5,-721"/>
<text text-anchor="start" x="428.5" y="-739" font-family="Helvetica,sans-Serif" font-size="10.00">GameControllerXml::</text>
<text text-anchor="middle" x="474.5" y="-728" font-family="Helvetica,sans-Serif" font-size="10.00">readConfig</text>
</a>
</g>
</g>
<!-- Node7&#45;&gt;Node9 -->
<g id="edge8" class="edge">
<title>Node7&#45;&gt;Node9</title>
<path fill="none" stroke="midnightblue" d="M859.67,-686C837.8,-702.98 800.33,-728.74 763,-739 683.59,-760.83 587.11,-753.28 528.55,-745.14"/>
<polygon fill="midnightblue" stroke="midnightblue" points="862.14,-688.51 867.79,-679.55 857.78,-683.03 862.14,-688.51"/>
</g>
<!-- Node10 -->
<g id="node10" class="node">
<title>Node10</title>
<g id="a_node10"><a xlink:href="$classGameControllerXml.html#aaa5257d4c6fe13f1d5fc51981e247c25" xlink:title=" ">
<polygon fill="white" stroke="black" points="622.5,-699 622.5,-729 730.5,-729 730.5,-699 622.5,-699"/>
<text text-anchor="start" x="630.5" y="-717" font-family="Helvetica,sans-Serif" font-size="10.00">GameControllerXml::</text>
<text text-anchor="middle" x="676.5" y="-706" font-family="Helvetica,sans-Serif" font-size="10.00">readJoystickConfig</text>
</a>
</g>
</g>
<!-- Node7&#45;&gt;Node10 -->
<g id="edge9" class="edge">
<title>Node7&#45;&gt;Node10</title>
<path fill="none" stroke="midnightblue" d="M825.24,-681.74C796.01,-688.12 759.98,-695.99 730.81,-702.36"/>
<polygon fill="midnightblue" stroke="midnightblue" points="826.25,-685.1 835.28,-679.55 824.76,-678.26 826.25,-685.1"/>
</g>
<!-- Node11 -->
<g id="node11" class="node">
<title>Node11</title>
<g id="a_node11"><a xlink:href="$classJoyTabWidgetHelper.html#aef94ae0812f28f43eb891ddc210c341e" xlink:title=" ">
<polygon fill="white" stroke="black" points="623,-611 623,-641 730,-641 730,-611 623,-611"/>
<text text-anchor="start" x="631" y="-629" font-family="Helvetica,sans-Serif" font-size="10.00">JoyTabWidgetHelper</text>
<text text-anchor="middle" x="676.5" y="-618" font-family="Helvetica,sans-Serif" font-size="10.00">::reInitDevice</text>
</a>
</g>
</g>
<!-- Node7&#45;&gt;Node11 -->
<g id="edge11" class="edge">
<title>Node7&#45;&gt;Node11</title>
<path fill="none" stroke="midnightblue" d="M825.17,-658.24C795.7,-651.81 759.34,-643.87 730.08,-637.48"/>
<polygon fill="midnightblue" stroke="midnightblue" points="824.76,-661.74 835.28,-660.45 826.25,-654.9 824.76,-661.74"/>
</g>
<!-- Node10&#45;&gt;Node9 -->
<g id="edge10" class="edge">
<title>Node10&#45;&gt;Node9</title>
<path fill="none" stroke="midnightblue" d="M612.36,-720.95C585.49,-723.9 554.51,-727.31 528.82,-730.13"/>
<polygon fill="midnightblue" stroke="midnightblue" points="612.87,-724.41 622.43,-719.84 612.11,-717.45 612.87,-724.41"/>
</g>
<!-- Node12 -->
<g id="node12" class="node">
<title>Node12</title>
<g id="a_node12"><a xlink:href="$classJoyTabWidgetHelper.html#acc5d7d51e925f84f9aa2936ce267f843" xlink:title=" ">
<polygon fill="white" stroke="black" points="412.5,-650 412.5,-680 536.5,-680 536.5,-650 412.5,-650"/>
<text text-anchor="start" x="420.5" y="-668" font-family="Helvetica,sans-Serif" font-size="10.00">JoyTabWidgetHelper</text>
<text text-anchor="middle" x="474.5" y="-657" font-family="Helvetica,sans-Serif" font-size="10.00">::reInitDeviceWithRevert</text>
</a>
</g>
</g>
<!-- Node11&#45;&gt;Node12 -->
<g id="edge12" class="edge">
<title>Node11&#45;&gt;Node12</title>
<path fill="none" stroke="midnightblue" d="M613.09,-638.17C588.7,-642.93 560.81,-648.36 536.56,-653.09"/>
<polygon fill="midnightblue" stroke="midnightblue" points="613.81,-641.6 622.95,-636.25 612.47,-634.73 613.81,-641.6"/>
</g>
<!-- Node14 -->
<g id="node14" class="node">
<title>Node14</title>
<g id="a_node14"><a xlink:href="$classInputDaemon.html#ad7f954b25b67cb5a84fdb1a154282bfd" xlink:title=" ">
<polygon fill="white" stroke="black" points="629.5,-114.5 629.5,-133.5 723.5,-133.5 723.5,-114.5 629.5,-114.5"/>
<text text-anchor="middle" x="676.5" y="-121.5" font-family="Helvetica,sans-Serif" font-size="10.00">InputDaemon::run</text>
</a>
</g>
</g>
<!-- Node13&#45;&gt;Node14 -->
<g id="edge14" class="edge">
<title>Node13&#45;&gt;Node14</title>
<path fill="none" stroke="midnightblue" d="M802.78,-495.68C801.45,-494.53 800.19,-493.31 799,-492 722.19,-407.74 806.57,-343.36 763,-238 744.85,-194.11 705.83,-151.93 687.46,-133.58"/>
<polygon fill="midnightblue" stroke="midnightblue" points="800.78,-498.55 810.97,-501.44 804.8,-492.82 800.78,-498.55"/>
</g>
<!-- Node15 -->
<g id="node15" class="node">
<title>Node15</title>
<g id="a_node15"><a xlink:href="$classInputDaemon.html#ab7c3d331123e946ed8da490dfee5c265" xlink:title=" ">
<polygon fill="white" stroke="black" points="405.5,-0.5 405.5,-19.5 543.5,-19.5 543.5,-0.5 405.5,-0.5"/>
<text text-anchor="middle" x="474.5" y="-7.5" font-family="Helvetica,sans-Serif" font-size="10.00">InputDaemon::InputDaemon</text>
</a>
</g>
</g>
<!-- Node14&#45;&gt;Node15 -->
<g id="edge15" class="edge">
<title>Node14&#45;&gt;Node15</title>
<path fill="none" stroke="midnightblue" d="M658.87,-107.13C636.84,-85.75 595.86,-49.25 554,-29 546.05,-25.15 537.26,-22.05 528.52,-19.56"/>
<polygon fill="midnightblue" stroke="midnightblue" points="656.52,-109.73 666.1,-114.26 661.44,-104.74 656.52,-109.73"/>
</g>
<!-- Node16&#45;&gt;Node11 -->
<g id="edge53" class="edge">
<title>Node16&#45;&gt;Node11</title>
<path fill="none" stroke="midnightblue" d="M835.63,-573.91C814.01,-582.99 787.36,-593.68 763,-602 752.5,-605.59 741.14,-609.06 730.24,-612.19"/>
<polygon fill="midnightblue" stroke="midnightblue" points="837.02,-577.12 844.86,-570 834.29,-570.68 837.02,-577.12"/>
</g>
<!-- Node17 -->
<g id="node17" class="node">
<title>Node17</title>
<g id="a_node17"><a xlink:href="$classJoyTabWidget.html#a06a18e39e415313b9ee09c41887890ac" xlink:title=" ">
<polygon fill="white" stroke="black" points="594.5,-247.5 594.5,-266.5 758.5,-266.5 758.5,-247.5 594.5,-247.5"/>
<text text-anchor="middle" x="676.5" y="-254.5" font-family="Helvetica,sans-Serif" font-size="10.00">JoyTabWidget::changeCurrentSet</text>
</a>
</g>
</g>
<!-- Node16&#45;&gt;Node17 -->
<g id="edge17" class="edge">
<title>Node16&#45;&gt;Node17</title>
<path fill="none" stroke="midnightblue" d="M805.34,-534.96C803.12,-533.43 801,-531.78 799,-530 713.37,-453.76 685.04,-305.7 678.89,-266.64"/>
<polygon fill="midnightblue" stroke="midnightblue" points="803.94,-538.2 814.32,-540.32 807.52,-532.19 803.94,-538.2"/>
</g>
<!-- Node67 -->
<g id="node36" class="node">
<title>Node67</title>
<g id="a_node36"><a xlink:href="$classInputDevice.html#a6ffcebba103a7db02e82c1c7f62387bf" xlink:title=" ">
<polygon fill="white" stroke="black" points="590,-523.5 590,-542.5 763,-542.5 763,-523.5 590,-523.5"/>
<text text-anchor="middle" x="676.5" y="-530.5" font-family="Helvetica,sans-Serif" font-size="10.00">InputDevice::enableSetConnections</text>
</a>
</g>
</g>
<!-- Node16&#45;&gt;Node67 -->
<g id="edge47" class="edge">
<title>Node16&#45;&gt;Node67</title>
<path fill="none" stroke="midnightblue" d="M804.29,-546.84C790.86,-545.38 776.76,-543.84 763.05,-542.34"/>
<polygon fill="midnightblue" stroke="midnightblue" points="804.09,-550.34 814.41,-547.95 804.85,-543.38 804.09,-550.34"/>
</g>
<!-- Node70 -->
<g id="node39" class="node">
<title>Node70</title>
<g id="a_node39"><a xlink:href="$classJoyTabWidgetHelper.html#ae69229b650b5a129cd2ae25d77975d0d" xlink:title=" ">
<polygon fill="white" stroke="black" points="623,-562 623,-592 730,-592 730,-562 623,-562"/>
<text text-anchor="start" x="631" y="-580" font-family="Helvetica,sans-Serif" font-size="10.00">JoyTabWidgetHelper</text>
<text text-anchor="middle" x="676.5" y="-569" font-family="Helvetica,sans-Serif" font-size="10.00">::readConfigFile</text>
</a>
</g>
</g>
<!-- Node16&#45;&gt;Node70 -->
<g id="edge50" class="edge">
<title>Node16&#45;&gt;Node70</title>
<path fill="none" stroke="midnightblue" d="M804.38,-563.15C779.77,-565.83 752.92,-568.77 730.28,-571.24"/>
<polygon fill="midnightblue" stroke="midnightblue" points="804.85,-566.62 814.41,-562.05 804.09,-559.66 804.85,-566.62"/>
</g>
<!-- Node18 -->
<g id="node18" class="node">
<title>Node18</title>
<g id="a_node18"><a xlink:href="$classJoyTabWidget.html#aa56f32a82790b2c20d3d0fac91dc7ba1" xlink:title=" ">
<polygon fill="white" stroke="black" points="194,-304.5 194,-323.5 348,-323.5 348,-304.5 194,-304.5"/>
<text text-anchor="middle" x="271" y="-311.5" font-family="Helvetica,sans-Serif" font-size="10.00">JoyTabWidget::changeSetEight</text>
</a>
</g>
</g>
<!-- Node17&#45;&gt;Node18 -->
<g id="edge18" class="edge">
<title>Node17&#45;&gt;Node18</title>
<path fill="none" stroke="midnightblue" d="M619.37,-268.44C598.85,-272.41 575.42,-276.68 554,-280 484.56,-290.75 405.05,-300.06 348.19,-306.21"/>
<polygon fill="midnightblue" stroke="midnightblue" points="620.04,-271.88 629.18,-266.52 618.7,-265.01 620.04,-271.88"/>
</g>
<!-- Node20 -->
<g id="node20" class="node">
<title>Node20</title>
<g id="a_node20"><a xlink:href="$classJoyTabWidget.html#a0fa7b289e189af4815aee4038d1a82cf" xlink:title=" ">
<polygon fill="white" stroke="black" points="196.5,-266.5 196.5,-285.5 345.5,-285.5 345.5,-266.5 196.5,-266.5"/>
<text text-anchor="middle" x="271" y="-273.5" font-family="Helvetica,sans-Serif" font-size="10.00">JoyTabWidget::changeSetFive</text>
</a>
</g>
</g>
<!-- Node17&#45;&gt;Node20 -->
<g id="edge20" class="edge">
<title>Node17&#45;&gt;Node20</title>
<path fill="none" stroke="midnightblue" d="M584.34,-261.29C512.18,-264.69 412.71,-269.37 345.57,-272.54"/>
<polygon fill="midnightblue" stroke="midnightblue" points="584.51,-264.79 594.33,-260.82 584.18,-257.8 584.51,-264.79"/>
</g>
<!-- Node21 -->
<g id="node21" class="node">
<title>Node21</title>
<g id="a_node21"><a xlink:href="$classJoyTabWidget.html#aecac8e959e54cf6c58745e1e4c3cd904" xlink:title=" ">
<polygon fill="white" stroke="black" points="195.5,-228.5 195.5,-247.5 346.5,-247.5 346.5,-228.5 195.5,-228.5"/>
<text text-anchor="middle" x="271" y="-235.5" font-family="Helvetica,sans-Serif" font-size="10.00">JoyTabWidget::changeSetFour</text>
</a>
</g>
</g>
<!-- Node17&#45;&gt;Node21 -->
<g id="edge22" class="edge">
<title>Node17&#45;&gt;Node21</title>
<path fill="none" stroke="midnightblue" d="M583.94,-252.69C512.18,-249.31 413.58,-244.67 346.58,-241.51"/>
<polygon fill="midnightblue" stroke="midnightblue" points="584.18,-256.2 594.33,-253.18 584.51,-249.21 584.18,-256.2"/>
</g>
<!-- Node22 -->
<g id="node22" class="node">
<title>Node22</title>
<g id="a_node22"><a xlink:href="$classJoyTabWidget.html#af06455c2dba9c9e2817a23866dfc8405" xlink:title=" ">
<polygon fill="white" stroke="black" points="196.5,-190.5 196.5,-209.5 345.5,-209.5 345.5,-190.5 196.5,-190.5"/>
<text text-anchor="middle" x="271" y="-197.5" font-family="Helvetica,sans-Serif" font-size="10.00">JoyTabWidget::changeSetOne</text>
</a>
</g>
</g>
<!-- Node17&#45;&gt;Node22 -->
<g id="edge24" class="edge">
<title>Node17&#45;&gt;Node22</title>
<path fill="none" stroke="midnightblue" d="M597.65,-246C522.73,-235.42 410.62,-219.58 339.42,-209.52"/>
<polygon fill="midnightblue" stroke="midnightblue" points="597.57,-249.53 607.96,-247.46 598.55,-242.6 597.57,-249.53"/>
</g>
<!-- Node23 -->
<g id="node23" class="node">
<title>Node23</title>
<g id="a_node23"><a xlink:href="$classJoyTabWidget.html#a6347e978f16ce9bb88d7c6cfb18021a6" xlink:title=" ">
<polygon fill="white" stroke="black" points="192,-152.5 192,-171.5 350,-171.5 350,-152.5 192,-152.5"/>
<text text-anchor="middle" x="271" y="-159.5" font-family="Helvetica,sans-Serif" font-size="10.00">JoyTabWidget::changeSetSeven</text>
</a>
</g>
</g>
<!-- Node17&#45;&gt;Node23 -->
<g id="edge26" class="edge">
<title>Node17&#45;&gt;Node23</title>
<path fill="none" stroke="midnightblue" d="M641.74,-243.83C617.59,-234.78 584.15,-223 554,-215 480.81,-195.59 395.12,-180.54 337.57,-171.52"/>
<polygon fill="midnightblue" stroke="midnightblue" points="640.57,-247.13 651.16,-247.4 643.05,-240.58 640.57,-247.13"/>
</g>
<!-- Node24 -->
<g id="node24" class="node">
<title>Node24</title>
<g id="a_node24"><a xlink:href="$classJoyTabWidget.html#a89be025926664e7e539c6bb62615189c" xlink:title=" ">
<polygon fill="white" stroke="black" points="198,-114.5 198,-133.5 344,-133.5 344,-114.5 198,-114.5"/>
<text text-anchor="middle" x="271" y="-121.5" font-family="Helvetica,sans-Serif" font-size="10.00">JoyTabWidget::changeSetSix</text>
</a>
</g>
</g>
<!-- Node17&#45;&gt;Node24 -->
<g id="edge28" class="edge">
<title>Node17&#45;&gt;Node24</title>
<path fill="none" stroke="midnightblue" d="M655.99,-241.12C633,-223.24 592.99,-194.65 554,-179 485.72,-151.6 402.51,-137.51 344.23,-130.5"/>
<polygon fill="midnightblue" stroke="midnightblue" points="653.91,-243.94 663.92,-247.39 658.25,-238.45 653.91,-243.94"/>
</g>
<!-- Node25 -->
<g id="node25" class="node">
<title>Node25</title>
<g id="a_node25"><a xlink:href="$classJoyTabWidget.html#a4a0399e1afe09559bf9b28f57eeace5e" xlink:title=" ">
<polygon fill="white" stroke="black" points="396.5,-76.5 396.5,-95.5 552.5,-95.5 552.5,-76.5 396.5,-76.5"/>
<text text-anchor="middle" x="474.5" y="-83.5" font-family="Helvetica,sans-Serif" font-size="10.00">JoyTabWidget::changeSetThree</text>
</a>
</g>
</g>
<!-- Node17&#45;&gt;Node25 -->
<g id="edge30" class="edge">
<title>Node17&#45;&gt;Node25</title>
<path fill="none" stroke="midnightblue" d="M662.51,-238.78C637.07,-203.53 580.8,-127.88 554,-110 544.63,-103.75 533.57,-99.07 522.76,-95.59"/>
<polygon fill="midnightblue" stroke="midnightblue" points="659.88,-241.11 668.55,-247.19 665.56,-237.03 659.88,-241.11"/>
</g>
<!-- Node26 -->
<g id="node26" class="node">
<title>Node26</title>
<g id="a_node26"><a xlink:href="$classJoyTabWidget.html#a8335fc1b4951f215e5ee2a155a0d5a38" xlink:title=" ">
<polygon fill="white" stroke="black" points="400,-38.5 400,-57.5 549,-57.5 549,-38.5 400,-38.5"/>
<text text-anchor="middle" x="474.5" y="-45.5" font-family="Helvetica,sans-Serif" font-size="10.00">JoyTabWidget::changeSetTwo</text>
</a>
</g>
</g>
<!-- Node17&#45;&gt;Node26 -->
<g id="edge32" class="edge">
<title>Node17&#45;&gt;Node26</title>
<path fill="none" stroke="midnightblue" d="M660.79,-239.72C642.76,-218.04 611.89,-179.28 590,-143 570.69,-111 582.99,-90.59 554,-67 549.32,-63.19 544,-60.13 538.39,-57.67"/>
<polygon fill="midnightblue" stroke="midnightblue" points="658.14,-242 667.25,-247.41 663.5,-237.5 658.14,-242"/>
</g>
<!-- Node27 -->
<g id="node27" class="node">
<title>Node27</title>
<g id="a_node27"><a xlink:href="$classMainWindow.html#af308553aa8376a9432b47a14c486a771" xlink:title=" ">
<polygon fill="white" stroke="black" points="401.5,-343 401.5,-373 547.5,-373 547.5,-343 401.5,-343"/>
<text text-anchor="start" x="409.5" y="-361" font-family="Helvetica,sans-Serif" font-size="10.00">MainWindow::changeStartSet</text>
<text text-anchor="middle" x="474.5" y="-350" font-family="Helvetica,sans-Serif" font-size="10.00">Number</text>
</a>
</g>
</g>
<!-- Node17&#45;&gt;Node27 -->
<g id="edge34" class="edge">
<title>Node17&#45;&gt;Node27</title>
<path fill="none" stroke="midnightblue" d="M652.23,-272.15C628.22,-287.4 589.4,-311.03 554,-328 542.82,-333.36 530.41,-338.47 518.82,-342.9"/>
<polygon fill="midnightblue" stroke="midnightblue" points="654.43,-274.89 660.96,-266.55 650.66,-269 654.43,-274.89"/>
</g>
<!-- Node30 -->
<g id="node29" class="node">
<title>Node30</title>
<g id="a_node29"><a xlink:href="$classJoyTabWidget.html#adb5100f5e8c9d9bad8aea4e9b582b8bd" xlink:title="Create and render all push buttons corresponding to joystick controls for all sets.">
<polygon fill="white" stroke="black" points="410.5,-397.5 410.5,-416.5 538.5,-416.5 538.5,-397.5 410.5,-397.5"/>
<text text-anchor="middle" x="474.5" y="-404.5" font-family="Helvetica,sans-Serif" font-size="10.00">JoyTabWidget::fillButtons</text>
</a>
</g>
</g>
<!-- Node17&#45;&gt;Node30 -->
<g id="edge36" class="edge">
<title>Node17&#45;&gt;Node30</title>
<path fill="none" stroke="midnightblue" d="M662.86,-275.08C642.84,-302.38 601.25,-354.02 554,-383 543.92,-389.18 532.12,-393.88 520.78,-397.4"/>
<polygon fill="midnightblue" stroke="midnightblue" points="665.8,-276.98 668.8,-266.82 660.12,-272.89 665.8,-276.98"/>
</g>
<!-- Node66 -->
<g id="node35" class="node">
<title>Node66</title>
<g id="a_node35"><a xlink:href="$classJoyTabWidget.html#a4cc3597f931bb61005ce806bb2fe9c34" xlink:title=" ">
<polygon fill="white" stroke="black" points="400,-436 400,-466 549,-466 549,-436 400,-436"/>
<text text-anchor="start" x="408" y="-454" font-family="Helvetica,sans-Serif" font-size="10.00">JoyTabWidget::removeCurrent</text>
<text text-anchor="middle" x="474.5" y="-443" font-family="Helvetica,sans-Serif" font-size="10.00">Buttons</text>
</a>
</g>
</g>
<!-- Node17&#45;&gt;Node66 -->
<g id="edge43" class="edge">
<title>Node17&#45;&gt;Node66</title>
<path fill="none" stroke="midnightblue" d="M666.84,-276.19C650.09,-311.17 609.92,-385.41 554,-426 548.68,-429.86 542.73,-433.15 536.56,-435.93"/>
<polygon fill="midnightblue" stroke="midnightblue" points="670.22,-277.22 671.28,-266.68 663.88,-274.26 670.22,-277.22"/>
</g>
<!-- Node19 -->
<g id="node19" class="node">
<title>Node19</title>
<g id="a_node19"><a xlink:href="$classJoyTabWidget.html#a6a6bd9ccd83557de08b6e698598f2123" xlink:title=" ">
<polygon fill="white" stroke="black" points="0,-190.5 0,-209.5 147,-209.5 147,-190.5 0,-190.5"/>
<text text-anchor="middle" x="73.5" y="-197.5" font-family="Helvetica,sans-Serif" font-size="10.00">JoyTabWidget::JoyTabWidget</text>
</a>
</g>
</g>
<!-- Node18&#45;&gt;Node19 -->
<g id="edge19" class="edge">
<title>Node18&#45;&gt;Node19</title>
<path fill="none" stroke="midnightblue" d="M198.24,-301.42C192.97,-299.56 187.83,-297.44 183,-295 139.18,-272.9 98.86,-228.95 82.37,-209.57"/>
<polygon fill="midnightblue" stroke="midnightblue" points="197.23,-304.77 207.82,-304.47 199.36,-298.1 197.23,-304.77"/>
</g>
<!-- Node20&#45;&gt;Node19 -->
<g id="edge21" class="edge">
<title>Node20&#45;&gt;Node19</title>
<path fill="none" stroke="midnightblue" d="M205.73,-264.02C197.98,-261.98 190.25,-259.64 183,-257 148.01,-244.25 110.16,-222.3 89.71,-209.68"/>
<polygon fill="midnightblue" stroke="midnightblue" points="204.97,-267.44 215.52,-266.46 206.66,-260.65 204.97,-267.44"/>
</g>
<!-- Node21&#45;&gt;Node19 -->
<g id="edge23" class="edge">
<title>Node21&#45;&gt;Node19</title>
<path fill="none" stroke="midnightblue" d="M210.89,-226.51C183,-221.09 150.1,-214.69 123.6,-209.54"/>
<polygon fill="midnightblue" stroke="midnightblue" points="210.44,-229.99 220.92,-228.46 211.77,-223.12 210.44,-229.99"/>
</g>
<!-- Node22&#45;&gt;Node19 -->
<g id="edge25" class="edge">
<title>Node22&#45;&gt;Node19</title>
<path fill="none" stroke="midnightblue" d="M186.06,-200C173.09,-200 159.79,-200 147.09,-200"/>
<polygon fill="midnightblue" stroke="midnightblue" points="186.37,-203.5 196.37,-200 186.37,-196.5 186.37,-203.5"/>
</g>
<!-- Node23&#45;&gt;Node19 -->
<g id="edge27" class="edge">
<title>Node23&#45;&gt;Node19</title>
<path fill="none" stroke="midnightblue" d="M210.89,-173.49C183,-178.91 150.1,-185.31 123.6,-190.46"/>
<polygon fill="midnightblue" stroke="midnightblue" points="211.77,-176.88 220.92,-171.54 210.44,-170.01 211.77,-176.88"/>
</g>
<!-- Node24&#45;&gt;Node19 -->
<g id="edge29" class="edge">
<title>Node24&#45;&gt;Node19</title>
<path fill="none" stroke="midnightblue" d="M205.73,-135.98C197.98,-138.02 190.25,-140.36 183,-143 148.01,-155.75 110.16,-177.7 89.71,-190.32"/>
<polygon fill="midnightblue" stroke="midnightblue" points="206.66,-139.35 215.52,-133.54 204.97,-132.56 206.66,-139.35"/>
</g>
<!-- Node25&#45;&gt;Node19 -->
<g id="edge31" class="edge">
<title>Node25&#45;&gt;Node19</title>
<path fill="none" stroke="midnightblue" d="M386.34,-77.4C326.85,-74.9 247.46,-78.34 183,-105 137.19,-123.95 97.34,-170.42 81.63,-190.5"/>
<polygon fill="midnightblue" stroke="midnightblue" points="386.3,-80.9 396.46,-77.89 386.64,-73.91 386.3,-80.9"/>
</g>
<!-- Node26&#45;&gt;Node19 -->
<g id="edge33" class="edge">
<title>Node26&#45;&gt;Node19</title>
<path fill="none" stroke="midnightblue" d="M389.45,-38.88C328.81,-36.07 246.73,-40.24 183,-73 129.87,-100.31 91.99,-165.9 79.22,-190.48"/>
<polygon fill="midnightblue" stroke="midnightblue" points="389.58,-42.39 399.76,-39.44 389.96,-35.4 389.58,-42.39"/>
</g>
<!-- Node28 -->
<g id="node28" class="node">
<title>Node28</title>
<g id="a_node28"><a xlink:href="$classMainWindow.html#a58c2bb4b8456b8dd246c6beb3623b3d2" xlink:title=" ">
<polygon fill="white" stroke="red" points="197,-343 197,-373 345,-373 345,-343 197,-343"/>
<text text-anchor="start" x="205" y="-361" font-family="Helvetica,sans-Serif" font-size="10.00">MainWindow::alterConfigFrom</text>
<text text-anchor="middle" x="271" y="-350" font-family="Helvetica,sans-Serif" font-size="10.00">Settings</text>
</a>
</g>
</g>
<!-- Node27&#45;&gt;Node28 -->
<g id="edge35" class="edge">
<title>Node27&#45;&gt;Node28</title>
<path fill="none" stroke="midnightblue" d="M390.91,-358C375.7,-358 359.93,-358 345.03,-358"/>
<polygon fill="midnightblue" stroke="midnightblue" points="391.32,-361.5 401.32,-358 391.32,-354.5 391.32,-361.5"/>
</g>
<!-- Node31 -->
<g id="node30" class="node">
<title>Node31</title>
<g id="a_node30"><a xlink:href="$classJoyTabWidget.html#a47c76ec36601a5965910c3be16b9b1db" xlink:title=" ">
<polygon fill="white" stroke="red" points="190.5,-517.5 190.5,-536.5 351.5,-536.5 351.5,-517.5 190.5,-517.5"/>
<text text-anchor="middle" x="271" y="-524.5" font-family="Helvetica,sans-Serif" font-size="10.00">JoyTabWidget::changeJoyConfig</text>
</a>
</g>
</g>
<!-- Node30&#45;&gt;Node31 -->
<g id="edge37" class="edge">
<title>Node30&#45;&gt;Node31</title>
<path fill="none" stroke="midnightblue" d="M403.3,-421.14C400.37,-422.88 397.58,-424.82 395,-427 364.89,-452.41 389.54,-483.11 359,-508 354.33,-511.81 349.06,-514.9 343.48,-517.4"/>
<polygon fill="midnightblue" stroke="midnightblue" points="405.1,-424.15 412.46,-416.53 401.95,-417.9 405.1,-424.15"/>
</g>
<!-- Node56 -->
<g id="node32" class="node">
<title>Node56</title>
<g id="a_node32"><a xlink:href="$classJoyTabWidget.html#afd2667b869fb35446c215f6189c783d3" xlink:title=" ">
<polygon fill="white" stroke="red" points="196.5,-441.5 196.5,-460.5 345.5,-460.5 345.5,-441.5 196.5,-441.5"/>
<text text-anchor="middle" x="271" y="-448.5" font-family="Helvetica,sans-Serif" font-size="10.00">JoyTabWidget::refreshButtons</text>
</a>
</g>
</g>
<!-- Node30&#45;&gt;Node56 -->
<g id="edge39" class="edge">
<title>Node30&#45;&gt;Node56</title>
<path fill="none" stroke="midnightblue" d="M419.96,-418.69C387.36,-425.81 346.25,-434.79 315.64,-441.47"/>
<polygon fill="midnightblue" stroke="midnightblue" points="420.75,-422.1 429.78,-416.55 419.26,-415.26 420.75,-422.1"/>
</g>
<!-- Node64 -->
<g id="node33" class="node">
<title>Node64</title>
<g id="a_node33"><a xlink:href="$classJoyTabWidget.html#ae64e33fc4199bbb201e8415868d435f5" xlink:title=" ">
<polygon fill="white" stroke="red" points="199.5,-479.5 199.5,-498.5 342.5,-498.5 342.5,-479.5 199.5,-479.5"/>
<text text-anchor="middle" x="271" y="-486.5" font-family="Helvetica,sans-Serif" font-size="10.00">JoyTabWidget::resetJoystick</text>
</a>
</g>
</g>
<!-- Node30&#45;&gt;Node64 -->
<g id="edge40" class="edge">
<title>Node30&#45;&gt;Node64</title>
<path fill="none" stroke="midnightblue" d="M408.09,-420.22C403.52,-422.17 399.1,-424.42 395,-427 373.9,-440.27 380.32,-457.09 359,-470 352.65,-473.84 345.63,-476.91 338.4,-479.36"/>
<polygon fill="midnightblue" stroke="midnightblue" points="409.54,-423.41 417.65,-416.59 407.06,-416.86 409.54,-423.41"/>
</g>
<!-- Node65 -->
<g id="node34" class="node">
<title>Node65</title>
<g id="a_node34"><a xlink:href="$classMainWindow.html#a3e716eee16d5ffa423896bb787723d78" xlink:title="Show abstracted controller dialog for use in SDL 1.2. No longer used for versions of the program runn...">
<polygon fill="white" stroke="black" points="183,-392 183,-422 359,-422 359,-392 183,-392"/>
<text text-anchor="start" x="191" y="-410" font-family="Helvetica,sans-Serif" font-size="10.00">MainWindow::showStickAssignment</text>
<text text-anchor="middle" x="271" y="-399" font-family="Helvetica,sans-Serif" font-size="10.00">Dialog</text>
</a>
</g>
</g>
<!-- Node30&#45;&gt;Node65 -->
<g id="edge42" class="edge">
<title>Node30&#45;&gt;Node65</title>
<path fill="none" stroke="midnightblue" d="M400.28,-407C386.99,-407 373,-407 359.34,-407"/>
<polygon fill="midnightblue" stroke="midnightblue" points="400.3,-410.5 410.3,-407 400.3,-403.5 400.3,-410.5"/>
</g>
<!-- Node32 -->
<g id="node31" class="node">
<title>Node32</title>
<g id="a_node31"><a xlink:href="$classJoyTabWidget.html#ab5a344375911c53432349e37f0ceb23b" xlink:title=" ">
<polygon fill="white" stroke="red" points="7.5,-512 7.5,-542 139.5,-542 139.5,-512 7.5,-512"/>
<text text-anchor="start" x="15.5" y="-530" font-family="Helvetica,sans-Serif" font-size="10.00">JoyTabWidget::disconnect</text>
<text text-anchor="middle" x="73.5" y="-519" font-family="Helvetica,sans-Serif" font-size="10.00">MainComboBoxEvents</text>
</a>
</g>
</g>
<!-- Node31&#45;&gt;Node32 -->
<g id="edge38" class="edge">
<title>Node31&#45;&gt;Node32</title>
<path fill="none" stroke="midnightblue" d="M180.1,-527C166.45,-527 152.59,-527 139.6,-527"/>
<polygon fill="midnightblue" stroke="midnightblue" points="180.48,-530.5 190.48,-527 180.48,-523.5 180.48,-530.5"/>
</g>
<!-- Node64&#45;&gt;Node19 -->
<g id="edge41" class="edge">
<title>Node64&#45;&gt;Node19</title>
<path fill="none" stroke="midnightblue" d="M190.22,-475.23C187.69,-473.66 185.27,-471.92 183,-470 97.74,-397.92 78.83,-249.07 75.25,-209.72"/>
<polygon fill="midnightblue" stroke="midnightblue" points="188.74,-478.41 199.22,-479.97 192,-472.21 188.74,-478.41"/>
</g>
<!-- Node66&#45;&gt;Node31 -->
<g id="edge44" class="edge">
<title>Node66&#45;&gt;Node31</title>
<path fill="none" stroke="midnightblue" d="M406.62,-470.12C402.61,-471.93 398.71,-473.89 395,-476 376.4,-486.59 378.08,-498.29 359,-508 351.42,-511.86 343.08,-514.93 334.66,-517.39"/>
<polygon fill="midnightblue" stroke="midnightblue" points="408.25,-473.24 416.13,-466.16 405.55,-466.78 408.25,-473.24"/>
</g>
<!-- Node66&#45;&gt;Node56 -->
<g id="edge45" class="edge">
<title>Node66&#45;&gt;Node56</title>
<path fill="none" stroke="midnightblue" d="M389.86,-451C375.22,-451 360.09,-451 345.74,-451"/>
<polygon fill="midnightblue" stroke="midnightblue" points="389.9,-454.5 399.9,-451 389.9,-447.5 389.9,-454.5"/>
</g>
<!-- Node66&#45;&gt;Node64 -->
<g id="edge46" class="edge">
<title>Node66&#45;&gt;Node64</title>
<path fill="none" stroke="midnightblue" d="M389.83,-466.78C366.94,-471.1 342.83,-475.64 322.43,-479.49"/>
<polygon fill="midnightblue" stroke="midnightblue" points="390.72,-470.17 399.9,-464.88 389.42,-463.29 390.72,-470.17"/>
</g>
<!-- Node68 -->
<g id="node37" class="node">
<title>Node68</title>
<g id="a_node37"><a xlink:href="$classGameController.html#afcddb9dcc5442a9746c3ff8760ea1791" xlink:title=" ">
<polygon fill="white" stroke="black" points="395,-523.5 395,-542.5 554,-542.5 554,-523.5 395,-523.5"/>
<text text-anchor="middle" x="474.5" y="-530.5" font-family="Helvetica,sans-Serif" font-size="10.00">GameController::GameController</text>
</a>
</g>
</g>
<!-- Node67&#45;&gt;Node68 -->
<g id="edge48" class="edge">
<title>Node67&#45;&gt;Node68</title>
<path fill="none" stroke="midnightblue" d="M579.74,-533C571.14,-533 562.49,-533 554.05,-533"/>
<polygon fill="midnightblue" stroke="midnightblue" points="579.81,-536.5 589.81,-533 579.81,-529.5 579.81,-536.5"/>
</g>
<!-- Node69 -->
<g id="node38" class="node">
<title>Node69</title>
<g id="a_node38"><a xlink:href="$classJoystick.html#a9df5e53506876f3c95e84bdf6c9cbaf1" xlink:title=" ">
<polygon fill="white" stroke="black" points="427.5,-485.5 427.5,-504.5 521.5,-504.5 521.5,-485.5 427.5,-485.5"/>
<text text-anchor="middle" x="474.5" y="-492.5" font-family="Helvetica,sans-Serif" font-size="10.00">Joystick::Joystick</text>
</a>
</g>
</g>
<!-- Node67&#45;&gt;Node69 -->
<g id="edge49" class="edge">
<title>Node67&#45;&gt;Node69</title>
<path fill="none" stroke="midnightblue" d="M615.33,-521.57C585.27,-515.86 549.47,-509.05 521.62,-503.76"/>
<polygon fill="midnightblue" stroke="midnightblue" points="614.81,-525.03 625.29,-523.46 616.12,-518.15 614.81,-525.03"/>
</g>
<!-- Node70&#45;&gt;Node31 -->
<g id="edge51" class="edge">
<title>Node70&#45;&gt;Node31</title>
<path fill="none" stroke="midnightblue" d="M615.59,-594.55C558,-608.59 469.04,-622.79 395,-602 349.01,-589.08 303.18,-553.69 282.87,-536.55"/>
<polygon fill="midnightblue" stroke="midnightblue" points="616.77,-597.87 625.61,-592.03 615.06,-591.08 616.77,-597.87"/>
</g>
<!-- Node71 -->
<g id="node40" class="node">
<title>Node71</title>
<g id="a_node40"><a xlink:href="$classJoyTabWidgetHelper.html#aab77bfeea124b5610b21540c5c95e681" xlink:title=" ">
<polygon fill="white" stroke="black" points="407.5,-562 407.5,-592 541.5,-592 541.5,-562 407.5,-562"/>
<text text-anchor="start" x="415.5" y="-580" font-family="Helvetica,sans-Serif" font-size="10.00">JoyTabWidgetHelper</text>
<text text-anchor="middle" x="474.5" y="-569" font-family="Helvetica,sans-Serif" font-size="10.00">::readConfigFileWithRevert</text>
</a>
</g>
</g>
<!-- Node70&#45;&gt;Node71 -->
<g id="edge52" class="edge">
<title>Node70&#45;&gt;Node71</title>
<path fill="none" stroke="midnightblue" d="M612.79,-577C590.17,-577 564.57,-577 541.67,-577"/>
<polygon fill="midnightblue" stroke="midnightblue" points="612.95,-580.5 622.95,-577 612.95,-573.5 612.95,-580.5"/>
</g>
<!-- Node73 -->
<g id="node42" class="node">
<title>Node73</title>
<g id="a_node42"><a xlink:href="$classAdvanceStickAssignmentDialog.html#a86cf0001cd774ce5ccec8543b7a9a50b" xlink:title=" ">
<polygon fill="white" stroke="black" points="799,-392 799,-422 961,-422 961,-392 799,-392"/>
<text text-anchor="start" x="807" y="-410" font-family="Helvetica,sans-Serif" font-size="10.00">AdvanceStickAssignmentDialog</text>
<text text-anchor="middle" x="880" y="-399" font-family="Helvetica,sans-Serif" font-size="10.00">::AdvanceStickAssignmentDialog</text>
</a>
</g>
</g>
<!-- Node72&#45;&gt;Node73 -->
<g id="edge55" class="edge">
<title>Node72&#45;&gt;Node73</title>
<path fill="none" stroke="midnightblue" d="M1245.31,-343.1C1229.14,-366.26 1197.54,-405.27 1159,-421 1084.39,-451.45 989.03,-436.29 931.6,-422.02"/>
<polygon fill="midnightblue" stroke="midnightblue" points="1248.21,-345.05 1250.91,-334.81 1242.41,-341.13 1248.21,-345.05"/>
</g>
<!-- Node74 -->
<g id="node43" class="node">
<title>Node74</title>
<g id="a_node43"><a xlink:href="$classButtonEditDialog.html#a3e9feede100cbb6a11c9d87659c196ea" xlink:title=" ">
<polygon fill="white" stroke="black" points="1015.5,-332 1015.5,-362 1140.5,-362 1140.5,-332 1015.5,-332"/>
<text text-anchor="start" x="1023.5" y="-350" font-family="Helvetica,sans-Serif" font-size="10.00">ButtonEditDialog::Button</text>
<text text-anchor="middle" x="1078" y="-339" font-family="Helvetica,sans-Serif" font-size="10.00">EditDialog</text>
</a>
</g>
</g>
<!-- Node72&#45;&gt;Node74 -->
<g id="edge56" class="edge">
<title>Node72&#45;&gt;Node74</title>
<path fill="none" stroke="midnightblue" d="M1195.74,-332.57C1177.97,-334.77 1158.56,-337.17 1140.75,-339.37"/>
<polygon fill="midnightblue" stroke="midnightblue" points="1196.5,-336 1205.99,-331.3 1195.64,-329.06 1196.5,-336"/>
</g>
<!-- Node75 -->
<g id="node44" class="node">
<title>Node75</title>
<g id="a_node44"><a xlink:href="$classJoystickStatusWindow.html#a96d9e83b764e14faed4c4dc275d23c45" xlink:title=" ">
<polygon fill="white" stroke="black" points="819,-256 819,-286 941,-286 941,-256 819,-256"/>
<text text-anchor="start" x="827" y="-274" font-family="Helvetica,sans-Serif" font-size="10.00">JoystickStatusWindow</text>
<text text-anchor="middle" x="880" y="-263" font-family="Helvetica,sans-Serif" font-size="10.00">::JoystickStatusWindow</text>
</a>
</g>
</g>
<!-- Node72&#45;&gt;Node75 -->
<g id="edge57" class="edge">
<title>Node72&#45;&gt;Node75</title>
<path fill="none" stroke="midnightblue" d="M1195.87,-316.22C1125.66,-306.14 1011.18,-289.7 941.32,-279.66"/>
<polygon fill="midnightblue" stroke="midnightblue" points="1195.5,-319.7 1205.9,-317.66 1196.5,-312.77 1195.5,-319.7"/>
</g>
<!-- Node76 -->
<g id="node45" class="node">
<title>Node76</title>
<g id="a_node45"><a xlink:href="$classQuickSetDialog.html#a57726006cbe2d8534f4be91a05646dd2" xlink:title=" ">
<polygon fill="white" stroke="black" points="814.5,-188 814.5,-218 945.5,-218 945.5,-188 814.5,-188"/>
<text text-anchor="start" x="822.5" y="-206" font-family="Helvetica,sans-Serif" font-size="10.00">QuickSetDialog::QuickSet</text>
<text text-anchor="middle" x="880" y="-195" font-family="Helvetica,sans-Serif" font-size="10.00">Dialog</text>
</a>
</g>
</g>
<!-- Node72&#45;&gt;Node76 -->
<g id="edge58" class="edge">
<title>Node72&#45;&gt;Node76</title>
<path fill="none" stroke="midnightblue" d="M1243.76,-307.4C1226.73,-286.22 1195.01,-251.46 1159,-235 1090.84,-203.85 1003.89,-198.62 945.54,-199.38"/>
<polygon fill="midnightblue" stroke="midnightblue" points="1241.02,-309.57 1249.94,-315.29 1246.53,-305.26 1241.02,-309.57"/>
</g>
<!-- Node77 -->
<g id="node46" class="node">
<title>Node77</title>
<g id="a_node46"><a xlink:href="$classAdvanceStickAssignmentDialog.html#a48ade79f1dfeb93ff668ac18d0e1243f" xlink:title=" ">
<polygon fill="white" stroke="black" points="1000,-381 1000,-411 1156,-411 1156,-381 1000,-381"/>
<text text-anchor="start" x="1008" y="-399" font-family="Helvetica,sans-Serif" font-size="10.00">AdvanceStickAssignmentDialog</text>
<text text-anchor="middle" x="1078" y="-388" font-family="Helvetica,sans-Serif" font-size="10.00">::reenableButtonEvents</text>
</a>
</g>
</g>
<!-- Node72&#45;&gt;Node77 -->
<g id="edge59" class="edge">
<title>Node72&#45;&gt;Node77</title>
<path fill="none" stroke="midnightblue" d="M1230.43,-339.13C1211,-349.13 1183.8,-362.4 1159,-372 1150.75,-375.19 1141.89,-378.23 1133.18,-381"/>
<polygon fill="midnightblue" stroke="midnightblue" points="1232.05,-342.24 1239.31,-334.52 1228.82,-336.03 1232.05,-342.24"/>
</g>
<!-- Node78 -->
<g id="node47" class="node">
<title>Node78</title>
<g id="a_node47"><a xlink:href="$classJoystickStatusWindow.html#a1a1c28e1d6f480c7424ba81b30b8b4f5" xlink:title=" ">
<polygon fill="white" stroke="black" points="1020,-244 1020,-274 1136,-274 1136,-244 1020,-244"/>
<text text-anchor="start" x="1028" y="-262" font-family="Helvetica,sans-Serif" font-size="10.00">JoystickStatusWindow</text>
<text text-anchor="middle" x="1078" y="-251" font-family="Helvetica,sans-Serif" font-size="10.00">::restoreButtonStates</text>
</a>
</g>
</g>
<!-- Node72&#45;&gt;Node78 -->
<g id="edge61" class="edge">
<title>Node72&#45;&gt;Node78</title>
<path fill="none" stroke="midnightblue" d="M1221.67,-311.9C1192.31,-301.01 1150.51,-285.52 1119.74,-274.11"/>
<polygon fill="midnightblue" stroke="midnightblue" points="1220.52,-315.21 1231.12,-315.4 1222.96,-308.64 1220.52,-315.21"/>
</g>
<!-- Node79 -->
<g id="node48" class="node">
<title>Node79</title>
<g id="a_node48"><a xlink:href="$classGameControllerMappingDialogHelper.html#a4040e6cf676fe8af751125e2928d8a35" xlink:title=" ">
<polygon fill="white" stroke="black" points="997,-107 997,-137 1159,-137 1159,-107 997,-107"/>
<text text-anchor="start" x="1005" y="-125" font-family="Helvetica,sans-Serif" font-size="10.00">GameControllerMappingDialog</text>
<text text-anchor="middle" x="1078" y="-114" font-family="Helvetica,sans-Serif" font-size="10.00">Helper::restoreDeviceDeadZones</text>
</a>
</g>
</g>
<!-- Node72&#45;&gt;Node79 -->
<g id="edge63" class="edge">
<title>Node72&#45;&gt;Node79</title>
<path fill="none" stroke="midnightblue" d="M1251.62,-305.13C1240.59,-268.19 1211.9,-188.84 1159,-146 1154.72,-142.53 1149.94,-139.57 1144.92,-137.03"/>
<polygon fill="midnightblue" stroke="midnightblue" points="1248.37,-306.49 1254.48,-315.14 1255.1,-304.57 1248.37,-306.49"/>
</g>
<!-- Node80 -->
<g id="node49" class="node">
<title>Node80</title>
<g id="a_node49"><a xlink:href="$classQuickSetDialog.html#afacbf395389ca073edf366a412c1626b" xlink:title=" ">
<polygon fill="white" stroke="black" points="999.5,-156 999.5,-186 1156.5,-186 1156.5,-156 999.5,-156"/>
<text text-anchor="start" x="1007.5" y="-174" font-family="Helvetica,sans-Serif" font-size="10.00">QuickSetDialog::restoreJoystick</text>
<text text-anchor="middle" x="1078" y="-163" font-family="Helvetica,sans-Serif" font-size="10.00">State</text>
</a>
</g>
</g>
<!-- Node72&#45;&gt;Node80 -->
<g id="edge64" class="edge">
<title>Node72&#45;&gt;Node80</title>
<path fill="none" stroke="midnightblue" d="M1246.97,-306.76C1231.42,-280.03 1199.07,-230.24 1159,-201 1150.85,-195.05 1141.39,-190.15 1131.88,-186.15"/>
<polygon fill="midnightblue" stroke="midnightblue" points="1243.94,-308.51 1251.92,-315.48 1250.03,-305.05 1243.94,-308.51"/>
</g>
<!-- Node81 -->
<g id="node50" class="node">
<title>Node81</title>
<g id="a_node50"><a xlink:href="$classGameControllerMappingDialogHelper.html#a7852aab5763281aa59c17f2f1da8dd31" xlink:title=" ">
<polygon fill="white" stroke="black" points="1003.5,-469 1003.5,-499 1152.5,-499 1152.5,-469 1003.5,-469"/>
<text text-anchor="start" x="1011.5" y="-487" font-family="Helvetica,sans-Serif" font-size="10.00">GameControllerMappingDialog</text>
<text text-anchor="middle" x="1078" y="-476" font-family="Helvetica,sans-Serif" font-size="10.00">Helper::setupDeadZones</text>
</a>
</g>
</g>
<!-- Node72&#45;&gt;Node81 -->
<g id="edge66" class="edge">
<title>Node72&#45;&gt;Node81</title>
<path fill="none" stroke="midnightblue" d="M1247.38,-343.59C1232.16,-371.31 1199.99,-423.49 1159,-454 1150.91,-460.02 1141.47,-464.96 1131.97,-468.97"/>
<polygon fill="midnightblue" stroke="midnightblue" points="1250.58,-345.03 1252.21,-334.56 1244.41,-341.73 1250.58,-345.03"/>
</g>
<!-- Node77&#45;&gt;Node73 -->
<g id="edge60" class="edge">
<title>Node77&#45;&gt;Node73</title>
<path fill="none" stroke="midnightblue" d="M989.57,-400.91C980.06,-401.44 970.42,-401.98 961.01,-402.51"/>
<polygon fill="midnightblue" stroke="midnightblue" points="990.03,-404.39 999.82,-400.33 989.64,-397.4 990.03,-404.39"/>
</g>
<!-- Node78&#45;&gt;Node75 -->
<g id="edge62" class="edge">
<title>Node78&#45;&gt;Node75</title>
<path fill="none" stroke="midnightblue" d="M1009.72,-263.12C987.41,-264.49 962.74,-266 941.02,-267.33"/>
<polygon fill="midnightblue" stroke="midnightblue" points="1010.01,-266.61 1019.78,-262.5 1009.59,-259.62 1010.01,-266.61"/>
</g>
<!-- Node80&#45;&gt;Node76 -->
<g id="edge65" class="edge">
<title>Node80&#45;&gt;Node76</title>
<path fill="none" stroke="midnightblue" d="M989.19,-185.34C974.57,-187.72 959.63,-190.16 945.72,-192.43"/>
<polygon fill="midnightblue" stroke="midnightblue" points="989.95,-188.76 999.25,-183.69 988.82,-181.85 989.95,-188.76"/>
</g>
</g>
</svg>
