<?xml version="1.0" encoding="UTF-8" standalone="no"?>
<!DOCTYPE svg PUBLIC "-//W3C//DTD SVG 1.1//EN"
 "http://www.w3.org/Graphics/SVG/1.1/DTD/svg11.dtd">
<!-- Generated by graphviz version 2.43.0 (0)
 -->
<!-- Title: InputDeviceBitArrayStatus::changeAxesStatus Pages: 1 -->
<svg width="797pt" height="78pt"
 viewBox="0.00 0.00 797.00 77.50" xmlns="http://www.w3.org/2000/svg" xmlns:xlink="http://www.w3.org/1999/xlink">
<g id="graph0" class="graph" transform="scale(1 1) rotate(0) translate(4 73.5)">
<title>InputDeviceBitArrayStatus::changeAxesStatus</title>
<polygon fill="white" stroke="transparent" points="-4,4 -4,-73.5 793,-73.5 793,4 -4,4"/>
<!-- Node1 -->
<g id="node1" class="node">
<title>Node1</title>
<g id="a_node1"><a xlink:title=" ">
<polygon fill="#bfbfbf" stroke="black" points="656,-17 656,-47 789,-47 789,-17 656,-17"/>
<text text-anchor="start" x="664" y="-35" font-family="Helvetica,sans-Serif" font-size="10.00">InputDeviceBitArrayStatus</text>
<text text-anchor="middle" x="722.5" y="-24" font-family="Helvetica,sans-Serif" font-size="10.00">::changeAxesStatus</text>
</a>
</g>
</g>
<!-- Node2 -->
<g id="node2" class="node">
<title>Node2</title>
<g id="a_node2"><a xlink:href="classInputDaemon.html#afabaea9742cb6db64ca5e5d09d579446" target="_top" xlink:title=" ">
<polygon fill="white" stroke="black" points="482,-39 482,-69 620,-69 620,-39 482,-39"/>
<text text-anchor="start" x="490" y="-57" font-family="Helvetica,sans-Serif" font-size="10.00">InputDaemon::createUnplug</text>
<text text-anchor="middle" x="551" y="-46" font-family="Helvetica,sans-Serif" font-size="10.00">EventBitArray</text>
</a>
</g>
</g>
<!-- Node1&#45;&gt;Node2 -->
<g id="edge1" class="edge">
<title>Node1&#45;&gt;Node2</title>
<path fill="none" stroke="midnightblue" d="M645.96,-41.8C637.37,-42.92 628.65,-44.05 620.16,-45.15"/>
<polygon fill="midnightblue" stroke="midnightblue" points="646.5,-45.26 655.97,-40.51 645.6,-38.32 646.5,-45.26"/>
</g>
<!-- Node6 -->
<g id="node6" class="node">
<title>Node6</title>
<g id="a_node6"><a xlink:href="classInputDaemon.html#a314c26c1cd61de2b923b3e0ee1db0c6e" target="_top" xlink:title=" ">
<polygon fill="white" stroke="black" points="304,-0.5 304,-19.5 446,-19.5 446,-0.5 304,-0.5"/>
<text text-anchor="middle" x="375" y="-7.5" font-family="Helvetica,sans-Serif" font-size="10.00">InputDaemon::firstInputPass</text>
</a>
</g>
</g>
<!-- Node1&#45;&gt;Node6 -->
<g id="edge5" class="edge">
<title>Node1&#45;&gt;Node6</title>
<path fill="none" stroke="midnightblue" d="M645.61,-27.17C586.1,-23.38 503.94,-18.15 446,-14.46"/>
<polygon fill="midnightblue" stroke="midnightblue" points="645.5,-30.67 655.7,-27.81 645.94,-23.68 645.5,-30.67"/>
</g>
<!-- Node3 -->
<g id="node3" class="node">
<title>Node3</title>
<g id="a_node3"><a xlink:href="classInputDaemon.html#a9e5f5e28dc44a7d61625b76c6497ab0f" target="_top" xlink:title=" ">
<polygon fill="white" stroke="black" points="305,-39 305,-69 445,-69 445,-39 305,-39"/>
<text text-anchor="start" x="313" y="-57" font-family="Helvetica,sans-Serif" font-size="10.00">InputDaemon::modifyUnplug</text>
<text text-anchor="middle" x="375" y="-46" font-family="Helvetica,sans-Serif" font-size="10.00">Events</text>
</a>
</g>
</g>
<!-- Node2&#45;&gt;Node3 -->
<g id="edge2" class="edge">
<title>Node2&#45;&gt;Node3</title>
<path fill="none" stroke="midnightblue" d="M471.51,-54C462.74,-54 453.86,-54 445.22,-54"/>
<polygon fill="midnightblue" stroke="midnightblue" points="471.73,-57.5 481.73,-54 471.73,-50.5 471.73,-57.5"/>
</g>
<!-- Node4 -->
<g id="node4" class="node">
<title>Node4</title>
<g id="a_node4"><a xlink:href="classInputDaemon.html#ad7f954b25b67cb5a84fdb1a154282bfd" target="_top" xlink:title=" ">
<polygon fill="white" stroke="black" points="174,-22.5 174,-41.5 268,-41.5 268,-22.5 174,-22.5"/>
<text text-anchor="middle" x="221" y="-29.5" font-family="Helvetica,sans-Serif" font-size="10.00">InputDaemon::run</text>
</a>
</g>
</g>
<!-- Node3&#45;&gt;Node4 -->
<g id="edge3" class="edge">
<title>Node3&#45;&gt;Node4</title>
<path fill="none" stroke="midnightblue" d="M294.5,-42.49C285.49,-41.19 276.54,-39.89 268.17,-38.68"/>
<polygon fill="midnightblue" stroke="midnightblue" points="294.27,-46 304.67,-43.97 295.28,-39.07 294.27,-46"/>
</g>
<!-- Node5 -->
<g id="node5" class="node">
<title>Node5</title>
<g id="a_node5"><a xlink:href="classInputDaemon.html#ab7c3d331123e946ed8da490dfee5c265" target="_top" xlink:title=" ">
<polygon fill="white" stroke="black" points="0,-22.5 0,-41.5 138,-41.5 138,-22.5 0,-22.5"/>
<text text-anchor="middle" x="69" y="-29.5" font-family="Helvetica,sans-Serif" font-size="10.00">InputDaemon::InputDaemon</text>
</a>
</g>
</g>
<!-- Node4&#45;&gt;Node5 -->
<g id="edge4" class="edge">
<title>Node4&#45;&gt;Node5</title>
<path fill="none" stroke="midnightblue" d="M163.77,-32C155.4,-32 146.71,-32 138.13,-32"/>
<polygon fill="midnightblue" stroke="midnightblue" points="163.77,-35.5 173.77,-32 163.77,-28.5 163.77,-35.5"/>
</g>
<!-- Node6&#45;&gt;Node4 -->
<g id="edge6" class="edge">
<title>Node6&#45;&gt;Node4</title>
<path fill="none" stroke="midnightblue" d="M298.05,-20.99C287.86,-22.47 277.67,-23.94 268.2,-25.31"/>
<polygon fill="midnightblue" stroke="midnightblue" points="298.82,-24.42 308.21,-19.52 297.82,-17.49 298.82,-24.42"/>
</g>
</g>
</svg>
