<?xml version="1.0" encoding="UTF-8" standalone="no"?>
<!DOCTYPE svg PUBLIC "-//W3C//DTD SVG 1.1//EN"
 "http://www.w3.org/Graphics/SVG/1.1/DTD/svg11.dtd">
<!-- Generated by graphviz version 2.43.0 (0)
 -->
<!-- Title: JoyAxis::removeControlStick Pages: 1 -->
<svg width="922pt" height="266pt"
 viewBox="0.00 0.00 922.00 266.00" xmlns="http://www.w3.org/2000/svg" xmlns:xlink="http://www.w3.org/1999/xlink">
<g id="graph0" class="graph" transform="scale(1 1) rotate(0) translate(4 262)">
<title>JoyAxis::removeControlStick</title>
<polygon fill="white" stroke="transparent" points="-4,4 -4,-262 918,-262 918,4 -4,4"/>
<!-- Node1 -->
<g id="node1" class="node">
<title>Node1</title>
<g id="a_node1"><a xlink:title=" ">
<polygon fill="#bfbfbf" stroke="black" points="771,-107 771,-126 914,-126 914,-107 771,-107"/>
<text text-anchor="middle" x="842.5" y="-114" font-family="Helvetica,sans-Serif" font-size="10.00">JoyAxis::removeControlStick</text>
</a>
</g>
</g>
<!-- Node2 -->
<g id="node2" class="node">
<title>Node2</title>
<g id="a_node2"><a xlink:href="classJoyControlStick.html#a856e968760351507439829045910de04" target="_top" xlink:title=" ">
<polygon fill="white" stroke="black" points="409,-208 409,-227 554,-227 554,-208 409,-208"/>
<text text-anchor="middle" x="481.5" y="-215" font-family="Helvetica,sans-Serif" font-size="10.00">JoyControlStick::replaceAxes</text>
</a>
</g>
</g>
<!-- Node1&#45;&gt;Node2 -->
<g id="edge1" class="edge">
<title>Node1&#45;&gt;Node2</title>
<path fill="none" stroke="midnightblue" d="M819.72,-131.82C798.93,-145.69 766.23,-165.56 735,-176.5 676.01,-197.17 605.56,-207.5 554.08,-212.62"/>
<polygon fill="midnightblue" stroke="midnightblue" points="821.82,-134.63 828.12,-126.11 817.88,-128.84 821.82,-134.63"/>
</g>
<!-- Node6 -->
<g id="node6" class="node">
<title>Node6</title>
<g id="a_node6"><a xlink:href="classJoyControlStick.html#a65e49d5482a540c730c39416e02c19ae" target="_top" xlink:title=" ">
<polygon fill="white" stroke="black" points="420,-158.5 420,-188.5 543,-188.5 543,-158.5 420,-158.5"/>
<text text-anchor="start" x="428" y="-176.5" font-family="Helvetica,sans-Serif" font-size="10.00">JoyControlStick::replace</text>
<text text-anchor="middle" x="481.5" y="-165.5" font-family="Helvetica,sans-Serif" font-size="10.00">XAxis</text>
</a>
</g>
</g>
<!-- Node1&#45;&gt;Node6 -->
<g id="edge5" class="edge">
<title>Node1&#45;&gt;Node6</title>
<path fill="none" stroke="midnightblue" d="M810.64,-130C789.71,-138.52 761.19,-148.95 735,-154.5 670.39,-168.2 594.64,-172.36 543.09,-173.46"/>
<polygon fill="midnightblue" stroke="midnightblue" points="812.08,-133.19 819.97,-126.11 809.39,-126.72 812.08,-133.19"/>
</g>
<!-- Node7 -->
<g id="node7" class="node">
<title>Node7</title>
<g id="a_node7"><a xlink:href="classJoyControlStick.html#aed8209fad6e2b9ce62cf06c36b2d63d0" target="_top" xlink:title=" ">
<polygon fill="white" stroke="black" points="420,-60.5 420,-90.5 543,-90.5 543,-60.5 420,-60.5"/>
<text text-anchor="start" x="428" y="-78.5" font-family="Helvetica,sans-Serif" font-size="10.00">JoyControlStick::replace</text>
<text text-anchor="middle" x="481.5" y="-67.5" font-family="Helvetica,sans-Serif" font-size="10.00">YAxis</text>
</a>
</g>
</g>
<!-- Node1&#45;&gt;Node7 -->
<g id="edge6" class="edge">
<title>Node1&#45;&gt;Node7</title>
<path fill="none" stroke="midnightblue" d="M760.63,-107.26C694.66,-99.73 602.92,-89.25 543.14,-82.43"/>
<polygon fill="midnightblue" stroke="midnightblue" points="760.24,-110.74 770.57,-108.4 761.03,-103.79 760.24,-110.74"/>
</g>
<!-- Node8 -->
<g id="node8" class="node">
<title>Node8</title>
<g id="a_node8"><a xlink:href="classJoyAxis.html#ac51525cabe4d0ea5aafebe949cde458f" target="_top" xlink:title=" ">
<polygon fill="white" stroke="black" points="600,-126 600,-145 725,-145 725,-126 600,-126"/>
<text text-anchor="middle" x="662.5" y="-133" font-family="Helvetica,sans-Serif" font-size="10.00">JoyAxis::setControlStick</text>
</a>
</g>
</g>
<!-- Node1&#45;&gt;Node8 -->
<g id="edge7" class="edge">
<title>Node1&#45;&gt;Node8</title>
<path fill="none" stroke="midnightblue" d="M760.87,-125.11C748.86,-126.39 736.64,-127.69 725.1,-128.92"/>
<polygon fill="midnightblue" stroke="midnightblue" points="761.32,-128.58 770.89,-124.04 760.58,-121.62 761.32,-128.58"/>
</g>
<!-- Node10 -->
<g id="node10" class="node">
<title>Node10</title>
<g id="a_node10"><a xlink:href="classJoyAxisButton.html#a8c8633a722e2c0a226924608259221d6" target="_top" xlink:title=" ">
<polygon fill="white" stroke="black" points="597,-50 597,-69 728,-69 728,-50 597,-50"/>
<text text-anchor="middle" x="662.5" y="-57" font-family="Helvetica,sans-Serif" font-size="10.00">JoyAxisButton::setVDPad</text>
</a>
</g>
</g>
<!-- Node1&#45;&gt;Node10 -->
<g id="edge12" class="edge">
<title>Node1&#45;&gt;Node10</title>
<path fill="none" stroke="midnightblue" d="M801.98,-103.84C769.17,-93.34 723.2,-78.62 693.39,-69.07"/>
<polygon fill="midnightblue" stroke="midnightblue" points="801.12,-107.24 811.71,-106.96 803.25,-100.58 801.12,-107.24"/>
</g>
<!-- Node11 -->
<g id="node11" class="node">
<title>Node11</title>
<g id="a_node11"><a xlink:href="classJoyControlStick.html#a53368f4d9bfcd6d08d8892f01742d176" target="_top" xlink:title=" ">
<polygon fill="white" stroke="black" points="590,-0.5 590,-30.5 735,-30.5 735,-0.5 590,-0.5"/>
<text text-anchor="start" x="598" y="-18.5" font-family="Helvetica,sans-Serif" font-size="10.00">JoyControlStick::~JoyControl</text>
<text text-anchor="middle" x="662.5" y="-7.5" font-family="Helvetica,sans-Serif" font-size="10.00">Stick</text>
</a>
</g>
</g>
<!-- Node1&#45;&gt;Node11 -->
<g id="edge13" class="edge">
<title>Node1&#45;&gt;Node11</title>
<path fill="none" stroke="midnightblue" d="M822.47,-100.36C801.96,-83.61 767.82,-57.51 735,-40.5 727.99,-36.87 720.35,-33.57 712.74,-30.64"/>
<polygon fill="midnightblue" stroke="midnightblue" points="820.45,-103.24 830.38,-106.92 824.91,-97.85 820.45,-103.24"/>
</g>
<!-- Node3 -->
<g id="node3" class="node">
<title>Node3</title>
<g id="a_node3"><a xlink:href="classAdvanceStickAssignmentDialog.html#a3d447d0544efde715f4774ff0789b9b1" target="_top" xlink:title=" ">
<polygon fill="white" stroke="black" points="211,-202.5 211,-232.5 373,-232.5 373,-202.5 211,-202.5"/>
<text text-anchor="start" x="219" y="-220.5" font-family="Helvetica,sans-Serif" font-size="10.00">AdvanceStickAssignmentDialog</text>
<text text-anchor="middle" x="292" y="-209.5" font-family="Helvetica,sans-Serif" font-size="10.00">::checkForAxisAssignmentSticks</text>
</a>
</g>
</g>
<!-- Node2&#45;&gt;Node3 -->
<g id="edge2" class="edge">
<title>Node2&#45;&gt;Node3</title>
<path fill="none" stroke="midnightblue" d="M398.58,-217.5C390.12,-217.5 381.53,-217.5 373.09,-217.5"/>
<polygon fill="midnightblue" stroke="midnightblue" points="398.81,-221 408.81,-217.5 398.81,-214 398.81,-221"/>
</g>
<!-- Node4 -->
<g id="node4" class="node">
<title>Node4</title>
<g id="a_node4"><a xlink:href="classAdvanceStickAssignmentDialog.html#a0558948fa11d0753485a53d6729e1e53" target="_top" xlink:title=" ">
<polygon fill="white" stroke="black" points="0,-227.5 0,-257.5 175,-257.5 175,-227.5 0,-227.5"/>
<text text-anchor="start" x="8" y="-245.5" font-family="Helvetica,sans-Serif" font-size="10.00">AdvanceStickAssignmentDialog</text>
<text text-anchor="middle" x="87.5" y="-234.5" font-family="Helvetica,sans-Serif" font-size="10.00">::checkForAxisAssignmentStickOne</text>
</a>
</g>
</g>
<!-- Node3&#45;&gt;Node4 -->
<g id="edge3" class="edge">
<title>Node3&#45;&gt;Node4</title>
<path fill="none" stroke="midnightblue" d="M201,-228.61C192.45,-229.67 183.8,-230.73 175.29,-231.79"/>
<polygon fill="midnightblue" stroke="midnightblue" points="201.47,-232.08 210.97,-227.38 200.61,-225.13 201.47,-232.08"/>
</g>
<!-- Node5 -->
<g id="node5" class="node">
<title>Node5</title>
<g id="a_node5"><a xlink:href="classAdvanceStickAssignmentDialog.html#a60498e3f0a4ade4f6644478cb78d3cbc" target="_top" xlink:title=" ">
<polygon fill="white" stroke="black" points="0.5,-178.5 0.5,-208.5 174.5,-208.5 174.5,-178.5 0.5,-178.5"/>
<text text-anchor="start" x="8.5" y="-196.5" font-family="Helvetica,sans-Serif" font-size="10.00">AdvanceStickAssignmentDialog</text>
<text text-anchor="middle" x="87.5" y="-185.5" font-family="Helvetica,sans-Serif" font-size="10.00">::checkForAxisAssignmentStickTwo</text>
</a>
</g>
</g>
<!-- Node3&#45;&gt;Node5 -->
<g id="edge4" class="edge">
<title>Node3&#45;&gt;Node5</title>
<path fill="none" stroke="midnightblue" d="M200.81,-206.81C192.1,-205.78 183.28,-204.73 174.62,-203.71"/>
<polygon fill="midnightblue" stroke="midnightblue" points="200.62,-210.31 210.97,-208.01 201.45,-203.36 200.62,-210.31"/>
</g>
<!-- Node8&#45;&gt;Node2 -->
<g id="edge9" class="edge">
<title>Node8&#45;&gt;Node2</title>
<path fill="none" stroke="midnightblue" d="M639.33,-150.91C618.22,-164.98 585.13,-185.52 554,-198.5 545.11,-202.21 535.29,-205.37 525.85,-207.99"/>
<polygon fill="midnightblue" stroke="midnightblue" points="641.55,-153.63 647.87,-145.13 637.63,-147.83 641.55,-153.63"/>
</g>
<!-- Node8&#45;&gt;Node6 -->
<g id="edge10" class="edge">
<title>Node8&#45;&gt;Node6</title>
<path fill="none" stroke="midnightblue" d="M606.44,-147.19C586.42,-151.44 563.69,-156.26 543.21,-160.61"/>
<polygon fill="midnightblue" stroke="midnightblue" points="607.28,-150.59 616.33,-145.09 605.82,-143.74 607.28,-150.59"/>
</g>
<!-- Node8&#45;&gt;Node7 -->
<g id="edge11" class="edge">
<title>Node8&#45;&gt;Node7</title>
<path fill="none" stroke="midnightblue" d="M623.29,-122.69C595.23,-113.29 557,-100.47 527.47,-90.57"/>
<polygon fill="midnightblue" stroke="midnightblue" points="622.54,-126.13 633.14,-125.99 624.77,-119.5 622.54,-126.13"/>
</g>
<!-- Node9 -->
<g id="node9" class="node">
<title>Node9</title>
<g id="a_node9"><a xlink:href="classJoyControlStick.html#add8f98ad0df0e0dfbd6380abc4422385" target="_top" xlink:title=" ">
<polygon fill="white" stroke="black" points="412,-109.5 412,-139.5 551,-139.5 551,-109.5 412,-109.5"/>
<text text-anchor="start" x="420" y="-127.5" font-family="Helvetica,sans-Serif" font-size="10.00">JoyControlStick::JoyControl</text>
<text text-anchor="middle" x="481.5" y="-116.5" font-family="Helvetica,sans-Serif" font-size="10.00">Stick</text>
</a>
</g>
</g>
<!-- Node8&#45;&gt;Node9 -->
<g id="edge8" class="edge">
<title>Node8&#45;&gt;Node9</title>
<path fill="none" stroke="midnightblue" d="M589.83,-131.1C577.12,-130.31 563.9,-129.5 551.27,-128.73"/>
<polygon fill="midnightblue" stroke="midnightblue" points="589.7,-134.59 599.9,-131.71 590.13,-127.61 589.7,-134.59"/>
</g>
</g>
</svg>
