<?xml version="1.0" encoding="UTF-8" standalone="no"?>
<!DOCTYPE svg PUBLIC "-//W3C//DTD SVG 1.1//EN"
 "http://www.w3.org/Graphics/SVG/1.1/DTD/svg11.dtd">
<!-- Generated by graphviz version 2.43.0 (0)
 -->
<!-- Title: JoyAxisWidget Pages: 1 -->
<svg width="2154pt" height="699pt"
 viewBox="0.00 0.00 2154.00 698.68" xmlns="http://www.w3.org/2000/svg" xmlns:xlink="http://www.w3.org/1999/xlink">
<g id="graph0" class="graph" transform="scale(1 1) rotate(0) translate(4 694.68)">
<title>JoyAxisWidget</title>
<polygon fill="white" stroke="transparent" points="-4,4 -4,-694.68 2150,-694.68 2150,4 -4,4"/>
<!-- Node1 -->
<g id="node1" class="node">
<title>Node1</title>
<g id="a_node1"><a xlink:title=" ">
<polygon fill="#bfbfbf" stroke="black" points="372.5,-671.18 372.5,-690.18 455.5,-690.18 455.5,-671.18 372.5,-671.18"/>
<text text-anchor="middle" x="414" y="-678.18" font-family="Helvetica,sans-Serif" font-size="10.00">JoyAxisWidget</text>
</a>
</g>
</g>
<!-- Node2 -->
<g id="node2" class="node">
<title>Node2</title>
<g id="a_node2"><a xlink:href="classFlashButtonWidget.html" target="_top" xlink:title=" ">
<polygon fill="white" stroke="black" points="112,-671.18 112,-690.18 212,-690.18 212,-671.18 112,-671.18"/>
<text text-anchor="middle" x="162" y="-678.18" font-family="Helvetica,sans-Serif" font-size="10.00">FlashButtonWidget</text>
</a>
</g>
</g>
<!-- Node2&#45;&gt;Node1 -->
<g id="edge1" class="edge">
<title>Node2&#45;&gt;Node1</title>
<path fill="none" stroke="midnightblue" d="M222.28,-680.68C268.54,-680.68 331.57,-680.68 372.28,-680.68"/>
<polygon fill="midnightblue" stroke="midnightblue" points="222.09,-677.18 212.09,-680.68 222.09,-684.18 222.09,-677.18"/>
</g>
<!-- Node3 -->
<g id="node3" class="node">
<title>Node3</title>
<g id="a_node3"><a xlink:title=" ">
<polygon fill="white" stroke="#bfbfbf" points="0,-671.18 0,-690.18 75,-690.18 75,-671.18 0,-671.18"/>
<text text-anchor="middle" x="37.5" y="-678.18" font-family="Helvetica,sans-Serif" font-size="10.00">QPushButton</text>
</a>
</g>
</g>
<!-- Node3&#45;&gt;Node2 -->
<g id="edge2" class="edge">
<title>Node3&#45;&gt;Node2</title>
<path fill="none" stroke="midnightblue" d="M85.45,-680.68C94,-680.68 102.95,-680.68 111.58,-680.68"/>
<polygon fill="midnightblue" stroke="midnightblue" points="85.25,-677.18 75.25,-680.68 85.25,-684.18 85.25,-677.18"/>
</g>
<!-- Node4 -->
<g id="node4" class="node">
<title>Node4</title>
<g id="a_node4"><a xlink:href="classJoyAxis.html" target="_top" xlink:title=" ">
<polygon fill="white" stroke="black" points="136,-460.18 136,-479.18 188,-479.18 188,-460.18 136,-460.18"/>
<text text-anchor="middle" x="162" y="-467.18" font-family="Helvetica,sans-Serif" font-size="10.00">JoyAxis</text>
</a>
</g>
</g>
<!-- Node4&#45;&gt;Node1 -->
<g id="edge3" class="edge">
<title>Node4&#45;&gt;Node1</title>
<path fill="none" stroke="#9a32cd" stroke-dasharray="5,2" d="M169.09,-489.23C178.34,-516.12 198.29,-564.59 230,-594.68 272.28,-634.78 336.67,-659.04 376.72,-671.13"/>
<polygon fill="#9a32cd" stroke="#9a32cd" points="172.32,-487.85 165.87,-479.45 165.67,-490.04 172.32,-487.85"/>
<text text-anchor="middle" x="289.5" y="-663.68" font-family="Helvetica,sans-Serif" font-size="10.00"> m_axis</text>
</g>
<!-- Node8 -->
<g id="node8" class="node">
<title>Node8</title>
<g id="a_node8"><a xlink:href="classJoyAxisXml.html" target="_top" xlink:title=" ">
<polygon fill="white" stroke="black" points="379.5,-250.18 379.5,-269.18 448.5,-269.18 448.5,-250.18 379.5,-250.18"/>
<text text-anchor="middle" x="414" y="-257.18" font-family="Helvetica,sans-Serif" font-size="10.00">JoyAxisXml</text>
</a>
</g>
</g>
<!-- Node4&#45;&gt;Node8 -->
<g id="edge11" class="edge">
<title>Node4&#45;&gt;Node8</title>
<path fill="none" stroke="#9a32cd" stroke-dasharray="5,2" d="M163.82,-449.67C166.56,-411.04 178.47,-326.31 230,-284.68 241.38,-275.48 329.54,-266.69 379.22,-262.4"/>
<polygon fill="#9a32cd" stroke="#9a32cd" points="160.3,-449.9 163.23,-460.08 167.29,-450.3 160.3,-449.9"/>
<text text-anchor="middle" x="289.5" y="-287.68" font-family="Helvetica,sans-Serif" font-size="10.00"> m_joyAxis</text>
</g>
<!-- Node19 -->
<g id="node19" class="node">
<title>Node19</title>
<g id="a_node19"><a xlink:href="classJoyAxisButton.html" target="_top" xlink:title=" ">
<polygon fill="white" stroke="black" points="1628.5,-526.18 1628.5,-545.18 1708.5,-545.18 1708.5,-526.18 1628.5,-526.18"/>
<text text-anchor="middle" x="1668.5" y="-533.18" font-family="Helvetica,sans-Serif" font-size="10.00">JoyAxisButton</text>
</a>
</g>
</g>
<!-- Node4&#45;&gt;Node19 -->
<g id="edge35" class="edge">
<title>Node4&#45;&gt;Node19</title>
<path fill="none" stroke="#9a32cd" stroke-dasharray="5,2" d="M176.81,-487.19C189.12,-501.45 208.49,-520.79 230,-530.68 285.74,-556.31 305.96,-541.48 367,-547.68 680.59,-579.54 758.79,-603.68 1074,-603.68 1074,-603.68 1074,-603.68 1509,-603.68 1567.39,-603.68 1628.79,-564.22 1654.74,-545.42"/>
<polygon fill="#9a32cd" stroke="#9a32cd" points="179.49,-484.94 170.41,-479.49 174.11,-489.41 179.49,-484.94"/>
<text text-anchor="middle" x="997.5" y="-605.68" font-family="Helvetica,sans-Serif" font-size="10.00"> m_axis</text>
</g>
<!-- Node21 -->
<g id="node21" class="node">
<title>Node21</title>
<g id="a_node21"><a xlink:href="classJoyControlStick.html" target="_top" xlink:title=" ">
<polygon fill="white" stroke="black" points="1846,-438.18 1846,-457.18 1932,-457.18 1932,-438.18 1846,-438.18"/>
<text text-anchor="middle" x="1889" y="-445.18" font-family="Helvetica,sans-Serif" font-size="10.00">JoyControlStick</text>
</a>
</g>
</g>
<!-- Node4&#45;&gt;Node21 -->
<g id="edge45" class="edge">
<title>Node4&#45;&gt;Node21</title>
<path fill="none" stroke="#9a32cd" stroke-dasharray="5,2" d="M198.09,-465.32C246.4,-459.71 336.15,-450.68 413,-450.68 413,-450.68 413,-450.68 1239,-450.68 1468.01,-450.68 1742.47,-448.79 1845.86,-448.01"/>
<polygon fill="#9a32cd" stroke="#9a32cd" points="197.67,-461.85 188.15,-466.5 198.49,-468.8 197.67,-461.85"/>
<text text-anchor="middle" x="1075" y="-464.68" font-family="Helvetica,sans-Serif" font-size="10.00"> axisX</text>
<text text-anchor="middle" x="1075" y="-453.68" font-family="Helvetica,sans-Serif" font-size="10.00">axisY</text>
</g>
<!-- Node5 -->
<g id="node5" class="node">
<title>Node5</title>
<g id="a_node5"><a xlink:title=" ">
<polygon fill="white" stroke="#bfbfbf" points="11,-270.18 11,-289.18 64,-289.18 64,-270.18 11,-270.18"/>
<text text-anchor="middle" x="37.5" y="-277.18" font-family="Helvetica,sans-Serif" font-size="10.00">QObject</text>
</a>
</g>
</g>
<!-- Node5&#45;&gt;Node4 -->
<g id="edge4" class="edge">
<title>Node5&#45;&gt;Node4</title>
<path fill="none" stroke="midnightblue" d="M46.42,-298.79C56.05,-321.16 73.45,-358.91 93,-388.68 111.14,-416.3 137.39,-445.13 151.38,-459.8"/>
<polygon fill="midnightblue" stroke="midnightblue" points="49.57,-297.27 42.45,-289.42 43.13,-299.99 49.57,-297.27"/>
</g>
<!-- Node7 -->
<g id="node7" class="node">
<title>Node7</title>
<g id="a_node7"><a xlink:href="classSetJoystickXml.html" target="_top" xlink:title=" ">
<polygon fill="white" stroke="black" points="575,-250.18 575,-269.18 660,-269.18 660,-250.18 575,-250.18"/>
<text text-anchor="middle" x="617.5" y="-257.18" font-family="Helvetica,sans-Serif" font-size="10.00">SetJoystickXml</text>
</a>
</g>
</g>
<!-- Node5&#45;&gt;Node7 -->
<g id="edge7" class="edge">
<title>Node5&#45;&gt;Node7</title>
<path fill="none" stroke="midnightblue" d="M74.26,-270.96C86.2,-268.3 99.62,-265.58 112,-263.68 265.65,-240.12 305.84,-231.23 461,-240.68 499.68,-243.03 543.48,-248.65 574.72,-253.17"/>
<polygon fill="midnightblue" stroke="midnightblue" points="73.17,-267.62 64.21,-273.26 74.73,-274.44 73.17,-267.62"/>
</g>
<!-- Node5&#45;&gt;Node8 -->
<g id="edge10" class="edge">
<title>Node5&#45;&gt;Node8</title>
<path fill="none" stroke="midnightblue" d="M74.37,-276.92C112.83,-274.05 175.71,-269.56 230,-266.68 282.07,-263.91 342.53,-261.82 379.26,-260.67"/>
<polygon fill="midnightblue" stroke="midnightblue" points="73.9,-273.45 64.19,-277.69 74.43,-280.43 73.9,-273.45"/>
</g>
<!-- Node9 -->
<g id="node9" class="node">
<title>Node9</title>
<g id="a_node9"><a xlink:href="classJoyButtonXml.html" target="_top" xlink:title=" ">
<polygon fill="white" stroke="black" points="1469,-381.18 1469,-400.18 1547,-400.18 1547,-381.18 1469,-381.18"/>
<text text-anchor="middle" x="1508" y="-388.18" font-family="Helvetica,sans-Serif" font-size="10.00">JoyButtonXml</text>
</a>
</g>
</g>
<!-- Node5&#45;&gt;Node9 -->
<g id="edge13" class="edge">
<title>Node5&#45;&gt;Node9</title>
<path fill="none" stroke="midnightblue" d="M50.31,-297.91C69.78,-325.5 111.43,-374.68 161,-374.68 161,-374.68 161,-374.68 519,-374.68 688.73,-374.68 729.27,-412.68 899,-412.68 899,-412.68 899,-412.68 1335.5,-412.68 1381.58,-412.68 1434.06,-404.77 1468.7,-398.43"/>
<polygon fill="midnightblue" stroke="midnightblue" points="53.1,-295.79 44.58,-289.49 47.31,-299.72 53.1,-295.79"/>
</g>
<!-- Node10 -->
<g id="node10" class="node">
<title>Node10</title>
<g id="a_node10"><a xlink:href="classJoyButton.html" target="_top" xlink:title=" ">
<polygon fill="white" stroke="black" points="1304,-258.18 1304,-277.18 1365,-277.18 1365,-258.18 1304,-258.18"/>
<text text-anchor="middle" x="1334.5" y="-265.18" font-family="Helvetica,sans-Serif" font-size="10.00">JoyButton</text>
</a>
</g>
</g>
<!-- Node5&#45;&gt;Node10 -->
<g id="edge15" class="edge">
<title>Node5&#45;&gt;Node10</title>
<path fill="none" stroke="midnightblue" d="M58.17,-295.38C81.35,-312.25 121.69,-336.68 161,-336.68 161,-336.68 161,-336.68 1149,-336.68 1211.74,-336.68 1229.22,-329.35 1286,-302.68 1299.91,-296.14 1313.82,-285.25 1322.97,-277.35"/>
<polygon fill="midnightblue" stroke="midnightblue" points="60.26,-292.57 50.17,-289.35 56.05,-298.16 60.26,-292.57"/>
</g>
<!-- Node11 -->
<g id="node11" class="node">
<title>Node11</title>
<g id="a_node11"><a xlink:href="classJoyButtonMouseHelper.html" target="_top" xlink:title=" ">
<polygon fill="white" stroke="black" points="230,-302.18 230,-321.18 349,-321.18 349,-302.18 230,-302.18"/>
<text text-anchor="middle" x="289.5" y="-309.18" font-family="Helvetica,sans-Serif" font-size="10.00">JoyButtonMouseHelper</text>
</a>
</g>
</g>
<!-- Node5&#45;&gt;Node11 -->
<g id="edge17" class="edge">
<title>Node5&#45;&gt;Node11</title>
<path fill="none" stroke="midnightblue" d="M74.29,-284.26C114.88,-289.45 181.69,-298.01 229.91,-304.18"/>
<polygon fill="midnightblue" stroke="midnightblue" points="74.68,-280.78 64.31,-282.98 73.79,-287.72 74.68,-280.78"/>
</g>
<!-- Node12 -->
<g id="node12" class="node">
<title>Node12</title>
<g id="a_node12"><a xlink:href="classJoyButtonSlot.html" target="_top" xlink:title=" ">
<polygon fill="white" stroke="black" points="479,-87.18 479,-106.18 557,-106.18 557,-87.18 479,-87.18"/>
<text text-anchor="middle" x="518" y="-94.18" font-family="Helvetica,sans-Serif" font-size="10.00">JoyButtonSlot</text>
</a>
</g>
</g>
<!-- Node5&#45;&gt;Node12 -->
<g id="edge20" class="edge">
<title>Node5&#45;&gt;Node12</title>
<path fill="none" stroke="midnightblue" d="M39.36,-259.95C41.95,-227.33 52.25,-162.66 93,-131.68 209.12,-43.38 398.43,-70.49 478.89,-87.49"/>
<polygon fill="midnightblue" stroke="midnightblue" points="35.86,-259.85 38.73,-270.05 42.85,-260.28 35.86,-259.85"/>
</g>
<!-- Node14 -->
<g id="node14" class="node">
<title>Node14</title>
<g id="a_node14"><a xlink:href="classJoyDPad.html" target="_top" xlink:title=" ">
<polygon fill="white" stroke="black" points="969,-45.18 969,-64.18 1026,-64.18 1026,-45.18 969,-45.18"/>
<text text-anchor="middle" x="997.5" y="-52.18" font-family="Helvetica,sans-Serif" font-size="10.00">JoyDPad</text>
</a>
</g>
</g>
<!-- Node5&#45;&gt;Node14 -->
<g id="edge23" class="edge">
<title>Node5&#45;&gt;Node14</title>
<path fill="none" stroke="midnightblue" d="M39.96,-259.81C45.19,-204.82 67.99,-54.68 161,-54.68 161,-54.68 161,-54.68 798,-54.68 859,-54.68 930.54,-54.68 968.88,-54.68"/>
<polygon fill="midnightblue" stroke="midnightblue" points="36.45,-259.75 39.09,-270.01 43.43,-260.34 36.45,-259.75"/>
</g>
<!-- Node16 -->
<g id="node16" class="node">
<title>Node16</title>
<g id="a_node16"><a xlink:href="classInputDevice.html" target="_top" xlink:title=" ">
<polygon fill="white" stroke="black" points="583,-174.18 583,-193.18 652,-193.18 652,-174.18 583,-174.18"/>
<text text-anchor="middle" x="617.5" y="-181.18" font-family="Helvetica,sans-Serif" font-size="10.00">InputDevice</text>
</a>
</g>
</g>
<!-- Node5&#45;&gt;Node16 -->
<g id="edge29" class="edge">
<title>Node5&#45;&gt;Node16</title>
<path fill="none" stroke="midnightblue" d="M44.32,-260.35C53.64,-233.27 74.76,-185.07 112,-164.68 274.59,-75.63 512.88,-146.69 590.81,-174.08"/>
<polygon fill="midnightblue" stroke="midnightblue" points="40.98,-259.31 41.22,-269.9 47.64,-261.47 40.98,-259.31"/>
</g>
<!-- Node5&#45;&gt;Node21 -->
<g id="edge37" class="edge">
<title>Node5&#45;&gt;Node21</title>
<path fill="none" stroke="midnightblue" d="M40.78,-299.48C50.05,-375.27 87.93,-642.68 161,-642.68 161,-642.68 161,-642.68 1669.5,-642.68 1782.12,-642.68 1863.43,-496.69 1883.3,-457.35"/>
<polygon fill="midnightblue" stroke="midnightblue" points="44.24,-298.9 39.58,-289.39 37.29,-299.73 44.24,-298.9"/>
</g>
<!-- Node6 -->
<g id="node6" class="node">
<title>Node6</title>
<g id="a_node6"><a xlink:href="classSetJoystick.html" target="_top" xlink:title=" ">
<polygon fill="white" stroke="black" points="763,-240.18 763,-259.18 831,-259.18 831,-240.18 763,-240.18"/>
<text text-anchor="middle" x="797" y="-247.18" font-family="Helvetica,sans-Serif" font-size="10.00">SetJoystick</text>
</a>
</g>
</g>
<!-- Node6&#45;&gt;Node4 -->
<g id="edge5" class="edge">
<title>Node6&#45;&gt;Node4</title>
<path fill="none" stroke="#9a32cd" stroke-dasharray="5,2" d="M775.53,-265.28C735.8,-294.69 644.41,-358.12 557,-388.68 418.34,-437.15 370.26,-393.03 230,-436.68 211.68,-442.38 192.15,-452.52 178.93,-460.06"/>
<polygon fill="#9a32cd" stroke="#9a32cd" points="777.73,-268.01 783.64,-259.22 773.53,-262.4 777.73,-268.01"/>
<text text-anchor="middle" x="518" y="-410.68" font-family="Helvetica,sans-Serif" font-size="10.00"> m_parentSet</text>
</g>
<!-- Node6&#45;&gt;Node7 -->
<g id="edge8" class="edge">
<title>Node6&#45;&gt;Node7</title>
<path fill="none" stroke="#9a32cd" stroke-dasharray="5,2" d="M753.1,-239.74C750.37,-239.32 747.65,-238.96 745,-238.68 715.39,-235.52 707.35,-233.65 678,-238.68 665.04,-240.9 651.16,-245.65 640.07,-250.07"/>
<polygon fill="#9a32cd" stroke="#9a32cd" points="752.51,-243.2 762.97,-241.49 753.73,-236.3 752.51,-243.2"/>
<text text-anchor="middle" x="711.5" y="-241.68" font-family="Helvetica,sans-Serif" font-size="10.00"> m_setJoystick</text>
</g>
<!-- Node6&#45;&gt;Node10 -->
<g id="edge18" class="edge">
<title>Node6&#45;&gt;Node10</title>
<path fill="none" stroke="#9a32cd" stroke-dasharray="5,2" d="M841.2,-258.7C843.83,-259.08 846.45,-259.41 849,-259.68 1020.51,-277.76 1228.02,-272.01 1303.9,-269"/>
<polygon fill="#9a32cd" stroke="#9a32cd" points="841.5,-255.2 831.07,-257.04 840.37,-262.11 841.5,-255.2"/>
<text text-anchor="middle" x="1075" y="-274.68" font-family="Helvetica,sans-Serif" font-size="10.00"> m_parentSet</text>
</g>
<!-- Node6&#45;&gt;Node14 -->
<g id="edge24" class="edge">
<title>Node6&#45;&gt;Node14</title>
<path fill="none" stroke="#9a32cd" stroke-dasharray="5,2" d="M841.24,-248.06C880.71,-245.69 935.23,-239.88 951,-225.68 975.65,-203.47 991.1,-97 995.32,-64.27"/>
<polygon fill="#9a32cd" stroke="#9a32cd" points="840.85,-244.58 831.06,-248.62 841.23,-251.57 840.85,-244.58"/>
<text text-anchor="middle" x="900" y="-249.68" font-family="Helvetica,sans-Serif" font-size="10.00"> m_parentSet</text>
</g>
<!-- Node7&#45;&gt;Node6 -->
<g id="edge6" class="edge">
<title>Node7&#45;&gt;Node6</title>
<path fill="none" stroke="midnightblue" d="M670.38,-256.75C700.27,-255.07 736.95,-253 762.94,-251.54"/>
<polygon fill="midnightblue" stroke="midnightblue" points="669.9,-253.28 660.12,-257.33 670.3,-260.26 669.9,-253.28"/>
</g>
<!-- Node8&#45;&gt;Node7 -->
<g id="edge9" class="edge">
<title>Node8&#45;&gt;Node7</title>
<path fill="none" stroke="#9a32cd" stroke-dasharray="5,2" d="M458.98,-259.68C493.47,-259.68 541.14,-259.68 574.98,-259.68"/>
<polygon fill="#9a32cd" stroke="#9a32cd" points="458.73,-256.18 448.73,-259.68 458.73,-263.18 458.73,-256.18"/>
<text text-anchor="middle" x="518" y="-262.68" font-family="Helvetica,sans-Serif" font-size="10.00"> joyAxisXml</text>
</g>
<!-- Node9&#45;&gt;Node7 -->
<g id="edge12" class="edge">
<title>Node9&#45;&gt;Node7</title>
<path fill="none" stroke="#9a32cd" stroke-dasharray="5,2" d="M1458.74,-383.76C1424.44,-379.43 1377.23,-374.68 1335.5,-374.68 899,-374.68 899,-374.68 899,-374.68 788.21,-374.68 669.97,-296.92 631.43,-269.28"/>
<polygon fill="#9a32cd" stroke="#9a32cd" points="1458.58,-387.27 1468.95,-385.08 1459.48,-380.33 1458.58,-387.27"/>
<text text-anchor="middle" x="1075" y="-377.68" font-family="Helvetica,sans-Serif" font-size="10.00"> joyButtonXml</text>
</g>
<!-- Node10&#45;&gt;Node9 -->
<g id="edge14" class="edge">
<title>Node10&#45;&gt;Node9</title>
<path fill="none" stroke="#9a32cd" stroke-dasharray="5,2" d="M1351.56,-284.37C1360.45,-293.22 1371.92,-304.02 1383,-312.68 1407.1,-331.5 1418.14,-329.37 1441,-349.68 1450.44,-358.07 1448.8,-364.22 1459,-371.68 1464.14,-375.43 1470.12,-378.56 1476.08,-381.13"/>
<polygon fill="#9a32cd" stroke="#9a32cd" points="1354,-281.86 1344.49,-277.2 1349.02,-286.77 1354,-281.86"/>
<text text-anchor="middle" x="1412" y="-352.68" font-family="Helvetica,sans-Serif" font-size="10.00"> m_joyButton</text>
</g>
<!-- Node15 -->
<g id="node15" class="node">
<title>Node15</title>
<g id="a_node15"><a xlink:href="classJoyDPadButton.html" target="_top" xlink:title=" ">
<polygon fill="white" stroke="black" points="1465,-26.18 1465,-45.18 1551,-45.18 1551,-26.18 1465,-26.18"/>
<text text-anchor="middle" x="1508" y="-33.18" font-family="Helvetica,sans-Serif" font-size="10.00">JoyDPadButton</text>
</a>
</g>
</g>
<!-- Node10&#45;&gt;Node15 -->
<g id="edge26" class="edge">
<title>Node10&#45;&gt;Node15</title>
<path fill="none" stroke="midnightblue" d="M1348.71,-249.81C1382.92,-203.52 1473.62,-80.83 1499.82,-45.39"/>
<polygon fill="midnightblue" stroke="midnightblue" points="1345.78,-247.88 1342.65,-258 1351.41,-252.04 1345.78,-247.88"/>
</g>
<!-- Node20 -->
<g id="node20" class="node">
<title>Node20</title>
<g id="a_node20"><a xlink:href="classJoyGradientButton.html" target="_top" xlink:title=" ">
<polygon fill="white" stroke="black" points="1459,-343.18 1459,-362.18 1557,-362.18 1557,-343.18 1459,-343.18"/>
<text text-anchor="middle" x="1508" y="-350.18" font-family="Helvetica,sans-Serif" font-size="10.00">JoyGradientButton</text>
</a>
</g>
</g>
<!-- Node10&#45;&gt;Node20 -->
<g id="edge34" class="edge">
<title>Node10&#45;&gt;Node20</title>
<path fill="none" stroke="midnightblue" d="M1370.1,-280.99C1390.98,-289.38 1417.9,-300.83 1441,-312.68 1459.36,-322.1 1479.51,-334.66 1492.66,-343.17"/>
<polygon fill="midnightblue" stroke="midnightblue" points="1371.27,-277.69 1360.68,-277.25 1368.68,-284.2 1371.27,-277.69"/>
</g>
<!-- Node11&#45;&gt;Node10 -->
<g id="edge16" class="edge">
<title>Node11&#45;&gt;Node10</title>
<path fill="none" stroke="#9a32cd" stroke-dasharray="5,2" d="M359.4,-311.07C569.9,-309.03 1195.76,-301.6 1286,-284.68 1294.44,-283.09 1303.37,-280.23 1311.19,-277.3"/>
<polygon fill="#9a32cd" stroke="#9a32cd" points="359.06,-307.57 349.1,-311.17 359.13,-314.57 359.06,-307.57"/>
<text text-anchor="middle" x="797" y="-307.68" font-family="Helvetica,sans-Serif" font-size="10.00"> mouseHelper</text>
</g>
<!-- Node12&#45;&gt;Node10 -->
<g id="edge19" class="edge">
<title>Node12&#45;&gt;Node10</title>
<path fill="none" stroke="#9a32cd" stroke-dasharray="5,2" d="M567.49,-88.66C648.2,-76.91 814.67,-59.51 951,-89.68 1104.76,-123.7 1270.04,-226.13 1319.04,-258.06"/>
<polygon fill="#9a32cd" stroke="#9a32cd" points="566.53,-85.26 557.15,-90.2 567.56,-92.19 566.53,-85.26"/>
<text text-anchor="middle" x="900" y="-213.68" font-family="Helvetica,sans-Serif" font-size="10.00"> currentDelay</text>
<text text-anchor="middle" x="900" y="-202.68" font-family="Helvetica,sans-Serif" font-size="10.00">lastActiveKey</text>
<text text-anchor="middle" x="900" y="-191.68" font-family="Helvetica,sans-Serif" font-size="10.00">currentSetChangeSlot</text>
<text text-anchor="middle" x="900" y="-180.68" font-family="Helvetica,sans-Serif" font-size="10.00">currentKeyPress</text>
<text text-anchor="middle" x="900" y="-169.68" font-family="Helvetica,sans-Serif" font-size="10.00">currentRelease</text>
<text text-anchor="middle" x="900" y="-158.68" font-family="Helvetica,sans-Serif" font-size="10.00">currentCycle</text>
<text text-anchor="middle" x="900" y="-147.68" font-family="Helvetica,sans-Serif" font-size="10.00">previousCycle</text>
<text text-anchor="middle" x="900" y="-136.68" font-family="Helvetica,sans-Serif" font-size="10.00">m_currentDistance</text>
<text text-anchor="middle" x="900" y="-125.68" font-family="Helvetica,sans-Serif" font-size="10.00">currentPause</text>
<text text-anchor="start" x="849" y="-114.68" font-family="Helvetica,sans-Serif" font-size="10.00">currentWheelHorizontal</text>
<text text-anchor="middle" x="900" y="-103.68" font-family="Helvetica,sans-Serif" font-size="10.00">Event</text>
<text text-anchor="middle" x="900" y="-92.68" font-family="Helvetica,sans-Serif" font-size="10.00">...</text>
</g>
<!-- Node13 -->
<g id="node13" class="node">
<title>Node13</title>
<g id="a_node13"><a xlink:href="classVDPad.html" target="_top" xlink:title=" ">
<polygon fill="white" stroke="black" points="1124,-64.18 1124,-83.18 1172,-83.18 1172,-64.18 1124,-64.18"/>
<text text-anchor="middle" x="1148" y="-71.18" font-family="Helvetica,sans-Serif" font-size="10.00">VDPad</text>
</a>
</g>
</g>
<!-- Node13&#45;&gt;Node10 -->
<g id="edge21" class="edge">
<title>Node13&#45;&gt;Node10</title>
<path fill="none" stroke="#9a32cd" stroke-dasharray="5,2" d="M1182.32,-67.04C1212.88,-62.99 1257.58,-62.53 1286,-86.68 1312.86,-109.5 1328.31,-223.68 1332.4,-257.94"/>
<polygon fill="#9a32cd" stroke="#9a32cd" points="1181.52,-63.62 1172.16,-68.58 1182.57,-70.54 1181.52,-63.62"/>
<text text-anchor="middle" x="1238" y="-89.68" font-family="Helvetica,sans-Serif" font-size="10.00"> m_vdpad</text>
</g>
<!-- Node14&#45;&gt;Node13 -->
<g id="edge22" class="edge">
<title>Node14&#45;&gt;Node13</title>
<path fill="none" stroke="midnightblue" d="M1036.2,-59.5C1063.85,-63.04 1100.53,-67.73 1123.95,-70.73"/>
<polygon fill="midnightblue" stroke="midnightblue" points="1036.45,-56 1026.08,-58.21 1035.56,-62.95 1036.45,-56"/>
</g>
<!-- Node14&#45;&gt;Node15 -->
<g id="edge27" class="edge">
<title>Node14&#45;&gt;Node15</title>
<path fill="none" stroke="#9a32cd" stroke-dasharray="5,2" d="M1036.26,-53.27C1129.06,-49.8 1367.74,-40.88 1464.9,-37.25"/>
<polygon fill="#9a32cd" stroke="#9a32cd" points="1036.06,-49.77 1026.2,-53.64 1036.32,-56.77 1036.06,-49.77"/>
<text text-anchor="middle" x="1238" y="-50.68" font-family="Helvetica,sans-Serif" font-size="10.00"> m_dpad</text>
</g>
<!-- Node15&#45;&gt;Node14 -->
<g id="edge25" class="edge">
<title>Node15&#45;&gt;Node14</title>
<path fill="none" stroke="#9a32cd" stroke-dasharray="5,2" d="M1454.75,-24.16C1450.11,-23.27 1445.48,-22.42 1441,-21.68 1330.65,-3.25 1301.64,4.56 1190,-2.68 1124.7,-6.91 1104.81,2.5 1044,-21.68 1030.4,-27.09 1017.12,-37.49 1008.45,-45.17"/>
<polygon fill="#9a32cd" stroke="#9a32cd" points="1454.36,-27.65 1464.85,-26.17 1455.73,-20.78 1454.36,-27.65"/>
<text text-anchor="middle" x="1238" y="-5.68" font-family="Helvetica,sans-Serif" font-size="10.00"> activeDiagonalButton</text>
</g>
<!-- Node16&#45;&gt;Node6 -->
<g id="edge28" class="edge">
<title>Node16&#45;&gt;Node6</title>
<path fill="none" stroke="#9a32cd" stroke-dasharray="5,2" d="M661.92,-193.13C686.78,-199.25 718.25,-208.22 745,-219.68 758.03,-225.26 771.83,-233.54 781.79,-239.99"/>
<polygon fill="#9a32cd" stroke="#9a32cd" points="662.6,-189.69 652.06,-190.76 660.96,-196.5 662.6,-189.69"/>
<text text-anchor="middle" x="711.5" y="-222.68" font-family="Helvetica,sans-Serif" font-size="10.00"> m_device</text>
</g>
<!-- Node17 -->
<g id="node17" class="node">
<title>Node17</title>
<g id="a_node17"><a xlink:href="classAntiMicroSettings.html" target="_top" xlink:title=" ">
<polygon fill="white" stroke="black" points="367,-174.18 367,-193.18 461,-193.18 461,-174.18 367,-174.18"/>
<text text-anchor="middle" x="414" y="-181.18" font-family="Helvetica,sans-Serif" font-size="10.00">AntiMicroSettings</text>
</a>
</g>
</g>
<!-- Node17&#45;&gt;Node16 -->
<g id="edge30" class="edge">
<title>Node17&#45;&gt;Node16</title>
<path fill="none" stroke="#9a32cd" stroke-dasharray="5,2" d="M471.54,-183.68C507.34,-183.68 552.44,-183.68 582.74,-183.68"/>
<polygon fill="#9a32cd" stroke="#9a32cd" points="471.23,-180.18 461.23,-183.68 471.23,-187.18 471.23,-180.18"/>
<text text-anchor="middle" x="518" y="-186.68" font-family="Helvetica,sans-Serif" font-size="10.00"> m_settings</text>
</g>
<!-- Node18 -->
<g id="node18" class="node">
<title>Node18</title>
<g id="a_node18"><a xlink:title=" ">
<polygon fill="white" stroke="#bfbfbf" points="132,-174.18 132,-193.18 192,-193.18 192,-174.18 132,-174.18"/>
<text text-anchor="middle" x="162" y="-181.18" font-family="Helvetica,sans-Serif" font-size="10.00">QSettings</text>
</a>
</g>
</g>
<!-- Node18&#45;&gt;Node17 -->
<g id="edge31" class="edge">
<title>Node18&#45;&gt;Node17</title>
<path fill="none" stroke="midnightblue" d="M202.31,-183.68C246.85,-183.68 319.36,-183.68 366.63,-183.68"/>
<polygon fill="midnightblue" stroke="midnightblue" points="202.17,-180.18 192.17,-183.68 202.17,-187.18 202.17,-180.18"/>
</g>
<!-- Node19&#45;&gt;Node4 -->
<g id="edge32" class="edge">
<title>Node19&#45;&gt;Node4</title>
<path fill="none" stroke="#9a32cd" stroke-dasharray="5,2" d="M1618.22,-535.21C1586.93,-534.95 1545.59,-534.68 1509,-534.68 413,-534.68 413,-534.68 413,-534.68 330.43,-534.68 308.49,-528.29 230,-502.68 211.88,-496.76 192.48,-486.76 179.24,-479.31"/>
<polygon fill="#9a32cd" stroke="#9a32cd" points="1618.39,-538.71 1628.42,-535.29 1618.45,-531.71 1618.39,-538.71"/>
<text text-anchor="middle" x="997.5" y="-559.68" font-family="Helvetica,sans-Serif" font-size="10.00"> paxisbutton</text>
<text text-anchor="middle" x="997.5" y="-548.68" font-family="Helvetica,sans-Serif" font-size="10.00">activeButton</text>
<text text-anchor="middle" x="997.5" y="-537.68" font-family="Helvetica,sans-Serif" font-size="10.00">naxisbutton</text>
</g>
<!-- Node20&#45;&gt;Node19 -->
<g id="edge33" class="edge">
<title>Node20&#45;&gt;Node19</title>
<path fill="none" stroke="midnightblue" d="M1550.09,-366.9C1552.52,-368.36 1554.85,-369.95 1557,-371.68 1585.62,-394.7 1643.61,-493.83 1661.86,-525.74"/>
<polygon fill="midnightblue" stroke="midnightblue" points="1551.45,-363.66 1540.96,-362.19 1548.24,-369.88 1551.45,-363.66"/>
</g>
<!-- Node23 -->
<g id="node23" class="node">
<title>Node23</title>
<g id="a_node23"><a xlink:href="classJoyControlStickModifierButton.html" target="_top" xlink:title=" ">
<polygon fill="white" stroke="black" points="1594,-381.18 1594,-400.18 1743,-400.18 1743,-381.18 1594,-381.18"/>
<text text-anchor="middle" x="1668.5" y="-388.18" font-family="Helvetica,sans-Serif" font-size="10.00">JoyControlStickModifierButton</text>
</a>
</g>
</g>
<!-- Node20&#45;&gt;Node23 -->
<g id="edge40" class="edge">
<title>Node20&#45;&gt;Node23</title>
<path fill="none" stroke="midnightblue" d="M1558.92,-364.65C1581.13,-369.97 1606.92,-376.15 1627.79,-381.16"/>
<polygon fill="midnightblue" stroke="midnightblue" points="1559.54,-361.19 1549,-362.27 1557.9,-368 1559.54,-361.19"/>
</g>
<!-- Node24 -->
<g id="node24" class="node">
<title>Node24</title>
<g id="a_node24"><a xlink:href="classJoyControlStickButton.html" target="_top" xlink:title=" ">
<polygon fill="white" stroke="black" points="2031,-404.18 2031,-423.18 2146,-423.18 2146,-404.18 2031,-404.18"/>
<text text-anchor="middle" x="2088.5" y="-411.18" font-family="Helvetica,sans-Serif" font-size="10.00">JoyControlStickButton</text>
</a>
</g>
</g>
<!-- Node20&#45;&gt;Node24 -->
<g id="edge43" class="edge">
<title>Node20&#45;&gt;Node24</title>
<path fill="none" stroke="midnightblue" d="M1567.5,-355.37C1631.57,-358.64 1737.28,-364.94 1828,-374.68 1910.62,-383.54 1930.87,-389.07 2013,-401.68 2018.83,-402.57 2024.91,-403.52 2030.97,-404.48"/>
<polygon fill="midnightblue" stroke="midnightblue" points="1567.36,-351.86 1557.2,-354.86 1567.01,-358.85 1567.36,-351.86"/>
</g>
<!-- Node21&#45;&gt;Node4 -->
<g id="edge36" class="edge">
<title>Node21&#45;&gt;Node4</title>
<path fill="none" stroke="#9a32cd" stroke-dasharray="5,2" d="M1842.48,-459.3C1837.62,-460.24 1832.72,-461.06 1828,-461.68 1419.26,-514.77 1313.17,-488.68 901,-488.68 413,-488.68 413,-488.68 413,-488.68 330.51,-488.68 233.16,-478.27 188.15,-472.86"/>
<polygon fill="#9a32cd" stroke="#9a32cd" points="1843.29,-462.7 1852.36,-457.23 1841.86,-455.85 1843.29,-462.7"/>
<text text-anchor="middle" x="1075" y="-493.68" font-family="Helvetica,sans-Serif" font-size="10.00"> m_stick</text>
</g>
<!-- Node21&#45;&gt;Node23 -->
<g id="edge41" class="edge">
<title>Node21&#45;&gt;Node23</title>
<path fill="none" stroke="#9a32cd" stroke-dasharray="5,2" d="M1875.44,-429.92C1864.64,-416.3 1847.7,-398.54 1828,-390.68 1794.39,-377.26 1753.49,-377.63 1721.66,-381.16"/>
<polygon fill="#9a32cd" stroke="#9a32cd" points="1872.81,-432.24 1881.63,-438.12 1878.4,-428.03 1872.81,-432.24"/>
<text text-anchor="middle" x="1794.5" y="-393.68" font-family="Helvetica,sans-Serif" font-size="10.00"> stick</text>
</g>
<!-- Node21&#45;&gt;Node24 -->
<g id="edge44" class="edge">
<title>Node21&#45;&gt;Node24</title>
<path fill="none" stroke="#9a32cd" stroke-dasharray="5,2" d="M1910.47,-432.08C1921.53,-424.63 1935.81,-416.51 1950,-412.68 1975.93,-405.67 2005.62,-405.01 2030.76,-406.48"/>
<polygon fill="#9a32cd" stroke="#9a32cd" points="1908.14,-429.44 1902,-438.08 1912.18,-435.15 1908.14,-429.44"/>
<text text-anchor="middle" x="1981.5" y="-415.68" font-family="Helvetica,sans-Serif" font-size="10.00"> stick</text>
</g>
<!-- Node22 -->
<g id="node22" class="node">
<title>Node22</title>
<g id="a_node22"><a xlink:href="classJoyStickDirectionsType.html" target="_top" xlink:title=" ">
<polygon fill="white" stroke="black" points="1608.5,-671.18 1608.5,-690.18 1728.5,-690.18 1728.5,-671.18 1608.5,-671.18"/>
<text text-anchor="middle" x="1668.5" y="-678.18" font-family="Helvetica,sans-Serif" font-size="10.00">JoyStickDirectionsType</text>
</a>
</g>
</g>
<!-- Node22&#45;&gt;Node21 -->
<g id="edge38" class="edge">
<title>Node22&#45;&gt;Node21</title>
<path fill="none" stroke="midnightblue" d="M1738.9,-686.08C1769.53,-684.79 1803.95,-677.8 1828,-656.68 1889.26,-602.86 1889.86,-491.07 1888.55,-457.45"/>
<polygon fill="midnightblue" stroke="midnightblue" points="1738.59,-682.58 1728.68,-686.31 1738.75,-689.58 1738.59,-682.58"/>
</g>
<!-- Node23&#45;&gt;Node21 -->
<g id="edge39" class="edge">
<title>Node23&#45;&gt;Node21</title>
<path fill="none" stroke="#9a32cd" stroke-dasharray="5,2" d="M1741.09,-402.06C1768.57,-407.22 1800.03,-414.12 1828,-422.68 1841.6,-426.84 1856.34,-432.96 1867.82,-438.1"/>
<polygon fill="#9a32cd" stroke="#9a32cd" points="1741.63,-398.6 1731.16,-400.23 1740.37,-405.48 1741.63,-398.6"/>
<text text-anchor="middle" x="1794.5" y="-425.68" font-family="Helvetica,sans-Serif" font-size="10.00"> modifierButton</text>
</g>
<!-- Node24&#45;&gt;Node21 -->
<g id="edge42" class="edge">
<title>Node24&#45;&gt;Node21</title>
<path fill="none" stroke="#9a32cd" stroke-dasharray="5,2" d="M2021.84,-424.98C1992.36,-430.06 1958.43,-435.9 1932.37,-440.38"/>
<polygon fill="#9a32cd" stroke="#9a32cd" points="2022.8,-428.37 2032.07,-423.22 2021.62,-421.47 2022.8,-428.37"/>
<text text-anchor="middle" x="1981.5" y="-461.68" font-family="Helvetica,sans-Serif" font-size="10.00"> activeButton1</text>
<text text-anchor="middle" x="1981.5" y="-450.68" font-family="Helvetica,sans-Serif" font-size="10.00">activeButton2</text>
<text text-anchor="middle" x="1981.5" y="-439.68" font-family="Helvetica,sans-Serif" font-size="10.00">activeButton3</text>
</g>
</g>
</svg>
