<?xml version="1.0" encoding="UTF-8" standalone="no"?>
<!DOCTYPE svg PUBLIC "-//W3C//DTD SVG 1.1//EN"
 "http://www.w3.org/Graphics/SVG/1.1/DTD/svg11.dtd">
<!-- Generated by graphviz version 2.43.0 (0)
 -->
<!-- Title: SetJoystick::setVDPadNameChange Pages: 1 -->
<!--zoomable 315 -->
<svg id="main" version="1.1" xmlns="http://www.w3.org/2000/svg" xmlns:xlink="http://www.w3.org/1999/xlink" xml:space="preserve" onload="init(evt)">
<style type="text/css"><![CDATA[
.edge:hover path { stroke: red; }
.edge:hover polygon { stroke: red; fill: red; }
]]></style>
<script type="text/javascript"><![CDATA[
var edges = document.getElementsByTagName('g');
if (edges && edges.length) {
  for (var i=0;i<edges.length;i++) {
    if (edges[i].id.substr(0,4)=='edge') {
      edges[i].setAttribute('class','edge');
    }
  }
}
]]></script>
        <defs>
                <circle id="rim" cx="0" cy="0" r="7"/>
                <circle id="rim2" cx="0" cy="0" r="3.5"/>
                <g id="zoomPlus">
                        <use xlink:href="#rim" fill="#404040">
                                <set attributeName="fill" to="#808080" begin="zoomplus.mouseover" end="zoomplus.mouseout"/>
                        </use>
                        <path d="M-4,0h8M0,-4v8" fill="none" stroke="white" stroke-width="1.5" pointer-events="none"/>
                </g>
                <g id="zoomMin">
                        <use xlink:href="#rim" fill="#404040">
                                <set attributeName="fill" to="#808080" begin="zoomminus.mouseover" end="zoomminus.mouseout"/>
                        </use>
                        <path d="M-4,0h8" fill="none" stroke="white" stroke-width="1.5" pointer-events="none"/>
                </g>
                <g id="dirArrow">
                        <path fill="none" stroke="white" stroke-width="1.5" d="M0,-3.0v7 M-2.5,-0.5L0,-3.0L2.5,-0.5"/>
                </g>
               <g id="resetDef">
                       <use xlink:href="#rim2" fill="#404040">
                               <set attributeName="fill" to="#808080" begin="reset.mouseover" end="reset.mouseout"/>
                       </use>
               </g>
        </defs>

<script type="text/javascript">
var viewWidth = 1070;
var viewHeight = 315;
var sectionId = 'dynsection-157';
</script>
<script xlink:href="svgpan.js"/>
<svg id="graph" class="graph">
<g id="viewport">
<title>SetJoystick::setVDPadNameChange</title>
<polygon fill="white" stroke="transparent" points="-4,4 -4,-311 1066,-311 1066,4 -4,4"/>
<!-- Node1 -->
<g id="node1" class="node">
<title>Node1</title>
<g id="a_node1"><a xlink:title=" ">
<polygon fill="#bfbfbf" stroke="black" points="918,-170.5 918,-200.5 1062,-200.5 1062,-170.5 918,-170.5"/>
<text text-anchor="start" x="926" y="-188.5" font-family="Helvetica,sans-Serif" font-size="10.00">SetJoystick::setVDPadName</text>
<text text-anchor="middle" x="990" y="-177.5" font-family="Helvetica,sans-Serif" font-size="10.00">Change</text>
</a>
</g>
</g>
<!-- Node2 -->
<g id="node2" class="node">
<title>Node2</title>
<g id="a_node2"><a xlink:href="classInputDevice.html#a6ffcebba103a7db02e82c1c7f62387bf" target="_top" xlink:title=" ">
<polygon fill="white" stroke="black" points="340,-143 340,-162 513,-162 513,-143 340,-143"/>
<text text-anchor="middle" x="426.5" y="-150" font-family="Helvetica,sans-Serif" font-size="10.00">InputDevice::enableSetConnections</text>
</a>
</g>
</g>
<!-- Node1&#45;&gt;Node2 -->
<g id="edge1" class="edge">
<title>Node1&#45;&gt;Node2</title>
<path fill="none" stroke="midnightblue" d="M907.44,-183.29C819.04,-180.54 673.87,-175.01 549,-165.5 536.41,-164.54 523.12,-163.33 510.11,-162.03"/>
<polygon fill="midnightblue" stroke="midnightblue" points="907.56,-186.79 917.66,-183.6 907.78,-179.79 907.56,-186.79"/>
</g>
<!-- Node5 -->
<g id="node5" class="node">
<title>Node5</title>
<g id="a_node5"><a xlink:href="classSetJoystick.html#a05e3d7619aa147cabdc5d314a9d0bf0a" target="_top" xlink:title=" ">
<polygon fill="white" stroke="black" points="743.5,-214.5 743.5,-244.5 874.5,-244.5 874.5,-214.5 743.5,-214.5"/>
<text text-anchor="start" x="751.5" y="-232.5" font-family="Helvetica,sans-Serif" font-size="10.00">SetJoystick::propogateSet</text>
<text text-anchor="middle" x="809" y="-221.5" font-family="Helvetica,sans-Serif" font-size="10.00">VDPadNameChange</text>
</a>
</g>
</g>
<!-- Node1&#45;&gt;Node5 -->
<g id="edge4" class="edge">
<title>Node1&#45;&gt;Node5</title>
<path fill="none" stroke="midnightblue" d="M917.87,-202.99C902.4,-206.79 886.17,-210.78 871.13,-214.47"/>
<polygon fill="midnightblue" stroke="midnightblue" points="919.02,-206.31 927.9,-200.52 917.35,-199.51 919.02,-206.31"/>
</g>
<!-- Node13 -->
<g id="node13" class="node">
<title>Node13</title>
<g id="a_node13"><a xlink:href="classInputDevice.html#a36abcec4baeb617b7f20b8818bb48358" target="_top" xlink:title=" ">
<polygon fill="white" stroke="black" points="736,-110 736,-129 882,-129 882,-110 736,-110"/>
<text text-anchor="middle" x="809" y="-117" font-family="Helvetica,sans-Serif" font-size="10.00">InputDevice::setVDPadName</text>
</a>
</g>
</g>
<!-- Node1&#45;&gt;Node13 -->
<g id="edge12" class="edge">
<title>Node1&#45;&gt;Node13</title>
<path fill="none" stroke="midnightblue" d="M938.33,-166.82C904.95,-154.51 862.63,-138.91 835.92,-129.06"/>
<polygon fill="midnightblue" stroke="midnightblue" points="937.34,-170.18 947.93,-170.36 939.76,-163.61 937.34,-170.18"/>
</g>
<!-- Node3 -->
<g id="node3" class="node">
<title>Node3</title>
<g id="a_node3"><a xlink:href="classGameController.html#afcddb9dcc5442a9746c3ff8760ea1791" target="_top" xlink:title=" ">
<polygon fill="white" stroke="black" points="143.5,-154 143.5,-173 302.5,-173 302.5,-154 143.5,-154"/>
<text text-anchor="middle" x="223" y="-161" font-family="Helvetica,sans-Serif" font-size="10.00">GameController::GameController</text>
</a>
</g>
</g>
<!-- Node2&#45;&gt;Node3 -->
<g id="edge2" class="edge">
<title>Node2&#45;&gt;Node3</title>
<path fill="none" stroke="midnightblue" d="M329.6,-157.74C320.57,-158.23 311.48,-158.72 302.64,-159.21"/>
<polygon fill="midnightblue" stroke="midnightblue" points="329.96,-161.22 339.75,-157.18 329.58,-154.23 329.96,-161.22"/>
</g>
<!-- Node4 -->
<g id="node4" class="node">
<title>Node4</title>
<g id="a_node4"><a xlink:href="classJoystick.html#a9df5e53506876f3c95e84bdf6c9cbaf1" target="_top" xlink:title=" ">
<polygon fill="white" stroke="black" points="176,-116 176,-135 270,-135 270,-116 176,-116"/>
<text text-anchor="middle" x="223" y="-123" font-family="Helvetica,sans-Serif" font-size="10.00">Joystick::Joystick</text>
</a>
</g>
</g>
<!-- Node2&#45;&gt;Node4 -->
<g id="edge3" class="edge">
<title>Node2&#45;&gt;Node4</title>
<path fill="none" stroke="midnightblue" d="M344.5,-141.65C319.21,-138.26 292.2,-134.64 270.18,-131.69"/>
<polygon fill="midnightblue" stroke="midnightblue" points="344.08,-145.12 354.46,-142.98 345.01,-138.18 344.08,-145.12"/>
</g>
<!-- Node6 -->
<g id="node6" class="node">
<title>Node6</title>
<g id="a_node6"><a xlink:href="classSetJoystick.html#a5d361ae7d236016146559f96be00685b" target="_top" xlink:title=" ">
<polygon fill="white" stroke="black" points="564.5,-220 564.5,-239 684.5,-239 684.5,-220 564.5,-220"/>
<text text-anchor="middle" x="624.5" y="-227" font-family="Helvetica,sans-Serif" font-size="10.00">SetJoystick::addVDPad</text>
</a>
</g>
</g>
<!-- Node5&#45;&gt;Node6 -->
<g id="edge5" class="edge">
<title>Node5&#45;&gt;Node6</title>
<path fill="none" stroke="midnightblue" d="M733.38,-229.5C717.1,-229.5 700.1,-229.5 684.53,-229.5"/>
<polygon fill="midnightblue" stroke="midnightblue" points="733.4,-233 743.4,-229.5 733.4,-226 733.4,-233"/>
</g>
<!-- Node7 -->
<g id="node7" class="node">
<title>Node7</title>
<g id="a_node7"><a xlink:href="classAdvanceStickAssignmentDialog.html#af9a53f130a627d0e5973bed035907801" target="_top" xlink:title=" ">
<polygon fill="white" stroke="black" points="348.5,-203.5 348.5,-233.5 504.5,-233.5 504.5,-203.5 348.5,-203.5"/>
<text text-anchor="start" x="356.5" y="-221.5" font-family="Helvetica,sans-Serif" font-size="10.00">AdvanceStickAssignmentDialog</text>
<text text-anchor="middle" x="426.5" y="-210.5" font-family="Helvetica,sans-Serif" font-size="10.00">::changeStateVDPadWidgets</text>
</a>
</g>
</g>
<!-- Node6&#45;&gt;Node7 -->
<g id="edge6" class="edge">
<title>Node6&#45;&gt;Node7</title>
<path fill="none" stroke="midnightblue" d="M554.08,-225.6C538.06,-224.7 520.92,-223.74 504.59,-222.83"/>
<polygon fill="midnightblue" stroke="midnightblue" points="554.25,-229.12 564.43,-226.18 554.64,-222.13 554.25,-229.12"/>
</g>
<!-- Node9 -->
<g id="node9" class="node">
<title>Node9</title>
<g id="a_node9"><a xlink:href="classGameControllerSet.html#afbbd676e52346412a864cdd084b5c9ce" target="_top" xlink:title=" ">
<polygon fill="white" stroke="black" points="373.5,-252.5 373.5,-282.5 479.5,-282.5 479.5,-252.5 373.5,-252.5"/>
<text text-anchor="start" x="381.5" y="-270.5" font-family="Helvetica,sans-Serif" font-size="10.00">GameControllerSet::</text>
<text text-anchor="middle" x="426.5" y="-259.5" font-family="Helvetica,sans-Serif" font-size="10.00">populateSticksDPad</text>
</a>
</g>
</g>
<!-- Node6&#45;&gt;Node9 -->
<g id="edge8" class="edge">
<title>Node6&#45;&gt;Node9</title>
<path fill="none" stroke="midnightblue" d="M564.24,-240.99C537.35,-246.2 505.82,-252.32 479.82,-257.36"/>
<polygon fill="midnightblue" stroke="midnightblue" points="565.14,-244.38 574.29,-239.04 563.81,-237.51 565.14,-244.38"/>
</g>
<!-- Node8 -->
<g id="node8" class="node">
<title>Node8</title>
<g id="a_node8"><a xlink:href="classAdvanceStickAssignmentDialog.html#a86cf0001cd774ce5ccec8543b7a9a50b" target="_top" xlink:title=" ">
<polygon fill="white" stroke="black" points="142,-203.5 142,-233.5 304,-233.5 304,-203.5 142,-203.5"/>
<text text-anchor="start" x="150" y="-221.5" font-family="Helvetica,sans-Serif" font-size="10.00">AdvanceStickAssignmentDialog</text>
<text text-anchor="middle" x="223" y="-210.5" font-family="Helvetica,sans-Serif" font-size="10.00">::AdvanceStickAssignmentDialog</text>
</a>
</g>
</g>
<!-- Node7&#45;&gt;Node8 -->
<g id="edge7" class="edge">
<title>Node7&#45;&gt;Node8</title>
<path fill="none" stroke="midnightblue" d="M338.13,-218.5C326.79,-218.5 315.22,-218.5 304.01,-218.5"/>
<polygon fill="midnightblue" stroke="midnightblue" points="338.46,-222 348.46,-218.5 338.46,-215 338.46,-222"/>
</g>
<!-- Node10 -->
<g id="node10" class="node">
<title>Node10</title>
<g id="a_node10"><a xlink:href="classGameControllerSet.html#a40b9c9ac22d6fe71c15380dcbca7eb80" target="_top" xlink:title=" ">
<polygon fill="white" stroke="black" points="170,-252.5 170,-282.5 276,-282.5 276,-252.5 170,-252.5"/>
<text text-anchor="start" x="178" y="-270.5" font-family="Helvetica,sans-Serif" font-size="10.00">GameControllerSet::</text>
<text text-anchor="middle" x="223" y="-259.5" font-family="Helvetica,sans-Serif" font-size="10.00">resetSticks</text>
</a>
</g>
</g>
<!-- Node9&#45;&gt;Node10 -->
<g id="edge9" class="edge">
<title>Node9&#45;&gt;Node10</title>
<path fill="none" stroke="midnightblue" d="M363.3,-267.5C335.42,-267.5 302.89,-267.5 276.28,-267.5"/>
<polygon fill="midnightblue" stroke="midnightblue" points="363.35,-271 373.35,-267.5 363.35,-264 363.35,-271"/>
</g>
<!-- Node11 -->
<g id="node11" class="node">
<title>Node11</title>
<g id="a_node11"><a xlink:href="classGameControllerSet.html#a9d686fa2df459f7d157d60e05707f712" target="_top" xlink:title=" ">
<polygon fill="white" stroke="black" points="0,-276.5 0,-306.5 106,-306.5 106,-276.5 0,-276.5"/>
<text text-anchor="start" x="8" y="-294.5" font-family="Helvetica,sans-Serif" font-size="10.00">GameControllerSet::</text>
<text text-anchor="middle" x="53" y="-283.5" font-family="Helvetica,sans-Serif" font-size="10.00">GameControllerSet</text>
</a>
</g>
</g>
<!-- Node10&#45;&gt;Node11 -->
<g id="edge10" class="edge">
<title>Node10&#45;&gt;Node11</title>
<path fill="none" stroke="midnightblue" d="M159.6,-276.41C142.03,-278.92 123.11,-281.63 106.2,-284.04"/>
<polygon fill="midnightblue" stroke="midnightblue" points="160.36,-279.84 169.76,-274.96 159.37,-272.91 160.36,-279.84"/>
</g>
<!-- Node12 -->
<g id="node12" class="node">
<title>Node12</title>
<g id="a_node12"><a xlink:href="classGameControllerSet.html#a69d798af242a07017bc0f2e2d0d8a830" target="_top" xlink:title=" ">
<polygon fill="white" stroke="black" points="0,-227.5 0,-257.5 106,-257.5 106,-227.5 0,-227.5"/>
<text text-anchor="start" x="8" y="-245.5" font-family="Helvetica,sans-Serif" font-size="10.00">GameControllerSet::</text>
<text text-anchor="middle" x="53" y="-234.5" font-family="Helvetica,sans-Serif" font-size="10.00">reset</text>
</a>
</g>
</g>
<!-- Node10&#45;&gt;Node12 -->
<g id="edge11" class="edge">
<title>Node10&#45;&gt;Node12</title>
<path fill="none" stroke="midnightblue" d="M159.6,-258.21C142.03,-255.6 123.11,-252.78 106.2,-250.27"/>
<polygon fill="midnightblue" stroke="midnightblue" points="159.36,-261.72 169.76,-259.73 160.39,-254.79 159.36,-261.72"/>
</g>
<!-- Node14 -->
<g id="node14" class="node">
<title>Node14</title>
<g id="a_node14"><a xlink:href="classInputDeviceXml.html#a847bf9ed17b554bf87d513a1aebdcb64" target="_top" xlink:title=" ">
<polygon fill="white" stroke="black" points="554.5,-50 554.5,-69 694.5,-69 694.5,-50 554.5,-50"/>
<text text-anchor="middle" x="624.5" y="-57" font-family="Helvetica,sans-Serif" font-size="10.00">InputDeviceXml::readConfig</text>
</a>
</g>
</g>
<!-- Node13&#45;&gt;Node14 -->
<g id="edge13" class="edge">
<title>Node13&#45;&gt;Node14</title>
<path fill="none" stroke="midnightblue" d="M769.92,-106.7C749.25,-99.78 723.24,-91.12 700,-83.5 685.28,-78.68 668.9,-73.39 655.25,-69.01"/>
<polygon fill="midnightblue" stroke="midnightblue" points="769.01,-110.09 779.6,-109.95 771.23,-103.45 769.01,-110.09"/>
</g>
<!-- Node15 -->
<g id="node15" class="node">
<title>Node15</title>
<g id="a_node15"><a xlink:href="classGameControllerXml.html#af727b41e5437fef842cd30dc5095ba9e" target="_top" xlink:title=" ">
<polygon fill="white" stroke="black" points="555.5,-0.5 555.5,-30.5 693.5,-30.5 693.5,-0.5 555.5,-0.5"/>
<text text-anchor="start" x="563.5" y="-18.5" font-family="Helvetica,sans-Serif" font-size="10.00">GameControllerXml::</text>
<text text-anchor="middle" x="624.5" y="-7.5" font-family="Helvetica,sans-Serif" font-size="10.00">readJoystickConfigXmlLong</text>
</a>
</g>
</g>
<!-- Node13&#45;&gt;Node15 -->
<g id="edge14" class="edge">
<title>Node13&#45;&gt;Node15</title>
<path fill="none" stroke="midnightblue" d="M789.75,-103.4C769.17,-85.92 734.09,-58.15 700,-40.5 692.85,-36.8 685.04,-33.48 677.25,-30.55"/>
<polygon fill="midnightblue" stroke="midnightblue" points="787.54,-106.11 797.4,-109.99 792.11,-100.81 787.54,-106.11"/>
</g>
<!-- Node18 -->
<g id="node18" class="node">
<title>Node18</title>
<g id="a_node18"><a xlink:href="classGameControllerXml.html#a6cc4ca448e7b6462630d535f75f3a96b" target="_top" xlink:title=" ">
<polygon fill="white" stroke="black" points="372.5,-74.5 372.5,-104.5 480.5,-104.5 480.5,-74.5 372.5,-74.5"/>
<text text-anchor="start" x="380.5" y="-92.5" font-family="Helvetica,sans-Serif" font-size="10.00">GameControllerXml::</text>
<text text-anchor="middle" x="426.5" y="-81.5" font-family="Helvetica,sans-Serif" font-size="10.00">readXmlNamesShort</text>
</a>
</g>
</g>
<!-- Node13&#45;&gt;Node18 -->
<g id="edge17" class="edge">
<title>Node13&#45;&gt;Node18</title>
<path fill="none" stroke="midnightblue" d="M725.72,-113.01C651.36,-107.15 544.11,-98.69 480.53,-93.68"/>
<polygon fill="midnightblue" stroke="midnightblue" points="725.74,-116.53 735.98,-113.82 726.29,-109.55 725.74,-116.53"/>
</g>
<!-- Node19 -->
<g id="node19" class="node">
<title>Node19</title>
<g id="a_node19"><a xlink:href="classInputDevice.html#a9e31db2616040d7ed9e5f0a1b10cbab8" target="_top" xlink:title=" ">
<polygon fill="white" stroke="black" points="549,-126.5 549,-156.5 700,-156.5 700,-126.5 549,-126.5"/>
<text text-anchor="start" x="557" y="-144.5" font-family="Helvetica,sans-Serif" font-size="10.00">InputDevice::updateSetVDPad</text>
<text text-anchor="middle" x="624.5" y="-133.5" font-family="Helvetica,sans-Serif" font-size="10.00">Names</text>
</a>
</g>
</g>
<!-- Node13&#45;&gt;Node19 -->
<g id="edge19" class="edge">
<title>Node13&#45;&gt;Node19</title>
<path fill="none" stroke="midnightblue" d="M725.85,-122.68C715.75,-123.83 705.51,-125.11 695.61,-126.46"/>
<polygon fill="midnightblue" stroke="midnightblue" points="726.31,-126.15 735.87,-121.58 725.55,-119.2 726.31,-126.15"/>
</g>
<!-- Node16 -->
<g id="node16" class="node">
<title>Node16</title>
<g id="a_node16"><a xlink:href="classGameControllerXml.html#aaa5257d4c6fe13f1d5fc51981e247c25" target="_top" xlink:title=" ">
<polygon fill="white" stroke="black" points="372.5,-9.5 372.5,-39.5 480.5,-39.5 480.5,-9.5 372.5,-9.5"/>
<text text-anchor="start" x="380.5" y="-27.5" font-family="Helvetica,sans-Serif" font-size="10.00">GameControllerXml::</text>
<text text-anchor="middle" x="426.5" y="-16.5" font-family="Helvetica,sans-Serif" font-size="10.00">readJoystickConfig</text>
</a>
</g>
</g>
<!-- Node15&#45;&gt;Node16 -->
<g id="edge15" class="edge">
<title>Node15&#45;&gt;Node16</title>
<path fill="none" stroke="midnightblue" d="M545.29,-19.09C523.56,-20.09 500.47,-21.15 480.55,-22.06"/>
<polygon fill="midnightblue" stroke="midnightblue" points="545.67,-22.58 555.5,-18.62 545.35,-15.58 545.67,-22.58"/>
</g>
<!-- Node17 -->
<g id="node17" class="node">
<title>Node17</title>
<g id="a_node17"><a xlink:href="classGameControllerXml.html#a7e47256cae0d3815419bc254413777d1" target="_top" xlink:title=" ">
<polygon fill="white" stroke="black" points="169,-53.5 169,-83.5 277,-83.5 277,-53.5 169,-53.5"/>
<text text-anchor="start" x="177" y="-71.5" font-family="Helvetica,sans-Serif" font-size="10.00">GameControllerXml::</text>
<text text-anchor="middle" x="223" y="-60.5" font-family="Helvetica,sans-Serif" font-size="10.00">readConfig</text>
</a>
</g>
</g>
<!-- Node16&#45;&gt;Node17 -->
<g id="edge16" class="edge">
<title>Node16&#45;&gt;Node17</title>
<path fill="none" stroke="midnightblue" d="M362.42,-38.27C335.04,-44.25 303.32,-51.18 277.15,-56.89"/>
<polygon fill="midnightblue" stroke="midnightblue" points="363.27,-41.67 372.29,-36.12 361.78,-34.83 363.27,-41.67"/>
</g>
<!-- Node18&#45;&gt;Node17 -->
<g id="edge18" class="edge">
<title>Node18&#45;&gt;Node17</title>
<path fill="none" stroke="midnightblue" d="M362.06,-82.89C334.76,-80.04 303.2,-76.75 277.15,-74.04"/>
<polygon fill="midnightblue" stroke="midnightblue" points="361.99,-86.4 372.29,-83.96 362.71,-79.44 361.99,-86.4"/>
</g>
<!-- Node19&#45;&gt;Node2 -->
<g id="edge20" class="edge">
<title>Node19&#45;&gt;Node2</title>
<path fill="none" stroke="midnightblue" d="M538.61,-146.26C530.15,-146.74 521.56,-147.22 513.1,-147.7"/>
<polygon fill="midnightblue" stroke="midnightblue" points="539.05,-149.74 548.84,-145.69 538.66,-142.76 539.05,-149.74"/>
</g>
<!-- Node19&#45;&gt;Node13 -->
<g id="edge21" class="edge">
<title>Node19&#45;&gt;Node13</title>
<path fill="none" stroke="midnightblue" d="M710.36,-138.01C732.76,-135.41 755.68,-132.21 773.67,-129.05"/>
<polygon fill="midnightblue" stroke="midnightblue" points="709.67,-134.56 700.12,-139.15 710.45,-141.52 709.67,-134.56"/>
</g>
</g>
</svg>
        <g id="navigator" transform="translate(0 0)" fill="#404254">
                <rect fill="#f2f5e9" fill-opacity="0.5" stroke="#606060" stroke-width=".5" x="0" y="0" width="60" height="60"/>
                <use id="zoomplus" xlink:href="#zoomPlus" x="17" y="9" onmousedown="handleZoom(evt,'in')"/>
                <use id="zoomminus" xlink:href="#zoomMin" x="42" y="9" onmousedown="handleZoom(evt,'out')"/>
                <use id="reset" xlink:href="#resetDef" x="30" y="36" onmousedown="handleReset()"/>
                <g id="arrowUp" xlink:href="#dirArrow" transform="translate(30 24)" onmousedown="handlePan(0,-1)">
                  <use xlink:href="#rim" fill="#404040">
                        <set attributeName="fill" to="#808080" begin="arrowUp.mouseover" end="arrowUp.mouseout"/>
                  </use>
                  <path fill="none" stroke="white" stroke-width="1.5" d="M0,-3.0v7 M-2.5,-0.5L0,-3.0L2.5,-0.5"/>
                </g>
                <g id="arrowRight" xlink:href="#dirArrow" transform="rotate(90) translate(36 -43)" onmousedown="handlePan(1,0)">
                  <use xlink:href="#rim" fill="#404040">
                        <set attributeName="fill" to="#808080" begin="arrowRight.mouseover" end="arrowRight.mouseout"/>
                  </use>
                  <path fill="none" stroke="white" stroke-width="1.5" d="M0,-3.0v7 M-2.5,-0.5L0,-3.0L2.5,-0.5"/>
                </g>
                <g id="arrowDown" xlink:href="#dirArrow" transform="rotate(180) translate(-30 -48)" onmousedown="handlePan(0,1)">
                  <use xlink:href="#rim" fill="#404040">
                        <set attributeName="fill" to="#808080" begin="arrowDown.mouseover" end="arrowDown.mouseout"/>
                  </use>
                  <path fill="none" stroke="white" stroke-width="1.5" d="M0,-3.0v7 M-2.5,-0.5L0,-3.0L2.5,-0.5"/>
                </g>
                <g id="arrowLeft" xlink:href="#dirArrow" transform="rotate(270) translate(-36 17)" onmousedown="handlePan(-1,0)">
                  <use xlink:href="#rim" fill="#404040">
                        <set attributeName="fill" to="#808080" begin="arrowLeft.mouseover" end="arrowLeft.mouseout"/>
                  </use>
                  <path fill="none" stroke="white" stroke-width="1.5" d="M0,-3.0v7 M-2.5,-0.5L0,-3.0L2.5,-0.5"/>
                </g>
        </g>
        <svg viewBox="0 0 15 15" width="100%" height="30px" preserveAspectRatio="xMaxYMin meet">
         <g id="arrow_out" transform="scale(0.3 0.3)">
          <a xlink:href="classSetJoystick_ae1d30f1fe45b223ffa8693218c056ef7_icgraph_org.svg" target="_base">
           <rect id="button" ry="5" rx="5" y="6" x="6" height="38" width="38"
                fill="#f2f5e9" fill-opacity="0.5" stroke="#606060" stroke-width="1.0"/>
           <path id="arrow"
             d="M 11.500037,31.436501 C 11.940474,20.09759 22.043105,11.32322 32.158766,21.979434 L 37.068811,17.246167 C 37.068811,17.246167 37.088388,32 37.088388,32 L 22.160133,31.978069 C 22.160133,31.978069 26.997745,27.140456 26.997745,27.140456 C 18.528582,18.264221 13.291696,25.230495 11.500037,31.436501 z"
             style="fill:#404040;"/>
          </a>
         </g>
        </svg>
</svg>
