<?xml version="1.0" encoding="UTF-8" standalone="no"?>
<!DOCTYPE svg PUBLIC "-//W3C//DTD SVG 1.1//EN"
 "http://www.w3.org/Graphics/SVG/1.1/DTD/svg11.dtd">
<!-- Generated by graphviz version 2.43.0 (0)
 -->
<!-- Title: GameControllerTriggerButton Pages: 1 -->
<!--zoomable 737 -->
<svg id="main" version="1.1" xmlns="http://www.w3.org/2000/svg" xmlns:xlink="http://www.w3.org/1999/xlink" xml:space="preserve" onload="init(evt)">
<style type="text/css"><![CDATA[
.edge:hover path { stroke: red; }
.edge:hover polygon { stroke: red; fill: red; }
]]></style>
<script type="text/javascript"><![CDATA[
var edges = document.getElementsByTagName('g');
if (edges && edges.length) {
  for (var i=0;i<edges.length;i++) {
    if (edges[i].id.substr(0,4)=='edge') {
      edges[i].setAttribute('class','edge');
    }
  }
}
]]></script>
        <defs>
                <circle id="rim" cx="0" cy="0" r="7"/>
                <circle id="rim2" cx="0" cy="0" r="3.5"/>
                <g id="zoomPlus">
                        <use xlink:href="#rim" fill="#404040">
                                <set attributeName="fill" to="#808080" begin="zoomplus.mouseover" end="zoomplus.mouseout"/>
                        </use>
                        <path d="M-4,0h8M0,-4v8" fill="none" stroke="white" stroke-width="1.5" pointer-events="none"/>
                </g>
                <g id="zoomMin">
                        <use xlink:href="#rim" fill="#404040">
                                <set attributeName="fill" to="#808080" begin="zoomminus.mouseover" end="zoomminus.mouseout"/>
                        </use>
                        <path d="M-4,0h8" fill="none" stroke="white" stroke-width="1.5" pointer-events="none"/>
                </g>
                <g id="dirArrow">
                        <path fill="none" stroke="white" stroke-width="1.5" d="M0,-3.0v7 M-2.5,-0.5L0,-3.0L2.5,-0.5"/>
                </g>
               <g id="resetDef">
                       <use xlink:href="#rim2" fill="#404040">
                               <set attributeName="fill" to="#808080" begin="reset.mouseover" end="reset.mouseout"/>
                       </use>
               </g>
        </defs>

<script type="text/javascript">
var viewWidth = 886;
var viewHeight = 737;
var sectionId = 'dynsection-1';
</script>
<script xlink:href="svgpan.js"/>
<svg id="graph" class="graph">
<g id="viewport">
<title>GameControllerTriggerButton</title>
<polygon fill="white" stroke="transparent" points="-4,4 -4,-733 881.65,-733 881.65,4 -4,4"/>
<!-- Node1 -->
<g id="node1" class="node">
<title>Node1</title>
<g id="a_node1"><a xlink:title=" ">
<polygon fill="#bfbfbf" stroke="black" points="41.15,-620.5 41.15,-639.5 184.15,-639.5 184.15,-620.5 41.15,-620.5"/>
<text text-anchor="middle" x="112.65" y="-627.5" font-family="Helvetica,sans-Serif" font-size="10.00">GameControllerTriggerButton</text>
</a>
</g>
</g>
<!-- Node2 -->
<g id="node2" class="node">
<title>Node2</title>
<g id="a_node2"><a xlink:href="classJoyAxisButton.html" target="_top" xlink:title=" ">
<polygon fill="white" stroke="black" points="84.65,-709.5 84.65,-728.5 164.65,-728.5 164.65,-709.5 84.65,-709.5"/>
<text text-anchor="middle" x="124.65" y="-716.5" font-family="Helvetica,sans-Serif" font-size="10.00">JoyAxisButton</text>
</a>
</g>
</g>
<!-- Node2&#45;&gt;Node1 -->
<g id="edge1" class="edge">
<title>Node2&#45;&gt;Node1</title>
<path fill="none" stroke="midnightblue" d="M122.05,-699.19C119.51,-680.74 115.74,-653.41 113.83,-639.62"/>
<polygon fill="midnightblue" stroke="midnightblue" points="118.62,-699.91 123.45,-709.34 125.55,-698.96 118.62,-699.91"/>
</g>
<!-- Node10 -->
<g id="node10" class="node">
<title>Node10</title>
<g id="a_node10"><a xlink:href="classJoyAxis.html" target="_top" xlink:title=" ">
<polygon fill="white" stroke="black" points="202.65,-620.5 202.65,-639.5 254.65,-639.5 254.65,-620.5 202.65,-620.5"/>
<text text-anchor="middle" x="228.65" y="-627.5" font-family="Helvetica,sans-Serif" font-size="10.00">JoyAxis</text>
</a>
</g>
</g>
<!-- Node2&#45;&gt;Node10 -->
<g id="edge16" class="edge">
<title>Node2&#45;&gt;Node10</title>
<path fill="none" stroke="#9a32cd" stroke-dasharray="5,2" d="M125.41,-699.1C126.92,-685.96 131,-668.91 141.65,-658 146.03,-653.5 178.53,-644.17 202.53,-637.75"/>
<polygon fill="#9a32cd" stroke="#9a32cd" points="121.89,-699.16 124.64,-709.39 128.88,-699.68 121.89,-699.16"/>
<text text-anchor="middle" x="169.15" y="-683" font-family="Helvetica,sans-Serif" font-size="10.00"> paxisbutton</text>
<text text-anchor="middle" x="169.15" y="-672" font-family="Helvetica,sans-Serif" font-size="10.00">activeButton</text>
<text text-anchor="middle" x="169.15" y="-661" font-family="Helvetica,sans-Serif" font-size="10.00">naxisbutton</text>
</g>
<!-- Node3 -->
<g id="node3" class="node">
<title>Node3</title>
<g id="a_node3"><a xlink:href="classJoyGradientButton.html" target="_top" xlink:title=" ">
<polygon fill="white" stroke="black" points="214.65,-146.5 214.65,-165.5 312.65,-165.5 312.65,-146.5 214.65,-146.5"/>
<text text-anchor="middle" x="263.65" y="-153.5" font-family="Helvetica,sans-Serif" font-size="10.00">JoyGradientButton</text>
</a>
</g>
</g>
<!-- Node3&#45;&gt;Node2 -->
<g id="edge2" class="edge">
<title>Node3&#45;&gt;Node2</title>
<path fill="none" stroke="midnightblue" d="M274.99,-174.47C276.5,-177.54 277.81,-180.78 278.65,-184 284.11,-205.08 291.31,-215.29 278.65,-233 210.61,-328.11 101.71,-225.91 29.65,-318 -24.51,-387.21 12.65,-427.12 12.65,-515 12.65,-631 12.65,-631 12.65,-631 12.65,-672.98 62.33,-697.63 95.51,-709.42"/>
<polygon fill="midnightblue" stroke="midnightblue" points="277.87,-172.45 269.85,-165.52 271.8,-175.93 277.87,-172.45"/>
</g>
<!-- Node13 -->
<g id="node13" class="node">
<title>Node13</title>
<g id="a_node13"><a xlink:href="classJoyControlStickModifierButton.html" target="_top" xlink:title=" ">
<polygon fill="white" stroke="black" points="19.15,-57.5 19.15,-76.5 168.15,-76.5 168.15,-57.5 19.15,-57.5"/>
<text text-anchor="middle" x="93.65" y="-64.5" font-family="Helvetica,sans-Serif" font-size="10.00">JoyControlStickModifierButton</text>
</a>
</g>
</g>
<!-- Node3&#45;&gt;Node13 -->
<g id="edge21" class="edge">
<title>Node3&#45;&gt;Node13</title>
<path fill="none" stroke="midnightblue" d="M232.42,-142.06C224.61,-138.12 216.5,-133.38 209.65,-128 194.51,-116.12 197.71,-105.58 181.65,-95 168.83,-86.56 153.25,-80.65 138.79,-76.57"/>
<polygon fill="midnightblue" stroke="midnightblue" points="231.17,-145.34 241.71,-146.46 234.17,-139.01 231.17,-145.34"/>
</g>
<!-- Node14 -->
<g id="node14" class="node">
<title>Node14</title>
<g id="a_node14"><a xlink:href="classJoyControlStickButton.html" target="_top" xlink:title=" ">
<polygon fill="white" stroke="black" points="186.15,-57.5 186.15,-76.5 301.15,-76.5 301.15,-57.5 186.15,-57.5"/>
<text text-anchor="middle" x="243.65" y="-64.5" font-family="Helvetica,sans-Serif" font-size="10.00">JoyControlStickButton</text>
</a>
</g>
</g>
<!-- Node3&#45;&gt;Node14 -->
<g id="edge24" class="edge">
<title>Node3&#45;&gt;Node14</title>
<path fill="none" stroke="midnightblue" d="M284.54,-139.68C287.84,-136.23 290.77,-132.3 292.65,-128 298.5,-114.55 300.1,-107.63 292.65,-95 287.7,-86.64 279.15,-80.69 270.55,-76.54"/>
<polygon fill="midnightblue" stroke="midnightblue" points="282.13,-137.13 277.02,-146.41 286.8,-142.35 282.13,-137.13"/>
</g>
<!-- Node4 -->
<g id="node4" class="node">
<title>Node4</title>
<g id="a_node4"><a xlink:href="classJoyButton.html" target="_top" xlink:title=" ">
<polygon fill="white" stroke="black" points="609.15,-213.5 609.15,-232.5 670.15,-232.5 670.15,-213.5 609.15,-213.5"/>
<text text-anchor="middle" x="639.65" y="-220.5" font-family="Helvetica,sans-Serif" font-size="10.00">JoyButton</text>
</a>
</g>
</g>
<!-- Node4&#45;&gt;Node3 -->
<g id="edge3" class="edge">
<title>Node4&#45;&gt;Node3</title>
<path fill="none" stroke="midnightblue" d="M606.12,-210.14C580.76,-201.61 544.91,-190.52 512.65,-184 444.02,-170.13 363.23,-163.03 312.72,-159.67"/>
<polygon fill="midnightblue" stroke="midnightblue" points="605.04,-213.47 615.63,-213.38 607.3,-206.84 605.04,-213.47"/>
</g>
<!-- Node15 -->
<g id="node15" class="node">
<title>Node15</title>
<g id="a_node15"><a xlink:href="classJoyButtonXml.html" target="_top" xlink:title=" ">
<polygon fill="white" stroke="black" points="600.65,-146.5 600.65,-165.5 678.65,-165.5 678.65,-146.5 600.65,-146.5"/>
<text text-anchor="middle" x="639.65" y="-153.5" font-family="Helvetica,sans-Serif" font-size="10.00">JoyButtonXml</text>
</a>
</g>
</g>
<!-- Node4&#45;&gt;Node15 -->
<g id="edge29" class="edge">
<title>Node4&#45;&gt;Node15</title>
<path fill="none" stroke="#9a32cd" stroke-dasharray="5,2" d="M638.08,-203.38C637.9,-200.58 637.75,-197.71 637.65,-195 637.27,-184.97 638.05,-173.45 638.74,-165.75"/>
<polygon fill="#9a32cd" stroke="#9a32cd" points="634.61,-203.79 638.85,-213.5 641.59,-203.26 634.61,-203.79"/>
<text text-anchor="middle" x="666.65" y="-187" font-family="Helvetica,sans-Serif" font-size="10.00"> m_joyButton</text>
</g>
<!-- Node22 -->
<g id="node22" class="node">
<title>Node22</title>
<g id="a_node22"><a xlink:href="classJoyDPadButton.html" target="_top" xlink:title=" ">
<polygon fill="white" stroke="black" points="496.65,-146.5 496.65,-165.5 582.65,-165.5 582.65,-146.5 496.65,-146.5"/>
<text text-anchor="middle" x="539.65" y="-153.5" font-family="Helvetica,sans-Serif" font-size="10.00">JoyDPadButton</text>
</a>
</g>
</g>
<!-- Node4&#45;&gt;Node22 -->
<g id="edge41" class="edge">
<title>Node4&#45;&gt;Node22</title>
<path fill="none" stroke="midnightblue" d="M617.75,-207.77C597.96,-194.9 569.46,-176.38 552.92,-165.63"/>
<polygon fill="midnightblue" stroke="midnightblue" points="615.87,-210.72 626.16,-213.23 619.68,-204.85 615.87,-210.72"/>
</g>
<!-- Node5 -->
<g id="node5" class="node">
<title>Node5</title>
<g id="a_node5"><a xlink:title=" ">
<polygon fill="white" stroke="#bfbfbf" points="586.15,-709.5 586.15,-728.5 639.15,-728.5 639.15,-709.5 586.15,-709.5"/>
<text text-anchor="middle" x="612.65" y="-716.5" font-family="Helvetica,sans-Serif" font-size="10.00">QObject</text>
</a>
</g>
</g>
<!-- Node5&#45;&gt;Node4 -->
<g id="edge4" class="edge">
<title>Node5&#45;&gt;Node4</title>
<path fill="none" stroke="midnightblue" d="M648.4,-704.97C655.12,-701.26 661.61,-696.65 666.65,-691 740.86,-607.73 729.35,-561.3 736.65,-450 740.48,-391.46 759.52,-372.02 736.65,-318 719.82,-278.27 677.07,-247.09 654.35,-232.7"/>
<polygon fill="midnightblue" stroke="midnightblue" points="646.64,-701.93 639.2,-709.48 649.72,-708.22 646.64,-701.93"/>
</g>
<!-- Node6 -->
<g id="node6" class="node">
<title>Node6</title>
<g id="a_node6"><a xlink:href="classJoyButtonMouseHelper.html" target="_top" xlink:title=" ">
<polygon fill="white" stroke="black" points="743.15,-582.5 743.15,-601.5 862.15,-601.5 862.15,-582.5 743.15,-582.5"/>
<text text-anchor="middle" x="802.65" y="-589.5" font-family="Helvetica,sans-Serif" font-size="10.00">JoyButtonMouseHelper</text>
</a>
</g>
</g>
<!-- Node5&#45;&gt;Node6 -->
<g id="edge6" class="edge">
<title>Node5&#45;&gt;Node6</title>
<path fill="none" stroke="midnightblue" d="M649.3,-717.88C676.92,-716.11 714.54,-709.95 741.65,-691 774.49,-668.03 793.25,-621.14 799.88,-601.72"/>
<polygon fill="midnightblue" stroke="midnightblue" points="649.07,-714.39 639.25,-718.36 649.4,-721.38 649.07,-714.39"/>
</g>
<!-- Node8 -->
<g id="node8" class="node">
<title>Node8</title>
<g id="a_node8"><a xlink:href="classSetJoystickXml.html" target="_top" xlink:title=" ">
<polygon fill="white" stroke="black" points="520.15,-468.5 520.15,-487.5 605.15,-487.5 605.15,-468.5 520.15,-468.5"/>
<text text-anchor="middle" x="562.65" y="-475.5" font-family="Helvetica,sans-Serif" font-size="10.00">SetJoystickXml</text>
</a>
</g>
</g>
<!-- Node5&#45;&gt;Node8 -->
<g id="edge9" class="edge">
<title>Node5&#45;&gt;Node8</title>
<path fill="none" stroke="midnightblue" d="M613.36,-699.12C614.28,-667.07 615.01,-600.04 607.65,-544 605.38,-526.79 608.16,-520.52 598.65,-506 593.68,-498.42 585.82,-492.16 578.71,-487.59"/>
<polygon fill="midnightblue" stroke="midnightblue" points="609.85,-699.15 613.02,-709.26 616.85,-699.38 609.85,-699.15"/>
</g>
<!-- Node9 -->
<g id="node9" class="node">
<title>Node9</title>
<g id="a_node9"><a xlink:href="classJoyAxisXml.html" target="_top" xlink:title=" ">
<polygon fill="white" stroke="black" points="384.15,-544.5 384.15,-563.5 453.15,-563.5 453.15,-544.5 384.15,-544.5"/>
<text text-anchor="middle" x="418.65" y="-551.5" font-family="Helvetica,sans-Serif" font-size="10.00">JoyAxisXml</text>
</a>
</g>
</g>
<!-- Node5&#45;&gt;Node9 -->
<g id="edge12" class="edge">
<title>Node5&#45;&gt;Node9</title>
<path fill="none" stroke="midnightblue" d="M583.01,-705.07C554.42,-691.63 510.96,-668.56 479.65,-640 453.88,-616.5 432.45,-580.44 423.34,-563.88"/>
<polygon fill="midnightblue" stroke="midnightblue" points="581.92,-708.42 592.47,-709.42 584.84,-702.06 581.92,-708.42"/>
</g>
<!-- Node5&#45;&gt;Node10 -->
<g id="edge14" class="edge">
<title>Node5&#45;&gt;Node10</title>
<path fill="none" stroke="midnightblue" d="M575.53,-718.47C500.5,-718.86 333.69,-716.71 283.65,-691 266.54,-682.21 268.68,-672.15 255.65,-658 249.9,-651.76 243.15,-645.01 237.83,-639.82"/>
<polygon fill="midnightblue" stroke="midnightblue" points="575.93,-721.97 585.91,-718.4 575.88,-714.97 575.93,-721.97"/>
</g>
<!-- Node11 -->
<g id="node11" class="node">
<title>Node11</title>
<g id="a_node11"><a xlink:href="classJoyControlStick.html" target="_top" xlink:title=" ">
<polygon fill="white" stroke="black" points="102.65,-146.5 102.65,-165.5 188.65,-165.5 188.65,-146.5 102.65,-146.5"/>
<text text-anchor="middle" x="145.65" y="-153.5" font-family="Helvetica,sans-Serif" font-size="10.00">JoyControlStick</text>
</a>
</g>
</g>
<!-- Node5&#45;&gt;Node11 -->
<g id="edge18" class="edge">
<title>Node5&#45;&gt;Node11</title>
<path fill="none" stroke="midnightblue" d="M575.82,-717.24C499.65,-715.31 330.28,-709.03 311.65,-691 251.62,-632.93 280.45,-400.19 265.65,-318 257.14,-270.79 258.53,-257.51 240.65,-213 235.08,-199.14 235.2,-193.47 223.65,-184 213.34,-175.55 200.23,-169.67 187.71,-165.62"/>
<polygon fill="midnightblue" stroke="midnightblue" points="575.85,-720.74 585.93,-717.49 576.02,-713.75 575.85,-720.74"/>
</g>
<!-- Node5&#45;&gt;Node15 -->
<g id="edge28" class="edge">
<title>Node5&#45;&gt;Node15</title>
<path fill="none" stroke="midnightblue" d="M649.64,-713.7C722.52,-704.21 877.65,-678.42 877.65,-631 877.65,-631 877.65,-631 877.65,-222 877.65,-181.26 746.2,-165.17 678.68,-159.6"/>
<polygon fill="midnightblue" stroke="midnightblue" points="648.99,-710.26 639.51,-714.99 649.87,-717.2 648.99,-710.26"/>
</g>
<!-- Node16 -->
<g id="node16" class="node">
<title>Node16</title>
<g id="a_node16"><a xlink:href="classInputDevice.html" target="_top" xlink:title=" ">
<polygon fill="white" stroke="black" points="429.15,-468.5 429.15,-487.5 498.15,-487.5 498.15,-468.5 429.15,-468.5"/>
<text text-anchor="middle" x="463.65" y="-475.5" font-family="Helvetica,sans-Serif" font-size="10.00">InputDevice</text>
</a>
</g>
</g>
<!-- Node5&#45;&gt;Node16 -->
<g id="edge31" class="edge">
<title>Node5&#45;&gt;Node16</title>
<path fill="none" stroke="midnightblue" d="M609.45,-699.43C602.06,-657.21 583.73,-556.65 574.65,-544 565.58,-531.37 557.65,-534.53 544.65,-526 531.86,-517.61 529.72,-513.94 516.65,-506 505.52,-499.25 492.51,-492.6 482.16,-487.59"/>
<polygon fill="midnightblue" stroke="midnightblue" points="606.03,-700.21 611.19,-709.46 612.93,-699.01 606.03,-700.21"/>
</g>
<!-- Node19 -->
<g id="node19" class="node">
<title>Node19</title>
<g id="a_node19"><a xlink:href="classJoyButtonSlot.html" target="_top" xlink:title=" ">
<polygon fill="white" stroke="black" points="646.65,-506.5 646.65,-525.5 724.65,-525.5 724.65,-506.5 646.65,-506.5"/>
<text text-anchor="middle" x="685.65" y="-513.5" font-family="Helvetica,sans-Serif" font-size="10.00">JoyButtonSlot</text>
</a>
</g>
</g>
<!-- Node5&#45;&gt;Node19 -->
<g id="edge35" class="edge">
<title>Node5&#45;&gt;Node19</title>
<path fill="none" stroke="midnightblue" d="M634.94,-703.21C639,-699.63 642.84,-695.52 645.65,-691 680.3,-635.17 684.99,-552.48 685.58,-525.71"/>
<polygon fill="midnightblue" stroke="midnightblue" points="632.77,-700.47 627.06,-709.39 637.09,-705.97 632.77,-700.47"/>
</g>
<!-- Node21 -->
<g id="node21" class="node">
<title>Node21</title>
<g id="a_node21"><a xlink:href="classJoyDPad.html" target="_top" xlink:title=" ">
<polygon fill="white" stroke="black" points="454.15,-57.5 454.15,-76.5 511.15,-76.5 511.15,-57.5 454.15,-57.5"/>
<text text-anchor="middle" x="482.65" y="-64.5" font-family="Helvetica,sans-Serif" font-size="10.00">JoyDPad</text>
</a>
</g>
</g>
<!-- Node5&#45;&gt;Node21 -->
<g id="edge38" class="edge">
<title>Node5&#45;&gt;Node21</title>
<path fill="none" stroke="midnightblue" d="M575.79,-714.98C514.12,-707.69 391.56,-683.21 338.65,-602 298.18,-539.9 340.65,-272.04 340.65,-257.5 340.65,-257.5 340.65,-257.5 340.65,-155 340.65,-102.38 412.42,-80.61 453.91,-72.42"/>
<polygon fill="midnightblue" stroke="midnightblue" points="575.54,-718.47 585.86,-716.07 576.3,-711.51 575.54,-718.47"/>
</g>
<!-- Node6&#45;&gt;Node4 -->
<g id="edge5" class="edge">
<title>Node6&#45;&gt;Node4</title>
<path fill="none" stroke="#9a32cd" stroke-dasharray="5,2" d="M797.16,-572.52C793.24,-557.66 788.65,-536.17 788.65,-517 788.65,-517 788.65,-517 788.65,-289 788.65,-237.78 713.75,-226.51 670.16,-224.3"/>
<polygon fill="#9a32cd" stroke="#9a32cd" points="793.87,-573.76 799.95,-582.44 800.61,-571.87 793.87,-573.76"/>
<text text-anchor="middle" x="819.15" y="-475.5" font-family="Helvetica,sans-Serif" font-size="10.00"> mouseHelper</text>
</g>
<!-- Node7 -->
<g id="node7" class="node">
<title>Node7</title>
<g id="a_node7"><a xlink:href="classSetJoystick.html" target="_top" xlink:title=" ">
<polygon fill="white" stroke="black" points="415.65,-280.5 415.65,-299.5 483.65,-299.5 483.65,-280.5 415.65,-280.5"/>
<text text-anchor="middle" x="449.65" y="-287.5" font-family="Helvetica,sans-Serif" font-size="10.00">SetJoystick</text>
</a>
</g>
</g>
<!-- Node7&#45;&gt;Node4 -->
<g id="edge7" class="edge">
<title>Node7&#45;&gt;Node4</title>
<path fill="none" stroke="#9a32cd" stroke-dasharray="5,2" d="M460.9,-271.89C466.78,-264.31 474.63,-256 483.65,-251 523.07,-229.15 576,-224.21 608.96,-223.49"/>
<polygon fill="#9a32cd" stroke="#9a32cd" points="457.93,-270.03 454.96,-280.2 463.62,-274.11 457.93,-270.03"/>
<text text-anchor="middle" x="513.15" y="-254" font-family="Helvetica,sans-Serif" font-size="10.00"> m_parentSet</text>
</g>
<!-- Node7&#45;&gt;Node8 -->
<g id="edge10" class="edge">
<title>Node7&#45;&gt;Node8</title>
<path fill="none" stroke="#9a32cd" stroke-dasharray="5,2" d="M457.64,-309.11C458.76,-312.05 459.81,-315.08 460.65,-318 477.08,-375.24 444.96,-404.72 483.65,-450 492.87,-460.8 506.61,-467.29 520.06,-471.18"/>
<polygon fill="#9a32cd" stroke="#9a32cd" points="460.86,-307.73 453.8,-299.83 454.39,-310.41 460.86,-307.73"/>
<text text-anchor="middle" x="517.15" y="-381.5" font-family="Helvetica,sans-Serif" font-size="10.00"> m_setJoystick</text>
</g>
<!-- Node7&#45;&gt;Node10 -->
<g id="edge15" class="edge">
<title>Node7&#45;&gt;Node10</title>
<path fill="none" stroke="#9a32cd" stroke-dasharray="5,2" d="M405.9,-298.2C393.66,-302.19 381.34,-308.38 372.65,-318 320.52,-375.65 364.31,-417.48 331.65,-488 305.91,-543.56 256.66,-599.23 237.02,-620.24"/>
<polygon fill="#9a32cd" stroke="#9a32cd" points="406.96,-301.54 415.63,-295.46 405.06,-294.81 406.96,-301.54"/>
<text text-anchor="middle" x="351.15" y="-513.5" font-family="Helvetica,sans-Serif" font-size="10.00"> m_parentSet</text>
</g>
<!-- Node7&#45;&gt;Node21 -->
<g id="edge39" class="edge">
<title>Node7&#45;&gt;Node21</title>
<path fill="none" stroke="#9a32cd" stroke-dasharray="5,2" d="M450.4,-270.21C452.12,-235.27 457.45,-158.1 472.65,-95 474.14,-88.78 476.64,-82.03 478.77,-76.83"/>
<polygon fill="#9a32cd" stroke="#9a32cd" points="446.89,-270.22 449.94,-280.36 453.89,-270.53 446.89,-270.22"/>
<text text-anchor="middle" x="486.15" y="-187" font-family="Helvetica,sans-Serif" font-size="10.00"> m_parentSet</text>
</g>
<!-- Node8&#45;&gt;Node7 -->
<g id="edge8" class="edge">
<title>Node8&#45;&gt;Node7</title>
<path fill="none" stroke="midnightblue" d="M510.07,-468.27C489.84,-463.8 470.05,-457.67 463.65,-450 426.15,-405.14 440.95,-326.21 447.31,-299.85"/>
<polygon fill="midnightblue" stroke="midnightblue" points="509.47,-471.72 519.97,-470.33 510.89,-464.86 509.47,-471.72"/>
</g>
<!-- Node9&#45;&gt;Node8 -->
<g id="edge11" class="edge">
<title>Node9&#45;&gt;Node8</title>
<path fill="none" stroke="#9a32cd" stroke-dasharray="5,2" d="M463.06,-543.89C485.82,-538.7 510.78,-532.05 520.65,-526 536.69,-516.16 550.13,-498.33 557.23,-487.68"/>
<polygon fill="#9a32cd" stroke="#9a32cd" points="462.16,-540.5 453.16,-546.09 463.68,-547.34 462.16,-540.5"/>
<text text-anchor="middle" x="568.15" y="-513.5" font-family="Helvetica,sans-Serif" font-size="10.00"> joyAxisXml</text>
</g>
<!-- Node10&#45;&gt;Node2 -->
<g id="edge43" class="edge">
<title>Node10&#45;&gt;Node2</title>
<path fill="none" stroke="#9a32cd" stroke-dasharray="5,2" d="M222.93,-649.08C217.91,-662.3 209.39,-679.82 196.65,-691 187.01,-699.45 174.47,-705.36 162.57,-709.44"/>
<polygon fill="#9a32cd" stroke="#9a32cd" points="226.25,-650.19 226.22,-639.59 219.64,-647.89 226.25,-650.19"/>
<text text-anchor="middle" x="236.65" y="-672" font-family="Helvetica,sans-Serif" font-size="10.00"> m_axis</text>
</g>
<!-- Node10&#45;&gt;Node9 -->
<g id="edge13" class="edge">
<title>Node10&#45;&gt;Node9</title>
<path fill="none" stroke="#9a32cd" stroke-dasharray="5,2" d="M260.51,-616.59C299.1,-601.56 363.1,-576.63 396.62,-563.58"/>
<polygon fill="#9a32cd" stroke="#9a32cd" points="258.86,-613.48 250.81,-620.37 261.4,-620 258.86,-613.48"/>
<text text-anchor="middle" x="370.15" y="-589.5" font-family="Helvetica,sans-Serif" font-size="10.00"> m_joyAxis</text>
</g>
<!-- Node10&#45;&gt;Node11 -->
<g id="edge26" class="edge">
<title>Node10&#45;&gt;Node11</title>
<path fill="none" stroke="#9a32cd" stroke-dasharray="5,2" d="M192.84,-617.91C140.86,-601.29 50.65,-570.25 50.65,-555 50.65,-555 50.65,-555 50.65,-222 50.65,-191.72 83.92,-174.52 111.08,-165.52"/>
<polygon fill="#9a32cd" stroke="#9a32cd" points="191.79,-621.25 202.38,-620.94 193.91,-614.58 191.79,-621.25"/>
<text text-anchor="middle" x="65.15" y="-387" font-family="Helvetica,sans-Serif" font-size="10.00"> axisX</text>
<text text-anchor="middle" x="65.15" y="-376" font-family="Helvetica,sans-Serif" font-size="10.00">axisY</text>
</g>
<!-- Node11&#45;&gt;Node10 -->
<g id="edge17" class="edge">
<title>Node11&#45;&gt;Node10</title>
<path fill="none" stroke="#9a32cd" stroke-dasharray="5,2" d="M181.17,-169.73C202.94,-180.05 226.65,-197.03 226.65,-222 226.65,-555 226.65,-555 226.65,-555 226.65,-578.65 227.68,-606.53 228.26,-620.34"/>
<polygon fill="#9a32cd" stroke="#9a32cd" points="182.28,-166.39 171.72,-165.58 179.47,-172.8 182.28,-166.39"/>
<text text-anchor="middle" x="245.65" y="-381.5" font-family="Helvetica,sans-Serif" font-size="10.00"> m_stick</text>
</g>
<!-- Node11&#45;&gt;Node13 -->
<g id="edge22" class="edge">
<title>Node11&#45;&gt;Node13</title>
<path fill="none" stroke="#9a32cd" stroke-dasharray="5,2" d="M120.83,-140.64C116.23,-137.02 111.87,-132.78 108.65,-128 97.97,-112.15 94.89,-89.33 94,-76.9"/>
<polygon fill="#9a32cd" stroke="#9a32cd" points="118.97,-143.61 129.17,-146.47 122.98,-137.87 118.97,-143.61"/>
<text text-anchor="middle" x="121.15" y="-109" font-family="Helvetica,sans-Serif" font-size="10.00"> stick</text>
</g>
<!-- Node11&#45;&gt;Node14 -->
<g id="edge25" class="edge">
<title>Node11&#45;&gt;Node14</title>
<path fill="none" stroke="#9a32cd" stroke-dasharray="5,2" d="M143.95,-136.27C143.81,-123.21 145.85,-106.18 155.65,-95 163.54,-85.98 174.36,-79.93 185.72,-75.88"/>
<polygon fill="#9a32cd" stroke="#9a32cd" points="140.46,-136.68 144.5,-146.48 147.45,-136.31 140.46,-136.68"/>
<text text-anchor="middle" x="168.15" y="-109" font-family="Helvetica,sans-Serif" font-size="10.00"> stick</text>
</g>
<!-- Node12 -->
<g id="node12" class="node">
<title>Node12</title>
<g id="a_node12"><a xlink:href="classJoyStickDirectionsType.html" target="_top" xlink:title=" ">
<polygon fill="white" stroke="black" points="78.65,-213.5 78.65,-232.5 198.65,-232.5 198.65,-213.5 78.65,-213.5"/>
<text text-anchor="middle" x="138.65" y="-220.5" font-family="Helvetica,sans-Serif" font-size="10.00">JoyStickDirectionsType</text>
</a>
</g>
</g>
<!-- Node12&#45;&gt;Node11 -->
<g id="edge19" class="edge">
<title>Node12&#45;&gt;Node11</title>
<path fill="none" stroke="midnightblue" d="M140.69,-203.04C142.02,-190.67 143.69,-175.12 144.72,-165.63"/>
<polygon fill="midnightblue" stroke="midnightblue" points="137.18,-202.92 139.59,-213.23 144.14,-203.67 137.18,-202.92"/>
</g>
<!-- Node13&#45;&gt;Node11 -->
<g id="edge20" class="edge">
<title>Node13&#45;&gt;Node11</title>
<path fill="none" stroke="#9a32cd" stroke-dasharray="5,2" d="M34.22,-81.09C28.13,-84.67 22.71,-89.22 18.65,-95 10.21,-107 9.42,-116.6 18.65,-128 29.14,-140.96 69.95,-147.96 102.51,-151.56"/>
<polygon fill="#9a32cd" stroke="#9a32cd" points="36.09,-84.07 43.52,-76.51 33,-77.79 36.09,-84.07"/>
<text text-anchor="middle" x="52.15" y="-109" font-family="Helvetica,sans-Serif" font-size="10.00"> modifierButton</text>
</g>
<!-- Node14&#45;&gt;Node11 -->
<g id="edge23" class="edge">
<title>Node14&#45;&gt;Node11</title>
<path fill="none" stroke="#9a32cd" stroke-dasharray="5,2" d="M229.37,-84.1C217.86,-96.68 200.96,-114.26 184.65,-128 176.71,-134.68 167.13,-141.33 159.46,-146.35"/>
<polygon fill="#9a32cd" stroke="#9a32cd" points="231.99,-86.42 236.09,-76.65 226.79,-81.73 231.99,-86.42"/>
<text text-anchor="middle" x="249.15" y="-120" font-family="Helvetica,sans-Serif" font-size="10.00"> activeButton1</text>
<text text-anchor="middle" x="249.15" y="-109" font-family="Helvetica,sans-Serif" font-size="10.00">activeButton2</text>
<text text-anchor="middle" x="249.15" y="-98" font-family="Helvetica,sans-Serif" font-size="10.00">activeButton3</text>
</g>
<!-- Node15&#45;&gt;Node8 -->
<g id="edge27" class="edge">
<title>Node15&#45;&gt;Node8</title>
<path fill="none" stroke="#9a32cd" stroke-dasharray="5,2" d="M621.66,-172.5C603.33,-189.58 576.03,-218.92 564.65,-251 550.07,-292.04 559.27,-431.86 561.97,-468.27"/>
<polygon fill="#9a32cd" stroke="#9a32cd" points="624.28,-174.84 629.36,-165.54 619.59,-169.65 624.28,-174.84"/>
<text text-anchor="middle" x="595.65" y="-254" font-family="Helvetica,sans-Serif" font-size="10.00"> joyButtonXml</text>
</g>
<!-- Node16&#45;&gt;Node7 -->
<g id="edge30" class="edge">
<title>Node16&#45;&gt;Node7</title>
<path fill="none" stroke="#9a32cd" stroke-dasharray="5,2" d="M419.19,-470.26C407.71,-466.28 396.63,-459.98 389.65,-450 372.83,-425.96 373.72,-342.63 389.65,-318 395.6,-308.79 405.53,-302.69 415.61,-298.67"/>
<polygon fill="#9a32cd" stroke="#9a32cd" points="418.27,-473.64 428.85,-473.09 420.23,-466.92 418.27,-473.64"/>
<text text-anchor="middle" x="412.65" y="-381.5" font-family="Helvetica,sans-Serif" font-size="10.00"> m_device</text>
</g>
<!-- Node17 -->
<g id="node17" class="node">
<title>Node17</title>
<g id="a_node17"><a xlink:href="classAntiMicroSettings.html" target="_top" xlink:title=" ">
<polygon fill="white" stroke="black" points="471.65,-544.5 471.65,-563.5 565.65,-563.5 565.65,-544.5 471.65,-544.5"/>
<text text-anchor="middle" x="518.65" y="-551.5" font-family="Helvetica,sans-Serif" font-size="10.00">AntiMicroSettings</text>
</a>
</g>
</g>
<!-- Node17&#45;&gt;Node16 -->
<g id="edge32" class="edge">
<title>Node17&#45;&gt;Node16</title>
<path fill="none" stroke="#9a32cd" stroke-dasharray="5,2" d="M478.69,-539.5C473.13,-535.96 468.14,-531.52 464.65,-526 457.31,-514.41 459.17,-497.79 461.32,-487.74"/>
<polygon fill="#9a32cd" stroke="#9a32cd" points="477.29,-542.72 487.75,-544.38 480.61,-536.56 477.29,-542.72"/>
<text text-anchor="middle" x="490.65" y="-513.5" font-family="Helvetica,sans-Serif" font-size="10.00"> m_settings</text>
</g>
<!-- Node18 -->
<g id="node18" class="node">
<title>Node18</title>
<g id="a_node18"><a xlink:title=" ">
<polygon fill="white" stroke="#bfbfbf" points="488.65,-620.5 488.65,-639.5 548.65,-639.5 548.65,-620.5 488.65,-620.5"/>
<text text-anchor="middle" x="518.65" y="-627.5" font-family="Helvetica,sans-Serif" font-size="10.00">QSettings</text>
</a>
</g>
</g>
<!-- Node18&#45;&gt;Node17 -->
<g id="edge33" class="edge">
<title>Node18&#45;&gt;Node17</title>
<path fill="none" stroke="midnightblue" d="M518.65,-610.07C518.65,-595.18 518.65,-575.11 518.65,-563.77"/>
<polygon fill="midnightblue" stroke="midnightblue" points="515.15,-610.22 518.65,-620.22 522.15,-610.22 515.15,-610.22"/>
</g>
<!-- Node19&#45;&gt;Node4 -->
<g id="edge34" class="edge">
<title>Node19&#45;&gt;Node4</title>
<path fill="none" stroke="#9a32cd" stroke-dasharray="5,2" d="M668.04,-499.03C656.07,-486.92 641.25,-469.13 634.65,-450 606.84,-369.51 629.76,-263.09 637.4,-232.53"/>
<polygon fill="#9a32cd" stroke="#9a32cd" points="665.76,-501.69 675.38,-506.13 670.62,-496.66 665.76,-501.69"/>
<text text-anchor="middle" x="685.65" y="-442" font-family="Helvetica,sans-Serif" font-size="10.00"> currentDelay</text>
<text text-anchor="middle" x="685.65" y="-431" font-family="Helvetica,sans-Serif" font-size="10.00">lastActiveKey</text>
<text text-anchor="middle" x="685.65" y="-420" font-family="Helvetica,sans-Serif" font-size="10.00">currentSetChangeSlot</text>
<text text-anchor="middle" x="685.65" y="-409" font-family="Helvetica,sans-Serif" font-size="10.00">currentKeyPress</text>
<text text-anchor="middle" x="685.65" y="-398" font-family="Helvetica,sans-Serif" font-size="10.00">currentRelease</text>
<text text-anchor="middle" x="685.65" y="-387" font-family="Helvetica,sans-Serif" font-size="10.00">currentCycle</text>
<text text-anchor="middle" x="685.65" y="-376" font-family="Helvetica,sans-Serif" font-size="10.00">previousCycle</text>
<text text-anchor="middle" x="685.65" y="-365" font-family="Helvetica,sans-Serif" font-size="10.00">m_currentDistance</text>
<text text-anchor="middle" x="685.65" y="-354" font-family="Helvetica,sans-Serif" font-size="10.00">currentPause</text>
<text text-anchor="start" x="634.65" y="-343" font-family="Helvetica,sans-Serif" font-size="10.00">currentWheelHorizontal</text>
<text text-anchor="middle" x="685.65" y="-332" font-family="Helvetica,sans-Serif" font-size="10.00">Event</text>
<text text-anchor="middle" x="685.65" y="-321" font-family="Helvetica,sans-Serif" font-size="10.00">...</text>
</g>
<!-- Node20 -->
<g id="node20" class="node">
<title>Node20</title>
<g id="a_node20"><a xlink:href="classVDPad.html" target="_top" xlink:title=" ">
<polygon fill="white" stroke="black" points="571.65,-0.5 571.65,-19.5 619.65,-19.5 619.65,-0.5 571.65,-0.5"/>
<text text-anchor="middle" x="595.65" y="-7.5" font-family="Helvetica,sans-Serif" font-size="10.00">VDPad</text>
</a>
</g>
</g>
<!-- Node20&#45;&gt;Node4 -->
<g id="edge36" class="edge">
<title>Node20&#45;&gt;Node4</title>
<path fill="none" stroke="#9a32cd" stroke-dasharray="5,2" d="M610.2,-27.61C630.69,-51.89 667.74,-99.29 687.65,-146 697.46,-169.04 701.73,-185.31 695.65,-195 689.9,-204.14 680.1,-210.26 670.29,-214.32"/>
<polygon fill="#9a32cd" stroke="#9a32cd" points="612.63,-25.07 603.47,-19.75 607.32,-29.62 612.63,-25.07"/>
<text text-anchor="middle" x="700.15" y="-109" font-family="Helvetica,sans-Serif" font-size="10.00"> m_vdpad</text>
</g>
<!-- Node21&#45;&gt;Node20 -->
<g id="edge37" class="edge">
<title>Node21&#45;&gt;Node20</title>
<path fill="none" stroke="midnightblue" d="M509.44,-52.96C530.68,-42.62 559.75,-28.47 578.11,-19.53"/>
<polygon fill="midnightblue" stroke="midnightblue" points="507.76,-49.88 500.3,-57.41 510.82,-56.18 507.76,-49.88"/>
</g>
<!-- Node21&#45;&gt;Node22 -->
<g id="edge42" class="edge">
<title>Node21&#45;&gt;Node22</title>
<path fill="none" stroke="#9a32cd" stroke-dasharray="5,2" d="M521.68,-68.21C542.39,-70.58 566.26,-77.38 579.65,-95 588.52,-106.68 586.53,-115.05 579.65,-128 575.4,-135.99 567.62,-142.04 560.04,-146.37"/>
<polygon fill="#9a32cd" stroke="#9a32cd" points="521.77,-64.71 511.51,-67.36 521.19,-71.69 521.77,-64.71"/>
<text text-anchor="middle" x="603.65" y="-109" font-family="Helvetica,sans-Serif" font-size="10.00"> m_dpad</text>
</g>
<!-- Node22&#45;&gt;Node21 -->
<g id="edge40" class="edge">
<title>Node22&#45;&gt;Node21</title>
<path fill="none" stroke="#9a32cd" stroke-dasharray="5,2" d="M497.85,-141.53C492.23,-137.99 487.19,-133.55 483.65,-128 473.54,-112.2 477.15,-88.96 480.19,-76.55"/>
<polygon fill="#9a32cd" stroke="#9a32cd" points="496.55,-144.8 507.03,-146.38 499.83,-138.61 496.55,-144.8"/>
<text text-anchor="middle" x="531.65" y="-109" font-family="Helvetica,sans-Serif" font-size="10.00"> activeDiagonalButton</text>
</g>
</g>
</svg>
        <g id="navigator" transform="translate(0 0)" fill="#404254">
                <rect fill="#f2f5e9" fill-opacity="0.5" stroke="#606060" stroke-width=".5" x="0" y="0" width="60" height="60"/>
                <use id="zoomplus" xlink:href="#zoomPlus" x="17" y="9" onmousedown="handleZoom(evt,'in')"/>
                <use id="zoomminus" xlink:href="#zoomMin" x="42" y="9" onmousedown="handleZoom(evt,'out')"/>
                <use id="reset" xlink:href="#resetDef" x="30" y="36" onmousedown="handleReset()"/>
                <g id="arrowUp" xlink:href="#dirArrow" transform="translate(30 24)" onmousedown="handlePan(0,-1)">
                  <use xlink:href="#rim" fill="#404040">
                        <set attributeName="fill" to="#808080" begin="arrowUp.mouseover" end="arrowUp.mouseout"/>
                  </use>
                  <path fill="none" stroke="white" stroke-width="1.5" d="M0,-3.0v7 M-2.5,-0.5L0,-3.0L2.5,-0.5"/>
                </g>
                <g id="arrowRight" xlink:href="#dirArrow" transform="rotate(90) translate(36 -43)" onmousedown="handlePan(1,0)">
                  <use xlink:href="#rim" fill="#404040">
                        <set attributeName="fill" to="#808080" begin="arrowRight.mouseover" end="arrowRight.mouseout"/>
                  </use>
                  <path fill="none" stroke="white" stroke-width="1.5" d="M0,-3.0v7 M-2.5,-0.5L0,-3.0L2.5,-0.5"/>
                </g>
                <g id="arrowDown" xlink:href="#dirArrow" transform="rotate(180) translate(-30 -48)" onmousedown="handlePan(0,1)">
                  <use xlink:href="#rim" fill="#404040">
                        <set attributeName="fill" to="#808080" begin="arrowDown.mouseover" end="arrowDown.mouseout"/>
                  </use>
                  <path fill="none" stroke="white" stroke-width="1.5" d="M0,-3.0v7 M-2.5,-0.5L0,-3.0L2.5,-0.5"/>
                </g>
                <g id="arrowLeft" xlink:href="#dirArrow" transform="rotate(270) translate(-36 17)" onmousedown="handlePan(-1,0)">
                  <use xlink:href="#rim" fill="#404040">
                        <set attributeName="fill" to="#808080" begin="arrowLeft.mouseover" end="arrowLeft.mouseout"/>
                  </use>
                  <path fill="none" stroke="white" stroke-width="1.5" d="M0,-3.0v7 M-2.5,-0.5L0,-3.0L2.5,-0.5"/>
                </g>
        </g>
        <svg viewBox="0 0 15 15" width="100%" height="30px" preserveAspectRatio="xMaxYMin meet">
         <g id="arrow_out" transform="scale(0.3 0.3)">
          <a xlink:href="classGameControllerTriggerButton__coll__graph_org.svg" target="_base">
           <rect id="button" ry="5" rx="5" y="6" x="6" height="38" width="38"
                fill="#f2f5e9" fill-opacity="0.5" stroke="#606060" stroke-width="1.0"/>
           <path id="arrow"
             d="M 11.500037,31.436501 C 11.940474,20.09759 22.043105,11.32322 32.158766,21.979434 L 37.068811,17.246167 C 37.068811,17.246167 37.088388,32 37.088388,32 L 22.160133,31.978069 C 22.160133,31.978069 26.997745,27.140456 26.997745,27.140456 C 18.528582,18.264221 13.291696,25.230495 11.500037,31.436501 z"
             style="fill:#404040;"/>
          </a>
         </g>
        </svg>
</svg>
