<?xml version="1.0" encoding="UTF-8" standalone="no"?>
<!DOCTYPE svg PUBLIC "-//W3C//DTD SVG 1.1//EN"
 "http://www.w3.org/Graphics/SVG/1.1/DTD/svg11.dtd">
<!-- Generated by graphviz version 2.43.0 (0)
 -->
<!-- Title: MouseAxisSettingsDialog::selectCurrentMouseModePreset Pages: 1 -->
<svg width="563pt" height="78pt"
 viewBox="0.00 0.00 563.00 77.50" xmlns="http://www.w3.org/2000/svg" xmlns:xlink="http://www.w3.org/1999/xlink">
<g id="graph0" class="graph" transform="scale(1 1) rotate(0) translate(4 73.5)">
<title>MouseAxisSettingsDialog::selectCurrentMouseModePreset</title>
<polygon fill="white" stroke="transparent" points="-4,4 -4,-73.5 559,-73.5 559,4 -4,4"/>
<!-- Node1 -->
<g id="node1" class="node">
<title>Node1</title>
<g id="a_node1"><a xlink:title=" ">
<polygon fill="#bfbfbf" stroke="black" points="0,-17 0,-47 163,-47 163,-17 0,-17"/>
<text text-anchor="start" x="8" y="-35" font-family="Helvetica,sans-Serif" font-size="10.00">MouseAxisSettingsDialog</text>
<text text-anchor="middle" x="81.5" y="-24" font-family="Helvetica,sans-Serif" font-size="10.00">::selectCurrentMouseModePreset</text>
</a>
</g>
</g>
<!-- Node2 -->
<g id="node2" class="node">
<title>Node2</title>
<g id="a_node2"><a xlink:href="classJoyAxis.html#aa5476524f6367d414b5b703962bcb27a" target="_top" xlink:title=" ">
<polygon fill="white" stroke="black" points="225,-39 225,-69 359,-69 359,-39 225,-39"/>
<text text-anchor="start" x="233" y="-57" font-family="Helvetica,sans-Serif" font-size="10.00">JoyAxis::getButtonsPreset</text>
<text text-anchor="middle" x="292" y="-46" font-family="Helvetica,sans-Serif" font-size="10.00">MouseMode</text>
</a>
</g>
</g>
<!-- Node1&#45;&gt;Node2 -->
<g id="edge1" class="edge">
<title>Node1&#45;&gt;Node2</title>
<path fill="none" stroke="midnightblue" d="M163.11,-40.51C180,-42.29 197.77,-44.16 214.51,-45.93"/>
<polygon fill="midnightblue" stroke="midnightblue" points="214.46,-49.44 224.78,-47.01 215.2,-42.48 214.46,-49.44"/>
</g>
<!-- Node4 -->
<g id="node4" class="node">
<title>Node4</title>
<g id="a_node4"><a xlink:href="classJoyAxis.html#a58a670328abc2da48f29b24781f4c6e4" target="_top" xlink:title=" ">
<polygon fill="white" stroke="black" points="199,-0.5 199,-19.5 385,-19.5 385,-0.5 199,-0.5"/>
<text text-anchor="middle" x="292" y="-7.5" font-family="Helvetica,sans-Serif" font-size="10.00">JoyAxis::hasSameButtonsMouseMode</text>
</a>
</g>
</g>
<!-- Node1&#45;&gt;Node4 -->
<g id="edge3" class="edge">
<title>Node1&#45;&gt;Node4</title>
<path fill="none" stroke="midnightblue" d="M163.11,-23.49C172.2,-22.54 181.54,-21.55 190.84,-20.57"/>
<polygon fill="midnightblue" stroke="midnightblue" points="191.32,-24.04 200.9,-19.51 190.59,-17.08 191.32,-24.04"/>
</g>
<!-- Node3 -->
<g id="node3" class="node">
<title>Node3</title>
<g id="a_node3"><a xlink:href="classJoyButton.html#a581ec2c6d19bb51b2dd5bbe0f4da50fb" target="_top" xlink:title=" ">
<polygon fill="white" stroke="black" points="421,-22.5 421,-41.5 555,-41.5 555,-22.5 421,-22.5"/>
<text text-anchor="middle" x="488" y="-29.5" font-family="Helvetica,sans-Serif" font-size="10.00">JoyButton::getMouseMode</text>
</a>
</g>
</g>
<!-- Node2&#45;&gt;Node3 -->
<g id="edge2" class="edge">
<title>Node2&#45;&gt;Node3</title>
<path fill="none" stroke="midnightblue" d="M359.22,-46.49C375.67,-44.62 393.45,-42.61 410.35,-40.69"/>
<polygon fill="midnightblue" stroke="midnightblue" points="411.21,-44.12 420.75,-39.51 410.42,-37.16 411.21,-44.12"/>
</g>
<!-- Node4&#45;&gt;Node3 -->
<g id="edge4" class="edge">
<title>Node4&#45;&gt;Node3</title>
<path fill="none" stroke="midnightblue" d="M376.96,-19.52C388.17,-20.79 399.62,-22.09 410.69,-23.35"/>
<polygon fill="midnightblue" stroke="midnightblue" points="410.41,-26.84 420.74,-24.49 411.2,-19.88 410.41,-26.84"/>
</g>
</g>
</svg>
