<?xml version="1.0" encoding="UTF-8" standalone="no"?>
<!DOCTYPE svg PUBLIC "-//W3C//DTD SVG 1.1//EN"
 "http://www.w3.org/Graphics/SVG/1.1/DTD/svg11.dtd">
<!-- Generated by graphviz version 2.43.0 (0)
 -->
<!-- Title: GameControllerMappingDialog::discardMapping Pages: 1 -->
<!--zoomable 421 -->
<svg id="main" version="1.1" xmlns="http://www.w3.org/2000/svg" xmlns:xlink="http://www.w3.org/1999/xlink" xml:space="preserve" onload="init(evt)">
<style type="text/css"><![CDATA[
.edge:hover path { stroke: red; }
.edge:hover polygon { stroke: red; fill: red; }
]]></style>
<script type="text/javascript"><![CDATA[
var edges = document.getElementsByTagName('g');
if (edges && edges.length) {
  for (var i=0;i<edges.length;i++) {
    if (edges[i].id.substr(0,4)=='edge') {
      edges[i].setAttribute('class','edge');
    }
  }
}
]]></script>
        <defs>
                <circle id="rim" cx="0" cy="0" r="7"/>
                <circle id="rim2" cx="0" cy="0" r="3.5"/>
                <g id="zoomPlus">
                        <use xlink:href="#rim" fill="#404040">
                                <set attributeName="fill" to="#808080" begin="zoomplus.mouseover" end="zoomplus.mouseout"/>
                        </use>
                        <path d="M-4,0h8M0,-4v8" fill="none" stroke="white" stroke-width="1.5" pointer-events="none"/>
                </g>
                <g id="zoomMin">
                        <use xlink:href="#rim" fill="#404040">
                                <set attributeName="fill" to="#808080" begin="zoomminus.mouseover" end="zoomminus.mouseout"/>
                        </use>
                        <path d="M-4,0h8" fill="none" stroke="white" stroke-width="1.5" pointer-events="none"/>
                </g>
                <g id="dirArrow">
                        <path fill="none" stroke="white" stroke-width="1.5" d="M0,-3.0v7 M-2.5,-0.5L0,-3.0L2.5,-0.5"/>
                </g>
               <g id="resetDef">
                       <use xlink:href="#rim2" fill="#404040">
                               <set attributeName="fill" to="#808080" begin="reset.mouseover" end="reset.mouseout"/>
                       </use>
               </g>
        </defs>

<script type="text/javascript">
var viewWidth = 903;
var viewHeight = 421;
var sectionId = 'dynsection-14';
</script>
<script xlink:href="svgpan.js"/>
<svg id="graph" class="graph">
<g id="viewport">
<title>GameControllerMappingDialog::discardMapping</title>
<polygon fill="white" stroke="transparent" points="-4,4 -4,-417 899,-417 899,4 -4,4"/>
<!-- Node1 -->
<g id="node1" class="node">
<title>Node1</title>
<g id="a_node1"><a xlink:title=" ">
<polygon fill="#bfbfbf" stroke="black" points="0,-210.5 0,-240.5 149,-240.5 149,-210.5 0,-210.5"/>
<text text-anchor="start" x="8" y="-228.5" font-family="Helvetica,sans-Serif" font-size="10.00">GameControllerMappingDialog</text>
<text text-anchor="middle" x="74.5" y="-217.5" font-family="Helvetica,sans-Serif" font-size="10.00">::discardMapping</text>
</a>
</g>
</g>
<!-- Node2 -->
<g id="node2" class="node">
<title>Node2</title>
<g id="a_node2"><a xlink:href="classGameControllerMappingDialog.html#a60b30c08f5f3aaa622bead8cb8339664" target="_top" xlink:title=" ">
<polygon fill="white" stroke="black" points="185,-259.5 185,-289.5 334,-289.5 334,-259.5 185,-259.5"/>
<text text-anchor="start" x="193" y="-277.5" font-family="Helvetica,sans-Serif" font-size="10.00">GameControllerMappingDialog</text>
<text text-anchor="middle" x="259.5" y="-266.5" font-family="Helvetica,sans-Serif" font-size="10.00">::disableDeviceConnections</text>
</a>
</g>
</g>
<!-- Node1&#45;&gt;Node2 -->
<g id="edge1" class="edge">
<title>Node1&#45;&gt;Node2</title>
<path fill="none" stroke="midnightblue" d="M131.9,-240.6C151.04,-245.73 172.59,-251.5 192.41,-256.8"/>
<polygon fill="midnightblue" stroke="midnightblue" points="191.72,-260.24 202.29,-259.45 193.53,-253.48 191.72,-260.24"/>
</g>
<!-- Node3 -->
<g id="node3" class="node">
<title>Node3</title>
<g id="a_node3"><a xlink:href="classGameControllerMappingDialog.html#ae066f4c1eaab2dcbb49625577a50443b" target="_top" xlink:title=" ">
<polygon fill="white" stroke="black" points="185,-210.5 185,-240.5 334,-240.5 334,-210.5 185,-210.5"/>
<text text-anchor="start" x="193" y="-228.5" font-family="Helvetica,sans-Serif" font-size="10.00">GameControllerMappingDialog</text>
<text text-anchor="middle" x="259.5" y="-217.5" font-family="Helvetica,sans-Serif" font-size="10.00">::enableDeviceConnections</text>
</a>
</g>
</g>
<!-- Node1&#45;&gt;Node3 -->
<g id="edge2" class="edge">
<title>Node1&#45;&gt;Node3</title>
<path fill="none" stroke="midnightblue" d="M149.14,-225.5C157.47,-225.5 166.01,-225.5 174.46,-225.5"/>
<polygon fill="midnightblue" stroke="midnightblue" points="174.71,-229 184.71,-225.5 174.71,-222 174.71,-229"/>
</g>
<!-- Node16 -->
<g id="node16" class="node">
<title>Node16</title>
<g id="a_node16"><a xlink:href="classGameControllerMappingDialog.html#ab303cc0b92ffe2698af4a00d6b49c3cc" target="_top" xlink:title=" ">
<polygon fill="white" stroke="black" points="185,-44.5 185,-74.5 334,-74.5 334,-44.5 185,-44.5"/>
<text text-anchor="start" x="193" y="-62.5" font-family="Helvetica,sans-Serif" font-size="10.00">GameControllerMappingDialog</text>
<text text-anchor="middle" x="259.5" y="-51.5" font-family="Helvetica,sans-Serif" font-size="10.00">::removeControllerMapping</text>
</a>
</g>
</g>
<!-- Node1&#45;&gt;Node16 -->
<g id="edge17" class="edge">
<title>Node1&#45;&gt;Node16</title>
<path fill="none" stroke="midnightblue" d="M92.06,-210.48C124.51,-181.04 196.56,-115.69 234.33,-81.43"/>
<polygon fill="midnightblue" stroke="midnightblue" points="236.79,-83.92 241.84,-74.61 232.08,-78.74 236.79,-83.92"/>
</g>
<!-- Node4 -->
<g id="node4" class="node">
<title>Node4</title>
<g id="a_node4"><a xlink:href="classGameControllerMappingDialog.html#a5d84dc1367e041feccee277aa2cefcca" target="_top" xlink:title=" ">
<polygon fill="white" stroke="black" points="370,-382.5 370,-412.5 519,-412.5 519,-382.5 370,-382.5"/>
<text text-anchor="start" x="378" y="-400.5" font-family="Helvetica,sans-Serif" font-size="10.00">GameControllerMappingDialog</text>
<text text-anchor="middle" x="444.5" y="-389.5" font-family="Helvetica,sans-Serif" font-size="10.00">::axisAssign</text>
</a>
</g>
</g>
<!-- Node3&#45;&gt;Node4 -->
<g id="edge3" class="edge">
<title>Node3&#45;&gt;Node4</title>
<path fill="none" stroke="midnightblue" d="M321.21,-240.54C325.91,-243.32 330.27,-246.61 334,-250.5 373.4,-291.64 330.35,-332.61 370,-373.5 371.05,-374.58 372.15,-375.62 373.3,-376.61"/>
<polygon fill="midnightblue" stroke="midnightblue" points="371.25,-379.45 381.4,-382.48 375.36,-373.78 371.25,-379.45"/>
</g>
<!-- Node10 -->
<g id="node10" class="node">
<title>Node10</title>
<g id="a_node10"><a xlink:href="classGameControllerMappingDialog.html#af62bb9249504e75fcc19311e423e0074" target="_top" xlink:title="TODO: Possibly remove. This was used for decrementing a reference count.">
<polygon fill="white" stroke="black" points="370,-333.5 370,-363.5 519,-363.5 519,-333.5 370,-333.5"/>
<text text-anchor="start" x="378" y="-351.5" font-family="Helvetica,sans-Serif" font-size="10.00">GameControllerMappingDialog</text>
<text text-anchor="middle" x="444.5" y="-340.5" font-family="Helvetica,sans-Serif" font-size="10.00">::axisRelease</text>
</a>
</g>
</g>
<!-- Node3&#45;&gt;Node10 -->
<g id="edge9" class="edge">
<title>Node3&#45;&gt;Node10</title>
<path fill="none" stroke="midnightblue" d="M319.45,-240.66C324.69,-243.41 329.65,-246.67 334,-250.5 361.43,-274.7 342.43,-300.47 370,-324.5 371.36,-325.68 372.77,-326.81 374.24,-327.88"/>
<polygon fill="midnightblue" stroke="midnightblue" points="372.77,-331.09 383.11,-333.42 376.48,-325.15 372.77,-331.09"/>
</g>
<!-- Node11 -->
<g id="node11" class="node">
<title>Node11</title>
<g id="a_node11"><a xlink:href="classGameControllerMappingDialog.html#a0e052745846c6f0a0db24bf2e4ed5023" target="_top" xlink:title=" ">
<polygon fill="white" stroke="black" points="370,-284.5 370,-314.5 519,-314.5 519,-284.5 370,-284.5"/>
<text text-anchor="start" x="378" y="-302.5" font-family="Helvetica,sans-Serif" font-size="10.00">GameControllerMappingDialog</text>
<text text-anchor="middle" x="444.5" y="-291.5" font-family="Helvetica,sans-Serif" font-size="10.00">::buttonAssign</text>
</a>
</g>
</g>
<!-- Node3&#45;&gt;Node11 -->
<g id="edge10" class="edge">
<title>Node3&#45;&gt;Node11</title>
<path fill="none" stroke="midnightblue" d="M311.08,-240.62C318.91,-243.55 326.78,-246.86 334,-250.5 351.39,-259.28 352.56,-266.83 370,-275.5 373.72,-277.35 377.61,-279.1 381.58,-280.75"/>
<polygon fill="midnightblue" stroke="midnightblue" points="380.36,-284.03 390.95,-284.42 382.92,-277.52 380.36,-284.03"/>
</g>
<!-- Node12 -->
<g id="node12" class="node">
<title>Node12</title>
<g id="a_node12"><a xlink:href="classGameControllerMappingDialog.html#a44a1f4a7547fa03e424502851da555a1" target="_top" xlink:title="TODO: Possibly remove. This was used for decrementing a reference count.">
<polygon fill="white" stroke="black" points="370,-235.5 370,-265.5 519,-265.5 519,-235.5 370,-235.5"/>
<text text-anchor="start" x="378" y="-253.5" font-family="Helvetica,sans-Serif" font-size="10.00">GameControllerMappingDialog</text>
<text text-anchor="middle" x="444.5" y="-242.5" font-family="Helvetica,sans-Serif" font-size="10.00">::buttonRelease</text>
</a>
</g>
</g>
<!-- Node3&#45;&gt;Node12 -->
<g id="edge12" class="edge">
<title>Node3&#45;&gt;Node12</title>
<path fill="none" stroke="midnightblue" d="M334.14,-235.56C342.57,-236.71 351.2,-237.89 359.74,-239.06"/>
<polygon fill="midnightblue" stroke="midnightblue" points="359.33,-242.53 369.71,-240.42 360.28,-235.6 359.33,-242.53"/>
</g>
<!-- Node13 -->
<g id="node13" class="node">
<title>Node13</title>
<g id="a_node13"><a xlink:href="classGameControllerMappingDialog.html#a35b9cc27c94a29800fb8b0ab6043b3e8" target="_top" xlink:title=" ">
<polygon fill="white" stroke="black" points="370,-186.5 370,-216.5 519,-216.5 519,-186.5 370,-186.5"/>
<text text-anchor="start" x="378" y="-204.5" font-family="Helvetica,sans-Serif" font-size="10.00">GameControllerMappingDialog</text>
<text text-anchor="middle" x="444.5" y="-193.5" font-family="Helvetica,sans-Serif" font-size="10.00">::dpadAssign</text>
</a>
</g>
</g>
<!-- Node3&#45;&gt;Node13 -->
<g id="edge13" class="edge">
<title>Node3&#45;&gt;Node13</title>
<path fill="none" stroke="midnightblue" d="M334.14,-215.84C342.57,-214.74 351.2,-213.61 359.74,-212.48"/>
<polygon fill="midnightblue" stroke="midnightblue" points="360.25,-215.95 369.71,-211.18 359.34,-209.01 360.25,-215.95"/>
</g>
<!-- Node14 -->
<g id="node14" class="node">
<title>Node14</title>
<g id="a_node14"><a xlink:href="classGameControllerMappingDialog.html#a72c276575ad4ef2fa561df5f3f435f51" target="_top" xlink:title="TODO: Possibly remove. This was used for decrementing a reference count.">
<polygon fill="white" stroke="black" points="370,-137.5 370,-167.5 519,-167.5 519,-137.5 370,-137.5"/>
<text text-anchor="start" x="378" y="-155.5" font-family="Helvetica,sans-Serif" font-size="10.00">GameControllerMappingDialog</text>
<text text-anchor="middle" x="444.5" y="-144.5" font-family="Helvetica,sans-Serif" font-size="10.00">::dpadRelease</text>
</a>
</g>
</g>
<!-- Node3&#45;&gt;Node14 -->
<g id="edge15" class="edge">
<title>Node3&#45;&gt;Node14</title>
<path fill="none" stroke="midnightblue" d="M291.76,-210.46C313.46,-200.28 343.18,-186.84 370,-176.5 375.01,-174.57 380.25,-172.65 385.52,-170.8"/>
<polygon fill="midnightblue" stroke="midnightblue" points="386.69,-174.1 395.01,-167.53 384.42,-167.48 386.69,-174.1"/>
</g>
<!-- Node15 -->
<g id="node15" class="node">
<title>Node15</title>
<g id="a_node15"><a xlink:href="classGameControllerMappingDialog.html#ade5b53cb41c0797978bfa03fa94d843d" target="_top" xlink:title=" ">
<polygon fill="white" stroke="black" points="370,-88.5 370,-118.5 519,-118.5 519,-88.5 370,-88.5"/>
<text text-anchor="start" x="378" y="-106.5" font-family="Helvetica,sans-Serif" font-size="10.00">GameControllerMappingDialog</text>
<text text-anchor="middle" x="444.5" y="-95.5" font-family="Helvetica,sans-Serif" font-size="10.00">::updateLastAxisLineEditRaw</text>
</a>
</g>
</g>
<!-- Node3&#45;&gt;Node15 -->
<g id="edge16" class="edge">
<title>Node3&#45;&gt;Node15</title>
<path fill="none" stroke="midnightblue" d="M273.52,-210.42C292.66,-189.13 330.43,-150.3 370,-127.5 373,-125.77 376.14,-124.15 379.36,-122.63"/>
<polygon fill="midnightblue" stroke="midnightblue" points="380.84,-125.8 388.61,-118.6 378.05,-119.38 380.84,-125.8"/>
</g>
<!-- Node5 -->
<g id="node5" class="node">
<title>Node5</title>
<g id="a_node5"><a xlink:href="classGameControllerMappingDialog.html#a1a77b5b6f04786c2d21ad2ffa4ddab42" target="_top" xlink:title=" ">
<polygon fill="white" stroke="black" points="555,-235.5 555,-265.5 704,-265.5 704,-235.5 555,-235.5"/>
<text text-anchor="start" x="563" y="-253.5" font-family="Helvetica,sans-Serif" font-size="10.00">GameControllerMappingDialog</text>
<text text-anchor="middle" x="629.5" y="-242.5" font-family="Helvetica,sans-Serif" font-size="10.00">::generateSDLMappingString</text>
</a>
</g>
</g>
<!-- Node4&#45;&gt;Node5 -->
<g id="edge4" class="edge">
<title>Node4&#45;&gt;Node5</title>
<path fill="none" stroke="midnightblue" d="M502.3,-382.37C508.15,-379.82 513.83,-376.88 519,-373.5 559.41,-347.06 594.16,-301.96 613.13,-274.34"/>
<polygon fill="midnightblue" stroke="midnightblue" points="616.27,-275.95 618.95,-265.69 610.46,-272.04 616.27,-275.95"/>
</g>
<!-- Node9 -->
<g id="node9" class="node">
<title>Node9</title>
<g id="a_node9"><a xlink:href="classGameControllerMappingDialog.html#aef612f6ebc54a017003c46f8b4145870" target="_top" xlink:title=" ">
<polygon fill="white" stroke="black" points="555,-382.5 555,-412.5 704,-412.5 704,-382.5 555,-382.5"/>
<text text-anchor="start" x="563" y="-400.5" font-family="Helvetica,sans-Serif" font-size="10.00">GameControllerMappingDialog</text>
<text text-anchor="middle" x="629.5" y="-389.5" font-family="Helvetica,sans-Serif" font-size="10.00">::getEventTriggerAxesLocal</text>
</a>
</g>
</g>
<!-- Node4&#45;&gt;Node9 -->
<g id="edge8" class="edge">
<title>Node4&#45;&gt;Node9</title>
<path fill="none" stroke="midnightblue" d="M519.14,-397.5C527.47,-397.5 536.01,-397.5 544.46,-397.5"/>
<polygon fill="midnightblue" stroke="midnightblue" points="544.71,-401 554.71,-397.5 544.71,-394 544.71,-401"/>
</g>
<!-- Node6 -->
<g id="node6" class="node">
<title>Node6</title>
<g id="a_node6"><a xlink:href="classInputDevice.html#a3184377c2e251949cae1a0937aaef78c" target="_top" xlink:title=" ">
<polygon fill="white" stroke="black" points="750.5,-260 750.5,-279 884.5,-279 884.5,-260 750.5,-260"/>
<text text-anchor="middle" x="817.5" y="-267" font-family="Helvetica,sans-Serif" font-size="10.00">InputDevice::getSDLName</text>
</a>
</g>
</g>
<!-- Node5&#45;&gt;Node6 -->
<g id="edge5" class="edge">
<title>Node5&#45;&gt;Node6</title>
<path fill="none" stroke="midnightblue" d="M704.01,-258.01C715.99,-259.23 728.42,-260.5 740.46,-261.73"/>
<polygon fill="midnightblue" stroke="midnightblue" points="740.16,-265.22 750.46,-262.75 740.87,-258.26 740.16,-265.22"/>
</g>
<!-- Node7 -->
<g id="node7" class="node">
<title>Node7</title>
<g id="a_node7"><a xlink:href="classInputDevice.html#a9621d2cced8732848d09941f3448c2ee" target="_top" xlink:title=" ">
<polygon fill="white" stroke="black" points="745,-222 745,-241 890,-241 890,-222 745,-222"/>
<text text-anchor="middle" x="817.5" y="-229" font-family="Helvetica,sans-Serif" font-size="10.00">InputDevice::getSDLPlatform</text>
</a>
</g>
</g>
<!-- Node5&#45;&gt;Node7 -->
<g id="edge6" class="edge">
<title>Node5&#45;&gt;Node7</title>
<path fill="none" stroke="midnightblue" d="M704.01,-242.99C714.06,-241.96 724.44,-240.9 734.63,-239.86"/>
<polygon fill="midnightblue" stroke="midnightblue" points="735.14,-243.33 744.74,-238.83 734.43,-236.37 735.14,-243.33"/>
</g>
<!-- Node8 -->
<g id="node8" class="node">
<title>Node8</title>
<g id="a_node8"><a xlink:href="classInputDevice.html#ad2d9a268b89898a0a29b56d7af63de9e" target="_top" xlink:title=" ">
<polygon fill="white" stroke="black" points="740,-151 740,-170 895,-170 895,-151 740,-151"/>
<text text-anchor="middle" x="817.5" y="-158" font-family="Helvetica,sans-Serif" font-size="10.00">InputDevice::getUniqueIDString</text>
</a>
</g>
</g>
<!-- Node5&#45;&gt;Node8 -->
<g id="edge7" class="edge">
<title>Node5&#45;&gt;Node8</title>
<path fill="none" stroke="midnightblue" d="M661.63,-235.44C696.65,-218.49 753.08,-191.19 787.28,-174.64"/>
<polygon fill="midnightblue" stroke="midnightblue" points="789.25,-177.58 796.72,-170.07 786.2,-171.27 789.25,-177.58"/>
</g>
<!-- Node11&#45;&gt;Node5 -->
<g id="edge11" class="edge">
<title>Node11&#45;&gt;Node5</title>
<path fill="none" stroke="midnightblue" d="M501.9,-284.4C521.04,-279.27 542.59,-273.5 562.41,-268.2"/>
<polygon fill="midnightblue" stroke="midnightblue" points="563.53,-271.52 572.29,-265.55 561.72,-264.76 563.53,-271.52"/>
</g>
<!-- Node13&#45;&gt;Node5 -->
<g id="edge14" class="edge">
<title>Node13&#45;&gt;Node5</title>
<path fill="none" stroke="midnightblue" d="M501.9,-216.6C521.04,-221.73 542.59,-227.5 562.41,-232.8"/>
<polygon fill="midnightblue" stroke="midnightblue" points="561.72,-236.24 572.29,-235.45 563.53,-229.48 561.72,-236.24"/>
</g>
<!-- Node16&#45;&gt;Node8 -->
<g id="edge19" class="edge">
<title>Node16&#45;&gt;Node8</title>
<path fill="none" stroke="midnightblue" d="M334.23,-61.09C386.2,-63.14 457.25,-67.83 519,-78.5 614.42,-94.99 723.41,-129.07 779.23,-147.69"/>
<polygon fill="midnightblue" stroke="midnightblue" points="778.43,-151.11 789.02,-150.97 780.66,-144.47 778.43,-151.11"/>
</g>
<!-- Node17 -->
<g id="node17" class="node">
<title>Node17</title>
<g id="a_node17"><a xlink:href="classAntiMicroSettings.html#a4f172ffefe55eeba5afff3d54182f881" target="_top" xlink:title=" ">
<polygon fill="white" stroke="black" points="394.5,-0.5 394.5,-30.5 494.5,-30.5 494.5,-0.5 394.5,-0.5"/>
<text text-anchor="start" x="402.5" y="-18.5" font-family="Helvetica,sans-Serif" font-size="10.00">AntiMicroSettings::</text>
<text text-anchor="middle" x="444.5" y="-7.5" font-family="Helvetica,sans-Serif" font-size="10.00">getLock</text>
</a>
</g>
</g>
<!-- Node16&#45;&gt;Node17 -->
<g id="edge18" class="edge">
<title>Node16&#45;&gt;Node17</title>
<path fill="none" stroke="midnightblue" d="M322.97,-44.48C342.9,-39.69 364.88,-34.4 384.55,-29.67"/>
<polygon fill="midnightblue" stroke="midnightblue" points="385.4,-33.07 394.3,-27.33 383.76,-26.26 385.4,-33.07"/>
</g>
</g>
</svg>
        <g id="navigator" transform="translate(0 0)" fill="#404254">
                <rect fill="#f2f5e9" fill-opacity="0.5" stroke="#606060" stroke-width=".5" x="0" y="0" width="60" height="60"/>
                <use id="zoomplus" xlink:href="#zoomPlus" x="17" y="9" onmousedown="handleZoom(evt,'in')"/>
                <use id="zoomminus" xlink:href="#zoomMin" x="42" y="9" onmousedown="handleZoom(evt,'out')"/>
                <use id="reset" xlink:href="#resetDef" x="30" y="36" onmousedown="handleReset()"/>
                <g id="arrowUp" xlink:href="#dirArrow" transform="translate(30 24)" onmousedown="handlePan(0,-1)">
                  <use xlink:href="#rim" fill="#404040">
                        <set attributeName="fill" to="#808080" begin="arrowUp.mouseover" end="arrowUp.mouseout"/>
                  </use>
                  <path fill="none" stroke="white" stroke-width="1.5" d="M0,-3.0v7 M-2.5,-0.5L0,-3.0L2.5,-0.5"/>
                </g>
                <g id="arrowRight" xlink:href="#dirArrow" transform="rotate(90) translate(36 -43)" onmousedown="handlePan(1,0)">
                  <use xlink:href="#rim" fill="#404040">
                        <set attributeName="fill" to="#808080" begin="arrowRight.mouseover" end="arrowRight.mouseout"/>
                  </use>
                  <path fill="none" stroke="white" stroke-width="1.5" d="M0,-3.0v7 M-2.5,-0.5L0,-3.0L2.5,-0.5"/>
                </g>
                <g id="arrowDown" xlink:href="#dirArrow" transform="rotate(180) translate(-30 -48)" onmousedown="handlePan(0,1)">
                  <use xlink:href="#rim" fill="#404040">
                        <set attributeName="fill" to="#808080" begin="arrowDown.mouseover" end="arrowDown.mouseout"/>
                  </use>
                  <path fill="none" stroke="white" stroke-width="1.5" d="M0,-3.0v7 M-2.5,-0.5L0,-3.0L2.5,-0.5"/>
                </g>
                <g id="arrowLeft" xlink:href="#dirArrow" transform="rotate(270) translate(-36 17)" onmousedown="handlePan(-1,0)">
                  <use xlink:href="#rim" fill="#404040">
                        <set attributeName="fill" to="#808080" begin="arrowLeft.mouseover" end="arrowLeft.mouseout"/>
                  </use>
                  <path fill="none" stroke="white" stroke-width="1.5" d="M0,-3.0v7 M-2.5,-0.5L0,-3.0L2.5,-0.5"/>
                </g>
        </g>
        <svg viewBox="0 0 15 15" width="100%" height="30px" preserveAspectRatio="xMaxYMin meet">
         <g id="arrow_out" transform="scale(0.3 0.3)">
          <a xlink:href="classGameControllerMappingDialog_a3969a243cd5846c91466cd663f840f07_cgraph_org.svg" target="_base">
           <rect id="button" ry="5" rx="5" y="6" x="6" height="38" width="38"
                fill="#f2f5e9" fill-opacity="0.5" stroke="#606060" stroke-width="1.0"/>
           <path id="arrow"
             d="M 11.500037,31.436501 C 11.940474,20.09759 22.043105,11.32322 32.158766,21.979434 L 37.068811,17.246167 C 37.068811,17.246167 37.088388,32 37.088388,32 L 22.160133,31.978069 C 22.160133,31.978069 26.997745,27.140456 26.997745,27.140456 C 18.528582,18.264221 13.291696,25.230495 11.500037,31.436501 z"
             style="fill:#404040;"/>
          </a>
         </g>
        </svg>
</svg>
