<?xml version="1.0" encoding="UTF-8" standalone="no"?>
<!DOCTYPE svg PUBLIC "-//W3C//DTD SVG 1.1//EN"
 "http://www.w3.org/Graphics/SVG/1.1/DTD/svg11.dtd">
<!-- Generated by graphviz version 2.43.0 (0)
 -->
<!-- Title: MainSettingsDialog::convToUniqueIDAutoProfGroupSett Pages: 1 -->
<svg width="640pt" height="88pt"
 viewBox="0.00 0.00 640.00 88.00" xmlns="http://www.w3.org/2000/svg" xmlns:xlink="http://www.w3.org/1999/xlink">
<g id="graph0" class="graph" transform="scale(1 1) rotate(0) translate(4 84)">
<title>MainSettingsDialog::convToUniqueIDAutoProfGroupSett</title>
<polygon fill="white" stroke="transparent" points="-4,4 -4,-84 636,-84 636,4 -4,4"/>
<!-- Node1 -->
<g id="node1" class="node">
<title>Node1</title>
<g id="a_node1"><a xlink:title=" ">
<polygon fill="#bfbfbf" stroke="black" points="455,-24.5 455,-54.5 632,-54.5 632,-24.5 455,-24.5"/>
<text text-anchor="start" x="463" y="-42.5" font-family="Helvetica,sans-Serif" font-size="10.00">MainSettingsDialog</text>
<text text-anchor="middle" x="543.5" y="-31.5" font-family="Helvetica,sans-Serif" font-size="10.00">::convToUniqueIDAutoProfGroupSett</text>
</a>
</g>
</g>
<!-- Node2 -->
<g id="node2" class="node">
<title>Node2</title>
<g id="a_node2"><a xlink:href="classMainSettingsDialog.html#ae075b085dd2e591e721a3c45e41754b1" target="_top" xlink:title=" ">
<polygon fill="white" stroke="black" points="143,-49.5 143,-79.5 256,-79.5 256,-49.5 143,-49.5"/>
<text text-anchor="start" x="151" y="-67.5" font-family="Helvetica,sans-Serif" font-size="10.00">MainSettingsDialog</text>
<text text-anchor="middle" x="199.5" y="-56.5" font-family="Helvetica,sans-Serif" font-size="10.00">::populateAutoProfiles</text>
</a>
</g>
</g>
<!-- Node1&#45;&gt;Node2 -->
<g id="edge1" class="edge">
<title>Node1&#45;&gt;Node2</title>
<path fill="none" stroke="midnightblue" d="M444.8,-46.64C383.62,-51.11 307,-56.72 256.04,-60.44"/>
<polygon fill="midnightblue" stroke="midnightblue" points="445.15,-50.13 454.87,-45.91 444.64,-43.14 445.15,-50.13"/>
</g>
<!-- Node4 -->
<g id="node4" class="node">
<title>Node4</title>
<g id="a_node4"><a xlink:href="classMainSettingsDialog.html#a2ac3157f0e50f95986221adbbb008239" target="_top" xlink:title=" ">
<polygon fill="white" stroke="black" points="292,-2.5 292,-32.5 419,-32.5 419,-2.5 292,-2.5"/>
<text text-anchor="start" x="300" y="-20.5" font-family="Helvetica,sans-Serif" font-size="10.00">MainSettingsDialog</text>
<text text-anchor="middle" x="355.5" y="-9.5" font-family="Helvetica,sans-Serif" font-size="10.00">::saveAutoProfileSettings</text>
</a>
</g>
</g>
<!-- Node1&#45;&gt;Node4 -->
<g id="edge3" class="edge">
<title>Node1&#45;&gt;Node4</title>
<path fill="none" stroke="midnightblue" d="M444.76,-27.94C436.09,-26.91 427.47,-25.89 419.21,-24.92"/>
<polygon fill="midnightblue" stroke="midnightblue" points="444.6,-31.45 454.95,-29.14 445.43,-24.49 444.6,-31.45"/>
</g>
<!-- Node3 -->
<g id="node3" class="node">
<title>Node3</title>
<g id="a_node3"><a xlink:href="classMainSettingsDialog.html#aeee272ff5482aca59310558ffdb9ebbe" target="_top" xlink:title=" ">
<polygon fill="white" stroke="black" points="0,-24.5 0,-54.5 107,-54.5 107,-24.5 0,-24.5"/>
<text text-anchor="start" x="8" y="-42.5" font-family="Helvetica,sans-Serif" font-size="10.00">MainSettingsDialog</text>
<text text-anchor="middle" x="53.5" y="-31.5" font-family="Helvetica,sans-Serif" font-size="10.00">::MainSettingsDialog</text>
</a>
</g>
</g>
<!-- Node2&#45;&gt;Node3 -->
<g id="edge2" class="edge">
<title>Node2&#45;&gt;Node3</title>
<path fill="none" stroke="midnightblue" d="M132.83,-53.1C124.24,-51.61 115.53,-50.1 107.19,-48.65"/>
<polygon fill="midnightblue" stroke="midnightblue" points="132.37,-56.57 142.83,-54.83 133.57,-49.68 132.37,-56.57"/>
</g>
<!-- Node5 -->
<g id="node5" class="node">
<title>Node5</title>
<g id="a_node5"><a xlink:href="classMainSettingsDialog.html#a07b54c6c80f72c4c5b28b32a58cbcca6" target="_top" xlink:title=" ">
<polygon fill="white" stroke="black" points="149,-0.5 149,-30.5 250,-30.5 250,-0.5 149,-0.5"/>
<text text-anchor="start" x="157" y="-18.5" font-family="Helvetica,sans-Serif" font-size="10.00">MainSettingsDialog</text>
<text text-anchor="middle" x="199.5" y="-7.5" font-family="Helvetica,sans-Serif" font-size="10.00">::saveNewSettings</text>
</a>
</g>
</g>
<!-- Node4&#45;&gt;Node5 -->
<g id="edge4" class="edge">
<title>Node4&#45;&gt;Node5</title>
<path fill="none" stroke="midnightblue" d="M281.73,-16.55C271.11,-16.42 260.37,-16.28 250.34,-16.15"/>
<polygon fill="midnightblue" stroke="midnightblue" points="281.82,-20.06 291.86,-16.69 281.91,-13.06 281.82,-20.06"/>
</g>
<!-- Node5&#45;&gt;Node3 -->
<g id="edge5" class="edge">
<title>Node5&#45;&gt;Node3</title>
<path fill="none" stroke="midnightblue" d="M138.96,-25.42C128.39,-27.19 117.45,-29.01 107.1,-30.73"/>
<polygon fill="midnightblue" stroke="midnightblue" points="139.65,-28.86 148.94,-23.76 138.5,-21.95 139.65,-28.86"/>
</g>
</g>
</svg>
