<?xml version="1.0" encoding="UTF-8" standalone="no"?>
<!DOCTYPE svg PUBLIC "-//W3C//DTD SVG 1.1//EN"
 "http://www.w3.org/Graphics/SVG/1.1/DTD/svg11.dtd">
<!-- Generated by graphviz version 2.43.0 (0)
 -->
<!-- Title: JoyAxisContextMenu::openMouseSettingsDialog Pages: 1 -->
<!--zoomable 88 -->
<svg id="main" version="1.1" xmlns="http://www.w3.org/2000/svg" xmlns:xlink="http://www.w3.org/1999/xlink" xml:space="preserve" onload="init(evt)">
<style type="text/css"><![CDATA[
.edge:hover path { stroke: red; }
.edge:hover polygon { stroke: red; fill: red; }
]]></style>
<script type="text/javascript"><![CDATA[
var edges = document.getElementsByTagName('g');
if (edges && edges.length) {
  for (var i=0;i<edges.length;i++) {
    if (edges[i].id.substr(0,4)=='edge') {
      edges[i].setAttribute('class','edge');
    }
  }
}
]]></script>
        <defs>
                <circle id="rim" cx="0" cy="0" r="7"/>
                <circle id="rim2" cx="0" cy="0" r="3.5"/>
                <g id="zoomPlus">
                        <use xlink:href="#rim" fill="#404040">
                                <set attributeName="fill" to="#808080" begin="zoomplus.mouseover" end="zoomplus.mouseout"/>
                        </use>
                        <path d="M-4,0h8M0,-4v8" fill="none" stroke="white" stroke-width="1.5" pointer-events="none"/>
                </g>
                <g id="zoomMin">
                        <use xlink:href="#rim" fill="#404040">
                                <set attributeName="fill" to="#808080" begin="zoomminus.mouseover" end="zoomminus.mouseout"/>
                        </use>
                        <path d="M-4,0h8" fill="none" stroke="white" stroke-width="1.5" pointer-events="none"/>
                </g>
                <g id="dirArrow">
                        <path fill="none" stroke="white" stroke-width="1.5" d="M0,-3.0v7 M-2.5,-0.5L0,-3.0L2.5,-0.5"/>
                </g>
               <g id="resetDef">
                       <use xlink:href="#rim2" fill="#404040">
                               <set attributeName="fill" to="#808080" begin="reset.mouseover" end="reset.mouseout"/>
                       </use>
               </g>
        </defs>

<script type="text/javascript">
var viewWidth = 834;
var viewHeight = 88;
var sectionId = 'dynsection-14';
</script>
<script xlink:href="svgpan.js"/>
<svg id="graph" class="graph">
<g id="viewport">
<title>JoyAxisContextMenu::openMouseSettingsDialog</title>
<polygon fill="white" stroke="transparent" points="-4,4 -4,-84 830,-84 830,4 -4,4"/>
<!-- Node1 -->
<g id="node1" class="node">
<title>Node1</title>
<g id="a_node1"><a xlink:title=" ">
<polygon fill="#bfbfbf" stroke="black" points="689,-24.5 689,-54.5 826,-54.5 826,-24.5 689,-24.5"/>
<text text-anchor="start" x="697" y="-42.5" font-family="Helvetica,sans-Serif" font-size="10.00">JoyAxisContextMenu</text>
<text text-anchor="middle" x="757.5" y="-31.5" font-family="Helvetica,sans-Serif" font-size="10.00">::openMouseSettingsDialog</text>
</a>
</g>
</g>
<!-- Node2 -->
<g id="node2" class="node">
<title>Node2</title>
<g id="a_node2"><a xlink:href="classJoyAxisContextMenu.html#aab4c898a84b58ede5c3a2740287cc898" target="_top" xlink:title=" ">
<polygon fill="white" stroke="black" points="543,-49.5 543,-79.5 653,-79.5 653,-49.5 543,-49.5"/>
<text text-anchor="start" x="551" y="-67.5" font-family="Helvetica,sans-Serif" font-size="10.00">JoyAxisContextMenu</text>
<text text-anchor="middle" x="598" y="-56.5" font-family="Helvetica,sans-Serif" font-size="10.00">::buildAxisMenu</text>
</a>
</g>
</g>
<!-- Node1&#45;&gt;Node2 -->
<g id="edge1" class="edge">
<title>Node1&#45;&gt;Node2</title>
<path fill="none" stroke="midnightblue" d="M678.75,-51.84C670.16,-53.2 661.56,-54.57 653.35,-55.87"/>
<polygon fill="midnightblue" stroke="midnightblue" points="679.46,-55.27 688.79,-50.25 678.37,-48.36 679.46,-55.27"/>
</g>
<!-- Node6 -->
<g id="node6" class="node">
<title>Node6</title>
<g id="a_node6"><a xlink:href="classJoyAxisContextMenu.html#adf4373314a4567689fb16a2e4cf484e1" target="_top" xlink:title=" ">
<polygon fill="white" stroke="black" points="543,-0.5 543,-30.5 653,-30.5 653,-0.5 543,-0.5"/>
<text text-anchor="start" x="551" y="-18.5" font-family="Helvetica,sans-Serif" font-size="10.00">JoyAxisContextMenu</text>
<text text-anchor="middle" x="598" y="-7.5" font-family="Helvetica,sans-Serif" font-size="10.00">::buildTriggerMenu</text>
</a>
</g>
</g>
<!-- Node1&#45;&gt;Node6 -->
<g id="edge5" class="edge">
<title>Node1&#45;&gt;Node6</title>
<path fill="none" stroke="midnightblue" d="M678.75,-27.65C670.16,-26.34 661.56,-25.03 653.35,-23.78"/>
<polygon fill="midnightblue" stroke="midnightblue" points="678.38,-31.14 688.79,-29.18 679.43,-24.22 678.38,-31.14"/>
</g>
<!-- Node3 -->
<g id="node3" class="node">
<title>Node3</title>
<g id="a_node3"><a xlink:href="classJoyAxisContextMenu.html#a0bf2f720c91a60d7085d8fd322593f1b" target="_top" xlink:title=" ">
<polygon fill="white" stroke="black" points="397,-24.5 397,-54.5 507,-54.5 507,-24.5 397,-24.5"/>
<text text-anchor="start" x="405" y="-42.5" font-family="Helvetica,sans-Serif" font-size="10.00">JoyAxisContextMenu</text>
<text text-anchor="middle" x="452" y="-31.5" font-family="Helvetica,sans-Serif" font-size="10.00">::buildMenu</text>
</a>
</g>
</g>
<!-- Node2&#45;&gt;Node3 -->
<g id="edge2" class="edge">
<title>Node2&#45;&gt;Node3</title>
<path fill="none" stroke="midnightblue" d="M533.01,-53.39C524.44,-51.9 515.72,-50.39 507.33,-48.93"/>
<polygon fill="midnightblue" stroke="midnightblue" points="532.52,-56.86 542.97,-55.12 533.72,-49.96 532.52,-56.86"/>
</g>
<!-- Node4 -->
<g id="node4" class="node">
<title>Node4</title>
<g id="a_node4"><a xlink:href="classJoyAxisWidget.html#a7788b7cc52a2682d0695e31a5841cee2" target="_top" xlink:title=" ">
<polygon fill="white" stroke="black" points="191,-30 191,-49 361,-49 361,-30 191,-30"/>
<text text-anchor="middle" x="276" y="-37" font-family="Helvetica,sans-Serif" font-size="10.00">JoyAxisWidget::showContextMenu</text>
</a>
</g>
</g>
<!-- Node3&#45;&gt;Node4 -->
<g id="edge3" class="edge">
<title>Node3&#45;&gt;Node4</title>
<path fill="none" stroke="midnightblue" d="M386.84,-39.5C378.45,-39.5 369.75,-39.5 361.1,-39.5"/>
<polygon fill="midnightblue" stroke="midnightblue" points="386.9,-43 396.9,-39.5 386.9,-36 386.9,-43"/>
</g>
<!-- Node5 -->
<g id="node5" class="node">
<title>Node5</title>
<g id="a_node5"><a xlink:href="classJoyAxisWidget.html#af03b84951f7731c7e4a773d66c6fe414" target="_top" xlink:title=" ">
<polygon fill="white" stroke="black" points="0,-30 0,-49 155,-49 155,-30 0,-30"/>
<text text-anchor="middle" x="77.5" y="-37" font-family="Helvetica,sans-Serif" font-size="10.00">JoyAxisWidget::JoyAxisWidget</text>
</a>
</g>
</g>
<!-- Node4&#45;&gt;Node5 -->
<g id="edge4" class="edge">
<title>Node4&#45;&gt;Node5</title>
<path fill="none" stroke="midnightblue" d="M180.74,-39.5C172.13,-39.5 163.48,-39.5 155.06,-39.5"/>
<polygon fill="midnightblue" stroke="midnightblue" points="180.81,-43 190.81,-39.5 180.81,-36 180.81,-43"/>
</g>
<!-- Node6&#45;&gt;Node3 -->
<g id="edge6" class="edge">
<title>Node6&#45;&gt;Node3</title>
<path fill="none" stroke="midnightblue" d="M533.01,-26.17C524.44,-27.59 515.72,-29.05 507.33,-30.44"/>
<polygon fill="midnightblue" stroke="midnightblue" points="533.68,-29.6 542.97,-24.5 532.53,-22.7 533.68,-29.6"/>
</g>
</g>
</svg>
        <g id="navigator" transform="translate(0 0)" fill="#404254">
                <rect fill="#f2f5e9" fill-opacity="0.5" stroke="#606060" stroke-width=".5" x="0" y="0" width="60" height="60"/>
                <use id="zoomplus" xlink:href="#zoomPlus" x="17" y="9" onmousedown="handleZoom(evt,'in')"/>
                <use id="zoomminus" xlink:href="#zoomMin" x="42" y="9" onmousedown="handleZoom(evt,'out')"/>
                <use id="reset" xlink:href="#resetDef" x="30" y="36" onmousedown="handleReset()"/>
                <g id="arrowUp" xlink:href="#dirArrow" transform="translate(30 24)" onmousedown="handlePan(0,-1)">
                  <use xlink:href="#rim" fill="#404040">
                        <set attributeName="fill" to="#808080" begin="arrowUp.mouseover" end="arrowUp.mouseout"/>
                  </use>
                  <path fill="none" stroke="white" stroke-width="1.5" d="M0,-3.0v7 M-2.5,-0.5L0,-3.0L2.5,-0.5"/>
                </g>
                <g id="arrowRight" xlink:href="#dirArrow" transform="rotate(90) translate(36 -43)" onmousedown="handlePan(1,0)">
                  <use xlink:href="#rim" fill="#404040">
                        <set attributeName="fill" to="#808080" begin="arrowRight.mouseover" end="arrowRight.mouseout"/>
                  </use>
                  <path fill="none" stroke="white" stroke-width="1.5" d="M0,-3.0v7 M-2.5,-0.5L0,-3.0L2.5,-0.5"/>
                </g>
                <g id="arrowDown" xlink:href="#dirArrow" transform="rotate(180) translate(-30 -48)" onmousedown="handlePan(0,1)">
                  <use xlink:href="#rim" fill="#404040">
                        <set attributeName="fill" to="#808080" begin="arrowDown.mouseover" end="arrowDown.mouseout"/>
                  </use>
                  <path fill="none" stroke="white" stroke-width="1.5" d="M0,-3.0v7 M-2.5,-0.5L0,-3.0L2.5,-0.5"/>
                </g>
                <g id="arrowLeft" xlink:href="#dirArrow" transform="rotate(270) translate(-36 17)" onmousedown="handlePan(-1,0)">
                  <use xlink:href="#rim" fill="#404040">
                        <set attributeName="fill" to="#808080" begin="arrowLeft.mouseover" end="arrowLeft.mouseout"/>
                  </use>
                  <path fill="none" stroke="white" stroke-width="1.5" d="M0,-3.0v7 M-2.5,-0.5L0,-3.0L2.5,-0.5"/>
                </g>
        </g>
        <svg viewBox="0 0 15 15" width="100%" height="30px" preserveAspectRatio="xMaxYMin meet">
         <g id="arrow_out" transform="scale(0.3 0.3)">
          <a xlink:href="classJoyAxisContextMenu_a04da5e38929b25e9d606937e256ed22b_icgraph_org.svg" target="_base">
           <rect id="button" ry="5" rx="5" y="6" x="6" height="38" width="38"
                fill="#f2f5e9" fill-opacity="0.5" stroke="#606060" stroke-width="1.0"/>
           <path id="arrow"
             d="M 11.500037,31.436501 C 11.940474,20.09759 22.043105,11.32322 32.158766,21.979434 L 37.068811,17.246167 C 37.068811,17.246167 37.088388,32 37.088388,32 L 22.160133,31.978069 C 22.160133,31.978069 26.997745,27.140456 26.997745,27.140456 C 18.528582,18.264221 13.291696,25.230495 11.500037,31.436501 z"
             style="fill:#404040;"/>
          </a>
         </g>
        </svg>
</svg>
