<?xml version="1.0" encoding="UTF-8" standalone="no"?>
<!DOCTYPE svg PUBLIC "-//W3C//DTD SVG 1.1//EN"
 "http://www.w3.org/Graphics/SVG/1.1/DTD/svg11.dtd">
<!-- Generated by graphviz version 2.43.0 (0)
 -->
<!-- Title: DPadEditDialog::implementPresets Pages: 1 -->
<!--zoomable 559 -->
<svg id="main" version="1.1" xmlns="http://www.w3.org/2000/svg" xmlns:xlink="http://www.w3.org/1999/xlink" xml:space="preserve" onload="init(evt)">
<style type="text/css"><![CDATA[
.edge:hover path { stroke: red; }
.edge:hover polygon { stroke: red; fill: red; }
]]></style>
<script type="text/javascript"><![CDATA[
var edges = document.getElementsByTagName('g');
if (edges && edges.length) {
  for (var i=0;i<edges.length;i++) {
    if (edges[i].id.substr(0,4)=='edge') {
      edges[i].setAttribute('class','edge');
    }
  }
}
]]></script>
        <defs>
                <circle id="rim" cx="0" cy="0" r="7"/>
                <circle id="rim2" cx="0" cy="0" r="3.5"/>
                <g id="zoomPlus">
                        <use xlink:href="#rim" fill="#404040">
                                <set attributeName="fill" to="#808080" begin="zoomplus.mouseover" end="zoomplus.mouseout"/>
                        </use>
                        <path d="M-4,0h8M0,-4v8" fill="none" stroke="white" stroke-width="1.5" pointer-events="none"/>
                </g>
                <g id="zoomMin">
                        <use xlink:href="#rim" fill="#404040">
                                <set attributeName="fill" to="#808080" begin="zoomminus.mouseover" end="zoomminus.mouseout"/>
                        </use>
                        <path d="M-4,0h8" fill="none" stroke="white" stroke-width="1.5" pointer-events="none"/>
                </g>
                <g id="dirArrow">
                        <path fill="none" stroke="white" stroke-width="1.5" d="M0,-3.0v7 M-2.5,-0.5L0,-3.0L2.5,-0.5"/>
                </g>
               <g id="resetDef">
                       <use xlink:href="#rim2" fill="#404040">
                               <set attributeName="fill" to="#808080" begin="reset.mouseover" end="reset.mouseout"/>
                       </use>
               </g>
        </defs>

<script type="text/javascript">
var viewWidth = 2165;
var viewHeight = 559;
var sectionId = 'dynsection-7';
</script>
<script xlink:href="svgpan.js"/>
<svg id="graph" class="graph">
<g id="viewport">
<title>DPadEditDialog::implementPresets</title>
<polygon fill="white" stroke="transparent" points="-4,4 -4,-555 2161,-555 2161,4 -4,4"/>
<!-- Node1 -->
<g id="node1" class="node">
<title>Node1</title>
<g id="a_node1"><a xlink:title=" ">
<polygon fill="#bfbfbf" stroke="black" points="0,-82.5 0,-112.5 137,-112.5 137,-82.5 0,-82.5"/>
<text text-anchor="start" x="8" y="-100.5" font-family="Helvetica,sans-Serif" font-size="10.00">DPadEditDialog::implement</text>
<text text-anchor="middle" x="68.5" y="-89.5" font-family="Helvetica,sans-Serif" font-size="10.00">Presets</text>
</a>
</g>
</g>
<!-- Node2 -->
<g id="node2" class="node">
<title>Node2</title>
<g id="a_node2"><a xlink:href="classJoyButton.html#ad2df77b5daa94a848b015265ec1869d6" target="_top" xlink:title="Generate active zone string and notify other objects.">
<polygon fill="white" stroke="black" points="173.5,-175.5 173.5,-205.5 309.5,-205.5 309.5,-175.5 173.5,-175.5"/>
<text text-anchor="start" x="181.5" y="-193.5" font-family="Helvetica,sans-Serif" font-size="10.00">JoyButton::buildActiveZone</text>
<text text-anchor="middle" x="241.5" y="-182.5" font-family="Helvetica,sans-Serif" font-size="10.00">SummaryString</text>
</a>
</g>
</g>
<!-- Node1&#45;&gt;Node2 -->
<g id="edge1" class="edge">
<title>Node1&#45;&gt;Node2</title>
<path fill="none" stroke="midnightblue" d="M88.84,-112.51C109,-127.64 141.92,-150.91 173,-166.5 176.53,-168.27 180.22,-169.97 183.97,-171.59"/>
<polygon fill="midnightblue" stroke="midnightblue" points="182.82,-174.89 193.4,-175.44 185.47,-168.42 182.82,-174.89"/>
</g>
<!-- Node41 -->
<g id="node41" class="node">
<title>Node41</title>
<g id="a_node41"><a xlink:href="classDPadEditDialog.html#af621110d21a7e965ba1e90e22671fd7f" target="_top" xlink:title=" ">
<polygon fill="white" stroke="black" points="174.5,-126.5 174.5,-156.5 308.5,-156.5 308.5,-126.5 174.5,-126.5"/>
<text text-anchor="start" x="182.5" y="-144.5" font-family="Helvetica,sans-Serif" font-size="10.00">DPadEditDialog::getHelper</text>
<text text-anchor="middle" x="241.5" y="-133.5" font-family="Helvetica,sans-Serif" font-size="10.00">Local</text>
</a>
</g>
</g>
<!-- Node1&#45;&gt;Node41 -->
<g id="edge52" class="edge">
<title>Node1&#45;&gt;Node41</title>
<path fill="none" stroke="midnightblue" d="M127.87,-112.52C142.1,-116.18 157.45,-120.13 172.09,-123.9"/>
<polygon fill="midnightblue" stroke="midnightblue" points="171.55,-127.37 182.1,-126.47 173.29,-120.59 171.55,-127.37"/>
</g>
<!-- Node42 -->
<g id="node42" class="node">
<title>Node42</title>
<g id="a_node42"><a xlink:href="classAntKeyMapper.html#acd08c44a2501edcfdb1ef8a68d534b1b" target="_top" xlink:title=" ">
<polygon fill="white" stroke="black" points="173,-88 173,-107 310,-107 310,-88 173,-88"/>
<text text-anchor="middle" x="241.5" y="-95" font-family="Helvetica,sans-Serif" font-size="10.00">AntKeyMapper::getInstance</text>
</a>
</g>
</g>
<!-- Node1&#45;&gt;Node42 -->
<g id="edge53" class="edge">
<title>Node1&#45;&gt;Node42</title>
<path fill="none" stroke="midnightblue" d="M137.08,-97.5C145.54,-97.5 154.24,-97.5 162.83,-97.5"/>
<polygon fill="midnightblue" stroke="midnightblue" points="162.85,-101 172.85,-97.5 162.85,-94 162.85,-101"/>
</g>
<!-- Node45 -->
<g id="node45" class="node">
<title>Node45</title>
<g id="a_node45"><a xlink:href="classJoyDPad.html#a5e31e9bf9edfcc87b69d389dbe9d2ea9" target="_top" xlink:title=" ">
<polygon fill="white" stroke="black" points="181,-50 181,-69 302,-69 302,-50 181,-50"/>
<text text-anchor="middle" x="241.5" y="-57" font-family="Helvetica,sans-Serif" font-size="10.00">JoyDPad::getJoyButton</text>
</a>
</g>
</g>
<!-- Node1&#45;&gt;Node45 -->
<g id="edge56" class="edge">
<title>Node1&#45;&gt;Node45</title>
<path fill="none" stroke="midnightblue" d="M137.08,-82.48C153.85,-78.75 171.59,-74.81 187.54,-71.27"/>
<polygon fill="midnightblue" stroke="midnightblue" points="188.74,-74.59 197.75,-69 187.22,-67.75 188.74,-74.59"/>
</g>
<!-- Node46 -->
<g id="node46" class="node">
<title>Node46</title>
<g id="a_node46"><a xlink:href="classDPadEditDialogHelper.html#aae1190365377795cfb83ebe07d04e523" target="_top" xlink:title=" ">
<polygon fill="white" stroke="black" points="184,-0.5 184,-30.5 299,-30.5 299,-0.5 184,-0.5"/>
<text text-anchor="start" x="192" y="-18.5" font-family="Helvetica,sans-Serif" font-size="10.00">DPadEditDialogHelper</text>
<text text-anchor="middle" x="241.5" y="-7.5" font-family="Helvetica,sans-Serif" font-size="10.00">::setPendingSlots</text>
</a>
</g>
</g>
<!-- Node1&#45;&gt;Node46 -->
<g id="edge57" class="edge">
<title>Node1&#45;&gt;Node46</title>
<path fill="none" stroke="midnightblue" d="M94.48,-82.37C115.11,-70.21 145.39,-53.13 173,-40.5 177.64,-38.38 182.52,-36.3 187.44,-34.3"/>
<polygon fill="midnightblue" stroke="midnightblue" points="188.88,-37.49 196.9,-30.56 186.31,-30.98 188.88,-37.49"/>
</g>
<!-- Node3 -->
<g id="node3" class="node">
<title>Node3</title>
<g id="a_node3"><a xlink:href="classJoyButton.html#ae76ccd3147106953d53a565730c1d8ee" target="_top" xlink:title="Generate a string that represents slots that will be activated or slots that are currently active if ...">
<polygon fill="white" stroke="black" points="356.5,-211.5 356.5,-241.5 485.5,-241.5 485.5,-211.5 356.5,-211.5"/>
<text text-anchor="start" x="364.5" y="-229.5" font-family="Helvetica,sans-Serif" font-size="10.00">JoyButton::getActiveZone</text>
<text text-anchor="middle" x="421" y="-218.5" font-family="Helvetica,sans-Serif" font-size="10.00">Summary</text>
</a>
</g>
</g>
<!-- Node2&#45;&gt;Node3 -->
<g id="edge2" class="edge">
<title>Node2&#45;&gt;Node3</title>
<path fill="none" stroke="midnightblue" d="M309.61,-204.11C321.57,-206.54 334.09,-209.08 346.23,-211.54"/>
<polygon fill="midnightblue" stroke="midnightblue" points="345.82,-215.03 356.32,-213.58 347.21,-208.17 345.82,-215.03"/>
</g>
<!-- Node40 -->
<g id="node40" class="node">
<title>Node40</title>
<g id="a_node40"><a xlink:href="classJoyButton.html#a1b49d9ab85f0d5d128e2eca616747018" target="_top" xlink:title=" ">
<polygon fill="white" stroke="black" points="357.5,-162.5 357.5,-192.5 484.5,-192.5 484.5,-162.5 357.5,-162.5"/>
<text text-anchor="start" x="365.5" y="-180.5" font-family="Helvetica,sans-Serif" font-size="10.00">JoyButton::lockForWrited</text>
<text text-anchor="middle" x="421" y="-169.5" font-family="Helvetica,sans-Serif" font-size="10.00">String</text>
</a>
</g>
</g>
<!-- Node2&#45;&gt;Node40 -->
<g id="edge51" class="edge">
<title>Node2&#45;&gt;Node40</title>
<path fill="none" stroke="midnightblue" d="M309.61,-185.59C321.88,-184.69 334.74,-183.74 347.17,-182.83"/>
<polygon fill="midnightblue" stroke="midnightblue" points="347.76,-186.3 357.48,-182.08 347.25,-179.32 347.76,-186.3"/>
</g>
<!-- Node4 -->
<g id="node4" class="node">
<title>Node4</title>
<g id="a_node4"><a xlink:href="classJoyButton.html#a9404c4ca344265ce68c0eb9b6b95048b" target="_top" xlink:title=" ">
<polygon fill="white" stroke="black" points="536.5,-181.5 536.5,-211.5 672.5,-211.5 672.5,-181.5 536.5,-181.5"/>
<text text-anchor="start" x="544.5" y="-199.5" font-family="Helvetica,sans-Serif" font-size="10.00">JoyButton::buildActiveZone</text>
<text text-anchor="middle" x="604.5" y="-188.5" font-family="Helvetica,sans-Serif" font-size="10.00">Summary</text>
</a>
</g>
</g>
<!-- Node3&#45;&gt;Node4 -->
<g id="edge3" class="edge">
<title>Node3&#45;&gt;Node4</title>
<path fill="none" stroke="midnightblue" d="M485.73,-215.97C498.76,-213.81 512.6,-211.53 526.04,-209.3"/>
<polygon fill="midnightblue" stroke="midnightblue" points="526.93,-212.7 536.22,-207.62 525.79,-205.8 526.93,-212.7"/>
</g>
<!-- Node38 -->
<g id="node38" class="node">
<title>Node38</title>
<g id="a_node38"><a xlink:href="classJoyButton.html#a7494c1753b3f16ba988076e9eb34ff47" target="_top" xlink:title=" ">
<polygon fill="white" stroke="black" points="532,-247 532,-266 677,-266 677,-247 532,-247"/>
<text text-anchor="middle" x="604.5" y="-254" font-family="Helvetica,sans-Serif" font-size="10.00">JoyButton::getActiveZoneList</text>
</a>
</g>
</g>
<!-- Node3&#45;&gt;Node38 -->
<g id="edge46" class="edge">
<title>Node3&#45;&gt;Node38</title>
<path fill="none" stroke="midnightblue" d="M485.73,-237.03C501.98,-239.72 519.49,-242.61 535.91,-245.33"/>
<polygon fill="midnightblue" stroke="midnightblue" points="535.54,-248.81 545.98,-246.99 536.68,-241.91 535.54,-248.81"/>
</g>
<!-- Node5 -->
<g id="node5" class="node">
<title>Node5</title>
<g id="a_node5"><a xlink:href="classJoyButton.html#a773bbe39b094a62cd17776acc06efac6" target="_top" xlink:title=" ">
<polygon fill="white" stroke="black" points="716.5,-121.5 716.5,-151.5 852.5,-151.5 852.5,-121.5 716.5,-121.5"/>
<text text-anchor="start" x="724.5" y="-139.5" font-family="Helvetica,sans-Serif" font-size="10.00">JoyButton::buildActiveZone</text>
<text text-anchor="middle" x="784.5" y="-128.5" font-family="Helvetica,sans-Serif" font-size="10.00">SummarySwitchSlots</text>
</a>
</g>
</g>
<!-- Node4&#45;&gt;Node5 -->
<g id="edge4" class="edge">
<title>Node4&#45;&gt;Node5</title>
<path fill="none" stroke="midnightblue" d="M650.42,-181.36C674.33,-173.3 703.92,-163.32 729.12,-154.83"/>
<polygon fill="midnightblue" stroke="midnightblue" points="730.55,-158.04 738.91,-151.53 728.31,-151.41 730.55,-158.04"/>
</g>
<!-- Node8 -->
<g id="node8" class="node">
<title>Node8</title>
<g id="a_node8"><a xlink:href="classJoyButtonSlot.html#a4fb0606a34134786bc642627bc25aedd" target="_top" xlink:title=" ">
<polygon fill="white" stroke="black" points="1080.5,-83 1080.5,-102 1216.5,-102 1216.5,-83 1080.5,-83"/>
<text text-anchor="middle" x="1148.5" y="-90" font-family="Helvetica,sans-Serif" font-size="10.00">JoyButtonSlot::getMixSlots</text>
</a>
</g>
</g>
<!-- Node4&#45;&gt;Node8 -->
<g id="edge43" class="edge">
<title>Node4&#45;&gt;Node8</title>
<path fill="none" stroke="midnightblue" d="M618.98,-181.26C637.76,-161.25 673.91,-126.98 713,-112.5 831.64,-68.57 981.1,-73.57 1070.22,-82.28"/>
<polygon fill="midnightblue" stroke="midnightblue" points="1069.94,-85.77 1080.25,-83.3 1070.65,-78.8 1069.94,-85.77"/>
</g>
<!-- Node35 -->
<g id="node35" class="node">
<title>Node35</title>
<g id="a_node35"><a xlink:href="classJoyButton.html#a64f1660931aea2fa8df1bf5e313c05ba" target="_top" xlink:title=" ">
<polygon fill="white" stroke="black" points="719.5,-247 719.5,-266 849.5,-266 849.5,-247 719.5,-247"/>
<text text-anchor="middle" x="784.5" y="-254" font-family="Helvetica,sans-Serif" font-size="10.00">JoyButton::getActiveSlots</text>
</a>
</g>
</g>
<!-- Node4&#45;&gt;Node35 -->
<g id="edge42" class="edge">
<title>Node4&#45;&gt;Node35</title>
<path fill="none" stroke="midnightblue" d="M642.48,-211.67C663.06,-219.84 689.25,-229.79 713,-237.5 720.21,-239.84 727.9,-242.12 735.45,-244.25"/>
<polygon fill="midnightblue" stroke="midnightblue" points="734.67,-247.67 745.24,-246.94 736.53,-240.92 734.67,-247.67"/>
</g>
<!-- Node36 -->
<g id="node36" class="node">
<title>Node36</title>
<g id="a_node36"><a xlink:href="classJoyButtonSlot.html#abed7fe134c404b403ea79c0753f6eaaf" target="_top" xlink:title=" ">
<polygon fill="white" stroke="black" points="715,-209 715,-228 854,-228 854,-209 715,-209"/>
<text text-anchor="middle" x="784.5" y="-216" font-family="Helvetica,sans-Serif" font-size="10.00">JoyButtonSlot::getSlotMode</text>
</a>
</g>
</g>
<!-- Node4&#45;&gt;Node36 -->
<g id="edge44" class="edge">
<title>Node4&#45;&gt;Node36</title>
<path fill="none" stroke="midnightblue" d="M672.54,-204.79C683,-206.08 693.88,-207.42 704.57,-208.75"/>
<polygon fill="midnightblue" stroke="midnightblue" points="704.39,-212.25 714.74,-210 705.25,-205.3 704.39,-212.25"/>
</g>
<!-- Node37 -->
<g id="node37" class="node">
<title>Node37</title>
<g id="a_node37"><a xlink:href="classJoyButtonSlot.html#a1e38b923aa69abbcfb9abb008e692444" target="_top" xlink:title=" ">
<polygon fill="white" stroke="black" points="716,-171 716,-190 853,-190 853,-171 716,-171"/>
<text text-anchor="middle" x="784.5" y="-178" font-family="Helvetica,sans-Serif" font-size="10.00">JoyButtonSlot::getTextData</text>
</a>
</g>
</g>
<!-- Node4&#45;&gt;Node37 -->
<g id="edge45" class="edge">
<title>Node4&#45;&gt;Node37</title>
<path fill="none" stroke="midnightblue" d="M672.54,-190.47C683.41,-189.5 694.74,-188.48 705.83,-187.48"/>
<polygon fill="midnightblue" stroke="midnightblue" points="706.28,-190.96 715.93,-186.57 705.66,-183.98 706.28,-190.96"/>
</g>
<!-- Node6 -->
<g id="node6" class="node">
<title>Node6</title>
<g id="a_node6"><a xlink:href="classJoyButton.html#acb0ee9af0f5a44bd07ca5cfbfd026cf6" target="_top" xlink:title=" ">
<polygon fill="white" stroke="black" points="893,-244 893,-263 1031,-263 1031,-244 893,-244"/>
<text text-anchor="middle" x="962" y="-251" font-family="Helvetica,sans-Serif" font-size="10.00">JoyButton::findJoySlotsEnd</text>
</a>
</g>
</g>
<!-- Node5&#45;&gt;Node6 -->
<g id="edge5" class="edge">
<title>Node5&#45;&gt;Node6</title>
<path fill="none" stroke="midnightblue" d="M835.49,-151.55C842.58,-154.44 849.61,-157.76 856,-161.5 891.47,-182.29 926.03,-215.92 945.32,-236.25"/>
<polygon fill="midnightblue" stroke="midnightblue" points="943.01,-238.9 952.38,-243.82 948.13,-234.12 943.01,-238.9"/>
</g>
<!-- Node7 -->
<g id="node7" class="node">
<title>Node7</title>
<g id="a_node7"><a xlink:href="classJoyButtonSlot.html#a6e10409ded595380cbdcfd5c827ab32a" target="_top" xlink:title=" ">
<polygon fill="white" stroke="black" points="892,-127 892,-146 1032,-146 1032,-127 892,-127"/>
<text text-anchor="middle" x="962" y="-134" font-family="Helvetica,sans-Serif" font-size="10.00">JoyButtonSlot::getSlotString</text>
</a>
</g>
</g>
<!-- Node5&#45;&gt;Node7 -->
<g id="edge6" class="edge">
<title>Node5&#45;&gt;Node7</title>
<path fill="none" stroke="midnightblue" d="M852.6,-136.5C862.15,-136.5 872.05,-136.5 881.81,-136.5"/>
<polygon fill="midnightblue" stroke="midnightblue" points="881.9,-140 891.9,-136.5 881.9,-133 881.9,-140"/>
</g>
<!-- Node7&#45;&gt;Node8 -->
<g id="edge7" class="edge">
<title>Node7&#45;&gt;Node8</title>
<path fill="none" stroke="midnightblue" d="M1003.03,-126.95C1030.84,-120.32 1068.08,-111.44 1097.78,-104.36"/>
<polygon fill="midnightblue" stroke="midnightblue" points="1098.63,-107.75 1107.54,-102.03 1097.01,-100.94 1098.63,-107.75"/>
</g>
<!-- Node10 -->
<g id="node10" class="node">
<title>Node10</title>
<g id="a_node10"><a xlink:href="namespacePadderCommon.html#aaa09739d2df84421a5a3467a06ce941c" target="_top" xlink:title="Returns the &quot;human&#45;readable&quot; name of the given profile.">
<polygon fill="white" stroke="black" points="1068,-124 1068,-143 1229,-143 1229,-124 1068,-124"/>
<text text-anchor="middle" x="1148.5" y="-131" font-family="Helvetica,sans-Serif" font-size="10.00">PadderCommon::getProfileName</text>
</a>
</g>
</g>
<!-- Node7&#45;&gt;Node10 -->
<g id="edge9" class="edge">
<title>Node7&#45;&gt;Node10</title>
<path fill="none" stroke="midnightblue" d="M1032.23,-135.37C1040.6,-135.24 1049.25,-135.1 1057.87,-134.96"/>
<polygon fill="midnightblue" stroke="midnightblue" points="1058.01,-138.46 1067.96,-134.79 1057.9,-131.46 1058.01,-138.46"/>
</g>
<!-- Node11 -->
<g id="node11" class="node">
<title>Node11</title>
<g id="a_node11"><a xlink:href="event_8cpp.html#a76ce89b71143c1c09343f45f038b4a67" target="_top" xlink:title=" ">
<polygon fill="white" stroke="black" points="1098,-210 1098,-229 1199,-229 1199,-210 1098,-210"/>
<text text-anchor="middle" x="1148.5" y="-217" font-family="Helvetica,sans-Serif" font-size="10.00">keysymToKeyString</text>
</a>
</g>
</g>
<!-- Node7&#45;&gt;Node11 -->
<g id="edge10" class="edge">
<title>Node7&#45;&gt;Node11</title>
<path fill="none" stroke="midnightblue" d="M980.14,-146.16C1000.67,-157.53 1036.26,-176.62 1068,-190.5 1081.09,-196.22 1095.7,-201.78 1108.79,-206.48"/>
<polygon fill="midnightblue" stroke="midnightblue" points="1107.86,-209.86 1118.45,-209.89 1110.19,-203.26 1107.86,-209.86"/>
</g>
<!-- Node34 -->
<g id="node34" class="node">
<title>Node34</title>
<g id="a_node34"><a xlink:href="classJoyButtonSlot.html#a37ff2b523177bae4ea6a44b82f2973eb" target="_top" xlink:title=" ">
<polygon fill="white" stroke="black" points="1071,-162 1071,-181 1226,-181 1226,-162 1071,-162"/>
<text text-anchor="middle" x="1148.5" y="-169" font-family="Helvetica,sans-Serif" font-size="10.00">JoyButtonSlot::movementString</text>
</a>
</g>
</g>
<!-- Node7&#45;&gt;Node34 -->
<g id="edge41" class="edge">
<title>Node7&#45;&gt;Node34</title>
<path fill="none" stroke="midnightblue" d="M1013.42,-146.06C1036.19,-150.39 1063.29,-155.53 1087.14,-160.05"/>
<polygon fill="midnightblue" stroke="midnightblue" points="1086.67,-163.52 1097.15,-161.95 1087.97,-156.65 1086.67,-163.52"/>
</g>
<!-- Node9 -->
<g id="node9" class="node">
<title>Node9</title>
<g id="a_node9"><a xlink:href="classJoyButtonSlot.html#a9ba9cb0dda063a7df5575072c0aabe01" target="_top" xlink:title=" ">
<polygon fill="white" stroke="black" points="1265,-63.5 1265,-93.5 1394,-93.5 1394,-63.5 1265,-63.5"/>
<text text-anchor="start" x="1273" y="-81.5" font-family="Helvetica,sans-Serif" font-size="10.00">JoyButtonSlot::secureMix</text>
<text text-anchor="middle" x="1329.5" y="-70.5" font-family="Helvetica,sans-Serif" font-size="10.00">SlotsInit</text>
</a>
</g>
</g>
<!-- Node8&#45;&gt;Node9 -->
<g id="edge8" class="edge">
<title>Node8&#45;&gt;Node9</title>
<path fill="none" stroke="midnightblue" d="M1216.66,-87.25C1229.11,-86.27 1242.17,-85.25 1254.8,-84.26"/>
<polygon fill="midnightblue" stroke="midnightblue" points="1255.12,-87.75 1264.81,-83.48 1254.57,-80.77 1255.12,-87.75"/>
</g>
<!-- Node12 -->
<g id="node12" class="node">
<title>Node12</title>
<g id="a_node12"><a xlink:href="classX11Extras.html#a643c95dc1de8eb073a0accb41619fe83" target="_top" xlink:title="Get display instance.">
<polygon fill="white" stroke="black" points="1469.5,-210 1469.5,-229 1568.5,-229 1568.5,-210 1469.5,-210"/>
<text text-anchor="middle" x="1519" y="-217" font-family="Helvetica,sans-Serif" font-size="10.00">X11Extras::display</text>
</a>
</g>
</g>
<!-- Node11&#45;&gt;Node12 -->
<g id="edge11" class="edge">
<title>Node11&#45;&gt;Node12</title>
<path fill="none" stroke="midnightblue" d="M1199.2,-219.5C1266.7,-219.5 1387.18,-219.5 1459.13,-219.5"/>
<polygon fill="midnightblue" stroke="midnightblue" points="1459.38,-223 1469.38,-219.5 1459.38,-216 1459.38,-223"/>
</g>
<!-- Node13 -->
<g id="node13" class="node">
<title>Node13</title>
<g id="a_node13"><a xlink:href="classBaseEventHandler.html#a9a014e472ec57408d16b8b5eed964e90" target="_top" xlink:title=" ">
<polygon fill="white" stroke="black" points="1441.5,-172 1441.5,-191 1596.5,-191 1596.5,-172 1441.5,-172"/>
<text text-anchor="middle" x="1519" y="-179" font-family="Helvetica,sans-Serif" font-size="10.00">BaseEventHandler::getIdentifier</text>
</a>
</g>
</g>
<!-- Node11&#45;&gt;Node13 -->
<g id="edge12" class="edge">
<title>Node11&#45;&gt;Node13</title>
<path fill="none" stroke="midnightblue" d="M1199.2,-214.38C1258.58,-208.25 1358.97,-197.9 1431.25,-190.45"/>
<polygon fill="midnightblue" stroke="midnightblue" points="1431.66,-193.92 1441.25,-189.41 1430.94,-186.96 1431.66,-193.92"/>
</g>
<!-- Node14 -->
<g id="node14" class="node">
<title>Node14</title>
<g id="a_node14"><a xlink:href="classX11Extras.html#ace76277fced60e6bd6ff880030338182" target="_top" xlink:title=" ">
<polygon fill="white" stroke="black" points="1459.5,-526 1459.5,-545 1578.5,-545 1578.5,-526 1459.5,-526"/>
<text text-anchor="middle" x="1519" y="-533" font-family="Helvetica,sans-Serif" font-size="10.00">X11Extras::getInstance</text>
</a>
</g>
</g>
<!-- Node11&#45;&gt;Node14 -->
<g id="edge13" class="edge">
<title>Node11&#45;&gt;Node14</title>
<path fill="none" stroke="midnightblue" d="M1155.41,-229.08C1181.63,-270.66 1292.21,-436.76 1430,-511.5 1438.47,-516.1 1447.89,-519.86 1457.32,-522.93"/>
<polygon fill="midnightblue" stroke="midnightblue" points="1456.54,-526.35 1467.12,-525.89 1458.56,-519.65 1456.54,-526.35"/>
</g>
<!-- Node17 -->
<g id="node17" class="node">
<title>Node17</title>
<g id="a_node17"><a xlink:href="classEventHandlerFactory.html#a90ce153a19fbb91128bd52eb083ce271" target="_top" xlink:title=" ">
<polygon fill="white" stroke="black" points="1464.5,-248.5 1464.5,-278.5 1573.5,-278.5 1573.5,-248.5 1464.5,-248.5"/>
<text text-anchor="start" x="1472.5" y="-266.5" font-family="Helvetica,sans-Serif" font-size="10.00">EventHandlerFactory</text>
<text text-anchor="middle" x="1519" y="-255.5" font-family="Helvetica,sans-Serif" font-size="10.00">::getInstance</text>
</a>
</g>
</g>
<!-- Node11&#45;&gt;Node17 -->
<g id="edge16" class="edge">
<title>Node11&#45;&gt;Node17</title>
<path fill="none" stroke="midnightblue" d="M1199.24,-225.56C1219.62,-228.03 1243.44,-230.92 1265,-233.5 1329.3,-241.21 1402.81,-249.91 1453.96,-255.95"/>
<polygon fill="midnightblue" stroke="midnightblue" points="1453.86,-259.47 1464.2,-257.16 1454.68,-252.51 1453.86,-259.47"/>
</g>
<!-- Node20 -->
<g id="node20" class="node">
<title>Node20</title>
<g id="a_node20"><a xlink:href="classEventHandlerFactory.html#a4c13007f0ece5bf881080c9c04f1f20d" target="_top" xlink:title=" ">
<polygon fill="white" stroke="black" points="1837,-216.5 1837,-246.5 1946,-246.5 1946,-216.5 1837,-216.5"/>
<text text-anchor="start" x="1845" y="-234.5" font-family="Helvetica,sans-Serif" font-size="10.00">EventHandlerFactory</text>
<text text-anchor="middle" x="1891.5" y="-223.5" font-family="Helvetica,sans-Serif" font-size="10.00">::handler</text>
</a>
</g>
</g>
<!-- Node11&#45;&gt;Node20 -->
<g id="edge22" class="edge">
<title>Node11&#45;&gt;Node20</title>
<path fill="none" stroke="midnightblue" d="M1176.41,-209.92C1265.12,-179.81 1555.56,-93 1782,-160.5 1814.19,-170.1 1845.71,-192.62 1866.41,-209.75"/>
<polygon fill="midnightblue" stroke="midnightblue" points="1864.17,-212.44 1874.06,-216.24 1868.7,-207.1 1864.17,-212.44"/>
</g>
<!-- Node22 -->
<g id="node22" class="node">
<title>Node22</title>
<g id="a_node22"><a xlink:href="event_8cpp.html#ad239a34cab482dc3cad5a23a9ac1ad78" target="_top" xlink:title=" ">
<polygon fill="white" stroke="black" points="1277.5,-336 1277.5,-355 1381.5,-355 1381.5,-336 1277.5,-336"/>
<text text-anchor="middle" x="1329.5" y="-343" font-family="Helvetica,sans-Serif" font-size="10.00">keycodeToKeyString</text>
</a>
</g>
</g>
<!-- Node11&#45;&gt;Node22 -->
<g id="edge23" class="edge">
<title>Node11&#45;&gt;Node22</title>
<path fill="none" stroke="midnightblue" d="M1163.25,-229.18C1194.17,-250.94 1269.41,-303.9 1306.74,-330.18"/>
<polygon fill="midnightblue" stroke="midnightblue" points="1304.76,-333.07 1314.95,-335.96 1308.79,-327.34 1304.76,-333.07"/>
</g>
<!-- Node15 -->
<g id="node15" class="node">
<title>Node15</title>
<g id="a_node15"><a xlink:href="classX11Extras.html#ab9bcb016e23bacb0e988feb8175d2c88" target="_top" xlink:title=" ">
<polygon fill="white" stroke="black" points="1656,-526 1656,-545 1770,-545 1770,-526 1656,-526"/>
<text text-anchor="middle" x="1713" y="-533" font-family="Helvetica,sans-Serif" font-size="10.00">X11Extras::X11Extras</text>
</a>
</g>
</g>
<!-- Node14&#45;&gt;Node15 -->
<g id="edge14" class="edge">
<title>Node14&#45;&gt;Node15</title>
<path fill="none" stroke="midnightblue" d="M1578.65,-535.5C1599.78,-535.5 1623.78,-535.5 1645.54,-535.5"/>
<polygon fill="midnightblue" stroke="midnightblue" points="1645.68,-539 1655.68,-535.5 1645.68,-532 1645.68,-539"/>
</g>
<!-- Node16 -->
<g id="node16" class="node">
<title>Node16</title>
<g id="a_node16"><a xlink:href="classX11Extras.html#a6f63e77ed045e174546d77333672b8f0" target="_top" xlink:title=" ">
<polygon fill="white" stroke="black" points="1824,-520.5 1824,-550.5 1959,-550.5 1959,-520.5 1824,-520.5"/>
<text text-anchor="start" x="1832" y="-538.5" font-family="Helvetica,sans-Serif" font-size="10.00">X11Extras::populateKnown</text>
<text text-anchor="middle" x="1891.5" y="-527.5" font-family="Helvetica,sans-Serif" font-size="10.00">Aliases</text>
</a>
</g>
</g>
<!-- Node15&#45;&gt;Node16 -->
<g id="edge15" class="edge">
<title>Node15&#45;&gt;Node16</title>
<path fill="none" stroke="midnightblue" d="M1770.33,-535.5C1784.18,-535.5 1799.25,-535.5 1813.88,-535.5"/>
<polygon fill="midnightblue" stroke="midnightblue" points="1813.92,-539 1823.92,-535.5 1813.92,-532 1813.92,-539"/>
</g>
<!-- Node18 -->
<g id="node18" class="node">
<title>Node18</title>
<g id="a_node18"><a xlink:href="classEventHandlerFactory.html#ade5162034acc0f8683725fdb124bece0" target="_top" xlink:title=" ">
<polygon fill="white" stroke="black" points="1650,-189.5 1650,-219.5 1776,-219.5 1776,-189.5 1650,-189.5"/>
<text text-anchor="start" x="1658" y="-207.5" font-family="Helvetica,sans-Serif" font-size="10.00">EventHandlerFactory</text>
<text text-anchor="middle" x="1713" y="-196.5" font-family="Helvetica,sans-Serif" font-size="10.00">::buildEventGeneratorList</text>
</a>
</g>
</g>
<!-- Node17&#45;&gt;Node18 -->
<g id="edge17" class="edge">
<title>Node17&#45;&gt;Node18</title>
<path fill="none" stroke="midnightblue" d="M1573.62,-248.63C1584.99,-245.37 1596.91,-241.89 1608,-238.5 1624.17,-233.56 1641.67,-227.95 1657.62,-222.72"/>
<polygon fill="midnightblue" stroke="midnightblue" points="1658.92,-225.98 1667.33,-219.53 1656.74,-219.33 1658.92,-225.98"/>
</g>
<!-- Node19 -->
<g id="node19" class="node">
<title>Node19</title>
<g id="a_node19"><a xlink:href="classEventHandlerFactory.html#a2f843293b2ea47271fc7bd99bd871fa6" target="_top" xlink:title=" ">
<polygon fill="white" stroke="black" points="1655.5,-287.5 1655.5,-317.5 1770.5,-317.5 1770.5,-287.5 1655.5,-287.5"/>
<text text-anchor="start" x="1663.5" y="-305.5" font-family="Helvetica,sans-Serif" font-size="10.00">EventHandlerFactory</text>
<text text-anchor="middle" x="1713" y="-294.5" font-family="Helvetica,sans-Serif" font-size="10.00">::EventHandlerFactory</text>
</a>
</g>
</g>
<!-- Node17&#45;&gt;Node19 -->
<g id="edge18" class="edge">
<title>Node17&#45;&gt;Node19</title>
<path fill="none" stroke="midnightblue" d="M1573.74,-274.42C1595.97,-278.93 1621.97,-284.21 1645.4,-288.97"/>
<polygon fill="midnightblue" stroke="midnightblue" points="1644.76,-292.41 1655.26,-290.97 1646.15,-285.55 1644.76,-292.41"/>
</g>
<!-- Node17&#45;&gt;Node20 -->
<g id="edge21" class="edge">
<title>Node17&#45;&gt;Node20</title>
<path fill="none" stroke="midnightblue" d="M1573.66,-255.01C1585.77,-251.33 1597.98,-246.05 1608,-238.5 1632.23,-220.23 1617.49,-195.25 1644,-180.5 1713.24,-141.98 1808.05,-183.61 1857.48,-211.18"/>
<polygon fill="midnightblue" stroke="midnightblue" points="1856.04,-214.38 1866.45,-216.3 1859.51,-208.3 1856.04,-214.38"/>
</g>
<!-- Node21 -->
<g id="node21" class="node">
<title>Node21</title>
<g id="a_node21"><a xlink:href="classEventHandlerFactory.html#afa5ca0171c70b1a24f92b5c8dd00dc92" target="_top" xlink:title=" ">
<polygon fill="white" stroke="black" points="1658.5,-238.5 1658.5,-268.5 1767.5,-268.5 1767.5,-238.5 1658.5,-238.5"/>
<text text-anchor="start" x="1666.5" y="-256.5" font-family="Helvetica,sans-Serif" font-size="10.00">EventHandlerFactory</text>
<text text-anchor="middle" x="1713" y="-245.5" font-family="Helvetica,sans-Serif" font-size="10.00">::fallBackIdentifier</text>
</a>
</g>
</g>
<!-- Node17&#45;&gt;Node21 -->
<g id="edge20" class="edge">
<title>Node17&#45;&gt;Node21</title>
<path fill="none" stroke="midnightblue" d="M1573.74,-260.7C1596.84,-259.5 1624.02,-258.08 1648.15,-256.83"/>
<polygon fill="midnightblue" stroke="midnightblue" points="1648.47,-260.31 1658.27,-256.3 1648.11,-253.32 1648.47,-260.31"/>
</g>
<!-- Node19&#45;&gt;Node20 -->
<g id="edge19" class="edge">
<title>Node19&#45;&gt;Node20</title>
<path fill="none" stroke="midnightblue" d="M1758.06,-287.45C1766.06,-284.58 1774.31,-281.52 1782,-278.5 1804.11,-269.82 1828.39,-259.39 1848.37,-250.56"/>
<polygon fill="midnightblue" stroke="midnightblue" points="1849.79,-253.76 1857.51,-246.5 1846.95,-247.36 1849.79,-253.76"/>
</g>
<!-- Node22&#45;&gt;Node12 -->
<g id="edge24" class="edge">
<title>Node22&#45;&gt;Node12</title>
<path fill="none" stroke="midnightblue" d="M1336.62,-335.79C1350.47,-314.67 1386.42,-264.47 1430,-239.5 1438.96,-234.37 1449.15,-230.55 1459.33,-227.71"/>
<polygon fill="midnightblue" stroke="midnightblue" points="1460.19,-231.1 1469.05,-225.28 1458.5,-224.31 1460.19,-231.1"/>
</g>
<!-- Node22&#45;&gt;Node13 -->
<g id="edge29" class="edge">
<title>Node22&#45;&gt;Node13</title>
<path fill="none" stroke="midnightblue" d="M1334.12,-335.85C1344.54,-309.49 1377.27,-235.88 1430,-200.5 1432.94,-198.52 1436.06,-196.75 1439.29,-195.16"/>
<polygon fill="midnightblue" stroke="midnightblue" points="1440.85,-198.29 1448.65,-191.13 1438.08,-191.86 1440.85,-198.29"/>
</g>
<!-- Node22&#45;&gt;Node14 -->
<g id="edge37" class="edge">
<title>Node22&#45;&gt;Node14</title>
<path fill="none" stroke="midnightblue" d="M1336.85,-355.02C1348.52,-372.65 1374.06,-411.66 1394,-445.5 1410.97,-474.29 1403.79,-490.78 1430,-511.5 1435.89,-516.16 1442.62,-519.91 1449.68,-522.94"/>
<polygon fill="midnightblue" stroke="midnightblue" points="1448.86,-526.37 1459.45,-526.64 1451.34,-519.83 1448.86,-526.37"/>
</g>
<!-- Node22&#45;&gt;Node17 -->
<g id="edge38" class="edge">
<title>Node22&#45;&gt;Node17</title>
<path fill="none" stroke="midnightblue" d="M1344.76,-335.84C1363.58,-323.44 1398.07,-301.94 1430,-288.5 1437.79,-285.22 1446.13,-282.23 1454.48,-279.54"/>
<polygon fill="midnightblue" stroke="midnightblue" points="1455.71,-282.82 1464.23,-276.53 1453.65,-276.13 1455.71,-282.82"/>
</g>
<!-- Node22&#45;&gt;Node20 -->
<g id="edge39" class="edge">
<title>Node22&#45;&gt;Node20</title>
<path fill="none" stroke="midnightblue" d="M1381.52,-347.72C1483.9,-351.49 1710.67,-356.17 1782,-327.5 1819.83,-312.3 1853.25,-277.86 1872.68,-254.64"/>
<polygon fill="midnightblue" stroke="midnightblue" points="1875.59,-256.61 1879.19,-246.65 1870.16,-252.19 1875.59,-256.61"/>
</g>
<!-- Node23 -->
<g id="node23" class="node">
<title>Node23</title>
<g id="a_node23"><a xlink:href="classWinExtras.html#a3487e64cfb407033d7e28a761d1e76dc" target="_top" xlink:title=" ">
<polygon fill="white" stroke="black" points="1449,-412 1449,-431 1589,-431 1589,-412 1449,-412"/>
<text text-anchor="middle" x="1519" y="-419" font-family="Helvetica,sans-Serif" font-size="10.00">WinExtras::getDisplayString</text>
</a>
</g>
</g>
<!-- Node22&#45;&gt;Node23 -->
<g id="edge25" class="edge">
<title>Node22&#45;&gt;Node23</title>
<path fill="none" stroke="midnightblue" d="M1343.99,-355.04C1362.53,-367.71 1397.29,-389.95 1430,-402.5 1436.82,-405.12 1444.09,-407.41 1451.41,-409.42"/>
<polygon fill="midnightblue" stroke="midnightblue" points="1450.83,-412.88 1461.38,-411.97 1452.56,-406.1 1450.83,-412.88"/>
</g>
<!-- Node24 -->
<g id="node24" class="node">
<title>Node24</title>
<g id="a_node24"><a xlink:href="classUInputHelper.html#ac4c70c9479c1cc0eb515ab1bdf2426f5" target="_top" xlink:title=" ">
<polygon fill="white" stroke="black" points="1828,-470.5 1828,-500.5 1955,-500.5 1955,-470.5 1828,-470.5"/>
<text text-anchor="start" x="1836" y="-488.5" font-family="Helvetica,sans-Serif" font-size="10.00">UInputHelper::getDisplay</text>
<text text-anchor="middle" x="1891.5" y="-477.5" font-family="Helvetica,sans-Serif" font-size="10.00">String</text>
</a>
</g>
</g>
<!-- Node22&#45;&gt;Node24 -->
<g id="edge26" class="edge">
<title>Node22&#45;&gt;Node24</title>
<path fill="none" stroke="midnightblue" d="M1364.41,-355.1C1375.06,-359.53 1386.09,-365.8 1394,-374.5 1426.9,-410.69 1390.37,-449.83 1430,-478.5 1489.89,-521.84 1703.54,-506.22 1817.56,-494.2"/>
<polygon fill="midnightblue" stroke="midnightblue" points="1818.04,-497.67 1827.61,-493.13 1817.29,-490.71 1818.04,-497.67"/>
</g>
<!-- Node26 -->
<g id="node26" class="node">
<title>Node26</title>
<g id="a_node26"><a xlink:href="classX11Extras.html#abe710bac948c9802105a2d9d06815cac" target="_top" xlink:title="Get appropriate alias for a known KeySym string that might be blank or contain invalid characters whe...">
<polygon fill="white" stroke="black" points="1449,-298 1449,-317 1589,-317 1589,-298 1449,-298"/>
<text text-anchor="middle" x="1519" y="-305" font-family="Helvetica,sans-Serif" font-size="10.00">X11Extras::getDisplayString</text>
</a>
</g>
</g>
<!-- Node22&#45;&gt;Node26 -->
<g id="edge28" class="edge">
<title>Node22&#45;&gt;Node26</title>
<path fill="none" stroke="midnightblue" d="M1377.81,-335.91C1403.11,-330.78 1434.45,-324.43 1461.07,-319.04"/>
<polygon fill="midnightblue" stroke="midnightblue" points="1461.92,-322.44 1471.03,-317.02 1460.53,-315.58 1461.92,-322.44"/>
</g>
<!-- Node27 -->
<g id="node27" class="node">
<title>Node27</title>
<g id="a_node27"><a xlink:href="classUInputHelper.html#a61509601d3dbd8933aaa26c1e2db02f6" target="_top" xlink:title=" ">
<polygon fill="white" stroke="black" points="1453.5,-374 1453.5,-393 1584.5,-393 1584.5,-374 1453.5,-374"/>
<text text-anchor="middle" x="1519" y="-381" font-family="Helvetica,sans-Serif" font-size="10.00">UInputHelper::getInstance</text>
</a>
</g>
</g>
<!-- Node22&#45;&gt;Node27 -->
<g id="edge30" class="edge">
<title>Node22&#45;&gt;Node27</title>
<path fill="none" stroke="midnightblue" d="M1377.81,-355.09C1403.11,-360.22 1434.45,-366.57 1461.07,-371.96"/>
<polygon fill="midnightblue" stroke="midnightblue" points="1460.53,-375.42 1471.03,-373.98 1461.92,-368.56 1460.53,-375.42"/>
</g>
<!-- Node33 -->
<g id="node33" class="node">
<title>Node33</title>
<g id="a_node33"><a xlink:href="classWinExtras.html#a0bfa711c1abe72486dfebc8ff6fe7f5a" target="_top" xlink:title="Convert a virtual key into the corresponding keyboard scan code.">
<polygon fill="white" stroke="black" points="1430,-450 1430,-469 1608,-469 1608,-450 1430,-450"/>
<text text-anchor="middle" x="1519" y="-457" font-family="Helvetica,sans-Serif" font-size="10.00">WinExtras::scancodeFromVirtualKey</text>
</a>
</g>
</g>
<!-- Node22&#45;&gt;Node33 -->
<g id="edge40" class="edge">
<title>Node22&#45;&gt;Node33</title>
<path fill="none" stroke="midnightblue" d="M1337.52,-355.1C1352.29,-374.54 1388.64,-418.57 1430,-440.5 1434.46,-442.86 1439.2,-444.93 1444.07,-446.75"/>
<polygon fill="midnightblue" stroke="midnightblue" points="1442.97,-450.07 1453.56,-449.93 1445.19,-443.43 1442.97,-450.07"/>
</g>
<!-- Node25 -->
<g id="node25" class="node">
<title>Node25</title>
<g id="a_node25"><a xlink:href="classUInputHelper.html#a043b0fa7cf4ce5811d01d95f3ca318b7" target="_top" xlink:title=" ">
<polygon fill="white" stroke="black" points="2001,-470.5 2001,-500.5 2157,-500.5 2157,-470.5 2001,-470.5"/>
<text text-anchor="start" x="2009" y="-488.5" font-family="Helvetica,sans-Serif" font-size="10.00">UInputHelper::getKnownAliases</text>
<text text-anchor="middle" x="2079" y="-477.5" font-family="Helvetica,sans-Serif" font-size="10.00">VKStrings</text>
</a>
</g>
</g>
<!-- Node24&#45;&gt;Node25 -->
<g id="edge27" class="edge">
<title>Node24&#45;&gt;Node25</title>
<path fill="none" stroke="midnightblue" d="M1955.04,-485.5C1966.55,-485.5 1978.75,-485.5 1990.82,-485.5"/>
<polygon fill="midnightblue" stroke="midnightblue" points="1990.92,-489 2000.92,-485.5 1990.92,-482 1990.92,-489"/>
</g>
<!-- Node28 -->
<g id="node28" class="node">
<title>Node28</title>
<g id="a_node28"><a xlink:href="classUInputHelper.html#a5d56d23a0e0202435c7a5ff1aca9ce55" target="_top" xlink:title=" ">
<polygon fill="white" stroke="black" points="1644,-376 1644,-395 1782,-395 1782,-376 1644,-376"/>
<text text-anchor="middle" x="1713" y="-383" font-family="Helvetica,sans-Serif" font-size="10.00">UInputHelper::UInputHelper</text>
</a>
</g>
</g>
<!-- Node27&#45;&gt;Node28 -->
<g id="edge31" class="edge">
<title>Node27&#45;&gt;Node28</title>
<path fill="none" stroke="midnightblue" d="M1584.73,-384.17C1600.51,-384.34 1617.55,-384.52 1633.88,-384.69"/>
<polygon fill="midnightblue" stroke="midnightblue" points="1633.9,-388.19 1643.94,-384.79 1633.97,-381.19 1633.9,-388.19"/>
</g>
<!-- Node29 -->
<g id="node29" class="node">
<title>Node29</title>
<g id="a_node29"><a xlink:href="classUInputHelper.html#a0f4dbb4221502d86f7d0af12a9865568" target="_top" xlink:title=" ">
<polygon fill="white" stroke="black" points="1818,-370.5 1818,-400.5 1965,-400.5 1965,-370.5 1818,-370.5"/>
<text text-anchor="start" x="1826" y="-388.5" font-family="Helvetica,sans-Serif" font-size="10.00">UInputHelper::populateKnown</text>
<text text-anchor="middle" x="1891.5" y="-377.5" font-family="Helvetica,sans-Serif" font-size="10.00">Aliases</text>
</a>
</g>
</g>
<!-- Node28&#45;&gt;Node29 -->
<g id="edge32" class="edge">
<title>Node28&#45;&gt;Node29</title>
<path fill="none" stroke="midnightblue" d="M1782.24,-385.5C1790.52,-385.5 1799.04,-385.5 1807.5,-385.5"/>
<polygon fill="midnightblue" stroke="midnightblue" points="1807.76,-389 1817.76,-385.5 1807.76,-382 1807.76,-389"/>
</g>
<!-- Node29&#45;&gt;Node25 -->
<g id="edge33" class="edge">
<title>Node29&#45;&gt;Node25</title>
<path fill="none" stroke="midnightblue" d="M1911.12,-400.55C1931.99,-416.83 1967.32,-442.73 2001,-459.5 2006.18,-462.08 2011.67,-464.5 2017.25,-466.74"/>
<polygon fill="midnightblue" stroke="midnightblue" points="2016.08,-470.04 2026.67,-470.36 2018.59,-463.51 2016.08,-470.04"/>
</g>
<!-- Node30 -->
<g id="node30" class="node">
<title>Node30</title>
<g id="a_node30"><a xlink:href="classUInputHelper.html#a8f3fe71ae635cd3c46eaab79dd11c2e0" target="_top" xlink:title=" ">
<polygon fill="white" stroke="black" points="2001,-419.5 2001,-449.5 2157,-449.5 2157,-419.5 2001,-419.5"/>
<text text-anchor="start" x="2009" y="-437.5" font-family="Helvetica,sans-Serif" font-size="10.00">UInputHelper::getKnownAliases</text>
<text text-anchor="middle" x="2079" y="-426.5" font-family="Helvetica,sans-Serif" font-size="10.00">X11SymVK</text>
</a>
</g>
</g>
<!-- Node29&#45;&gt;Node30 -->
<g id="edge34" class="edge">
<title>Node29&#45;&gt;Node30</title>
<path fill="none" stroke="midnightblue" d="M1949.42,-400.53C1969,-405.71 1991.11,-411.55 2011.4,-416.91"/>
<polygon fill="midnightblue" stroke="midnightblue" points="2010.63,-420.32 2021.19,-419.49 2012.42,-413.56 2010.63,-420.32"/>
</g>
<!-- Node31 -->
<g id="node31" class="node">
<title>Node31</title>
<g id="a_node31"><a xlink:href="classUInputHelper.html#a9793030329fbbe1106b255814ef2bd0f" target="_top" xlink:title=" ">
<polygon fill="white" stroke="black" points="2012,-370.5 2012,-400.5 2146,-400.5 2146,-370.5 2012,-370.5"/>
<text text-anchor="start" x="2020" y="-388.5" font-family="Helvetica,sans-Serif" font-size="10.00">UInputHelper::populateX11</text>
<text text-anchor="middle" x="2079" y="-377.5" font-family="Helvetica,sans-Serif" font-size="10.00">SymVk</text>
</a>
</g>
</g>
<!-- Node29&#45;&gt;Node31 -->
<g id="edge35" class="edge">
<title>Node29&#45;&gt;Node31</title>
<path fill="none" stroke="midnightblue" d="M1965.02,-385.5C1977.08,-385.5 1989.63,-385.5 2001.79,-385.5"/>
<polygon fill="midnightblue" stroke="midnightblue" points="2001.89,-389 2011.89,-385.5 2001.89,-382 2001.89,-389"/>
</g>
<!-- Node32 -->
<g id="node32" class="node">
<title>Node32</title>
<g id="a_node32"><a xlink:href="classUInputHelper.html#af02574de230bb0550eebb63f5a669681" target="_top" xlink:title=" ">
<polygon fill="white" stroke="black" points="2011,-321.5 2011,-351.5 2147,-351.5 2147,-321.5 2011,-321.5"/>
<text text-anchor="start" x="2019" y="-339.5" font-family="Helvetica,sans-Serif" font-size="10.00">UInputHelper::populateXVk</text>
<text text-anchor="middle" x="2079" y="-328.5" font-family="Helvetica,sans-Serif" font-size="10.00">Strings</text>
</a>
</g>
</g>
<!-- Node29&#45;&gt;Node32 -->
<g id="edge36" class="edge">
<title>Node29&#45;&gt;Node32</title>
<path fill="none" stroke="midnightblue" d="M1949.42,-370.47C1969,-365.29 1991.11,-359.45 2011.4,-354.09"/>
<polygon fill="midnightblue" stroke="midnightblue" points="2012.42,-357.44 2021.19,-351.51 2010.63,-350.68 2012.42,-357.44"/>
</g>
<!-- Node38&#45;&gt;Node6 -->
<g id="edge47" class="edge">
<title>Node38&#45;&gt;Node6</title>
<path fill="none" stroke="midnightblue" d="M618.54,-266.16C637.94,-279.87 676.1,-304.32 713,-313.5 774.68,-328.84 794.57,-329.81 856,-313.5 888.17,-304.96 920.77,-283.98 940.92,-269.25"/>
<polygon fill="midnightblue" stroke="midnightblue" points="943.11,-271.98 949.01,-263.18 938.91,-266.39 943.11,-271.98"/>
</g>
<!-- Node38&#45;&gt;Node35 -->
<g id="edge48" class="edge">
<title>Node38&#45;&gt;Node35</title>
<path fill="none" stroke="midnightblue" d="M677.13,-256.5C687.75,-256.5 698.7,-256.5 709.37,-256.5"/>
<polygon fill="midnightblue" stroke="midnightblue" points="709.48,-260 719.48,-256.5 709.48,-253 709.48,-260"/>
</g>
<!-- Node38&#45;&gt;Node36 -->
<g id="edge50" class="edge">
<title>Node38&#45;&gt;Node36</title>
<path fill="none" stroke="midnightblue" d="M650.42,-246.91C674.33,-241.81 703.92,-235.49 729.12,-230.11"/>
<polygon fill="midnightblue" stroke="midnightblue" points="729.86,-233.53 738.91,-228.02 728.4,-226.69 729.86,-233.53"/>
</g>
<!-- Node39 -->
<g id="node39" class="node">
<title>Node39</title>
<g id="a_node39"><a xlink:href="classJoyButton.html#ae1d364dfa70f47fae3db99ffbcdea44b" target="_top" xlink:title=" ">
<polygon fill="white" stroke="black" points="713,-285 713,-304 856,-304 856,-285 713,-285"/>
<text text-anchor="middle" x="784.5" y="-292" font-family="Helvetica,sans-Serif" font-size="10.00">JoyButton::getAssignedSlots</text>
</a>
</g>
</g>
<!-- Node38&#45;&gt;Node39 -->
<g id="edge49" class="edge">
<title>Node38&#45;&gt;Node39</title>
<path fill="none" stroke="midnightblue" d="M650.42,-266.09C674.33,-271.19 703.92,-277.51 729.12,-282.89"/>
<polygon fill="midnightblue" stroke="midnightblue" points="728.4,-286.31 738.91,-284.98 729.86,-279.47 728.4,-286.31"/>
</g>
<!-- Node43 -->
<g id="node43" class="node">
<title>Node43</title>
<g id="a_node43"><a xlink:href="classAntKeyMapper.html#abe4a434636d370a750d32a14b9a139d3" target="_top" xlink:title=" ">
<polygon fill="white" stroke="black" points="346,-100 346,-119 496,-119 496,-100 346,-100"/>
<text text-anchor="middle" x="421" y="-107" font-family="Helvetica,sans-Serif" font-size="10.00">AntKeyMapper::AntKeyMapper</text>
</a>
</g>
</g>
<!-- Node42&#45;&gt;Node43 -->
<g id="edge54" class="edge">
<title>Node42&#45;&gt;Node43</title>
<path fill="none" stroke="midnightblue" d="M310.11,-102.07C318.49,-102.64 327.14,-103.22 335.73,-103.8"/>
<polygon fill="midnightblue" stroke="midnightblue" points="335.55,-107.3 345.77,-104.48 336.03,-100.31 335.55,-107.3"/>
</g>
<!-- Node44 -->
<g id="node44" class="node">
<title>Node44</title>
<g id="a_node44"><a xlink:href="antkeymapper_8cpp.html#a4f87707944cf82e8e59c85d48e24951c" target="_top" xlink:title=" ">
<polygon fill="white" stroke="black" points="361,-62 361,-81 481,-81 481,-62 361,-62"/>
<text text-anchor="middle" x="421" y="-69" font-family="Helvetica,sans-Serif" font-size="10.00">buildEventGeneratorList</text>
</a>
</g>
</g>
<!-- Node42&#45;&gt;Node44 -->
<g id="edge55" class="edge">
<title>Node42&#45;&gt;Node44</title>
<path fill="none" stroke="midnightblue" d="M307.59,-87.97C321.6,-85.91 336.46,-83.74 350.63,-81.66"/>
<polygon fill="midnightblue" stroke="midnightblue" points="351.42,-85.08 360.8,-80.17 350.4,-78.16 351.42,-85.08"/>
</g>
</g>
</svg>
        <g id="navigator" transform="translate(0 0)" fill="#404254">
                <rect fill="#f2f5e9" fill-opacity="0.5" stroke="#606060" stroke-width=".5" x="0" y="0" width="60" height="60"/>
                <use id="zoomplus" xlink:href="#zoomPlus" x="17" y="9" onmousedown="handleZoom(evt,'in')"/>
                <use id="zoomminus" xlink:href="#zoomMin" x="42" y="9" onmousedown="handleZoom(evt,'out')"/>
                <use id="reset" xlink:href="#resetDef" x="30" y="36" onmousedown="handleReset()"/>
                <g id="arrowUp" xlink:href="#dirArrow" transform="translate(30 24)" onmousedown="handlePan(0,-1)">
                  <use xlink:href="#rim" fill="#404040">
                        <set attributeName="fill" to="#808080" begin="arrowUp.mouseover" end="arrowUp.mouseout"/>
                  </use>
                  <path fill="none" stroke="white" stroke-width="1.5" d="M0,-3.0v7 M-2.5,-0.5L0,-3.0L2.5,-0.5"/>
                </g>
                <g id="arrowRight" xlink:href="#dirArrow" transform="rotate(90) translate(36 -43)" onmousedown="handlePan(1,0)">
                  <use xlink:href="#rim" fill="#404040">
                        <set attributeName="fill" to="#808080" begin="arrowRight.mouseover" end="arrowRight.mouseout"/>
                  </use>
                  <path fill="none" stroke="white" stroke-width="1.5" d="M0,-3.0v7 M-2.5,-0.5L0,-3.0L2.5,-0.5"/>
                </g>
                <g id="arrowDown" xlink:href="#dirArrow" transform="rotate(180) translate(-30 -48)" onmousedown="handlePan(0,1)">
                  <use xlink:href="#rim" fill="#404040">
                        <set attributeName="fill" to="#808080" begin="arrowDown.mouseover" end="arrowDown.mouseout"/>
                  </use>
                  <path fill="none" stroke="white" stroke-width="1.5" d="M0,-3.0v7 M-2.5,-0.5L0,-3.0L2.5,-0.5"/>
                </g>
                <g id="arrowLeft" xlink:href="#dirArrow" transform="rotate(270) translate(-36 17)" onmousedown="handlePan(-1,0)">
                  <use xlink:href="#rim" fill="#404040">
                        <set attributeName="fill" to="#808080" begin="arrowLeft.mouseover" end="arrowLeft.mouseout"/>
                  </use>
                  <path fill="none" stroke="white" stroke-width="1.5" d="M0,-3.0v7 M-2.5,-0.5L0,-3.0L2.5,-0.5"/>
                </g>
        </g>
        <svg viewBox="0 0 15 15" width="100%" height="30px" preserveAspectRatio="xMaxYMin meet">
         <g id="arrow_out" transform="scale(0.3 0.3)">
          <a xlink:href="classDPadEditDialog_a0cc7c1ceb64baf1619edafb424a2fb68_cgraph_org.svg" target="_base">
           <rect id="button" ry="5" rx="5" y="6" x="6" height="38" width="38"
                fill="#f2f5e9" fill-opacity="0.5" stroke="#606060" stroke-width="1.0"/>
           <path id="arrow"
             d="M 11.500037,31.436501 C 11.940474,20.09759 22.043105,11.32322 32.158766,21.979434 L 37.068811,17.246167 C 37.068811,17.246167 37.088388,32 37.088388,32 L 22.160133,31.978069 C 22.160133,31.978069 26.997745,27.140456 26.997745,27.140456 C 18.528582,18.264221 13.291696,25.230495 11.500037,31.436501 z"
             style="fill:#404040;"/>
          </a>
         </g>
        </svg>
</svg>
