<?xml version="1.0" encoding="UTF-8" standalone="no"?>
<!DOCTYPE svg PUBLIC "-//W3C//DTD SVG 1.1//EN"
 "http://www.w3.org/Graphics/SVG/1.1/DTD/svg11.dtd">
<!-- Generated by graphviz version 2.43.0 (0)
 -->
<!-- Title: MouseControlStickSettingsDialogHelper::updateReleaseSpringRadius Pages: 1 -->
<svg width="540pt" height="88pt"
 viewBox="0.00 0.00 540.00 88.00" xmlns="http://www.w3.org/2000/svg" xmlns:xlink="http://www.w3.org/1999/xlink">
<g id="graph0" class="graph" transform="scale(1 1) rotate(0) translate(4 84)">
<title>MouseControlStickSettingsDialogHelper::updateReleaseSpringRadius</title>
<polygon fill="white" stroke="transparent" points="-4,4 -4,-84 536,-84 536,4 -4,4"/>
<!-- Node1 -->
<g id="node1" class="node">
<title>Node1</title>
<g id="a_node1"><a xlink:title=" ">
<polygon fill="#bfbfbf" stroke="black" points="0,-19 0,-60 171,-60 171,-19 0,-19"/>
<text text-anchor="start" x="8" y="-48" font-family="Helvetica,sans-Serif" font-size="10.00">MouseControlStickSettings</text>
<text text-anchor="start" x="8" y="-37" font-family="Helvetica,sans-Serif" font-size="10.00">DialogHelper::updateReleaseSpring</text>
<text text-anchor="middle" x="85.5" y="-26" font-family="Helvetica,sans-Serif" font-size="10.00">Radius</text>
</a>
</g>
</g>
<!-- Node2 -->
<g id="node2" class="node">
<title>Node2</title>
<g id="a_node2"><a xlink:href="classJoyControlStick.html#a302b4fb6e33c2df7cb5aa121c9d22ed1" target="_top" xlink:title=" ">
<polygon fill="white" stroke="black" points="207,-24.5 207,-54.5 346,-54.5 346,-24.5 207,-24.5"/>
<text text-anchor="start" x="215" y="-42.5" font-family="Helvetica,sans-Serif" font-size="10.00">JoyControlStick::setButtons</text>
<text text-anchor="middle" x="276.5" y="-31.5" font-family="Helvetica,sans-Serif" font-size="10.00">SpringDeadCircleMultiplier</text>
</a>
</g>
</g>
<!-- Node1&#45;&gt;Node2 -->
<g id="edge1" class="edge">
<title>Node1&#45;&gt;Node2</title>
<path fill="none" stroke="midnightblue" d="M171.05,-39.5C179.57,-39.5 188.21,-39.5 196.67,-39.5"/>
<polygon fill="midnightblue" stroke="midnightblue" points="196.89,-43 206.89,-39.5 196.89,-36 196.89,-43"/>
</g>
<!-- Node3 -->
<g id="node3" class="node">
<title>Node3</title>
<g id="a_node3"><a xlink:href="classJoyControlStick.html#a79d9ede9279281b0074eca6e2d99e8ec" target="_top" xlink:title=" ">
<polygon fill="white" stroke="black" points="382,-49.5 382,-79.5 532,-79.5 532,-49.5 382,-49.5"/>
<text text-anchor="start" x="390" y="-67.5" font-family="Helvetica,sans-Serif" font-size="10.00">JoyControlStick::getApplicable</text>
<text text-anchor="middle" x="457" y="-56.5" font-family="Helvetica,sans-Serif" font-size="10.00">Buttons</text>
</a>
</g>
</g>
<!-- Node2&#45;&gt;Node3 -->
<g id="edge2" class="edge">
<title>Node2&#45;&gt;Node3</title>
<path fill="none" stroke="midnightblue" d="M346,-49.09C354.41,-50.27 363.08,-51.49 371.69,-52.69"/>
<polygon fill="midnightblue" stroke="midnightblue" points="371.36,-56.18 381.75,-54.1 372.33,-49.25 371.36,-56.18"/>
</g>
<!-- Node4 -->
<g id="node4" class="node">
<title>Node4</title>
<g id="a_node4"><a xlink:href="classJoyButton.html#a835d1f839a755c87758d7cc67b933d9f" target="_top" xlink:title=" ">
<polygon fill="white" stroke="black" points="391.5,-0.5 391.5,-30.5 522.5,-30.5 522.5,-0.5 391.5,-0.5"/>
<text text-anchor="start" x="399.5" y="-18.5" font-family="Helvetica,sans-Serif" font-size="10.00">JoyButton::setSpringDead</text>
<text text-anchor="middle" x="457" y="-7.5" font-family="Helvetica,sans-Serif" font-size="10.00">CircleMultiplier</text>
</a>
</g>
</g>
<!-- Node2&#45;&gt;Node4 -->
<g id="edge3" class="edge">
<title>Node2&#45;&gt;Node4</title>
<path fill="none" stroke="midnightblue" d="M346,-30.29C357.56,-28.74 369.61,-27.12 381.32,-25.54"/>
<polygon fill="midnightblue" stroke="midnightblue" points="382.05,-28.97 391.49,-24.17 381.12,-22.04 382.05,-28.97"/>
</g>
</g>
</svg>
