<?xml version="1.0" encoding="UTF-8" standalone="no"?>
<!DOCTYPE svg PUBLIC "-//W3C//DTD SVG 1.1//EN"
 "http://www.w3.org/Graphics/SVG/1.1/DTD/svg11.dtd">
<!-- Generated by graphviz version 2.43.0 (0)
 -->
<!-- Title: GameControllerTriggerXml::readJoystickConfig Pages: 1 -->
<svg width="1085pt" height="1300pt"
 viewBox="0.00 0.00 1085.00 1300.16" xmlns="http://www.w3.org/2000/svg" xmlns:xlink="http://www.w3.org/1999/xlink">
<g id="graph0" class="graph" transform="scale(1 1) rotate(0) translate(4 1296.16)">
<title>GameControllerTriggerXml::readJoystickConfig</title>
<polygon fill="white" stroke="transparent" points="-4,4 -4,-1296.16 1081,-1296.16 1081,4 -4,4"/>
<!-- Node1 -->
<g id="node1" class="node">
<title>Node1</title>
<g id="a_node1"><a xlink:title=" ">
<polygon fill="#bfbfbf" stroke="black" points="0,-667.5 0,-697.5 131,-697.5 131,-667.5 0,-667.5"/>
<text text-anchor="start" x="8" y="-685.5" font-family="Helvetica,sans-Serif" font-size="10.00">GameControllerTriggerXml</text>
<text text-anchor="middle" x="65.5" y="-674.5" font-family="Helvetica,sans-Serif" font-size="10.00">::readJoystickConfig</text>
</a>
</g>
</g>
<!-- Node2 -->
<g id="node2" class="node">
<title>Node2</title>
<g id="a_node2"><a xlink:href="$classJoyAxis.html#a06d99d722b314998440165a01b0f87b3" xlink:title=" ">
<polygon fill="white" stroke="black" points="763.5,-1108.5 763.5,-1138.5 898.5,-1138.5 898.5,-1108.5 763.5,-1108.5"/>
<text text-anchor="start" x="771.5" y="-1126.5" font-family="Helvetica,sans-Serif" font-size="10.00">JoyAxis::calculateThrottled</text>
<text text-anchor="middle" x="831" y="-1115.5" font-family="Helvetica,sans-Serif" font-size="10.00">Value</text>
</a>
</g>
</g>
<!-- Node1&#45;&gt;Node2 -->
<g id="edge1" class="edge">
<title>Node1&#45;&gt;Node2</title>
<path fill="none" stroke="midnightblue" d="M109.69,-667.43C208.36,-634.26 446.25,-561.86 504,-613.5 557.51,-661.34 504.02,-872.39 540,-934.5 591.89,-1024.09 705.27,-1078.69 773.89,-1104.82"/>
<polygon fill="midnightblue" stroke="midnightblue" points="773.08,-1108.26 783.67,-1108.47 775.52,-1101.7 773.08,-1108.26"/>
</g>
<!-- Node5 -->
<g id="node5" class="node">
<title>Node5</title>
<g id="a_node5"><a xlink:href="$classJoyAxis.html#a0580ab0df546a1c03b4e8f755ad00272" xlink:title=" ">
<polygon fill="white" stroke="black" points="351.5,-1241 351.5,-1260 498.5,-1260 498.5,-1241 351.5,-1241"/>
<text text-anchor="middle" x="425" y="-1248" font-family="Helvetica,sans-Serif" font-size="10.00">JoyAxis::getCurrentRawValue</text>
</a>
</g>
</g>
<!-- Node1&#45;&gt;Node5 -->
<g id="edge4" class="edge">
<title>Node1&#45;&gt;Node5</title>
<path fill="none" stroke="midnightblue" d="M67.62,-697.63C72.13,-750.88 92.49,-933.19 167,-1059.5 223.05,-1154.53 249.29,-1178.39 346,-1231.5 350.21,-1233.81 354.69,-1235.84 359.31,-1237.63"/>
<polygon fill="midnightblue" stroke="midnightblue" points="358.32,-1240.99 368.91,-1240.97 360.62,-1234.38 358.32,-1240.99"/>
</g>
<!-- Node6 -->
<g id="node6" class="node">
<title>Node6</title>
<g id="a_node6"><a xlink:href="$classJoyAxis.html#a04bb9e15b6c99f5e5559b1804eac74c8" xlink:title=" ">
<polygon fill="white" stroke="black" points="354,-711.5 354,-741.5 496,-741.5 496,-711.5 354,-711.5"/>
<text text-anchor="start" x="362" y="-729.5" font-family="Helvetica,sans-Serif" font-size="10.00">JoyAxis::getCurrentThrottled</text>
<text text-anchor="middle" x="425" y="-718.5" font-family="Helvetica,sans-Serif" font-size="10.00">DeadValue</text>
</a>
</g>
</g>
<!-- Node1&#45;&gt;Node6 -->
<g id="edge5" class="edge">
<title>Node1&#45;&gt;Node6</title>
<path fill="none" stroke="midnightblue" d="M131.08,-691.71C143.02,-693.35 155.38,-695.01 167,-696.5 226.09,-704.06 292.92,-711.84 343.62,-717.58"/>
<polygon fill="midnightblue" stroke="midnightblue" points="343.54,-721.09 353.87,-718.74 344.32,-714.14 343.54,-721.09"/>
</g>
<!-- Node7 -->
<g id="node7" class="node">
<title>Node7</title>
<g id="a_node7"><a xlink:href="$classJoyAxis.html#aae658e2a7b83ce73ce3d7d1ed13eabc6" xlink:title=" ">
<polygon fill="white" stroke="black" points="175.5,-497 175.5,-516 301.5,-516 301.5,-497 175.5,-497"/>
<text text-anchor="middle" x="238.5" y="-504" font-family="Helvetica,sans-Serif" font-size="10.00">JoyAxis::getNAxisButton</text>
</a>
</g>
</g>
<!-- Node1&#45;&gt;Node7 -->
<g id="edge6" class="edge">
<title>Node1&#45;&gt;Node7</title>
<path fill="none" stroke="midnightblue" d="M71.86,-667.33C83.78,-635.84 115.57,-563.18 167,-525.5 169.66,-523.55 172.5,-521.8 175.47,-520.23"/>
<polygon fill="midnightblue" stroke="midnightblue" points="177.02,-523.37 184.67,-516.05 174.12,-517 177.02,-523.37"/>
</g>
<!-- Node8 -->
<g id="node8" class="node">
<title>Node8</title>
<g id="a_node8"><a xlink:href="$classJoyAxis.html#ad51d55d2a95190468209f7481eae8639" xlink:title=" ">
<polygon fill="white" stroke="black" points="176,-459 176,-478 301,-478 301,-459 176,-459"/>
<text text-anchor="middle" x="238.5" y="-466" font-family="Helvetica,sans-Serif" font-size="10.00">JoyAxis::getPAxisButton</text>
</a>
</g>
</g>
<!-- Node1&#45;&gt;Node8 -->
<g id="edge7" class="edge">
<title>Node1&#45;&gt;Node8</title>
<path fill="none" stroke="midnightblue" d="M69.84,-667.4C78.76,-630.69 106.69,-536.18 167,-487.5 169.27,-485.67 171.69,-484.02 174.23,-482.52"/>
<polygon fill="midnightblue" stroke="midnightblue" points="175.86,-485.62 183.24,-478.03 172.73,-479.36 175.86,-485.62"/>
</g>
<!-- Node9 -->
<g id="node9" class="node">
<title>Node9</title>
<g id="a_node9"><a xlink:href="$classJoyAxis.html#a01dfb4ec2c2e85304a479f21b9cffe49" xlink:title=" ">
<polygon fill="white" stroke="black" points="373,-673 373,-692 477,-692 477,-673 373,-673"/>
<text text-anchor="middle" x="425" y="-680" font-family="Helvetica,sans-Serif" font-size="10.00">JoyAxis::getThrottle</text>
</a>
</g>
</g>
<!-- Node1&#45;&gt;Node9 -->
<g id="edge8" class="edge">
<title>Node1&#45;&gt;Node9</title>
<path fill="none" stroke="midnightblue" d="M131.24,-682.5C197.04,-682.5 298.21,-682.5 362.73,-682.5"/>
<polygon fill="midnightblue" stroke="midnightblue" points="362.76,-686 372.76,-682.5 362.76,-679 362.76,-686"/>
</g>
<!-- Node10 -->
<g id="node10" class="node">
<title>Node10</title>
<g id="a_node10"><a xlink:href="$classGameControllerTriggerButton.html#a1c89ef4d420dfe360817c28bc1680c93" xlink:title=" ">
<polygon fill="white" stroke="black" points="167,-535.5 167,-565.5 310,-565.5 310,-535.5 167,-535.5"/>
<text text-anchor="start" x="175" y="-553.5" font-family="Helvetica,sans-Serif" font-size="10.00">GameControllerTriggerButton</text>
<text text-anchor="middle" x="238.5" y="-542.5" font-family="Helvetica,sans-Serif" font-size="10.00">::readJoystickConfig</text>
</a>
</g>
</g>
<!-- Node1&#45;&gt;Node10 -->
<g id="edge9" class="edge">
<title>Node1&#45;&gt;Node10</title>
<path fill="none" stroke="midnightblue" d="M78.32,-667.16C95.73,-645.43 130.21,-605.54 167,-580.5 172.69,-576.63 178.96,-573.1 185.34,-569.92"/>
<polygon fill="midnightblue" stroke="midnightblue" points="187.14,-572.95 194.72,-565.54 184.18,-566.61 187.14,-572.95"/>
</g>
<!-- Node102 -->
<g id="node37" class="node">
<title>Node102</title>
<g id="a_node37"><a xlink:href="$classJoyAxisXml.html#a722916013ad49036b2ad38ab8ec30484" xlink:title=" ">
<polygon fill="white" stroke="black" points="167,-906 167,-925 310,-925 310,-906 167,-906"/>
<text text-anchor="middle" x="238.5" y="-913" font-family="Helvetica,sans-Serif" font-size="10.00">JoyAxisXml::readMainConfig</text>
</a>
</g>
</g>
<!-- Node1&#45;&gt;Node102 -->
<g id="edge39" class="edge">
<title>Node1&#45;&gt;Node102</title>
<path fill="none" stroke="midnightblue" d="M77.72,-697.79C108.1,-739.19 191.87,-853.33 224.37,-897.61"/>
<polygon fill="midnightblue" stroke="midnightblue" points="221.75,-899.96 230.49,-905.95 227.4,-895.82 221.75,-899.96"/>
</g>
<!-- Node111 -->
<g id="node45" class="node">
<title>Node111</title>
<g id="a_node45"><a xlink:href="$classJoyAxis.html#acb36ca26562c203a587fbb937f168200" xlink:title=" ">
<polygon fill="white" stroke="black" points="757.5,-1234 757.5,-1253 904.5,-1253 904.5,-1234 757.5,-1234"/>
<text text-anchor="middle" x="831" y="-1241" font-family="Helvetica,sans-Serif" font-size="10.00">JoyAxis::setCurrentRawValue</text>
</a>
</g>
</g>
<!-- Node1&#45;&gt;Node111 -->
<g id="edge64" class="edge">
<title>Node1&#45;&gt;Node111</title>
<path fill="none" stroke="midnightblue" d="M68.2,-697.51C76.51,-768.71 114.5,-1072.12 167,-1149.5 220.77,-1228.76 254.37,-1241.63 346,-1269.5 502.62,-1317.14 700.72,-1277.36 786.8,-1255.51"/>
<polygon fill="midnightblue" stroke="midnightblue" points="787.68,-1258.9 796.48,-1253.01 785.93,-1252.12 787.68,-1258.9"/>
</g>
<!-- Node114 -->
<g id="node48" class="node">
<title>Node114</title>
<g id="a_node48"><a xlink:href="$classJoyAxis.html#aa4be4a311b6656e63eacfdde5ce6861a" xlink:title="Set throttle value for axis.">
<polygon fill="white" stroke="black" points="373,-1203 373,-1222 477,-1222 477,-1203 373,-1203"/>
<text text-anchor="middle" x="425" y="-1210" font-family="Helvetica,sans-Serif" font-size="10.00">JoyAxis::setThrottle</text>
</a>
</g>
</g>
<!-- Node1&#45;&gt;Node114 -->
<g id="edge65" class="edge">
<title>Node1&#45;&gt;Node114</title>
<path fill="none" stroke="midnightblue" d="M71.12,-697.53C83.68,-737.46 120.65,-848.99 167,-934.5 232.81,-1055.92 234.22,-1107.39 346,-1188.5 351.99,-1192.85 358.79,-1196.42 365.81,-1199.35"/>
<polygon fill="midnightblue" stroke="midnightblue" points="364.88,-1202.74 375.47,-1202.97 367.33,-1196.19 364.88,-1202.74"/>
</g>
<!-- Node116 -->
<g id="node50" class="node">
<title>Node116</title>
<g id="a_node50"><a xlink:href="$classJoyAxis.html#a91976d2688346e4270237afb57462dcf" xlink:title=" ">
<polygon fill="white" stroke="black" points="346,-623.5 346,-653.5 504,-653.5 504,-623.5 346,-623.5"/>
<text text-anchor="start" x="354" y="-641.5" font-family="Helvetica,sans-Serif" font-size="10.00">JoyAxis::updateCurrentThrottled</text>
<text text-anchor="middle" x="425" y="-630.5" font-family="Helvetica,sans-Serif" font-size="10.00">Value</text>
</a>
</g>
</g>
<!-- Node1&#45;&gt;Node116 -->
<g id="edge66" class="edge">
<title>Node1&#45;&gt;Node116</title>
<path fill="none" stroke="midnightblue" d="M131.24,-674.53C188.44,-667.49 272.38,-657.16 335.73,-649.36"/>
<polygon fill="midnightblue" stroke="midnightblue" points="336.22,-652.83 345.71,-648.14 335.36,-645.88 336.22,-652.83"/>
</g>
<!-- Node3 -->
<g id="node3" class="node">
<title>Node3</title>
<g id="a_node3"><a xlink:href="$classJoyAxis.html#af3f311fbf20c583224c2320d1fda0226" xlink:title=" ">
<polygon fill="white" stroke="black" points="952,-1136 952,-1155 1077,-1155 1077,-1136 952,-1136"/>
<text text-anchor="middle" x="1014.5" y="-1143" font-family="Helvetica,sans-Serif" font-size="10.00">JoyAxis::getAxisMaxCal</text>
</a>
</g>
</g>
<!-- Node2&#45;&gt;Node3 -->
<g id="edge2" class="edge">
<title>Node2&#45;&gt;Node3</title>
<path fill="none" stroke="midnightblue" d="M898.55,-1131.57C912.56,-1133.26 927.39,-1135.06 941.58,-1136.78"/>
<polygon fill="midnightblue" stroke="midnightblue" points="941.43,-1140.29 951.78,-1138.02 942.27,-1133.34 941.43,-1140.29"/>
</g>
<!-- Node4 -->
<g id="node4" class="node">
<title>Node4</title>
<g id="a_node4"><a xlink:href="$classJoyAxis.html#aff06f563278beb621285f65fb33b784a" xlink:title=" ">
<polygon fill="white" stroke="black" points="954,-1196 954,-1215 1075,-1215 1075,-1196 954,-1196"/>
<text text-anchor="middle" x="1014.5" y="-1203" font-family="Helvetica,sans-Serif" font-size="10.00">JoyAxis::getAxisMinCal</text>
</a>
</g>
</g>
<!-- Node2&#45;&gt;Node4 -->
<g id="edge3" class="edge">
<title>Node2&#45;&gt;Node4</title>
<path fill="none" stroke="midnightblue" d="M865.29,-1138.54C898.86,-1153.71 950.26,-1176.93 982.86,-1191.66"/>
<polygon fill="midnightblue" stroke="midnightblue" points="981.78,-1195.01 992.33,-1195.94 984.66,-1188.63 981.78,-1195.01"/>
</g>
<!-- Node11 -->
<g id="node11" class="node">
<title>Node11</title>
<g id="a_node11"><a xlink:href="$classSetJoystick.html#af641cbddd22e358218ba68497e40e4e3" xlink:title=" ">
<polygon fill="white" stroke="black" points="355.5,-547 355.5,-566 494.5,-566 494.5,-547 355.5,-547"/>
<text text-anchor="middle" x="425" y="-554" font-family="Helvetica,sans-Serif" font-size="10.00">SetJoystick::getInputDevice</text>
</a>
</g>
</g>
<!-- Node10&#45;&gt;Node11 -->
<g id="edge10" class="edge">
<title>Node10&#45;&gt;Node11</title>
<path fill="none" stroke="midnightblue" d="M310.04,-552.79C321.53,-553.17 333.49,-553.56 345.16,-553.94"/>
<polygon fill="midnightblue" stroke="midnightblue" points="345.22,-557.44 355.32,-554.27 345.44,-550.44 345.22,-557.44"/>
</g>
<!-- Node12 -->
<g id="node12" class="node">
<title>Node12</title>
<g id="a_node12"><a xlink:href="$classInputDevice.html#af5b2520af7b76ff18bf3c79c02e73569" xlink:title=" ">
<polygon fill="white" stroke="black" points="360.5,-509 360.5,-528 489.5,-528 489.5,-509 360.5,-509"/>
<text text-anchor="middle" x="425" y="-516" font-family="Helvetica,sans-Serif" font-size="10.00">InputDevice::profileEdited</text>
</a>
</g>
</g>
<!-- Node10&#45;&gt;Node12 -->
<g id="edge11" class="edge">
<title>Node10&#45;&gt;Node12</title>
<path fill="none" stroke="midnightblue" d="M310.04,-538.27C326.06,-535.49 343.01,-532.55 358.8,-529.81"/>
<polygon fill="midnightblue" stroke="midnightblue" points="359.73,-533.2 368.99,-528.04 358.54,-526.3 359.73,-533.2"/>
</g>
<!-- Node13 -->
<g id="node13" class="node">
<title>Node13</title>
<g id="a_node13"><a xlink:href="$classJoyButtonXml.html#a9d7b2a6324a2f8fe4f424f78aa43d261" xlink:title=" ">
<polygon fill="white" stroke="red" points="359.5,-459.5 359.5,-489.5 490.5,-489.5 490.5,-459.5 359.5,-459.5"/>
<text text-anchor="start" x="367.5" y="-477.5" font-family="Helvetica,sans-Serif" font-size="10.00">JoyButtonXml::readButton</text>
<text text-anchor="middle" x="425" y="-466.5" font-family="Helvetica,sans-Serif" font-size="10.00">Config</text>
</a>
</g>
</g>
<!-- Node10&#45;&gt;Node13 -->
<g id="edge12" class="edge">
<title>Node10&#45;&gt;Node13</title>
<path fill="none" stroke="midnightblue" d="M287.69,-535.49C295.31,-532.53 302.98,-529.18 310,-525.5 327.48,-516.33 328.38,-508.4 346,-499.5 350.49,-497.23 355.22,-495.12 360.05,-493.15"/>
<polygon fill="midnightblue" stroke="midnightblue" points="361.33,-496.41 369.41,-489.56 358.82,-489.87 361.33,-496.41"/>
</g>
<!-- Node14 -->
<g id="node14" class="node">
<title>Node14</title>
<g id="a_node14"><a xlink:href="$classJoyButtonSlot.html#a3b849071be5e1d6f7850209f4187aadb" xlink:title=" ">
<polygon fill="white" stroke="black" points="561,-655.5 561,-685.5 689,-685.5 689,-655.5 561,-655.5"/>
<text text-anchor="start" x="569" y="-673.5" font-family="Helvetica,sans-Serif" font-size="10.00">JoyButtonSlot::assignMix</text>
<text text-anchor="middle" x="625" y="-662.5" font-family="Helvetica,sans-Serif" font-size="10.00">SlotsToNull</text>
</a>
</g>
</g>
<!-- Node13&#45;&gt;Node14 -->
<g id="edge13" class="edge">
<title>Node13&#45;&gt;Node14</title>
<path fill="none" stroke="midnightblue" d="M490.59,-488.98C495.54,-491.87 500.12,-495.34 504,-499.5 549.61,-548.35 493.88,-597.13 540,-645.5 543.43,-649.1 547.35,-652.18 551.58,-654.83"/>
<polygon fill="midnightblue" stroke="midnightblue" points="550.18,-658.04 560.65,-659.67 553.47,-651.87 550.18,-658.04"/>
</g>
<!-- Node15 -->
<g id="node15" class="node">
<title>Node15</title>
<g id="a_node15"><a xlink:href="$classJoyButtonSlot.html#a4fb0606a34134786bc642627bc25aedd" xlink:title=" ">
<polygon fill="white" stroke="red" points="557,-617 557,-636 693,-636 693,-617 557,-617"/>
<text text-anchor="middle" x="625" y="-624" font-family="Helvetica,sans-Serif" font-size="10.00">JoyButtonSlot::getMixSlots</text>
</a>
</g>
</g>
<!-- Node13&#45;&gt;Node15 -->
<g id="edge14" class="edge">
<title>Node13&#45;&gt;Node15</title>
<path fill="none" stroke="midnightblue" d="M490.62,-489.53C495.5,-492.31 500.06,-495.6 504,-499.5 539.98,-535.07 502.49,-573.54 540,-607.5 542.36,-609.64 544.91,-611.55 547.61,-613.27"/>
<polygon fill="midnightblue" stroke="midnightblue" points="546.15,-616.46 556.63,-618.07 549.45,-610.28 546.15,-616.46"/>
</g>
<!-- Node17 -->
<g id="node16" class="node">
<title>Node17</title>
<g id="a_node16"><a xlink:href="$classJoyButtonSlot.html#abed7fe134c404b403ea79c0753f6eaaf" xlink:title=" ">
<polygon fill="white" stroke="black" points="761.5,-541 761.5,-560 900.5,-560 900.5,-541 761.5,-541"/>
<text text-anchor="middle" x="831" y="-548" font-family="Helvetica,sans-Serif" font-size="10.00">JoyButtonSlot::getSlotMode</text>
</a>
</g>
</g>
<!-- Node13&#45;&gt;Node17 -->
<g id="edge15" class="edge">
<title>Node13&#45;&gt;Node17</title>
<path fill="none" stroke="midnightblue" d="M490.91,-486.71C567.6,-501.14 694.21,-524.95 769.1,-539.04"/>
<polygon fill="midnightblue" stroke="midnightblue" points="768.84,-542.56 779.32,-540.97 770.14,-535.68 768.84,-542.56"/>
</g>
<!-- Node18 -->
<g id="node17" class="node">
<title>Node18</title>
<g id="a_node17"><a xlink:href="$classJoyButton.html#a3ba126d15eeb0768f255939b4a2eaee8" xlink:title=" ">
<polygon fill="white" stroke="red" points="550.5,-579 550.5,-598 699.5,-598 699.5,-579 550.5,-579"/>
<text text-anchor="middle" x="625" y="-586" font-family="Helvetica,sans-Serif" font-size="10.00">JoyButton::insertAssignedSlot</text>
</a>
</g>
</g>
<!-- Node13&#45;&gt;Node18 -->
<g id="edge16" class="edge">
<title>Node13&#45;&gt;Node18</title>
<path fill="none" stroke="midnightblue" d="M488.84,-489.61C494.28,-492.37 499.44,-495.64 504,-499.5 530.69,-522.12 512.34,-548.07 540,-569.5 542.33,-571.3 544.79,-572.94 547.36,-574.43"/>
<polygon fill="midnightblue" stroke="midnightblue" points="545.93,-577.63 556.45,-578.93 549.04,-571.35 545.93,-577.63"/>
</g>
<!-- Node60 -->
<g id="node18" class="node">
<title>Node60</title>
<g id="a_node18"><a xlink:href="$classJoyButton.html#ad584e8d34e82b179966790f412d0a50a" xlink:title=" ">
<polygon fill="white" stroke="black" points="556.5,-465 556.5,-484 693.5,-484 693.5,-465 556.5,-465"/>
<text text-anchor="middle" x="625" y="-472" font-family="Helvetica,sans-Serif" font-size="10.00">JoyButton::isModifierButton</text>
</a>
</g>
</g>
<!-- Node13&#45;&gt;Node60 -->
<g id="edge18" class="edge">
<title>Node13&#45;&gt;Node60</title>
<path fill="none" stroke="midnightblue" d="M490.56,-474.5C508.36,-474.5 527.87,-474.5 546.33,-474.5"/>
<polygon fill="midnightblue" stroke="midnightblue" points="546.47,-478 556.47,-474.5 546.47,-471 546.47,-478"/>
</g>
<!-- Node61 -->
<g id="node19" class="node">
<title>Node61</title>
<g id="a_node19"><a xlink:href="$classJoyButton.html#a79b44a6acc2c7860472759f5e2dca087" xlink:title=" ">
<polygon fill="white" stroke="black" points="556.5,-427 556.5,-446 693.5,-446 693.5,-427 556.5,-427"/>
<text text-anchor="middle" x="625" y="-434" font-family="Helvetica,sans-Serif" font-size="10.00">JoyButton::isRelativeSpring</text>
</a>
</g>
</g>
<!-- Node13&#45;&gt;Node61 -->
<g id="edge19" class="edge">
<title>Node13&#45;&gt;Node61</title>
<path fill="none" stroke="midnightblue" d="M490.56,-462.11C514.25,-457.56 540.95,-452.44 564.2,-447.98"/>
<polygon fill="midnightblue" stroke="midnightblue" points="565.12,-451.36 574.28,-446.04 563.8,-444.49 565.12,-451.36"/>
</g>
<!-- Node62 -->
<g id="node20" class="node">
<title>Node62</title>
<g id="a_node20"><a xlink:href="$classJoyButtonSlot.html#ac4bed8a7309890744a1c3bfda9a6e610" xlink:title=" ">
<polygon fill="white" stroke="black" points="560,-389 560,-408 690,-408 690,-389 560,-389"/>
<text text-anchor="middle" x="625" y="-396" font-family="Helvetica,sans-Serif" font-size="10.00">JoyButtonSlot::isValidSlot</text>
</a>
</g>
</g>
<!-- Node13&#45;&gt;Node62 -->
<g id="edge20" class="edge">
<title>Node13&#45;&gt;Node62</title>
<path fill="none" stroke="midnightblue" d="M451.92,-459.27C474.53,-446.55 508.53,-428.74 540,-417.5 547.33,-414.88 555.14,-412.55 562.95,-410.48"/>
<polygon fill="midnightblue" stroke="midnightblue" points="563.95,-413.84 572.8,-408.01 562.25,-407.05 563.95,-413.84"/>
</g>
<!-- Node63 -->
<g id="node21" class="node">
<title>Node63</title>
<g id="a_node21"><a xlink:href="$classJoyButtonSlotXml.html#ae1a67e6f62ab1e8753d43416775b420a" xlink:title=" ">
<polygon fill="white" stroke="red" points="550.5,-541 550.5,-560 699.5,-560 699.5,-541 550.5,-541"/>
<text text-anchor="middle" x="625" y="-548" font-family="Helvetica,sans-Serif" font-size="10.00">JoyButtonSlotXml::readConfig</text>
</a>
</g>
</g>
<!-- Node13&#45;&gt;Node63 -->
<g id="edge21" class="edge">
<title>Node13&#45;&gt;Node63</title>
<path fill="none" stroke="midnightblue" d="M481.07,-489.59C488.94,-492.48 496.8,-495.78 504,-499.5 521.77,-508.68 522.09,-517.6 540,-526.5 549.26,-531.1 559.56,-534.95 569.67,-538.13"/>
<polygon fill="midnightblue" stroke="midnightblue" points="568.69,-541.49 579.27,-540.97 570.67,-534.78 568.69,-541.49"/>
</g>
<!-- Node76 -->
<g id="node22" class="node">
<title>Node76</title>
<g id="a_node22"><a xlink:href="$classJoyButton.html#a8c448fa3d079ea5bd1c5bb4effee45e5" xlink:title=" ">
<polygon fill="white" stroke="black" points="561,-339.5 561,-369.5 689,-369.5 689,-339.5 561,-339.5"/>
<text text-anchor="start" x="569" y="-357.5" font-family="Helvetica,sans-Serif" font-size="10.00">JoyButton::setAccelExtra</text>
<text text-anchor="middle" x="625" y="-346.5" font-family="Helvetica,sans-Serif" font-size="10.00">Duration</text>
</a>
</g>
</g>
<!-- Node13&#45;&gt;Node76 -->
<g id="edge23" class="edge">
<title>Node13&#45;&gt;Node76</title>
<path fill="none" stroke="midnightblue" d="M440.04,-459.45C460.26,-438.63 499.58,-401.16 540,-379.5 544.22,-377.24 548.67,-375.15 553.24,-373.24"/>
<polygon fill="midnightblue" stroke="midnightblue" points="554.67,-376.44 562.72,-369.54 552.13,-369.91 554.67,-376.44"/>
</g>
<!-- Node77 -->
<g id="node23" class="node">
<title>Node77</title>
<g id="a_node23"><a xlink:href="$classJoyButton.html#a969806c0f13266a805d639097078303e" xlink:title=" ">
<polygon fill="white" stroke="black" points="558,-301 558,-320 692,-320 692,-301 558,-301"/>
<text text-anchor="middle" x="625" y="-308" font-family="Helvetica,sans-Serif" font-size="10.00">JoyButton::setActionName</text>
</a>
</g>
</g>
<!-- Node13&#45;&gt;Node77 -->
<g id="edge24" class="edge">
<title>Node13&#45;&gt;Node77</title>
<path fill="none" stroke="midnightblue" d="M433.34,-459.41C448.7,-429.53 487.21,-362.85 540,-329.5 543.39,-327.36 546.99,-325.46 550.71,-323.77"/>
<polygon fill="midnightblue" stroke="midnightblue" points="552.2,-326.95 560.2,-320 549.62,-320.44 552.2,-326.95"/>
</g>
<!-- Node78 -->
<g id="node24" class="node">
<title>Node78</title>
<g id="a_node24"><a xlink:href="$classJoyButton.html#a451a0eaac9ee0a8804107a8b8c6659d1" xlink:title=" ">
<polygon fill="white" stroke="red" points="540,-263 540,-282 710,-282 710,-263 540,-263"/>
<text text-anchor="middle" x="625" y="-270" font-family="Helvetica,sans-Serif" font-size="10.00">JoyButton::setChangeSetCondition</text>
</a>
</g>
</g>
<!-- Node13&#45;&gt;Node78 -->
<g id="edge25" class="edge">
<title>Node13&#45;&gt;Node78</title>
<path fill="none" stroke="midnightblue" d="M430.85,-459.36C443.02,-423.92 478.38,-335.31 540,-291.5 542.68,-289.59 545.52,-287.88 548.47,-286.33"/>
<polygon fill="midnightblue" stroke="midnightblue" points="549.97,-289.49 557.62,-282.17 547.07,-283.12 549.97,-289.49"/>
</g>
<!-- Node79 -->
<g id="node25" class="node">
<title>Node79</title>
<g id="a_node25"><a xlink:href="$classJoyButton.html#af7ffbb38754f3f898935e6cc975ebb6a" xlink:title=" ">
<polygon fill="white" stroke="red" points="746,-244 746,-263 916,-263 916,-244 746,-244"/>
<text text-anchor="middle" x="831" y="-251" font-family="Helvetica,sans-Serif" font-size="10.00">JoyButton::setChangeSetSelection</text>
</a>
</g>
</g>
<!-- Node13&#45;&gt;Node79 -->
<g id="edge27" class="edge">
<title>Node13&#45;&gt;Node79</title>
<path fill="none" stroke="midnightblue" d="M428.38,-459.34C435.86,-417.48 463.13,-300.34 540,-253.5 617.83,-206.07 730.6,-225.72 789.98,-241.3"/>
<polygon fill="midnightblue" stroke="midnightblue" points="789.16,-244.7 799.73,-243.95 791,-237.95 789.16,-244.7"/>
</g>
<!-- Node80 -->
<g id="node26" class="node">
<title>Node80</title>
<g id="a_node26"><a xlink:href="$classJoyButton.html#a725256449033a456c65eee07159f5cba" xlink:title=" ">
<polygon fill="white" stroke="black" points="559.5,-175.5 559.5,-205.5 690.5,-205.5 690.5,-175.5 559.5,-175.5"/>
<text text-anchor="start" x="567.5" y="-193.5" font-family="Helvetica,sans-Serif" font-size="10.00">JoyButton::setCycleReset</text>
<text text-anchor="middle" x="625" y="-182.5" font-family="Helvetica,sans-Serif" font-size="10.00">Status</text>
</a>
</g>
</g>
<!-- Node13&#45;&gt;Node80 -->
<g id="edge28" class="edge">
<title>Node13&#45;&gt;Node80</title>
<path fill="none" stroke="midnightblue" d="M428.56,-459.21C436.64,-415.57 465.63,-289.23 540,-220.5 544.12,-216.69 548.76,-213.36 553.69,-210.44"/>
<polygon fill="midnightblue" stroke="midnightblue" points="555.6,-213.39 562.82,-205.64 552.34,-207.2 555.6,-213.39"/>
</g>
<!-- Node81 -->
<g id="node27" class="node">
<title>Node81</title>
<g id="a_node27"><a xlink:href="$classJoyButton.html#ae2cf7d7b14cd56c0cde9b2a573f49d05" xlink:title=" ">
<polygon fill="white" stroke="black" points="549,-137 549,-156 701,-156 701,-137 549,-137"/>
<text text-anchor="middle" x="625" y="-144" font-family="Helvetica,sans-Serif" font-size="10.00">JoyButton::setCycleResetTime</text>
</a>
</g>
</g>
<!-- Node13&#45;&gt;Node81 -->
<g id="edge29" class="edge">
<title>Node13&#45;&gt;Node81</title>
<path fill="none" stroke="midnightblue" d="M426.72,-459.5C429.98,-409.41 447.57,-246.55 540,-165.5 541.78,-163.94 543.66,-162.5 545.63,-161.17"/>
<polygon fill="midnightblue" stroke="midnightblue" points="547.73,-164 554.71,-156.02 544.28,-157.91 547.73,-164"/>
</g>
<!-- Node82 -->
<g id="node28" class="node">
<title>Node82</title>
<g id="a_node28"><a xlink:href="$classJoyButton.html#afd7d3140abdc30b8f1572add36409919" xlink:title=" ">
<polygon fill="white" stroke="black" points="551.5,-99 551.5,-118 698.5,-118 698.5,-99 551.5,-99"/>
<text text-anchor="middle" x="625" y="-106" font-family="Helvetica,sans-Serif" font-size="10.00">JoyButton::setEasingDuration</text>
</a>
</g>
</g>
<!-- Node13&#45;&gt;Node82 -->
<g id="edge30" class="edge">
<title>Node13&#45;&gt;Node82</title>
<path fill="none" stroke="midnightblue" d="M426.04,-459.24C427.07,-405.03 438.19,-220.07 540,-127.5 541.71,-125.95 543.52,-124.51 545.4,-123.19"/>
<polygon fill="midnightblue" stroke="midnightblue" points="547.3,-126.13 554.15,-118.05 543.75,-120.1 547.3,-126.13"/>
</g>
<!-- Node83 -->
<g id="node29" class="node">
<title>Node83</title>
<g id="a_node29"><a xlink:href="$classJoyButton.html#a9c9b250fd48631ca1632a9ad8562c040" xlink:title=" ">
<polygon fill="white" stroke="black" points="546,-49.5 546,-79.5 704,-79.5 704,-49.5 546,-49.5"/>
<text text-anchor="start" x="554" y="-67.5" font-family="Helvetica,sans-Serif" font-size="10.00">JoyButton::setExtraAcceleration</text>
<text text-anchor="middle" x="625" y="-56.5" font-family="Helvetica,sans-Serif" font-size="10.00">Curve</text>
</a>
</g>
</g>
<!-- Node13&#45;&gt;Node83 -->
<g id="edge31" class="edge">
<title>Node13&#45;&gt;Node83</title>
<path fill="none" stroke="midnightblue" d="M425.7,-459.47C425.39,-402.48 432.13,-197.52 540,-89.5 541.45,-88.05 542.98,-86.68 544.58,-85.39"/>
<polygon fill="midnightblue" stroke="midnightblue" points="546.81,-88.1 553.09,-79.57 542.86,-82.32 546.81,-88.1"/>
</g>
<!-- Node84 -->
<g id="node30" class="node">
<title>Node84</title>
<g id="a_node30"><a xlink:href="$classJoyButton.html#a4cfa85119a700d9d99fd19461bd952a1" xlink:title=" ">
<polygon fill="white" stroke="black" points="546,-0.5 546,-30.5 704,-30.5 704,-0.5 546,-0.5"/>
<text text-anchor="start" x="554" y="-18.5" font-family="Helvetica,sans-Serif" font-size="10.00">JoyButton::setExtraAcceleration</text>
<text text-anchor="middle" x="625" y="-7.5" font-family="Helvetica,sans-Serif" font-size="10.00">Multiplier</text>
</a>
</g>
</g>
<!-- Node13&#45;&gt;Node84 -->
<g id="edge32" class="edge">
<title>Node13&#45;&gt;Node84</title>
<path fill="none" stroke="midnightblue" d="M427.97,-459.21C437.25,-389.45 478.72,-102.14 540,-39.5 540.92,-38.55 541.88,-37.65 542.87,-36.77"/>
<polygon fill="midnightblue" stroke="midnightblue" points="545.06,-39.51 551.02,-30.74 540.9,-33.88 545.06,-39.51"/>
</g>
<!-- Node85 -->
<g id="node31" class="node">
<title>Node85</title>
<g id="a_node31"><a xlink:href="$classJoyButton.html#aca69f26410f28982be9a6e952ec3c494" xlink:title=" ">
<polygon fill="white" stroke="red" points="546,-895.5 546,-925.5 704,-925.5 704,-895.5 546,-895.5"/>
<text text-anchor="start" x="554" y="-913.5" font-family="Helvetica,sans-Serif" font-size="10.00">JoyButton::setExtraAcceleration</text>
<text text-anchor="middle" x="625" y="-902.5" font-family="Helvetica,sans-Serif" font-size="10.00">Status</text>
</a>
</g>
</g>
<!-- Node13&#45;&gt;Node85 -->
<g id="edge33" class="edge">
<title>Node13&#45;&gt;Node85</title>
<path fill="none" stroke="midnightblue" d="M490.55,-487.94C495.65,-491.04 500.26,-494.84 504,-499.5 557.96,-566.66 485.34,-818.91 540,-885.5 541,-886.71 542.05,-887.87 543.15,-888.97"/>
<polygon fill="midnightblue" stroke="midnightblue" points="541.13,-891.84 551.08,-895.47 545.57,-886.43 541.13,-891.84"/>
</g>
<!-- Node87 -->
<g id="node32" class="node">
<title>Node87</title>
<g id="a_node32"><a xlink:href="$classJoyButton.html#af266fab916c5aad7ff91413c0239340f" xlink:title=" ">
<polygon fill="white" stroke="black" points="541.5,-857 541.5,-876 708.5,-876 708.5,-857 541.5,-857"/>
<text text-anchor="middle" x="625" y="-864" font-family="Helvetica,sans-Serif" font-size="10.00">JoyButton::setMaxAccelThreshold</text>
</a>
</g>
</g>
<!-- Node13&#45;&gt;Node87 -->
<g id="edge34" class="edge">
<title>Node13&#45;&gt;Node87</title>
<path fill="none" stroke="midnightblue" d="M490.86,-488.2C495.83,-491.26 500.33,-494.97 504,-499.5 602,-620.22 436.8,-731.19 540,-847.5 541.05,-848.69 542.17,-849.81 543.33,-850.87"/>
<polygon fill="midnightblue" stroke="midnightblue" points="541.53,-853.89 551.66,-857 545.68,-848.25 541.53,-853.89"/>
</g>
<!-- Node88 -->
<g id="node33" class="node">
<title>Node88</title>
<g id="a_node33"><a xlink:href="$classJoyButton.html#abf976dbf566397b7a361660d137b0118" xlink:title=" ">
<polygon fill="white" stroke="black" points="543,-819 543,-838 707,-838 707,-819 543,-819"/>
<text text-anchor="middle" x="625" y="-826" font-family="Helvetica,sans-Serif" font-size="10.00">JoyButton::setMinAccelThreshold</text>
</a>
</g>
</g>
<!-- Node13&#45;&gt;Node88 -->
<g id="edge35" class="edge">
<title>Node13&#45;&gt;Node88</title>
<path fill="none" stroke="midnightblue" d="M490.8,-488.25C495.78,-491.29 500.3,-495 504,-499.5 592.09,-606.64 447.3,-706.32 540,-809.5 541.06,-810.68 542.18,-811.8 543.35,-812.85"/>
<polygon fill="midnightblue" stroke="midnightblue" points="541.57,-815.89 551.72,-818.95 545.69,-810.23 541.57,-815.89"/>
</g>
<!-- Node89 -->
<g id="node34" class="node">
<title>Node89</title>
<g id="a_node34"><a xlink:href="$classJoyButton.html#a89b6b5b57ffe55c871447466b37b5df6" xlink:title=" ">
<polygon fill="white" stroke="black" points="557,-781 557,-800 693,-800 693,-781 557,-781"/>
<text text-anchor="middle" x="625" y="-788" font-family="Helvetica,sans-Serif" font-size="10.00">JoyButton::setMouseCurve</text>
</a>
</g>
</g>
<!-- Node13&#45;&gt;Node89 -->
<g id="edge36" class="edge">
<title>Node13&#45;&gt;Node89</title>
<path fill="none" stroke="midnightblue" d="M490.73,-488.31C495.72,-491.34 500.26,-495.03 504,-499.5 582.19,-593.07 457.78,-681.45 540,-771.5 542.44,-774.18 545.18,-776.52 548.12,-778.56"/>
<polygon fill="midnightblue" stroke="midnightblue" points="546.51,-781.66 556.93,-783.56 549.96,-775.58 546.51,-781.66"/>
</g>
<!-- Node90 -->
<g id="node35" class="node">
<title>Node90</title>
<g id="a_node35"><a xlink:href="$classJoyButton.html#a28224ca61d50adb1338643ae63bab3a3" xlink:title=" ">
<polygon fill="white" stroke="black" points="558,-743 558,-762 692,-762 692,-743 558,-743"/>
<text text-anchor="middle" x="625" y="-750" font-family="Helvetica,sans-Serif" font-size="10.00">JoyButton::setMouseMode</text>
</a>
</g>
</g>
<!-- Node13&#45;&gt;Node90 -->
<g id="edge37" class="edge">
<title>Node13&#45;&gt;Node90</title>
<path fill="none" stroke="midnightblue" d="M490.63,-488.4C495.64,-491.41 500.21,-495.07 504,-499.5 572.32,-579.53 468.24,-656.54 540,-733.5 542.65,-736.35 545.64,-738.81 548.86,-740.94"/>
<polygon fill="midnightblue" stroke="midnightblue" points="547.4,-744.13 557.85,-745.83 550.74,-737.98 547.4,-744.13"/>
</g>
<!-- Node91 -->
<g id="node36" class="node">
<title>Node91</title>
<g id="a_node36"><a xlink:href="$classJoyButton.html#aefd93c829a4c316a3b1e11dd8499f9ed" xlink:title=" ">
<polygon fill="white" stroke="black" points="553,-705 553,-724 697,-724 697,-705 553,-705"/>
<text text-anchor="middle" x="625" y="-712" font-family="Helvetica,sans-Serif" font-size="10.00">JoyButton::setMouseSpeedX</text>
</a>
</g>
</g>
<!-- Node13&#45;&gt;Node91 -->
<g id="edge38" class="edge">
<title>Node13&#45;&gt;Node91</title>
<path fill="none" stroke="midnightblue" d="M490.86,-488.74C495.76,-491.68 500.24,-495.23 504,-499.5 562.22,-565.66 479.3,-630.61 540,-694.5 541.64,-696.22 543.39,-697.81 545.24,-699.27"/>
<polygon fill="midnightblue" stroke="midnightblue" points="543.64,-702.4 553.93,-704.89 547.44,-696.52 543.64,-702.4"/>
</g>
<!-- Node18&#45;&gt;Node17 -->
<g id="edge17" class="edge">
<title>Node18&#45;&gt;Node17</title>
<path fill="none" stroke="midnightblue" d="M677.21,-578.96C704.98,-573.79 739.49,-567.36 768.68,-561.92"/>
<polygon fill="midnightblue" stroke="midnightblue" points="769.57,-565.32 778.76,-560.04 768.29,-558.43 769.57,-565.32"/>
</g>
<!-- Node63&#45;&gt;Node17 -->
<g id="edge22" class="edge">
<title>Node63&#45;&gt;Node17</title>
<path fill="none" stroke="midnightblue" d="M699.65,-550.5C716.28,-550.5 734.01,-550.5 750.86,-550.5"/>
<polygon fill="midnightblue" stroke="midnightblue" points="751.22,-554 761.22,-550.5 751.22,-547 751.22,-554"/>
</g>
<!-- Node78&#45;&gt;Node79 -->
<g id="edge26" class="edge">
<title>Node78&#45;&gt;Node79</title>
<path fill="none" stroke="midnightblue" d="M710.15,-264.66C718.59,-263.88 727.2,-263.07 735.74,-262.28"/>
<polygon fill="midnightblue" stroke="midnightblue" points="736.08,-265.76 745.71,-261.35 735.43,-258.79 736.08,-265.76"/>
</g>
<!-- Node102&#45;&gt;Node2 -->
<g id="edge40" class="edge">
<title>Node102&#45;&gt;Node2</title>
<path fill="none" stroke="midnightblue" d="M303.36,-925.08C305.74,-926.66 307.97,-928.46 310,-930.5 366.51,-987.52 284.68,-1055.69 346,-1107.5 405.43,-1157.72 631.97,-1143.68 752.88,-1132.05"/>
<polygon fill="midnightblue" stroke="midnightblue" points="753.56,-1135.5 763.17,-1131.04 752.88,-1128.54 753.56,-1135.5"/>
</g>
<!-- Node102&#45;&gt;Node5 -->
<g id="edge41" class="edge">
<title>Node102&#45;&gt;Node5</title>
<path fill="none" stroke="midnightblue" d="M242.17,-925.21C256.2,-975.96 321.68,-1209.19 346,-1231.5 347.71,-1233.07 349.53,-1234.51 351.43,-1235.85"/>
<polygon fill="midnightblue" stroke="midnightblue" points="349.87,-1238.98 360.27,-1240.98 353.38,-1232.93 349.87,-1238.98"/>
</g>
<!-- Node102&#45;&gt;Node6 -->
<g id="edge42" class="edge">
<title>Node102&#45;&gt;Node6</title>
<path fill="none" stroke="midnightblue" d="M243.09,-905.71C253.98,-877.41 289.35,-794.79 346,-751.5 348.46,-749.62 351.07,-747.88 353.78,-746.26"/>
<polygon fill="midnightblue" stroke="midnightblue" points="355.53,-749.3 362.75,-741.54 352.27,-743.1 355.53,-749.3"/>
</g>
<!-- Node102&#45;&gt;Node9 -->
<g id="edge46" class="edge">
<title>Node102&#45;&gt;Node9</title>
<path fill="none" stroke="midnightblue" d="M241.36,-905.56C248.29,-871.33 275.96,-757.44 346,-701.5 351.07,-697.45 356.89,-694.24 363,-691.71"/>
<polygon fill="midnightblue" stroke="midnightblue" points="364.52,-694.88 372.78,-688.25 362.19,-688.28 364.52,-694.88"/>
</g>
<!-- Node102&#45;&gt;Node11 -->
<g id="edge44" class="edge">
<title>Node102&#45;&gt;Node11</title>
<path fill="none" stroke="midnightblue" d="M240.78,-905.91C246.47,-866.22 272.52,-712.32 346,-613.5 359.17,-595.78 379.42,-581.22 395.98,-571.24"/>
<polygon fill="midnightblue" stroke="midnightblue" points="397.83,-574.22 404.74,-566.19 394.33,-568.16 397.83,-574.22"/>
</g>
<!-- Node103 -->
<g id="node38" class="node">
<title>Node103</title>
<g id="a_node38"><a xlink:href="$classJoyAxis.html#afddf7399e2086fda738fe588f5e7d7cd" xlink:title=" ">
<polygon fill="white" stroke="black" points="377.5,-1051 377.5,-1070 472.5,-1070 472.5,-1051 377.5,-1051"/>
<text text-anchor="middle" x="425" y="-1058" font-family="Helvetica,sans-Serif" font-size="10.00">JoyAxis::getIndex</text>
</a>
</g>
</g>
<!-- Node102&#45;&gt;Node103 -->
<g id="edge43" class="edge">
<title>Node102&#45;&gt;Node103</title>
<path fill="none" stroke="midnightblue" d="M244.75,-925.18C258.18,-949 296.31,-1010.76 346,-1041.5 352.58,-1045.57 359.98,-1048.77 367.53,-1051.29"/>
<polygon fill="midnightblue" stroke="midnightblue" points="366.55,-1054.65 377.13,-1054.12 368.53,-1047.93 366.55,-1054.65"/>
</g>
<!-- Node104 -->
<g id="node39" class="node">
<title>Node104</title>
<g id="a_node39"><a xlink:href="$classJoyAxis.html#a12c4147c5f4a320aee710f8753263aa6" xlink:title=" ">
<polygon fill="white" stroke="black" points="367.5,-1013 367.5,-1032 482.5,-1032 482.5,-1013 367.5,-1013"/>
<text text-anchor="middle" x="425" y="-1020" font-family="Helvetica,sans-Serif" font-size="10.00">JoyAxis::getParentSet</text>
</a>
</g>
</g>
<!-- Node102&#45;&gt;Node104 -->
<g id="edge45" class="edge">
<title>Node102&#45;&gt;Node104</title>
<path fill="none" stroke="midnightblue" d="M248.47,-925.22C265.64,-943.22 305.09,-981.82 346,-1002.5 351.57,-1005.31 357.56,-1007.75 363.67,-1009.87"/>
<polygon fill="midnightblue" stroke="midnightblue" points="362.72,-1013.24 373.31,-1012.92 364.84,-1006.56 362.72,-1013.24"/>
</g>
<!-- Node105 -->
<g id="node40" class="node">
<title>Node105</title>
<g id="a_node40"><a xlink:href="$classInputDevice.html#a2dca8e1dc3480828fde3b0fe2871fbc9" xlink:title=" ">
<polygon fill="white" stroke="red" points="356.5,-963.5 356.5,-993.5 493.5,-993.5 493.5,-963.5 356.5,-963.5"/>
<text text-anchor="start" x="364.5" y="-981.5" font-family="Helvetica,sans-Serif" font-size="10.00">InputDevice::hasCalibration</text>
<text text-anchor="middle" x="425" y="-970.5" font-family="Helvetica,sans-Serif" font-size="10.00">Throttle</text>
</a>
</g>
</g>
<!-- Node102&#45;&gt;Node105 -->
<g id="edge47" class="edge">
<title>Node102&#45;&gt;Node105</title>
<path fill="none" stroke="midnightblue" d="M265.68,-925.11C287.18,-932.94 318.48,-944.18 346,-953.5 352.52,-955.71 359.35,-957.97 366.16,-960.19"/>
<polygon fill="midnightblue" stroke="midnightblue" points="365.48,-963.65 376.07,-963.41 367.64,-956.99 365.48,-963.65"/>
</g>
<!-- Node107 -->
<g id="node41" class="node">
<title>Node107</title>
<g id="a_node41"><a xlink:href="$classJoyAxis.html#a084d8b9cc9e5142d58c24a14a86609bc" xlink:title=" ">
<polygon fill="white" stroke="black" points="358,-925 358,-944 492,-944 492,-925 358,-925"/>
<text text-anchor="middle" x="425" y="-932" font-family="Helvetica,sans-Serif" font-size="10.00">JoyAxis::setAxisCenterCal</text>
</a>
</g>
</g>
<!-- Node102&#45;&gt;Node107 -->
<g id="edge48" class="edge">
<title>Node102&#45;&gt;Node107</title>
<path fill="none" stroke="midnightblue" d="M310.04,-922.76C322.28,-924.02 335.06,-925.34 347.45,-926.62"/>
<polygon fill="midnightblue" stroke="midnightblue" points="347.44,-930.13 357.75,-927.68 348.16,-923.17 347.44,-930.13"/>
</g>
<!-- Node108 -->
<g id="node42" class="node">
<title>Node108</title>
<g id="a_node42"><a xlink:href="$classJoyAxis.html#aab753bd485ff29063c90d37bdbd79328" xlink:title=" ">
<polygon fill="white" stroke="black" points="362.5,-887 362.5,-906 487.5,-906 487.5,-887 362.5,-887"/>
<text text-anchor="middle" x="425" y="-894" font-family="Helvetica,sans-Serif" font-size="10.00">JoyAxis::setAxisMaxCal</text>
</a>
</g>
</g>
<!-- Node102&#45;&gt;Node108 -->
<g id="edge49" class="edge">
<title>Node102&#45;&gt;Node108</title>
<path fill="none" stroke="midnightblue" d="M310.04,-908.24C323.88,-906.81 338.4,-905.32 352.27,-903.89"/>
<polygon fill="midnightblue" stroke="midnightblue" points="352.65,-907.37 362.24,-902.86 351.93,-900.4 352.65,-907.37"/>
</g>
<!-- Node109 -->
<g id="node43" class="node">
<title>Node109</title>
<g id="a_node43"><a xlink:href="$classJoyAxis.html#a61fe6ae50c84ef21acffdfd6fa5072cf" xlink:title=" ">
<polygon fill="white" stroke="black" points="364.5,-849 364.5,-868 485.5,-868 485.5,-849 364.5,-849"/>
<text text-anchor="middle" x="425" y="-856" font-family="Helvetica,sans-Serif" font-size="10.00">JoyAxis::setAxisMinCal</text>
</a>
</g>
</g>
<!-- Node102&#45;&gt;Node109 -->
<g id="edge50" class="edge">
<title>Node102&#45;&gt;Node109</title>
<path fill="none" stroke="midnightblue" d="M264.22,-905.86C285.65,-897.69 317.6,-886 346,-877.5 354.16,-875.06 362.86,-872.7 371.39,-870.52"/>
<polygon fill="midnightblue" stroke="midnightblue" points="372.42,-873.87 381.28,-868.06 370.73,-867.08 372.42,-873.87"/>
</g>
<!-- Node110 -->
<g id="node44" class="node">
<title>Node110</title>
<g id="a_node44"><a xlink:href="$classInputDevice.html#adc85b0c774b371178623c1c84349ce24" xlink:title=" ">
<polygon fill="white" stroke="red" points="358,-799.5 358,-829.5 492,-829.5 492,-799.5 358,-799.5"/>
<text text-anchor="start" x="366" y="-817.5" font-family="Helvetica,sans-Serif" font-size="10.00">InputDevice::setCalibration</text>
<text text-anchor="middle" x="425" y="-806.5" font-family="Helvetica,sans-Serif" font-size="10.00">Status</text>
</a>
</g>
</g>
<!-- Node102&#45;&gt;Node110 -->
<g id="edge51" class="edge">
<title>Node102&#45;&gt;Node110</title>
<path fill="none" stroke="midnightblue" d="M250.56,-905.81C269.13,-889.98 308.24,-858.45 346,-839.5 350.49,-837.25 355.23,-835.14 360.06,-833.18"/>
<polygon fill="midnightblue" stroke="midnightblue" points="361.34,-836.44 369.43,-829.59 358.84,-829.9 361.34,-836.44"/>
</g>
<!-- Node102&#45;&gt;Node111 -->
<g id="edge52" class="edge">
<title>Node102&#45;&gt;Node111</title>
<path fill="none" stroke="midnightblue" d="M303.44,-925C305.8,-926.6 308.01,-928.43 310,-930.5 375.34,-998.44 282.8,-1069.57 346,-1139.5 373.39,-1169.8 626.99,-1212.45 755.74,-1232.4"/>
<polygon fill="midnightblue" stroke="midnightblue" points="755.5,-1235.9 765.92,-1233.97 756.57,-1228.98 755.5,-1235.9"/>
</g>
<!-- Node112 -->
<g id="node46" class="node">
<title>Node112</title>
<g id="a_node46"><a xlink:href="$classJoyAxis.html#a368b17910df9a49089bd6f46cab2ff1c" xlink:title=" ">
<polygon fill="white" stroke="black" points="367,-761 367,-780 483,-780 483,-761 367,-761"/>
<text text-anchor="middle" x="425" y="-768" font-family="Helvetica,sans-Serif" font-size="10.00">JoyAxis::setDeadZone</text>
</a>
</g>
</g>
<!-- Node102&#45;&gt;Node112 -->
<g id="edge55" class="edge">
<title>Node102&#45;&gt;Node112</title>
<path fill="none" stroke="midnightblue" d="M244.75,-905.82C258.18,-882 296.31,-820.24 346,-789.5 349.6,-787.27 353.44,-785.31 357.42,-783.57"/>
<polygon fill="midnightblue" stroke="midnightblue" points="358.83,-786.78 366.9,-779.92 356.31,-780.25 358.83,-786.78"/>
</g>
<!-- Node113 -->
<g id="node47" class="node">
<title>Node113</title>
<g id="a_node47"><a xlink:href="$classJoyAxis.html#ad57d8fa2942d408ed534a348962ae72c" xlink:title=" ">
<polygon fill="white" stroke="black" points="762.5,-1057 762.5,-1076 899.5,-1076 899.5,-1057 762.5,-1057"/>
<text text-anchor="middle" x="831" y="-1064" font-family="Helvetica,sans-Serif" font-size="10.00">JoyAxis::setMaxZoneValue</text>
</a>
</g>
</g>
<!-- Node102&#45;&gt;Node113 -->
<g id="edge56" class="edge">
<title>Node102&#45;&gt;Node113</title>
<path fill="none" stroke="midnightblue" d="M303.27,-925.17C305.68,-926.73 307.94,-928.49 310,-930.5 358.83,-978.01 292.47,-1037.36 346,-1079.5 409.55,-1129.53 651.06,-1096.99 767.07,-1077.76"/>
<polygon fill="midnightblue" stroke="midnightblue" points="767.93,-1081.16 777.22,-1076.05 766.78,-1074.26 767.93,-1081.16"/>
</g>
<!-- Node102&#45;&gt;Node114 -->
<g id="edge58" class="edge">
<title>Node102&#45;&gt;Node114</title>
<path fill="none" stroke="midnightblue" d="M244.92,-925C257.67,-947.67 290,-1006.95 310,-1059.5 331.18,-1115.13 304.47,-1145.86 346,-1188.5 350.91,-1193.55 356.86,-1197.54 363.26,-1200.69"/>
<polygon fill="midnightblue" stroke="midnightblue" points="362.3,-1204.09 372.88,-1204.75 365.02,-1197.64 362.3,-1204.09"/>
</g>
<!-- Node102&#45;&gt;Node116 -->
<g id="edge63" class="edge">
<title>Node102&#45;&gt;Node116</title>
<path fill="none" stroke="midnightblue" d="M240.68,-905.88C245.76,-868.82 269.05,-733.84 346,-663.5 347.71,-661.94 349.51,-660.48 351.39,-659.11"/>
<polygon fill="midnightblue" stroke="midnightblue" points="353.47,-661.94 360.08,-653.66 349.75,-656.01 353.47,-661.94"/>
</g>
<!-- Node111&#45;&gt;Node3 -->
<g id="edge53" class="edge">
<title>Node111&#45;&gt;Node3</title>
<path fill="none" stroke="midnightblue" d="M849.73,-1233.92C881.72,-1216.65 949.24,-1180.2 986.82,-1159.9"/>
<polygon fill="midnightblue" stroke="midnightblue" points="988.56,-1162.94 995.69,-1155.11 985.23,-1156.79 988.56,-1162.94"/>
</g>
<!-- Node111&#45;&gt;Node4 -->
<g id="edge54" class="edge">
<title>Node111&#45;&gt;Node4</title>
<path fill="none" stroke="midnightblue" d="M877.8,-1233.91C902.18,-1228.81 932.36,-1222.49 958.06,-1217.11"/>
<polygon fill="midnightblue" stroke="midnightblue" points="958.96,-1220.5 968.03,-1215.02 957.52,-1213.64 958.96,-1220.5"/>
</g>
<!-- Node113&#45;&gt;Node3 -->
<g id="edge57" class="edge">
<title>Node113&#45;&gt;Node3</title>
<path fill="none" stroke="midnightblue" d="M858.71,-1076.02C875.34,-1082.1 897.08,-1090.35 916,-1098.5 939.77,-1108.74 966.19,-1121.56 985.52,-1131.23"/>
<polygon fill="midnightblue" stroke="midnightblue" points="984.16,-1134.46 994.66,-1135.83 987.3,-1128.21 984.16,-1134.46"/>
</g>
<!-- Node115 -->
<g id="node49" class="node">
<title>Node115</title>
<g id="a_node49"><a xlink:href="$classJoyAxis.html#a211c80f9aa20fa22c8f91a5cdcb0831a" xlink:title=" ">
<polygon fill="white" stroke="black" points="569,-1165 569,-1184 681,-1184 681,-1165 569,-1165"/>
<text text-anchor="middle" x="625" y="-1172" font-family="Helvetica,sans-Serif" font-size="10.00">JoyAxis::adjustRange</text>
</a>
</g>
</g>
<!-- Node114&#45;&gt;Node115 -->
<g id="edge59" class="edge">
<title>Node114&#45;&gt;Node115</title>
<path fill="none" stroke="midnightblue" d="M475.71,-1202.96C502.54,-1197.81 535.86,-1191.42 564.11,-1185.99"/>
<polygon fill="midnightblue" stroke="midnightblue" points="565.11,-1189.37 574.27,-1184.04 563.79,-1182.49 565.11,-1189.37"/>
</g>
<!-- Node115&#45;&gt;Node2 -->
<g id="edge60" class="edge">
<title>Node115&#45;&gt;Node2</title>
<path fill="none" stroke="midnightblue" d="M664.37,-1164.91C691.25,-1158.19 727.95,-1149.01 759.97,-1141.01"/>
<polygon fill="midnightblue" stroke="midnightblue" points="760.89,-1144.38 769.74,-1138.56 759.19,-1137.59 760.89,-1144.38"/>
</g>
<!-- Node115&#45;&gt;Node3 -->
<g id="edge61" class="edge">
<title>Node115&#45;&gt;Node3</title>
<path fill="none" stroke="midnightblue" d="M681.11,-1170.38C749.46,-1165.26 866.15,-1156.53 941.51,-1150.89"/>
<polygon fill="midnightblue" stroke="midnightblue" points="942.15,-1154.35 951.86,-1150.11 941.63,-1147.37 942.15,-1154.35"/>
</g>
<!-- Node115&#45;&gt;Node4 -->
<g id="edge62" class="edge">
<title>Node115&#45;&gt;Node4</title>
<path fill="none" stroke="midnightblue" d="M681.11,-1178.91C750.06,-1184.42 868.2,-1193.88 943.48,-1199.9"/>
<polygon fill="midnightblue" stroke="midnightblue" points="943.56,-1203.42 953.81,-1200.72 944.12,-1196.44 943.56,-1203.42"/>
</g>
</g>
</svg>
