<?xml version="1.0" encoding="UTF-8" standalone="no"?>
<!DOCTYPE svg PUBLIC "-//W3C//DTD SVG 1.1//EN"
 "http://www.w3.org/Graphics/SVG/1.1/DTD/svg11.dtd">
<!-- Generated by graphviz version 2.43.0 (0)
 -->
<!-- Title: JoyButton::releaseEachSlot Pages: 1 -->
<!--zoomable 478 -->
<svg id="main" version="1.1" xmlns="http://www.w3.org/2000/svg" xmlns:xlink="http://www.w3.org/1999/xlink" xml:space="preserve" onload="init(evt)">
<style type="text/css"><![CDATA[
.edge:hover path { stroke: red; }
.edge:hover polygon { stroke: red; fill: red; }
]]></style>
<script type="text/javascript"><![CDATA[
var edges = document.getElementsByTagName('g');
if (edges && edges.length) {
  for (var i=0;i<edges.length;i++) {
    if (edges[i].id.substr(0,4)=='edge') {
      edges[i].setAttribute('class','edge');
    }
  }
}
]]></script>
        <defs>
                <circle id="rim" cx="0" cy="0" r="7"/>
                <circle id="rim2" cx="0" cy="0" r="3.5"/>
                <g id="zoomPlus">
                        <use xlink:href="#rim" fill="#404040">
                                <set attributeName="fill" to="#808080" begin="zoomplus.mouseover" end="zoomplus.mouseout"/>
                        </use>
                        <path d="M-4,0h8M0,-4v8" fill="none" stroke="white" stroke-width="1.5" pointer-events="none"/>
                </g>
                <g id="zoomMin">
                        <use xlink:href="#rim" fill="#404040">
                                <set attributeName="fill" to="#808080" begin="zoomminus.mouseover" end="zoomminus.mouseout"/>
                        </use>
                        <path d="M-4,0h8" fill="none" stroke="white" stroke-width="1.5" pointer-events="none"/>
                </g>
                <g id="dirArrow">
                        <path fill="none" stroke="white" stroke-width="1.5" d="M0,-3.0v7 M-2.5,-0.5L0,-3.0L2.5,-0.5"/>
                </g>
               <g id="resetDef">
                       <use xlink:href="#rim2" fill="#404040">
                               <set attributeName="fill" to="#808080" begin="reset.mouseover" end="reset.mouseout"/>
                       </use>
               </g>
        </defs>

<script type="text/javascript">
var viewWidth = 1029;
var viewHeight = 478;
var sectionId = 'dynsection-194';
</script>
<script xlink:href="svgpan.js"/>
<svg id="graph" class="graph">
<g id="viewport">
<title>JoyButton::releaseEachSlot</title>
<polygon fill="white" stroke="transparent" points="-4,4 -4,-473.5 1025,-473.5 1025,4 -4,4"/>
<!-- Node1 -->
<g id="node1" class="node">
<title>Node1</title>
<g id="a_node1"><a xlink:title=" ">
<polygon fill="#bfbfbf" stroke="black" points="0,-164.5 0,-183.5 138,-183.5 138,-164.5 0,-164.5"/>
<text text-anchor="middle" x="69" y="-171.5" font-family="Helvetica,sans-Serif" font-size="10.00">JoyButton::releaseEachSlot</text>
</a>
</g>
</g>
<!-- Node2 -->
<g id="node2" class="node">
<title>Node2</title>
<g id="a_node2"><a xlink:href="classJoyButton.html#a5871532865ec08e2f5141bb95feaa64e" target="_top" xlink:title=" ">
<polygon fill="white" stroke="black" points="187,-390 187,-420 331,-420 331,-390 187,-390"/>
<text text-anchor="start" x="195" y="-408" font-family="Helvetica,sans-Serif" font-size="10.00">JoyButton::checkSpringDead</text>
<text text-anchor="middle" x="259" y="-397" font-family="Helvetica,sans-Serif" font-size="10.00">Circle</text>
</a>
</g>
</g>
<!-- Node1&#45;&gt;Node2 -->
<g id="edge1" class="edge">
<title>Node1&#45;&gt;Node2</title>
<path fill="none" stroke="midnightblue" d="M77.42,-183.8C94.27,-205.98 136.86,-261.64 174,-307 195.46,-333.21 220.87,-362.64 238.08,-382.34"/>
<polygon fill="midnightblue" stroke="midnightblue" points="235.47,-384.68 244.69,-389.9 240.74,-380.07 235.47,-384.68"/>
</g>
<!-- Node7 -->
<g id="node7" class="node">
<title>Node7</title>
<g id="a_node7"><a xlink:href="classJoyButton.html#a4b16b04fea6fdb16408011661cf774d0" target="_top" xlink:title=" ">
<polygon fill="white" stroke="black" points="189,-278.5 189,-297.5 329,-297.5 329,-278.5 189,-278.5"/>
<text text-anchor="middle" x="259" y="-285.5" font-family="Helvetica,sans-Serif" font-size="10.00">JoyButton::countActiveSlots</text>
</a>
</g>
</g>
<!-- Node1&#45;&gt;Node7 -->
<g id="edge6" class="edge">
<title>Node1&#45;&gt;Node7</title>
<path fill="none" stroke="midnightblue" d="M77.46,-183.55C93.12,-202.91 131.51,-246.81 174,-269 178.52,-271.36 183.33,-273.43 188.27,-275.25"/>
<polygon fill="midnightblue" stroke="midnightblue" points="187.3,-278.61 197.89,-278.43 189.49,-271.96 187.3,-278.61"/>
</g>
<!-- Node21 -->
<g id="node21" class="node">
<title>Node21</title>
<g id="a_node21"><a xlink:href="classJoyButtonSlot.html#a5a832589b803608127a43ae8f46fcba3" target="_top" xlink:title=" ">
<polygon fill="white" stroke="black" points="184.5,-240.5 184.5,-259.5 333.5,-259.5 333.5,-240.5 184.5,-240.5"/>
<text text-anchor="middle" x="259" y="-247.5" font-family="Helvetica,sans-Serif" font-size="10.00">JoyButtonSlot::getEasingTime</text>
</a>
</g>
</g>
<!-- Node1&#45;&gt;Node21 -->
<g id="edge22" class="edge">
<title>Node1&#45;&gt;Node21</title>
<path fill="none" stroke="midnightblue" d="M84.53,-183.68C104.08,-196.29 140.3,-218.24 174,-231 180.83,-233.58 188.1,-235.87 195.41,-237.89"/>
<polygon fill="midnightblue" stroke="midnightblue" points="194.8,-241.34 205.35,-240.46 196.55,-234.57 194.8,-241.34"/>
</g>
<!-- Node22 -->
<g id="node22" class="node">
<title>Node22</title>
<g id="a_node22"><a xlink:href="classJoyButtonSlot.html#ab0658ac4e6648852de5f9b622e4c2d25" target="_top" xlink:title=" ">
<polygon fill="white" stroke="black" points="179.5,-202.5 179.5,-221.5 338.5,-221.5 338.5,-202.5 179.5,-202.5"/>
<text text-anchor="middle" x="259" y="-209.5" font-family="Helvetica,sans-Serif" font-size="10.00">JoyButtonSlot::getMouseInterval</text>
</a>
</g>
</g>
<!-- Node1&#45;&gt;Node22 -->
<g id="edge23" class="edge">
<title>Node1&#45;&gt;Node22</title>
<path fill="none" stroke="midnightblue" d="M117.44,-183.59C142.81,-188.72 174.23,-195.07 200.92,-200.46"/>
<polygon fill="midnightblue" stroke="midnightblue" points="200.41,-203.93 210.9,-202.48 201.79,-197.07 200.41,-203.93"/>
</g>
<!-- Node23 -->
<g id="node23" class="node">
<title>Node23</title>
<g id="a_node23"><a xlink:href="classJoyButton.html#a581ec2c6d19bb51b2dd5bbe0f4da50fb" target="_top" xlink:title=" ">
<polygon fill="white" stroke="black" points="192,-164.5 192,-183.5 326,-183.5 326,-164.5 192,-164.5"/>
<text text-anchor="middle" x="259" y="-171.5" font-family="Helvetica,sans-Serif" font-size="10.00">JoyButton::getMouseMode</text>
</a>
</g>
</g>
<!-- Node1&#45;&gt;Node23 -->
<g id="edge24" class="edge">
<title>Node1&#45;&gt;Node23</title>
<path fill="none" stroke="midnightblue" d="M138.14,-174C152.26,-174 167.23,-174 181.62,-174"/>
<polygon fill="midnightblue" stroke="midnightblue" points="181.98,-177.5 191.98,-174 181.98,-170.5 181.98,-177.5"/>
</g>
<!-- Node24 -->
<g id="node24" class="node">
<title>Node24</title>
<g id="a_node24"><a xlink:href="classJoyButton.html#a40347dcd1d4e6c5165d8967293ccd6a5" target="_top" xlink:title=" ">
<polygon fill="white" stroke="black" points="187,-126.5 187,-145.5 331,-145.5 331,-126.5 187,-126.5"/>
<text text-anchor="middle" x="259" y="-133.5" font-family="Helvetica,sans-Serif" font-size="10.00">JoyButton::releaseMoveSlots</text>
</a>
</g>
</g>
<!-- Node1&#45;&gt;Node24 -->
<g id="edge25" class="edge">
<title>Node1&#45;&gt;Node24</title>
<path fill="none" stroke="midnightblue" d="M117.44,-164.41C142.81,-159.28 174.23,-152.93 200.92,-147.54"/>
<polygon fill="midnightblue" stroke="midnightblue" points="201.79,-150.93 210.9,-145.52 200.41,-144.07 201.79,-150.93"/>
</g>
<!-- Node25 -->
<g id="node25" class="node">
<title>Node25</title>
<g id="a_node25"><a xlink:href="classJoyButtonSlot.html#a62b0c4b9a9c5e72ab31d2ce9b7a776fb" target="_top" xlink:title=" ">
<polygon fill="white" stroke="black" points="190.5,-88.5 190.5,-107.5 327.5,-107.5 327.5,-88.5 190.5,-88.5"/>
<text text-anchor="middle" x="259" y="-95.5" font-family="Helvetica,sans-Serif" font-size="10.00">JoyButtonSlot::setDistance</text>
</a>
</g>
</g>
<!-- Node1&#45;&gt;Node25 -->
<g id="edge26" class="edge">
<title>Node1&#45;&gt;Node25</title>
<path fill="none" stroke="midnightblue" d="M84.53,-164.32C104.08,-151.71 140.3,-129.76 174,-117 180.83,-114.42 188.1,-112.13 195.41,-110.11"/>
<polygon fill="midnightblue" stroke="midnightblue" points="196.55,-113.43 205.35,-107.54 194.8,-106.66 196.55,-113.43"/>
</g>
<!-- Node26 -->
<g id="node26" class="node">
<title>Node26</title>
<g id="a_node26"><a xlink:href="classJoyButtonSlot.html#afeedd345cee7fc0f154dcc1cd3db480b" target="_top" xlink:title=" ">
<polygon fill="white" stroke="black" points="195,-39 195,-69 323,-69 323,-39 195,-39"/>
<text text-anchor="start" x="203" y="-57" font-family="Helvetica,sans-Serif" font-size="10.00">JoyButtonSlot::setEasing</text>
<text text-anchor="middle" x="259" y="-46" font-family="Helvetica,sans-Serif" font-size="10.00">Status</text>
</a>
</g>
</g>
<!-- Node1&#45;&gt;Node26 -->
<g id="edge27" class="edge">
<title>Node1&#45;&gt;Node26</title>
<path fill="none" stroke="midnightblue" d="M77.83,-164.39C93.88,-145.31 132.49,-102.48 174,-79 177.9,-76.79 182.02,-74.76 186.26,-72.89"/>
<polygon fill="midnightblue" stroke="midnightblue" points="187.72,-76.08 195.67,-69.07 185.08,-69.59 187.72,-76.08"/>
</g>
<!-- Node27 -->
<g id="node27" class="node">
<title>Node27</title>
<g id="a_node27"><a xlink:href="classJoyButton.html#a258948e91868a4d7c7e256d4959645f7" target="_top" xlink:title=" ">
<polygon fill="white" stroke="black" points="174,-0.5 174,-19.5 344,-19.5 344,-0.5 174,-0.5"/>
<text text-anchor="middle" x="259" y="-7.5" font-family="Helvetica,sans-Serif" font-size="10.00">JoyButton::updateMouseProperties</text>
</a>
</g>
</g>
<!-- Node1&#45;&gt;Node27 -->
<g id="edge28" class="edge">
<title>Node1&#45;&gt;Node27</title>
<path fill="none" stroke="midnightblue" d="M73.93,-164.37C85.21,-138.08 120.3,-64.61 174,-29 177.11,-26.94 180.41,-25.1 183.84,-23.45"/>
<polygon fill="midnightblue" stroke="midnightblue" points="185.29,-26.64 193.17,-19.55 182.59,-20.18 185.29,-26.64"/>
</g>
<!-- Node3 -->
<g id="node3" class="node">
<title>Node3</title>
<g id="a_node3"><a xlink:href="classJoyButton.html#a60ecfef194078a1d77b4bf7a5e187cbf" target="_top" xlink:title=" ">
<polygon fill="white" stroke="black" points="380,-439 380,-469 511,-469 511,-439 380,-439"/>
<text text-anchor="start" x="388" y="-457" font-family="Helvetica,sans-Serif" font-size="10.00">JoyButton::getSpringDead</text>
<text text-anchor="middle" x="445.5" y="-446" font-family="Helvetica,sans-Serif" font-size="10.00">CircleMultiplier</text>
</a>
</g>
</g>
<!-- Node2&#45;&gt;Node3 -->
<g id="edge2" class="edge">
<title>Node2&#45;&gt;Node3</title>
<path fill="none" stroke="midnightblue" d="M316.61,-420.03C336.09,-425.21 358.08,-431.05 378.26,-436.41"/>
<polygon fill="midnightblue" stroke="midnightblue" points="377.43,-439.81 388,-438.99 379.23,-433.04 377.43,-439.81"/>
</g>
<!-- Node4 -->
<g id="node4" class="node">
<title>Node4</title>
<g id="a_node4"><a xlink:href="classJoyButton.html#a3aade33277da726eb99567f30efa0f00" target="_top" xlink:title=" ">
<polygon fill="white" stroke="black" points="380,-390 380,-420 511,-420 511,-390 380,-390"/>
<text text-anchor="start" x="388" y="-408" font-family="Helvetica,sans-Serif" font-size="10.00">JoyButton::setSpringDead</text>
<text text-anchor="middle" x="445.5" y="-397" font-family="Helvetica,sans-Serif" font-size="10.00">Circle</text>
</a>
</g>
</g>
<!-- Node2&#45;&gt;Node4 -->
<g id="edge3" class="edge">
<title>Node2&#45;&gt;Node4</title>
<path fill="none" stroke="midnightblue" d="M331.07,-405C343.72,-405 356.94,-405 369.7,-405"/>
<polygon fill="midnightblue" stroke="midnightblue" points="369.81,-408.5 379.81,-405 369.81,-401.5 369.81,-408.5"/>
</g>
<!-- Node5 -->
<g id="node5" class="node">
<title>Node5</title>
<g id="a_node5"><a xlink:href="classJoyButton.html#a38f4e806f3c8320d744dd45c329ec0b4" target="_top" xlink:title=" ">
<polygon fill="white" stroke="black" points="560.5,-439 560.5,-469 700.5,-469 700.5,-439 560.5,-439"/>
<text text-anchor="start" x="568.5" y="-457" font-family="Helvetica,sans-Serif" font-size="10.00">JoyButton::getCurrentSpring</text>
<text text-anchor="middle" x="630.5" y="-446" font-family="Helvetica,sans-Serif" font-size="10.00">DeadCircle</text>
</a>
</g>
</g>
<!-- Node4&#45;&gt;Node5 -->
<g id="edge4" class="edge">
<title>Node4&#45;&gt;Node5</title>
<path fill="none" stroke="midnightblue" d="M502.9,-420.1C522.04,-425.23 543.59,-431 563.41,-436.3"/>
<polygon fill="midnightblue" stroke="midnightblue" points="562.72,-439.74 573.29,-438.95 564.53,-432.98 562.72,-439.74"/>
</g>
<!-- Node6 -->
<g id="node6" class="node">
<title>Node6</title>
<g id="a_node6"><a xlink:href="classJoyButton.html#a17e7d44ff2d956493113d7312ab406dc" target="_top" xlink:title=" ">
<polygon fill="white" stroke="black" points="547,-390 547,-420 714,-420 714,-390 547,-390"/>
<text text-anchor="start" x="555" y="-408" font-family="Helvetica,sans-Serif" font-size="10.00">JoyButton::getLastMouseDistance</text>
<text text-anchor="middle" x="630.5" y="-397" font-family="Helvetica,sans-Serif" font-size="10.00">FromDeadZone</text>
</a>
</g>
</g>
<!-- Node4&#45;&gt;Node6 -->
<g id="edge5" class="edge">
<title>Node4&#45;&gt;Node6</title>
<path fill="none" stroke="midnightblue" d="M511.02,-405C519.38,-405 528.06,-405 536.77,-405"/>
<polygon fill="midnightblue" stroke="midnightblue" points="536.97,-408.5 546.97,-405 536.97,-401.5 536.97,-408.5"/>
</g>
<!-- Node8 -->
<g id="node8" class="node">
<title>Node8</title>
<g id="a_node8"><a xlink:href="event_8cpp.html#a42a7842a656f2dfc8b8545391502de03" target="_top" xlink:title=" ">
<polygon fill="white" stroke="black" points="415,-206.5 415,-225.5 476,-225.5 476,-206.5 415,-206.5"/>
<text text-anchor="middle" x="445.5" y="-213.5" font-family="Helvetica,sans-Serif" font-size="10.00">sendevent</text>
</a>
</g>
</g>
<!-- Node7&#45;&gt;Node8 -->
<g id="edge7" class="edge">
<title>Node7&#45;&gt;Node8</title>
<path fill="none" stroke="midnightblue" d="M312.15,-278.44C322.84,-275.87 333.9,-272.73 344,-269 371.47,-258.85 400.89,-242.64 420.75,-230.82"/>
<polygon fill="midnightblue" stroke="midnightblue" points="422.67,-233.75 429.42,-225.58 419.05,-227.76 422.67,-233.75"/>
</g>
<!-- Node9 -->
<g id="node9" class="node">
<title>Node9</title>
<g id="a_node9"><a xlink:href="event_8cpp.html#a5d4afd531123bc0d5093ae323f20519f" target="_top" xlink:title=" ">
<polygon fill="white" stroke="black" points="583,-351.5 583,-370.5 678,-370.5 678,-351.5 583,-351.5"/>
<text text-anchor="middle" x="630.5" y="-358.5" font-family="Helvetica,sans-Serif" font-size="10.00">detectedScriptExt</text>
</a>
</g>
</g>
<!-- Node8&#45;&gt;Node9 -->
<g id="edge8" class="edge">
<title>Node8&#45;&gt;Node9</title>
<path fill="none" stroke="midnightblue" d="M451.28,-225.72C463.56,-249.63 498.7,-311.59 547,-342 554.86,-346.95 563.86,-350.61 572.96,-353.32"/>
<polygon fill="midnightblue" stroke="midnightblue" points="572.27,-356.76 582.83,-355.9 574.04,-349.98 572.27,-356.76"/>
</g>
<!-- Node10 -->
<g id="node10" class="node">
<title>Node10</title>
<g id="a_node10"><a xlink:href="classJoyButtonSlot.html#a9f38f6c91eeb67ec4b9ad46a535ceeef" target="_top" xlink:title=" ">
<polygon fill="white" stroke="black" points="560,-313.5 560,-332.5 701,-332.5 701,-313.5 560,-313.5"/>
<text text-anchor="middle" x="630.5" y="-320.5" font-family="Helvetica,sans-Serif" font-size="10.00">JoyButtonSlot::getExtraData</text>
</a>
</g>
</g>
<!-- Node8&#45;&gt;Node10 -->
<g id="edge9" class="edge">
<title>Node8&#45;&gt;Node10</title>
<path fill="none" stroke="midnightblue" d="M454.57,-225.51C470.39,-243.51 507.41,-282.6 547,-303 552.5,-305.83 558.42,-308.28 564.47,-310.38"/>
<polygon fill="midnightblue" stroke="midnightblue" points="563.45,-313.73 574.04,-313.41 565.56,-307.06 563.45,-313.73"/>
</g>
<!-- Node11 -->
<g id="node11" class="node">
<title>Node11</title>
<g id="a_node11"><a xlink:href="classEventHandlerFactory.html#a90ce153a19fbb91128bd52eb083ce271" target="_top" xlink:title=" ">
<polygon fill="white" stroke="black" points="576,-264 576,-294 685,-294 685,-264 576,-264"/>
<text text-anchor="start" x="584" y="-282" font-family="Helvetica,sans-Serif" font-size="10.00">EventHandlerFactory</text>
<text text-anchor="middle" x="630.5" y="-271" font-family="Helvetica,sans-Serif" font-size="10.00">::getInstance</text>
</a>
</g>
</g>
<!-- Node8&#45;&gt;Node11 -->
<g id="edge10" class="edge">
<title>Node8&#45;&gt;Node11</title>
<path fill="none" stroke="midnightblue" d="M474.29,-225.57C501.23,-234.84 542.79,-249.15 576.13,-260.63"/>
<polygon fill="midnightblue" stroke="midnightblue" points="575.14,-263.99 585.74,-263.93 577.42,-257.37 575.14,-263.99"/>
</g>
<!-- Node14 -->
<g id="node14" class="node">
<title>Node14</title>
<g id="a_node14"><a xlink:href="classEventHandlerFactory.html#a4c13007f0ece5bf881080c9c04f1f20d" target="_top" xlink:title=" ">
<polygon fill="white" stroke="black" points="912,-308 912,-338 1021,-338 1021,-308 912,-308"/>
<text text-anchor="start" x="920" y="-326" font-family="Helvetica,sans-Serif" font-size="10.00">EventHandlerFactory</text>
<text text-anchor="middle" x="966.5" y="-315" font-family="Helvetica,sans-Serif" font-size="10.00">::handler</text>
</a>
</g>
</g>
<!-- Node8&#45;&gt;Node14 -->
<g id="edge18" class="edge">
<title>Node8&#45;&gt;Node14</title>
<path fill="none" stroke="midnightblue" d="M476.03,-216.47C560.67,-218.15 802.79,-225.39 876,-254 902.07,-264.19 926.88,-284.45 943.73,-300.39"/>
<polygon fill="midnightblue" stroke="midnightblue" points="941.74,-303.33 951.34,-307.81 946.62,-298.32 941.74,-303.33"/>
</g>
<!-- Node16 -->
<g id="node16" class="node">
<title>Node16</title>
<g id="a_node16"><a xlink:href="classJoyButtonSlot.html#abed7fe134c404b403ea79c0753f6eaaf" target="_top" xlink:title=" ">
<polygon fill="white" stroke="black" points="561,-187.5 561,-206.5 700,-206.5 700,-187.5 561,-187.5"/>
<text text-anchor="middle" x="630.5" y="-194.5" font-family="Helvetica,sans-Serif" font-size="10.00">JoyButtonSlot::getSlotMode</text>
</a>
</g>
</g>
<!-- Node8&#45;&gt;Node16 -->
<g id="edge16" class="edge">
<title>Node8&#45;&gt;Node16</title>
<path fill="none" stroke="midnightblue" d="M476.31,-212.91C496.61,-210.8 524.48,-207.9 550.9,-205.16"/>
<polygon fill="midnightblue" stroke="midnightblue" points="551.34,-208.63 560.93,-204.12 550.62,-201.67 551.34,-208.63"/>
</g>
<!-- Node17 -->
<g id="node17" class="node">
<title>Node17</title>
<g id="a_node17"><a xlink:href="classJoyButtonSlot.html#a1e38b923aa69abbcfb9abb008e692444" target="_top" xlink:title=" ">
<polygon fill="white" stroke="black" points="562,-149.5 562,-168.5 699,-168.5 699,-149.5 562,-149.5"/>
<text text-anchor="middle" x="630.5" y="-156.5" font-family="Helvetica,sans-Serif" font-size="10.00">JoyButtonSlot::getTextData</text>
</a>
</g>
</g>
<!-- Node8&#45;&gt;Node17 -->
<g id="edge17" class="edge">
<title>Node8&#45;&gt;Node17</title>
<path fill="none" stroke="midnightblue" d="M469.35,-206.35C489.52,-198.07 519.86,-186.21 547,-178 555.38,-175.46 564.33,-173.08 573.13,-170.91"/>
<polygon fill="midnightblue" stroke="midnightblue" points="574.05,-174.29 582.96,-168.56 572.42,-167.48 574.05,-174.29"/>
</g>
<!-- Node18 -->
<g id="node18" class="node">
<title>Node18</title>
<g id="a_node18"><a xlink:href="classBaseEventHandler.html#afd723bd1451d78a34976642783026c40" target="_top" xlink:title=" ">
<polygon fill="white" stroke="black" points="548,-100 548,-130 713,-130 713,-100 548,-100"/>
<text text-anchor="start" x="556" y="-118" font-family="Helvetica,sans-Serif" font-size="10.00">BaseEventHandler::sendKeyboard</text>
<text text-anchor="middle" x="630.5" y="-107" font-family="Helvetica,sans-Serif" font-size="10.00">Event</text>
</a>
</g>
</g>
<!-- Node8&#45;&gt;Node18 -->
<g id="edge19" class="edge">
<title>Node8&#45;&gt;Node18</title>
<path fill="none" stroke="midnightblue" d="M456.52,-206.46C473.72,-190.56 510.54,-158.56 547,-140 551.47,-137.72 556.18,-135.62 561,-133.67"/>
<polygon fill="midnightblue" stroke="midnightblue" points="562.24,-136.94 570.35,-130.13 559.76,-130.4 562.24,-136.94"/>
</g>
<!-- Node19 -->
<g id="node19" class="node">
<title>Node19</title>
<g id="a_node19"><a xlink:href="classBaseEventHandler.html#a068ae99c4210979beb9e397960f33641" target="_top" xlink:title=" ">
<polygon fill="white" stroke="black" points="553.5,-51 553.5,-81 707.5,-81 707.5,-51 553.5,-51"/>
<text text-anchor="start" x="561.5" y="-69" font-family="Helvetica,sans-Serif" font-size="10.00">BaseEventHandler::sendMouse</text>
<text text-anchor="middle" x="630.5" y="-58" font-family="Helvetica,sans-Serif" font-size="10.00">ButtonEvent</text>
</a>
</g>
</g>
<!-- Node8&#45;&gt;Node19 -->
<g id="edge20" class="edge">
<title>Node8&#45;&gt;Node19</title>
<path fill="none" stroke="midnightblue" d="M451.39,-206.45C463.92,-182.92 499.58,-121.77 547,-90 549.3,-88.46 551.7,-87.01 554.18,-85.66"/>
<polygon fill="midnightblue" stroke="midnightblue" points="555.97,-88.68 563.42,-81.15 552.9,-82.39 555.97,-88.68"/>
</g>
<!-- Node20 -->
<g id="node20" class="node">
<title>Node20</title>
<g id="a_node20"><a xlink:href="classBaseEventHandler.html#a9474d07cb2e38dca07ffac6f08a161ed" target="_top" xlink:title=" ">
<polygon fill="white" stroke="black" points="559,-2 559,-32 702,-32 702,-2 559,-2"/>
<text text-anchor="start" x="567" y="-20" font-family="Helvetica,sans-Serif" font-size="10.00">BaseEventHandler::sendText</text>
<text text-anchor="middle" x="630.5" y="-9" font-family="Helvetica,sans-Serif" font-size="10.00">EntryEvent</text>
</a>
</g>
</g>
<!-- Node8&#45;&gt;Node20 -->
<g id="edge21" class="edge">
<title>Node8&#45;&gt;Node20</title>
<path fill="none" stroke="midnightblue" d="M449.21,-206.34C458.01,-176.79 488.61,-86.91 547,-41 548.63,-39.72 550.32,-38.51 552.07,-37.36"/>
<polygon fill="midnightblue" stroke="midnightblue" points="554.25,-40.15 561.2,-32.15 550.78,-34.07 554.25,-40.15"/>
</g>
<!-- Node12 -->
<g id="node12" class="node">
<title>Node12</title>
<g id="a_node12"><a xlink:href="classEventHandlerFactory.html#ade5162034acc0f8683725fdb124bece0" target="_top" xlink:title=" ">
<polygon fill="white" stroke="black" points="750,-401 750,-431 876,-431 876,-401 750,-401"/>
<text text-anchor="start" x="758" y="-419" font-family="Helvetica,sans-Serif" font-size="10.00">EventHandlerFactory</text>
<text text-anchor="middle" x="813" y="-408" font-family="Helvetica,sans-Serif" font-size="10.00">::buildEventGeneratorList</text>
</a>
</g>
</g>
<!-- Node11&#45;&gt;Node12 -->
<g id="edge11" class="edge">
<title>Node11&#45;&gt;Node12</title>
<path fill="none" stroke="midnightblue" d="M685.31,-287.79C695.74,-291.45 705.92,-296.65 714,-304 745.25,-332.44 719.84,-362.4 750,-392 751.08,-393.06 752.21,-394.08 753.39,-395.05"/>
<polygon fill="midnightblue" stroke="midnightblue" points="751.51,-398 761.71,-400.84 755.51,-392.26 751.51,-398"/>
</g>
<!-- Node13 -->
<g id="node13" class="node">
<title>Node13</title>
<g id="a_node13"><a xlink:href="classEventHandlerFactory.html#a2f843293b2ea47271fc7bd99bd871fa6" target="_top" xlink:title=" ">
<polygon fill="white" stroke="black" points="755.5,-352 755.5,-382 870.5,-382 870.5,-352 755.5,-352"/>
<text text-anchor="start" x="763.5" y="-370" font-family="Helvetica,sans-Serif" font-size="10.00">EventHandlerFactory</text>
<text text-anchor="middle" x="813" y="-359" font-family="Helvetica,sans-Serif" font-size="10.00">::EventHandlerFactory</text>
</a>
</g>
</g>
<!-- Node11&#45;&gt;Node13 -->
<g id="edge12" class="edge">
<title>Node11&#45;&gt;Node13</title>
<path fill="none" stroke="midnightblue" d="M685.32,-291.49C695.19,-294.83 705.16,-298.96 714,-304 732.86,-314.75 732.04,-324.81 750,-337 755.32,-340.61 761.15,-344.03 767.03,-347.18"/>
<polygon fill="midnightblue" stroke="midnightblue" points="765.76,-350.46 776.25,-351.89 768.94,-344.23 765.76,-350.46"/>
</g>
<!-- Node11&#45;&gt;Node14 -->
<g id="edge15" class="edge">
<title>Node11&#45;&gt;Node14</title>
<path fill="none" stroke="midnightblue" d="M685.26,-291.16C705.48,-295.39 728.71,-299.87 750,-303 800.76,-310.47 858.68,-315.66 901.69,-318.88"/>
<polygon fill="midnightblue" stroke="midnightblue" points="901.5,-322.38 911.73,-319.62 902.01,-315.4 901.5,-322.38"/>
</g>
<!-- Node15 -->
<g id="node15" class="node">
<title>Node15</title>
<g id="a_node15"><a xlink:href="classEventHandlerFactory.html#afa5ca0171c70b1a24f92b5c8dd00dc92" target="_top" xlink:title=" ">
<polygon fill="white" stroke="black" points="758.5,-264 758.5,-294 867.5,-294 867.5,-264 758.5,-264"/>
<text text-anchor="start" x="766.5" y="-282" font-family="Helvetica,sans-Serif" font-size="10.00">EventHandlerFactory</text>
<text text-anchor="middle" x="813" y="-271" font-family="Helvetica,sans-Serif" font-size="10.00">::fallBackIdentifier</text>
</a>
</g>
</g>
<!-- Node11&#45;&gt;Node15 -->
<g id="edge14" class="edge">
<title>Node11&#45;&gt;Node15</title>
<path fill="none" stroke="midnightblue" d="M685.17,-279C704.9,-279 727.45,-279 748,-279"/>
<polygon fill="midnightblue" stroke="midnightblue" points="748.23,-282.5 758.23,-279 748.23,-275.5 748.23,-282.5"/>
</g>
<!-- Node13&#45;&gt;Node14 -->
<g id="edge13" class="edge">
<title>Node13&#45;&gt;Node14</title>
<path fill="none" stroke="midnightblue" d="M865.71,-351.98C878.08,-348.39 891.39,-344.52 904.15,-340.82"/>
<polygon fill="midnightblue" stroke="midnightblue" points="905.14,-344.18 913.76,-338.03 903.18,-337.45 905.14,-344.18"/>
</g>
</g>
</svg>
        <g id="navigator" transform="translate(0 0)" fill="#404254">
                <rect fill="#f2f5e9" fill-opacity="0.5" stroke="#606060" stroke-width=".5" x="0" y="0" width="60" height="60"/>
                <use id="zoomplus" xlink:href="#zoomPlus" x="17" y="9" onmousedown="handleZoom(evt,'in')"/>
                <use id="zoomminus" xlink:href="#zoomMin" x="42" y="9" onmousedown="handleZoom(evt,'out')"/>
                <use id="reset" xlink:href="#resetDef" x="30" y="36" onmousedown="handleReset()"/>
                <g id="arrowUp" xlink:href="#dirArrow" transform="translate(30 24)" onmousedown="handlePan(0,-1)">
                  <use xlink:href="#rim" fill="#404040">
                        <set attributeName="fill" to="#808080" begin="arrowUp.mouseover" end="arrowUp.mouseout"/>
                  </use>
                  <path fill="none" stroke="white" stroke-width="1.5" d="M0,-3.0v7 M-2.5,-0.5L0,-3.0L2.5,-0.5"/>
                </g>
                <g id="arrowRight" xlink:href="#dirArrow" transform="rotate(90) translate(36 -43)" onmousedown="handlePan(1,0)">
                  <use xlink:href="#rim" fill="#404040">
                        <set attributeName="fill" to="#808080" begin="arrowRight.mouseover" end="arrowRight.mouseout"/>
                  </use>
                  <path fill="none" stroke="white" stroke-width="1.5" d="M0,-3.0v7 M-2.5,-0.5L0,-3.0L2.5,-0.5"/>
                </g>
                <g id="arrowDown" xlink:href="#dirArrow" transform="rotate(180) translate(-30 -48)" onmousedown="handlePan(0,1)">
                  <use xlink:href="#rim" fill="#404040">
                        <set attributeName="fill" to="#808080" begin="arrowDown.mouseover" end="arrowDown.mouseout"/>
                  </use>
                  <path fill="none" stroke="white" stroke-width="1.5" d="M0,-3.0v7 M-2.5,-0.5L0,-3.0L2.5,-0.5"/>
                </g>
                <g id="arrowLeft" xlink:href="#dirArrow" transform="rotate(270) translate(-36 17)" onmousedown="handlePan(-1,0)">
                  <use xlink:href="#rim" fill="#404040">
                        <set attributeName="fill" to="#808080" begin="arrowLeft.mouseover" end="arrowLeft.mouseout"/>
                  </use>
                  <path fill="none" stroke="white" stroke-width="1.5" d="M0,-3.0v7 M-2.5,-0.5L0,-3.0L2.5,-0.5"/>
                </g>
        </g>
        <svg viewBox="0 0 15 15" width="100%" height="30px" preserveAspectRatio="xMaxYMin meet">
         <g id="arrow_out" transform="scale(0.3 0.3)">
          <a xlink:href="classJoyButton_aba9c70c723490a10bfc6134a0f5882da_cgraph_org.svg" target="_base">
           <rect id="button" ry="5" rx="5" y="6" x="6" height="38" width="38"
                fill="#f2f5e9" fill-opacity="0.5" stroke="#606060" stroke-width="1.0"/>
           <path id="arrow"
             d="M 11.500037,31.436501 C 11.940474,20.09759 22.043105,11.32322 32.158766,21.979434 L 37.068811,17.246167 C 37.068811,17.246167 37.088388,32 37.088388,32 L 22.160133,31.978069 C 22.160133,31.978069 26.997745,27.140456 26.997745,27.140456 C 18.528582,18.264221 13.291696,25.230495 11.500037,31.436501 z"
             style="fill:#404040;"/>
          </a>
         </g>
        </svg>
</svg>
