<?xml version="1.0" encoding="UTF-8" standalone="no"?>
<!DOCTYPE svg PUBLIC "-//W3C//DTD SVG 1.1//EN"
 "http://www.w3.org/Graphics/SVG/1.1/DTD/svg11.dtd">
<!-- Generated by graphviz version 2.43.0 (0)
 -->
<!-- Title: JoyButton::mouseEvent Pages: 1 -->
<!--zoomable 645 -->
<svg id="main" version="1.1" xmlns="http://www.w3.org/2000/svg" xmlns:xlink="http://www.w3.org/1999/xlink" xml:space="preserve" onload="init(evt)">
<style type="text/css"><![CDATA[
.edge:hover path { stroke: red; }
.edge:hover polygon { stroke: red; fill: red; }
]]></style>
<script type="text/javascript"><![CDATA[
var edges = document.getElementsByTagName('g');
if (edges && edges.length) {
  for (var i=0;i<edges.length;i++) {
    if (edges[i].id.substr(0,4)=='edge') {
      edges[i].setAttribute('class','edge');
    }
  }
}
]]></script>
        <defs>
                <circle id="rim" cx="0" cy="0" r="7"/>
                <circle id="rim2" cx="0" cy="0" r="3.5"/>
                <g id="zoomPlus">
                        <use xlink:href="#rim" fill="#404040">
                                <set attributeName="fill" to="#808080" begin="zoomplus.mouseover" end="zoomplus.mouseout"/>
                        </use>
                        <path d="M-4,0h8M0,-4v8" fill="none" stroke="white" stroke-width="1.5" pointer-events="none"/>
                </g>
                <g id="zoomMin">
                        <use xlink:href="#rim" fill="#404040">
                                <set attributeName="fill" to="#808080" begin="zoomminus.mouseover" end="zoomminus.mouseout"/>
                        </use>
                        <path d="M-4,0h8" fill="none" stroke="white" stroke-width="1.5" pointer-events="none"/>
                </g>
                <g id="dirArrow">
                        <path fill="none" stroke="white" stroke-width="1.5" d="M0,-3.0v7 M-2.5,-0.5L0,-3.0L2.5,-0.5"/>
                </g>
               <g id="resetDef">
                       <use xlink:href="#rim2" fill="#404040">
                               <set attributeName="fill" to="#808080" begin="reset.mouseover" end="reset.mouseout"/>
                       </use>
               </g>
        </defs>

<script type="text/javascript">
var viewWidth = 513;
var viewHeight = 645;
var sectionId = 'dynsection-178';
</script>
<script xlink:href="svgpan.js"/>
<svg id="graph" class="graph">
<g id="viewport">
<title>JoyButton::mouseEvent</title>
<polygon fill="white" stroke="transparent" points="-4,4 -4,-640.5 509,-640.5 509,4 -4,4"/>
<!-- Node1 -->
<g id="node1" class="node">
<title>Node1</title>
<g id="a_node1"><a xlink:title="Calculate mouse movement coordinates for mouse movement slots currently active.">
<polygon fill="#bfbfbf" stroke="black" points="0,-308.5 0,-327.5 121,-327.5 121,-308.5 0,-308.5"/>
<text text-anchor="middle" x="60.5" y="-315.5" font-family="Helvetica,sans-Serif" font-size="10.00">JoyButton::mouseEvent</text>
</a>
</g>
</g>
<!-- Node2 -->
<g id="node2" class="node">
<title>Node2</title>
<g id="a_node2"><a xlink:href="classJoyButton.html#a48369975ea4bc0d16e284b02bf4b1246" target="_top" xlink:title=" ">
<polygon fill="white" stroke="black" points="175,-606 175,-636 309,-636 309,-606 175,-606"/>
<text text-anchor="start" x="183" y="-624" font-family="Helvetica,sans-Serif" font-size="10.00">JoyButton::getAcceleration</text>
<text text-anchor="middle" x="242" y="-613" font-family="Helvetica,sans-Serif" font-size="10.00">Distance</text>
</a>
</g>
</g>
<!-- Node1&#45;&gt;Node2 -->
<g id="edge1" class="edge">
<title>Node1&#45;&gt;Node2</title>
<path fill="none" stroke="midnightblue" d="M61.79,-327.52C63.52,-366.79 75.43,-517.75 157,-596 159.74,-598.63 162.75,-600.98 165.94,-603.09"/>
<polygon fill="midnightblue" stroke="midnightblue" points="164.35,-606.22 174.77,-608.12 167.81,-600.13 164.35,-606.22"/>
</g>
<!-- Node4 -->
<g id="node4" class="node">
<title>Node4</title>
<g id="a_node4"><a xlink:href="classJoyButton.html#a64f1660931aea2fa8df1bf5e313c05ba" target="_top" xlink:title=" ">
<polygon fill="white" stroke="black" points="177,-567.5 177,-586.5 307,-586.5 307,-567.5 177,-567.5"/>
<text text-anchor="middle" x="242" y="-574.5" font-family="Helvetica,sans-Serif" font-size="10.00">JoyButton::getActiveSlots</text>
</a>
</g>
</g>
<!-- Node1&#45;&gt;Node4 -->
<g id="edge3" class="edge">
<title>Node1&#45;&gt;Node4</title>
<path fill="none" stroke="midnightblue" d="M62.23,-327.59C65.53,-363.92 82.35,-494.19 157,-558 160.26,-560.79 163.85,-563.19 167.64,-565.25"/>
<polygon fill="midnightblue" stroke="midnightblue" points="166.28,-568.48 176.82,-569.49 169.21,-562.12 166.28,-568.48"/>
</g>
<!-- Node5 -->
<g id="node5" class="node">
<title>Node5</title>
<g id="a_node5"><a xlink:href="classJoyButtonSlot.html#a5a832589b803608127a43ae8f46fcba3" target="_top" xlink:title=" ">
<polygon fill="white" stroke="black" points="167.5,-529.5 167.5,-548.5 316.5,-548.5 316.5,-529.5 167.5,-529.5"/>
<text text-anchor="middle" x="242" y="-536.5" font-family="Helvetica,sans-Serif" font-size="10.00">JoyButtonSlot::getEasingTime</text>
</a>
</g>
</g>
<!-- Node1&#45;&gt;Node5 -->
<g id="edge4" class="edge">
<title>Node1&#45;&gt;Node5</title>
<path fill="none" stroke="midnightblue" d="M63.06,-327.87C68.8,-360.81 91.93,-467.83 157,-520 159.09,-521.68 161.3,-523.21 163.61,-524.62"/>
<polygon fill="midnightblue" stroke="midnightblue" points="162.4,-527.94 172.89,-529.42 165.62,-521.72 162.4,-527.94"/>
</g>
<!-- Node6 -->
<g id="node6" class="node">
<title>Node6</title>
<g id="a_node6"><a xlink:href="classJoyButton.html#ad107fc4d6e2725fd5b09a2412c18b1e3" target="_top" xlink:title=" ">
<polygon fill="white" stroke="black" points="174,-491.5 174,-510.5 310,-510.5 310,-491.5 174,-491.5"/>
<text text-anchor="middle" x="242" y="-498.5" font-family="Helvetica,sans-Serif" font-size="10.00">JoyButton::getMouseCurve</text>
</a>
</g>
</g>
<!-- Node1&#45;&gt;Node6 -->
<g id="edge5" class="edge">
<title>Node1&#45;&gt;Node6</title>
<path fill="none" stroke="midnightblue" d="M64.12,-327.61C72.42,-356.13 100.95,-440.88 157,-482 159.65,-483.95 162.47,-485.7 165.4,-487.27"/>
<polygon fill="midnightblue" stroke="midnightblue" points="163.96,-490.46 174.5,-491.5 166.91,-484.11 163.96,-490.46"/>
</g>
<!-- Node7 -->
<g id="node7" class="node">
<title>Node7</title>
<g id="a_node7"><a xlink:href="classJoyButtonSlot.html#a7bbef93617207feab540c1cbe51b9de1" target="_top" xlink:title=" ">
<polygon fill="white" stroke="black" points="159,-453.5 159,-472.5 325,-472.5 325,-453.5 159,-453.5"/>
<text text-anchor="middle" x="242" y="-460.5" font-family="Helvetica,sans-Serif" font-size="10.00">JoyButtonSlot::getMouseDistance</text>
</a>
</g>
</g>
<!-- Node1&#45;&gt;Node7 -->
<g id="edge6" class="edge">
<title>Node1&#45;&gt;Node7</title>
<path fill="none" stroke="midnightblue" d="M65.89,-327.73C77.23,-351.67 109.93,-413.67 157,-444 160.21,-446.06 163.61,-447.91 167.13,-449.55"/>
<polygon fill="midnightblue" stroke="midnightblue" points="166.12,-452.92 176.7,-453.45 168.76,-446.44 166.12,-452.92"/>
</g>
<!-- Node8 -->
<g id="node8" class="node">
<title>Node8</title>
<g id="a_node8"><a xlink:href="classJoyButton.html#a352acb56d462240c593e7b70bca74f55" target="_top" xlink:title="Get the distance factor that should be used for mouse movement.">
<polygon fill="white" stroke="black" points="167.5,-404 167.5,-434 316.5,-434 316.5,-404 167.5,-404"/>
<text text-anchor="start" x="175.5" y="-422" font-family="Helvetica,sans-Serif" font-size="10.00">JoyButton::getMouseDistance</text>
<text text-anchor="middle" x="242" y="-411" font-family="Helvetica,sans-Serif" font-size="10.00">FromDeadZone</text>
</a>
</g>
</g>
<!-- Node1&#45;&gt;Node8 -->
<g id="edge7" class="edge">
<title>Node1&#45;&gt;Node8</title>
<path fill="none" stroke="midnightblue" d="M70.92,-327.59C87.1,-343.57 121.87,-375.68 157,-394 161.33,-396.26 165.89,-398.34 170.55,-400.26"/>
<polygon fill="midnightblue" stroke="midnightblue" points="169.65,-403.66 180.24,-403.96 172.15,-397.12 169.65,-403.66"/>
</g>
<!-- Node9 -->
<g id="node9" class="node">
<title>Node9</title>
<g id="a_node9"><a xlink:href="classJoyButtonSlot.html#ab0658ac4e6648852de5f9b622e4c2d25" target="_top" xlink:title=" ">
<polygon fill="white" stroke="black" points="162.5,-365.5 162.5,-384.5 321.5,-384.5 321.5,-365.5 162.5,-365.5"/>
<text text-anchor="middle" x="242" y="-372.5" font-family="Helvetica,sans-Serif" font-size="10.00">JoyButtonSlot::getMouseInterval</text>
</a>
</g>
</g>
<!-- Node1&#45;&gt;Node9 -->
<g id="edge9" class="edge">
<title>Node1&#45;&gt;Node9</title>
<path fill="none" stroke="midnightblue" d="M82.77,-327.58C101.9,-335.92 130.92,-347.92 157,-356 165.3,-358.57 174.16,-360.96 182.9,-363.11"/>
<polygon fill="midnightblue" stroke="midnightblue" points="182.14,-366.52 192.68,-365.43 183.76,-359.71 182.14,-366.52"/>
</g>
<!-- Node10 -->
<g id="node10" class="node">
<title>Node10</title>
<g id="a_node10"><a xlink:href="classJoyButton.html#a581ec2c6d19bb51b2dd5bbe0f4da50fb" target="_top" xlink:title=" ">
<polygon fill="white" stroke="black" points="175,-327.5 175,-346.5 309,-346.5 309,-327.5 175,-327.5"/>
<text text-anchor="middle" x="242" y="-334.5" font-family="Helvetica,sans-Serif" font-size="10.00">JoyButton::getMouseMode</text>
</a>
</g>
</g>
<!-- Node1&#45;&gt;Node10 -->
<g id="edge10" class="edge">
<title>Node1&#45;&gt;Node10</title>
<path fill="none" stroke="midnightblue" d="M121.27,-324.33C135.27,-325.81 150.38,-327.41 164.99,-328.95"/>
<polygon fill="midnightblue" stroke="midnightblue" points="164.69,-332.44 175,-330.01 165.42,-325.48 164.69,-332.44"/>
</g>
<!-- Node11 -->
<g id="node11" class="node">
<title>Node11</title>
<g id="a_node11"><a xlink:href="classJoyButtonSlot.html#a7fa0bf6d891437a2392e47d32b746502" target="_top" xlink:title=" ">
<polygon fill="white" stroke="black" points="173,-289.5 173,-308.5 311,-308.5 311,-289.5 173,-289.5"/>
<text text-anchor="middle" x="242" y="-296.5" font-family="Helvetica,sans-Serif" font-size="10.00">JoyButtonSlot::getSlotCode</text>
</a>
</g>
</g>
<!-- Node1&#45;&gt;Node11 -->
<g id="edge11" class="edge">
<title>Node1&#45;&gt;Node11</title>
<path fill="none" stroke="midnightblue" d="M121.27,-311.67C134.57,-310.27 148.85,-308.75 162.76,-307.28"/>
<polygon fill="midnightblue" stroke="midnightblue" points="163.23,-310.75 172.81,-306.22 162.49,-303.79 163.23,-310.75"/>
</g>
<!-- Node12 -->
<g id="node12" class="node">
<title>Node12</title>
<g id="a_node12"><a xlink:href="classJoyButtonSlot.html#a1f7351201dc2bb94562ec98e3fbcf137" target="_top" xlink:title=" ">
<polygon fill="white" stroke="black" points="167.5,-251.5 167.5,-270.5 316.5,-270.5 316.5,-251.5 167.5,-251.5"/>
<text text-anchor="middle" x="242" y="-258.5" font-family="Helvetica,sans-Serif" font-size="10.00">JoyButtonSlot::isEasingActive</text>
</a>
</g>
</g>
<!-- Node1&#45;&gt;Node12 -->
<g id="edge12" class="edge">
<title>Node1&#45;&gt;Node12</title>
<path fill="none" stroke="midnightblue" d="M82.77,-308.42C101.9,-300.08 130.92,-288.08 157,-280 165.3,-277.43 174.16,-275.04 182.9,-272.89"/>
<polygon fill="midnightblue" stroke="midnightblue" points="183.76,-276.29 192.68,-270.57 182.14,-269.48 183.76,-276.29"/>
</g>
<!-- Node13 -->
<g id="node13" class="node">
<title>Node13</title>
<g id="a_node13"><a xlink:href="classJoyButton.html#a77afa6c5934d2665bad6d494b812f372" target="_top" xlink:title="Check if button should be considered a part of a real controller axis. Needed for some dialogs so the...">
<polygon fill="white" stroke="black" points="176,-213.5 176,-232.5 308,-232.5 308,-213.5 176,-213.5"/>
<text text-anchor="middle" x="242" y="-220.5" font-family="Helvetica,sans-Serif" font-size="10.00">JoyButton::isPartRealAxis</text>
</a>
</g>
</g>
<!-- Node1&#45;&gt;Node13 -->
<g id="edge13" class="edge">
<title>Node1&#45;&gt;Node13</title>
<path fill="none" stroke="midnightblue" d="M70.53,-308.41C86.42,-292.14 121.08,-259.23 157,-242 162.18,-239.51 167.7,-237.35 173.34,-235.46"/>
<polygon fill="midnightblue" stroke="midnightblue" points="174.36,-238.8 182.9,-232.53 172.32,-232.11 174.36,-238.8"/>
</g>
<!-- Node14 -->
<g id="node14" class="node">
<title>Node14</title>
<g id="a_node14"><a xlink:href="classJoyButtonSlot.html#a62b0c4b9a9c5e72ab31d2ce9b7a776fb" target="_top" xlink:title=" ">
<polygon fill="white" stroke="black" points="173.5,-175.5 173.5,-194.5 310.5,-194.5 310.5,-175.5 173.5,-175.5"/>
<text text-anchor="middle" x="242" y="-182.5" font-family="Helvetica,sans-Serif" font-size="10.00">JoyButtonSlot::setDistance</text>
</a>
</g>
</g>
<!-- Node1&#45;&gt;Node14 -->
<g id="edge14" class="edge">
<title>Node1&#45;&gt;Node14</title>
<path fill="none" stroke="midnightblue" d="M66.7,-308.22C79.09,-285.89 112.7,-231.03 157,-204 160.59,-201.81 164.4,-199.87 168.35,-198.16"/>
<polygon fill="midnightblue" stroke="midnightblue" points="169.68,-201.4 177.76,-194.54 167.17,-194.86 169.68,-201.4"/>
</g>
<!-- Node15 -->
<g id="node15" class="node">
<title>Node15</title>
<g id="a_node15"><a xlink:href="classJoyButton.html#ae5ca5356352f7bf2ade64fc42bc92a85" target="_top" xlink:title=" ">
<polygon fill="white" stroke="black" points="175,-126 175,-156 309,-156 309,-126 175,-126"/>
<text text-anchor="start" x="183" y="-144" font-family="Helvetica,sans-Serif" font-size="10.00">JoyButton::setDistanceFor</text>
<text text-anchor="middle" x="242" y="-133" font-family="Helvetica,sans-Serif" font-size="10.00">Spring</text>
</a>
</g>
</g>
<!-- Node1&#45;&gt;Node15 -->
<g id="edge15" class="edge">
<title>Node1&#45;&gt;Node15</title>
<path fill="none" stroke="midnightblue" d="M64.73,-308.49C74.3,-281.78 105.13,-205.4 157,-166 159.81,-163.86 162.8,-161.91 165.92,-160.12"/>
<polygon fill="midnightblue" stroke="midnightblue" points="167.66,-163.17 174.99,-155.51 164.49,-156.93 167.66,-163.17"/>
</g>
<!-- Node18 -->
<g id="node18" class="node">
<title>Node18</title>
<g id="a_node18"><a xlink:href="classJoyButtonSlot.html#afeedd345cee7fc0f154dcc1cd3db480b" target="_top" xlink:title=" ">
<polygon fill="white" stroke="black" points="178,-77 178,-107 306,-107 306,-77 178,-77"/>
<text text-anchor="start" x="186" y="-95" font-family="Helvetica,sans-Serif" font-size="10.00">JoyButtonSlot::setEasing</text>
<text text-anchor="middle" x="242" y="-84" font-family="Helvetica,sans-Serif" font-size="10.00">Status</text>
</a>
</g>
</g>
<!-- Node1&#45;&gt;Node18 -->
<g id="edge18" class="edge">
<title>Node1&#45;&gt;Node18</title>
<path fill="none" stroke="midnightblue" d="M63.17,-308.27C69.27,-275.76 93.41,-169.97 157,-116 160.54,-112.99 164.44,-110.36 168.56,-108.06"/>
<polygon fill="midnightblue" stroke="midnightblue" points="170.41,-111.05 177.87,-103.53 167.35,-104.76 170.41,-111.05"/>
</g>
<!-- Node19 -->
<g id="node19" class="node">
<title>Node19</title>
<g id="a_node19"><a xlink:href="classJoyButton.html#a056b480fe5132bb36d65d22de0fe9934" target="_top" xlink:title=" ">
<polygon fill="white" stroke="black" points="162.5,-38.5 162.5,-57.5 321.5,-57.5 321.5,-38.5 162.5,-38.5"/>
<text text-anchor="middle" x="242" y="-45.5" font-family="Helvetica,sans-Serif" font-size="10.00">JoyButton::updateMouseParams</text>
</a>
</g>
</g>
<!-- Node1&#45;&gt;Node19 -->
<g id="edge19" class="edge">
<title>Node1&#45;&gt;Node19</title>
<path fill="none" stroke="midnightblue" d="M62.04,-308.49C64.68,-271.28 79.54,-134.24 157,-67 158.79,-65.45 160.68,-64.01 162.65,-62.69"/>
<polygon fill="midnightblue" stroke="midnightblue" points="164.75,-65.53 171.75,-57.57 161.32,-59.43 164.75,-65.53"/>
</g>
<!-- Node20 -->
<g id="node20" class="node">
<title>Node20</title>
<g id="a_node20"><a xlink:href="classJoyButton.html#a258948e91868a4d7c7e256d4959645f7" target="_top" xlink:title=" ">
<polygon fill="white" stroke="black" points="157,-0.5 157,-19.5 327,-19.5 327,-0.5 157,-0.5"/>
<text text-anchor="middle" x="242" y="-7.5" font-family="Helvetica,sans-Serif" font-size="10.00">JoyButton::updateMouseProperties</text>
</a>
</g>
</g>
<!-- Node1&#45;&gt;Node20 -->
<g id="edge20" class="edge">
<title>Node1&#45;&gt;Node20</title>
<path fill="none" stroke="midnightblue" d="M61.51,-308.23C62.11,-267.28 70.14,-107.84 157,-29 158.71,-27.45 160.52,-26.02 162.41,-24.69"/>
<polygon fill="midnightblue" stroke="midnightblue" points="164.3,-27.64 171.16,-19.56 160.76,-21.6 164.3,-27.64"/>
</g>
<!-- Node3 -->
<g id="node3" class="node">
<title>Node3</title>
<g id="a_node3"><a xlink:href="classJoyButton.html#a447ec98d3ffd8b2a8668c14d2646851c" target="_top" xlink:title="Get the distance that an element is away from its assigned dead zone.">
<polygon fill="white" stroke="black" points="363,-505 363,-535 505,-535 505,-505 363,-505"/>
<text text-anchor="start" x="371" y="-523" font-family="Helvetica,sans-Serif" font-size="10.00">JoyButton::getDistanceFrom</text>
<text text-anchor="middle" x="434" y="-512" font-family="Helvetica,sans-Serif" font-size="10.00">DeadZone</text>
</a>
</g>
</g>
<!-- Node2&#45;&gt;Node3 -->
<g id="edge2" class="edge">
<title>Node2&#45;&gt;Node3</title>
<path fill="none" stroke="midnightblue" d="M302.69,-605.93C311.03,-603.05 319.35,-599.75 327,-596 356.85,-581.37 387.31,-558.54 407.88,-541.71"/>
<polygon fill="midnightblue" stroke="midnightblue" points="410.33,-544.22 415.79,-535.14 405.86,-538.84 410.33,-544.22"/>
</g>
<!-- Node8&#45;&gt;Node3 -->
<g id="edge8" class="edge">
<title>Node8&#45;&gt;Node3</title>
<path fill="none" stroke="midnightblue" d="M302.69,-434.07C311.03,-436.95 319.35,-440.25 327,-444 356.85,-458.63 387.31,-481.46 407.88,-498.29"/>
<polygon fill="midnightblue" stroke="midnightblue" points="405.86,-501.16 415.79,-504.86 410.33,-495.78 405.86,-501.16"/>
</g>
<!-- Node16 -->
<g id="node16" class="node">
<title>Node16</title>
<g id="a_node16"><a xlink:href="classJoyButtonMouseHelper.html#aa6e3c03cba675d1d5836c6f063187a46" target="_top" xlink:title=" ">
<polygon fill="white" stroke="black" points="374.5,-150 374.5,-180 493.5,-180 493.5,-150 374.5,-150"/>
<text text-anchor="start" x="382.5" y="-168" font-family="Helvetica,sans-Serif" font-size="10.00">JoyButtonMouseHelper</text>
<text text-anchor="middle" x="434" y="-157" font-family="Helvetica,sans-Serif" font-size="10.00">::getFirstSpringStatus</text>
</a>
</g>
</g>
<!-- Node15&#45;&gt;Node16 -->
<g id="edge16" class="edge">
<title>Node15&#45;&gt;Node16</title>
<path fill="none" stroke="midnightblue" d="M309.19,-149.36C327,-151.61 346.3,-154.05 364.24,-156.31"/>
<polygon fill="midnightblue" stroke="midnightblue" points="363.98,-159.81 374.34,-157.59 364.86,-152.86 363.98,-159.81"/>
</g>
<!-- Node17 -->
<g id="node17" class="node">
<title>Node17</title>
<g id="a_node17"><a xlink:href="classJoyButtonMouseHelper.html#a61767df14a44c8a7bd59bb881e708ebb" target="_top" xlink:title=" ">
<polygon fill="white" stroke="black" points="374.5,-101 374.5,-131 493.5,-131 493.5,-101 374.5,-101"/>
<text text-anchor="start" x="382.5" y="-119" font-family="Helvetica,sans-Serif" font-size="10.00">JoyButtonMouseHelper</text>
<text text-anchor="middle" x="434" y="-108" font-family="Helvetica,sans-Serif" font-size="10.00">::setFirstSpringStatus</text>
</a>
</g>
</g>
<!-- Node15&#45;&gt;Node17 -->
<g id="edge17" class="edge">
<title>Node15&#45;&gt;Node17</title>
<path fill="none" stroke="midnightblue" d="M309.19,-132.29C327,-129.95 346.3,-127.41 364.24,-125.05"/>
<polygon fill="midnightblue" stroke="midnightblue" points="364.88,-128.49 374.34,-123.72 363.97,-121.55 364.88,-128.49"/>
</g>
</g>
</svg>
        <g id="navigator" transform="translate(0 0)" fill="#404254">
                <rect fill="#f2f5e9" fill-opacity="0.5" stroke="#606060" stroke-width=".5" x="0" y="0" width="60" height="60"/>
                <use id="zoomplus" xlink:href="#zoomPlus" x="17" y="9" onmousedown="handleZoom(evt,'in')"/>
                <use id="zoomminus" xlink:href="#zoomMin" x="42" y="9" onmousedown="handleZoom(evt,'out')"/>
                <use id="reset" xlink:href="#resetDef" x="30" y="36" onmousedown="handleReset()"/>
                <g id="arrowUp" xlink:href="#dirArrow" transform="translate(30 24)" onmousedown="handlePan(0,-1)">
                  <use xlink:href="#rim" fill="#404040">
                        <set attributeName="fill" to="#808080" begin="arrowUp.mouseover" end="arrowUp.mouseout"/>
                  </use>
                  <path fill="none" stroke="white" stroke-width="1.5" d="M0,-3.0v7 M-2.5,-0.5L0,-3.0L2.5,-0.5"/>
                </g>
                <g id="arrowRight" xlink:href="#dirArrow" transform="rotate(90) translate(36 -43)" onmousedown="handlePan(1,0)">
                  <use xlink:href="#rim" fill="#404040">
                        <set attributeName="fill" to="#808080" begin="arrowRight.mouseover" end="arrowRight.mouseout"/>
                  </use>
                  <path fill="none" stroke="white" stroke-width="1.5" d="M0,-3.0v7 M-2.5,-0.5L0,-3.0L2.5,-0.5"/>
                </g>
                <g id="arrowDown" xlink:href="#dirArrow" transform="rotate(180) translate(-30 -48)" onmousedown="handlePan(0,1)">
                  <use xlink:href="#rim" fill="#404040">
                        <set attributeName="fill" to="#808080" begin="arrowDown.mouseover" end="arrowDown.mouseout"/>
                  </use>
                  <path fill="none" stroke="white" stroke-width="1.5" d="M0,-3.0v7 M-2.5,-0.5L0,-3.0L2.5,-0.5"/>
                </g>
                <g id="arrowLeft" xlink:href="#dirArrow" transform="rotate(270) translate(-36 17)" onmousedown="handlePan(-1,0)">
                  <use xlink:href="#rim" fill="#404040">
                        <set attributeName="fill" to="#808080" begin="arrowLeft.mouseover" end="arrowLeft.mouseout"/>
                  </use>
                  <path fill="none" stroke="white" stroke-width="1.5" d="M0,-3.0v7 M-2.5,-0.5L0,-3.0L2.5,-0.5"/>
                </g>
        </g>
        <svg viewBox="0 0 15 15" width="100%" height="30px" preserveAspectRatio="xMaxYMin meet">
         <g id="arrow_out" transform="scale(0.3 0.3)">
          <a xlink:href="classJoyButton_ac51fbb4f1b1367d701500921378fddaa_cgraph_org.svg" target="_base">
           <rect id="button" ry="5" rx="5" y="6" x="6" height="38" width="38"
                fill="#f2f5e9" fill-opacity="0.5" stroke="#606060" stroke-width="1.0"/>
           <path id="arrow"
             d="M 11.500037,31.436501 C 11.940474,20.09759 22.043105,11.32322 32.158766,21.979434 L 37.068811,17.246167 C 37.068811,17.246167 37.088388,32 37.088388,32 L 22.160133,31.978069 C 22.160133,31.978069 26.997745,27.140456 26.997745,27.140456 C 18.528582,18.264221 13.291696,25.230495 11.500037,31.436501 z"
             style="fill:#404040;"/>
          </a>
         </g>
        </svg>
</svg>
