<?xml version="1.0" encoding="UTF-8" standalone="no"?>
<!DOCTYPE svg PUBLIC "-//W3C//DTD SVG 1.1//EN"
 "http://www.w3.org/Graphics/SVG/1.1/DTD/svg11.dtd">
<!-- Generated by graphviz version 2.43.0 (0)
 -->
<!-- Title: JoyControlStick::setCalibrationSummary Pages: 1 -->
<svg width="690pt" height="142pt"
 viewBox="0.00 0.00 690.00 142.00" xmlns="http://www.w3.org/2000/svg" xmlns:xlink="http://www.w3.org/1999/xlink">
<g id="graph0" class="graph" transform="scale(1 1) rotate(0) translate(4 138)">
<title>JoyControlStick::setCalibrationSummary</title>
<polygon fill="white" stroke="transparent" points="-4,4 -4,-138 686,-138 686,4 -4,4"/>
<!-- Node1 -->
<g id="node1" class="node">
<title>Node1</title>
<g id="a_node1"><a xlink:title=" ">
<polygon fill="#bfbfbf" stroke="black" points="531,-71 531,-101 682,-101 682,-71 531,-71"/>
<text text-anchor="start" x="539" y="-89" font-family="Helvetica,sans-Serif" font-size="10.00">JoyControlStick::setCalibration</text>
<text text-anchor="middle" x="606.5" y="-78" font-family="Helvetica,sans-Serif" font-size="10.00">Summary</text>
</a>
</g>
</g>
<!-- Node2 -->
<g id="node2" class="node">
<title>Node2</title>
<g id="a_node2"><a xlink:href="classJoyControlStick.html#ab6ce741115ee3d436c1a7e866abd21e6" target="_top" xlink:title="Take a XML stream and set the stick and direction button properties according to the values contained...">
<polygon fill="white" stroke="black" points="354.5,-114.5 354.5,-133.5 493.5,-133.5 493.5,-114.5 354.5,-114.5"/>
<text text-anchor="middle" x="424" y="-121.5" font-family="Helvetica,sans-Serif" font-size="10.00">JoyControlStick::readConfig</text>
</a>
</g>
</g>
<!-- Node1&#45;&gt;Node2 -->
<g id="edge1" class="edge">
<title>Node1&#45;&gt;Node2</title>
<path fill="none" stroke="midnightblue" d="M524.21,-103.11C505.63,-107.02 486.54,-111.04 470.13,-114.5"/>
<polygon fill="midnightblue" stroke="midnightblue" points="525.1,-106.5 534.16,-101.02 523.66,-99.65 525.1,-106.5"/>
</g>
<!-- Node4 -->
<g id="node4" class="node">
<title>Node4</title>
<g id="a_node4"><a xlink:href="classCalibration.html#a8e5394c1bbe44565c442c313ca284ace" target="_top" xlink:title=" ">
<polygon fill="white" stroke="black" points="353,-76.5 353,-95.5 495,-95.5 495,-76.5 353,-76.5"/>
<text text-anchor="middle" x="424" y="-83.5" font-family="Helvetica,sans-Serif" font-size="10.00">Calibration::restoreCalValues</text>
</a>
</g>
</g>
<!-- Node1&#45;&gt;Node4 -->
<g id="edge3" class="edge">
<title>Node1&#45;&gt;Node4</title>
<path fill="none" stroke="midnightblue" d="M520.73,-86C512.12,-86 503.45,-86 495.03,-86"/>
<polygon fill="midnightblue" stroke="midnightblue" points="520.78,-89.5 530.78,-86 520.78,-82.5 520.78,-89.5"/>
</g>
<!-- Node6 -->
<g id="node6" class="node">
<title>Node6</title>
<g id="a_node6"><a xlink:href="classCalibration.html#a61d733b70d5fd8a60c8f98e50469ed0e" target="_top" xlink:title="Updates variables contents and shows message.">
<polygon fill="white" stroke="black" points="361.5,-38.5 361.5,-57.5 486.5,-57.5 486.5,-38.5 361.5,-38.5"/>
<text text-anchor="middle" x="424" y="-45.5" font-family="Helvetica,sans-Serif" font-size="10.00">Calibration::saveSettings</text>
</a>
</g>
</g>
<!-- Node1&#45;&gt;Node6 -->
<g id="edge5" class="edge">
<title>Node1&#45;&gt;Node6</title>
<path fill="none" stroke="midnightblue" d="M524.21,-68.89C505.63,-64.98 486.54,-60.96 470.13,-57.5"/>
<polygon fill="midnightblue" stroke="midnightblue" points="523.66,-72.35 534.16,-70.98 525.1,-65.5 523.66,-72.35"/>
</g>
<!-- Node3 -->
<g id="node3" class="node">
<title>Node3</title>
<g id="a_node3"><a xlink:href="classSetJoystickXml.html#aa95423a01fab878cbc69bffb7f6121f3" target="_top" xlink:title=" ">
<polygon fill="white" stroke="black" points="164.5,-114.5 164.5,-133.5 302.5,-133.5 302.5,-114.5 164.5,-114.5"/>
<text text-anchor="middle" x="233.5" y="-121.5" font-family="Helvetica,sans-Serif" font-size="10.00">SetJoystickXml::readConfig</text>
</a>
</g>
</g>
<!-- Node2&#45;&gt;Node3 -->
<g id="edge2" class="edge">
<title>Node2&#45;&gt;Node3</title>
<path fill="none" stroke="midnightblue" d="M344.02,-124C330.3,-124 316.13,-124 302.72,-124"/>
<polygon fill="midnightblue" stroke="midnightblue" points="344.41,-127.5 354.41,-124 344.41,-120.5 344.41,-127.5"/>
</g>
<!-- Node5 -->
<g id="node5" class="node">
<title>Node5</title>
<g id="a_node5"><a xlink:href="classCalibration.html#aac3cc29daae69f616489ddd29407f6fe" target="_top" xlink:title="Resets memory of all variables to default, updates window and shows message.">
<polygon fill="white" stroke="black" points="170.5,-76.5 170.5,-95.5 296.5,-95.5 296.5,-76.5 170.5,-76.5"/>
<text text-anchor="middle" x="233.5" y="-83.5" font-family="Helvetica,sans-Serif" font-size="10.00">Calibration::resetSettings</text>
</a>
</g>
</g>
<!-- Node4&#45;&gt;Node5 -->
<g id="edge4" class="edge">
<title>Node4&#45;&gt;Node5</title>
<path fill="none" stroke="midnightblue" d="M342.77,-86C327.35,-86 311.42,-86 296.68,-86"/>
<polygon fill="midnightblue" stroke="midnightblue" points="342.81,-89.5 352.81,-86 342.81,-82.5 342.81,-89.5"/>
</g>
<!-- Node7 -->
<g id="node7" class="node">
<title>Node7</title>
<g id="a_node7"><a xlink:href="classCalibration.html#a27a8dcaa8bc1ae3ebf2da993b29a4e2e" target="_top" xlink:title=" ">
<polygon fill="white" stroke="black" points="0,-19.5 0,-38.5 114,-38.5 114,-19.5 0,-19.5"/>
<text text-anchor="middle" x="57" y="-26.5" font-family="Helvetica,sans-Serif" font-size="10.00">Calibration::Calibration</text>
</a>
</g>
</g>
<!-- Node6&#45;&gt;Node7 -->
<g id="edge6" class="edge">
<title>Node6&#45;&gt;Node7</title>
<path fill="none" stroke="midnightblue" d="M351.5,-44.28C281.97,-40.66 177.79,-35.24 114.06,-31.92"/>
<polygon fill="midnightblue" stroke="midnightblue" points="351.33,-47.77 361.5,-44.8 351.69,-40.78 351.33,-47.77"/>
</g>
<!-- Node8 -->
<g id="node8" class="node">
<title>Node8</title>
<g id="a_node8"><a xlink:href="classCalibration.html#a7d5b82418dba451e1b59bef20f2890d2" target="_top" xlink:title="Initializes widget for moving axes (animations) and changes storing data for variables.">
<polygon fill="white" stroke="black" points="150,-0.5 150,-19.5 317,-19.5 317,-0.5 150,-0.5"/>
<text text-anchor="middle" x="233.5" y="-7.5" font-family="Helvetica,sans-Serif" font-size="10.00">Calibration::createAxesConnection</text>
</a>
</g>
</g>
<!-- Node6&#45;&gt;Node8 -->
<g id="edge7" class="edge">
<title>Node6&#45;&gt;Node8</title>
<path fill="none" stroke="midnightblue" d="M365.41,-36.39C338.6,-30.99 307.1,-24.64 281.72,-19.52"/>
<polygon fill="midnightblue" stroke="midnightblue" points="364.94,-39.87 375.43,-38.41 366.32,-33 364.94,-39.87"/>
</g>
<!-- Node8&#45;&gt;Node7 -->
<g id="edge8" class="edge">
<title>Node8&#45;&gt;Node7</title>
<path fill="none" stroke="midnightblue" d="M139.73,-20.1C131.13,-21.04 122.59,-21.97 114.47,-22.85"/>
<polygon fill="midnightblue" stroke="midnightblue" points="140.29,-23.56 149.85,-19 139.53,-16.6 140.29,-23.56"/>
</g>
</g>
</svg>
