<?xml version="1.0" encoding="UTF-8" standalone="no"?>
<!DOCTYPE svg PUBLIC "-//W3C//DTD SVG 1.1//EN"
 "http://www.w3.org/Graphics/SVG/1.1/DTD/svg11.dtd">
<!-- Generated by graphviz version 2.43.0 (0)
 -->
<!-- Title: JoyTabWidget::getJoystick Pages: 1 -->
<!--zoomable 796 -->
<svg id="main" version="1.1" xmlns="http://www.w3.org/2000/svg" xmlns:xlink="http://www.w3.org/1999/xlink" xml:space="preserve" onload="init(evt)">
<style type="text/css"><![CDATA[
.edge:hover path { stroke: red; }
.edge:hover polygon { stroke: red; fill: red; }
]]></style>
<script type="text/javascript"><![CDATA[
var edges = document.getElementsByTagName('g');
if (edges && edges.length) {
  for (var i=0;i<edges.length;i++) {
    if (edges[i].id.substr(0,4)=='edge') {
      edges[i].setAttribute('class','edge');
    }
  }
}
]]></script>
        <defs>
                <circle id="rim" cx="0" cy="0" r="7"/>
                <circle id="rim2" cx="0" cy="0" r="3.5"/>
                <g id="zoomPlus">
                        <use xlink:href="#rim" fill="#404040">
                                <set attributeName="fill" to="#808080" begin="zoomplus.mouseover" end="zoomplus.mouseout"/>
                        </use>
                        <path d="M-4,0h8M0,-4v8" fill="none" stroke="white" stroke-width="1.5" pointer-events="none"/>
                </g>
                <g id="zoomMin">
                        <use xlink:href="#rim" fill="#404040">
                                <set attributeName="fill" to="#808080" begin="zoomminus.mouseover" end="zoomminus.mouseout"/>
                        </use>
                        <path d="M-4,0h8" fill="none" stroke="white" stroke-width="1.5" pointer-events="none"/>
                </g>
                <g id="dirArrow">
                        <path fill="none" stroke="white" stroke-width="1.5" d="M0,-3.0v7 M-2.5,-0.5L0,-3.0L2.5,-0.5"/>
                </g>
               <g id="resetDef">
                       <use xlink:href="#rim2" fill="#404040">
                               <set attributeName="fill" to="#808080" begin="reset.mouseover" end="reset.mouseout"/>
                       </use>
               </g>
        </defs>

<script type="text/javascript">
var viewWidth = 1229;
var viewHeight = 796;
var sectionId = 'dynsection-66';
</script>
<script xlink:href="svgpan.js"/>
<svg id="graph" class="graph">
<g id="viewport">
<title>JoyTabWidget::getJoystick</title>
<polygon fill="white" stroke="transparent" points="-4,4 -4,-791.64 1225,-791.64 1225,4 -4,4"/>
<!-- Node1 -->
<g id="node1" class="node">
<title>Node1</title>
<g id="a_node1"><a xlink:title=" ">
<polygon fill="#bfbfbf" stroke="black" points="1087,-389.5 1087,-408.5 1221,-408.5 1221,-389.5 1087,-389.5"/>
<text text-anchor="middle" x="1154" y="-396.5" font-family="Helvetica,sans-Serif" font-size="10.00">JoyTabWidget::getJoystick</text>
</a>
</g>
</g>
<!-- Node2 -->
<g id="node2" class="node">
<title>Node2</title>
<g id="a_node2"><a xlink:href="classMainWindow.html#a9738583d1ab872fb2784c0faee89cb46" target="_top" xlink:title=" ">
<polygon fill="white" stroke="black" points="314,-607.5 314,-626.5 439,-626.5 439,-607.5 314,-607.5"/>
<text text-anchor="middle" x="376.5" y="-614.5" font-family="Helvetica,sans-Serif" font-size="10.00">MainWindow::addJoyTab</text>
</a>
</g>
</g>
<!-- Node1&#45;&gt;Node2 -->
<g id="edge1" class="edge">
<title>Node1&#45;&gt;Node2</title>
<path fill="none" stroke="midnightblue" d="M1151.83,-419.03C1147.75,-468.38 1129.7,-595.85 1051,-652 950.6,-723.63 617.63,-667.43 496,-647 466.28,-642.01 433.07,-633.32 409.39,-626.58"/>
<polygon fill="midnightblue" stroke="midnightblue" points="1155.34,-418.97 1152.56,-408.75 1148.36,-418.47 1155.34,-418.97"/>
</g>
<!-- Node4 -->
<g id="node4" class="node">
<title>Node4</title>
<g id="a_node4"><a xlink:href="classJoyTabWidgetContainer.html#ab402bf04f78651809a44d1c567302344" target="_top" xlink:title=" ">
<polygon fill="white" stroke="black" points="511.5,-347 511.5,-377 632.5,-377 632.5,-347 511.5,-347"/>
<text text-anchor="start" x="519.5" y="-365" font-family="Helvetica,sans-Serif" font-size="10.00">JoyTabWidgetContainer</text>
<text text-anchor="middle" x="572" y="-354" font-family="Helvetica,sans-Serif" font-size="10.00">::addTab</text>
</a>
</g>
</g>
<!-- Node1&#45;&gt;Node4 -->
<g id="edge3" class="edge">
<title>Node1&#45;&gt;Node4</title>
<path fill="none" stroke="midnightblue" d="M1101.3,-410.54C1085.27,-413.6 1067.48,-416.48 1051,-418 973.11,-425.19 952.89,-425.16 875,-418 790.04,-410.19 693.31,-390.27 632.71,-376.42"/>
<polygon fill="midnightblue" stroke="midnightblue" points="1102.43,-413.88 1111.56,-408.51 1101.07,-407.02 1102.43,-413.88"/>
</g>
<!-- Node5 -->
<g id="node5" class="node">
<title>Node5</title>
<g id="a_node5"><a xlink:href="classMainWindow.html#a0a756973a707af418c4ce416c9c8312c" target="_top" xlink:title=" ">
<polygon fill="white" stroke="black" points="689.5,-214.5 689.5,-233.5 833.5,-233.5 833.5,-214.5 689.5,-214.5"/>
<text text-anchor="middle" x="761.5" y="-221.5" font-family="Helvetica,sans-Serif" font-size="10.00">MainWindow::autoprofileLoad</text>
</a>
</g>
</g>
<!-- Node1&#45;&gt;Node5 -->
<g id="edge4" class="edge">
<title>Node1&#45;&gt;Node5</title>
<path fill="none" stroke="midnightblue" d="M1146.35,-380C1133.64,-346.86 1102.49,-279.17 1051,-249 982.68,-208.97 889.23,-208.73 827.42,-214.48"/>
<polygon fill="midnightblue" stroke="midnightblue" points="1143.09,-381.28 1149.83,-389.45 1149.66,-378.86 1143.09,-381.28"/>
</g>
<!-- Node7 -->
<g id="node7" class="node">
<title>Node7</title>
<g id="a_node7"><a xlink:href="classMainWindow.html#af308553aa8376a9432b47a14c486a771" target="_top" xlink:title=" ">
<polygon fill="white" stroke="black" points="890,-706 890,-736 1036,-736 1036,-706 890,-706"/>
<text text-anchor="start" x="898" y="-724" font-family="Helvetica,sans-Serif" font-size="10.00">MainWindow::changeStartSet</text>
<text text-anchor="middle" x="963" y="-713" font-family="Helvetica,sans-Serif" font-size="10.00">Number</text>
</a>
</g>
</g>
<!-- Node1&#45;&gt;Node7 -->
<g id="edge6" class="edge">
<title>Node1&#45;&gt;Node7</title>
<path fill="none" stroke="midnightblue" d="M1151.84,-418.84C1147.73,-470.89 1129.52,-612.79 1051,-691 1044.89,-697.09 1037.48,-701.94 1029.6,-705.81"/>
<polygon fill="midnightblue" stroke="midnightblue" points="1155.35,-418.85 1152.55,-408.63 1148.36,-418.36 1155.35,-418.85"/>
</g>
<!-- Node9 -->
<g id="node9" class="node">
<title>Node9</title>
<g id="a_node9"><a xlink:href="classMainWindow.html#a5b10214725195446d31959dbde52df71" target="_top" xlink:title=" ">
<polygon fill="white" stroke="black" points="896.5,-580 896.5,-610 1029.5,-610 1029.5,-580 896.5,-580"/>
<text text-anchor="start" x="904.5" y="-598" font-family="Helvetica,sans-Serif" font-size="10.00">MainWindow::disableFlash</text>
<text text-anchor="middle" x="963" y="-587" font-family="Helvetica,sans-Serif" font-size="10.00">Actions</text>
</a>
</g>
</g>
<!-- Node1&#45;&gt;Node9 -->
<g id="edge9" class="edge">
<title>Node1&#45;&gt;Node9</title>
<path fill="none" stroke="midnightblue" d="M1146.05,-418.67C1132.87,-453.21 1101,-524.9 1051,-565 1043.4,-571.1 1034.48,-575.99 1025.3,-579.91"/>
<polygon fill="midnightblue" stroke="midnightblue" points="1149.49,-419.44 1149.67,-408.85 1142.93,-417.02 1149.49,-419.44"/>
</g>
<!-- Node18 -->
<g id="node18" class="node">
<title>Node18</title>
<g id="a_node18"><a xlink:href="classMainWindow.html#ac398cc635954d370088390a0a5bee878" target="_top" xlink:title=" ">
<polygon fill="white" stroke="black" points="306,-569.5 306,-588.5 447,-588.5 447,-569.5 306,-569.5"/>
<text text-anchor="middle" x="376.5" y="-576.5" font-family="Helvetica,sans-Serif" font-size="10.00">MainWindow::removeJoyTab</text>
</a>
</g>
</g>
<!-- Node1&#45;&gt;Node18 -->
<g id="edge45" class="edge">
<title>Node1&#45;&gt;Node18</title>
<path fill="none" stroke="midnightblue" d="M1150.8,-418.9C1144.62,-464.12 1122.53,-574.23 1051,-620 947.11,-686.47 614.72,-653.4 496,-620 477.95,-614.92 477.36,-605.08 460,-598 450.75,-594.22 440.59,-591.11 430.66,-588.58"/>
<polygon fill="midnightblue" stroke="midnightblue" points="1154.29,-419.24 1152.05,-408.88 1147.34,-418.37 1154.29,-419.24"/>
</g>
<!-- Node21 -->
<g id="node21" class="node">
<title>Node21</title>
<g id="a_node21"><a xlink:href="classMainWindow.html#a435b6567cdb461077fee16ac1d23523c" target="_top" xlink:title=" ">
<polygon fill="white" stroke="black" points="881,-503.5 881,-522.5 1045,-522.5 1045,-503.5 881,-503.5"/>
<text text-anchor="middle" x="963" y="-510.5" font-family="Helvetica,sans-Serif" font-size="10.00">MainWindow::enableFlashActions</text>
</a>
</g>
</g>
<!-- Node1&#45;&gt;Node21 -->
<g id="edge29" class="edge">
<title>Node1&#45;&gt;Node21</title>
<path fill="none" stroke="midnightblue" d="M1138.03,-416.31C1119.56,-436.62 1086.23,-469.93 1051,-489 1039.56,-495.19 1026.4,-499.89 1013.83,-503.41"/>
<polygon fill="midnightblue" stroke="midnightblue" points="1140.75,-418.52 1144.79,-408.73 1135.52,-413.86 1140.75,-418.52"/>
</g>
<!-- Node23 -->
<g id="node23" class="node">
<title>Node23</title>
<g id="a_node23"><a xlink:href="classJoyTabWidgetContainer.html#a6689df09f425f32d878cee6a958100a0" target="_top" xlink:title=" ">
<polygon fill="white" stroke="black" points="902.5,-340 902.5,-370 1023.5,-370 1023.5,-340 902.5,-340"/>
<text text-anchor="start" x="910.5" y="-358" font-family="Helvetica,sans-Serif" font-size="10.00">JoyTabWidgetContainer</text>
<text text-anchor="middle" x="963" y="-347" font-family="Helvetica,sans-Serif" font-size="10.00">::flash</text>
</a>
</g>
</g>
<!-- Node1&#45;&gt;Node23 -->
<g id="edge31" class="edge">
<title>Node1&#45;&gt;Node23</title>
<path fill="none" stroke="midnightblue" d="M1101.95,-387.12C1077.78,-381.49 1048.76,-374.73 1023.59,-368.87"/>
<polygon fill="midnightblue" stroke="midnightblue" points="1101.46,-390.59 1111.99,-389.45 1103.04,-383.78 1101.46,-390.59"/>
</g>
<!-- Node25 -->
<g id="node25" class="node">
<title>Node25</title>
<g id="a_node25"><a xlink:href="classMainWindow.html#a1a548fbdf7e11a670e95995c42dfb154" target="_top" xlink:title=" ">
<polygon fill="white" stroke="black" points="684,-427.5 684,-446.5 839,-446.5 839,-427.5 684,-427.5"/>
<text text-anchor="middle" x="761.5" y="-434.5" font-family="Helvetica,sans-Serif" font-size="10.00">MainWindow::joystickTrayShow</text>
</a>
</g>
</g>
<!-- Node1&#45;&gt;Node25 -->
<g id="edge34" class="edge">
<title>Node1&#45;&gt;Node25</title>
<path fill="none" stroke="midnightblue" d="M1130.7,-414.3C1110.8,-426.95 1080.37,-443.95 1051,-451 965.92,-471.44 862.78,-457.51 805.73,-446.57"/>
<polygon fill="midnightblue" stroke="midnightblue" points="1132.85,-417.07 1139.31,-408.67 1129.02,-411.21 1132.85,-417.07"/>
</g>
<!-- Node26 -->
<g id="node26" class="node">
<title>Node26</title>
<g id="a_node26"><a xlink:href="classMainWindow.html#a4d9d0944b171d2ed34e6963fb4b47e78" target="_top" xlink:title=" ">
<polygon fill="white" stroke="black" points="893,-389.5 893,-408.5 1033,-408.5 1033,-389.5 893,-389.5"/>
<text text-anchor="middle" x="963" y="-396.5" font-family="Helvetica,sans-Serif" font-size="10.00">MainWindow::loadConfigFile</text>
</a>
</g>
</g>
<!-- Node1&#45;&gt;Node26 -->
<g id="edge36" class="edge">
<title>Node1&#45;&gt;Node26</title>
<path fill="none" stroke="midnightblue" d="M1076.59,-399C1062.27,-399 1047.37,-399 1033.27,-399"/>
<polygon fill="midnightblue" stroke="midnightblue" points="1076.9,-402.5 1086.9,-399 1076.9,-395.5 1076.9,-402.5"/>
</g>
<!-- Node27 -->
<g id="node27" class="node">
<title>Node27</title>
<g id="a_node27"><a xlink:href="classMainWindow.html#a739a47a7791c271346ec4bc7e6386aaf" target="_top" xlink:title=" ">
<polygon fill="white" stroke="black" points="689,-151.5 689,-170.5 834,-170.5 834,-151.5 689,-151.5"/>
<text text-anchor="middle" x="761.5" y="-158.5" font-family="Helvetica,sans-Serif" font-size="10.00">MainWindow::openCalibration</text>
</a>
</g>
</g>
<!-- Node1&#45;&gt;Node27 -->
<g id="edge37" class="edge">
<title>Node1&#45;&gt;Node27</title>
<path fill="none" stroke="midnightblue" d="M1151.74,-379.41C1147.47,-331.19 1129.01,-206.94 1051,-155 968.85,-100.3 842.29,-133.34 788.32,-151.47"/>
<polygon fill="midnightblue" stroke="midnightblue" points="1148.26,-379.76 1152.52,-389.46 1155.24,-379.22 1148.26,-379.76"/>
</g>
<!-- Node28 -->
<g id="node28" class="node">
<title>Node28</title>
<g id="a_node28"><a xlink:href="classMainWindow.html#a74c96dbe750f2f038777b8a0034da63f" target="_top" xlink:title=" ">
<polygon fill="white" stroke="black" points="293,-133 293,-163 460,-163 460,-133 293,-133"/>
<text text-anchor="start" x="301" y="-151" font-family="Helvetica,sans-Serif" font-size="10.00">MainWindow::openGameController</text>
<text text-anchor="middle" x="376.5" y="-140" font-family="Helvetica,sans-Serif" font-size="10.00">MappingWindow</text>
</a>
</g>
</g>
<!-- Node1&#45;&gt;Node28 -->
<g id="edge39" class="edge">
<title>Node1&#45;&gt;Node28</title>
<path fill="none" stroke="midnightblue" d="M1152.82,-379.26C1151.13,-326.49 1138.37,-182.01 1051,-121 957.51,-55.72 616.08,-105.47 458.37,-132.95"/>
<polygon fill="midnightblue" stroke="midnightblue" points="1149.32,-379.41 1153.04,-389.33 1156.32,-379.26 1149.32,-379.41"/>
</g>
<!-- Node30 -->
<g id="node30" class="node">
<title>Node30</title>
<g id="a_node30"><a xlink:href="classMainWindow.html#a93b7282a6815b10ef6010dbb6eb814a1" target="_top" xlink:title=" ">
<polygon fill="white" stroke="black" points="694,-253 694,-283 829,-283 829,-253 694,-253"/>
<text text-anchor="start" x="702" y="-271" font-family="Helvetica,sans-Serif" font-size="10.00">MainWindow::openJoystick</text>
<text text-anchor="middle" x="761.5" y="-260" font-family="Helvetica,sans-Serif" font-size="10.00">StatusWindow</text>
</a>
</g>
</g>
<!-- Node1&#45;&gt;Node30 -->
<g id="edge43" class="edge">
<title>Node1&#45;&gt;Node30</title>
<path fill="none" stroke="midnightblue" d="M1143.4,-380.37C1128.08,-352.9 1095.27,-302.47 1051,-281 981.07,-247.09 890.06,-249.48 829.13,-256.64"/>
<polygon fill="midnightblue" stroke="midnightblue" points="1140.41,-382.21 1148.24,-389.36 1146.58,-378.89 1140.41,-382.21"/>
</g>
<!-- Node31 -->
<g id="node31" class="node">
<title>Node31</title>
<g id="a_node31"><a xlink:href="classMainWindow.html#a2c35d5c779a997e6e9c5f440bf7c22a2" target="_top" xlink:title=" ">
<polygon fill="white" stroke="black" points="93.5,-746.5 93.5,-765.5 237.5,-765.5 237.5,-746.5 93.5,-746.5"/>
<text text-anchor="middle" x="165.5" y="-753.5" font-family="Helvetica,sans-Serif" font-size="10.00">MainWindow::saveAppConfig</text>
</a>
</g>
</g>
<!-- Node1&#45;&gt;Node31 -->
<g id="edge46" class="edge">
<title>Node1&#45;&gt;Node31</title>
<path fill="none" stroke="midnightblue" d="M1150.18,-418.66C1140.16,-485.71 1103.93,-703.6 1051,-746 950.71,-826.33 891,-765 762.5,-765 762.5,-765 762.5,-765 571,-765 454.22,-765 318.52,-761.2 237.73,-758.54"/>
<polygon fill="midnightblue" stroke="midnightblue" points="1153.67,-419 1151.66,-408.6 1146.75,-417.99 1153.67,-419"/>
</g>
<!-- Node32 -->
<g id="node32" class="node">
<title>Node32</title>
<g id="a_node32"><a xlink:href="classMainWindow.html#a3e716eee16d5ffa423896bb787723d78" target="_top" xlink:title="Show abstracted controller dialog for use in SDL 1.2. No longer used for versions of the program runn...">
<polygon fill="white" stroke="black" points="875,-165 875,-195 1051,-195 1051,-165 875,-165"/>
<text text-anchor="start" x="883" y="-183" font-family="Helvetica,sans-Serif" font-size="10.00">MainWindow::showStickAssignment</text>
<text text-anchor="middle" x="963" y="-172" font-family="Helvetica,sans-Serif" font-size="10.00">Dialog</text>
</a>
</g>
</g>
<!-- Node1&#45;&gt;Node32 -->
<g id="edge48" class="edge">
<title>Node1&#45;&gt;Node32</title>
<path fill="none" stroke="midnightblue" d="M1147.63,-379.27C1136.24,-341.1 1106.1,-256.79 1051,-210 1043.81,-203.9 1035.32,-199.02 1026.5,-195.11"/>
<polygon fill="midnightblue" stroke="midnightblue" points="1144.34,-380.5 1150.46,-389.15 1151.07,-378.57 1144.34,-380.5"/>
</g>
<!-- Node33 -->
<g id="node33" class="node">
<title>Node33</title>
<g id="a_node33"><a xlink:href="classMainWindow.html#a52df3a0e51f09f939b82d11fbb83f5de" target="_top" xlink:title="Display a version of the tray menu that shows all recent profiles for all controllers in one list.">
<polygon fill="white" stroke="black" points="686.5,-504 686.5,-534 836.5,-534 836.5,-504 686.5,-504"/>
<text text-anchor="start" x="694.5" y="-522" font-family="Helvetica,sans-Serif" font-size="10.00">MainWindow::singleTrayProfile</text>
<text text-anchor="middle" x="761.5" y="-511" font-family="Helvetica,sans-Serif" font-size="10.00">MenuShow</text>
</a>
</g>
</g>
<!-- Node1&#45;&gt;Node33 -->
<g id="edge49" class="edge">
<title>Node1&#45;&gt;Node33</title>
<path fill="none" stroke="midnightblue" d="M1145.17,-418.03C1131.38,-448.71 1099.53,-508.06 1051,-532 972.76,-570.6 867.6,-550.72 808.26,-534.03"/>
<polygon fill="midnightblue" stroke="midnightblue" points="1148.4,-419.39 1149.16,-408.82 1141.98,-416.61 1148.4,-419.39"/>
</g>
<!-- Node34 -->
<g id="node34" class="node">
<title>Node34</title>
<g id="a_node34"><a xlink:href="classJoyTabWidgetContainer.html#aa6f7bad0bd1e28b25ff977bbaf57d961" target="_top" xlink:title=" ">
<polygon fill="white" stroke="black" points="902.5,-291 902.5,-321 1023.5,-321 1023.5,-291 902.5,-291"/>
<text text-anchor="start" x="910.5" y="-309" font-family="Helvetica,sans-Serif" font-size="10.00">JoyTabWidgetContainer</text>
<text text-anchor="middle" x="963" y="-298" font-family="Helvetica,sans-Serif" font-size="10.00">::unflash</text>
</a>
</g>
</g>
<!-- Node1&#45;&gt;Node34 -->
<g id="edge51" class="edge">
<title>Node1&#45;&gt;Node34</title>
<path fill="none" stroke="midnightblue" d="M1133.61,-383.04C1113.91,-367.52 1081.95,-344.27 1051,-330 1042.46,-326.06 1033.15,-322.65 1023.89,-319.74"/>
<polygon fill="midnightblue" stroke="midnightblue" points="1131.52,-385.85 1141.52,-389.36 1135.9,-380.38 1131.52,-385.85"/>
</g>
<!-- Node35 -->
<g id="node35" class="node">
<title>Node35</title>
<g id="a_node35"><a xlink:href="classMainWindow.html#a7c69c4ebe15611f0221fcfa45fb5cb70" target="_top" xlink:title=" ">
<polygon fill="white" stroke="black" points="893.5,-39 893.5,-69 1032.5,-69 1032.5,-39 893.5,-39"/>
<text text-anchor="start" x="901.5" y="-57" font-family="Helvetica,sans-Serif" font-size="10.00">MainWindow::unloadCurrent</text>
<text text-anchor="middle" x="963" y="-46" font-family="Helvetica,sans-Serif" font-size="10.00">Config</text>
</a>
</g>
</g>
<!-- Node1&#45;&gt;Node35 -->
<g id="edge53" class="edge">
<title>Node1&#45;&gt;Node35</title>
<path fill="none" stroke="midnightblue" d="M1152.44,-379.45C1149.83,-324.93 1135.01,-169.61 1051,-84 1044.96,-77.84 1037.59,-72.95 1029.73,-69.06"/>
<polygon fill="midnightblue" stroke="midnightblue" points="1148.95,-379.64 1152.84,-389.49 1155.94,-379.36 1148.95,-379.64"/>
</g>
<!-- Node36 -->
<g id="node36" class="node">
<title>Node36</title>
<g id="a_node36"><a xlink:href="classMainWindow.html#ad0199bed194cb12a95caaf740ebc2f7d" target="_top" xlink:title="TODO: Check if method is save to remove.">
<polygon fill="white" stroke="black" points="880.5,-0.5 880.5,-19.5 1045.5,-19.5 1045.5,-0.5 880.5,-0.5"/>
<text text-anchor="middle" x="963" y="-7.5" font-family="Helvetica,sans-Serif" font-size="10.00">MainWindow::updateMenuOptions</text>
</a>
</g>
</g>
<!-- Node1&#45;&gt;Node36 -->
<g id="edge54" class="edge">
<title>Node1&#45;&gt;Node36</title>
<path fill="none" stroke="midnightblue" d="M1150.26,-379.24C1140.25,-309.84 1103.46,-78.71 1051,-29 1047.07,-25.28 1042.59,-22.22 1037.78,-19.71"/>
<polygon fill="midnightblue" stroke="midnightblue" points="1146.82,-379.86 1151.68,-389.27 1153.75,-378.88 1146.82,-379.86"/>
</g>
<!-- Node3 -->
<g id="node3" class="node">
<title>Node3</title>
<g id="a_node3"><a xlink:href="main_8cpp.html#a0ddf1224851353fc92bfbff6f499fa97" target="_top" xlink:title=" ">
<polygon fill="white" stroke="black" points="0,-550.5 0,-569.5 38,-569.5 38,-550.5 0,-550.5"/>
<text text-anchor="middle" x="19" y="-557.5" font-family="Helvetica,sans-Serif" font-size="10.00">main</text>
</a>
</g>
</g>
<!-- Node2&#45;&gt;Node3 -->
<g id="edge2" class="edge">
<title>Node2&#45;&gt;Node3</title>
<path fill="none" stroke="midnightblue" d="M303.74,-613.53C242.07,-609.34 151.15,-600.28 74,-581 61.7,-577.93 48.43,-572.79 38.12,-568.37"/>
<polygon fill="midnightblue" stroke="midnightblue" points="303.55,-617.02 313.76,-614.18 304.01,-610.04 303.55,-617.02"/>
</g>
<!-- Node6 -->
<g id="node6" class="node">
<title>Node6</title>
<g id="a_node6"><a xlink:href="classMainWindow.html#a2f0c03d3d51748ab794e698322110614" target="_top" xlink:title=" ">
<polygon fill="white" stroke="black" points="98.5,-239.5 98.5,-258.5 232.5,-258.5 232.5,-239.5 98.5,-239.5"/>
<text text-anchor="middle" x="165.5" y="-246.5" font-family="Helvetica,sans-Serif" font-size="10.00">MainWindow::MainWindow</text>
</a>
</g>
</g>
<!-- Node5&#45;&gt;Node6 -->
<g id="edge5" class="edge">
<title>Node5&#45;&gt;Node6</title>
<path fill="none" stroke="midnightblue" d="M679.32,-227.42C560.67,-232.41 342.11,-241.61 232.63,-246.22"/>
<polygon fill="midnightblue" stroke="midnightblue" points="679.6,-230.91 689.44,-226.99 679.3,-223.91 679.6,-230.91"/>
</g>
<!-- Node8 -->
<g id="node8" class="node">
<title>Node8</title>
<g id="a_node8"><a xlink:href="classMainWindow.html#a58c2bb4b8456b8dd246c6beb3623b3d2" target="_top" xlink:title=" ">
<polygon fill="white" stroke="black" points="91.5,-679 91.5,-709 239.5,-709 239.5,-679 91.5,-679"/>
<text text-anchor="start" x="99.5" y="-697" font-family="Helvetica,sans-Serif" font-size="10.00">MainWindow::alterConfigFrom</text>
<text text-anchor="middle" x="165.5" y="-686" font-family="Helvetica,sans-Serif" font-size="10.00">Settings</text>
</a>
</g>
</g>
<!-- Node7&#45;&gt;Node8 -->
<g id="edge7" class="edge">
<title>Node7&#45;&gt;Node8</title>
<path fill="none" stroke="midnightblue" d="M879.65,-718.2C723.82,-712.92 388.16,-701.52 239.69,-696.48"/>
<polygon fill="midnightblue" stroke="midnightblue" points="879.54,-721.7 889.65,-718.54 879.77,-714.71 879.54,-721.7"/>
</g>
<!-- Node8&#45;&gt;Node3 -->
<g id="edge8" class="edge">
<title>Node8&#45;&gt;Node3</title>
<path fill="none" stroke="midnightblue" d="M129.46,-673.27C111.83,-661.96 90.71,-647.02 74,-631 53.88,-611.71 35.36,-584.44 26.13,-569.96"/>
<polygon fill="midnightblue" stroke="midnightblue" points="127.99,-676.48 138.32,-678.84 131.71,-670.56 127.99,-676.48"/>
</g>
<!-- Node10 -->
<g id="node10" class="node">
<title>Node10</title>
<g id="a_node10"><a xlink:href="classMainWindow.html#ac7c881667b4ba4986b5a0030452ee3f0" target="_top" xlink:title=" ">
<polygon fill="white" stroke="black" points="505,-591.5 505,-610.5 639,-610.5 639,-591.5 505,-591.5"/>
<text text-anchor="middle" x="572" y="-598.5" font-family="Helvetica,sans-Serif" font-size="10.00">MainWindow::changeEvent</text>
</a>
</g>
</g>
<!-- Node9&#45;&gt;Node10 -->
<g id="edge10" class="edge">
<title>Node9&#45;&gt;Node10</title>
<path fill="none" stroke="midnightblue" d="M886.12,-596.17C814.3,-597.28 707.57,-598.92 639.14,-599.98"/>
<polygon fill="midnightblue" stroke="midnightblue" points="886.51,-599.66 896.45,-596.01 886.4,-592.67 886.51,-599.66"/>
</g>
<!-- Node11 -->
<g id="node11" class="node">
<title>Node11</title>
<g id="a_node11"><a xlink:href="classMainWindow.html#a732dcadb7bd3365f28d2b38b6d22b5a7" target="_top" xlink:title=" ">
<polygon fill="white" stroke="black" points="696,-553.5 696,-572.5 827,-572.5 827,-553.5 696,-553.5"/>
<text text-anchor="middle" x="761.5" y="-560.5" font-family="Helvetica,sans-Serif" font-size="10.00">MainWindow::hideWindow</text>
</a>
</g>
</g>
<!-- Node9&#45;&gt;Node11 -->
<g id="edge11" class="edge">
<title>Node9&#45;&gt;Node11</title>
<path fill="none" stroke="midnightblue" d="M886.37,-582.87C864.98,-579.44 842.02,-575.75 821.74,-572.5"/>
<polygon fill="midnightblue" stroke="midnightblue" points="885.97,-586.35 896.4,-584.48 887.08,-579.44 885.97,-586.35"/>
</g>
<!-- Node11&#45;&gt;Node10 -->
<g id="edge12" class="edge">
<title>Node11&#45;&gt;Node10</title>
<path fill="none" stroke="midnightblue" d="M703.22,-574.61C676.55,-580.01 645.22,-586.36 619.97,-591.48"/>
<polygon fill="midnightblue" stroke="midnightblue" points="704.08,-578.01 713.19,-572.59 702.69,-571.15 704.08,-578.01"/>
</g>
<!-- Node12 -->
<g id="node12" class="node">
<title>Node12</title>
<g id="a_node12"><a xlink:href="classMainWindow.html#affe344f13315c09bd280d0bc200e94ca" target="_top" xlink:title=" ">
<polygon fill="white" stroke="black" points="499.5,-504 499.5,-534 644.5,-534 644.5,-504 499.5,-504"/>
<text text-anchor="start" x="507.5" y="-522" font-family="Helvetica,sans-Serif" font-size="10.00">MainWindow::changeWindow</text>
<text text-anchor="middle" x="572" y="-511" font-family="Helvetica,sans-Serif" font-size="10.00">Status</text>
</a>
</g>
</g>
<!-- Node11&#45;&gt;Node12 -->
<g id="edge13" class="edge">
<title>Node11&#45;&gt;Node12</title>
<path fill="none" stroke="midnightblue" d="M709.86,-551.12C687.49,-545.87 660.94,-539.64 637.2,-534.07"/>
<polygon fill="midnightblue" stroke="midnightblue" points="709.28,-554.58 719.82,-553.45 710.88,-547.76 709.28,-554.58"/>
</g>
<!-- Node13 -->
<g id="node13" class="node">
<title>Node13</title>
<g id="a_node13"><a xlink:href="classMainWindow.html#a4e20a4a065fbb0e4d3532a45a0a91425" target="_top" xlink:title="Check if the program should really quit or if it should be minimized.">
<polygon fill="white" stroke="black" points="509,-553.5 509,-572.5 635,-572.5 635,-553.5 509,-553.5"/>
<text text-anchor="middle" x="572" y="-560.5" font-family="Helvetica,sans-Serif" font-size="10.00">MainWindow::closeEvent</text>
</a>
</g>
</g>
<!-- Node11&#45;&gt;Node13 -->
<g id="edge14" class="edge">
<title>Node11&#45;&gt;Node13</title>
<path fill="none" stroke="midnightblue" d="M685.66,-563C668.9,-563 651.29,-563 635.11,-563"/>
<polygon fill="midnightblue" stroke="midnightblue" points="685.97,-566.5 695.97,-563 685.97,-559.5 685.97,-566.5"/>
</g>
<!-- Node14 -->
<g id="node14" class="node">
<title>Node14</title>
<g id="a_node14"><a xlink:href="classMainWindow.html#a4b00208df3ff47236e6b46f308647a97" target="_top" xlink:title=" ">
<polygon fill="white" stroke="black" points="496,-465.5 496,-484.5 648,-484.5 648,-465.5 496,-465.5"/>
<text text-anchor="middle" x="572" y="-472.5" font-family="Helvetica,sans-Serif" font-size="10.00">MainWindow::populateTrayIcon</text>
</a>
</g>
</g>
<!-- Node11&#45;&gt;Node14 -->
<g id="edge15" class="edge">
<title>Node11&#45;&gt;Node14</title>
<path fill="none" stroke="midnightblue" d="M693.78,-549.54C690.37,-547.9 687.08,-546.06 684,-544 661.55,-528.96 670.32,-510.23 648,-495 641.66,-490.67 634.42,-487.28 627,-484.62"/>
<polygon fill="midnightblue" stroke="midnightblue" points="692.48,-552.79 703.05,-553.44 695.19,-546.34 692.48,-552.79"/>
</g>
<!-- Node20 -->
<g id="node20" class="node">
<title>Node20</title>
<g id="a_node20"><a xlink:href="classMainWindow.html#ad775fad5ae09302677ec1a2a27f5ef9b" target="_top" xlink:title=" ">
<polygon fill="white" stroke="black" points="504,-409 504,-439 640,-439 640,-409 504,-409"/>
<text text-anchor="start" x="512" y="-427" font-family="Helvetica,sans-Serif" font-size="10.00">MainWindow::trayIconClick</text>
<text text-anchor="middle" x="572" y="-416" font-family="Helvetica,sans-Serif" font-size="10.00">Action</text>
</a>
</g>
</g>
<!-- Node11&#45;&gt;Node20 -->
<g id="edge27" class="edge">
<title>Node11&#45;&gt;Node20</title>
<path fill="none" stroke="midnightblue" d="M690.19,-548.63C688.02,-547.22 685.95,-545.68 684,-544 652.04,-516.36 677.66,-486.1 648,-456 641.14,-449.04 632.54,-443.51 623.62,-439.14"/>
<polygon fill="midnightblue" stroke="midnightblue" points="688.54,-551.71 698.99,-553.42 691.89,-545.57 688.54,-551.71"/>
</g>
<!-- Node14&#45;&gt;Node2 -->
<g id="edge16" class="edge">
<title>Node14&#45;&gt;Node2</title>
<path fill="none" stroke="midnightblue" d="M503.03,-489.52C500.54,-491.16 498.18,-492.98 496,-495 460.44,-527.97 496.12,-565.64 460,-598 453.98,-603.39 446.74,-607.35 439.08,-610.23"/>
<polygon fill="midnightblue" stroke="midnightblue" points="504.87,-492.5 511.94,-484.61 501.49,-486.37 504.87,-492.5"/>
</g>
<!-- Node15 -->
<g id="node15" class="node">
<title>Node15</title>
<g id="a_node15"><a xlink:href="classMainWindow.html#aef8941c9dc542d8ff8416fff1caf8ad7" target="_top" xlink:title=" ">
<polygon fill="white" stroke="black" points="306.5,-465.5 306.5,-484.5 446.5,-484.5 446.5,-465.5 306.5,-465.5"/>
<text text-anchor="middle" x="376.5" y="-472.5" font-family="Helvetica,sans-Serif" font-size="10.00">MainWindow::fillButtonsMap</text>
</a>
</g>
</g>
<!-- Node14&#45;&gt;Node15 -->
<g id="edge17" class="edge">
<title>Node14&#45;&gt;Node15</title>
<path fill="none" stroke="midnightblue" d="M485.53,-475C472.49,-475 459.17,-475 446.54,-475"/>
<polygon fill="midnightblue" stroke="midnightblue" points="485.91,-478.5 495.91,-475 485.91,-471.5 485.91,-478.5"/>
</g>
<!-- Node17 -->
<g id="node17" class="node">
<title>Node17</title>
<g id="a_node17"><a xlink:href="classMainWindow.html#ae9f72ff45056908317963a1e7fa634a0" target="_top" xlink:title="Build list of current input devices and pass it to settings dialog instance. Open Settings dialog.">
<polygon fill="white" stroke="black" points="298.5,-396 298.5,-426 454.5,-426 454.5,-396 298.5,-396"/>
<text text-anchor="start" x="306.5" y="-414" font-family="Helvetica,sans-Serif" font-size="10.00">MainWindow::openMainSettings</text>
<text text-anchor="middle" x="376.5" y="-403" font-family="Helvetica,sans-Serif" font-size="10.00">Dialog</text>
</a>
</g>
</g>
<!-- Node14&#45;&gt;Node17 -->
<g id="edge21" class="edge">
<title>Node14&#45;&gt;Node17</title>
<path fill="none" stroke="midnightblue" d="M532.27,-462.19C500.72,-451.75 456.1,-437 422.87,-426"/>
<polygon fill="midnightblue" stroke="midnightblue" points="531.44,-465.6 542.03,-465.42 533.64,-458.96 531.44,-465.6"/>
</g>
<!-- Node14&#45;&gt;Node18 -->
<g id="edge23" class="edge">
<title>Node14&#45;&gt;Node18</title>
<path fill="none" stroke="midnightblue" d="M507.37,-488.47C503.38,-490.37 499.55,-492.53 496,-495 473.23,-510.86 481.78,-528.81 460,-546 446.56,-556.61 429.27,-564.22 413.98,-569.44"/>
<polygon fill="midnightblue" stroke="midnightblue" points="509.03,-491.57 516.92,-484.51 506.35,-485.11 509.03,-491.57"/>
</g>
<!-- Node19 -->
<g id="node19" class="node">
<title>Node19</title>
<g id="a_node19"><a xlink:href="classMainWindow.html#a2a0aba59f5d3bf3c6fb97f0de103b36f" target="_top" xlink:title=" ">
<polygon fill="white" stroke="black" points="74,-531.5 74,-550.5 257,-550.5 257,-531.5 74,-531.5"/>
<text text-anchor="middle" x="165.5" y="-538.5" font-family="Helvetica,sans-Serif" font-size="10.00">MainWindow::testMappingUpdateNow</text>
</a>
</g>
</g>
<!-- Node14&#45;&gt;Node19 -->
<g id="edge25" class="edge">
<title>Node14&#45;&gt;Node19</title>
<path fill="none" stroke="midnightblue" d="M505.74,-486.29C490.72,-488.86 474.81,-491.55 460,-494 379.56,-507.32 286.61,-522.1 227.24,-531.47"/>
<polygon fill="midnightblue" stroke="midnightblue" points="506.71,-489.68 515.97,-484.54 505.52,-482.78 506.71,-489.68"/>
</g>
<!-- Node15&#45;&gt;Node3 -->
<g id="edge20" class="edge">
<title>Node15&#45;&gt;Node3</title>
<path fill="none" stroke="midnightblue" d="M325.25,-463.58C262.43,-452.06 153.49,-441.45 74,-484 46.89,-498.51 30.27,-533.35 23.51,-550.34"/>
<polygon fill="midnightblue" stroke="midnightblue" points="324.82,-467.06 335.3,-465.5 326.14,-460.18 324.82,-467.06"/>
</g>
<!-- Node16 -->
<g id="node16" class="node">
<title>Node16</title>
<g id="a_node16"><a xlink:href="classMainWindow.html#a5d25ebfdfec433fc449d7e35803a9c7c" target="_top" xlink:title=" ">
<polygon fill="white" stroke="black" points="104.5,-493.5 104.5,-512.5 226.5,-512.5 226.5,-493.5 104.5,-493.5"/>
<text text-anchor="middle" x="165.5" y="-500.5" font-family="Helvetica,sans-Serif" font-size="10.00">MainWindow::fillButtons</text>
</a>
</g>
</g>
<!-- Node15&#45;&gt;Node16 -->
<g id="edge18" class="edge">
<title>Node15&#45;&gt;Node16</title>
<path fill="none" stroke="midnightblue" d="M296.36,-485.6C273.26,-488.7 248.39,-492.03 226.67,-494.94"/>
<polygon fill="midnightblue" stroke="midnightblue" points="297.04,-489.04 306.49,-484.25 296.11,-482.1 297.04,-489.04"/>
</g>
<!-- Node16&#45;&gt;Node3 -->
<g id="edge19" class="edge">
<title>Node16&#45;&gt;Node3</title>
<path fill="none" stroke="midnightblue" d="M93.95,-514.86C87.09,-516.88 80.33,-519.25 74,-522 57.6,-529.13 41.13,-541.68 30.77,-550.4"/>
<polygon fill="midnightblue" stroke="midnightblue" points="95.31,-518.11 104.04,-512.12 93.47,-511.36 95.31,-518.11"/>
</g>
<!-- Node17&#45;&gt;Node6 -->
<g id="edge22" class="edge">
<title>Node17&#45;&gt;Node6</title>
<path fill="none" stroke="midnightblue" d="M347.81,-389.54C301.94,-353.99 211.99,-284.26 179.01,-258.69"/>
<polygon fill="midnightblue" stroke="midnightblue" points="345.79,-392.4 355.84,-395.76 350.08,-386.87 345.79,-392.4"/>
</g>
<!-- Node18&#45;&gt;Node3 -->
<g id="edge24" class="edge">
<title>Node18&#45;&gt;Node3</title>
<path fill="none" stroke="midnightblue" d="M295.65,-574.73C211.55,-570.24 84.95,-563.47 38.19,-560.97"/>
<polygon fill="midnightblue" stroke="midnightblue" points="295.52,-578.23 305.69,-575.27 295.89,-571.24 295.52,-578.23"/>
</g>
<!-- Node19&#45;&gt;Node3 -->
<g id="edge26" class="edge">
<title>Node19&#45;&gt;Node3</title>
<path fill="none" stroke="midnightblue" d="M81.57,-551.9C65.2,-554.06 49.58,-556.11 38.17,-557.61"/>
<polygon fill="midnightblue" stroke="midnightblue" points="82.37,-555.33 91.83,-550.56 81.46,-548.39 82.37,-555.33"/>
</g>
<!-- Node20&#45;&gt;Node6 -->
<g id="edge28" class="edge">
<title>Node20&#45;&gt;Node6</title>
<path fill="none" stroke="midnightblue" d="M526.92,-404.93C440.86,-367.7 253.25,-286.53 188.78,-258.64"/>
<polygon fill="midnightblue" stroke="midnightblue" points="525.59,-408.17 536.16,-408.93 528.37,-401.75 525.59,-408.17"/>
</g>
<!-- Node22 -->
<g id="node22" class="node">
<title>Node22</title>
<g id="a_node22"><a xlink:href="classMainWindow.html#a3dfe834b2836b316908ace3f38c06db2" target="_top" xlink:title=" ">
<polygon fill="white" stroke="black" points="698.5,-465.5 698.5,-484.5 824.5,-484.5 824.5,-465.5 698.5,-465.5"/>
<text text-anchor="middle" x="761.5" y="-472.5" font-family="Helvetica,sans-Serif" font-size="10.00">MainWindow::showEvent</text>
</a>
</g>
</g>
<!-- Node21&#45;&gt;Node22 -->
<g id="edge30" class="edge">
<title>Node21&#45;&gt;Node22</title>
<path fill="none" stroke="midnightblue" d="M902.05,-501.58C873.51,-496.14 839.76,-489.72 812.61,-484.54"/>
<polygon fill="midnightblue" stroke="midnightblue" points="901.44,-505.03 911.92,-503.46 902.75,-498.15 901.44,-505.03"/>
</g>
<!-- Node24 -->
<g id="node24" class="node">
<title>Node24</title>
<g id="a_node24"><a xlink:href="classJoyTabWidgetContainer.html#ac8ab600e457b95087ad31cee3c5ce34a" target="_top" xlink:title=" ">
<polygon fill="white" stroke="black" points="701,-340 701,-370 822,-370 822,-340 701,-340"/>
<text text-anchor="start" x="709" y="-358" font-family="Helvetica,sans-Serif" font-size="10.00">JoyTabWidgetContainer</text>
<text text-anchor="middle" x="761.5" y="-347" font-family="Helvetica,sans-Serif" font-size="10.00">::enableFlashes</text>
</a>
</g>
</g>
<!-- Node23&#45;&gt;Node24 -->
<g id="edge32" class="edge">
<title>Node23&#45;&gt;Node24</title>
<path fill="none" stroke="midnightblue" d="M892.41,-355C869.49,-355 844.23,-355 822.12,-355"/>
<polygon fill="midnightblue" stroke="midnightblue" points="892.41,-358.5 902.41,-355 892.41,-351.5 892.41,-358.5"/>
</g>
<!-- Node24&#45;&gt;Node4 -->
<g id="edge33" class="edge">
<title>Node24&#45;&gt;Node4</title>
<path fill="none" stroke="midnightblue" d="M690.79,-357.6C671.71,-358.31 651.21,-359.08 632.75,-359.77"/>
<polygon fill="midnightblue" stroke="midnightblue" points="691.05,-361.1 700.92,-357.22 690.79,-354.1 691.05,-361.1"/>
</g>
<!-- Node25&#45;&gt;Node14 -->
<g id="edge35" class="edge">
<title>Node25&#45;&gt;Node14</title>
<path fill="none" stroke="midnightblue" d="M703.22,-448.61C676.55,-454.01 645.22,-460.36 619.97,-465.48"/>
<polygon fill="midnightblue" stroke="midnightblue" points="704.08,-452.01 713.19,-446.59 702.69,-445.15 704.08,-452.01"/>
</g>
<!-- Node27&#45;&gt;Node6 -->
<g id="edge38" class="edge">
<title>Node27&#45;&gt;Node6</title>
<path fill="none" stroke="midnightblue" d="M686.38,-171.98C568.89,-189.39 341.86,-223.02 230.81,-239.47"/>
<polygon fill="midnightblue" stroke="midnightblue" points="686.99,-175.43 696.37,-170.5 685.96,-168.5 686.99,-175.43"/>
</g>
<!-- Node28&#45;&gt;Node6 -->
<g id="edge42" class="edge">
<title>Node28&#45;&gt;Node6</title>
<path fill="none" stroke="midnightblue" d="M320.45,-166.6C311.18,-170.14 301.74,-173.99 293,-178 251.34,-197.11 204.98,-224.93 181.66,-239.42"/>
<polygon fill="midnightblue" stroke="midnightblue" points="321.86,-169.81 330.01,-163.04 319.41,-163.25 321.86,-169.81"/>
</g>
<!-- Node29 -->
<g id="node29" class="node">
<title>Node29</title>
<g id="a_node29"><a xlink:href="classMainWindow.html#a510d7aa792f074694e8e02e610c764f1" target="_top" xlink:title=" ">
<polygon fill="white" stroke="black" points="97,-152 97,-182 234,-182 234,-152 97,-152"/>
<text text-anchor="start" x="105" y="-170" font-family="Helvetica,sans-Serif" font-size="10.00">MainWindow::controllerMap</text>
<text text-anchor="middle" x="165.5" y="-159" font-family="Helvetica,sans-Serif" font-size="10.00">Opening</text>
</a>
</g>
</g>
<!-- Node28&#45;&gt;Node29 -->
<g id="edge40" class="edge">
<title>Node28&#45;&gt;Node29</title>
<path fill="none" stroke="midnightblue" d="M282.76,-156.43C266.37,-157.92 249.59,-159.45 234.05,-160.86"/>
<polygon fill="midnightblue" stroke="midnightblue" points="283.26,-159.9 292.9,-155.51 282.62,-152.93 283.26,-159.9"/>
</g>
<!-- Node29&#45;&gt;Node3 -->
<g id="edge41" class="edge">
<title>Node29&#45;&gt;Node3</title>
<path fill="none" stroke="midnightblue" d="M121.45,-187.28C104.04,-197.65 85.39,-211.93 74,-230 38.86,-285.74 23.58,-502.1 20.57,-550.4"/>
<polygon fill="midnightblue" stroke="midnightblue" points="123.43,-190.19 130.41,-182.22 119.98,-184.1 123.43,-190.19"/>
</g>
<!-- Node30&#45;&gt;Node6 -->
<g id="edge44" class="edge">
<title>Node30&#45;&gt;Node6</title>
<path fill="none" stroke="midnightblue" d="M683.8,-265.55C566.33,-261.79 343.81,-254.67 232.86,-251.12"/>
<polygon fill="midnightblue" stroke="midnightblue" points="683.7,-269.04 693.8,-265.87 683.92,-262.05 683.7,-269.04"/>
</g>
<!-- Node31&#45;&gt;Node3 -->
<g id="edge47" class="edge">
<title>Node31&#45;&gt;Node3</title>
<path fill="none" stroke="midnightblue" d="M111.45,-742.96C97.79,-737.46 84.11,-729.75 74,-719 32.24,-674.63 22.68,-596.73 20.57,-569.62"/>
<polygon fill="midnightblue" stroke="midnightblue" points="110.27,-746.26 120.86,-746.43 112.69,-739.69 110.27,-746.26"/>
</g>
<!-- Node33&#45;&gt;Node14 -->
<g id="edge50" class="edge">
<title>Node33&#45;&gt;Node14</title>
<path fill="none" stroke="midnightblue" d="M686.7,-501.68C661.79,-495.84 634.9,-489.53 613.54,-484.51"/>
<polygon fill="midnightblue" stroke="midnightblue" points="685.96,-505.1 696.5,-503.98 687.56,-498.29 685.96,-505.1"/>
</g>
<!-- Node34&#45;&gt;Node24 -->
<g id="edge52" class="edge">
<title>Node34&#45;&gt;Node24</title>
<path fill="none" stroke="midnightblue" d="M892.41,-323.09C869.49,-328.72 844.23,-334.93 822.12,-340.36"/>
<polygon fill="midnightblue" stroke="midnightblue" points="893.54,-326.42 902.41,-320.64 891.87,-319.62 893.54,-326.42"/>
</g>
</g>
</svg>
        <g id="navigator" transform="translate(0 0)" fill="#404254">
                <rect fill="#f2f5e9" fill-opacity="0.5" stroke="#606060" stroke-width=".5" x="0" y="0" width="60" height="60"/>
                <use id="zoomplus" xlink:href="#zoomPlus" x="17" y="9" onmousedown="handleZoom(evt,'in')"/>
                <use id="zoomminus" xlink:href="#zoomMin" x="42" y="9" onmousedown="handleZoom(evt,'out')"/>
                <use id="reset" xlink:href="#resetDef" x="30" y="36" onmousedown="handleReset()"/>
                <g id="arrowUp" xlink:href="#dirArrow" transform="translate(30 24)" onmousedown="handlePan(0,-1)">
                  <use xlink:href="#rim" fill="#404040">
                        <set attributeName="fill" to="#808080" begin="arrowUp.mouseover" end="arrowUp.mouseout"/>
                  </use>
                  <path fill="none" stroke="white" stroke-width="1.5" d="M0,-3.0v7 M-2.5,-0.5L0,-3.0L2.5,-0.5"/>
                </g>
                <g id="arrowRight" xlink:href="#dirArrow" transform="rotate(90) translate(36 -43)" onmousedown="handlePan(1,0)">
                  <use xlink:href="#rim" fill="#404040">
                        <set attributeName="fill" to="#808080" begin="arrowRight.mouseover" end="arrowRight.mouseout"/>
                  </use>
                  <path fill="none" stroke="white" stroke-width="1.5" d="M0,-3.0v7 M-2.5,-0.5L0,-3.0L2.5,-0.5"/>
                </g>
                <g id="arrowDown" xlink:href="#dirArrow" transform="rotate(180) translate(-30 -48)" onmousedown="handlePan(0,1)">
                  <use xlink:href="#rim" fill="#404040">
                        <set attributeName="fill" to="#808080" begin="arrowDown.mouseover" end="arrowDown.mouseout"/>
                  </use>
                  <path fill="none" stroke="white" stroke-width="1.5" d="M0,-3.0v7 M-2.5,-0.5L0,-3.0L2.5,-0.5"/>
                </g>
                <g id="arrowLeft" xlink:href="#dirArrow" transform="rotate(270) translate(-36 17)" onmousedown="handlePan(-1,0)">
                  <use xlink:href="#rim" fill="#404040">
                        <set attributeName="fill" to="#808080" begin="arrowLeft.mouseover" end="arrowLeft.mouseout"/>
                  </use>
                  <path fill="none" stroke="white" stroke-width="1.5" d="M0,-3.0v7 M-2.5,-0.5L0,-3.0L2.5,-0.5"/>
                </g>
        </g>
        <svg viewBox="0 0 15 15" width="100%" height="30px" preserveAspectRatio="xMaxYMin meet">
         <g id="arrow_out" transform="scale(0.3 0.3)">
          <a xlink:href="classJoyTabWidget_a2b7d0077726b2b2bf406be8a4fa631af_icgraph_org.svg" target="_base">
           <rect id="button" ry="5" rx="5" y="6" x="6" height="38" width="38"
                fill="#f2f5e9" fill-opacity="0.5" stroke="#606060" stroke-width="1.0"/>
           <path id="arrow"
             d="M 11.500037,31.436501 C 11.940474,20.09759 22.043105,11.32322 32.158766,21.979434 L 37.068811,17.246167 C 37.068811,17.246167 37.088388,32 37.088388,32 L 22.160133,31.978069 C 22.160133,31.978069 26.997745,27.140456 26.997745,27.140456 C 18.528582,18.264221 13.291696,25.230495 11.500037,31.436501 z"
             style="fill:#404040;"/>
          </a>
         </g>
        </svg>
</svg>
