<?xml version="1.0" encoding="UTF-8" standalone="no"?>
<!DOCTYPE svg PUBLIC "-//W3C//DTD SVG 1.1//EN"
 "http://www.w3.org/Graphics/SVG/1.1/DTD/svg11.dtd">
<!-- Generated by graphviz version 2.43.0 (0)
 -->
<!-- Title: VDPad::addVButton Pages: 1 -->
<svg width="695pt" height="225pt"
 viewBox="0.00 0.00 695.00 224.50" xmlns="http://www.w3.org/2000/svg" xmlns:xlink="http://www.w3.org/1999/xlink">
<g id="graph0" class="graph" transform="scale(1 1) rotate(0) translate(4 220.5)">
<title>VDPad::addVButton</title>
<polygon fill="white" stroke="transparent" points="-4,4 -4,-220.5 691,-220.5 691,4 -4,4"/>
<!-- Node1 -->
<g id="node1" class="node">
<title>Node1</title>
<g id="a_node1"><a xlink:title=" ">
<polygon fill="#bfbfbf" stroke="black" points="582,-93.5 582,-112.5 687,-112.5 687,-93.5 582,-93.5"/>
<text text-anchor="middle" x="634.5" y="-100.5" font-family="Helvetica,sans-Serif" font-size="10.00">VDPad::addVButton</text>
</a>
</g>
</g>
<!-- Node2 -->
<g id="node2" class="node">
<title>Node2</title>
<g id="a_node2"><a xlink:href="classAdvanceStickAssignmentDialog.html#a522ba2dc0ec7fecd84518af60d70ad60" target="_top" xlink:title=" ">
<polygon fill="white" stroke="black" points="390,-137 390,-167 546,-167 546,-137 390,-137"/>
<text text-anchor="start" x="398" y="-155" font-family="Helvetica,sans-Serif" font-size="10.00">AdvanceStickAssignmentDialog</text>
<text text-anchor="middle" x="468" y="-144" font-family="Helvetica,sans-Serif" font-size="10.00">::changeVDPadDownButton</text>
</a>
</g>
</g>
<!-- Node1&#45;&gt;Node2 -->
<g id="edge1" class="edge">
<title>Node1&#45;&gt;Node2</title>
<path fill="none" stroke="midnightblue" d="M591.69,-115.45C569.72,-122 542.62,-130.07 519.48,-136.96"/>
<polygon fill="midnightblue" stroke="midnightblue" points="592.81,-118.77 601.39,-112.56 590.81,-112.06 592.81,-118.77"/>
</g>
<!-- Node6 -->
<g id="node6" class="node">
<title>Node6</title>
<g id="a_node6"><a xlink:href="classAdvanceStickAssignmentDialog.html#ae35e7240bf2eb9621c19b1b682485070" target="_top" xlink:title=" ">
<polygon fill="white" stroke="black" points="390,-88 390,-118 546,-118 546,-88 390,-88"/>
<text text-anchor="start" x="398" y="-106" font-family="Helvetica,sans-Serif" font-size="10.00">AdvanceStickAssignmentDialog</text>
<text text-anchor="middle" x="468" y="-95" font-family="Helvetica,sans-Serif" font-size="10.00">::changeVDPadLeftButton</text>
</a>
</g>
</g>
<!-- Node1&#45;&gt;Node6 -->
<g id="edge6" class="edge">
<title>Node1&#45;&gt;Node6</title>
<path fill="none" stroke="midnightblue" d="M571.81,-103C563.39,-103 554.67,-103 546.02,-103"/>
<polygon fill="midnightblue" stroke="midnightblue" points="571.9,-106.5 581.9,-103 571.9,-99.5 571.9,-106.5"/>
</g>
<!-- Node7 -->
<g id="node7" class="node">
<title>Node7</title>
<g id="a_node7"><a xlink:href="classAdvanceStickAssignmentDialog.html#a6fadc91f131b39c936e52c18e54cb755" target="_top" xlink:title=" ">
<polygon fill="white" stroke="black" points="390,-39 390,-69 546,-69 546,-39 390,-39"/>
<text text-anchor="start" x="398" y="-57" font-family="Helvetica,sans-Serif" font-size="10.00">AdvanceStickAssignmentDialog</text>
<text text-anchor="middle" x="468" y="-46" font-family="Helvetica,sans-Serif" font-size="10.00">::changeVDPadRightButton</text>
</a>
</g>
</g>
<!-- Node1&#45;&gt;Node7 -->
<g id="edge9" class="edge">
<title>Node1&#45;&gt;Node7</title>
<path fill="none" stroke="midnightblue" d="M591.69,-90.55C569.72,-84 542.62,-75.93 519.48,-69.04"/>
<polygon fill="midnightblue" stroke="midnightblue" points="590.81,-93.94 601.39,-93.44 592.81,-87.23 590.81,-93.94"/>
</g>
<!-- Node8 -->
<g id="node8" class="node">
<title>Node8</title>
<g id="a_node8"><a xlink:href="classAdvanceStickAssignmentDialog.html#a887c7159d7c067a696e6feb0e4e492b1" target="_top" xlink:title=" ">
<polygon fill="white" stroke="black" points="390,-186 390,-216 546,-216 546,-186 390,-186"/>
<text text-anchor="start" x="398" y="-204" font-family="Helvetica,sans-Serif" font-size="10.00">AdvanceStickAssignmentDialog</text>
<text text-anchor="middle" x="468" y="-193" font-family="Helvetica,sans-Serif" font-size="10.00">::changeVDPadUpButton</text>
</a>
</g>
</g>
<!-- Node1&#45;&gt;Node8 -->
<g id="edge12" class="edge">
<title>Node1&#45;&gt;Node8</title>
<path fill="none" stroke="midnightblue" d="M617.54,-120C601.05,-136.65 573.88,-161.7 546,-177 539.86,-180.37 533.19,-183.34 526.41,-185.93"/>
<polygon fill="midnightblue" stroke="midnightblue" points="620.28,-122.2 624.73,-112.58 615.26,-117.33 620.28,-122.2"/>
</g>
<!-- Node9 -->
<g id="node9" class="node">
<title>Node9</title>
<g id="a_node9"><a xlink:href="classInputDeviceXml.html#a847bf9ed17b554bf87d513a1aebdcb64" target="_top" xlink:title=" ">
<polygon fill="white" stroke="black" points="398,-0.5 398,-19.5 538,-19.5 538,-0.5 398,-0.5"/>
<text text-anchor="middle" x="468" y="-7.5" font-family="Helvetica,sans-Serif" font-size="10.00">InputDeviceXml::readConfig</text>
</a>
</g>
</g>
<!-- Node1&#45;&gt;Node9 -->
<g id="edge15" class="edge">
<title>Node1&#45;&gt;Node9</title>
<path fill="none" stroke="midnightblue" d="M617.99,-85.91C601.68,-68.98 574.48,-43.54 546,-29 538.4,-25.12 529.96,-22 521.54,-19.51"/>
<polygon fill="midnightblue" stroke="midnightblue" points="615.68,-88.57 625.08,-93.46 620.78,-83.77 615.68,-88.57"/>
</g>
<!-- Node3 -->
<g id="node3" class="node">
<title>Node3</title>
<g id="a_node3"><a xlink:href="classAdvanceStickAssignmentDialog.html#a1902ff095496e25a6ed9b37b1b7e752f" target="_top" xlink:title=" ">
<polygon fill="white" stroke="black" points="198,-137 198,-167 354,-167 354,-137 198,-137"/>
<text text-anchor="start" x="206" y="-155" font-family="Helvetica,sans-Serif" font-size="10.00">AdvanceStickAssignmentDialog</text>
<text text-anchor="middle" x="276" y="-144" font-family="Helvetica,sans-Serif" font-size="10.00">::disableVDPadComboBoxes</text>
</a>
</g>
</g>
<!-- Node2&#45;&gt;Node3 -->
<g id="edge2" class="edge">
<title>Node2&#45;&gt;Node3</title>
<path fill="none" stroke="midnightblue" d="M379.94,-152C371.32,-152 362.62,-152 354.12,-152"/>
<polygon fill="midnightblue" stroke="midnightblue" points="379.99,-155.5 389.99,-152 379.99,-148.5 379.99,-155.5"/>
</g>
<!-- Node5 -->
<g id="node5" class="node">
<title>Node5</title>
<g id="a_node5"><a xlink:href="classAdvanceStickAssignmentDialog.html#ad77eed9b3307d10e6c00bc864365fe36" target="_top" xlink:title=" ">
<polygon fill="white" stroke="black" points="198,-88 198,-118 354,-118 354,-88 198,-88"/>
<text text-anchor="start" x="206" y="-106" font-family="Helvetica,sans-Serif" font-size="10.00">AdvanceStickAssignmentDialog</text>
<text text-anchor="middle" x="276" y="-95" font-family="Helvetica,sans-Serif" font-size="10.00">::enableVDPadComboBoxes</text>
</a>
</g>
</g>
<!-- Node2&#45;&gt;Node5 -->
<g id="edge4" class="edge">
<title>Node2&#45;&gt;Node5</title>
<path fill="none" stroke="midnightblue" d="M398.95,-134.45C378.09,-129.07 355.33,-123.2 335.19,-118.01"/>
<polygon fill="midnightblue" stroke="midnightblue" points="398.15,-137.86 408.7,-136.97 399.89,-131.08 398.15,-137.86"/>
</g>
<!-- Node4 -->
<g id="node4" class="node">
<title>Node4</title>
<g id="a_node4"><a xlink:href="classAdvanceStickAssignmentDialog.html#a86cf0001cd774ce5ccec8543b7a9a50b" target="_top" xlink:title=" ">
<polygon fill="white" stroke="black" points="0,-112 0,-142 162,-142 162,-112 0,-112"/>
<text text-anchor="start" x="8" y="-130" font-family="Helvetica,sans-Serif" font-size="10.00">AdvanceStickAssignmentDialog</text>
<text text-anchor="middle" x="81" y="-119" font-family="Helvetica,sans-Serif" font-size="10.00">::AdvanceStickAssignmentDialog</text>
</a>
</g>
</g>
<!-- Node3&#45;&gt;Node4 -->
<g id="edge3" class="edge">
<title>Node3&#45;&gt;Node4</title>
<path fill="none" stroke="midnightblue" d="M187.89,-140.72C179.32,-139.61 170.64,-138.48 162.15,-137.38"/>
<polygon fill="midnightblue" stroke="midnightblue" points="187.52,-144.2 197.89,-142.01 188.42,-137.26 187.52,-144.2"/>
</g>
<!-- Node5&#45;&gt;Node4 -->
<g id="edge5" class="edge">
<title>Node5&#45;&gt;Node4</title>
<path fill="none" stroke="midnightblue" d="M187.89,-113.83C179.32,-114.9 170.64,-115.98 162.15,-117.03"/>
<polygon fill="midnightblue" stroke="midnightblue" points="188.4,-117.3 197.89,-112.59 187.53,-110.35 188.4,-117.3"/>
</g>
<!-- Node6&#45;&gt;Node3 -->
<g id="edge7" class="edge">
<title>Node6&#45;&gt;Node3</title>
<path fill="none" stroke="midnightblue" d="M398.95,-120.55C378.09,-125.93 355.33,-131.8 335.19,-136.99"/>
<polygon fill="midnightblue" stroke="midnightblue" points="399.89,-123.92 408.7,-118.03 398.15,-117.14 399.89,-123.92"/>
</g>
<!-- Node6&#45;&gt;Node5 -->
<g id="edge8" class="edge">
<title>Node6&#45;&gt;Node5</title>
<path fill="none" stroke="midnightblue" d="M379.94,-103C371.32,-103 362.62,-103 354.12,-103"/>
<polygon fill="midnightblue" stroke="midnightblue" points="379.99,-106.5 389.99,-103 379.99,-99.5 379.99,-106.5"/>
</g>
<!-- Node7&#45;&gt;Node3 -->
<g id="edge10" class="edge">
<title>Node7&#45;&gt;Node3</title>
<path fill="none" stroke="midnightblue" d="M396.55,-73.78C394.29,-75.1 392.09,-76.51 390,-78 368,-93.69 375.91,-111.18 354,-127 348.65,-130.87 342.66,-134.16 336.46,-136.95"/>
<polygon fill="midnightblue" stroke="midnightblue" points="398.3,-76.82 405.57,-69.11 395.08,-70.6 398.3,-76.82"/>
</g>
<!-- Node7&#45;&gt;Node5 -->
<g id="edge11" class="edge">
<title>Node7&#45;&gt;Node5</title>
<path fill="none" stroke="midnightblue" d="M398.95,-71.55C378.09,-76.93 355.33,-82.8 335.19,-87.99"/>
<polygon fill="midnightblue" stroke="midnightblue" points="399.89,-74.92 408.7,-69.03 398.15,-68.14 399.89,-74.92"/>
</g>
<!-- Node8&#45;&gt;Node3 -->
<g id="edge13" class="edge">
<title>Node8&#45;&gt;Node3</title>
<path fill="none" stroke="midnightblue" d="M398.95,-183.45C378.09,-178.07 355.33,-172.2 335.19,-167.01"/>
<polygon fill="midnightblue" stroke="midnightblue" points="398.15,-186.86 408.7,-185.97 399.89,-180.08 398.15,-186.86"/>
</g>
<!-- Node8&#45;&gt;Node5 -->
<g id="edge14" class="edge">
<title>Node8&#45;&gt;Node5</title>
<path fill="none" stroke="midnightblue" d="M396.53,-181.24C394.27,-179.92 392.09,-178.5 390,-177 367.78,-160.99 376.22,-143.01 354,-127 349.23,-123.56 343.95,-120.61 338.46,-118.07"/>
<polygon fill="midnightblue" stroke="midnightblue" points="395.05,-184.42 405.54,-185.93 398.29,-178.21 395.05,-184.42"/>
</g>
</g>
</svg>
