<?xml version="1.0" encoding="UTF-8" standalone="no"?>
<!DOCTYPE svg PUBLIC "-//W3C//DTD SVG 1.1//EN"
 "http://www.w3.org/Graphics/SVG/1.1/DTD/svg11.dtd">
<!-- Generated by graphviz version 2.43.0 (0)
 -->
<!-- Title: JoyButton::getMouseDistanceFromDeadZone Pages: 1 -->
<svg width="1666pt" height="780pt"
 viewBox="0.00 0.00 1666.00 780.45" xmlns="http://www.w3.org/2000/svg" xmlns:xlink="http://www.w3.org/1999/xlink">
<g id="graph0" class="graph" transform="scale(1 1) rotate(0) translate(4 776.45)">
<title>JoyButton::getMouseDistanceFromDeadZone</title>
<polygon fill="white" stroke="transparent" points="-4,4 -4,-776.45 1662,-776.45 1662,4 -4,4"/>
<!-- Node1 -->
<g id="node1" class="node">
<title>Node1</title>
<g id="a_node1"><a xlink:title="Get the distance factor that should be used for mouse movement.">
<polygon fill="#bfbfbf" stroke="black" points="1509,-352.5 1509,-382.5 1658,-382.5 1658,-352.5 1509,-352.5"/>
<text text-anchor="start" x="1517" y="-370.5" font-family="Helvetica,sans-Serif" font-size="10.00">JoyButton::getMouseDistance</text>
<text text-anchor="middle" x="1583.5" y="-359.5" font-family="Helvetica,sans-Serif" font-size="10.00">FromDeadZone</text>
</a>
</g>
</g>
<!-- Node2 -->
<g id="node2" class="node">
<title>Node2</title>
<g id="a_node2"><a xlink:href="classJoyButton.html#aa4a7f763f73f9f63b446e0125a713709" target="_top" xlink:title=" ">
<polygon fill="white" stroke="black" points="1331.5,-559.5 1331.5,-589.5 1471.5,-589.5 1471.5,-559.5 1331.5,-559.5"/>
<text text-anchor="start" x="1339.5" y="-577.5" font-family="Helvetica,sans-Serif" font-size="10.00">JoyButton::initializeDistance</text>
<text text-anchor="middle" x="1401.5" y="-566.5" font-family="Helvetica,sans-Serif" font-size="10.00">Values</text>
</a>
</g>
</g>
<!-- Node1&#45;&gt;Node2 -->
<g id="edge1" class="edge">
<title>Node1&#45;&gt;Node2</title>
<path fill="none" stroke="midnightblue" d="M1570.56,-391.92C1552.89,-426.22 1517.06,-489.21 1473,-531.5 1461.52,-542.52 1446.74,-552.07 1433.68,-559.35"/>
<polygon fill="midnightblue" stroke="midnightblue" points="1573.86,-393.15 1575.25,-382.65 1567.61,-389.99 1573.86,-393.15"/>
</g>
<!-- Node4 -->
<g id="node4" class="node">
<title>Node4</title>
<g id="a_node4"><a xlink:href="classJoyButton.html#abb09326682e89c3c32975519ee73dfb0" target="_top" xlink:title=" ">
<polygon fill="white" stroke="black" points="987,-541 987,-560 1091,-560 1091,-541 987,-541"/>
<text text-anchor="middle" x="1039" y="-548" font-family="Helvetica,sans-Serif" font-size="10.00">JoyButton::joyEvent</text>
</a>
</g>
</g>
<!-- Node1&#45;&gt;Node4 -->
<g id="edge40" class="edge">
<title>Node1&#45;&gt;Node4</title>
<path fill="none" stroke="midnightblue" d="M1557.02,-388.72C1535.88,-405.11 1504.32,-426.89 1473,-438.5 1336.32,-489.15 1285.01,-432.76 1148,-482.5 1109.47,-496.49 1070.23,-525.77 1051.42,-540.94"/>
<polygon fill="midnightblue" stroke="midnightblue" points="1559.19,-391.46 1564.86,-382.51 1554.85,-385.97 1559.19,-391.46"/>
</g>
<!-- Node126 -->
<g id="node34" class="node">
<title>Node126</title>
<g id="a_node34"><a xlink:href="classJoyButton.html#ac51fbb4f1b1367d701500921378fddaa" target="_top" xlink:title="Calculate mouse movement coordinates for mouse movement slots currently active.">
<polygon fill="white" stroke="black" points="1341,-235 1341,-254 1462,-254 1462,-235 1341,-235"/>
<text text-anchor="middle" x="1401.5" y="-242" font-family="Helvetica,sans-Serif" font-size="10.00">JoyButton::mouseEvent</text>
</a>
</g>
</g>
<!-- Node1&#45;&gt;Node126 -->
<g id="edge41" class="edge">
<title>Node1&#45;&gt;Node126</title>
<path fill="none" stroke="midnightblue" d="M1563.9,-344.43C1543.82,-321.02 1509.76,-285.34 1473,-264.5 1465.47,-260.23 1456.97,-256.82 1448.54,-254.11"/>
<polygon fill="midnightblue" stroke="midnightblue" points="1561.28,-346.76 1570.39,-352.16 1566.64,-342.25 1561.28,-346.76"/>
</g>
<!-- Node133 -->
<g id="node36" class="node">
<title>Node133</title>
<g id="a_node36"><a xlink:href="classJoyButton.html#a81b400c291611a14a4856e13fad49f76" target="_top" xlink:title=" ">
<polygon fill="white" stroke="black" points="1339,-273.5 1339,-303.5 1464,-303.5 1464,-273.5 1339,-273.5"/>
<text text-anchor="start" x="1347" y="-291.5" font-family="Helvetica,sans-Serif" font-size="10.00">JoyButton::releaseActive</text>
<text text-anchor="middle" x="1401.5" y="-280.5" font-family="Helvetica,sans-Serif" font-size="10.00">Slots</text>
</a>
</g>
</g>
<!-- Node1&#45;&gt;Node133 -->
<g id="edge43" class="edge">
<title>Node1&#45;&gt;Node133</title>
<path fill="none" stroke="midnightblue" d="M1538.86,-348.35C1507.55,-334.61 1465.94,-316.35 1436.96,-303.62"/>
<polygon fill="midnightblue" stroke="midnightblue" points="1537.66,-351.64 1548.22,-352.45 1540.47,-345.23 1537.66,-351.64"/>
</g>
<!-- Node139 -->
<g id="node44" class="node">
<title>Node139</title>
<g id="a_node44"><a xlink:href="classJoyGradientButton.html#aeb260d7d14d0c19360fa34edcf121aa7" target="_top" xlink:title="Activate a turbo event on a button.">
<polygon fill="white" stroke="black" points="801.5,-277.5 801.5,-307.5 905.5,-307.5 905.5,-277.5 801.5,-277.5"/>
<text text-anchor="start" x="809.5" y="-295.5" font-family="Helvetica,sans-Serif" font-size="10.00">JoyGradientButton::</text>
<text text-anchor="middle" x="853.5" y="-284.5" font-family="Helvetica,sans-Serif" font-size="10.00">turboEvent</text>
</a>
</g>
</g>
<!-- Node1&#45;&gt;Node139 -->
<g id="edge59" class="edge">
<title>Node1&#45;&gt;Node139</title>
<path fill="none" stroke="midnightblue" d="M1515.51,-384.8C1429.64,-404.37 1276.52,-430.46 1148,-405.5 1045.43,-385.58 1028.09,-353.5 930,-317.5 920.8,-314.12 910.89,-310.7 901.38,-307.51"/>
<polygon fill="midnightblue" stroke="midnightblue" points="1516.43,-388.18 1525.38,-382.51 1514.85,-381.36 1516.43,-388.18"/>
</g>
<!-- Node191 -->
<g id="node47" class="node">
<title>Node191</title>
<g id="a_node47"><a xlink:href="classJoyButton.html#a50c06702f8781ee7fc49b4a842bd6bc4" target="_top" xlink:title=" ">
<polygon fill="white" stroke="black" points="1330,-491.5 1330,-521.5 1473,-521.5 1473,-491.5 1330,-491.5"/>
<text text-anchor="start" x="1338" y="-509.5" font-family="Helvetica,sans-Serif" font-size="10.00">JoyButton::resetAcceleration</text>
<text text-anchor="middle" x="1401.5" y="-498.5" font-family="Helvetica,sans-Serif" font-size="10.00">Distances</text>
</a>
</g>
</g>
<!-- Node1&#45;&gt;Node191 -->
<g id="edge56" class="edge">
<title>Node1&#45;&gt;Node191</title>
<path fill="none" stroke="midnightblue" d="M1563.93,-390.62C1543.66,-414.65 1509.22,-452.11 1473,-476.5 1464.5,-482.22 1454.74,-487.22 1445.24,-491.4"/>
<polygon fill="midnightblue" stroke="midnightblue" points="1566.79,-392.65 1570.49,-382.72 1561.41,-388.18 1566.79,-392.65"/>
</g>
<!-- Node195 -->
<g id="node49" class="node">
<title>Node195</title>
<g id="a_node49"><a xlink:href="classJoyGradientButton.html#a4f3ade16ee15a36b15b6d8150a22cfd8" target="_top" xlink:title=" ">
<polygon fill="white" stroke="black" points="1346.5,-185.5 1346.5,-215.5 1456.5,-215.5 1456.5,-185.5 1346.5,-185.5"/>
<text text-anchor="start" x="1354.5" y="-203.5" font-family="Helvetica,sans-Serif" font-size="10.00">JoyGradientButton::</text>
<text text-anchor="middle" x="1401.5" y="-192.5" font-family="Helvetica,sans-Serif" font-size="10.00">wheelEventHorizontal</text>
</a>
</g>
</g>
<!-- Node1&#45;&gt;Node195 -->
<g id="edge60" class="edge">
<title>Node1&#45;&gt;Node195</title>
<path fill="none" stroke="midnightblue" d="M1569.77,-343.4C1552.04,-312.04 1517.08,-257.46 1473,-225.5 1467.74,-221.69 1461.85,-218.41 1455.77,-215.61"/>
<polygon fill="midnightblue" stroke="midnightblue" points="1566.81,-345.28 1574.71,-352.34 1572.93,-341.9 1566.81,-345.28"/>
</g>
<!-- Node196 -->
<g id="node50" class="node">
<title>Node196</title>
<g id="a_node50"><a xlink:href="classJoyGradientButton.html#a2adac49f4b2ebf5357f50788ca8935b3" target="_top" xlink:title=" ">
<polygon fill="white" stroke="black" points="1349.5,-136.5 1349.5,-166.5 1453.5,-166.5 1453.5,-136.5 1349.5,-136.5"/>
<text text-anchor="start" x="1357.5" y="-154.5" font-family="Helvetica,sans-Serif" font-size="10.00">JoyGradientButton::</text>
<text text-anchor="middle" x="1401.5" y="-143.5" font-family="Helvetica,sans-Serif" font-size="10.00">wheelEventVertical</text>
</a>
</g>
</g>
<!-- Node1&#45;&gt;Node196 -->
<g id="edge61" class="edge">
<title>Node1&#45;&gt;Node196</title>
<path fill="none" stroke="midnightblue" d="M1574.72,-342.87C1560.75,-302.49 1527.66,-222.12 1473,-176.5 1467.32,-171.76 1460.67,-167.89 1453.77,-164.74"/>
<polygon fill="midnightblue" stroke="midnightblue" points="1571.44,-344.09 1577.94,-352.46 1578.08,-341.87 1571.44,-344.09"/>
</g>
<!-- Node3 -->
<g id="node3" class="node">
<title>Node3</title>
<g id="a_node3"><a xlink:href="classJoyButton.html#afb5704003e2483ff61e142c7a7bd4699" target="_top" xlink:title=" ">
<polygon fill="white" stroke="black" points="1155.5,-579.5 1155.5,-609.5 1286.5,-609.5 1286.5,-579.5 1155.5,-579.5"/>
<text text-anchor="start" x="1163.5" y="-597.5" font-family="Helvetica,sans-Serif" font-size="10.00">JoyButton::startSequence</text>
<text text-anchor="middle" x="1221" y="-586.5" font-family="Helvetica,sans-Serif" font-size="10.00">OfPressActive</text>
</a>
</g>
</g>
<!-- Node2&#45;&gt;Node3 -->
<g id="edge2" class="edge">
<title>Node2&#45;&gt;Node3</title>
<path fill="none" stroke="midnightblue" d="M1321.39,-583.36C1309.8,-584.66 1297.98,-585.99 1286.73,-587.25"/>
<polygon fill="midnightblue" stroke="midnightblue" points="1321.94,-586.82 1331.49,-582.23 1321.16,-579.87 1321.94,-586.82"/>
</g>
<!-- Node3&#45;&gt;Node4 -->
<g id="edge3" class="edge">
<title>Node3&#45;&gt;Node4</title>
<path fill="none" stroke="midnightblue" d="M1148.83,-577.1C1125.01,-571.28 1099.34,-565 1078.91,-560.01"/>
<polygon fill="midnightblue" stroke="midnightblue" points="1148.01,-580.51 1158.56,-579.48 1149.67,-573.71 1148.01,-580.51"/>
</g>
<!-- Node5 -->
<g id="node5" class="node">
<title>Node5</title>
<g id="a_node5"><a xlink:href="classJoyButton.html#a4acc0f1d2e12a34874522f558e1e9d3f" target="_top" xlink:title=" ">
<polygon fill="white" stroke="black" points="786,-535.5 786,-565.5 921,-565.5 921,-535.5 786,-535.5"/>
<text text-anchor="start" x="794" y="-553.5" font-family="Helvetica,sans-Serif" font-size="10.00">JoyButton::activatePending</text>
<text text-anchor="middle" x="853.5" y="-542.5" font-family="Helvetica,sans-Serif" font-size="10.00">Event</text>
</a>
</g>
</g>
<!-- Node4&#45;&gt;Node5 -->
<g id="edge4" class="edge">
<title>Node4&#45;&gt;Node5</title>
<path fill="none" stroke="midnightblue" d="M976.87,-550.5C958.98,-550.5 939.34,-550.5 921.14,-550.5"/>
<polygon fill="midnightblue" stroke="midnightblue" points="976.89,-554 986.89,-550.5 976.88,-547 976.89,-554"/>
</g>
<!-- Node73 -->
<g id="node7" class="node">
<title>Node73</title>
<g id="a_node7"><a xlink:href="classJoyDPad.html#a1f5c5db45f36b205d1c4a43f1616950a" target="_top" xlink:title=" ">
<polygon fill="white" stroke="black" points="784.5,-459 784.5,-478 922.5,-478 922.5,-459 784.5,-459"/>
<text text-anchor="middle" x="853.5" y="-466" font-family="Helvetica,sans-Serif" font-size="10.00">JoyDPad::createDeskEvent</text>
</a>
</g>
</g>
<!-- Node4&#45;&gt;Node73 -->
<g id="edge6" class="edge">
<title>Node4&#45;&gt;Node73</title>
<path fill="none" stroke="midnightblue" d="M1016.04,-535.2C994.87,-521.05 961.48,-500.34 930,-487.5 920.86,-483.77 910.8,-480.63 901.08,-478.03"/>
<polygon fill="midnightblue" stroke="midnightblue" points="1014.09,-538.1 1024.33,-540.81 1018.02,-532.3 1014.09,-538.1"/>
</g>
<!-- Node84 -->
<g id="node10" class="node">
<title>Node84</title>
<g id="a_node10"><a xlink:href="classSetJoystick.html#aa93108aaa5ccbf15f1b56b22ec73798b" target="_top" xlink:title="Perform a release of all elements of a set. Stick and vdpad releases will be handled by the associate...">
<polygon fill="white" stroke="black" points="420,-459 420,-478 524,-478 524,-459 420,-459"/>
<text text-anchor="middle" x="472" y="-466" font-family="Helvetica,sans-Serif" font-size="10.00">SetJoystick::release</text>
</a>
</g>
</g>
<!-- Node4&#45;&gt;Node84 -->
<g id="edge32" class="edge">
<title>Node4&#45;&gt;Node84</title>
<path fill="none" stroke="midnightblue" d="M1025.61,-532.65C1007.71,-508.59 972.12,-466.77 930,-449.5 779.94,-387.96 578.42,-436.71 503.08,-458.94"/>
<polygon fill="midnightblue" stroke="midnightblue" points="1022.88,-534.85 1031.58,-540.91 1028.56,-530.76 1022.88,-534.85"/>
</g>
<!-- Node94 -->
<g id="node20" class="node">
<title>Node94</title>
<g id="a_node20"><a xlink:href="classJoyAxis.html#a0e85739f3da15defbb1ad9ffb7def2d9" target="_top" xlink:title=" ">
<polygon fill="white" stroke="black" points="787,-497 787,-516 920,-516 920,-497 787,-497"/>
<text text-anchor="middle" x="853.5" y="-504" font-family="Helvetica,sans-Serif" font-size="10.00">JoyAxis::createDeskEvent</text>
</a>
</g>
</g>
<!-- Node4&#45;&gt;Node94 -->
<g id="edge22" class="edge">
<title>Node4&#45;&gt;Node94</title>
<path fill="none" stroke="midnightblue" d="M988.08,-538.53C958.59,-531.46 921.75,-522.63 894.24,-516.03"/>
<polygon fill="midnightblue" stroke="midnightblue" points="987.64,-542.02 998.18,-540.95 989.28,-535.22 987.64,-542.02"/>
</g>
<!-- Node98 -->
<g id="node22" class="node">
<title>Node98</title>
<g id="a_node22"><a xlink:href="classJoyControlStick.html#a18e586ffa9f2fc09004dd1ebc895b3a8" target="_top" xlink:title="Find the position of the two stick axes, deactivate no longer used stick direction button and then ac...">
<polygon fill="white" stroke="black" points="591.5,-710.5 591.5,-740.5 733.5,-740.5 733.5,-710.5 591.5,-710.5"/>
<text text-anchor="start" x="599.5" y="-728.5" font-family="Helvetica,sans-Serif" font-size="10.00">JoyControlStick::createDesk</text>
<text text-anchor="middle" x="662.5" y="-717.5" font-family="Helvetica,sans-Serif" font-size="10.00">Event</text>
</a>
</g>
</g>
<!-- Node4&#45;&gt;Node98 -->
<g id="edge25" class="edge">
<title>Node4&#45;&gt;Node98</title>
<path fill="none" stroke="midnightblue" d="M1034.25,-570.3C1025.09,-612.44 997.2,-710.42 930,-750.5 856.37,-794.42 750.45,-762.05 697.02,-740.54"/>
<polygon fill="midnightblue" stroke="midnightblue" points="1037.7,-570.92 1036.28,-560.42 1030.84,-569.52 1037.7,-570.92"/>
</g>
<!-- Node106 -->
<g id="node25" class="node">
<title>Node106</title>
<g id="a_node25"><a xlink:href="classJoyControlStick.html#a0bd5c24e572f9485780820d54f755b88" target="_top" xlink:title="Activate a stick direction button.">
<polygon fill="white" stroke="black" points="791,-710.5 791,-740.5 916,-740.5 916,-710.5 791,-710.5"/>
<text text-anchor="start" x="799" y="-728.5" font-family="Helvetica,sans-Serif" font-size="10.00">JoyControlStick::perform</text>
<text text-anchor="middle" x="853.5" y="-717.5" font-family="Helvetica,sans-Serif" font-size="10.00">ButtonPress</text>
</a>
</g>
</g>
<!-- Node4&#45;&gt;Node106 -->
<g id="edge28" class="edge">
<title>Node4&#45;&gt;Node106</title>
<path fill="none" stroke="midnightblue" d="M1029.4,-569.23C1013.96,-600.85 978.55,-664.86 930,-700.5 924.77,-704.34 918.91,-707.61 912.84,-710.4"/>
<polygon fill="midnightblue" stroke="midnightblue" points="1032.58,-570.71 1033.71,-560.18 1026.25,-567.71 1032.58,-570.71"/>
</g>
<!-- Node107 -->
<g id="node26" class="node">
<title>Node107</title>
<g id="a_node26"><a xlink:href="classJoyControlStick.html#a32b6c7a796ec7b24e9c0124a6bcffd2e" target="_top" xlink:title="Stick direction button to release.">
<polygon fill="white" stroke="black" points="791,-584.5 791,-614.5 916,-614.5 916,-584.5 791,-584.5"/>
<text text-anchor="start" x="799" y="-602.5" font-family="Helvetica,sans-Serif" font-size="10.00">JoyControlStick::perform</text>
<text text-anchor="middle" x="853.5" y="-591.5" font-family="Helvetica,sans-Serif" font-size="10.00">ButtonRelease</text>
</a>
</g>
</g>
<!-- Node4&#45;&gt;Node107 -->
<g id="edge30" class="edge">
<title>Node4&#45;&gt;Node107</title>
<path fill="none" stroke="midnightblue" d="M992.35,-562.69C967.67,-569.28 936.97,-577.48 910.81,-584.46"/>
<polygon fill="midnightblue" stroke="midnightblue" points="993.43,-566.03 1002.18,-560.06 991.62,-559.26 993.43,-566.03"/>
</g>
<!-- Node108 -->
<g id="node27" class="node">
<title>Node108</title>
<g id="a_node27"><a xlink:href="classJoyControlStick.html#a295a9b9b1a5c4d3a49c9d9697a9527e0" target="_top" xlink:title=" ">
<polygon fill="white" stroke="black" points="792,-365.5 792,-395.5 915,-395.5 915,-365.5 792,-365.5"/>
<text text-anchor="start" x="800" y="-383.5" font-family="Helvetica,sans-Serif" font-size="10.00">JoyControlStick::release</text>
<text text-anchor="middle" x="853.5" y="-372.5" font-family="Helvetica,sans-Serif" font-size="10.00">ButtonEvents</text>
</a>
</g>
</g>
<!-- Node4&#45;&gt;Node108 -->
<g id="edge33" class="edge">
<title>Node4&#45;&gt;Node108</title>
<path fill="none" stroke="midnightblue" d="M1028.17,-532.09C1011.59,-502.62 975.37,-444.7 930,-410.5 922.12,-404.56 912.9,-399.62 903.67,-395.59"/>
<polygon fill="midnightblue" stroke="midnightblue" points="1025.14,-533.85 1033.03,-540.92 1031.27,-530.47 1025.14,-533.85"/>
</g>
<!-- Node121 -->
<g id="node30" class="node">
<title>Node121</title>
<g id="a_node30"><a xlink:href="classJoyDPad.html#aa20b65bef79d9e80894a9be835b441c1" target="_top" xlink:title=" ">
<polygon fill="white" stroke="black" points="777,-327 777,-346 930,-346 930,-327 777,-327"/>
<text text-anchor="middle" x="853.5" y="-334" font-family="Helvetica,sans-Serif" font-size="10.00">JoyDPad::releaseButtonEvents</text>
</a>
</g>
</g>
<!-- Node4&#45;&gt;Node121 -->
<g id="edge36" class="edge">
<title>Node4&#45;&gt;Node121</title>
<path fill="none" stroke="midnightblue" d="M1025.31,-532.7C1010.16,-511.04 984.55,-473.08 966,-438.5 947.18,-403.43 960.24,-382.38 930,-356.5 924.95,-352.18 919.07,-348.78 912.86,-346.11"/>
<polygon fill="midnightblue" stroke="midnightblue" points="1022.48,-534.77 1031.11,-540.93 1028.21,-530.74 1022.48,-534.77"/>
</g>
<!-- Node124 -->
<g id="node32" class="node">
<title>Node124</title>
<g id="a_node32"><a xlink:href="classJoyAxis.html#a8df3e761cbf9876ab5a3db30c1a02fc3" target="_top" xlink:title=" ">
<polygon fill="white" stroke="red" points="790.5,-672 790.5,-691 916.5,-691 916.5,-672 790.5,-672"/>
<text text-anchor="middle" x="853.5" y="-679" font-family="Helvetica,sans-Serif" font-size="10.00">JoyAxis::removeVDPads</text>
</a>
</g>
</g>
<!-- Node4&#45;&gt;Node124 -->
<g id="edge38" class="edge">
<title>Node4&#45;&gt;Node124</title>
<path fill="none" stroke="midnightblue" d="M1025.93,-568.22C1007.98,-593.15 971.84,-638.26 930,-662.5 923.33,-666.36 915.89,-669.45 908.35,-671.91"/>
<polygon fill="midnightblue" stroke="midnightblue" points="1028.8,-570.21 1031.69,-560.02 1023.08,-566.18 1028.8,-570.21"/>
</g>
<!-- Node125 -->
<g id="node33" class="node">
<title>Node125</title>
<g id="a_node33"><a xlink:href="classJoyButton.html#ad152d22f7f7d8ea561f363d43903e059" target="_top" xlink:title=" ">
<polygon fill="white" stroke="red" points="797.5,-634 797.5,-653 909.5,-653 909.5,-634 797.5,-634"/>
<text text-anchor="middle" x="853.5" y="-641" font-family="Helvetica,sans-Serif" font-size="10.00">JoyButton::setVDPad</text>
</a>
</g>
</g>
<!-- Node4&#45;&gt;Node125 -->
<g id="edge39" class="edge">
<title>Node4&#45;&gt;Node125</title>
<path fill="none" stroke="midnightblue" d="M1018.87,-566.75C998.22,-583.51 963.72,-609.29 930,-624.5 921.62,-628.28 912.37,-631.39 903.29,-633.92"/>
<polygon fill="midnightblue" stroke="midnightblue" points="1021.35,-569.24 1026.84,-560.17 1016.9,-563.84 1021.35,-569.24"/>
</g>
<!-- Node6 -->
<g id="node6" class="node">
<title>Node6</title>
<g id="a_node6"><a xlink:href="classInputDevice.html#af5f9f9065334b90aa45d4c86a63337f1" target="_top" xlink:title=" ">
<polygon fill="white" stroke="red" points="589.5,-579.5 589.5,-609.5 735.5,-609.5 735.5,-579.5 589.5,-579.5"/>
<text text-anchor="start" x="597.5" y="-597.5" font-family="Helvetica,sans-Serif" font-size="10.00">InputDevice::activatePossible</text>
<text text-anchor="middle" x="662.5" y="-586.5" font-family="Helvetica,sans-Serif" font-size="10.00">ButtonEvents</text>
</a>
</g>
</g>
<!-- Node5&#45;&gt;Node6 -->
<g id="edge5" class="edge">
<title>Node5&#45;&gt;Node6</title>
<path fill="none" stroke="midnightblue" d="M777.86,-567.88C761.39,-571.71 744.07,-575.74 728.04,-579.47"/>
<polygon fill="midnightblue" stroke="midnightblue" points="779.04,-571.2 787.99,-565.52 777.45,-564.38 779.04,-571.2"/>
</g>
<!-- Node74 -->
<g id="node8" class="node">
<title>Node74</title>
<g id="a_node8"><a xlink:href="classJoyDPad.html#adfcee6e2b57a7e643c74c26159a32997" target="_top" xlink:title=" ">
<polygon fill="white" stroke="red" points="584,-453.5 584,-483.5 741,-483.5 741,-453.5 584,-453.5"/>
<text text-anchor="start" x="592" y="-471.5" font-family="Helvetica,sans-Serif" font-size="10.00">JoyDPad::dpadDirectionChange</text>
<text text-anchor="middle" x="662.5" y="-460.5" font-family="Helvetica,sans-Serif" font-size="10.00">Event</text>
</a>
</g>
</g>
<!-- Node73&#45;&gt;Node74 -->
<g id="edge7" class="edge">
<title>Node73&#45;&gt;Node74</title>
<path fill="none" stroke="midnightblue" d="M774,-468.5C763.18,-468.5 752.07,-468.5 741.26,-468.5"/>
<polygon fill="midnightblue" stroke="midnightblue" points="774.27,-472 784.27,-468.5 774.27,-465 774.27,-472"/>
</g>
<!-- Node76 -->
<g id="node9" class="node">
<title>Node76</title>
<g id="a_node9"><a xlink:href="classJoyDPad.html#ac660764f3e958b5c1cf9da1a5d2f2398" target="_top" xlink:title=" ">
<polygon fill="white" stroke="red" points="612,-503 612,-522 713,-522 713,-503 612,-503"/>
<text text-anchor="middle" x="662.5" y="-510" font-family="Helvetica,sans-Serif" font-size="10.00">JoyDPad::joyEvent</text>
</a>
</g>
</g>
<!-- Node73&#45;&gt;Node76 -->
<g id="edge8" class="edge">
<title>Node73&#45;&gt;Node76</title>
<path fill="none" stroke="midnightblue" d="M801.49,-480.38C771.04,-487.46 732.89,-496.34 704.43,-502.97"/>
<polygon fill="midnightblue" stroke="midnightblue" points="802.54,-483.72 811.49,-478.05 800.96,-476.91 802.54,-483.72"/>
</g>
<!-- Node76&#45;&gt;Node84 -->
<g id="edge9" class="edge">
<title>Node76&#45;&gt;Node84</title>
<path fill="none" stroke="midnightblue" d="M610.62,-500.62C580.26,-493.54 542.21,-484.66 513.82,-478.03"/>
<polygon fill="midnightblue" stroke="midnightblue" points="610.06,-504.09 620.6,-502.95 611.66,-497.27 610.06,-504.09"/>
</g>
<!-- Node85 -->
<g id="node11" class="node">
<title>Node85</title>
<g id="a_node11"><a xlink:href="classAdvanceStickAssignmentDialog.html#a86cf0001cd774ce5ccec8543b7a9a50b" target="_top" xlink:title=" ">
<polygon fill="white" stroke="black" points="0,-612.5 0,-642.5 162,-642.5 162,-612.5 0,-612.5"/>
<text text-anchor="start" x="8" y="-630.5" font-family="Helvetica,sans-Serif" font-size="10.00">AdvanceStickAssignmentDialog</text>
<text text-anchor="middle" x="81" y="-619.5" font-family="Helvetica,sans-Serif" font-size="10.00">::AdvanceStickAssignmentDialog</text>
</a>
</g>
</g>
<!-- Node84&#45;&gt;Node85 -->
<g id="edge10" class="edge">
<title>Node84&#45;&gt;Node85</title>
<path fill="none" stroke="midnightblue" d="M459.79,-486.62C442.17,-513.39 405.27,-562.86 360,-586.5 326.48,-604 231.64,-615.34 162.02,-621.56"/>
<polygon fill="midnightblue" stroke="midnightblue" points="462.75,-488.49 465.2,-478.18 456.86,-484.71 462.75,-488.49"/>
</g>
<!-- Node86 -->
<g id="node12" class="node">
<title>Node86</title>
<g id="a_node12"><a xlink:href="classButtonEditDialog.html#a3e9feede100cbb6a11c9d87659c196ea" target="_top" xlink:title=" ">
<polygon fill="white" stroke="black" points="216.5,-546.5 216.5,-576.5 341.5,-576.5 341.5,-546.5 216.5,-546.5"/>
<text text-anchor="start" x="224.5" y="-564.5" font-family="Helvetica,sans-Serif" font-size="10.00">ButtonEditDialog::Button</text>
<text text-anchor="middle" x="279" y="-553.5" font-family="Helvetica,sans-Serif" font-size="10.00">EditDialog</text>
</a>
</g>
</g>
<!-- Node84&#45;&gt;Node86 -->
<g id="edge11" class="edge">
<title>Node84&#45;&gt;Node86</title>
<path fill="none" stroke="midnightblue" d="M449.82,-484.04C428.16,-499.36 393.08,-522.57 360,-537.5 352.73,-540.78 344.89,-543.76 337.06,-546.41"/>
<polygon fill="midnightblue" stroke="midnightblue" points="451.88,-486.88 457.97,-478.21 447.81,-481.18 451.88,-486.88"/>
</g>
<!-- Node87 -->
<g id="node13" class="node">
<title>Node87</title>
<g id="a_node13"><a xlink:href="classJoystickStatusWindow.html#a96d9e83b764e14faed4c4dc275d23c45" target="_top" xlink:title=" ">
<polygon fill="white" stroke="black" points="20,-465.5 20,-495.5 142,-495.5 142,-465.5 20,-465.5"/>
<text text-anchor="start" x="28" y="-483.5" font-family="Helvetica,sans-Serif" font-size="10.00">JoystickStatusWindow</text>
<text text-anchor="middle" x="81" y="-472.5" font-family="Helvetica,sans-Serif" font-size="10.00">::JoystickStatusWindow</text>
</a>
</g>
</g>
<!-- Node84&#45;&gt;Node87 -->
<g id="edge12" class="edge">
<title>Node84&#45;&gt;Node87</title>
<path fill="none" stroke="midnightblue" d="M409.31,-470.4C336.12,-472.66 214.9,-476.4 142.32,-478.64"/>
<polygon fill="midnightblue" stroke="midnightblue" points="409.86,-473.89 419.75,-470.08 409.64,-466.89 409.86,-473.89"/>
</g>
<!-- Node88 -->
<g id="node14" class="node">
<title>Node88</title>
<g id="a_node14"><a xlink:href="classQuickSetDialog.html#a57726006cbe2d8534f4be91a05646dd2" target="_top" xlink:title=" ">
<polygon fill="white" stroke="black" points="15.5,-397.5 15.5,-427.5 146.5,-427.5 146.5,-397.5 15.5,-397.5"/>
<text text-anchor="start" x="23.5" y="-415.5" font-family="Helvetica,sans-Serif" font-size="10.00">QuickSetDialog::QuickSet</text>
<text text-anchor="middle" x="81" y="-404.5" font-family="Helvetica,sans-Serif" font-size="10.00">Dialog</text>
</a>
</g>
</g>
<!-- Node84&#45;&gt;Node88 -->
<g id="edge13" class="edge">
<title>Node84&#45;&gt;Node88</title>
<path fill="none" stroke="midnightblue" d="M452.25,-452.47C431.35,-435.75 395.75,-410.58 360,-400.5 288.98,-380.47 203.73,-388.62 146.53,-398.45"/>
<polygon fill="midnightblue" stroke="midnightblue" points="450.07,-455.21 460.02,-458.84 454.51,-449.79 450.07,-455.21"/>
</g>
<!-- Node89 -->
<g id="node15" class="node">
<title>Node89</title>
<g id="a_node15"><a xlink:href="classAdvanceStickAssignmentDialog.html#a48ade79f1dfeb93ff668ac18d0e1243f" target="_top" xlink:title=" ">
<polygon fill="white" stroke="black" points="201,-634.5 201,-664.5 357,-664.5 357,-634.5 201,-634.5"/>
<text text-anchor="start" x="209" y="-652.5" font-family="Helvetica,sans-Serif" font-size="10.00">AdvanceStickAssignmentDialog</text>
<text text-anchor="middle" x="279" y="-641.5" font-family="Helvetica,sans-Serif" font-size="10.00">::reenableButtonEvents</text>
</a>
</g>
</g>
<!-- Node84&#45;&gt;Node89 -->
<g id="edge14" class="edge">
<title>Node84&#45;&gt;Node89</title>
<path fill="none" stroke="midnightblue" d="M461.91,-487.15C445.65,-518.67 408.69,-582.65 360,-619.5 352.08,-625.5 342.82,-630.41 333.47,-634.4"/>
<polygon fill="midnightblue" stroke="midnightblue" points="465.08,-488.63 466.45,-478.13 458.83,-485.49 465.08,-488.63"/>
</g>
<!-- Node90 -->
<g id="node16" class="node">
<title>Node90</title>
<g id="a_node16"><a xlink:href="classJoystickStatusWindow.html#a1a1c28e1d6f480c7424ba81b30b8b4f5" target="_top" xlink:title=" ">
<polygon fill="white" stroke="black" points="221,-497.5 221,-527.5 337,-527.5 337,-497.5 221,-497.5"/>
<text text-anchor="start" x="229" y="-515.5" font-family="Helvetica,sans-Serif" font-size="10.00">JoystickStatusWindow</text>
<text text-anchor="middle" x="279" y="-504.5" font-family="Helvetica,sans-Serif" font-size="10.00">::restoreButtonStates</text>
</a>
</g>
</g>
<!-- Node84&#45;&gt;Node90 -->
<g id="edge16" class="edge">
<title>Node84&#45;&gt;Node90</title>
<path fill="none" stroke="midnightblue" d="M419.74,-480.31C394.31,-486.17 363.51,-493.26 337.3,-499.3"/>
<polygon fill="midnightblue" stroke="midnightblue" points="420.6,-483.7 429.56,-478.05 419.03,-476.88 420.6,-483.7"/>
</g>
<!-- Node91 -->
<g id="node17" class="node">
<title>Node91</title>
<g id="a_node17"><a xlink:href="classGameControllerMappingDialogHelper.html#a4040e6cf676fe8af751125e2928d8a35" target="_top" xlink:title=" ">
<polygon fill="white" stroke="black" points="198,-321.5 198,-351.5 360,-351.5 360,-321.5 198,-321.5"/>
<text text-anchor="start" x="206" y="-339.5" font-family="Helvetica,sans-Serif" font-size="10.00">GameControllerMappingDialog</text>
<text text-anchor="middle" x="279" y="-328.5" font-family="Helvetica,sans-Serif" font-size="10.00">Helper::restoreDeviceDeadZones</text>
</a>
</g>
</g>
<!-- Node84&#45;&gt;Node91 -->
<g id="edge18" class="edge">
<title>Node84&#45;&gt;Node91</title>
<path fill="none" stroke="midnightblue" d="M456,-451.07C436.05,-428.8 398.75,-390.31 360,-366.5 350.52,-360.68 339.73,-355.69 329.21,-351.55"/>
<polygon fill="midnightblue" stroke="midnightblue" points="453.53,-453.56 462.77,-458.74 458.78,-448.93 453.53,-453.56"/>
</g>
<!-- Node92 -->
<g id="node18" class="node">
<title>Node92</title>
<g id="a_node18"><a xlink:href="classQuickSetDialog.html#afacbf395389ca073edf366a412c1626b" target="_top" xlink:title=" ">
<polygon fill="white" stroke="black" points="200.5,-409.5 200.5,-439.5 357.5,-439.5 357.5,-409.5 200.5,-409.5"/>
<text text-anchor="start" x="208.5" y="-427.5" font-family="Helvetica,sans-Serif" font-size="10.00">QuickSetDialog::restoreJoystick</text>
<text text-anchor="middle" x="279" y="-416.5" font-family="Helvetica,sans-Serif" font-size="10.00">State</text>
</a>
</g>
</g>
<!-- Node84&#45;&gt;Node92 -->
<g id="edge19" class="edge">
<title>Node84&#45;&gt;Node92</title>
<path fill="none" stroke="midnightblue" d="M419.72,-456.69C396.87,-451.42 369.69,-445.16 345.4,-439.57"/>
<polygon fill="midnightblue" stroke="midnightblue" points="419.03,-460.12 429.56,-458.95 420.6,-453.3 419.03,-460.12"/>
</g>
<!-- Node93 -->
<g id="node19" class="node">
<title>Node93</title>
<g id="a_node19"><a xlink:href="classGameControllerMappingDialogHelper.html#a7852aab5763281aa59c17f2f1da8dd31" target="_top" xlink:title=" ">
<polygon fill="white" stroke="black" points="204.5,-272.5 204.5,-302.5 353.5,-302.5 353.5,-272.5 204.5,-272.5"/>
<text text-anchor="start" x="212.5" y="-290.5" font-family="Helvetica,sans-Serif" font-size="10.00">GameControllerMappingDialog</text>
<text text-anchor="middle" x="279" y="-279.5" font-family="Helvetica,sans-Serif" font-size="10.00">Helper::setupDeadZones</text>
</a>
</g>
</g>
<!-- Node84&#45;&gt;Node93 -->
<g id="edge21" class="edge">
<title>Node84&#45;&gt;Node93</title>
<path fill="none" stroke="midnightblue" d="M462.52,-449.4C446.96,-416.55 410.74,-349.31 360,-312.5 354.7,-308.65 348.79,-305.39 342.65,-302.62"/>
<polygon fill="midnightblue" stroke="midnightblue" points="459.47,-451.16 466.84,-458.78 465.83,-448.23 459.47,-451.16"/>
</g>
<!-- Node89&#45;&gt;Node85 -->
<g id="edge15" class="edge">
<title>Node89&#45;&gt;Node85</title>
<path fill="none" stroke="midnightblue" d="M190.87,-639.72C181.27,-638.64 171.52,-637.55 162.01,-636.48"/>
<polygon fill="midnightblue" stroke="midnightblue" points="190.49,-643.2 200.82,-640.84 191.27,-636.24 190.49,-643.2"/>
</g>
<!-- Node90&#45;&gt;Node87 -->
<g id="edge17" class="edge">
<title>Node90&#45;&gt;Node87</title>
<path fill="none" stroke="midnightblue" d="M210.72,-501.52C188.41,-497.87 163.74,-493.85 142.02,-490.3"/>
<polygon fill="midnightblue" stroke="midnightblue" points="210.35,-505 220.78,-503.16 211.48,-498.09 210.35,-505"/>
</g>
<!-- Node92&#45;&gt;Node88 -->
<g id="edge20" class="edge">
<title>Node92&#45;&gt;Node88</title>
<path fill="none" stroke="midnightblue" d="M190.19,-419.12C175.57,-418.23 160.63,-417.31 146.72,-416.46"/>
<polygon fill="midnightblue" stroke="midnightblue" points="190.06,-422.62 200.25,-419.74 190.49,-415.64 190.06,-422.62"/>
</g>
<!-- Node95 -->
<g id="node21" class="node">
<title>Node95</title>
<g id="a_node21"><a xlink:href="classJoyAxis.html#a9c5f69db8b88f31a1df043a00ab9d09a" target="_top" xlink:title=" ">
<polygon fill="white" stroke="red" points="615,-541 615,-560 710,-560 710,-541 615,-541"/>
<text text-anchor="middle" x="662.5" y="-548" font-family="Helvetica,sans-Serif" font-size="10.00">JoyAxis::joyEvent</text>
</a>
</g>
</g>
<!-- Node94&#45;&gt;Node95 -->
<g id="edge23" class="edge">
<title>Node94&#45;&gt;Node95</title>
<path fill="none" stroke="midnightblue" d="M801.49,-518.38C771.04,-525.46 732.89,-534.34 704.43,-540.97"/>
<polygon fill="midnightblue" stroke="midnightblue" points="802.54,-521.72 811.49,-516.05 800.96,-514.91 802.54,-521.72"/>
</g>
<!-- Node95&#45;&gt;Node84 -->
<g id="edge24" class="edge">
<title>Node95&#45;&gt;Node84</title>
<path fill="none" stroke="midnightblue" d="M605.15,-538.63C597.94,-536.55 590.73,-534.17 584,-531.5 547.14,-516.85 507.56,-491.89 487.08,-478.19"/>
<polygon fill="midnightblue" stroke="midnightblue" points="604.38,-542.05 614.95,-541.3 606.22,-535.29 604.38,-542.05"/>
</g>
<!-- Node99 -->
<g id="node23" class="node">
<title>Node99</title>
<g id="a_node23"><a xlink:href="classJoyControlStick.html#a376fa9faaaba5e00c4b1f9c8caa6236a" target="_top" xlink:title="Take the input value for the two axes that make up a stick and activate the proper event based on the...">
<polygon fill="white" stroke="red" points="407.5,-738 407.5,-757 536.5,-757 536.5,-738 407.5,-738"/>
<text text-anchor="middle" x="472" y="-745" font-family="Helvetica,sans-Serif" font-size="10.00">JoyControlStick::joyEvent</text>
</a>
</g>
</g>
<!-- Node98&#45;&gt;Node99 -->
<g id="edge26" class="edge">
<title>Node98&#45;&gt;Node99</title>
<path fill="none" stroke="midnightblue" d="M581.13,-734.88C566.29,-736.61 550.98,-738.4 536.71,-740.06"/>
<polygon fill="midnightblue" stroke="midnightblue" points="581.78,-738.33 591.31,-733.69 580.97,-731.37 581.78,-738.33"/>
</g>
<!-- Node104 -->
<g id="node24" class="node">
<title>Node104</title>
<g id="a_node24"><a xlink:href="classJoyControlStick.html#a1eada62b1da2f1a87dd698a19cc59ae4" target="_top" xlink:title="Slot called when directionDelayTimer has timed out. The method will call createDeskEvent.">
<polygon fill="white" stroke="red" points="396,-688.5 396,-718.5 548,-718.5 548,-688.5 396,-688.5"/>
<text text-anchor="start" x="404" y="-706.5" font-family="Helvetica,sans-Serif" font-size="10.00">JoyControlStick::stickDirection</text>
<text text-anchor="middle" x="472" y="-695.5" font-family="Helvetica,sans-Serif" font-size="10.00">ChangeEvent</text>
</a>
</g>
</g>
<!-- Node98&#45;&gt;Node104 -->
<g id="edge27" class="edge">
<title>Node98&#45;&gt;Node104</title>
<path fill="none" stroke="midnightblue" d="M581.34,-716.14C570.38,-714.87 559.17,-713.56 548.3,-712.29"/>
<polygon fill="midnightblue" stroke="midnightblue" points="580.97,-719.63 591.31,-717.31 581.78,-712.67 580.97,-719.63"/>
</g>
<!-- Node106&#45;&gt;Node98 -->
<g id="edge29" class="edge">
<title>Node106&#45;&gt;Node98</title>
<path fill="none" stroke="midnightblue" d="M780.84,-725.5C765.35,-725.5 748.99,-725.5 733.56,-725.5"/>
<polygon fill="midnightblue" stroke="midnightblue" points="780.88,-729 790.88,-725.5 780.88,-722 780.88,-729"/>
</g>
<!-- Node107&#45;&gt;Node98 -->
<g id="edge31" class="edge">
<title>Node107&#45;&gt;Node98</title>
<path fill="none" stroke="midnightblue" d="M788.62,-618.54C784.61,-620.38 780.7,-622.36 777,-624.5 735.88,-648.23 696.47,-688.53 676.7,-710.36"/>
<polygon fill="midnightblue" stroke="midnightblue" points="790.28,-621.64 798.12,-614.51 787.55,-615.19 790.28,-621.64"/>
</g>
<!-- Node109 -->
<g id="node28" class="node">
<title>Node109</title>
<g id="a_node28"><a xlink:href="classJoyControlStickEditDialog.html#aec8873b859f10e904c9ddde9b22c3413" target="_top" xlink:title=" ">
<polygon fill="white" stroke="red" points="597,-327.5 597,-357.5 728,-357.5 728,-327.5 597,-327.5"/>
<text text-anchor="start" x="605" y="-345.5" font-family="Helvetica,sans-Serif" font-size="10.00">JoyControlStickEditDialog</text>
<text text-anchor="middle" x="662.5" y="-334.5" font-family="Helvetica,sans-Serif" font-size="10.00">::implementModes</text>
</a>
</g>
</g>
<!-- Node108&#45;&gt;Node109 -->
<g id="edge34" class="edge">
<title>Node108&#45;&gt;Node109</title>
<path fill="none" stroke="midnightblue" d="M781.75,-366.28C764.23,-362.75 745.53,-358.99 728.31,-355.53"/>
<polygon fill="midnightblue" stroke="midnightblue" points="781.43,-369.78 791.92,-368.32 782.81,-362.92 781.43,-369.78"/>
</g>
<!-- Node111 -->
<g id="node29" class="node">
<title>Node111</title>
<g id="a_node29"><a xlink:href="classJoyAxis.html#aa013bcc6b2391c594f043f8fe0f9b1f2" target="_top" xlink:title=" ">
<polygon fill="white" stroke="red" points="591,-377 591,-396 734,-396 734,-377 591,-377"/>
<text text-anchor="middle" x="662.5" y="-384" font-family="Helvetica,sans-Serif" font-size="10.00">JoyAxis::removeControlStick</text>
</a>
</g>
</g>
<!-- Node108&#45;&gt;Node111 -->
<g id="edge35" class="edge">
<title>Node108&#45;&gt;Node111</title>
<path fill="none" stroke="midnightblue" d="M781.85,-382.74C766.3,-383.24 749.83,-383.76 734.28,-384.25"/>
<polygon fill="midnightblue" stroke="midnightblue" points="782.04,-386.24 791.92,-382.42 781.81,-379.24 782.04,-386.24"/>
</g>
<!-- Node122 -->
<g id="node31" class="node">
<title>Node122</title>
<g id="a_node31"><a xlink:href="classDPadEditDialog.html#adfad573034ea62490614303638c16040" target="_top" xlink:title=" ">
<polygon fill="white" stroke="red" points="594,-278.5 594,-308.5 731,-308.5 731,-278.5 594,-278.5"/>
<text text-anchor="start" x="602" y="-296.5" font-family="Helvetica,sans-Serif" font-size="10.00">DPadEditDialog::implement</text>
<text text-anchor="middle" x="662.5" y="-285.5" font-family="Helvetica,sans-Serif" font-size="10.00">Modes</text>
</a>
</g>
</g>
<!-- Node121&#45;&gt;Node122 -->
<g id="edge37" class="edge">
<title>Node121&#45;&gt;Node122</title>
<path fill="none" stroke="midnightblue" d="M800.74,-324.72C778.74,-319.72 752.81,-313.82 729.46,-308.51"/>
<polygon fill="midnightblue" stroke="midnightblue" points="800.03,-328.15 810.55,-326.96 801.58,-321.33 800.03,-328.15"/>
</g>
<!-- Node127 -->
<g id="node35" class="node">
<title>Node127</title>
<g id="a_node35"><a xlink:href="classJoyButtonMouseHelper.html#a7bf98a02c2949419a441fa9213251ff5" target="_top" xlink:title="Perform mouse events for all buttons and slots.">
<polygon fill="white" stroke="red" points="1161.5,-0.5 1161.5,-30.5 1280.5,-30.5 1280.5,-0.5 1161.5,-0.5"/>
<text text-anchor="start" x="1169.5" y="-18.5" font-family="Helvetica,sans-Serif" font-size="10.00">JoyButtonMouseHelper</text>
<text text-anchor="middle" x="1221" y="-7.5" font-family="Helvetica,sans-Serif" font-size="10.00">::mouseEvent</text>
</a>
</g>
</g>
<!-- Node126&#45;&gt;Node127 -->
<g id="edge42" class="edge">
<title>Node126&#45;&gt;Node127</title>
<path fill="none" stroke="midnightblue" d="M1333.88,-229.17C1332.51,-228.03 1331.22,-226.81 1330,-225.5 1272.91,-164.2 1348.88,-103.78 1294,-40.5 1290.19,-36.1 1285.56,-32.48 1280.5,-29.49"/>
<polygon fill="midnightblue" stroke="midnightblue" points="1332.09,-232.18 1342.34,-234.85 1335.99,-226.37 1332.09,-232.18"/>
</g>
<!-- Node134 -->
<g id="node37" class="node">
<title>Node134</title>
<g id="a_node37"><a xlink:href="classJoyButton.html#a85ef81bba77c2a23beb5107870038ddc" target="_top" xlink:title=" ">
<polygon fill="white" stroke="red" points="1154.5,-251.5 1154.5,-281.5 1287.5,-281.5 1287.5,-251.5 1154.5,-251.5"/>
<text text-anchor="start" x="1162.5" y="-269.5" font-family="Helvetica,sans-Serif" font-size="10.00">JoyButton::addEachSlotTo</text>
<text text-anchor="middle" x="1221" y="-258.5" font-family="Helvetica,sans-Serif" font-size="10.00">Actives</text>
</a>
</g>
</g>
<!-- Node133&#45;&gt;Node134 -->
<g id="edge44" class="edge">
<title>Node133&#45;&gt;Node134</title>
<path fill="none" stroke="midnightblue" d="M1328.6,-279.64C1315.06,-277.97 1300.97,-276.23 1287.64,-274.59"/>
<polygon fill="midnightblue" stroke="midnightblue" points="1328.47,-283.15 1338.82,-280.9 1329.32,-276.2 1328.47,-283.15"/>
</g>
<!-- Node149 -->
<g id="node38" class="node">
<title>Node149</title>
<g id="a_node38"><a xlink:href="classJoyButton.html#a04aadf5bd54cd6fde12426dce5b03196" target="_top" xlink:title=" ">
<polygon fill="white" stroke="red" points="1153.5,-202.5 1153.5,-232.5 1288.5,-232.5 1288.5,-202.5 1153.5,-202.5"/>
<text text-anchor="start" x="1161.5" y="-220.5" font-family="Helvetica,sans-Serif" font-size="10.00">JoyButton::clearSlotsEvent</text>
<text text-anchor="middle" x="1221" y="-209.5" font-family="Helvetica,sans-Serif" font-size="10.00">Reset</text>
</a>
</g>
</g>
<!-- Node133&#45;&gt;Node149 -->
<g id="edge45" class="edge">
<title>Node133&#45;&gt;Node149</title>
<path fill="none" stroke="midnightblue" d="M1344.54,-269.75C1339.58,-267.76 1334.67,-265.66 1330,-263.5 1313.2,-255.7 1310.83,-250.24 1294,-242.5 1286.31,-238.96 1277.96,-235.63 1269.77,-232.62"/>
<polygon fill="midnightblue" stroke="midnightblue" points="1343.52,-273.11 1354.11,-273.45 1346.05,-266.58 1343.52,-273.11"/>
</g>
<!-- Node162 -->
<g id="node39" class="node">
<title>Node162</title>
<g id="a_node39"><a xlink:href="classJoyButton.html#a31a4707b5d086bd7f7d0bf491c94169b" target="_top" xlink:title=" ">
<polygon fill="white" stroke="red" points="1157,-88 1157,-107 1285,-107 1285,-88 1157,-88"/>
<text text-anchor="middle" x="1221" y="-95" font-family="Helvetica,sans-Serif" font-size="10.00">JoyButton::distanceEvent</text>
</a>
</g>
</g>
<!-- Node133&#45;&gt;Node162 -->
<g id="edge46" class="edge">
<title>Node133&#45;&gt;Node162</title>
<path fill="none" stroke="midnightblue" d="M1333.82,-267.25C1332.48,-266.07 1331.2,-264.82 1330,-263.5 1286.14,-215.38 1338.32,-169.2 1294,-121.5 1288.08,-115.13 1280.43,-110.45 1272.33,-107.01"/>
<polygon fill="midnightblue" stroke="midnightblue" points="1331.97,-270.24 1342.1,-273.34 1336.11,-264.6 1331.97,-270.24"/>
</g>
<!-- Node163 -->
<g id="node40" class="node">
<title>Node163</title>
<g id="a_node40"><a xlink:href="classJoyButton.html#ae8bc1417525f44cbb811be752146c25c" target="_top" xlink:title=" ">
<polygon fill="white" stroke="red" points="981,-155 981,-174 1097,-174 1097,-155 981,-155"/>
<text text-anchor="middle" x="1039" y="-162" font-family="Helvetica,sans-Serif" font-size="10.00">JoyButton::eventReset</text>
</a>
</g>
</g>
<!-- Node133&#45;&gt;Node163 -->
<g id="edge47" class="edge">
<title>Node133&#45;&gt;Node163</title>
<path fill="none" stroke="midnightblue" d="M1335.16,-267.97C1333.35,-266.57 1331.62,-265.09 1330,-263.5 1297.73,-231.92 1330.95,-194.45 1294,-168.5 1226.32,-120.98 1121.53,-140.92 1070.29,-155"/>
<polygon fill="midnightblue" stroke="midnightblue" points="1333.31,-270.93 1343.59,-273.49 1337.14,-265.08 1333.31,-270.93"/>
</g>
<!-- Node141 -->
<g id="node41" class="node">
<title>Node141</title>
<g id="a_node41"><a xlink:href="classJoyButton.html#a0a485dc6414ba37bf1dfc34cf0b0fddb" target="_top" xlink:title=" ">
<polygon fill="white" stroke="red" points="1166,-50 1166,-69 1276,-69 1276,-50 1166,-50"/>
<text text-anchor="middle" x="1221" y="-57" font-family="Helvetica,sans-Serif" font-size="10.00">JoyButton::holdEvent</text>
</a>
</g>
</g>
<!-- Node133&#45;&gt;Node141 -->
<g id="edge49" class="edge">
<title>Node133&#45;&gt;Node141</title>
<path fill="none" stroke="midnightblue" d="M1333.28,-266.93C1332.13,-265.84 1331.03,-264.7 1330,-263.5 1275.33,-200.04 1351.25,-139.65 1294,-78.5 1289.05,-73.22 1282.82,-69.33 1276.11,-66.49"/>
<polygon fill="midnightblue" stroke="midnightblue" points="1331.49,-269.97 1341.54,-273.34 1335.78,-264.44 1331.49,-269.97"/>
</g>
<!-- Node142 -->
<g id="node42" class="node">
<title>Node142</title>
<g id="a_node42"><a xlink:href="classJoyButton.html#a4e87da582ac95744c4255fa975e26327" target="_top" xlink:title=" ">
<polygon fill="white" stroke="red" points="1155,-377 1155,-396 1287,-396 1287,-377 1155,-377"/>
<text text-anchor="middle" x="1221" y="-384" font-family="Helvetica,sans-Serif" font-size="10.00">JoyButton::keyPressEvent</text>
</a>
</g>
</g>
<!-- Node133&#45;&gt;Node142 -->
<g id="edge50" class="edge">
<title>Node133&#45;&gt;Node142</title>
<path fill="none" stroke="midnightblue" d="M1376.88,-310.19C1356.37,-327.96 1325.14,-352.53 1294,-367.5 1286.08,-371.31 1277.28,-374.43 1268.64,-376.97"/>
<polygon fill="midnightblue" stroke="midnightblue" points="1379.27,-312.75 1384.46,-303.52 1374.64,-307.5 1379.27,-312.75"/>
</g>
<!-- Node147 -->
<g id="node43" class="node">
<title>Node147</title>
<g id="a_node43"><a xlink:href="classJoyButton.html#a52f911105048e6c33180bf267f158b35" target="_top" xlink:title=" ">
<polygon fill="white" stroke="red" points="966,-283 966,-302 1112,-302 1112,-283 966,-283"/>
<text text-anchor="middle" x="1039" y="-290" font-family="Helvetica,sans-Serif" font-size="10.00">JoyButton::releaseDeskEvent</text>
</a>
</g>
</g>
<!-- Node133&#45;&gt;Node147 -->
<g id="edge51" class="edge">
<title>Node133&#45;&gt;Node147</title>
<path fill="none" stroke="midnightblue" d="M1336.11,-268.22C1333.97,-266.75 1331.93,-265.18 1330,-263.5 1303.66,-240.48 1323.86,-211.72 1294,-193.5 1238.61,-159.7 1208.47,-169.98 1148,-193.5 1100.83,-211.85 1061.73,-261.49 1046.66,-282.69"/>
<polygon fill="midnightblue" stroke="midnightblue" points="1334.36,-271.25 1344.74,-273.38 1337.95,-265.25 1334.36,-271.25"/>
</g>
<!-- Node146 -->
<g id="node45" class="node">
<title>Node146</title>
<g id="a_node45"><a xlink:href="classJoyButton.html#ae43c0b46569b42036bf7ea883e93c591" target="_top" xlink:title=" ">
<polygon fill="white" stroke="black" points="1151,-301 1151,-320 1291,-320 1291,-301 1151,-301"/>
<text text-anchor="middle" x="1221" y="-308" font-family="Helvetica,sans-Serif" font-size="10.00">JoyButton::releaseSlotEvent</text>
</a>
</g>
</g>
<!-- Node133&#45;&gt;Node146 -->
<g id="edge53" class="edge">
<title>Node133&#45;&gt;Node146</title>
<path fill="none" stroke="midnightblue" d="M1328.55,-297.37C1316.17,-298.89 1303.32,-300.48 1291.02,-301.99"/>
<polygon fill="midnightblue" stroke="midnightblue" points="1329.32,-300.8 1338.82,-296.1 1328.47,-293.85 1329.32,-300.8"/>
</g>
<!-- Node175 -->
<g id="node46" class="node">
<title>Node175</title>
<g id="a_node46"><a xlink:href="classJoyButton.html#a0d10908f5a06ca73366ca988d985933b" target="_top" xlink:title=" ">
<polygon fill="white" stroke="red" points="1158,-339 1158,-358 1284,-358 1284,-339 1158,-339"/>
<text text-anchor="middle" x="1221" y="-346" font-family="Helvetica,sans-Serif" font-size="10.00">JoyButton::resetPrivVars</text>
</a>
</g>
</g>
<!-- Node133&#45;&gt;Node175 -->
<g id="edge55" class="edge">
<title>Node133&#45;&gt;Node175</title>
<path fill="none" stroke="midnightblue" d="M1354.92,-307.31C1336.21,-314.7 1314.23,-322.96 1294,-329.5 1283.54,-332.88 1272.09,-336.11 1261.46,-338.92"/>
<polygon fill="midnightblue" stroke="midnightblue" points="1356.38,-310.49 1364.38,-303.54 1353.79,-303.99 1356.38,-310.49"/>
</g>
<!-- Node163&#45;&gt;Node84 -->
<g id="edge48" class="edge">
<title>Node163&#45;&gt;Node84</title>
<path fill="none" stroke="midnightblue" d="M970.87,-163.67C875.55,-165.82 699.74,-182.49 584,-269.5 516.02,-320.61 483.93,-426.23 475.4,-458.75"/>
<polygon fill="midnightblue" stroke="midnightblue" points="971.03,-167.16 980.96,-163.49 970.9,-160.17 971.03,-167.16"/>
</g>
<!-- Node147&#45;&gt;Node139 -->
<g id="edge52" class="edge">
<title>Node147&#45;&gt;Node139</title>
<path fill="none" stroke="midnightblue" d="M955.3,-292.5C938.42,-292.5 921.12,-292.5 905.73,-292.5"/>
<polygon fill="midnightblue" stroke="midnightblue" points="955.74,-296 965.74,-292.5 955.74,-289 955.74,-296"/>
</g>
<!-- Node146&#45;&gt;Node147 -->
<g id="edge54" class="edge">
<title>Node146&#45;&gt;Node147</title>
<path fill="none" stroke="midnightblue" d="M1140.71,-302.57C1131.21,-301.62 1121.56,-300.66 1112.18,-299.72"/>
<polygon fill="midnightblue" stroke="midnightblue" points="1140.62,-306.08 1150.92,-303.59 1141.32,-299.11 1140.62,-306.08"/>
</g>
<!-- Node191&#45;&gt;Node4 -->
<g id="edge57" class="edge">
<title>Node191&#45;&gt;Node4</title>
<path fill="none" stroke="midnightblue" d="M1333.96,-523.8C1320.79,-526.75 1307.01,-529.5 1294,-531.5 1224.29,-542.22 1142.84,-546.96 1091.35,-549.01"/>
<polygon fill="midnightblue" stroke="midnightblue" points="1334.93,-527.17 1343.89,-521.52 1333.36,-520.35 1334.93,-527.17"/>
</g>
<!-- Node192 -->
<g id="node48" class="node">
<title>Node192</title>
<g id="a_node48"><a xlink:href="classJoyButtonMouseHelper.html#a5d62da0d0d5b93f7d2a30cd8496c2555" target="_top" xlink:title=" ">
<polygon fill="white" stroke="red" points="1148,-491.5 1148,-521.5 1294,-521.5 1294,-491.5 1148,-491.5"/>
<text text-anchor="start" x="1156" y="-509.5" font-family="Helvetica,sans-Serif" font-size="10.00">JoyButtonMouseHelper</text>
<text text-anchor="middle" x="1221" y="-498.5" font-family="Helvetica,sans-Serif" font-size="10.00">::resetButtonMouseDistances</text>
</a>
</g>
</g>
<!-- Node191&#45;&gt;Node192 -->
<g id="edge58" class="edge">
<title>Node191&#45;&gt;Node192</title>
<path fill="none" stroke="midnightblue" d="M1319.91,-506.5C1311.3,-506.5 1302.59,-506.5 1294.08,-506.5"/>
<polygon fill="midnightblue" stroke="midnightblue" points="1319.95,-510 1329.95,-506.5 1319.95,-503 1319.95,-510"/>
</g>
</g>
</svg>
