<?xml version="1.0" encoding="UTF-8" standalone="no"?>
<!DOCTYPE svg PUBLIC "-//W3C//DTD SVG 1.1//EN"
 "http://www.w3.org/Graphics/SVG/1.1/DTD/svg11.dtd">
<!-- Generated by graphviz version 2.43.0 (0)
 -->
<!-- Title: JoyControlStick::calculateCircleXValue Pages: 1 -->
<!--zoomable 225 -->
<svg id="main" version="1.1" xmlns="http://www.w3.org/2000/svg" xmlns:xlink="http://www.w3.org/1999/xlink" xml:space="preserve" onload="init(evt)">
<style type="text/css"><![CDATA[
.edge:hover path { stroke: red; }
.edge:hover polygon { stroke: red; fill: red; }
]]></style>
<script type="text/javascript"><![CDATA[
var edges = document.getElementsByTagName('g');
if (edges && edges.length) {
  for (var i=0;i<edges.length;i++) {
    if (edges[i].id.substr(0,4)=='edge') {
      edges[i].setAttribute('class','edge');
    }
  }
}
]]></script>
        <defs>
                <circle id="rim" cx="0" cy="0" r="7"/>
                <circle id="rim2" cx="0" cy="0" r="3.5"/>
                <g id="zoomPlus">
                        <use xlink:href="#rim" fill="#404040">
                                <set attributeName="fill" to="#808080" begin="zoomplus.mouseover" end="zoomplus.mouseout"/>
                        </use>
                        <path d="M-4,0h8M0,-4v8" fill="none" stroke="white" stroke-width="1.5" pointer-events="none"/>
                </g>
                <g id="zoomMin">
                        <use xlink:href="#rim" fill="#404040">
                                <set attributeName="fill" to="#808080" begin="zoomminus.mouseover" end="zoomminus.mouseout"/>
                        </use>
                        <path d="M-4,0h8" fill="none" stroke="white" stroke-width="1.5" pointer-events="none"/>
                </g>
                <g id="dirArrow">
                        <path fill="none" stroke="white" stroke-width="1.5" d="M0,-3.0v7 M-2.5,-0.5L0,-3.0L2.5,-0.5"/>
                </g>
               <g id="resetDef">
                       <use xlink:href="#rim2" fill="#404040">
                               <set attributeName="fill" to="#808080" begin="reset.mouseover" end="reset.mouseout"/>
                       </use>
               </g>
        </defs>

<script type="text/javascript">
var viewWidth = 653;
var viewHeight = 225;
var sectionId = 'dynsection-11';
</script>
<script xlink:href="svgpan.js"/>
<svg id="graph" class="graph">
<g id="viewport">
<title>JoyControlStick::calculateCircleXValue</title>
<polygon fill="white" stroke="transparent" points="-4,4 -4,-221 649,-221 649,4 -4,4"/>
<!-- Node1 -->
<g id="node1" class="node">
<title>Node1</title>
<g id="a_node1"><a xlink:title=" ">
<polygon fill="#bfbfbf" stroke="black" points="514,-88.5 514,-118.5 645,-118.5 645,-88.5 514,-88.5"/>
<text text-anchor="start" x="522" y="-106.5" font-family="Helvetica,sans-Serif" font-size="10.00">JoyControlStick::calculate</text>
<text text-anchor="middle" x="579.5" y="-95.5" font-family="Helvetica,sans-Serif" font-size="10.00">CircleXValue</text>
</a>
</g>
</g>
<!-- Node2 -->
<g id="node2" class="node">
<title>Node2</title>
<g id="a_node2"><a xlink:href="classJoyControlStick.html#a0e3fe034c525e212163dd8d59cef8428" target="_top" xlink:title=" ">
<polygon fill="white" stroke="black" points="347,-88.5 347,-118.5 478,-118.5 478,-88.5 347,-88.5"/>
<text text-anchor="start" x="355" y="-106.5" font-family="Helvetica,sans-Serif" font-size="10.00">JoyControlStick::getCircle</text>
<text text-anchor="middle" x="412.5" y="-95.5" font-family="Helvetica,sans-Serif" font-size="10.00">XCoordinate</text>
</a>
</g>
</g>
<!-- Node1&#45;&gt;Node2 -->
<g id="edge1" class="edge">
<title>Node1&#45;&gt;Node2</title>
<path fill="none" stroke="midnightblue" d="M503.76,-103.5C495.18,-103.5 486.48,-103.5 478.05,-103.5"/>
<polygon fill="midnightblue" stroke="midnightblue" points="503.76,-107 513.76,-103.5 503.76,-100 503.76,-107"/>
</g>
<!-- Node3 -->
<g id="node3" class="node">
<title>Node3</title>
<g id="a_node3"><a xlink:href="classJoyControlStickStatusBox.html#a450e6a133de4e4d7894b967b051f9e31" target="_top" xlink:title=" ">
<polygon fill="white" stroke="black" points="176,-186.5 176,-216.5 308,-216.5 308,-186.5 176,-186.5"/>
<text text-anchor="start" x="184" y="-204.5" font-family="Helvetica,sans-Serif" font-size="10.00">JoyControlStickStatusBox</text>
<text text-anchor="middle" x="242" y="-193.5" font-family="Helvetica,sans-Serif" font-size="10.00">::drawEightWayBox</text>
</a>
</g>
</g>
<!-- Node2&#45;&gt;Node3 -->
<g id="edge2" class="edge">
<title>Node2&#45;&gt;Node3</title>
<path fill="none" stroke="midnightblue" d="M386.61,-125.09C367.07,-141.2 338.65,-162.86 311,-177.5 304.8,-180.78 298.07,-183.77 291.32,-186.45"/>
<polygon fill="midnightblue" stroke="midnightblue" points="388.99,-127.66 394.41,-118.56 384.49,-122.3 388.99,-127.66"/>
</g>
<!-- Node5 -->
<g id="node5" class="node">
<title>Node5</title>
<g id="a_node5"><a xlink:href="classJoyControlStickStatusBox.html#ade94a0ecf5b485ce1e8d57ecdc82617f" target="_top" xlink:title=" ">
<polygon fill="white" stroke="black" points="174.5,-137.5 174.5,-167.5 309.5,-167.5 309.5,-137.5 174.5,-137.5"/>
<text text-anchor="start" x="182.5" y="-155.5" font-family="Helvetica,sans-Serif" font-size="10.00">JoyControlStickStatusBox</text>
<text text-anchor="middle" x="242" y="-144.5" font-family="Helvetica,sans-Serif" font-size="10.00">::drawFourWayCardinalBox</text>
</a>
</g>
</g>
<!-- Node2&#45;&gt;Node5 -->
<g id="edge4" class="edge">
<title>Node2&#45;&gt;Node5</title>
<path fill="none" stroke="midnightblue" d="M349.97,-121.39C331.84,-126.66 312.2,-132.38 294.76,-137.45"/>
<polygon fill="midnightblue" stroke="midnightblue" points="350.94,-124.75 359.57,-118.6 348.99,-118.03 350.94,-124.75"/>
</g>
<!-- Node6 -->
<g id="node6" class="node">
<title>Node6</title>
<g id="a_node6"><a xlink:href="classJoyControlStickStatusBox.html#a6c5557dfac58f22349a66743ec3cca4b" target="_top" xlink:title=" ">
<polygon fill="white" stroke="black" points="173,-88.5 173,-118.5 311,-118.5 311,-88.5 173,-88.5"/>
<text text-anchor="start" x="181" y="-106.5" font-family="Helvetica,sans-Serif" font-size="10.00">JoyControlStickStatusBox</text>
<text text-anchor="middle" x="242" y="-95.5" font-family="Helvetica,sans-Serif" font-size="10.00">::drawFourWayDiagonalBox</text>
</a>
</g>
</g>
<!-- Node2&#45;&gt;Node6 -->
<g id="edge6" class="edge">
<title>Node2&#45;&gt;Node6</title>
<path fill="none" stroke="midnightblue" d="M336.58,-103.5C328.11,-103.5 319.51,-103.5 311.13,-103.5"/>
<polygon fill="midnightblue" stroke="midnightblue" points="336.84,-107 346.84,-103.5 336.84,-100 336.84,-107"/>
</g>
<!-- Node7 -->
<g id="node7" class="node">
<title>Node7</title>
<g id="a_node7"><a xlink:href="classJoyControlStickEditDialog.html#a2baa35c50ff7528a03ec6f2ba1ed657d" target="_top" xlink:title=" ">
<polygon fill="white" stroke="black" points="0,-22.5 0,-52.5 137,-52.5 137,-22.5 0,-22.5"/>
<text text-anchor="start" x="8" y="-40.5" font-family="Helvetica,sans-Serif" font-size="10.00">JoyControlStickEditDialog</text>
<text text-anchor="middle" x="68.5" y="-29.5" font-family="Helvetica,sans-Serif" font-size="10.00">::JoyControlStickEditDialog</text>
</a>
</g>
</g>
<!-- Node2&#45;&gt;Node7 -->
<g id="edge8" class="edge">
<title>Node2&#45;&gt;Node7</title>
<path fill="none" stroke="midnightblue" d="M341.27,-86.14C331.14,-83.81 320.82,-81.52 311,-79.5 252.54,-67.45 185.65,-56 137.12,-48.1"/>
<polygon fill="midnightblue" stroke="midnightblue" points="340.78,-89.62 351.32,-88.48 342.37,-82.8 340.78,-89.62"/>
</g>
<!-- Node8 -->
<g id="node8" class="node">
<title>Node8</title>
<g id="a_node8"><a xlink:href="classJoyControlStickEditDialog.html#aa479f7bd7941c5be7efd683d3c0c8fd2" target="_top" xlink:title=" ">
<polygon fill="white" stroke="black" points="176.5,-0.5 176.5,-30.5 307.5,-30.5 307.5,-0.5 176.5,-0.5"/>
<text text-anchor="start" x="184.5" y="-18.5" font-family="Helvetica,sans-Serif" font-size="10.00">JoyControlStickEditDialog</text>
<text text-anchor="middle" x="242" y="-7.5" font-family="Helvetica,sans-Serif" font-size="10.00">::refreshStickStats</text>
</a>
</g>
</g>
<!-- Node2&#45;&gt;Node8 -->
<g id="edge9" class="edge">
<title>Node2&#45;&gt;Node8</title>
<path fill="none" stroke="midnightblue" d="M378.39,-83.19C359.03,-71.61 333.95,-57.14 311,-45.5 300.76,-40.3 289.42,-35.1 278.98,-30.51"/>
<polygon fill="midnightblue" stroke="midnightblue" points="376.76,-86.29 387.13,-88.44 380.36,-80.29 376.76,-86.29"/>
</g>
<!-- Node4 -->
<g id="node4" class="node">
<title>Node4</title>
<g id="a_node4"><a xlink:href="classJoyControlStickStatusBox.html#ae321df188d9d51864893166076cf8582" target="_top" xlink:title=" ">
<polygon fill="white" stroke="black" points="2.5,-137.5 2.5,-167.5 134.5,-167.5 134.5,-137.5 2.5,-137.5"/>
<text text-anchor="start" x="10.5" y="-155.5" font-family="Helvetica,sans-Serif" font-size="10.00">JoyControlStickStatusBox</text>
<text text-anchor="middle" x="68.5" y="-144.5" font-family="Helvetica,sans-Serif" font-size="10.00">::paintEvent</text>
</a>
</g>
</g>
<!-- Node3&#45;&gt;Node4 -->
<g id="edge3" class="edge">
<title>Node3&#45;&gt;Node4</title>
<path fill="none" stroke="midnightblue" d="M178.37,-183.61C159.92,-178.34 139.94,-172.62 122.18,-167.55"/>
<polygon fill="midnightblue" stroke="midnightblue" points="177.57,-187.02 188.14,-186.4 179.49,-180.29 177.57,-187.02"/>
</g>
<!-- Node5&#45;&gt;Node4 -->
<g id="edge5" class="edge">
<title>Node5&#45;&gt;Node4</title>
<path fill="none" stroke="midnightblue" d="M164.06,-152.5C154.26,-152.5 144.3,-152.5 134.71,-152.5"/>
<polygon fill="midnightblue" stroke="midnightblue" points="164.2,-156 174.2,-152.5 164.2,-149 164.2,-156"/>
</g>
<!-- Node6&#45;&gt;Node4 -->
<g id="edge7" class="edge">
<title>Node6&#45;&gt;Node4</title>
<path fill="none" stroke="midnightblue" d="M178.37,-121.39C159.92,-126.66 139.94,-132.38 122.18,-137.45"/>
<polygon fill="midnightblue" stroke="midnightblue" points="179.49,-124.71 188.14,-118.6 177.57,-117.98 179.49,-124.71"/>
</g>
<!-- Node8&#45;&gt;Node7 -->
<g id="edge10" class="edge">
<title>Node8&#45;&gt;Node7</title>
<path fill="none" stroke="midnightblue" d="M166.22,-25.09C156.6,-26.33 146.79,-27.59 137.29,-28.8"/>
<polygon fill="midnightblue" stroke="midnightblue" points="166.69,-28.56 176.16,-23.82 165.8,-21.62 166.69,-28.56"/>
</g>
</g>
</svg>
        <g id="navigator" transform="translate(0 0)" fill="#404254">
                <rect fill="#f2f5e9" fill-opacity="0.5" stroke="#606060" stroke-width=".5" x="0" y="0" width="60" height="60"/>
                <use id="zoomplus" xlink:href="#zoomPlus" x="17" y="9" onmousedown="handleZoom(evt,'in')"/>
                <use id="zoomminus" xlink:href="#zoomMin" x="42" y="9" onmousedown="handleZoom(evt,'out')"/>
                <use id="reset" xlink:href="#resetDef" x="30" y="36" onmousedown="handleReset()"/>
                <g id="arrowUp" xlink:href="#dirArrow" transform="translate(30 24)" onmousedown="handlePan(0,-1)">
                  <use xlink:href="#rim" fill="#404040">
                        <set attributeName="fill" to="#808080" begin="arrowUp.mouseover" end="arrowUp.mouseout"/>
                  </use>
                  <path fill="none" stroke="white" stroke-width="1.5" d="M0,-3.0v7 M-2.5,-0.5L0,-3.0L2.5,-0.5"/>
                </g>
                <g id="arrowRight" xlink:href="#dirArrow" transform="rotate(90) translate(36 -43)" onmousedown="handlePan(1,0)">
                  <use xlink:href="#rim" fill="#404040">
                        <set attributeName="fill" to="#808080" begin="arrowRight.mouseover" end="arrowRight.mouseout"/>
                  </use>
                  <path fill="none" stroke="white" stroke-width="1.5" d="M0,-3.0v7 M-2.5,-0.5L0,-3.0L2.5,-0.5"/>
                </g>
                <g id="arrowDown" xlink:href="#dirArrow" transform="rotate(180) translate(-30 -48)" onmousedown="handlePan(0,1)">
                  <use xlink:href="#rim" fill="#404040">
                        <set attributeName="fill" to="#808080" begin="arrowDown.mouseover" end="arrowDown.mouseout"/>
                  </use>
                  <path fill="none" stroke="white" stroke-width="1.5" d="M0,-3.0v7 M-2.5,-0.5L0,-3.0L2.5,-0.5"/>
                </g>
                <g id="arrowLeft" xlink:href="#dirArrow" transform="rotate(270) translate(-36 17)" onmousedown="handlePan(-1,0)">
                  <use xlink:href="#rim" fill="#404040">
                        <set attributeName="fill" to="#808080" begin="arrowLeft.mouseover" end="arrowLeft.mouseout"/>
                  </use>
                  <path fill="none" stroke="white" stroke-width="1.5" d="M0,-3.0v7 M-2.5,-0.5L0,-3.0L2.5,-0.5"/>
                </g>
        </g>
        <svg viewBox="0 0 15 15" width="100%" height="30px" preserveAspectRatio="xMaxYMin meet">
         <g id="arrow_out" transform="scale(0.3 0.3)">
          <a xlink:href="classJoyControlStick_a153940c564b3853d142059e9104f7c71_icgraph_org.svg" target="_base">
           <rect id="button" ry="5" rx="5" y="6" x="6" height="38" width="38"
                fill="#f2f5e9" fill-opacity="0.5" stroke="#606060" stroke-width="1.0"/>
           <path id="arrow"
             d="M 11.500037,31.436501 C 11.940474,20.09759 22.043105,11.32322 32.158766,21.979434 L 37.068811,17.246167 C 37.068811,17.246167 37.088388,32 37.088388,32 L 22.160133,31.978069 C 22.160133,31.978069 26.997745,27.140456 26.997745,27.140456 C 18.528582,18.264221 13.291696,25.230495 11.500037,31.436501 z"
             style="fill:#404040;"/>
          </a>
         </g>
        </svg>
</svg>
