<?xml version="1.0" encoding="UTF-8" standalone="no"?>
<!DOCTYPE svg PUBLIC "-//W3C//DTD SVG 1.1//EN"
 "http://www.w3.org/Graphics/SVG/1.1/DTD/svg11.dtd">
<!-- Generated by graphviz version 2.43.0 (0)
 -->
<!-- Title: SetJoystickXml::readConfig Pages: 1 -->
<svg width="1443pt" height="907pt"
 viewBox="0.00 0.00 1443.00 907.48" xmlns="http://www.w3.org/2000/svg" xmlns:xlink="http://www.w3.org/1999/xlink">
<g id="graph0" class="graph" transform="scale(1 1) rotate(0) translate(4 903.48)">
<title>SetJoystickXml::readConfig</title>
<polygon fill="white" stroke="transparent" points="-4,4 -4,-903.48 1439,-903.48 1439,4 -4,4"/>
<!-- Node1 -->
<g id="node1" class="node">
<title>Node1</title>
<g id="a_node1"><a xlink:title=" ">
<polygon fill="#bfbfbf" stroke="black" points="0,-560.5 0,-579.5 138,-579.5 138,-560.5 0,-560.5"/>
<text text-anchor="middle" x="69" y="-567.5" font-family="Helvetica,sans-Serif" font-size="10.00">SetJoystickXml::readConfig</text>
</a>
</g>
</g>
<!-- Node2 -->
<g id="node2" class="node">
<title>Node2</title>
<g id="a_node2"><a xlink:href="classSetJoystick.html#a7c8f524fe045b89901ba945c5e1045cf" target="_top" xlink:title=" ">
<polygon fill="white" stroke="black" points="182.5,-731.5 182.5,-750.5 304.5,-750.5 304.5,-731.5 182.5,-731.5"/>
<text text-anchor="middle" x="243.5" y="-738.5" font-family="Helvetica,sans-Serif" font-size="10.00">SetJoystick::getJoyAxis</text>
</a>
</g>
</g>
<!-- Node1&#45;&gt;Node2 -->
<g id="edge1" class="edge">
<title>Node1&#45;&gt;Node2</title>
<path fill="none" stroke="midnightblue" d="M73.73,-579.56C84.72,-606.42 119.64,-683.14 174,-722 176.71,-723.94 179.61,-725.68 182.63,-727.24"/>
<polygon fill="midnightblue" stroke="midnightblue" points="181.43,-730.54 191.98,-731.42 184.28,-724.14 181.43,-730.54"/>
</g>
<!-- Node3 -->
<g id="node3" class="node">
<title>Node3</title>
<g id="a_node3"><a xlink:href="classSetJoystick.html#a652994327142229429b0d6f43a96103a" target="_top" xlink:title=" ">
<polygon fill="white" stroke="black" points="178,-693.5 178,-712.5 309,-712.5 309,-693.5 178,-693.5"/>
<text text-anchor="middle" x="243.5" y="-700.5" font-family="Helvetica,sans-Serif" font-size="10.00">SetJoystick::getJoyButton</text>
</a>
</g>
</g>
<!-- Node1&#45;&gt;Node3 -->
<g id="edge2" class="edge">
<title>Node1&#45;&gt;Node3</title>
<path fill="none" stroke="midnightblue" d="M75.99,-579.62C90.17,-601.61 128.12,-655.81 174,-684 177.55,-686.18 181.35,-688.12 185.28,-689.83"/>
<polygon fill="midnightblue" stroke="midnightblue" points="184.03,-693.1 194.62,-693.46 186.56,-686.58 184.03,-693.1"/>
</g>
<!-- Node5 -->
<g id="node5" class="node">
<title>Node5</title>
<g id="a_node5"><a xlink:href="classSetJoystick.html#a5071c4bc7bdb1b0601b60b807a235818" target="_top" xlink:title=" ">
<polygon fill="white" stroke="black" points="180,-655.5 180,-674.5 307,-674.5 307,-655.5 180,-655.5"/>
<text text-anchor="middle" x="243.5" y="-662.5" font-family="Helvetica,sans-Serif" font-size="10.00">SetJoystick::getJoyDPad</text>
</a>
</g>
</g>
<!-- Node1&#45;&gt;Node5 -->
<g id="edge4" class="edge">
<title>Node1&#45;&gt;Node5</title>
<path fill="none" stroke="midnightblue" d="M80.39,-579.62C98.22,-595.63 136.36,-627.78 174,-646 178.86,-648.35 184.06,-650.46 189.34,-652.33"/>
<polygon fill="midnightblue" stroke="midnightblue" points="188.29,-655.66 198.88,-655.45 190.46,-649.01 188.29,-655.66"/>
</g>
<!-- Node7 -->
<g id="node7" class="node">
<title>Node7</title>
<g id="a_node7"><a xlink:href="classSetJoystick.html#a7b74d7b4a0adfc9c25cdbe4433d9b275" target="_top" xlink:title=" ">
<polygon fill="white" stroke="black" points="181,-617.5 181,-636.5 306,-636.5 306,-617.5 181,-617.5"/>
<text text-anchor="middle" x="243.5" y="-624.5" font-family="Helvetica,sans-Serif" font-size="10.00">SetJoystick::getJoyStick</text>
</a>
</g>
</g>
<!-- Node1&#45;&gt;Node7 -->
<g id="edge6" class="edge">
<title>Node1&#45;&gt;Node7</title>
<path fill="none" stroke="midnightblue" d="M94.6,-579.62C115.56,-587.66 146.54,-599.19 174,-608 181.19,-610.31 188.86,-612.6 196.36,-614.74"/>
<polygon fill="midnightblue" stroke="midnightblue" points="195.5,-618.14 206.08,-617.48 197.4,-611.4 195.5,-618.14"/>
</g>
<!-- Node9 -->
<g id="node9" class="node">
<title>Node9</title>
<g id="a_node9"><a xlink:href="classSetJoystick.html#abcdc88c96a95fb0f5d8a721582d22851" target="_top" xlink:title=" ">
<polygon fill="white" stroke="black" points="184.5,-579.5 184.5,-598.5 302.5,-598.5 302.5,-579.5 184.5,-579.5"/>
<text text-anchor="middle" x="243.5" y="-586.5" font-family="Helvetica,sans-Serif" font-size="10.00">SetJoystick::getVDPad</text>
</a>
</g>
</g>
<!-- Node1&#45;&gt;Node9 -->
<g id="edge8" class="edge">
<title>Node1&#45;&gt;Node9</title>
<path fill="none" stroke="midnightblue" d="M138.18,-577.51C149.98,-578.81 162.25,-580.16 174.06,-581.46"/>
<polygon fill="midnightblue" stroke="midnightblue" points="173.96,-584.97 184.29,-582.59 174.73,-578.01 173.96,-584.97"/>
</g>
<!-- Node11 -->
<g id="node11" class="node">
<title>Node11</title>
<g id="a_node11"><a xlink:href="classJoyDPadXml.html#a446e72a0f575c2d827d6c52afc39fab9" target="_top" xlink:title=" ">
<polygon fill="white" stroke="black" points="179.5,-541.5 179.5,-560.5 307.5,-560.5 307.5,-541.5 179.5,-541.5"/>
<text text-anchor="middle" x="243.5" y="-548.5" font-family="Helvetica,sans-Serif" font-size="10.00">JoyDPadXml::readConfig</text>
</a>
</g>
</g>
<!-- Node1&#45;&gt;Node11 -->
<g id="edge10" class="edge">
<title>Node1&#45;&gt;Node11</title>
<path fill="none" stroke="midnightblue" d="M138.18,-562.49C148.35,-561.37 158.87,-560.21 169.14,-559.08"/>
<polygon fill="midnightblue" stroke="midnightblue" points="169.75,-562.53 179.31,-557.96 168.98,-555.58 169.75,-562.53"/>
</g>
<!-- Node12 -->
<g id="node12" class="node">
<title>Node12</title>
<g id="a_node12"><a xlink:href="classJoyButtonXml.html#a9d79d75b14b57419ed1fc5639dde8515" target="_top" xlink:title=" ">
<polygon fill="white" stroke="black" points="368.5,-541.5 368.5,-560.5 499.5,-560.5 499.5,-541.5 368.5,-541.5"/>
<text text-anchor="middle" x="434" y="-548.5" font-family="Helvetica,sans-Serif" font-size="10.00">JoyButtonXml::readConfig</text>
</a>
</g>
</g>
<!-- Node1&#45;&gt;Node12 -->
<g id="edge11" class="edge">
<title>Node1&#45;&gt;Node12</title>
<path fill="none" stroke="midnightblue" d="M89.75,-560.41C110.25,-551.03 143.52,-537.39 174,-532 244.76,-519.48 327.8,-529.91 380.4,-539.57"/>
<polygon fill="midnightblue" stroke="midnightblue" points="380.03,-543.06 390.5,-541.49 381.33,-536.19 380.03,-543.06"/>
</g>
<!-- Node105 -->
<g id="node35" class="node">
<title>Node105</title>
<g id="a_node35"><a xlink:href="classJoyAxisXml.html#abfcf483748d22f52a9f76d2bf23e9a3d" target="_top" xlink:title=" ">
<polygon fill="white" stroke="black" points="182.5,-114.5 182.5,-133.5 304.5,-133.5 304.5,-114.5 182.5,-114.5"/>
<text text-anchor="middle" x="243.5" y="-121.5" font-family="Helvetica,sans-Serif" font-size="10.00">JoyAxisXml::readConfig</text>
</a>
</g>
</g>
<!-- Node1&#45;&gt;Node105 -->
<g id="edge40" class="edge">
<title>Node1&#45;&gt;Node105</title>
<path fill="none" stroke="midnightblue" d="M73.76,-560.27C95.55,-503.94 205.57,-219.48 235.16,-142.97"/>
<polygon fill="midnightblue" stroke="midnightblue" points="238.44,-144.19 238.79,-133.6 231.91,-141.67 238.44,-144.19"/>
</g>
<!-- Node132 -->
<g id="node41" class="node">
<title>Node132</title>
<g id="a_node41"><a xlink:href="classJoyControlStick.html#ab6ce741115ee3d436c1a7e866abd21e6" target="_top" xlink:title="Take a XML stream and set the stick and direction button properties according to the values contained...">
<polygon fill="white" stroke="black" points="174,-393.5 174,-412.5 313,-412.5 313,-393.5 174,-393.5"/>
<text text-anchor="middle" x="243.5" y="-400.5" font-family="Helvetica,sans-Serif" font-size="10.00">JoyControlStick::readConfig</text>
</a>
</g>
</g>
<!-- Node1&#45;&gt;Node132 -->
<g id="edge46" class="edge">
<title>Node1&#45;&gt;Node132</title>
<path fill="none" stroke="midnightblue" d="M80.02,-560.3C108.36,-532.86 189.37,-454.43 225.15,-419.79"/>
<polygon fill="midnightblue" stroke="midnightblue" points="227.7,-422.2 232.45,-412.73 222.83,-417.17 227.7,-422.2"/>
</g>
<!-- Node142 -->
<g id="node50" class="node">
<title>Node142</title>
<g id="a_node50"><a xlink:href="classSetJoystick.html#ab34fbf5679a1d7e50368a40c0dd8d6e1" target="_top" xlink:title=" ">
<polygon fill="white" stroke="black" points="187,-76.5 187,-95.5 300,-95.5 300,-76.5 187,-76.5"/>
<text text-anchor="middle" x="243.5" y="-83.5" font-family="Helvetica,sans-Serif" font-size="10.00">SetJoystick::setName</text>
</a>
</g>
</g>
<!-- Node1&#45;&gt;Node142 -->
<g id="edge56" class="edge">
<title>Node1&#45;&gt;Node142</title>
<path fill="none" stroke="midnightblue" d="M70.83,-560.34C76.19,-499.94 107.88,-174.55 174,-105 175.26,-103.68 176.6,-102.45 178.01,-101.3"/>
<polygon fill="midnightblue" stroke="midnightblue" points="180.29,-103.99 186.74,-95.58 176.46,-98.13 180.29,-103.99"/>
</g>
<!-- Node4 -->
<g id="node4" class="node">
<title>Node4</title>
<g id="a_node4"><a xlink:href="classSetJoystick.html#ac5baae46a0b3924a83b523ad89819a53" target="_top" xlink:title=" ">
<polygon fill="white" stroke="black" points="374,-693.5 374,-712.5 494,-712.5 494,-693.5 374,-693.5"/>
<text text-anchor="middle" x="434" y="-700.5" font-family="Helvetica,sans-Serif" font-size="10.00">SetJoystick::getButtons</text>
</a>
</g>
</g>
<!-- Node3&#45;&gt;Node4 -->
<g id="edge3" class="edge">
<title>Node3&#45;&gt;Node4</title>
<path fill="none" stroke="midnightblue" d="M309.11,-703C326.66,-703 345.74,-703 363.54,-703"/>
<polygon fill="midnightblue" stroke="midnightblue" points="363.86,-706.5 373.86,-703 363.86,-699.5 363.86,-706.5"/>
</g>
<!-- Node6 -->
<g id="node6" class="node">
<title>Node6</title>
<g id="a_node6"><a xlink:href="classSetJoystick.html#a2a6870a2ac3f5cc490344baf7ed2edd5" target="_top" xlink:title=" ">
<polygon fill="white" stroke="black" points="380.5,-655.5 380.5,-674.5 487.5,-674.5 487.5,-655.5 380.5,-655.5"/>
<text text-anchor="middle" x="434" y="-662.5" font-family="Helvetica,sans-Serif" font-size="10.00">SetJoystick::getHats</text>
</a>
</g>
</g>
<!-- Node5&#45;&gt;Node6 -->
<g id="edge5" class="edge">
<title>Node5&#45;&gt;Node6</title>
<path fill="none" stroke="midnightblue" d="M307.01,-665C327.36,-665 349.95,-665 370.31,-665"/>
<polygon fill="midnightblue" stroke="midnightblue" points="370.42,-668.5 380.42,-665 370.42,-661.5 370.42,-668.5"/>
</g>
<!-- Node8 -->
<g id="node8" class="node">
<title>Node8</title>
<g id="a_node8"><a xlink:href="classSetJoystick.html#a7ca499fe41a0a9841b4fe904b07cbc30" target="_top" xlink:title=" ">
<polygon fill="white" stroke="black" points="377,-617.5 377,-636.5 491,-636.5 491,-617.5 377,-617.5"/>
<text text-anchor="middle" x="434" y="-624.5" font-family="Helvetica,sans-Serif" font-size="10.00">SetJoystick::getSticks</text>
</a>
</g>
</g>
<!-- Node7&#45;&gt;Node8 -->
<g id="edge7" class="edge">
<title>Node7&#45;&gt;Node8</title>
<path fill="none" stroke="midnightblue" d="M306.22,-627C325.61,-627 347.08,-627 366.77,-627"/>
<polygon fill="midnightblue" stroke="midnightblue" points="366.87,-630.5 376.87,-627 366.87,-623.5 366.87,-630.5"/>
</g>
<!-- Node10 -->
<g id="node10" class="node">
<title>Node10</title>
<g id="a_node10"><a xlink:href="classSetJoystick.html#ad859311bfde76dbdaac274cb5ede63d6" target="_top" xlink:title=" ">
<polygon fill="white" stroke="black" points="374.5,-579.5 374.5,-598.5 493.5,-598.5 493.5,-579.5 374.5,-579.5"/>
<text text-anchor="middle" x="434" y="-586.5" font-family="Helvetica,sans-Serif" font-size="10.00">SetJoystick::getVdpads</text>
</a>
</g>
</g>
<!-- Node9&#45;&gt;Node10 -->
<g id="edge9" class="edge">
<title>Node9&#45;&gt;Node10</title>
<path fill="none" stroke="midnightblue" d="M302.59,-589C322.12,-589 344.09,-589 364.35,-589"/>
<polygon fill="midnightblue" stroke="midnightblue" points="364.45,-592.5 374.45,-589 364.45,-585.5 364.45,-592.5"/>
</g>
<!-- Node13 -->
<g id="node13" class="node">
<title>Node13</title>
<g id="a_node13"><a xlink:href="classJoyButton.html#ad2df77b5daa94a848b015265ec1869d6" target="_top" xlink:title="Generate active zone string and notify other objects.">
<polygon fill="white" stroke="black" points="1134,-776 1134,-806 1270,-806 1270,-776 1134,-776"/>
<text text-anchor="start" x="1142" y="-794" font-family="Helvetica,sans-Serif" font-size="10.00">JoyButton::buildActiveZone</text>
<text text-anchor="middle" x="1202" y="-783" font-family="Helvetica,sans-Serif" font-size="10.00">SummaryString</text>
</a>
</g>
</g>
<!-- Node12&#45;&gt;Node13 -->
<g id="edge12" class="edge">
<title>Node12&#45;&gt;Node13</title>
<path fill="none" stroke="midnightblue" d="M499.93,-560.41C506.68,-562.9 513.19,-566.05 519,-570 651.48,-660.17 580.33,-793.09 722,-868 872.02,-947.33 1082.61,-854.09 1165.5,-810.78"/>
<polygon fill="midnightblue" stroke="midnightblue" points="1167.3,-813.78 1174.5,-806.01 1164.02,-807.6 1167.3,-813.78"/>
</g>
<!-- Node52 -->
<g id="node16" class="node">
<title>Node52</title>
<g id="a_node16"><a xlink:href="classJoyButton.html#ab628d2c4a5d2dd34e763d0a9c0d967c7" target="_top" xlink:title=" ">
<polygon fill="white" stroke="black" points="558.5,-497.5 558.5,-516.5 682.5,-516.5 682.5,-497.5 558.5,-497.5"/>
<text text-anchor="middle" x="620.5" y="-504.5" font-family="Helvetica,sans-Serif" font-size="10.00">JoyButton::getXmlName</text>
</a>
</g>
</g>
<!-- Node12&#45;&gt;Node52 -->
<g id="edge15" class="edge">
<title>Node12&#45;&gt;Node52</title>
<path fill="none" stroke="midnightblue" d="M478.21,-541.41C491.32,-538.45 505.76,-535.14 519,-532 536.24,-527.91 555.1,-523.26 571.78,-519.09"/>
<polygon fill="midnightblue" stroke="midnightblue" points="573,-522.4 581.84,-516.57 571.29,-515.61 573,-522.4"/>
</g>
<!-- Node53 -->
<g id="node17" class="node">
<title>Node53</title>
<g id="a_node17"><a xlink:href="classJoyButtonXml.html#a9d7b2a6324a2f8fe4f424f78aa43d261" target="_top" xlink:title=" ">
<polygon fill="white" stroke="red" points="555,-536 555,-566 686,-566 686,-536 555,-536"/>
<text text-anchor="start" x="563" y="-554" font-family="Helvetica,sans-Serif" font-size="10.00">JoyButtonXml::readButton</text>
<text text-anchor="middle" x="620.5" y="-543" font-family="Helvetica,sans-Serif" font-size="10.00">Config</text>
</a>
</g>
</g>
<!-- Node12&#45;&gt;Node53 -->
<g id="edge16" class="edge">
<title>Node12&#45;&gt;Node53</title>
<path fill="none" stroke="midnightblue" d="M499.53,-551C514.05,-551 529.58,-551 544.49,-551"/>
<polygon fill="midnightblue" stroke="midnightblue" points="544.7,-554.5 554.7,-551 544.7,-547.5 544.7,-554.5"/>
</g>
<!-- Node14 -->
<g id="node14" class="node">
<title>Node14</title>
<g id="a_node14"><a xlink:href="classJoyButton.html#ae76ccd3147106953d53a565730c1d8ee" target="_top" xlink:title="Generate a string that represents slots that will be activated or slots that are currently active if ...">
<polygon fill="white" stroke="red" points="1306,-801 1306,-831 1435,-831 1435,-801 1306,-801"/>
<text text-anchor="start" x="1314" y="-819" font-family="Helvetica,sans-Serif" font-size="10.00">JoyButton::getActiveZone</text>
<text text-anchor="middle" x="1370.5" y="-808" font-family="Helvetica,sans-Serif" font-size="10.00">Summary</text>
</a>
</g>
</g>
<!-- Node13&#45;&gt;Node14 -->
<g id="edge13" class="edge">
<title>Node13&#45;&gt;Node14</title>
<path fill="none" stroke="midnightblue" d="M1270.24,-801.1C1278.68,-802.36 1287.34,-803.66 1295.86,-804.94"/>
<polygon fill="midnightblue" stroke="midnightblue" points="1295.37,-808.41 1305.78,-806.43 1296.41,-801.49 1295.37,-808.41"/>
</g>
<!-- Node51 -->
<g id="node15" class="node">
<title>Node51</title>
<g id="a_node15"><a xlink:href="classJoyButton.html#a1b49d9ab85f0d5d128e2eca616747018" target="_top" xlink:title=" ">
<polygon fill="white" stroke="black" points="1307,-752 1307,-782 1434,-782 1434,-752 1307,-752"/>
<text text-anchor="start" x="1315" y="-770" font-family="Helvetica,sans-Serif" font-size="10.00">JoyButton::lockForWrited</text>
<text text-anchor="middle" x="1370.5" y="-759" font-family="Helvetica,sans-Serif" font-size="10.00">String</text>
</a>
</g>
</g>
<!-- Node13&#45;&gt;Node51 -->
<g id="edge14" class="edge">
<title>Node13&#45;&gt;Node51</title>
<path fill="none" stroke="midnightblue" d="M1270.24,-781.31C1279.03,-780.04 1288.06,-778.74 1296.93,-777.46"/>
<polygon fill="midnightblue" stroke="midnightblue" points="1297.46,-780.92 1306.86,-776.03 1296.46,-773.99 1297.46,-780.92"/>
</g>
<!-- Node54 -->
<g id="node18" class="node">
<title>Node54</title>
<g id="a_node18"><a xlink:href="classJoyButtonSlot.html#a3b849071be5e1d6f7850209f4187aadb" target="_top" xlink:title=" ">
<polygon fill="white" stroke="black" points="743,-599 743,-629 871,-629 871,-599 743,-599"/>
<text text-anchor="start" x="751" y="-617" font-family="Helvetica,sans-Serif" font-size="10.00">JoyButtonSlot::assignMix</text>
<text text-anchor="middle" x="807" y="-606" font-family="Helvetica,sans-Serif" font-size="10.00">SlotsToNull</text>
</a>
</g>
</g>
<!-- Node53&#45;&gt;Node54 -->
<g id="edge17" class="edge">
<title>Node53&#45;&gt;Node54</title>
<path fill="none" stroke="midnightblue" d="M659.45,-566.09C678.16,-573.34 701.14,-581.96 722,-589 728.94,-591.34 736.24,-593.68 743.51,-595.95"/>
<polygon fill="midnightblue" stroke="midnightblue" points="742.8,-599.39 753.39,-598.98 744.86,-592.7 742.8,-599.39"/>
</g>
<!-- Node19 -->
<g id="node19" class="node">
<title>Node19</title>
<g id="a_node19"><a xlink:href="classJoyButtonSlot.html#a4fb0606a34134786bc642627bc25aedd" target="_top" xlink:title=" ">
<polygon fill="white" stroke="red" points="739,-560.5 739,-579.5 875,-579.5 875,-560.5 739,-560.5"/>
<text text-anchor="middle" x="807" y="-567.5" font-family="Helvetica,sans-Serif" font-size="10.00">JoyButtonSlot::getMixSlots</text>
</a>
</g>
</g>
<!-- Node53&#45;&gt;Node19 -->
<g id="edge18" class="edge">
<title>Node53&#45;&gt;Node19</title>
<path fill="none" stroke="midnightblue" d="M686.03,-557.65C699.74,-559.06 714.36,-560.56 728.5,-562.02"/>
<polygon fill="midnightblue" stroke="midnightblue" points="728.38,-565.53 738.69,-563.07 729.1,-558.56 728.38,-565.53"/>
</g>
<!-- Node47 -->
<g id="node20" class="node">
<title>Node47</title>
<g id="a_node20"><a xlink:href="classJoyButtonSlot.html#abed7fe134c404b403ea79c0753f6eaaf" target="_top" xlink:title=" ">
<polygon fill="white" stroke="black" points="943.5,-686.5 943.5,-705.5 1082.5,-705.5 1082.5,-686.5 943.5,-686.5"/>
<text text-anchor="middle" x="1013" y="-693.5" font-family="Helvetica,sans-Serif" font-size="10.00">JoyButtonSlot::getSlotMode</text>
</a>
</g>
</g>
<!-- Node53&#45;&gt;Node47 -->
<g id="edge19" class="edge">
<title>Node53&#45;&gt;Node47</title>
<path fill="none" stroke="midnightblue" d="M628.28,-566.02C641.66,-593.69 674.38,-652.12 722,-677 790.62,-712.85 881.18,-712.55 942.72,-706.56"/>
<polygon fill="midnightblue" stroke="midnightblue" points="943.14,-710.03 952.72,-705.51 942.41,-703.07 943.14,-710.03"/>
</g>
<!-- Node55 -->
<g id="node21" class="node">
<title>Node55</title>
<g id="a_node21"><a xlink:href="classJoyButton.html#a3ba126d15eeb0768f255939b4a2eaee8" target="_top" xlink:title=" ">
<polygon fill="white" stroke="red" points="732.5,-724.5 732.5,-743.5 881.5,-743.5 881.5,-724.5 732.5,-724.5"/>
<text text-anchor="middle" x="807" y="-731.5" font-family="Helvetica,sans-Serif" font-size="10.00">JoyButton::insertAssignedSlot</text>
</a>
</g>
</g>
<!-- Node53&#45;&gt;Node55 -->
<g id="edge20" class="edge">
<title>Node53&#45;&gt;Node55</title>
<path fill="none" stroke="midnightblue" d="M626.85,-566.3C638.75,-598.07 670.5,-671.44 722,-710 727.84,-714.37 734.46,-717.95 741.35,-720.88"/>
<polygon fill="midnightblue" stroke="midnightblue" points="740.27,-724.22 750.87,-724.48 742.75,-717.67 740.27,-724.22"/>
</g>
<!-- Node63 -->
<g id="node22" class="node">
<title>Node63</title>
<g id="a_node22"><a xlink:href="classJoyButton.html#ad584e8d34e82b179966790f412d0a50a" target="_top" xlink:title=" ">
<polygon fill="white" stroke="black" points="738.5,-522.5 738.5,-541.5 875.5,-541.5 875.5,-522.5 738.5,-522.5"/>
<text text-anchor="middle" x="807" y="-529.5" font-family="Helvetica,sans-Serif" font-size="10.00">JoyButton::isModifierButton</text>
</a>
</g>
</g>
<!-- Node53&#45;&gt;Node63 -->
<g id="edge23" class="edge">
<title>Node53&#45;&gt;Node63</title>
<path fill="none" stroke="midnightblue" d="M686.03,-544.35C699.66,-542.95 714.18,-541.46 728.24,-540.01"/>
<polygon fill="midnightblue" stroke="midnightblue" points="728.79,-543.47 738.38,-538.96 728.07,-536.51 728.79,-543.47"/>
</g>
<!-- Node64 -->
<g id="node23" class="node">
<title>Node64</title>
<g id="a_node23"><a xlink:href="classJoyButton.html#a79b44a6acc2c7860472759f5e2dca087" target="_top" xlink:title=" ">
<polygon fill="white" stroke="black" points="738.5,-484.5 738.5,-503.5 875.5,-503.5 875.5,-484.5 738.5,-484.5"/>
<text text-anchor="middle" x="807" y="-491.5" font-family="Helvetica,sans-Serif" font-size="10.00">JoyButton::isRelativeSpring</text>
</a>
</g>
</g>
<!-- Node53&#45;&gt;Node64 -->
<g id="edge24" class="edge">
<title>Node53&#45;&gt;Node64</title>
<path fill="none" stroke="midnightblue" d="M660.58,-535.93C686.07,-526.15 715.73,-514.89 722,-513 730.53,-510.44 739.64,-508.04 748.6,-505.86"/>
<polygon fill="midnightblue" stroke="midnightblue" points="749.67,-509.21 758.61,-503.51 748.07,-502.39 749.67,-509.21"/>
</g>
<!-- Node65 -->
<g id="node24" class="node">
<title>Node65</title>
<g id="a_node24"><a xlink:href="classJoyButtonSlot.html#ac4bed8a7309890744a1c3bfda9a6e610" target="_top" xlink:title=" ">
<polygon fill="white" stroke="black" points="742,-446.5 742,-465.5 872,-465.5 872,-446.5 742,-446.5"/>
<text text-anchor="middle" x="807" y="-453.5" font-family="Helvetica,sans-Serif" font-size="10.00">JoyButtonSlot::isValidSlot</text>
</a>
</g>
</g>
<!-- Node53&#45;&gt;Node65 -->
<g id="edge25" class="edge">
<title>Node53&#45;&gt;Node65</title>
<path fill="none" stroke="midnightblue" d="M669.72,-536C675.49,-533.16 681.08,-529.84 686,-526 707.87,-508.92 698.93,-490.42 722,-475 725.17,-472.88 728.54,-471 732.04,-469.32"/>
<polygon fill="midnightblue" stroke="midnightblue" points="733.69,-472.43 741.57,-465.35 730.99,-465.96 733.69,-472.43"/>
</g>
<!-- Node66 -->
<g id="node25" class="node">
<title>Node66</title>
<g id="a_node25"><a xlink:href="classJoyButtonSlotXml.html#ae1a67e6f62ab1e8753d43416775b420a" target="_top" xlink:title=" ">
<polygon fill="white" stroke="red" points="732.5,-648.5 732.5,-667.5 881.5,-667.5 881.5,-648.5 732.5,-648.5"/>
<text text-anchor="middle" x="807" y="-655.5" font-family="Helvetica,sans-Serif" font-size="10.00">JoyButtonSlotXml::readConfig</text>
</a>
</g>
</g>
<!-- Node53&#45;&gt;Node66 -->
<g id="edge26" class="edge">
<title>Node53&#45;&gt;Node66</title>
<path fill="none" stroke="midnightblue" d="M634.45,-566.33C652.15,-586.23 685.83,-620.59 722,-639 726.63,-641.36 731.55,-643.42 736.59,-645.23"/>
<polygon fill="midnightblue" stroke="midnightblue" points="735.82,-648.66 746.41,-648.41 737.97,-642 735.82,-648.66"/>
</g>
<!-- Node79 -->
<g id="node26" class="node">
<title>Node79</title>
<g id="a_node26"><a xlink:href="classJoyButton.html#a8c448fa3d079ea5bd1c5bb4effee45e5" target="_top" xlink:title=" ">
<polygon fill="white" stroke="black" points="743,-397 743,-427 871,-427 871,-397 743,-397"/>
<text text-anchor="start" x="751" y="-415" font-family="Helvetica,sans-Serif" font-size="10.00">JoyButton::setAccelExtra</text>
<text text-anchor="middle" x="807" y="-404" font-family="Helvetica,sans-Serif" font-size="10.00">Duration</text>
</a>
</g>
</g>
<!-- Node53&#45;&gt;Node79 -->
<g id="edge28" class="edge">
<title>Node53&#45;&gt;Node79</title>
<path fill="none" stroke="midnightblue" d="M672.56,-535.96C677.46,-533.17 682.07,-529.88 686,-526 716.39,-496.05 690.43,-465.7 722,-437 725.61,-433.72 729.63,-430.87 733.91,-428.39"/>
<polygon fill="midnightblue" stroke="midnightblue" points="735.64,-431.44 742.99,-423.81 732.49,-425.19 735.64,-431.44"/>
</g>
<!-- Node80 -->
<g id="node27" class="node">
<title>Node80</title>
<g id="a_node27"><a xlink:href="classJoyButton.html#a969806c0f13266a805d639097078303e" target="_top" xlink:title=" ">
<polygon fill="white" stroke="black" points="740,-358.5 740,-377.5 874,-377.5 874,-358.5 740,-358.5"/>
<text text-anchor="middle" x="807" y="-365.5" font-family="Helvetica,sans-Serif" font-size="10.00">JoyButton::setActionName</text>
</a>
</g>
</g>
<!-- Node53&#45;&gt;Node80 -->
<g id="edge29" class="edge">
<title>Node53&#45;&gt;Node80</title>
<path fill="none" stroke="midnightblue" d="M674.01,-535.88C678.46,-533.12 682.56,-529.85 686,-526 728.18,-478.69 676.7,-432.34 722,-388 724.73,-385.33 727.75,-382.99 730.98,-380.94"/>
<polygon fill="midnightblue" stroke="midnightblue" points="732.74,-383.97 739.94,-376.19 729.46,-377.78 732.74,-383.97"/>
</g>
<!-- Node81 -->
<g id="node28" class="node">
<title>Node81</title>
<g id="a_node28"><a xlink:href="classJoyButton.html#a451a0eaac9ee0a8804107a8b8c6659d1" target="_top" xlink:title=" ">
<polygon fill="white" stroke="black" points="722,-762.5 722,-781.5 892,-781.5 892,-762.5 722,-762.5"/>
<text text-anchor="middle" x="807" y="-769.5" font-family="Helvetica,sans-Serif" font-size="10.00">JoyButton::setChangeSetCondition</text>
</a>
</g>
</g>
<!-- Node53&#45;&gt;Node81 -->
<g id="edge30" class="edge">
<title>Node53&#45;&gt;Node81</title>
<path fill="none" stroke="midnightblue" d="M624.42,-566.23C632.52,-604.19 659,-703.52 722,-753 724.31,-754.82 726.77,-756.47 729.33,-757.97"/>
<polygon fill="midnightblue" stroke="midnightblue" points="727.88,-761.16 738.39,-762.5 731.01,-754.9 727.88,-761.16"/>
</g>
<!-- Node82 -->
<g id="node29" class="node">
<title>Node82</title>
<g id="a_node29"><a xlink:href="classJoyButton.html#af7ffbb38754f3f898935e6cc975ebb6a" target="_top" xlink:title=" ">
<polygon fill="white" stroke="black" points="928,-800.5 928,-819.5 1098,-819.5 1098,-800.5 928,-800.5"/>
<text text-anchor="middle" x="1013" y="-807.5" font-family="Helvetica,sans-Serif" font-size="10.00">JoyButton::setChangeSetSelection</text>
</a>
</g>
</g>
<!-- Node53&#45;&gt;Node82 -->
<g id="edge34" class="edge">
<title>Node53&#45;&gt;Node82</title>
<path fill="none" stroke="midnightblue" d="M621.23,-566.17C621.25,-615.91 628.88,-774.72 722,-841 802.55,-898.34 928.95,-850.16 984.39,-824.08"/>
<polygon fill="midnightblue" stroke="midnightblue" points="986.09,-827.15 993.58,-819.65 983.05,-820.84 986.09,-827.15"/>
</g>
<!-- Node83 -->
<g id="node30" class="node">
<title>Node83</title>
<g id="a_node30"><a xlink:href="classJoyButton.html#a725256449033a456c65eee07159f5cba" target="_top" xlink:title=" ">
<polygon fill="white" stroke="black" points="741.5,-309 741.5,-339 872.5,-339 872.5,-309 741.5,-309"/>
<text text-anchor="start" x="749.5" y="-327" font-family="Helvetica,sans-Serif" font-size="10.00">JoyButton::setCycleReset</text>
<text text-anchor="middle" x="807" y="-316" font-family="Helvetica,sans-Serif" font-size="10.00">Status</text>
</a>
</g>
</g>
<!-- Node53&#45;&gt;Node83 -->
<g id="edge35" class="edge">
<title>Node53&#45;&gt;Node83</title>
<path fill="none" stroke="midnightblue" d="M674.54,-535.88C678.83,-533.12 682.75,-529.86 686,-526 737.77,-464.64 667.81,-408.22 722,-349 725.09,-345.63 728.61,-342.7 732.42,-340.16"/>
<polygon fill="midnightblue" stroke="midnightblue" points="734.19,-343.18 741.16,-335.2 730.74,-337.09 734.19,-343.18"/>
</g>
<!-- Node84 -->
<g id="node31" class="node">
<title>Node84</title>
<g id="a_node31"><a xlink:href="classJoyButton.html#ae2cf7d7b14cd56c0cde9b2a573f49d05" target="_top" xlink:title=" ">
<polygon fill="white" stroke="black" points="731,-270.5 731,-289.5 883,-289.5 883,-270.5 731,-270.5"/>
<text text-anchor="middle" x="807" y="-277.5" font-family="Helvetica,sans-Serif" font-size="10.00">JoyButton::setCycleResetTime</text>
</a>
</g>
</g>
<!-- Node53&#45;&gt;Node84 -->
<g id="edge36" class="edge">
<title>Node53&#45;&gt;Node84</title>
<path fill="none" stroke="midnightblue" d="M675.02,-535.82C679.15,-533.07 682.91,-529.83 686,-526 749.92,-446.88 652.86,-374.59 722,-300 723.61,-298.26 725.35,-296.66 727.19,-295.18"/>
<polygon fill="midnightblue" stroke="midnightblue" points="729.39,-297.92 735.82,-289.51 725.54,-292.07 729.39,-297.92"/>
</g>
<!-- Node85 -->
<g id="node32" class="node">
<title>Node85</title>
<g id="a_node32"><a xlink:href="classJoyButton.html#afd7d3140abdc30b8f1572add36409919" target="_top" xlink:title=" ">
<polygon fill="white" stroke="black" points="733.5,-232.5 733.5,-251.5 880.5,-251.5 880.5,-232.5 733.5,-232.5"/>
<text text-anchor="middle" x="807" y="-239.5" font-family="Helvetica,sans-Serif" font-size="10.00">JoyButton::setEasingDuration</text>
</a>
</g>
</g>
<!-- Node53&#45;&gt;Node85 -->
<g id="edge37" class="edge">
<title>Node53&#45;&gt;Node85</title>
<path fill="none" stroke="midnightblue" d="M675.11,-535.9C679.22,-533.13 682.95,-529.87 686,-526 759.63,-432.69 641.71,-348.64 722,-261 723.07,-259.83 724.2,-258.72 725.38,-257.68"/>
<polygon fill="midnightblue" stroke="midnightblue" points="727.72,-260.3 733.8,-251.63 723.64,-254.62 727.72,-260.3"/>
</g>
<!-- Node86 -->
<g id="node33" class="node">
<title>Node86</title>
<g id="a_node33"><a xlink:href="classJoyButton.html#a9c9b250fd48631ca1632a9ad8562c040" target="_top" xlink:title=" ">
<polygon fill="white" stroke="black" points="728,-183 728,-213 886,-213 886,-183 728,-183"/>
<text text-anchor="start" x="736" y="-201" font-family="Helvetica,sans-Serif" font-size="10.00">JoyButton::setExtraAcceleration</text>
<text text-anchor="middle" x="807" y="-190" font-family="Helvetica,sans-Serif" font-size="10.00">Curve</text>
</a>
</g>
</g>
<!-- Node53&#45;&gt;Node86 -->
<g id="edge38" class="edge">
<title>Node53&#45;&gt;Node86</title>
<path fill="none" stroke="midnightblue" d="M675.18,-535.95C679.28,-533.18 682.98,-529.89 686,-526 769.11,-418.84 634.65,-326.73 722,-223 723.01,-221.8 724.08,-220.66 725.19,-219.57"/>
<polygon fill="midnightblue" stroke="midnightblue" points="727.6,-222.12 733.19,-213.12 723.21,-216.67 727.6,-222.12"/>
</g>
<!-- Node87 -->
<g id="node34" class="node">
<title>Node87</title>
<g id="a_node34"><a xlink:href="classJoyButton.html#a4cfa85119a700d9d99fd19461bd952a1" target="_top" xlink:title=" ">
<polygon fill="white" stroke="black" points="728,-801 728,-831 886,-831 886,-801 728,-801"/>
<text text-anchor="start" x="736" y="-819" font-family="Helvetica,sans-Serif" font-size="10.00">JoyButton::setExtraAcceleration</text>
<text text-anchor="middle" x="807" y="-808" font-family="Helvetica,sans-Serif" font-size="10.00">Multiplier</text>
</a>
</g>
</g>
<!-- Node53&#45;&gt;Node87 -->
<g id="edge39" class="edge">
<title>Node53&#45;&gt;Node87</title>
<path fill="none" stroke="midnightblue" d="M623.36,-566.22C629.33,-608.45 651.93,-728.07 722,-791 723.75,-792.57 725.59,-794.04 727.51,-795.42"/>
<polygon fill="midnightblue" stroke="midnightblue" points="726.02,-798.61 736.36,-800.89 729.7,-792.66 726.02,-798.61"/>
</g>
<!-- Node55&#45;&gt;Node13 -->
<g id="edge21" class="edge">
<title>Node55&#45;&gt;Node13</title>
<path fill="none" stroke="midnightblue" d="M881.08,-743.53C939.76,-751.32 1024.26,-762.83 1098,-774 1106.46,-775.28 1115.31,-776.67 1124.11,-778.08"/>
<polygon fill="midnightblue" stroke="midnightblue" points="1123.57,-781.54 1134,-779.68 1124.69,-774.63 1123.57,-781.54"/>
</g>
<!-- Node55&#45;&gt;Node47 -->
<g id="edge22" class="edge">
<title>Node55&#45;&gt;Node47</title>
<path fill="none" stroke="midnightblue" d="M859.21,-724.46C886.98,-719.29 921.49,-712.86 950.68,-707.42"/>
<polygon fill="midnightblue" stroke="midnightblue" points="951.57,-710.82 960.76,-705.54 950.29,-703.93 951.57,-710.82"/>
</g>
<!-- Node66&#45;&gt;Node47 -->
<g id="edge27" class="edge">
<title>Node66&#45;&gt;Node47</title>
<path fill="none" stroke="midnightblue" d="M859.21,-667.54C886.98,-672.71 921.49,-679.14 950.68,-684.58"/>
<polygon fill="midnightblue" stroke="midnightblue" points="950.29,-688.07 960.76,-686.46 951.57,-681.18 950.29,-688.07"/>
</g>
<!-- Node81&#45;&gt;Node13 -->
<g id="edge31" class="edge">
<title>Node81&#45;&gt;Node13</title>
<path fill="none" stroke="midnightblue" d="M892.31,-776.08C960.96,-779.39 1057.08,-784.04 1123.75,-787.27"/>
<polygon fill="midnightblue" stroke="midnightblue" points="1123.62,-790.76 1133.78,-787.75 1123.96,-783.77 1123.62,-790.76"/>
</g>
<!-- Node81&#45;&gt;Node82 -->
<g id="edge32" class="edge">
<title>Node81&#45;&gt;Node82</title>
<path fill="none" stroke="midnightblue" d="M859.21,-781.54C886.98,-786.71 921.49,-793.14 950.68,-798.58"/>
<polygon fill="midnightblue" stroke="midnightblue" points="950.29,-802.07 960.76,-800.46 951.57,-795.18 950.29,-802.07"/>
</g>
<!-- Node82&#45;&gt;Node13 -->
<g id="edge33" class="edge">
<title>Node82&#45;&gt;Node13</title>
<path fill="none" stroke="midnightblue" d="M1098.2,-801.44C1106.68,-800.58 1115.26,-799.71 1123.66,-798.86"/>
<polygon fill="midnightblue" stroke="midnightblue" points="1124.2,-802.32 1133.8,-797.83 1123.49,-795.36 1124.2,-802.32"/>
</g>
<!-- Node106 -->
<g id="node36" class="node">
<title>Node106</title>
<g id="a_node36"><a xlink:href="classJoyAxis.html#aae658e2a7b83ce73ce3d7d1ed13eabc6" target="_top" xlink:title=" ">
<polygon fill="white" stroke="black" points="371,-38.5 371,-57.5 497,-57.5 497,-38.5 371,-38.5"/>
<text text-anchor="middle" x="434" y="-45.5" font-family="Helvetica,sans-Serif" font-size="10.00">JoyAxis::getNAxisButton</text>
</a>
</g>
</g>
<!-- Node105&#45;&gt;Node106 -->
<g id="edge41" class="edge">
<title>Node105&#45;&gt;Node106</title>
<path fill="none" stroke="midnightblue" d="M291.96,-114.48C299.28,-111.99 306.55,-108.88 313,-105 332.94,-93.01 328.78,-78.51 349,-67 352.91,-64.78 357.05,-62.81 361.33,-61.08"/>
<polygon fill="midnightblue" stroke="midnightblue" points="362.64,-64.33 370.86,-57.64 360.27,-57.74 362.64,-64.33"/>
</g>
<!-- Node107 -->
<g id="node37" class="node">
<title>Node107</title>
<g id="a_node37"><a xlink:href="classJoyAxisButton.html#afcc96abd6132e97d0825bb94a52f342a" target="_top" xlink:title=" ">
<polygon fill="white" stroke="black" points="362.5,-0.5 362.5,-19.5 505.5,-19.5 505.5,-0.5 362.5,-0.5"/>
<text text-anchor="middle" x="434" y="-7.5" font-family="Helvetica,sans-Serif" font-size="10.00">JoyAxisButton::getXmlName</text>
</a>
</g>
</g>
<!-- Node105&#45;&gt;Node107 -->
<g id="edge42" class="edge">
<title>Node105&#45;&gt;Node107</title>
<path fill="none" stroke="midnightblue" d="M297.36,-114.46C303.01,-111.99 308.37,-108.89 313,-105 341.6,-80.94 319.83,-52.37 349,-29 351.09,-27.32 353.31,-25.79 355.61,-24.38"/>
<polygon fill="midnightblue" stroke="midnightblue" points="357.62,-27.28 364.9,-19.58 354.41,-21.07 357.62,-27.28"/>
</g>
<!-- Node108 -->
<g id="node38" class="node">
<title>Node108</title>
<g id="a_node38"><a xlink:href="classJoyAxis.html#a04c3b7b172ad46013382e36ad7b65691" target="_top" xlink:title=" ">
<polygon fill="white" stroke="black" points="376.5,-152.5 376.5,-171.5 491.5,-171.5 491.5,-152.5 376.5,-152.5"/>
<text text-anchor="middle" x="434" y="-159.5" font-family="Helvetica,sans-Serif" font-size="10.00">JoyAxis::getXmlName</text>
</a>
</g>
</g>
<!-- Node105&#45;&gt;Node108 -->
<g id="edge43" class="edge">
<title>Node105&#45;&gt;Node108</title>
<path fill="none" stroke="midnightblue" d="M292.07,-133.59C317.5,-138.72 349,-145.07 375.77,-150.46"/>
<polygon fill="midnightblue" stroke="midnightblue" points="375.28,-153.93 385.78,-152.48 376.66,-147.07 375.28,-153.93"/>
</g>
<!-- Node109 -->
<g id="node39" class="node">
<title>Node109</title>
<g id="a_node39"><a xlink:href="classJoyAxisXml.html#a100bfdebc33c9c7f3957a59febf3a1bd" target="_top" xlink:title=" ">
<polygon fill="white" stroke="black" points="358.5,-114.5 358.5,-133.5 509.5,-133.5 509.5,-114.5 358.5,-114.5"/>
<text text-anchor="middle" x="434" y="-121.5" font-family="Helvetica,sans-Serif" font-size="10.00">JoyAxisXml::readButtonConfig</text>
</a>
</g>
</g>
<!-- Node105&#45;&gt;Node109 -->
<g id="edge44" class="edge">
<title>Node105&#45;&gt;Node109</title>
<path fill="none" stroke="midnightblue" d="M304.66,-124C318.49,-124 333.46,-124 348.12,-124"/>
<polygon fill="midnightblue" stroke="midnightblue" points="348.2,-127.5 358.2,-124 348.2,-120.5 348.2,-127.5"/>
</g>
<!-- Node110 -->
<g id="node40" class="node">
<title>Node110</title>
<g id="a_node40"><a xlink:href="classJoyAxisXml.html#a722916013ad49036b2ad38ab8ec30484" target="_top" xlink:title=" ">
<polygon fill="white" stroke="red" points="362.5,-76.5 362.5,-95.5 505.5,-95.5 505.5,-76.5 362.5,-76.5"/>
<text text-anchor="middle" x="434" y="-83.5" font-family="Helvetica,sans-Serif" font-size="10.00">JoyAxisXml::readMainConfig</text>
</a>
</g>
</g>
<!-- Node105&#45;&gt;Node110 -->
<g id="edge45" class="edge">
<title>Node105&#45;&gt;Node110</title>
<path fill="none" stroke="midnightblue" d="M292.07,-114.41C317.5,-109.28 349,-102.93 375.77,-97.54"/>
<polygon fill="midnightblue" stroke="midnightblue" points="376.66,-100.93 385.78,-95.52 375.28,-94.07 376.66,-100.93"/>
</g>
<!-- Node132&#45;&gt;Node12 -->
<g id="edge47" class="edge">
<title>Node132&#45;&gt;Node12</title>
<path fill="none" stroke="midnightblue" d="M251.19,-412.84C269.96,-440.18 323.42,-516.1 349,-532 352.4,-534.12 356.01,-536 359.75,-537.67"/>
<polygon fill="midnightblue" stroke="midnightblue" points="358.67,-541 369.26,-541.41 361.23,-534.49 358.67,-541"/>
</g>
<!-- Node133 -->
<g id="node42" class="node">
<title>Node133</title>
<g id="a_node42"><a xlink:href="classJoyControlStick.html#ae381539f8082f6b7bd761bb7e6fed196" target="_top" xlink:title=" ">
<polygon fill="white" stroke="black" points="349,-415.5 349,-434.5 519,-434.5 519,-415.5 349,-415.5"/>
<text text-anchor="middle" x="434" y="-422.5" font-family="Helvetica,sans-Serif" font-size="10.00">JoyControlStick::setCalibrationFlag</text>
</a>
</g>
</g>
<!-- Node132&#45;&gt;Node133 -->
<g id="edge48" class="edge">
<title>Node132&#45;&gt;Node133</title>
<path fill="none" stroke="midnightblue" d="M313.09,-411C322.21,-412.07 331.68,-413.17 341.11,-414.28"/>
<polygon fill="midnightblue" stroke="midnightblue" points="340.99,-417.78 351.33,-415.47 341.8,-410.83 340.99,-417.78"/>
</g>
<!-- Node134 -->
<g id="node43" class="node">
<title>Node134</title>
<g id="a_node43"><a xlink:href="classJoyControlStick.html#adec80e31862ed2447a2a464cdd14da1a" target="_top" xlink:title=" ">
<polygon fill="white" stroke="black" points="358.5,-366 358.5,-396 509.5,-396 509.5,-366 358.5,-366"/>
<text text-anchor="start" x="366.5" y="-384" font-family="Helvetica,sans-Serif" font-size="10.00">JoyControlStick::setCalibration</text>
<text text-anchor="middle" x="434" y="-373" font-family="Helvetica,sans-Serif" font-size="10.00">Summary</text>
</a>
</g>
</g>
<!-- Node132&#45;&gt;Node134 -->
<g id="edge49" class="edge">
<title>Node132&#45;&gt;Node134</title>
<path fill="none" stroke="midnightblue" d="M313.09,-395C324.48,-393.66 336.43,-392.27 348.17,-390.9"/>
<polygon fill="midnightblue" stroke="midnightblue" points="348.89,-394.34 358.42,-389.7 348.08,-387.39 348.89,-394.34"/>
</g>
<!-- Node135 -->
<g id="node44" class="node">
<title>Node135</title>
<g id="a_node44"><a xlink:href="classJoyControlStick.html#a364ee17e1be39a187186ee842d633217" target="_top" xlink:title="Set the percentage of the outer square that should be ignored when performing the final axis calculat...">
<polygon fill="white" stroke="black" points="368.5,-317 368.5,-347 499.5,-347 499.5,-317 368.5,-317"/>
<text text-anchor="start" x="376.5" y="-335" font-family="Helvetica,sans-Serif" font-size="10.00">JoyControlStick::setCircle</text>
<text text-anchor="middle" x="434" y="-324" font-family="Helvetica,sans-Serif" font-size="10.00">Adjust</text>
</a>
</g>
</g>
<!-- Node132&#45;&gt;Node135 -->
<g id="edge50" class="edge">
<title>Node132&#45;&gt;Node135</title>
<path fill="none" stroke="midnightblue" d="M264.23,-393.43C285.02,-383.55 318.86,-368.07 349,-357 355.43,-354.64 362.2,-352.33 368.98,-350.14"/>
<polygon fill="midnightblue" stroke="midnightblue" points="370.41,-353.36 378.9,-347.01 368.31,-346.68 370.41,-353.36"/>
</g>
<!-- Node136 -->
<g id="node45" class="node">
<title>Node136</title>
<g id="a_node45"><a xlink:href="classJoyControlStick.html#a61e269bc3ba21ed3d087bdd1c2c9aafd" target="_top" xlink:title=" ">
<polygon fill="white" stroke="red" points="359,-278.5 359,-297.5 509,-297.5 509,-278.5 359,-278.5"/>
<text text-anchor="middle" x="434" y="-285.5" font-family="Helvetica,sans-Serif" font-size="10.00">JoyControlStick::setDeadZone</text>
</a>
</g>
</g>
<!-- Node132&#45;&gt;Node136 -->
<g id="edge51" class="edge">
<title>Node132&#45;&gt;Node136</title>
<path fill="none" stroke="midnightblue" d="M252.03,-393.49C267.82,-374.2 306.5,-330.44 349,-308 354.27,-305.22 359.92,-302.82 365.71,-300.75"/>
<polygon fill="midnightblue" stroke="midnightblue" points="367.12,-303.98 375.55,-297.57 364.96,-297.32 367.12,-303.98"/>
</g>
<!-- Node138 -->
<g id="node46" class="node">
<title>Node138</title>
<g id="a_node46"><a xlink:href="classJoyControlStick.html#abf2153ee9f2364f55640feb2a6ca60d6" target="_top" xlink:title="Set the diagonal range value for a stick.">
<polygon fill="white" stroke="black" points="362.5,-229 362.5,-259 505.5,-259 505.5,-229 362.5,-229"/>
<text text-anchor="start" x="370.5" y="-247" font-family="Helvetica,sans-Serif" font-size="10.00">JoyControlStick::setDiagonal</text>
<text text-anchor="middle" x="434" y="-236" font-family="Helvetica,sans-Serif" font-size="10.00">Range</text>
</a>
</g>
</g>
<!-- Node132&#45;&gt;Node138 -->
<g id="edge52" class="edge">
<title>Node132&#45;&gt;Node138</title>
<path fill="none" stroke="midnightblue" d="M249.34,-393.22C262.09,-368.51 299.05,-303.09 349,-269 351.92,-267.01 354.99,-265.18 358.18,-263.48"/>
<polygon fill="midnightblue" stroke="midnightblue" points="359.88,-266.55 367.4,-259.09 356.87,-260.23 359.88,-266.55"/>
</g>
<!-- Node139 -->
<g id="node47" class="node">
<title>Node139</title>
<g id="a_node47"><a xlink:href="classJoyControlStick.html#a7979a689bc339467288892614fffed13" target="_top" xlink:title=" ">
<polygon fill="white" stroke="black" points="361.5,-190.5 361.5,-209.5 506.5,-209.5 506.5,-190.5 361.5,-190.5"/>
<text text-anchor="middle" x="434" y="-197.5" font-family="Helvetica,sans-Serif" font-size="10.00">JoyControlStick::setJoyMode</text>
</a>
</g>
</g>
<!-- Node132&#45;&gt;Node139 -->
<g id="edge53" class="edge">
<title>Node132&#45;&gt;Node139</title>
<path fill="none" stroke="midnightblue" d="M247.08,-393.2C255.7,-362.38 286.63,-266.72 349,-220 352.06,-217.71 355.34,-215.67 358.78,-213.87"/>
<polygon fill="midnightblue" stroke="midnightblue" points="360.5,-216.93 368.16,-209.61 357.61,-210.56 360.5,-216.93"/>
</g>
<!-- Node140 -->
<g id="node48" class="node">
<title>Node140</title>
<g id="a_node48"><a xlink:href="classJoyControlStick.html#aa236bf1eb5e70e282a47bde20c4ef6a3" target="_top" xlink:title=" ">
<polygon fill="white" stroke="red" points="361,-503.5 361,-522.5 507,-522.5 507,-503.5 361,-503.5"/>
<text text-anchor="middle" x="434" y="-510.5" font-family="Helvetica,sans-Serif" font-size="10.00">JoyControlStick::setMaxZone</text>
</a>
</g>
</g>
<!-- Node132&#45;&gt;Node140 -->
<g id="edge54" class="edge">
<title>Node132&#45;&gt;Node140</title>
<path fill="none" stroke="midnightblue" d="M252.6,-412.71C268.83,-431.51 307.38,-472.89 349,-494 353.63,-496.35 358.55,-498.41 363.6,-500.22"/>
<polygon fill="midnightblue" stroke="midnightblue" points="362.82,-503.65 373.42,-503.4 364.98,-496.99 362.82,-503.65"/>
</g>
<!-- Node141 -->
<g id="node49" class="node">
<title>Node141</title>
<g id="a_node49"><a xlink:href="classJoyControlStick.html#ac13e6601f793905edae978fd8f1e8a2b" target="_top" xlink:title=" ">
<polygon fill="white" stroke="black" points="370,-454 370,-484 498,-484 498,-454 370,-454"/>
<text text-anchor="start" x="378" y="-472" font-family="Helvetica,sans-Serif" font-size="10.00">JoyControlStick::setStick</text>
<text text-anchor="middle" x="434" y="-461" font-family="Helvetica,sans-Serif" font-size="10.00">Delay</text>
</a>
</g>
</g>
<!-- Node132&#45;&gt;Node141 -->
<g id="edge55" class="edge">
<title>Node132&#45;&gt;Node141</title>
<path fill="none" stroke="midnightblue" d="M267.13,-412.52C288.15,-421.21 320.44,-434.17 349,-444 355.82,-446.35 363,-448.69 370.17,-450.94"/>
<polygon fill="midnightblue" stroke="midnightblue" points="369.32,-454.34 379.91,-453.94 371.38,-447.65 369.32,-454.34"/>
</g>
</g>
</svg>
