<?xml version="1.0" encoding="UTF-8" standalone="no"?>
<!DOCTYPE svg PUBLIC "-//W3C//DTD SVG 1.1//EN"
 "http://www.w3.org/Graphics/SVG/1.1/DTD/svg11.dtd">
<!-- Generated by graphviz version 2.43.0 (0)
 -->
<!-- Title: JoyButtonSlotXml::setSlotData Pages: 1 -->
<svg width="562pt" height="275pt"
 viewBox="0.00 0.00 562.00 275.00" xmlns="http://www.w3.org/2000/svg" xmlns:xlink="http://www.w3.org/1999/xlink">
<g id="graph0" class="graph" transform="scale(1 1) rotate(0) translate(4 271)">
<title>JoyButtonSlotXml::setSlotData</title>
<polygon fill="white" stroke="transparent" points="-4,4 -4,-271 558,-271 558,4 -4,4"/>
<!-- Node1 -->
<g id="node1" class="node">
<title>Node1</title>
<g id="a_node1"><a xlink:title=" ">
<polygon fill="#bfbfbf" stroke="black" points="0,-114.5 0,-133.5 152,-133.5 152,-114.5 0,-114.5"/>
<text text-anchor="middle" x="76" y="-121.5" font-family="Helvetica,sans-Serif" font-size="10.00">JoyButtonSlotXml::setSlotData</text>
</a>
</g>
</g>
<!-- Node2 -->
<g id="node2" class="node">
<title>Node2</title>
<g id="a_node2"><a xlink:href="$classAntKeyMapper.html#acd08c44a2501edcfdb1ef8a68d534b1b" xlink:title=" ">
<polygon fill="white" stroke="black" points="197.5,-228.5 197.5,-247.5 334.5,-247.5 334.5,-228.5 197.5,-228.5"/>
<text text-anchor="middle" x="266" y="-235.5" font-family="Helvetica,sans-Serif" font-size="10.00">AntKeyMapper::getInstance</text>
</a>
</g>
</g>
<!-- Node1&#45;&gt;Node2 -->
<g id="edge1" class="edge">
<title>Node1&#45;&gt;Node2</title>
<path fill="none" stroke="midnightblue" d="M85.41,-133.76C102.63,-153.1 144.01,-196.38 188,-219 192.55,-221.34 197.41,-223.4 202.38,-225.22"/>
<polygon fill="midnightblue" stroke="midnightblue" points="201.44,-228.59 212.03,-228.41 203.64,-221.95 201.44,-228.59"/>
</g>
<!-- Node5 -->
<g id="node5" class="node">
<title>Node5</title>
<g id="a_node5"><a xlink:href="$classJoyButtonSlot.html#a7fa0bf6d891437a2392e47d32b746502" xlink:title=" ">
<polygon fill="white" stroke="black" points="197,-190.5 197,-209.5 335,-209.5 335,-190.5 197,-190.5"/>
<text text-anchor="middle" x="266" y="-197.5" font-family="Helvetica,sans-Serif" font-size="10.00">JoyButtonSlot::getSlotCode</text>
</a>
</g>
</g>
<!-- Node1&#45;&gt;Node5 -->
<g id="edge4" class="edge">
<title>Node1&#45;&gt;Node5</title>
<path fill="none" stroke="midnightblue" d="M92.64,-133.52C113.66,-145.95 152.5,-167.71 188,-181 194.74,-183.52 201.93,-185.81 209.12,-187.84"/>
<polygon fill="midnightblue" stroke="midnightblue" points="208.3,-191.25 218.87,-190.47 210.12,-184.49 208.3,-191.25"/>
</g>
<!-- Node6 -->
<g id="node6" class="node">
<title>Node6</title>
<g id="a_node6"><a xlink:href="$classJoyButtonSlot.html#abed7fe134c404b403ea79c0753f6eaaf" xlink:title=" ">
<polygon fill="white" stroke="black" points="196.5,-152.5 196.5,-171.5 335.5,-171.5 335.5,-152.5 196.5,-152.5"/>
<text text-anchor="middle" x="266" y="-159.5" font-family="Helvetica,sans-Serif" font-size="10.00">JoyButtonSlot::getSlotMode</text>
</a>
</g>
</g>
<!-- Node1&#45;&gt;Node6 -->
<g id="edge5" class="edge">
<title>Node1&#45;&gt;Node6</title>
<path fill="none" stroke="midnightblue" d="M124.44,-133.59C149.81,-138.72 181.23,-145.07 207.92,-150.46"/>
<polygon fill="midnightblue" stroke="midnightblue" points="207.41,-153.93 217.9,-152.48 208.79,-147.07 207.41,-153.93"/>
</g>
<!-- Node7 -->
<g id="node7" class="node">
<title>Node7</title>
<g id="a_node7"><a xlink:href="$classAntKeyMapper.html#a07957c1e2baac6c4266678d89dc7c3a6" xlink:title=" ">
<polygon fill="white" stroke="black" points="188,-114.5 188,-133.5 344,-133.5 344,-114.5 188,-114.5"/>
<text text-anchor="middle" x="266" y="-121.5" font-family="Helvetica,sans-Serif" font-size="10.00">AntKeyMapper::returnVirtualKey</text>
</a>
</g>
</g>
<!-- Node1&#45;&gt;Node7 -->
<g id="edge6" class="edge">
<title>Node1&#45;&gt;Node7</title>
<path fill="none" stroke="midnightblue" d="M152.11,-124C160.57,-124 169.23,-124 177.82,-124"/>
<polygon fill="midnightblue" stroke="midnightblue" points="177.85,-127.5 187.85,-124 177.85,-120.5 177.85,-127.5"/>
</g>
<!-- Node9 -->
<g id="node9" class="node">
<title>Node9</title>
<g id="a_node9"><a xlink:href="$classJoyButtonSlot.html#a9ccbe17ed43d1db26cbde0db68976a32" xlink:title=" ">
<polygon fill="white" stroke="black" points="195.5,-76.5 195.5,-95.5 336.5,-95.5 336.5,-76.5 195.5,-76.5"/>
<text text-anchor="middle" x="266" y="-83.5" font-family="Helvetica,sans-Serif" font-size="10.00">JoyButtonSlot::setExtraData</text>
</a>
</g>
</g>
<!-- Node1&#45;&gt;Node9 -->
<g id="edge8" class="edge">
<title>Node1&#45;&gt;Node9</title>
<path fill="none" stroke="midnightblue" d="M124.44,-114.41C149.81,-109.28 181.23,-102.93 207.92,-97.54"/>
<polygon fill="midnightblue" stroke="midnightblue" points="208.79,-100.93 217.9,-95.52 207.41,-94.07 208.79,-100.93"/>
</g>
<!-- Node10 -->
<g id="node10" class="node">
<title>Node10</title>
<g id="a_node10"><a xlink:href="$classJoyButtonSlot.html#a23e2639dee82e872b1ebf3958b0db68c" xlink:title=" ">
<polygon fill="white" stroke="black" points="197,-38.5 197,-57.5 335,-57.5 335,-38.5 197,-38.5"/>
<text text-anchor="middle" x="266" y="-45.5" font-family="Helvetica,sans-Serif" font-size="10.00">JoyButtonSlot::setSlotCode</text>
</a>
</g>
</g>
<!-- Node1&#45;&gt;Node10 -->
<g id="edge9" class="edge">
<title>Node1&#45;&gt;Node10</title>
<path fill="none" stroke="midnightblue" d="M92.64,-114.48C113.66,-102.05 152.5,-80.29 188,-67 194.74,-64.48 201.93,-62.19 209.12,-60.16"/>
<polygon fill="midnightblue" stroke="midnightblue" points="210.12,-63.51 218.87,-57.53 208.3,-56.75 210.12,-63.51"/>
</g>
<!-- Node11 -->
<g id="node11" class="node">
<title>Node11</title>
<g id="a_node11"><a xlink:href="$classJoyButtonSlot.html#aed071cd26a5ff26c2f4ae5403d9c1d41" xlink:title=" ">
<polygon fill="white" stroke="black" points="197.5,-0.5 197.5,-19.5 334.5,-19.5 334.5,-0.5 197.5,-0.5"/>
<text text-anchor="middle" x="266" y="-7.5" font-family="Helvetica,sans-Serif" font-size="10.00">JoyButtonSlot::setTextData</text>
</a>
</g>
</g>
<!-- Node1&#45;&gt;Node11 -->
<g id="edge10" class="edge">
<title>Node1&#45;&gt;Node11</title>
<path fill="none" stroke="midnightblue" d="M85.41,-114.24C102.63,-94.9 144.01,-51.62 188,-29 192.55,-26.66 197.41,-24.6 202.38,-22.78"/>
<polygon fill="midnightblue" stroke="midnightblue" points="203.64,-26.05 212.03,-19.59 201.44,-19.41 203.64,-26.05"/>
</g>
<!-- Node3 -->
<g id="node3" class="node">
<title>Node3</title>
<g id="a_node3"><a xlink:href="$classAntKeyMapper.html#abe4a434636d370a750d32a14b9a139d3" xlink:title=" ">
<polygon fill="white" stroke="black" points="392,-247.5 392,-266.5 542,-266.5 542,-247.5 392,-247.5"/>
<text text-anchor="middle" x="467" y="-254.5" font-family="Helvetica,sans-Serif" font-size="10.00">AntKeyMapper::AntKeyMapper</text>
</a>
</g>
</g>
<!-- Node2&#45;&gt;Node3 -->
<g id="edge2" class="edge">
<title>Node2&#45;&gt;Node3</title>
<path fill="none" stroke="midnightblue" d="M334.65,-244.46C349.72,-245.9 365.87,-247.44 381.52,-248.93"/>
<polygon fill="midnightblue" stroke="midnightblue" points="381.42,-252.44 391.71,-249.91 382.09,-245.47 381.42,-252.44"/>
</g>
<!-- Node4 -->
<g id="node4" class="node">
<title>Node4</title>
<g id="a_node4"><a xlink:href="$antkeymapper_8cpp.html#a4f87707944cf82e8e59c85d48e24951c" xlink:title=" ">
<polygon fill="white" stroke="black" points="407,-209.5 407,-228.5 527,-228.5 527,-209.5 407,-209.5"/>
<text text-anchor="middle" x="467" y="-216.5" font-family="Helvetica,sans-Serif" font-size="10.00">buildEventGeneratorList</text>
</a>
</g>
</g>
<!-- Node2&#45;&gt;Node4 -->
<g id="edge3" class="edge">
<title>Node2&#45;&gt;Node4</title>
<path fill="none" stroke="midnightblue" d="M334.65,-231.54C354.7,-229.63 376.68,-227.53 396.82,-225.6"/>
<polygon fill="midnightblue" stroke="midnightblue" points="397.24,-229.08 406.86,-224.65 396.57,-222.11 397.24,-229.08"/>
</g>
<!-- Node8 -->
<g id="node8" class="node">
<title>Node8</title>
<g id="a_node8"><a xlink:href="$classQtKeyMapperBase.html#a5df0f313bce11847f8495126373e7178" xlink:title=" ">
<polygon fill="white" stroke="black" points="380,-114.5 380,-133.5 554,-133.5 554,-114.5 380,-114.5"/>
<text text-anchor="middle" x="467" y="-121.5" font-family="Helvetica,sans-Serif" font-size="10.00">QtKeyMapperBase::returnVirtualKey</text>
</a>
</g>
</g>
<!-- Node7&#45;&gt;Node8 -->
<g id="edge7" class="edge">
<title>Node7&#45;&gt;Node8</title>
<path fill="none" stroke="midnightblue" d="M344.22,-124C352.63,-124 361.25,-124 369.84,-124"/>
<polygon fill="midnightblue" stroke="midnightblue" points="369.9,-127.5 379.9,-124 369.9,-120.5 369.9,-127.5"/>
</g>
</g>
</svg>
