<?xml version="1.0" encoding="UTF-8" standalone="no"?>
<!DOCTYPE svg PUBLIC "-//W3C//DTD SVG 1.1//EN"
 "http://www.w3.org/Graphics/SVG/1.1/DTD/svg11.dtd">
<!-- Generated by graphviz version 2.43.0 (0)
 -->
<!-- Title: InputDevice::buttonDownEvent Pages: 1 -->
<svg width="750pt" height="176pt"
 viewBox="0.00 0.00 750.00 176.00" xmlns="http://www.w3.org/2000/svg" xmlns:xlink="http://www.w3.org/1999/xlink">
<g id="graph0" class="graph" transform="scale(1 1) rotate(0) translate(4 172)">
<title>InputDevice::buttonDownEvent</title>
<polygon fill="white" stroke="transparent" points="-4,4 -4,-172 746,-172 746,4 -4,4"/>
<!-- Node1 -->
<g id="node1" class="node">
<title>Node1</title>
<g id="a_node1"><a xlink:title=" ">
<polygon fill="#bfbfbf" stroke="black" points="590,-77 590,-96 742,-96 742,-77 590,-77"/>
<text text-anchor="middle" x="666" y="-84" font-family="Helvetica,sans-Serif" font-size="10.00">InputDevice::buttonDownEvent</text>
</a>
</g>
</g>
<!-- Node2 -->
<g id="node2" class="node">
<title>Node2</title>
<g id="a_node2"><a xlink:href="classInputDevice.html#a434ce6d76c949f69c5cba6f1297b83e9" target="_top" xlink:title=" ">
<polygon fill="white" stroke="black" points="405,-137.5 405,-167.5 553,-167.5 553,-137.5 405,-137.5"/>
<text text-anchor="start" x="413" y="-155.5" font-family="Helvetica,sans-Serif" font-size="10.00">InputDevice::axisButtonDown</text>
<text text-anchor="middle" x="479" y="-144.5" font-family="Helvetica,sans-Serif" font-size="10.00">Event</text>
</a>
</g>
</g>
<!-- Node1&#45;&gt;Node2 -->
<g id="edge1" class="edge">
<title>Node1&#45;&gt;Node2</title>
<path fill="none" stroke="midnightblue" d="M628.68,-99.46C598.14,-110.35 554.46,-125.93 522.35,-137.39"/>
<polygon fill="midnightblue" stroke="midnightblue" points="629.86,-102.75 638.1,-96.1 627.5,-96.16 629.86,-102.75"/>
</g>
<!-- Node3 -->
<g id="node3" class="node">
<title>Node3</title>
<g id="a_node3"><a xlink:href="classInputDevice.html#a6ffcebba103a7db02e82c1c7f62387bf" target="_top" xlink:title=" ">
<polygon fill="white" stroke="black" points="195,-77 195,-96 368,-96 368,-77 195,-77"/>
<text text-anchor="middle" x="281.5" y="-84" font-family="Helvetica,sans-Serif" font-size="10.00">InputDevice::enableSetConnections</text>
</a>
</g>
</g>
<!-- Node1&#45;&gt;Node3 -->
<g id="edge7" class="edge">
<title>Node1&#45;&gt;Node3</title>
<path fill="none" stroke="midnightblue" d="M579.63,-89.04C570.97,-89.23 562.31,-89.39 554,-89.5 487.34,-90.4 470.66,-90.32 404,-89.5 392.4,-89.36 380.17,-89.14 368.12,-88.88"/>
<polygon fill="midnightblue" stroke="midnightblue" points="579.86,-92.54 589.77,-88.81 579.7,-85.54 579.86,-92.54"/>
</g>
<!-- Node6 -->
<g id="node6" class="node">
<title>Node6</title>
<g id="a_node6"><a xlink:href="classInputDevice.html#a2a9c5e33add22f819cd25dff7e69231f" target="_top" xlink:title=" ">
<polygon fill="white" stroke="black" points="404,-49.5 404,-79.5 554,-79.5 554,-49.5 404,-49.5"/>
<text text-anchor="start" x="412" y="-67.5" font-family="Helvetica,sans-Serif" font-size="10.00">InputDevice::dpadButtonDown</text>
<text text-anchor="middle" x="479" y="-56.5" font-family="Helvetica,sans-Serif" font-size="10.00">Event</text>
</a>
</g>
</g>
<!-- Node1&#45;&gt;Node6 -->
<g id="edge5" class="edge">
<title>Node1&#45;&gt;Node6</title>
<path fill="none" stroke="midnightblue" d="M579.8,-76.37C571.28,-75.36 562.68,-74.33 554.28,-73.33"/>
<polygon fill="midnightblue" stroke="midnightblue" points="579.41,-79.85 589.75,-77.55 580.24,-72.9 579.41,-79.85"/>
</g>
<!-- Node7 -->
<g id="node7" class="node">
<title>Node7</title>
<g id="a_node7"><a xlink:href="classInputDevice.html#a38e150f607dc95ee1b4ac4ba3c1c318d" target="_top" xlink:title=" ">
<polygon fill="white" stroke="black" points="416.5,-0.5 416.5,-30.5 541.5,-30.5 541.5,-0.5 416.5,-0.5"/>
<text text-anchor="start" x="424.5" y="-18.5" font-family="Helvetica,sans-Serif" font-size="10.00">InputDevice::stickButton</text>
<text text-anchor="middle" x="479" y="-7.5" font-family="Helvetica,sans-Serif" font-size="10.00">DownEvent</text>
</a>
</g>
</g>
<!-- Node1&#45;&gt;Node7 -->
<g id="edge8" class="edge">
<title>Node1&#45;&gt;Node7</title>
<path fill="none" stroke="midnightblue" d="M633.82,-72.92C611.7,-63.45 581.22,-50.72 554,-40.5 545.11,-37.16 535.55,-33.78 526.35,-30.63"/>
<polygon fill="midnightblue" stroke="midnightblue" points="632.49,-76.16 643.06,-76.9 635.26,-69.73 632.49,-76.16"/>
</g>
<!-- Node2&#45;&gt;Node3 -->
<g id="edge2" class="edge">
<title>Node2&#45;&gt;Node3</title>
<path fill="none" stroke="midnightblue" d="M423.6,-134.13C387,-121.78 340.23,-105.99 310.81,-96.06"/>
<polygon fill="midnightblue" stroke="midnightblue" points="422.55,-137.48 433.15,-137.36 424.79,-130.84 422.55,-137.48"/>
</g>
<!-- Node4 -->
<g id="node4" class="node">
<title>Node4</title>
<g id="a_node4"><a xlink:href="classGameController.html#afcddb9dcc5442a9746c3ff8760ea1791" target="_top" xlink:title=" ">
<polygon fill="white" stroke="black" points="0,-96 0,-115 159,-115 159,-96 0,-96"/>
<text text-anchor="middle" x="79.5" y="-103" font-family="Helvetica,sans-Serif" font-size="10.00">GameController::GameController</text>
</a>
</g>
</g>
<!-- Node3&#45;&gt;Node4 -->
<g id="edge3" class="edge">
<title>Node3&#45;&gt;Node4</title>
<path fill="none" stroke="midnightblue" d="M184.74,-95.6C176.14,-96.41 167.49,-97.24 159.05,-98.04"/>
<polygon fill="midnightblue" stroke="midnightblue" points="185.19,-99.07 194.81,-94.64 184.53,-92.1 185.19,-99.07"/>
</g>
<!-- Node5 -->
<g id="node5" class="node">
<title>Node5</title>
<g id="a_node5"><a xlink:href="classJoystick.html#a9df5e53506876f3c95e84bdf6c9cbaf1" target="_top" xlink:title=" ">
<polygon fill="white" stroke="black" points="32.5,-58 32.5,-77 126.5,-77 126.5,-58 32.5,-58"/>
<text text-anchor="middle" x="79.5" y="-65" font-family="Helvetica,sans-Serif" font-size="10.00">Joystick::Joystick</text>
</a>
</g>
</g>
<!-- Node3&#45;&gt;Node5 -->
<g id="edge4" class="edge">
<title>Node3&#45;&gt;Node5</title>
<path fill="none" stroke="midnightblue" d="M184.6,-77.39C164.39,-75.47 143.95,-73.53 126.6,-71.88"/>
<polygon fill="midnightblue" stroke="midnightblue" points="184.53,-80.9 194.81,-78.36 185.19,-73.93 184.53,-80.9"/>
</g>
<!-- Node6&#45;&gt;Node3 -->
<g id="edge6" class="edge">
<title>Node6&#45;&gt;Node3</title>
<path fill="none" stroke="midnightblue" d="M393.59,-74C384.82,-74.99 375.89,-75.99 367.11,-76.98"/>
<polygon fill="midnightblue" stroke="midnightblue" points="394.27,-77.45 403.81,-72.85 393.48,-70.49 394.27,-77.45"/>
</g>
<!-- Node7&#45;&gt;Node3 -->
<g id="edge9" class="edge">
<title>Node7&#45;&gt;Node3</title>
<path fill="none" stroke="midnightblue" d="M422.67,-33.95C416.36,-36.13 410.03,-38.34 404,-40.5 370.24,-52.59 331.54,-67.41 307.07,-76.9"/>
<polygon fill="midnightblue" stroke="midnightblue" points="424.19,-37.13 432.51,-30.58 421.92,-30.51 424.19,-37.13"/>
</g>
</g>
</svg>
