<?xml version="1.0" encoding="UTF-8" standalone="no"?>
<!DOCTYPE svg PUBLIC "-//W3C//DTD SVG 1.1//EN"
 "http://www.w3.org/Graphics/SVG/1.1/DTD/svg11.dtd">
<!-- Generated by graphviz version 2.43.0 (0)
 -->
<!-- Title: AddEditAutoProfileDialog::checkForDefaultStatus Pages: 1 -->
<svg width="810pt" height="61pt"
 viewBox="0.00 0.00 810.00 61.00" xmlns="http://www.w3.org/2000/svg" xmlns:xlink="http://www.w3.org/1999/xlink">
<g id="graph0" class="graph" transform="scale(1 1) rotate(0) translate(4 57)">
<title>AddEditAutoProfileDialog::checkForDefaultStatus</title>
<polygon fill="white" stroke="transparent" points="-4,4 -4,-57 806,-57 806,4 -4,4"/>
<!-- Node1 -->
<g id="node1" class="node">
<title>Node1</title>
<g id="a_node1"><a xlink:title=" ">
<polygon fill="#bfbfbf" stroke="black" points="675,-22.5 675,-52.5 802,-52.5 802,-22.5 675,-22.5"/>
<text text-anchor="start" x="683" y="-40.5" font-family="Helvetica,sans-Serif" font-size="10.00">AddEditAutoProfileDialog</text>
<text text-anchor="middle" x="738.5" y="-29.5" font-family="Helvetica,sans-Serif" font-size="10.00">::checkForDefaultStatus</text>
</a>
</g>
</g>
<!-- Node2 -->
<g id="node2" class="node">
<title>Node2</title>
<g id="a_node2"><a xlink:href="$classAddEditAutoProfileDialog.html#a518993ac329de2e2bee5eeb392d124ec" xlink:title=" ">
<polygon fill="white" stroke="black" points="0,-22.5 0,-52.5 133,-52.5 133,-22.5 0,-22.5"/>
<text text-anchor="start" x="8" y="-40.5" font-family="Helvetica,sans-Serif" font-size="10.00">AddEditAutoProfileDialog</text>
<text text-anchor="middle" x="66.5" y="-29.5" font-family="Helvetica,sans-Serif" font-size="10.00">::AddEditAutoProfileDialog</text>
</a>
</g>
</g>
<!-- Node1&#45;&gt;Node2 -->
<g id="edge1" class="edge">
<title>Node1&#45;&gt;Node2</title>
<path fill="none" stroke="midnightblue" d="M664.82,-39.14C656.12,-39.29 647.36,-39.42 639,-39.5 430.12,-41.62 377.88,-41.56 169,-39.5 157.37,-39.39 144.99,-39.2 133.02,-38.98"/>
<polygon fill="midnightblue" stroke="midnightblue" points="665.04,-42.64 674.97,-38.96 664.91,-35.64 665.04,-42.64"/>
</g>
<!-- Node3 -->
<g id="node3" class="node">
<title>Node3</title>
<g id="a_node3"><a xlink:href="$classAddEditAutoProfileDialog.html#a6b3575eaa504bf2cde9a47d577c93ecf" xlink:title=" ">
<polygon fill="white" stroke="black" points="511,-0.5 511,-30.5 639,-30.5 639,-0.5 511,-0.5"/>
<text text-anchor="start" x="519" y="-18.5" font-family="Helvetica,sans-Serif" font-size="10.00">AddEditAutoProfileDialog</text>
<text text-anchor="middle" x="575" y="-7.5" font-family="Helvetica,sans-Serif" font-size="10.00">::windowPropAssignment</text>
</a>
</g>
</g>
<!-- Node1&#45;&gt;Node3 -->
<g id="edge2" class="edge">
<title>Node1&#45;&gt;Node3</title>
<path fill="none" stroke="midnightblue" d="M664.43,-27.55C656.03,-26.4 647.52,-25.24 639.26,-24.12"/>
<polygon fill="midnightblue" stroke="midnightblue" points="664.22,-31.05 674.6,-28.93 665.16,-24.11 664.22,-31.05"/>
</g>
<!-- Node4 -->
<g id="node4" class="node">
<title>Node4</title>
<g id="a_node4"><a xlink:href="$classAddEditAutoProfileDialog.html#a7942c873a343bc8a4b48a48dc6c9b54c" xlink:title="Check if there is a program path saved in an UnixCaptureWindowUtility object.">
<polygon fill="white" stroke="black" points="340,-0.5 340,-30.5 475,-30.5 475,-0.5 340,-0.5"/>
<text text-anchor="start" x="348" y="-18.5" font-family="Helvetica,sans-Serif" font-size="10.00">AddEditAutoProfileDialog</text>
<text text-anchor="middle" x="407.5" y="-7.5" font-family="Helvetica,sans-Serif" font-size="10.00">::checkForGrabbedWindow</text>
</a>
</g>
</g>
<!-- Node3&#45;&gt;Node4 -->
<g id="edge3" class="edge">
<title>Node3&#45;&gt;Node4</title>
<path fill="none" stroke="midnightblue" d="M500.7,-15.5C492.22,-15.5 483.61,-15.5 475.22,-15.5"/>
<polygon fill="midnightblue" stroke="midnightblue" points="500.96,-19 510.96,-15.5 500.96,-12 500.96,-19"/>
</g>
<!-- Node5 -->
<g id="node5" class="node">
<title>Node5</title>
<g id="a_node5"><a xlink:href="$classAddEditAutoProfileDialog.html#a9f98eb1983251b052aec04dc1b2a69bb" xlink:title="Display a simple message box and attempt to capture a window using the mouse.">
<polygon fill="white" stroke="black" points="169,-0.5 169,-30.5 304,-30.5 304,-0.5 169,-0.5"/>
<text text-anchor="start" x="177" y="-18.5" font-family="Helvetica,sans-Serif" font-size="10.00">AddEditAutoProfileDialog</text>
<text text-anchor="middle" x="236.5" y="-7.5" font-family="Helvetica,sans-Serif" font-size="10.00">::showCaptureHelpWindow</text>
</a>
</g>
</g>
<!-- Node4&#45;&gt;Node5 -->
<g id="edge4" class="edge">
<title>Node4&#45;&gt;Node5</title>
<path fill="none" stroke="midnightblue" d="M329.45,-15.5C320.98,-15.5 312.41,-15.5 304.08,-15.5"/>
<polygon fill="midnightblue" stroke="midnightblue" points="329.71,-19 339.71,-15.5 329.71,-12 329.71,-19"/>
</g>
<!-- Node5&#45;&gt;Node2 -->
<g id="edge5" class="edge">
<title>Node5&#45;&gt;Node2</title>
<path fill="none" stroke="midnightblue" d="M158.65,-25.56C150.1,-26.68 141.45,-27.82 133.05,-28.92"/>
<polygon fill="midnightblue" stroke="midnightblue" points="159.16,-29.03 168.62,-24.26 158.25,-22.09 159.16,-29.03"/>
</g>
</g>
</svg>
