<?xml version="1.0" encoding="UTF-8" standalone="no"?>
<!DOCTYPE svg PUBLIC "-//W3C//DTD SVG 1.1//EN"
 "http://www.w3.org/Graphics/SVG/1.1/DTD/svg11.dtd">
<!-- Generated by graphviz version 2.43.0 (0)
 -->
<!-- Title: JoyDPad::isRelativeSpring Pages: 1 -->
<svg width="332pt" height="66pt"
 viewBox="0.00 0.00 332.00 66.00" xmlns="http://www.w3.org/2000/svg" xmlns:xlink="http://www.w3.org/1999/xlink">
<g id="graph0" class="graph" transform="scale(1 1) rotate(0) translate(4 62)">
<title>JoyDPad::isRelativeSpring</title>
<polygon fill="white" stroke="transparent" points="-4,4 -4,-62 328,-62 328,4 -4,4"/>
<!-- Node1 -->
<g id="node1" class="node">
<title>Node1</title>
<g id="a_node1"><a xlink:title=" ">
<polygon fill="#bfbfbf" stroke="black" points="0,-19.5 0,-38.5 133,-38.5 133,-19.5 0,-19.5"/>
<text text-anchor="middle" x="66.5" y="-26.5" font-family="Helvetica,sans-Serif" font-size="10.00">JoyDPad::isRelativeSpring</text>
</a>
</g>
</g>
<!-- Node2 -->
<g id="node2" class="node">
<title>Node2</title>
<g id="a_node2"><a xlink:href="classJoyDPad.html#a5f5921607d183f4f221f3a4f97249d8e" target="_top" xlink:title=" ">
<polygon fill="white" stroke="black" points="169,-38.5 169,-57.5 324,-57.5 324,-38.5 169,-38.5"/>
<text text-anchor="middle" x="246.5" y="-45.5" font-family="Helvetica,sans-Serif" font-size="10.00">JoyDPad::getApplicableButtons</text>
</a>
</g>
</g>
<!-- Node1&#45;&gt;Node2 -->
<g id="edge1" class="edge">
<title>Node1&#45;&gt;Node2</title>
<path fill="none" stroke="midnightblue" d="M133.02,-35.99C141.43,-36.89 150.14,-37.82 158.82,-38.75"/>
<polygon fill="midnightblue" stroke="midnightblue" points="158.66,-42.25 168.97,-39.83 159.4,-35.29 158.66,-42.25"/>
</g>
<!-- Node3 -->
<g id="node3" class="node">
<title>Node3</title>
<g id="a_node3"><a xlink:href="classJoyButton.html#a79b44a6acc2c7860472759f5e2dca087" target="_top" xlink:title=" ">
<polygon fill="white" stroke="black" points="178,-0.5 178,-19.5 315,-19.5 315,-0.5 178,-0.5"/>
<text text-anchor="middle" x="246.5" y="-7.5" font-family="Helvetica,sans-Serif" font-size="10.00">JoyButton::isRelativeSpring</text>
</a>
</g>
</g>
<!-- Node1&#45;&gt;Node3 -->
<g id="edge2" class="edge">
<title>Node1&#45;&gt;Node3</title>
<path fill="none" stroke="midnightblue" d="M133.02,-22.01C144.29,-20.8 156.1,-19.54 167.66,-18.31"/>
<polygon fill="midnightblue" stroke="midnightblue" points="168.16,-21.78 177.73,-17.23 167.42,-14.82 168.16,-21.78"/>
</g>
</g>
</svg>
