<?xml version="1.0" encoding="UTF-8" standalone="no"?>
<!DOCTYPE svg PUBLIC "-//W3C//DTD SVG 1.1//EN"
 "http://www.w3.org/Graphics/SVG/1.1/DTD/svg11.dtd">
<!-- Generated by graphviz version 2.43.0 (0)
 -->
<!-- Title: Calibration::startSecondStep Pages: 1 -->
<!--zoomable 254 -->
<svg id="main" version="1.1" xmlns="http://www.w3.org/2000/svg" xmlns:xlink="http://www.w3.org/1999/xlink" xml:space="preserve" onload="init(evt)">
<style type="text/css"><![CDATA[
.edge:hover path { stroke: red; }
.edge:hover polygon { stroke: red; fill: red; }
]]></style>
<script type="text/javascript"><![CDATA[
var edges = document.getElementsByTagName('g');
if (edges && edges.length) {
  for (var i=0;i<edges.length;i++) {
    if (edges[i].id.substr(0,4)=='edge') {
      edges[i].setAttribute('class','edge');
    }
  }
}
]]></script>
        <defs>
                <circle id="rim" cx="0" cy="0" r="7"/>
                <circle id="rim2" cx="0" cy="0" r="3.5"/>
                <g id="zoomPlus">
                        <use xlink:href="#rim" fill="#404040">
                                <set attributeName="fill" to="#808080" begin="zoomplus.mouseover" end="zoomplus.mouseout"/>
                        </use>
                        <path d="M-4,0h8M0,-4v8" fill="none" stroke="white" stroke-width="1.5" pointer-events="none"/>
                </g>
                <g id="zoomMin">
                        <use xlink:href="#rim" fill="#404040">
                                <set attributeName="fill" to="#808080" begin="zoomminus.mouseover" end="zoomminus.mouseout"/>
                        </use>
                        <path d="M-4,0h8" fill="none" stroke="white" stroke-width="1.5" pointer-events="none"/>
                </g>
                <g id="dirArrow">
                        <path fill="none" stroke="white" stroke-width="1.5" d="M0,-3.0v7 M-2.5,-0.5L0,-3.0L2.5,-0.5"/>
                </g>
               <g id="resetDef">
                       <use xlink:href="#rim2" fill="#404040">
                               <set attributeName="fill" to="#808080" begin="reset.mouseover" end="reset.mouseout"/>
                       </use>
               </g>
        </defs>

<script type="text/javascript">
var viewWidth = 690;
var viewHeight = 254;
var sectionId = 'dynsection-24';
</script>
<script xlink:href="svgpan.js"/>
<svg id="graph" class="graph">
<g id="viewport">
<title>Calibration::startSecondStep</title>
<polygon fill="white" stroke="transparent" points="-4,4 -4,-250.23 686,-250.23 686,4 -4,4"/>
<!-- Node1 -->
<g id="node1" class="node">
<title>Node1</title>
<g id="a_node1"><a xlink:title="Prepares second step of calibration &#45; moving into top&#45;left corner &#45; negative values.">
<polygon fill="#bfbfbf" stroke="black" points="0,-164.5 0,-183.5 142,-183.5 142,-164.5 0,-164.5"/>
<text text-anchor="middle" x="71" y="-171.5" font-family="Helvetica,sans-Serif" font-size="10.00">Calibration::startSecondStep</text>
</a>
</g>
</g>
<!-- Node2 -->
<g id="node2" class="node">
<title>Node2</title>
<g id="a_node2"><a xlink:href="classCalibration.html#a190beef4cbeb5b3be8ea8da35e356ad0" target="_top" xlink:title="checks whether axes were moved at least 5 times in both ways. If not, it shows a message">
<polygon fill="white" stroke="black" points="349,-202.5 349,-221.5 469,-221.5 469,-202.5 349,-202.5"/>
<text text-anchor="middle" x="409" y="-209.5" font-family="Helvetica,sans-Serif" font-size="10.00">Calibration::enoughProb</text>
</a>
</g>
</g>
<!-- Node1&#45;&gt;Node2 -->
<g id="edge1" class="edge">
<title>Node1&#45;&gt;Node2</title>
<path fill="none" stroke="midnightblue" d="M119.6,-183.53C137.81,-186.91 158.81,-190.49 178,-193 231.74,-200.02 292.91,-204.93 338.64,-207.99"/>
<polygon fill="midnightblue" stroke="midnightblue" points="338.54,-211.49 348.75,-208.66 339,-204.51 338.54,-211.49"/>
</g>
<!-- Node3 -->
<g id="node3" class="node">
<title>Node3</title>
<g id="a_node3"><a xlink:href="classCalibration.html#a19d87c9098a510f9fe73a0a871e251c8" target="_top" xlink:title=" ">
<polygon fill="white" stroke="black" points="533.5,-164.5 533.5,-183.5 660.5,-183.5 660.5,-164.5 533.5,-164.5"/>
<text text-anchor="middle" x="597" y="-171.5" font-family="Helvetica,sans-Serif" font-size="10.00">Calibration::fakeMapFunc</text>
</a>
</g>
</g>
<!-- Node1&#45;&gt;Node3 -->
<g id="edge2" class="edge">
<title>Node1&#45;&gt;Node3</title>
<path fill="none" stroke="midnightblue" d="M93.45,-183.65C114.53,-192.71 147.84,-205.91 178,-213 307.16,-243.37 346.56,-260.18 476,-231 511.59,-222.98 549.02,-203.1 572.43,-189.09"/>
<polygon fill="midnightblue" stroke="midnightblue" points="574.56,-191.88 581.26,-183.67 570.9,-185.91 574.56,-191.88"/>
</g>
<!-- Node4 -->
<g id="node4" class="node">
<title>Node4</title>
<g id="a_node4"><a xlink:href="classCalibration.html#a6eb11836ac0eda658b5642cb154d5df5" target="_top" xlink:title=" ">
<polygon fill="white" stroke="black" points="186.5,-164.5 186.5,-183.5 297.5,-183.5 297.5,-164.5 186.5,-164.5"/>
<text text-anchor="middle" x="242" y="-171.5" font-family="Helvetica,sans-Serif" font-size="10.00">Calibration::getMinVal</text>
</a>
</g>
</g>
<!-- Node1&#45;&gt;Node4 -->
<g id="edge3" class="edge">
<title>Node1&#45;&gt;Node4</title>
<path fill="none" stroke="midnightblue" d="M142.2,-174C153.52,-174 165.19,-174 176.37,-174"/>
<polygon fill="midnightblue" stroke="midnightblue" points="176.47,-177.5 186.47,-174 176.47,-170.5 176.47,-177.5"/>
</g>
<!-- Node5 -->
<g id="node5" class="node">
<title>Node5</title>
<g id="a_node5"><a xlink:href="classCalibration.html#a7395207c632a902aba620462d1ff584c" target="_top" xlink:title="Prepares third step of calibration &#45; moving into bottom&#45;right corner &#45; postive values.">
<polygon fill="white" stroke="black" points="178,-126.5 178,-145.5 306,-145.5 306,-126.5 178,-126.5"/>
<text text-anchor="middle" x="242" y="-133.5" font-family="Helvetica,sans-Serif" font-size="10.00">Calibration::startLastStep</text>
</a>
</g>
</g>
<!-- Node1&#45;&gt;Node5 -->
<g id="edge4" class="edge">
<title>Node1&#45;&gt;Node5</title>
<path fill="none" stroke="midnightblue" d="M114.65,-164.41C137.15,-159.35 164.95,-153.1 188.74,-147.75"/>
<polygon fill="midnightblue" stroke="midnightblue" points="189.67,-151.13 198.66,-145.52 188.14,-144.3 189.67,-151.13"/>
</g>
<!-- Node5&#45;&gt;Node2 -->
<g id="edge5" class="edge">
<title>Node5&#45;&gt;Node2</title>
<path fill="none" stroke="midnightblue" d="M284.44,-145.59C291.86,-148.11 299.35,-151.21 306,-155 324.86,-165.74 323.44,-176.74 342,-188 348.97,-192.23 356.79,-195.88 364.56,-198.98"/>
<polygon fill="midnightblue" stroke="midnightblue" points="363.34,-202.26 373.93,-202.47 365.79,-195.7 363.34,-202.26"/>
</g>
<!-- Node5&#45;&gt;Node3 -->
<g id="edge6" class="edge">
<title>Node5&#45;&gt;Node3</title>
<path fill="none" stroke="midnightblue" d="M286.69,-145.51C303.86,-148.95 323.78,-152.58 342,-155 402.8,-163.08 472.27,-167.98 523.18,-170.78"/>
<polygon fill="midnightblue" stroke="midnightblue" points="523.25,-174.29 533.42,-171.33 523.63,-167.3 523.25,-174.29"/>
</g>
<!-- Node6 -->
<g id="node6" class="node">
<title>Node6</title>
<g id="a_node6"><a xlink:href="classCalibration.html#a672cc0511abecfe88914a92a03d2f0f7" target="_top" xlink:title=" ">
<polygon fill="white" stroke="black" points="351.5,-126.5 351.5,-145.5 466.5,-145.5 466.5,-126.5 351.5,-126.5"/>
<text text-anchor="middle" x="409" y="-133.5" font-family="Helvetica,sans-Serif" font-size="10.00">Calibration::getMaxVal</text>
</a>
</g>
</g>
<!-- Node5&#45;&gt;Node6 -->
<g id="edge7" class="edge">
<title>Node5&#45;&gt;Node6</title>
<path fill="none" stroke="midnightblue" d="M306.32,-136C317.78,-136 329.76,-136 341.31,-136"/>
<polygon fill="midnightblue" stroke="midnightblue" points="341.32,-139.5 351.32,-136 341.32,-132.5 341.32,-139.5"/>
</g>
<!-- Node7 -->
<g id="node7" class="node">
<title>Node7</title>
<g id="a_node7"><a xlink:href="classCalibration.html#a16632a43e8d22943fe4f720982cf3ec6" target="_top" xlink:title="Creates quadratic field in a case, when max value is not equal to negative min value....">
<polygon fill="white" stroke="black" points="347,-77 347,-107 471,-107 471,-77 347,-77"/>
<text text-anchor="start" x="355" y="-95" font-family="Helvetica,sans-Serif" font-size="10.00">Calibration::setQuadratic</text>
<text text-anchor="middle" x="409" y="-84" font-family="Helvetica,sans-Serif" font-size="10.00">ZoneCalibrated</text>
</a>
</g>
</g>
<!-- Node5&#45;&gt;Node7 -->
<g id="edge8" class="edge">
<title>Node5&#45;&gt;Node7</title>
<path fill="none" stroke="midnightblue" d="M278.8,-126.45C297.21,-121.54 320.25,-115.4 341.75,-109.67"/>
<polygon fill="midnightblue" stroke="midnightblue" points="342.74,-113.02 351.5,-107.07 340.94,-106.26 342.74,-113.02"/>
</g>
<!-- Node8 -->
<g id="node8" class="node">
<title>Node8</title>
<g id="a_node8"><a xlink:href="classCalibration.html#a784c4f6d1e1ec695a5fcea99c0813934" target="_top" xlink:title="Prepares first step of calibration &#45; finding center.">
<polygon fill="white" stroke="black" points="342,-38.5 342,-57.5 476,-57.5 476,-38.5 342,-38.5"/>
<text text-anchor="middle" x="409" y="-45.5" font-family="Helvetica,sans-Serif" font-size="10.00">Calibration::startCalibration</text>
</a>
</g>
</g>
<!-- Node5&#45;&gt;Node8 -->
<g id="edge9" class="edge">
<title>Node5&#45;&gt;Node8</title>
<path fill="none" stroke="midnightblue" d="M254.12,-126.39C271.67,-111.66 307.39,-83.49 342,-67 346.91,-64.66 352.17,-62.55 357.49,-60.67"/>
<polygon fill="midnightblue" stroke="midnightblue" points="358.68,-63.96 367.09,-57.51 356.49,-57.31 358.68,-63.96"/>
</g>
<!-- Node8&#45;&gt;Node1 -->
<g id="edge12" class="edge">
<title>Node8&#45;&gt;Node1</title>
<path fill="none" stroke="midnightblue" d="M374.39,-57.56C364,-60.55 352.52,-63.88 342,-67 268.94,-88.65 248.34,-87.7 178,-117 148.93,-129.11 117.35,-146.71 96.3,-159.15"/>
<polygon fill="midnightblue" stroke="midnightblue" points="94.47,-156.16 87.68,-164.29 98.06,-162.17 94.47,-156.16"/>
</g>
<!-- Node8&#45;&gt;Node3 -->
<g id="edge10" class="edge">
<title>Node8&#45;&gt;Node3</title>
<path fill="none" stroke="midnightblue" d="M455.38,-57.58C462.56,-60.06 469.68,-63.16 476,-67 495.88,-79.09 494.98,-89.14 512,-105 532.58,-124.17 557.66,-144.4 575.03,-157.97"/>
<polygon fill="midnightblue" stroke="midnightblue" points="573.3,-161.05 583.35,-164.41 577.59,-155.52 573.3,-161.05"/>
</g>
<!-- Node9 -->
<g id="node9" class="node">
<title>Node9</title>
<g id="a_node9"><a xlink:href="classJoyControlStick.html#ae381539f8082f6b7bd761bb7e6fed196" target="_top" xlink:title=" ">
<polygon fill="white" stroke="black" points="512,-38.5 512,-57.5 682,-57.5 682,-38.5 512,-38.5"/>
<text text-anchor="middle" x="597" y="-45.5" font-family="Helvetica,sans-Serif" font-size="10.00">JoyControlStick::setCalibrationFlag</text>
</a>
</g>
</g>
<!-- Node8&#45;&gt;Node9 -->
<g id="edge11" class="edge">
<title>Node8&#45;&gt;Node9</title>
<path fill="none" stroke="midnightblue" d="M476.1,-48C484.43,-48 493.08,-48 501.74,-48"/>
<polygon fill="midnightblue" stroke="midnightblue" points="501.89,-51.5 511.89,-48 501.89,-44.5 501.89,-51.5"/>
</g>
<!-- Node10 -->
<g id="node10" class="node">
<title>Node10</title>
<g id="a_node10"><a xlink:href="classCalibration.html#a962ad4889888aac4aa48d934df86c82d" target="_top" xlink:title=" ">
<polygon fill="white" stroke="black" points="524.5,-0.5 524.5,-19.5 669.5,-19.5 669.5,-0.5 524.5,-0.5"/>
<text text-anchor="middle" x="597" y="-7.5" font-family="Helvetica,sans-Serif" font-size="10.00">Calibration::summarizeValues</text>
</a>
</g>
</g>
<!-- Node8&#45;&gt;Node10 -->
<g id="edge13" class="edge">
<title>Node8&#45;&gt;Node10</title>
<path fill="none" stroke="midnightblue" d="M456.94,-38.41C482.03,-33.28 513.12,-26.93 539.53,-21.54"/>
<polygon fill="midnightblue" stroke="midnightblue" points="540.3,-24.95 549.4,-19.52 538.9,-18.09 540.3,-24.95"/>
</g>
<!-- Node11 -->
<g id="node11" class="node">
<title>Node11</title>
<g id="a_node11"><a xlink:href="classJoyControlStick.html#a5a1c2eb10e476c90082f864b40217934" target="_top" xlink:title=" ">
<polygon fill="white" stroke="black" points="521,-76.5 521,-95.5 673,-95.5 673,-76.5 521,-76.5"/>
<text text-anchor="middle" x="597" y="-83.5" font-family="Helvetica,sans-Serif" font-size="10.00">JoyControlStick::wasCalibrated</text>
</a>
</g>
</g>
<!-- Node8&#45;&gt;Node11 -->
<g id="edge14" class="edge">
<title>Node8&#45;&gt;Node11</title>
<path fill="none" stroke="midnightblue" d="M456.94,-57.59C482.03,-62.72 513.12,-69.07 539.53,-74.46"/>
<polygon fill="midnightblue" stroke="midnightblue" points="538.9,-77.91 549.4,-76.48 540.3,-71.05 538.9,-77.91"/>
</g>
</g>
</svg>
        <g id="navigator" transform="translate(0 0)" fill="#404254">
                <rect fill="#f2f5e9" fill-opacity="0.5" stroke="#606060" stroke-width=".5" x="0" y="0" width="60" height="60"/>
                <use id="zoomplus" xlink:href="#zoomPlus" x="17" y="9" onmousedown="handleZoom(evt,'in')"/>
                <use id="zoomminus" xlink:href="#zoomMin" x="42" y="9" onmousedown="handleZoom(evt,'out')"/>
                <use id="reset" xlink:href="#resetDef" x="30" y="36" onmousedown="handleReset()"/>
                <g id="arrowUp" xlink:href="#dirArrow" transform="translate(30 24)" onmousedown="handlePan(0,-1)">
                  <use xlink:href="#rim" fill="#404040">
                        <set attributeName="fill" to="#808080" begin="arrowUp.mouseover" end="arrowUp.mouseout"/>
                  </use>
                  <path fill="none" stroke="white" stroke-width="1.5" d="M0,-3.0v7 M-2.5,-0.5L0,-3.0L2.5,-0.5"/>
                </g>
                <g id="arrowRight" xlink:href="#dirArrow" transform="rotate(90) translate(36 -43)" onmousedown="handlePan(1,0)">
                  <use xlink:href="#rim" fill="#404040">
                        <set attributeName="fill" to="#808080" begin="arrowRight.mouseover" end="arrowRight.mouseout"/>
                  </use>
                  <path fill="none" stroke="white" stroke-width="1.5" d="M0,-3.0v7 M-2.5,-0.5L0,-3.0L2.5,-0.5"/>
                </g>
                <g id="arrowDown" xlink:href="#dirArrow" transform="rotate(180) translate(-30 -48)" onmousedown="handlePan(0,1)">
                  <use xlink:href="#rim" fill="#404040">
                        <set attributeName="fill" to="#808080" begin="arrowDown.mouseover" end="arrowDown.mouseout"/>
                  </use>
                  <path fill="none" stroke="white" stroke-width="1.5" d="M0,-3.0v7 M-2.5,-0.5L0,-3.0L2.5,-0.5"/>
                </g>
                <g id="arrowLeft" xlink:href="#dirArrow" transform="rotate(270) translate(-36 17)" onmousedown="handlePan(-1,0)">
                  <use xlink:href="#rim" fill="#404040">
                        <set attributeName="fill" to="#808080" begin="arrowLeft.mouseover" end="arrowLeft.mouseout"/>
                  </use>
                  <path fill="none" stroke="white" stroke-width="1.5" d="M0,-3.0v7 M-2.5,-0.5L0,-3.0L2.5,-0.5"/>
                </g>
        </g>
        <svg viewBox="0 0 15 15" width="100%" height="30px" preserveAspectRatio="xMaxYMin meet">
         <g id="arrow_out" transform="scale(0.3 0.3)">
          <a xlink:href="classCalibration_ab764fc9b8f7d08e04b7453636010862d_cgraph_org.svg" target="_base">
           <rect id="button" ry="5" rx="5" y="6" x="6" height="38" width="38"
                fill="#f2f5e9" fill-opacity="0.5" stroke="#606060" stroke-width="1.0"/>
           <path id="arrow"
             d="M 11.500037,31.436501 C 11.940474,20.09759 22.043105,11.32322 32.158766,21.979434 L 37.068811,17.246167 C 37.068811,17.246167 37.088388,32 37.088388,32 L 22.160133,31.978069 C 22.160133,31.978069 26.997745,27.140456 26.997745,27.140456 C 18.528582,18.264221 13.291696,25.230495 11.500037,31.436501 z"
             style="fill:#404040;"/>
          </a>
         </g>
        </svg>
</svg>
