<?xml version="1.0" encoding="UTF-8" standalone="no"?>
<!DOCTYPE svg PUBLIC "-//W3C//DTD SVG 1.1//EN"
 "http://www.w3.org/Graphics/SVG/1.1/DTD/svg11.dtd">
<!-- Generated by graphviz version 2.43.0 (0)
 -->
<!-- Title: AdvanceButtonDialog::checkSlotDistanceUpdate Pages: 1 -->
<!--zoomable 700 -->
<svg id="main" version="1.1" xmlns="http://www.w3.org/2000/svg" xmlns:xlink="http://www.w3.org/1999/xlink" xml:space="preserve" onload="init(evt)">
<style type="text/css"><![CDATA[
.edge:hover path { stroke: red; }
.edge:hover polygon { stroke: red; fill: red; }
]]></style>
<script type="text/javascript"><![CDATA[
var edges = document.getElementsByTagName('g');
if (edges && edges.length) {
  for (var i=0;i<edges.length;i++) {
    if (edges[i].id.substr(0,4)=='edge') {
      edges[i].setAttribute('class','edge');
    }
  }
}
]]></script>
        <defs>
                <circle id="rim" cx="0" cy="0" r="7"/>
                <circle id="rim2" cx="0" cy="0" r="3.5"/>
                <g id="zoomPlus">
                        <use xlink:href="#rim" fill="#404040">
                                <set attributeName="fill" to="#808080" begin="zoomplus.mouseover" end="zoomplus.mouseout"/>
                        </use>
                        <path d="M-4,0h8M0,-4v8" fill="none" stroke="white" stroke-width="1.5" pointer-events="none"/>
                </g>
                <g id="zoomMin">
                        <use xlink:href="#rim" fill="#404040">
                                <set attributeName="fill" to="#808080" begin="zoomminus.mouseover" end="zoomminus.mouseout"/>
                        </use>
                        <path d="M-4,0h8" fill="none" stroke="white" stroke-width="1.5" pointer-events="none"/>
                </g>
                <g id="dirArrow">
                        <path fill="none" stroke="white" stroke-width="1.5" d="M0,-3.0v7 M-2.5,-0.5L0,-3.0L2.5,-0.5"/>
                </g>
               <g id="resetDef">
                       <use xlink:href="#rim2" fill="#404040">
                               <set attributeName="fill" to="#808080" begin="reset.mouseover" end="reset.mouseout"/>
                       </use>
               </g>
        </defs>

<script type="text/javascript">
var viewWidth = 1640;
var viewHeight = 700;
var sectionId = 'dynsection-12';
</script>
<script xlink:href="svgpan.js"/>
<svg id="graph" class="graph">
<g id="viewport">
<title>AdvanceButtonDialog::checkSlotDistanceUpdate</title>
<polygon fill="white" stroke="transparent" points="-4,4 -4,-696 1636,-696 1636,4 -4,4"/>
<!-- Node1 -->
<g id="node1" class="node">
<title>Node1</title>
<g id="a_node1"><a xlink:title=" ">
<polygon fill="#bfbfbf" stroke="black" points="0,-590.5 0,-620.5 137,-620.5 137,-590.5 0,-590.5"/>
<text text-anchor="start" x="8" y="-608.5" font-family="Helvetica,sans-Serif" font-size="10.00">AdvanceButtonDialog</text>
<text text-anchor="middle" x="68.5" y="-597.5" font-family="Helvetica,sans-Serif" font-size="10.00">::checkSlotDistanceUpdate</text>
</a>
</g>
</g>
<!-- Node2 -->
<g id="node2" class="node">
<title>Node2</title>
<g id="a_node2"><a xlink:href="classJoyButtonSlot.html#a7fa0bf6d891437a2392e47d32b746502" target="_top" xlink:title=" ">
<polygon fill="white" stroke="black" points="173,-662 173,-681 311,-681 311,-662 173,-662"/>
<text text-anchor="middle" x="242" y="-669" font-family="Helvetica,sans-Serif" font-size="10.00">JoyButtonSlot::getSlotCode</text>
</a>
</g>
</g>
<!-- Node1&#45;&gt;Node2 -->
<g id="edge1" class="edge">
<title>Node1&#45;&gt;Node2</title>
<path fill="none" stroke="midnightblue" d="M99.33,-620.53C119.74,-630.44 147.6,-643.25 173,-652.5 179.42,-654.84 186.27,-657.06 193.06,-659.11"/>
<polygon fill="midnightblue" stroke="midnightblue" points="192.33,-662.54 202.91,-661.97 194.28,-655.82 192.33,-662.54"/>
</g>
<!-- Node3 -->
<g id="node3" class="node">
<title>Node3</title>
<g id="a_node3"><a xlink:href="classSimpleKeyGrabberButton.html#a25cefc81223387f0bfd2183627109ff8" target="_top" xlink:title=" ">
<polygon fill="white" stroke="black" points="732.5,-612.5 732.5,-642.5 858.5,-642.5 858.5,-612.5 732.5,-612.5"/>
<text text-anchor="start" x="740.5" y="-630.5" font-family="Helvetica,sans-Serif" font-size="10.00">SimpleKeyGrabberButton</text>
<text text-anchor="middle" x="795.5" y="-619.5" font-family="Helvetica,sans-Serif" font-size="10.00">::getValue</text>
</a>
</g>
</g>
<!-- Node1&#45;&gt;Node3 -->
<g id="edge2" class="edge">
<title>Node1&#45;&gt;Node3</title>
<path fill="none" stroke="midnightblue" d="M137.14,-604C149.09,-603.79 161.41,-603.61 173,-603.5 313.44,-602.14 348.66,-598 489,-603.5 568.94,-606.64 660.38,-614.37 722.22,-620.22"/>
<polygon fill="midnightblue" stroke="midnightblue" points="721.98,-623.71 732.27,-621.17 722.65,-616.74 721.98,-623.71"/>
</g>
<!-- Node4 -->
<g id="node4" class="node">
<title>Node4</title>
<g id="a_node4"><a xlink:href="classSimpleKeyGrabberButton.html#a293f8294c8c9b1b3325a07c4369186f4" target="_top" xlink:title=" ">
<polygon fill="white" stroke="black" points="179,-354.5 179,-384.5 305,-384.5 305,-354.5 179,-354.5"/>
<text text-anchor="start" x="187" y="-372.5" font-family="Helvetica,sans-Serif" font-size="10.00">SimpleKeyGrabberButton</text>
<text text-anchor="middle" x="242" y="-361.5" font-family="Helvetica,sans-Serif" font-size="10.00">::setValue</text>
</a>
</g>
</g>
<!-- Node1&#45;&gt;Node4 -->
<g id="edge3" class="edge">
<title>Node1&#45;&gt;Node4</title>
<path fill="none" stroke="midnightblue" d="M80.49,-590.38C109.58,-550.35 188.77,-441.38 223.86,-393.08"/>
<polygon fill="midnightblue" stroke="midnightblue" points="226.83,-394.95 229.88,-384.8 221.17,-390.83 226.83,-394.95"/>
</g>
<!-- Node35 -->
<g id="node35" class="node">
<title>Node35</title>
<g id="a_node35"><a xlink:href="classAdvanceButtonDialog.html#a5284c1fc58683ba8649b1811d615e71c" target="_top" xlink:title=" ">
<polygon fill="white" stroke="black" points="182.5,-612.5 182.5,-642.5 301.5,-642.5 301.5,-612.5 182.5,-612.5"/>
<text text-anchor="start" x="190.5" y="-630.5" font-family="Helvetica,sans-Serif" font-size="10.00">AdvanceButtonDialog</text>
<text text-anchor="middle" x="242" y="-619.5" font-family="Helvetica,sans-Serif" font-size="10.00">::updateSlotsScrollArea</text>
</a>
</g>
</g>
<!-- Node1&#45;&gt;Node35 -->
<g id="edge42" class="edge">
<title>Node1&#45;&gt;Node35</title>
<path fill="none" stroke="midnightblue" d="M137.28,-614.19C148.8,-615.67 160.76,-617.21 172.3,-618.69"/>
<polygon fill="midnightblue" stroke="midnightblue" points="171.94,-622.17 182.31,-619.97 172.83,-615.23 171.94,-622.17"/>
</g>
<!-- Node5 -->
<g id="node5" class="node">
<title>Node5</title>
<g id="a_node5"><a xlink:href="classJoyButtonSlot.html#a6e10409ded595380cbdcfd5c827ab32a" target="_top" xlink:title=" ">
<polygon fill="white" stroke="black" points="348,-379 348,-398 488,-398 488,-379 348,-379"/>
<text text-anchor="middle" x="418" y="-386" font-family="Helvetica,sans-Serif" font-size="10.00">JoyButtonSlot::getSlotString</text>
</a>
</g>
</g>
<!-- Node4&#45;&gt;Node5 -->
<g id="edge4" class="edge">
<title>Node4&#45;&gt;Node5</title>
<path fill="none" stroke="midnightblue" d="M305.33,-376.31C315.75,-377.44 326.68,-378.64 337.46,-379.81"/>
<polygon fill="midnightblue" stroke="midnightblue" points="337.41,-383.33 347.73,-380.94 338.17,-376.37 337.41,-383.33"/>
</g>
<!-- Node33 -->
<g id="node33" class="node">
<title>Node33</title>
<g id="a_node33"><a xlink:href="classJoyButtonSlot.html#a23e2639dee82e872b1ebf3958b0db68c" target="_top" xlink:title=" ">
<polygon fill="white" stroke="black" points="349,-341 349,-360 487,-360 487,-341 349,-341"/>
<text text-anchor="middle" x="418" y="-348" font-family="Helvetica,sans-Serif" font-size="10.00">JoyButtonSlot::setSlotCode</text>
</a>
</g>
</g>
<!-- Node4&#45;&gt;Node33 -->
<g id="edge40" class="edge">
<title>Node4&#45;&gt;Node33</title>
<path fill="none" stroke="midnightblue" d="M305.33,-362.69C316.15,-361.51 327.53,-360.27 338.72,-359.05"/>
<polygon fill="midnightblue" stroke="midnightblue" points="339.36,-362.5 348.92,-357.93 338.6,-355.54 339.36,-362.5"/>
</g>
<!-- Node34 -->
<g id="node34" class="node">
<title>Node34</title>
<g id="a_node34"><a xlink:href="classJoyButtonSlot.html#aa2af2756eb5c633fbe46018773f20bfb" target="_top" xlink:title=" ">
<polygon fill="white" stroke="black" points="348.5,-303 348.5,-322 487.5,-322 487.5,-303 348.5,-303"/>
<text text-anchor="middle" x="418" y="-310" font-family="Helvetica,sans-Serif" font-size="10.00">JoyButtonSlot::setSlotMode</text>
</a>
</g>
</g>
<!-- Node4&#45;&gt;Node34 -->
<g id="edge41" class="edge">
<title>Node4&#45;&gt;Node34</title>
<path fill="none" stroke="midnightblue" d="M281.74,-354.45C301.19,-347.13 325.2,-338.43 347,-331.5 354.26,-329.19 362,-326.92 369.58,-324.78"/>
<polygon fill="midnightblue" stroke="midnightblue" points="370.7,-328.1 379.41,-322.07 368.84,-321.36 370.7,-328.1"/>
</g>
<!-- Node6 -->
<g id="node6" class="node">
<title>Node6</title>
<g id="a_node6"><a xlink:href="classJoyButtonSlot.html#a4fb0606a34134786bc642627bc25aedd" target="_top" xlink:title=" ">
<polygon fill="white" stroke="black" points="537.5,-442 537.5,-461 673.5,-461 673.5,-442 537.5,-442"/>
<text text-anchor="middle" x="605.5" y="-449" font-family="Helvetica,sans-Serif" font-size="10.00">JoyButtonSlot::getMixSlots</text>
</a>
</g>
</g>
<!-- Node5&#45;&gt;Node6 -->
<g id="edge5" class="edge">
<title>Node5&#45;&gt;Node6</title>
<path fill="none" stroke="midnightblue" d="M447.17,-398.07C479.14,-408.92 531.41,-426.68 566.85,-438.71"/>
<polygon fill="midnightblue" stroke="midnightblue" points="565.77,-442.04 576.37,-441.95 568.02,-435.42 565.77,-442.04"/>
</g>
<!-- Node8 -->
<g id="node8" class="node">
<title>Node8</title>
<g id="a_node8"><a xlink:href="namespacePadderCommon.html#aaa09739d2df84421a5a3467a06ce941c" target="_top" xlink:title="Returns the &quot;human&#45;readable&quot; name of the given profile.">
<polygon fill="white" stroke="black" points="525,-379 525,-398 686,-398 686,-379 525,-379"/>
<text text-anchor="middle" x="605.5" y="-386" font-family="Helvetica,sans-Serif" font-size="10.00">PadderCommon::getProfileName</text>
</a>
</g>
</g>
<!-- Node5&#45;&gt;Node8 -->
<g id="edge7" class="edge">
<title>Node5&#45;&gt;Node8</title>
<path fill="none" stroke="midnightblue" d="M488.07,-388.5C496.76,-388.5 505.73,-388.5 514.68,-388.5"/>
<polygon fill="midnightblue" stroke="midnightblue" points="514.74,-392 524.74,-388.5 514.74,-385 514.74,-392"/>
</g>
<!-- Node9 -->
<g id="node9" class="node">
<title>Node9</title>
<g id="a_node9"><a xlink:href="event_8cpp.html#a76ce89b71143c1c09343f45f038b4a67" target="_top" xlink:title=" ">
<polygon fill="white" stroke="black" points="555,-329 555,-348 656,-348 656,-329 555,-329"/>
<text text-anchor="middle" x="605.5" y="-336" font-family="Helvetica,sans-Serif" font-size="10.00">keysymToKeyString</text>
</a>
</g>
</g>
<!-- Node5&#45;&gt;Node9 -->
<g id="edge8" class="edge">
<title>Node5&#45;&gt;Node9</title>
<path fill="none" stroke="midnightblue" d="M454.33,-378.98C484.15,-370.94 527.02,-359.38 559.33,-350.68"/>
<polygon fill="midnightblue" stroke="midnightblue" points="560.24,-354.05 568.99,-348.07 558.42,-347.3 560.24,-354.05"/>
</g>
<!-- Node32 -->
<g id="node32" class="node">
<title>Node32</title>
<g id="a_node32"><a xlink:href="classJoyButtonSlot.html#a37ff2b523177bae4ea6a44b82f2973eb" target="_top" xlink:title=" ">
<polygon fill="white" stroke="black" points="528,-291 528,-310 683,-310 683,-291 528,-291"/>
<text text-anchor="middle" x="605.5" y="-298" font-family="Helvetica,sans-Serif" font-size="10.00">JoyButtonSlot::movementString</text>
</a>
</g>
</g>
<!-- Node5&#45;&gt;Node32 -->
<g id="edge39" class="edge">
<title>Node5&#45;&gt;Node32</title>
<path fill="none" stroke="midnightblue" d="M470.53,-378.91C477.06,-376.46 483.41,-373.37 489,-369.5 511.51,-353.91 502.26,-334.75 525,-319.5 528.07,-317.44 531.33,-315.61 534.73,-313.97"/>
<polygon fill="midnightblue" stroke="midnightblue" points="536.1,-317.19 543.95,-310.08 533.38,-310.74 536.1,-317.19"/>
</g>
<!-- Node7 -->
<g id="node7" class="node">
<title>Node7</title>
<g id="a_node7"><a xlink:href="classJoyButtonSlot.html#a9ba9cb0dda063a7df5575072c0aabe01" target="_top" xlink:title=" ">
<polygon fill="white" stroke="black" points="731,-486.5 731,-516.5 860,-516.5 860,-486.5 731,-486.5"/>
<text text-anchor="start" x="739" y="-504.5" font-family="Helvetica,sans-Serif" font-size="10.00">JoyButtonSlot::secureMix</text>
<text text-anchor="middle" x="795.5" y="-493.5" font-family="Helvetica,sans-Serif" font-size="10.00">SlotsInit</text>
</a>
</g>
</g>
<!-- Node6&#45;&gt;Node7 -->
<g id="edge6" class="edge">
<title>Node6&#45;&gt;Node7</title>
<path fill="none" stroke="midnightblue" d="M642.3,-461.02C666.41,-467.43 698.95,-476.09 727.75,-483.75"/>
<polygon fill="midnightblue" stroke="midnightblue" points="727.19,-487.22 737.76,-486.41 728.99,-480.46 727.19,-487.22"/>
</g>
<!-- Node10 -->
<g id="node10" class="node">
<title>Node10</title>
<g id="a_node10"><a xlink:href="classX11Extras.html#a643c95dc1de8eb073a0accb41619fe83" target="_top" xlink:title="Get display instance.">
<polygon fill="white" stroke="black" points="944.5,-44 944.5,-63 1043.5,-63 1043.5,-44 944.5,-44"/>
<text text-anchor="middle" x="994" y="-51" font-family="Helvetica,sans-Serif" font-size="10.00">X11Extras::display</text>
</a>
</g>
</g>
<!-- Node9&#45;&gt;Node10 -->
<g id="edge9" class="edge">
<title>Node9&#45;&gt;Node10</title>
<path fill="none" stroke="midnightblue" d="M656.01,-335.12C667.04,-332.23 677.85,-327.41 686,-319.5 729.94,-276.85 684.99,-235.29 722,-186.5 779.21,-111.08 817.87,-114.52 905,-77.5 915.71,-72.95 927.52,-69.04 938.92,-65.77"/>
<polygon fill="midnightblue" stroke="midnightblue" points="940.07,-69.08 948.79,-63.06 938.22,-62.33 940.07,-69.08"/>
</g>
<!-- Node11 -->
<g id="node11" class="node">
<title>Node11</title>
<g id="a_node11"><a xlink:href="classBaseEventHandler.html#a9a014e472ec57408d16b8b5eed964e90" target="_top" xlink:title=" ">
<polygon fill="white" stroke="black" points="916.5,-360 916.5,-379 1071.5,-379 1071.5,-360 916.5,-360"/>
<text text-anchor="middle" x="994" y="-367" font-family="Helvetica,sans-Serif" font-size="10.00">BaseEventHandler::getIdentifier</text>
</a>
</g>
</g>
<!-- Node9&#45;&gt;Node11 -->
<g id="edge10" class="edge">
<title>Node9&#45;&gt;Node11</title>
<path fill="none" stroke="midnightblue" d="M656.24,-342.49C719.36,-347.55 829.28,-356.37 906.32,-362.55"/>
<polygon fill="midnightblue" stroke="midnightblue" points="906.24,-366.05 916.49,-363.36 906.8,-359.08 906.24,-366.05"/>
</g>
<!-- Node12 -->
<g id="node12" class="node">
<title>Node12</title>
<g id="a_node12"><a xlink:href="classX11Extras.html#ace76277fced60e6bd6ff880030338182" target="_top" xlink:title=" ">
<polygon fill="white" stroke="black" points="934.5,-6 934.5,-25 1053.5,-25 1053.5,-6 934.5,-6"/>
<text text-anchor="middle" x="994" y="-13" font-family="Helvetica,sans-Serif" font-size="10.00">X11Extras::getInstance</text>
</a>
</g>
</g>
<!-- Node9&#45;&gt;Node12 -->
<g id="edge11" class="edge">
<title>Node9&#45;&gt;Node12</title>
<path fill="none" stroke="midnightblue" d="M656.23,-335.84C667.38,-332.95 678.2,-327.94 686,-319.5 756.2,-243.49 654.01,-167.49 722,-89.5 772.02,-32.13 861.77,-17.21 924.21,-14.3"/>
<polygon fill="midnightblue" stroke="midnightblue" points="924.52,-17.79 934.38,-13.92 924.25,-10.79 924.52,-17.79"/>
</g>
<!-- Node15 -->
<g id="node15" class="node">
<title>Node15</title>
<g id="a_node15"><a xlink:href="classEventHandlerFactory.html#a90ce153a19fbb91128bd52eb083ce271" target="_top" xlink:title=" ">
<polygon fill="white" stroke="black" points="939.5,-310.5 939.5,-340.5 1048.5,-340.5 1048.5,-310.5 939.5,-310.5"/>
<text text-anchor="start" x="947.5" y="-328.5" font-family="Helvetica,sans-Serif" font-size="10.00">EventHandlerFactory</text>
<text text-anchor="middle" x="994" y="-317.5" font-family="Helvetica,sans-Serif" font-size="10.00">::getInstance</text>
</a>
</g>
</g>
<!-- Node9&#45;&gt;Node15 -->
<g id="edge14" class="edge">
<title>Node9&#45;&gt;Node15</title>
<path fill="none" stroke="midnightblue" d="M656.24,-336.83C725.85,-334.49 852.38,-330.23 928.96,-327.65"/>
<polygon fill="midnightblue" stroke="midnightblue" points="929.55,-331.14 939.42,-327.3 929.31,-324.14 929.55,-331.14"/>
</g>
<!-- Node18 -->
<g id="node18" class="node">
<title>Node18</title>
<g id="a_node18"><a xlink:href="classEventHandlerFactory.html#a4c13007f0ece5bf881080c9c04f1f20d" target="_top" xlink:title=" ">
<polygon fill="white" stroke="black" points="1312,-307.5 1312,-337.5 1421,-337.5 1421,-307.5 1312,-307.5"/>
<text text-anchor="start" x="1320" y="-325.5" font-family="Helvetica,sans-Serif" font-size="10.00">EventHandlerFactory</text>
<text text-anchor="middle" x="1366.5" y="-314.5" font-family="Helvetica,sans-Serif" font-size="10.00">::handler</text>
</a>
</g>
</g>
<!-- Node9&#45;&gt;Node18 -->
<g id="edge20" class="edge">
<title>Node9&#45;&gt;Node18</title>
<path fill="none" stroke="midnightblue" d="M638.87,-348.08C754.06,-381.44 1143.14,-487.9 1257,-438.5 1299.95,-419.86 1333.66,-374.91 1351.49,-346.76"/>
<polygon fill="midnightblue" stroke="midnightblue" points="1354.67,-348.27 1356.92,-337.91 1348.7,-344.61 1354.67,-348.27"/>
</g>
<!-- Node20 -->
<g id="node20" class="node">
<title>Node20</title>
<g id="a_node20"><a xlink:href="event_8cpp.html#ad239a34cab482dc3cad5a23a9ac1ad78" target="_top" xlink:title=" ">
<polygon fill="white" stroke="black" points="743.5,-196 743.5,-215 847.5,-215 847.5,-196 743.5,-196"/>
<text text-anchor="middle" x="795.5" y="-203" font-family="Helvetica,sans-Serif" font-size="10.00">keycodeToKeyString</text>
</a>
</g>
</g>
<!-- Node9&#45;&gt;Node20 -->
<g id="edge21" class="edge">
<title>Node9&#45;&gt;Node20</title>
<path fill="none" stroke="midnightblue" d="M656.11,-331.29C666.42,-328.54 676.9,-324.74 686,-319.5 728.39,-295.1 764.55,-249.08 782.47,-223.61"/>
<polygon fill="midnightblue" stroke="midnightblue" points="785.44,-225.46 788.22,-215.23 779.67,-221.49 785.44,-225.46"/>
</g>
<!-- Node13 -->
<g id="node13" class="node">
<title>Node13</title>
<g id="a_node13"><a xlink:href="classX11Extras.html#ab9bcb016e23bacb0e988feb8175d2c88" target="_top" xlink:title=" ">
<polygon fill="white" stroke="black" points="1131,-6 1131,-25 1245,-25 1245,-6 1131,-6"/>
<text text-anchor="middle" x="1188" y="-13" font-family="Helvetica,sans-Serif" font-size="10.00">X11Extras::X11Extras</text>
</a>
</g>
</g>
<!-- Node12&#45;&gt;Node13 -->
<g id="edge12" class="edge">
<title>Node12&#45;&gt;Node13</title>
<path fill="none" stroke="midnightblue" d="M1053.65,-15.5C1074.78,-15.5 1098.78,-15.5 1120.54,-15.5"/>
<polygon fill="midnightblue" stroke="midnightblue" points="1120.68,-19 1130.68,-15.5 1120.68,-12 1120.68,-19"/>
</g>
<!-- Node14 -->
<g id="node14" class="node">
<title>Node14</title>
<g id="a_node14"><a xlink:href="classX11Extras.html#a6f63e77ed045e174546d77333672b8f0" target="_top" xlink:title=" ">
<polygon fill="white" stroke="black" points="1299,-0.5 1299,-30.5 1434,-30.5 1434,-0.5 1299,-0.5"/>
<text text-anchor="start" x="1307" y="-18.5" font-family="Helvetica,sans-Serif" font-size="10.00">X11Extras::populateKnown</text>
<text text-anchor="middle" x="1366.5" y="-7.5" font-family="Helvetica,sans-Serif" font-size="10.00">Aliases</text>
</a>
</g>
</g>
<!-- Node13&#45;&gt;Node14 -->
<g id="edge13" class="edge">
<title>Node13&#45;&gt;Node14</title>
<path fill="none" stroke="midnightblue" d="M1245.33,-15.5C1259.18,-15.5 1274.25,-15.5 1288.88,-15.5"/>
<polygon fill="midnightblue" stroke="midnightblue" points="1288.92,-19 1298.92,-15.5 1288.92,-12 1288.92,-19"/>
</g>
<!-- Node16 -->
<g id="node16" class="node">
<title>Node16</title>
<g id="a_node16"><a xlink:href="classEventHandlerFactory.html#ade5162034acc0f8683725fdb124bece0" target="_top" xlink:title=" ">
<polygon fill="white" stroke="black" points="1125,-398.5 1125,-428.5 1251,-428.5 1251,-398.5 1125,-398.5"/>
<text text-anchor="start" x="1133" y="-416.5" font-family="Helvetica,sans-Serif" font-size="10.00">EventHandlerFactory</text>
<text text-anchor="middle" x="1188" y="-405.5" font-family="Helvetica,sans-Serif" font-size="10.00">::buildEventGeneratorList</text>
</a>
</g>
</g>
<!-- Node15&#45;&gt;Node16 -->
<g id="edge15" class="edge">
<title>Node15&#45;&gt;Node16</title>
<path fill="none" stroke="midnightblue" d="M1048.71,-336.47C1060.42,-340.02 1072.46,-344.61 1083,-350.5 1101.95,-361.08 1100.83,-371.63 1119,-383.5 1124.81,-387.29 1131.17,-390.82 1137.61,-394.02"/>
<polygon fill="midnightblue" stroke="midnightblue" points="1136.49,-397.36 1147.03,-398.46 1139.48,-391.03 1136.49,-397.36"/>
</g>
<!-- Node17 -->
<g id="node17" class="node">
<title>Node17</title>
<g id="a_node17"><a xlink:href="classEventHandlerFactory.html#a2f843293b2ea47271fc7bd99bd871fa6" target="_top" xlink:title=" ">
<polygon fill="white" stroke="black" points="1130.5,-261.5 1130.5,-291.5 1245.5,-291.5 1245.5,-261.5 1130.5,-261.5"/>
<text text-anchor="start" x="1138.5" y="-279.5" font-family="Helvetica,sans-Serif" font-size="10.00">EventHandlerFactory</text>
<text text-anchor="middle" x="1188" y="-268.5" font-family="Helvetica,sans-Serif" font-size="10.00">::EventHandlerFactory</text>
</a>
</g>
</g>
<!-- Node15&#45;&gt;Node17 -->
<g id="edge16" class="edge">
<title>Node15&#45;&gt;Node17</title>
<path fill="none" stroke="midnightblue" d="M1048.74,-311.79C1070.97,-306.11 1096.97,-299.48 1120.4,-293.5"/>
<polygon fill="midnightblue" stroke="midnightblue" points="1121.43,-296.85 1130.26,-290.98 1119.7,-290.06 1121.43,-296.85"/>
</g>
<!-- Node15&#45;&gt;Node18 -->
<g id="edge19" class="edge">
<title>Node15&#45;&gt;Node18</title>
<path fill="none" stroke="midnightblue" d="M1048.66,-338.74C1070.36,-343.46 1095.73,-348.18 1119,-350.5 1180.03,-356.59 1196.16,-358.22 1257,-350.5 1273.78,-348.37 1291.68,-344.46 1308,-340.22"/>
<polygon fill="midnightblue" stroke="midnightblue" points="1309.19,-343.52 1317.94,-337.55 1307.37,-336.76 1309.19,-343.52"/>
</g>
<!-- Node19 -->
<g id="node19" class="node">
<title>Node19</title>
<g id="a_node19"><a xlink:href="classEventHandlerFactory.html#afa5ca0171c70b1a24f92b5c8dd00dc92" target="_top" xlink:title=" ">
<polygon fill="white" stroke="black" points="1133.5,-310.5 1133.5,-340.5 1242.5,-340.5 1242.5,-310.5 1133.5,-310.5"/>
<text text-anchor="start" x="1141.5" y="-328.5" font-family="Helvetica,sans-Serif" font-size="10.00">EventHandlerFactory</text>
<text text-anchor="middle" x="1188" y="-317.5" font-family="Helvetica,sans-Serif" font-size="10.00">::fallBackIdentifier</text>
</a>
</g>
</g>
<!-- Node15&#45;&gt;Node19 -->
<g id="edge18" class="edge">
<title>Node15&#45;&gt;Node19</title>
<path fill="none" stroke="midnightblue" d="M1048.74,-325.5C1071.84,-325.5 1099.02,-325.5 1123.15,-325.5"/>
<polygon fill="midnightblue" stroke="midnightblue" points="1123.27,-329 1133.27,-325.5 1123.27,-322 1123.27,-329"/>
</g>
<!-- Node17&#45;&gt;Node18 -->
<g id="edge17" class="edge">
<title>Node17&#45;&gt;Node18</title>
<path fill="none" stroke="midnightblue" d="M1245.82,-291.31C1263.76,-295.98 1283.69,-301.18 1302.06,-305.97"/>
<polygon fill="midnightblue" stroke="midnightblue" points="1301.23,-309.37 1311.79,-308.5 1303,-302.59 1301.23,-309.37"/>
</g>
<!-- Node20&#45;&gt;Node10 -->
<g id="edge22" class="edge">
<title>Node20&#45;&gt;Node10</title>
<path fill="none" stroke="midnightblue" d="M814.89,-195.86C830.88,-186.72 853.81,-171.69 869,-153.5 892.95,-124.81 876.35,-101.5 905,-77.5 913.46,-70.41 923.83,-65.41 934.45,-61.87"/>
<polygon fill="midnightblue" stroke="midnightblue" points="935.6,-65.18 944.22,-59.03 933.64,-58.46 935.6,-65.18"/>
</g>
<!-- Node20&#45;&gt;Node11 -->
<g id="edge27" class="edge">
<title>Node20&#45;&gt;Node11</title>
<path fill="none" stroke="midnightblue" d="M800.71,-215.16C812.73,-241.53 849.96,-315.18 905,-350.5 908.21,-352.56 911.62,-354.4 915.14,-356.05"/>
<polygon fill="midnightblue" stroke="midnightblue" points="914.14,-359.42 924.72,-359.96 916.78,-352.94 914.14,-359.42"/>
</g>
<!-- Node20&#45;&gt;Node12 -->
<g id="edge35" class="edge">
<title>Node20&#45;&gt;Node12</title>
<path fill="none" stroke="midnightblue" d="M799.6,-195.86C809.58,-166.43 843.86,-77.14 905,-34.5 910.99,-30.32 917.73,-27.03 924.74,-24.45"/>
<polygon fill="midnightblue" stroke="midnightblue" points="925.97,-27.73 934.43,-21.35 923.84,-21.07 925.97,-27.73"/>
</g>
<!-- Node20&#45;&gt;Node15 -->
<g id="edge36" class="edge">
<title>Node20&#45;&gt;Node15</title>
<path fill="none" stroke="midnightblue" d="M805.77,-215.26C823.47,-233.39 864,-272.54 905,-295.5 912.67,-299.8 921.07,-303.63 929.53,-306.99"/>
<polygon fill="midnightblue" stroke="midnightblue" points="928.48,-310.33 939.07,-310.59 930.95,-303.78 928.48,-310.33"/>
</g>
<!-- Node20&#45;&gt;Node18 -->
<g id="edge37" class="edge">
<title>Node20&#45;&gt;Node18</title>
<path fill="none" stroke="midnightblue" d="M809.68,-215.16C829.28,-228.87 867.81,-253.33 905,-262.5 981.81,-281.45 1004.61,-273.18 1083,-262.5 1099.45,-260.26 1102.55,-254.74 1119,-252.5 1179.77,-244.22 1198.17,-235.17 1257,-252.5 1288.94,-261.91 1320.34,-283.97 1341.08,-300.82"/>
<polygon fill="midnightblue" stroke="midnightblue" points="1339.1,-303.73 1349.02,-307.45 1343.58,-298.36 1339.1,-303.73"/>
</g>
<!-- Node21 -->
<g id="node21" class="node">
<title>Node21</title>
<g id="a_node21"><a xlink:href="classWinExtras.html#a3487e64cfb407033d7e28a761d1e76dc" target="_top" xlink:title=" ">
<polygon fill="white" stroke="black" points="924,-158 924,-177 1064,-177 1064,-158 924,-158"/>
<text text-anchor="middle" x="994" y="-165" font-family="Helvetica,sans-Serif" font-size="10.00">WinExtras::getDisplayString</text>
</a>
</g>
</g>
<!-- Node20&#45;&gt;Node21 -->
<g id="edge23" class="edge">
<title>Node20&#45;&gt;Node21</title>
<path fill="none" stroke="midnightblue" d="M845.83,-195.96C872.46,-190.81 905.53,-184.42 933.57,-178.99"/>
<polygon fill="midnightblue" stroke="midnightblue" points="934.49,-182.38 943.65,-177.04 933.17,-175.51 934.49,-182.38"/>
</g>
<!-- Node22 -->
<g id="node22" class="node">
<title>Node22</title>
<g id="a_node22"><a xlink:href="classUInputHelper.html#ac4c70c9479c1cc0eb515ab1bdf2426f5" target="_top" xlink:title=" ">
<polygon fill="white" stroke="black" points="1303,-73.5 1303,-103.5 1430,-103.5 1430,-73.5 1303,-73.5"/>
<text text-anchor="start" x="1311" y="-91.5" font-family="Helvetica,sans-Serif" font-size="10.00">UInputHelper::getDisplay</text>
<text text-anchor="middle" x="1366.5" y="-80.5" font-family="Helvetica,sans-Serif" font-size="10.00">String</text>
</a>
</g>
</g>
<!-- Node20&#45;&gt;Node22 -->
<g id="edge24" class="edge">
<title>Node20&#45;&gt;Node22</title>
<path fill="none" stroke="midnightblue" d="M812.06,-195.98C827.35,-186.25 850.95,-170.25 869,-153.5 887.27,-136.55 882.67,-121.58 905,-110.5 970.96,-77.76 1180.01,-80.72 1292.37,-84.97"/>
<polygon fill="midnightblue" stroke="midnightblue" points="1292.48,-88.48 1302.61,-85.37 1292.75,-81.48 1292.48,-88.48"/>
</g>
<!-- Node24 -->
<g id="node24" class="node">
<title>Node24</title>
<g id="a_node24"><a xlink:href="classX11Extras.html#abe710bac948c9802105a2d9d06815cac" target="_top" xlink:title="Get appropriate alias for a known KeySym string that might be blank or contain invalid characters whe...">
<polygon fill="white" stroke="black" points="924,-234 924,-253 1064,-253 1064,-234 924,-234"/>
<text text-anchor="middle" x="994" y="-241" font-family="Helvetica,sans-Serif" font-size="10.00">X11Extras::getDisplayString</text>
</a>
</g>
</g>
<!-- Node20&#45;&gt;Node24 -->
<g id="edge26" class="edge">
<title>Node20&#45;&gt;Node24</title>
<path fill="none" stroke="midnightblue" d="M845.83,-215.04C872.46,-220.19 905.53,-226.58 933.57,-232.01"/>
<polygon fill="midnightblue" stroke="midnightblue" points="933.17,-235.49 943.65,-233.96 934.49,-228.62 933.17,-235.49"/>
</g>
<!-- Node25 -->
<g id="node25" class="node">
<title>Node25</title>
<g id="a_node25"><a xlink:href="classUInputHelper.html#a61509601d3dbd8933aaa26c1e2db02f6" target="_top" xlink:title=" ">
<polygon fill="white" stroke="black" points="928.5,-120 928.5,-139 1059.5,-139 1059.5,-120 928.5,-120"/>
<text text-anchor="middle" x="994" y="-127" font-family="Helvetica,sans-Serif" font-size="10.00">UInputHelper::getInstance</text>
</a>
</g>
</g>
<!-- Node20&#45;&gt;Node25 -->
<g id="edge28" class="edge">
<title>Node20&#45;&gt;Node25</title>
<path fill="none" stroke="midnightblue" d="M811.7,-195.81C832.15,-183.18 870,-161.2 905,-148.5 912.23,-145.88 919.93,-143.56 927.66,-141.53"/>
<polygon fill="midnightblue" stroke="midnightblue" points="928.56,-144.91 937.43,-139.1 926.88,-138.11 928.56,-144.91"/>
</g>
<!-- Node31 -->
<g id="node31" class="node">
<title>Node31</title>
<g id="a_node31"><a xlink:href="classWinExtras.html#a0bfa711c1abe72486dfebc8ff6fe7f5a" target="_top" xlink:title="Convert a virtual key into the corresponding keyboard scan code.">
<polygon fill="white" stroke="black" points="905,-196 905,-215 1083,-215 1083,-196 905,-196"/>
<text text-anchor="middle" x="994" y="-203" font-family="Helvetica,sans-Serif" font-size="10.00">WinExtras::scancodeFromVirtualKey</text>
</a>
</g>
</g>
<!-- Node20&#45;&gt;Node31 -->
<g id="edge38" class="edge">
<title>Node20&#45;&gt;Node31</title>
<path fill="none" stroke="midnightblue" d="M847.62,-205.5C862.12,-205.5 878.42,-205.5 894.71,-205.5"/>
<polygon fill="midnightblue" stroke="midnightblue" points="894.85,-209 904.85,-205.5 894.85,-202 894.85,-209"/>
</g>
<!-- Node23 -->
<g id="node23" class="node">
<title>Node23</title>
<g id="a_node23"><a xlink:href="classUInputHelper.html#a043b0fa7cf4ce5811d01d95f3ca318b7" target="_top" xlink:title=" ">
<polygon fill="white" stroke="black" points="1476,-73.5 1476,-103.5 1632,-103.5 1632,-73.5 1476,-73.5"/>
<text text-anchor="start" x="1484" y="-91.5" font-family="Helvetica,sans-Serif" font-size="10.00">UInputHelper::getKnownAliases</text>
<text text-anchor="middle" x="1554" y="-80.5" font-family="Helvetica,sans-Serif" font-size="10.00">VKStrings</text>
</a>
</g>
</g>
<!-- Node22&#45;&gt;Node23 -->
<g id="edge25" class="edge">
<title>Node22&#45;&gt;Node23</title>
<path fill="none" stroke="midnightblue" d="M1430.04,-88.5C1441.55,-88.5 1453.75,-88.5 1465.82,-88.5"/>
<polygon fill="midnightblue" stroke="midnightblue" points="1465.92,-92 1475.92,-88.5 1465.92,-85 1465.92,-92"/>
</g>
<!-- Node26 -->
<g id="node26" class="node">
<title>Node26</title>
<g id="a_node26"><a xlink:href="classUInputHelper.html#a5d56d23a0e0202435c7a5ff1aca9ce55" target="_top" xlink:title=" ">
<polygon fill="white" stroke="black" points="1119,-125 1119,-144 1257,-144 1257,-125 1119,-125"/>
<text text-anchor="middle" x="1188" y="-132" font-family="Helvetica,sans-Serif" font-size="10.00">UInputHelper::UInputHelper</text>
</a>
</g>
</g>
<!-- Node25&#45;&gt;Node26 -->
<g id="edge29" class="edge">
<title>Node25&#45;&gt;Node26</title>
<path fill="none" stroke="midnightblue" d="M1059.73,-131.19C1075.51,-131.6 1092.55,-132.04 1108.88,-132.47"/>
<polygon fill="midnightblue" stroke="midnightblue" points="1108.85,-135.97 1118.94,-132.73 1109.03,-128.97 1108.85,-135.97"/>
</g>
<!-- Node27 -->
<g id="node27" class="node">
<title>Node27</title>
<g id="a_node27"><a xlink:href="classUInputHelper.html#a0f4dbb4221502d86f7d0af12a9865568" target="_top" xlink:title=" ">
<polygon fill="white" stroke="black" points="1293,-122.5 1293,-152.5 1440,-152.5 1440,-122.5 1293,-122.5"/>
<text text-anchor="start" x="1301" y="-140.5" font-family="Helvetica,sans-Serif" font-size="10.00">UInputHelper::populateKnown</text>
<text text-anchor="middle" x="1366.5" y="-129.5" font-family="Helvetica,sans-Serif" font-size="10.00">Aliases</text>
</a>
</g>
</g>
<!-- Node26&#45;&gt;Node27 -->
<g id="edge30" class="edge">
<title>Node26&#45;&gt;Node27</title>
<path fill="none" stroke="midnightblue" d="M1257.24,-135.66C1265.52,-135.8 1274.04,-135.95 1282.5,-136.09"/>
<polygon fill="midnightblue" stroke="midnightblue" points="1282.71,-139.59 1292.76,-136.26 1282.82,-132.59 1282.71,-139.59"/>
</g>
<!-- Node27&#45;&gt;Node23 -->
<g id="edge31" class="edge">
<title>Node27&#45;&gt;Node23</title>
<path fill="none" stroke="midnightblue" d="M1424.42,-122.47C1444,-117.29 1466.11,-111.45 1486.4,-106.09"/>
<polygon fill="midnightblue" stroke="midnightblue" points="1487.42,-109.44 1496.19,-103.51 1485.63,-102.68 1487.42,-109.44"/>
</g>
<!-- Node28 -->
<g id="node28" class="node">
<title>Node28</title>
<g id="a_node28"><a xlink:href="classUInputHelper.html#a8f3fe71ae635cd3c46eaab79dd11c2e0" target="_top" xlink:title=" ">
<polygon fill="white" stroke="black" points="1476,-171.5 1476,-201.5 1632,-201.5 1632,-171.5 1476,-171.5"/>
<text text-anchor="start" x="1484" y="-189.5" font-family="Helvetica,sans-Serif" font-size="10.00">UInputHelper::getKnownAliases</text>
<text text-anchor="middle" x="1554" y="-178.5" font-family="Helvetica,sans-Serif" font-size="10.00">X11SymVK</text>
</a>
</g>
</g>
<!-- Node27&#45;&gt;Node28 -->
<g id="edge32" class="edge">
<title>Node27&#45;&gt;Node28</title>
<path fill="none" stroke="midnightblue" d="M1424.42,-152.53C1444,-157.71 1466.11,-163.55 1486.4,-168.91"/>
<polygon fill="midnightblue" stroke="midnightblue" points="1485.63,-172.32 1496.19,-171.49 1487.42,-165.56 1485.63,-172.32"/>
</g>
<!-- Node29 -->
<g id="node29" class="node">
<title>Node29</title>
<g id="a_node29"><a xlink:href="classUInputHelper.html#a9793030329fbbe1106b255814ef2bd0f" target="_top" xlink:title=" ">
<polygon fill="white" stroke="black" points="1487,-122.5 1487,-152.5 1621,-152.5 1621,-122.5 1487,-122.5"/>
<text text-anchor="start" x="1495" y="-140.5" font-family="Helvetica,sans-Serif" font-size="10.00">UInputHelper::populateX11</text>
<text text-anchor="middle" x="1554" y="-129.5" font-family="Helvetica,sans-Serif" font-size="10.00">SymVk</text>
</a>
</g>
</g>
<!-- Node27&#45;&gt;Node29 -->
<g id="edge33" class="edge">
<title>Node27&#45;&gt;Node29</title>
<path fill="none" stroke="midnightblue" d="M1440.02,-137.5C1452.08,-137.5 1464.63,-137.5 1476.79,-137.5"/>
<polygon fill="midnightblue" stroke="midnightblue" points="1476.89,-141 1486.89,-137.5 1476.89,-134 1476.89,-141"/>
</g>
<!-- Node30 -->
<g id="node30" class="node">
<title>Node30</title>
<g id="a_node30"><a xlink:href="classUInputHelper.html#af02574de230bb0550eebb63f5a669681" target="_top" xlink:title=" ">
<polygon fill="white" stroke="black" points="1486,-220.5 1486,-250.5 1622,-250.5 1622,-220.5 1486,-220.5"/>
<text text-anchor="start" x="1494" y="-238.5" font-family="Helvetica,sans-Serif" font-size="10.00">UInputHelper::populateXVk</text>
<text text-anchor="middle" x="1554" y="-227.5" font-family="Helvetica,sans-Serif" font-size="10.00">Strings</text>
</a>
</g>
</g>
<!-- Node27&#45;&gt;Node30 -->
<g id="edge34" class="edge">
<title>Node27&#45;&gt;Node30</title>
<path fill="none" stroke="midnightblue" d="M1386.04,-152.7C1406.85,-169.12 1442.13,-195.12 1476,-211.5 1479.83,-213.35 1483.83,-215.1 1487.92,-216.75"/>
<polygon fill="midnightblue" stroke="midnightblue" points="1486.96,-220.13 1497.55,-220.4 1489.44,-213.58 1486.96,-220.13"/>
</g>
<!-- Node36 -->
<g id="node36" class="node">
<title>Node36</title>
<g id="a_node36"><a xlink:href="classAdvanceButtonDialog.html#ab0a69a5cf232c47a8cbdef5141d1bd9b" target="_top" xlink:title=" ">
<polygon fill="white" stroke="black" points="353,-661.5 353,-691.5 483,-691.5 483,-661.5 353,-661.5"/>
<text text-anchor="start" x="361" y="-679.5" font-family="Helvetica,sans-Serif" font-size="10.00">AdvanceButtonDialog</text>
<text text-anchor="middle" x="418" y="-668.5" font-family="Helvetica,sans-Serif" font-size="10.00">::appendBlankKeyGrabber</text>
</a>
</g>
</g>
<!-- Node35&#45;&gt;Node36 -->
<g id="edge43" class="edge">
<title>Node35&#45;&gt;Node36</title>
<path fill="none" stroke="midnightblue" d="M296.63,-642.6C314.74,-647.7 335.12,-653.44 353.9,-658.73"/>
<polygon fill="midnightblue" stroke="midnightblue" points="352.98,-662.11 363.55,-661.45 354.87,-655.37 352.98,-662.11"/>
</g>
<!-- Node39 -->
<g id="node39" class="node">
<title>Node39</title>
<g id="a_node39"><a xlink:href="classAdvanceButtonDialog.html#aeb24c0b3026ce45fd97cab431d4b6040" target="_top" xlink:title=" ">
<polygon fill="white" stroke="black" points="347,-612.5 347,-642.5 489,-642.5 489,-612.5 347,-612.5"/>
<text text-anchor="start" x="355" y="-630.5" font-family="Helvetica,sans-Serif" font-size="10.00">AdvanceButtonDialog</text>
<text text-anchor="middle" x="418" y="-619.5" font-family="Helvetica,sans-Serif" font-size="10.00">::changeTurboForSequences</text>
</a>
</g>
</g>
<!-- Node35&#45;&gt;Node39 -->
<g id="edge47" class="edge">
<title>Node35&#45;&gt;Node39</title>
<path fill="none" stroke="midnightblue" d="M301.91,-627.5C313.04,-627.5 324.86,-627.5 336.53,-627.5"/>
<polygon fill="midnightblue" stroke="midnightblue" points="336.71,-631 346.71,-627.5 336.71,-624 336.71,-631"/>
</g>
<!-- Node37 -->
<g id="node37" class="node">
<title>Node37</title>
<g id="a_node37"><a xlink:href="classAdvanceButtonDialog.html#ab72e06536fc36f403249d7f48a925a82" target="_top" xlink:title=" ">
<polygon fill="white" stroke="black" points="547.5,-656.5 547.5,-686.5 663.5,-686.5 663.5,-656.5 547.5,-656.5"/>
<text text-anchor="start" x="555.5" y="-674.5" font-family="Helvetica,sans-Serif" font-size="10.00">AdvanceButtonDialog</text>
<text text-anchor="middle" x="605.5" y="-663.5" font-family="Helvetica,sans-Serif" font-size="10.00">::connectButtonEvents</text>
</a>
</g>
</g>
<!-- Node36&#45;&gt;Node37 -->
<g id="edge44" class="edge">
<title>Node36&#45;&gt;Node37</title>
<path fill="none" stroke="midnightblue" d="M483.1,-674.77C500.52,-674.3 519.44,-673.79 537.04,-673.32"/>
<polygon fill="midnightblue" stroke="midnightblue" points="537.32,-676.81 547.23,-673.04 537.14,-669.81 537.32,-676.81"/>
</g>
<!-- Node37&#45;&gt;Node3 -->
<g id="edge46" class="edge">
<title>Node37&#45;&gt;Node3</title>
<path fill="none" stroke="midnightblue" d="M663.67,-658.12C682.25,-653.77 703.1,-648.89 722.61,-644.33"/>
<polygon fill="midnightblue" stroke="midnightblue" points="723.42,-647.73 732.36,-642.04 721.83,-640.91 723.42,-647.73"/>
</g>
<!-- Node38 -->
<g id="node38" class="node">
<title>Node38</title>
<g id="a_node38"><a xlink:href="classJoyButtonSlot.html#abed7fe134c404b403ea79c0753f6eaaf" target="_top" xlink:title=" ">
<polygon fill="white" stroke="black" points="924.5,-618 924.5,-637 1063.5,-637 1063.5,-618 924.5,-618"/>
<text text-anchor="middle" x="994" y="-625" font-family="Helvetica,sans-Serif" font-size="10.00">JoyButtonSlot::getSlotMode</text>
</a>
</g>
</g>
<!-- Node37&#45;&gt;Node38 -->
<g id="edge45" class="edge">
<title>Node37&#45;&gt;Node38</title>
<path fill="none" stroke="midnightblue" d="M663.55,-669.46C716.87,-667.05 798.6,-662.11 869,-652.5 893.34,-649.18 920.09,-643.99 942.49,-639.19"/>
<polygon fill="midnightblue" stroke="midnightblue" points="943.42,-642.57 952.45,-637.03 941.94,-635.73 943.42,-642.57"/>
</g>
<!-- Node39&#45;&gt;Node3 -->
<g id="edge48" class="edge">
<title>Node39&#45;&gt;Node3</title>
<path fill="none" stroke="midnightblue" d="M489.19,-627.5C555.72,-627.5 655.2,-627.5 722.36,-627.5"/>
<polygon fill="midnightblue" stroke="midnightblue" points="722.44,-631 732.44,-627.5 722.44,-624 722.44,-631"/>
</g>
<!-- Node40 -->
<g id="node40" class="node">
<title>Node40</title>
<g id="a_node40"><a xlink:href="classJoyButton.html#a0750530dac3901ece7c78c19d15e0d54" target="_top" xlink:title=" ">
<polygon fill="white" stroke="black" points="544,-536 544,-555 667,-555 667,-536 544,-536"/>
<text text-anchor="middle" x="605.5" y="-543" font-family="Helvetica,sans-Serif" font-size="10.00">JoyButton::setUseTurbo</text>
</a>
</g>
</g>
<!-- Node39&#45;&gt;Node40 -->
<g id="edge49" class="edge">
<title>Node39&#45;&gt;Node40</title>
<path fill="none" stroke="midnightblue" d="M453.02,-612.46C487.48,-597.23 540.32,-573.87 573.61,-559.15"/>
<polygon fill="midnightblue" stroke="midnightblue" points="575.13,-562.31 582.86,-555.06 572.3,-555.91 575.13,-562.31"/>
</g>
<!-- Node41 -->
<g id="node41" class="node">
<title>Node41</title>
<g id="a_node41"><a xlink:href="classJoyButton.html#a6e3ee0e05fe5d243b142c5f22011c2e9" target="_top" xlink:title=" ">
<polygon fill="white" stroke="black" points="722,-536 722,-555 869,-555 869,-536 722,-536"/>
<text text-anchor="middle" x="795.5" y="-543" font-family="Helvetica,sans-Serif" font-size="10.00">JoyButton::containsSequence</text>
</a>
</g>
</g>
<!-- Node40&#45;&gt;Node41 -->
<g id="edge50" class="edge">
<title>Node40&#45;&gt;Node41</title>
<path fill="none" stroke="midnightblue" d="M667.02,-545.5C681.24,-545.5 696.63,-545.5 711.63,-545.5"/>
<polygon fill="midnightblue" stroke="midnightblue" points="711.94,-549 721.94,-545.5 711.94,-542 711.94,-549"/>
</g>
<!-- Node43 -->
<g id="node43" class="node">
<title>Node43</title>
<g id="a_node43"><a xlink:href="classJoyButton.html#a42d517ef696229862b238c52c4ff345c" target="_top" xlink:title=" ">
<polygon fill="white" stroke="black" points="727,-574 727,-593 864,-593 864,-574 727,-574"/>
<text text-anchor="middle" x="795.5" y="-581" font-family="Helvetica,sans-Serif" font-size="10.00">JoyButton::setTurboInterval</text>
</a>
</g>
</g>
<!-- Node40&#45;&gt;Node43 -->
<g id="edge53" class="edge">
<title>Node40&#45;&gt;Node43</title>
<path fill="none" stroke="midnightblue" d="M667.02,-551.38C698.1,-556.9 734.8,-564.66 760.82,-571.37"/>
<polygon fill="midnightblue" stroke="midnightblue" points="760.02,-574.78 770.58,-573.98 761.83,-568.02 760.02,-574.78"/>
</g>
<!-- Node41&#45;&gt;Node38 -->
<g id="edge52" class="edge">
<title>Node41&#45;&gt;Node38</title>
<path fill="none" stroke="midnightblue" d="M839.15,-555.05C849.08,-557.72 859.51,-560.89 869,-564.5 904.67,-578.06 943.55,-598.88 968.09,-612.84"/>
<polygon fill="midnightblue" stroke="midnightblue" points="966.65,-616.05 977.06,-618 970.14,-609.98 966.65,-616.05"/>
</g>
<!-- Node42 -->
<g id="node42" class="node">
<title>Node42</title>
<g id="a_node42"><a xlink:href="classJoyButton.html#ae1d364dfa70f47fae3db99ffbcdea44b" target="_top" xlink:title=" ">
<polygon fill="white" stroke="black" points="922.5,-536 922.5,-555 1065.5,-555 1065.5,-536 922.5,-536"/>
<text text-anchor="middle" x="994" y="-543" font-family="Helvetica,sans-Serif" font-size="10.00">JoyButton::getAssignedSlots</text>
</a>
</g>
</g>
<!-- Node41&#45;&gt;Node42 -->
<g id="edge51" class="edge">
<title>Node41&#45;&gt;Node42</title>
<path fill="none" stroke="midnightblue" d="M869.11,-545.5C883.1,-545.5 897.83,-545.5 912.07,-545.5"/>
<polygon fill="midnightblue" stroke="midnightblue" points="912.32,-549 922.32,-545.5 912.32,-542 912.32,-549"/>
</g>
<!-- Node43&#45;&gt;Node40 -->
<g id="edge54" class="edge">
<title>Node43&#45;&gt;Node40</title>
<path fill="none" stroke="midnightblue" d="M726.73,-576.31C697.42,-570.94 664.4,-563.87 640.39,-557.68"/>
<polygon fill="midnightblue" stroke="midnightblue" points="641.26,-554.29 630.69,-555.09 639.45,-561.05 641.26,-554.29"/>
</g>
</g>
</svg>
        <g id="navigator" transform="translate(0 0)" fill="#404254">
                <rect fill="#f2f5e9" fill-opacity="0.5" stroke="#606060" stroke-width=".5" x="0" y="0" width="60" height="60"/>
                <use id="zoomplus" xlink:href="#zoomPlus" x="17" y="9" onmousedown="handleZoom(evt,'in')"/>
                <use id="zoomminus" xlink:href="#zoomMin" x="42" y="9" onmousedown="handleZoom(evt,'out')"/>
                <use id="reset" xlink:href="#resetDef" x="30" y="36" onmousedown="handleReset()"/>
                <g id="arrowUp" xlink:href="#dirArrow" transform="translate(30 24)" onmousedown="handlePan(0,-1)">
                  <use xlink:href="#rim" fill="#404040">
                        <set attributeName="fill" to="#808080" begin="arrowUp.mouseover" end="arrowUp.mouseout"/>
                  </use>
                  <path fill="none" stroke="white" stroke-width="1.5" d="M0,-3.0v7 M-2.5,-0.5L0,-3.0L2.5,-0.5"/>
                </g>
                <g id="arrowRight" xlink:href="#dirArrow" transform="rotate(90) translate(36 -43)" onmousedown="handlePan(1,0)">
                  <use xlink:href="#rim" fill="#404040">
                        <set attributeName="fill" to="#808080" begin="arrowRight.mouseover" end="arrowRight.mouseout"/>
                  </use>
                  <path fill="none" stroke="white" stroke-width="1.5" d="M0,-3.0v7 M-2.5,-0.5L0,-3.0L2.5,-0.5"/>
                </g>
                <g id="arrowDown" xlink:href="#dirArrow" transform="rotate(180) translate(-30 -48)" onmousedown="handlePan(0,1)">
                  <use xlink:href="#rim" fill="#404040">
                        <set attributeName="fill" to="#808080" begin="arrowDown.mouseover" end="arrowDown.mouseout"/>
                  </use>
                  <path fill="none" stroke="white" stroke-width="1.5" d="M0,-3.0v7 M-2.5,-0.5L0,-3.0L2.5,-0.5"/>
                </g>
                <g id="arrowLeft" xlink:href="#dirArrow" transform="rotate(270) translate(-36 17)" onmousedown="handlePan(-1,0)">
                  <use xlink:href="#rim" fill="#404040">
                        <set attributeName="fill" to="#808080" begin="arrowLeft.mouseover" end="arrowLeft.mouseout"/>
                  </use>
                  <path fill="none" stroke="white" stroke-width="1.5" d="M0,-3.0v7 M-2.5,-0.5L0,-3.0L2.5,-0.5"/>
                </g>
        </g>
        <svg viewBox="0 0 15 15" width="100%" height="30px" preserveAspectRatio="xMaxYMin meet">
         <g id="arrow_out" transform="scale(0.3 0.3)">
          <a xlink:href="classAdvanceButtonDialog_af758d9978d99adab296ebd584020fa1b_cgraph_org.svg" target="_base">
           <rect id="button" ry="5" rx="5" y="6" x="6" height="38" width="38"
                fill="#f2f5e9" fill-opacity="0.5" stroke="#606060" stroke-width="1.0"/>
           <path id="arrow"
             d="M 11.500037,31.436501 C 11.940474,20.09759 22.043105,11.32322 32.158766,21.979434 L 37.068811,17.246167 C 37.068811,17.246167 37.088388,32 37.088388,32 L 22.160133,31.978069 C 22.160133,31.978069 26.997745,27.140456 26.997745,27.140456 C 18.528582,18.264221 13.291696,25.230495 11.500037,31.436501 z"
             style="fill:#404040;"/>
          </a>
         </g>
        </svg>
</svg>
