<?xml version="1.0" encoding="UTF-8" standalone="no"?>
<!DOCTYPE svg PUBLIC "-//W3C//DTD SVG 1.1//EN"
 "http://www.w3.org/Graphics/SVG/1.1/DTD/svg11.dtd">
<!-- Generated by graphviz version 2.43.0 (0)
 -->
<!-- Title: AxisValueBox Pages: 1 -->
<svg width="2092pt" height="673pt"
 viewBox="0.00 0.00 2092.00 673.00" xmlns="http://www.w3.org/2000/svg" xmlns:xlink="http://www.w3.org/1999/xlink">
<g id="graph0" class="graph" transform="scale(1 1) rotate(0) translate(4 669)">
<title>AxisValueBox</title>
<polygon fill="white" stroke="transparent" points="-4,4 -4,-669 2088,-669 2088,4 -4,4"/>
<!-- Node1 -->
<g id="node1" class="node">
<title>Node1</title>
<g id="a_node1"><a xlink:title=" ">
<polygon fill="#bfbfbf" stroke="black" points="313.5,-634.5 313.5,-653.5 390.5,-653.5 390.5,-634.5 313.5,-634.5"/>
<text text-anchor="middle" x="352" y="-641.5" font-family="Helvetica,sans-Serif" font-size="10.00">AxisValueBox</text>
</a>
</g>
</g>
<!-- Node2 -->
<g id="node2" class="node">
<title>Node2</title>
<g id="a_node2"><a xlink:title=" ">
<polygon fill="white" stroke="#bfbfbf" points="92.5,-645.5 92.5,-664.5 147.5,-664.5 147.5,-645.5 92.5,-645.5"/>
<text text-anchor="middle" x="120" y="-652.5" font-family="Helvetica,sans-Serif" font-size="10.00">QWidget</text>
</a>
</g>
</g>
<!-- Node2&#45;&gt;Node1 -->
<g id="edge1" class="edge">
<title>Node2&#45;&gt;Node1</title>
<path fill="none" stroke="midnightblue" d="M158.06,-653.23C200.72,-651.19 270.39,-647.86 313.3,-645.8"/>
<polygon fill="midnightblue" stroke="midnightblue" points="157.66,-649.74 147.83,-653.72 157.99,-656.73 157.66,-649.74"/>
</g>
<!-- Node3 -->
<g id="node3" class="node">
<title>Node3</title>
<g id="a_node3"><a xlink:href="classJoyAxis.html" target="_top" xlink:title=" ">
<polygon fill="white" stroke="black" points="94,-459.5 94,-478.5 146,-478.5 146,-459.5 94,-459.5"/>
<text text-anchor="middle" x="120" y="-466.5" font-family="Helvetica,sans-Serif" font-size="10.00">JoyAxis</text>
</a>
</g>
</g>
<!-- Node3&#45;&gt;Node1 -->
<g id="edge2" class="edge">
<title>Node3&#45;&gt;Node1</title>
<path fill="none" stroke="#9a32cd" stroke-dasharray="5,2" d="M121.81,-488.97C124.18,-519.25 133.27,-576.48 168,-607 170.75,-609.41 260.6,-626.82 313.35,-636.87"/>
<polygon fill="#9a32cd" stroke="#9a32cd" points="125.29,-488.57 121.2,-478.8 118.31,-488.99 125.29,-488.57"/>
<text text-anchor="middle" x="227.5" y="-633" font-family="Helvetica,sans-Serif" font-size="10.00"> m_axis</text>
</g>
<!-- Node7 -->
<g id="node7" class="node">
<title>Node7</title>
<g id="a_node7"><a xlink:href="classJoyAxisXml.html" target="_top" xlink:title=" ">
<polygon fill="white" stroke="black" points="317.5,-274.5 317.5,-293.5 386.5,-293.5 386.5,-274.5 317.5,-274.5"/>
<text text-anchor="middle" x="352" y="-281.5" font-family="Helvetica,sans-Serif" font-size="10.00">JoyAxisXml</text>
</a>
</g>
</g>
<!-- Node3&#45;&gt;Node7 -->
<g id="edge10" class="edge">
<title>Node3&#45;&gt;Node7</title>
<path fill="none" stroke="#9a32cd" stroke-dasharray="5,2" d="M128.42,-449.89C136.15,-431.93 149.69,-405.16 168,-387 214.58,-340.78 286.13,-308.63 324.51,-293.62"/>
<polygon fill="#9a32cd" stroke="#9a32cd" points="125.11,-448.74 124.55,-459.32 131.59,-451.4 125.11,-448.74"/>
<text text-anchor="middle" x="227.5" y="-390" font-family="Helvetica,sans-Serif" font-size="10.00"> m_joyAxis</text>
</g>
<!-- Node18 -->
<g id="node18" class="node">
<title>Node18</title>
<g id="a_node18"><a xlink:href="classJoyAxisButton.html" target="_top" xlink:title=" ">
<polygon fill="white" stroke="black" points="1566.5,-478.5 1566.5,-497.5 1646.5,-497.5 1646.5,-478.5 1566.5,-478.5"/>
<text text-anchor="middle" x="1606.5" y="-485.5" font-family="Helvetica,sans-Serif" font-size="10.00">JoyAxisButton</text>
</a>
</g>
</g>
<!-- Node3&#45;&gt;Node18 -->
<g id="edge34" class="edge">
<title>Node3&#45;&gt;Node18</title>
<path fill="none" stroke="#9a32cd" stroke-dasharray="5,2" d="M143.54,-484.01C183.53,-509.14 270.28,-557 351,-557 351,-557 351,-557 1447,-557 1505.82,-557 1567.48,-516.55 1593.15,-497.59"/>
<polygon fill="#9a32cd" stroke="#9a32cd" points="145.38,-481.03 135.07,-478.59 141.61,-486.93 145.38,-481.03"/>
<text text-anchor="middle" x="935.5" y="-560" font-family="Helvetica,sans-Serif" font-size="10.00"> m_axis</text>
</g>
<!-- Node20 -->
<g id="node20" class="node">
<title>Node20</title>
<g id="a_node20"><a xlink:href="classJoyControlStick.html" target="_top" xlink:title=" ">
<polygon fill="white" stroke="black" points="1784,-388.5 1784,-407.5 1870,-407.5 1870,-388.5 1784,-388.5"/>
<text text-anchor="middle" x="1827" y="-395.5" font-family="Helvetica,sans-Serif" font-size="10.00">JoyControlStick</text>
</a>
</g>
</g>
<!-- Node3&#45;&gt;Node20 -->
<g id="edge44" class="edge">
<title>Node3&#45;&gt;Node20</title>
<path fill="none" stroke="#9a32cd" stroke-dasharray="5,2" d="M129.73,-487.93C137.68,-503.22 150.8,-524.22 168,-537 236.6,-587.96 265.54,-596 351,-596 351,-596 351,-596 1607.5,-596 1721.15,-596 1802,-447.1 1821.48,-407.55"/>
<polygon fill="#9a32cd" stroke="#9a32cd" points="132.81,-486.28 125.26,-478.86 126.53,-489.37 132.81,-486.28"/>
<text text-anchor="middle" x="1013" y="-610" font-family="Helvetica,sans-Serif" font-size="10.00"> axisX</text>
<text text-anchor="middle" x="1013" y="-599" font-family="Helvetica,sans-Serif" font-size="10.00">axisY</text>
</g>
<!-- Node4 -->
<g id="node4" class="node">
<title>Node4</title>
<g id="a_node4"><a xlink:title=" ">
<polygon fill="white" stroke="#bfbfbf" points="0,-188.5 0,-207.5 53,-207.5 53,-188.5 0,-188.5"/>
<text text-anchor="middle" x="26.5" y="-195.5" font-family="Helvetica,sans-Serif" font-size="10.00">QObject</text>
</a>
</g>
</g>
<!-- Node4&#45;&gt;Node3 -->
<g id="edge3" class="edge">
<title>Node4&#45;&gt;Node3</title>
<path fill="none" stroke="midnightblue" d="M29.97,-217.75C34.81,-252.96 47.21,-328.45 71,-388 81.91,-415.32 101.21,-444.27 111.71,-459.05"/>
<polygon fill="midnightblue" stroke="midnightblue" points="33.43,-217.26 28.66,-207.81 26.49,-218.18 33.43,-217.26"/>
</g>
<!-- Node6 -->
<g id="node6" class="node">
<title>Node6</title>
<g id="a_node6"><a xlink:href="classSetJoystickXml.html" target="_top" xlink:title=" ">
<polygon fill="white" stroke="black" points="513,-274.5 513,-293.5 598,-293.5 598,-274.5 513,-274.5"/>
<text text-anchor="middle" x="555.5" y="-281.5" font-family="Helvetica,sans-Serif" font-size="10.00">SetJoystickXml</text>
</a>
</g>
</g>
<!-- Node4&#45;&gt;Node6 -->
<g id="edge6" class="edge">
<title>Node4&#45;&gt;Node6</title>
<path fill="none" stroke="midnightblue" d="M62.73,-209.73C71.57,-212.39 81.07,-215.01 90,-217 170.52,-234.94 414.3,-266.42 512.67,-278.79"/>
<polygon fill="midnightblue" stroke="midnightblue" points="63.7,-206.37 53.11,-206.75 61.63,-213.05 63.7,-206.37"/>
</g>
<!-- Node4&#45;&gt;Node7 -->
<g id="edge9" class="edge">
<title>Node4&#45;&gt;Node7</title>
<path fill="none" stroke="midnightblue" d="M37.72,-216.2C45.32,-227.89 56.8,-242.29 71,-250 150.82,-293.35 261.98,-291.73 317.15,-287.55"/>
<polygon fill="midnightblue" stroke="midnightblue" points="40.67,-214.31 32.49,-207.58 34.69,-217.94 40.67,-214.31"/>
</g>
<!-- Node8 -->
<g id="node8" class="node">
<title>Node8</title>
<g id="a_node8"><a xlink:href="classJoyButtonXml.html" target="_top" xlink:title=" ">
<polygon fill="white" stroke="black" points="1407,-362.5 1407,-381.5 1485,-381.5 1485,-362.5 1407,-362.5"/>
<text text-anchor="middle" x="1446" y="-369.5" font-family="Helvetica,sans-Serif" font-size="10.00">JoyButtonXml</text>
</a>
</g>
</g>
<!-- Node4&#45;&gt;Node8 -->
<g id="edge12" class="edge">
<title>Node4&#45;&gt;Node8</title>
<path fill="none" stroke="midnightblue" d="M28.69,-217.95C32.62,-264.04 49.31,-374 119,-374 119,-374 119,-374 457,-374 626.41,-374 667.59,-404 837,-404 837,-404 837,-404 1273.5,-404 1323.02,-404 1379.24,-390.95 1413.4,-381.51"/>
<polygon fill="midnightblue" stroke="midnightblue" points="32.16,-217.43 27.94,-207.71 25.18,-217.94 32.16,-217.43"/>
</g>
<!-- Node9 -->
<g id="node9" class="node">
<title>Node9</title>
<g id="a_node9"><a xlink:href="classJoyButton.html" target="_top" xlink:title=" ">
<polygon fill="white" stroke="black" points="1242,-213.5 1242,-232.5 1303,-232.5 1303,-213.5 1242,-213.5"/>
<text text-anchor="middle" x="1272.5" y="-220.5" font-family="Helvetica,sans-Serif" font-size="10.00">JoyButton</text>
</a>
</g>
</g>
<!-- Node4&#45;&gt;Node9 -->
<g id="edge14" class="edge">
<title>Node4&#45;&gt;Node9</title>
<path fill="none" stroke="midnightblue" d="M29.52,-178.46C35.13,-135.77 54.96,-38 119,-38 119,-38 119,-38 1087,-38 1151.82,-38 1178.43,-41.9 1224,-88 1259.81,-124.22 1268.73,-189 1270.86,-213.37"/>
<polygon fill="midnightblue" stroke="midnightblue" points="26.04,-178.13 28.34,-188.47 32.99,-178.95 26.04,-178.13"/>
</g>
<!-- Node10 -->
<g id="node10" class="node">
<title>Node10</title>
<g id="a_node10"><a xlink:href="classJoyButtonMouseHelper.html" target="_top" xlink:title=" ">
<polygon fill="white" stroke="black" points="168,-74.5 168,-93.5 287,-93.5 287,-74.5 168,-74.5"/>
<text text-anchor="middle" x="227.5" y="-81.5" font-family="Helvetica,sans-Serif" font-size="10.00">JoyButtonMouseHelper</text>
</a>
</g>
</g>
<!-- Node4&#45;&gt;Node10 -->
<g id="edge16" class="edge">
<title>Node4&#45;&gt;Node10</title>
<path fill="none" stroke="midnightblue" d="M31.41,-178.21C36.64,-157.28 48.06,-124.97 71,-108 98.56,-87.61 136.47,-81.45 167.96,-80.46"/>
<polygon fill="midnightblue" stroke="midnightblue" points="27.93,-177.72 29.16,-188.24 34.76,-179.25 27.93,-177.72"/>
</g>
<!-- Node11 -->
<g id="node11" class="node">
<title>Node11</title>
<g id="a_node11"><a xlink:href="classJoyButtonSlot.html" target="_top" xlink:title=" ">
<polygon fill="white" stroke="black" points="417,-112.5 417,-131.5 495,-131.5 495,-112.5 417,-112.5"/>
<text text-anchor="middle" x="456" y="-119.5" font-family="Helvetica,sans-Serif" font-size="10.00">JoyButtonSlot</text>
</a>
</g>
</g>
<!-- Node4&#45;&gt;Node11 -->
<g id="edge19" class="edge">
<title>Node4&#45;&gt;Node11</title>
<path fill="none" stroke="midnightblue" d="M37.58,-179.53C45.12,-167.72 56.58,-153.29 71,-146 185.59,-88.04 344.63,-103.6 416.74,-114.94"/>
<polygon fill="midnightblue" stroke="midnightblue" points="34.5,-177.87 32.41,-188.26 40.52,-181.44 34.5,-177.87"/>
</g>
<!-- Node13 -->
<g id="node13" class="node">
<title>Node13</title>
<g id="a_node13"><a xlink:href="classJoyDPad.html" target="_top" xlink:title=" ">
<polygon fill="white" stroke="black" points="907,-292.5 907,-311.5 964,-311.5 964,-292.5 907,-292.5"/>
<text text-anchor="middle" x="935.5" y="-299.5" font-family="Helvetica,sans-Serif" font-size="10.00">JoyDPad</text>
</a>
</g>
</g>
<!-- Node4&#45;&gt;Node13 -->
<g id="edge22" class="edge">
<title>Node4&#45;&gt;Node13</title>
<path fill="none" stroke="midnightblue" d="M38.44,-216.73C46.71,-230.34 58.72,-248.94 71,-264 102.18,-302.24 119.75,-307.67 168,-318 219.72,-329.07 234.11,-318.31 287,-318 554.57,-316.44 622.86,-338.63 889,-311 894.77,-310.4 900.89,-309.43 906.71,-308.34"/>
<polygon fill="midnightblue" stroke="midnightblue" points="41.25,-214.62 33.12,-207.82 35.24,-218.2 41.25,-214.62"/>
</g>
<!-- Node15 -->
<g id="node15" class="node">
<title>Node15</title>
<g id="a_node15"><a xlink:href="classInputDevice.html" target="_top" xlink:title=" ">
<polygon fill="white" stroke="black" points="521,-188.5 521,-207.5 590,-207.5 590,-188.5 521,-188.5"/>
<text text-anchor="middle" x="555.5" y="-195.5" font-family="Helvetica,sans-Serif" font-size="10.00">InputDevice</text>
</a>
</g>
</g>
<!-- Node4&#45;&gt;Node15 -->
<g id="edge28" class="edge">
<title>Node4&#45;&gt;Node15</title>
<path fill="none" stroke="midnightblue" d="M62.57,-185.36C71.4,-182.73 80.95,-180.34 90,-179 225.84,-158.81 261.92,-170.66 399,-179 441.21,-181.57 489.52,-188.03 520.94,-192.7"/>
<polygon fill="midnightblue" stroke="midnightblue" points="61.43,-182.05 52.95,-188.4 63.54,-188.72 61.43,-182.05"/>
</g>
<!-- Node4&#45;&gt;Node20 -->
<g id="edge36" class="edge">
<title>Node4&#45;&gt;Node20</title>
<path fill="none" stroke="midnightblue" d="M27.68,-178.26C29.28,-128.16 41.01,0 119,0 119,0 119,0 1607.5,0 1790.37,0 1821.24,-326.87 1825.42,-388.16"/>
<polygon fill="midnightblue" stroke="midnightblue" points="24.18,-178.38 27.46,-188.45 31.18,-178.53 24.18,-178.38"/>
</g>
<!-- Node5 -->
<g id="node5" class="node">
<title>Node5</title>
<g id="a_node5"><a xlink:href="classSetJoystick.html" target="_top" xlink:title=" ">
<polygon fill="white" stroke="black" points="701,-270.5 701,-289.5 769,-289.5 769,-270.5 701,-270.5"/>
<text text-anchor="middle" x="735" y="-277.5" font-family="Helvetica,sans-Serif" font-size="10.00">SetJoystick</text>
</a>
</g>
</g>
<!-- Node5&#45;&gt;Node3 -->
<g id="edge4" class="edge">
<title>Node5&#45;&gt;Node3</title>
<path fill="none" stroke="#9a32cd" stroke-dasharray="5,2" d="M708.35,-294.49C665.55,-317.99 576.25,-364.19 495,-388 354.04,-429.31 304.47,-381.66 168,-436 154.29,-441.46 140.72,-451.64 131.72,-459.25"/>
<polygon fill="#9a32cd" stroke="#9a32cd" points="710.19,-297.47 717.24,-289.57 706.8,-291.35 710.19,-297.47"/>
<text text-anchor="middle" x="456" y="-406" font-family="Helvetica,sans-Serif" font-size="10.00"> m_parentSet</text>
</g>
<!-- Node5&#45;&gt;Node6 -->
<g id="edge7" class="edge">
<title>Node5&#45;&gt;Node6</title>
<path fill="none" stroke="#9a32cd" stroke-dasharray="5,2" d="M690.58,-280.98C662.42,-281.61 625.92,-282.44 598.12,-283.06"/>
<polygon fill="#9a32cd" stroke="#9a32cd" points="691.02,-284.47 700.94,-280.75 690.86,-277.47 691.02,-284.47"/>
<text text-anchor="middle" x="649.5" y="-285" font-family="Helvetica,sans-Serif" font-size="10.00"> m_setJoystick</text>
</g>
<!-- Node5&#45;&gt;Node9 -->
<g id="edge17" class="edge">
<title>Node5&#45;&gt;Node9</title>
<path fill="none" stroke="#9a32cd" stroke-dasharray="5,2" d="M779.46,-272.69C841.83,-262.43 960.41,-243.82 1062,-233 1091.25,-229.88 1098.63,-229.62 1128,-228 1167.33,-225.83 1212.77,-224.43 1241.8,-223.68"/>
<polygon fill="#9a32cd" stroke="#9a32cd" points="778.51,-269.3 769.22,-274.38 779.65,-276.2 778.51,-269.3"/>
<text text-anchor="middle" x="1013" y="-245" font-family="Helvetica,sans-Serif" font-size="10.00"> m_parentSet</text>
</g>
<!-- Node5&#45;&gt;Node13 -->
<g id="edge23" class="edge">
<title>Node5&#45;&gt;Node13</title>
<path fill="none" stroke="#9a32cd" stroke-dasharray="5,2" d="M779.2,-284.79C818.02,-289.09 873.86,-295.28 906.93,-298.94"/>
<polygon fill="#9a32cd" stroke="#9a32cd" points="779.55,-281.31 769.22,-283.68 778.78,-288.26 779.55,-281.31"/>
<text text-anchor="middle" x="838" y="-299" font-family="Helvetica,sans-Serif" font-size="10.00"> m_parentSet</text>
</g>
<!-- Node6&#45;&gt;Node5 -->
<g id="edge5" class="edge">
<title>Node6&#45;&gt;Node5</title>
<path fill="none" stroke="midnightblue" d="M608.23,-277.55C610.85,-277.33 613.46,-277.15 616,-277 645.73,-275.26 653.24,-276.13 683,-277 688.76,-277.17 694.89,-277.45 700.82,-277.76"/>
<polygon fill="midnightblue" stroke="midnightblue" points="607.69,-274.08 598.06,-278.48 608.34,-281.05 607.69,-274.08"/>
</g>
<!-- Node7&#45;&gt;Node6 -->
<g id="edge8" class="edge">
<title>Node7&#45;&gt;Node6</title>
<path fill="none" stroke="#9a32cd" stroke-dasharray="5,2" d="M396.98,-284C431.47,-284 479.14,-284 512.98,-284"/>
<polygon fill="#9a32cd" stroke="#9a32cd" points="396.73,-280.5 386.73,-284 396.73,-287.5 396.73,-280.5"/>
<text text-anchor="middle" x="456" y="-287" font-family="Helvetica,sans-Serif" font-size="10.00"> joyAxisXml</text>
</g>
<!-- Node8&#45;&gt;Node6 -->
<g id="edge11" class="edge">
<title>Node8&#45;&gt;Node6</title>
<path fill="none" stroke="#9a32cd" stroke-dasharray="5,2" d="M1396.64,-369.41C1362.29,-367.78 1315.08,-366 1273.5,-366 837,-366 837,-366 837,-366 734.77,-366 619.69,-315.2 575.33,-293.57"/>
<polygon fill="#9a32cd" stroke="#9a32cd" points="1396.71,-372.91 1406.87,-369.9 1397.05,-365.92 1396.71,-372.91"/>
<text text-anchor="middle" x="1013" y="-369" font-family="Helvetica,sans-Serif" font-size="10.00"> joyButtonXml</text>
</g>
<!-- Node9&#45;&gt;Node8 -->
<g id="edge13" class="edge">
<title>Node9&#45;&gt;Node8</title>
<path fill="none" stroke="#9a32cd" stroke-dasharray="5,2" d="M1286.29,-240.78C1306.83,-268.22 1349.72,-321.07 1397,-353 1402.5,-356.71 1408.83,-359.87 1415.05,-362.47"/>
<polygon fill="#9a32cd" stroke="#9a32cd" points="1288.95,-238.49 1280.2,-232.51 1283.31,-242.64 1288.95,-238.49"/>
<text text-anchor="middle" x="1350" y="-341" font-family="Helvetica,sans-Serif" font-size="10.00"> m_joyButton</text>
</g>
<!-- Node14 -->
<g id="node14" class="node">
<title>Node14</title>
<g id="a_node14"><a xlink:href="classJoyDPadButton.html" target="_top" xlink:title=" ">
<polygon fill="white" stroke="black" points="1403,-324.5 1403,-343.5 1489,-343.5 1489,-324.5 1403,-324.5"/>
<text text-anchor="middle" x="1446" y="-331.5" font-family="Helvetica,sans-Serif" font-size="10.00">JoyDPadButton</text>
</a>
</g>
</g>
<!-- Node9&#45;&gt;Node14 -->
<g id="edge25" class="edge">
<title>Node9&#45;&gt;Node14</title>
<path fill="none" stroke="midnightblue" d="M1308.07,-236.19C1336.76,-247.39 1373.69,-262.49 1379,-268 1394.52,-284.11 1381.27,-299.1 1397,-315 1400.78,-318.82 1405.43,-321.9 1410.32,-324.37"/>
<polygon fill="midnightblue" stroke="midnightblue" points="1309.3,-232.91 1298.72,-232.56 1306.77,-239.44 1309.3,-232.91"/>
</g>
<!-- Node19 -->
<g id="node19" class="node">
<title>Node19</title>
<g id="a_node19"><a xlink:href="classJoyGradientButton.html" target="_top" xlink:title=" ">
<polygon fill="white" stroke="black" points="1397,-286.5 1397,-305.5 1495,-305.5 1495,-286.5 1397,-286.5"/>
<text text-anchor="middle" x="1446" y="-293.5" font-family="Helvetica,sans-Serif" font-size="10.00">JoyGradientButton</text>
</a>
</g>
</g>
<!-- Node9&#45;&gt;Node19 -->
<g id="edge33" class="edge">
<title>Node9&#45;&gt;Node19</title>
<path fill="none" stroke="midnightblue" d="M1313.6,-224.36C1333.96,-226.3 1358.62,-230.61 1379,-240 1403.02,-251.07 1425.21,-273.38 1436.73,-286.25"/>
<polygon fill="midnightblue" stroke="midnightblue" points="1313.64,-220.86 1303.4,-223.55 1313.09,-227.83 1313.64,-220.86"/>
</g>
<!-- Node10&#45;&gt;Node9 -->
<g id="edge15" class="edge">
<title>Node10&#45;&gt;Node9</title>
<path fill="none" stroke="#9a32cd" stroke-dasharray="5,2" d="M297.37,-84C342.26,-84 402.1,-84 455,-84 455,-84 455,-84 1087,-84 1173.22,-84 1244.75,-182.04 1265.45,-213.45"/>
<polygon fill="#9a32cd" stroke="#9a32cd" points="297.16,-80.5 287.16,-84 297.16,-87.5 297.16,-80.5"/>
<text text-anchor="middle" x="735" y="-87" font-family="Helvetica,sans-Serif" font-size="10.00"> mouseHelper</text>
</g>
<!-- Node11&#45;&gt;Node9 -->
<g id="edge18" class="edge">
<title>Node11&#45;&gt;Node9</title>
<path fill="none" stroke="#9a32cd" stroke-dasharray="5,2" d="M505.35,-121.42C569.65,-120.69 686.87,-119.46 787,-119 832.33,-118.79 844.07,-113 889,-119 1026.45,-137.35 1184.5,-191.25 1245.56,-213.36"/>
<polygon fill="#9a32cd" stroke="#9a32cd" points="505.07,-117.93 495.11,-121.54 505.15,-124.93 505.07,-117.93"/>
<text text-anchor="middle" x="838" y="-243" font-family="Helvetica,sans-Serif" font-size="10.00"> currentDelay</text>
<text text-anchor="middle" x="838" y="-232" font-family="Helvetica,sans-Serif" font-size="10.00">lastActiveKey</text>
<text text-anchor="middle" x="838" y="-221" font-family="Helvetica,sans-Serif" font-size="10.00">currentSetChangeSlot</text>
<text text-anchor="middle" x="838" y="-210" font-family="Helvetica,sans-Serif" font-size="10.00">currentKeyPress</text>
<text text-anchor="middle" x="838" y="-199" font-family="Helvetica,sans-Serif" font-size="10.00">currentRelease</text>
<text text-anchor="middle" x="838" y="-188" font-family="Helvetica,sans-Serif" font-size="10.00">currentCycle</text>
<text text-anchor="middle" x="838" y="-177" font-family="Helvetica,sans-Serif" font-size="10.00">previousCycle</text>
<text text-anchor="middle" x="838" y="-166" font-family="Helvetica,sans-Serif" font-size="10.00">m_currentDistance</text>
<text text-anchor="middle" x="838" y="-155" font-family="Helvetica,sans-Serif" font-size="10.00">currentPause</text>
<text text-anchor="start" x="787" y="-144" font-family="Helvetica,sans-Serif" font-size="10.00">currentWheelHorizontal</text>
<text text-anchor="middle" x="838" y="-133" font-family="Helvetica,sans-Serif" font-size="10.00">Event</text>
<text text-anchor="middle" x="838" y="-122" font-family="Helvetica,sans-Serif" font-size="10.00">...</text>
</g>
<!-- Node12 -->
<g id="node12" class="node">
<title>Node12</title>
<g id="a_node12"><a xlink:href="classVDPad.html" target="_top" xlink:title=" ">
<polygon fill="white" stroke="black" points="1062,-242.5 1062,-261.5 1110,-261.5 1110,-242.5 1062,-242.5"/>
<text text-anchor="middle" x="1086" y="-249.5" font-family="Helvetica,sans-Serif" font-size="10.00">VDPad</text>
</a>
</g>
</g>
<!-- Node12&#45;&gt;Node9 -->
<g id="edge20" class="edge">
<title>Node12&#45;&gt;Node9</title>
<path fill="none" stroke="#9a32cd" stroke-dasharray="5,2" d="M1120.47,-246.74C1155.14,-241.29 1208.78,-232.86 1241.93,-227.65"/>
<polygon fill="#9a32cd" stroke="#9a32cd" points="1119.7,-243.32 1110.37,-248.33 1120.79,-250.23 1119.7,-243.32"/>
<text text-anchor="middle" x="1176" y="-247" font-family="Helvetica,sans-Serif" font-size="10.00"> m_vdpad</text>
</g>
<!-- Node13&#45;&gt;Node12 -->
<g id="edge21" class="edge">
<title>Node13&#45;&gt;Node12</title>
<path fill="none" stroke="midnightblue" d="M959.62,-287.07C966.6,-283.04 974.43,-278.97 982,-276 1008.49,-265.6 1040.66,-259 1061.92,-255.4"/>
<polygon fill="midnightblue" stroke="midnightblue" points="957.47,-284.28 950.72,-292.45 961.08,-290.27 957.47,-284.28"/>
</g>
<!-- Node13&#45;&gt;Node14 -->
<g id="edge26" class="edge">
<title>Node13&#45;&gt;Node14</title>
<path fill="none" stroke="#9a32cd" stroke-dasharray="5,2" d="M974.35,-306.31C976.94,-306.56 979.51,-306.79 982,-307 1136.85,-320.02 1321.38,-328.75 1402.82,-332.26"/>
<polygon fill="#9a32cd" stroke="#9a32cd" points="974.69,-302.83 964.39,-305.29 973.98,-309.79 974.69,-302.83"/>
<text text-anchor="middle" x="1176" y="-326" font-family="Helvetica,sans-Serif" font-size="10.00"> m_dpad</text>
</g>
<!-- Node14&#45;&gt;Node13 -->
<g id="edge24" class="edge">
<title>Node14&#45;&gt;Node13</title>
<path fill="none" stroke="#9a32cd" stroke-dasharray="5,2" d="M1405.57,-320.17C1402.58,-318.59 1399.69,-316.87 1397,-315 1387.18,-308.17 1389.92,-299.87 1379,-295 1304.43,-261.79 1048.76,-288.54 964.03,-298.59"/>
<polygon fill="#9a32cd" stroke="#9a32cd" points="1404.18,-323.38 1414.72,-324.48 1407.17,-317.05 1404.18,-323.38"/>
<text text-anchor="middle" x="1176" y="-286" font-family="Helvetica,sans-Serif" font-size="10.00"> activeDiagonalButton</text>
</g>
<!-- Node15&#45;&gt;Node5 -->
<g id="edge27" class="edge">
<title>Node15&#45;&gt;Node5</title>
<path fill="none" stroke="#9a32cd" stroke-dasharray="5,2" d="M586.73,-211.97C622.83,-228.64 682.24,-256.09 713.42,-270.49"/>
<polygon fill="#9a32cd" stroke="#9a32cd" points="587.75,-208.58 577.21,-207.57 584.82,-214.94 587.75,-208.58"/>
<text text-anchor="middle" x="649.5" y="-258" font-family="Helvetica,sans-Serif" font-size="10.00"> m_device</text>
</g>
<!-- Node16 -->
<g id="node16" class="node">
<title>Node16</title>
<g id="a_node16"><a xlink:href="classAntiMicroSettings.html" target="_top" xlink:title=" ">
<polygon fill="white" stroke="black" points="305,-188.5 305,-207.5 399,-207.5 399,-188.5 305,-188.5"/>
<text text-anchor="middle" x="352" y="-195.5" font-family="Helvetica,sans-Serif" font-size="10.00">AntiMicroSettings</text>
</a>
</g>
</g>
<!-- Node16&#45;&gt;Node15 -->
<g id="edge29" class="edge">
<title>Node16&#45;&gt;Node15</title>
<path fill="none" stroke="#9a32cd" stroke-dasharray="5,2" d="M409.54,-198C445.34,-198 490.44,-198 520.74,-198"/>
<polygon fill="#9a32cd" stroke="#9a32cd" points="409.23,-194.5 399.23,-198 409.23,-201.5 409.23,-194.5"/>
<text text-anchor="middle" x="456" y="-201" font-family="Helvetica,sans-Serif" font-size="10.00"> m_settings</text>
</g>
<!-- Node17 -->
<g id="node17" class="node">
<title>Node17</title>
<g id="a_node17"><a xlink:title=" ">
<polygon fill="white" stroke="#bfbfbf" points="90,-188.5 90,-207.5 150,-207.5 150,-188.5 90,-188.5"/>
<text text-anchor="middle" x="120" y="-195.5" font-family="Helvetica,sans-Serif" font-size="10.00">QSettings</text>
</a>
</g>
</g>
<!-- Node17&#45;&gt;Node16 -->
<g id="edge30" class="edge">
<title>Node17&#45;&gt;Node16</title>
<path fill="none" stroke="midnightblue" d="M160.29,-198C200.28,-198 262.25,-198 304.62,-198"/>
<polygon fill="midnightblue" stroke="midnightblue" points="160.13,-194.5 150.13,-198 160.13,-201.5 160.13,-194.5"/>
</g>
<!-- Node18&#45;&gt;Node3 -->
<g id="edge31" class="edge">
<title>Node18&#45;&gt;Node3</title>
<path fill="none" stroke="#9a32cd" stroke-dasharray="5,2" d="M1556.22,-488C1524.93,-488 1483.59,-488 1447,-488 351,-488 351,-488 351,-488 276.28,-488 188.36,-477.92 146.13,-472.44"/>
<polygon fill="#9a32cd" stroke="#9a32cd" points="1556.42,-491.5 1566.42,-488 1556.42,-484.5 1556.42,-491.5"/>
<text text-anchor="middle" x="935.5" y="-513" font-family="Helvetica,sans-Serif" font-size="10.00"> paxisbutton</text>
<text text-anchor="middle" x="935.5" y="-502" font-family="Helvetica,sans-Serif" font-size="10.00">activeButton</text>
<text text-anchor="middle" x="935.5" y="-491" font-family="Helvetica,sans-Serif" font-size="10.00">naxisbutton</text>
</g>
<!-- Node19&#45;&gt;Node18 -->
<g id="edge32" class="edge">
<title>Node19&#45;&gt;Node18</title>
<path fill="none" stroke="midnightblue" d="M1489.39,-310.71C1491.37,-312.03 1493.26,-313.46 1495,-315 1520.76,-337.81 1513.88,-353.75 1532,-383 1554.5,-419.32 1584.59,-460.22 1598.23,-478.4"/>
<polygon fill="midnightblue" stroke="midnightblue" points="1490.69,-307.43 1480.25,-305.61 1487.28,-313.54 1490.69,-307.43"/>
</g>
<!-- Node22 -->
<g id="node22" class="node">
<title>Node22</title>
<g id="a_node22"><a xlink:href="classJoyControlStickModifierButton.html" target="_top" xlink:title=" ">
<polygon fill="white" stroke="black" points="1532,-354.5 1532,-373.5 1681,-373.5 1681,-354.5 1532,-354.5"/>
<text text-anchor="middle" x="1606.5" y="-361.5" font-family="Helvetica,sans-Serif" font-size="10.00">JoyControlStickModifierButton</text>
</a>
</g>
</g>
<!-- Node19&#45;&gt;Node22 -->
<g id="edge39" class="edge">
<title>Node19&#45;&gt;Node22</title>
<path fill="none" stroke="midnightblue" d="M1481.3,-309.38C1485.92,-311.24 1490.58,-313.15 1495,-315 1526.35,-328.15 1562.27,-344.28 1584.43,-354.35"/>
<polygon fill="midnightblue" stroke="midnightblue" points="1482.58,-306.12 1471.99,-305.67 1479.98,-312.62 1482.58,-306.12"/>
</g>
<!-- Node23 -->
<g id="node23" class="node">
<title>Node23</title>
<g id="a_node23"><a xlink:href="classJoyControlStickButton.html" target="_top" xlink:title=" ">
<polygon fill="white" stroke="black" points="1969,-354.5 1969,-373.5 2084,-373.5 2084,-354.5 1969,-354.5"/>
<text text-anchor="middle" x="2026.5" y="-361.5" font-family="Helvetica,sans-Serif" font-size="10.00">JoyControlStickButton</text>
</a>
</g>
</g>
<!-- Node19&#45;&gt;Node23 -->
<g id="edge42" class="edge">
<title>Node19&#45;&gt;Node23</title>
<path fill="none" stroke="midnightblue" d="M1505.2,-301.53C1599.14,-310.67 1789.98,-330.1 1951,-352 1956.71,-352.78 1962.66,-353.64 1968.6,-354.54"/>
<polygon fill="midnightblue" stroke="midnightblue" points="1505.34,-298.03 1495.05,-300.55 1504.66,-304.99 1505.34,-298.03"/>
</g>
<!-- Node20&#45;&gt;Node3 -->
<g id="edge35" class="edge">
<title>Node20&#45;&gt;Node3</title>
<path fill="none" stroke="#9a32cd" stroke-dasharray="5,2" d="M1787.57,-410.56C1744.29,-423.56 1671.62,-442 1607.5,-442 1012,-442 1012,-442 1012,-442 668.82,-442 251.64,-462.26 146.15,-467.68"/>
<polygon fill="#9a32cd" stroke="#9a32cd" points="1788.85,-413.82 1797.39,-407.55 1786.8,-407.13 1788.85,-413.82"/>
<text text-anchor="middle" x="1013" y="-445" font-family="Helvetica,sans-Serif" font-size="10.00"> m_stick</text>
</g>
<!-- Node20&#45;&gt;Node22 -->
<g id="edge40" class="edge">
<title>Node20&#45;&gt;Node22</title>
<path fill="none" stroke="#9a32cd" stroke-dasharray="5,2" d="M1773.96,-389.9C1742.34,-384.98 1701.81,-378.67 1668.65,-373.52"/>
<polygon fill="#9a32cd" stroke="#9a32cd" points="1773.48,-393.37 1783.9,-391.45 1774.55,-386.45 1773.48,-393.37"/>
<text text-anchor="middle" x="1732.5" y="-390" font-family="Helvetica,sans-Serif" font-size="10.00"> stick</text>
</g>
<!-- Node20&#45;&gt;Node23 -->
<g id="edge43" class="edge">
<title>Node20&#45;&gt;Node23</title>
<path fill="none" stroke="#9a32cd" stroke-dasharray="5,2" d="M1848.47,-382.4C1859.53,-374.95 1873.81,-366.84 1888,-363 1913.93,-355.99 1943.62,-355.34 1968.76,-356.8"/>
<polygon fill="#9a32cd" stroke="#9a32cd" points="1846.14,-379.76 1840,-388.4 1850.18,-385.48 1846.14,-379.76"/>
<text text-anchor="middle" x="1919.5" y="-366" font-family="Helvetica,sans-Serif" font-size="10.00"> stick</text>
</g>
<!-- Node21 -->
<g id="node21" class="node">
<title>Node21</title>
<g id="a_node21"><a xlink:href="classJoyStickDirectionsType.html" target="_top" xlink:title=" ">
<polygon fill="white" stroke="black" points="1546.5,-624.5 1546.5,-643.5 1666.5,-643.5 1666.5,-624.5 1546.5,-624.5"/>
<text text-anchor="middle" x="1606.5" y="-631.5" font-family="Helvetica,sans-Serif" font-size="10.00">JoyStickDirectionsType</text>
</a>
</g>
</g>
<!-- Node21&#45;&gt;Node20 -->
<g id="edge37" class="edge">
<title>Node21&#45;&gt;Node20</title>
<path fill="none" stroke="midnightblue" d="M1676.93,-639.44C1707.57,-638.16 1741.99,-631.17 1766,-610 1827.97,-555.36 1828.08,-442 1826.6,-407.91"/>
<polygon fill="midnightblue" stroke="midnightblue" points="1676.63,-635.95 1666.71,-639.67 1676.79,-642.95 1676.63,-635.95"/>
</g>
<!-- Node22&#45;&gt;Node20 -->
<g id="edge38" class="edge">
<title>Node22&#45;&gt;Node20</title>
<path fill="none" stroke="#9a32cd" stroke-dasharray="5,2" d="M1691.39,-356.85C1715.77,-356.82 1742.23,-358.81 1766,-365 1783.49,-369.55 1801.36,-380.33 1813,-388.34"/>
<polygon fill="#9a32cd" stroke="#9a32cd" points="1691.03,-353.35 1681.07,-356.98 1691.12,-360.35 1691.03,-353.35"/>
<text text-anchor="middle" x="1732.5" y="-368" font-family="Helvetica,sans-Serif" font-size="10.00"> modifierButton</text>
</g>
<!-- Node23&#45;&gt;Node20 -->
<g id="edge41" class="edge">
<title>Node23&#45;&gt;Node20</title>
<path fill="none" stroke="#9a32cd" stroke-dasharray="5,2" d="M1959.84,-375.3C1930.36,-380.38 1896.43,-386.22 1870.37,-390.71"/>
<polygon fill="#9a32cd" stroke="#9a32cd" points="1960.8,-378.69 1970.07,-373.54 1959.62,-371.79 1960.8,-378.69"/>
<text text-anchor="middle" x="1919.5" y="-412" font-family="Helvetica,sans-Serif" font-size="10.00"> activeButton1</text>
<text text-anchor="middle" x="1919.5" y="-401" font-family="Helvetica,sans-Serif" font-size="10.00">activeButton2</text>
<text text-anchor="middle" x="1919.5" y="-390" font-family="Helvetica,sans-Serif" font-size="10.00">activeButton3</text>
</g>
</g>
</svg>
