<?xml version="1.0" encoding="UTF-8" standalone="no"?>
<!DOCTYPE svg PUBLIC "-//W3C//DTD SVG 1.1//EN"
 "http://www.w3.org/Graphics/SVG/1.1/DTD/svg11.dtd">
<!-- Generated by graphviz version 2.43.0 (0)
 -->
<!-- Title: InputDevice::setAxisButtonName Pages: 1 -->
<svg width="751pt" height="140pt"
 viewBox="0.00 0.00 751.00 140.00" xmlns="http://www.w3.org/2000/svg" xmlns:xlink="http://www.w3.org/1999/xlink">
<g id="graph0" class="graph" transform="scale(1 1) rotate(0) translate(4 136)">
<title>InputDevice::setAxisButtonName</title>
<polygon fill="white" stroke="transparent" points="-4,4 -4,-136 747,-136 747,4 -4,4"/>
<!-- Node1 -->
<g id="node1" class="node">
<title>Node1</title>
<g id="a_node1"><a xlink:title=" ">
<polygon fill="#bfbfbf" stroke="black" points="580,-43.5 580,-62.5 743,-62.5 743,-43.5 580,-43.5"/>
<text text-anchor="middle" x="661.5" y="-50.5" font-family="Helvetica,sans-Serif" font-size="10.00">InputDevice::setAxisButtonName</text>
</a>
</g>
</g>
<!-- Node2 -->
<g id="node2" class="node">
<title>Node2</title>
<g id="a_node2"><a xlink:href="classInputDeviceXml.html#a847bf9ed17b554bf87d513a1aebdcb64" target="_top" xlink:title=" ">
<polygon fill="white" stroke="black" points="404,-112.5 404,-131.5 544,-131.5 544,-112.5 404,-112.5"/>
<text text-anchor="middle" x="474" y="-119.5" font-family="Helvetica,sans-Serif" font-size="10.00">InputDeviceXml::readConfig</text>
</a>
</g>
</g>
<!-- Node1&#45;&gt;Node2 -->
<g id="edge1" class="edge">
<title>Node1&#45;&gt;Node2</title>
<path fill="none" stroke="midnightblue" d="M631.31,-66.85C608.01,-77.58 574.35,-92.36 544,-103 534.15,-106.45 523.34,-109.68 513.25,-112.47"/>
<polygon fill="midnightblue" stroke="midnightblue" points="633.03,-69.91 640.63,-62.52 630.08,-63.56 633.03,-69.91"/>
</g>
<!-- Node3 -->
<g id="node3" class="node">
<title>Node3</title>
<g id="a_node3"><a xlink:href="classGameControllerXml.html#ae6ea19bdaf10425456faf9dd8495a7a3" target="_top" xlink:title=" ">
<polygon fill="white" stroke="black" points="420,-63 420,-93 528,-93 528,-63 420,-63"/>
<text text-anchor="start" x="428" y="-81" font-family="Helvetica,sans-Serif" font-size="10.00">GameControllerXml::</text>
<text text-anchor="middle" x="474" y="-70" font-family="Helvetica,sans-Serif" font-size="10.00">readXmlNamesLong</text>
</a>
</g>
</g>
<!-- Node1&#45;&gt;Node3 -->
<g id="edge2" class="edge">
<title>Node1&#45;&gt;Node3</title>
<path fill="none" stroke="midnightblue" d="M579.66,-63.9C562.22,-66.25 544.21,-68.67 528.15,-70.84"/>
<polygon fill="midnightblue" stroke="midnightblue" points="580.4,-67.33 589.84,-62.52 579.46,-60.39 580.4,-67.33"/>
</g>
<!-- Node5 -->
<g id="node5" class="node">
<title>Node5</title>
<g id="a_node5"><a xlink:href="classInputDevice.html#adaf073e157dca5d1e3325d916d6c4823" target="_top" xlink:title=" ">
<polygon fill="white" stroke="black" points="404.5,-14 404.5,-44 543.5,-44 543.5,-14 404.5,-14"/>
<text text-anchor="start" x="412.5" y="-32" font-family="Helvetica,sans-Serif" font-size="10.00">InputDevice::updateSetAxis</text>
<text text-anchor="middle" x="474" y="-21" font-family="Helvetica,sans-Serif" font-size="10.00">ButtonNames</text>
</a>
</g>
</g>
<!-- Node1&#45;&gt;Node5 -->
<g id="edge4" class="edge">
<title>Node1&#45;&gt;Node5</title>
<path fill="none" stroke="midnightblue" d="M617.74,-41.68C595.74,-37.89 568.38,-34.1 543.51,-31.32"/>
<polygon fill="midnightblue" stroke="midnightblue" points="617.3,-45.16 627.76,-43.47 618.54,-38.27 617.3,-45.16"/>
</g>
<!-- Node4 -->
<g id="node4" class="node">
<title>Node4</title>
<g id="a_node4"><a xlink:href="classGameControllerXml.html#a7e47256cae0d3815419bc254413777d1" target="_top" xlink:title=" ">
<polygon fill="white" stroke="black" points="227.5,-63 227.5,-93 335.5,-93 335.5,-63 227.5,-63"/>
<text text-anchor="start" x="235.5" y="-81" font-family="Helvetica,sans-Serif" font-size="10.00">GameControllerXml::</text>
<text text-anchor="middle" x="281.5" y="-70" font-family="Helvetica,sans-Serif" font-size="10.00">readConfig</text>
</a>
</g>
</g>
<!-- Node3&#45;&gt;Node4 -->
<g id="edge3" class="edge">
<title>Node3&#45;&gt;Node4</title>
<path fill="none" stroke="midnightblue" d="M409.84,-78C385.78,-78 358.64,-78 335.61,-78"/>
<polygon fill="midnightblue" stroke="midnightblue" points="409.94,-81.5 419.94,-78 409.94,-74.5 409.94,-81.5"/>
</g>
<!-- Node5&#45;&gt;Node1 -->
<g id="edge8" class="edge">
<title>Node5&#45;&gt;Node1</title>
<path fill="none" stroke="midnightblue" d="M551.18,-45.51C560.67,-46.85 570.4,-48.12 579.95,-49.28"/>
<polygon fill="midnightblue" stroke="midnightblue" points="551.4,-42.01 541,-44.03 550.4,-48.93 551.4,-42.01"/>
</g>
<!-- Node6 -->
<g id="node6" class="node">
<title>Node6</title>
<g id="a_node6"><a xlink:href="classInputDevice.html#a6ffcebba103a7db02e82c1c7f62387bf" target="_top" xlink:title=" ">
<polygon fill="white" stroke="black" points="195,-19.5 195,-38.5 368,-38.5 368,-19.5 195,-19.5"/>
<text text-anchor="middle" x="281.5" y="-26.5" font-family="Helvetica,sans-Serif" font-size="10.00">InputDevice::enableSetConnections</text>
</a>
</g>
</g>
<!-- Node5&#45;&gt;Node6 -->
<g id="edge5" class="edge">
<title>Node5&#45;&gt;Node6</title>
<path fill="none" stroke="midnightblue" d="M394.47,-29C385.85,-29 377.03,-29 368.32,-29"/>
<polygon fill="midnightblue" stroke="midnightblue" points="394.49,-32.5 404.49,-29 394.49,-25.5 394.49,-32.5"/>
</g>
<!-- Node7 -->
<g id="node7" class="node">
<title>Node7</title>
<g id="a_node7"><a xlink:href="classGameController.html#afcddb9dcc5442a9746c3ff8760ea1791" target="_top" xlink:title=" ">
<polygon fill="white" stroke="black" points="0,-38.5 0,-57.5 159,-57.5 159,-38.5 0,-38.5"/>
<text text-anchor="middle" x="79.5" y="-45.5" font-family="Helvetica,sans-Serif" font-size="10.00">GameController::GameController</text>
</a>
</g>
</g>
<!-- Node6&#45;&gt;Node7 -->
<g id="edge6" class="edge">
<title>Node6&#45;&gt;Node7</title>
<path fill="none" stroke="midnightblue" d="M184.74,-38.1C176.14,-38.91 167.49,-39.74 159.05,-40.54"/>
<polygon fill="midnightblue" stroke="midnightblue" points="185.19,-41.57 194.81,-37.14 184.53,-34.6 185.19,-41.57"/>
</g>
<!-- Node8 -->
<g id="node8" class="node">
<title>Node8</title>
<g id="a_node8"><a xlink:href="classJoystick.html#a9df5e53506876f3c95e84bdf6c9cbaf1" target="_top" xlink:title=" ">
<polygon fill="white" stroke="black" points="32.5,-0.5 32.5,-19.5 126.5,-19.5 126.5,-0.5 32.5,-0.5"/>
<text text-anchor="middle" x="79.5" y="-7.5" font-family="Helvetica,sans-Serif" font-size="10.00">Joystick::Joystick</text>
</a>
</g>
</g>
<!-- Node6&#45;&gt;Node8 -->
<g id="edge7" class="edge">
<title>Node6&#45;&gt;Node8</title>
<path fill="none" stroke="midnightblue" d="M184.6,-19.89C164.39,-17.97 143.95,-16.03 126.6,-14.38"/>
<polygon fill="midnightblue" stroke="midnightblue" points="184.53,-23.4 194.81,-20.86 185.19,-16.43 184.53,-23.4"/>
</g>
</g>
</svg>
