<?xml version="1.0" encoding="UTF-8" standalone="no"?>
<!DOCTYPE svg PUBLIC "-//W3C//DTD SVG 1.1//EN"
 "http://www.w3.org/Graphics/SVG/1.1/DTD/svg11.dtd">
<!-- Generated by graphviz version 2.43.0 (0)
 -->
<!-- Title: JoyControlStick::getButtonsMinAccelerationThreshold Pages: 1 -->
<svg width="347pt" height="78pt"
 viewBox="0.00 0.00 347.00 77.50" xmlns="http://www.w3.org/2000/svg" xmlns:xlink="http://www.w3.org/1999/xlink">
<g id="graph0" class="graph" transform="scale(1 1) rotate(0) translate(4 73.5)">
<title>JoyControlStick::getButtonsMinAccelerationThreshold</title>
<polygon fill="white" stroke="transparent" points="-4,4 -4,-73.5 343,-73.5 343,4 -4,4"/>
<!-- Node1 -->
<g id="node1" class="node">
<title>Node1</title>
<g id="a_node1"><a xlink:title=" ">
<polygon fill="#bfbfbf" stroke="black" points="0,-17 0,-47 139,-47 139,-17 0,-17"/>
<text text-anchor="start" x="8" y="-35" font-family="Helvetica,sans-Serif" font-size="10.00">JoyControlStick::getButtons</text>
<text text-anchor="middle" x="69.5" y="-24" font-family="Helvetica,sans-Serif" font-size="10.00">MinAccelerationThreshold</text>
</a>
</g>
</g>
<!-- Node2 -->
<g id="node2" class="node">
<title>Node2</title>
<g id="a_node2"><a xlink:href="$classJoyControlStick.html#a79d9ede9279281b0074eca6e2d99e8ec" xlink:title=" ">
<polygon fill="white" stroke="black" points="182,-39 182,-69 332,-69 332,-39 182,-39"/>
<text text-anchor="start" x="190" y="-57" font-family="Helvetica,sans-Serif" font-size="10.00">JoyControlStick::getApplicable</text>
<text text-anchor="middle" x="257" y="-46" font-family="Helvetica,sans-Serif" font-size="10.00">Buttons</text>
</a>
</g>
</g>
<!-- Node1&#45;&gt;Node2 -->
<g id="edge1" class="edge">
<title>Node1&#45;&gt;Node2</title>
<path fill="none" stroke="midnightblue" d="M139.05,-40.13C149.71,-41.39 160.84,-42.71 171.81,-44.01"/>
<polygon fill="midnightblue" stroke="midnightblue" points="171.47,-47.5 181.81,-45.2 172.3,-40.55 171.47,-47.5"/>
</g>
<!-- Node3 -->
<g id="node3" class="node">
<title>Node3</title>
<g id="a_node3"><a xlink:href="$classJoyButton.html#ab4b60928265f82108c16be1de7ef28b3" xlink:title=" ">
<polygon fill="white" stroke="black" points="175,-0.5 175,-19.5 339,-19.5 339,-0.5 175,-0.5"/>
<text text-anchor="middle" x="257" y="-7.5" font-family="Helvetica,sans-Serif" font-size="10.00">JoyButton::getMinAccelThreshold</text>
</a>
</g>
</g>
<!-- Node1&#45;&gt;Node3 -->
<g id="edge2" class="edge">
<title>Node1&#45;&gt;Node3</title>
<path fill="none" stroke="midnightblue" d="M139.05,-23.87C147.74,-22.84 156.75,-21.77 165.72,-20.71"/>
<polygon fill="midnightblue" stroke="midnightblue" points="166.3,-24.16 175.82,-19.51 165.48,-17.21 166.3,-24.16"/>
</g>
</g>
</svg>
