<?xml version="1.0" encoding="UTF-8" standalone="no"?>
<!DOCTYPE svg PUBLIC "-//W3C//DTD SVG 1.1//EN"
 "http://www.w3.org/Graphics/SVG/1.1/DTD/svg11.dtd">
<!-- Generated by graphviz version 2.43.0 (0)
 -->
<!-- Title: MouseAxisSettingsDialogHelper::updateMinAccelThreshold Pages: 1 -->
<svg width="366pt" height="104pt"
 viewBox="0.00 0.00 366.00 104.00" xmlns="http://www.w3.org/2000/svg" xmlns:xlink="http://www.w3.org/1999/xlink">
<g id="graph0" class="graph" transform="scale(1 1) rotate(0) translate(4 100)">
<title>MouseAxisSettingsDialogHelper::updateMinAccelThreshold</title>
<polygon fill="white" stroke="transparent" points="-4,4 -4,-100 362,-100 362,4 -4,4"/>
<!-- Node1 -->
<g id="node1" class="node">
<title>Node1</title>
<g id="a_node1"><a xlink:title=" ">
<polygon fill="#bfbfbf" stroke="black" points="0,-33 0,-63 158,-63 158,-33 0,-33"/>
<text text-anchor="start" x="8" y="-51" font-family="Helvetica,sans-Serif" font-size="10.00">MouseAxisSettingsDialogHelper</text>
<text text-anchor="middle" x="79" y="-40" font-family="Helvetica,sans-Serif" font-size="10.00">::updateMinAccelThreshold</text>
</a>
</g>
</g>
<!-- Node2 -->
<g id="node2" class="node">
<title>Node2</title>
<g id="a_node2"><a xlink:href="$classJoyAxis.html#aae658e2a7b83ce73ce3d7d1ed13eabc6" xlink:title=" ">
<polygon fill="white" stroke="black" points="213,-76.5 213,-95.5 339,-95.5 339,-76.5 213,-76.5"/>
<text text-anchor="middle" x="276" y="-83.5" font-family="Helvetica,sans-Serif" font-size="10.00">JoyAxis::getNAxisButton</text>
</a>
</g>
</g>
<!-- Node1&#45;&gt;Node2 -->
<g id="edge1" class="edge">
<title>Node1&#45;&gt;Node2</title>
<path fill="none" stroke="midnightblue" d="M157.07,-63.02C176.83,-66.87 197.77,-70.95 216.43,-74.59"/>
<polygon fill="midnightblue" stroke="midnightblue" points="215.76,-78.02 226.25,-76.5 217.1,-71.15 215.76,-78.02"/>
</g>
<!-- Node3 -->
<g id="node3" class="node">
<title>Node3</title>
<g id="a_node3"><a xlink:href="$classJoyAxis.html#ad51d55d2a95190468209f7481eae8639" xlink:title=" ">
<polygon fill="white" stroke="black" points="213.5,-38.5 213.5,-57.5 338.5,-57.5 338.5,-38.5 213.5,-38.5"/>
<text text-anchor="middle" x="276" y="-45.5" font-family="Helvetica,sans-Serif" font-size="10.00">JoyAxis::getPAxisButton</text>
</a>
</g>
</g>
<!-- Node1&#45;&gt;Node3 -->
<g id="edge2" class="edge">
<title>Node1&#45;&gt;Node3</title>
<path fill="none" stroke="midnightblue" d="M158.19,-48C173.08,-48 188.6,-48 203.28,-48"/>
<polygon fill="midnightblue" stroke="midnightblue" points="203.29,-51.5 213.29,-48 203.29,-44.5 203.29,-51.5"/>
</g>
<!-- Node4 -->
<g id="node4" class="node">
<title>Node4</title>
<g id="a_node4"><a xlink:href="$classJoyButton.html#abf976dbf566397b7a361660d137b0118" xlink:title=" ">
<polygon fill="white" stroke="black" points="194,-0.5 194,-19.5 358,-19.5 358,-0.5 194,-0.5"/>
<text text-anchor="middle" x="276" y="-7.5" font-family="Helvetica,sans-Serif" font-size="10.00">JoyButton::setMinAccelThreshold</text>
</a>
</g>
</g>
<!-- Node1&#45;&gt;Node4 -->
<g id="edge3" class="edge">
<title>Node1&#45;&gt;Node4</title>
<path fill="none" stroke="midnightblue" d="M157.07,-32.98C176.83,-29.13 197.77,-25.05 216.43,-21.41"/>
<polygon fill="midnightblue" stroke="midnightblue" points="217.1,-24.85 226.25,-19.5 215.76,-17.98 217.1,-24.85"/>
</g>
</g>
</svg>
