<?xml version="1.0" encoding="UTF-8" standalone="no"?>
<!DOCTYPE svg PUBLIC "-//W3C//DTD SVG 1.1//EN"
 "http://www.w3.org/Graphics/SVG/1.1/DTD/svg11.dtd">
<!-- Generated by graphviz version 2.43.0 (0)
 -->
<!-- Title: ButtonEditDialog::refreshForLastBtn Pages: 1 -->
<svg width="1811pt" height="712pt"
 viewBox="0.00 0.00 1811.00 712.00" xmlns="http://www.w3.org/2000/svg" xmlns:xlink="http://www.w3.org/1999/xlink">
<g id="graph0" class="graph" transform="scale(1 1) rotate(0) translate(4 708)">
<title>ButtonEditDialog::refreshForLastBtn</title>
<polygon fill="white" stroke="transparent" points="-4,4 -4,-708 1807,-708 1807,4 -4,4"/>
<!-- Node1 -->
<g id="node1" class="node">
<title>Node1</title>
<g id="a_node1"><a xlink:title=" ">
<polygon fill="#bfbfbf" stroke="black" points="0,-286 0,-316 126,-316 126,-286 0,-286"/>
<text text-anchor="start" x="8" y="-304" font-family="Helvetica,sans-Serif" font-size="10.00">ButtonEditDialog::refresh</text>
<text text-anchor="middle" x="63" y="-293" font-family="Helvetica,sans-Serif" font-size="10.00">ForLastBtn</text>
</a>
</g>
</g>
<!-- Node2 -->
<g id="node2" class="node">
<title>Node2</title>
<g id="a_node2"><a xlink:href="classButtonEditDialog.html#ac8bbe0345e4355b87c0bf80802c0235d" target="_top" xlink:title=" ">
<polygon fill="white" stroke="black" points="162,-387 162,-417 309,-417 309,-387 162,-387"/>
<text text-anchor="start" x="170" y="-405" font-family="Helvetica,sans-Serif" font-size="10.00">ButtonEditDialog::checkTurbo</text>
<text text-anchor="middle" x="235.5" y="-394" font-family="Helvetica,sans-Serif" font-size="10.00">Setting</text>
</a>
</g>
</g>
<!-- Node1&#45;&gt;Node2 -->
<g id="edge1" class="edge">
<title>Node1&#45;&gt;Node2</title>
<path fill="none" stroke="midnightblue" d="M82.27,-316.26C101.32,-331.67 132.47,-355.5 162,-372 169.02,-375.92 176.65,-379.63 184.24,-383.01"/>
<polygon fill="midnightblue" stroke="midnightblue" points="182.87,-386.23 193.44,-386.97 185.64,-379.8 182.87,-386.23"/>
</g>
<!-- Node4 -->
<g id="node4" class="node">
<title>Node4</title>
<g id="a_node4"><a xlink:href="classJoyButton.html#ae1d364dfa70f47fae3db99ffbcdea44b" target="_top" xlink:title=" ">
<polygon fill="white" stroke="black" points="531.5,-436.5 531.5,-455.5 674.5,-455.5 674.5,-436.5 531.5,-436.5"/>
<text text-anchor="middle" x="603" y="-443.5" font-family="Helvetica,sans-Serif" font-size="10.00">JoyButton::getAssignedSlots</text>
</a>
</g>
</g>
<!-- Node1&#45;&gt;Node4 -->
<g id="edge6" class="edge">
<title>Node1&#45;&gt;Node4</title>
<path fill="none" stroke="midnightblue" d="M70.45,-316.11C83.23,-343.92 114.72,-402.6 162,-427 222.45,-458.2 411.45,-455.21 521.09,-450.48"/>
<polygon fill="midnightblue" stroke="midnightblue" points="521.28,-453.97 531.12,-450.03 520.97,-446.98 521.28,-453.97"/>
</g>
<!-- Node5 -->
<g id="node5" class="node">
<title>Node5</title>
<g id="a_node5"><a xlink:href="classJoyButtonSlot.html#abed7fe134c404b403ea79c0753f6eaaf" target="_top" xlink:title=" ">
<polygon fill="white" stroke="black" points="533.5,-395.5 533.5,-414.5 672.5,-414.5 672.5,-395.5 533.5,-395.5"/>
<text text-anchor="middle" x="603" y="-402.5" font-family="Helvetica,sans-Serif" font-size="10.00">JoyButtonSlot::getSlotMode</text>
</a>
</g>
</g>
<!-- Node1&#45;&gt;Node5 -->
<g id="edge8" class="edge">
<title>Node1&#45;&gt;Node5</title>
<path fill="none" stroke="midnightblue" d="M97.39,-316.14C116.05,-324.04 139.93,-333.23 162,-339 305.33,-376.47 345.66,-362.95 492,-386 507.15,-388.39 523.45,-391.12 538.74,-393.74"/>
<polygon fill="midnightblue" stroke="midnightblue" points="538.17,-397.2 548.62,-395.45 539.36,-390.3 538.17,-397.2"/>
</g>
<!-- Node6 -->
<g id="node6" class="node">
<title>Node6</title>
<g id="a_node6"><a xlink:href="classJoyButton.html#a2dc48e4d0de59b87938f5c0489d6e198" target="_top" xlink:title=" ">
<polygon fill="white" stroke="black" points="168.5,-310.5 168.5,-329.5 302.5,-329.5 302.5,-310.5 168.5,-310.5"/>
<text text-anchor="middle" x="235.5" y="-317.5" font-family="Helvetica,sans-Serif" font-size="10.00">JoyButton::getActionName</text>
</a>
</g>
</g>
<!-- Node1&#45;&gt;Node6 -->
<g id="edge5" class="edge">
<title>Node1&#45;&gt;Node6</title>
<path fill="none" stroke="midnightblue" d="M126.04,-307.91C136.5,-309.08 147.47,-310.3 158.24,-311.5"/>
<polygon fill="midnightblue" stroke="midnightblue" points="158.16,-315.01 168.49,-312.64 158.94,-308.06 158.16,-315.01"/>
</g>
<!-- Node7 -->
<g id="node7" class="node">
<title>Node7</title>
<g id="a_node7"><a xlink:href="classJoyButton.html#a7123f5432bda7b5b9d4b2b95bdabf4db" target="_top" xlink:title=" ">
<polygon fill="white" stroke="black" points="168,-272.5 168,-291.5 303,-291.5 303,-272.5 168,-272.5"/>
<text text-anchor="middle" x="235.5" y="-279.5" font-family="Helvetica,sans-Serif" font-size="10.00">JoyButton::getButtonName</text>
</a>
</g>
</g>
<!-- Node1&#45;&gt;Node7 -->
<g id="edge7" class="edge">
<title>Node1&#45;&gt;Node7</title>
<path fill="none" stroke="midnightblue" d="M126.04,-294.09C136.35,-292.94 147.16,-291.73 157.79,-290.55"/>
<polygon fill="midnightblue" stroke="midnightblue" points="158.36,-294.01 167.91,-289.42 157.58,-287.05 158.36,-294.01"/>
</g>
<!-- Node8 -->
<g id="node8" class="node">
<title>Node8</title>
<g id="a_node8"><a xlink:href="classJoyButton.html#a9a21207e522749f3d22092f1c0a7c886" target="_top" xlink:title="Generate a string representing all the currently assigned slots for a button.">
<polygon fill="white" stroke="black" points="354.5,-477.5 354.5,-496.5 482.5,-496.5 482.5,-477.5 354.5,-477.5"/>
<text text-anchor="middle" x="418.5" y="-484.5" font-family="Helvetica,sans-Serif" font-size="10.00">JoyButton::getSlotsString</text>
</a>
</g>
</g>
<!-- Node1&#45;&gt;Node8 -->
<g id="edge9" class="edge">
<title>Node1&#45;&gt;Node8</title>
<path fill="none" stroke="midnightblue" d="M65.54,-316.2C70.58,-357.05 90.65,-469.2 162,-515 233.29,-560.76 339.35,-523.25 389.41,-500.81"/>
<polygon fill="midnightblue" stroke="midnightblue" points="391.03,-503.92 398.65,-496.55 388.1,-497.56 391.03,-503.92"/>
</g>
<!-- Node38 -->
<g id="node38" class="node">
<title>Node38</title>
<g id="a_node38"><a xlink:href="classJoyButton.html#a4305272f6fe2c5708f2ad7f1ce911514" target="_top" xlink:title=" ">
<polygon fill="white" stroke="black" points="169.5,-234.5 169.5,-253.5 301.5,-253.5 301.5,-234.5 169.5,-234.5"/>
<text text-anchor="middle" x="235.5" y="-241.5" font-family="Helvetica,sans-Serif" font-size="10.00">JoyButton::getToggleState</text>
</a>
</g>
</g>
<!-- Node1&#45;&gt;Node38 -->
<g id="edge49" class="edge">
<title>Node1&#45;&gt;Node38</title>
<path fill="none" stroke="midnightblue" d="M99.95,-285.93C118.33,-278.52 141.17,-269.74 162,-263 169.4,-260.6 177.29,-258.29 185.05,-256.15"/>
<polygon fill="midnightblue" stroke="midnightblue" points="186.01,-259.52 194.76,-253.55 184.19,-252.76 186.01,-259.52"/>
</g>
<!-- Node39 -->
<g id="node39" class="node">
<title>Node39</title>
<g id="a_node39"><a xlink:href="classJoyButton.html#ad2123134411e4ab2c8f15b65f3c4ae79" target="_top" xlink:title=" ">
<polygon fill="white" stroke="black" points="173,-196.5 173,-215.5 298,-215.5 298,-196.5 173,-196.5"/>
<text text-anchor="middle" x="235.5" y="-203.5" font-family="Helvetica,sans-Serif" font-size="10.00">JoyButton::isUsingTurbo</text>
</a>
</g>
</g>
<!-- Node1&#45;&gt;Node39 -->
<g id="edge50" class="edge">
<title>Node1&#45;&gt;Node39</title>
<path fill="none" stroke="midnightblue" d="M79.28,-285.9C97.49,-268.73 129.56,-240.99 162,-225 166.69,-222.69 171.7,-220.63 176.81,-218.81"/>
<polygon fill="midnightblue" stroke="midnightblue" points="178.28,-222.01 186.7,-215.59 176.11,-215.36 178.28,-222.01"/>
</g>
<!-- Node40 -->
<g id="node40" class="node">
<title>Node40</title>
<g id="a_node40"><a xlink:href="classButtonEditDialog.html#a88d97effdbddb77cc830fe0376e425ff" target="_top" xlink:title=" ">
<polygon fill="white" stroke="black" points="172.5,-475 172.5,-505 298.5,-505 298.5,-475 172.5,-475"/>
<text text-anchor="start" x="180.5" y="-493" font-family="Helvetica,sans-Serif" font-size="10.00">ButtonEditDialog::refresh</text>
<text text-anchor="middle" x="235.5" y="-482" font-family="Helvetica,sans-Serif" font-size="10.00">SlotSummaryLabel</text>
</a>
</g>
</g>
<!-- Node1&#45;&gt;Node40 -->
<g id="edge51" class="edge">
<title>Node1&#45;&gt;Node40</title>
<path fill="none" stroke="midnightblue" d="M69.65,-316.32C81.87,-347.48 113.61,-418.8 162,-460 166.52,-463.85 171.6,-467.25 176.92,-470.26"/>
<polygon fill="midnightblue" stroke="midnightblue" points="175.54,-473.49 186.04,-474.94 178.74,-467.26 175.54,-473.49"/>
</g>
<!-- Node41 -->
<g id="node41" class="node">
<title>Node41</title>
<g id="a_node41"><a xlink:href="classJoyButton.html#a969806c0f13266a805d639097078303e" target="_top" xlink:title=" ">
<polygon fill="white" stroke="black" points="168.5,-158.5 168.5,-177.5 302.5,-177.5 302.5,-158.5 168.5,-158.5"/>
<text text-anchor="middle" x="235.5" y="-165.5" font-family="Helvetica,sans-Serif" font-size="10.00">JoyButton::setActionName</text>
</a>
</g>
</g>
<!-- Node1&#45;&gt;Node41 -->
<g id="edge53" class="edge">
<title>Node1&#45;&gt;Node41</title>
<path fill="none" stroke="midnightblue" d="M72.74,-285.86C87.75,-261.25 120.83,-212.73 162,-187 165.38,-184.89 168.99,-183.01 172.72,-181.34"/>
<polygon fill="midnightblue" stroke="midnightblue" points="174.19,-184.52 182.2,-177.6 171.62,-178.01 174.19,-184.52"/>
</g>
<!-- Node42 -->
<g id="node42" class="node">
<title>Node42</title>
<g id="a_node42"><a xlink:href="classJoyButton.html#a5577eb227e3fd535fdcbbf395648e215" target="_top" xlink:title=" ">
<polygon fill="white" stroke="black" points="168,-120.5 168,-139.5 303,-139.5 303,-120.5 168,-120.5"/>
<text text-anchor="middle" x="235.5" y="-127.5" font-family="Helvetica,sans-Serif" font-size="10.00">JoyButton::setButtonName</text>
</a>
</g>
</g>
<!-- Node1&#45;&gt;Node42 -->
<g id="edge54" class="edge">
<title>Node1&#45;&gt;Node42</title>
<path fill="none" stroke="midnightblue" d="M69.42,-285.82C81.2,-255.03 112.17,-185.12 162,-149 164.69,-147.05 167.56,-145.3 170.55,-143.74"/>
<polygon fill="midnightblue" stroke="midnightblue" points="172.15,-146.85 179.82,-139.55 169.27,-140.47 172.15,-146.85"/>
</g>
<!-- Node43 -->
<g id="node43" class="node">
<title>Node43</title>
<g id="a_node43"><a xlink:href="classButtonEditDialog.html#a0057dab454e3f52eeab3e3ba1fd336e0" target="_top" xlink:title=" ">
<polygon fill="white" stroke="black" points="173,-71 173,-101 298,-101 298,-71 173,-71"/>
<text text-anchor="start" x="181" y="-89" font-family="Helvetica,sans-Serif" font-size="10.00">ButtonEditDialog::update</text>
<text text-anchor="middle" x="235.5" y="-78" font-family="Helvetica,sans-Serif" font-size="10.00">WindowTitleButtonName</text>
</a>
</g>
</g>
<!-- Node1&#45;&gt;Node43 -->
<g id="edge55" class="edge">
<title>Node1&#45;&gt;Node43</title>
<path fill="none" stroke="midnightblue" d="M67.67,-285.75C77.07,-249.99 105.31,-160.06 162,-111 163.94,-109.32 165.99,-107.76 168.14,-106.29"/>
<polygon fill="midnightblue" stroke="midnightblue" points="169.99,-109.27 176.8,-101.15 166.42,-103.25 169.99,-109.27"/>
</g>
<!-- Node3 -->
<g id="node3" class="node">
<title>Node3</title>
<g id="a_node3"><a xlink:href="classJoyButton.html#a6e3ee0e05fe5d243b142c5f22011c2e9" target="_top" xlink:title=" ">
<polygon fill="white" stroke="black" points="345,-395.5 345,-414.5 492,-414.5 492,-395.5 345,-395.5"/>
<text text-anchor="middle" x="418.5" y="-402.5" font-family="Helvetica,sans-Serif" font-size="10.00">JoyButton::containsSequence</text>
</a>
</g>
</g>
<!-- Node2&#45;&gt;Node3 -->
<g id="edge2" class="edge">
<title>Node2&#45;&gt;Node3</title>
<path fill="none" stroke="midnightblue" d="M309.08,-403.2C317.56,-403.34 326.26,-403.49 334.87,-403.63"/>
<polygon fill="midnightblue" stroke="midnightblue" points="334.85,-407.13 344.91,-403.8 334.97,-400.13 334.85,-407.13"/>
</g>
<!-- Node3&#45;&gt;Node4 -->
<g id="edge3" class="edge">
<title>Node3&#45;&gt;Node4</title>
<path fill="none" stroke="midnightblue" d="M461.83,-414.51C487.99,-420.39 521.78,-427.98 549.62,-434.23"/>
<polygon fill="midnightblue" stroke="midnightblue" points="549.06,-437.69 559.59,-436.47 550.6,-430.86 549.06,-437.69"/>
</g>
<!-- Node3&#45;&gt;Node5 -->
<g id="edge4" class="edge">
<title>Node3&#45;&gt;Node5</title>
<path fill="none" stroke="midnightblue" d="M492.15,-405C502.37,-405 512.9,-405 523.23,-405"/>
<polygon fill="midnightblue" stroke="midnightblue" points="523.45,-408.5 533.45,-405 523.45,-401.5 523.45,-408.5"/>
</g>
<!-- Node8&#45;&gt;Node4 -->
<g id="edge10" class="edge">
<title>Node8&#45;&gt;Node4</title>
<path fill="none" stroke="midnightblue" d="M461.83,-477.49C487.99,-471.61 521.78,-464.02 549.62,-457.77"/>
<polygon fill="midnightblue" stroke="midnightblue" points="550.6,-461.14 559.59,-455.53 549.06,-454.31 550.6,-461.14"/>
</g>
<!-- Node8&#45;&gt;Node5 -->
<g id="edge12" class="edge">
<title>Node8&#45;&gt;Node5</title>
<path fill="none" stroke="midnightblue" d="M434.43,-477.38C454.88,-464.52 493.06,-441.65 528,-427 536.44,-423.46 545.65,-420.24 554.61,-417.43"/>
<polygon fill="midnightblue" stroke="midnightblue" points="555.62,-420.78 564.18,-414.54 553.6,-414.08 555.62,-420.78"/>
</g>
<!-- Node9 -->
<g id="node9" class="node">
<title>Node9</title>
<g id="a_node9"><a xlink:href="classJoyButtonSlot.html#a7fa0bf6d891437a2392e47d32b746502" target="_top" xlink:title=" ">
<polygon fill="white" stroke="black" points="534,-475.5 534,-494.5 672,-494.5 672,-475.5 534,-475.5"/>
<text text-anchor="middle" x="603" y="-482.5" font-family="Helvetica,sans-Serif" font-size="10.00">JoyButtonSlot::getSlotCode</text>
</a>
</g>
</g>
<!-- Node8&#45;&gt;Node9 -->
<g id="edge11" class="edge">
<title>Node8&#45;&gt;Node9</title>
<path fill="none" stroke="midnightblue" d="M482.56,-486.31C495.78,-486.16 509.87,-486.01 523.57,-485.86"/>
<polygon fill="midnightblue" stroke="midnightblue" points="523.99,-489.36 533.95,-485.75 523.91,-482.36 523.99,-489.36"/>
</g>
<!-- Node10 -->
<g id="node10" class="node">
<title>Node10</title>
<g id="a_node10"><a xlink:href="classJoyButtonSlot.html#a6e10409ded595380cbdcfd5c827ab32a" target="_top" xlink:title=" ">
<polygon fill="white" stroke="black" points="533,-513.5 533,-532.5 673,-532.5 673,-513.5 533,-513.5"/>
<text text-anchor="middle" x="603" y="-520.5" font-family="Helvetica,sans-Serif" font-size="10.00">JoyButtonSlot::getSlotString</text>
</a>
</g>
</g>
<!-- Node8&#45;&gt;Node10 -->
<g id="edge13" class="edge">
<title>Node8&#45;&gt;Node10</title>
<path fill="none" stroke="midnightblue" d="M467.93,-496.55C491.22,-501.15 519.33,-506.69 543.79,-511.52"/>
<polygon fill="midnightblue" stroke="midnightblue" points="543.17,-514.96 553.66,-513.47 544.53,-508.1 543.17,-514.96"/>
</g>
<!-- Node11 -->
<g id="node11" class="node">
<title>Node11</title>
<g id="a_node11"><a xlink:href="classJoyButtonSlot.html#a4fb0606a34134786bc642627bc25aedd" target="_top" xlink:title=" ">
<polygon fill="white" stroke="black" points="726.5,-592.5 726.5,-611.5 862.5,-611.5 862.5,-592.5 726.5,-592.5"/>
<text text-anchor="middle" x="794.5" y="-599.5" font-family="Helvetica,sans-Serif" font-size="10.00">JoyButtonSlot::getMixSlots</text>
</a>
</g>
</g>
<!-- Node10&#45;&gt;Node11 -->
<g id="edge14" class="edge">
<title>Node10&#45;&gt;Node11</title>
<path fill="none" stroke="midnightblue" d="M626.86,-532.53C660.29,-546.47 722.7,-572.49 760.93,-588.42"/>
<polygon fill="midnightblue" stroke="midnightblue" points="759.98,-591.82 770.56,-592.44 762.68,-585.36 759.98,-591.82"/>
</g>
<!-- Node13 -->
<g id="node13" class="node">
<title>Node13</title>
<g id="a_node13"><a xlink:href="namespacePadderCommon.html#aaa09739d2df84421a5a3467a06ce941c" target="_top" xlink:title="Returns the &quot;human&#45;readable&quot; name of the given profile.">
<polygon fill="white" stroke="black" points="714,-532.5 714,-551.5 875,-551.5 875,-532.5 714,-532.5"/>
<text text-anchor="middle" x="794.5" y="-539.5" font-family="Helvetica,sans-Serif" font-size="10.00">PadderCommon::getProfileName</text>
</a>
</g>
</g>
<!-- Node10&#45;&gt;Node13 -->
<g id="edge16" class="edge">
<title>Node10&#45;&gt;Node13</title>
<path fill="none" stroke="midnightblue" d="M673.22,-529.94C683.13,-530.93 693.45,-531.97 703.68,-532.99"/>
<polygon fill="midnightblue" stroke="midnightblue" points="703.58,-536.5 713.88,-534.02 704.28,-529.54 703.58,-536.5"/>
</g>
<!-- Node14 -->
<g id="node14" class="node">
<title>Node14</title>
<g id="a_node14"><a xlink:href="event_8cpp.html#a76ce89b71143c1c09343f45f038b4a67" target="_top" xlink:title=" ">
<polygon fill="white" stroke="black" points="744,-494.5 744,-513.5 845,-513.5 845,-494.5 744,-494.5"/>
<text text-anchor="middle" x="794.5" y="-501.5" font-family="Helvetica,sans-Serif" font-size="10.00">keysymToKeyString</text>
</a>
</g>
</g>
<!-- Node10&#45;&gt;Node14 -->
<g id="edge17" class="edge">
<title>Node10&#45;&gt;Node14</title>
<path fill="none" stroke="midnightblue" d="M673.22,-516.06C693.02,-514.07 714.44,-511.93 733.63,-510"/>
<polygon fill="midnightblue" stroke="midnightblue" points="734.15,-513.47 743.75,-508.99 733.45,-506.5 734.15,-513.47"/>
</g>
<!-- Node37 -->
<g id="node37" class="node">
<title>Node37</title>
<g id="a_node37"><a xlink:href="classJoyButtonSlot.html#a37ff2b523177bae4ea6a44b82f2973eb" target="_top" xlink:title=" ">
<polygon fill="white" stroke="black" points="717,-456.5 717,-475.5 872,-475.5 872,-456.5 717,-456.5"/>
<text text-anchor="middle" x="794.5" y="-463.5" font-family="Helvetica,sans-Serif" font-size="10.00">JoyButtonSlot::movementString</text>
</a>
</g>
</g>
<!-- Node10&#45;&gt;Node37 -->
<g id="edge48" class="edge">
<title>Node10&#45;&gt;Node37</title>
<path fill="none" stroke="midnightblue" d="M648.36,-513.41C658.25,-510.78 668.6,-507.63 678,-504 694.88,-497.48 697.07,-491.38 714,-485 720.76,-482.46 727.97,-480.17 735.19,-478.15"/>
<polygon fill="midnightblue" stroke="midnightblue" points="736.22,-481.49 744.99,-475.54 734.43,-474.73 736.22,-481.49"/>
</g>
<!-- Node12 -->
<g id="node12" class="node">
<title>Node12</title>
<g id="a_node12"><a xlink:href="classJoyButtonSlot.html#a9ba9cb0dda063a7df5575072c0aabe01" target="_top" xlink:title=" ">
<polygon fill="white" stroke="black" points="911,-609 911,-639 1040,-639 1040,-609 911,-609"/>
<text text-anchor="start" x="919" y="-627" font-family="Helvetica,sans-Serif" font-size="10.00">JoyButtonSlot::secureMix</text>
<text text-anchor="middle" x="975.5" y="-616" font-family="Helvetica,sans-Serif" font-size="10.00">SlotsInit</text>
</a>
</g>
</g>
<!-- Node11&#45;&gt;Node12 -->
<g id="edge15" class="edge">
<title>Node11&#45;&gt;Node12</title>
<path fill="none" stroke="midnightblue" d="M862.66,-610.25C875.11,-611.78 888.17,-613.39 900.8,-614.94"/>
<polygon fill="midnightblue" stroke="midnightblue" points="900.46,-618.43 910.81,-616.17 901.32,-611.48 900.46,-618.43"/>
</g>
<!-- Node15 -->
<g id="node15" class="node">
<title>Node15</title>
<g id="a_node15"><a xlink:href="classX11Extras.html#a643c95dc1de8eb073a0accb41619fe83" target="_top" xlink:title="Get display instance.">
<polygon fill="white" stroke="black" points="1115.5,-330.5 1115.5,-349.5 1214.5,-349.5 1214.5,-330.5 1115.5,-330.5"/>
<text text-anchor="middle" x="1165" y="-337.5" font-family="Helvetica,sans-Serif" font-size="10.00">X11Extras::display</text>
</a>
</g>
</g>
<!-- Node14&#45;&gt;Node15 -->
<g id="edge18" class="edge">
<title>Node14&#45;&gt;Node15</title>
<path fill="none" stroke="midnightblue" d="M845.05,-498.9C855.7,-496.04 866.34,-491.67 875,-485 901.78,-464.38 885.32,-439.98 911,-418 970.06,-367.46 1001.31,-381.54 1076,-360 1086.04,-357.11 1096.82,-354.36 1107.27,-351.89"/>
<polygon fill="midnightblue" stroke="midnightblue" points="1108.21,-355.26 1117.16,-349.6 1106.63,-348.44 1108.21,-355.26"/>
</g>
<!-- Node16 -->
<g id="node16" class="node">
<title>Node16</title>
<g id="a_node16"><a xlink:href="classBaseEventHandler.html#a9a014e472ec57408d16b8b5eed964e90" target="_top" xlink:title=" ">
<polygon fill="white" stroke="black" points="1087.5,-684.5 1087.5,-703.5 1242.5,-703.5 1242.5,-684.5 1087.5,-684.5"/>
<text text-anchor="middle" x="1165" y="-691.5" font-family="Helvetica,sans-Serif" font-size="10.00">BaseEventHandler::getIdentifier</text>
</a>
</g>
</g>
<!-- Node14&#45;&gt;Node16 -->
<g id="edge19" class="edge">
<title>Node14&#45;&gt;Node16</title>
<path fill="none" stroke="midnightblue" d="M845.02,-511.38C855.33,-514.12 865.84,-517.87 875,-523 894.75,-534.05 891.67,-547.24 911,-559 962.4,-590.27 994.59,-560.54 1040,-600 1067.91,-624.26 1046.97,-652.1 1076,-675 1078.09,-676.65 1080.3,-678.17 1082.59,-679.56"/>
<polygon fill="midnightblue" stroke="midnightblue" points="1081.33,-682.85 1091.82,-684.33 1084.54,-676.63 1081.33,-682.85"/>
</g>
<!-- Node17 -->
<g id="node17" class="node">
<title>Node17</title>
<g id="a_node17"><a xlink:href="classX11Extras.html#ace76277fced60e6bd6ff880030338182" target="_top" xlink:title=" ">
<polygon fill="white" stroke="black" points="1105.5,-646.5 1105.5,-665.5 1224.5,-665.5 1224.5,-646.5 1105.5,-646.5"/>
<text text-anchor="middle" x="1165" y="-653.5" font-family="Helvetica,sans-Serif" font-size="10.00">X11Extras::getInstance</text>
</a>
</g>
</g>
<!-- Node14&#45;&gt;Node17 -->
<g id="edge20" class="edge">
<title>Node14&#45;&gt;Node17</title>
<path fill="none" stroke="midnightblue" d="M845.02,-511.56C907.45,-521.93 1010.25,-542.03 1040,-566 1067.55,-588.2 1047.99,-615.39 1076,-637 1081.87,-641.53 1088.59,-645.03 1095.63,-647.73"/>
<polygon fill="midnightblue" stroke="midnightblue" points="1094.81,-651.15 1105.4,-650.94 1096.99,-644.5 1094.81,-651.15"/>
</g>
<!-- Node20 -->
<g id="node20" class="node">
<title>Node20</title>
<g id="a_node20"><a xlink:href="classEventHandlerFactory.html#a90ce153a19fbb91128bd52eb083ce271" target="_top" xlink:title=" ">
<polygon fill="white" stroke="black" points="1110.5,-369 1110.5,-399 1219.5,-399 1219.5,-369 1110.5,-369"/>
<text text-anchor="start" x="1118.5" y="-387" font-family="Helvetica,sans-Serif" font-size="10.00">EventHandlerFactory</text>
<text text-anchor="middle" x="1165" y="-376" font-family="Helvetica,sans-Serif" font-size="10.00">::getInstance</text>
</a>
</g>
</g>
<!-- Node14&#45;&gt;Node20 -->
<g id="edge23" class="edge">
<title>Node14&#45;&gt;Node20</title>
<path fill="none" stroke="midnightblue" d="M839.92,-494.44C851.43,-491.67 863.74,-488.46 875,-485 966.3,-456.95 985.32,-438.97 1076,-409 1083.91,-406.39 1092.28,-403.79 1100.58,-401.32"/>
<polygon fill="midnightblue" stroke="midnightblue" points="1101.65,-404.66 1110.26,-398.48 1099.68,-397.94 1101.65,-404.66"/>
</g>
<!-- Node23 -->
<g id="node23" class="node">
<title>Node23</title>
<g id="a_node23"><a xlink:href="classEventHandlerFactory.html#a4c13007f0ece5bf881080c9c04f1f20d" target="_top" xlink:title=" ">
<polygon fill="white" stroke="black" points="1483,-367 1483,-397 1592,-397 1592,-367 1483,-367"/>
<text text-anchor="start" x="1491" y="-385" font-family="Helvetica,sans-Serif" font-size="10.00">EventHandlerFactory</text>
<text text-anchor="middle" x="1537.5" y="-374" font-family="Helvetica,sans-Serif" font-size="10.00">::handler</text>
</a>
</g>
</g>
<!-- Node14&#45;&gt;Node23 -->
<g id="edge29" class="edge">
<title>Node14&#45;&gt;Node23</title>
<path fill="none" stroke="midnightblue" d="M845.29,-500.37C856.17,-497.47 866.86,-492.71 875,-485 915.74,-446.42 870.86,-403.2 911,-364 1035.89,-242.05 1116.98,-284.09 1290,-261 1350.79,-252.89 1371.99,-236 1428,-261 1472.4,-280.82 1506.2,-328.8 1523.54,-358.03"/>
<polygon fill="midnightblue" stroke="midnightblue" points="1520.57,-359.88 1528.59,-366.81 1526.63,-356.39 1520.57,-359.88"/>
</g>
<!-- Node25 -->
<g id="node25" class="node">
<title>Node25</title>
<g id="a_node25"><a xlink:href="event_8cpp.html#ad239a34cab482dc3cad5a23a9ac1ad78" target="_top" xlink:title=" ">
<polygon fill="white" stroke="black" points="923.5,-494.5 923.5,-513.5 1027.5,-513.5 1027.5,-494.5 923.5,-494.5"/>
<text text-anchor="middle" x="975.5" y="-501.5" font-family="Helvetica,sans-Serif" font-size="10.00">keycodeToKeyString</text>
</a>
</g>
</g>
<!-- Node14&#45;&gt;Node25 -->
<g id="edge30" class="edge">
<title>Node14&#45;&gt;Node25</title>
<path fill="none" stroke="midnightblue" d="M845.36,-504C866.35,-504 890.98,-504 913.07,-504"/>
<polygon fill="midnightblue" stroke="midnightblue" points="913.35,-507.5 923.35,-504 913.35,-500.5 913.35,-507.5"/>
</g>
<!-- Node18 -->
<g id="node18" class="node">
<title>Node18</title>
<g id="a_node18"><a xlink:href="classX11Extras.html#ab9bcb016e23bacb0e988feb8175d2c88" target="_top" xlink:title=" ">
<polygon fill="white" stroke="black" points="1302,-646.5 1302,-665.5 1416,-665.5 1416,-646.5 1302,-646.5"/>
<text text-anchor="middle" x="1359" y="-653.5" font-family="Helvetica,sans-Serif" font-size="10.00">X11Extras::X11Extras</text>
</a>
</g>
</g>
<!-- Node17&#45;&gt;Node18 -->
<g id="edge21" class="edge">
<title>Node17&#45;&gt;Node18</title>
<path fill="none" stroke="midnightblue" d="M1224.65,-656C1245.78,-656 1269.78,-656 1291.54,-656"/>
<polygon fill="midnightblue" stroke="midnightblue" points="1291.68,-659.5 1301.68,-656 1291.68,-652.5 1291.68,-659.5"/>
</g>
<!-- Node19 -->
<g id="node19" class="node">
<title>Node19</title>
<g id="a_node19"><a xlink:href="classX11Extras.html#a6f63e77ed045e174546d77333672b8f0" target="_top" xlink:title=" ">
<polygon fill="white" stroke="black" points="1470,-641 1470,-671 1605,-671 1605,-641 1470,-641"/>
<text text-anchor="start" x="1478" y="-659" font-family="Helvetica,sans-Serif" font-size="10.00">X11Extras::populateKnown</text>
<text text-anchor="middle" x="1537.5" y="-648" font-family="Helvetica,sans-Serif" font-size="10.00">Aliases</text>
</a>
</g>
</g>
<!-- Node18&#45;&gt;Node19 -->
<g id="edge22" class="edge">
<title>Node18&#45;&gt;Node19</title>
<path fill="none" stroke="midnightblue" d="M1416.33,-656C1430.18,-656 1445.25,-656 1459.88,-656"/>
<polygon fill="midnightblue" stroke="midnightblue" points="1459.92,-659.5 1469.92,-656 1459.92,-652.5 1459.92,-659.5"/>
</g>
<!-- Node21 -->
<g id="node21" class="node">
<title>Node21</title>
<g id="a_node21"><a xlink:href="classEventHandlerFactory.html#ade5162034acc0f8683725fdb124bece0" target="_top" xlink:title=" ">
<polygon fill="white" stroke="black" points="1296,-369 1296,-399 1422,-399 1422,-369 1296,-369"/>
<text text-anchor="start" x="1304" y="-387" font-family="Helvetica,sans-Serif" font-size="10.00">EventHandlerFactory</text>
<text text-anchor="middle" x="1359" y="-376" font-family="Helvetica,sans-Serif" font-size="10.00">::buildEventGeneratorList</text>
</a>
</g>
</g>
<!-- Node20&#45;&gt;Node21 -->
<g id="edge24" class="edge">
<title>Node20&#45;&gt;Node21</title>
<path fill="none" stroke="midnightblue" d="M1219.74,-384C1240.14,-384 1263.72,-384 1285.56,-384"/>
<polygon fill="midnightblue" stroke="midnightblue" points="1285.79,-387.5 1295.79,-384 1285.79,-380.5 1285.79,-387.5"/>
</g>
<!-- Node22 -->
<g id="node22" class="node">
<title>Node22</title>
<g id="a_node22"><a xlink:href="classEventHandlerFactory.html#a2f843293b2ea47271fc7bd99bd871fa6" target="_top" xlink:title=" ">
<polygon fill="white" stroke="black" points="1301.5,-320 1301.5,-350 1416.5,-350 1416.5,-320 1301.5,-320"/>
<text text-anchor="start" x="1309.5" y="-338" font-family="Helvetica,sans-Serif" font-size="10.00">EventHandlerFactory</text>
<text text-anchor="middle" x="1359" y="-327" font-family="Helvetica,sans-Serif" font-size="10.00">::EventHandlerFactory</text>
</a>
</g>
</g>
<!-- Node20&#45;&gt;Node22 -->
<g id="edge25" class="edge">
<title>Node20&#45;&gt;Node22</title>
<path fill="none" stroke="midnightblue" d="M1219.74,-370.29C1241.97,-364.61 1267.97,-357.98 1291.4,-352"/>
<polygon fill="midnightblue" stroke="midnightblue" points="1292.43,-355.35 1301.26,-349.48 1290.7,-348.56 1292.43,-355.35"/>
</g>
<!-- Node20&#45;&gt;Node23 -->
<g id="edge28" class="edge">
<title>Node20&#45;&gt;Node23</title>
<path fill="none" stroke="midnightblue" d="M1219.66,-397.24C1241.36,-401.96 1266.73,-406.68 1290,-409 1351.03,-415.09 1367.12,-416.46 1428,-409 1444.04,-407.03 1461.13,-403.49 1476.88,-399.6"/>
<polygon fill="midnightblue" stroke="midnightblue" points="1478.19,-402.88 1487.01,-397.01 1476.46,-396.1 1478.19,-402.88"/>
</g>
<!-- Node24 -->
<g id="node24" class="node">
<title>Node24</title>
<g id="a_node24"><a xlink:href="classEventHandlerFactory.html#afa5ca0171c70b1a24f92b5c8dd00dc92" target="_top" xlink:title=" ">
<polygon fill="white" stroke="black" points="1304.5,-271 1304.5,-301 1413.5,-301 1413.5,-271 1304.5,-271"/>
<text text-anchor="start" x="1312.5" y="-289" font-family="Helvetica,sans-Serif" font-size="10.00">EventHandlerFactory</text>
<text text-anchor="middle" x="1359" y="-278" font-family="Helvetica,sans-Serif" font-size="10.00">::fallBackIdentifier</text>
</a>
</g>
</g>
<!-- Node20&#45;&gt;Node24 -->
<g id="edge27" class="edge">
<title>Node20&#45;&gt;Node24</title>
<path fill="none" stroke="midnightblue" d="M1219.66,-374.72C1231.63,-371.08 1243.79,-366.02 1254,-359 1275.98,-343.9 1268.61,-326.92 1290,-311 1292.49,-309.14 1295.14,-307.42 1297.88,-305.8"/>
<polygon fill="midnightblue" stroke="midnightblue" points="1299.7,-308.8 1306.92,-301.05 1296.44,-302.61 1299.7,-308.8"/>
</g>
<!-- Node22&#45;&gt;Node23 -->
<g id="edge26" class="edge">
<title>Node22&#45;&gt;Node23</title>
<path fill="none" stroke="midnightblue" d="M1416.33,-350C1434.38,-354.81 1454.48,-360.16 1473,-365.09"/>
<polygon fill="midnightblue" stroke="midnightblue" points="1472.24,-368.51 1482.81,-367.7 1474.04,-361.75 1472.24,-368.51"/>
</g>
<!-- Node25&#45;&gt;Node15 -->
<g id="edge31" class="edge">
<title>Node25&#45;&gt;Node15</title>
<path fill="none" stroke="midnightblue" d="M980.16,-494.45C990.68,-468.34 1023.65,-395.42 1076,-360 1084.75,-354.08 1095,-349.89 1105.35,-346.93"/>
<polygon fill="midnightblue" stroke="midnightblue" points="1106.4,-350.27 1115.26,-344.45 1104.71,-343.48 1106.4,-350.27"/>
</g>
<!-- Node25&#45;&gt;Node16 -->
<g id="edge36" class="edge">
<title>Node25&#45;&gt;Node16</title>
<path fill="none" stroke="midnightblue" d="M989.5,-513.56C1003.78,-524.68 1026.45,-544.31 1040,-566 1067.02,-609.27 1038.06,-640.89 1076,-675 1077.7,-676.53 1079.49,-677.94 1081.36,-679.25"/>
<polygon fill="midnightblue" stroke="midnightblue" points="1079.61,-682.29 1090,-684.36 1083.17,-676.26 1079.61,-682.29"/>
</g>
<!-- Node25&#45;&gt;Node17 -->
<g id="edge44" class="edge">
<title>Node25&#45;&gt;Node17</title>
<path fill="none" stroke="midnightblue" d="M1018,-513.6C1026.11,-517.04 1033.97,-521.7 1040,-528 1075.3,-564.83 1038.06,-602.89 1076,-637 1081.67,-642.1 1088.38,-645.95 1095.53,-648.83"/>
<polygon fill="midnightblue" stroke="midnightblue" points="1094.89,-652.31 1105.48,-652.2 1097.13,-645.68 1094.89,-652.31"/>
</g>
<!-- Node25&#45;&gt;Node20 -->
<g id="edge45" class="edge">
<title>Node25&#45;&gt;Node20</title>
<path fill="none" stroke="midnightblue" d="M986.18,-494.24C1009.08,-471.23 1065.48,-415.02 1076,-409 1083.61,-404.65 1092.04,-401.01 1100.57,-397.98"/>
<polygon fill="midnightblue" stroke="midnightblue" points="1101.8,-401.26 1110.2,-394.81 1099.61,-394.61 1101.8,-401.26"/>
</g>
<!-- Node25&#45;&gt;Node23 -->
<g id="edge46" class="edge">
<title>Node25&#45;&gt;Node23</title>
<path fill="none" stroke="midnightblue" d="M1025.3,-494.48C1041.43,-491.39 1059.47,-487.99 1076,-485 1232.17,-456.78 1275.18,-467.8 1428,-425 1450.47,-418.71 1474.68,-409.37 1494.51,-401.01"/>
<polygon fill="midnightblue" stroke="midnightblue" points="1496.06,-404.16 1503.88,-397 1493.31,-397.72 1496.06,-404.16"/>
</g>
<!-- Node26 -->
<g id="node26" class="node">
<title>Node26</title>
<g id="a_node26"><a xlink:href="classWinExtras.html#a3487e64cfb407033d7e28a761d1e76dc" target="_top" xlink:title=" ">
<polygon fill="white" stroke="black" points="1095,-570.5 1095,-589.5 1235,-589.5 1235,-570.5 1095,-570.5"/>
<text text-anchor="middle" x="1165" y="-577.5" font-family="Helvetica,sans-Serif" font-size="10.00">WinExtras::getDisplayString</text>
</a>
</g>
</g>
<!-- Node25&#45;&gt;Node26 -->
<g id="edge32" class="edge">
<title>Node25&#45;&gt;Node26</title>
<path fill="none" stroke="midnightblue" d="M1007.37,-513.57C1018.02,-517.41 1029.82,-522.29 1040,-528 1057.68,-537.92 1057.87,-546.94 1076,-556 1085.34,-560.67 1095.7,-564.53 1105.95,-567.68"/>
<polygon fill="midnightblue" stroke="midnightblue" points="1105.11,-571.08 1115.69,-570.49 1107.05,-564.35 1105.11,-571.08"/>
</g>
<!-- Node27 -->
<g id="node27" class="node">
<title>Node27</title>
<g id="a_node27"><a xlink:href="classUInputHelper.html#ac4c70c9479c1cc0eb515ab1bdf2426f5" target="_top" xlink:title=" ">
<polygon fill="white" stroke="black" points="1474,-532 1474,-562 1601,-562 1601,-532 1474,-532"/>
<text text-anchor="start" x="1482" y="-550" font-family="Helvetica,sans-Serif" font-size="10.00">UInputHelper::getDisplay</text>
<text text-anchor="middle" x="1537.5" y="-539" font-family="Helvetica,sans-Serif" font-size="10.00">String</text>
</a>
</g>
</g>
<!-- Node25&#45;&gt;Node27 -->
<g id="edge33" class="edge">
<title>Node25&#45;&gt;Node27</title>
<path fill="none" stroke="midnightblue" d="M1019.4,-513.52C1036.87,-517.05 1057.32,-520.74 1076,-523 1212.22,-539.48 1372.45,-544.65 1463.49,-546.27"/>
<polygon fill="midnightblue" stroke="midnightblue" points="1463.64,-549.77 1473.7,-546.44 1463.76,-542.77 1463.64,-549.77"/>
</g>
<!-- Node29 -->
<g id="node29" class="node">
<title>Node29</title>
<g id="a_node29"><a xlink:href="classX11Extras.html#abe710bac948c9802105a2d9d06815cac" target="_top" xlink:title="Get appropriate alias for a known KeySym string that might be blank or contain invalid characters whe...">
<polygon fill="white" stroke="black" points="1095,-418.5 1095,-437.5 1235,-437.5 1235,-418.5 1095,-418.5"/>
<text text-anchor="middle" x="1165" y="-425.5" font-family="Helvetica,sans-Serif" font-size="10.00">X11Extras::getDisplayString</text>
</a>
</g>
</g>
<!-- Node25&#45;&gt;Node29 -->
<g id="edge35" class="edge">
<title>Node25&#45;&gt;Node29</title>
<path fill="none" stroke="midnightblue" d="M992.2,-494.44C1011.4,-483.06 1045.15,-464.1 1076,-452 1087.4,-447.53 1099.95,-443.57 1111.9,-440.22"/>
<polygon fill="midnightblue" stroke="midnightblue" points="1113.03,-443.54 1121.77,-437.55 1111.2,-436.78 1113.03,-443.54"/>
</g>
<!-- Node30 -->
<g id="node30" class="node">
<title>Node30</title>
<g id="a_node30"><a xlink:href="classUInputHelper.html#a61509601d3dbd8933aaa26c1e2db02f6" target="_top" xlink:title=" ">
<polygon fill="white" stroke="black" points="1099.5,-494.5 1099.5,-513.5 1230.5,-513.5 1230.5,-494.5 1099.5,-494.5"/>
<text text-anchor="middle" x="1165" y="-501.5" font-family="Helvetica,sans-Serif" font-size="10.00">UInputHelper::getInstance</text>
</a>
</g>
</g>
<!-- Node25&#45;&gt;Node30 -->
<g id="edge37" class="edge">
<title>Node25&#45;&gt;Node30</title>
<path fill="none" stroke="midnightblue" d="M1027.74,-504C1046.74,-504 1068.71,-504 1089.38,-504"/>
<polygon fill="midnightblue" stroke="midnightblue" points="1089.41,-507.5 1099.41,-504 1089.41,-500.5 1089.41,-507.5"/>
</g>
<!-- Node36 -->
<g id="node36" class="node">
<title>Node36</title>
<g id="a_node36"><a xlink:href="classWinExtras.html#a0bfa711c1abe72486dfebc8ff6fe7f5a" target="_top" xlink:title="Convert a virtual key into the corresponding keyboard scan code.">
<polygon fill="white" stroke="black" points="1076,-608.5 1076,-627.5 1254,-627.5 1254,-608.5 1076,-608.5"/>
<text text-anchor="middle" x="1165" y="-615.5" font-family="Helvetica,sans-Serif" font-size="10.00">WinExtras::scancodeFromVirtualKey</text>
</a>
</g>
</g>
<!-- Node25&#45;&gt;Node36 -->
<g id="edge47" class="edge">
<title>Node25&#45;&gt;Node36</title>
<path fill="none" stroke="midnightblue" d="M1015.32,-513.5C1024.15,-517 1032.98,-521.7 1040,-528 1066.33,-551.63 1047.99,-577.39 1076,-599 1078.32,-600.79 1080.77,-602.42 1083.33,-603.9"/>
<polygon fill="midnightblue" stroke="midnightblue" points="1081.84,-607.07 1092.35,-608.4 1084.96,-600.81 1081.84,-607.07"/>
</g>
<!-- Node28 -->
<g id="node28" class="node">
<title>Node28</title>
<g id="a_node28"><a xlink:href="classUInputHelper.html#a043b0fa7cf4ce5811d01d95f3ca318b7" target="_top" xlink:title=" ">
<polygon fill="white" stroke="black" points="1647,-532 1647,-562 1803,-562 1803,-532 1647,-532"/>
<text text-anchor="start" x="1655" y="-550" font-family="Helvetica,sans-Serif" font-size="10.00">UInputHelper::getKnownAliases</text>
<text text-anchor="middle" x="1725" y="-539" font-family="Helvetica,sans-Serif" font-size="10.00">VKStrings</text>
</a>
</g>
</g>
<!-- Node27&#45;&gt;Node28 -->
<g id="edge34" class="edge">
<title>Node27&#45;&gt;Node28</title>
<path fill="none" stroke="midnightblue" d="M1601.04,-547C1612.55,-547 1624.75,-547 1636.82,-547"/>
<polygon fill="midnightblue" stroke="midnightblue" points="1636.92,-550.5 1646.92,-547 1636.92,-543.5 1636.92,-550.5"/>
</g>
<!-- Node31 -->
<g id="node31" class="node">
<title>Node31</title>
<g id="a_node31"><a xlink:href="classUInputHelper.html#a5d56d23a0e0202435c7a5ff1aca9ce55" target="_top" xlink:title=" ">
<polygon fill="white" stroke="black" points="1290,-494.5 1290,-513.5 1428,-513.5 1428,-494.5 1290,-494.5"/>
<text text-anchor="middle" x="1359" y="-501.5" font-family="Helvetica,sans-Serif" font-size="10.00">UInputHelper::UInputHelper</text>
</a>
</g>
</g>
<!-- Node30&#45;&gt;Node31 -->
<g id="edge38" class="edge">
<title>Node30&#45;&gt;Node31</title>
<path fill="none" stroke="midnightblue" d="M1230.73,-504C1246.51,-504 1263.55,-504 1279.88,-504"/>
<polygon fill="midnightblue" stroke="midnightblue" points="1279.94,-507.5 1289.94,-504 1279.94,-500.5 1279.94,-507.5"/>
</g>
<!-- Node32 -->
<g id="node32" class="node">
<title>Node32</title>
<g id="a_node32"><a xlink:href="classUInputHelper.html#a0f4dbb4221502d86f7d0af12a9865568" target="_top" xlink:title=" ">
<polygon fill="white" stroke="black" points="1464,-483 1464,-513 1611,-513 1611,-483 1464,-483"/>
<text text-anchor="start" x="1472" y="-501" font-family="Helvetica,sans-Serif" font-size="10.00">UInputHelper::populateKnown</text>
<text text-anchor="middle" x="1537.5" y="-490" font-family="Helvetica,sans-Serif" font-size="10.00">Aliases</text>
</a>
</g>
</g>
<!-- Node31&#45;&gt;Node32 -->
<g id="edge39" class="edge">
<title>Node31&#45;&gt;Node32</title>
<path fill="none" stroke="midnightblue" d="M1428.24,-501.68C1436.52,-501.4 1445.04,-501.11 1453.5,-500.82"/>
<polygon fill="midnightblue" stroke="midnightblue" points="1453.89,-504.31 1463.76,-500.47 1453.65,-497.31 1453.89,-504.31"/>
</g>
<!-- Node32&#45;&gt;Node28 -->
<g id="edge40" class="edge">
<title>Node32&#45;&gt;Node28</title>
<path fill="none" stroke="midnightblue" d="M1595.42,-513.03C1615,-518.21 1637.11,-524.05 1657.4,-529.41"/>
<polygon fill="midnightblue" stroke="midnightblue" points="1656.63,-532.82 1667.19,-531.99 1658.42,-526.06 1656.63,-532.82"/>
</g>
<!-- Node33 -->
<g id="node33" class="node">
<title>Node33</title>
<g id="a_node33"><a xlink:href="classUInputHelper.html#a8f3fe71ae635cd3c46eaab79dd11c2e0" target="_top" xlink:title=" ">
<polygon fill="white" stroke="black" points="1647,-483 1647,-513 1803,-513 1803,-483 1647,-483"/>
<text text-anchor="start" x="1655" y="-501" font-family="Helvetica,sans-Serif" font-size="10.00">UInputHelper::getKnownAliases</text>
<text text-anchor="middle" x="1725" y="-490" font-family="Helvetica,sans-Serif" font-size="10.00">X11SymVK</text>
</a>
</g>
</g>
<!-- Node32&#45;&gt;Node33 -->
<g id="edge41" class="edge">
<title>Node32&#45;&gt;Node33</title>
<path fill="none" stroke="midnightblue" d="M1611.02,-498C1619.49,-498 1628.2,-498 1636.84,-498"/>
<polygon fill="midnightblue" stroke="midnightblue" points="1636.94,-501.5 1646.94,-498 1636.94,-494.5 1636.94,-501.5"/>
</g>
<!-- Node34 -->
<g id="node34" class="node">
<title>Node34</title>
<g id="a_node34"><a xlink:href="classUInputHelper.html#a9793030329fbbe1106b255814ef2bd0f" target="_top" xlink:title=" ">
<polygon fill="white" stroke="black" points="1658,-434 1658,-464 1792,-464 1792,-434 1658,-434"/>
<text text-anchor="start" x="1666" y="-452" font-family="Helvetica,sans-Serif" font-size="10.00">UInputHelper::populateX11</text>
<text text-anchor="middle" x="1725" y="-441" font-family="Helvetica,sans-Serif" font-size="10.00">SymVk</text>
</a>
</g>
</g>
<!-- Node32&#45;&gt;Node34 -->
<g id="edge42" class="edge">
<title>Node32&#45;&gt;Node34</title>
<path fill="none" stroke="midnightblue" d="M1595.42,-482.97C1615,-477.79 1637.11,-471.95 1657.4,-466.59"/>
<polygon fill="midnightblue" stroke="midnightblue" points="1658.42,-469.94 1667.19,-464.01 1656.63,-463.18 1658.42,-469.94"/>
</g>
<!-- Node35 -->
<g id="node35" class="node">
<title>Node35</title>
<g id="a_node35"><a xlink:href="classUInputHelper.html#af02574de230bb0550eebb63f5a669681" target="_top" xlink:title=" ">
<polygon fill="white" stroke="black" points="1657,-385 1657,-415 1793,-415 1793,-385 1657,-385"/>
<text text-anchor="start" x="1665" y="-403" font-family="Helvetica,sans-Serif" font-size="10.00">UInputHelper::populateXVk</text>
<text text-anchor="middle" x="1725" y="-392" font-family="Helvetica,sans-Serif" font-size="10.00">Strings</text>
</a>
</g>
</g>
<!-- Node32&#45;&gt;Node35 -->
<g id="edge43" class="edge">
<title>Node32&#45;&gt;Node35</title>
<path fill="none" stroke="midnightblue" d="M1557.5,-482.81C1578.41,-466.67 1613.52,-441.3 1647,-425 1651.62,-422.75 1656.49,-420.63 1661.45,-418.66"/>
<polygon fill="midnightblue" stroke="midnightblue" points="1662.92,-421.84 1671.04,-415.03 1660.45,-415.29 1662.92,-421.84"/>
</g>
<!-- Node40&#45;&gt;Node8 -->
<g id="edge52" class="edge">
<title>Node40&#45;&gt;Node8</title>
<path fill="none" stroke="midnightblue" d="M298.54,-488.97C313.17,-488.73 328.91,-488.47 344,-488.22"/>
<polygon fill="midnightblue" stroke="midnightblue" points="344.37,-491.71 354.31,-488.05 344.26,-484.71 344.37,-491.71"/>
</g>
<!-- Node44 -->
<g id="node44" class="node">
<title>Node44</title>
<g id="a_node44"><a xlink:href="classSetJoystick.html#a3a7ae87b62fac9deace237039cb5ea85" target="_top" xlink:title=" ">
<polygon fill="white" stroke="black" points="363.5,-114.5 363.5,-133.5 473.5,-133.5 473.5,-114.5 363.5,-114.5"/>
<text text-anchor="middle" x="418.5" y="-121.5" font-family="Helvetica,sans-Serif" font-size="10.00">SetJoystick::getIndex</text>
</a>
</g>
</g>
<!-- Node43&#45;&gt;Node44 -->
<g id="edge56" class="edge">
<title>Node43&#45;&gt;Node44</title>
<path fill="none" stroke="midnightblue" d="M298.03,-98.92C318.81,-103.28 341.87,-108.12 362.14,-112.38"/>
<polygon fill="midnightblue" stroke="midnightblue" points="361.64,-115.85 372.15,-114.48 363.08,-109 361.64,-115.85"/>
</g>
<!-- Node45 -->
<g id="node45" class="node">
<title>Node45</title>
<g id="a_node45"><a xlink:href="classSetJoystick.html#a102a4bbc464b9dfc5a8227c0fb4611c8" target="_top" xlink:title=" ">
<polygon fill="white" stroke="black" points="362,-76.5 362,-95.5 475,-95.5 475,-76.5 362,-76.5"/>
<text text-anchor="middle" x="418.5" y="-83.5" font-family="Helvetica,sans-Serif" font-size="10.00">SetJoystick::getName</text>
</a>
</g>
</g>
<!-- Node43&#45;&gt;Node45 -->
<g id="edge57" class="edge">
<title>Node43&#45;&gt;Node45</title>
<path fill="none" stroke="midnightblue" d="M298.03,-86C315.34,-86 334.22,-86 351.76,-86"/>
<polygon fill="midnightblue" stroke="midnightblue" points="351.91,-89.5 361.91,-86 351.91,-82.5 351.91,-89.5"/>
</g>
<!-- Node46 -->
<g id="node46" class="node">
<title>Node46</title>
<g id="a_node46"><a xlink:href="classJoyButton.html#a28e4e0906126f95384245e73988bdb19" target="_top" xlink:title=" ">
<polygon fill="white" stroke="black" points="356.5,-38.5 356.5,-57.5 480.5,-57.5 480.5,-38.5 356.5,-38.5"/>
<text text-anchor="middle" x="418.5" y="-45.5" font-family="Helvetica,sans-Serif" font-size="10.00">JoyButton::getParentSet</text>
</a>
</g>
</g>
<!-- Node43&#45;&gt;Node46 -->
<g id="edge58" class="edge">
<title>Node43&#45;&gt;Node46</title>
<path fill="none" stroke="midnightblue" d="M298.03,-73.08C318.81,-68.72 341.87,-63.88 362.14,-59.62"/>
<polygon fill="midnightblue" stroke="midnightblue" points="363.08,-63 372.15,-57.52 361.64,-56.15 363.08,-63"/>
</g>
<!-- Node47 -->
<g id="node47" class="node">
<title>Node47</title>
<g id="a_node47"><a xlink:href="classJoyButton.html#acf2e65dcec7b0d2a8a2c21c36c489ad6" target="_top" xlink:title=" ">
<polygon fill="white" stroke="black" points="351,-0.5 351,-19.5 486,-19.5 486,-0.5 351,-0.5"/>
<text text-anchor="middle" x="418.5" y="-7.5" font-family="Helvetica,sans-Serif" font-size="10.00">JoyButton::getPartialName</text>
</a>
</g>
</g>
<!-- Node43&#45;&gt;Node47 -->
<g id="edge59" class="edge">
<title>Node43&#45;&gt;Node47</title>
<path fill="none" stroke="midnightblue" d="M261.17,-70.96C282.68,-58.36 315.04,-40.62 345,-29 351.28,-26.57 357.98,-24.34 364.67,-22.34"/>
<polygon fill="midnightblue" stroke="midnightblue" points="365.77,-25.66 374.43,-19.56 363.86,-18.93 365.77,-25.66"/>
</g>
<!-- Node49 -->
<g id="node49" class="node">
<title>Node49</title>
<g id="a_node49"><a xlink:href="classSetJoystick.html#a00ecd09902d11bbfe7e6e82ad25ae456" target="_top" xlink:title=" ">
<polygon fill="white" stroke="black" points="353.5,-152.5 353.5,-171.5 483.5,-171.5 483.5,-152.5 353.5,-152.5"/>
<text text-anchor="middle" x="418.5" y="-159.5" font-family="Helvetica,sans-Serif" font-size="10.00">SetJoystick::getRealIndex</text>
</a>
</g>
</g>
<!-- Node43&#45;&gt;Node49 -->
<g id="edge61" class="edge">
<title>Node43&#45;&gt;Node49</title>
<path fill="none" stroke="midnightblue" d="M288.33,-101.04C295.48,-103.92 302.56,-107.23 309,-111 327.48,-121.81 326.13,-132.9 345,-143 349.29,-145.3 353.88,-147.33 358.58,-149.12"/>
<polygon fill="midnightblue" stroke="midnightblue" points="357.74,-152.54 368.33,-152.48 360.02,-145.92 357.74,-152.54"/>
</g>
<!-- Node48 -->
<g id="node48" class="node">
<title>Node48</title>
<g id="a_node48"><a xlink:href="classJoyButton.html#a39c9ccaf641bb8bf50b29d4c4e04c165" target="_top" xlink:title="Get a 1 indexed number of button.">
<polygon fill="white" stroke="black" points="528,-0.5 528,-19.5 678,-19.5 678,-0.5 528,-0.5"/>
<text text-anchor="middle" x="603" y="-7.5" font-family="Helvetica,sans-Serif" font-size="10.00">JoyButton::getRealJoyNumber</text>
</a>
</g>
</g>
<!-- Node47&#45;&gt;Node48 -->
<g id="edge60" class="edge">
<title>Node47&#45;&gt;Node48</title>
<path fill="none" stroke="midnightblue" d="M486.16,-10C496.42,-10 507.14,-10 517.72,-10"/>
<polygon fill="midnightblue" stroke="midnightblue" points="517.81,-13.5 527.81,-10 517.81,-6.5 517.81,-13.5"/>
</g>
</g>
</svg>
