<?xml version="1.0" encoding="UTF-8" standalone="no"?>
<!DOCTYPE svg PUBLIC "-//W3C//DTD SVG 1.1//EN"
 "http://www.w3.org/Graphics/SVG/1.1/DTD/svg11.dtd">
<!-- Generated by graphviz version 2.43.0 (0)
 -->
<!-- Title: InputDevice::changeSetVDPadButtonAssociation Pages: 1 -->
<svg width="2527pt" height="580pt"
 viewBox="0.00 0.00 2527.00 579.50" xmlns="http://www.w3.org/2000/svg" xmlns:xlink="http://www.w3.org/1999/xlink">
<g id="graph0" class="graph" transform="scale(1 1) rotate(0) translate(4 575.5)">
<title>InputDevice::changeSetVDPadButtonAssociation</title>
<polygon fill="white" stroke="transparent" points="-4,4 -4,-575.5 2523,-575.5 2523,4 -4,4"/>
<!-- Node1 -->
<g id="node1" class="node">
<title>Node1</title>
<g id="a_node1"><a xlink:title=" ">
<polygon fill="#bfbfbf" stroke="black" points="0,-456.5 0,-486.5 153,-486.5 153,-456.5 0,-456.5"/>
<text text-anchor="start" x="8" y="-474.5" font-family="Helvetica,sans-Serif" font-size="10.00">InputDevice::changeSetVDPad</text>
<text text-anchor="middle" x="76.5" y="-463.5" font-family="Helvetica,sans-Serif" font-size="10.00">ButtonAssociation</text>
</a>
</g>
</g>
<!-- Node2 -->
<g id="node2" class="node">
<title>Node2</title>
<g id="a_node2"><a xlink:href="$classInputDevice.html#a1c4c65d9e509a5c3bde064871d7e1849" xlink:title=" ">
<polygon fill="white" stroke="black" points="189,-500 189,-519 338,-519 338,-500 189,-500"/>
<text text-anchor="middle" x="263.5" y="-507" font-family="Helvetica,sans-Serif" font-size="10.00">InputDevice::getJoystick_sets</text>
</a>
</g>
</g>
<!-- Node1&#45;&gt;Node2 -->
<g id="edge1" class="edge">
<title>Node1&#45;&gt;Node2</title>
<path fill="none" stroke="midnightblue" d="M150.62,-486.52C169.11,-490.32 188.68,-494.34 206.19,-497.93"/>
<polygon fill="midnightblue" stroke="midnightblue" points="205.75,-501.42 216.25,-500 207.15,-494.56 205.75,-501.42"/>
</g>
<!-- Node3 -->
<g id="node3" class="node">
<title>Node3</title>
<g id="a_node3"><a xlink:href="$classJoyDPadButton.html#a17abae87cce39aa7c8356f269ce2154b" xlink:title=" ">
<polygon fill="white" stroke="black" points="194,-412.5 194,-442.5 333,-442.5 333,-412.5 194,-412.5"/>
<text text-anchor="start" x="202" y="-430.5" font-family="Helvetica,sans-Serif" font-size="10.00">JoyDPadButton::setChange</text>
<text text-anchor="middle" x="263.5" y="-419.5" font-family="Helvetica,sans-Serif" font-size="10.00">SetCondition</text>
</a>
</g>
</g>
<!-- Node1&#45;&gt;Node3 -->
<g id="edge2" class="edge">
<title>Node1&#45;&gt;Node3</title>
<path fill="none" stroke="midnightblue" d="M140.65,-456.48C156.34,-452.75 173.29,-448.72 189.41,-444.88"/>
<polygon fill="midnightblue" stroke="midnightblue" points="190.4,-448.25 199.32,-442.53 188.78,-441.44 190.4,-448.25"/>
</g>
<!-- Node42 -->
<g id="node42" class="node">
<title>Node42</title>
<g id="a_node42"><a xlink:href="$classJoyButton.html#af7ffbb38754f3f898935e6cc975ebb6a" xlink:title=" ">
<polygon fill="white" stroke="black" points="374,-459 374,-478 544,-478 544,-459 374,-459"/>
<text text-anchor="middle" x="459" y="-466" font-family="Helvetica,sans-Serif" font-size="10.00">JoyButton::setChangeSetSelection</text>
</a>
</g>
</g>
<!-- Node1&#45;&gt;Node42 -->
<g id="edge55" class="edge">
<title>Node1&#45;&gt;Node42</title>
<path fill="none" stroke="midnightblue" d="M153.13,-470.9C213.61,-470.43 298.74,-469.76 363.67,-469.24"/>
<polygon fill="midnightblue" stroke="midnightblue" points="363.94,-472.74 373.91,-469.16 363.88,-465.74 363.94,-472.74"/>
</g>
<!-- Node4 -->
<g id="node4" class="node">
<title>Node4</title>
<g id="a_node4"><a xlink:href="$classJoyButton.html#ad2df77b5daa94a848b015265ec1869d6" xlink:title="Generate active zone string and notify other objects.">
<polygon fill="white" stroke="black" points="580,-415.5 580,-445.5 716,-445.5 716,-415.5 580,-415.5"/>
<text text-anchor="start" x="588" y="-433.5" font-family="Helvetica,sans-Serif" font-size="10.00">JoyButton::buildActiveZone</text>
<text text-anchor="middle" x="648" y="-422.5" font-family="Helvetica,sans-Serif" font-size="10.00">SummaryString</text>
</a>
</g>
</g>
<!-- Node3&#45;&gt;Node4 -->
<g id="edge3" class="edge">
<title>Node3&#45;&gt;Node4</title>
<path fill="none" stroke="midnightblue" d="M333.26,-415.9C346.73,-414.07 360.78,-412.46 374,-411.5 449.36,-406.02 468.76,-404.62 544,-411.5 552.39,-412.27 561.13,-413.38 569.8,-414.69"/>
<polygon fill="midnightblue" stroke="midnightblue" points="569.5,-418.18 579.93,-416.3 570.6,-411.27 569.5,-418.18"/>
</g>
<!-- Node41 -->
<g id="node41" class="node">
<title>Node41</title>
<g id="a_node41"><a xlink:href="$classJoyDPad.html#aa46c910612c3a5dba2def75d0c2e811d" xlink:title=" ">
<polygon fill="white" stroke="black" points="395.5,-421 395.5,-440 522.5,-440 522.5,-421 395.5,-421"/>
<text text-anchor="middle" x="459" y="-428" font-family="Helvetica,sans-Serif" font-size="10.00">JoyDPad::getJoyNumber</text>
</a>
</g>
</g>
<!-- Node3&#45;&gt;Node41 -->
<g id="edge52" class="edge">
<title>Node3&#45;&gt;Node41</title>
<path fill="none" stroke="midnightblue" d="M333.27,-428.57C350,-428.83 367.95,-429.1 384.88,-429.37"/>
<polygon fill="midnightblue" stroke="midnightblue" points="385.21,-432.87 395.26,-429.53 385.32,-425.87 385.21,-432.87"/>
</g>
<!-- Node3&#45;&gt;Node42 -->
<g id="edge53" class="edge">
<title>Node3&#45;&gt;Node42</title>
<path fill="none" stroke="midnightblue" d="M333.27,-442.07C356.15,-446.92 381.31,-452.25 403.01,-456.85"/>
<polygon fill="midnightblue" stroke="midnightblue" points="402.53,-460.32 413.04,-458.97 403.98,-453.48 402.53,-460.32"/>
</g>
<!-- Node5 -->
<g id="node5" class="node">
<title>Node5</title>
<g id="a_node5"><a xlink:href="$classJoyButton.html#ae76ccd3147106953d53a565730c1d8ee" xlink:title="Generate a string that represents slots that will be activated or slots that are currently active if ...">
<polygon fill="white" stroke="black" points="752,-440.5 752,-470.5 881,-470.5 881,-440.5 752,-440.5"/>
<text text-anchor="start" x="760" y="-458.5" font-family="Helvetica,sans-Serif" font-size="10.00">JoyButton::getActiveZone</text>
<text text-anchor="middle" x="816.5" y="-447.5" font-family="Helvetica,sans-Serif" font-size="10.00">Summary</text>
</a>
</g>
</g>
<!-- Node4&#45;&gt;Node5 -->
<g id="edge4" class="edge">
<title>Node4&#45;&gt;Node5</title>
<path fill="none" stroke="midnightblue" d="M716.24,-440.6C724.68,-441.86 733.34,-443.16 741.86,-444.44"/>
<polygon fill="midnightblue" stroke="midnightblue" points="741.37,-447.91 751.78,-445.93 742.41,-440.99 741.37,-447.91"/>
</g>
<!-- Node40 -->
<g id="node40" class="node">
<title>Node40</title>
<g id="a_node40"><a xlink:href="$classJoyButton.html#a1b49d9ab85f0d5d128e2eca616747018" xlink:title=" ">
<polygon fill="white" stroke="black" points="753,-391.5 753,-421.5 880,-421.5 880,-391.5 753,-391.5"/>
<text text-anchor="start" x="761" y="-409.5" font-family="Helvetica,sans-Serif" font-size="10.00">JoyButton::lockForWrited</text>
<text text-anchor="middle" x="816.5" y="-398.5" font-family="Helvetica,sans-Serif" font-size="10.00">String</text>
</a>
</g>
</g>
<!-- Node4&#45;&gt;Node40 -->
<g id="edge51" class="edge">
<title>Node4&#45;&gt;Node40</title>
<path fill="none" stroke="midnightblue" d="M716.24,-420.81C725.03,-419.54 734.06,-418.24 742.93,-416.96"/>
<polygon fill="midnightblue" stroke="midnightblue" points="743.46,-420.42 752.86,-415.53 742.46,-413.49 743.46,-420.42"/>
</g>
<!-- Node6 -->
<g id="node6" class="node">
<title>Node6</title>
<g id="a_node6"><a xlink:href="$classJoyButton.html#a9404c4ca344265ce68c0eb9b6b95048b" xlink:title=" ">
<polygon fill="white" stroke="black" points="921.5,-410.5 921.5,-440.5 1057.5,-440.5 1057.5,-410.5 921.5,-410.5"/>
<text text-anchor="start" x="929.5" y="-428.5" font-family="Helvetica,sans-Serif" font-size="10.00">JoyButton::buildActiveZone</text>
<text text-anchor="middle" x="989.5" y="-417.5" font-family="Helvetica,sans-Serif" font-size="10.00">Summary</text>
</a>
</g>
</g>
<!-- Node5&#45;&gt;Node6 -->
<g id="edge5" class="edge">
<title>Node5&#45;&gt;Node6</title>
<path fill="none" stroke="midnightblue" d="M881.17,-444.33C891,-442.6 901.24,-440.81 911.33,-439.04"/>
<polygon fill="midnightblue" stroke="midnightblue" points="912.09,-442.46 921.34,-437.28 910.88,-435.56 912.09,-442.46"/>
</g>
<!-- Node38 -->
<g id="node38" class="node">
<title>Node38</title>
<g id="a_node38"><a xlink:href="$classJoyButton.html#a7494c1753b3f16ba988076e9eb34ff47" xlink:title=" ">
<polygon fill="white" stroke="black" points="917,-476 917,-495 1062,-495 1062,-476 917,-476"/>
<text text-anchor="middle" x="989.5" y="-483" font-family="Helvetica,sans-Serif" font-size="10.00">JoyButton::getActiveZoneList</text>
</a>
</g>
</g>
<!-- Node5&#45;&gt;Node38 -->
<g id="edge46" class="edge">
<title>Node5&#45;&gt;Node38</title>
<path fill="none" stroke="midnightblue" d="M881.17,-466.67C895.23,-469.14 910.14,-471.75 924.22,-474.22"/>
<polygon fill="midnightblue" stroke="midnightblue" points="923.85,-477.71 934.31,-475.99 925.06,-470.82 923.85,-477.71"/>
</g>
<!-- Node7 -->
<g id="node7" class="node">
<title>Node7</title>
<g id="a_node7"><a xlink:href="$classJoyButton.html#a773bbe39b094a62cd17776acc06efac6" xlink:title=" ">
<polygon fill="white" stroke="black" points="1101.5,-350.5 1101.5,-380.5 1237.5,-380.5 1237.5,-350.5 1101.5,-350.5"/>
<text text-anchor="start" x="1109.5" y="-368.5" font-family="Helvetica,sans-Serif" font-size="10.00">JoyButton::buildActiveZone</text>
<text text-anchor="middle" x="1169.5" y="-357.5" font-family="Helvetica,sans-Serif" font-size="10.00">SummarySwitchSlots</text>
</a>
</g>
</g>
<!-- Node6&#45;&gt;Node7 -->
<g id="edge6" class="edge">
<title>Node6&#45;&gt;Node7</title>
<path fill="none" stroke="midnightblue" d="M1035.42,-410.36C1059.33,-402.3 1088.92,-392.32 1114.12,-383.83"/>
<polygon fill="midnightblue" stroke="midnightblue" points="1115.55,-387.04 1123.91,-380.53 1113.31,-380.41 1115.55,-387.04"/>
</g>
<!-- Node10 -->
<g id="node10" class="node">
<title>Node10</title>
<g id="a_node10"><a xlink:href="$classJoyButtonSlot.html#a4fb0606a34134786bc642627bc25aedd" xlink:title=" ">
<polygon fill="white" stroke="black" points="1465.5,-312 1465.5,-331 1601.5,-331 1601.5,-312 1465.5,-312"/>
<text text-anchor="middle" x="1533.5" y="-319" font-family="Helvetica,sans-Serif" font-size="10.00">JoyButtonSlot::getMixSlots</text>
</a>
</g>
</g>
<!-- Node6&#45;&gt;Node10 -->
<g id="edge43" class="edge">
<title>Node6&#45;&gt;Node10</title>
<path fill="none" stroke="midnightblue" d="M1003.62,-410.41C1022.25,-390.2 1058.53,-355.19 1098,-340.5 1216.56,-296.37 1366.04,-301.86 1455.18,-310.93"/>
<polygon fill="midnightblue" stroke="midnightblue" points="1454.91,-314.42 1465.22,-311.99 1455.64,-307.46 1454.91,-314.42"/>
</g>
<!-- Node35 -->
<g id="node35" class="node">
<title>Node35</title>
<g id="a_node35"><a xlink:href="$classJoyButton.html#a64f1660931aea2fa8df1bf5e313c05ba" xlink:title=" ">
<polygon fill="white" stroke="black" points="1104.5,-438 1104.5,-457 1234.5,-457 1234.5,-438 1104.5,-438"/>
<text text-anchor="middle" x="1169.5" y="-445" font-family="Helvetica,sans-Serif" font-size="10.00">JoyButton::getActiveSlots</text>
</a>
</g>
</g>
<!-- Node6&#45;&gt;Node35 -->
<g id="edge42" class="edge">
<title>Node6&#45;&gt;Node35</title>
<path fill="none" stroke="midnightblue" d="M1057.54,-433.79C1069.55,-435.27 1082.13,-436.83 1094.33,-438.33"/>
<polygon fill="midnightblue" stroke="midnightblue" points="1094.11,-441.83 1104.46,-439.59 1094.97,-434.89 1094.11,-441.83"/>
</g>
<!-- Node36 -->
<g id="node36" class="node">
<title>Node36</title>
<g id="a_node36"><a xlink:href="$classJoyButtonSlot.html#abed7fe134c404b403ea79c0753f6eaaf" xlink:title=" ">
<polygon fill="white" stroke="black" points="1100,-476 1100,-495 1239,-495 1239,-476 1100,-476"/>
<text text-anchor="middle" x="1169.5" y="-483" font-family="Helvetica,sans-Serif" font-size="10.00">JoyButtonSlot::getSlotMode</text>
</a>
</g>
</g>
<!-- Node6&#45;&gt;Node36 -->
<g id="edge44" class="edge">
<title>Node6&#45;&gt;Node36</title>
<path fill="none" stroke="midnightblue" d="M1027.48,-440.67C1048.06,-448.84 1074.25,-458.79 1098,-466.5 1105.21,-468.84 1112.9,-471.12 1120.45,-473.25"/>
<polygon fill="midnightblue" stroke="midnightblue" points="1119.67,-476.67 1130.24,-475.94 1121.53,-469.92 1119.67,-476.67"/>
</g>
<!-- Node37 -->
<g id="node37" class="node">
<title>Node37</title>
<g id="a_node37"><a xlink:href="$classJoyButtonSlot.html#a1e38b923aa69abbcfb9abb008e692444" xlink:title=" ">
<polygon fill="white" stroke="black" points="1101,-400 1101,-419 1238,-419 1238,-400 1101,-400"/>
<text text-anchor="middle" x="1169.5" y="-407" font-family="Helvetica,sans-Serif" font-size="10.00">JoyButtonSlot::getTextData</text>
</a>
</g>
</g>
<!-- Node6&#45;&gt;Node37 -->
<g id="edge45" class="edge">
<title>Node6&#45;&gt;Node37</title>
<path fill="none" stroke="midnightblue" d="M1057.54,-419.47C1068.41,-418.5 1079.74,-417.48 1090.83,-416.48"/>
<polygon fill="midnightblue" stroke="midnightblue" points="1091.28,-419.96 1100.93,-415.57 1090.66,-412.98 1091.28,-419.96"/>
</g>
<!-- Node8 -->
<g id="node8" class="node">
<title>Node8</title>
<g id="a_node8"><a xlink:href="$classJoyButton.html#acb0ee9af0f5a44bd07ca5cfbfd026cf6" xlink:title=" ">
<polygon fill="white" stroke="black" points="1278,-454 1278,-473 1416,-473 1416,-454 1278,-454"/>
<text text-anchor="middle" x="1347" y="-461" font-family="Helvetica,sans-Serif" font-size="10.00">JoyButton::findJoySlotsEnd</text>
</a>
</g>
</g>
<!-- Node7&#45;&gt;Node8 -->
<g id="edge7" class="edge">
<title>Node7&#45;&gt;Node8</title>
<path fill="none" stroke="midnightblue" d="M1218.63,-380.62C1226.26,-383.57 1233.95,-386.88 1241,-390.5 1272.8,-406.82 1306.13,-431.49 1326.49,-447.55"/>
<polygon fill="midnightblue" stroke="midnightblue" points="1324.38,-450.34 1334.38,-453.85 1328.75,-444.87 1324.38,-450.34"/>
</g>
<!-- Node9 -->
<g id="node9" class="node">
<title>Node9</title>
<g id="a_node9"><a xlink:href="$classJoyButtonSlot.html#a6e10409ded595380cbdcfd5c827ab32a" xlink:title=" ">
<polygon fill="white" stroke="black" points="1277,-356 1277,-375 1417,-375 1417,-356 1277,-356"/>
<text text-anchor="middle" x="1347" y="-363" font-family="Helvetica,sans-Serif" font-size="10.00">JoyButtonSlot::getSlotString</text>
</a>
</g>
</g>
<!-- Node7&#45;&gt;Node9 -->
<g id="edge8" class="edge">
<title>Node7&#45;&gt;Node9</title>
<path fill="none" stroke="midnightblue" d="M1237.6,-365.5C1247.15,-365.5 1257.05,-365.5 1266.81,-365.5"/>
<polygon fill="midnightblue" stroke="midnightblue" points="1266.9,-369 1276.9,-365.5 1266.9,-362 1266.9,-369"/>
</g>
<!-- Node9&#45;&gt;Node10 -->
<g id="edge9" class="edge">
<title>Node9&#45;&gt;Node10</title>
<path fill="none" stroke="midnightblue" d="M1388.03,-355.95C1415.84,-349.32 1453.08,-340.44 1482.78,-333.36"/>
<polygon fill="midnightblue" stroke="midnightblue" points="1483.63,-336.75 1492.54,-331.03 1482.01,-329.94 1483.63,-336.75"/>
</g>
<!-- Node12 -->
<g id="node12" class="node">
<title>Node12</title>
<g id="a_node12"><a xlink:href="$namespacePadderCommon.html#aaa09739d2df84421a5a3467a06ce941c" xlink:title="Returns the &quot;human&#45;readable&quot; name of the given profile.">
<polygon fill="white" stroke="black" points="1453,-391 1453,-410 1614,-410 1614,-391 1453,-391"/>
<text text-anchor="middle" x="1533.5" y="-398" font-family="Helvetica,sans-Serif" font-size="10.00">PadderCommon::getProfileName</text>
</a>
</g>
</g>
<!-- Node9&#45;&gt;Node12 -->
<g id="edge11" class="edge">
<title>Node9&#45;&gt;Node12</title>
<path fill="none" stroke="midnightblue" d="M1398.42,-375.06C1421.19,-379.39 1448.29,-384.53 1472.14,-389.05"/>
<polygon fill="midnightblue" stroke="midnightblue" points="1471.67,-392.52 1482.15,-390.95 1472.97,-385.65 1471.67,-392.52"/>
</g>
<!-- Node13 -->
<g id="node13" class="node">
<title>Node13</title>
<g id="a_node13"><a xlink:href="$event_8cpp.html#a76ce89b71143c1c09343f45f038b4a67" xlink:title=" ">
<polygon fill="white" stroke="black" points="1483,-353 1483,-372 1584,-372 1584,-353 1483,-353"/>
<text text-anchor="middle" x="1533.5" y="-360" font-family="Helvetica,sans-Serif" font-size="10.00">keysymToKeyString</text>
</a>
</g>
</g>
<!-- Node9&#45;&gt;Node13 -->
<g id="edge12" class="edge">
<title>Node9&#45;&gt;Node13</title>
<path fill="none" stroke="midnightblue" d="M1417.23,-364.37C1435.43,-364.08 1454.92,-363.76 1472.59,-363.47"/>
<polygon fill="midnightblue" stroke="midnightblue" points="1472.82,-366.97 1482.76,-363.31 1472.7,-359.97 1472.82,-366.97"/>
</g>
<!-- Node34 -->
<g id="node34" class="node">
<title>Node34</title>
<g id="a_node34"><a xlink:href="$classJoyButtonSlot.html#a37ff2b523177bae4ea6a44b82f2973eb" xlink:title=" ">
<polygon fill="white" stroke="black" points="1456,-429 1456,-448 1611,-448 1611,-429 1456,-429"/>
<text text-anchor="middle" x="1533.5" y="-436" font-family="Helvetica,sans-Serif" font-size="10.00">JoyButtonSlot::movementString</text>
</a>
</g>
</g>
<!-- Node9&#45;&gt;Node34 -->
<g id="edge41" class="edge">
<title>Node9&#45;&gt;Node34</title>
<path fill="none" stroke="midnightblue" d="M1363.82,-375.17C1383.9,-387.09 1419.94,-407.25 1453,-419.5 1459.86,-422.04 1467.18,-424.33 1474.5,-426.37"/>
<polygon fill="midnightblue" stroke="midnightblue" points="1473.88,-429.82 1484.44,-428.98 1475.66,-423.05 1473.88,-429.82"/>
</g>
<!-- Node11 -->
<g id="node11" class="node">
<title>Node11</title>
<g id="a_node11"><a xlink:href="$classJoyButtonSlot.html#a9ba9cb0dda063a7df5575072c0aabe01" xlink:title=" ">
<polygon fill="white" stroke="black" points="1650,-0.5 1650,-30.5 1779,-30.5 1779,-0.5 1650,-0.5"/>
<text text-anchor="start" x="1658" y="-18.5" font-family="Helvetica,sans-Serif" font-size="10.00">JoyButtonSlot::secureMix</text>
<text text-anchor="middle" x="1714.5" y="-7.5" font-family="Helvetica,sans-Serif" font-size="10.00">SlotsInit</text>
</a>
</g>
</g>
<!-- Node10&#45;&gt;Node11 -->
<g id="edge10" class="edge">
<title>Node10&#45;&gt;Node11</title>
<path fill="none" stroke="midnightblue" d="M1535.98,-311.83C1542.36,-273.22 1570.86,-128.29 1650,-45.5 1653.4,-41.94 1657.31,-38.76 1661.48,-35.92"/>
<polygon fill="midnightblue" stroke="midnightblue" points="1663.58,-38.74 1670.33,-30.58 1659.96,-32.75 1663.58,-38.74"/>
</g>
<!-- Node14 -->
<g id="node14" class="node">
<title>Node14</title>
<g id="a_node14"><a xlink:href="$classX11Extras.html#a643c95dc1de8eb073a0accb41619fe83" xlink:title="Get display instance.">
<polygon fill="white" stroke="black" points="1843,-465 1843,-484 1942,-484 1942,-465 1843,-465"/>
<text text-anchor="middle" x="1892.5" y="-472" font-family="Helvetica,sans-Serif" font-size="10.00">X11Extras::display</text>
</a>
</g>
</g>
<!-- Node13&#45;&gt;Node14 -->
<g id="edge13" class="edge">
<title>Node13&#45;&gt;Node14</title>
<path fill="none" stroke="midnightblue" d="M1584.32,-370.19C1594.51,-372.91 1604.89,-376.57 1614,-381.5 1633.36,-391.97 1630.67,-404.98 1650,-415.5 1707.46,-446.76 1781.53,-461.68 1832.4,-468.66"/>
<polygon fill="midnightblue" stroke="midnightblue" points="1832.2,-472.16 1842.57,-469.99 1833.11,-465.22 1832.2,-472.16"/>
</g>
<!-- Node15 -->
<g id="node15" class="node">
<title>Node15</title>
<g id="a_node15"><a xlink:href="$classBaseEventHandler.html#a9a014e472ec57408d16b8b5eed964e90" xlink:title=" ">
<polygon fill="white" stroke="black" points="1815,-427 1815,-446 1970,-446 1970,-427 1815,-427"/>
<text text-anchor="middle" x="1892.5" y="-434" font-family="Helvetica,sans-Serif" font-size="10.00">BaseEventHandler::getIdentifier</text>
</a>
</g>
</g>
<!-- Node13&#45;&gt;Node15 -->
<g id="edge14" class="edge">
<title>Node13&#45;&gt;Node15</title>
<path fill="none" stroke="midnightblue" d="M1580.44,-372.02C1645.69,-385.55 1765.06,-410.29 1835.44,-424.88"/>
<polygon fill="midnightblue" stroke="midnightblue" points="1834.95,-428.35 1845.45,-426.96 1836.37,-421.5 1834.95,-428.35"/>
</g>
<!-- Node16 -->
<g id="node16" class="node">
<title>Node16</title>
<g id="a_node16"><a xlink:href="$classEventHandlerFactory.html#a90ce153a19fbb91128bd52eb083ce271" xlink:title=" ">
<polygon fill="white" stroke="black" points="1838,-203.5 1838,-233.5 1947,-233.5 1947,-203.5 1838,-203.5"/>
<text text-anchor="start" x="1846" y="-221.5" font-family="Helvetica,sans-Serif" font-size="10.00">EventHandlerFactory</text>
<text text-anchor="middle" x="1892.5" y="-210.5" font-family="Helvetica,sans-Serif" font-size="10.00">::getInstance</text>
</a>
</g>
</g>
<!-- Node13&#45;&gt;Node16 -->
<g id="edge15" class="edge">
<title>Node13&#45;&gt;Node16</title>
<path fill="none" stroke="midnightblue" d="M1573.26,-352.97C1586.33,-349.45 1600.91,-345.16 1614,-340.5 1700.99,-309.52 1799.1,-263.7 1852.22,-237.93"/>
<polygon fill="midnightblue" stroke="midnightblue" points="1853.83,-241.04 1861.29,-233.51 1850.76,-234.74 1853.83,-241.04"/>
</g>
<!-- Node19 -->
<g id="node19" class="node">
<title>Node19</title>
<g id="a_node19"><a xlink:href="$classEventHandlerFactory.html#a4c13007f0ece5bf881080c9c04f1f20d" xlink:title=" ">
<polygon fill="white" stroke="black" points="2199,-135.5 2199,-165.5 2308,-165.5 2308,-135.5 2199,-135.5"/>
<text text-anchor="start" x="2207" y="-153.5" font-family="Helvetica,sans-Serif" font-size="10.00">EventHandlerFactory</text>
<text text-anchor="middle" x="2253.5" y="-142.5" font-family="Helvetica,sans-Serif" font-size="10.00">::handler</text>
</a>
</g>
</g>
<!-- Node13&#45;&gt;Node19 -->
<g id="edge24" class="edge">
<title>Node13&#45;&gt;Node19</title>
<path fill="none" stroke="midnightblue" d="M1584.17,-355.44C1594.82,-352.19 1605.43,-347.43 1614,-340.5 1640.9,-318.75 1625.74,-296.15 1650,-271.5 1776.25,-143.23 1831.55,-122.75 2006,-78.5 2065.45,-63.42 2085.28,-60.79 2144,-78.5 2176.48,-88.3 2208.17,-111.35 2228.83,-128.75"/>
<polygon fill="midnightblue" stroke="midnightblue" points="2226.6,-131.45 2236.45,-135.34 2231.17,-126.15 2226.6,-131.45"/>
</g>
<!-- Node21 -->
<g id="node21" class="node">
<title>Node21</title>
<g id="a_node21"><a xlink:href="$classX11Extras.html#ace76277fced60e6bd6ff880030338182" xlink:title=" ">
<polygon fill="white" stroke="black" points="1833,-503 1833,-522 1952,-522 1952,-503 1833,-503"/>
<text text-anchor="middle" x="1892.5" y="-510" font-family="Helvetica,sans-Serif" font-size="10.00">X11Extras::getInstance</text>
</a>
</g>
</g>
<!-- Node13&#45;&gt;Node21 -->
<g id="edge21" class="edge">
<title>Node13&#45;&gt;Node21</title>
<path fill="none" stroke="midnightblue" d="M1584.11,-367.52C1594.76,-370.39 1605.38,-374.78 1614,-381.5 1641.28,-402.77 1622.94,-428.95 1650,-450.5 1699.21,-489.68 1770.36,-504.36 1822.7,-509.72"/>
<polygon fill="midnightblue" stroke="midnightblue" points="1822.62,-513.23 1832.9,-510.68 1823.27,-506.26 1822.62,-513.23"/>
</g>
<!-- Node24 -->
<g id="node24" class="node">
<title>Node24</title>
<g id="a_node24"><a xlink:href="$event_8cpp.html#ad239a34cab482dc3cad5a23a9ac1ad78" xlink:title=" ">
<polygon fill="white" stroke="black" points="1662.5,-353 1662.5,-372 1766.5,-372 1766.5,-353 1662.5,-353"/>
<text text-anchor="middle" x="1714.5" y="-360" font-family="Helvetica,sans-Serif" font-size="10.00">keycodeToKeyString</text>
</a>
</g>
</g>
<!-- Node13&#45;&gt;Node24 -->
<g id="edge25" class="edge">
<title>Node13&#45;&gt;Node24</title>
<path fill="none" stroke="midnightblue" d="M1584.36,-362.5C1605.35,-362.5 1629.98,-362.5 1652.07,-362.5"/>
<polygon fill="midnightblue" stroke="midnightblue" points="1652.35,-366 1662.35,-362.5 1652.35,-359 1652.35,-366"/>
</g>
<!-- Node17 -->
<g id="node17" class="node">
<title>Node17</title>
<g id="a_node17"><a xlink:href="$classEventHandlerFactory.html#ade5162034acc0f8683725fdb124bece0" xlink:title=" ">
<polygon fill="white" stroke="black" points="2012,-225.5 2012,-255.5 2138,-255.5 2138,-225.5 2012,-225.5"/>
<text text-anchor="start" x="2020" y="-243.5" font-family="Helvetica,sans-Serif" font-size="10.00">EventHandlerFactory</text>
<text text-anchor="middle" x="2075" y="-232.5" font-family="Helvetica,sans-Serif" font-size="10.00">::buildEventGeneratorList</text>
</a>
</g>
</g>
<!-- Node16&#45;&gt;Node17 -->
<g id="edge16" class="edge">
<title>Node16&#45;&gt;Node17</title>
<path fill="none" stroke="midnightblue" d="M1947.17,-225.04C1964.35,-227.14 1983.67,-229.49 2001.95,-231.72"/>
<polygon fill="midnightblue" stroke="midnightblue" points="2001.62,-235.2 2011.97,-232.94 2002.47,-228.26 2001.62,-235.2"/>
</g>
<!-- Node18 -->
<g id="node18" class="node">
<title>Node18</title>
<g id="a_node18"><a xlink:href="$classEventHandlerFactory.html#a2f843293b2ea47271fc7bd99bd871fa6" xlink:title=" ">
<polygon fill="white" stroke="black" points="2017.5,-88.5 2017.5,-118.5 2132.5,-118.5 2132.5,-88.5 2017.5,-88.5"/>
<text text-anchor="start" x="2025.5" y="-106.5" font-family="Helvetica,sans-Serif" font-size="10.00">EventHandlerFactory</text>
<text text-anchor="middle" x="2075" y="-95.5" font-family="Helvetica,sans-Serif" font-size="10.00">::EventHandlerFactory</text>
</a>
</g>
</g>
<!-- Node16&#45;&gt;Node18 -->
<g id="edge17" class="edge">
<title>Node16&#45;&gt;Node18</title>
<path fill="none" stroke="midnightblue" d="M1908.64,-203.38C1929.15,-183.6 1967.63,-148.95 2006,-127.5 2009.04,-125.8 2012.23,-124.18 2015.49,-122.66"/>
<polygon fill="midnightblue" stroke="midnightblue" points="2017.06,-125.79 2024.82,-118.59 2014.26,-119.38 2017.06,-125.79"/>
</g>
<!-- Node16&#45;&gt;Node19 -->
<g id="edge20" class="edge">
<title>Node16&#45;&gt;Node19</title>
<path fill="none" stroke="midnightblue" d="M1947.45,-210.56C1998.32,-202.81 2076.59,-190.21 2144,-176.5 2158.57,-173.54 2174.17,-170.01 2188.85,-166.53"/>
<polygon fill="midnightblue" stroke="midnightblue" points="2189.95,-169.87 2198.86,-164.13 2188.31,-163.06 2189.95,-169.87"/>
</g>
<!-- Node20 -->
<g id="node20" class="node">
<title>Node20</title>
<g id="a_node20"><a xlink:href="$classEventHandlerFactory.html#afa5ca0171c70b1a24f92b5c8dd00dc92" xlink:title=" ">
<polygon fill="white" stroke="black" points="2020.5,-137.5 2020.5,-167.5 2129.5,-167.5 2129.5,-137.5 2020.5,-137.5"/>
<text text-anchor="start" x="2028.5" y="-155.5" font-family="Helvetica,sans-Serif" font-size="10.00">EventHandlerFactory</text>
<text text-anchor="middle" x="2075" y="-144.5" font-family="Helvetica,sans-Serif" font-size="10.00">::fallBackIdentifier</text>
</a>
</g>
</g>
<!-- Node16&#45;&gt;Node20 -->
<g id="edge19" class="edge">
<title>Node16&#45;&gt;Node20</title>
<path fill="none" stroke="midnightblue" d="M1934.91,-203.36C1961.17,-193.76 1995.31,-181.27 2023.2,-171.07"/>
<polygon fill="midnightblue" stroke="midnightblue" points="2024.59,-174.29 2032.78,-167.57 2022.19,-167.72 2024.59,-174.29"/>
</g>
<!-- Node18&#45;&gt;Node19 -->
<g id="edge18" class="edge">
<title>Node18&#45;&gt;Node19</title>
<path fill="none" stroke="midnightblue" d="M2132.33,-118.5C2150.38,-123.31 2170.48,-128.66 2189,-133.59"/>
<polygon fill="midnightblue" stroke="midnightblue" points="2188.24,-137.01 2198.81,-136.2 2190.04,-130.25 2188.24,-137.01"/>
</g>
<!-- Node22 -->
<g id="node22" class="node">
<title>Node22</title>
<g id="a_node22"><a xlink:href="$classX11Extras.html#ab9bcb016e23bacb0e988feb8175d2c88" xlink:title=" ">
<polygon fill="white" stroke="black" points="2018,-503 2018,-522 2132,-522 2132,-503 2018,-503"/>
<text text-anchor="middle" x="2075" y="-510" font-family="Helvetica,sans-Serif" font-size="10.00">X11Extras::X11Extras</text>
</a>
</g>
</g>
<!-- Node21&#45;&gt;Node22 -->
<g id="edge22" class="edge">
<title>Node21&#45;&gt;Node22</title>
<path fill="none" stroke="midnightblue" d="M1952.1,-512.5C1969.83,-512.5 1989.41,-512.5 2007.61,-512.5"/>
<polygon fill="midnightblue" stroke="midnightblue" points="2007.84,-516 2017.84,-512.5 2007.84,-509 2007.84,-516"/>
</g>
<!-- Node23 -->
<g id="node23" class="node">
<title>Node23</title>
<g id="a_node23"><a xlink:href="$classX11Extras.html#a6f63e77ed045e174546d77333672b8f0" xlink:title=" ">
<polygon fill="white" stroke="black" points="2186,-497.5 2186,-527.5 2321,-527.5 2321,-497.5 2186,-497.5"/>
<text text-anchor="start" x="2194" y="-515.5" font-family="Helvetica,sans-Serif" font-size="10.00">X11Extras::populateKnown</text>
<text text-anchor="middle" x="2253.5" y="-504.5" font-family="Helvetica,sans-Serif" font-size="10.00">Aliases</text>
</a>
</g>
</g>
<!-- Node22&#45;&gt;Node23 -->
<g id="edge23" class="edge">
<title>Node22&#45;&gt;Node23</title>
<path fill="none" stroke="midnightblue" d="M2132.33,-512.5C2146.18,-512.5 2161.25,-512.5 2175.88,-512.5"/>
<polygon fill="midnightblue" stroke="midnightblue" points="2175.92,-516 2185.92,-512.5 2175.92,-509 2175.92,-516"/>
</g>
<!-- Node24&#45;&gt;Node14 -->
<g id="edge26" class="edge">
<title>Node24&#45;&gt;Node14</title>
<path fill="none" stroke="midnightblue" d="M1722.85,-372.08C1737.96,-391.05 1774.48,-433.49 1815,-455.5 1820.6,-458.54 1826.7,-461.11 1832.93,-463.27"/>
<polygon fill="midnightblue" stroke="midnightblue" points="1832.18,-466.7 1842.77,-466.34 1834.26,-460.02 1832.18,-466.7"/>
</g>
<!-- Node24&#45;&gt;Node15 -->
<g id="edge30" class="edge">
<title>Node24&#45;&gt;Node15</title>
<path fill="none" stroke="midnightblue" d="M1732.37,-372.03C1751.85,-382.8 1785.08,-400.38 1815,-412.5 1825.27,-416.66 1836.56,-420.55 1847.23,-423.95"/>
<polygon fill="midnightblue" stroke="midnightblue" points="1846.22,-427.3 1856.81,-426.91 1848.29,-420.61 1846.22,-427.3"/>
</g>
<!-- Node24&#45;&gt;Node16 -->
<g id="edge38" class="edge">
<title>Node24&#45;&gt;Node16</title>
<path fill="none" stroke="midnightblue" d="M1724.95,-352.85C1742.15,-335.52 1780.01,-298.32 1815,-270.5 1828.82,-259.52 1844.87,-248.38 1858.7,-239.24"/>
<polygon fill="midnightblue" stroke="midnightblue" points="1860.96,-241.95 1867.41,-233.55 1857.13,-236.09 1860.96,-241.95"/>
</g>
<!-- Node24&#45;&gt;Node19 -->
<g id="edge40" class="edge">
<title>Node24&#45;&gt;Node19</title>
<path fill="none" stroke="midnightblue" d="M1727.85,-352.83C1745.87,-339.28 1780.95,-315.03 1815,-303.5 1954.46,-256.26 2012.33,-330.4 2144,-264.5 2185.05,-243.95 2218.95,-201.28 2237.41,-174.36"/>
<polygon fill="midnightblue" stroke="midnightblue" points="2240.42,-176.16 2243.06,-165.9 2234.6,-172.27 2240.42,-176.16"/>
</g>
<!-- Node24&#45;&gt;Node21 -->
<g id="edge39" class="edge">
<title>Node24&#45;&gt;Node21</title>
<path fill="none" stroke="midnightblue" d="M1719.95,-372.19C1731.71,-396.67 1766.1,-461.3 1815,-493.5 1818.16,-495.58 1821.52,-497.43 1825.02,-499.08"/>
<polygon fill="midnightblue" stroke="midnightblue" points="1823.93,-502.42 1834.51,-502.99 1826.6,-495.94 1823.93,-502.42"/>
</g>
<!-- Node25 -->
<g id="node25" class="node">
<title>Node25</title>
<g id="a_node25"><a xlink:href="$classUInputHelper.html#ac4c70c9479c1cc0eb515ab1bdf2426f5" xlink:title=" ">
<polygon fill="white" stroke="black" points="2190,-383.5 2190,-413.5 2317,-413.5 2317,-383.5 2190,-383.5"/>
<text text-anchor="start" x="2198" y="-401.5" font-family="Helvetica,sans-Serif" font-size="10.00">UInputHelper::getDisplay</text>
<text text-anchor="middle" x="2253.5" y="-390.5" font-family="Helvetica,sans-Serif" font-size="10.00">String</text>
</a>
</g>
</g>
<!-- Node24&#45;&gt;Node25 -->
<g id="edge27" class="edge">
<title>Node24&#45;&gt;Node25</title>
<path fill="none" stroke="midnightblue" d="M1763.91,-372.03C1780.1,-374.88 1798.27,-377.71 1815,-379.5 1942.8,-393.14 2092.6,-397.05 2179.61,-398.13"/>
<polygon fill="midnightblue" stroke="midnightblue" points="2179.61,-401.63 2189.65,-398.25 2179.69,-394.63 2179.61,-401.63"/>
</g>
<!-- Node27 -->
<g id="node27" class="node">
<title>Node27</title>
<g id="a_node27"><a xlink:href="$classX11Extras.html#abe710bac948c9802105a2d9d06815cac" xlink:title="Get appropriate alias for a known KeySym string that might be blank or contain invalid characters whe...">
<polygon fill="white" stroke="black" points="1822.5,-351 1822.5,-370 1962.5,-370 1962.5,-351 1822.5,-351"/>
<text text-anchor="middle" x="1892.5" y="-358" font-family="Helvetica,sans-Serif" font-size="10.00">X11Extras::getDisplayString</text>
</a>
</g>
</g>
<!-- Node24&#45;&gt;Node27 -->
<g id="edge29" class="edge">
<title>Node24&#45;&gt;Node27</title>
<path fill="none" stroke="midnightblue" d="M1766.88,-361.92C1781.11,-361.75 1796.9,-361.57 1812.32,-361.4"/>
<polygon fill="midnightblue" stroke="midnightblue" points="1812.43,-364.9 1822.39,-361.29 1812.35,-357.9 1812.43,-364.9"/>
</g>
<!-- Node28 -->
<g id="node28" class="node">
<title>Node28</title>
<g id="a_node28"><a xlink:href="$classUInputHelper.html#a61509601d3dbd8933aaa26c1e2db02f6" xlink:title=" ">
<polygon fill="white" stroke="black" points="1827,-313 1827,-332 1958,-332 1958,-313 1827,-313"/>
<text text-anchor="middle" x="1892.5" y="-320" font-family="Helvetica,sans-Serif" font-size="10.00">UInputHelper::getInstance</text>
</a>
</g>
</g>
<!-- Node24&#45;&gt;Node28 -->
<g id="edge31" class="edge">
<title>Node24&#45;&gt;Node28</title>
<path fill="none" stroke="midnightblue" d="M1757.66,-352.92C1782.26,-347.33 1813.49,-340.23 1839.59,-334.3"/>
<polygon fill="midnightblue" stroke="midnightblue" points="1840.71,-337.63 1849.69,-332 1839.16,-330.81 1840.71,-337.63"/>
</g>
<!-- Node26 -->
<g id="node26" class="node">
<title>Node26</title>
<g id="a_node26"><a xlink:href="$classUInputHelper.html#a043b0fa7cf4ce5811d01d95f3ca318b7" xlink:title=" ">
<polygon fill="white" stroke="black" points="2363,-383.5 2363,-413.5 2519,-413.5 2519,-383.5 2363,-383.5"/>
<text text-anchor="start" x="2371" y="-401.5" font-family="Helvetica,sans-Serif" font-size="10.00">UInputHelper::getKnownAliases</text>
<text text-anchor="middle" x="2441" y="-390.5" font-family="Helvetica,sans-Serif" font-size="10.00">VKStrings</text>
</a>
</g>
</g>
<!-- Node25&#45;&gt;Node26 -->
<g id="edge28" class="edge">
<title>Node25&#45;&gt;Node26</title>
<path fill="none" stroke="midnightblue" d="M2317.04,-398.5C2328.55,-398.5 2340.75,-398.5 2352.82,-398.5"/>
<polygon fill="midnightblue" stroke="midnightblue" points="2352.92,-402 2362.92,-398.5 2352.92,-395 2352.92,-402"/>
</g>
<!-- Node29 -->
<g id="node29" class="node">
<title>Node29</title>
<g id="a_node29"><a xlink:href="$classUInputHelper.html#a5d56d23a0e0202435c7a5ff1aca9ce55" xlink:title=" ">
<polygon fill="white" stroke="black" points="2006,-313 2006,-332 2144,-332 2144,-313 2006,-313"/>
<text text-anchor="middle" x="2075" y="-320" font-family="Helvetica,sans-Serif" font-size="10.00">UInputHelper::UInputHelper</text>
</a>
</g>
</g>
<!-- Node28&#45;&gt;Node29 -->
<g id="edge32" class="edge">
<title>Node28&#45;&gt;Node29</title>
<path fill="none" stroke="midnightblue" d="M1958.15,-322.5C1970.25,-322.5 1983.01,-322.5 1995.46,-322.5"/>
<polygon fill="midnightblue" stroke="midnightblue" points="1995.83,-326 2005.83,-322.5 1995.83,-319 1995.83,-326"/>
</g>
<!-- Node30 -->
<g id="node30" class="node">
<title>Node30</title>
<g id="a_node30"><a xlink:href="$classUInputHelper.html#a0f4dbb4221502d86f7d0af12a9865568" xlink:title=" ">
<polygon fill="white" stroke="black" points="2180,-307.5 2180,-337.5 2327,-337.5 2327,-307.5 2180,-307.5"/>
<text text-anchor="start" x="2188" y="-325.5" font-family="Helvetica,sans-Serif" font-size="10.00">UInputHelper::populateKnown</text>
<text text-anchor="middle" x="2253.5" y="-314.5" font-family="Helvetica,sans-Serif" font-size="10.00">Aliases</text>
</a>
</g>
</g>
<!-- Node29&#45;&gt;Node30 -->
<g id="edge33" class="edge">
<title>Node29&#45;&gt;Node30</title>
<path fill="none" stroke="midnightblue" d="M2144.24,-322.5C2152.52,-322.5 2161.04,-322.5 2169.5,-322.5"/>
<polygon fill="midnightblue" stroke="midnightblue" points="2169.76,-326 2179.76,-322.5 2169.76,-319 2169.76,-326"/>
</g>
<!-- Node30&#45;&gt;Node26 -->
<g id="edge34" class="edge">
<title>Node30&#45;&gt;Node26</title>
<path fill="none" stroke="midnightblue" d="M2283.99,-337.59C2305.57,-348.33 2335.71,-362.71 2363,-373.5 2368.75,-375.77 2374.79,-378 2380.86,-380.14"/>
<polygon fill="midnightblue" stroke="midnightblue" points="2379.79,-383.47 2390.38,-383.4 2382.06,-376.85 2379.79,-383.47"/>
</g>
<!-- Node31 -->
<g id="node31" class="node">
<title>Node31</title>
<g id="a_node31"><a xlink:href="$classUInputHelper.html#a8f3fe71ae635cd3c46eaab79dd11c2e0" xlink:title=" ">
<polygon fill="white" stroke="black" points="2363,-285.5 2363,-315.5 2519,-315.5 2519,-285.5 2363,-285.5"/>
<text text-anchor="start" x="2371" y="-303.5" font-family="Helvetica,sans-Serif" font-size="10.00">UInputHelper::getKnownAliases</text>
<text text-anchor="middle" x="2441" y="-292.5" font-family="Helvetica,sans-Serif" font-size="10.00">X11SymVK</text>
</a>
</g>
</g>
<!-- Node30&#45;&gt;Node31 -->
<g id="edge35" class="edge">
<title>Node30&#45;&gt;Node31</title>
<path fill="none" stroke="midnightblue" d="M2327.02,-313.9C2335.49,-312.89 2344.2,-311.86 2352.84,-310.84"/>
<polygon fill="midnightblue" stroke="midnightblue" points="2353.42,-314.29 2362.94,-309.64 2352.6,-307.34 2353.42,-314.29"/>
</g>
<!-- Node32 -->
<g id="node32" class="node">
<title>Node32</title>
<g id="a_node32"><a xlink:href="$classUInputHelper.html#a9793030329fbbe1106b255814ef2bd0f" xlink:title=" ">
<polygon fill="white" stroke="black" points="2374,-236.5 2374,-266.5 2508,-266.5 2508,-236.5 2374,-236.5"/>
<text text-anchor="start" x="2382" y="-254.5" font-family="Helvetica,sans-Serif" font-size="10.00">UInputHelper::populateX11</text>
<text text-anchor="middle" x="2441" y="-243.5" font-family="Helvetica,sans-Serif" font-size="10.00">SymVk</text>
</a>
</g>
</g>
<!-- Node30&#45;&gt;Node32 -->
<g id="edge36" class="edge">
<title>Node30&#45;&gt;Node32</title>
<path fill="none" stroke="midnightblue" d="M2286.89,-307.39C2308.27,-297.69 2337.02,-285.14 2363,-275.5 2368.17,-273.58 2373.57,-271.68 2379.01,-269.85"/>
<polygon fill="midnightblue" stroke="midnightblue" points="2380.4,-273.08 2388.8,-266.62 2378.2,-266.43 2380.4,-273.08"/>
</g>
<!-- Node33 -->
<g id="node33" class="node">
<title>Node33</title>
<g id="a_node33"><a xlink:href="$classUInputHelper.html#af02574de230bb0550eebb63f5a669681" xlink:title=" ">
<polygon fill="white" stroke="black" points="2373,-334.5 2373,-364.5 2509,-364.5 2509,-334.5 2373,-334.5"/>
<text text-anchor="start" x="2381" y="-352.5" font-family="Helvetica,sans-Serif" font-size="10.00">UInputHelper::populateXVk</text>
<text text-anchor="middle" x="2441" y="-341.5" font-family="Helvetica,sans-Serif" font-size="10.00">Strings</text>
</a>
</g>
</g>
<!-- Node30&#45;&gt;Node33 -->
<g id="edge37" class="edge">
<title>Node30&#45;&gt;Node33</title>
<path fill="none" stroke="midnightblue" d="M2327.02,-333.05C2338.84,-334.78 2351.14,-336.57 2363.07,-338.3"/>
<polygon fill="midnightblue" stroke="midnightblue" points="2362.58,-341.77 2372.98,-339.75 2363.59,-334.84 2362.58,-341.77"/>
</g>
<!-- Node38&#45;&gt;Node8 -->
<g id="edge47" class="edge">
<title>Node38&#45;&gt;Node8</title>
<path fill="none" stroke="midnightblue" d="M1031.21,-495.05C1081.07,-505.26 1167.92,-518.26 1241,-504.5 1268.39,-499.34 1297.81,-487.23 1318.52,-477.5"/>
<polygon fill="midnightblue" stroke="midnightblue" points="1320.17,-480.59 1327.66,-473.09 1317.13,-474.28 1320.17,-480.59"/>
</g>
<!-- Node38&#45;&gt;Node35 -->
<g id="edge48" class="edge">
<title>Node38&#45;&gt;Node35</title>
<path fill="none" stroke="midnightblue" d="M1035.42,-475.91C1059.33,-470.81 1088.92,-464.49 1114.12,-459.11"/>
<polygon fill="midnightblue" stroke="midnightblue" points="1114.86,-462.53 1123.91,-457.02 1113.4,-455.69 1114.86,-462.53"/>
</g>
<!-- Node38&#45;&gt;Node36 -->
<g id="edge50" class="edge">
<title>Node38&#45;&gt;Node36</title>
<path fill="none" stroke="midnightblue" d="M1062.13,-485.5C1071.18,-485.5 1080.49,-485.5 1089.65,-485.5"/>
<polygon fill="midnightblue" stroke="midnightblue" points="1089.9,-489 1099.9,-485.5 1089.9,-482 1089.9,-489"/>
</g>
<!-- Node39 -->
<g id="node39" class="node">
<title>Node39</title>
<g id="a_node39"><a xlink:href="$classJoyButton.html#ae1d364dfa70f47fae3db99ffbcdea44b" xlink:title=" ">
<polygon fill="white" stroke="black" points="1098,-552 1098,-571 1241,-571 1241,-552 1098,-552"/>
<text text-anchor="middle" x="1169.5" y="-559" font-family="Helvetica,sans-Serif" font-size="10.00">JoyButton::getAssignedSlots</text>
</a>
</g>
</g>
<!-- Node38&#45;&gt;Node39 -->
<g id="edge49" class="edge">
<title>Node38&#45;&gt;Node39</title>
<path fill="none" stroke="midnightblue" d="M1008.45,-495.02C1029.55,-506.02 1065.78,-524.28 1098,-537.5 1107.6,-541.44 1118.11,-545.27 1128.01,-548.67"/>
<polygon fill="midnightblue" stroke="midnightblue" points="1127.07,-552.04 1137.66,-551.91 1129.3,-545.4 1127.07,-552.04"/>
</g>
<!-- Node42&#45;&gt;Node4 -->
<g id="edge54" class="edge">
<title>Node42&#45;&gt;Node4</title>
<path fill="none" stroke="midnightblue" d="M507.19,-458.91C526.15,-455.06 548.51,-450.51 569.72,-446.2"/>
<polygon fill="midnightblue" stroke="midnightblue" points="570.59,-449.6 579.7,-444.18 569.2,-442.74 570.59,-449.6"/>
</g>
</g>
</svg>
