<?xml version="1.0" encoding="UTF-8" standalone="no"?>
<!DOCTYPE svg PUBLIC "-//W3C//DTD SVG 1.1//EN"
 "http://www.w3.org/Graphics/SVG/1.1/DTD/svg11.dtd">
<!-- Generated by graphviz version 2.43.0 (0)
 -->
<!-- Title: GameControllerTriggerXml::writeConfig Pages: 1 -->
<svg width="1229pt" height="1574pt"
 viewBox="0.00 0.00 1229.00 1574.00" xmlns="http://www.w3.org/2000/svg" xmlns:xlink="http://www.w3.org/1999/xlink">
<g id="graph0" class="graph" transform="scale(1 1) rotate(0) translate(4 1570)">
<title>GameControllerTriggerXml::writeConfig</title>
<polygon fill="white" stroke="transparent" points="-4,4 -4,-1570 1225,-1570 1225,4 -4,4"/>
<!-- Node1 -->
<g id="node1" class="node">
<title>Node1</title>
<g id="a_node1"><a xlink:title=" ">
<polygon fill="#bfbfbf" stroke="black" points="0,-1427 0,-1457 131,-1457 131,-1427 0,-1427"/>
<text text-anchor="start" x="8" y="-1445" font-family="Helvetica,sans-Serif" font-size="10.00">GameControllerTriggerXml</text>
<text text-anchor="middle" x="65.5" y="-1434" font-family="Helvetica,sans-Serif" font-size="10.00">::writeConfig</text>
</a>
</g>
</g>
<!-- Node2 -->
<g id="node2" class="node">
<title>Node2</title>
<g id="a_node2"><a xlink:href="classJoyAxis.html#aed3d513f19658dbe4a20b3df9858c3fe" target="_top" xlink:title=" ">
<polygon fill="white" stroke="black" points="177.5,-1546.5 177.5,-1565.5 293.5,-1565.5 293.5,-1546.5 177.5,-1546.5"/>
<text text-anchor="middle" x="235.5" y="-1553.5" font-family="Helvetica,sans-Serif" font-size="10.00">JoyAxis::getDeadZone</text>
</a>
</g>
</g>
<!-- Node1&#45;&gt;Node2 -->
<g id="edge1" class="edge">
<title>Node1&#45;&gt;Node2</title>
<path fill="none" stroke="midnightblue" d="M78.45,-1457.21C95.76,-1478.23 129.82,-1515.92 167,-1537 170.92,-1539.22 175.11,-1541.2 179.43,-1542.95"/>
<polygon fill="midnightblue" stroke="midnightblue" points="178.39,-1546.3 188.98,-1546.45 180.8,-1539.73 178.39,-1546.3"/>
</g>
<!-- Node3 -->
<g id="node3" class="node">
<title>Node3</title>
<g id="a_node3"><a xlink:href="classJoyAxis.html#aa083ec407f4510348833e3a7f5964892" target="_top" xlink:title=" ">
<polygon fill="white" stroke="black" points="167,-1508.5 167,-1527.5 304,-1527.5 304,-1508.5 167,-1508.5"/>
<text text-anchor="middle" x="235.5" y="-1515.5" font-family="Helvetica,sans-Serif" font-size="10.00">JoyAxis::getMaxZoneValue</text>
</a>
</g>
</g>
<!-- Node1&#45;&gt;Node3 -->
<g id="edge2" class="edge">
<title>Node1&#45;&gt;Node3</title>
<path fill="none" stroke="midnightblue" d="M89.24,-1457.02C109.1,-1469.6 139.05,-1487.34 167,-1499 172.54,-1501.31 178.46,-1503.44 184.39,-1505.36"/>
<polygon fill="midnightblue" stroke="midnightblue" points="183.75,-1508.83 194.34,-1508.42 185.8,-1502.14 183.75,-1508.83"/>
</g>
<!-- Node4 -->
<g id="node4" class="node">
<title>Node4</title>
<g id="a_node4"><a xlink:href="classJoyAxis.html#a9ceda991c13da3a99868acc436ed20f3" target="_top" xlink:title=" ">
<polygon fill="white" stroke="black" points="170,-1470.5 170,-1489.5 301,-1489.5 301,-1470.5 170,-1470.5"/>
<text text-anchor="middle" x="235.5" y="-1477.5" font-family="Helvetica,sans-Serif" font-size="10.00">JoyAxis::getRealJoyIndex</text>
</a>
</g>
</g>
<!-- Node1&#45;&gt;Node4 -->
<g id="edge3" class="edge">
<title>Node1&#45;&gt;Node4</title>
<path fill="none" stroke="midnightblue" d="M131.45,-1456.69C148.12,-1460.46 165.84,-1464.47 181.8,-1468.08"/>
<polygon fill="midnightblue" stroke="midnightblue" points="181.48,-1471.59 192,-1470.39 183.02,-1464.77 181.48,-1471.59"/>
</g>
<!-- Node5 -->
<g id="node5" class="node">
<title>Node5</title>
<g id="a_node5"><a xlink:href="classJoyAxis.html#a01dfb4ec2c2e85304a479f21b9cffe49" target="_top" xlink:title=" ">
<polygon fill="white" stroke="black" points="183.5,-1432.5 183.5,-1451.5 287.5,-1451.5 287.5,-1432.5 183.5,-1432.5"/>
<text text-anchor="middle" x="235.5" y="-1439.5" font-family="Helvetica,sans-Serif" font-size="10.00">JoyAxis::getThrottle</text>
</a>
</g>
</g>
<!-- Node1&#45;&gt;Node5 -->
<g id="edge4" class="edge">
<title>Node1&#45;&gt;Node5</title>
<path fill="none" stroke="midnightblue" d="M131.45,-1442C145.14,-1442 159.54,-1442 173.09,-1442"/>
<polygon fill="midnightblue" stroke="midnightblue" points="173.26,-1445.5 183.26,-1442 173.26,-1438.5 173.26,-1445.5"/>
</g>
<!-- Node6 -->
<g id="node6" class="node">
<title>Node6</title>
<g id="a_node6"><a xlink:href="classGameControllerTrigger.html#ac69da08d4ca21858436bf9ccc80b7df0" target="_top" xlink:title=" ">
<polygon fill="white" stroke="black" points="178.5,-1383 178.5,-1413 292.5,-1413 292.5,-1383 178.5,-1383"/>
<text text-anchor="start" x="186.5" y="-1401" font-family="Helvetica,sans-Serif" font-size="10.00">GameControllerTrigger</text>
<text text-anchor="middle" x="235.5" y="-1390" font-family="Helvetica,sans-Serif" font-size="10.00">::getXmlName</text>
</a>
</g>
</g>
<!-- Node1&#45;&gt;Node6 -->
<g id="edge5" class="edge">
<title>Node1&#45;&gt;Node6</title>
<path fill="none" stroke="midnightblue" d="M123.85,-1426.98C138.13,-1423.24 153.57,-1419.2 168.25,-1415.35"/>
<polygon fill="midnightblue" stroke="midnightblue" points="169.48,-1418.65 178.27,-1412.73 167.71,-1411.88 169.48,-1418.65"/>
</g>
<!-- Node7 -->
<g id="node7" class="node">
<title>Node7</title>
<g id="a_node7"><a xlink:href="classJoyAxis.html#ad614a1d4afe02119dfbd787ee89be66e" target="_top" xlink:title=" ">
<polygon fill="white" stroke="black" points="187,-1344.5 187,-1363.5 284,-1363.5 284,-1344.5 187,-1344.5"/>
<text text-anchor="middle" x="235.5" y="-1351.5" font-family="Helvetica,sans-Serif" font-size="10.00">JoyAxis::isDefault</text>
</a>
</g>
</g>
<!-- Node1&#45;&gt;Node7 -->
<g id="edge6" class="edge">
<title>Node1&#45;&gt;Node7</title>
<path fill="none" stroke="midnightblue" d="M85.08,-1426.84C104.49,-1411.65 136.33,-1388.49 167,-1374 172.73,-1371.29 178.91,-1368.86 185.11,-1366.71"/>
<polygon fill="midnightblue" stroke="midnightblue" points="186.41,-1369.97 194.84,-1363.55 184.24,-1363.31 186.41,-1369.97"/>
</g>
<!-- Node12 -->
<g id="node12" class="node">
<title>Node12</title>
<g id="a_node12"><a xlink:href="classJoyButtonXml.html#a766e87947104bfd54fc15b96b267ebdd" target="_top" xlink:title=" ">
<polygon fill="white" stroke="black" points="168.5,-682.5 168.5,-701.5 302.5,-701.5 302.5,-682.5 168.5,-682.5"/>
<text text-anchor="middle" x="235.5" y="-689.5" font-family="Helvetica,sans-Serif" font-size="10.00">JoyButtonXml::writeConfig</text>
</a>
</g>
</g>
<!-- Node1&#45;&gt;Node12 -->
<g id="edge11" class="edge">
<title>Node1&#45;&gt;Node12</title>
<path fill="none" stroke="midnightblue" d="M69.93,-1426.68C91.3,-1331.26 206.04,-819.07 230.08,-711.74"/>
<polygon fill="midnightblue" stroke="midnightblue" points="233.57,-712.18 232.34,-701.65 226.74,-710.65 233.57,-712.18"/>
</g>
<!-- Node8 -->
<g id="node8" class="node">
<title>Node8</title>
<g id="a_node8"><a xlink:href="classJoyAxis.html#a8552b6736231d1611c8809602e189d68" target="_top" xlink:title=" ">
<polygon fill="white" stroke="black" points="351,-1401.5 351,-1420.5 499,-1420.5 499,-1401.5 351,-1401.5"/>
<text text-anchor="middle" x="425" y="-1408.5" font-family="Helvetica,sans-Serif" font-size="10.00">JoyAxis::getDefaultDeadZone</text>
</a>
</g>
</g>
<!-- Node7&#45;&gt;Node8 -->
<g id="edge7" class="edge">
<title>Node7&#45;&gt;Node8</title>
<path fill="none" stroke="midnightblue" d="M272.98,-1363.54C283.14,-1366.54 294.11,-1370.1 304,-1374 320.64,-1380.57 323.15,-1385.98 340,-1392 347.33,-1394.62 355.14,-1396.95 362.95,-1399.02"/>
<polygon fill="midnightblue" stroke="midnightblue" points="362.25,-1402.45 372.8,-1401.49 363.95,-1395.66 362.25,-1402.45"/>
</g>
<!-- Node9 -->
<g id="node9" class="node">
<title>Node9</title>
<g id="a_node9"><a xlink:href="classJoyAxis.html#a61149f5541d5dc820ae2a04a6ca9af68" target="_top" xlink:title=" ">
<polygon fill="white" stroke="black" points="353,-1363.5 353,-1382.5 497,-1382.5 497,-1363.5 353,-1363.5"/>
<text text-anchor="middle" x="425" y="-1370.5" font-family="Helvetica,sans-Serif" font-size="10.00">JoyAxis::getDefaultMaxZone</text>
</a>
</g>
</g>
<!-- Node7&#45;&gt;Node9 -->
<g id="edge8" class="edge">
<title>Node7&#45;&gt;Node9</title>
<path fill="none" stroke="midnightblue" d="M284.3,-1358.84C302.12,-1360.65 322.88,-1362.75 342.87,-1364.78"/>
<polygon fill="midnightblue" stroke="midnightblue" points="342.61,-1368.27 352.91,-1365.8 343.32,-1361.31 342.61,-1368.27"/>
</g>
<!-- Node10 -->
<g id="node10" class="node">
<title>Node10</title>
<g id="a_node10"><a xlink:href="classJoyButton.html#aaae603630f3485683593320bd446927d" target="_top" xlink:title="Check if button properties are at their default values.">
<polygon fill="white" stroke="black" points="372,-1325.5 372,-1344.5 478,-1344.5 478,-1325.5 372,-1325.5"/>
<text text-anchor="middle" x="425" y="-1332.5" font-family="Helvetica,sans-Serif" font-size="10.00">JoyButton::isDefault</text>
</a>
</g>
</g>
<!-- Node7&#45;&gt;Node10 -->
<g id="edge9" class="edge">
<title>Node7&#45;&gt;Node10</title>
<path fill="none" stroke="midnightblue" d="M284.3,-1349.16C307.76,-1346.78 336.32,-1343.89 361.48,-1341.33"/>
<polygon fill="midnightblue" stroke="midnightblue" points="362.08,-1344.79 371.67,-1340.3 361.37,-1337.83 362.08,-1344.79"/>
</g>
<!-- Node11 -->
<g id="node11" class="node">
<title>Node11</title>
<g id="a_node11"><a xlink:href="classJoyButton.html#ae1d364dfa70f47fae3db99ffbcdea44b" target="_top" xlink:title=" ">
<polygon fill="white" stroke="black" points="555.5,-1306.5 555.5,-1325.5 698.5,-1325.5 698.5,-1306.5 555.5,-1306.5"/>
<text text-anchor="middle" x="627" y="-1313.5" font-family="Helvetica,sans-Serif" font-size="10.00">JoyButton::getAssignedSlots</text>
</a>
</g>
</g>
<!-- Node10&#45;&gt;Node11 -->
<g id="edge10" class="edge">
<title>Node10&#45;&gt;Node11</title>
<path fill="none" stroke="midnightblue" d="M478.03,-1330.06C498.59,-1328.1 522.71,-1325.81 545.43,-1323.65"/>
<polygon fill="midnightblue" stroke="midnightblue" points="545.79,-1327.14 555.41,-1322.71 545.13,-1320.17 545.79,-1327.14"/>
</g>
<!-- Node12&#45;&gt;Node10 -->
<g id="edge40" class="edge">
<title>Node12&#45;&gt;Node10</title>
<path fill="none" stroke="midnightblue" d="M236.68,-701.55C238.2,-772.87 251.26,-1221.95 340,-1316 346.11,-1322.48 353.93,-1326.97 362.33,-1330.05"/>
<polygon fill="midnightblue" stroke="midnightblue" points="361.41,-1333.43 372,-1332.96 363.43,-1326.73 361.41,-1333.43"/>
</g>
<!-- Node12&#45;&gt;Node11 -->
<g id="edge14" class="edge">
<title>Node12&#45;&gt;Node11</title>
<path fill="none" stroke="midnightblue" d="M237.07,-701.79C241.02,-766.02 266.31,-1126.85 340,-1202 394.2,-1257.28 438.69,-1209.85 510,-1240 512.51,-1241.06 569.45,-1278.61 602.6,-1300.52"/>
<polygon fill="midnightblue" stroke="midnightblue" points="600.99,-1303.65 611.26,-1306.24 604.85,-1297.81 600.99,-1303.65"/>
</g>
<!-- Node13 -->
<g id="node13" class="node">
<title>Node13</title>
<g id="a_node13"><a xlink:href="classJoyButton.html#adecd613014ea43710adc26c9c32ba2ab" target="_top" xlink:title=" ">
<polygon fill="white" stroke="black" points="361,-1124 361,-1154 489,-1154 489,-1124 361,-1124"/>
<text text-anchor="start" x="369" y="-1142" font-family="Helvetica,sans-Serif" font-size="10.00">JoyButton::getAccelExtra</text>
<text text-anchor="middle" x="425" y="-1131" font-family="Helvetica,sans-Serif" font-size="10.00">Duration</text>
</a>
</g>
</g>
<!-- Node12&#45;&gt;Node13 -->
<g id="edge12" class="edge">
<title>Node12&#45;&gt;Node13</title>
<path fill="none" stroke="midnightblue" d="M237.59,-701.85C244.15,-759.34 280.04,-1051.04 340,-1114 343.43,-1117.6 347.35,-1120.69 351.58,-1123.33"/>
<polygon fill="midnightblue" stroke="midnightblue" points="350.17,-1126.55 360.64,-1128.17 353.47,-1120.37 350.17,-1126.55"/>
</g>
<!-- Node14 -->
<g id="node14" class="node">
<title>Node14</title>
<g id="a_node14"><a xlink:href="classJoyButton.html#a2dc48e4d0de59b87938f5c0489d6e198" target="_top" xlink:title=" ">
<polygon fill="white" stroke="black" points="358,-1085.5 358,-1104.5 492,-1104.5 492,-1085.5 358,-1085.5"/>
<text text-anchor="middle" x="425" y="-1092.5" font-family="Helvetica,sans-Serif" font-size="10.00">JoyButton::getActionName</text>
</a>
</g>
</g>
<!-- Node12&#45;&gt;Node14 -->
<g id="edge13" class="edge">
<title>Node12&#45;&gt;Node14</title>
<path fill="none" stroke="midnightblue" d="M237.76,-701.73C244.99,-756.03 282.84,-1021.13 340,-1076 342.61,-1078.51 345.49,-1080.71 348.54,-1082.65"/>
<polygon fill="midnightblue" stroke="midnightblue" points="347.11,-1085.85 357.59,-1087.42 350.38,-1079.66 347.11,-1085.85"/>
</g>
<!-- Node15 -->
<g id="node15" class="node">
<title>Node15</title>
<g id="a_node15"><a xlink:href="classJoyButton.html#afd17822071a59e87f898a46cc60bcbf2" target="_top" xlink:title=" ">
<polygon fill="white" stroke="black" points="340,-1047.5 340,-1066.5 510,-1066.5 510,-1047.5 340,-1047.5"/>
<text text-anchor="middle" x="425" y="-1054.5" font-family="Helvetica,sans-Serif" font-size="10.00">JoyButton::getChangeSetCondition</text>
</a>
</g>
</g>
<!-- Node12&#45;&gt;Node15 -->
<g id="edge15" class="edge">
<title>Node12&#45;&gt;Node15</title>
<path fill="none" stroke="midnightblue" d="M236.15,-701.76C235.08,-747.4 236.9,-941.71 340,-1038 341.52,-1039.42 343.11,-1040.73 344.78,-1041.96"/>
<polygon fill="midnightblue" stroke="midnightblue" points="343.27,-1045.14 353.63,-1047.37 346.92,-1039.17 343.27,-1045.14"/>
</g>
<!-- Node16 -->
<g id="node16" class="node">
<title>Node16</title>
<g id="a_node16"><a xlink:href="classJoyButton.html#a619d8146cc1948e6946339147b616e5d" target="_top" xlink:title=" ">
<polygon fill="white" stroke="black" points="349,-1009.5 349,-1028.5 501,-1028.5 501,-1009.5 349,-1009.5"/>
<text text-anchor="middle" x="425" y="-1016.5" font-family="Helvetica,sans-Serif" font-size="10.00">JoyButton::getCycleResetTime</text>
</a>
</g>
</g>
<!-- Node12&#45;&gt;Node16 -->
<g id="edge16" class="edge">
<title>Node12&#45;&gt;Node16</title>
<path fill="none" stroke="midnightblue" d="M236.56,-701.55C237.35,-743.78 246.43,-915.5 340,-1000 341.71,-1001.55 343.52,-1002.98 345.42,-1004.3"/>
<polygon fill="midnightblue" stroke="midnightblue" points="343.78,-1007.39 354.18,-1009.42 347.31,-1001.35 343.78,-1007.39"/>
</g>
<!-- Node17 -->
<g id="node17" class="node">
<title>Node17</title>
<g id="a_node17"><a xlink:href="classJoyButton.html#a4b2396063cc8b5dff26c8a54f3309479" target="_top" xlink:title=" ">
<polygon fill="white" stroke="black" points="351.5,-971.5 351.5,-990.5 498.5,-990.5 498.5,-971.5 351.5,-971.5"/>
<text text-anchor="middle" x="425" y="-978.5" font-family="Helvetica,sans-Serif" font-size="10.00">JoyButton::getEasingDuration</text>
</a>
</g>
</g>
<!-- Node12&#45;&gt;Node17 -->
<g id="edge17" class="edge">
<title>Node12&#45;&gt;Node17</title>
<path fill="none" stroke="midnightblue" d="M237.11,-701.63C240.11,-740.62 256.76,-888.2 340,-961 342.35,-963.06 344.87,-964.91 347.53,-966.58"/>
<polygon fill="midnightblue" stroke="midnightblue" points="345.92,-969.69 356.39,-971.32 349.22,-963.52 345.92,-969.69"/>
</g>
<!-- Node18 -->
<g id="node18" class="node">
<title>Node18</title>
<g id="a_node18"><a xlink:href="classJoyButton.html#acd84988b8ba20fb677c8ff9d10f900c3" target="_top" xlink:title=" ">
<polygon fill="white" stroke="black" points="346,-922 346,-952 504,-952 504,-922 346,-922"/>
<text text-anchor="start" x="354" y="-940" font-family="Helvetica,sans-Serif" font-size="10.00">JoyButton::getExtraAcceleration</text>
<text text-anchor="middle" x="425" y="-929" font-family="Helvetica,sans-Serif" font-size="10.00">Curve</text>
</a>
</g>
</g>
<!-- Node12&#45;&gt;Node18 -->
<g id="edge18" class="edge">
<title>Node12&#45;&gt;Node18</title>
<path fill="none" stroke="midnightblue" d="M238.14,-701.6C244.47,-735.73 270.55,-852.28 340,-912 341.97,-913.69 344.05,-915.27 346.21,-916.74"/>
<polygon fill="midnightblue" stroke="midnightblue" points="344.56,-919.83 354.95,-921.9 348.12,-913.8 344.56,-919.83"/>
</g>
<!-- Node19 -->
<g id="node19" class="node">
<title>Node19</title>
<g id="a_node19"><a xlink:href="classJoyButton.html#ad4007e748f2bead2dd5899fc612f94fa" target="_top" xlink:title=" ">
<polygon fill="white" stroke="black" points="346,-873 346,-903 504,-903 504,-873 346,-873"/>
<text text-anchor="start" x="354" y="-891" font-family="Helvetica,sans-Serif" font-size="10.00">JoyButton::getExtraAcceleration</text>
<text text-anchor="middle" x="425" y="-880" font-family="Helvetica,sans-Serif" font-size="10.00">Multiplier</text>
</a>
</g>
</g>
<!-- Node12&#45;&gt;Node19 -->
<g id="edge19" class="edge">
<title>Node12&#45;&gt;Node19</title>
<path fill="none" stroke="midnightblue" d="M239.6,-701.84C249.32,-731.09 282.06,-818.23 340,-863 342.45,-864.89 345.04,-866.64 347.73,-868.26"/>
<polygon fill="midnightblue" stroke="midnightblue" points="346.17,-871.39 356.64,-872.99 349.45,-865.21 346.17,-871.39"/>
</g>
<!-- Node20 -->
<g id="node20" class="node">
<title>Node20</title>
<g id="a_node20"><a xlink:href="classJoyButton.html#a421e623fa5b3c324c95c28c34d6a485c" target="_top" xlink:title=" ">
<polygon fill="white" stroke="black" points="341.5,-834.5 341.5,-853.5 508.5,-853.5 508.5,-834.5 341.5,-834.5"/>
<text text-anchor="middle" x="425" y="-841.5" font-family="Helvetica,sans-Serif" font-size="10.00">JoyButton::getMaxAccelThreshold</text>
</a>
</g>
</g>
<!-- Node12&#45;&gt;Node20 -->
<g id="edge20" class="edge">
<title>Node12&#45;&gt;Node20</title>
<path fill="none" stroke="midnightblue" d="M240.98,-701.54C253.11,-726.25 289.13,-792.68 340,-825 343.22,-827.04 346.63,-828.87 350.16,-830.5"/>
<polygon fill="midnightblue" stroke="midnightblue" points="349.17,-833.87 359.75,-834.38 351.79,-827.38 349.17,-833.87"/>
</g>
<!-- Node21 -->
<g id="node21" class="node">
<title>Node21</title>
<g id="a_node21"><a xlink:href="classJoyButton.html#ab4b60928265f82108c16be1de7ef28b3" target="_top" xlink:title=" ">
<polygon fill="white" stroke="black" points="343,-796.5 343,-815.5 507,-815.5 507,-796.5 343,-796.5"/>
<text text-anchor="middle" x="425" y="-803.5" font-family="Helvetica,sans-Serif" font-size="10.00">JoyButton::getMinAccelThreshold</text>
</a>
</g>
</g>
<!-- Node12&#45;&gt;Node21 -->
<g id="edge21" class="edge">
<title>Node12&#45;&gt;Node21</title>
<path fill="none" stroke="midnightblue" d="M243.91,-701.55C259.48,-720.91 297.65,-764.82 340,-787 344.52,-789.37 349.33,-791.44 354.27,-793.26"/>
<polygon fill="midnightblue" stroke="midnightblue" points="353.29,-796.62 363.88,-796.44 355.49,-789.98 353.29,-796.62"/>
</g>
<!-- Node22 -->
<g id="node22" class="node">
<title>Node22</title>
<g id="a_node22"><a xlink:href="classJoyButton.html#ad107fc4d6e2725fd5b09a2412c18b1e3" target="_top" xlink:title=" ">
<polygon fill="white" stroke="black" points="357,-758.5 357,-777.5 493,-777.5 493,-758.5 357,-758.5"/>
<text text-anchor="middle" x="425" y="-765.5" font-family="Helvetica,sans-Serif" font-size="10.00">JoyButton::getMouseCurve</text>
</a>
</g>
</g>
<!-- Node12&#45;&gt;Node22 -->
<g id="edge22" class="edge">
<title>Node12&#45;&gt;Node22</title>
<path fill="none" stroke="midnightblue" d="M250.95,-701.68C270.4,-714.3 306.44,-736.26 340,-749 346.82,-751.59 354.1,-753.88 361.4,-755.9"/>
<polygon fill="midnightblue" stroke="midnightblue" points="360.79,-759.36 371.35,-758.48 362.55,-752.58 360.79,-759.36"/>
</g>
<!-- Node23 -->
<g id="node23" class="node">
<title>Node23</title>
<g id="a_node23"><a xlink:href="classJoyButton.html#a581ec2c6d19bb51b2dd5bbe0f4da50fb" target="_top" xlink:title=" ">
<polygon fill="white" stroke="black" points="358,-720.5 358,-739.5 492,-739.5 492,-720.5 358,-720.5"/>
<text text-anchor="middle" x="425" y="-727.5" font-family="Helvetica,sans-Serif" font-size="10.00">JoyButton::getMouseMode</text>
</a>
</g>
</g>
<!-- Node12&#45;&gt;Node23 -->
<g id="edge23" class="edge">
<title>Node12&#45;&gt;Node23</title>
<path fill="none" stroke="midnightblue" d="M283.81,-701.59C309.11,-706.72 340.45,-713.07 367.07,-718.46"/>
<polygon fill="midnightblue" stroke="midnightblue" points="366.53,-721.92 377.03,-720.48 367.92,-715.06 366.53,-721.92"/>
</g>
<!-- Node24 -->
<g id="node24" class="node">
<title>Node24</title>
<g id="a_node24"><a xlink:href="classJoyButton.html#a76e65a13abf96d01fa11ed9fd3b08a7b" target="_top" xlink:title=" ">
<polygon fill="white" stroke="black" points="353,-682.5 353,-701.5 497,-701.5 497,-682.5 353,-682.5"/>
<text text-anchor="middle" x="425" y="-689.5" font-family="Helvetica,sans-Serif" font-size="10.00">JoyButton::getMouseSpeedX</text>
</a>
</g>
</g>
<!-- Node12&#45;&gt;Node24 -->
<g id="edge24" class="edge">
<title>Node12&#45;&gt;Node24</title>
<path fill="none" stroke="midnightblue" d="M302.61,-692C315.54,-692 329.25,-692 342.62,-692"/>
<polygon fill="midnightblue" stroke="midnightblue" points="342.76,-695.5 352.76,-692 342.76,-688.5 342.76,-695.5"/>
</g>
<!-- Node25 -->
<g id="node25" class="node">
<title>Node25</title>
<g id="a_node25"><a xlink:href="classJoyButton.html#a897f0f78773ace1b5916222bd757b1bc" target="_top" xlink:title=" ">
<polygon fill="white" stroke="black" points="353,-644.5 353,-663.5 497,-663.5 497,-644.5 353,-644.5"/>
<text text-anchor="middle" x="425" y="-651.5" font-family="Helvetica,sans-Serif" font-size="10.00">JoyButton::getMouseSpeedY</text>
</a>
</g>
</g>
<!-- Node12&#45;&gt;Node25 -->
<g id="edge25" class="edge">
<title>Node12&#45;&gt;Node25</title>
<path fill="none" stroke="midnightblue" d="M283.81,-682.41C309.11,-677.28 340.45,-670.93 367.07,-665.54"/>
<polygon fill="midnightblue" stroke="midnightblue" points="367.92,-668.94 377.03,-663.52 366.53,-662.08 367.92,-668.94"/>
</g>
<!-- Node26 -->
<g id="node26" class="node">
<title>Node26</title>
<g id="a_node26"><a xlink:href="classJoyButton.html#a39c9ccaf641bb8bf50b29d4c4e04c165" target="_top" xlink:title="Get a 1 indexed number of button.">
<polygon fill="white" stroke="black" points="350,-606.5 350,-625.5 500,-625.5 500,-606.5 350,-606.5"/>
<text text-anchor="middle" x="425" y="-613.5" font-family="Helvetica,sans-Serif" font-size="10.00">JoyButton::getRealJoyNumber</text>
</a>
</g>
</g>
<!-- Node12&#45;&gt;Node26 -->
<g id="edge26" class="edge">
<title>Node12&#45;&gt;Node26</title>
<path fill="none" stroke="midnightblue" d="M250.95,-682.32C270.4,-669.7 306.44,-647.74 340,-635 346.82,-632.41 354.1,-630.12 361.4,-628.1"/>
<polygon fill="midnightblue" stroke="midnightblue" points="362.55,-631.42 371.35,-625.52 360.79,-624.64 362.55,-631.42"/>
</g>
<!-- Node27 -->
<g id="node27" class="node">
<title>Node27</title>
<g id="a_node27"><a xlink:href="classJoyButton.html#ac401cbfb9ac4d75cef4f8bc786172118" target="_top" xlink:title=" ">
<polygon fill="white" stroke="black" points="362,-568.5 362,-587.5 488,-587.5 488,-568.5 362,-568.5"/>
<text text-anchor="middle" x="425" y="-575.5" font-family="Helvetica,sans-Serif" font-size="10.00">JoyButton::getSensitivity</text>
</a>
</g>
</g>
<!-- Node12&#45;&gt;Node27 -->
<g id="edge27" class="edge">
<title>Node12&#45;&gt;Node27</title>
<path fill="none" stroke="midnightblue" d="M243.91,-682.45C259.48,-663.09 297.65,-619.18 340,-597 344.52,-594.63 349.33,-592.56 354.27,-590.74"/>
<polygon fill="midnightblue" stroke="midnightblue" points="355.49,-594.02 363.88,-587.56 353.29,-587.38 355.49,-594.02"/>
</g>
<!-- Node28 -->
<g id="node28" class="node">
<title>Node28</title>
<g id="a_node28"><a xlink:href="classJoyButton.html#a695a0a6c64d168b62dfbdd3c925a786d" target="_top" xlink:title=" ">
<polygon fill="white" stroke="black" points="357,-530.5 357,-549.5 493,-549.5 493,-530.5 357,-530.5"/>
<text text-anchor="middle" x="425" y="-537.5" font-family="Helvetica,sans-Serif" font-size="10.00">JoyButton::getSetSelection</text>
</a>
</g>
</g>
<!-- Node12&#45;&gt;Node28 -->
<g id="edge28" class="edge">
<title>Node12&#45;&gt;Node28</title>
<path fill="none" stroke="midnightblue" d="M240.98,-682.46C253.11,-657.75 289.13,-591.32 340,-559 343.22,-556.96 346.63,-555.13 350.16,-553.5"/>
<polygon fill="midnightblue" stroke="midnightblue" points="351.79,-556.62 359.75,-549.62 349.17,-550.13 351.79,-556.62"/>
</g>
<!-- Node29 -->
<g id="node29" class="node">
<title>Node29</title>
<g id="a_node29"><a xlink:href="classJoyButton.html#a60ecfef194078a1d77b4bf7a5e187cbf" target="_top" xlink:title=" ">
<polygon fill="white" stroke="black" points="359.5,-481 359.5,-511 490.5,-511 490.5,-481 359.5,-481"/>
<text text-anchor="start" x="367.5" y="-499" font-family="Helvetica,sans-Serif" font-size="10.00">JoyButton::getSpringDead</text>
<text text-anchor="middle" x="425" y="-488" font-family="Helvetica,sans-Serif" font-size="10.00">CircleMultiplier</text>
</a>
</g>
</g>
<!-- Node12&#45;&gt;Node29 -->
<g id="edge29" class="edge">
<title>Node12&#45;&gt;Node29</title>
<path fill="none" stroke="midnightblue" d="M239.6,-682.16C249.32,-652.91 282.06,-565.77 340,-521 343.16,-518.56 346.56,-516.35 350.11,-514.36"/>
<polygon fill="midnightblue" stroke="midnightblue" points="351.8,-517.43 359.2,-509.85 348.68,-511.16 351.8,-517.43"/>
</g>
<!-- Node30 -->
<g id="node30" class="node">
<title>Node30</title>
<g id="a_node30"><a xlink:href="classJoyButton.html#ae52698526b927b1780ccde48e965a1c7" target="_top" xlink:title=" ">
<polygon fill="white" stroke="black" points="356.5,-442.5 356.5,-461.5 493.5,-461.5 493.5,-442.5 356.5,-442.5"/>
<text text-anchor="middle" x="425" y="-449.5" font-family="Helvetica,sans-Serif" font-size="10.00">JoyButton::getSpringHeight</text>
</a>
</g>
</g>
<!-- Node12&#45;&gt;Node30 -->
<g id="edge30" class="edge">
<title>Node12&#45;&gt;Node30</title>
<path fill="none" stroke="midnightblue" d="M237.99,-682.19C243.81,-647.36 268.38,-528.64 340,-471 342.29,-469.15 344.73,-467.48 347.28,-465.96"/>
<polygon fill="midnightblue" stroke="midnightblue" points="348.97,-469.03 356.3,-461.38 345.8,-462.79 348.97,-469.03"/>
</g>
<!-- Node31 -->
<g id="node31" class="node">
<title>Node31</title>
<g id="a_node31"><a xlink:href="classJoyButton.html#a51beaf1d3e91d0fd501368f52fa602f6" target="_top" xlink:title=" ">
<polygon fill="white" stroke="black" points="358,-404.5 358,-423.5 492,-423.5 492,-404.5 358,-404.5"/>
<text text-anchor="middle" x="425" y="-411.5" font-family="Helvetica,sans-Serif" font-size="10.00">JoyButton::getSpringWidth</text>
</a>
</g>
</g>
<!-- Node12&#45;&gt;Node31 -->
<g id="edge31" class="edge">
<title>Node12&#45;&gt;Node31</title>
<path fill="none" stroke="midnightblue" d="M237.23,-682.44C240.69,-644.37 258.79,-502.32 340,-433 342.7,-430.7 345.62,-428.66 348.69,-426.85"/>
<polygon fill="midnightblue" stroke="midnightblue" points="350.33,-429.95 357.72,-422.37 347.21,-423.68 350.33,-429.95"/>
</g>
<!-- Node32 -->
<g id="node32" class="node">
<title>Node32</title>
<g id="a_node32"><a xlink:href="classJoyButton.html#ac9b85925d5c58f33b715a6db361012e2" target="_top" xlink:title=" ">
<polygon fill="white" stroke="black" points="361.5,-355 361.5,-385 488.5,-385 488.5,-355 361.5,-355"/>
<text text-anchor="start" x="369.5" y="-373" font-family="Helvetica,sans-Serif" font-size="10.00">JoyButton::getStartAccel</text>
<text text-anchor="middle" x="425" y="-362" font-family="Helvetica,sans-Serif" font-size="10.00">Multiplier</text>
</a>
</g>
</g>
<!-- Node12&#45;&gt;Node32 -->
<g id="edge32" class="edge">
<title>Node12&#45;&gt;Node32</title>
<path fill="none" stroke="midnightblue" d="M236.84,-682.38C238.82,-641.32 252.14,-478.91 340,-395 343.59,-391.57 347.64,-388.61 351.96,-386.05"/>
<polygon fill="midnightblue" stroke="midnightblue" points="353.85,-389.01 361.16,-381.35 350.66,-382.78 353.85,-389.01"/>
</g>
<!-- Node33 -->
<g id="node33" class="node">
<title>Node33</title>
<g id="a_node33"><a xlink:href="classJoyButton.html#a4305272f6fe2c5708f2ad7f1ce911514" target="_top" xlink:title=" ">
<polygon fill="white" stroke="black" points="359,-316.5 359,-335.5 491,-335.5 491,-316.5 359,-316.5"/>
<text text-anchor="middle" x="425" y="-323.5" font-family="Helvetica,sans-Serif" font-size="10.00">JoyButton::getToggleState</text>
</a>
</g>
</g>
<!-- Node12&#45;&gt;Node33 -->
<g id="edge33" class="edge">
<title>Node12&#45;&gt;Node33</title>
<path fill="none" stroke="midnightblue" d="M236.14,-682.22C235.02,-636.44 236.67,-441.59 340,-345 342.99,-342.21 346.29,-339.8 349.82,-337.71"/>
<polygon fill="midnightblue" stroke="midnightblue" points="351.56,-340.76 358.97,-333.19 348.45,-334.48 351.56,-340.76"/>
</g>
<!-- Node34 -->
<g id="node34" class="node">
<title>Node34</title>
<g id="a_node34"><a xlink:href="classJoyButton.html#ae041d0a798f2404866e60bd5b99e7db9" target="_top" xlink:title=" ">
<polygon fill="white" stroke="black" points="356.5,-278.5 356.5,-297.5 493.5,-297.5 493.5,-278.5 356.5,-278.5"/>
<text text-anchor="middle" x="425" y="-285.5" font-family="Helvetica,sans-Serif" font-size="10.00">JoyButton::getTurboInterval</text>
</a>
</g>
</g>
<!-- Node12&#45;&gt;Node34 -->
<g id="edge34" class="edge">
<title>Node12&#45;&gt;Node34</title>
<path fill="none" stroke="midnightblue" d="M237.76,-682.25C244.96,-627.81 282.72,-362.02 340,-307 342.3,-304.79 344.8,-302.82 347.44,-301.06"/>
<polygon fill="midnightblue" stroke="midnightblue" points="349.3,-304.04 356.35,-296.13 345.91,-297.91 349.3,-304.04"/>
</g>
<!-- Node35 -->
<g id="node35" class="node">
<title>Node35</title>
<g id="a_node35"><a xlink:href="classJoyButton.html#a2217d0edb9b9f0aecfc9a657cfe1cf5d" target="_top" xlink:title="Get currently assigned turbo mode.">
<polygon fill="white" stroke="black" points="360.5,-240.5 360.5,-259.5 489.5,-259.5 489.5,-240.5 360.5,-240.5"/>
<text text-anchor="middle" x="425" y="-247.5" font-family="Helvetica,sans-Serif" font-size="10.00">JoyButton::getTurboMode</text>
</a>
</g>
</g>
<!-- Node12&#45;&gt;Node35 -->
<g id="edge35" class="edge">
<title>Node12&#45;&gt;Node35</title>
<path fill="none" stroke="midnightblue" d="M237.49,-682.44C243.56,-625.37 277.72,-330.2 340,-269 343.33,-265.73 347.1,-262.97 351.14,-260.65"/>
<polygon fill="midnightblue" stroke="midnightblue" points="352.87,-263.71 360.39,-256.25 349.86,-257.39 352.87,-263.71"/>
</g>
<!-- Node36 -->
<g id="node36" class="node">
<title>Node36</title>
<g id="a_node36"><a xlink:href="classJoyButton.html#a8f39bf2962ca3e935c6cd6ea248e0f54" target="_top" xlink:title=" ">
<polygon fill="white" stroke="black" points="353.5,-202.5 353.5,-221.5 496.5,-221.5 496.5,-202.5 353.5,-202.5"/>
<text text-anchor="middle" x="425" y="-209.5" font-family="Helvetica,sans-Serif" font-size="10.00">JoyButton::getWheelSpeedX</text>
</a>
</g>
</g>
<!-- Node12&#45;&gt;Node36 -->
<g id="edge36" class="edge">
<title>Node12&#45;&gt;Node36</title>
<path fill="none" stroke="midnightblue" d="M237.29,-682.38C242.39,-622.24 272.77,-298.34 340,-231 341.47,-229.53 343.02,-228.17 344.65,-226.9"/>
<polygon fill="midnightblue" stroke="midnightblue" points="346.81,-229.67 353.34,-221.33 343.03,-223.78 346.81,-229.67"/>
</g>
<!-- Node37 -->
<g id="node37" class="node">
<title>Node37</title>
<g id="a_node37"><a xlink:href="classJoyButton.html#afea7d93cb110917ab2721204338f6b7c" target="_top" xlink:title=" ">
<polygon fill="white" stroke="black" points="353.5,-164.5 353.5,-183.5 496.5,-183.5 496.5,-164.5 353.5,-164.5"/>
<text text-anchor="middle" x="425" y="-171.5" font-family="Helvetica,sans-Serif" font-size="10.00">JoyButton::getWheelSpeedY</text>
</a>
</g>
</g>
<!-- Node12&#45;&gt;Node37 -->
<g id="edge37" class="edge">
<title>Node12&#45;&gt;Node37</title>
<path fill="none" stroke="midnightblue" d="M237.11,-682.42C241.28,-619.58 267.77,-266.54 340,-193 341.45,-191.52 343,-190.14 344.61,-188.87"/>
<polygon fill="midnightblue" stroke="midnightblue" points="346.78,-191.63 353.27,-183.26 342.97,-185.76 346.78,-191.63"/>
</g>
<!-- Node38 -->
<g id="node38" class="node">
<title>Node38</title>
<g id="a_node38"><a xlink:href="classJoyButton.html#ab628d2c4a5d2dd34e763d0a9c0d967c7" target="_top" xlink:title=" ">
<polygon fill="white" stroke="black" points="363,-126.5 363,-145.5 487,-145.5 487,-126.5 363,-126.5"/>
<text text-anchor="middle" x="425" y="-133.5" font-family="Helvetica,sans-Serif" font-size="10.00">JoyButton::getXmlName</text>
</a>
</g>
</g>
<!-- Node12&#45;&gt;Node38 -->
<g id="edge38" class="edge">
<title>Node12&#45;&gt;Node38</title>
<path fill="none" stroke="midnightblue" d="M236.97,-682.13C240.34,-615.75 262.88,-234.63 340,-155 343.9,-150.97 348.46,-147.72 353.4,-145.09"/>
<polygon fill="midnightblue" stroke="midnightblue" points="354.91,-148.26 362.65,-141.03 352.09,-141.85 354.91,-148.26"/>
</g>
<!-- Node39 -->
<g id="node39" class="node">
<title>Node39</title>
<g id="a_node39"><a xlink:href="classJoyButton.html#a2b2fce2cc773333803d71e91358877a3" target="_top" xlink:title=" ">
<polygon fill="white" stroke="black" points="349,-88.5 349,-107.5 501,-107.5 501,-88.5 349,-88.5"/>
<text text-anchor="middle" x="425" y="-95.5" font-family="Helvetica,sans-Serif" font-size="10.00">JoyButton::isCycleResetActive</text>
</a>
</g>
</g>
<!-- Node12&#45;&gt;Node39 -->
<g id="edge39" class="edge">
<title>Node12&#45;&gt;Node39</title>
<path fill="none" stroke="midnightblue" d="M236.83,-682.33C239.35,-613.91 257.79,-202.94 340,-117 341.24,-115.7 342.56,-114.48 343.93,-113.34"/>
<polygon fill="midnightblue" stroke="midnightblue" points="346.08,-116.1 352.37,-107.58 342.14,-110.32 346.08,-116.1"/>
</g>
<!-- Node40 -->
<g id="node40" class="node">
<title>Node40</title>
<g id="a_node40"><a xlink:href="classJoyButton.html#a13a762188a2239af9e5ed25c532b98f6" target="_top" xlink:title=" ">
<polygon fill="white" stroke="black" points="349,-39 349,-69 501,-69 501,-39 349,-39"/>
<text text-anchor="start" x="357" y="-57" font-family="Helvetica,sans-Serif" font-size="10.00">JoyButton::isExtraAcceleration</text>
<text text-anchor="middle" x="425" y="-46" font-family="Helvetica,sans-Serif" font-size="10.00">Enabled</text>
</a>
</g>
</g>
<!-- Node12&#45;&gt;Node40 -->
<g id="edge41" class="edge">
<title>Node12&#45;&gt;Node40</title>
<path fill="none" stroke="midnightblue" d="M236.78,-682.22C239,-611.14 255.96,-173.97 340,-79 341.18,-77.67 342.42,-76.41 343.73,-75.21"/>
<polygon fill="midnightblue" stroke="midnightblue" points="345.96,-77.91 351.79,-69.05 341.71,-72.34 345.96,-77.91"/>
</g>
<!-- Node41 -->
<g id="node41" class="node">
<title>Node41</title>
<g id="a_node41"><a xlink:href="classJoyButton.html#ad584e8d34e82b179966790f412d0a50a" target="_top" xlink:title=" ">
<polygon fill="white" stroke="black" points="356.5,-0.5 356.5,-19.5 493.5,-19.5 493.5,-0.5 356.5,-0.5"/>
<text text-anchor="middle" x="425" y="-7.5" font-family="Helvetica,sans-Serif" font-size="10.00">JoyButton::isModifierButton</text>
</a>
</g>
</g>
<!-- Node12&#45;&gt;Node41 -->
<g id="edge42" class="edge">
<title>Node12&#45;&gt;Node41</title>
<path fill="none" stroke="midnightblue" d="M236.58,-682.33C237.37,-608.15 246.14,-129.43 340,-29 342.3,-26.54 344.84,-24.37 347.57,-22.45"/>
<polygon fill="midnightblue" stroke="midnightblue" points="349.34,-25.47 356.24,-17.43 345.83,-19.41 349.34,-25.47"/>
</g>
<!-- Node42 -->
<g id="node42" class="node">
<title>Node42</title>
<g id="a_node42"><a xlink:href="classJoyButton.html#a79b44a6acc2c7860472759f5e2dca087" target="_top" xlink:title=" ">
<polygon fill="white" stroke="black" points="356.5,-1287.5 356.5,-1306.5 493.5,-1306.5 493.5,-1287.5 356.5,-1287.5"/>
<text text-anchor="middle" x="425" y="-1294.5" font-family="Helvetica,sans-Serif" font-size="10.00">JoyButton::isRelativeSpring</text>
</a>
</g>
</g>
<!-- Node12&#45;&gt;Node42 -->
<g id="edge43" class="edge">
<title>Node12&#45;&gt;Node42</title>
<path fill="none" stroke="midnightblue" d="M236.8,-701.85C239.11,-771.57 256.41,-1190.33 340,-1278 342.32,-1280.43 344.88,-1282.59 347.63,-1284.49"/>
<polygon fill="midnightblue" stroke="midnightblue" points="345.92,-1287.55 356.34,-1289.48 349.4,-1281.47 345.92,-1287.55"/>
</g>
<!-- Node43 -->
<g id="node43" class="node">
<title>Node43</title>
<g id="a_node43"><a xlink:href="classJoyButton.html#ad2123134411e4ab2c8f15b65f3c4ae79" target="_top" xlink:title=" ">
<polygon fill="white" stroke="black" points="362.5,-1249.5 362.5,-1268.5 487.5,-1268.5 487.5,-1249.5 362.5,-1249.5"/>
<text text-anchor="middle" x="425" y="-1256.5" font-family="Helvetica,sans-Serif" font-size="10.00">JoyButton::isUsingTurbo</text>
</a>
</g>
</g>
<!-- Node12&#45;&gt;Node43 -->
<g id="edge44" class="edge">
<title>Node12&#45;&gt;Node43</title>
<path fill="none" stroke="midnightblue" d="M236.98,-701.5C240.51,-767.07 264.25,-1152.11 340,-1235 343.84,-1239.2 348.35,-1242.68 353.26,-1245.57"/>
<polygon fill="midnightblue" stroke="midnightblue" points="351.96,-1248.83 362.48,-1250.15 355.08,-1242.56 351.96,-1248.83"/>
</g>
<!-- Node44 -->
<g id="node44" class="node">
<title>Node44</title>
<g id="a_node44"><a xlink:href="classJoyButtonSlotXml.html#a894dae8b0bcb4519b10279fb02ada1bd" target="_top" xlink:title=" ">
<polygon fill="white" stroke="black" points="349.5,-1173.5 349.5,-1192.5 500.5,-1192.5 500.5,-1173.5 349.5,-1173.5"/>
<text text-anchor="middle" x="425" y="-1180.5" font-family="Helvetica,sans-Serif" font-size="10.00">JoyButtonSlotXml::writeConfig</text>
</a>
</g>
</g>
<!-- Node12&#45;&gt;Node44 -->
<g id="edge45" class="edge">
<title>Node12&#45;&gt;Node44</title>
<path fill="none" stroke="midnightblue" d="M237.26,-701.82C242.23,-763.19 271.93,-1093.73 340,-1163 341.84,-1164.87 343.82,-1166.58 345.91,-1168.14"/>
<polygon fill="midnightblue" stroke="midnightblue" points="344.14,-1171.16 354.49,-1173.45 347.83,-1165.21 344.14,-1171.16"/>
</g>
<!-- Node45 -->
<g id="node45" class="node">
<title>Node45</title>
<g id="a_node45"><a xlink:href="classJoyButtonSlot.html#a4fb0606a34134786bc642627bc25aedd" target="_top" xlink:title=" ">
<polygon fill="white" stroke="black" points="920,-1154.5 920,-1173.5 1056,-1173.5 1056,-1154.5 920,-1154.5"/>
<text text-anchor="middle" x="988" y="-1161.5" font-family="Helvetica,sans-Serif" font-size="10.00">JoyButtonSlot::getMixSlots</text>
</a>
</g>
</g>
<!-- Node44&#45;&gt;Node45 -->
<g id="edge46" class="edge">
<title>Node44&#45;&gt;Node45</title>
<path fill="none" stroke="midnightblue" d="M500.8,-1177.27C565.2,-1172.63 660.66,-1166.49 744,-1164 799.39,-1162.35 861.92,-1162.39 909.68,-1162.82"/>
<polygon fill="midnightblue" stroke="midnightblue" points="909.91,-1166.33 919.94,-1162.93 909.98,-1159.33 909.91,-1166.33"/>
</g>
<!-- Node47 -->
<g id="node47" class="node">
<title>Node47</title>
<g id="a_node47"><a xlink:href="classJoyButtonSlot.html#abed7fe134c404b403ea79c0753f6eaaf" target="_top" xlink:title=" ">
<polygon fill="white" stroke="black" points="744.5,-1230.5 744.5,-1249.5 883.5,-1249.5 883.5,-1230.5 744.5,-1230.5"/>
<text text-anchor="middle" x="814" y="-1237.5" font-family="Helvetica,sans-Serif" font-size="10.00">JoyButtonSlot::getSlotMode</text>
</a>
</g>
</g>
<!-- Node44&#45;&gt;Node47 -->
<g id="edge48" class="edge">
<title>Node44&#45;&gt;Node47</title>
<path fill="none" stroke="midnightblue" d="M473.75,-1192.52C486.02,-1196.06 498.88,-1200.78 510,-1207 528.94,-1217.6 525.77,-1232.13 546,-1240 615.55,-1267.05 703.21,-1260.08 758.7,-1251.18"/>
<polygon fill="midnightblue" stroke="midnightblue" points="759.39,-1254.61 768.67,-1249.5 758.23,-1247.71 759.39,-1254.61"/>
</g>
<!-- Node48 -->
<g id="node48" class="node">
<title>Node48</title>
<g id="a_node48"><a xlink:href="classJoyButtonSlot.html#a6e10409ded595380cbdcfd5c827ab32a" target="_top" xlink:title=" ">
<polygon fill="white" stroke="red" points="744,-1173.5 744,-1192.5 884,-1192.5 884,-1173.5 744,-1173.5"/>
<text text-anchor="middle" x="814" y="-1180.5" font-family="Helvetica,sans-Serif" font-size="10.00">JoyButtonSlot::getSlotString</text>
</a>
</g>
</g>
<!-- Node44&#45;&gt;Node48 -->
<g id="edge49" class="edge">
<title>Node44&#45;&gt;Node48</title>
<path fill="none" stroke="midnightblue" d="M500.62,-1183C567.47,-1183 665.24,-1183 733.54,-1183"/>
<polygon fill="midnightblue" stroke="midnightblue" points="733.81,-1186.5 743.81,-1183 733.81,-1179.5 733.81,-1186.5"/>
</g>
<!-- Node74 -->
<g id="node49" class="node">
<title>Node74</title>
<g id="a_node49"><a xlink:href="classJoyButtonSlot.html#ace32af7a217c8238492e90fa53fe39ca" target="_top" xlink:title=" ">
<polygon fill="white" stroke="black" points="556.5,-1097.5 556.5,-1116.5 697.5,-1116.5 697.5,-1097.5 556.5,-1097.5"/>
<text text-anchor="middle" x="627" y="-1104.5" font-family="Helvetica,sans-Serif" font-size="10.00">JoyButtonSlot::getXmlName</text>
</a>
</g>
</g>
<!-- Node44&#45;&gt;Node74 -->
<g id="edge51" class="edge">
<title>Node44&#45;&gt;Node74</title>
<path fill="none" stroke="midnightblue" d="M482.96,-1173.48C492.28,-1170.79 501.62,-1167.36 510,-1163 528.99,-1153.11 527.31,-1141.43 546,-1131 554.09,-1126.49 563.12,-1122.73 572.13,-1119.63"/>
<polygon fill="midnightblue" stroke="midnightblue" points="573.38,-1122.91 581.84,-1116.53 571.25,-1116.24 573.38,-1122.91"/>
</g>
<!-- Node75 -->
<g id="node50" class="node">
<title>Node75</title>
<g id="a_node50"><a xlink:href="classJoyButtonSlotXml.html#af4050a75ee613629694d28a8d5815c8c" target="_top" xlink:title=" ">
<polygon fill="white" stroke="red" points="546,-1211.5 546,-1230.5 708,-1230.5 708,-1211.5 546,-1211.5"/>
<text text-anchor="middle" x="627" y="-1218.5" font-family="Helvetica,sans-Serif" font-size="10.00">JoyButtonSlotXml::writeEachSlot</text>
</a>
</g>
</g>
<!-- Node44&#45;&gt;Node75 -->
<g id="edge52" class="edge">
<title>Node44&#45;&gt;Node75</title>
<path fill="none" stroke="midnightblue" d="M476.21,-1192.54C503.43,-1197.71 537.26,-1204.14 565.88,-1209.58"/>
<polygon fill="midnightblue" stroke="midnightblue" points="565.29,-1213.03 575.77,-1211.46 566.6,-1206.15 565.29,-1213.03"/>
</g>
<!-- Node46 -->
<g id="node46" class="node">
<title>Node46</title>
<g id="a_node46"><a xlink:href="classJoyButtonSlot.html#a9ba9cb0dda063a7df5575072c0aabe01" target="_top" xlink:title=" ">
<polygon fill="white" stroke="black" points="1092,-1149 1092,-1179 1221,-1179 1221,-1149 1092,-1149"/>
<text text-anchor="start" x="1100" y="-1167" font-family="Helvetica,sans-Serif" font-size="10.00">JoyButtonSlot::secureMix</text>
<text text-anchor="middle" x="1156.5" y="-1156" font-family="Helvetica,sans-Serif" font-size="10.00">SlotsInit</text>
</a>
</g>
</g>
<!-- Node45&#45;&gt;Node46 -->
<g id="edge47" class="edge">
<title>Node45&#45;&gt;Node46</title>
<path fill="none" stroke="midnightblue" d="M1056.24,-1164C1064.58,-1164 1073.15,-1164 1081.58,-1164"/>
<polygon fill="midnightblue" stroke="midnightblue" points="1081.78,-1167.5 1091.78,-1164 1081.78,-1160.5 1081.78,-1167.5"/>
</g>
<!-- Node48&#45;&gt;Node45 -->
<g id="edge50" class="edge">
<title>Node48&#45;&gt;Node45</title>
<path fill="none" stroke="midnightblue" d="M884.46,-1175.33C892.75,-1174.41 901.25,-1173.47 909.63,-1172.55"/>
<polygon fill="midnightblue" stroke="midnightblue" points="910.23,-1176 919.79,-1171.42 909.47,-1169.04 910.23,-1176"/>
</g>
<!-- Node75&#45;&gt;Node47 -->
<g id="edge53" class="edge">
<title>Node75&#45;&gt;Node47</title>
<path fill="none" stroke="midnightblue" d="M708.07,-1229.22C716.77,-1230.12 725.62,-1231.03 734.31,-1231.92"/>
<polygon fill="midnightblue" stroke="midnightblue" points="734.11,-1235.42 744.41,-1232.96 734.82,-1228.45 734.11,-1235.42"/>
</g>
<!-- Node75&#45;&gt;Node48 -->
<g id="edge54" class="edge">
<title>Node75&#45;&gt;Node48</title>
<path fill="none" stroke="midnightblue" d="M674.68,-1211.41C699.65,-1206.28 730.56,-1199.93 756.83,-1194.54"/>
<polygon fill="midnightblue" stroke="midnightblue" points="757.56,-1197.96 766.65,-1192.52 756.15,-1191.1 757.56,-1197.96"/>
</g>
</g>
</svg>
