<?xml version="1.0" encoding="UTF-8" standalone="no"?>
<!DOCTYPE svg PUBLIC "-//W3C//DTD SVG 1.1//EN"
 "http://www.w3.org/Graphics/SVG/1.1/DTD/svg11.dtd">
<!-- Generated by graphviz version 2.43.0 (0)
 -->
<!-- Title: JoyAxisButton::getLastAccelerationDistance Pages: 1 -->
<svg width="369pt" height="78pt"
 viewBox="0.00 0.00 369.00 77.50" xmlns="http://www.w3.org/2000/svg" xmlns:xlink="http://www.w3.org/1999/xlink">
<g id="graph0" class="graph" transform="scale(1 1) rotate(0) translate(4 73.5)">
<title>JoyAxisButton::getLastAccelerationDistance</title>
<polygon fill="white" stroke="transparent" points="-4,4 -4,-73.5 365,-73.5 365,4 -4,4"/>
<!-- Node1 -->
<g id="node1" class="node">
<title>Node1</title>
<g id="a_node1"><a xlink:title=" ">
<polygon fill="#bfbfbf" stroke="black" points="0,-17 0,-47 173,-47 173,-17 0,-17"/>
<text text-anchor="start" x="8" y="-35" font-family="Helvetica,sans-Serif" font-size="10.00">JoyAxisButton::getLastAcceleration</text>
<text text-anchor="middle" x="86.5" y="-24" font-family="Helvetica,sans-Serif" font-size="10.00">Distance</text>
</a>
</g>
</g>
<!-- Node2 -->
<g id="node2" class="node">
<title>Node2</title>
<g id="a_node2"><a xlink:href="classJoyAxis.html#a6ed704ce0c9da777cbb5c694a9ed2238" target="_top" xlink:title=" ">
<polygon fill="white" stroke="black" points="209,-39 209,-69 361,-69 361,-39 209,-39"/>
<text text-anchor="start" x="217" y="-57" font-family="Helvetica,sans-Serif" font-size="10.00">JoyAxis::getLastKnownThrottle</text>
<text text-anchor="middle" x="285" y="-46" font-family="Helvetica,sans-Serif" font-size="10.00">Value</text>
</a>
</g>
</g>
<!-- Node1&#45;&gt;Node2 -->
<g id="edge1" class="edge">
<title>Node1&#45;&gt;Node2</title>
<path fill="none" stroke="midnightblue" d="M173.12,-41.59C181.66,-42.54 190.34,-43.51 198.89,-44.47"/>
<polygon fill="midnightblue" stroke="midnightblue" points="198.51,-47.95 208.84,-45.58 199.29,-40.99 198.51,-47.95"/>
</g>
<!-- Node3 -->
<g id="node3" class="node">
<title>Node3</title>
<g id="a_node3"><a xlink:href="classJoyAxis.html#af8a07986f0254ba66021537e07c1ad4f" target="_top" xlink:title="Get the current value for an axis in either direction converted to the range of &#45;1....">
<polygon fill="white" stroke="black" points="220,-0.5 220,-19.5 350,-19.5 350,-0.5 220,-0.5"/>
<text text-anchor="middle" x="285" y="-7.5" font-family="Helvetica,sans-Serif" font-size="10.00">JoyAxis::getRawDistance</text>
</a>
</g>
</g>
<!-- Node1&#45;&gt;Node3 -->
<g id="edge2" class="edge">
<title>Node1&#45;&gt;Node3</title>
<path fill="none" stroke="midnightblue" d="M173.12,-22.41C185.4,-21.04 197.95,-19.63 209.98,-18.29"/>
<polygon fill="midnightblue" stroke="midnightblue" points="210.4,-21.76 219.95,-17.17 209.62,-14.81 210.4,-21.76"/>
</g>
</g>
</svg>
