<?xml version="1.0" encoding="UTF-8" standalone="no"?>
<!DOCTYPE svg PUBLIC "-//W3C//DTD SVG 1.1//EN"
 "http://www.w3.org/Graphics/SVG/1.1/DTD/svg11.dtd">
<!-- Generated by graphviz version 2.43.0 (0)
 -->
<!-- Title: InputDevice::getRealJoyNumber Pages: 1 -->
<svg width="1527pt" height="684pt"
 viewBox="0.00 0.00 1527.00 683.50" xmlns="http://www.w3.org/2000/svg" xmlns:xlink="http://www.w3.org/1999/xlink">
<g id="graph0" class="graph" transform="scale(1 1) rotate(0) translate(4 679.5)">
<title>InputDevice::getRealJoyNumber</title>
<polygon fill="white" stroke="transparent" points="-4,4 -4,-679.5 1523,-679.5 1523,4 -4,4"/>
<!-- Node1 -->
<g id="node1" class="node">
<title>Node1</title>
<g id="a_node1"><a xlink:title=" ">
<polygon fill="#bfbfbf" stroke="black" points="1361,-212 1361,-231 1519,-231 1519,-212 1361,-212"/>
<text text-anchor="middle" x="1440" y="-219" font-family="Helvetica,sans-Serif" font-size="10.00">InputDevice::getRealJoyNumber</text>
</a>
</g>
</g>
<!-- Node2 -->
<g id="node2" class="node">
<title>Node2</title>
<g id="a_node2"><a xlink:href="classAdvanceStickAssignmentDialog.html#a86cf0001cd774ce5ccec8543b7a9a50b" target="_top" xlink:title=" ">
<polygon fill="white" stroke="black" points="0,-584.5 0,-614.5 162,-614.5 162,-584.5 0,-584.5"/>
<text text-anchor="start" x="8" y="-602.5" font-family="Helvetica,sans-Serif" font-size="10.00">AdvanceStickAssignmentDialog</text>
<text text-anchor="middle" x="81" y="-591.5" font-family="Helvetica,sans-Serif" font-size="10.00">::AdvanceStickAssignmentDialog</text>
</a>
</g>
</g>
<!-- Node1&#45;&gt;Node2 -->
<g id="edge1" class="edge">
<title>Node1&#45;&gt;Node2</title>
<path fill="none" stroke="midnightblue" d="M1437.26,-241.13C1431.44,-295.97 1408.01,-452.81 1325,-545.5 1232.8,-648.46 1180.71,-675.5 1042.5,-675.5 1042.5,-675.5 1042.5,-675.5 473,-675.5 346.45,-675.5 201.03,-636.66 128.38,-614.52"/>
<polygon fill="midnightblue" stroke="midnightblue" points="1440.76,-241.33 1438.25,-231.04 1433.79,-240.65 1440.76,-241.33"/>
</g>
<!-- Node3 -->
<g id="node3" class="node">
<title>Node3</title>
<g id="a_node3"><a xlink:href="classGameControllerMappingDialog.html#a3b5f7c179120ccffa5c7eca5de1edafe" target="_top" xlink:title=" ">
<polygon fill="white" stroke="black" points="1159.5,-162.5 1159.5,-192.5 1314.5,-192.5 1314.5,-162.5 1159.5,-162.5"/>
<text text-anchor="start" x="1167.5" y="-180.5" font-family="Helvetica,sans-Serif" font-size="10.00">GameControllerMappingDialog</text>
<text text-anchor="middle" x="1237" y="-169.5" font-family="Helvetica,sans-Serif" font-size="10.00">::GameControllerMappingDialog</text>
</a>
</g>
</g>
<!-- Node1&#45;&gt;Node3 -->
<g id="edge2" class="edge">
<title>Node1&#45;&gt;Node3</title>
<path fill="none" stroke="midnightblue" d="M1385.36,-209.76C1361.25,-204.48 1332.5,-198.19 1306.82,-192.57"/>
<polygon fill="midnightblue" stroke="midnightblue" points="1384.87,-213.23 1395.39,-211.95 1386.37,-206.4 1384.87,-213.23"/>
</g>
<!-- Node4 -->
<g id="node4" class="node">
<title>Node4</title>
<g id="a_node4"><a xlink:href="classJoystick.html#ab86010ddc8c532599da4963725afb0a8" target="_top" xlink:title=" ">
<polygon fill="white" stroke="black" points="1188,-124 1188,-143 1286,-143 1286,-124 1188,-124"/>
<text text-anchor="middle" x="1237" y="-131" font-family="Helvetica,sans-Serif" font-size="10.00">Joystick::getName</text>
</a>
</g>
</g>
<!-- Node1&#45;&gt;Node4 -->
<g id="edge3" class="edge">
<title>Node1&#45;&gt;Node4</title>
<path fill="none" stroke="midnightblue" d="M1417.71,-206.02C1395.57,-190.61 1359.4,-167.31 1325,-153.5 1312.78,-148.59 1299.08,-144.74 1286.23,-141.78"/>
<polygon fill="midnightblue" stroke="midnightblue" points="1415.84,-208.98 1426.02,-211.9 1419.88,-203.27 1415.84,-208.98"/>
</g>
<!-- Node5 -->
<g id="node5" class="node">
<title>Node5</title>
<g id="a_node5"><a xlink:href="classGameController.html#ae2eb1705e6e90e9b397e33261e7de55f" target="_top" xlink:title=" ">
<polygon fill="white" stroke="black" points="1171.5,-86 1171.5,-105 1302.5,-105 1302.5,-86 1171.5,-86"/>
<text text-anchor="middle" x="1237" y="-93" font-family="Helvetica,sans-Serif" font-size="10.00">GameController::getName</text>
</a>
</g>
</g>
<!-- Node1&#45;&gt;Node5 -->
<g id="edge4" class="edge">
<title>Node1&#45;&gt;Node5</title>
<path fill="none" stroke="midnightblue" d="M1425.36,-203.71C1405.84,-179.57 1367.57,-136.9 1325,-114.5 1317.61,-110.61 1309.47,-107.52 1301.22,-105.06"/>
<polygon fill="midnightblue" stroke="midnightblue" points="1422.72,-206.02 1431.67,-211.69 1428.21,-201.68 1422.72,-206.02"/>
</g>
<!-- Node6 -->
<g id="node6" class="node">
<title>Node6</title>
<g id="a_node6"><a xlink:href="classJoyButton.html#abb09326682e89c3c32975519ee73dfb0" target="_top" xlink:title=" ">
<polygon fill="white" stroke="black" points="989.5,-319 989.5,-338 1093.5,-338 1093.5,-319 989.5,-319"/>
<text text-anchor="middle" x="1041.5" y="-326" font-family="Helvetica,sans-Serif" font-size="10.00">JoyButton::joyEvent</text>
</a>
</g>
</g>
<!-- Node1&#45;&gt;Node6 -->
<g id="edge5" class="edge">
<title>Node1&#45;&gt;Node6</title>
<path fill="none" stroke="midnightblue" d="M1357.51,-232.58C1298.66,-241.83 1217.78,-257.14 1149,-279.5 1116.48,-290.07 1080.78,-307.87 1060.07,-318.86"/>
<polygon fill="midnightblue" stroke="midnightblue" points="1358.15,-236.02 1367.49,-231.03 1357.08,-229.1 1358.15,-236.02"/>
</g>
<!-- Node16 -->
<g id="node11" class="node">
<title>Node16</title>
<g id="a_node11"><a xlink:href="classInputDaemon.html#a0cf6bcd3287d97d75c32a3921c633a7a" target="_top" xlink:title=" ">
<polygon fill="white" stroke="black" points="396,-256 396,-275 552,-275 552,-256 396,-256"/>
<text text-anchor="middle" x="474" y="-263" font-family="Helvetica,sans-Serif" font-size="10.00">InputDaemon::secondInputPass</text>
</a>
</g>
</g>
<!-- Node1&#45;&gt;Node16 -->
<g id="edge57" class="edge">
<title>Node1&#45;&gt;Node16</title>
<path fill="none" stroke="midnightblue" d="M1350.68,-221.5C1270.33,-221.5 1148.45,-221.5 1042.5,-221.5 1042.5,-221.5 1042.5,-221.5 856.5,-221.5 736.84,-221.5 706.46,-224.59 588,-241.5 562.98,-245.07 535.22,-250.94 513.47,-255.98"/>
<polygon fill="midnightblue" stroke="midnightblue" points="1350.76,-225 1360.76,-221.5 1350.76,-218 1350.76,-225"/>
</g>
<!-- Node88 -->
<g id="node21" class="node">
<title>Node88</title>
<g id="a_node21"><a xlink:href="classJoystickStatusWindow.html#a96d9e83b764e14faed4c4dc275d23c45" target="_top" xlink:title=" ">
<polygon fill="white" stroke="black" points="20,-442.5 20,-472.5 142,-472.5 142,-442.5 20,-442.5"/>
<text text-anchor="start" x="28" y="-460.5" font-family="Helvetica,sans-Serif" font-size="10.00">JoystickStatusWindow</text>
<text text-anchor="middle" x="81" y="-449.5" font-family="Helvetica,sans-Serif" font-size="10.00">::JoystickStatusWindow</text>
</a>
</g>
</g>
<!-- Node1&#45;&gt;Node88 -->
<g id="edge54" class="edge">
<title>Node1&#45;&gt;Node88</title>
<path fill="none" stroke="midnightblue" d="M1431.91,-240.74C1400.41,-322.58 1264.73,-637.5 1042.5,-637.5 1042.5,-637.5 1042.5,-637.5 473,-637.5 348.18,-637.5 306.96,-641.38 198,-580.5 149.57,-553.44 109.42,-499.29 91.73,-472.8"/>
<polygon fill="midnightblue" stroke="midnightblue" points="1435.19,-241.96 1435.45,-231.37 1428.65,-239.49 1435.19,-241.96"/>
</g>
<!-- Node127 -->
<g id="node44" class="node">
<title>Node127</title>
<g id="a_node44"><a xlink:href="classAppLaunchHelper.html#a13afb00ecda614a2290209339436d4a7" target="_top" xlink:title=" ">
<polygon fill="white" stroke="black" points="1149,-48 1149,-67 1325,-67 1325,-48 1149,-48"/>
<text text-anchor="middle" x="1237" y="-55" font-family="Helvetica,sans-Serif" font-size="10.00">AppLaunchHelper::printControllerList</text>
</a>
</g>
</g>
<!-- Node1&#45;&gt;Node127 -->
<g id="edge55" class="edge">
<title>Node1&#45;&gt;Node127</title>
<path fill="none" stroke="midnightblue" d="M1429.86,-202.85C1413.46,-171.47 1375.93,-108.41 1325,-76.5 1318.84,-72.64 1312.01,-69.56 1304.97,-67.1"/>
<polygon fill="midnightblue" stroke="midnightblue" points="1426.78,-204.52 1434.43,-211.85 1433.02,-201.35 1426.78,-204.52"/>
</g>
<!-- Node128 -->
<g id="node46" class="node">
<title>Node128</title>
<g id="a_node46"><a xlink:href="classMainWindow.html#a30076e3116e3b40bb01db2b9a2933266" target="_top" xlink:title=" ">
<polygon fill="white" stroke="black" points="1159,-9 1159,-28 1315,-28 1315,-9 1159,-9"/>
<text text-anchor="middle" x="1237" y="-16" font-family="Helvetica,sans-Serif" font-size="10.00">MainWindow::showBatteryLevel</text>
</a>
</g>
</g>
<!-- Node1&#45;&gt;Node128 -->
<g id="edge58" class="edge">
<title>Node1&#45;&gt;Node128</title>
<path fill="none" stroke="midnightblue" d="M1432.55,-201.84C1419.05,-163.91 1384.07,-80.65 1325,-38.5 1318.94,-34.18 1312.1,-30.77 1304.98,-28.1"/>
<polygon fill="midnightblue" stroke="midnightblue" points="1429.37,-203.34 1435.92,-211.67 1435.99,-201.07 1429.37,-203.34"/>
</g>
<!-- Node130 -->
<g id="node49" class="node">
<title>Node130</title>
<g id="a_node49"><a xlink:href="classJoyButton.html#afb5704003e2483ff61e142c7a7bd4699" target="_top" xlink:title=" ">
<polygon fill="white" stroke="black" points="1171.5,-337.5 1171.5,-367.5 1302.5,-367.5 1302.5,-337.5 1171.5,-337.5"/>
<text text-anchor="start" x="1179.5" y="-355.5" font-family="Helvetica,sans-Serif" font-size="10.00">JoyButton::startSequence</text>
<text text-anchor="middle" x="1237" y="-344.5" font-family="Helvetica,sans-Serif" font-size="10.00">OfPressActive</text>
</a>
</g>
</g>
<!-- Node1&#45;&gt;Node130 -->
<g id="edge61" class="edge">
<title>Node1&#45;&gt;Node130</title>
<path fill="none" stroke="midnightblue" d="M1425.18,-238.97C1405.46,-262.72 1366.95,-304.95 1325,-328.5 1318.03,-332.41 1310.39,-335.72 1302.61,-338.5"/>
<polygon fill="midnightblue" stroke="midnightblue" points="1427.97,-241.08 1431.57,-231.12 1422.54,-236.67 1427.97,-241.08"/>
</g>
<!-- Node131 -->
<g id="node50" class="node">
<title>Node131</title>
<g id="a_node50"><a xlink:href="classJoyButton.html#ab0ca3b9966d8da06279d2f347e42e78b" target="_top" xlink:title=" ">
<polygon fill="white" stroke="black" points="1161.5,-288.5 1161.5,-318.5 1312.5,-318.5 1312.5,-288.5 1161.5,-288.5"/>
<text text-anchor="start" x="1169.5" y="-306.5" font-family="Helvetica,sans-Serif" font-size="10.00">JoyButton::updateParamsAfter</text>
<text text-anchor="middle" x="1237" y="-295.5" font-family="Helvetica,sans-Serif" font-size="10.00">DistEvent</text>
</a>
</g>
</g>
<!-- Node1&#45;&gt;Node131 -->
<g id="edge63" class="edge">
<title>Node1&#45;&gt;Node131</title>
<path fill="none" stroke="midnightblue" d="M1410.34,-235.5C1387.48,-246.44 1354.52,-261.71 1325,-273.5 1311.94,-278.72 1297.58,-283.89 1284.36,-288.44"/>
<polygon fill="midnightblue" stroke="midnightblue" points="1411.99,-238.59 1419.48,-231.1 1408.95,-232.28 1411.99,-238.59"/>
</g>
<!-- Node7 -->
<g id="node7" class="node">
<title>Node7</title>
<g id="a_node7"><a xlink:href="classJoyButton.html#a4acc0f1d2e12a34874522f558e1e9d3f" target="_top" xlink:title=" ">
<polygon fill="white" stroke="black" points="790,-250.5 790,-280.5 925,-280.5 925,-250.5 790,-250.5"/>
<text text-anchor="start" x="798" y="-268.5" font-family="Helvetica,sans-Serif" font-size="10.00">JoyButton::activatePending</text>
<text text-anchor="middle" x="857.5" y="-257.5" font-family="Helvetica,sans-Serif" font-size="10.00">Event</text>
</a>
</g>
</g>
<!-- Node6&#45;&gt;Node7 -->
<g id="edge6" class="edge">
<title>Node6&#45;&gt;Node7</title>
<path fill="none" stroke="midnightblue" d="M1004.68,-315.49C984.05,-308.05 957.61,-298.62 934,-290.5 924.47,-287.22 914.23,-283.78 904.47,-280.54"/>
<polygon fill="midnightblue" stroke="midnightblue" points="1003.7,-318.86 1014.3,-318.96 1006.08,-312.27 1003.7,-318.86"/>
</g>
<!-- Node75 -->
<g id="node15" class="node">
<title>Node75</title>
<g id="a_node15"><a xlink:href="classJoyDPad.html#a1f5c5db45f36b205d1c4a43f1616950a" target="_top" xlink:title=" ">
<polygon fill="white" stroke="black" points="788.5,-338 788.5,-357 926.5,-357 926.5,-338 788.5,-338"/>
<text text-anchor="middle" x="857.5" y="-345" font-family="Helvetica,sans-Serif" font-size="10.00">JoyDPad::createDeskEvent</text>
</a>
</g>
</g>
<!-- Node6&#45;&gt;Node75 -->
<g id="edge14" class="edge">
<title>Node6&#45;&gt;Node75</title>
<path fill="none" stroke="midnightblue" d="M979.05,-334.92C962.19,-336.67 943.82,-338.59 926.62,-340.39"/>
<polygon fill="midnightblue" stroke="midnightblue" points="979.74,-338.36 989.32,-333.84 979.01,-331.4 979.74,-338.36"/>
</g>
<!-- Node86 -->
<g id="node19" class="node">
<title>Node86</title>
<g id="a_node19"><a xlink:href="classSetJoystick.html#aa93108aaa5ccbf15f1b56b22ec73798b" target="_top" xlink:title="Perform a release of all elements of a set. Stick and vdpad releases will be handled by the associate...">
<polygon fill="white" stroke="black" points="422,-355 422,-374 526,-374 526,-355 422,-355"/>
<text text-anchor="middle" x="474" y="-362" font-family="Helvetica,sans-Serif" font-size="10.00">SetJoystick::release</text>
</a>
</g>
</g>
<!-- Node6&#45;&gt;Node86 -->
<g id="edge42" class="edge">
<title>Node6&#45;&gt;Node86</title>
<path fill="none" stroke="midnightblue" d="M1010.94,-342.14C989.97,-351.05 960.89,-361.85 934,-366.5 924.09,-368.22 644.04,-365.98 526.33,-364.96"/>
<polygon fill="midnightblue" stroke="midnightblue" points="1012.48,-345.29 1020.25,-338.09 1009.69,-338.87 1012.48,-345.29"/>
</g>
<!-- Node95 -->
<g id="node28" class="node">
<title>Node95</title>
<g id="a_node28"><a xlink:href="classJoyAxis.html#a0e85739f3da15defbb1ad9ffb7def2d9" target="_top" xlink:title=" ">
<polygon fill="white" stroke="black" points="791,-416 791,-435 924,-435 924,-416 791,-416"/>
<text text-anchor="middle" x="857.5" y="-423" font-family="Helvetica,sans-Serif" font-size="10.00">JoyAxis::createDeskEvent</text>
</a>
</g>
</g>
<!-- Node6&#45;&gt;Node95 -->
<g id="edge32" class="edge">
<title>Node6&#45;&gt;Node95</title>
<path fill="none" stroke="midnightblue" d="M1020.29,-344.27C999.55,-359.89 965.89,-383.71 934,-399.5 920.83,-406.02 905.62,-411.6 892.32,-415.9"/>
<polygon fill="midnightblue" stroke="midnightblue" points="1022.52,-346.97 1028.35,-338.12 1018.28,-341.41 1022.52,-346.97"/>
</g>
<!-- Node99 -->
<g id="node30" class="node">
<title>Node99</title>
<g id="a_node30"><a xlink:href="classJoyControlStick.html#a18e586ffa9f2fc09004dd1ebc895b3a8" target="_top" xlink:title="Find the position of the two stick axes, deactivate no longer used stick direction button and then ac...">
<polygon fill="white" stroke="black" points="595.5,-75.5 595.5,-105.5 737.5,-105.5 737.5,-75.5 595.5,-75.5"/>
<text text-anchor="start" x="603.5" y="-93.5" font-family="Helvetica,sans-Serif" font-size="10.00">JoyControlStick::createDesk</text>
<text text-anchor="middle" x="666.5" y="-82.5" font-family="Helvetica,sans-Serif" font-size="10.00">Event</text>
</a>
</g>
</g>
<!-- Node6&#45;&gt;Node99 -->
<g id="edge35" class="edge">
<title>Node6&#45;&gt;Node99</title>
<path fill="none" stroke="midnightblue" d="M1037.82,-308.57C1030.55,-263.24 1005.92,-152.63 934,-104.5 876.43,-65.98 795.22,-67.67 737.6,-75.75"/>
<polygon fill="midnightblue" stroke="midnightblue" points="1034.38,-309.23 1039.31,-318.61 1041.31,-308.2 1034.38,-309.23"/>
</g>
<!-- Node107 -->
<g id="node33" class="node">
<title>Node107</title>
<g id="a_node33"><a xlink:href="classJoyControlStick.html#a0bd5c24e572f9485780820d54f755b88" target="_top" xlink:title="Activate a stick direction button.">
<polygon fill="white" stroke="black" points="795,-162.5 795,-192.5 920,-192.5 920,-162.5 795,-162.5"/>
<text text-anchor="start" x="803" y="-180.5" font-family="Helvetica,sans-Serif" font-size="10.00">JoyControlStick::perform</text>
<text text-anchor="middle" x="857.5" y="-169.5" font-family="Helvetica,sans-Serif" font-size="10.00">ButtonPress</text>
</a>
</g>
</g>
<!-- Node6&#45;&gt;Node107 -->
<g id="edge38" class="edge">
<title>Node6&#45;&gt;Node107</title>
<path fill="none" stroke="midnightblue" d="M1021.14,-312.44C985.81,-283.13 911.38,-221.37 876.83,-192.71"/>
<polygon fill="midnightblue" stroke="midnightblue" points="1018.91,-315.13 1028.84,-318.82 1023.38,-309.75 1018.91,-315.13"/>
</g>
<!-- Node108 -->
<g id="node34" class="node">
<title>Node108</title>
<g id="a_node34"><a xlink:href="classJoyControlStick.html#a32b6c7a796ec7b24e9c0124a6bcffd2e" target="_top" xlink:title="Stick direction button to release.">
<polygon fill="white" stroke="black" points="795,-113.5 795,-143.5 920,-143.5 920,-113.5 795,-113.5"/>
<text text-anchor="start" x="803" y="-131.5" font-family="Helvetica,sans-Serif" font-size="10.00">JoyControlStick::perform</text>
<text text-anchor="middle" x="857.5" y="-120.5" font-family="Helvetica,sans-Serif" font-size="10.00">ButtonRelease</text>
</a>
</g>
</g>
<!-- Node6&#45;&gt;Node108 -->
<g id="edge40" class="edge">
<title>Node6&#45;&gt;Node108</title>
<path fill="none" stroke="midnightblue" d="M1033.91,-309.2C1020.67,-273.29 987.48,-196.04 934,-153.5 929.14,-149.63 923.65,-146.35 917.91,-143.57"/>
<polygon fill="midnightblue" stroke="midnightblue" points="1030.72,-310.68 1037.37,-318.93 1037.31,-308.33 1030.72,-310.68"/>
</g>
<!-- Node109 -->
<g id="node35" class="node">
<title>Node109</title>
<g id="a_node35"><a xlink:href="classJoyControlStick.html#a295a9b9b1a5c4d3a49c9d9697a9527e0" target="_top" xlink:title=" ">
<polygon fill="white" stroke="black" points="796,-496.5 796,-526.5 919,-526.5 919,-496.5 796,-496.5"/>
<text text-anchor="start" x="804" y="-514.5" font-family="Helvetica,sans-Serif" font-size="10.00">JoyControlStick::release</text>
<text text-anchor="middle" x="857.5" y="-503.5" font-family="Helvetica,sans-Serif" font-size="10.00">ButtonEvents</text>
</a>
</g>
</g>
<!-- Node6&#45;&gt;Node109 -->
<g id="edge43" class="edge">
<title>Node6&#45;&gt;Node109</title>
<path fill="none" stroke="midnightblue" d="M1032.5,-347.57C1017.78,-380.42 983.33,-447.75 934,-485.5 928.39,-489.8 922.01,-493.41 915.4,-496.45"/>
<polygon fill="midnightblue" stroke="midnightblue" points="1035.79,-348.77 1036.58,-338.2 1029.38,-345.97 1035.79,-348.77"/>
</g>
<!-- Node122 -->
<g id="node40" class="node">
<title>Node122</title>
<g id="a_node40"><a xlink:href="classJoyDPad.html#aa20b65bef79d9e80894a9be835b441c1" target="_top" xlink:title=" ">
<polygon fill="white" stroke="black" points="781,-300 781,-319 934,-319 934,-300 781,-300"/>
<text text-anchor="middle" x="857.5" y="-307" font-family="Helvetica,sans-Serif" font-size="10.00">JoyDPad::releaseButtonEvents</text>
</a>
</g>
</g>
<!-- Node6&#45;&gt;Node122 -->
<g id="edge48" class="edge">
<title>Node6&#45;&gt;Node122</title>
<path fill="none" stroke="midnightblue" d="M979.03,-322.08C964.6,-320.58 949.06,-318.95 934.1,-317.39"/>
<polygon fill="midnightblue" stroke="midnightblue" points="979.01,-325.6 989.32,-323.16 979.74,-318.64 979.01,-325.6"/>
</g>
<!-- Node125 -->
<g id="node42" class="node">
<title>Node125</title>
<g id="a_node42"><a xlink:href="classJoyAxis.html#a8df3e761cbf9876ab5a3db30c1a02fc3" target="_top" xlink:title=" ">
<polygon fill="white" stroke="black" points="603.5,-590 603.5,-609 729.5,-609 729.5,-590 603.5,-590"/>
<text text-anchor="middle" x="666.5" y="-597" font-family="Helvetica,sans-Serif" font-size="10.00">JoyAxis::removeVDPads</text>
</a>
</g>
</g>
<!-- Node6&#45;&gt;Node125 -->
<g id="edge50" class="edge">
<title>Node6&#45;&gt;Node125</title>
<path fill="none" stroke="midnightblue" d="M1036.29,-348.15C1026.31,-389.76 997.17,-486.98 934,-536.5 875.16,-582.62 788.05,-595.85 729.61,-599.2"/>
<polygon fill="midnightblue" stroke="midnightblue" points="1039.75,-348.72 1038.56,-338.19 1032.93,-347.16 1039.75,-348.72"/>
</g>
<!-- Node126 -->
<g id="node43" class="node">
<title>Node126</title>
<g id="a_node43"><a xlink:href="classJoyButton.html#ad152d22f7f7d8ea561f363d43903e059" target="_top" xlink:title=" ">
<polygon fill="white" stroke="black" points="801.5,-457 801.5,-476 913.5,-476 913.5,-457 801.5,-457"/>
<text text-anchor="middle" x="857.5" y="-464" font-family="Helvetica,sans-Serif" font-size="10.00">JoyButton::setVDPad</text>
</a>
</g>
</g>
<!-- Node6&#45;&gt;Node126 -->
<g id="edge52" class="edge">
<title>Node6&#45;&gt;Node126</title>
<path fill="none" stroke="midnightblue" d="M1028.68,-346.66C1011.08,-372.25 975.57,-418.68 934,-444.5 925.53,-449.76 915.76,-453.81 906.1,-456.91"/>
<polygon fill="midnightblue" stroke="midnightblue" points="1031.66,-348.5 1034.33,-338.25 1025.85,-344.6 1031.66,-348.5"/>
</g>
<!-- Node8 -->
<g id="node8" class="node">
<title>Node8</title>
<g id="a_node8"><a xlink:href="classInputDevice.html#af5f9f9065334b90aa45d4c86a63337f1" target="_top" xlink:title=" ">
<polygon fill="white" stroke="black" points="593.5,-162.5 593.5,-192.5 739.5,-192.5 739.5,-162.5 593.5,-162.5"/>
<text text-anchor="start" x="601.5" y="-180.5" font-family="Helvetica,sans-Serif" font-size="10.00">InputDevice::activatePossible</text>
<text text-anchor="middle" x="666.5" y="-169.5" font-family="Helvetica,sans-Serif" font-size="10.00">ButtonEvents</text>
</a>
</g>
</g>
<!-- Node7&#45;&gt;Node8 -->
<g id="edge7" class="edge">
<title>Node7&#45;&gt;Node8</title>
<path fill="none" stroke="midnightblue" d="M814.64,-246.01C780.03,-229.89 731.58,-207.34 699.88,-192.58"/>
<polygon fill="midnightblue" stroke="midnightblue" points="813.47,-249.32 824.01,-250.37 816.42,-242.98 813.47,-249.32"/>
</g>
<!-- Node9 -->
<g id="node9" class="node">
<title>Node9</title>
<g id="a_node9"><a xlink:href="classInputDevice.html#a65bcbfa6997970fff86e72e3a13167e0" target="_top" xlink:title=" ">
<polygon fill="white" stroke="black" points="401,-157.5 401,-187.5 547,-187.5 547,-157.5 401,-157.5"/>
<text text-anchor="start" x="409" y="-175.5" font-family="Helvetica,sans-Serif" font-size="10.00">InputDevice::activatePossible</text>
<text text-anchor="middle" x="474" y="-164.5" font-family="Helvetica,sans-Serif" font-size="10.00">PendingEvents</text>
</a>
</g>
</g>
<!-- Node8&#45;&gt;Node9 -->
<g id="edge8" class="edge">
<title>Node8&#45;&gt;Node9</title>
<path fill="none" stroke="midnightblue" d="M583.42,-175.35C571.34,-175.03 558.98,-174.7 547.12,-174.39"/>
<polygon fill="midnightblue" stroke="midnightblue" points="583.39,-178.85 593.48,-175.61 583.58,-171.85 583.39,-178.85"/>
</g>
<!-- Node10 -->
<g id="node10" class="node">
<title>Node10</title>
<g id="a_node10"><a xlink:href="classInputDevice.html#ac34e93b3e44b08cffb86551e15bedfb4" target="_top" xlink:title=" ">
<polygon fill="white" stroke="red" points="408.5,-119 408.5,-138 539.5,-138 539.5,-119 408.5,-119"/>
<text text-anchor="middle" x="474" y="-126" font-family="Helvetica,sans-Serif" font-size="10.00">InputDevice::reInitButtons</text>
</a>
</g>
</g>
<!-- Node8&#45;&gt;Node10 -->
<g id="edge9" class="edge">
<title>Node8&#45;&gt;Node10</title>
<path fill="none" stroke="midnightblue" d="M597.07,-159.9C568.39,-152.52 536.17,-144.23 512.04,-138.03"/>
<polygon fill="midnightblue" stroke="midnightblue" points="596.49,-163.36 607.05,-162.47 598.24,-156.58 596.49,-163.36"/>
</g>
<!-- Node8&#45;&gt;Node16 -->
<g id="edge10" class="edge">
<title>Node8&#45;&gt;Node16</title>
<path fill="none" stroke="midnightblue" d="M607.1,-196.73C600.42,-199.9 593.9,-203.48 588,-207.5 568.5,-220.77 572.31,-234.5 552,-246.5 545.48,-250.35 538.21,-253.43 530.81,-255.88"/>
<polygon fill="midnightblue" stroke="midnightblue" points="608.54,-199.92 616.25,-192.66 605.69,-193.52 608.54,-199.92"/>
</g>
<!-- Node19 -->
<g id="node14" class="node">
<title>Node19</title>
<g id="a_node14"><a xlink:href="classInputDevice.html#aebcc4b8149c2bab8a0652323206d32bb" target="_top" xlink:title=" ">
<polygon fill="white" stroke="red" points="408.5,-206.5 408.5,-236.5 539.5,-236.5 539.5,-206.5 408.5,-206.5"/>
<text text-anchor="start" x="416.5" y="-224.5" font-family="Helvetica,sans-Serif" font-size="10.00">InputDevice::setActiveSet</text>
<text text-anchor="middle" x="474" y="-213.5" font-family="Helvetica,sans-Serif" font-size="10.00">Number</text>
</a>
</g>
</g>
<!-- Node8&#45;&gt;Node19 -->
<g id="edge13" class="edge">
<title>Node8&#45;&gt;Node19</title>
<path fill="none" stroke="midnightblue" d="M590.68,-194.78C573.85,-198.67 556.12,-202.76 539.73,-206.55"/>
<polygon fill="midnightblue" stroke="midnightblue" points="591.52,-198.18 600.47,-192.52 589.94,-191.36 591.52,-198.18"/>
</g>
<!-- Node17 -->
<g id="node12" class="node">
<title>Node17</title>
<g id="a_node12"><a xlink:href="classInputDaemon.html#ad7f954b25b67cb5a84fdb1a154282bfd" target="_top" xlink:title=" ">
<polygon fill="white" stroke="black" points="232,-180 232,-199 326,-199 326,-180 232,-180"/>
<text text-anchor="middle" x="279" y="-187" font-family="Helvetica,sans-Serif" font-size="10.00">InputDaemon::run</text>
</a>
</g>
</g>
<!-- Node16&#45;&gt;Node17 -->
<g id="edge11" class="edge">
<title>Node16&#45;&gt;Node17</title>
<path fill="none" stroke="midnightblue" d="M409.43,-252.56C404.78,-250.79 400.25,-248.78 396,-246.5 376.87,-236.25 378.87,-224.22 360,-213.5 349.16,-207.34 336.57,-202.61 324.64,-199.04"/>
<polygon fill="midnightblue" stroke="midnightblue" points="408.51,-255.95 419.11,-255.88 410.78,-249.32 408.51,-255.95"/>
</g>
<!-- Node18 -->
<g id="node13" class="node">
<title>Node18</title>
<g id="a_node13"><a xlink:href="classInputDaemon.html#ab7c3d331123e946ed8da490dfee5c265" target="_top" xlink:title=" ">
<polygon fill="white" stroke="black" points="12,-180 12,-199 150,-199 150,-180 12,-180"/>
<text text-anchor="middle" x="81" y="-187" font-family="Helvetica,sans-Serif" font-size="10.00">InputDaemon::InputDaemon</text>
</a>
</g>
</g>
<!-- Node17&#45;&gt;Node18 -->
<g id="edge12" class="edge">
<title>Node17&#45;&gt;Node18</title>
<path fill="none" stroke="midnightblue" d="M221.26,-189.5C199,-189.5 173.26,-189.5 150.02,-189.5"/>
<polygon fill="midnightblue" stroke="midnightblue" points="221.55,-193 231.55,-189.5 221.55,-186 221.55,-193"/>
</g>
<!-- Node76 -->
<g id="node16" class="node">
<title>Node76</title>
<g id="a_node16"><a xlink:href="classJoyDPad.html#adfcee6e2b57a7e643c74c26159a32997" target="_top" xlink:title=" ">
<polygon fill="white" stroke="black" points="588,-376.5 588,-406.5 745,-406.5 745,-376.5 588,-376.5"/>
<text text-anchor="start" x="596" y="-394.5" font-family="Helvetica,sans-Serif" font-size="10.00">JoyDPad::dpadDirectionChange</text>
<text text-anchor="middle" x="666.5" y="-383.5" font-family="Helvetica,sans-Serif" font-size="10.00">Event</text>
</a>
</g>
</g>
<!-- Node75&#45;&gt;Node76 -->
<g id="edge15" class="edge">
<title>Node75&#45;&gt;Node76</title>
<path fill="none" stroke="midnightblue" d="M805.45,-359.38C782.91,-364.63 756.14,-370.86 732.21,-376.43"/>
<polygon fill="midnightblue" stroke="midnightblue" points="806.54,-362.72 815.49,-357.05 804.96,-355.91 806.54,-362.72"/>
</g>
<!-- Node78 -->
<g id="node18" class="node">
<title>Node78</title>
<g id="a_node18"><a xlink:href="classJoyDPad.html#ac660764f3e958b5c1cf9da1a5d2f2398" target="_top" xlink:title=" ">
<polygon fill="white" stroke="red" points="616,-300 616,-319 717,-319 717,-300 616,-300"/>
<text text-anchor="middle" x="666.5" y="-307" font-family="Helvetica,sans-Serif" font-size="10.00">JoyDPad::joyEvent</text>
</a>
</g>
</g>
<!-- Node75&#45;&gt;Node78 -->
<g id="edge17" class="edge">
<title>Node75&#45;&gt;Node78</title>
<path fill="none" stroke="midnightblue" d="M798.76,-335.89C771.88,-330.49 740.3,-324.14 714.85,-319.02"/>
<polygon fill="midnightblue" stroke="midnightblue" points="798.31,-339.37 808.81,-337.91 799.69,-332.51 798.31,-339.37"/>
</g>
<!-- Node77 -->
<g id="node17" class="node">
<title>Node77</title>
<g id="a_node17"><a xlink:href="classJoyDPad.html#a10f75107588bfe924d270b5151c374e8" target="_top" xlink:title=" ">
<polygon fill="white" stroke="black" points="422,-393 422,-412 526,-412 526,-393 422,-393"/>
<text text-anchor="middle" x="474" y="-400" font-family="Helvetica,sans-Serif" font-size="10.00">JoyDPad::JoyDPad</text>
</a>
</g>
</g>
<!-- Node76&#45;&gt;Node77 -->
<g id="edge16" class="edge">
<title>Node76&#45;&gt;Node77</title>
<path fill="none" stroke="midnightblue" d="M577.44,-396.58C559.84,-397.6 541.92,-398.64 526.09,-399.55"/>
<polygon fill="midnightblue" stroke="midnightblue" points="577.96,-400.06 587.74,-395.99 577.56,-393.07 577.96,-400.06"/>
</g>
<!-- Node78&#45;&gt;Node16 -->
<g id="edge31" class="edge">
<title>Node78&#45;&gt;Node16</title>
<path fill="none" stroke="midnightblue" d="M614.08,-297.62C583.39,-290.54 544.94,-281.66 516.25,-275.03"/>
<polygon fill="midnightblue" stroke="midnightblue" points="613.63,-301.11 624.16,-299.95 615.21,-294.29 613.63,-301.11"/>
</g>
<!-- Node78&#45;&gt;Node86 -->
<g id="edge18" class="edge">
<title>Node78&#45;&gt;Node86</title>
<path fill="none" stroke="midnightblue" d="M622.47,-321.92C587.82,-331.93 539.83,-345.78 508.12,-354.94"/>
<polygon fill="midnightblue" stroke="midnightblue" points="623.68,-325.22 632.32,-319.08 621.74,-318.49 623.68,-325.22"/>
</g>
<!-- Node86&#45;&gt;Node2 -->
<g id="edge19" class="edge">
<title>Node86&#45;&gt;Node2</title>
<path fill="none" stroke="midnightblue" d="M412.04,-372.23C406.04,-375.02 400.52,-378.7 396,-383.5 335.02,-448.33 426.38,-521.2 360,-580.5 301.11,-633.12 204.27,-626.35 141.84,-614.54"/>
<polygon fill="midnightblue" stroke="midnightblue" points="413.67,-375.35 421.77,-368.52 411.18,-368.81 413.67,-375.35"/>
</g>
<!-- Node87 -->
<g id="node20" class="node">
<title>Node87</title>
<g id="a_node20"><a xlink:href="classButtonEditDialog.html#a3e9feede100cbb6a11c9d87659c196ea" target="_top" xlink:title=" ">
<polygon fill="white" stroke="black" points="216.5,-393.5 216.5,-423.5 341.5,-423.5 341.5,-393.5 216.5,-393.5"/>
<text text-anchor="start" x="224.5" y="-411.5" font-family="Helvetica,sans-Serif" font-size="10.00">ButtonEditDialog::Button</text>
<text text-anchor="middle" x="279" y="-400.5" font-family="Helvetica,sans-Serif" font-size="10.00">EditDialog</text>
</a>
</g>
</g>
<!-- Node86&#45;&gt;Node87 -->
<g id="edge20" class="edge">
<title>Node86&#45;&gt;Node87</title>
<path fill="none" stroke="midnightblue" d="M421.29,-376.29C396.76,-381.88 367.27,-388.6 341.59,-394.46"/>
<polygon fill="midnightblue" stroke="midnightblue" points="422.15,-379.68 431.12,-374.05 420.59,-372.86 422.15,-379.68"/>
</g>
<!-- Node86&#45;&gt;Node88 -->
<g id="edge21" class="edge">
<title>Node86&#45;&gt;Node88</title>
<path fill="none" stroke="midnightblue" d="M411.65,-360.59C354.81,-358.9 268.65,-361.31 198,-384.5 159.79,-397.04 121.48,-424.84 99.85,-442.28"/>
<polygon fill="midnightblue" stroke="midnightblue" points="411.79,-364.1 421.91,-360.95 412.03,-357.1 411.79,-364.1"/>
</g>
<!-- Node89 -->
<g id="node22" class="node">
<title>Node89</title>
<g id="a_node22"><a xlink:href="classQuickSetDialog.html#a57726006cbe2d8534f4be91a05646dd2" target="_top" xlink:title=" ">
<polygon fill="white" stroke="black" points="15.5,-262.5 15.5,-292.5 146.5,-292.5 146.5,-262.5 15.5,-262.5"/>
<text text-anchor="start" x="23.5" y="-280.5" font-family="Helvetica,sans-Serif" font-size="10.00">QuickSetDialog::QuickSet</text>
<text text-anchor="middle" x="81" y="-269.5" font-family="Helvetica,sans-Serif" font-size="10.00">Dialog</text>
</a>
</g>
</g>
<!-- Node86&#45;&gt;Node89 -->
<g id="edge22" class="edge">
<title>Node86&#45;&gt;Node89</title>
<path fill="none" stroke="midnightblue" d="M456.71,-347.55C425.62,-315.21 360.79,-247.84 360,-247.5 279.12,-213.17 173.64,-242.38 118.78,-262.44"/>
<polygon fill="midnightblue" stroke="midnightblue" points="454.38,-350.18 463.83,-354.96 459.43,-345.32 454.38,-350.18"/>
</g>
<!-- Node90 -->
<g id="node23" class="node">
<title>Node90</title>
<g id="a_node23"><a xlink:href="classAdvanceStickAssignmentDialog.html#a48ade79f1dfeb93ff668ac18d0e1243f" target="_top" xlink:title=" ">
<polygon fill="white" stroke="black" points="201,-540.5 201,-570.5 357,-570.5 357,-540.5 201,-540.5"/>
<text text-anchor="start" x="209" y="-558.5" font-family="Helvetica,sans-Serif" font-size="10.00">AdvanceStickAssignmentDialog</text>
<text text-anchor="middle" x="279" y="-547.5" font-family="Helvetica,sans-Serif" font-size="10.00">::reenableButtonEvents</text>
</a>
</g>
</g>
<!-- Node86&#45;&gt;Node90 -->
<g id="edge23" class="edge">
<title>Node86&#45;&gt;Node90</title>
<path fill="none" stroke="midnightblue" d="M412.06,-372.61C406.11,-375.34 400.59,-378.89 396,-383.5 348.21,-431.45 406.59,-482.38 360,-531.5 356.71,-534.97 352.93,-537.95 348.86,-540.5"/>
<polygon fill="midnightblue" stroke="midnightblue" points="413.58,-375.77 421.69,-368.95 411.1,-369.23 413.58,-375.77"/>
</g>
<!-- Node91 -->
<g id="node24" class="node">
<title>Node91</title>
<g id="a_node24"><a xlink:href="classJoystickStatusWindow.html#a1a1c28e1d6f480c7424ba81b30b8b4f5" target="_top" xlink:title=" ">
<polygon fill="white" stroke="black" points="221,-442.5 221,-472.5 337,-472.5 337,-442.5 221,-442.5"/>
<text text-anchor="start" x="229" y="-460.5" font-family="Helvetica,sans-Serif" font-size="10.00">JoystickStatusWindow</text>
<text text-anchor="middle" x="279" y="-449.5" font-family="Helvetica,sans-Serif" font-size="10.00">::restoreButtonStates</text>
</a>
</g>
</g>
<!-- Node86&#45;&gt;Node91 -->
<g id="edge25" class="edge">
<title>Node86&#45;&gt;Node91</title>
<path fill="none" stroke="midnightblue" d="M412.2,-375.1C406.48,-377.38 400.97,-380.14 396,-383.5 373.31,-398.83 382.3,-417.61 360,-433.5 353.15,-438.38 345.3,-442.28 337.25,-445.4"/>
<polygon fill="midnightblue" stroke="midnightblue" points="413.66,-378.29 421.96,-371.71 411.37,-371.68 413.66,-378.29"/>
</g>
<!-- Node92 -->
<g id="node25" class="node">
<title>Node92</title>
<g id="a_node25"><a xlink:href="classGameControllerMappingDialogHelper.html#a4040e6cf676fe8af751125e2928d8a35" target="_top" xlink:title=" ">
<polygon fill="white" stroke="black" points="198,-491.5 198,-521.5 360,-521.5 360,-491.5 198,-491.5"/>
<text text-anchor="start" x="206" y="-509.5" font-family="Helvetica,sans-Serif" font-size="10.00">GameControllerMappingDialog</text>
<text text-anchor="middle" x="279" y="-498.5" font-family="Helvetica,sans-Serif" font-size="10.00">Helper::restoreDeviceDeadZones</text>
</a>
</g>
</g>
<!-- Node86&#45;&gt;Node92 -->
<g id="edge27" class="edge">
<title>Node86&#45;&gt;Node92</title>
<path fill="none" stroke="midnightblue" d="M412.3,-373.23C406.36,-375.86 400.77,-379.21 396,-383.5 361.17,-414.79 394.04,-450.36 360,-482.5 356.42,-485.88 352.37,-488.79 348.05,-491.29"/>
<polygon fill="midnightblue" stroke="midnightblue" points="413.71,-376.44 421.88,-369.69 411.28,-369.88 413.71,-376.44"/>
</g>
<!-- Node93 -->
<g id="node26" class="node">
<title>Node93</title>
<g id="a_node26"><a xlink:href="classQuickSetDialog.html#afacbf395389ca073edf366a412c1626b" target="_top" xlink:title=" ">
<polygon fill="white" stroke="black" points="200.5,-305.5 200.5,-335.5 357.5,-335.5 357.5,-305.5 200.5,-305.5"/>
<text text-anchor="start" x="208.5" y="-323.5" font-family="Helvetica,sans-Serif" font-size="10.00">QuickSetDialog::restoreJoystick</text>
<text text-anchor="middle" x="279" y="-312.5" font-family="Helvetica,sans-Serif" font-size="10.00">State</text>
</a>
</g>
</g>
<!-- Node86&#45;&gt;Node93 -->
<g id="edge28" class="edge">
<title>Node86&#45;&gt;Node93</title>
<path fill="none" stroke="midnightblue" d="M421.18,-352.69C398.09,-347.42 370.63,-341.16 346.08,-335.57"/>
<polygon fill="midnightblue" stroke="midnightblue" points="420.59,-356.14 431.12,-354.95 422.15,-349.32 420.59,-356.14"/>
</g>
<!-- Node94 -->
<g id="node27" class="node">
<title>Node94</title>
<g id="a_node27"><a xlink:href="classGameControllerMappingDialogHelper.html#a7852aab5763281aa59c17f2f1da8dd31" target="_top" xlink:title=" ">
<polygon fill="white" stroke="black" points="204.5,-256.5 204.5,-286.5 353.5,-286.5 353.5,-256.5 204.5,-256.5"/>
<text text-anchor="start" x="212.5" y="-274.5" font-family="Helvetica,sans-Serif" font-size="10.00">GameControllerMappingDialog</text>
<text text-anchor="middle" x="279" y="-263.5" font-family="Helvetica,sans-Serif" font-size="10.00">Helper::setupDeadZones</text>
</a>
</g>
</g>
<!-- Node86&#45;&gt;Node94 -->
<g id="edge30" class="edge">
<title>Node86&#45;&gt;Node94</title>
<path fill="none" stroke="midnightblue" d="M450.96,-349.06C428.79,-334.06 393.22,-311.43 360,-296.5 351.9,-292.86 343.12,-289.54 334.44,-286.59"/>
<polygon fill="midnightblue" stroke="midnightblue" points="449.09,-352.02 459.32,-354.78 453.05,-346.25 449.09,-352.02"/>
</g>
<!-- Node90&#45;&gt;Node2 -->
<g id="edge24" class="edge">
<title>Node90&#45;&gt;Node2</title>
<path fill="none" stroke="midnightblue" d="M201.08,-572.77C183.85,-576.64 165.72,-580.71 148.93,-584.47"/>
<polygon fill="midnightblue" stroke="midnightblue" points="202.11,-576.12 211.1,-570.52 200.57,-569.29 202.11,-576.12"/>
</g>
<!-- Node91&#45;&gt;Node88 -->
<g id="edge26" class="edge">
<title>Node91&#45;&gt;Node88</title>
<path fill="none" stroke="midnightblue" d="M210.72,-457.5C188.41,-457.5 163.74,-457.5 142.02,-457.5"/>
<polygon fill="midnightblue" stroke="midnightblue" points="210.78,-461 220.78,-457.5 210.78,-454 210.78,-461"/>
</g>
<!-- Node93&#45;&gt;Node89 -->
<g id="edge29" class="edge">
<title>Node93&#45;&gt;Node89</title>
<path fill="none" stroke="midnightblue" d="M199.26,-303.23C181.77,-299.39 163.42,-295.36 146.56,-291.66"/>
<polygon fill="midnightblue" stroke="midnightblue" points="198.93,-306.74 209.45,-305.46 200.43,-299.9 198.93,-306.74"/>
</g>
<!-- Node96 -->
<g id="node29" class="node">
<title>Node96</title>
<g id="a_node29"><a xlink:href="classJoyAxis.html#a9c5f69db8b88f31a1df043a00ab9d09a" target="_top" xlink:title=" ">
<polygon fill="white" stroke="red" points="619,-426 619,-445 714,-445 714,-426 619,-426"/>
<text text-anchor="middle" x="666.5" y="-433" font-family="Helvetica,sans-Serif" font-size="10.00">JoyAxis::joyEvent</text>
</a>
</g>
</g>
<!-- Node95&#45;&gt;Node96 -->
<g id="edge33" class="edge">
<title>Node95&#45;&gt;Node96</title>
<path fill="none" stroke="midnightblue" d="M780.72,-429.51C758.23,-430.7 734.26,-431.97 714.2,-433.03"/>
<polygon fill="midnightblue" stroke="midnightblue" points="781.13,-432.99 790.93,-428.97 780.76,-426 781.13,-432.99"/>
</g>
<!-- Node96&#45;&gt;Node86 -->
<g id="edge34" class="edge">
<title>Node96&#45;&gt;Node86</title>
<path fill="none" stroke="midnightblue" d="M608.78,-425.13C601.57,-422.8 594.47,-419.96 588,-416.5 568.86,-406.26 571.13,-393.75 552,-383.5 543.99,-379.21 534.99,-375.87 526.05,-373.27"/>
<polygon fill="midnightblue" stroke="midnightblue" points="608.03,-428.56 618.61,-428 609.99,-421.84 608.03,-428.56"/>
</g>
<!-- Node100 -->
<g id="node31" class="node">
<title>Node100</title>
<g id="a_node31"><a xlink:href="classJoyControlStick.html#a376fa9faaaba5e00c4b1f9c8caa6236a" target="_top" xlink:title="Take the input value for the two axes that make up a stick and activate the proper event based on the...">
<polygon fill="white" stroke="red" points="409.5,-81 409.5,-100 538.5,-100 538.5,-81 409.5,-81"/>
<text text-anchor="middle" x="474" y="-88" font-family="Helvetica,sans-Serif" font-size="10.00">JoyControlStick::joyEvent</text>
</a>
</g>
</g>
<!-- Node99&#45;&gt;Node100 -->
<g id="edge36" class="edge">
<title>Node99&#45;&gt;Node100</title>
<path fill="none" stroke="midnightblue" d="M585.25,-90.5C569.7,-90.5 553.6,-90.5 538.67,-90.5"/>
<polygon fill="midnightblue" stroke="midnightblue" points="585.38,-94 595.38,-90.5 585.38,-87 585.38,-94"/>
</g>
<!-- Node105 -->
<g id="node32" class="node">
<title>Node105</title>
<g id="a_node32"><a xlink:href="classJoyControlStick.html#a1eada62b1da2f1a87dd698a19cc59ae4" target="_top" xlink:title="Slot called when directionDelayTimer has timed out. The method will call createDeskEvent.">
<polygon fill="white" stroke="red" points="398,-31.5 398,-61.5 550,-61.5 550,-31.5 398,-31.5"/>
<text text-anchor="start" x="406" y="-49.5" font-family="Helvetica,sans-Serif" font-size="10.00">JoyControlStick::stickDirection</text>
<text text-anchor="middle" x="474" y="-38.5" font-family="Helvetica,sans-Serif" font-size="10.00">ChangeEvent</text>
</a>
</g>
</g>
<!-- Node99&#45;&gt;Node105 -->
<g id="edge37" class="edge">
<title>Node99&#45;&gt;Node105</title>
<path fill="none" stroke="midnightblue" d="M590.27,-73.12C573.66,-69.29 556.21,-65.26 540.06,-61.53"/>
<polygon fill="midnightblue" stroke="midnightblue" points="589.94,-76.64 600.47,-75.48 591.52,-69.82 589.94,-76.64"/>
</g>
<!-- Node107&#45;&gt;Node99 -->
<g id="edge39" class="edge">
<title>Node107&#45;&gt;Node99</title>
<path fill="none" stroke="midnightblue" d="M794.74,-158.99C790.05,-157.24 785.42,-155.41 781,-153.5 748.92,-139.66 714.08,-119.49 691.58,-105.72"/>
<polygon fill="midnightblue" stroke="midnightblue" points="793.82,-162.38 804.42,-162.45 796.18,-155.79 793.82,-162.38"/>
</g>
<!-- Node108&#45;&gt;Node99 -->
<g id="edge41" class="edge">
<title>Node108&#45;&gt;Node99</title>
<path fill="none" stroke="midnightblue" d="M784.84,-114.09C769.35,-110.98 752.99,-107.69 737.56,-104.59"/>
<polygon fill="midnightblue" stroke="midnightblue" points="784.38,-117.57 794.88,-116.11 785.76,-110.71 784.38,-117.57"/>
</g>
<!-- Node110 -->
<g id="node36" class="node">
<title>Node110</title>
<g id="a_node36"><a xlink:href="classJoyControlStickEditDialog.html#aec8873b859f10e904c9ddde9b22c3413" target="_top" xlink:title=" ">
<polygon fill="white" stroke="red" points="601,-540.5 601,-570.5 732,-570.5 732,-540.5 601,-540.5"/>
<text text-anchor="start" x="609" y="-558.5" font-family="Helvetica,sans-Serif" font-size="10.00">JoyControlStickEditDialog</text>
<text text-anchor="middle" x="666.5" y="-547.5" font-family="Helvetica,sans-Serif" font-size="10.00">::implementModes</text>
</a>
</g>
</g>
<!-- Node109&#45;&gt;Node110 -->
<g id="edge44" class="edge">
<title>Node109&#45;&gt;Node110</title>
<path fill="none" stroke="midnightblue" d="M785.7,-527.98C768.08,-532.09 749.28,-536.46 731.98,-540.49"/>
<polygon fill="midnightblue" stroke="midnightblue" points="786.97,-531.28 795.92,-525.6 785.39,-524.46 786.97,-531.28"/>
</g>
<!-- Node112 -->
<g id="node37" class="node">
<title>Node112</title>
<g id="a_node37"><a xlink:href="classJoyAxis.html#aa013bcc6b2391c594f043f8fe0f9b1f2" target="_top" xlink:title=" ">
<polygon fill="white" stroke="red" points="595,-502 595,-521 738,-521 738,-502 595,-502"/>
<text text-anchor="middle" x="666.5" y="-509" font-family="Helvetica,sans-Serif" font-size="10.00">JoyAxis::removeControlStick</text>
</a>
</g>
</g>
<!-- Node109&#45;&gt;Node112 -->
<g id="edge45" class="edge">
<title>Node109&#45;&gt;Node112</title>
<path fill="none" stroke="midnightblue" d="M785.85,-511.5C770.3,-511.5 753.83,-511.5 738.28,-511.5"/>
<polygon fill="midnightblue" stroke="midnightblue" points="785.92,-515 795.92,-511.5 785.92,-508 785.92,-515"/>
</g>
<!-- Node119 -->
<g id="node38" class="node">
<title>Node119</title>
<g id="a_node38"><a xlink:href="classJoyAxis.html#ac51525cabe4d0ea5aafebe949cde458f" target="_top" xlink:title=" ">
<polygon fill="white" stroke="red" points="411.5,-546 411.5,-565 536.5,-565 536.5,-546 411.5,-546"/>
<text text-anchor="middle" x="474" y="-553" font-family="Helvetica,sans-Serif" font-size="10.00">JoyAxis::setControlStick</text>
</a>
</g>
</g>
<!-- Node112&#45;&gt;Node119 -->
<g id="edge46" class="edge">
<title>Node112&#45;&gt;Node119</title>
<path fill="none" stroke="midnightblue" d="M614.08,-523.38C583.39,-530.46 544.94,-539.34 516.25,-545.97"/>
<polygon fill="midnightblue" stroke="midnightblue" points="615.21,-526.71 624.16,-521.05 613.63,-519.89 615.21,-526.71"/>
</g>
<!-- Node120 -->
<g id="node39" class="node">
<title>Node120</title>
<g id="a_node39"><a xlink:href="classJoyAxisButton.html#a8c8633a722e2c0a226924608259221d6" target="_top" xlink:title=" ">
<polygon fill="white" stroke="black" points="408.5,-483 408.5,-502 539.5,-502 539.5,-483 408.5,-483"/>
<text text-anchor="middle" x="474" y="-490" font-family="Helvetica,sans-Serif" font-size="10.00">JoyAxisButton::setVDPad</text>
</a>
</g>
</g>
<!-- Node112&#45;&gt;Node120 -->
<g id="edge47" class="edge">
<title>Node112&#45;&gt;Node120</title>
<path fill="none" stroke="midnightblue" d="M584.54,-503.42C569.52,-501.93 554.02,-500.38 539.57,-498.94"/>
<polygon fill="midnightblue" stroke="midnightblue" points="584.54,-506.94 594.84,-504.45 585.23,-499.98 584.54,-506.94"/>
</g>
<!-- Node123 -->
<g id="node41" class="node">
<title>Node123</title>
<g id="a_node41"><a xlink:href="classDPadEditDialog.html#adfad573034ea62490614303638c16040" target="_top" xlink:title=" ">
<polygon fill="white" stroke="red" points="598,-250.5 598,-280.5 735,-280.5 735,-250.5 598,-250.5"/>
<text text-anchor="start" x="606" y="-268.5" font-family="Helvetica,sans-Serif" font-size="10.00">DPadEditDialog::implement</text>
<text text-anchor="middle" x="666.5" y="-257.5" font-family="Helvetica,sans-Serif" font-size="10.00">Modes</text>
</a>
</g>
</g>
<!-- Node122&#45;&gt;Node123 -->
<g id="edge49" class="edge">
<title>Node122&#45;&gt;Node123</title>
<path fill="none" stroke="midnightblue" d="M805.45,-297.62C782.91,-292.37 756.14,-286.14 732.21,-280.57"/>
<polygon fill="midnightblue" stroke="midnightblue" points="804.96,-301.09 815.49,-299.95 806.54,-294.28 804.96,-301.09"/>
</g>
<!-- Node125&#45;&gt;Node119 -->
<g id="edge51" class="edge">
<title>Node125&#45;&gt;Node119</title>
<path fill="none" stroke="midnightblue" d="M614.08,-587.62C583.39,-580.54 544.94,-571.66 516.25,-565.03"/>
<polygon fill="midnightblue" stroke="midnightblue" points="613.63,-591.11 624.16,-589.95 615.21,-584.29 613.63,-591.11"/>
</g>
<!-- Node126&#45;&gt;Node120 -->
<g id="edge53" class="edge">
<title>Node126&#45;&gt;Node120</title>
<path fill="none" stroke="midnightblue" d="M791.37,-470.94C721.05,-475.73 609.74,-483.32 539.62,-488.1"/>
<polygon fill="midnightblue" stroke="midnightblue" points="791.7,-474.42 801.43,-470.25 791.22,-467.44 791.7,-474.42"/>
</g>
<!-- Node32 -->
<g id="node45" class="node">
<title>Node32</title>
<g id="a_node45"><a xlink:href="main_8cpp.html#a0ddf1224851353fc92bfbff6f499fa97" target="_top" xlink:title=" ">
<polygon fill="white" stroke="black" points="1022.5,-50 1022.5,-69 1060.5,-69 1060.5,-50 1022.5,-50"/>
<text text-anchor="middle" x="1041.5" y="-57" font-family="Helvetica,sans-Serif" font-size="10.00">main</text>
</a>
</g>
</g>
<!-- Node127&#45;&gt;Node32 -->
<g id="edge56" class="edge">
<title>Node127&#45;&gt;Node32</title>
<path fill="none" stroke="midnightblue" d="M1138.76,-58.51C1108.88,-58.81 1079.07,-59.12 1060.72,-59.31"/>
<polygon fill="midnightblue" stroke="midnightblue" points="1138.91,-62 1148.87,-58.4 1138.84,-55 1138.91,-62"/>
</g>
<!-- Node129 -->
<g id="node47" class="node">
<title>Node129</title>
<g id="a_node47"><a xlink:href="classMainWindow.html#a9534526d671d954341e26139bf4f3cad" target="_top" xlink:title=" ">
<polygon fill="white" stroke="black" points="970,-0.5 970,-30.5 1113,-30.5 1113,-0.5 970,-0.5"/>
<text text-anchor="start" x="978" y="-18.5" font-family="Helvetica,sans-Serif" font-size="10.00">MainWindow::checkEachTen</text>
<text text-anchor="middle" x="1041.5" y="-7.5" font-family="Helvetica,sans-Serif" font-size="10.00">MinutesBattery</text>
</a>
</g>
</g>
<!-- Node128&#45;&gt;Node129 -->
<g id="edge59" class="edge">
<title>Node128&#45;&gt;Node129</title>
<path fill="none" stroke="midnightblue" d="M1148.64,-17.15C1136.81,-16.96 1124.79,-16.78 1113.3,-16.6"/>
<polygon fill="midnightblue" stroke="midnightblue" points="1148.91,-20.65 1158.97,-17.31 1149.02,-13.65 1148.91,-20.65"/>
</g>
<!-- Node45 -->
<g id="node48" class="node">
<title>Node45</title>
<g id="a_node48"><a xlink:href="classMainWindow.html#a2f0c03d3d51748ab794e698322110614" target="_top" xlink:title=" ">
<polygon fill="white" stroke="black" points="790.5,-6 790.5,-25 924.5,-25 924.5,-6 790.5,-6"/>
<text text-anchor="middle" x="857.5" y="-13" font-family="Helvetica,sans-Serif" font-size="10.00">MainWindow::MainWindow</text>
</a>
</g>
</g>
<!-- Node129&#45;&gt;Node45 -->
<g id="edge60" class="edge">
<title>Node129&#45;&gt;Node45</title>
<path fill="none" stroke="midnightblue" d="M959.66,-15.5C947.94,-15.5 936,-15.5 924.62,-15.5"/>
<polygon fill="midnightblue" stroke="midnightblue" points="959.87,-19 969.87,-15.5 959.87,-12 959.87,-19"/>
</g>
<!-- Node130&#45;&gt;Node6 -->
<g id="edge62" class="edge">
<title>Node130&#45;&gt;Node6</title>
<path fill="none" stroke="midnightblue" d="M1161.07,-343.21C1138.53,-340.41 1114.31,-337.41 1093.68,-334.85"/>
<polygon fill="midnightblue" stroke="midnightblue" points="1160.94,-346.72 1171.3,-344.47 1161.81,-339.77 1160.94,-346.72"/>
</g>
<!-- Node131&#45;&gt;Node6 -->
<g id="edge64" class="edge">
<title>Node131&#45;&gt;Node6</title>
<path fill="none" stroke="midnightblue" d="M1151.54,-314.41C1131.81,-316.96 1111.39,-319.6 1093.63,-321.89"/>
<polygon fill="midnightblue" stroke="midnightblue" points="1152,-317.88 1161.46,-313.13 1151.1,-310.94 1152,-317.88"/>
</g>
</g>
</svg>
