<?xml version="1.0" encoding="UTF-8" standalone="no"?>
<!DOCTYPE svg PUBLIC "-//W3C//DTD SVG 1.1//EN"
 "http://www.w3.org/Graphics/SVG/1.1/DTD/svg11.dtd">
<!-- Generated by graphviz version 2.43.0 (0)
 -->
<!-- Title: GameControllerSet::refreshAxes Pages: 1 -->
<svg width="696pt" height="508pt"
 viewBox="0.00 0.00 696.00 507.50" xmlns="http://www.w3.org/2000/svg" xmlns:xlink="http://www.w3.org/1999/xlink">
<g id="graph0" class="graph" transform="scale(1 1) rotate(0) translate(4 503.5)">
<title>GameControllerSet::refreshAxes</title>
<polygon fill="white" stroke="transparent" points="-4,4 -4,-503.5 692,-503.5 692,4 -4,4"/>
<!-- Node1 -->
<g id="node1" class="node">
<title>Node1</title>
<g id="a_node1"><a xlink:title=" ">
<polygon fill="#bfbfbf" stroke="black" points="0,-188.5 0,-218.5 106,-218.5 106,-188.5 0,-188.5"/>
<text text-anchor="start" x="8" y="-206.5" font-family="Helvetica,sans-Serif" font-size="10.00">GameControllerSet::</text>
<text text-anchor="middle" x="53" y="-195.5" font-family="Helvetica,sans-Serif" font-size="10.00">refreshAxes</text>
</a>
</g>
</g>
<!-- Node2 -->
<g id="node2" class="node">
<title>Node2</title>
<g id="a_node2"><a xlink:href="classSetJoystick.html#ac4cf722b6e314f078d20b00bf10e887e" target="_top" xlink:title=" ">
<polygon fill="white" stroke="black" points="169.5,-289 169.5,-308 290.5,-308 290.5,-289 169.5,-289"/>
<text text-anchor="middle" x="230" y="-296" font-family="Helvetica,sans-Serif" font-size="10.00">SetJoystick::deleteAxes</text>
</a>
</g>
</g>
<!-- Node1&#45;&gt;Node2 -->
<g id="edge1" class="edge">
<title>Node1&#45;&gt;Node2</title>
<path fill="none" stroke="midnightblue" d="M67.01,-218.58C82.91,-236.01 111.49,-264.24 142,-279.5 147.54,-282.27 153.47,-284.63 159.54,-286.66"/>
<polygon fill="midnightblue" stroke="midnightblue" points="158.56,-290.02 169.15,-289.56 160.59,-283.32 158.56,-290.02"/>
</g>
<!-- Node3 -->
<g id="node3" class="node">
<title>Node3</title>
<g id="a_node3"><a xlink:href="classSetJoystick.html#a75a8851568f88ac1966ae2ba0704ae42" target="_top" xlink:title=" ">
<polygon fill="white" stroke="black" points="142,-251 142,-270 318,-270 318,-251 142,-251"/>
<text text-anchor="middle" x="230" y="-258" font-family="Helvetica,sans-Serif" font-size="10.00">SetJoystick::enableAxisConnections</text>
</a>
</g>
</g>
<!-- Node1&#45;&gt;Node3 -->
<g id="edge2" class="edge">
<title>Node1&#45;&gt;Node3</title>
<path fill="none" stroke="midnightblue" d="M84.8,-218.54C101.44,-226.21 122.52,-235.23 142,-241.5 150.23,-244.15 159.02,-246.55 167.73,-248.68"/>
<polygon fill="midnightblue" stroke="midnightblue" points="166.96,-252.09 177.5,-250.97 168.56,-245.28 166.96,-252.09"/>
</g>
<!-- Node20 -->
<g id="node20" class="node">
<title>Node20</title>
<g id="a_node20"><a xlink:href="classSetJoystick.html#a4d1b6543ec53dd06992f77c0b89a5532" target="_top" xlink:title=" ">
<polygon fill="white" stroke="black" points="176,-213 176,-232 284,-232 284,-213 176,-213"/>
<text text-anchor="middle" x="230" y="-220" font-family="Helvetica,sans-Serif" font-size="10.00">SetJoystick::getAxes</text>
</a>
</g>
</g>
<!-- Node1&#45;&gt;Node20 -->
<g id="edge27" class="edge">
<title>Node1&#45;&gt;Node20</title>
<path fill="none" stroke="midnightblue" d="M106.03,-209.15C124.82,-211.19 146.24,-213.51 165.87,-215.65"/>
<polygon fill="midnightblue" stroke="midnightblue" points="165.64,-219.14 175.96,-216.74 166.39,-212.18 165.64,-219.14"/>
</g>
<!-- Node21 -->
<g id="node21" class="node">
<title>Node21</title>
<g id="a_node21"><a xlink:href="classSetJoystick.html#a3a7ae87b62fac9deace237039cb5ea85" target="_top" xlink:title=" ">
<polygon fill="white" stroke="black" points="175,-175 175,-194 285,-194 285,-175 175,-175"/>
<text text-anchor="middle" x="230" y="-182" font-family="Helvetica,sans-Serif" font-size="10.00">SetJoystick::getIndex</text>
</a>
</g>
</g>
<!-- Node1&#45;&gt;Node21 -->
<g id="edge28" class="edge">
<title>Node1&#45;&gt;Node21</title>
<path fill="none" stroke="midnightblue" d="M106.03,-197.85C124.48,-195.85 145.46,-193.57 164.8,-191.47"/>
<polygon fill="midnightblue" stroke="midnightblue" points="165.17,-194.95 174.74,-190.39 164.42,-187.99 165.17,-194.95"/>
</g>
<!-- Node22 -->
<g id="node22" class="node">
<title>Node22</title>
<g id="a_node22"><a xlink:href="classSetJoystick.html#af641cbddd22e358218ba68497e40e4e3" target="_top" xlink:title=" ">
<polygon fill="white" stroke="black" points="160.5,-137 160.5,-156 299.5,-156 299.5,-137 160.5,-137"/>
<text text-anchor="middle" x="230" y="-144" font-family="Helvetica,sans-Serif" font-size="10.00">SetJoystick::getInputDevice</text>
</a>
</g>
</g>
<!-- Node1&#45;&gt;Node22 -->
<g id="edge29" class="edge">
<title>Node1&#45;&gt;Node22</title>
<path fill="none" stroke="midnightblue" d="M84.8,-188.46C101.44,-180.79 122.52,-171.77 142,-165.5 150.23,-162.85 159.02,-160.45 167.73,-158.32"/>
<polygon fill="midnightblue" stroke="midnightblue" points="168.56,-161.72 177.5,-156.03 166.96,-154.91 168.56,-161.72"/>
</g>
<!-- Node23 -->
<g id="node23" class="node">
<title>Node23</title>
<g id="a_node23"><a xlink:href="classInputDevice.html#ab370bf7bbf5f75d11f0513360d3a2dd2" target="_top" xlink:title=" ">
<polygon fill="white" stroke="black" points="148,-99 148,-118 312,-118 312,-99 148,-99"/>
<text text-anchor="middle" x="230" y="-106" font-family="Helvetica,sans-Serif" font-size="10.00">InputDevice::getNumberRawAxes</text>
</a>
</g>
</g>
<!-- Node1&#45;&gt;Node23 -->
<g id="edge30" class="edge">
<title>Node1&#45;&gt;Node23</title>
<path fill="none" stroke="midnightblue" d="M67.01,-188.42C82.91,-170.99 111.49,-142.76 142,-127.5 146.84,-125.08 151.98,-122.97 157.25,-121.12"/>
<polygon fill="midnightblue" stroke="midnightblue" points="158.37,-124.44 166.85,-118.08 156.26,-117.77 158.37,-124.44"/>
</g>
<!-- Node4 -->
<g id="node4" class="node">
<title>Node4</title>
<g id="a_node4"><a xlink:href="classJoyAxis.html#aae658e2a7b83ce73ce3d7d1ed13eabc6" target="_top" xlink:title=" ">
<polygon fill="white" stroke="black" points="356.5,-480 356.5,-499 482.5,-499 482.5,-480 356.5,-480"/>
<text text-anchor="middle" x="419.5" y="-487" font-family="Helvetica,sans-Serif" font-size="10.00">JoyAxis::getNAxisButton</text>
</a>
</g>
</g>
<!-- Node3&#45;&gt;Node4 -->
<g id="edge3" class="edge">
<title>Node3&#45;&gt;Node4</title>
<path fill="none" stroke="midnightblue" d="M305.54,-270.08C310.11,-272.63 314.34,-275.73 318,-279.5 378.2,-341.45 296.05,-406.44 354,-470.5 355.21,-471.84 356.51,-473.09 357.89,-474.25"/>
<polygon fill="midnightblue" stroke="midnightblue" points="356.2,-477.33 366.46,-479.99 360.1,-471.52 356.2,-477.33"/>
</g>
<!-- Node5 -->
<g id="node5" class="node">
<title>Node5</title>
<g id="a_node5"><a xlink:href="classJoyAxis.html#ad51d55d2a95190468209f7481eae8639" target="_top" xlink:title=" ">
<polygon fill="white" stroke="black" points="357,-442 357,-461 482,-461 482,-442 357,-442"/>
<text text-anchor="middle" x="419.5" y="-449" font-family="Helvetica,sans-Serif" font-size="10.00">JoyAxis::getPAxisButton</text>
</a>
</g>
</g>
<!-- Node3&#45;&gt;Node5 -->
<g id="edge4" class="edge">
<title>Node3&#45;&gt;Node5</title>
<path fill="none" stroke="midnightblue" d="M304.94,-270.05C309.71,-272.59 314.14,-275.7 318,-279.5 367.79,-328.5 305.99,-381.75 354,-432.5 355.38,-433.96 356.87,-435.31 358.45,-436.56"/>
<polygon fill="midnightblue" stroke="midnightblue" points="356.64,-439.56 366.95,-441.99 360.41,-433.66 356.64,-439.56"/>
</g>
<!-- Node6 -->
<g id="node6" class="node">
<title>Node6</title>
<g id="a_node6"><a xlink:href="classSetJoystick.html#aa90510371d0a6a4ae107b1d5b985b060" target="_top" xlink:title=" ">
<polygon fill="white" stroke="black" points="354,-392.5 354,-422.5 485,-422.5 485,-392.5 354,-392.5"/>
<text text-anchor="start" x="362" y="-410.5" font-family="Helvetica,sans-Serif" font-size="10.00">SetJoystick::propogateSet</text>
<text text-anchor="middle" x="419.5" y="-399.5" font-family="Helvetica,sans-Serif" font-size="10.00">AxisActivated</text>
</a>
</g>
</g>
<!-- Node3&#45;&gt;Node6 -->
<g id="edge5" class="edge">
<title>Node3&#45;&gt;Node6</title>
<path fill="none" stroke="midnightblue" d="M303.68,-270.08C308.87,-272.6 313.72,-275.7 318,-279.5 354.57,-311.98 319.81,-348.52 354,-383.5 354.94,-384.46 355.92,-385.38 356.94,-386.27"/>
<polygon fill="midnightblue" stroke="midnightblue" points="355.21,-389.34 365.37,-392.37 359.32,-383.67 355.21,-389.34"/>
</g>
<!-- Node8 -->
<g id="node8" class="node">
<title>Node8</title>
<g id="a_node8"><a xlink:href="classSetJoystick.html#ae234f327dec2c686d25862963e22fca1" target="_top" xlink:title=" ">
<polygon fill="white" stroke="black" points="354,-98.5 354,-128.5 485,-128.5 485,-98.5 354,-98.5"/>
<text text-anchor="start" x="362" y="-116.5" font-family="Helvetica,sans-Serif" font-size="10.00">SetJoystick::propogateSet</text>
<text text-anchor="middle" x="419.5" y="-105.5" font-family="Helvetica,sans-Serif" font-size="10.00">AxisButtonAssociation</text>
</a>
</g>
</g>
<!-- Node3&#45;&gt;Node8 -->
<g id="edge7" class="edge">
<title>Node3&#45;&gt;Node8</title>
<path fill="none" stroke="midnightblue" d="M303.68,-250.92C308.87,-248.4 313.72,-245.3 318,-241.5 354.57,-209.02 319.81,-172.48 354,-137.5 354.94,-136.54 355.92,-135.62 356.94,-134.73"/>
<polygon fill="midnightblue" stroke="midnightblue" points="359.32,-137.33 365.37,-128.63 355.21,-131.66 359.32,-137.33"/>
</g>
<!-- Node9 -->
<g id="node9" class="node">
<title>Node9</title>
<g id="a_node9"><a xlink:href="classSetJoystick.html#a57e40bcd1589c61ab7084f9e43dcd9ab" target="_top" xlink:title=" ">
<polygon fill="white" stroke="black" points="354,-147.5 354,-177.5 485,-177.5 485,-147.5 354,-147.5"/>
<text text-anchor="start" x="362" y="-165.5" font-family="Helvetica,sans-Serif" font-size="10.00">SetJoystick::propogateSet</text>
<text text-anchor="middle" x="419.5" y="-154.5" font-family="Helvetica,sans-Serif" font-size="10.00">AxisButtonClick</text>
</a>
</g>
</g>
<!-- Node3&#45;&gt;Node9 -->
<g id="edge8" class="edge">
<title>Node3&#45;&gt;Node9</title>
<path fill="none" stroke="midnightblue" d="M299.65,-250.93C306.15,-248.45 312.4,-245.36 318,-241.5 342.06,-224.93 331.17,-204.73 354,-186.5 355.74,-185.11 357.58,-183.79 359.48,-182.54"/>
<polygon fill="midnightblue" stroke="midnightblue" points="361.26,-185.56 368.17,-177.53 357.76,-179.5 361.26,-185.56"/>
</g>
<!-- Node12 -->
<g id="node12" class="node">
<title>Node12</title>
<g id="a_node12"><a xlink:href="classSetJoystick.html#a559203c2db1839239a1a684e717ef898" target="_top" xlink:title=" ">
<polygon fill="white" stroke="black" points="354,-245.5 354,-275.5 485,-275.5 485,-245.5 354,-245.5"/>
<text text-anchor="start" x="362" y="-263.5" font-family="Helvetica,sans-Serif" font-size="10.00">SetJoystick::propogateSet</text>
<text text-anchor="middle" x="419.5" y="-252.5" font-family="Helvetica,sans-Serif" font-size="10.00">AxisButtonNameChange</text>
</a>
</g>
</g>
<!-- Node3&#45;&gt;Node12 -->
<g id="edge12" class="edge">
<title>Node3&#45;&gt;Node12</title>
<path fill="none" stroke="midnightblue" d="M318.16,-260.5C326.73,-260.5 335.37,-260.5 343.8,-260.5"/>
<polygon fill="midnightblue" stroke="midnightblue" points="343.95,-264 353.95,-260.5 343.95,-257 343.95,-264"/>
</g>
<!-- Node14 -->
<g id="node14" class="node">
<title>Node14</title>
<g id="a_node14"><a xlink:href="classSetJoystick.html#af056c3429ac49876a0510f92923d0d13" target="_top" xlink:title=" ">
<polygon fill="white" stroke="black" points="354,-196.5 354,-226.5 485,-226.5 485,-196.5 354,-196.5"/>
<text text-anchor="start" x="362" y="-214.5" font-family="Helvetica,sans-Serif" font-size="10.00">SetJoystick::propogateSet</text>
<text text-anchor="middle" x="419.5" y="-203.5" font-family="Helvetica,sans-Serif" font-size="10.00">AxisButtonRelease</text>
</a>
</g>
</g>
<!-- Node3&#45;&gt;Node14 -->
<g id="edge16" class="edge">
<title>Node3&#45;&gt;Node14</title>
<path fill="none" stroke="midnightblue" d="M277.66,-250.99C290.76,-248.13 304.98,-244.86 318,-241.5 332.11,-237.86 347.22,-233.56 361.33,-229.38"/>
<polygon fill="midnightblue" stroke="midnightblue" points="362.33,-232.73 370.91,-226.5 360.32,-226.02 362.33,-232.73"/>
</g>
<!-- Node15 -->
<g id="node15" class="node">
<title>Node15</title>
<g id="a_node15"><a xlink:href="classSetJoystick.html#a2746cd7adb6a4ead514b72c7c0437d5e" target="_top" xlink:title=" ">
<polygon fill="white" stroke="black" points="354,-343.5 354,-373.5 485,-373.5 485,-343.5 354,-343.5"/>
<text text-anchor="start" x="362" y="-361.5" font-family="Helvetica,sans-Serif" font-size="10.00">SetJoystick::propogateSet</text>
<text text-anchor="middle" x="419.5" y="-350.5" font-family="Helvetica,sans-Serif" font-size="10.00">AxisNameChange</text>
</a>
</g>
</g>
<!-- Node3&#45;&gt;Node15 -->
<g id="edge20" class="edge">
<title>Node3&#45;&gt;Node15</title>
<path fill="none" stroke="midnightblue" d="M299.65,-270.07C306.15,-272.55 312.4,-275.64 318,-279.5 342.06,-296.07 331.17,-316.27 354,-334.5 355.74,-335.89 357.58,-337.21 359.48,-338.46"/>
<polygon fill="midnightblue" stroke="midnightblue" points="357.76,-341.5 368.17,-343.47 361.26,-335.44 357.76,-341.5"/>
</g>
<!-- Node16 -->
<g id="node16" class="node">
<title>Node16</title>
<g id="a_node16"><a xlink:href="classSetJoystick.html#a707a2c73b9102a8346ad8f2fb401d48f" target="_top" xlink:title=" ">
<polygon fill="white" stroke="black" points="354,-294.5 354,-324.5 485,-324.5 485,-294.5 354,-294.5"/>
<text text-anchor="start" x="362" y="-312.5" font-family="Helvetica,sans-Serif" font-size="10.00">SetJoystick::propogateSet</text>
<text text-anchor="middle" x="419.5" y="-301.5" font-family="Helvetica,sans-Serif" font-size="10.00">AxisReleased</text>
</a>
</g>
</g>
<!-- Node3&#45;&gt;Node16 -->
<g id="edge22" class="edge">
<title>Node3&#45;&gt;Node16</title>
<path fill="none" stroke="midnightblue" d="M277.66,-270.01C290.76,-272.87 304.98,-276.14 318,-279.5 332.11,-283.14 347.22,-287.44 361.33,-291.62"/>
<polygon fill="midnightblue" stroke="midnightblue" points="360.32,-294.98 370.91,-294.5 362.33,-288.27 360.32,-294.98"/>
</g>
<!-- Node17 -->
<g id="node17" class="node">
<title>Node17</title>
<g id="a_node17"><a xlink:href="classSetJoystick.html#a1b5df193132075192fe7a64ebc9933fb" target="_top" xlink:title=" ">
<polygon fill="white" stroke="black" points="354,-49.5 354,-79.5 485,-79.5 485,-49.5 354,-49.5"/>
<text text-anchor="start" x="362" y="-67.5" font-family="Helvetica,sans-Serif" font-size="10.00">SetJoystick::propogateSet</text>
<text text-anchor="middle" x="419.5" y="-56.5" font-family="Helvetica,sans-Serif" font-size="10.00">AxisThrottleSetting</text>
</a>
</g>
</g>
<!-- Node3&#45;&gt;Node17 -->
<g id="edge24" class="edge">
<title>Node3&#45;&gt;Node17</title>
<path fill="none" stroke="midnightblue" d="M304.94,-250.95C309.71,-248.41 314.14,-245.3 318,-241.5 367.79,-192.5 307.79,-140.89 354,-88.5 354.75,-87.65 355.53,-86.83 356.35,-86.04"/>
<polygon fill="midnightblue" stroke="midnightblue" points="358.72,-88.62 364.38,-79.66 354.37,-83.14 358.72,-88.62"/>
</g>
<!-- Node19 -->
<g id="node19" class="node">
<title>Node19</title>
<g id="a_node19"><a xlink:href="classSetJoystick.html#aeb069bf5f9e89bf2fb7dc73d89b5fbbd" target="_top" xlink:title=" ">
<polygon fill="white" stroke="black" points="354,-0.5 354,-30.5 485,-30.5 485,-0.5 354,-0.5"/>
<text text-anchor="start" x="362" y="-18.5" font-family="Helvetica,sans-Serif" font-size="10.00">SetJoystick::propogateSet</text>
<text text-anchor="middle" x="419.5" y="-7.5" font-family="Helvetica,sans-Serif" font-size="10.00">Change</text>
</a>
</g>
</g>
<!-- Node3&#45;&gt;Node19 -->
<g id="edge26" class="edge">
<title>Node3&#45;&gt;Node19</title>
<path fill="none" stroke="midnightblue" d="M305.58,-250.96C310.14,-248.4 314.36,-245.29 318,-241.5 381.22,-175.78 295.57,-109.51 354,-39.5 354.62,-38.76 355.26,-38.04 355.93,-37.34"/>
<polygon fill="midnightblue" stroke="midnightblue" points="358.45,-39.79 363.87,-30.69 353.96,-34.43 358.45,-39.79"/>
</g>
<!-- Node7 -->
<g id="node7" class="node">
<title>Node7</title>
<g id="a_node7"><a xlink:href="classJoyAxis.html#afddf7399e2086fda738fe588f5e7d7cd" target="_top" xlink:title=" ">
<polygon fill="white" stroke="black" points="557,-294 557,-313 652,-313 652,-294 557,-294"/>
<text text-anchor="middle" x="604.5" y="-301" font-family="Helvetica,sans-Serif" font-size="10.00">JoyAxis::getIndex</text>
</a>
</g>
</g>
<!-- Node6&#45;&gt;Node7 -->
<g id="edge6" class="edge">
<title>Node6&#45;&gt;Node7</title>
<path fill="none" stroke="midnightblue" d="M465.16,-392.46C471.93,-389.74 478.73,-386.72 485,-383.5 521.6,-364.68 560.5,-336.67 583.37,-319.28"/>
<polygon fill="midnightblue" stroke="midnightblue" points="585.52,-322.05 591.31,-313.18 581.25,-316.5 585.52,-322.05"/>
</g>
<!-- Node9&#45;&gt;Node7 -->
<g id="edge11" class="edge">
<title>Node9&#45;&gt;Node7</title>
<path fill="none" stroke="midnightblue" d="M473.19,-177.57C477.49,-180.1 481.51,-183.06 485,-186.5 516.55,-217.63 488.34,-249.54 521,-279.5 528.42,-286.31 537.66,-291.19 547.25,-294.7"/>
<polygon fill="midnightblue" stroke="midnightblue" points="546.31,-298.07 556.9,-297.76 548.43,-291.4 546.31,-298.07"/>
</g>
<!-- Node10 -->
<g id="node10" class="node">
<title>Node10</title>
<g id="a_node10"><a xlink:href="classJoyAxisButton.html#a8b73356f8efc91ad97e2c281b3603cc8" target="_top" xlink:title=" ">
<polygon fill="white" stroke="black" points="545,-202 545,-221 664,-221 664,-202 545,-202"/>
<text text-anchor="middle" x="604.5" y="-209" font-family="Helvetica,sans-Serif" font-size="10.00">JoyAxisButton::getAxis</text>
</a>
</g>
</g>
<!-- Node9&#45;&gt;Node10 -->
<g id="edge9" class="edge">
<title>Node9&#45;&gt;Node10</title>
<path fill="none" stroke="midnightblue" d="M476.9,-177.6C503.02,-184.6 533.64,-192.79 558.22,-199.38"/>
<polygon fill="midnightblue" stroke="midnightblue" points="557.45,-202.79 568.01,-202 559.26,-196.03 557.45,-202.79"/>
</g>
<!-- Node11 -->
<g id="node11" class="node">
<title>Node11</title>
<g id="a_node11"><a xlink:href="classJoyButton.html#abbccee98e377453167a47b49874eeab7" target="_top" xlink:title=" ">
<polygon fill="white" stroke="black" points="538.5,-149.5 538.5,-179.5 670.5,-179.5 670.5,-149.5 538.5,-149.5"/>
<text text-anchor="start" x="546.5" y="-167.5" font-family="Helvetica,sans-Serif" font-size="10.00">JoyButton::getIgnoreEvent</text>
<text text-anchor="middle" x="604.5" y="-156.5" font-family="Helvetica,sans-Serif" font-size="10.00">State</text>
</a>
</g>
</g>
<!-- Node9&#45;&gt;Node11 -->
<g id="edge10" class="edge">
<title>Node9&#45;&gt;Node11</title>
<path fill="none" stroke="midnightblue" d="M485.02,-163.21C498.93,-163.36 513.76,-163.52 528.04,-163.68"/>
<polygon fill="midnightblue" stroke="midnightblue" points="528.29,-167.18 538.33,-163.79 528.37,-160.18 528.29,-167.18"/>
</g>
<!-- Node12&#45;&gt;Node7 -->
<g id="edge14" class="edge">
<title>Node12&#45;&gt;Node7</title>
<path fill="none" stroke="midnightblue" d="M484.5,-275.54C507.02,-280.83 531.98,-286.69 553.2,-291.68"/>
<polygon fill="midnightblue" stroke="midnightblue" points="552.44,-295.1 562.98,-293.98 554.04,-288.28 552.44,-295.1"/>
</g>
<!-- Node12&#45;&gt;Node10 -->
<g id="edge13" class="edge">
<title>Node12&#45;&gt;Node10</title>
<path fill="none" stroke="midnightblue" d="M476.9,-245.4C503.02,-238.4 533.64,-230.21 558.22,-223.62"/>
<polygon fill="midnightblue" stroke="midnightblue" points="559.26,-226.97 568.01,-221 557.45,-220.21 559.26,-226.97"/>
</g>
<!-- Node13 -->
<g id="node13" class="node">
<title>Node13</title>
<g id="a_node13"><a xlink:href="classJoyButton.html#aa659d5a0860f5047862ca0761d8d775a" target="_top" xlink:title="Get 0 indexed number of button.">
<polygon fill="white" stroke="black" points="539,-251 539,-270 670,-270 670,-251 539,-251"/>
<text text-anchor="middle" x="604.5" y="-258" font-family="Helvetica,sans-Serif" font-size="10.00">JoyButton::getJoyNumber</text>
</a>
</g>
</g>
<!-- Node12&#45;&gt;Node13 -->
<g id="edge15" class="edge">
<title>Node12&#45;&gt;Node13</title>
<path fill="none" stroke="midnightblue" d="M485.02,-260.5C499.1,-260.5 514.11,-260.5 528.55,-260.5"/>
<polygon fill="midnightblue" stroke="midnightblue" points="528.95,-264 538.95,-260.5 528.95,-257 528.95,-264"/>
</g>
<!-- Node14&#45;&gt;Node7 -->
<g id="edge19" class="edge">
<title>Node14&#45;&gt;Node7</title>
<path fill="none" stroke="midnightblue" d="M467.75,-226.58C473.81,-229.43 479.73,-232.72 485,-236.5 505.26,-251.02 500.13,-265.87 521,-279.5 528.97,-284.71 538.1,-288.81 547.31,-292.03"/>
<polygon fill="midnightblue" stroke="midnightblue" points="546.3,-295.38 556.89,-295.08 548.42,-288.71 546.3,-295.38"/>
</g>
<!-- Node14&#45;&gt;Node10 -->
<g id="edge17" class="edge">
<title>Node14&#45;&gt;Node10</title>
<path fill="none" stroke="midnightblue" d="M485.02,-211.5C500.97,-211.5 518.13,-211.5 534.3,-211.5"/>
<polygon fill="midnightblue" stroke="midnightblue" points="534.75,-215 544.75,-211.5 534.75,-208 534.75,-215"/>
</g>
<!-- Node14&#45;&gt;Node11 -->
<g id="edge18" class="edge">
<title>Node14&#45;&gt;Node11</title>
<path fill="none" stroke="midnightblue" d="M478.91,-196.5C496.82,-191.9 516.68,-186.8 535.19,-182.04"/>
<polygon fill="midnightblue" stroke="midnightblue" points="536.21,-185.4 545.02,-179.52 534.47,-178.62 536.21,-185.4"/>
</g>
<!-- Node15&#45;&gt;Node7 -->
<g id="edge21" class="edge">
<title>Node15&#45;&gt;Node7</title>
<path fill="none" stroke="midnightblue" d="M470.51,-343.47C499.25,-334.83 534.93,-324.11 562.1,-315.94"/>
<polygon fill="midnightblue" stroke="midnightblue" points="563.12,-319.29 571.69,-313.06 561.1,-312.59 563.12,-319.29"/>
</g>
<!-- Node16&#45;&gt;Node7 -->
<g id="edge23" class="edge">
<title>Node16&#45;&gt;Node7</title>
<path fill="none" stroke="midnightblue" d="M485.02,-307.38C505.08,-306.73 527.04,-306.01 546.55,-305.37"/>
<polygon fill="midnightblue" stroke="midnightblue" points="546.93,-308.86 556.81,-305.03 546.7,-301.86 546.93,-308.86"/>
</g>
<!-- Node18 -->
<g id="node18" class="node">
<title>Node18</title>
<g id="a_node18"><a xlink:href="classJoyAxis.html#a26e2606a8916cfd5fe8f4fc15c7dc886" target="_top" xlink:title=" ">
<polygon fill="white" stroke="black" points="521,-55 521,-74 688,-74 688,-55 521,-55"/>
<text text-anchor="middle" x="604.5" y="-62" font-family="Helvetica,sans-Serif" font-size="10.00">JoyAxis::getCurrentlyAssignedSet</text>
</a>
</g>
</g>
<!-- Node17&#45;&gt;Node18 -->
<g id="edge25" class="edge">
<title>Node17&#45;&gt;Node18</title>
<path fill="none" stroke="midnightblue" d="M485.02,-64.5C493.38,-64.5 502.06,-64.5 510.77,-64.5"/>
<polygon fill="midnightblue" stroke="midnightblue" points="510.97,-68 520.97,-64.5 510.97,-61 510.97,-68"/>
</g>
</g>
</svg>
