<?xml version="1.0" encoding="UTF-8" standalone="no"?>
<!DOCTYPE svg PUBLIC "-//W3C//DTD SVG 1.1//EN"
 "http://www.w3.org/Graphics/SVG/1.1/DTD/svg11.dtd">
<!-- Generated by graphviz version 2.43.0 (0)
 -->
<!-- Title: JoyControlStickButtonPushButton::JoyControlStickButtonPushButton Pages: 1 -->
<svg width="2565pt" height="503pt"
 viewBox="0.00 0.00 2565.00 502.50" xmlns="http://www.w3.org/2000/svg" xmlns:xlink="http://www.w3.org/1999/xlink">
<g id="graph0" class="graph" transform="scale(1 1) rotate(0) translate(4 498.5)">
<title>JoyControlStickButtonPushButton::JoyControlStickButtonPushButton</title>
<polygon fill="white" stroke="transparent" points="-4,4 -4,-498.5 2561,-498.5 2561,4 -4,4"/>
<!-- Node1 -->
<g id="node1" class="node">
<title>Node1</title>
<g id="a_node1"><a xlink:title=" ">
<polygon fill="#bfbfbf" stroke="black" points="0,-319 0,-360 172,-360 172,-319 0,-319"/>
<text text-anchor="start" x="8" y="-348" font-family="Helvetica,sans-Serif" font-size="10.00">JoyControlStickButtonPush</text>
<text text-anchor="start" x="8" y="-337" font-family="Helvetica,sans-Serif" font-size="10.00">Button::JoyControlStickButtonPush</text>
<text text-anchor="middle" x="86" y="-326" font-family="Helvetica,sans-Serif" font-size="10.00">Button</text>
</a>
</g>
</g>
<!-- Node2 -->
<g id="node2" class="node">
<title>Node2</title>
<g id="a_node2"><a xlink:href="classJoyControlStickButtonPushButton.html#aa07b514aaa21e4084794a634e448a0cf" target="_top" xlink:title=" ">
<polygon fill="white" stroke="black" points="209.5,-398.5 209.5,-428.5 346.5,-428.5 346.5,-398.5 209.5,-398.5"/>
<text text-anchor="start" x="217.5" y="-416.5" font-family="Helvetica,sans-Serif" font-size="10.00">JoyControlStickButtonPush</text>
<text text-anchor="middle" x="278" y="-405.5" font-family="Helvetica,sans-Serif" font-size="10.00">Button::enableFlashes</text>
</a>
</g>
</g>
<!-- Node1&#45;&gt;Node2 -->
<g id="edge1" class="edge">
<title>Node1&#45;&gt;Node2</title>
<path fill="none" stroke="midnightblue" d="M135.03,-360.09C157.14,-369.37 183.78,-380.29 208,-389.5 212.77,-391.31 217.74,-393.15 222.74,-394.95"/>
<polygon fill="midnightblue" stroke="midnightblue" points="221.73,-398.31 232.32,-398.38 224.08,-391.72 221.73,-398.31"/>
</g>
<!-- Node5 -->
<g id="node5" class="node">
<title>Node5</title>
<g id="a_node5"><a xlink:href="classJoyControlStick.html#a81da76522d4f12f081c169f0a0365996" target="_top" xlink:title=" ">
<polygon fill="white" stroke="black" points="208,-349.5 208,-379.5 348,-379.5 348,-349.5 208,-349.5"/>
<text text-anchor="start" x="216" y="-367.5" font-family="Helvetica,sans-Serif" font-size="10.00">JoyControlStick::getModifier</text>
<text text-anchor="middle" x="278" y="-356.5" font-family="Helvetica,sans-Serif" font-size="10.00">Button</text>
</a>
</g>
</g>
<!-- Node1&#45;&gt;Node5 -->
<g id="edge4" class="edge">
<title>Node1&#45;&gt;Node5</title>
<path fill="none" stroke="midnightblue" d="M172.27,-350.72C180.76,-351.84 189.35,-352.97 197.77,-354.08"/>
<polygon fill="midnightblue" stroke="midnightblue" points="197.57,-357.58 207.94,-355.41 198.48,-350.64 197.57,-357.58"/>
</g>
<!-- Node6 -->
<g id="node6" class="node">
<title>Node6</title>
<g id="a_node6"><a xlink:href="classJoyControlStickButton.html#a9dc9e9c5b8811ef41a0cde33c5af649e" target="_top" xlink:title=" ">
<polygon fill="white" stroke="black" points="220.5,-300.5 220.5,-330.5 335.5,-330.5 335.5,-300.5 220.5,-300.5"/>
<text text-anchor="start" x="228.5" y="-318.5" font-family="Helvetica,sans-Serif" font-size="10.00">JoyControlStickButton</text>
<text text-anchor="middle" x="278" y="-307.5" font-family="Helvetica,sans-Serif" font-size="10.00">::getStick</text>
</a>
</g>
</g>
<!-- Node1&#45;&gt;Node6 -->
<g id="edge5" class="edge">
<title>Node1&#45;&gt;Node6</title>
<path fill="none" stroke="midnightblue" d="M172.27,-328.73C184.99,-327.12 197.94,-325.49 210.21,-323.94"/>
<polygon fill="midnightblue" stroke="midnightblue" points="210.84,-327.38 220.32,-322.66 209.96,-320.44 210.84,-327.38"/>
</g>
<!-- Node7 -->
<g id="node7" class="node">
<title>Node7</title>
<g id="a_node7"><a xlink:href="classFlashButtonWidget.html#a14c9ecbbd3dfaef78b78371e17aac539" target="_top" xlink:title=" ">
<polygon fill="white" stroke="black" points="225,-251.5 225,-281.5 331,-281.5 331,-251.5 225,-251.5"/>
<text text-anchor="start" x="233" y="-269.5" font-family="Helvetica,sans-Serif" font-size="10.00">FlashButtonWidget::</text>
<text text-anchor="middle" x="278" y="-258.5" font-family="Helvetica,sans-Serif" font-size="10.00">refreshLabel</text>
</a>
</g>
</g>
<!-- Node1&#45;&gt;Node7 -->
<g id="edge6" class="edge">
<title>Node1&#45;&gt;Node7</title>
<path fill="none" stroke="midnightblue" d="M137.79,-318.96C159.38,-310.33 184.86,-300.28 208,-291.5 213.57,-289.39 219.41,-287.21 225.23,-285.07"/>
<polygon fill="midnightblue" stroke="midnightblue" points="226.78,-288.23 234.96,-281.5 224.37,-281.65 226.78,-288.23"/>
</g>
<!-- Node9 -->
<g id="node9" class="node">
<title>Node9</title>
<g id="a_node9"><a xlink:href="classJoyControlStickButtonPushButton.html#abde61056729a9ef096bc23ff81129ab6" target="_top" xlink:title=" ">
<polygon fill="white" stroke="black" points="209.5,-202.5 209.5,-232.5 346.5,-232.5 346.5,-202.5 209.5,-202.5"/>
<text text-anchor="start" x="217.5" y="-220.5" font-family="Helvetica,sans-Serif" font-size="10.00">JoyControlStickButtonPush</text>
<text text-anchor="middle" x="278" y="-209.5" font-family="Helvetica,sans-Serif" font-size="10.00">Button::showContextMenu</text>
</a>
</g>
</g>
<!-- Node1&#45;&gt;Node9 -->
<g id="edge8" class="edge">
<title>Node1&#45;&gt;Node9</title>
<path fill="none" stroke="midnightblue" d="M108.15,-318.9C131.14,-297.44 169.74,-263.99 208,-242.5 211.69,-240.43 215.58,-238.48 219.56,-236.64"/>
<polygon fill="midnightblue" stroke="midnightblue" points="221.16,-239.77 228.95,-232.59 218.38,-233.34 221.16,-239.77"/>
</g>
<!-- Node68 -->
<g id="node49" class="node">
<title>Node68</title>
<g id="a_node49"><a xlink:href="classJoyControlStickButtonPushButton.html#a8722603699b75b1949fda0b4e9f194d5" target="_top" xlink:title=" ">
<polygon fill="white" stroke="black" points="209.5,-447.5 209.5,-477.5 346.5,-477.5 346.5,-447.5 209.5,-447.5"/>
<text text-anchor="start" x="217.5" y="-465.5" font-family="Helvetica,sans-Serif" font-size="10.00">JoyControlStickButtonPush</text>
<text text-anchor="middle" x="278" y="-454.5" font-family="Helvetica,sans-Serif" font-size="10.00">Button::tryFlash</text>
</a>
</g>
</g>
<!-- Node1&#45;&gt;Node68 -->
<g id="edge62" class="edge">
<title>Node1&#45;&gt;Node68</title>
<path fill="none" stroke="midnightblue" d="M107.6,-360.24C130.42,-382.25 169.16,-416.76 208,-438.5 211.02,-440.19 214.19,-441.8 217.43,-443.31"/>
<polygon fill="midnightblue" stroke="midnightblue" points="216.15,-446.57 226.71,-447.35 218.94,-440.15 216.15,-446.57"/>
</g>
<!-- Node3 -->
<g id="node3" class="node">
<title>Node3</title>
<g id="a_node3"><a xlink:href="classFlashButtonWidget.html#ad8d71480fd154aad271af693af681394" target="_top" xlink:title=" ">
<polygon fill="white" stroke="black" points="397,-425.5 397,-455.5 503,-455.5 503,-425.5 397,-425.5"/>
<text text-anchor="start" x="405" y="-443.5" font-family="Helvetica,sans-Serif" font-size="10.00">FlashButtonWidget::</text>
<text text-anchor="middle" x="450" y="-432.5" font-family="Helvetica,sans-Serif" font-size="10.00">flash</text>
</a>
</g>
</g>
<!-- Node2&#45;&gt;Node3 -->
<g id="edge2" class="edge">
<title>Node2&#45;&gt;Node3</title>
<path fill="none" stroke="midnightblue" d="M346.68,-424.25C359.83,-426.34 373.56,-428.52 386.53,-430.58"/>
<polygon fill="midnightblue" stroke="midnightblue" points="386.32,-434.09 396.75,-432.2 387.42,-427.18 386.32,-434.09"/>
</g>
<!-- Node4 -->
<g id="node4" class="node">
<title>Node4</title>
<g id="a_node4"><a xlink:href="classFlashButtonWidget.html#a84af4cf2103d6f054e117915850199ec" target="_top" xlink:title=" ">
<polygon fill="white" stroke="black" points="397,-376.5 397,-406.5 503,-406.5 503,-376.5 397,-376.5"/>
<text text-anchor="start" x="405" y="-394.5" font-family="Helvetica,sans-Serif" font-size="10.00">FlashButtonWidget::</text>
<text text-anchor="middle" x="450" y="-383.5" font-family="Helvetica,sans-Serif" font-size="10.00">unflash</text>
</a>
</g>
</g>
<!-- Node2&#45;&gt;Node4 -->
<g id="edge3" class="edge">
<title>Node2&#45;&gt;Node4</title>
<path fill="none" stroke="midnightblue" d="M346.68,-404.74C359.83,-403.04 373.56,-401.26 386.53,-399.58"/>
<polygon fill="midnightblue" stroke="midnightblue" points="387.28,-403.02 396.75,-398.26 386.38,-396.07 387.28,-403.02"/>
</g>
<!-- Node8 -->
<g id="node8" class="node">
<title>Node8</title>
<g id="a_node8"><a xlink:href="classFlashButtonWidget.html#a15b2a9c645747d9f1f8368389da5830a" target="_top" xlink:title=" ">
<polygon fill="white" stroke="black" points="397,-251.5 397,-281.5 503,-281.5 503,-251.5 397,-251.5"/>
<text text-anchor="start" x="405" y="-269.5" font-family="Helvetica,sans-Serif" font-size="10.00">FlashButtonWidget::</text>
<text text-anchor="middle" x="450" y="-258.5" font-family="Helvetica,sans-Serif" font-size="10.00">generateLabel</text>
</a>
</g>
</g>
<!-- Node7&#45;&gt;Node8 -->
<g id="edge7" class="edge">
<title>Node7&#45;&gt;Node8</title>
<path fill="none" stroke="midnightblue" d="M331.39,-266.5C348.84,-266.5 368.46,-266.5 386.59,-266.5"/>
<polygon fill="midnightblue" stroke="midnightblue" points="386.78,-270 396.78,-266.5 386.78,-263 386.78,-270"/>
</g>
<!-- Node10 -->
<g id="node10" class="node">
<title>Node10</title>
<g id="a_node10"><a xlink:href="classJoyButtonContextMenu.html#a6d0d9eb23e12fc8291d419ec0599971e" target="_top" xlink:title=" ">
<polygon fill="white" stroke="black" points="390.5,-202.5 390.5,-232.5 509.5,-232.5 509.5,-202.5 390.5,-202.5"/>
<text text-anchor="start" x="398.5" y="-220.5" font-family="Helvetica,sans-Serif" font-size="10.00">JoyButtonContextMenu</text>
<text text-anchor="middle" x="450" y="-209.5" font-family="Helvetica,sans-Serif" font-size="10.00">::buildMenu</text>
</a>
</g>
</g>
<!-- Node9&#45;&gt;Node10 -->
<g id="edge9" class="edge">
<title>Node9&#45;&gt;Node10</title>
<path fill="none" stroke="midnightblue" d="M346.68,-217.5C357.74,-217.5 369.2,-217.5 380.29,-217.5"/>
<polygon fill="midnightblue" stroke="midnightblue" points="380.34,-221 390.34,-217.5 380.34,-214 380.34,-221"/>
</g>
<!-- Node11 -->
<g id="node11" class="node">
<title>Node11</title>
<g id="a_node11"><a xlink:href="classJoyButtonContextMenu.html#a2bf2a3dd54357aa74bd8e1c8591d85f5" target="_top" xlink:title=" ">
<polygon fill="white" stroke="black" points="554.5,-416.5 554.5,-446.5 673.5,-446.5 673.5,-416.5 554.5,-416.5"/>
<text text-anchor="start" x="562.5" y="-434.5" font-family="Helvetica,sans-Serif" font-size="10.00">JoyButtonContextMenu</text>
<text text-anchor="middle" x="614" y="-423.5" font-family="Helvetica,sans-Serif" font-size="10.00">::clearButton</text>
</a>
</g>
</g>
<!-- Node10&#45;&gt;Node11 -->
<g id="edge10" class="edge">
<title>Node10&#45;&gt;Node11</title>
<path fill="none" stroke="midnightblue" d="M504.36,-232.65C508.7,-235.41 512.68,-238.66 516,-242.5 563.4,-297.3 507.11,-344.63 552,-401.5 554.67,-404.89 557.83,-407.92 561.27,-410.63"/>
<polygon fill="midnightblue" stroke="midnightblue" points="559.5,-413.65 569.74,-416.38 563.43,-407.86 559.5,-413.65"/>
</g>
<!-- Node12 -->
<g id="node12" class="node">
<title>Node12</title>
<g id="a_node12"><a xlink:href="classJoyButtonContextMenu.html#a4fdfe771c441058419ab8dcdc0a17574" target="_top" xlink:title=" ">
<polygon fill="white" stroke="black" points="554.5,-290.5 554.5,-320.5 673.5,-320.5 673.5,-290.5 554.5,-290.5"/>
<text text-anchor="start" x="562.5" y="-308.5" font-family="Helvetica,sans-Serif" font-size="10.00">JoyButtonContextMenu</text>
<text text-anchor="middle" x="614" y="-297.5" font-family="Helvetica,sans-Serif" font-size="10.00">::createActionForGroup</text>
</a>
</g>
</g>
<!-- Node10&#45;&gt;Node12 -->
<g id="edge11" class="edge">
<title>Node10&#45;&gt;Node12</title>
<path fill="none" stroke="midnightblue" d="M496.8,-232.6C503.44,-235.5 510.04,-238.81 516,-242.5 534.45,-253.93 534.08,-263.25 552,-275.5 557.31,-279.13 563.12,-282.57 568.98,-285.74"/>
<polygon fill="midnightblue" stroke="midnightblue" points="567.67,-289 578.16,-290.49 570.88,-282.79 567.67,-289"/>
</g>
<!-- Node13 -->
<g id="node13" class="node">
<title>Node13</title>
<g id="a_node13"><a xlink:href="classJoyButton.html#afd17822071a59e87f898a46cc60bcbf2" target="_top" xlink:title=" ">
<polygon fill="white" stroke="black" points="712,-340 712,-359 882,-359 882,-340 712,-340"/>
<text text-anchor="middle" x="797" y="-347" font-family="Helvetica,sans-Serif" font-size="10.00">JoyButton::getChangeSetCondition</text>
</a>
</g>
</g>
<!-- Node10&#45;&gt;Node13 -->
<g id="edge45" class="edge">
<title>Node10&#45;&gt;Node13</title>
<path fill="none" stroke="midnightblue" d="M502.44,-232.51C507.38,-235.31 512.03,-238.61 516,-242.5 546.19,-272.06 517.86,-305.6 552,-330.5 606.51,-370.25 687.25,-368 740.73,-360.56"/>
<polygon fill="midnightblue" stroke="midnightblue" points="741.34,-364.01 750.71,-359.07 740.31,-357.09 741.34,-364.01"/>
</g>
<!-- Node14 -->
<g id="node14" class="node">
<title>Node14</title>
<g id="a_node14"><a xlink:href="classJoyButton.html#a695a0a6c64d168b62dfbdd3c925a786d" target="_top" xlink:title=" ">
<polygon fill="white" stroke="black" points="729,-252 729,-271 865,-271 865,-252 729,-252"/>
<text text-anchor="middle" x="797" y="-259" font-family="Helvetica,sans-Serif" font-size="10.00">JoyButton::getSetSelection</text>
</a>
</g>
</g>
<!-- Node10&#45;&gt;Node14 -->
<g id="edge48" class="edge">
<title>Node10&#45;&gt;Node14</title>
<path fill="none" stroke="midnightblue" d="M504.65,-232.52C519.85,-236.3 536.49,-239.99 552,-242.5 607.41,-251.45 670.61,-256.22 718.8,-258.75"/>
<polygon fill="midnightblue" stroke="midnightblue" points="718.69,-262.25 728.85,-259.25 719.04,-255.25 718.69,-262.25"/>
</g>
<!-- Node57 -->
<g id="node38" class="node">
<title>Node57</title>
<g id="a_node38"><a xlink:href="classJoyButtonContextMenu.html#af87e510b98bc2c294281e7de7507c956" target="_top" xlink:title=" ">
<polygon fill="white" stroke="black" points="737.5,-378.5 737.5,-408.5 856.5,-408.5 856.5,-378.5 737.5,-378.5"/>
<text text-anchor="start" x="745.5" y="-396.5" font-family="Helvetica,sans-Serif" font-size="10.00">JoyButtonContextMenu</text>
<text text-anchor="middle" x="797" y="-385.5" font-family="Helvetica,sans-Serif" font-size="10.00">::disableSetMode</text>
</a>
</g>
</g>
<!-- Node10&#45;&gt;Node57 -->
<g id="edge43" class="edge">
<title>Node10&#45;&gt;Node57</title>
<path fill="none" stroke="midnightblue" d="M503.45,-232.52C508.08,-235.31 512.38,-238.6 516,-242.5 553.61,-282.98 509.87,-325.75 552,-361.5 599.97,-402.21 673.49,-406.67 727.29,-403.12"/>
<polygon fill="midnightblue" stroke="midnightblue" points="727.73,-406.6 737.44,-402.34 727.2,-399.62 727.73,-406.6"/>
</g>
<!-- Node58 -->
<g id="node39" class="node">
<title>Node58</title>
<g id="a_node39"><a xlink:href="classSetJoystick.html#a3a7ae87b62fac9deace237039cb5ea85" target="_top" xlink:title=" ">
<polygon fill="white" stroke="black" points="559,-126 559,-145 669,-145 669,-126 559,-126"/>
<text text-anchor="middle" x="614" y="-133" font-family="Helvetica,sans-Serif" font-size="10.00">SetJoystick::getIndex</text>
</a>
</g>
</g>
<!-- Node10&#45;&gt;Node58 -->
<g id="edge46" class="edge">
<title>Node10&#45;&gt;Node58</title>
<path fill="none" stroke="midnightblue" d="M474.95,-202.41C495.09,-190.06 524.85,-172.55 552,-159.5 559.89,-155.71 568.54,-152.03 576.79,-148.74"/>
<polygon fill="midnightblue" stroke="midnightblue" points="578.17,-151.96 586.22,-145.07 575.63,-145.43 578.17,-151.96"/>
</g>
<!-- Node59 -->
<g id="node40" class="node">
<title>Node59</title>
<g id="a_node40"><a xlink:href="classJoyButton.html#a28e4e0906126f95384245e73988bdb19" target="_top" xlink:title=" ">
<polygon fill="white" stroke="black" points="552,-88 552,-107 676,-107 676,-88 552,-88"/>
<text text-anchor="middle" x="614" y="-95" font-family="Helvetica,sans-Serif" font-size="10.00">JoyButton::getParentSet</text>
</a>
</g>
</g>
<!-- Node10&#45;&gt;Node59 -->
<g id="edge47" class="edge">
<title>Node10&#45;&gt;Node59</title>
<path fill="none" stroke="midnightblue" d="M462.32,-202.19C479.39,-180.14 513.8,-139.59 552,-116.5 555.43,-114.43 559.1,-112.56 562.88,-110.89"/>
<polygon fill="midnightblue" stroke="midnightblue" points="564.42,-114.04 572.43,-107.1 561.84,-107.54 564.42,-114.04"/>
</g>
<!-- Node60 -->
<g id="node41" class="node">
<title>Node60</title>
<g id="a_node41"><a xlink:href="classJoyButton.html#a4305272f6fe2c5708f2ad7f1ce911514" target="_top" xlink:title=" ">
<polygon fill="white" stroke="black" points="731,-47 731,-66 863,-66 863,-47 731,-47"/>
<text text-anchor="middle" x="797" y="-54" font-family="Helvetica,sans-Serif" font-size="10.00">JoyButton::getToggleState</text>
</a>
</g>
</g>
<!-- Node10&#45;&gt;Node60 -->
<g id="edge49" class="edge">
<title>Node10&#45;&gt;Node60</title>
<path fill="none" stroke="midnightblue" d="M456.85,-202.47C469.29,-172.83 501.41,-107.21 552,-78.5 602.96,-49.58 669.73,-45.42 720.54,-47.74"/>
<polygon fill="midnightblue" stroke="midnightblue" points="720.63,-51.25 730.8,-48.3 721.01,-44.26 720.63,-51.25"/>
</g>
<!-- Node61 -->
<g id="node42" class="node">
<title>Node61</title>
<g id="a_node42"><a xlink:href="classJoyButton.html#ad2123134411e4ab2c8f15b65f3c4ae79" target="_top" xlink:title=" ">
<polygon fill="white" stroke="black" points="734.5,-167 734.5,-186 859.5,-186 859.5,-167 734.5,-167"/>
<text text-anchor="middle" x="797" y="-174" font-family="Helvetica,sans-Serif" font-size="10.00">JoyButton::isUsingTurbo</text>
</a>
</g>
</g>
<!-- Node10&#45;&gt;Node61 -->
<g id="edge50" class="edge">
<title>Node10&#45;&gt;Node61</title>
<path fill="none" stroke="midnightblue" d="M507.04,-202.46C521.59,-199.03 537.3,-195.74 552,-193.5 609.51,-184.72 675.35,-180.47 724.13,-178.42"/>
<polygon fill="midnightblue" stroke="midnightblue" points="724.42,-181.91 734.27,-178.01 724.14,-174.91 724.42,-181.91"/>
</g>
<!-- Node62 -->
<g id="node43" class="node">
<title>Node62</title>
<g id="a_node43"><a xlink:href="classJoyButtonContextMenu.html#a605d2a0aec849577c31c7e02499ad16b" target="_top" xlink:title=" ">
<polygon fill="white" stroke="black" points="554.5,-0.5 554.5,-30.5 673.5,-30.5 673.5,-0.5 554.5,-0.5"/>
<text text-anchor="start" x="562.5" y="-18.5" font-family="Helvetica,sans-Serif" font-size="10.00">JoyButtonContextMenu</text>
<text text-anchor="middle" x="614" y="-7.5" font-family="Helvetica,sans-Serif" font-size="10.00">::switchToggle</text>
</a>
</g>
</g>
<!-- Node10&#45;&gt;Node62 -->
<g id="edge51" class="edge">
<title>Node10&#45;&gt;Node62</title>
<path fill="none" stroke="midnightblue" d="M456.47,-202.2C468.82,-169.53 501.76,-92.16 552,-45.5 555.85,-41.93 560.2,-38.69 564.76,-35.78"/>
<polygon fill="midnightblue" stroke="midnightblue" points="566.83,-38.63 573.73,-30.59 563.32,-32.57 566.83,-38.63"/>
</g>
<!-- Node64 -->
<g id="node45" class="node">
<title>Node64</title>
<g id="a_node45"><a xlink:href="classJoyButtonContextMenu.html#a80d87bf07ab7e3ac49086785c0387ecd" target="_top" xlink:title=" ">
<polygon fill="white" stroke="black" points="554.5,-202.5 554.5,-232.5 673.5,-232.5 673.5,-202.5 554.5,-202.5"/>
<text text-anchor="start" x="562.5" y="-220.5" font-family="Helvetica,sans-Serif" font-size="10.00">JoyButtonContextMenu</text>
<text text-anchor="middle" x="614" y="-209.5" font-family="Helvetica,sans-Serif" font-size="10.00">::switchTurbo</text>
</a>
</g>
</g>
<!-- Node10&#45;&gt;Node64 -->
<g id="edge54" class="edge">
<title>Node10&#45;&gt;Node64</title>
<path fill="none" stroke="midnightblue" d="M509.94,-217.5C521.03,-217.5 532.71,-217.5 544.06,-217.5"/>
<polygon fill="midnightblue" stroke="midnightblue" points="544.37,-221 554.37,-217.5 544.37,-214 544.37,-221"/>
</g>
<!-- Node12&#45;&gt;Node13 -->
<g id="edge12" class="edge">
<title>Node12&#45;&gt;Node13</title>
<path fill="none" stroke="midnightblue" d="M672.12,-320.52C685.2,-323.88 699.07,-327.37 712,-330.5 721.92,-332.9 732.52,-335.37 742.73,-337.7"/>
<polygon fill="midnightblue" stroke="midnightblue" points="742.25,-341.18 752.78,-339.98 743.8,-334.36 742.25,-341.18"/>
</g>
<!-- Node12&#45;&gt;Node14 -->
<g id="edge13" class="edge">
<title>Node12&#45;&gt;Node14</title>
<path fill="none" stroke="midnightblue" d="M673.71,-290.89C686.34,-287.77 699.61,-284.51 712,-281.5 722.82,-278.87 734.43,-276.09 745.46,-273.46"/>
<polygon fill="midnightblue" stroke="midnightblue" points="746.48,-276.81 755.39,-271.09 744.85,-270 746.48,-276.81"/>
</g>
<!-- Node15 -->
<g id="node15" class="node">
<title>Node15</title>
<g id="a_node15"><a xlink:href="classJoyButtonContextMenu.html#ad163e6b82faaf5467255ba1ffcbe003d" target="_top" xlink:title=" ">
<polygon fill="white" stroke="black" points="737.5,-290.5 737.5,-320.5 856.5,-320.5 856.5,-290.5 737.5,-290.5"/>
<text text-anchor="start" x="745.5" y="-308.5" font-family="Helvetica,sans-Serif" font-size="10.00">JoyButtonContextMenu</text>
<text text-anchor="middle" x="797" y="-297.5" font-family="Helvetica,sans-Serif" font-size="10.00">::switchSetMode</text>
</a>
</g>
</g>
<!-- Node12&#45;&gt;Node15 -->
<g id="edge14" class="edge">
<title>Node12&#45;&gt;Node15</title>
<path fill="none" stroke="midnightblue" d="M673.77,-305.5C690.76,-305.5 709.47,-305.5 727.03,-305.5"/>
<polygon fill="midnightblue" stroke="midnightblue" points="727.22,-309 737.22,-305.5 727.22,-302 727.22,-309"/>
</g>
<!-- Node16 -->
<g id="node16" class="node">
<title>Node16</title>
<g id="a_node16"><a xlink:href="classJoyButton.html#a451a0eaac9ee0a8804107a8b8c6659d1" target="_top" xlink:title=" ">
<polygon fill="white" stroke="black" points="918,-334 918,-353 1088,-353 1088,-334 918,-334"/>
<text text-anchor="middle" x="1003" y="-341" font-family="Helvetica,sans-Serif" font-size="10.00">JoyButton::setChangeSetCondition</text>
</a>
</g>
</g>
<!-- Node15&#45;&gt;Node16 -->
<g id="edge15" class="edge">
<title>Node15&#45;&gt;Node16</title>
<path fill="none" stroke="midnightblue" d="M856.73,-316.44C883.14,-321.36 914.29,-327.16 940.97,-332.13"/>
<polygon fill="midnightblue" stroke="midnightblue" points="940.48,-335.6 950.95,-333.99 941.76,-328.72 940.48,-335.6"/>
</g>
<!-- Node56 -->
<g id="node37" class="node">
<title>Node56</title>
<g id="a_node37"><a xlink:href="classJoyButton.html#af7ffbb38754f3f898935e6cc975ebb6a" target="_top" xlink:title=" ">
<polygon fill="white" stroke="black" points="1124,-296 1124,-315 1294,-315 1294,-296 1124,-296"/>
<text text-anchor="middle" x="1209" y="-303" font-family="Helvetica,sans-Serif" font-size="10.00">JoyButton::setChangeSetSelection</text>
</a>
</g>
</g>
<!-- Node15&#45;&gt;Node56 -->
<g id="edge42" class="edge">
<title>Node15&#45;&gt;Node56</title>
<path fill="none" stroke="midnightblue" d="M856.74,-305.5C923.71,-305.5 1034.11,-305.5 1113.28,-305.5"/>
<polygon fill="midnightblue" stroke="midnightblue" points="1113.75,-309 1123.75,-305.5 1113.75,-302 1113.75,-309"/>
</g>
<!-- Node17 -->
<g id="node17" class="node">
<title>Node17</title>
<g id="a_node17"><a xlink:href="classJoyButton.html#ad2df77b5daa94a848b015265ec1869d6" target="_top" xlink:title="Generate active zone string and notify other objects.">
<polygon fill="white" stroke="black" points="1330,-303.5 1330,-333.5 1466,-333.5 1466,-303.5 1330,-303.5"/>
<text text-anchor="start" x="1338" y="-321.5" font-family="Helvetica,sans-Serif" font-size="10.00">JoyButton::buildActiveZone</text>
<text text-anchor="middle" x="1398" y="-310.5" font-family="Helvetica,sans-Serif" font-size="10.00">SummaryString</text>
</a>
</g>
</g>
<!-- Node16&#45;&gt;Node17 -->
<g id="edge16" class="edge">
<title>Node16&#45;&gt;Node17</title>
<path fill="none" stroke="midnightblue" d="M1088.31,-338.14C1156.96,-333.77 1253.08,-327.66 1319.75,-323.41"/>
<polygon fill="midnightblue" stroke="midnightblue" points="1320.02,-326.9 1329.78,-322.78 1319.57,-319.92 1320.02,-326.9"/>
</g>
<!-- Node16&#45;&gt;Node56 -->
<g id="edge40" class="edge">
<title>Node16&#45;&gt;Node56</title>
<path fill="none" stroke="midnightblue" d="M1055.21,-333.96C1082.98,-328.79 1117.49,-322.36 1146.68,-316.92"/>
<polygon fill="midnightblue" stroke="midnightblue" points="1147.57,-320.32 1156.76,-315.04 1146.29,-313.43 1147.57,-320.32"/>
</g>
<!-- Node18 -->
<g id="node18" class="node">
<title>Node18</title>
<g id="a_node18"><a xlink:href="classJoyButton.html#ae76ccd3147106953d53a565730c1d8ee" target="_top" xlink:title="Generate a string that represents slots that will be activated or slots that are currently active if ...">
<polygon fill="white" stroke="black" points="1502,-291.5 1502,-321.5 1631,-321.5 1631,-291.5 1502,-291.5"/>
<text text-anchor="start" x="1510" y="-309.5" font-family="Helvetica,sans-Serif" font-size="10.00">JoyButton::getActiveZone</text>
<text text-anchor="middle" x="1566.5" y="-298.5" font-family="Helvetica,sans-Serif" font-size="10.00">Summary</text>
</a>
</g>
</g>
<!-- Node17&#45;&gt;Node18 -->
<g id="edge17" class="edge">
<title>Node17&#45;&gt;Node18</title>
<path fill="none" stroke="midnightblue" d="M1466.24,-313.65C1474.58,-313.05 1483.15,-312.44 1491.58,-311.83"/>
<polygon fill="midnightblue" stroke="midnightblue" points="1492.06,-315.3 1501.78,-311.09 1491.56,-308.32 1492.06,-315.3"/>
</g>
<!-- Node55 -->
<g id="node36" class="node">
<title>Node55</title>
<g id="a_node36"><a xlink:href="classJoyButton.html#a1b49d9ab85f0d5d128e2eca616747018" target="_top" xlink:title=" ">
<polygon fill="white" stroke="black" points="1503,-340.5 1503,-370.5 1630,-370.5 1630,-340.5 1503,-340.5"/>
<text text-anchor="start" x="1511" y="-358.5" font-family="Helvetica,sans-Serif" font-size="10.00">JoyButton::lockForWrited</text>
<text text-anchor="middle" x="1566.5" y="-347.5" font-family="Helvetica,sans-Serif" font-size="10.00">String</text>
</a>
</g>
</g>
<!-- Node17&#45;&gt;Node55 -->
<g id="edge39" class="edge">
<title>Node17&#45;&gt;Node55</title>
<path fill="none" stroke="midnightblue" d="M1466.24,-333.44C1475.03,-335.4 1484.06,-337.4 1492.93,-339.37"/>
<polygon fill="midnightblue" stroke="midnightblue" points="1492.33,-342.83 1502.86,-341.58 1493.85,-335.99 1492.33,-342.83"/>
</g>
<!-- Node19 -->
<g id="node19" class="node">
<title>Node19</title>
<g id="a_node19"><a xlink:href="classJoyButton.html#a9404c4ca344265ce68c0eb9b6b95048b" target="_top" xlink:title=" ">
<polygon fill="white" stroke="black" points="1672.5,-348.5 1672.5,-378.5 1808.5,-378.5 1808.5,-348.5 1672.5,-348.5"/>
<text text-anchor="start" x="1680.5" y="-366.5" font-family="Helvetica,sans-Serif" font-size="10.00">JoyButton::buildActiveZone</text>
<text text-anchor="middle" x="1740.5" y="-355.5" font-family="Helvetica,sans-Serif" font-size="10.00">Summary</text>
</a>
</g>
</g>
<!-- Node18&#45;&gt;Node19 -->
<g id="edge18" class="edge">
<title>Node18&#45;&gt;Node19</title>
<path fill="none" stroke="midnightblue" d="M1613.14,-321.63C1635,-328.87 1661.36,-337.6 1684.33,-345.22"/>
<polygon fill="midnightblue" stroke="midnightblue" points="1683.35,-348.58 1693.94,-348.4 1685.55,-341.93 1683.35,-348.58"/>
</g>
<!-- Node53 -->
<g id="node34" class="node">
<title>Node53</title>
<g id="a_node34"><a xlink:href="classJoyButton.html#a7494c1753b3f16ba988076e9eb34ff47" target="_top" xlink:title=" ">
<polygon fill="white" stroke="black" points="1668,-291 1668,-310 1813,-310 1813,-291 1668,-291"/>
<text text-anchor="middle" x="1740.5" y="-298" font-family="Helvetica,sans-Serif" font-size="10.00">JoyButton::getActiveZoneList</text>
</a>
</g>
</g>
<!-- Node18&#45;&gt;Node53 -->
<g id="edge34" class="edge">
<title>Node18&#45;&gt;Node53</title>
<path fill="none" stroke="midnightblue" d="M1631.06,-304.28C1639.75,-303.98 1648.77,-303.67 1657.73,-303.35"/>
<polygon fill="midnightblue" stroke="midnightblue" points="1657.92,-306.85 1667.8,-303 1657.68,-299.85 1657.92,-306.85"/>
</g>
<!-- Node20 -->
<g id="node20" class="node">
<title>Node20</title>
<g id="a_node20"><a xlink:href="classJoyButton.html#a773bbe39b094a62cd17776acc06efac6" target="_top" xlink:title=" ">
<polygon fill="white" stroke="black" points="1853.5,-367.5 1853.5,-397.5 1989.5,-397.5 1989.5,-367.5 1853.5,-367.5"/>
<text text-anchor="start" x="1861.5" y="-385.5" font-family="Helvetica,sans-Serif" font-size="10.00">JoyButton::buildActiveZone</text>
<text text-anchor="middle" x="1921.5" y="-374.5" font-family="Helvetica,sans-Serif" font-size="10.00">SummarySwitchSlots</text>
</a>
</g>
</g>
<!-- Node19&#45;&gt;Node20 -->
<g id="edge19" class="edge">
<title>Node19&#45;&gt;Node20</title>
<path fill="none" stroke="midnightblue" d="M1808.66,-370.63C1819.94,-371.83 1831.73,-373.08 1843.24,-374.3"/>
<polygon fill="midnightblue" stroke="midnightblue" points="1842.95,-377.79 1853.26,-375.36 1843.68,-370.83 1842.95,-377.79"/>
</g>
<!-- Node23 -->
<g id="node23" class="node">
<title>Node23</title>
<g id="a_node23"><a xlink:href="classJoyButtonSlot.html#a4fb0606a34134786bc642627bc25aedd" target="_top" xlink:title=" ">
<polygon fill="white" stroke="black" points="2217.5,-417 2217.5,-436 2353.5,-436 2353.5,-417 2217.5,-417"/>
<text text-anchor="middle" x="2285.5" y="-424" font-family="Helvetica,sans-Serif" font-size="10.00">JoyButtonSlot::getMixSlots</text>
</a>
</g>
</g>
<!-- Node19&#45;&gt;Node23 -->
<g id="edge31" class="edge">
<title>Node19&#45;&gt;Node23</title>
<path fill="none" stroke="midnightblue" d="M1771.02,-378.68C1792.35,-388.85 1822.19,-401.44 1850,-407.5 1972.77,-434.24 2119.53,-434.25 2207.21,-430.97"/>
<polygon fill="midnightblue" stroke="midnightblue" points="2207.49,-434.47 2217.34,-430.57 2207.21,-427.47 2207.49,-434.47"/>
</g>
<!-- Node50 -->
<g id="node31" class="node">
<title>Node50</title>
<g id="a_node31"><a xlink:href="classJoyButton.html#a64f1660931aea2fa8df1bf5e313c05ba" target="_top" xlink:title=" ">
<polygon fill="white" stroke="black" points="1856.5,-329 1856.5,-348 1986.5,-348 1986.5,-329 1856.5,-329"/>
<text text-anchor="middle" x="1921.5" y="-336" font-family="Helvetica,sans-Serif" font-size="10.00">JoyButton::getActiveSlots</text>
</a>
</g>
</g>
<!-- Node19&#45;&gt;Node50 -->
<g id="edge30" class="edge">
<title>Node19&#45;&gt;Node50</title>
<path fill="none" stroke="midnightblue" d="M1808.66,-354.12C1820.83,-352.42 1833.59,-350.64 1845.95,-348.91"/>
<polygon fill="midnightblue" stroke="midnightblue" points="1846.8,-352.33 1856.22,-347.48 1845.84,-345.39 1846.8,-352.33"/>
</g>
<!-- Node51 -->
<g id="node32" class="node">
<title>Node51</title>
<g id="a_node32"><a xlink:href="classJoyButtonSlot.html#abed7fe134c404b403ea79c0753f6eaaf" target="_top" xlink:title=" ">
<polygon fill="white" stroke="black" points="1852,-291 1852,-310 1991,-310 1991,-291 1852,-291"/>
<text text-anchor="middle" x="1921.5" y="-298" font-family="Helvetica,sans-Serif" font-size="10.00">JoyButtonSlot::getSlotMode</text>
</a>
</g>
</g>
<!-- Node19&#45;&gt;Node51 -->
<g id="edge32" class="edge">
<title>Node19&#45;&gt;Node51</title>
<path fill="none" stroke="midnightblue" d="M1775.79,-348.34C1796.94,-339.31 1824.76,-327.98 1850,-319.5 1857.1,-317.11 1864.68,-314.82 1872.14,-312.69"/>
<polygon fill="midnightblue" stroke="midnightblue" points="1873.12,-316.05 1881.83,-310.01 1871.26,-309.31 1873.12,-316.05"/>
</g>
<!-- Node52 -->
<g id="node33" class="node">
<title>Node52</title>
<g id="a_node33"><a xlink:href="classJoyButtonSlot.html#a1e38b923aa69abbcfb9abb008e692444" target="_top" xlink:title=" ">
<polygon fill="white" stroke="black" points="1853,-455 1853,-474 1990,-474 1990,-455 1853,-455"/>
<text text-anchor="middle" x="1921.5" y="-462" font-family="Helvetica,sans-Serif" font-size="10.00">JoyButtonSlot::getTextData</text>
</a>
</g>
</g>
<!-- Node19&#45;&gt;Node52 -->
<g id="edge33" class="edge">
<title>Node19&#45;&gt;Node52</title>
<path fill="none" stroke="midnightblue" d="M1759.27,-378.58C1779.95,-395.52 1815.66,-422.94 1850,-440.5 1858.28,-444.74 1867.48,-448.49 1876.43,-451.69"/>
<polygon fill="midnightblue" stroke="midnightblue" points="1875.38,-455.03 1885.98,-454.95 1877.64,-448.41 1875.38,-455.03"/>
</g>
<!-- Node21 -->
<g id="node21" class="node">
<title>Node21</title>
<g id="a_node21"><a xlink:href="classJoyButton.html#acb0ee9af0f5a44bd07ca5cfbfd026cf6" target="_top" xlink:title=" ">
<polygon fill="white" stroke="black" points="2030,-294 2030,-313 2168,-313 2168,-294 2030,-294"/>
<text text-anchor="middle" x="2099" y="-301" font-family="Helvetica,sans-Serif" font-size="10.00">JoyButton::findJoySlotsEnd</text>
</a>
</g>
</g>
<!-- Node20&#45;&gt;Node21 -->
<g id="edge20" class="edge">
<title>Node20&#45;&gt;Node21</title>
<path fill="none" stroke="midnightblue" d="M1967.98,-367.38C1976.38,-364.31 1985.01,-360.95 1993,-357.5 2020.74,-345.51 2051.35,-329.42 2072.33,-317.93"/>
<polygon fill="midnightblue" stroke="midnightblue" points="2074.18,-320.91 2081.24,-313.01 2070.8,-314.78 2074.18,-320.91"/>
</g>
<!-- Node22 -->
<g id="node22" class="node">
<title>Node22</title>
<g id="a_node22"><a xlink:href="classJoyButtonSlot.html#a6e10409ded595380cbdcfd5c827ab32a" target="_top" xlink:title=" ">
<polygon fill="white" stroke="black" points="2029,-373 2029,-392 2169,-392 2169,-373 2029,-373"/>
<text text-anchor="middle" x="2099" y="-380" font-family="Helvetica,sans-Serif" font-size="10.00">JoyButtonSlot::getSlotString</text>
</a>
</g>
</g>
<!-- Node20&#45;&gt;Node22 -->
<g id="edge21" class="edge">
<title>Node20&#45;&gt;Node22</title>
<path fill="none" stroke="midnightblue" d="M1989.6,-382.5C1999.15,-382.5 2009.05,-382.5 2018.81,-382.5"/>
<polygon fill="midnightblue" stroke="midnightblue" points="2018.9,-386 2028.9,-382.5 2018.9,-379 2018.9,-386"/>
</g>
<!-- Node22&#45;&gt;Node23 -->
<g id="edge22" class="edge">
<title>Node22&#45;&gt;Node23</title>
<path fill="none" stroke="midnightblue" d="M2140.03,-392.05C2167.84,-398.68 2205.08,-407.56 2234.78,-414.64"/>
<polygon fill="midnightblue" stroke="midnightblue" points="2234.01,-418.06 2244.54,-416.97 2235.63,-411.25 2234.01,-418.06"/>
</g>
<!-- Node25 -->
<g id="node25" class="node">
<title>Node25</title>
<g id="a_node25"><a xlink:href="namespacePadderCommon.html#aaa09739d2df84421a5a3467a06ce941c" target="_top" xlink:title="Returns the &quot;human&#45;readable&quot; name of the given profile.">
<polygon fill="white" stroke="black" points="2205,-376 2205,-395 2366,-395 2366,-376 2205,-376"/>
<text text-anchor="middle" x="2285.5" y="-383" font-family="Helvetica,sans-Serif" font-size="10.00">PadderCommon::getProfileName</text>
</a>
</g>
</g>
<!-- Node22&#45;&gt;Node25 -->
<g id="edge24" class="edge">
<title>Node22&#45;&gt;Node25</title>
<path fill="none" stroke="midnightblue" d="M2169.23,-383.63C2177.6,-383.76 2186.25,-383.9 2194.87,-384.04"/>
<polygon fill="midnightblue" stroke="midnightblue" points="2194.9,-387.54 2204.96,-384.21 2195.01,-380.54 2194.9,-387.54"/>
</g>
<!-- Node26 -->
<g id="node26" class="node">
<title>Node26</title>
<g id="a_node26"><a xlink:href="event_8cpp.html#a76ce89b71143c1c09343f45f038b4a67" target="_top" xlink:title=" ">
<polygon fill="white" stroke="red" points="2235,-338 2235,-357 2336,-357 2336,-338 2235,-338"/>
<text text-anchor="middle" x="2285.5" y="-345" font-family="Helvetica,sans-Serif" font-size="10.00">keysymToKeyString</text>
</a>
</g>
</g>
<!-- Node22&#45;&gt;Node26 -->
<g id="edge25" class="edge">
<title>Node22&#45;&gt;Node26</title>
<path fill="none" stroke="midnightblue" d="M2150.42,-372.94C2173.38,-368.58 2200.74,-363.39 2224.73,-358.84"/>
<polygon fill="midnightblue" stroke="midnightblue" points="2225.61,-362.23 2234.78,-356.93 2224.31,-355.36 2225.61,-362.23"/>
</g>
<!-- Node49 -->
<g id="node30" class="node">
<title>Node49</title>
<g id="a_node30"><a xlink:href="classJoyButtonSlot.html#a37ff2b523177bae4ea6a44b82f2973eb" target="_top" xlink:title=" ">
<polygon fill="white" stroke="black" points="2208,-300 2208,-319 2363,-319 2363,-300 2208,-300"/>
<text text-anchor="middle" x="2285.5" y="-307" font-family="Helvetica,sans-Serif" font-size="10.00">JoyButtonSlot::movementString</text>
</a>
</g>
</g>
<!-- Node22&#45;&gt;Node49 -->
<g id="edge29" class="edge">
<title>Node22&#45;&gt;Node49</title>
<path fill="none" stroke="midnightblue" d="M2115.82,-372.83C2135.9,-360.91 2171.94,-340.75 2205,-328.5 2211.86,-325.96 2219.18,-323.67 2226.5,-321.63"/>
<polygon fill="midnightblue" stroke="midnightblue" points="2227.66,-324.95 2236.44,-319.02 2225.88,-318.18 2227.66,-324.95"/>
</g>
<!-- Node24 -->
<g id="node24" class="node">
<title>Node24</title>
<g id="a_node24"><a xlink:href="classJoyButtonSlot.html#a9ba9cb0dda063a7df5575072c0aabe01" target="_top" xlink:title=" ">
<polygon fill="white" stroke="black" points="2415,-413.5 2415,-443.5 2544,-443.5 2544,-413.5 2415,-413.5"/>
<text text-anchor="start" x="2423" y="-431.5" font-family="Helvetica,sans-Serif" font-size="10.00">JoyButtonSlot::secureMix</text>
<text text-anchor="middle" x="2479.5" y="-420.5" font-family="Helvetica,sans-Serif" font-size="10.00">SlotsInit</text>
</a>
</g>
</g>
<!-- Node23&#45;&gt;Node24 -->
<g id="edge23" class="edge">
<title>Node23&#45;&gt;Node24</title>
<path fill="none" stroke="midnightblue" d="M2353.65,-427.2C2370.13,-427.37 2387.86,-427.56 2404.63,-427.73"/>
<polygon fill="midnightblue" stroke="midnightblue" points="2404.9,-431.23 2414.93,-427.84 2404.97,-424.23 2404.9,-431.23"/>
</g>
<!-- Node27 -->
<g id="node27" class="node">
<title>Node27</title>
<g id="a_node27"><a xlink:href="classX11Extras.html#a643c95dc1de8eb073a0accb41619fe83" target="_top" xlink:title="Get display instance.">
<polygon fill="white" stroke="black" points="2430,-375 2430,-394 2529,-394 2529,-375 2430,-375"/>
<text text-anchor="middle" x="2479.5" y="-382" font-family="Helvetica,sans-Serif" font-size="10.00">X11Extras::display</text>
</a>
</g>
</g>
<!-- Node26&#45;&gt;Node27 -->
<g id="edge26" class="edge">
<title>Node26&#45;&gt;Node27</title>
<path fill="none" stroke="midnightblue" d="M2335.94,-357.03C2361.56,-361.96 2393.01,-368.03 2419.85,-373.2"/>
<polygon fill="midnightblue" stroke="midnightblue" points="2419.41,-376.68 2429.89,-375.13 2420.73,-369.8 2419.41,-376.68"/>
</g>
<!-- Node28 -->
<g id="node28" class="node">
<title>Node28</title>
<g id="a_node28"><a xlink:href="classBaseEventHandler.html#a9a014e472ec57408d16b8b5eed964e90" target="_top" xlink:title=" ">
<polygon fill="white" stroke="black" points="2402,-337 2402,-356 2557,-356 2557,-337 2402,-337"/>
<text text-anchor="middle" x="2479.5" y="-344" font-family="Helvetica,sans-Serif" font-size="10.00">BaseEventHandler::getIdentifier</text>
</a>
</g>
</g>
<!-- Node26&#45;&gt;Node28 -->
<g id="edge27" class="edge">
<title>Node26&#45;&gt;Node28</title>
<path fill="none" stroke="midnightblue" d="M2336.44,-347.24C2353.3,-347.15 2372.65,-347.05 2391.52,-346.95"/>
<polygon fill="midnightblue" stroke="midnightblue" points="2391.65,-350.45 2401.63,-346.9 2391.61,-343.45 2391.65,-350.45"/>
</g>
<!-- Node29 -->
<g id="node29" class="node">
<title>Node29</title>
<g id="a_node29"><a xlink:href="classX11Extras.html#ace76277fced60e6bd6ff880030338182" target="_top" xlink:title=" ">
<polygon fill="white" stroke="red" points="2420,-299 2420,-318 2539,-318 2539,-299 2420,-299"/>
<text text-anchor="middle" x="2479.5" y="-306" font-family="Helvetica,sans-Serif" font-size="10.00">X11Extras::getInstance</text>
</a>
</g>
</g>
<!-- Node26&#45;&gt;Node29 -->
<g id="edge28" class="edge">
<title>Node26&#45;&gt;Node29</title>
<path fill="none" stroke="midnightblue" d="M2333.47,-337.96C2360.07,-332.56 2393.53,-325.76 2421.61,-320.06"/>
<polygon fill="midnightblue" stroke="midnightblue" points="2422.58,-323.43 2431.68,-318.01 2421.19,-316.57 2422.58,-323.43"/>
</g>
<!-- Node53&#45;&gt;Node21 -->
<g id="edge35" class="edge">
<title>Node53&#45;&gt;Node21</title>
<path fill="none" stroke="midnightblue" d="M1785.61,-290.99C1805.23,-287.22 1828.66,-283.35 1850,-281.5 1913.32,-276 1929.78,-274.95 1993,-281.5 2012.54,-283.52 2033.8,-287.62 2052.05,-291.73"/>
<polygon fill="midnightblue" stroke="midnightblue" points="2051.31,-295.15 2061.85,-294 2052.9,-288.33 2051.31,-295.15"/>
</g>
<!-- Node53&#45;&gt;Node50 -->
<g id="edge36" class="edge">
<title>Node53&#45;&gt;Node50</title>
<path fill="none" stroke="midnightblue" d="M1786.67,-310.09C1810.72,-315.19 1840.47,-321.51 1865.82,-326.89"/>
<polygon fill="midnightblue" stroke="midnightblue" points="1865.15,-330.33 1875.66,-328.98 1866.6,-323.48 1865.15,-330.33"/>
</g>
<!-- Node53&#45;&gt;Node51 -->
<g id="edge38" class="edge">
<title>Node53&#45;&gt;Node51</title>
<path fill="none" stroke="midnightblue" d="M1813.02,-300.5C1822.39,-300.5 1832.03,-300.5 1841.51,-300.5"/>
<polygon fill="midnightblue" stroke="midnightblue" points="1841.72,-304 1851.72,-300.5 1841.72,-297 1841.72,-304"/>
</g>
<!-- Node54 -->
<g id="node35" class="node">
<title>Node54</title>
<g id="a_node35"><a xlink:href="classJoyButton.html#ae1d364dfa70f47fae3db99ffbcdea44b" target="_top" xlink:title=" ">
<polygon fill="white" stroke="black" points="1850,-215 1850,-234 1993,-234 1993,-215 1850,-215"/>
<text text-anchor="middle" x="1921.5" y="-222" font-family="Helvetica,sans-Serif" font-size="10.00">JoyButton::getAssignedSlots</text>
</a>
</g>
</g>
<!-- Node53&#45;&gt;Node54 -->
<g id="edge37" class="edge">
<title>Node53&#45;&gt;Node54</title>
<path fill="none" stroke="midnightblue" d="M1774.09,-290.99C1786.87,-286.7 1801.46,-281.11 1814,-274.5 1831.46,-265.3 1832.46,-257.56 1850,-248.5 1858.18,-244.27 1867.27,-240.54 1876.13,-237.35"/>
<polygon fill="midnightblue" stroke="midnightblue" points="1877.26,-240.66 1885.59,-234.11 1875,-234.04 1877.26,-240.66"/>
</g>
<!-- Node56&#45;&gt;Node17 -->
<g id="edge41" class="edge">
<title>Node56&#45;&gt;Node17</title>
<path fill="none" stroke="midnightblue" d="M1294.2,-311.35C1302.68,-311.94 1311.26,-312.54 1319.66,-313.12"/>
<polygon fill="midnightblue" stroke="midnightblue" points="1319.58,-316.63 1329.8,-313.83 1320.06,-309.64 1319.58,-316.63"/>
</g>
<!-- Node57&#45;&gt;Node16 -->
<g id="edge44" class="edge">
<title>Node57&#45;&gt;Node16</title>
<path fill="none" stroke="midnightblue" d="M856.73,-379.11C887.27,-371.62 924.15,-362.58 953.11,-355.48"/>
<polygon fill="midnightblue" stroke="midnightblue" points="954.12,-358.84 963,-353.06 952.46,-352.04 954.12,-358.84"/>
</g>
<!-- Node62&#45;&gt;Node60 -->
<g id="edge52" class="edge">
<title>Node62&#45;&gt;Node60</title>
<path fill="none" stroke="midnightblue" d="M673.77,-28.81C696.41,-33.94 722.1,-39.76 744.05,-44.73"/>
<polygon fill="midnightblue" stroke="midnightblue" points="743.33,-48.16 753.86,-46.95 744.88,-41.33 743.33,-48.16"/>
</g>
<!-- Node63 -->
<g id="node44" class="node">
<title>Node63</title>
<g id="a_node44"><a xlink:href="classJoyButton.html#a3850d1fdd6cac80b3ca0c0b3d2bfe6a6" target="_top" xlink:title=" ">
<polygon fill="white" stroke="black" points="742.5,-6 742.5,-25 851.5,-25 851.5,-6 742.5,-6"/>
<text text-anchor="middle" x="797" y="-13" font-family="Helvetica,sans-Serif" font-size="10.00">JoyButton::setToggle</text>
</a>
</g>
</g>
<!-- Node62&#45;&gt;Node63 -->
<g id="edge53" class="edge">
<title>Node62&#45;&gt;Node63</title>
<path fill="none" stroke="midnightblue" d="M673.77,-15.5C692.49,-15.5 713.29,-15.5 732.34,-15.5"/>
<polygon fill="midnightblue" stroke="midnightblue" points="732.43,-19 742.43,-15.5 732.43,-12 732.43,-19"/>
</g>
<!-- Node64&#45;&gt;Node61 -->
<g id="edge55" class="edge">
<title>Node64&#45;&gt;Node61</title>
<path fill="none" stroke="midnightblue" d="M673.77,-204.19C696.41,-199.06 722.1,-193.24 744.05,-188.27"/>
<polygon fill="midnightblue" stroke="midnightblue" points="744.88,-191.67 753.86,-186.05 743.33,-184.84 744.88,-191.67"/>
</g>
<!-- Node65 -->
<g id="node46" class="node">
<title>Node65</title>
<g id="a_node46"><a xlink:href="classJoyButton.html#a0750530dac3901ece7c78c19d15e0d54" target="_top" xlink:title=" ">
<polygon fill="white" stroke="black" points="1505,-208 1505,-227 1628,-227 1628,-208 1505,-208"/>
<text text-anchor="middle" x="1566.5" y="-215" font-family="Helvetica,sans-Serif" font-size="10.00">JoyButton::setUseTurbo</text>
</a>
</g>
</g>
<!-- Node64&#45;&gt;Node65 -->
<g id="edge56" class="edge">
<title>Node64&#45;&gt;Node65</title>
<path fill="none" stroke="midnightblue" d="M673.68,-217.5C749.5,-217.5 885.6,-217.5 1002,-217.5 1002,-217.5 1002,-217.5 1210,-217.5 1308.68,-217.5 1422.77,-217.5 1494.53,-217.5"/>
<polygon fill="midnightblue" stroke="midnightblue" points="1494.8,-221 1504.8,-217.5 1494.8,-214 1494.8,-221"/>
</g>
<!-- Node66 -->
<g id="node47" class="node">
<title>Node66</title>
<g id="a_node47"><a xlink:href="classJoyButton.html#a6e3ee0e05fe5d243b142c5f22011c2e9" target="_top" xlink:title=" ">
<polygon fill="white" stroke="black" points="1667,-246 1667,-265 1814,-265 1814,-246 1667,-246"/>
<text text-anchor="middle" x="1740.5" y="-253" font-family="Helvetica,sans-Serif" font-size="10.00">JoyButton::containsSequence</text>
</a>
</g>
</g>
<!-- Node65&#45;&gt;Node66 -->
<g id="edge57" class="edge">
<title>Node65&#45;&gt;Node66</title>
<path fill="none" stroke="midnightblue" d="M1610.9,-227.09C1633.91,-232.17 1662.35,-238.46 1686.63,-243.82"/>
<polygon fill="midnightblue" stroke="midnightblue" points="1685.89,-247.24 1696.41,-245.98 1687.4,-240.41 1685.89,-247.24"/>
</g>
<!-- Node67 -->
<g id="node48" class="node">
<title>Node67</title>
<g id="a_node48"><a xlink:href="classJoyButton.html#a42d517ef696229862b238c52c4ff345c" target="_top" xlink:title=" ">
<polygon fill="white" stroke="black" points="1672,-208 1672,-227 1809,-227 1809,-208 1672,-208"/>
<text text-anchor="middle" x="1740.5" y="-215" font-family="Helvetica,sans-Serif" font-size="10.00">JoyButton::setTurboInterval</text>
</a>
</g>
</g>
<!-- Node65&#45;&gt;Node67 -->
<g id="edge60" class="edge">
<title>Node65&#45;&gt;Node67</title>
<path fill="none" stroke="midnightblue" d="M1628.14,-211.02C1638.95,-210.78 1650.35,-210.7 1661.56,-210.78"/>
<polygon fill="midnightblue" stroke="midnightblue" points="1661.75,-214.28 1671.79,-210.89 1661.83,-207.28 1661.75,-214.28"/>
</g>
<!-- Node66&#45;&gt;Node51 -->
<g id="edge59" class="edge">
<title>Node66&#45;&gt;Node51</title>
<path fill="none" stroke="midnightblue" d="M1779.46,-265.04C1806.63,-271.87 1843.42,-281.12 1872.61,-288.46"/>
<polygon fill="midnightblue" stroke="midnightblue" points="1872.04,-291.93 1882.59,-290.97 1873.75,-285.14 1872.04,-291.93"/>
</g>
<!-- Node66&#45;&gt;Node54 -->
<g id="edge58" class="edge">
<title>Node66&#45;&gt;Node54</title>
<path fill="none" stroke="midnightblue" d="M1796.67,-245.95C1815.3,-242.72 1836.27,-239.09 1855.59,-235.74"/>
<polygon fill="midnightblue" stroke="midnightblue" points="1856.26,-239.18 1865.52,-234.02 1855.07,-232.28 1856.26,-239.18"/>
</g>
<!-- Node67&#45;&gt;Node65 -->
<g id="edge61" class="edge">
<title>Node67&#45;&gt;Node65</title>
<path fill="none" stroke="midnightblue" d="M1671.79,-224.11C1660.76,-224.28 1649.31,-224.29 1638.21,-224.15"/>
<polygon fill="midnightblue" stroke="midnightblue" points="1638.2,-220.65 1628.14,-223.98 1638.08,-227.65 1638.2,-220.65"/>
</g>
<!-- Node68&#45;&gt;Node3 -->
<g id="edge63" class="edge">
<title>Node68&#45;&gt;Node3</title>
<path fill="none" stroke="midnightblue" d="M346.68,-453.74C359.83,-452.04 373.56,-450.26 386.53,-448.58"/>
<polygon fill="midnightblue" stroke="midnightblue" points="387.28,-452.02 396.75,-447.26 386.38,-445.07 387.28,-452.02"/>
</g>
<!-- Node69 -->
<g id="node50" class="node">
<title>Node69</title>
<g id="a_node50"><a xlink:href="classJoyButton.html#aa1eb52e9cce61ac403f9b451c512f197" target="_top" xlink:title=" ">
<polygon fill="white" stroke="black" points="384,-475 384,-494 516,-494 516,-475 384,-475"/>
<text text-anchor="middle" x="450" y="-482" font-family="Helvetica,sans-Serif" font-size="10.00">JoyButton::getButtonState</text>
</a>
</g>
</g>
<!-- Node68&#45;&gt;Node69 -->
<g id="edge64" class="edge">
<title>Node68&#45;&gt;Node69</title>
<path fill="none" stroke="midnightblue" d="M346.68,-471.26C355.56,-472.41 364.7,-473.59 373.7,-474.75"/>
<polygon fill="midnightblue" stroke="midnightblue" points="373.4,-478.25 383.77,-476.06 374.3,-471.3 373.4,-478.25"/>
</g>
</g>
</svg>
