<?xml version="1.0" encoding="UTF-8" standalone="no"?>
<!DOCTYPE svg PUBLIC "-//W3C//DTD SVG 1.1//EN"
 "http://www.w3.org/Graphics/SVG/1.1/DTD/svg11.dtd">
<!-- Generated by graphviz version 2.43.0 (0)
 -->
<!-- Title: SetJoystick::getAxes Pages: 1 -->
<svg width="655pt" height="244pt"
 viewBox="0.00 0.00 655.00 243.60" xmlns="http://www.w3.org/2000/svg" xmlns:xlink="http://www.w3.org/1999/xlink">
<g id="graph0" class="graph" transform="scale(1 1) rotate(0) translate(4 239.6)">
<title>SetJoystick::getAxes</title>
<polygon fill="white" stroke="transparent" points="-4,4 -4,-239.6 651,-239.6 651,4 -4,4"/>
<!-- Node1 -->
<g id="node1" class="node">
<title>Node1</title>
<g id="a_node1"><a xlink:title=" ">
<polygon fill="#bfbfbf" stroke="black" points="539,-110 539,-129 647,-129 647,-110 539,-110"/>
<text text-anchor="middle" x="593" y="-117" font-family="Helvetica,sans-Serif" font-size="10.00">SetJoystick::getAxes</text>
</a>
</g>
</g>
<!-- Node2 -->
<g id="node2" class="node">
<title>Node2</title>
<g id="a_node2"><a xlink:href="$classQuickSetDialog.html#a07fd82f8f1876081285948af84d3fdfa" xlink:title=" ">
<polygon fill="white" stroke="black" points="172,-198.5 172,-228.5 319,-228.5 319,-198.5 172,-198.5"/>
<text text-anchor="start" x="180" y="-216.5" font-family="Helvetica,sans-Serif" font-size="10.00">QuickSetDialog::connectAxes</text>
<text text-anchor="middle" x="245.5" y="-205.5" font-family="Helvetica,sans-Serif" font-size="10.00">ForDialog</text>
</a>
</g>
</g>
<!-- Node1&#45;&gt;Node2 -->
<g id="edge1" class="edge">
<title>Node1&#45;&gt;Node2</title>
<path fill="none" stroke="midnightblue" d="M581.43,-138.17C567.09,-161.35 539.09,-199.75 503,-215.5 443,-241.69 367.34,-237.14 313.77,-228.52"/>
<polygon fill="midnightblue" stroke="midnightblue" points="584.61,-139.66 586.72,-129.28 578.59,-136.08 584.61,-139.66"/>
</g>
<!-- Node4 -->
<g id="node4" class="node">
<title>Node4</title>
<g id="a_node4"><a xlink:href="$classGameControllerSet.html#abd666978fe84da99c8338e8020051510" xlink:title=" ">
<polygon fill="white" stroke="black" points="378.5,-175.5 378.5,-205.5 484.5,-205.5 484.5,-175.5 378.5,-175.5"/>
<text text-anchor="start" x="386.5" y="-193.5" font-family="Helvetica,sans-Serif" font-size="10.00">GameControllerSet::</text>
<text text-anchor="middle" x="431.5" y="-182.5" font-family="Helvetica,sans-Serif" font-size="10.00">refreshAxes</text>
</a>
</g>
</g>
<!-- Node1&#45;&gt;Node4 -->
<g id="edge3" class="edge">
<title>Node1&#45;&gt;Node4</title>
<path fill="none" stroke="midnightblue" d="M566.64,-134.27C549.11,-144.13 525.07,-156.99 503,-166.5 495.76,-169.62 487.96,-172.62 480.29,-175.37"/>
<polygon fill="midnightblue" stroke="midnightblue" points="568.69,-137.13 575.65,-129.14 565.23,-131.04 568.69,-137.13"/>
</g>
<!-- Node5 -->
<g id="node5" class="node">
<title>Node5</title>
<g id="a_node5"><a xlink:href="$classQuickSetDialog.html#ab93f6d0b9dce90e205857c4606b9c892" xlink:title=" ">
<polygon fill="white" stroke="black" points="360,-126.5 360,-156.5 503,-156.5 503,-126.5 360,-126.5"/>
<text text-anchor="start" x="368" y="-144.5" font-family="Helvetica,sans-Serif" font-size="10.00">QuickSetDialog::restoreAxes</text>
<text text-anchor="middle" x="431.5" y="-133.5" font-family="Helvetica,sans-Serif" font-size="10.00">States</text>
</a>
</g>
</g>
<!-- Node1&#45;&gt;Node5 -->
<g id="edge4" class="edge">
<title>Node1&#45;&gt;Node5</title>
<path fill="none" stroke="midnightblue" d="M528.81,-128.22C520.42,-129.37 511.77,-130.57 503.26,-131.74"/>
<polygon fill="midnightblue" stroke="midnightblue" points="529.46,-131.66 538.89,-126.83 528.5,-124.72 529.46,-131.66"/>
</g>
<!-- Node7 -->
<g id="node7" class="node">
<title>Node7</title>
<g id="a_node7"><a xlink:href="$classInputDeviceXml.html#a12bf094c5ab0ab10dae089e41fbc778c" xlink:title=" ">
<polygon fill="white" stroke="black" points="360.5,-88 360.5,-107 502.5,-107 502.5,-88 360.5,-88"/>
<text text-anchor="middle" x="431.5" y="-95" font-family="Helvetica,sans-Serif" font-size="10.00">InputDeviceXml::writeConfig</text>
</a>
</g>
</g>
<!-- Node1&#45;&gt;Node7 -->
<g id="edge7" class="edge">
<title>Node1&#45;&gt;Node7</title>
<path fill="none" stroke="midnightblue" d="M528.9,-110.8C519.92,-109.56 510.64,-108.28 501.55,-107.02"/>
<polygon fill="midnightblue" stroke="midnightblue" points="528.5,-114.28 538.89,-112.17 529.46,-107.34 528.5,-114.28"/>
</g>
<!-- Node10 -->
<g id="node10" class="node">
<title>Node10</title>
<g id="a_node10"><a xlink:href="$classSetJoystickXml.html#a11eec051c05deac5ebe47b9582e83b6f" xlink:title=" ">
<polygon fill="white" stroke="black" points="361.5,-50 361.5,-69 501.5,-69 501.5,-50 361.5,-50"/>
<text text-anchor="middle" x="431.5" y="-57" font-family="Helvetica,sans-Serif" font-size="10.00">SetJoystickXml::writeConfig</text>
</a>
</g>
</g>
<!-- Node1&#45;&gt;Node10 -->
<g id="edge10" class="edge">
<title>Node1&#45;&gt;Node10</title>
<path fill="none" stroke="midnightblue" d="M564.63,-105.43C547.28,-96.88 524.19,-86.17 503,-78.5 493.35,-75 482.74,-71.82 472.76,-69.1"/>
<polygon fill="midnightblue" stroke="midnightblue" points="563.12,-108.59 573.63,-109.93 566.25,-102.33 563.12,-108.59"/>
</g>
<!-- Node11 -->
<g id="node11" class="node">
<title>Node11</title>
<g id="a_node11"><a xlink:href="$classGameControllerXml.html#a43ba30d58802f57ca877b5c85ec1e018" xlink:title=" ">
<polygon fill="white" stroke="black" points="377.5,-0.5 377.5,-30.5 485.5,-30.5 485.5,-0.5 377.5,-0.5"/>
<text text-anchor="start" x="385.5" y="-18.5" font-family="Helvetica,sans-Serif" font-size="10.00">GameControllerXml::</text>
<text text-anchor="middle" x="431.5" y="-7.5" font-family="Helvetica,sans-Serif" font-size="10.00">writeXmlForAxes</text>
</a>
</g>
</g>
<!-- Node1&#45;&gt;Node11 -->
<g id="edge11" class="edge">
<title>Node1&#45;&gt;Node11</title>
<path fill="none" stroke="midnightblue" d="M576.34,-102.11C559.65,-84.49 531.74,-57.47 503,-40.5 496.63,-36.74 489.6,-33.41 482.52,-30.51"/>
<polygon fill="midnightblue" stroke="midnightblue" points="574.21,-104.97 583.58,-109.92 579.35,-100.21 574.21,-104.97"/>
</g>
<!-- Node3 -->
<g id="node3" class="node">
<title>Node3</title>
<g id="a_node3"><a xlink:href="$classQuickSetDialog.html#a57726006cbe2d8534f4be91a05646dd2" xlink:title=" ">
<polygon fill="white" stroke="black" points="0,-164.5 0,-194.5 131,-194.5 131,-164.5 0,-164.5"/>
<text text-anchor="start" x="8" y="-182.5" font-family="Helvetica,sans-Serif" font-size="10.00">QuickSetDialog::QuickSet</text>
<text text-anchor="middle" x="65.5" y="-171.5" font-family="Helvetica,sans-Serif" font-size="10.00">Dialog</text>
</a>
</g>
</g>
<!-- Node2&#45;&gt;Node3 -->
<g id="edge2" class="edge">
<title>Node2&#45;&gt;Node3</title>
<path fill="none" stroke="midnightblue" d="M161.99,-197.74C151.66,-195.77 141.21,-193.77 131.21,-191.86"/>
<polygon fill="midnightblue" stroke="midnightblue" points="161.36,-201.18 171.84,-199.62 162.68,-194.31 161.36,-201.18"/>
</g>
<!-- Node6 -->
<g id="node6" class="node">
<title>Node6</title>
<g id="a_node6"><a xlink:href="$classQuickSetDialog.html#afacbf395389ca073edf366a412c1626b" xlink:title=" ">
<polygon fill="white" stroke="black" points="167,-128.5 167,-158.5 324,-158.5 324,-128.5 167,-128.5"/>
<text text-anchor="start" x="175" y="-146.5" font-family="Helvetica,sans-Serif" font-size="10.00">QuickSetDialog::restoreJoystick</text>
<text text-anchor="middle" x="245.5" y="-135.5" font-family="Helvetica,sans-Serif" font-size="10.00">State</text>
</a>
</g>
</g>
<!-- Node5&#45;&gt;Node6 -->
<g id="edge5" class="edge">
<title>Node5&#45;&gt;Node6</title>
<path fill="none" stroke="midnightblue" d="M349.68,-142.38C341.24,-142.47 332.68,-142.56 324.27,-142.65"/>
<polygon fill="midnightblue" stroke="midnightblue" points="349.93,-145.88 359.89,-142.27 349.85,-138.88 349.93,-145.88"/>
</g>
<!-- Node6&#45;&gt;Node3 -->
<g id="edge6" class="edge">
<title>Node6&#45;&gt;Node3</title>
<path fill="none" stroke="midnightblue" d="M160.2,-160.55C150.46,-162.52 140.65,-164.5 131.23,-166.41"/>
<polygon fill="midnightblue" stroke="midnightblue" points="161.19,-163.92 170.3,-158.51 159.81,-157.06 161.19,-163.92"/>
</g>
<!-- Node8 -->
<g id="node8" class="node">
<title>Node8</title>
<g id="a_node8"><a xlink:href="$classXMLConfigWriter.html#aacd0a3991eedf223f3586d33559903d4" xlink:title=" ">
<polygon fill="white" stroke="black" points="186.5,-88 186.5,-107 304.5,-107 304.5,-88 186.5,-88"/>
<text text-anchor="middle" x="245.5" y="-95" font-family="Helvetica,sans-Serif" font-size="10.00">XMLConfigWriter::write</text>
</a>
</g>
</g>
<!-- Node7&#45;&gt;Node8 -->
<g id="edge8" class="edge">
<title>Node7&#45;&gt;Node8</title>
<path fill="none" stroke="midnightblue" d="M350.4,-97.5C335.04,-97.5 319.23,-97.5 304.72,-97.5"/>
<polygon fill="midnightblue" stroke="midnightblue" points="350.41,-101 360.41,-97.5 350.41,-94 350.41,-101"/>
</g>
<!-- Node9 -->
<g id="node9" class="node">
<title>Node9</title>
<g id="a_node9"><a xlink:href="$classJoyTabWidgetHelper.html#ad1754369989cbe4a3e10c8c01e3fb89b" xlink:title=" ">
<polygon fill="white" stroke="black" points="12,-82.5 12,-112.5 119,-112.5 119,-82.5 12,-82.5"/>
<text text-anchor="start" x="20" y="-100.5" font-family="Helvetica,sans-Serif" font-size="10.00">JoyTabWidgetHelper</text>
<text text-anchor="middle" x="65.5" y="-89.5" font-family="Helvetica,sans-Serif" font-size="10.00">::writeConfigFile</text>
</a>
</g>
</g>
<!-- Node8&#45;&gt;Node9 -->
<g id="edge9" class="edge">
<title>Node8&#45;&gt;Node9</title>
<path fill="none" stroke="midnightblue" d="M176.18,-97.5C157.28,-97.5 137.06,-97.5 119.2,-97.5"/>
<polygon fill="midnightblue" stroke="midnightblue" points="176.22,-101 186.22,-97.5 176.22,-94 176.22,-101"/>
</g>
<!-- Node12 -->
<g id="node12" class="node">
<title>Node12</title>
<g id="a_node12"><a xlink:href="$classGameControllerXml.html#ac87bc51a0dcdb01143d969a732b5188f" xlink:title=" ">
<polygon fill="white" stroke="black" points="191.5,-0.5 191.5,-30.5 299.5,-30.5 299.5,-0.5 191.5,-0.5"/>
<text text-anchor="start" x="199.5" y="-18.5" font-family="Helvetica,sans-Serif" font-size="10.00">GameControllerXml::</text>
<text text-anchor="middle" x="245.5" y="-7.5" font-family="Helvetica,sans-Serif" font-size="10.00">writeConfig</text>
</a>
</g>
</g>
<!-- Node11&#45;&gt;Node12 -->
<g id="edge12" class="edge">
<title>Node11&#45;&gt;Node12</title>
<path fill="none" stroke="midnightblue" d="M367.04,-15.5C345.06,-15.5 320.66,-15.5 299.6,-15.5"/>
<polygon fill="midnightblue" stroke="midnightblue" points="367.28,-19 377.28,-15.5 367.28,-12 367.28,-19"/>
</g>
</g>
</svg>
