<?xml version="1.0" encoding="UTF-8" standalone="no"?>
<!DOCTYPE svg PUBLIC "-//W3C//DTD SVG 1.1//EN"
 "http://www.w3.org/Graphics/SVG/1.1/DTD/svg11.dtd">
<!-- Generated by graphviz version 2.43.0 (0)
 -->
<!-- Title: DPadContextMenu::buildMenu Pages: 1 -->
<svg width="950pt" height="377pt"
 viewBox="0.00 0.00 950.00 377.00" xmlns="http://www.w3.org/2000/svg" xmlns:xlink="http://www.w3.org/1999/xlink">
<g id="graph0" class="graph" transform="scale(1 1) rotate(0) translate(4 373)">
<title>DPadContextMenu::buildMenu</title>
<polygon fill="white" stroke="transparent" points="-4,4 -4,-373 946,-373 946,4 -4,4"/>
<!-- Node1 -->
<g id="node1" class="node">
<title>Node1</title>
<g id="a_node1"><a xlink:title="Generate the context menu that will be shown to a user when the person right clicks on the DPad setti...">
<polygon fill="#bfbfbf" stroke="black" points="0,-228.5 0,-247.5 150,-247.5 150,-228.5 0,-228.5"/>
<text text-anchor="middle" x="75" y="-235.5" font-family="Helvetica,sans-Serif" font-size="10.00">DPadContextMenu::buildMenu</text>
</a>
</g>
</g>
<!-- Node2 -->
<g id="node2" class="node">
<title>Node2</title>
<g id="a_node2"><a xlink:href="classDPadContextMenu.html#a1cafb84b40c743f9b777ad6e49deefd2" target="_top" xlink:title=" ">
<polygon fill="white" stroke="black" points="192.5,-324 192.5,-354 335.5,-354 335.5,-324 192.5,-324"/>
<text text-anchor="start" x="200.5" y="-342" font-family="Helvetica,sans-Serif" font-size="10.00">DPadContextMenu::generate</text>
<text text-anchor="middle" x="264" y="-331" font-family="Helvetica,sans-Serif" font-size="10.00">ActionMode</text>
</a>
</g>
</g>
<!-- Node1&#45;&gt;Node2 -->
<g id="edge1" class="edge">
<title>Node1&#45;&gt;Node2</title>
<path fill="none" stroke="midnightblue" d="M89.8,-247.71C110.21,-261.82 149.95,-288.37 186,-307 194.87,-311.59 204.56,-316.03 213.97,-320.06"/>
<polygon fill="midnightblue" stroke="midnightblue" points="212.68,-323.32 223.25,-323.96 215.39,-316.86 212.68,-323.32"/>
</g>
<!-- Node5 -->
<g id="node5" class="node">
<title>Node5</title>
<g id="a_node5"><a xlink:href="classDPadContextMenu.html#ae176816ed8b0f6674040628c02f6ef58" target="_top" xlink:title=" ">
<polygon fill="white" stroke="black" points="192.5,-267 192.5,-297 335.5,-297 335.5,-267 192.5,-267"/>
<text text-anchor="start" x="200.5" y="-285" font-family="Helvetica,sans-Serif" font-size="10.00">DPadContextMenu::generate</text>
<text text-anchor="middle" x="264" y="-274" font-family="Helvetica,sans-Serif" font-size="10.00">ActionPreset</text>
</a>
</g>
</g>
<!-- Node1&#45;&gt;Node5 -->
<g id="edge4" class="edge">
<title>Node1&#45;&gt;Node5</title>
<path fill="none" stroke="midnightblue" d="M116.58,-247.55C137.82,-252.55 164.49,-258.82 189.24,-264.64"/>
<polygon fill="midnightblue" stroke="midnightblue" points="188.44,-268.05 198.97,-266.93 190.04,-261.24 188.44,-268.05"/>
</g>
<!-- Node11 -->
<g id="node11" class="node">
<title>Node11</title>
<g id="a_node11"><a xlink:href="classJoyDPad.html#a49c84e10ea78221ef1d42a2f986f05e8" target="_top" xlink:title=" ">
<polygon fill="white" stroke="black" points="611,-223.5 611,-242.5 727,-242.5 727,-223.5 611,-223.5"/>
<text text-anchor="middle" x="669" y="-230.5" font-family="Helvetica,sans-Serif" font-size="10.00">JoyDPad::getJoyMode</text>
</a>
</g>
</g>
<!-- Node1&#45;&gt;Node11 -->
<g id="edge13" class="edge">
<title>Node1&#45;&gt;Node11</title>
<path fill="none" stroke="midnightblue" d="M150.08,-237.37C266.06,-236.39 488.78,-234.51 600.54,-233.57"/>
<polygon fill="midnightblue" stroke="midnightblue" points="600.71,-237.07 610.68,-233.48 600.65,-230.07 600.71,-237.07"/>
</g>
<!-- Node13 -->
<g id="node13" class="node">
<title>Node13</title>
<g id="a_node13"><a xlink:href="classDPadContextMenu.html#a27b2084e8b1998f9f8cb798d9e08d231" target="_top" xlink:title="Find the appropriate menu item index for the currently assigned slots that are assigned to a DPad.">
<polygon fill="white" stroke="black" points="190,-128 190,-158 338,-158 338,-128 190,-128"/>
<text text-anchor="start" x="198" y="-146" font-family="Helvetica,sans-Serif" font-size="10.00">DPadContextMenu::getPreset</text>
<text text-anchor="middle" x="264" y="-135" font-family="Helvetica,sans-Serif" font-size="10.00">Index</text>
</a>
</g>
</g>
<!-- Node1&#45;&gt;Node13 -->
<g id="edge14" class="edge">
<title>Node1&#45;&gt;Node13</title>
<path fill="none" stroke="midnightblue" d="M94.96,-228.37C125.13,-213.04 184.69,-182.78 224.18,-162.72"/>
<polygon fill="midnightblue" stroke="midnightblue" points="225.94,-165.75 233.27,-158.1 222.77,-159.51 225.94,-165.75"/>
</g>
<!-- Node20 -->
<g id="node20" class="node">
<title>Node20</title>
<g id="a_node20"><a xlink:href="classDPadContextMenu.html#a4fa051d72cad843a148e49a91e56c019" target="_top" xlink:title="Open a mouse settings dialog for changing the mouse speed settings for all DPad buttons.">
<polygon fill="white" stroke="black" points="186,-79 186,-109 342,-109 342,-79 186,-79"/>
<text text-anchor="start" x="194" y="-97" font-family="Helvetica,sans-Serif" font-size="10.00">DPadContextMenu::openMouse</text>
<text text-anchor="middle" x="264" y="-86" font-family="Helvetica,sans-Serif" font-size="10.00">SettingsDialog</text>
</a>
</g>
</g>
<!-- Node1&#45;&gt;Node20 -->
<g id="edge22" class="edge">
<title>Node1&#45;&gt;Node20</title>
<path fill="none" stroke="midnightblue" d="M82.18,-228.32C97.18,-205.62 137.8,-148.59 186,-118 188.58,-116.36 191.27,-114.83 194.05,-113.4"/>
<polygon fill="midnightblue" stroke="midnightblue" points="195.56,-116.56 203.14,-109.15 192.6,-110.21 195.56,-116.56"/>
</g>
<!-- Node3 -->
<g id="node3" class="node">
<title>Node3</title>
<g id="a_node3"><a xlink:href="classDPadContextMenu.html#a13e390013b02411aabc85d1e4b17891a" target="_top" xlink:title="Set the appropriate mode for a DPad based on the item chosen.">
<polygon fill="white" stroke="black" points="378,-345.5 378,-364.5 546,-364.5 546,-345.5 378,-345.5"/>
<text text-anchor="middle" x="462" y="-352.5" font-family="Helvetica,sans-Serif" font-size="10.00">DPadContextMenu::setDPadMode</text>
</a>
</g>
</g>
<!-- Node2&#45;&gt;Node3 -->
<g id="edge2" class="edge">
<title>Node2&#45;&gt;Node3</title>
<path fill="none" stroke="midnightblue" d="M335.76,-344.78C346.06,-345.62 356.8,-346.49 367.47,-347.37"/>
<polygon fill="midnightblue" stroke="midnightblue" points="367.41,-350.87 377.67,-348.2 367.98,-343.9 367.41,-350.87"/>
</g>
<!-- Node4 -->
<g id="node4" class="node">
<title>Node4</title>
<g id="a_node4"><a xlink:href="classJoyDPad.html#ae912673a382e0ffcdd1472373ffe832b" target="_top" xlink:title=" ">
<polygon fill="white" stroke="black" points="611,-349.5 611,-368.5 727,-368.5 727,-349.5 611,-349.5"/>
<text text-anchor="middle" x="669" y="-356.5" font-family="Helvetica,sans-Serif" font-size="10.00">JoyDPad::setJoyMode</text>
</a>
</g>
</g>
<!-- Node3&#45;&gt;Node4 -->
<g id="edge3" class="edge">
<title>Node3&#45;&gt;Node4</title>
<path fill="none" stroke="midnightblue" d="M546.09,-356.62C564.27,-356.98 583.3,-357.35 600.77,-357.69"/>
<polygon fill="midnightblue" stroke="midnightblue" points="600.8,-361.19 610.86,-357.89 600.93,-354.19 600.8,-361.19"/>
</g>
<!-- Node6 -->
<g id="node6" class="node">
<title>Node6</title>
<g id="a_node6"><a xlink:href="classDPadContextMenu.html#a40550e6245c2c82666d52ca4e7e66f67" target="_top" xlink:title="Assign the appropriate slots to DPad buttons based on the preset item that was chosen.">
<polygon fill="white" stroke="black" points="390,-267 390,-297 534,-297 534,-267 390,-267"/>
<text text-anchor="start" x="398" y="-285" font-family="Helvetica,sans-Serif" font-size="10.00">DPadContextMenu::setDPad</text>
<text text-anchor="middle" x="462" y="-274" font-family="Helvetica,sans-Serif" font-size="10.00">Preset</text>
</a>
</g>
</g>
<!-- Node5&#45;&gt;Node6 -->
<g id="edge5" class="edge">
<title>Node5&#45;&gt;Node6</title>
<path fill="none" stroke="midnightblue" d="M335.76,-282C349.88,-282 364.82,-282 379.27,-282"/>
<polygon fill="midnightblue" stroke="midnightblue" points="379.69,-285.5 389.69,-282 379.69,-278.5 379.69,-285.5"/>
</g>
<!-- Node6&#45;&gt;Node4 -->
<g id="edge11" class="edge">
<title>Node6&#45;&gt;Node4</title>
<path fill="none" stroke="midnightblue" d="M489.63,-297.25C513.25,-310.21 549.01,-328.5 582,-340 589.6,-342.65 597.7,-345.01 605.79,-347.09"/>
<polygon fill="midnightblue" stroke="midnightblue" points="605.06,-350.52 615.6,-349.49 606.72,-343.72 605.06,-350.52"/>
</g>
<!-- Node7 -->
<g id="node7" class="node">
<title>Node7</title>
<g id="a_node7"><a xlink:href="classDPadContextMenu.html#a60b40fa686979a820b816eae259cf52d" target="_top" xlink:title=" ">
<polygon fill="white" stroke="black" points="595,-311.5 595,-330.5 743,-330.5 743,-311.5 595,-311.5"/>
<text text-anchor="middle" x="669" y="-318.5" font-family="Helvetica,sans-Serif" font-size="10.00">DPadContextMenu::getHelper</text>
</a>
</g>
</g>
<!-- Node6&#45;&gt;Node7 -->
<g id="edge6" class="edge">
<title>Node6&#45;&gt;Node7</title>
<path fill="none" stroke="midnightblue" d="M534.12,-295.53C558.2,-300.11 584.83,-305.18 607.96,-309.58"/>
<polygon fill="midnightblue" stroke="midnightblue" points="607.5,-313.05 617.98,-311.48 608.81,-306.18 607.5,-313.05"/>
</g>
<!-- Node8 -->
<g id="node8" class="node">
<title>Node8</title>
<g id="a_node8"><a xlink:href="classAntKeyMapper.html#acd08c44a2501edcfdb1ef8a68d534b1b" target="_top" xlink:title=" ">
<polygon fill="white" stroke="black" points="600.5,-149.5 600.5,-168.5 737.5,-168.5 737.5,-149.5 600.5,-149.5"/>
<text text-anchor="middle" x="669" y="-156.5" font-family="Helvetica,sans-Serif" font-size="10.00">AntKeyMapper::getInstance</text>
</a>
</g>
</g>
<!-- Node6&#45;&gt;Node8 -->
<g id="edge7" class="edge">
<title>Node6&#45;&gt;Node8</title>
<path fill="none" stroke="midnightblue" d="M488.14,-266.92C527.73,-243.16 604.14,-197.32 643.4,-173.76"/>
<polygon fill="midnightblue" stroke="midnightblue" points="645.31,-176.7 652.08,-168.55 641.71,-170.69 645.31,-176.7"/>
</g>
<!-- Node6&#45;&gt;Node11 -->
<g id="edge10" class="edge">
<title>Node6&#45;&gt;Node11</title>
<path fill="none" stroke="midnightblue" d="M524.12,-266.97C542.7,-262.44 563.18,-257.48 582,-253 593.19,-250.34 605.2,-247.52 616.6,-244.86"/>
<polygon fill="midnightblue" stroke="midnightblue" points="617.48,-248.25 626.42,-242.58 615.89,-241.43 617.48,-248.25"/>
</g>
<!-- Node12 -->
<g id="node12" class="node">
<title>Node12</title>
<g id="a_node12"><a xlink:href="classDPadContextMenuHelper.html#a454c25195ce9a77495ce74e388929561" target="_top" xlink:title=" ">
<polygon fill="white" stroke="black" points="605,-262 605,-292 733,-292 733,-262 605,-262"/>
<text text-anchor="start" x="613" y="-280" font-family="Helvetica,sans-Serif" font-size="10.00">DPadContextMenuHelper</text>
<text text-anchor="middle" x="669" y="-269" font-family="Helvetica,sans-Serif" font-size="10.00">::setPendingSlots</text>
</a>
</g>
</g>
<!-- Node6&#45;&gt;Node12 -->
<g id="edge12" class="edge">
<title>Node6&#45;&gt;Node12</title>
<path fill="none" stroke="midnightblue" d="M534.12,-280.27C553.72,-279.79 575.01,-279.27 594.73,-278.79"/>
<polygon fill="midnightblue" stroke="midnightblue" points="594.96,-282.28 604.88,-278.54 594.79,-275.28 594.96,-282.28"/>
</g>
<!-- Node9 -->
<g id="node9" class="node">
<title>Node9</title>
<g id="a_node9"><a xlink:href="classAntKeyMapper.html#abe4a434636d370a750d32a14b9a139d3" target="_top" xlink:title=" ">
<polygon fill="white" stroke="black" points="792,-168.5 792,-187.5 942,-187.5 942,-168.5 792,-168.5"/>
<text text-anchor="middle" x="867" y="-175.5" font-family="Helvetica,sans-Serif" font-size="10.00">AntKeyMapper::AntKeyMapper</text>
</a>
</g>
</g>
<!-- Node8&#45;&gt;Node9 -->
<g id="edge8" class="edge">
<title>Node8&#45;&gt;Node9</title>
<path fill="none" stroke="midnightblue" d="M737.73,-165.57C751.93,-166.94 767.08,-168.41 781.8,-169.84"/>
<polygon fill="midnightblue" stroke="midnightblue" points="781.62,-173.34 791.91,-170.82 782.29,-166.37 781.62,-173.34"/>
</g>
<!-- Node10 -->
<g id="node10" class="node">
<title>Node10</title>
<g id="a_node10"><a xlink:href="antkeymapper_8cpp.html#a4f87707944cf82e8e59c85d48e24951c" target="_top" xlink:title=" ">
<polygon fill="white" stroke="black" points="807,-130.5 807,-149.5 927,-149.5 927,-130.5 807,-130.5"/>
<text text-anchor="middle" x="867" y="-137.5" font-family="Helvetica,sans-Serif" font-size="10.00">buildEventGeneratorList</text>
</a>
</g>
</g>
<!-- Node8&#45;&gt;Node10 -->
<g id="edge9" class="edge">
<title>Node8&#45;&gt;Node10</title>
<path fill="none" stroke="midnightblue" d="M737.73,-152.43C756.77,-150.59 777.5,-148.58 796.63,-146.72"/>
<polygon fill="midnightblue" stroke="midnightblue" points="797.16,-150.19 806.77,-145.74 796.48,-143.22 797.16,-150.19"/>
</g>
<!-- Node13&#45;&gt;Node8 -->
<g id="edge16" class="edge">
<title>Node13&#45;&gt;Node8</title>
<path fill="none" stroke="midnightblue" d="M338.16,-140.39C394.92,-139 475.53,-138.4 546,-143 562.59,-144.08 580.38,-145.99 597.09,-148.11"/>
<polygon fill="midnightblue" stroke="midnightblue" points="596.97,-151.63 607.34,-149.46 597.88,-144.69 596.97,-151.63"/>
</g>
<!-- Node14 -->
<g id="node14" class="node">
<title>Node14</title>
<g id="a_node14"><a xlink:href="classJoyButton.html#ae1d364dfa70f47fae3db99ffbcdea44b" target="_top" xlink:title=" ">
<polygon fill="white" stroke="black" points="390.5,-38.5 390.5,-57.5 533.5,-57.5 533.5,-38.5 390.5,-38.5"/>
<text text-anchor="middle" x="462" y="-45.5" font-family="Helvetica,sans-Serif" font-size="10.00">JoyButton::getAssignedSlots</text>
</a>
</g>
</g>
<!-- Node13&#45;&gt;Node14 -->
<g id="edge15" class="edge">
<title>Node13&#45;&gt;Node14</title>
<path fill="none" stroke="midnightblue" d="M324.93,-127.87C330.97,-125.1 336.8,-121.84 342,-118 364.34,-101.54 354.95,-82.45 378,-67 380.98,-65.01 384.13,-63.22 387.41,-61.62"/>
<polygon fill="midnightblue" stroke="midnightblue" points="389.07,-64.71 396.9,-57.58 386.33,-58.27 389.07,-64.71"/>
</g>
<!-- Node15 -->
<g id="node15" class="node">
<title>Node15</title>
<g id="a_node15"><a xlink:href="classJoyDPad.html#a5e31e9bf9edfcc87b69d389dbe9d2ea9" target="_top" xlink:title=" ">
<polygon fill="white" stroke="black" points="401.5,-0.5 401.5,-19.5 522.5,-19.5 522.5,-0.5 401.5,-0.5"/>
<text text-anchor="middle" x="462" y="-7.5" font-family="Helvetica,sans-Serif" font-size="10.00">JoyDPad::getJoyButton</text>
</a>
</g>
</g>
<!-- Node13&#45;&gt;Node15 -->
<g id="edge17" class="edge">
<title>Node13&#45;&gt;Node15</title>
<path fill="none" stroke="midnightblue" d="M328.16,-127.83C333.18,-125.08 337.89,-121.83 342,-118 373.22,-88.91 345.52,-56.67 378,-29 382.22,-25.4 386.98,-22.45 392.04,-20.04"/>
<polygon fill="midnightblue" stroke="midnightblue" points="393.46,-23.24 401.41,-16.24 390.83,-16.75 393.46,-23.24"/>
</g>
<!-- Node16 -->
<g id="node16" class="node">
<title>Node16</title>
<g id="a_node16"><a xlink:href="classJoyButtonSlot.html#a7fa0bf6d891437a2392e47d32b746502" target="_top" xlink:title=" ">
<polygon fill="white" stroke="black" points="393,-190.5 393,-209.5 531,-209.5 531,-190.5 393,-190.5"/>
<text text-anchor="middle" x="462" y="-197.5" font-family="Helvetica,sans-Serif" font-size="10.00">JoyButtonSlot::getSlotCode</text>
</a>
</g>
</g>
<!-- Node13&#45;&gt;Node16 -->
<g id="edge18" class="edge">
<title>Node13&#45;&gt;Node16</title>
<path fill="none" stroke="midnightblue" d="M306.55,-158.07C327.77,-165.49 354.09,-174.26 378,-181 386.88,-183.5 396.37,-185.92 405.63,-188.13"/>
<polygon fill="midnightblue" stroke="midnightblue" points="405.03,-191.59 415.56,-190.46 406.62,-184.77 405.03,-191.59"/>
</g>
<!-- Node17 -->
<g id="node17" class="node">
<title>Node17</title>
<g id="a_node17"><a xlink:href="classJoyButtonSlot.html#abed7fe134c404b403ea79c0753f6eaaf" target="_top" xlink:title=" ">
<polygon fill="white" stroke="black" points="392.5,-152.5 392.5,-171.5 531.5,-171.5 531.5,-152.5 392.5,-152.5"/>
<text text-anchor="middle" x="462" y="-159.5" font-family="Helvetica,sans-Serif" font-size="10.00">JoyButtonSlot::getSlotMode</text>
</a>
</g>
</g>
<!-- Node13&#45;&gt;Node17 -->
<g id="edge19" class="edge">
<title>Node13&#45;&gt;Node17</title>
<path fill="none" stroke="midnightblue" d="M338.26,-150.1C352.66,-151.5 367.82,-152.97 382.39,-154.38"/>
<polygon fill="midnightblue" stroke="midnightblue" points="382.07,-157.87 392.37,-155.35 382.75,-150.9 382.07,-157.87"/>
</g>
<!-- Node18 -->
<g id="node18" class="node">
<title>Node18</title>
<g id="a_node18"><a xlink:href="classAntKeyMapper.html#a07957c1e2baac6c4266678d89dc7c3a6" target="_top" xlink:title=" ">
<polygon fill="white" stroke="black" points="384,-76.5 384,-95.5 540,-95.5 540,-76.5 384,-76.5"/>
<text text-anchor="middle" x="462" y="-83.5" font-family="Helvetica,sans-Serif" font-size="10.00">AntKeyMapper::returnVirtualKey</text>
</a>
</g>
</g>
<!-- Node13&#45;&gt;Node18 -->
<g id="edge20" class="edge">
<title>Node13&#45;&gt;Node18</title>
<path fill="none" stroke="midnightblue" d="M316.46,-127.94C335.76,-122.3 357.88,-115.85 378,-110 390.96,-106.23 405.06,-102.15 417.9,-98.44"/>
<polygon fill="midnightblue" stroke="midnightblue" points="419.24,-101.7 427.88,-95.56 417.3,-94.97 419.24,-101.7"/>
</g>
<!-- Node19 -->
<g id="node19" class="node">
<title>Node19</title>
<g id="a_node19"><a xlink:href="classQtKeyMapperBase.html#a5df0f313bce11847f8495126373e7178" target="_top" xlink:title=" ">
<polygon fill="white" stroke="black" points="582,-76.5 582,-95.5 756,-95.5 756,-76.5 582,-76.5"/>
<text text-anchor="middle" x="669" y="-83.5" font-family="Helvetica,sans-Serif" font-size="10.00">QtKeyMapperBase::returnVirtualKey</text>
</a>
</g>
</g>
<!-- Node18&#45;&gt;Node19 -->
<g id="edge21" class="edge">
<title>Node18&#45;&gt;Node19</title>
<path fill="none" stroke="midnightblue" d="M540.21,-86C550.53,-86 561.22,-86 571.81,-86"/>
<polygon fill="midnightblue" stroke="midnightblue" points="571.93,-89.5 581.93,-86 571.93,-82.5 571.93,-89.5"/>
</g>
</g>
</svg>
