<?xml version="1.0" encoding="UTF-8" standalone="no"?>
<!DOCTYPE svg PUBLIC "-//W3C//DTD SVG 1.1//EN"
 "http://www.w3.org/Graphics/SVG/1.1/DTD/svg11.dtd">
<!-- Generated by graphviz version 2.43.0 (0)
 -->
<!-- Title: MouseAxisSettingsDialog::calculateMaxAccelerationThreshold Pages: 1 -->
<svg width="388pt" height="104pt"
 viewBox="0.00 0.00 388.00 104.00" xmlns="http://www.w3.org/2000/svg" xmlns:xlink="http://www.w3.org/1999/xlink">
<g id="graph0" class="graph" transform="scale(1 1) rotate(0) translate(4 100)">
<title>MouseAxisSettingsDialog::calculateMaxAccelerationThreshold</title>
<polygon fill="white" stroke="transparent" points="-4,4 -4,-100 384,-100 384,4 -4,4"/>
<!-- Node1 -->
<g id="node1" class="node">
<title>Node1</title>
<g id="a_node1"><a xlink:title=" ">
<polygon fill="#bfbfbf" stroke="black" points="0,-33 0,-63 177,-63 177,-33 0,-33"/>
<text text-anchor="start" x="8" y="-51" font-family="Helvetica,sans-Serif" font-size="10.00">MouseAxisSettingsDialog</text>
<text text-anchor="middle" x="88.5" y="-40" font-family="Helvetica,sans-Serif" font-size="10.00">::calculateMaxAccelerationThreshold</text>
</a>
</g>
</g>
<!-- Node2 -->
<g id="node2" class="node">
<title>Node2</title>
<g id="a_node2"><a xlink:href="classJoyButton.html#a421e623fa5b3c324c95c28c34d6a485c" target="_top" xlink:title=" ">
<polygon fill="white" stroke="black" points="213,-76.5 213,-95.5 380,-95.5 380,-76.5 213,-76.5"/>
<text text-anchor="middle" x="296.5" y="-83.5" font-family="Helvetica,sans-Serif" font-size="10.00">JoyButton::getMaxAccelThreshold</text>
</a>
</g>
</g>
<!-- Node1&#45;&gt;Node2 -->
<g id="edge1" class="edge">
<title>Node1&#45;&gt;Node2</title>
<path fill="none" stroke="midnightblue" d="M170.92,-63.02C191.89,-66.89 214.11,-70.99 233.89,-74.64"/>
<polygon fill="midnightblue" stroke="midnightblue" points="233.53,-78.13 243.99,-76.5 234.8,-71.24 233.53,-78.13"/>
</g>
<!-- Node3 -->
<g id="node3" class="node">
<title>Node3</title>
<g id="a_node3"><a xlink:href="classJoyAxis.html#aae658e2a7b83ce73ce3d7d1ed13eabc6" target="_top" xlink:title=" ">
<polygon fill="white" stroke="black" points="233.5,-38.5 233.5,-57.5 359.5,-57.5 359.5,-38.5 233.5,-38.5"/>
<text text-anchor="middle" x="296.5" y="-45.5" font-family="Helvetica,sans-Serif" font-size="10.00">JoyAxis::getNAxisButton</text>
</a>
</g>
</g>
<!-- Node1&#45;&gt;Node3 -->
<g id="edge2" class="edge">
<title>Node1&#45;&gt;Node3</title>
<path fill="none" stroke="midnightblue" d="M177.16,-48C192.55,-48 208.41,-48 223.32,-48"/>
<polygon fill="midnightblue" stroke="midnightblue" points="223.48,-51.5 233.48,-48 223.48,-44.5 223.48,-51.5"/>
</g>
<!-- Node4 -->
<g id="node4" class="node">
<title>Node4</title>
<g id="a_node4"><a xlink:href="classJoyAxis.html#ad51d55d2a95190468209f7481eae8639" target="_top" xlink:title=" ">
<polygon fill="white" stroke="black" points="234,-0.5 234,-19.5 359,-19.5 359,-0.5 234,-0.5"/>
<text text-anchor="middle" x="296.5" y="-7.5" font-family="Helvetica,sans-Serif" font-size="10.00">JoyAxis::getPAxisButton</text>
</a>
</g>
</g>
<!-- Node1&#45;&gt;Node4 -->
<g id="edge3" class="edge">
<title>Node1&#45;&gt;Node4</title>
<path fill="none" stroke="midnightblue" d="M170.92,-32.98C191.89,-29.11 214.11,-25.01 233.89,-21.36"/>
<polygon fill="midnightblue" stroke="midnightblue" points="234.8,-24.76 243.99,-19.5 233.53,-17.87 234.8,-24.76"/>
</g>
</g>
</svg>
