<?xml version="1.0" encoding="UTF-8" standalone="no"?>
<!DOCTYPE svg PUBLIC "-//W3C//DTD SVG 1.1//EN"
 "http://www.w3.org/Graphics/SVG/1.1/DTD/svg11.dtd">
<!-- Generated by graphviz version 2.43.0 (0)
 -->
<!-- Title: InputDaemon::addInputDevice Pages: 1 -->
<!--zoomable 292 -->
<svg id="main" version="1.1" xmlns="http://www.w3.org/2000/svg" xmlns:xlink="http://www.w3.org/1999/xlink" xml:space="preserve" onload="init(evt)">
<style type="text/css"><![CDATA[
.edge:hover path { stroke: red; }
.edge:hover polygon { stroke: red; fill: red; }
]]></style>
<script type="text/javascript"><![CDATA[
var edges = document.getElementsByTagName('g');
if (edges && edges.length) {
  for (var i=0;i<edges.length;i++) {
    if (edges[i].id.substr(0,4)=='edge') {
      edges[i].setAttribute('class','edge');
    }
  }
}
]]></script>
        <defs>
                <circle id="rim" cx="0" cy="0" r="7"/>
                <circle id="rim2" cx="0" cy="0" r="3.5"/>
                <g id="zoomPlus">
                        <use xlink:href="#rim" fill="#404040">
                                <set attributeName="fill" to="#808080" begin="zoomplus.mouseover" end="zoomplus.mouseout"/>
                        </use>
                        <path d="M-4,0h8M0,-4v8" fill="none" stroke="white" stroke-width="1.5" pointer-events="none"/>
                </g>
                <g id="zoomMin">
                        <use xlink:href="#rim" fill="#404040">
                                <set attributeName="fill" to="#808080" begin="zoomminus.mouseover" end="zoomminus.mouseout"/>
                        </use>
                        <path d="M-4,0h8" fill="none" stroke="white" stroke-width="1.5" pointer-events="none"/>
                </g>
                <g id="dirArrow">
                        <path fill="none" stroke="white" stroke-width="1.5" d="M0,-3.0v7 M-2.5,-0.5L0,-3.0L2.5,-0.5"/>
                </g>
               <g id="resetDef">
                       <use xlink:href="#rim2" fill="#404040">
                               <set attributeName="fill" to="#808080" begin="reset.mouseover" end="reset.mouseout"/>
                       </use>
               </g>
        </defs>

<script type="text/javascript">
var viewWidth = 553;
var viewHeight = 292;
var sectionId = 'dynsection-4';
</script>
<script xlink:href="svgpan.js"/>
<svg id="graph" class="graph">
<g id="viewport">
<title>InputDaemon::addInputDevice</title>
<polygon fill="white" stroke="transparent" points="-4,4 -4,-288 549,-288 549,4 -4,4"/>
<!-- Node1 -->
<g id="node1" class="node">
<title>Node1</title>
<g id="a_node1"><a xlink:title=" ">
<polygon fill="#bfbfbf" stroke="black" points="0,-149 0,-168 149,-168 149,-149 0,-149"/>
<text text-anchor="middle" x="74.5" y="-156" font-family="Helvetica,sans-Serif" font-size="10.00">InputDaemon::addInputDevice</text>
</a>
</g>
</g>
<!-- Node2 -->
<g id="node2" class="node">
<title>Node2</title>
<g id="a_node2"><a xlink:href="classInputDaemon.html#a1518b0defd68ae40f18735f22cbe717e" target="_top" xlink:title=" ">
<polygon fill="white" stroke="black" points="185,-253.5 185,-283.5 340,-283.5 340,-253.5 185,-253.5"/>
<text text-anchor="start" x="193" y="-271.5" font-family="Helvetica,sans-Serif" font-size="10.00">InputDaemon::convertMappings</text>
<text text-anchor="middle" x="262.5" y="-260.5" font-family="Helvetica,sans-Serif" font-size="10.00">ToUnique</text>
</a>
</g>
</g>
<!-- Node1&#45;&gt;Node2 -->
<g id="edge1" class="edge">
<title>Node1&#45;&gt;Node2</title>
<path fill="none" stroke="midnightblue" d="M85.53,-168.26C103.86,-185.62 144.61,-222.06 185,-243.5 189.18,-245.72 193.59,-247.78 198.09,-249.7"/>
<polygon fill="midnightblue" stroke="midnightblue" points="196.86,-252.98 207.44,-253.44 199.45,-246.48 196.86,-252.98"/>
</g>
<!-- Node3 -->
<g id="node3" class="node">
<title>Node3</title>
<g id="a_node3"><a xlink:href="classInputDaemon.html#a3ef328c9a60fe354fda90eb396c8f31b" target="_top" xlink:title=" ">
<polygon fill="white" stroke="black" points="199.5,-215 199.5,-234 325.5,-234 325.5,-215 199.5,-215"/>
<text text-anchor="middle" x="262.5" y="-222" font-family="Helvetica,sans-Serif" font-size="10.00">InputDaemon::getJoyInfo</text>
</a>
</g>
</g>
<!-- Node1&#45;&gt;Node3 -->
<g id="edge2" class="edge">
<title>Node1&#45;&gt;Node3</title>
<path fill="none" stroke="midnightblue" d="M95.3,-168.16C116.95,-178.44 152.84,-194.68 185,-205.5 192.39,-207.98 200.27,-210.3 208.07,-212.41"/>
<polygon fill="midnightblue" stroke="midnightblue" points="207.3,-215.82 217.86,-214.96 209.06,-209.05 207.3,-215.82"/>
</g>
<!-- Node4 -->
<g id="node4" class="node">
<title>Node4</title>
<g id="a_node4"><a xlink:href="classAntiMicroSettings.html#a4f172ffefe55eeba5afff3d54182f881" target="_top" xlink:title=" ">
<polygon fill="white" stroke="black" points="212.5,-165.5 212.5,-195.5 312.5,-195.5 312.5,-165.5 212.5,-165.5"/>
<text text-anchor="start" x="220.5" y="-183.5" font-family="Helvetica,sans-Serif" font-size="10.00">AntiMicroSettings::</text>
<text text-anchor="middle" x="262.5" y="-172.5" font-family="Helvetica,sans-Serif" font-size="10.00">getLock</text>
</a>
</g>
</g>
<!-- Node1&#45;&gt;Node4 -->
<g id="edge3" class="edge">
<title>Node1&#45;&gt;Node4</title>
<path fill="none" stroke="midnightblue" d="M149.01,-167.19C166.59,-169.27 185.13,-171.47 201.99,-173.46"/>
<polygon fill="midnightblue" stroke="midnightblue" points="201.9,-176.97 212.24,-174.67 202.72,-170.02 201.9,-176.97"/>
</g>
<!-- Node5 -->
<g id="node5" class="node">
<title>Node5</title>
<g id="a_node5"><a xlink:href="classInputDaemon.html#a80e732bfe962966009eecb2156575af1" target="_top" xlink:title=" ">
<polygon fill="white" stroke="black" points="382.5,-110.5 382.5,-140.5 538.5,-140.5 538.5,-110.5 382.5,-110.5"/>
<text text-anchor="start" x="390.5" y="-128.5" font-family="Helvetica,sans-Serif" font-size="10.00">InputDaemon::getTrackjoysticks</text>
<text text-anchor="middle" x="460.5" y="-117.5" font-family="Helvetica,sans-Serif" font-size="10.00">Local</text>
</a>
</g>
</g>
<!-- Node1&#45;&gt;Node5 -->
<g id="edge4" class="edge">
<title>Node1&#45;&gt;Node5</title>
<path fill="none" stroke="midnightblue" d="M149.08,-152.18C212.68,-146.71 304.7,-138.8 372.04,-133.02"/>
<polygon fill="midnightblue" stroke="midnightblue" points="372.55,-136.49 382.21,-132.14 371.95,-129.51 372.55,-136.49"/>
</g>
<!-- Node6 -->
<g id="node6" class="node">
<title>Node6</title>
<g id="a_node6"><a xlink:href="classSDLEventReader.html#a1c33e74e1c8363dc7e839c7f3a98a25a" target="_top" xlink:title="Method to block activity on the SDLEventReader object and its thread event loop.">
<polygon fill="white" stroke="black" points="186.5,-39 186.5,-58 338.5,-58 338.5,-39 186.5,-39"/>
<text text-anchor="middle" x="262.5" y="-46" font-family="Helvetica,sans-Serif" font-size="10.00">SDLEventReader::haltServices</text>
</a>
</g>
</g>
<!-- Node1&#45;&gt;Node6 -->
<g id="edge5" class="edge">
<title>Node1&#45;&gt;Node6</title>
<path fill="none" stroke="midnightblue" d="M84.44,-148.75C101.94,-130.28 142.7,-90.09 185,-68.5 190.54,-65.67 196.51,-63.22 202.59,-61.1"/>
<polygon fill="midnightblue" stroke="midnightblue" points="203.72,-64.41 212.18,-58.03 201.59,-57.75 203.72,-64.41"/>
</g>
<!-- Node9 -->
<g id="node9" class="node">
<title>Node9</title>
<g id="a_node9"><a xlink:href="classInputDaemon.html#a2479784aa7e332c900a20b3e661260eb" target="_top" xlink:title=" ">
<polygon fill="white" stroke="black" points="194,-77.5 194,-107.5 331,-107.5 331,-77.5 194,-77.5"/>
<text text-anchor="start" x="202" y="-95.5" font-family="Helvetica,sans-Serif" font-size="10.00">InputDaemon::openJoystick</text>
<text text-anchor="middle" x="262.5" y="-84.5" font-family="Helvetica,sans-Serif" font-size="10.00">Device</text>
</a>
</g>
</g>
<!-- Node1&#45;&gt;Node9 -->
<g id="edge8" class="edge">
<title>Node1&#45;&gt;Node9</title>
<path fill="none" stroke="midnightblue" d="M102.55,-148.9C130.45,-139 174.68,-123.31 209.4,-110.99"/>
<polygon fill="midnightblue" stroke="midnightblue" points="210.67,-114.25 218.93,-107.61 208.33,-107.65 210.67,-114.25"/>
</g>
<!-- Node7 -->
<g id="node7" class="node">
<title>Node7</title>
<g id="a_node7"><a xlink:href="namespacePadderCommon.html#a354573bde6a47232b838ceccca533b02" target="_top" xlink:title=" ">
<polygon fill="white" stroke="black" points="376,-50 376,-69 545,-69 545,-50 376,-50"/>
<text text-anchor="middle" x="460.5" y="-57" font-family="Helvetica,sans-Serif" font-size="10.00">PadderCommon::lockInputDevices</text>
</a>
</g>
</g>
<!-- Node6&#45;&gt;Node7 -->
<g id="edge6" class="edge">
<title>Node6&#45;&gt;Node7</title>
<path fill="none" stroke="midnightblue" d="M338.72,-52.72C347.58,-53.22 356.71,-53.73 365.79,-54.24"/>
<polygon fill="midnightblue" stroke="midnightblue" points="365.82,-57.75 376,-54.81 366.21,-50.76 365.82,-57.75"/>
</g>
<!-- Node8 -->
<g id="node8" class="node">
<title>Node8</title>
<g id="a_node8"><a xlink:href="namespacePadderCommon.html#a5de97eeb52ef44a36a1caba613b7a343" target="_top" xlink:title=" ">
<polygon fill="white" stroke="black" points="389,-0.5 389,-30.5 532,-30.5 532,-0.5 389,-0.5"/>
<text text-anchor="start" x="397" y="-18.5" font-family="Helvetica,sans-Serif" font-size="10.00">PadderCommon::unlockInput</text>
<text text-anchor="middle" x="460.5" y="-7.5" font-family="Helvetica,sans-Serif" font-size="10.00">Devices</text>
</a>
</g>
</g>
<!-- Node6&#45;&gt;Node8 -->
<g id="edge7" class="edge">
<title>Node6&#45;&gt;Node8</title>
<path fill="none" stroke="midnightblue" d="M319.93,-39C338.31,-35.9 359.09,-32.41 378.89,-29.07"/>
<polygon fill="midnightblue" stroke="midnightblue" points="379.54,-32.51 388.82,-27.4 378.38,-25.61 379.54,-32.51"/>
</g>
<!-- Node9&#45;&gt;Node5 -->
<g id="edge9" class="edge">
<title>Node9&#45;&gt;Node5</title>
<path fill="none" stroke="midnightblue" d="M331.23,-103.9C344.49,-106.14 358.58,-108.51 372.38,-110.83"/>
<polygon fill="midnightblue" stroke="midnightblue" points="371.91,-114.3 382.36,-112.51 373.08,-107.4 371.91,-114.3"/>
</g>
</g>
</svg>
        <g id="navigator" transform="translate(0 0)" fill="#404254">
                <rect fill="#f2f5e9" fill-opacity="0.5" stroke="#606060" stroke-width=".5" x="0" y="0" width="60" height="60"/>
                <use id="zoomplus" xlink:href="#zoomPlus" x="17" y="9" onmousedown="handleZoom(evt,'in')"/>
                <use id="zoomminus" xlink:href="#zoomMin" x="42" y="9" onmousedown="handleZoom(evt,'out')"/>
                <use id="reset" xlink:href="#resetDef" x="30" y="36" onmousedown="handleReset()"/>
                <g id="arrowUp" xlink:href="#dirArrow" transform="translate(30 24)" onmousedown="handlePan(0,-1)">
                  <use xlink:href="#rim" fill="#404040">
                        <set attributeName="fill" to="#808080" begin="arrowUp.mouseover" end="arrowUp.mouseout"/>
                  </use>
                  <path fill="none" stroke="white" stroke-width="1.5" d="M0,-3.0v7 M-2.5,-0.5L0,-3.0L2.5,-0.5"/>
                </g>
                <g id="arrowRight" xlink:href="#dirArrow" transform="rotate(90) translate(36 -43)" onmousedown="handlePan(1,0)">
                  <use xlink:href="#rim" fill="#404040">
                        <set attributeName="fill" to="#808080" begin="arrowRight.mouseover" end="arrowRight.mouseout"/>
                  </use>
                  <path fill="none" stroke="white" stroke-width="1.5" d="M0,-3.0v7 M-2.5,-0.5L0,-3.0L2.5,-0.5"/>
                </g>
                <g id="arrowDown" xlink:href="#dirArrow" transform="rotate(180) translate(-30 -48)" onmousedown="handlePan(0,1)">
                  <use xlink:href="#rim" fill="#404040">
                        <set attributeName="fill" to="#808080" begin="arrowDown.mouseover" end="arrowDown.mouseout"/>
                  </use>
                  <path fill="none" stroke="white" stroke-width="1.5" d="M0,-3.0v7 M-2.5,-0.5L0,-3.0L2.5,-0.5"/>
                </g>
                <g id="arrowLeft" xlink:href="#dirArrow" transform="rotate(270) translate(-36 17)" onmousedown="handlePan(-1,0)">
                  <use xlink:href="#rim" fill="#404040">
                        <set attributeName="fill" to="#808080" begin="arrowLeft.mouseover" end="arrowLeft.mouseout"/>
                  </use>
                  <path fill="none" stroke="white" stroke-width="1.5" d="M0,-3.0v7 M-2.5,-0.5L0,-3.0L2.5,-0.5"/>
                </g>
        </g>
        <svg viewBox="0 0 15 15" width="100%" height="30px" preserveAspectRatio="xMaxYMin meet">
         <g id="arrow_out" transform="scale(0.3 0.3)">
          <a xlink:href="classInputDaemon_a5dceec80700a55f0e82e35d44d6d171a_cgraph_org.svg" target="_base">
           <rect id="button" ry="5" rx="5" y="6" x="6" height="38" width="38"
                fill="#f2f5e9" fill-opacity="0.5" stroke="#606060" stroke-width="1.0"/>
           <path id="arrow"
             d="M 11.500037,31.436501 C 11.940474,20.09759 22.043105,11.32322 32.158766,21.979434 L 37.068811,17.246167 C 37.068811,17.246167 37.088388,32 37.088388,32 L 22.160133,31.978069 C 22.160133,31.978069 26.997745,27.140456 26.997745,27.140456 C 18.528582,18.264221 13.291696,25.230495 11.500037,31.436501 z"
             style="fill:#404040;"/>
          </a>
         </g>
        </svg>
</svg>
