<?xml version="1.0" encoding="UTF-8" standalone="no"?>
<!DOCTYPE svg PUBLIC "-//W3C//DTD SVG 1.1//EN"
 "http://www.w3.org/Graphics/SVG/1.1/DTD/svg11.dtd">
<!-- Generated by graphviz version 2.43.0 (0)
 -->
<!-- Title: ButtonEditDialog::getInstance Pages: 1 -->
<!--zoomable 262 -->
<svg id="main" version="1.1" xmlns="http://www.w3.org/2000/svg" xmlns:xlink="http://www.w3.org/1999/xlink" xml:space="preserve" onload="init(evt)">
<style type="text/css"><![CDATA[
.edge:hover path { stroke: red; }
.edge:hover polygon { stroke: red; fill: red; }
]]></style>
<script type="text/javascript"><![CDATA[
var edges = document.getElementsByTagName('g');
if (edges && edges.length) {
  for (var i=0;i<edges.length;i++) {
    if (edges[i].id.substr(0,4)=='edge') {
      edges[i].setAttribute('class','edge');
    }
  }
}
]]></script>
        <defs>
                <circle id="rim" cx="0" cy="0" r="7"/>
                <circle id="rim2" cx="0" cy="0" r="3.5"/>
                <g id="zoomPlus">
                        <use xlink:href="#rim" fill="#404040">
                                <set attributeName="fill" to="#808080" begin="zoomplus.mouseover" end="zoomplus.mouseout"/>
                        </use>
                        <path d="M-4,0h8M0,-4v8" fill="none" stroke="white" stroke-width="1.5" pointer-events="none"/>
                </g>
                <g id="zoomMin">
                        <use xlink:href="#rim" fill="#404040">
                                <set attributeName="fill" to="#808080" begin="zoomminus.mouseover" end="zoomminus.mouseout"/>
                        </use>
                        <path d="M-4,0h8" fill="none" stroke="white" stroke-width="1.5" pointer-events="none"/>
                </g>
                <g id="dirArrow">
                        <path fill="none" stroke="white" stroke-width="1.5" d="M0,-3.0v7 M-2.5,-0.5L0,-3.0L2.5,-0.5"/>
                </g>
               <g id="resetDef">
                       <use xlink:href="#rim2" fill="#404040">
                               <set attributeName="fill" to="#808080" begin="reset.mouseover" end="reset.mouseout"/>
                       </use>
               </g>
        </defs>

<script type="text/javascript">
var viewWidth = 1314;
var viewHeight = 262;
var sectionId = 'dynsection-17';
</script>
<script xlink:href="svgpan.js"/>
<svg id="graph" class="graph">
<g id="viewport">
<title>ButtonEditDialog::getInstance</title>
<polygon fill="white" stroke="transparent" points="-4,4 -4,-257.5 1310,-257.5 1310,4 -4,4"/>
<!-- Node1 -->
<g id="node1" class="node">
<title>Node1</title>
<g id="a_node1"><a xlink:title=" ">
<polygon fill="#bfbfbf" stroke="black" points="1159,-115 1159,-134 1306,-134 1306,-115 1159,-115"/>
<text text-anchor="middle" x="1232.5" y="-122" font-family="Helvetica,sans-Serif" font-size="10.00">ButtonEditDialog::getInstance</text>
</a>
</g>
</g>
<!-- Node2 -->
<g id="node2" class="node">
<title>Node2</title>
<g id="a_node2"><a xlink:href="classVirtualKeyboardMouseWidget.html#a1fbcd1c7493e1bcc9a573ec84aa4249e" target="_top" xlink:title=" ">
<polygon fill="white" stroke="black" points="977,-219.5 977,-249.5 1123,-249.5 1123,-219.5 977,-219.5"/>
<text text-anchor="start" x="985" y="-237.5" font-family="Helvetica,sans-Serif" font-size="10.00">VirtualKeyboardMouseWidget</text>
<text text-anchor="middle" x="1050" y="-226.5" font-family="Helvetica,sans-Serif" font-size="10.00">::clearButtonSlots</text>
</a>
</g>
</g>
<!-- Node1&#45;&gt;Node2 -->
<g id="edge1" class="edge">
<title>Node1&#45;&gt;Node2</title>
<path fill="none" stroke="midnightblue" d="M1212.61,-140.63C1191.69,-157.96 1156.47,-185.55 1123,-204.5 1113.34,-209.97 1102.48,-215.01 1092.18,-219.34"/>
<polygon fill="midnightblue" stroke="midnightblue" points="1214.99,-143.21 1220.4,-134.1 1210.49,-137.84 1214.99,-143.21"/>
</g>
<!-- Node5 -->
<g id="node5" class="node">
<title>Node5</title>
<g id="a_node5"><a xlink:href="classVirtualKeyboardMouseWidget.html#addcbab028c0d9cc38ecaf0396585a162" target="_top" xlink:title=" ">
<polygon fill="white" stroke="black" points="594,-49.5 594,-79.5 740,-79.5 740,-49.5 594,-49.5"/>
<text text-anchor="start" x="602" y="-67.5" font-family="Helvetica,sans-Serif" font-size="10.00">VirtualKeyboardMouseWidget</text>
<text text-anchor="middle" x="667" y="-56.5" font-family="Helvetica,sans-Serif" font-size="10.00">::clearButtonSlotsFinish</text>
</a>
</g>
</g>
<!-- Node1&#45;&gt;Node5 -->
<g id="edge4" class="edge">
<title>Node1&#45;&gt;Node5</title>
<path fill="none" stroke="midnightblue" d="M1148.91,-115.71C1038.61,-103.96 845,-83.35 740.24,-72.19"/>
<polygon fill="midnightblue" stroke="midnightblue" points="1148.67,-119.2 1158.99,-116.78 1149.41,-112.24 1148.67,-119.2"/>
</g>
<!-- Node9 -->
<g id="node9" class="node">
<title>Node9</title>
<g id="a_node9"><a xlink:href="classVirtualKeyboardMouseWidget.html#a379b1e56c40759f5efbb912692779997" target="_top" xlink:title=" ">
<polygon fill="white" stroke="black" points="977,-131.5 977,-161.5 1123,-161.5 1123,-131.5 977,-131.5"/>
<text text-anchor="start" x="985" y="-149.5" font-family="Helvetica,sans-Serif" font-size="10.00">VirtualKeyboardMouseWidget</text>
<text text-anchor="middle" x="1050" y="-138.5" font-family="Helvetica,sans-Serif" font-size="10.00">::nullifyDialogPointer</text>
</a>
</g>
</g>
<!-- Node1&#45;&gt;Node9 -->
<g id="edge9" class="edge">
<title>Node1&#45;&gt;Node9</title>
<path fill="none" stroke="midnightblue" d="M1148.87,-134.57C1140.3,-135.62 1131.64,-136.67 1123.19,-137.7"/>
<polygon fill="midnightblue" stroke="midnightblue" points="1149.36,-138.04 1158.86,-133.35 1148.51,-131.09 1149.36,-138.04"/>
</g>
<!-- Node10 -->
<g id="node10" class="node">
<title>Node10</title>
<g id="a_node10"><a xlink:href="classVirtualKeyboardMouseWidget.html#ae1533c129fa9bf28b976c09eb9dd1420" target="_top" xlink:title=" ">
<polygon fill="white" stroke="black" points="776,-109.5 776,-139.5 941,-139.5 941,-109.5 776,-109.5"/>
<text text-anchor="start" x="784" y="-127.5" font-family="Helvetica,sans-Serif" font-size="10.00">VirtualKeyboardMouseWidget</text>
<text text-anchor="middle" x="858.5" y="-116.5" font-family="Helvetica,sans-Serif" font-size="10.00">::processSingleKeyboardSelection</text>
</a>
</g>
</g>
<!-- Node1&#45;&gt;Node10 -->
<g id="edge20" class="edge">
<title>Node1&#45;&gt;Node10</title>
<path fill="none" stroke="midnightblue" d="M1148.69,-122.82C1140.01,-122.69 1131.33,-122.58 1123,-122.5 1058.11,-121.9 1041.89,-121.95 977,-122.5 965.37,-122.6 953.1,-122.75 941.04,-122.93"/>
<polygon fill="midnightblue" stroke="midnightblue" points="1148.79,-126.32 1158.84,-122.98 1148.9,-119.32 1148.79,-126.32"/>
</g>
<!-- Node12 -->
<g id="node12" class="node">
<title>Node12</title>
<g id="a_node12"><a xlink:href="classVirtualKeyboardMouseWidget.html#ae535d1ab2f639bb93110c6081dce1731" target="_top" xlink:title=" ">
<polygon fill="white" stroke="black" points="781.5,-175.5 781.5,-205.5 935.5,-205.5 935.5,-175.5 781.5,-175.5"/>
<text text-anchor="start" x="789.5" y="-193.5" font-family="Helvetica,sans-Serif" font-size="10.00">VirtualKeyboardMouseWidget</text>
<text text-anchor="middle" x="858.5" y="-182.5" font-family="Helvetica,sans-Serif" font-size="10.00">::processSingleMouseSelection</text>
</a>
</g>
</g>
<!-- Node1&#45;&gt;Node12 -->
<g id="edge21" class="edge">
<title>Node1&#45;&gt;Node12</title>
<path fill="none" stroke="midnightblue" d="M1205.36,-138.8C1183.91,-149.8 1152.39,-164.3 1123,-171.5 1061.08,-186.68 988.72,-190.97 935.51,-191.73"/>
<polygon fill="midnightblue" stroke="midnightblue" points="1207.23,-141.78 1214.47,-134.04 1203.99,-135.58 1207.23,-141.78"/>
</g>
<!-- Node14 -->
<g id="node14" class="node">
<title>Node14</title>
<g id="a_node14"><a xlink:href="classVirtualKeyboardMouseWidget.html#a8a836861921229a265e5bb30b62e90a1" target="_top" xlink:title=" ">
<polygon fill="white" stroke="black" points="594,-0.5 594,-30.5 740,-30.5 740,-0.5 594,-0.5"/>
<text text-anchor="start" x="602" y="-18.5" font-family="Helvetica,sans-Serif" font-size="10.00">VirtualKeyboardMouseWidget</text>
<text text-anchor="middle" x="667" y="-7.5" font-family="Helvetica,sans-Serif" font-size="10.00">::openMouseSettingsDialog</text>
</a>
</g>
</g>
<!-- Node1&#45;&gt;Node14 -->
<g id="edge18" class="edge">
<title>Node1&#45;&gt;Node14</title>
<path fill="none" stroke="midnightblue" d="M1191.74,-112.02C1171.33,-105.9 1145.98,-98.74 1123,-93.5 988.99,-62.96 830.33,-38.33 740.19,-25.4"/>
<polygon fill="midnightblue" stroke="midnightblue" points="1190.74,-115.37 1201.33,-114.93 1192.77,-108.68 1190.74,-115.37"/>
</g>
<!-- Node3 -->
<g id="node3" class="node">
<title>Node3</title>
<g id="a_node3"><a xlink:href="classVirtualKeyboardMouseWidget.html#aec7fadb5f607a6410093d9fe296c3f9f" target="_top" xlink:title=" ">
<polygon fill="white" stroke="black" points="371,-212 371,-253 544,-253 544,-212 371,-212"/>
<text text-anchor="start" x="379" y="-241" font-family="Helvetica,sans-Serif" font-size="10.00">VirtualKeyboardMouseWidget</text>
<text text-anchor="start" x="379" y="-230" font-family="Helvetica,sans-Serif" font-size="10.00">::establishVirtualKeyboardAdvanced</text>
<text text-anchor="middle" x="457.5" y="-219" font-family="Helvetica,sans-Serif" font-size="10.00">SignalConnections</text>
</a>
</g>
</g>
<!-- Node2&#45;&gt;Node3 -->
<g id="edge2" class="edge">
<title>Node2&#45;&gt;Node3</title>
<path fill="none" stroke="midnightblue" d="M966.71,-234.22C855.22,-233.84 657.16,-233.17 544.03,-232.79"/>
<polygon fill="midnightblue" stroke="midnightblue" points="966.88,-237.72 976.89,-234.26 966.9,-230.72 966.88,-237.72"/>
</g>
<!-- Node4 -->
<g id="node4" class="node">
<title>Node4</title>
<g id="a_node4"><a xlink:href="classButtonEditDialog.html#a3e9feede100cbb6a11c9d87659c196ea" target="_top" xlink:title=" ">
<polygon fill="white" stroke="black" points="0,-182.5 0,-212.5 125,-212.5 125,-182.5 0,-182.5"/>
<text text-anchor="start" x="8" y="-200.5" font-family="Helvetica,sans-Serif" font-size="10.00">ButtonEditDialog::Button</text>
<text text-anchor="middle" x="62.5" y="-189.5" font-family="Helvetica,sans-Serif" font-size="10.00">EditDialog</text>
</a>
</g>
</g>
<!-- Node3&#45;&gt;Node4 -->
<g id="edge3" class="edge">
<title>Node3&#45;&gt;Node4</title>
<path fill="none" stroke="midnightblue" d="M360.56,-223.96C287.15,-217.42 188.12,-208.6 125.02,-202.98"/>
<polygon fill="midnightblue" stroke="midnightblue" points="360.47,-227.46 370.74,-224.86 361.09,-220.49 360.47,-227.46"/>
</g>
<!-- Node6 -->
<g id="node6" class="node">
<title>Node6</title>
<g id="a_node6"><a xlink:href="classVirtualKeyboardMouseWidget.html#a4d88483823d27bf1ba22c334d2407595" target="_top" xlink:title=" ">
<polygon fill="white" stroke="black" points="378.5,-90 378.5,-131 536.5,-131 536.5,-90 378.5,-90"/>
<text text-anchor="start" x="386.5" y="-119" font-family="Helvetica,sans-Serif" font-size="10.00">VirtualKeyboardMouseWidget</text>
<text text-anchor="start" x="386.5" y="-108" font-family="Helvetica,sans-Serif" font-size="10.00">::establishVirtualKeyboardSingle</text>
<text text-anchor="middle" x="457.5" y="-97" font-family="Helvetica,sans-Serif" font-size="10.00">SignalConnections</text>
</a>
</g>
</g>
<!-- Node5&#45;&gt;Node6 -->
<g id="edge5" class="edge">
<title>Node5&#45;&gt;Node6</title>
<path fill="none" stroke="midnightblue" d="M588.26,-81.73C571.4,-85.47 553.56,-89.43 536.68,-93.17"/>
<polygon fill="midnightblue" stroke="midnightblue" points="589.05,-85.14 598.06,-79.56 587.54,-78.31 589.05,-85.14"/>
</g>
<!-- Node7 -->
<g id="node7" class="node">
<title>Node7</title>
<g id="a_node7"><a xlink:href="classButtonEditDialog.html#ade8d1ee4ae03d1080932a70c8170d488" target="_top" xlink:title=" ">
<polygon fill="white" stroke="black" points="161,-158.5 161,-188.5 321,-188.5 321,-158.5 161,-158.5"/>
<text text-anchor="start" x="169" y="-176.5" font-family="Helvetica,sans-Serif" font-size="10.00">ButtonEditDialog::openAdvanced</text>
<text text-anchor="middle" x="241" y="-165.5" font-family="Helvetica,sans-Serif" font-size="10.00">Dialog</text>
</a>
</g>
</g>
<!-- Node6&#45;&gt;Node7 -->
<g id="edge6" class="edge">
<title>Node6&#45;&gt;Node7</title>
<path fill="none" stroke="midnightblue" d="M376.79,-133.91C348.81,-142.13 318.15,-151.13 293.15,-158.48"/>
<polygon fill="midnightblue" stroke="midnightblue" points="377.95,-137.22 386.56,-131.04 375.98,-130.5 377.95,-137.22"/>
</g>
<!-- Node8 -->
<g id="node8" class="node">
<title>Node8</title>
<g id="a_node8"><a xlink:href="classVirtualKeyboardMouseWidget.html#a5117686d29ac16c0d1f947da9ba7b7a4" target="_top" xlink:title=" ">
<polygon fill="white" stroke="black" points="165,-95.5 165,-125.5 317,-125.5 317,-95.5 165,-95.5"/>
<text text-anchor="start" x="173" y="-113.5" font-family="Helvetica,sans-Serif" font-size="10.00">VirtualKeyboardMouseWidget</text>
<text text-anchor="middle" x="241" y="-102.5" font-family="Helvetica,sans-Serif" font-size="10.00">::VirtualKeyboardMouseWidget</text>
</a>
</g>
</g>
<!-- Node6&#45;&gt;Node8 -->
<g id="edge8" class="edge">
<title>Node6&#45;&gt;Node8</title>
<path fill="none" stroke="midnightblue" d="M368.02,-110.5C351.12,-110.5 333.57,-110.5 317.12,-110.5"/>
<polygon fill="midnightblue" stroke="midnightblue" points="368.45,-114 378.45,-110.5 368.45,-107 368.45,-114"/>
</g>
<!-- Node7&#45;&gt;Node4 -->
<g id="edge7" class="edge">
<title>Node7&#45;&gt;Node4</title>
<path fill="none" stroke="midnightblue" d="M150.7,-185.64C142.1,-186.81 133.51,-187.98 125.26,-189.1"/>
<polygon fill="midnightblue" stroke="midnightblue" points="151.35,-189.09 160.78,-184.27 150.4,-182.15 151.35,-189.09"/>
</g>
<!-- Node9&#45;&gt;Node10 -->
<g id="edge10" class="edge">
<title>Node9&#45;&gt;Node10</title>
<path fill="none" stroke="midnightblue" d="M966.65,-136.94C958.24,-135.96 949.7,-134.97 941.3,-134"/>
<polygon fill="midnightblue" stroke="midnightblue" points="966.48,-140.44 976.82,-138.12 967.29,-133.49 966.48,-140.44"/>
</g>
<!-- Node9&#45;&gt;Node12 -->
<g id="edge14" class="edge">
<title>Node9&#45;&gt;Node12</title>
<path fill="none" stroke="midnightblue" d="M974.16,-163.88C957.65,-167.71 940.29,-171.74 924.22,-175.47"/>
<polygon fill="midnightblue" stroke="midnightblue" points="975.37,-167.19 984.31,-161.52 973.78,-160.37 975.37,-167.19"/>
</g>
<!-- Node10&#45;&gt;Node6 -->
<g id="edge11" class="edge">
<title>Node10&#45;&gt;Node6</title>
<path fill="none" stroke="midnightblue" d="M765.76,-121.28C696.48,-118.85 602.43,-115.55 536.7,-113.24"/>
<polygon fill="midnightblue" stroke="midnightblue" points="765.68,-124.78 775.79,-121.63 765.92,-117.78 765.68,-124.78"/>
</g>
<!-- Node11 -->
<g id="node11" class="node">
<title>Node11</title>
<g id="a_node11"><a xlink:href="classVirtualKeyboardMouseWidget.html#a019229171c104fb3d7b85a41c1dfc2d1" target="_top" xlink:title=" ">
<polygon fill="white" stroke="black" points="594,-137.5 594,-167.5 740,-167.5 740,-137.5 594,-137.5"/>
<text text-anchor="start" x="602" y="-155.5" font-family="Helvetica,sans-Serif" font-size="10.00">VirtualKeyboardMouseWidget</text>
<text text-anchor="middle" x="667" y="-144.5" font-family="Helvetica,sans-Serif" font-size="10.00">::otherKeysActionSingle</text>
</a>
</g>
</g>
<!-- Node10&#45;&gt;Node11 -->
<g id="edge12" class="edge">
<title>Node10&#45;&gt;Node11</title>
<path fill="none" stroke="midnightblue" d="M765.74,-138.06C757.17,-139.32 748.58,-140.59 740.23,-141.83"/>
<polygon fill="midnightblue" stroke="midnightblue" points="766.38,-141.5 775.76,-136.58 765.36,-134.58 766.38,-141.5"/>
</g>
<!-- Node11&#45;&gt;Node6 -->
<g id="edge13" class="edge">
<title>Node11&#45;&gt;Node6</title>
<path fill="none" stroke="midnightblue" d="M583.63,-135.83C568.11,-132.69 551.92,-129.41 536.53,-126.29"/>
<polygon fill="midnightblue" stroke="midnightblue" points="583.22,-139.32 593.72,-137.87 584.61,-132.46 583.22,-139.32"/>
</g>
<!-- Node13 -->
<g id="node13" class="node">
<title>Node13</title>
<g id="a_node13"><a xlink:href="classVirtualKeyboardMouseWidget.html#ae98ecab176697aed0ca87609ceceaf06" target="_top" xlink:title=" ">
<polygon fill="white" stroke="black" points="357,-158.5 357,-188.5 558,-188.5 558,-158.5 357,-158.5"/>
<text text-anchor="start" x="365" y="-176.5" font-family="Helvetica,sans-Serif" font-size="10.00">VirtualKeyboardMouseWidget</text>
<text text-anchor="middle" x="457.5" y="-165.5" font-family="Helvetica,sans-Serif" font-size="10.00">::establishVirtualMouseSignalConnections</text>
</a>
</g>
</g>
<!-- Node12&#45;&gt;Node13 -->
<g id="edge15" class="edge">
<title>Node12&#45;&gt;Node13</title>
<path fill="none" stroke="midnightblue" d="M770.8,-186.81C708.19,-184.14 623.52,-180.53 558.13,-177.74"/>
<polygon fill="midnightblue" stroke="midnightblue" points="770.9,-190.31 781.04,-187.24 771.2,-183.32 770.9,-190.31"/>
</g>
<!-- Node13&#45;&gt;Node7 -->
<g id="edge16" class="edge">
<title>Node13&#45;&gt;Node7</title>
<path fill="none" stroke="midnightblue" d="M346.71,-173.5C338.12,-173.5 329.55,-173.5 321.23,-173.5"/>
<polygon fill="midnightblue" stroke="midnightblue" points="346.79,-177 356.79,-173.5 346.79,-170 346.79,-177"/>
</g>
<!-- Node13&#45;&gt;Node8 -->
<g id="edge17" class="edge">
<title>Node13&#45;&gt;Node8</title>
<path fill="none" stroke="midnightblue" d="M395.59,-155.61C363.21,-146.1 323.85,-134.54 293.09,-125.5"/>
<polygon fill="midnightblue" stroke="midnightblue" points="394.81,-159.03 405.39,-158.49 396.79,-152.31 394.81,-159.03"/>
</g>
<!-- Node14&#45;&gt;Node8 -->
<g id="edge19" class="edge">
<title>Node14&#45;&gt;Node8</title>
<path fill="none" stroke="midnightblue" d="M583.8,-31.68C521.4,-44.23 433.58,-62.47 357,-80.5 337.52,-85.09 316.29,-90.51 297.43,-95.47"/>
<polygon fill="midnightblue" stroke="midnightblue" points="584.87,-35.03 593.98,-29.63 583.49,-28.17 584.87,-35.03"/>
</g>
</g>
</svg>
        <g id="navigator" transform="translate(0 0)" fill="#404254">
                <rect fill="#f2f5e9" fill-opacity="0.5" stroke="#606060" stroke-width=".5" x="0" y="0" width="60" height="60"/>
                <use id="zoomplus" xlink:href="#zoomPlus" x="17" y="9" onmousedown="handleZoom(evt,'in')"/>
                <use id="zoomminus" xlink:href="#zoomMin" x="42" y="9" onmousedown="handleZoom(evt,'out')"/>
                <use id="reset" xlink:href="#resetDef" x="30" y="36" onmousedown="handleReset()"/>
                <g id="arrowUp" xlink:href="#dirArrow" transform="translate(30 24)" onmousedown="handlePan(0,-1)">
                  <use xlink:href="#rim" fill="#404040">
                        <set attributeName="fill" to="#808080" begin="arrowUp.mouseover" end="arrowUp.mouseout"/>
                  </use>
                  <path fill="none" stroke="white" stroke-width="1.5" d="M0,-3.0v7 M-2.5,-0.5L0,-3.0L2.5,-0.5"/>
                </g>
                <g id="arrowRight" xlink:href="#dirArrow" transform="rotate(90) translate(36 -43)" onmousedown="handlePan(1,0)">
                  <use xlink:href="#rim" fill="#404040">
                        <set attributeName="fill" to="#808080" begin="arrowRight.mouseover" end="arrowRight.mouseout"/>
                  </use>
                  <path fill="none" stroke="white" stroke-width="1.5" d="M0,-3.0v7 M-2.5,-0.5L0,-3.0L2.5,-0.5"/>
                </g>
                <g id="arrowDown" xlink:href="#dirArrow" transform="rotate(180) translate(-30 -48)" onmousedown="handlePan(0,1)">
                  <use xlink:href="#rim" fill="#404040">
                        <set attributeName="fill" to="#808080" begin="arrowDown.mouseover" end="arrowDown.mouseout"/>
                  </use>
                  <path fill="none" stroke="white" stroke-width="1.5" d="M0,-3.0v7 M-2.5,-0.5L0,-3.0L2.5,-0.5"/>
                </g>
                <g id="arrowLeft" xlink:href="#dirArrow" transform="rotate(270) translate(-36 17)" onmousedown="handlePan(-1,0)">
                  <use xlink:href="#rim" fill="#404040">
                        <set attributeName="fill" to="#808080" begin="arrowLeft.mouseover" end="arrowLeft.mouseout"/>
                  </use>
                  <path fill="none" stroke="white" stroke-width="1.5" d="M0,-3.0v7 M-2.5,-0.5L0,-3.0L2.5,-0.5"/>
                </g>
        </g>
        <svg viewBox="0 0 15 15" width="100%" height="30px" preserveAspectRatio="xMaxYMin meet">
         <g id="arrow_out" transform="scale(0.3 0.3)">
          <a xlink:href="classButtonEditDialog_af8126f12b4a9a65a316a335288e8cb79_icgraph_org.svg" target="_base">
           <rect id="button" ry="5" rx="5" y="6" x="6" height="38" width="38"
                fill="#f2f5e9" fill-opacity="0.5" stroke="#606060" stroke-width="1.0"/>
           <path id="arrow"
             d="M 11.500037,31.436501 C 11.940474,20.09759 22.043105,11.32322 32.158766,21.979434 L 37.068811,17.246167 C 37.068811,17.246167 37.088388,32 37.088388,32 L 22.160133,31.978069 C 22.160133,31.978069 26.997745,27.140456 26.997745,27.140456 C 18.528582,18.264221 13.291696,25.230495 11.500037,31.436501 z"
             style="fill:#404040;"/>
          </a>
         </g>
        </svg>
</svg>
