<?xml version="1.0" encoding="UTF-8" standalone="no"?>
<!DOCTYPE svg PUBLIC "-//W3C//DTD SVG 1.1//EN"
 "http://www.w3.org/Graphics/SVG/1.1/DTD/svg11.dtd">
<!-- Generated by graphviz version 2.43.0 (0)
 -->
<!-- Title: QuickSetDialog::connectDpadForDialog Pages: 1 -->
<svg width="673pt" height="291pt"
 viewBox="0.00 0.00 673.00 290.50" xmlns="http://www.w3.org/2000/svg" xmlns:xlink="http://www.w3.org/1999/xlink">
<g id="graph0" class="graph" transform="scale(1 1) rotate(0) translate(4 286.5)">
<title>QuickSetDialog::connectDpadForDialog</title>
<polygon fill="white" stroke="transparent" points="-4,4 -4,-286.5 669,-286.5 669,4 -4,4"/>
<!-- Node1 -->
<g id="node1" class="node">
<title>Node1</title>
<g id="a_node1"><a xlink:title=" ">
<polygon fill="#bfbfbf" stroke="black" points="0,-131.5 0,-161.5 149,-161.5 149,-131.5 0,-131.5"/>
<text text-anchor="start" x="8" y="-149.5" font-family="Helvetica,sans-Serif" font-size="10.00">QuickSetDialog::connectDpad</text>
<text text-anchor="middle" x="74.5" y="-138.5" font-family="Helvetica,sans-Serif" font-size="10.00">ForDialog</text>
</a>
</g>
</g>
<!-- Node2 -->
<g id="node2" class="node">
<title>Node2</title>
<g id="a_node2"><a xlink:href="classJoyDPad.html#a2f5d634341589f42960a9ecc41454112" target="_top" xlink:title=" ">
<polygon fill="white" stroke="black" points="199.5,-263 199.5,-282 309.5,-282 309.5,-263 199.5,-263"/>
<text text-anchor="middle" x="254.5" y="-270" font-family="Helvetica,sans-Serif" font-size="10.00">JoyDPad::getButtons</text>
</a>
</g>
</g>
<!-- Node1&#45;&gt;Node2 -->
<g id="edge1" class="edge">
<title>Node1&#45;&gt;Node2</title>
<path fill="none" stroke="midnightblue" d="M86.85,-161.72C105,-184.99 142.84,-229.24 185,-253.5 188.9,-255.74 193.07,-257.73 197.36,-259.49"/>
<polygon fill="midnightblue" stroke="midnightblue" points="196.3,-262.83 206.89,-263 198.72,-256.26 196.3,-262.83"/>
</g>
<!-- Node3 -->
<g id="node3" class="node">
<title>Node3</title>
<g id="a_node3"><a xlink:href="classSetJoystick.html#a2a6870a2ac3f5cc490344baf7ed2edd5" target="_top" xlink:title=" ">
<polygon fill="white" stroke="black" points="201,-225 201,-244 308,-244 308,-225 201,-225"/>
<text text-anchor="middle" x="254.5" y="-232" font-family="Helvetica,sans-Serif" font-size="10.00">SetJoystick::getHats</text>
</a>
</g>
</g>
<!-- Node1&#45;&gt;Node3 -->
<g id="edge2" class="edge">
<title>Node1&#45;&gt;Node3</title>
<path fill="none" stroke="midnightblue" d="M95.48,-161.62C116.7,-177.06 151.71,-200.78 185,-215.5 190.35,-217.87 196.07,-220.01 201.83,-221.93"/>
<polygon fill="midnightblue" stroke="midnightblue" points="200.94,-225.31 211.53,-224.95 203.02,-218.63 200.94,-225.31"/>
</g>
<!-- Node4 -->
<g id="node4" class="node">
<title>Node4</title>
<g id="a_node4"><a xlink:href="classJoyButton.html#abbccee98e377453167a47b49874eeab7" target="_top" xlink:title=" ">
<polygon fill="white" stroke="black" points="188.5,-175.5 188.5,-205.5 320.5,-205.5 320.5,-175.5 188.5,-175.5"/>
<text text-anchor="start" x="196.5" y="-193.5" font-family="Helvetica,sans-Serif" font-size="10.00">JoyButton::getIgnoreEvent</text>
<text text-anchor="middle" x="254.5" y="-182.5" font-family="Helvetica,sans-Serif" font-size="10.00">State</text>
</a>
</g>
</g>
<!-- Node1&#45;&gt;Node4 -->
<g id="edge3" class="edge">
<title>Node1&#45;&gt;Node4</title>
<path fill="none" stroke="midnightblue" d="M136.26,-161.52C151.21,-165.22 167.35,-169.21 182.73,-173.01"/>
<polygon fill="midnightblue" stroke="midnightblue" points="182.16,-176.47 192.71,-175.47 183.84,-169.68 182.16,-176.47"/>
</g>
<!-- Node5 -->
<g id="node5" class="node">
<title>Node5</title>
<g id="a_node5"><a xlink:href="classJoyDPad.html#a49c84e10ea78221ef1d42a2f986f05e8" target="_top" xlink:title=" ">
<polygon fill="white" stroke="black" points="196.5,-137 196.5,-156 312.5,-156 312.5,-137 196.5,-137"/>
<text text-anchor="middle" x="254.5" y="-144" font-family="Helvetica,sans-Serif" font-size="10.00">JoyDPad::getJoyMode</text>
</a>
</g>
</g>
<!-- Node1&#45;&gt;Node5 -->
<g id="edge4" class="edge">
<title>Node1&#45;&gt;Node5</title>
<path fill="none" stroke="midnightblue" d="M149.18,-146.5C161.51,-146.5 174.25,-146.5 186.4,-146.5"/>
<polygon fill="midnightblue" stroke="midnightblue" points="186.45,-150 196.45,-146.5 186.45,-143 186.45,-150"/>
</g>
<!-- Node6 -->
<g id="node6" class="node">
<title>Node6</title>
<g id="a_node6"><a xlink:href="classJoyButton.html#aa659d5a0860f5047862ca0761d8d775a" target="_top" xlink:title="Get 0 indexed number of button.">
<polygon fill="white" stroke="black" points="189,-99 189,-118 320,-118 320,-99 189,-99"/>
<text text-anchor="middle" x="254.5" y="-106" font-family="Helvetica,sans-Serif" font-size="10.00">JoyButton::getJoyNumber</text>
</a>
</g>
</g>
<!-- Node1&#45;&gt;Node6 -->
<g id="edge5" class="edge">
<title>Node1&#45;&gt;Node6</title>
<path fill="none" stroke="midnightblue" d="M145.85,-131.48C163.47,-127.72 182.12,-123.74 198.85,-120.17"/>
<polygon fill="midnightblue" stroke="midnightblue" points="199.95,-123.51 209,-118 198.49,-116.67 199.95,-123.51"/>
</g>
<!-- Node7 -->
<g id="node7" class="node">
<title>Node7</title>
<g id="a_node7"><a xlink:href="classJoyButton.html#aa8eaea52cff793034b943af1eb292b6c" target="_top" xlink:title=" ">
<polygon fill="white" stroke="black" points="188.5,-49.5 188.5,-79.5 320.5,-79.5 320.5,-49.5 188.5,-49.5"/>
<text text-anchor="start" x="196.5" y="-67.5" font-family="Helvetica,sans-Serif" font-size="10.00">JoyButton::setIgnoreEvent</text>
<text text-anchor="middle" x="254.5" y="-56.5" font-family="Helvetica,sans-Serif" font-size="10.00">State</text>
</a>
</g>
</g>
<!-- Node1&#45;&gt;Node7 -->
<g id="edge6" class="edge">
<title>Node1&#45;&gt;Node7</title>
<path fill="none" stroke="midnightblue" d="M102.02,-131.45C123.91,-119.34 155.97,-102.29 185,-89.5 189.92,-87.33 195.1,-85.19 200.31,-83.14"/>
<polygon fill="midnightblue" stroke="midnightblue" points="201.6,-86.39 209.68,-79.53 199.09,-79.86 201.6,-86.39"/>
</g>
<!-- Node8 -->
<g id="node8" class="node">
<title>Node8</title>
<g id="a_node8"><a xlink:href="classQuickSetDialog.html#ac798af7932e1bd769e7f678698163380" target="_top" xlink:title=" ">
<polygon fill="white" stroke="black" points="185,-0.5 185,-30.5 324,-30.5 324,-0.5 185,-0.5"/>
<text text-anchor="start" x="193" y="-18.5" font-family="Helvetica,sans-Serif" font-size="10.00">QuickSetDialog::showDPad</text>
<text text-anchor="middle" x="254.5" y="-7.5" font-family="Helvetica,sans-Serif" font-size="10.00">ButtonDialog</text>
</a>
</g>
</g>
<!-- Node1&#45;&gt;Node8 -->
<g id="edge7" class="edge">
<title>Node1&#45;&gt;Node8</title>
<path fill="none" stroke="midnightblue" d="M87.43,-131.46C106.06,-108.85 144.19,-66.06 185,-40.5 188.19,-38.5 191.57,-36.63 195.04,-34.88"/>
<polygon fill="midnightblue" stroke="midnightblue" points="196.8,-37.92 204.4,-30.54 193.86,-31.57 196.8,-37.92"/>
</g>
<!-- Node9 -->
<g id="node9" class="node">
<title>Node9</title>
<g id="a_node9"><a xlink:href="classQuickSetDialog.html#af61daea37a622937669c8043f42e70b8" target="_top" xlink:title=" ">
<polygon fill="white" stroke="black" points="360,-0.5 360,-30.5 510,-30.5 510,-0.5 360,-0.5"/>
<text text-anchor="start" x="368" y="-18.5" font-family="Helvetica,sans-Serif" font-size="10.00">QuickSetDialog::invokeMethod</text>
<text text-anchor="middle" x="435" y="-7.5" font-family="Helvetica,sans-Serif" font-size="10.00">LastBtn</text>
</a>
</g>
</g>
<!-- Node8&#45;&gt;Node9 -->
<g id="edge8" class="edge">
<title>Node8&#45;&gt;Node9</title>
<path fill="none" stroke="midnightblue" d="M324,-15.5C332.41,-15.5 341.08,-15.5 349.69,-15.5"/>
<polygon fill="midnightblue" stroke="midnightblue" points="349.75,-19 359.75,-15.5 349.75,-12 349.75,-19"/>
</g>
<!-- Node10 -->
<g id="node10" class="node">
<title>Node10</title>
<g id="a_node10"><a xlink:href="classButtonEditDialogHelper.html#a2160209c705906abf0510c903f432f42" target="_top" xlink:title=" ">
<polygon fill="white" stroke="black" points="546,-0.5 546,-30.5 665,-30.5 665,-0.5 546,-0.5"/>
<text text-anchor="start" x="554" y="-18.5" font-family="Helvetica,sans-Serif" font-size="10.00">ButtonEditDialogHelper</text>
<text text-anchor="middle" x="605.5" y="-7.5" font-family="Helvetica,sans-Serif" font-size="10.00">::setThisButton</text>
</a>
</g>
</g>
<!-- Node9&#45;&gt;Node10 -->
<g id="edge9" class="edge">
<title>Node9&#45;&gt;Node10</title>
<path fill="none" stroke="midnightblue" d="M510.4,-15.5C518.86,-15.5 527.45,-15.5 535.84,-15.5"/>
<polygon fill="midnightblue" stroke="midnightblue" points="535.93,-19 545.93,-15.5 535.93,-12 535.93,-19"/>
</g>
</g>
</svg>
