<?xml version="1.0" encoding="UTF-8" standalone="no"?>
<!DOCTYPE svg PUBLIC "-//W3C//DTD SVG 1.1//EN"
 "http://www.w3.org/Graphics/SVG/1.1/DTD/svg11.dtd">
<!-- Generated by graphviz version 2.43.0 (0)
 -->
<!-- Title: Logger::loggerMessageHandler Pages: 1 -->
<svg width="332pt" height="66pt"
 viewBox="0.00 0.00 332.00 66.00" xmlns="http://www.w3.org/2000/svg" xmlns:xlink="http://www.w3.org/1999/xlink">
<g id="graph0" class="graph" transform="scale(1 1) rotate(0) translate(4 62)">
<title>Logger::loggerMessageHandler</title>
<polygon fill="white" stroke="transparent" points="-4,4 -4,-62 328,-62 328,4 -4,4"/>
<!-- Node1 -->
<g id="node1" class="node">
<title>Node1</title>
<g id="a_node1"><a xlink:title="log message handling function">
<polygon fill="#bfbfbf" stroke="black" points="0,-19.5 0,-38.5 152,-38.5 152,-19.5 0,-19.5"/>
<text text-anchor="middle" x="76" y="-26.5" font-family="Helvetica,sans-Serif" font-size="10.00">Logger::loggerMessageHandler</text>
</a>
</g>
</g>
<!-- Node2 -->
<g id="node2" class="node">
<title>Node2</title>
<g id="a_node2"><a xlink:href="$classLogger.html#a1a5a2a5210be894f2bc2373022c471a6" xlink:title="Get the current output level associated with the logger.">
<polygon fill="white" stroke="black" points="188,-38.5 188,-57.5 324,-57.5 324,-38.5 188,-38.5"/>
<text text-anchor="middle" x="256" y="-45.5" font-family="Helvetica,sans-Serif" font-size="10.00">Logger::getCurrentLogLevel</text>
</a>
</g>
</g>
<!-- Node1&#45;&gt;Node2 -->
<g id="edge1" class="edge">
<title>Node1&#45;&gt;Node2</title>
<path fill="none" stroke="midnightblue" d="M152.23,-37.03C160.75,-37.94 169.45,-38.87 178,-39.78"/>
<polygon fill="midnightblue" stroke="midnightblue" points="177.63,-43.26 187.94,-40.84 178.37,-36.3 177.63,-43.26"/>
</g>
<!-- Node3 -->
<g id="node3" class="node">
<title>Node3</title>
<g id="a_node3"><a xlink:href="$classLogHelper.html#a983a9de6f9a429d1cd94aef960be9e9d" xlink:title=" ">
<polygon fill="white" stroke="black" points="192,-0.5 192,-19.5 320,-19.5 320,-0.5 192,-0.5"/>
<text text-anchor="middle" x="256" y="-7.5" font-family="Helvetica,sans-Serif" font-size="10.00">LogHelper::sendMessage</text>
</a>
</g>
</g>
<!-- Node1&#45;&gt;Node3 -->
<g id="edge2" class="edge">
<title>Node1&#45;&gt;Node3</title>
<path fill="none" stroke="midnightblue" d="M152.23,-20.97C162.02,-19.92 172.03,-18.86 181.79,-17.81"/>
<polygon fill="midnightblue" stroke="midnightblue" points="182.27,-21.28 191.84,-16.74 181.53,-14.32 182.27,-21.28"/>
</g>
</g>
</svg>
