<?xml version="1.0" encoding="UTF-8" standalone="no"?>
<!DOCTYPE svg PUBLIC "-//W3C//DTD SVG 1.1//EN"
 "http://www.w3.org/Graphics/SVG/1.1/DTD/svg11.dtd">
<!-- Generated by graphviz version 2.43.0 (0)
 -->
<!-- Title: MainWindow::checkAutoProfileWatcherTimer Pages: 1 -->
<svg width="522pt" height="61pt"
 viewBox="0.00 0.00 522.00 61.00" xmlns="http://www.w3.org/2000/svg" xmlns:xlink="http://www.w3.org/1999/xlink">
<g id="graph0" class="graph" transform="scale(1 1) rotate(0) translate(4 57)">
<title>MainWindow::checkAutoProfileWatcherTimer</title>
<polygon fill="white" stroke="transparent" points="-4,4 -4,-57 518,-57 518,4 -4,4"/>
<!-- Node1 -->
<g id="node1" class="node">
<title>Node1</title>
<g id="a_node1"><a xlink:title=" ">
<polygon fill="#bfbfbf" stroke="black" points="362,-22.5 362,-52.5 514,-52.5 514,-22.5 362,-22.5"/>
<text text-anchor="start" x="370" y="-40.5" font-family="Helvetica,sans-Serif" font-size="10.00">MainWindow::checkAutoProfile</text>
<text text-anchor="middle" x="438" y="-29.5" font-family="Helvetica,sans-Serif" font-size="10.00">WatcherTimer</text>
</a>
</g>
</g>
<!-- Node2 -->
<g id="node2" class="node">
<title>Node2</title>
<g id="a_node2"><a xlink:href="classMainWindow.html#a2f0c03d3d51748ab794e698322110614" target="_top" xlink:title=" ">
<polygon fill="white" stroke="black" points="0,-28 0,-47 134,-47 134,-28 0,-28"/>
<text text-anchor="middle" x="67" y="-35" font-family="Helvetica,sans-Serif" font-size="10.00">MainWindow::MainWindow</text>
</a>
</g>
</g>
<!-- Node1&#45;&gt;Node2 -->
<g id="edge1" class="edge">
<title>Node1&#45;&gt;Node2</title>
<path fill="none" stroke="midnightblue" d="M351.63,-40.04C342.97,-40.23 334.31,-40.39 326,-40.5 256.67,-41.44 239.33,-41.52 170,-40.5 158.4,-40.33 146.05,-40.05 134.11,-39.73"/>
<polygon fill="midnightblue" stroke="midnightblue" points="351.86,-43.54 361.77,-39.81 351.7,-36.54 351.86,-43.54"/>
</g>
<!-- Node3 -->
<g id="node3" class="node">
<title>Node3</title>
<g id="a_node3"><a xlink:href="classMainWindow.html#ae9f72ff45056908317963a1e7fa634a0" target="_top" xlink:title="Build list of current input devices and pass it to settings dialog instance. Open Settings dialog.">
<polygon fill="white" stroke="black" points="170,-0.5 170,-30.5 326,-30.5 326,-0.5 170,-0.5"/>
<text text-anchor="start" x="178" y="-18.5" font-family="Helvetica,sans-Serif" font-size="10.00">MainWindow::openMainSettings</text>
<text text-anchor="middle" x="248" y="-7.5" font-family="Helvetica,sans-Serif" font-size="10.00">Dialog</text>
</a>
</g>
</g>
<!-- Node1&#45;&gt;Node3 -->
<g id="edge2" class="edge">
<title>Node1&#45;&gt;Node3</title>
<path fill="none" stroke="midnightblue" d="M351.88,-27.54C343.31,-26.54 334.63,-25.52 326.15,-24.53"/>
<polygon fill="midnightblue" stroke="midnightblue" points="351.55,-31.02 361.89,-28.71 352.36,-24.07 351.55,-31.02"/>
</g>
<!-- Node3&#45;&gt;Node2 -->
<g id="edge3" class="edge">
<title>Node3&#45;&gt;Node2</title>
<path fill="none" stroke="midnightblue" d="M159.68,-26.23C151.04,-27.29 142.37,-28.36 134,-29.39"/>
<polygon fill="midnightblue" stroke="midnightblue" points="160.29,-29.68 169.79,-24.99 159.44,-22.74 160.29,-29.68"/>
</g>
</g>
</svg>
