<?xml version="1.0" encoding="UTF-8" standalone="no"?>
<!DOCTYPE svg PUBLIC "-//W3C//DTD SVG 1.1//EN"
 "http://www.w3.org/Graphics/SVG/1.1/DTD/svg11.dtd">
<!-- Generated by graphviz version 2.43.0 (0)
 -->
<!-- Title: JoyButton::setChangeSetSelection Pages: 1 -->
<!--zoomable 502 -->
<svg id="main" version="1.1" xmlns="http://www.w3.org/2000/svg" xmlns:xlink="http://www.w3.org/1999/xlink" xml:space="preserve" onload="init(evt)">
<style type="text/css"><![CDATA[
.edge:hover path { stroke: red; }
.edge:hover polygon { stroke: red; fill: red; }
]]></style>
<script type="text/javascript"><![CDATA[
var edges = document.getElementsByTagName('g');
if (edges && edges.length) {
  for (var i=0;i<edges.length;i++) {
    if (edges[i].id.substr(0,4)=='edge') {
      edges[i].setAttribute('class','edge');
    }
  }
}
]]></script>
        <defs>
                <circle id="rim" cx="0" cy="0" r="7"/>
                <circle id="rim2" cx="0" cy="0" r="3.5"/>
                <g id="zoomPlus">
                        <use xlink:href="#rim" fill="#404040">
                                <set attributeName="fill" to="#808080" begin="zoomplus.mouseover" end="zoomplus.mouseout"/>
                        </use>
                        <path d="M-4,0h8M0,-4v8" fill="none" stroke="white" stroke-width="1.5" pointer-events="none"/>
                </g>
                <g id="zoomMin">
                        <use xlink:href="#rim" fill="#404040">
                                <set attributeName="fill" to="#808080" begin="zoomminus.mouseover" end="zoomminus.mouseout"/>
                        </use>
                        <path d="M-4,0h8" fill="none" stroke="white" stroke-width="1.5" pointer-events="none"/>
                </g>
                <g id="dirArrow">
                        <path fill="none" stroke="white" stroke-width="1.5" d="M0,-3.0v7 M-2.5,-0.5L0,-3.0L2.5,-0.5"/>
                </g>
               <g id="resetDef">
                       <use xlink:href="#rim2" fill="#404040">
                               <set attributeName="fill" to="#808080" begin="reset.mouseover" end="reset.mouseout"/>
                       </use>
               </g>
        </defs>

<script type="text/javascript">
var viewWidth = 1544;
var viewHeight = 502;
var sectionId = 'dynsection-231';
</script>
<script xlink:href="svgpan.js"/>
<svg id="graph" class="graph">
<g id="viewport">
<title>JoyButton::setChangeSetSelection</title>
<polygon fill="white" stroke="transparent" points="-4,4 -4,-497.92 1540,-497.92 1540,4 -4,4"/>
<!-- Node1 -->
<g id="node1" class="node">
<title>Node1</title>
<g id="a_node1"><a xlink:title=" ">
<polygon fill="#bfbfbf" stroke="black" points="1366,-244 1366,-263 1536,-263 1536,-244 1366,-244"/>
<text text-anchor="middle" x="1451" y="-251" font-family="Helvetica,sans-Serif" font-size="10.00">JoyButton::setChangeSetSelection</text>
</a>
</g>
</g>
<!-- Node2 -->
<g id="node2" class="node">
<title>Node2</title>
<g id="a_node2"><a xlink:href="classInputDevice.html#a8c4b7481037b00a0f8d4efaeb520a9dd" target="_top" xlink:title=" ">
<polygon fill="white" stroke="black" points="977,-313.5 977,-343.5 1118,-343.5 1118,-313.5 977,-313.5"/>
<text text-anchor="start" x="985" y="-331.5" font-family="Helvetica,sans-Serif" font-size="10.00">InputDevice::changeSetAxis</text>
<text text-anchor="middle" x="1047.5" y="-320.5" font-family="Helvetica,sans-Serif" font-size="10.00">ButtonAssociation</text>
</a>
</g>
</g>
<!-- Node1&#45;&gt;Node2 -->
<g id="edge1" class="edge">
<title>Node1&#45;&gt;Node2</title>
<path fill="none" stroke="midnightblue" d="M1396.04,-265.1C1375.41,-269.44 1351.64,-274.33 1330,-278.5 1257.87,-292.42 1175.05,-306.95 1118.02,-316.74"/>
<polygon fill="midnightblue" stroke="midnightblue" points="1396.83,-268.51 1405.89,-263.01 1395.39,-261.66 1396.83,-268.51"/>
</g>
<!-- Node6 -->
<g id="node6" class="node">
<title>Node6</title>
<g id="a_node6"><a xlink:href="classInputDevice.html#adfaa12cfd6363502a049a8bb32b1e992" target="_top" xlink:title=" ">
<polygon fill="white" stroke="black" points="972.5,-191.5 972.5,-221.5 1122.5,-221.5 1122.5,-191.5 972.5,-191.5"/>
<text text-anchor="start" x="980.5" y="-209.5" font-family="Helvetica,sans-Serif" font-size="10.00">InputDevice::changeSetButton</text>
<text text-anchor="middle" x="1047.5" y="-198.5" font-family="Helvetica,sans-Serif" font-size="10.00">Association</text>
</a>
</g>
</g>
<!-- Node1&#45;&gt;Node6 -->
<g id="edge5" class="edge">
<title>Node1&#45;&gt;Node6</title>
<path fill="none" stroke="midnightblue" d="M1422.83,-239.47C1399.06,-228.03 1363.24,-212.78 1330,-206.5 1260.61,-193.4 1179.86,-195.08 1122.69,-199.04"/>
<polygon fill="midnightblue" stroke="midnightblue" points="1421.42,-242.67 1431.93,-243.95 1424.51,-236.39 1421.42,-242.67"/>
</g>
<!-- Node7 -->
<g id="node7" class="node">
<title>Node7</title>
<g id="a_node7"><a xlink:href="classInputDevice.html#ae6abc0024490060e5694e3750e3e0aea" target="_top" xlink:title=" ">
<polygon fill="white" stroke="black" points="974.5,-383.5 974.5,-413.5 1120.5,-413.5 1120.5,-383.5 974.5,-383.5"/>
<text text-anchor="start" x="982.5" y="-401.5" font-family="Helvetica,sans-Serif" font-size="10.00">InputDevice::changeSetDPad</text>
<text text-anchor="middle" x="1047.5" y="-390.5" font-family="Helvetica,sans-Serif" font-size="10.00">ButtonAssociation</text>
</a>
</g>
</g>
<!-- Node1&#45;&gt;Node7 -->
<g id="edge7" class="edge">
<title>Node1&#45;&gt;Node7</title>
<path fill="none" stroke="midnightblue" d="M1439.27,-272.17C1421.11,-301.74 1381.24,-358.43 1330,-382.5 1264.1,-413.46 1179.74,-413.84 1120.62,-408.73"/>
<polygon fill="midnightblue" stroke="midnightblue" points="1442.46,-273.66 1444.58,-263.27 1436.45,-270.07 1442.46,-273.66"/>
</g>
<!-- Node8 -->
<g id="node8" class="node">
<title>Node8</title>
<g id="a_node8"><a xlink:href="classInputDevice.html#a5aa8a74d0cc3739e08e6f753dc6df9cd" target="_top" xlink:title=" ">
<polygon fill="white" stroke="black" points="975.5,-260.5 975.5,-290.5 1119.5,-290.5 1119.5,-260.5 975.5,-260.5"/>
<text text-anchor="start" x="983.5" y="-278.5" font-family="Helvetica,sans-Serif" font-size="10.00">InputDevice::changeSetStick</text>
<text text-anchor="middle" x="1047.5" y="-267.5" font-family="Helvetica,sans-Serif" font-size="10.00">ButtonAssociation</text>
</a>
</g>
</g>
<!-- Node1&#45;&gt;Node8 -->
<g id="edge9" class="edge">
<title>Node1&#45;&gt;Node8</title>
<path fill="none" stroke="midnightblue" d="M1355.83,-258.66C1283.64,-262.62 1185.57,-267.99 1119.81,-271.59"/>
<polygon fill="midnightblue" stroke="midnightblue" points="1356.04,-262.15 1365.83,-258.11 1355.66,-255.16 1356.04,-262.15"/>
</g>
<!-- Node9 -->
<g id="node9" class="node">
<title>Node9</title>
<g id="a_node9"><a xlink:href="classInputDevice.html#acce02eff964fce3cc49baae950641702" target="_top" xlink:title=" ">
<polygon fill="white" stroke="black" points="971,-432.5 971,-462.5 1124,-462.5 1124,-432.5 971,-432.5"/>
<text text-anchor="start" x="979" y="-450.5" font-family="Helvetica,sans-Serif" font-size="10.00">InputDevice::changeSetVDPad</text>
<text text-anchor="middle" x="1047.5" y="-439.5" font-family="Helvetica,sans-Serif" font-size="10.00">ButtonAssociation</text>
</a>
</g>
</g>
<!-- Node1&#45;&gt;Node9 -->
<g id="edge11" class="edge">
<title>Node1&#45;&gt;Node9</title>
<path fill="none" stroke="midnightblue" d="M1446.08,-273.18C1435.99,-317.87 1404.52,-426.55 1330,-470.5 1252.07,-516.46 1140.26,-484.22 1083.87,-462.63"/>
<polygon fill="midnightblue" stroke="midnightblue" points="1449.53,-273.78 1448.2,-263.27 1442.68,-272.32 1449.53,-273.78"/>
</g>
<!-- Node10 -->
<g id="node10" class="node">
<title>Node10</title>
<g id="a_node10"><a xlink:href="classJoyButtonXml.html#a9d7b2a6324a2f8fe4f424f78aa43d261" target="_top" xlink:title=" ">
<polygon fill="white" stroke="black" points="982,-142.5 982,-172.5 1113,-172.5 1113,-142.5 982,-142.5"/>
<text text-anchor="start" x="990" y="-160.5" font-family="Helvetica,sans-Serif" font-size="10.00">JoyButtonXml::readButton</text>
<text text-anchor="middle" x="1047.5" y="-149.5" font-family="Helvetica,sans-Serif" font-size="10.00">Config</text>
</a>
</g>
</g>
<!-- Node1&#45;&gt;Node10 -->
<g id="edge13" class="edge">
<title>Node1&#45;&gt;Node10</title>
<path fill="none" stroke="midnightblue" d="M1426.63,-238.52C1403.17,-224.25 1365.51,-203.37 1330,-192.5 1257.83,-170.41 1171.19,-162.23 1113.26,-159.21"/>
<polygon fill="midnightblue" stroke="midnightblue" points="1424.84,-241.53 1435.19,-243.82 1428.53,-235.58 1424.84,-241.53"/>
</g>
<!-- Node20 -->
<g id="node20" class="node">
<title>Node20</title>
<g id="a_node20"><a xlink:href="classJoyDPadButton.html#a17abae87cce39aa7c8356f269ce2154b" target="_top" xlink:title=" ">
<polygon fill="white" stroke="black" points="1175.5,-430.5 1175.5,-460.5 1314.5,-460.5 1314.5,-430.5 1175.5,-430.5"/>
<text text-anchor="start" x="1183.5" y="-448.5" font-family="Helvetica,sans-Serif" font-size="10.00">JoyDPadButton::setChange</text>
<text text-anchor="middle" x="1245" y="-437.5" font-family="Helvetica,sans-Serif" font-size="10.00">SetCondition</text>
</a>
</g>
</g>
<!-- Node1&#45;&gt;Node20 -->
<g id="edge24" class="edge">
<title>Node1&#45;&gt;Node20</title>
<path fill="none" stroke="midnightblue" d="M1440.92,-272.19C1423.78,-305.61 1383.5,-375.82 1330,-415.5 1321.92,-421.5 1312.52,-426.38 1303,-430.33"/>
<polygon fill="midnightblue" stroke="midnightblue" points="1444.14,-273.58 1445.49,-263.07 1437.88,-270.44 1444.14,-273.58"/>
</g>
<!-- Node21 -->
<g id="node21" class="node">
<title>Node21</title>
<g id="a_node21"><a xlink:href="classJoyAxisButton.html#a739f27b3f9c6714869cade651c62aa00" target="_top" xlink:title=" ">
<polygon fill="white" stroke="black" points="1178,-342.5 1178,-372.5 1312,-372.5 1312,-342.5 1178,-342.5"/>
<text text-anchor="start" x="1186" y="-360.5" font-family="Helvetica,sans-Serif" font-size="10.00">JoyAxisButton::setChange</text>
<text text-anchor="middle" x="1245" y="-349.5" font-family="Helvetica,sans-Serif" font-size="10.00">SetCondition</text>
</a>
</g>
</g>
<!-- Node1&#45;&gt;Node21 -->
<g id="edge27" class="edge">
<title>Node1&#45;&gt;Node21</title>
<path fill="none" stroke="midnightblue" d="M1427.99,-269.03C1404.51,-285.12 1365.84,-310.29 1330,-327.5 1318.55,-333 1305.82,-338.05 1293.8,-342.38"/>
<polygon fill="midnightblue" stroke="midnightblue" points="1430.27,-271.71 1436.5,-263.14 1426.28,-265.96 1430.27,-271.71"/>
</g>
<!-- Node22 -->
<g id="node22" class="node">
<title>Node22</title>
<g id="a_node22"><a xlink:href="classJoyControlStickButton.html#af18ce44fbabeb525ede1a777cbc67de2" target="_top" xlink:title=" ">
<polygon fill="white" stroke="black" points="1182,-216.5 1182,-246.5 1308,-246.5 1308,-216.5 1182,-216.5"/>
<text text-anchor="start" x="1190" y="-234.5" font-family="Helvetica,sans-Serif" font-size="10.00">JoyControlStickButton</text>
<text text-anchor="middle" x="1245" y="-223.5" font-family="Helvetica,sans-Serif" font-size="10.00">::setChangeSetCondition</text>
</a>
</g>
</g>
<!-- Node1&#45;&gt;Node22 -->
<g id="edge29" class="edge">
<title>Node1&#45;&gt;Node22</title>
<path fill="none" stroke="midnightblue" d="M1355.82,-243.34C1339.65,-241.6 1323.21,-239.83 1308.14,-238.2"/>
<polygon fill="midnightblue" stroke="midnightblue" points="1355.53,-246.83 1365.85,-244.42 1356.28,-239.87 1355.53,-246.83"/>
</g>
<!-- Node23 -->
<g id="node23" class="node">
<title>Node23</title>
<g id="a_node23"><a xlink:href="classJoyButton.html#a451a0eaac9ee0a8804107a8b8c6659d1" target="_top" xlink:title=" ">
<polygon fill="white" stroke="black" points="1160,-102 1160,-121 1330,-121 1330,-102 1160,-102"/>
<text text-anchor="middle" x="1245" y="-109" font-family="Helvetica,sans-Serif" font-size="10.00">JoyButton::setChangeSetCondition</text>
</a>
</g>
</g>
<!-- Node1&#45;&gt;Node23 -->
<g id="edge31" class="edge">
<title>Node1&#45;&gt;Node23</title>
<path fill="none" stroke="midnightblue" d="M1436.8,-235.78C1416.62,-209.93 1375.62,-162.08 1330,-135.5 1319.25,-129.24 1306.77,-124.53 1294.77,-121.01"/>
<polygon fill="midnightblue" stroke="midnightblue" points="1434.18,-238.12 1443.04,-243.93 1439.74,-233.86 1434.18,-238.12"/>
</g>
<!-- Node30 -->
<g id="node30" class="node">
<title>Node30</title>
<g id="a_node30"><a xlink:href="classJoyButtonContextMenu.html#ad163e6b82faaf5467255ba1ffcbe003d" target="_top" xlink:title=" ">
<polygon fill="white" stroke="black" points="988,-54.5 988,-84.5 1107,-84.5 1107,-54.5 988,-54.5"/>
<text text-anchor="start" x="996" y="-72.5" font-family="Helvetica,sans-Serif" font-size="10.00">JoyButtonContextMenu</text>
<text text-anchor="middle" x="1047.5" y="-61.5" font-family="Helvetica,sans-Serif" font-size="10.00">::switchSetMode</text>
</a>
</g>
</g>
<!-- Node1&#45;&gt;Node30 -->
<g id="edge45" class="edge">
<title>Node1&#45;&gt;Node30</title>
<path fill="none" stroke="midnightblue" d="M1442.04,-233.99C1426.46,-198.68 1388.31,-124.8 1330,-92.5 1260.84,-54.18 1167.12,-55.01 1107.22,-60.87"/>
<polygon fill="midnightblue" stroke="midnightblue" points="1439,-235.8 1446.14,-243.63 1445.44,-233.06 1439,-235.8"/>
</g>
<!-- Node32 -->
<g id="node32" class="node">
<title>Node32</title>
<g id="a_node32"><a xlink:href="classAdvanceButtonDialog.html#aa9ce9cbd457fb41cbea00da74c01334b" target="_top" xlink:title=" ">
<polygon fill="white" stroke="black" points="992.5,-5.5 992.5,-35.5 1102.5,-35.5 1102.5,-5.5 992.5,-5.5"/>
<text text-anchor="start" x="1000.5" y="-23.5" font-family="Helvetica,sans-Serif" font-size="10.00">AdvanceButtonDialog</text>
<text text-anchor="middle" x="1047.5" y="-12.5" font-family="Helvetica,sans-Serif" font-size="10.00">::updateSetSelection</text>
</a>
</g>
</g>
<!-- Node1&#45;&gt;Node32 -->
<g id="edge46" class="edge">
<title>Node1&#45;&gt;Node32</title>
<path fill="none" stroke="midnightblue" d="M1444.61,-234.08C1432.13,-193.07 1397.02,-97.86 1330,-54.5 1261.28,-10.05 1163.1,-8.99 1102.7,-13.72"/>
<polygon fill="midnightblue" stroke="midnightblue" points="1441.32,-235.29 1447.49,-243.91 1448.04,-233.33 1441.32,-235.29"/>
</g>
<!-- Node3 -->
<g id="node3" class="node">
<title>Node3</title>
<g id="a_node3"><a xlink:href="classInputDevice.html#a6ffcebba103a7db02e82c1c7f62387bf" target="_top" xlink:title=" ">
<polygon fill="white" stroke="black" points="762,-319 762,-338 935,-338 935,-319 762,-319"/>
<text text-anchor="middle" x="848.5" y="-326" font-family="Helvetica,sans-Serif" font-size="10.00">InputDevice::enableSetConnections</text>
</a>
</g>
</g>
<!-- Node2&#45;&gt;Node3 -->
<g id="edge2" class="edge">
<title>Node2&#45;&gt;Node3</title>
<path fill="none" stroke="midnightblue" d="M966.51,-328.5C956.14,-328.5 945.48,-328.5 935.03,-328.5"/>
<polygon fill="midnightblue" stroke="midnightblue" points="966.77,-332 976.77,-328.5 966.77,-325 966.77,-332"/>
</g>
<!-- Node4 -->
<g id="node4" class="node">
<title>Node4</title>
<g id="a_node4"><a xlink:href="classGameController.html#afcddb9dcc5442a9746c3ff8760ea1791" target="_top" xlink:title=" ">
<polygon fill="white" stroke="black" points="567,-313 567,-332 726,-332 726,-313 567,-313"/>
<text text-anchor="middle" x="646.5" y="-320" font-family="Helvetica,sans-Serif" font-size="10.00">GameController::GameController</text>
</a>
</g>
</g>
<!-- Node3&#45;&gt;Node4 -->
<g id="edge3" class="edge">
<title>Node3&#45;&gt;Node4</title>
<path fill="none" stroke="midnightblue" d="M751.74,-325.63C743.14,-325.37 734.49,-325.11 726.05,-324.86"/>
<polygon fill="midnightblue" stroke="midnightblue" points="751.71,-329.13 761.81,-325.93 751.92,-322.13 751.71,-329.13"/>
</g>
<!-- Node5 -->
<g id="node5" class="node">
<title>Node5</title>
<g id="a_node5"><a xlink:href="classJoystick.html#a9df5e53506876f3c95e84bdf6c9cbaf1" target="_top" xlink:title=" ">
<polygon fill="white" stroke="black" points="599.5,-351 599.5,-370 693.5,-370 693.5,-351 599.5,-351"/>
<text text-anchor="middle" x="646.5" y="-358" font-family="Helvetica,sans-Serif" font-size="10.00">Joystick::Joystick</text>
</a>
</g>
</g>
<!-- Node3&#45;&gt;Node5 -->
<g id="edge4" class="edge">
<title>Node3&#45;&gt;Node5</title>
<path fill="none" stroke="midnightblue" d="M777.94,-339.63C750.07,-344.09 718.71,-349.11 693.72,-353.1"/>
<polygon fill="midnightblue" stroke="midnightblue" points="778.71,-343.05 788.03,-338.01 777.61,-336.14 778.71,-343.05"/>
</g>
<!-- Node6&#45;&gt;Node3 -->
<g id="edge6" class="edge">
<title>Node6&#45;&gt;Node3</title>
<path fill="none" stroke="midnightblue" d="M1012.25,-226.65C999.28,-234.34 984.41,-243.25 971,-251.5 932.28,-275.3 887.21,-304.18 864.38,-318.88"/>
<polygon fill="midnightblue" stroke="midnightblue" points="1014.06,-229.64 1020.88,-221.53 1010.5,-223.62 1014.06,-229.64"/>
</g>
<!-- Node7&#45;&gt;Node3 -->
<g id="edge8" class="edge">
<title>Node7&#45;&gt;Node3</title>
<path fill="none" stroke="midnightblue" d="M994.36,-379.97C956.39,-366.48 906.49,-348.75 876.27,-338.01"/>
<polygon fill="midnightblue" stroke="midnightblue" points="993.64,-383.43 1004.24,-383.48 995.99,-376.84 993.64,-383.43"/>
</g>
<!-- Node8&#45;&gt;Node3 -->
<g id="edge10" class="edge">
<title>Node8&#45;&gt;Node3</title>
<path fill="none" stroke="midnightblue" d="M980.84,-293.17C948.87,-301.77 911.69,-311.77 885.07,-318.93"/>
<polygon fill="midnightblue" stroke="midnightblue" points="981.83,-296.52 990.57,-290.55 980.01,-289.76 981.83,-296.52"/>
</g>
<!-- Node9&#45;&gt;Node3 -->
<g id="edge12" class="edge">
<title>Node9&#45;&gt;Node3</title>
<path fill="none" stroke="midnightblue" d="M981.79,-428.65C978.08,-427.04 974.46,-425.33 971,-423.5 925.06,-399.25 878.97,-357.2 859.34,-338.25"/>
<polygon fill="midnightblue" stroke="midnightblue" points="980.55,-431.92 991.13,-432.43 983.17,-425.43 980.55,-431.92"/>
</g>
<!-- Node11 -->
<g id="node11" class="node">
<title>Node11</title>
<g id="a_node11"><a xlink:href="classJoyButtonXml.html#a9d79d75b14b57419ed1fc5639dde8515" target="_top" xlink:title=" ">
<polygon fill="white" stroke="black" points="783,-209 783,-228 914,-228 914,-209 783,-209"/>
<text text-anchor="middle" x="848.5" y="-216" font-family="Helvetica,sans-Serif" font-size="10.00">JoyButtonXml::readConfig</text>
</a>
</g>
</g>
<!-- Node10&#45;&gt;Node11 -->
<g id="edge14" class="edge">
<title>Node10&#45;&gt;Node11</title>
<path fill="none" stroke="midnightblue" d="M988.31,-175.52C952.88,-186.49 909.06,-200.06 880.24,-208.98"/>
<polygon fill="midnightblue" stroke="midnightblue" points="989.54,-178.8 998.06,-172.5 987.47,-172.11 989.54,-178.8"/>
</g>
<!-- Node15 -->
<g id="node15" class="node">
<title>Node15</title>
<g id="a_node15"><a xlink:href="classGameControllerTriggerButton.html#a1c89ef4d420dfe360817c28bc1680c93" target="_top" xlink:title=" ">
<polygon fill="white" stroke="black" points="777,-147.5 777,-177.5 920,-177.5 920,-147.5 777,-147.5"/>
<text text-anchor="start" x="785" y="-165.5" font-family="Helvetica,sans-Serif" font-size="10.00">GameControllerTriggerButton</text>
<text text-anchor="middle" x="848.5" y="-154.5" font-family="Helvetica,sans-Serif" font-size="10.00">::readJoystickConfig</text>
</a>
</g>
</g>
<!-- Node10&#45;&gt;Node15 -->
<g id="edge19" class="edge">
<title>Node10&#45;&gt;Node15</title>
<path fill="none" stroke="midnightblue" d="M971.65,-159.4C954.79,-159.83 936.96,-160.28 920.27,-160.7"/>
<polygon fill="midnightblue" stroke="midnightblue" points="972.09,-162.89 981.99,-159.14 971.91,-155.89 972.09,-162.89"/>
</g>
<!-- Node12 -->
<g id="node12" class="node">
<title>Node12</title>
<g id="a_node12"><a xlink:href="classSetJoystickXml.html#aa95423a01fab878cbc69bffb7f6121f3" target="_top" xlink:title=" ">
<polygon fill="white" stroke="black" points="372.5,-245 372.5,-264 510.5,-264 510.5,-245 372.5,-245"/>
<text text-anchor="middle" x="441.5" y="-252" font-family="Helvetica,sans-Serif" font-size="10.00">SetJoystickXml::readConfig</text>
</a>
</g>
</g>
<!-- Node11&#45;&gt;Node12 -->
<g id="edge15" class="edge">
<title>Node11&#45;&gt;Node12</title>
<path fill="none" stroke="midnightblue" d="M772.56,-225.16C697.54,-231.83 583.12,-242 510.61,-248.45"/>
<polygon fill="midnightblue" stroke="midnightblue" points="773.23,-228.62 782.88,-224.24 772.61,-221.64 773.23,-228.62"/>
</g>
<!-- Node13 -->
<g id="node13" class="node">
<title>Node13</title>
<g id="a_node13"><a xlink:href="classJoyControlStick.html#ab6ce741115ee3d436c1a7e866abd21e6" target="_top" xlink:title="Take a XML stream and set the stick and direction button properties according to the values contained...">
<polygon fill="white" stroke="black" points="577,-264 577,-283 716,-283 716,-264 577,-264"/>
<text text-anchor="middle" x="646.5" y="-271" font-family="Helvetica,sans-Serif" font-size="10.00">JoyControlStick::readConfig</text>
</a>
</g>
</g>
<!-- Node11&#45;&gt;Node13 -->
<g id="edge16" class="edge">
<title>Node11&#45;&gt;Node13</title>
<path fill="none" stroke="midnightblue" d="M802.8,-230.79C766.38,-240.81 715.7,-254.74 682.27,-263.94"/>
<polygon fill="midnightblue" stroke="midnightblue" points="803.95,-234.11 812.66,-228.08 802.09,-227.36 803.95,-234.11"/>
</g>
<!-- Node14 -->
<g id="node14" class="node">
<title>Node14</title>
<g id="a_node14"><a xlink:href="classJoyDPadXml.html#ae9a3556242b984c81fc6945acafc5586" target="_top" xlink:title=" ">
<polygon fill="white" stroke="black" points="570.5,-176.5 570.5,-206.5 722.5,-206.5 722.5,-176.5 570.5,-176.5"/>
<text text-anchor="start" x="578.5" y="-194.5" font-family="Helvetica,sans-Serif" font-size="10.00">JoyDPadXml&lt; GameController</text>
<text text-anchor="middle" x="646.5" y="-183.5" font-family="Helvetica,sans-Serif" font-size="10.00">DPad &gt;::readMainConfig</text>
</a>
</g>
</g>
<!-- Node11&#45;&gt;Node14 -->
<g id="edge18" class="edge">
<title>Node11&#45;&gt;Node14</title>
<path fill="none" stroke="midnightblue" d="M772.8,-208.42C756.43,-206.21 739.11,-203.87 722.72,-201.66"/>
<polygon fill="midnightblue" stroke="midnightblue" points="772.46,-211.9 782.84,-209.77 773.4,-204.96 772.46,-211.9"/>
</g>
<!-- Node13&#45;&gt;Node12 -->
<g id="edge17" class="edge">
<title>Node13&#45;&gt;Node12</title>
<path fill="none" stroke="midnightblue" d="M566.66,-266.12C548.22,-264.4 528.74,-262.57 510.81,-260.89"/>
<polygon fill="midnightblue" stroke="midnightblue" points="566.49,-269.62 576.77,-267.07 567.14,-262.65 566.49,-269.62"/>
</g>
<!-- Node16 -->
<g id="node16" class="node">
<title>Node16</title>
<g id="a_node16"><a xlink:href="classGameControllerTriggerXml.html#a4578ad54daf8a24231e8b0e4e09f1587" target="_top" xlink:title=" ">
<polygon fill="white" stroke="black" points="581,-127.5 581,-157.5 712,-157.5 712,-127.5 581,-127.5"/>
<text text-anchor="start" x="589" y="-145.5" font-family="Helvetica,sans-Serif" font-size="10.00">GameControllerTriggerXml</text>
<text text-anchor="middle" x="646.5" y="-134.5" font-family="Helvetica,sans-Serif" font-size="10.00">::readJoystickConfig</text>
</a>
</g>
</g>
<!-- Node15&#45;&gt;Node16 -->
<g id="edge20" class="edge">
<title>Node15&#45;&gt;Node16</title>
<path fill="none" stroke="midnightblue" d="M766.95,-154.45C748.69,-152.62 729.53,-150.7 712.03,-148.95"/>
<polygon fill="midnightblue" stroke="midnightblue" points="766.69,-157.94 776.99,-155.45 767.39,-150.97 766.69,-157.94"/>
</g>
<!-- Node17 -->
<g id="node17" class="node">
<title>Node17</title>
<g id="a_node17"><a xlink:href="classGameControllerSet.html#a6b551139e353a654212d498309744025" target="_top" xlink:title=" ">
<polygon fill="white" stroke="black" points="388.5,-127.5 388.5,-157.5 494.5,-157.5 494.5,-127.5 388.5,-127.5"/>
<text text-anchor="start" x="396.5" y="-145.5" font-family="Helvetica,sans-Serif" font-size="10.00">GameControllerSet::</text>
<text text-anchor="middle" x="441.5" y="-134.5" font-family="Helvetica,sans-Serif" font-size="10.00">readJoystickConfig</text>
</a>
</g>
</g>
<!-- Node16&#45;&gt;Node17 -->
<g id="edge21" class="edge">
<title>Node16&#45;&gt;Node17</title>
<path fill="none" stroke="midnightblue" d="M570.7,-142.5C545.42,-142.5 517.77,-142.5 494.64,-142.5"/>
<polygon fill="midnightblue" stroke="midnightblue" points="570.99,-146 580.99,-142.5 570.99,-139 570.99,-146"/>
</g>
<!-- Node18 -->
<g id="node18" class="node">
<title>Node18</title>
<g id="a_node18"><a xlink:href="classGameControllerXml.html#aaa5257d4c6fe13f1d5fc51981e247c25" target="_top" xlink:title=" ">
<polygon fill="white" stroke="black" points="176,-127.5 176,-157.5 284,-157.5 284,-127.5 176,-127.5"/>
<text text-anchor="start" x="184" y="-145.5" font-family="Helvetica,sans-Serif" font-size="10.00">GameControllerXml::</text>
<text text-anchor="middle" x="230" y="-134.5" font-family="Helvetica,sans-Serif" font-size="10.00">readJoystickConfig</text>
</a>
</g>
</g>
<!-- Node17&#45;&gt;Node18 -->
<g id="edge22" class="edge">
<title>Node17&#45;&gt;Node18</title>
<path fill="none" stroke="midnightblue" d="M378.13,-142.5C348.25,-142.5 312.84,-142.5 284.25,-142.5"/>
<polygon fill="midnightblue" stroke="midnightblue" points="378.44,-146 388.44,-142.5 378.44,-139 378.44,-146"/>
</g>
<!-- Node19 -->
<g id="node19" class="node">
<title>Node19</title>
<g id="a_node19"><a xlink:href="classGameControllerXml.html#a7e47256cae0d3815419bc254413777d1" target="_top" xlink:title=" ">
<polygon fill="white" stroke="black" points="0,-127.5 0,-157.5 108,-157.5 108,-127.5 0,-127.5"/>
<text text-anchor="start" x="8" y="-145.5" font-family="Helvetica,sans-Serif" font-size="10.00">GameControllerXml::</text>
<text text-anchor="middle" x="54" y="-134.5" font-family="Helvetica,sans-Serif" font-size="10.00">readConfig</text>
</a>
</g>
</g>
<!-- Node18&#45;&gt;Node19 -->
<g id="edge23" class="edge">
<title>Node18&#45;&gt;Node19</title>
<path fill="none" stroke="midnightblue" d="M165.82,-142.5C146.9,-142.5 126.34,-142.5 108.13,-142.5"/>
<polygon fill="midnightblue" stroke="midnightblue" points="165.85,-146 175.85,-142.5 165.85,-139 165.85,-146"/>
</g>
<!-- Node20&#45;&gt;Node7 -->
<g id="edge25" class="edge">
<title>Node20&#45;&gt;Node7</title>
<path fill="none" stroke="midnightblue" d="M1171.65,-428.11C1151.73,-423.32 1130.29,-418.16 1110.97,-413.52"/>
<polygon fill="midnightblue" stroke="midnightblue" points="1171.06,-431.57 1181.61,-430.5 1172.7,-424.76 1171.06,-431.57"/>
</g>
<!-- Node20&#45;&gt;Node9 -->
<g id="edge26" class="edge">
<title>Node20&#45;&gt;Node9</title>
<path fill="none" stroke="midnightblue" d="M1165.16,-446.31C1151.68,-446.44 1137.71,-446.59 1124.32,-446.72"/>
<polygon fill="midnightblue" stroke="midnightblue" points="1165.39,-449.8 1175.35,-446.2 1165.31,-442.8 1165.39,-449.8"/>
</g>
<!-- Node21&#45;&gt;Node2 -->
<g id="edge28" class="edge">
<title>Node21&#45;&gt;Node2</title>
<path fill="none" stroke="midnightblue" d="M1167.79,-346.19C1151.49,-343.78 1134.34,-341.23 1118.3,-338.85"/>
<polygon fill="midnightblue" stroke="midnightblue" points="1167.41,-349.68 1177.81,-347.68 1168.43,-342.75 1167.41,-349.68"/>
</g>
<!-- Node22&#45;&gt;Node8 -->
<g id="edge30" class="edge">
<title>Node22&#45;&gt;Node8</title>
<path fill="none" stroke="midnightblue" d="M1172,-247.7C1153.42,-251.89 1133.5,-256.37 1115.2,-260.49"/>
<polygon fill="midnightblue" stroke="midnightblue" points="1172.89,-251.09 1181.87,-245.48 1171.35,-244.26 1172.89,-251.09"/>
</g>
<!-- Node23&#45;&gt;Node6 -->
<g id="edge32" class="edge">
<title>Node23&#45;&gt;Node6</title>
<path fill="none" stroke="midnightblue" d="M1221.17,-126.76C1197.58,-142.05 1159.32,-165.56 1124,-181.5 1116.07,-185.08 1107.47,-188.41 1099.01,-191.4"/>
<polygon fill="midnightblue" stroke="midnightblue" points="1223.3,-129.55 1229.75,-121.14 1219.46,-123.69 1223.3,-129.55"/>
</g>
<!-- Node23&#45;&gt;Node10 -->
<g id="edge39" class="edge">
<title>Node23&#45;&gt;Node10</title>
<path fill="none" stroke="midnightblue" d="M1193.59,-123.36C1168.85,-129.18 1138.77,-136.26 1112.43,-142.46"/>
<polygon fill="midnightblue" stroke="midnightblue" points="1194.56,-126.73 1203.49,-121.03 1192.96,-119.91 1194.56,-126.73"/>
</g>
<!-- Node24 -->
<g id="node24" class="node">
<title>Node24</title>
<g id="a_node24"><a xlink:href="classJoyButtonContextMenu.html#af87e510b98bc2c294281e7de7507c956" target="_top" xlink:title=" ">
<polygon fill="white" stroke="black" points="789,-98.5 789,-128.5 908,-128.5 908,-98.5 789,-98.5"/>
<text text-anchor="start" x="797" y="-116.5" font-family="Helvetica,sans-Serif" font-size="10.00">JoyButtonContextMenu</text>
<text text-anchor="middle" x="848.5" y="-105.5" font-family="Helvetica,sans-Serif" font-size="10.00">::disableSetMode</text>
</a>
</g>
</g>
<!-- Node23&#45;&gt;Node24 -->
<g id="edge33" class="edge">
<title>Node23&#45;&gt;Node24</title>
<path fill="none" stroke="midnightblue" d="M1149.46,-111.98C1074.43,-112.36 971.91,-112.88 908.25,-113.2"/>
<polygon fill="midnightblue" stroke="midnightblue" points="1149.87,-115.48 1159.85,-111.93 1149.84,-108.48 1149.87,-115.48"/>
</g>
<!-- Node23&#45;&gt;Node30 -->
<g id="edge40" class="edge">
<title>Node23&#45;&gt;Node30</title>
<path fill="none" stroke="midnightblue" d="M1189.7,-99.84C1164.04,-94.32 1133.35,-87.73 1107.15,-82.1"/>
<polygon fill="midnightblue" stroke="midnightblue" points="1189.13,-103.29 1199.64,-101.97 1190.6,-96.45 1189.13,-103.29"/>
</g>
<!-- Node23&#45;&gt;Node32 -->
<g id="edge43" class="edge">
<title>Node23&#45;&gt;Node32</title>
<path fill="none" stroke="midnightblue" d="M1220.32,-96.4C1196.63,-81.74 1158.8,-59.56 1124,-44.5 1116.55,-41.28 1108.53,-38.26 1100.59,-35.54"/>
<polygon fill="midnightblue" stroke="midnightblue" points="1218.64,-99.47 1228.97,-101.8 1222.35,-93.53 1218.64,-99.47"/>
</g>
<!-- Node25 -->
<g id="node25" class="node">
<title>Node25</title>
<g id="a_node25"><a xlink:href="classJoyButtonContextMenu.html#a6d0d9eb23e12fc8291d419ec0599971e" target="_top" xlink:title=" ">
<polygon fill="white" stroke="black" points="587,-56.5 587,-86.5 706,-86.5 706,-56.5 587,-56.5"/>
<text text-anchor="start" x="595" y="-74.5" font-family="Helvetica,sans-Serif" font-size="10.00">JoyButtonContextMenu</text>
<text text-anchor="middle" x="646.5" y="-63.5" font-family="Helvetica,sans-Serif" font-size="10.00">::buildMenu</text>
</a>
</g>
</g>
<!-- Node24&#45;&gt;Node25 -->
<g id="edge34" class="edge">
<title>Node24&#45;&gt;Node25</title>
<path fill="none" stroke="midnightblue" d="M778.88,-99.09C755.22,-94.12 728.95,-88.6 706.15,-83.82"/>
<polygon fill="midnightblue" stroke="midnightblue" points="778.34,-102.55 788.84,-101.18 779.78,-95.7 778.34,-102.55"/>
</g>
<!-- Node26 -->
<g id="node26" class="node">
<title>Node26</title>
<g id="a_node26"><a xlink:href="classJoyButtonWidget.html#a681d3c384a94a2febb23b1f733cfcbaf" target="_top" xlink:title=" ">
<polygon fill="white" stroke="black" points="352,-84 352,-103 531,-103 531,-84 352,-84"/>
<text text-anchor="middle" x="441.5" y="-91" font-family="Helvetica,sans-Serif" font-size="10.00">JoyButtonWidget::showContextMenu</text>
</a>
</g>
</g>
<!-- Node25&#45;&gt;Node26 -->
<g id="edge35" class="edge">
<title>Node25&#45;&gt;Node26</title>
<path fill="none" stroke="midnightblue" d="M576.63,-78.96C561.7,-80.58 545.71,-82.31 530.17,-84"/>
<polygon fill="midnightblue" stroke="midnightblue" points="577.22,-82.42 586.78,-77.86 576.47,-75.46 577.22,-82.42"/>
</g>
<!-- Node28 -->
<g id="node28" class="node">
<title>Node28</title>
<g id="a_node28"><a xlink:href="classJoyControlStickButtonPushButton.html#abde61056729a9ef096bc23ff81129ab6" target="_top" xlink:title=" ">
<polygon fill="white" stroke="black" points="373,-28.5 373,-58.5 510,-58.5 510,-28.5 373,-28.5"/>
<text text-anchor="start" x="381" y="-46.5" font-family="Helvetica,sans-Serif" font-size="10.00">JoyControlStickButtonPush</text>
<text text-anchor="middle" x="441.5" y="-35.5" font-family="Helvetica,sans-Serif" font-size="10.00">Button::showContextMenu</text>
</a>
</g>
</g>
<!-- Node25&#45;&gt;Node28 -->
<g id="edge37" class="edge">
<title>Node25&#45;&gt;Node28</title>
<path fill="none" stroke="midnightblue" d="M576.74,-62.02C555.2,-59.05 531.47,-55.77 510.02,-52.81"/>
<polygon fill="midnightblue" stroke="midnightblue" points="576.4,-65.5 586.78,-63.4 577.36,-58.57 576.4,-65.5"/>
</g>
<!-- Node27 -->
<g id="node27" class="node">
<title>Node27</title>
<g id="a_node27"><a xlink:href="classJoyButtonWidget.html#aeeb6cb187733cbf7c9f1c5a0fe8f7b34" target="_top" xlink:title=" ">
<polygon fill="white" stroke="black" points="159,-78.5 159,-108.5 301,-108.5 301,-78.5 159,-78.5"/>
<text text-anchor="start" x="167" y="-96.5" font-family="Helvetica,sans-Serif" font-size="10.00">JoyButtonWidget::JoyButton</text>
<text text-anchor="middle" x="230" y="-85.5" font-family="Helvetica,sans-Serif" font-size="10.00">Widget</text>
</a>
</g>
</g>
<!-- Node26&#45;&gt;Node27 -->
<g id="edge36" class="edge">
<title>Node26&#45;&gt;Node27</title>
<path fill="none" stroke="midnightblue" d="M341.56,-93.5C327.9,-93.5 314.12,-93.5 301.13,-93.5"/>
<polygon fill="midnightblue" stroke="midnightblue" points="341.96,-97 351.96,-93.5 341.96,-90 341.96,-97"/>
</g>
<!-- Node29 -->
<g id="node29" class="node">
<title>Node29</title>
<g id="a_node29"><a xlink:href="classJoyControlStickButtonPushButton.html#a5542b1bc905c0a35639b4731083852fa" target="_top" xlink:title=" ">
<polygon fill="white" stroke="black" points="144,-18 144,-59 316,-59 316,-18 144,-18"/>
<text text-anchor="start" x="152" y="-47" font-family="Helvetica,sans-Serif" font-size="10.00">JoyControlStickButtonPush</text>
<text text-anchor="start" x="152" y="-36" font-family="Helvetica,sans-Serif" font-size="10.00">Button::JoyControlStickButtonPush</text>
<text text-anchor="middle" x="230" y="-25" font-family="Helvetica,sans-Serif" font-size="10.00">Button</text>
</a>
</g>
</g>
<!-- Node28&#45;&gt;Node29 -->
<g id="edge38" class="edge">
<title>Node28&#45;&gt;Node29</title>
<path fill="none" stroke="midnightblue" d="M362.46,-41.64C347.35,-41.28 331.45,-40.9 316.13,-40.53"/>
<polygon fill="midnightblue" stroke="midnightblue" points="362.69,-45.14 372.77,-41.88 362.86,-38.15 362.69,-45.14"/>
</g>
<!-- Node31 -->
<g id="node31" class="node">
<title>Node31</title>
<g id="a_node31"><a xlink:href="classJoyButtonContextMenu.html#a4fdfe771c441058419ab8dcdc0a17574" target="_top" xlink:title=" ">
<polygon fill="white" stroke="black" points="789,-49.5 789,-79.5 908,-79.5 908,-49.5 789,-49.5"/>
<text text-anchor="start" x="797" y="-67.5" font-family="Helvetica,sans-Serif" font-size="10.00">JoyButtonContextMenu</text>
<text text-anchor="middle" x="848.5" y="-56.5" font-family="Helvetica,sans-Serif" font-size="10.00">::createActionForGroup</text>
</a>
</g>
</g>
<!-- Node30&#45;&gt;Node31 -->
<g id="edge41" class="edge">
<title>Node30&#45;&gt;Node31</title>
<path fill="none" stroke="midnightblue" d="M977.69,-67.75C955.02,-67.18 930.03,-66.54 908.19,-65.99"/>
<polygon fill="midnightblue" stroke="midnightblue" points="977.84,-71.26 987.93,-68.01 978.02,-64.26 977.84,-71.26"/>
</g>
<!-- Node31&#45;&gt;Node25 -->
<g id="edge42" class="edge">
<title>Node31&#45;&gt;Node25</title>
<path fill="none" stroke="midnightblue" d="M778.56,-66.91C754.98,-67.74 728.85,-68.65 706.15,-69.45"/>
<polygon fill="midnightblue" stroke="midnightblue" points="778.97,-70.4 788.84,-66.55 778.73,-63.4 778.97,-70.4"/>
</g>
<!-- Node33 -->
<g id="node33" class="node">
<title>Node33</title>
<g id="a_node33"><a xlink:href="classAdvanceButtonDialog.html#a4f9a1a007f50de1c3cca1403d08a0790" target="_top" xlink:title=" ">
<polygon fill="white" stroke="black" points="790.5,-0.5 790.5,-30.5 906.5,-30.5 906.5,-0.5 790.5,-0.5"/>
<text text-anchor="start" x="798.5" y="-18.5" font-family="Helvetica,sans-Serif" font-size="10.00">AdvanceButtonDialog</text>
<text text-anchor="middle" x="848.5" y="-7.5" font-family="Helvetica,sans-Serif" font-size="10.00">::AdvanceButtonDialog</text>
</a>
</g>
</g>
<!-- Node32&#45;&gt;Node33 -->
<g id="edge44" class="edge">
<title>Node32&#45;&gt;Node33</title>
<path fill="none" stroke="midnightblue" d="M982.18,-18.87C957.8,-18.25 930.23,-17.55 906.57,-16.95"/>
<polygon fill="midnightblue" stroke="midnightblue" points="982.32,-22.37 992.41,-19.13 982.5,-15.37 982.32,-22.37"/>
</g>
</g>
</svg>
        <g id="navigator" transform="translate(0 0)" fill="#404254">
                <rect fill="#f2f5e9" fill-opacity="0.5" stroke="#606060" stroke-width=".5" x="0" y="0" width="60" height="60"/>
                <use id="zoomplus" xlink:href="#zoomPlus" x="17" y="9" onmousedown="handleZoom(evt,'in')"/>
                <use id="zoomminus" xlink:href="#zoomMin" x="42" y="9" onmousedown="handleZoom(evt,'out')"/>
                <use id="reset" xlink:href="#resetDef" x="30" y="36" onmousedown="handleReset()"/>
                <g id="arrowUp" xlink:href="#dirArrow" transform="translate(30 24)" onmousedown="handlePan(0,-1)">
                  <use xlink:href="#rim" fill="#404040">
                        <set attributeName="fill" to="#808080" begin="arrowUp.mouseover" end="arrowUp.mouseout"/>
                  </use>
                  <path fill="none" stroke="white" stroke-width="1.5" d="M0,-3.0v7 M-2.5,-0.5L0,-3.0L2.5,-0.5"/>
                </g>
                <g id="arrowRight" xlink:href="#dirArrow" transform="rotate(90) translate(36 -43)" onmousedown="handlePan(1,0)">
                  <use xlink:href="#rim" fill="#404040">
                        <set attributeName="fill" to="#808080" begin="arrowRight.mouseover" end="arrowRight.mouseout"/>
                  </use>
                  <path fill="none" stroke="white" stroke-width="1.5" d="M0,-3.0v7 M-2.5,-0.5L0,-3.0L2.5,-0.5"/>
                </g>
                <g id="arrowDown" xlink:href="#dirArrow" transform="rotate(180) translate(-30 -48)" onmousedown="handlePan(0,1)">
                  <use xlink:href="#rim" fill="#404040">
                        <set attributeName="fill" to="#808080" begin="arrowDown.mouseover" end="arrowDown.mouseout"/>
                  </use>
                  <path fill="none" stroke="white" stroke-width="1.5" d="M0,-3.0v7 M-2.5,-0.5L0,-3.0L2.5,-0.5"/>
                </g>
                <g id="arrowLeft" xlink:href="#dirArrow" transform="rotate(270) translate(-36 17)" onmousedown="handlePan(-1,0)">
                  <use xlink:href="#rim" fill="#404040">
                        <set attributeName="fill" to="#808080" begin="arrowLeft.mouseover" end="arrowLeft.mouseout"/>
                  </use>
                  <path fill="none" stroke="white" stroke-width="1.5" d="M0,-3.0v7 M-2.5,-0.5L0,-3.0L2.5,-0.5"/>
                </g>
        </g>
        <svg viewBox="0 0 15 15" width="100%" height="30px" preserveAspectRatio="xMaxYMin meet">
         <g id="arrow_out" transform="scale(0.3 0.3)">
          <a xlink:href="classJoyButton_af7ffbb38754f3f898935e6cc975ebb6a_icgraph_org.svg" target="_base">
           <rect id="button" ry="5" rx="5" y="6" x="6" height="38" width="38"
                fill="#f2f5e9" fill-opacity="0.5" stroke="#606060" stroke-width="1.0"/>
           <path id="arrow"
             d="M 11.500037,31.436501 C 11.940474,20.09759 22.043105,11.32322 32.158766,21.979434 L 37.068811,17.246167 C 37.068811,17.246167 37.088388,32 37.088388,32 L 22.160133,31.978069 C 22.160133,31.978069 26.997745,27.140456 26.997745,27.140456 C 18.528582,18.264221 13.291696,25.230495 11.500037,31.436501 z"
             style="fill:#404040;"/>
          </a>
         </g>
        </svg>
</svg>
