<?xml version="1.0" encoding="UTF-8" standalone="no"?>
<!DOCTYPE svg PUBLIC "-//W3C//DTD SVG 1.1//EN"
 "http://www.w3.org/Graphics/SVG/1.1/DTD/svg11.dtd">
<!-- Generated by graphviz version 2.43.0 (0)
 -->
<!-- Title: MainSettingsDialog::refreshExtraMouseInfo Pages: 1 -->
<svg width="437pt" height="61pt"
 viewBox="0.00 0.00 437.00 61.00" xmlns="http://www.w3.org/2000/svg" xmlns:xlink="http://www.w3.org/1999/xlink">
<g id="graph0" class="graph" transform="scale(1 1) rotate(0) translate(4 57)">
<title>MainSettingsDialog::refreshExtraMouseInfo</title>
<polygon fill="white" stroke="transparent" points="-4,4 -4,-57 433,-57 433,4 -4,4"/>
<!-- Node1 -->
<g id="node1" class="node">
<title>Node1</title>
<g id="a_node1"><a xlink:title=" ">
<polygon fill="#bfbfbf" stroke="black" points="307,-22.5 307,-52.5 429,-52.5 429,-22.5 307,-22.5"/>
<text text-anchor="start" x="315" y="-40.5" font-family="Helvetica,sans-Serif" font-size="10.00">MainSettingsDialog</text>
<text text-anchor="middle" x="368" y="-29.5" font-family="Helvetica,sans-Serif" font-size="10.00">::refreshExtraMouseInfo</text>
</a>
</g>
</g>
<!-- Node2 -->
<g id="node2" class="node">
<title>Node2</title>
<g id="a_node2"><a xlink:href="classMainSettingsDialog.html#aeee272ff5482aca59310558ffdb9ebbe" target="_top" xlink:title=" ">
<polygon fill="white" stroke="black" points="0,-22.5 0,-52.5 107,-52.5 107,-22.5 0,-22.5"/>
<text text-anchor="start" x="8" y="-40.5" font-family="Helvetica,sans-Serif" font-size="10.00">MainSettingsDialog</text>
<text text-anchor="middle" x="53.5" y="-29.5" font-family="Helvetica,sans-Serif" font-size="10.00">::MainSettingsDialog</text>
</a>
</g>
</g>
<!-- Node1&#45;&gt;Node2 -->
<g id="edge1" class="edge">
<title>Node1&#45;&gt;Node2</title>
<path fill="none" stroke="midnightblue" d="M296.73,-39.95C288.06,-40.18 279.33,-40.37 271,-40.5 214.12,-41.39 199.88,-41.46 143,-40.5 131.47,-40.3 119.1,-39.97 107.37,-39.59"/>
<polygon fill="midnightblue" stroke="midnightblue" points="296.94,-43.44 306.83,-39.67 296.74,-36.45 296.94,-43.44"/>
</g>
<!-- Node3 -->
<g id="node3" class="node">
<title>Node3</title>
<g id="a_node3"><a xlink:href="classMainSettingsDialog.html#a6cf6a429394b9e95e342a4581611e465" target="_top" xlink:title=" ">
<polygon fill="white" stroke="black" points="143,-0.5 143,-30.5 271,-30.5 271,-0.5 143,-0.5"/>
<text text-anchor="start" x="151" y="-18.5" font-family="Helvetica,sans-Serif" font-size="10.00">MainSettingsDialog</text>
<text text-anchor="middle" x="207" y="-7.5" font-family="Helvetica,sans-Serif" font-size="10.00">::resetMouseAcceleration</text>
</a>
</g>
</g>
<!-- Node1&#45;&gt;Node3 -->
<g id="edge2" class="edge">
<title>Node1&#45;&gt;Node3</title>
<path fill="none" stroke="midnightblue" d="M296.9,-27.8C288.32,-26.61 279.58,-25.4 271.11,-24.23"/>
<polygon fill="midnightblue" stroke="midnightblue" points="296.5,-31.28 306.89,-29.18 297.46,-24.35 296.5,-31.28"/>
</g>
<!-- Node3&#45;&gt;Node2 -->
<g id="edge3" class="edge">
<title>Node3&#45;&gt;Node2</title>
<path fill="none" stroke="midnightblue" d="M132.57,-26.16C123.96,-27.41 115.31,-28.67 107.07,-29.87"/>
<polygon fill="midnightblue" stroke="midnightblue" points="133.23,-29.6 142.63,-24.7 132.23,-22.68 133.23,-29.6"/>
</g>
</g>
</svg>
