<?xml version="1.0" encoding="UTF-8" standalone="no"?>
<!DOCTYPE svg PUBLIC "-//W3C//DTD SVG 1.1//EN"
 "http://www.w3.org/Graphics/SVG/1.1/DTD/svg11.dtd">
<!-- Generated by graphviz version 2.43.0 (0)
 -->
<!-- Title: InputDevice::setDPadButtonName Pages: 1 -->
<svg width="760pt" height="91pt"
 viewBox="0.00 0.00 760.00 91.00" xmlns="http://www.w3.org/2000/svg" xmlns:xlink="http://www.w3.org/1999/xlink">
<g id="graph0" class="graph" transform="scale(1 1) rotate(0) translate(4 87)">
<title>InputDevice::setDPadButtonName</title>
<polygon fill="white" stroke="transparent" points="-4,4 -4,-87 756,-87 756,4 -4,4"/>
<!-- Node1 -->
<g id="node1" class="node">
<title>Node1</title>
<g id="a_node1"><a xlink:title=" ">
<polygon fill="#bfbfbf" stroke="black" points="584,-19.5 584,-38.5 752,-38.5 752,-19.5 584,-19.5"/>
<text text-anchor="middle" x="668" y="-26.5" font-family="Helvetica,sans-Serif" font-size="10.00">InputDevice::setDPadButtonName</text>
</a>
</g>
</g>
<!-- Node2 -->
<g id="node2" class="node">
<title>Node2</title>
<g id="a_node2"><a xlink:href="$classInputDeviceXml.html#a847bf9ed17b554bf87d513a1aebdcb64" xlink:title=" ">
<polygon fill="white" stroke="black" points="406,-63.5 406,-82.5 546,-82.5 546,-63.5 406,-63.5"/>
<text text-anchor="middle" x="476" y="-70.5" font-family="Helvetica,sans-Serif" font-size="10.00">InputDeviceXml::readConfig</text>
</a>
</g>
</g>
<!-- Node1&#45;&gt;Node2 -->
<g id="edge1" class="edge">
<title>Node1&#45;&gt;Node2</title>
<path fill="none" stroke="midnightblue" d="M615.72,-40.88C585.11,-47.96 546.76,-56.84 518.15,-63.47"/>
<polygon fill="midnightblue" stroke="midnightblue" points="616.82,-44.21 625.77,-38.55 615.24,-37.39 616.82,-44.21"/>
</g>
<!-- Node3 -->
<g id="node3" class="node">
<title>Node3</title>
<g id="a_node3"><a xlink:href="$classInputDevice.html#a1aed75415ee98b95e4c89647a9432afa" xlink:title=" ">
<polygon fill="white" stroke="black" points="404,-14 404,-44 548,-44 548,-14 404,-14"/>
<text text-anchor="start" x="412" y="-32" font-family="Helvetica,sans-Serif" font-size="10.00">InputDevice::updateSetDPad</text>
<text text-anchor="middle" x="476" y="-21" font-family="Helvetica,sans-Serif" font-size="10.00">ButtonNames</text>
</a>
</g>
</g>
<!-- Node1&#45;&gt;Node3 -->
<g id="edge2" class="edge">
<title>Node1&#45;&gt;Node3</title>
<path fill="none" stroke="midnightblue" d="M573.87,-22.25C565.27,-22.24 556.65,-22.3 548.29,-22.44"/>
<polygon fill="midnightblue" stroke="midnightblue" points="573.92,-25.75 583.94,-22.3 573.96,-18.75 573.92,-25.75"/>
</g>
<!-- Node3&#45;&gt;Node1 -->
<g id="edge6" class="edge">
<title>Node3&#45;&gt;Node1</title>
<path fill="none" stroke="midnightblue" d="M558.48,-35.69C566.92,-35.77 575.49,-35.77 583.94,-35.7"/>
<polygon fill="midnightblue" stroke="midnightblue" points="558.33,-32.19 548.29,-35.56 558.25,-39.19 558.33,-32.19"/>
</g>
<!-- Node4 -->
<g id="node4" class="node">
<title>Node4</title>
<g id="a_node4"><a xlink:href="$classInputDevice.html#a6ffcebba103a7db02e82c1c7f62387bf" xlink:title=" ">
<polygon fill="white" stroke="black" points="195,-19.5 195,-38.5 368,-38.5 368,-19.5 195,-19.5"/>
<text text-anchor="middle" x="281.5" y="-26.5" font-family="Helvetica,sans-Serif" font-size="10.00">InputDevice::enableSetConnections</text>
</a>
</g>
</g>
<!-- Node3&#45;&gt;Node4 -->
<g id="edge3" class="edge">
<title>Node3&#45;&gt;Node4</title>
<path fill="none" stroke="midnightblue" d="M393.63,-29C385.16,-29 376.53,-29 368.01,-29"/>
<polygon fill="midnightblue" stroke="midnightblue" points="393.87,-32.5 403.87,-29 393.87,-25.5 393.87,-32.5"/>
</g>
<!-- Node5 -->
<g id="node5" class="node">
<title>Node5</title>
<g id="a_node5"><a xlink:href="$classGameController.html#afcddb9dcc5442a9746c3ff8760ea1791" xlink:title=" ">
<polygon fill="white" stroke="black" points="0,-38.5 0,-57.5 159,-57.5 159,-38.5 0,-38.5"/>
<text text-anchor="middle" x="79.5" y="-45.5" font-family="Helvetica,sans-Serif" font-size="10.00">GameController::GameController</text>
</a>
</g>
</g>
<!-- Node4&#45;&gt;Node5 -->
<g id="edge4" class="edge">
<title>Node4&#45;&gt;Node5</title>
<path fill="none" stroke="midnightblue" d="M184.74,-38.1C176.14,-38.91 167.49,-39.74 159.05,-40.54"/>
<polygon fill="midnightblue" stroke="midnightblue" points="185.19,-41.57 194.81,-37.14 184.53,-34.6 185.19,-41.57"/>
</g>
<!-- Node6 -->
<g id="node6" class="node">
<title>Node6</title>
<g id="a_node6"><a xlink:href="$classJoystick.html#a9df5e53506876f3c95e84bdf6c9cbaf1" xlink:title=" ">
<polygon fill="white" stroke="black" points="32.5,-0.5 32.5,-19.5 126.5,-19.5 126.5,-0.5 32.5,-0.5"/>
<text text-anchor="middle" x="79.5" y="-7.5" font-family="Helvetica,sans-Serif" font-size="10.00">Joystick::Joystick</text>
</a>
</g>
</g>
<!-- Node4&#45;&gt;Node6 -->
<g id="edge5" class="edge">
<title>Node4&#45;&gt;Node6</title>
<path fill="none" stroke="midnightblue" d="M184.6,-19.89C164.39,-17.97 143.95,-16.03 126.6,-14.38"/>
<polygon fill="midnightblue" stroke="midnightblue" points="184.53,-23.4 194.81,-20.86 185.19,-16.43 184.53,-23.4"/>
</g>
</g>
</svg>
