<?xml version="1.0" encoding="UTF-8" standalone="no"?>
<!DOCTYPE svg PUBLIC "-//W3C//DTD SVG 1.1//EN"
 "http://www.w3.org/Graphics/SVG/1.1/DTD/svg11.dtd">
<!-- Generated by graphviz version 2.43.0 (0)
 -->
<!-- Title: JoyButton::isDefault Pages: 1 -->
<svg width="688pt" height="372pt"
 viewBox="0.00 0.00 688.00 372.01" xmlns="http://www.w3.org/2000/svg" xmlns:xlink="http://www.w3.org/1999/xlink">
<g id="graph0" class="graph" transform="scale(1 1) rotate(0) translate(4 368.01)">
<title>JoyButton::isDefault</title>
<polygon fill="white" stroke="transparent" points="-4,4 -4,-368.01 684,-368.01 684,4 -4,4"/>
<!-- Node1 -->
<g id="node1" class="node">
<title>Node1</title>
<g id="a_node1"><a xlink:title="Check if button properties are at their default values.">
<polygon fill="#bfbfbf" stroke="black" points="574,-214 574,-233 680,-233 680,-214 574,-214"/>
<text text-anchor="middle" x="627" y="-221" font-family="Helvetica,sans-Serif" font-size="10.00">JoyButton::isDefault</text>
</a>
</g>
</g>
<!-- Node2 -->
<g id="node2" class="node">
<title>Node2</title>
<g id="a_node2"><a xlink:href="$classJoyButton.html#a5f380246b40f29a3349500b8efc2f997" xlink:title="Copy assignments and properties from one button to another. Used for set copying.">
<polygon fill="white" stroke="black" points="393,-328 393,-347 538,-347 538,-328 393,-328"/>
<text text-anchor="middle" x="465.5" y="-335" font-family="Helvetica,sans-Serif" font-size="10.00">JoyButton::copyAssignments</text>
</a>
</g>
</g>
<!-- Node1&#45;&gt;Node2 -->
<g id="edge1" class="edge">
<title>Node1&#45;&gt;Node2</title>
<path fill="none" stroke="midnightblue" d="M614.13,-241.55C599.01,-263.11 570.87,-298.72 538,-318.5 531.62,-322.34 524.46,-325.42 517.2,-327.88"/>
<polygon fill="midnightblue" stroke="midnightblue" points="617.04,-243.49 619.79,-233.26 611.26,-239.55 617.04,-243.49"/>
</g>
<!-- Node7 -->
<g id="node7" class="node">
<title>Node7</title>
<g id="a_node7"><a xlink:href="$classJoyDPad.html#a47fdbc27e27a579c445487871d39d2bc" xlink:title=" ">
<polygon fill="white" stroke="black" points="414.5,-290 414.5,-309 516.5,-309 516.5,-290 414.5,-290"/>
<text text-anchor="middle" x="465.5" y="-297" font-family="Helvetica,sans-Serif" font-size="10.00">JoyDPad::isDefault</text>
</a>
</g>
</g>
<!-- Node1&#45;&gt;Node7 -->
<g id="edge9" class="edge">
<title>Node1&#45;&gt;Node7</title>
<path fill="none" stroke="midnightblue" d="M605.73,-239.28C588.55,-252 562.8,-269.51 538,-280.5 529.55,-284.25 520.19,-287.39 511.11,-289.97"/>
<polygon fill="midnightblue" stroke="midnightblue" points="608.01,-241.95 613.89,-233.13 603.8,-236.36 608.01,-241.95"/>
</g>
<!-- Node8 -->
<g id="node8" class="node">
<title>Node8</title>
<g id="a_node8"><a xlink:href="$classSetJoystick.html#a5de4017d04f877e12df92334f41d08f3" xlink:title=" ">
<polygon fill="white" stroke="black" points="210,-214 210,-233 334,-233 334,-214 210,-214"/>
<text text-anchor="middle" x="272" y="-221" font-family="Helvetica,sans-Serif" font-size="10.00">SetJoystick::isSetEmpty</text>
</a>
</g>
</g>
<!-- Node1&#45;&gt;Node8 -->
<g id="edge23" class="edge">
<title>Node1&#45;&gt;Node8</title>
<path fill="none" stroke="midnightblue" d="M563.85,-223.5C499.18,-223.5 398.53,-223.5 334.2,-223.5"/>
<polygon fill="midnightblue" stroke="midnightblue" points="563.91,-227 573.91,-223.5 563.91,-220 563.91,-227"/>
</g>
<!-- Node10 -->
<g id="node10" class="node">
<title>Node10</title>
<g id="a_node10"><a xlink:href="$classJoyAxis.html#ad614a1d4afe02119dfbd787ee89be66e" xlink:title=" ">
<polygon fill="white" stroke="black" points="417,-176 417,-195 514,-195 514,-176 417,-176"/>
<text text-anchor="middle" x="465.5" y="-183" font-family="Helvetica,sans-Serif" font-size="10.00">JoyAxis::isDefault</text>
</a>
</g>
</g>
<!-- Node1&#45;&gt;Node10 -->
<g id="edge13" class="edge">
<title>Node1&#45;&gt;Node10</title>
<path fill="none" stroke="midnightblue" d="M575.77,-211.53C553.41,-206.21 527.46,-200.02 506.46,-195.02"/>
<polygon fill="midnightblue" stroke="midnightblue" points="575.21,-215 585.75,-213.91 576.83,-208.19 575.21,-215"/>
</g>
<!-- Node13 -->
<g id="node13" class="node">
<title>Node13</title>
<g id="a_node13"><a xlink:href="$classJoyControlStick.html#a9a837b172199a2a1a0d9ffd811e1ca35" xlink:title=" ">
<polygon fill="white" stroke="black" points="400,-252 400,-271 531,-271 531,-252 400,-252"/>
<text text-anchor="middle" x="465.5" y="-259" font-family="Helvetica,sans-Serif" font-size="10.00">JoyControlStick::isDefault</text>
</a>
</g>
</g>
<!-- Node1&#45;&gt;Node13 -->
<g id="edge19" class="edge">
<title>Node1&#45;&gt;Node13</title>
<path fill="none" stroke="midnightblue" d="M575.77,-235.47C553.41,-240.79 527.46,-246.98 506.46,-251.98"/>
<polygon fill="midnightblue" stroke="midnightblue" points="576.83,-238.81 585.75,-233.09 575.21,-232 576.83,-238.81"/>
</g>
<!-- Node14 -->
<g id="node14" class="node">
<title>Node14</title>
<g id="a_node14"><a xlink:href="$classJoyControlStick.html#a3ab1764a44e806d2d3896023f82fa3b1" xlink:title="Write the status of the properties of a stick and direction buttons to an XML stream.">
<polygon fill="white" stroke="black" points="201.5,-138 201.5,-157 342.5,-157 342.5,-138 201.5,-138"/>
<text text-anchor="middle" x="272" y="-145" font-family="Helvetica,sans-Serif" font-size="10.00">JoyControlStick::writeConfig</text>
</a>
</g>
</g>
<!-- Node1&#45;&gt;Node14 -->
<g id="edge29" class="edge">
<title>Node1&#45;&gt;Node14</title>
<path fill="none" stroke="midnightblue" d="M607.36,-207.39C590.49,-193.84 564.31,-175.31 538,-166.5 474.25,-145.15 397.19,-141.95 342.65,-143.16"/>
<polygon fill="midnightblue" stroke="midnightblue" points="605.35,-210.27 615.29,-213.94 609.81,-204.87 605.35,-210.27"/>
</g>
<!-- Node15 -->
<g id="node15" class="node">
<title>Node15</title>
<g id="a_node15"><a xlink:href="$classJoyButtonXml.html#a766e87947104bfd54fc15b96b267ebdd" xlink:title=" ">
<polygon fill="white" stroke="black" points="398.5,-94 398.5,-113 532.5,-113 532.5,-94 398.5,-94"/>
<text text-anchor="middle" x="465.5" y="-101" font-family="Helvetica,sans-Serif" font-size="10.00">JoyButtonXml::writeConfig</text>
</a>
</g>
</g>
<!-- Node1&#45;&gt;Node15 -->
<g id="edge24" class="edge">
<title>Node1&#45;&gt;Node15</title>
<path fill="none" stroke="midnightblue" d="M612.5,-205.96C596.52,-186.16 568.23,-154.05 538,-133.5 525.42,-124.95 510.01,-118.1 496.73,-113.12"/>
<polygon fill="midnightblue" stroke="midnightblue" points="609.81,-208.19 618.76,-213.86 615.3,-203.85 609.81,-208.19"/>
</g>
<!-- Node3 -->
<g id="node3" class="node">
<title>Node3</title>
<g id="a_node3"><a xlink:href="$classJoyControlStick.html#a57b418a495a22ea5182e89ef4a6cf233" xlink:title="Copy slots from all stick buttons and properties from a stick onto another.">
<polygon fill="white" stroke="black" points="187,-290 187,-309 357,-309 357,-290 187,-290"/>
<text text-anchor="middle" x="272" y="-297" font-family="Helvetica,sans-Serif" font-size="10.00">JoyControlStick::copyAssignments</text>
</a>
</g>
</g>
<!-- Node2&#45;&gt;Node3 -->
<g id="edge2" class="edge">
<title>Node2&#45;&gt;Node3</title>
<path fill="none" stroke="midnightblue" d="M406.35,-325.96C379.04,-320.54 346.87,-314.16 320.98,-309.02"/>
<polygon fill="midnightblue" stroke="midnightblue" points="405.69,-329.4 416.18,-327.91 407.05,-322.53 405.69,-329.4"/>
</g>
<!-- Node4 -->
<g id="node4" class="node">
<title>Node4</title>
<g id="a_node4"><a xlink:href="$classSetJoystick.html#a36b0da099fef84270b6cc7c76741e689" xlink:title=" ">
<polygon fill="white" stroke="black" points="0,-309 0,-328 151,-328 151,-309 0,-309"/>
<text text-anchor="middle" x="75.5" y="-316" font-family="Helvetica,sans-Serif" font-size="10.00">SetJoystick::copyAssignments</text>
</a>
</g>
</g>
<!-- Node2&#45;&gt;Node4 -->
<g id="edge6" class="edge">
<title>Node2&#45;&gt;Node4</title>
<path fill="none" stroke="midnightblue" d="M410.95,-348.86C393.8,-351.99 374.68,-354.95 357,-356.5 281.73,-363.1 261.52,-368.96 187,-356.5 154.79,-351.12 119.39,-337.47 97.55,-328.09"/>
<polygon fill="midnightblue" stroke="midnightblue" points="411.62,-352.3 420.8,-347.01 410.32,-345.42 411.62,-352.3"/>
</g>
<!-- Node5 -->
<g id="node5" class="node">
<title>Node5</title>
<g id="a_node5"><a xlink:href="$classJoyDPad.html#ad7787a985beddc065f2818df29fd5b77" xlink:title=" ">
<polygon fill="white" stroke="black" points="201.5,-328 201.5,-347 342.5,-347 342.5,-328 201.5,-328"/>
<text text-anchor="middle" x="272" y="-335" font-family="Helvetica,sans-Serif" font-size="10.00">JoyDPad::copyAssignments</text>
</a>
</g>
</g>
<!-- Node2&#45;&gt;Node5 -->
<g id="edge4" class="edge">
<title>Node2&#45;&gt;Node5</title>
<path fill="none" stroke="midnightblue" d="M382.78,-337.5C369.4,-337.5 355.64,-337.5 342.59,-337.5"/>
<polygon fill="midnightblue" stroke="midnightblue" points="382.92,-341 392.92,-337.5 382.92,-334 382.92,-341"/>
</g>
<!-- Node6 -->
<g id="node6" class="node">
<title>Node6</title>
<g id="a_node6"><a xlink:href="$classJoyAxis.html#a854637def50e6ef091c87ee78e7dbb58" xlink:title=" ">
<polygon fill="white" stroke="black" points="204,-252 204,-271 340,-271 340,-252 204,-252"/>
<text text-anchor="middle" x="272" y="-259" font-family="Helvetica,sans-Serif" font-size="10.00">JoyAxis::copyAssignments</text>
</a>
</g>
</g>
<!-- Node2&#45;&gt;Node6 -->
<g id="edge7" class="edge">
<title>Node2&#45;&gt;Node6</title>
<path fill="none" stroke="midnightblue" d="M404.62,-324.32C400.58,-322.61 396.66,-320.68 393,-318.5 373,-306.62 377.22,-292.01 357,-280.5 350.24,-276.65 342.77,-273.59 335.14,-271.14"/>
<polygon fill="midnightblue" stroke="midnightblue" points="403.62,-327.69 414.22,-327.94 406.09,-321.14 403.62,-327.69"/>
</g>
<!-- Node3&#45;&gt;Node4 -->
<g id="edge3" class="edge">
<title>Node3&#45;&gt;Node4</title>
<path fill="none" stroke="midnightblue" d="M176.73,-308.71C168.1,-309.55 159.44,-310.4 151.03,-311.22"/>
<polygon fill="midnightblue" stroke="midnightblue" points="177.21,-312.18 186.82,-307.72 176.53,-305.21 177.21,-312.18"/>
</g>
<!-- Node5&#45;&gt;Node4 -->
<g id="edge5" class="edge">
<title>Node5&#45;&gt;Node4</title>
<path fill="none" stroke="midnightblue" d="M191.31,-329.72C178.07,-328.42 164.39,-327.09 151.28,-325.8"/>
<polygon fill="midnightblue" stroke="midnightblue" points="191.04,-333.21 201.33,-330.69 191.72,-326.24 191.04,-333.21"/>
</g>
<!-- Node6&#45;&gt;Node4 -->
<g id="edge8" class="edge">
<title>Node6&#45;&gt;Node4</title>
<path fill="none" stroke="midnightblue" d="M214.62,-273.36C205.35,-275.57 195.87,-277.98 187,-280.5 157.34,-288.93 123.94,-300.74 101.71,-308.95"/>
<polygon fill="midnightblue" stroke="midnightblue" points="215.61,-276.73 224.56,-271.06 214.03,-269.91 215.61,-276.73"/>
</g>
<!-- Node7&#45;&gt;Node5 -->
<g id="edge10" class="edge">
<title>Node7&#45;&gt;Node5</title>
<path fill="none" stroke="midnightblue" d="M406.35,-311.04C379.04,-316.46 346.87,-322.84 320.98,-327.98"/>
<polygon fill="midnightblue" stroke="midnightblue" points="407.05,-314.47 416.18,-309.09 405.69,-307.6 407.05,-314.47"/>
</g>
<!-- Node7&#45;&gt;Node8 -->
<g id="edge11" class="edge">
<title>Node7&#45;&gt;Node8</title>
<path fill="none" stroke="midnightblue" d="M404.62,-286.32C400.58,-284.61 396.66,-282.68 393,-280.5 373,-268.62 377.22,-254.01 357,-242.5 349.98,-238.51 342.19,-235.35 334.26,-232.86"/>
<polygon fill="midnightblue" stroke="midnightblue" points="403.62,-289.69 414.22,-289.94 406.09,-283.14 403.62,-289.69"/>
</g>
<!-- Node9 -->
<g id="node9" class="node">
<title>Node9</title>
<g id="a_node9"><a xlink:href="$classSetJoystickXml.html#a11eec051c05deac5ebe47b9582e83b6f" xlink:title=" ">
<polygon fill="white" stroke="black" points="5.5,-176 5.5,-195 145.5,-195 145.5,-176 5.5,-176"/>
<text text-anchor="middle" x="75.5" y="-183" font-family="Helvetica,sans-Serif" font-size="10.00">SetJoystickXml::writeConfig</text>
</a>
</g>
</g>
<!-- Node8&#45;&gt;Node9 -->
<g id="edge12" class="edge">
<title>Node8&#45;&gt;Node9</title>
<path fill="none" stroke="midnightblue" d="M212.19,-212.01C184.44,-206.59 151.71,-200.19 125.35,-195.04"/>
<polygon fill="midnightblue" stroke="midnightblue" points="211.68,-215.48 222.17,-213.96 213.03,-208.61 211.68,-215.48"/>
</g>
<!-- Node10&#45;&gt;Node6 -->
<g id="edge14" class="edge">
<title>Node10&#45;&gt;Node6</title>
<path fill="none" stroke="midnightblue" d="M440.78,-200.44C419.55,-213.23 387.19,-231.31 357,-242.5 346.91,-246.24 335.85,-249.38 325.16,-251.96"/>
<polygon fill="midnightblue" stroke="midnightblue" points="442.73,-203.35 449.43,-195.15 439.08,-197.38 442.73,-203.35"/>
</g>
<!-- Node10&#45;&gt;Node8 -->
<g id="edge15" class="edge">
<title>Node10&#45;&gt;Node8</title>
<path fill="none" stroke="midnightblue" d="M406.81,-196.95C379.36,-202.39 346.94,-208.83 320.88,-214"/>
<polygon fill="midnightblue" stroke="midnightblue" points="407.54,-200.37 416.67,-194.99 406.18,-193.5 407.54,-200.37"/>
</g>
<!-- Node11 -->
<g id="node11" class="node">
<title>Node11</title>
<g id="a_node11"><a xlink:href="$classGameControllerTriggerXml.html#a382a32a139351f790192dc0991dea637" xlink:title=" ">
<polygon fill="white" stroke="black" points="206.5,-88.5 206.5,-118.5 337.5,-118.5 337.5,-88.5 206.5,-88.5"/>
<text text-anchor="start" x="214.5" y="-106.5" font-family="Helvetica,sans-Serif" font-size="10.00">GameControllerTriggerXml</text>
<text text-anchor="middle" x="272" y="-95.5" font-family="Helvetica,sans-Serif" font-size="10.00">::writeConfig</text>
</a>
</g>
</g>
<!-- Node10&#45;&gt;Node11 -->
<g id="edge16" class="edge">
<title>Node10&#45;&gt;Node11</title>
<path fill="none" stroke="midnightblue" d="M440.22,-170.84C418.86,-158.37 386.63,-140.63 357,-128.5 348.13,-124.87 338.54,-121.51 329.11,-118.51"/>
<polygon fill="midnightblue" stroke="midnightblue" points="438.56,-173.92 448.95,-175.99 442.12,-167.89 438.56,-173.92"/>
</g>
<!-- Node12 -->
<g id="node12" class="node">
<title>Node12</title>
<g id="a_node12"><a xlink:href="$classJoyAxisXml.html#a044a6be446ab6cc4b6fcb359e0cef898" xlink:title=" ">
<polygon fill="white" stroke="black" points="209.5,-176 209.5,-195 334.5,-195 334.5,-176 209.5,-176"/>
<text text-anchor="middle" x="272" y="-183" font-family="Helvetica,sans-Serif" font-size="10.00">JoyAxisXml::writeConfig</text>
</a>
</g>
</g>
<!-- Node10&#45;&gt;Node12 -->
<g id="edge17" class="edge">
<title>Node10&#45;&gt;Node12</title>
<path fill="none" stroke="midnightblue" d="M406.5,-185.5C383.8,-185.5 357.72,-185.5 334.68,-185.5"/>
<polygon fill="midnightblue" stroke="midnightblue" points="406.67,-189 416.67,-185.5 406.67,-182 406.67,-189"/>
</g>
<!-- Node12&#45;&gt;Node9 -->
<g id="edge18" class="edge">
<title>Node12&#45;&gt;Node9</title>
<path fill="none" stroke="midnightblue" d="M199.31,-185.5C181.82,-185.5 163.14,-185.5 145.76,-185.5"/>
<polygon fill="midnightblue" stroke="midnightblue" points="199.46,-189 209.46,-185.5 199.46,-182 199.46,-189"/>
</g>
<!-- Node13&#45;&gt;Node3 -->
<g id="edge20" class="edge">
<title>Node13&#45;&gt;Node3</title>
<path fill="none" stroke="midnightblue" d="M406.35,-273.04C379.04,-278.46 346.87,-284.84 320.98,-289.98"/>
<polygon fill="midnightblue" stroke="midnightblue" points="407.05,-276.47 416.18,-271.09 405.69,-269.6 407.05,-276.47"/>
</g>
<!-- Node13&#45;&gt;Node8 -->
<g id="edge21" class="edge">
<title>Node13&#45;&gt;Node8</title>
<path fill="none" stroke="midnightblue" d="M406.35,-249.96C379.04,-244.54 346.87,-238.16 320.98,-233.02"/>
<polygon fill="midnightblue" stroke="midnightblue" points="405.69,-253.4 416.18,-251.91 407.05,-246.53 405.69,-253.4"/>
</g>
<!-- Node13&#45;&gt;Node14 -->
<g id="edge22" class="edge">
<title>Node13&#45;&gt;Node14</title>
<path fill="none" stroke="midnightblue" d="M443.05,-245.65C428.5,-234.6 409.08,-219.26 393,-204.5 375.86,-188.77 377.22,-178.01 357,-166.5 350.24,-162.65 342.77,-159.59 335.14,-157.14"/>
<polygon fill="midnightblue" stroke="midnightblue" points="441.3,-248.72 451.4,-251.93 445.51,-243.12 441.3,-248.72"/>
</g>
<!-- Node15&#45;&gt;Node9 -->
<g id="edge27" class="edge">
<title>Node15&#45;&gt;Node9</title>
<path fill="none" stroke="midnightblue" d="M429.86,-90.52C375.82,-72.39 269.14,-45.25 187,-78.5 137,-98.74 97.11,-153.66 82.5,-175.93"/>
<polygon fill="midnightblue" stroke="midnightblue" points="429.04,-93.93 439.63,-93.89 431.32,-87.32 429.04,-93.93"/>
</g>
<!-- Node15&#45;&gt;Node11 -->
<g id="edge25" class="edge">
<title>Node15&#45;&gt;Node11</title>
<path fill="none" stroke="midnightblue" d="M388.04,-103.5C371.31,-103.5 353.76,-103.5 337.56,-103.5"/>
<polygon fill="midnightblue" stroke="midnightblue" points="388.33,-107 398.33,-103.5 388.33,-100 388.33,-107"/>
</g>
<!-- Node15&#45;&gt;Node14 -->
<g id="edge28" class="edge">
<title>Node15&#45;&gt;Node14</title>
<path fill="none" stroke="midnightblue" d="M412.81,-115.38C381.96,-122.46 343.31,-131.34 314.47,-137.97"/>
<polygon fill="midnightblue" stroke="midnightblue" points="413.99,-118.7 422.95,-113.05 412.42,-111.88 413.99,-118.7"/>
</g>
<!-- Node16 -->
<g id="node16" class="node">
<title>Node16</title>
<g id="a_node16"><a xlink:href="$classJoyDPadXml.html#ac78c8fd1ad107f6a3baed4910863cb0c" xlink:title=" ">
<polygon fill="white" stroke="black" points="196,-0.5 196,-30.5 348,-30.5 348,-0.5 196,-0.5"/>
<text text-anchor="start" x="204" y="-18.5" font-family="Helvetica,sans-Serif" font-size="10.00">JoyDPadXml&lt; GameController</text>
<text text-anchor="middle" x="272" y="-7.5" font-family="Helvetica,sans-Serif" font-size="10.00">DPad &gt;::writeConfig</text>
</a>
</g>
</g>
<!-- Node15&#45;&gt;Node16 -->
<g id="edge26" class="edge">
<title>Node15&#45;&gt;Node16</title>
<path fill="none" stroke="midnightblue" d="M439.72,-88.73C418.27,-76.29 386.19,-58.5 357,-45.5 344.98,-40.15 331.68,-35.04 319.27,-30.61"/>
<polygon fill="midnightblue" stroke="midnightblue" points="438.1,-91.84 448.5,-93.87 441.63,-85.8 438.1,-91.84"/>
</g>
</g>
</svg>
