<?xml version="1.0" encoding="UTF-8" standalone="no"?>
<!DOCTYPE svg PUBLIC "-//W3C//DTD SVG 1.1//EN"
 "http://www.w3.org/Graphics/SVG/1.1/DTD/svg11.dtd">
<!-- Generated by graphviz version 2.43.0 (0)
 -->
<!-- Title: JoyAxisXml::readConfig Pages: 1 -->
<!--zoomable 735 -->
<svg id="main" version="1.1" xmlns="http://www.w3.org/2000/svg" xmlns:xlink="http://www.w3.org/1999/xlink" xml:space="preserve" onload="init(evt)">
<style type="text/css"><![CDATA[
.edge:hover path { stroke: red; }
.edge:hover polygon { stroke: red; fill: red; }
]]></style>
<script type="text/javascript"><![CDATA[
var edges = document.getElementsByTagName('g');
if (edges && edges.length) {
  for (var i=0;i<edges.length;i++) {
    if (edges[i].id.substr(0,4)=='edge') {
      edges[i].setAttribute('class','edge');
    }
  }
}
]]></script>
        <defs>
                <circle id="rim" cx="0" cy="0" r="7"/>
                <circle id="rim2" cx="0" cy="0" r="3.5"/>
                <g id="zoomPlus">
                        <use xlink:href="#rim" fill="#404040">
                                <set attributeName="fill" to="#808080" begin="zoomplus.mouseover" end="zoomplus.mouseout"/>
                        </use>
                        <path d="M-4,0h8M0,-4v8" fill="none" stroke="white" stroke-width="1.5" pointer-events="none"/>
                </g>
                <g id="zoomMin">
                        <use xlink:href="#rim" fill="#404040">
                                <set attributeName="fill" to="#808080" begin="zoomminus.mouseover" end="zoomminus.mouseout"/>
                        </use>
                        <path d="M-4,0h8" fill="none" stroke="white" stroke-width="1.5" pointer-events="none"/>
                </g>
                <g id="dirArrow">
                        <path fill="none" stroke="white" stroke-width="1.5" d="M0,-3.0v7 M-2.5,-0.5L0,-3.0L2.5,-0.5"/>
                </g>
               <g id="resetDef">
                       <use xlink:href="#rim2" fill="#404040">
                               <set attributeName="fill" to="#808080" begin="reset.mouseover" end="reset.mouseout"/>
                       </use>
               </g>
        </defs>

<script type="text/javascript">
var viewWidth = 1028;
var viewHeight = 735;
var sectionId = 'dynsection-4';
</script>
<script xlink:href="svgpan.js"/>
<svg id="graph" class="graph">
<g id="viewport">
<title>JoyAxisXml::readConfig</title>
<polygon fill="white" stroke="transparent" points="-4,4 -4,-730.55 1024,-730.55 1024,4 -4,4"/>
<!-- Node1 -->
<g id="node1" class="node">
<title>Node1</title>
<g id="a_node1"><a xlink:title=" ">
<polygon fill="#bfbfbf" stroke="black" points="0,-415 0,-434 122,-434 122,-415 0,-415"/>
<text text-anchor="middle" x="61" y="-422" font-family="Helvetica,sans-Serif" font-size="10.00">JoyAxisXml::readConfig</text>
</a>
</g>
</g>
<!-- Node2 -->
<g id="node2" class="node">
<title>Node2</title>
<g id="a_node2"><a xlink:href="classJoyAxis.html#aae658e2a7b83ce73ce3d7d1ed13eabc6" target="_top" xlink:title=" ">
<polygon fill="white" stroke="black" points="170.5,-491 170.5,-510 296.5,-510 296.5,-491 170.5,-491"/>
<text text-anchor="middle" x="233.5" y="-498" font-family="Helvetica,sans-Serif" font-size="10.00">JoyAxis::getNAxisButton</text>
</a>
</g>
</g>
<!-- Node1&#45;&gt;Node2 -->
<g id="edge1" class="edge">
<title>Node1&#45;&gt;Node2</title>
<path fill="none" stroke="midnightblue" d="M75.34,-434.11C93.31,-446.65 126.66,-468.52 158,-481.5 163.91,-483.95 170.21,-486.14 176.56,-488.1"/>
<polygon fill="midnightblue" stroke="midnightblue" points="175.94,-491.56 186.52,-490.97 177.88,-484.84 175.94,-491.56"/>
</g>
<!-- Node3 -->
<g id="node3" class="node">
<title>Node3</title>
<g id="a_node3"><a xlink:href="classJoyAxisButton.html#afcc96abd6132e97d0825bb94a52f342a" target="_top" xlink:title=" ">
<polygon fill="white" stroke="black" points="162,-453 162,-472 305,-472 305,-453 162,-453"/>
<text text-anchor="middle" x="233.5" y="-460" font-family="Helvetica,sans-Serif" font-size="10.00">JoyAxisButton::getXmlName</text>
</a>
</g>
</g>
<!-- Node1&#45;&gt;Node3 -->
<g id="edge2" class="edge">
<title>Node1&#45;&gt;Node3</title>
<path fill="none" stroke="midnightblue" d="M105.02,-434.09C127.73,-439.15 155.77,-445.4 179.77,-450.75"/>
<polygon fill="midnightblue" stroke="midnightblue" points="179.26,-454.22 189.79,-452.98 180.79,-447.39 179.26,-454.22"/>
</g>
<!-- Node4 -->
<g id="node4" class="node">
<title>Node4</title>
<g id="a_node4"><a xlink:href="classJoyAxis.html#a04c3b7b172ad46013382e36ad7b65691" target="_top" xlink:title=" ">
<polygon fill="white" stroke="black" points="176,-415 176,-434 291,-434 291,-415 176,-415"/>
<text text-anchor="middle" x="233.5" y="-422" font-family="Helvetica,sans-Serif" font-size="10.00">JoyAxis::getXmlName</text>
</a>
</g>
</g>
<!-- Node1&#45;&gt;Node4 -->
<g id="edge3" class="edge">
<title>Node1&#45;&gt;Node4</title>
<path fill="none" stroke="midnightblue" d="M122.11,-424.5C136.15,-424.5 151.19,-424.5 165.51,-424.5"/>
<polygon fill="midnightblue" stroke="midnightblue" points="165.79,-428 175.79,-424.5 165.79,-421 165.79,-428"/>
</g>
<!-- Node5 -->
<g id="node5" class="node">
<title>Node5</title>
<g id="a_node5"><a xlink:href="classJoyAxisXml.html#a100bfdebc33c9c7f3957a59febf3a1bd" target="_top" xlink:title=" ">
<polygon fill="white" stroke="black" points="158,-377 158,-396 309,-396 309,-377 158,-377"/>
<text text-anchor="middle" x="233.5" y="-384" font-family="Helvetica,sans-Serif" font-size="10.00">JoyAxisXml::readButtonConfig</text>
</a>
</g>
</g>
<!-- Node1&#45;&gt;Node5 -->
<g id="edge4" class="edge">
<title>Node1&#45;&gt;Node5</title>
<path fill="none" stroke="midnightblue" d="M105.02,-414.91C127.73,-409.85 155.77,-403.6 179.77,-398.25"/>
<polygon fill="midnightblue" stroke="midnightblue" points="180.79,-401.61 189.79,-396.02 179.26,-394.78 180.79,-401.61"/>
</g>
<!-- Node6 -->
<g id="node6" class="node">
<title>Node6</title>
<g id="a_node6"><a xlink:href="classJoyAxisXml.html#a722916013ad49036b2ad38ab8ec30484" target="_top" xlink:title=" ">
<polygon fill="white" stroke="black" points="162,-339 162,-358 305,-358 305,-339 162,-339"/>
<text text-anchor="middle" x="233.5" y="-346" font-family="Helvetica,sans-Serif" font-size="10.00">JoyAxisXml::readMainConfig</text>
</a>
</g>
</g>
<!-- Node1&#45;&gt;Node6 -->
<g id="edge5" class="edge">
<title>Node1&#45;&gt;Node6</title>
<path fill="none" stroke="midnightblue" d="M75.34,-414.89C93.31,-402.35 126.66,-380.48 158,-367.5 163.91,-365.05 170.21,-362.86 176.56,-360.9"/>
<polygon fill="midnightblue" stroke="midnightblue" points="177.88,-364.16 186.52,-358.03 175.94,-357.44 177.88,-364.16"/>
</g>
<!-- Node7 -->
<g id="node7" class="node">
<title>Node7</title>
<g id="a_node7"><a xlink:href="classJoyAxis.html#a06d99d722b314998440165a01b0f87b3" target="_top" xlink:title=" ">
<polygon fill="white" stroke="black" points="718,-600.5 718,-630.5 853,-630.5 853,-600.5 718,-600.5"/>
<text text-anchor="start" x="726" y="-618.5" font-family="Helvetica,sans-Serif" font-size="10.00">JoyAxis::calculateThrottled</text>
<text text-anchor="middle" x="785.5" y="-607.5" font-family="Helvetica,sans-Serif" font-size="10.00">Value</text>
</a>
</g>
</g>
<!-- Node6&#45;&gt;Node7 -->
<g id="edge6" class="edge">
<title>Node6&#45;&gt;Node7</title>
<path fill="none" stroke="midnightblue" d="M297.16,-358.18C301.57,-360.67 305.6,-363.74 309,-367.5 381.33,-447.51 263.91,-536.37 345,-607.5 453.52,-702.69 641.63,-661.58 732.46,-633.62"/>
<polygon fill="midnightblue" stroke="midnightblue" points="733.76,-636.88 742.25,-630.54 731.66,-630.2 733.76,-636.88"/>
</g>
<!-- Node10 -->
<g id="node10" class="node">
<title>Node10</title>
<g id="a_node10"><a xlink:href="classJoyAxis.html#a0580ab0df546a1c03b4e8f755ad00272" target="_top" xlink:title=" ">
<polygon fill="white" stroke="black" points="350.5,-503 350.5,-522 497.5,-522 497.5,-503 350.5,-503"/>
<text text-anchor="middle" x="424" y="-510" font-family="Helvetica,sans-Serif" font-size="10.00">JoyAxis::getCurrentRawValue</text>
</a>
</g>
</g>
<!-- Node6&#45;&gt;Node10 -->
<g id="edge9" class="edge">
<title>Node6&#45;&gt;Node10</title>
<path fill="none" stroke="midnightblue" d="M295.57,-358.12C300.5,-360.61 305.08,-363.69 309,-367.5 350.77,-408.09 303.01,-453.14 345,-493.5 346.51,-494.95 348.11,-496.29 349.78,-497.54"/>
<polygon fill="midnightblue" stroke="midnightblue" points="348.34,-500.77 358.7,-503 352,-494.79 348.34,-500.77"/>
</g>
<!-- Node11 -->
<g id="node11" class="node">
<title>Node11</title>
<g id="a_node11"><a xlink:href="classJoyAxis.html#a04bb9e15b6c99f5e5559b1804eac74c8" target="_top" xlink:title=" ">
<polygon fill="white" stroke="black" points="353,-453.5 353,-483.5 495,-483.5 495,-453.5 353,-453.5"/>
<text text-anchor="start" x="361" y="-471.5" font-family="Helvetica,sans-Serif" font-size="10.00">JoyAxis::getCurrentThrottled</text>
<text text-anchor="middle" x="424" y="-460.5" font-family="Helvetica,sans-Serif" font-size="10.00">DeadValue</text>
</a>
</g>
</g>
<!-- Node6&#45;&gt;Node11 -->
<g id="edge10" class="edge">
<title>Node6&#45;&gt;Node11</title>
<path fill="none" stroke="midnightblue" d="M293.45,-358.16C299.06,-360.62 304.36,-363.68 309,-367.5 337.85,-391.26 316.88,-418.87 345,-443.5 346.78,-445.06 348.66,-446.52 350.62,-447.9"/>
<polygon fill="midnightblue" stroke="midnightblue" points="349.27,-451.17 359.64,-453.35 352.89,-445.18 349.27,-451.17"/>
</g>
<!-- Node12 -->
<g id="node12" class="node">
<title>Node12</title>
<g id="a_node12"><a xlink:href="classJoyAxis.html#afddf7399e2086fda738fe588f5e7d7cd" target="_top" xlink:title=" ">
<polygon fill="white" stroke="black" points="376.5,-415 376.5,-434 471.5,-434 471.5,-415 376.5,-415"/>
<text text-anchor="middle" x="424" y="-422" font-family="Helvetica,sans-Serif" font-size="10.00">JoyAxis::getIndex</text>
</a>
</g>
</g>
<!-- Node6&#45;&gt;Node12 -->
<g id="edge11" class="edge">
<title>Node6&#45;&gt;Node12</title>
<path fill="none" stroke="midnightblue" d="M287.67,-358.11C295.11,-360.57 302.44,-363.65 309,-367.5 329.06,-379.28 324.88,-393.83 345,-405.5 351.7,-409.38 359.16,-412.48 366.74,-414.94"/>
<polygon fill="midnightblue" stroke="midnightblue" points="365.78,-418.31 376.36,-417.74 367.73,-411.58 365.78,-418.31"/>
</g>
<!-- Node13 -->
<g id="node13" class="node">
<title>Node13</title>
<g id="a_node13"><a xlink:href="classSetJoystick.html#af641cbddd22e358218ba68497e40e4e3" target="_top" xlink:title=" ">
<polygon fill="white" stroke="black" points="354.5,-377 354.5,-396 493.5,-396 493.5,-377 354.5,-377"/>
<text text-anchor="middle" x="424" y="-384" font-family="Helvetica,sans-Serif" font-size="10.00">SetJoystick::getInputDevice</text>
</a>
</g>
</g>
<!-- Node6&#45;&gt;Node13 -->
<g id="edge12" class="edge">
<title>Node6&#45;&gt;Node13</title>
<path fill="none" stroke="midnightblue" d="M282.07,-358.09C307.5,-363.22 339,-369.57 365.77,-374.96"/>
<polygon fill="midnightblue" stroke="midnightblue" points="365.28,-378.43 375.78,-376.98 366.66,-371.57 365.28,-378.43"/>
</g>
<!-- Node14 -->
<g id="node14" class="node">
<title>Node14</title>
<g id="a_node14"><a xlink:href="classJoyAxis.html#a12c4147c5f4a320aee710f8753263aa6" target="_top" xlink:title=" ">
<polygon fill="white" stroke="black" points="366.5,-339 366.5,-358 481.5,-358 481.5,-339 366.5,-339"/>
<text text-anchor="middle" x="424" y="-346" font-family="Helvetica,sans-Serif" font-size="10.00">JoyAxis::getParentSet</text>
</a>
</g>
</g>
<!-- Node6&#45;&gt;Node14 -->
<g id="edge13" class="edge">
<title>Node6&#45;&gt;Node14</title>
<path fill="none" stroke="midnightblue" d="M305.23,-348.5C321.92,-348.5 339.67,-348.5 356.19,-348.5"/>
<polygon fill="midnightblue" stroke="midnightblue" points="356.3,-352 366.3,-348.5 356.3,-345 356.3,-352"/>
</g>
<!-- Node15 -->
<g id="node15" class="node">
<title>Node15</title>
<g id="a_node15"><a xlink:href="classJoyAxis.html#a01dfb4ec2c2e85304a479f21b9cffe49" target="_top" xlink:title=" ">
<polygon fill="white" stroke="black" points="372,-301 372,-320 476,-320 476,-301 372,-301"/>
<text text-anchor="middle" x="424" y="-308" font-family="Helvetica,sans-Serif" font-size="10.00">JoyAxis::getThrottle</text>
</a>
</g>
</g>
<!-- Node6&#45;&gt;Node15 -->
<g id="edge14" class="edge">
<title>Node6&#45;&gt;Node15</title>
<path fill="none" stroke="midnightblue" d="M282.07,-338.91C307.5,-333.78 339,-327.43 365.77,-322.04"/>
<polygon fill="midnightblue" stroke="midnightblue" points="366.66,-325.43 375.78,-320.02 365.28,-318.57 366.66,-325.43"/>
</g>
<!-- Node16 -->
<g id="node16" class="node">
<title>Node16</title>
<g id="a_node16"><a xlink:href="classInputDevice.html#a2dca8e1dc3480828fde3b0fe2871fbc9" target="_top" xlink:title=" ">
<polygon fill="white" stroke="black" points="355.5,-202.5 355.5,-232.5 492.5,-232.5 492.5,-202.5 355.5,-202.5"/>
<text text-anchor="start" x="363.5" y="-220.5" font-family="Helvetica,sans-Serif" font-size="10.00">InputDevice::hasCalibration</text>
<text text-anchor="middle" x="424" y="-209.5" font-family="Helvetica,sans-Serif" font-size="10.00">Throttle</text>
</a>
</g>
</g>
<!-- Node6&#45;&gt;Node16 -->
<g id="edge15" class="edge">
<title>Node6&#45;&gt;Node16</title>
<path fill="none" stroke="midnightblue" d="M241.69,-338.97C257.86,-318.2 299.25,-268.54 345,-241.5 347.87,-239.81 350.86,-238.22 353.94,-236.74"/>
<polygon fill="midnightblue" stroke="midnightblue" points="355.63,-239.82 363.38,-232.59 352.82,-233.41 355.63,-239.82"/>
</g>
<!-- Node18 -->
<g id="node18" class="node">
<title>Node18</title>
<g id="a_node18"><a xlink:href="classJoyAxis.html#a084d8b9cc9e5142d58c24a14a86609bc" target="_top" xlink:title=" ">
<polygon fill="white" stroke="black" points="357,-164 357,-183 491,-183 491,-164 357,-164"/>
<text text-anchor="middle" x="424" y="-171" font-family="Helvetica,sans-Serif" font-size="10.00">JoyAxis::setAxisCenterCal</text>
</a>
</g>
</g>
<!-- Node6&#45;&gt;Node18 -->
<g id="edge17" class="edge">
<title>Node6&#45;&gt;Node18</title>
<path fill="none" stroke="midnightblue" d="M238.34,-338.99C249.92,-311.55 287.35,-231.67 345,-192.5 348.06,-190.42 351.33,-188.57 354.72,-186.92"/>
<polygon fill="midnightblue" stroke="midnightblue" points="356.12,-190.13 363.96,-183 353.39,-183.68 356.12,-190.13"/>
</g>
<!-- Node19 -->
<g id="node19" class="node">
<title>Node19</title>
<g id="a_node19"><a xlink:href="classJoyAxis.html#aab753bd485ff29063c90d37bdbd79328" target="_top" xlink:title=" ">
<polygon fill="white" stroke="black" points="361.5,-126 361.5,-145 486.5,-145 486.5,-126 361.5,-126"/>
<text text-anchor="middle" x="424" y="-133" font-family="Helvetica,sans-Serif" font-size="10.00">JoyAxis::setAxisMaxCal</text>
</a>
</g>
</g>
<!-- Node6&#45;&gt;Node19 -->
<g id="edge18" class="edge">
<title>Node6&#45;&gt;Node19</title>
<path fill="none" stroke="midnightblue" d="M237.1,-338.58C246.05,-306.45 278.77,-204.43 345,-154.5 347.48,-152.63 350.12,-150.94 352.87,-149.42"/>
<polygon fill="midnightblue" stroke="midnightblue" points="354.45,-152.54 361.99,-145.09 351.45,-146.22 354.45,-152.54"/>
</g>
<!-- Node20 -->
<g id="node20" class="node">
<title>Node20</title>
<g id="a_node20"><a xlink:href="classJoyAxis.html#a61fe6ae50c84ef21acffdfd6fa5072cf" target="_top" xlink:title=" ">
<polygon fill="white" stroke="black" points="363.5,-88 363.5,-107 484.5,-107 484.5,-88 363.5,-88"/>
<text text-anchor="middle" x="424" y="-95" font-family="Helvetica,sans-Serif" font-size="10.00">JoyAxis::setAxisMinCal</text>
</a>
</g>
</g>
<!-- Node6&#45;&gt;Node20 -->
<g id="edge19" class="edge">
<title>Node6&#45;&gt;Node20</title>
<path fill="none" stroke="midnightblue" d="M236.09,-338.74C242.47,-302.95 269.54,-177.85 345,-116.5 347.79,-114.23 350.81,-112.23 353.98,-110.46"/>
<polygon fill="midnightblue" stroke="midnightblue" points="355.72,-113.51 363.27,-106.07 352.73,-107.18 355.72,-113.51"/>
</g>
<!-- Node21 -->
<g id="node21" class="node">
<title>Node21</title>
<g id="a_node21"><a xlink:href="classInputDevice.html#adc85b0c774b371178623c1c84349ce24" target="_top" xlink:title=" ">
<polygon fill="white" stroke="black" points="357,-251.5 357,-281.5 491,-281.5 491,-251.5 357,-251.5"/>
<text text-anchor="start" x="365" y="-269.5" font-family="Helvetica,sans-Serif" font-size="10.00">InputDevice::setCalibration</text>
<text text-anchor="middle" x="424" y="-258.5" font-family="Helvetica,sans-Serif" font-size="10.00">Status</text>
</a>
</g>
</g>
<!-- Node6&#45;&gt;Node21 -->
<g id="edge20" class="edge">
<title>Node6&#45;&gt;Node21</title>
<path fill="none" stroke="midnightblue" d="M250.94,-338.92C272.17,-326.81 310.51,-305.81 345,-291.5 350.47,-289.23 356.22,-287.04 362.02,-284.96"/>
<polygon fill="midnightblue" stroke="midnightblue" points="363.49,-288.15 371.79,-281.57 361.2,-281.54 363.49,-288.15"/>
</g>
<!-- Node22 -->
<g id="node22" class="node">
<title>Node22</title>
<g id="a_node22"><a xlink:href="classJoyAxis.html#acb36ca26562c203a587fbb937f168200" target="_top" xlink:title=" ">
<polygon fill="white" stroke="black" points="712,-688 712,-707 859,-707 859,-688 712,-688"/>
<text text-anchor="middle" x="785.5" y="-695" font-family="Helvetica,sans-Serif" font-size="10.00">JoyAxis::setCurrentRawValue</text>
</a>
</g>
</g>
<!-- Node6&#45;&gt;Node22 -->
<g id="edge22" class="edge">
<title>Node6&#45;&gt;Node22</title>
<path fill="none" stroke="midnightblue" d="M297.25,-358.1C301.64,-360.61 305.64,-363.7 309,-367.5 392.7,-462.15 255.03,-560.79 345,-649.5 450.38,-753.41 646.35,-728.02 736.66,-709.16"/>
<polygon fill="midnightblue" stroke="midnightblue" points="737.58,-712.54 746.62,-707.02 736.11,-705.7 737.58,-712.54"/>
</g>
<!-- Node23 -->
<g id="node23" class="node">
<title>Node23</title>
<g id="a_node23"><a xlink:href="classJoyAxis.html#a368b17910df9a49089bd6f46cab2ff1c" target="_top" xlink:title=" ">
<polygon fill="white" stroke="black" points="366,-50 366,-69 482,-69 482,-50 366,-50"/>
<text text-anchor="middle" x="424" y="-57" font-family="Helvetica,sans-Serif" font-size="10.00">JoyAxis::setDeadZone</text>
</a>
</g>
</g>
<!-- Node6&#45;&gt;Node23 -->
<g id="edge25" class="edge">
<title>Node6&#45;&gt;Node23</title>
<path fill="none" stroke="midnightblue" d="M235.37,-338.83C239.45,-299.68 260.16,-151.52 345,-78.5 348.48,-75.5 352.36,-72.96 356.47,-70.81"/>
<polygon fill="midnightblue" stroke="midnightblue" points="358.06,-73.94 365.79,-66.7 355.23,-67.54 358.06,-73.94"/>
</g>
<!-- Node24 -->
<g id="node24" class="node">
<title>Node24</title>
<g id="a_node24"><a xlink:href="classJoyAxis.html#ad57d8fa2942d408ed534a348962ae72c" target="_top" xlink:title=" ">
<polygon fill="white" stroke="black" points="539,-527 539,-546 676,-546 676,-527 539,-527"/>
<text text-anchor="middle" x="607.5" y="-534" font-family="Helvetica,sans-Serif" font-size="10.00">JoyAxis::setMaxZoneValue</text>
</a>
</g>
</g>
<!-- Node6&#45;&gt;Node24 -->
<g id="edge26" class="edge">
<title>Node6&#45;&gt;Node24</title>
<path fill="none" stroke="midnightblue" d="M296.19,-358.06C300.92,-360.56 305.29,-363.66 309,-367.5 360.87,-421.15 287.3,-484.18 345,-531.5 408.46,-583.55 512.67,-564.59 568.45,-548.95"/>
<polygon fill="midnightblue" stroke="midnightblue" points="569.66,-552.24 578.28,-546.09 567.7,-545.52 569.66,-552.24"/>
</g>
<!-- Node25 -->
<g id="node25" class="node">
<title>Node25</title>
<g id="a_node25"><a xlink:href="classJoyAxis.html#aa4be4a311b6656e63eacfdde5ce6861a" target="_top" xlink:title="Set throttle value for axis.">
<polygon fill="white" stroke="black" points="372,-579 372,-598 476,-598 476,-579 372,-579"/>
<text text-anchor="middle" x="424" y="-586" font-family="Helvetica,sans-Serif" font-size="10.00">JoyAxis::setThrottle</text>
</a>
</g>
</g>
<!-- Node6&#45;&gt;Node25 -->
<g id="edge28" class="edge">
<title>Node6&#45;&gt;Node25</title>
<path fill="none" stroke="midnightblue" d="M296.68,-358.11C301.25,-360.61 305.45,-363.69 309,-367.5 369.73,-432.57 285.88,-497.97 345,-564.5 349.85,-569.96 355.92,-574.2 362.5,-577.48"/>
<polygon fill="midnightblue" stroke="midnightblue" points="361.17,-580.71 371.75,-581.38 363.9,-574.27 361.17,-580.71"/>
</g>
<!-- Node27 -->
<g id="node27" class="node">
<title>Node27</title>
<g id="a_node27"><a xlink:href="classJoyAxis.html#a91976d2688346e4270237afb57462dcf" target="_top" xlink:title=" ">
<polygon fill="white" stroke="black" points="345,-0.5 345,-30.5 503,-30.5 503,-0.5 345,-0.5"/>
<text text-anchor="start" x="353" y="-18.5" font-family="Helvetica,sans-Serif" font-size="10.00">JoyAxis::updateCurrentThrottled</text>
<text text-anchor="middle" x="424" y="-7.5" font-family="Helvetica,sans-Serif" font-size="10.00">Value</text>
</a>
</g>
</g>
<!-- Node6&#45;&gt;Node27 -->
<g id="edge33" class="edge">
<title>Node6&#45;&gt;Node27</title>
<path fill="none" stroke="midnightblue" d="M234.99,-338.85C237.66,-296.91 253.9,-128.53 345,-40.5 346.5,-39.05 348.07,-37.69 349.72,-36.41"/>
<polygon fill="midnightblue" stroke="midnightblue" points="352.06,-39.06 358.48,-30.63 348.2,-33.22 352.06,-39.06"/>
</g>
<!-- Node8 -->
<g id="node8" class="node">
<title>Node8</title>
<g id="a_node8"><a xlink:href="classJoyAxis.html#af3f311fbf20c583224c2320d1fda0226" target="_top" xlink:title=" ">
<polygon fill="white" stroke="black" points="895,-584 895,-603 1020,-603 1020,-584 895,-584"/>
<text text-anchor="middle" x="957.5" y="-591" font-family="Helvetica,sans-Serif" font-size="10.00">JoyAxis::getAxisMaxCal</text>
</a>
</g>
</g>
<!-- Node7&#45;&gt;Node8 -->
<g id="edge7" class="edge">
<title>Node7&#45;&gt;Node8</title>
<path fill="none" stroke="midnightblue" d="M853.2,-606.87C863.63,-605.52 874.45,-604.12 884.99,-602.75"/>
<polygon fill="midnightblue" stroke="midnightblue" points="885.51,-606.22 894.98,-601.46 884.61,-599.27 885.51,-606.22"/>
</g>
<!-- Node9 -->
<g id="node9" class="node">
<title>Node9</title>
<g id="a_node9"><a xlink:href="classJoyAxis.html#aff06f563278beb621285f65fb33b784a" target="_top" xlink:title=" ">
<polygon fill="white" stroke="black" points="897,-650 897,-669 1018,-669 1018,-650 897,-650"/>
<text text-anchor="middle" x="957.5" y="-657" font-family="Helvetica,sans-Serif" font-size="10.00">JoyAxis::getAxisMinCal</text>
</a>
</g>
</g>
<!-- Node7&#45;&gt;Node9 -->
<g id="edge8" class="edge">
<title>Node7&#45;&gt;Node9</title>
<path fill="none" stroke="midnightblue" d="M844.53,-630.52C865.84,-636.04 889.68,-642.2 909.86,-647.43"/>
<polygon fill="midnightblue" stroke="midnightblue" points="909.19,-650.87 919.75,-649.99 910.94,-644.09 909.19,-650.87"/>
</g>
<!-- Node17 -->
<g id="node17" class="node">
<title>Node17</title>
<g id="a_node17"><a xlink:href="classInputDevice.html#a7a7e979f61e7ad7ab12d32913004a81b" target="_top" xlink:title=" ">
<polygon fill="white" stroke="black" points="555,-233 555,-252 660,-252 660,-233 555,-233"/>
<text text-anchor="middle" x="607.5" y="-240" font-family="Helvetica,sans-Serif" font-size="10.00">InputDevice::getCali</text>
</a>
</g>
</g>
<!-- Node16&#45;&gt;Node17 -->
<g id="edge16" class="edge">
<title>Node16&#45;&gt;Node17</title>
<path fill="none" stroke="midnightblue" d="M492.58,-226.81C509.61,-229.15 527.8,-231.66 544.54,-233.97"/>
<polygon fill="midnightblue" stroke="midnightblue" points="544.36,-237.47 554.75,-235.37 545.32,-230.54 544.36,-237.47"/>
</g>
<!-- Node21&#45;&gt;Node17 -->
<g id="edge21" class="edge">
<title>Node21&#45;&gt;Node17</title>
<path fill="none" stroke="midnightblue" d="M491.04,-257.77C508.58,-255.45 527.45,-252.95 544.75,-250.67"/>
<polygon fill="midnightblue" stroke="midnightblue" points="545.28,-254.13 554.73,-249.35 544.36,-247.19 545.28,-254.13"/>
</g>
<!-- Node22&#45;&gt;Node8 -->
<g id="edge23" class="edge">
<title>Node22&#45;&gt;Node8</title>
<path fill="none" stroke="midnightblue" d="M802.19,-687.9C831.92,-669.72 896.65,-630.12 932.09,-608.43"/>
<polygon fill="midnightblue" stroke="midnightblue" points="934.15,-611.28 940.85,-603.07 930.49,-605.31 934.15,-611.28"/>
</g>
<!-- Node22&#45;&gt;Node9 -->
<g id="edge24" class="edge">
<title>Node22&#45;&gt;Node9</title>
<path fill="none" stroke="midnightblue" d="M829.4,-687.91C852.03,-682.85 880,-676.6 903.93,-671.25"/>
<polygon fill="midnightblue" stroke="midnightblue" points="904.91,-674.62 913.91,-669.02 903.39,-667.79 904.91,-674.62"/>
</g>
<!-- Node24&#45;&gt;Node8 -->
<g id="edge27" class="edge">
<title>Node24&#45;&gt;Node8</title>
<path fill="none" stroke="midnightblue" d="M666.75,-546.04C727.82,-556.04 823.7,-571.75 888.27,-582.32"/>
<polygon fill="midnightblue" stroke="midnightblue" points="887.92,-585.81 898.35,-583.98 889.05,-578.91 887.92,-585.81"/>
</g>
<!-- Node26 -->
<g id="node26" class="node">
<title>Node26</title>
<g id="a_node26"><a xlink:href="classJoyAxis.html#a211c80f9aa20fa22c8f91a5cdcb0831a" target="_top" xlink:title=" ">
<polygon fill="white" stroke="black" points="551.5,-579 551.5,-598 663.5,-598 663.5,-579 551.5,-579"/>
<text text-anchor="middle" x="607.5" y="-586" font-family="Helvetica,sans-Serif" font-size="10.00">JoyAxis::adjustRange</text>
</a>
</g>
</g>
<!-- Node25&#45;&gt;Node26 -->
<g id="edge29" class="edge">
<title>Node25&#45;&gt;Node26</title>
<path fill="none" stroke="midnightblue" d="M476.04,-588.5C496.32,-588.5 519.89,-588.5 541.37,-588.5"/>
<polygon fill="midnightblue" stroke="midnightblue" points="541.4,-592 551.4,-588.5 541.4,-585 541.4,-592"/>
</g>
<!-- Node26&#45;&gt;Node7 -->
<g id="edge30" class="edge">
<title>Node26&#45;&gt;Node7</title>
<path fill="none" stroke="midnightblue" d="M663.7,-596.97C677.63,-599.11 692.83,-601.44 707.61,-603.7"/>
<polygon fill="midnightblue" stroke="midnightblue" points="707.34,-607.2 717.75,-605.26 708.4,-600.28 707.34,-607.2"/>
</g>
<!-- Node26&#45;&gt;Node8 -->
<g id="edge31" class="edge">
<title>Node26&#45;&gt;Node8</title>
<path fill="none" stroke="midnightblue" d="M663.72,-589.03C714.48,-589.54 791.81,-590.41 859,-591.5 867.33,-591.64 876.07,-591.79 884.74,-591.96"/>
<polygon fill="midnightblue" stroke="midnightblue" points="884.8,-595.46 894.87,-592.16 884.94,-588.46 884.8,-595.46"/>
</g>
<!-- Node26&#45;&gt;Node9 -->
<g id="edge32" class="edge">
<title>Node26&#45;&gt;Node9</title>
<path fill="none" stroke="midnightblue" d="M623.18,-598.2C642.59,-610.46 678.29,-631.11 712,-640.5 769.34,-656.47 836.97,-660.66 886.55,-661.18"/>
<polygon fill="midnightblue" stroke="midnightblue" points="886.83,-664.68 896.85,-661.24 886.87,-657.68 886.83,-664.68"/>
</g>
</g>
</svg>
        <g id="navigator" transform="translate(0 0)" fill="#404254">
                <rect fill="#f2f5e9" fill-opacity="0.5" stroke="#606060" stroke-width=".5" x="0" y="0" width="60" height="60"/>
                <use id="zoomplus" xlink:href="#zoomPlus" x="17" y="9" onmousedown="handleZoom(evt,'in')"/>
                <use id="zoomminus" xlink:href="#zoomMin" x="42" y="9" onmousedown="handleZoom(evt,'out')"/>
                <use id="reset" xlink:href="#resetDef" x="30" y="36" onmousedown="handleReset()"/>
                <g id="arrowUp" xlink:href="#dirArrow" transform="translate(30 24)" onmousedown="handlePan(0,-1)">
                  <use xlink:href="#rim" fill="#404040">
                        <set attributeName="fill" to="#808080" begin="arrowUp.mouseover" end="arrowUp.mouseout"/>
                  </use>
                  <path fill="none" stroke="white" stroke-width="1.5" d="M0,-3.0v7 M-2.5,-0.5L0,-3.0L2.5,-0.5"/>
                </g>
                <g id="arrowRight" xlink:href="#dirArrow" transform="rotate(90) translate(36 -43)" onmousedown="handlePan(1,0)">
                  <use xlink:href="#rim" fill="#404040">
                        <set attributeName="fill" to="#808080" begin="arrowRight.mouseover" end="arrowRight.mouseout"/>
                  </use>
                  <path fill="none" stroke="white" stroke-width="1.5" d="M0,-3.0v7 M-2.5,-0.5L0,-3.0L2.5,-0.5"/>
                </g>
                <g id="arrowDown" xlink:href="#dirArrow" transform="rotate(180) translate(-30 -48)" onmousedown="handlePan(0,1)">
                  <use xlink:href="#rim" fill="#404040">
                        <set attributeName="fill" to="#808080" begin="arrowDown.mouseover" end="arrowDown.mouseout"/>
                  </use>
                  <path fill="none" stroke="white" stroke-width="1.5" d="M0,-3.0v7 M-2.5,-0.5L0,-3.0L2.5,-0.5"/>
                </g>
                <g id="arrowLeft" xlink:href="#dirArrow" transform="rotate(270) translate(-36 17)" onmousedown="handlePan(-1,0)">
                  <use xlink:href="#rim" fill="#404040">
                        <set attributeName="fill" to="#808080" begin="arrowLeft.mouseover" end="arrowLeft.mouseout"/>
                  </use>
                  <path fill="none" stroke="white" stroke-width="1.5" d="M0,-3.0v7 M-2.5,-0.5L0,-3.0L2.5,-0.5"/>
                </g>
        </g>
        <svg viewBox="0 0 15 15" width="100%" height="30px" preserveAspectRatio="xMaxYMin meet">
         <g id="arrow_out" transform="scale(0.3 0.3)">
          <a xlink:href="classJoyAxisXml_abfcf483748d22f52a9f76d2bf23e9a3d_cgraph_org.svg" target="_base">
           <rect id="button" ry="5" rx="5" y="6" x="6" height="38" width="38"
                fill="#f2f5e9" fill-opacity="0.5" stroke="#606060" stroke-width="1.0"/>
           <path id="arrow"
             d="M 11.500037,31.436501 C 11.940474,20.09759 22.043105,11.32322 32.158766,21.979434 L 37.068811,17.246167 C 37.068811,17.246167 37.088388,32 37.088388,32 L 22.160133,31.978069 C 22.160133,31.978069 26.997745,27.140456 26.997745,27.140456 C 18.528582,18.264221 13.291696,25.230495 11.500037,31.436501 z"
             style="fill:#404040;"/>
          </a>
         </g>
        </svg>
</svg>
