<?xml version="1.0" encoding="UTF-8" standalone="no"?>
<!DOCTYPE svg PUBLIC "-//W3C//DTD SVG 1.1//EN"
 "http://www.w3.org/Graphics/SVG/1.1/DTD/svg11.dtd">
<!-- Generated by graphviz version 2.43.0 (0)
 -->
<!-- Title: JoyTabWidget::saveDeviceSettings Pages: 1 -->
<svg width="709pt" height="154pt"
 viewBox="0.00 0.00 709.00 153.50" xmlns="http://www.w3.org/2000/svg" xmlns:xlink="http://www.w3.org/1999/xlink">
<g id="graph0" class="graph" transform="scale(1 1) rotate(0) translate(4 149.5)">
<title>JoyTabWidget::saveDeviceSettings</title>
<polygon fill="white" stroke="transparent" points="-4,4 -4,-149.5 705,-149.5 705,4 -4,4"/>
<!-- Node1 -->
<g id="node1" class="node">
<title>Node1</title>
<g id="a_node1"><a xlink:title=" ">
<polygon fill="#bfbfbf" stroke="black" points="0,-90 0,-120 136,-120 136,-90 0,-90"/>
<text text-anchor="start" x="8" y="-108" font-family="Helvetica,sans-Serif" font-size="10.00">JoyTabWidget::saveDevice</text>
<text text-anchor="middle" x="68" y="-97" font-family="Helvetica,sans-Serif" font-size="10.00">Settings</text>
</a>
</g>
</g>
<!-- Node2 -->
<g id="node2" class="node">
<title>Node2</title>
<g id="a_node2"><a xlink:href="classAntiMicroSettings.html#a4f172ffefe55eeba5afff3d54182f881" target="_top" xlink:title=" ">
<polygon fill="white" stroke="black" points="379.5,-115 379.5,-145 479.5,-145 479.5,-115 379.5,-115"/>
<text text-anchor="start" x="387.5" y="-133" font-family="Helvetica,sans-Serif" font-size="10.00">AntiMicroSettings::</text>
<text text-anchor="middle" x="429.5" y="-122" font-family="Helvetica,sans-Serif" font-size="10.00">getLock</text>
</a>
</g>
</g>
<!-- Node1&#45;&gt;Node2 -->
<g id="edge1" class="edge">
<title>Node1&#45;&gt;Node2</title>
<path fill="none" stroke="midnightblue" d="M136.2,-109.67C203.09,-114.33 304.79,-121.4 368.9,-125.86"/>
<polygon fill="midnightblue" stroke="midnightblue" points="369.02,-129.37 379.24,-126.57 369.51,-122.39 369.02,-129.37"/>
</g>
<!-- Node3 -->
<g id="node3" class="node">
<title>Node3</title>
<g id="a_node3"><a xlink:href="classJoyTabWidget.html#afdc2166911c519519a473818504da844" target="_top" xlink:title=" ">
<polygon fill="white" stroke="black" points="172,-76.5 172,-95.5 313,-95.5 313,-76.5 172,-76.5"/>
<text text-anchor="middle" x="242.5" y="-83.5" font-family="Helvetica,sans-Serif" font-size="10.00">JoyTabWidget::saveSettings</text>
</a>
</g>
</g>
<!-- Node1&#45;&gt;Node3 -->
<g id="edge2" class="edge">
<title>Node1&#45;&gt;Node3</title>
<path fill="none" stroke="midnightblue" d="M136.19,-97.6C144.62,-96.67 153.31,-95.71 161.9,-94.77"/>
<polygon fill="midnightblue" stroke="midnightblue" points="162.38,-98.24 171.94,-93.66 161.61,-91.28 162.38,-98.24"/>
</g>
<!-- Node3&#45;&gt;Node2 -->
<g id="edge3" class="edge">
<title>Node3&#45;&gt;Node2</title>
<path fill="none" stroke="midnightblue" d="M283.64,-95.55C308.63,-101.49 341.22,-109.24 369.15,-115.88"/>
<polygon fill="midnightblue" stroke="midnightblue" points="368.67,-119.37 379.21,-118.28 370.29,-112.56 368.67,-119.37"/>
</g>
<!-- Node4 -->
<g id="node4" class="node">
<title>Node4</title>
<g id="a_node4"><a xlink:href="namespacePadderCommon.html#aaa09739d2df84421a5a3467a06ce941c" target="_top" xlink:title="Returns the &quot;human&#45;readable&quot; name of the given profile.">
<polygon fill="white" stroke="black" points="349,-76.5 349,-95.5 510,-95.5 510,-76.5 349,-76.5"/>
<text text-anchor="middle" x="429.5" y="-83.5" font-family="Helvetica,sans-Serif" font-size="10.00">PadderCommon::getProfileName</text>
</a>
</g>
</g>
<!-- Node3&#45;&gt;Node4 -->
<g id="edge4" class="edge">
<title>Node3&#45;&gt;Node4</title>
<path fill="none" stroke="midnightblue" d="M313.18,-86C321.57,-86 330.23,-86 338.86,-86"/>
<polygon fill="midnightblue" stroke="midnightblue" points="338.95,-89.5 348.95,-86 338.95,-82.5 338.95,-89.5"/>
</g>
<!-- Node5 -->
<g id="node5" class="node">
<title>Node5</title>
<g id="a_node5"><a xlink:href="classInputDevice.html#a3184377c2e251949cae1a0937aaef78c" target="_top" xlink:title=" ">
<polygon fill="white" stroke="black" points="556.5,-38.5 556.5,-57.5 690.5,-57.5 690.5,-38.5 556.5,-38.5"/>
<text text-anchor="middle" x="623.5" y="-45.5" font-family="Helvetica,sans-Serif" font-size="10.00">InputDevice::getSDLName</text>
</a>
</g>
</g>
<!-- Node3&#45;&gt;Node5 -->
<g id="edge5" class="edge">
<title>Node3&#45;&gt;Node5</title>
<path fill="none" stroke="midnightblue" d="M290.07,-76.49C308.38,-73.04 329.61,-69.41 349,-67 415.36,-58.74 491.27,-53.83 546.25,-51.07"/>
<polygon fill="midnightblue" stroke="midnightblue" points="546.45,-54.57 556.26,-50.58 546.11,-47.57 546.45,-54.57"/>
</g>
<!-- Node6 -->
<g id="node6" class="node">
<title>Node6</title>
<g id="a_node6"><a xlink:href="classInputDevice.html#a894f087cdfe06136fade922ff053d522" target="_top" xlink:title=" ">
<polygon fill="white" stroke="black" points="353.5,-0.5 353.5,-19.5 505.5,-19.5 505.5,-0.5 353.5,-0.5"/>
<text text-anchor="middle" x="429.5" y="-7.5" font-family="Helvetica,sans-Serif" font-size="10.00">InputDevice::getStringIdentifier</text>
</a>
</g>
</g>
<!-- Node3&#45;&gt;Node6 -->
<g id="edge6" class="edge">
<title>Node3&#45;&gt;Node6</title>
<path fill="none" stroke="midnightblue" d="M260.65,-76.45C281.2,-65.27 316.9,-46.66 349,-34 359.79,-29.75 371.65,-25.8 382.84,-22.38"/>
<polygon fill="midnightblue" stroke="midnightblue" points="383.87,-25.72 392.45,-19.52 381.87,-19.01 383.87,-25.72"/>
</g>
<!-- Node6&#45;&gt;Node5 -->
<g id="edge7" class="edge">
<title>Node6&#45;&gt;Node5</title>
<path fill="none" stroke="midnightblue" d="M478.95,-19.59C504.97,-24.74 537.23,-31.12 564.57,-36.53"/>
<polygon fill="midnightblue" stroke="midnightblue" points="563.91,-39.97 574.4,-38.48 565.27,-33.1 563.91,-39.97"/>
</g>
<!-- Node7 -->
<g id="node7" class="node">
<title>Node7</title>
<g id="a_node7"><a xlink:href="classInputDevice.html#ad2d9a268b89898a0a29b56d7af63de9e" target="_top" xlink:title=" ">
<polygon fill="white" stroke="black" points="546,-0.5 546,-19.5 701,-19.5 701,-0.5 546,-0.5"/>
<text text-anchor="middle" x="623.5" y="-7.5" font-family="Helvetica,sans-Serif" font-size="10.00">InputDevice::getUniqueIDString</text>
</a>
</g>
</g>
<!-- Node6&#45;&gt;Node7 -->
<g id="edge8" class="edge">
<title>Node6&#45;&gt;Node7</title>
<path fill="none" stroke="midnightblue" d="M505.56,-10C515.5,-10 525.75,-10 535.86,-10"/>
<polygon fill="midnightblue" stroke="midnightblue" points="535.91,-13.5 545.91,-10 535.91,-6.5 535.91,-13.5"/>
</g>
</g>
</svg>
