<?xml version="1.0" encoding="UTF-8" standalone="no"?>
<!DOCTYPE svg PUBLIC "-//W3C//DTD SVG 1.1//EN"
 "http://www.w3.org/Graphics/SVG/1.1/DTD/svg11.dtd">
<!-- Generated by graphviz version 2.43.0 (0)
 -->
<!-- Title: JoyButton::joyEvent Pages: 1 -->
<svg width="1556pt" height="852pt"
 viewBox="0.00 0.00 1556.00 852.00" xmlns="http://www.w3.org/2000/svg" xmlns:xlink="http://www.w3.org/1999/xlink">
<g id="graph0" class="graph" transform="scale(1 1) rotate(0) translate(4 848)">
<title>JoyButton::joyEvent</title>
<polygon fill="white" stroke="transparent" points="-4,4 -4,-848 1552,-848 1552,4 -4,4"/>
<!-- Node1 -->
<g id="node1" class="node">
<title>Node1</title>
<g id="a_node1"><a xlink:title=" ">
<polygon fill="#bfbfbf" stroke="black" points="1444,-360 1444,-379 1548,-379 1548,-360 1444,-360"/>
<text text-anchor="middle" x="1496" y="-367" font-family="Helvetica,sans-Serif" font-size="10.00">JoyButton::joyEvent</text>
</a>
</g>
</g>
<!-- Node2 -->
<g id="node2" class="node">
<title>Node2</title>
<g id="a_node2"><a xlink:href="classJoyButton.html#a4acc0f1d2e12a34874522f558e1e9d3f" target="_top" xlink:title=" ">
<polygon fill="white" stroke="black" points="1264,-658.5 1264,-688.5 1399,-688.5 1399,-658.5 1264,-658.5"/>
<text text-anchor="start" x="1272" y="-676.5" font-family="Helvetica,sans-Serif" font-size="10.00">JoyButton::activatePending</text>
<text text-anchor="middle" x="1331.5" y="-665.5" font-family="Helvetica,sans-Serif" font-size="10.00">Event</text>
</a>
</g>
</g>
<!-- Node1&#45;&gt;Node2 -->
<g id="edge1" class="edge">
<title>Node1&#45;&gt;Node2</title>
<path fill="none" stroke="midnightblue" d="M1491.56,-389.11C1483.23,-432.37 1458.83,-537.92 1408,-610.5 1394.29,-630.08 1373,-647.08 1356.51,-658.48"/>
<polygon fill="midnightblue" stroke="midnightblue" points="1495.04,-389.54 1493.41,-379.07 1488.15,-388.27 1495.04,-389.54"/>
</g>
<!-- Node70 -->
<g id="node9" class="node">
<title>Node70</title>
<g id="a_node9"><a xlink:href="classJoyDPad.html#a1f5c5db45f36b205d1c4a43f1616950a" target="_top" xlink:title=" ">
<polygon fill="white" stroke="black" points="1262.5,-582 1262.5,-601 1400.5,-601 1400.5,-582 1262.5,-582"/>
<text text-anchor="middle" x="1331.5" y="-589" font-family="Helvetica,sans-Serif" font-size="10.00">JoyDPad::createDeskEvent</text>
</a>
</g>
</g>
<!-- Node1&#45;&gt;Node70 -->
<g id="edge8" class="edge">
<title>Node1&#45;&gt;Node70</title>
<path fill="none" stroke="midnightblue" d="M1484.99,-387.98C1469.79,-415.48 1439.31,-468.32 1408,-509.5 1386.68,-537.54 1357.52,-567.15 1342.44,-581.93"/>
<polygon fill="midnightblue" stroke="midnightblue" points="1488.14,-389.52 1489.88,-379.07 1482,-386.16 1488.14,-389.52"/>
</g>
<!-- Node81 -->
<g id="node15" class="node">
<title>Node81</title>
<g id="a_node15"><a xlink:href="classSetJoystick.html#aa93108aaa5ccbf15f1b56b22ec73798b" target="_top" xlink:title="Perform a release of all elements of a set. Stick and vdpad releases will be handled by the associate...">
<polygon fill="white" stroke="black" points="407,-488 407,-507 511,-507 511,-488 407,-488"/>
<text text-anchor="middle" x="459" y="-495" font-family="Helvetica,sans-Serif" font-size="10.00">SetJoystick::release</text>
</a>
</g>
</g>
<!-- Node1&#45;&gt;Node81 -->
<g id="edge43" class="edge">
<title>Node1&#45;&gt;Node81</title>
<path fill="none" stroke="midnightblue" d="M1484.2,-387.67C1469.87,-409.96 1442.33,-446.95 1408,-464.5 1301.83,-518.78 1260.74,-495.5 1141.5,-495.5 1141.5,-495.5 1141.5,-495.5 760.5,-495.5 672.85,-495.5 570.83,-496.36 511.04,-496.95"/>
<polygon fill="midnightblue" stroke="midnightblue" points="1487.21,-389.46 1489.52,-379.12 1481.27,-385.76 1487.21,-389.46"/>
</g>
<!-- Node91 -->
<g id="node25" class="node">
<title>Node91</title>
<g id="a_node25"><a xlink:href="classJoyAxis.html#a0e85739f3da15defbb1ad9ffb7def2d9" target="_top" xlink:title=" ">
<polygon fill="white" stroke="black" points="1074,-448 1074,-467 1207,-467 1207,-448 1074,-448"/>
<text text-anchor="middle" x="1140.5" y="-455" font-family="Helvetica,sans-Serif" font-size="10.00">JoyAxis::createDeskEvent</text>
</a>
</g>
</g>
<!-- Node1&#45;&gt;Node91 -->
<g id="edge28" class="edge">
<title>Node1&#45;&gt;Node91</title>
<path fill="none" stroke="midnightblue" d="M1479.55,-386.66C1463.49,-403.21 1436.72,-427.33 1408,-438.5 1343.04,-463.76 1262.53,-465.91 1207.1,-463.38"/>
<polygon fill="midnightblue" stroke="midnightblue" points="1482.24,-388.92 1486.54,-379.24 1477.14,-384.13 1482.24,-388.92"/>
</g>
<!-- Node95 -->
<g id="node28" class="node">
<title>Node95</title>
<g id="a_node28"><a xlink:href="classJoyControlStick.html#a18e586ffa9f2fc09004dd1ebc895b3a8" target="_top" xlink:title="Find the position of the two stick axes, deactivate no longer used stick direction button and then ac...">
<polygon fill="white" stroke="black" points="1069.5,-354.5 1069.5,-384.5 1211.5,-384.5 1211.5,-354.5 1069.5,-354.5"/>
<text text-anchor="start" x="1077.5" y="-372.5" font-family="Helvetica,sans-Serif" font-size="10.00">JoyControlStick::createDesk</text>
<text text-anchor="middle" x="1140.5" y="-361.5" font-family="Helvetica,sans-Serif" font-size="10.00">Event</text>
</a>
</g>
</g>
<!-- Node1&#45;&gt;Node95 -->
<g id="edge32" class="edge">
<title>Node1&#45;&gt;Node95</title>
<path fill="none" stroke="midnightblue" d="M1433.59,-369.5C1371.76,-369.5 1276.51,-369.5 1211.71,-369.5"/>
<polygon fill="midnightblue" stroke="midnightblue" points="1433.98,-373 1443.98,-369.5 1433.98,-366 1433.98,-373"/>
</g>
<!-- Node103 -->
<g id="node34" class="node">
<title>Node103</title>
<g id="a_node34"><a xlink:href="classJoyControlStick.html#a0bd5c24e572f9485780820d54f755b88" target="_top" xlink:title="Activate a stick direction button.">
<polygon fill="white" stroke="black" points="1269,-310.5 1269,-340.5 1394,-340.5 1394,-310.5 1269,-310.5"/>
<text text-anchor="start" x="1277" y="-328.5" font-family="Helvetica,sans-Serif" font-size="10.00">JoyControlStick::perform</text>
<text text-anchor="middle" x="1331.5" y="-317.5" font-family="Helvetica,sans-Serif" font-size="10.00">ButtonPress</text>
</a>
</g>
</g>
<!-- Node1&#45;&gt;Node103 -->
<g id="edge39" class="edge">
<title>Node1&#45;&gt;Node103</title>
<path fill="none" stroke="midnightblue" d="M1450.06,-357.33C1430.9,-352.14 1408.34,-346.04 1388.14,-340.57"/>
<polygon fill="midnightblue" stroke="midnightblue" points="1449.17,-360.72 1459.74,-359.95 1451,-353.96 1449.17,-360.72"/>
</g>
<!-- Node104 -->
<g id="node35" class="node">
<title>Node104</title>
<g id="a_node35"><a xlink:href="classJoyControlStick.html#a32b6c7a796ec7b24e9c0124a6bcffd2e" target="_top" xlink:title="Stick direction button to release.">
<polygon fill="white" stroke="black" points="1269,-398.5 1269,-428.5 1394,-428.5 1394,-398.5 1269,-398.5"/>
<text text-anchor="start" x="1277" y="-416.5" font-family="Helvetica,sans-Serif" font-size="10.00">JoyControlStick::perform</text>
<text text-anchor="middle" x="1331.5" y="-405.5" font-family="Helvetica,sans-Serif" font-size="10.00">ButtonRelease</text>
</a>
</g>
</g>
<!-- Node1&#45;&gt;Node104 -->
<g id="edge41" class="edge">
<title>Node1&#45;&gt;Node104</title>
<path fill="none" stroke="midnightblue" d="M1450.06,-381.67C1430.9,-386.86 1408.34,-392.96 1388.14,-398.43"/>
<polygon fill="midnightblue" stroke="midnightblue" points="1451,-385.04 1459.74,-379.05 1449.17,-378.28 1451,-385.04"/>
</g>
<!-- Node105 -->
<g id="node36" class="node">
<title>Node105</title>
<g id="a_node36"><a xlink:href="classJoyControlStick.html#a295a9b9b1a5c4d3a49c9d9697a9527e0" target="_top" xlink:title=" ">
<polygon fill="white" stroke="black" points="1270,-182.5 1270,-212.5 1393,-212.5 1393,-182.5 1270,-182.5"/>
<text text-anchor="start" x="1278" y="-200.5" font-family="Helvetica,sans-Serif" font-size="10.00">JoyControlStick::release</text>
<text text-anchor="middle" x="1331.5" y="-189.5" font-family="Helvetica,sans-Serif" font-size="10.00">ButtonEvents</text>
</a>
</g>
</g>
<!-- Node1&#45;&gt;Node105 -->
<g id="edge44" class="edge">
<title>Node1&#45;&gt;Node105</title>
<path fill="none" stroke="midnightblue" d="M1488.36,-350.26C1476.78,-319.44 1450.03,-258.97 1408,-224.5 1402.3,-219.82 1395.72,-215.92 1388.87,-212.68"/>
<polygon fill="midnightblue" stroke="midnightblue" points="1485.13,-351.62 1491.82,-359.83 1491.71,-349.24 1485.13,-351.62"/>
</g>
<!-- Node118 -->
<g id="node46" class="node">
<title>Node118</title>
<g id="a_node46"><a xlink:href="classJoyDPad.html#aa20b65bef79d9e80894a9be835b441c1" target="_top" xlink:title=" ">
<polygon fill="white" stroke="black" points="1255,-79 1255,-98 1408,-98 1408,-79 1255,-79"/>
<text text-anchor="middle" x="1331.5" y="-86" font-family="Helvetica,sans-Serif" font-size="10.00">JoyDPad::releaseButtonEvents</text>
</a>
</g>
</g>
<!-- Node1&#45;&gt;Node118 -->
<g id="edge58" class="edge">
<title>Node1&#45;&gt;Node118</title>
<path fill="none" stroke="midnightblue" d="M1488.74,-350.09C1476.47,-313.56 1447.01,-232.82 1408,-172.5 1388.73,-142.7 1358.97,-113.05 1343.18,-98.23"/>
<polygon fill="midnightblue" stroke="midnightblue" points="1485.53,-351.54 1491.99,-359.94 1492.18,-349.35 1485.53,-351.54"/>
</g>
<!-- Node121 -->
<g id="node49" class="node">
<title>Node121</title>
<g id="a_node49"><a xlink:href="classJoyAxis.html#a8df3e761cbf9876ab5a3db30c1a02fc3" target="_top" xlink:title=" ">
<polygon fill="white" stroke="black" points="1268.5,-234 1268.5,-253 1394.5,-253 1394.5,-234 1268.5,-234"/>
<text text-anchor="middle" x="1331.5" y="-241" font-family="Helvetica,sans-Serif" font-size="10.00">JoyAxis::removeVDPads</text>
</a>
</g>
</g>
<!-- Node1&#45;&gt;Node121 -->
<g id="edge61" class="edge">
<title>Node1&#45;&gt;Node121</title>
<path fill="none" stroke="midnightblue" d="M1484.97,-350.86C1470.98,-326.7 1443.31,-285 1408,-262.5 1401.96,-258.65 1395.18,-255.58 1388.24,-253.13"/>
<polygon fill="midnightblue" stroke="midnightblue" points="1482.01,-352.75 1489.96,-359.76 1488.12,-349.32 1482.01,-352.75"/>
</g>
<!-- Node122 -->
<g id="node50" class="node">
<title>Node122</title>
<g id="a_node50"><a xlink:href="classJoyButton.html#ad152d22f7f7d8ea561f363d43903e059" target="_top" xlink:title=" ">
<polygon fill="white" stroke="black" points="1275.5,-272 1275.5,-291 1387.5,-291 1387.5,-272 1275.5,-272"/>
<text text-anchor="middle" x="1331.5" y="-279" font-family="Helvetica,sans-Serif" font-size="10.00">JoyButton::setVDPad</text>
</a>
</g>
</g>
<!-- Node1&#45;&gt;Node122 -->
<g id="edge63" class="edge">
<title>Node1&#45;&gt;Node122</title>
<path fill="none" stroke="midnightblue" d="M1478.56,-352.87C1462.09,-337.14 1435.33,-313.99 1408,-300.5 1400.24,-296.67 1391.65,-293.57 1383.11,-291.07"/>
<polygon fill="midnightblue" stroke="midnightblue" points="1476.18,-355.44 1485.77,-359.92 1481.07,-350.43 1476.18,-355.44"/>
</g>
<!-- Node3 -->
<g id="node3" class="node">
<title>Node3</title>
<g id="a_node3"><a xlink:href="classInputDevice.html#af5f9f9065334b90aa45d4c86a63337f1" target="_top" xlink:title=" ">
<polygon fill="white" stroke="black" points="1067.5,-720.5 1067.5,-750.5 1213.5,-750.5 1213.5,-720.5 1067.5,-720.5"/>
<text text-anchor="start" x="1075.5" y="-738.5" font-family="Helvetica,sans-Serif" font-size="10.00">InputDevice::activatePossible</text>
<text text-anchor="middle" x="1140.5" y="-727.5" font-family="Helvetica,sans-Serif" font-size="10.00">ButtonEvents</text>
</a>
</g>
</g>
<!-- Node2&#45;&gt;Node3 -->
<g id="edge2" class="edge">
<title>Node2&#45;&gt;Node3</title>
<path fill="none" stroke="midnightblue" d="M1275.14,-691.66C1247.29,-700.8 1213.91,-711.75 1187.49,-720.41"/>
<polygon fill="midnightblue" stroke="midnightblue" points="1276.34,-694.95 1284.75,-688.51 1274.16,-688.3 1276.34,-694.95"/>
</g>
<!-- Node4 -->
<g id="node4" class="node">
<title>Node4</title>
<g id="a_node4"><a xlink:href="classInputDevice.html#a65bcbfa6997970fff86e72e3a13167e0" target="_top" xlink:title=" ">
<polygon fill="white" stroke="black" points="875,-764.5 875,-794.5 1021,-794.5 1021,-764.5 875,-764.5"/>
<text text-anchor="start" x="883" y="-782.5" font-family="Helvetica,sans-Serif" font-size="10.00">InputDevice::activatePossible</text>
<text text-anchor="middle" x="948" y="-771.5" font-family="Helvetica,sans-Serif" font-size="10.00">PendingEvents</text>
</a>
</g>
</g>
<!-- Node3&#45;&gt;Node4 -->
<g id="edge3" class="edge">
<title>Node3&#45;&gt;Node4</title>
<path fill="none" stroke="midnightblue" d="M1064.27,-752.88C1047.66,-756.71 1030.21,-760.74 1014.06,-764.47"/>
<polygon fill="midnightblue" stroke="midnightblue" points="1065.52,-756.18 1074.47,-750.52 1063.94,-749.36 1065.52,-756.18"/>
</g>
<!-- Node5 -->
<g id="node5" class="node">
<title>Node5</title>
<g id="a_node5"><a xlink:href="classInputDevice.html#ac34e93b3e44b08cffb86551e15bedfb4" target="_top" xlink:title=" ">
<polygon fill="white" stroke="red" points="882.5,-726 882.5,-745 1013.5,-745 1013.5,-726 882.5,-726"/>
<text text-anchor="middle" x="948" y="-733" font-family="Helvetica,sans-Serif" font-size="10.00">InputDevice::reInitButtons</text>
</a>
</g>
</g>
<!-- Node3&#45;&gt;Node5 -->
<g id="edge4" class="edge">
<title>Node3&#45;&gt;Node5</title>
<path fill="none" stroke="midnightblue" d="M1057.42,-735.5C1042.77,-735.5 1027.69,-735.5 1013.61,-735.5"/>
<polygon fill="midnightblue" stroke="midnightblue" points="1057.48,-739 1067.48,-735.5 1057.48,-732 1057.48,-739"/>
</g>
<!-- Node11 -->
<g id="node7" class="node">
<title>Node11</title>
<g id="a_node7"><a xlink:href="classInputDaemon.html#a0cf6bcd3287d97d75c32a3921c633a7a" target="_top" xlink:title=" ">
<polygon fill="white" stroke="red" points="870,-688 870,-707 1026,-707 1026,-688 870,-688"/>
<text text-anchor="middle" x="948" y="-695" font-family="Helvetica,sans-Serif" font-size="10.00">InputDaemon::secondInputPass</text>
</a>
</g>
</g>
<!-- Node3&#45;&gt;Node11 -->
<g id="edge6" class="edge">
<title>Node3&#45;&gt;Node11</title>
<path fill="none" stroke="midnightblue" d="M1057.42,-719.13C1036.76,-715 1015.25,-710.71 996.89,-707.05"/>
<polygon fill="midnightblue" stroke="midnightblue" points="1056.99,-722.61 1067.48,-721.13 1058.36,-715.75 1056.99,-722.61"/>
</g>
<!-- Node14 -->
<g id="node8" class="node">
<title>Node14</title>
<g id="a_node8"><a xlink:href="classInputDevice.html#aebcc4b8149c2bab8a0652323206d32bb" target="_top" xlink:title=" ">
<polygon fill="white" stroke="red" points="882.5,-813.5 882.5,-843.5 1013.5,-843.5 1013.5,-813.5 882.5,-813.5"/>
<text text-anchor="start" x="890.5" y="-831.5" font-family="Helvetica,sans-Serif" font-size="10.00">InputDevice::setActiveSet</text>
<text text-anchor="middle" x="948" y="-820.5" font-family="Helvetica,sans-Serif" font-size="10.00">Number</text>
</a>
</g>
</g>
<!-- Node3&#45;&gt;Node14 -->
<g id="edge7" class="edge">
<title>Node3&#45;&gt;Node14</title>
<path fill="none" stroke="midnightblue" d="M1109.84,-756.3C1087.56,-771.23 1055.87,-791.01 1026,-804.5 1018.73,-807.78 1010.87,-810.8 1003.06,-813.49"/>
<polygon fill="midnightblue" stroke="midnightblue" points="1111.88,-759.15 1118.19,-750.64 1107.95,-753.36 1111.88,-759.15"/>
</g>
<!-- Node6 -->
<g id="node6" class="node">
<title>Node6</title>
<g id="a_node6"><a xlink:href="classInputDeviceXml.html#a847bf9ed17b554bf87d513a1aebdcb64" target="_top" xlink:title=" ">
<polygon fill="white" stroke="black" points="691.5,-726 691.5,-745 831.5,-745 831.5,-726 691.5,-726"/>
<text text-anchor="middle" x="761.5" y="-733" font-family="Helvetica,sans-Serif" font-size="10.00">InputDeviceXml::readConfig</text>
</a>
</g>
</g>
<!-- Node5&#45;&gt;Node6 -->
<g id="edge5" class="edge">
<title>Node5&#45;&gt;Node6</title>
<path fill="none" stroke="midnightblue" d="M872.33,-735.5C858.9,-735.5 844.96,-735.5 831.7,-735.5"/>
<polygon fill="midnightblue" stroke="midnightblue" points="872.47,-739 882.47,-735.5 872.47,-732 872.47,-739"/>
</g>
<!-- Node71 -->
<g id="node10" class="node">
<title>Node71</title>
<g id="a_node10"><a xlink:href="classJoyDPad.html#adfcee6e2b57a7e643c74c26159a32997" target="_top" xlink:title=" ">
<polygon fill="white" stroke="black" points="1062,-636.5 1062,-666.5 1219,-666.5 1219,-636.5 1062,-636.5"/>
<text text-anchor="start" x="1070" y="-654.5" font-family="Helvetica,sans-Serif" font-size="10.00">JoyDPad::dpadDirectionChange</text>
<text text-anchor="middle" x="1140.5" y="-643.5" font-family="Helvetica,sans-Serif" font-size="10.00">Event</text>
</a>
</g>
</g>
<!-- Node70&#45;&gt;Node71 -->
<g id="edge9" class="edge">
<title>Node70&#45;&gt;Node71</title>
<path fill="none" stroke="midnightblue" d="M1290.93,-604.06C1261.23,-613.49 1220.44,-626.44 1188.98,-636.43"/>
<polygon fill="midnightblue" stroke="midnightblue" points="1292.08,-607.37 1300.55,-601.01 1289.96,-600.7 1292.08,-607.37"/>
</g>
<!-- Node73 -->
<g id="node12" class="node">
<title>Node73</title>
<g id="a_node12"><a xlink:href="classJoyDPad.html#ac660764f3e958b5c1cf9da1a5d2f2398" target="_top" xlink:title=" ">
<polygon fill="white" stroke="black" points="1090,-582 1090,-601 1191,-601 1191,-582 1090,-582"/>
<text text-anchor="middle" x="1140.5" y="-589" font-family="Helvetica,sans-Serif" font-size="10.00">JoyDPad::joyEvent</text>
</a>
</g>
</g>
<!-- Node70&#45;&gt;Node73 -->
<g id="edge11" class="edge">
<title>Node70&#45;&gt;Node73</title>
<path fill="none" stroke="midnightblue" d="M1252.24,-591.5C1231.61,-591.5 1209.92,-591.5 1191.25,-591.5"/>
<polygon fill="midnightblue" stroke="midnightblue" points="1252.27,-595 1262.27,-591.5 1252.27,-588 1252.27,-595"/>
</g>
<!-- Node72 -->
<g id="node11" class="node">
<title>Node72</title>
<g id="a_node11"><a xlink:href="classJoyDPad.html#a10f75107588bfe924d270b5151c374e8" target="_top" xlink:title=" ">
<polygon fill="white" stroke="black" points="896,-650 896,-669 1000,-669 1000,-650 896,-650"/>
<text text-anchor="middle" x="948" y="-657" font-family="Helvetica,sans-Serif" font-size="10.00">JoyDPad::JoyDPad</text>
</a>
</g>
</g>
<!-- Node71&#45;&gt;Node72 -->
<g id="edge10" class="edge">
<title>Node71&#45;&gt;Node72</title>
<path fill="none" stroke="midnightblue" d="M1051.44,-655.2C1033.84,-655.94 1015.92,-656.69 1000.09,-657.35"/>
<polygon fill="midnightblue" stroke="midnightblue" points="1051.9,-658.68 1061.74,-654.77 1051.6,-651.69 1051.9,-658.68"/>
</g>
<!-- Node73&#45;&gt;Node11 -->
<g id="edge27" class="edge">
<title>Node73&#45;&gt;Node11</title>
<path fill="none" stroke="midnightblue" d="M1100.52,-604.9C1087.41,-610.58 1073.27,-618.09 1062,-627.5 1040.7,-645.28 1048.91,-662.86 1026,-678.5 1020.31,-682.38 1013.91,-685.47 1007.29,-687.93"/>
<polygon fill="midnightblue" stroke="midnightblue" points="1101.9,-608.12 1109.82,-601.09 1099.24,-601.64 1101.9,-608.12"/>
</g>
<!-- Node74 -->
<g id="node13" class="node">
<title>Node74</title>
<g id="a_node13"><a xlink:href="classJoyDPad.html#a640159e6d6d1cc955e74b95b3f45834c" target="_top" xlink:title=" ">
<polygon fill="white" stroke="red" points="882.5,-524.5 882.5,-554.5 1013.5,-554.5 1013.5,-524.5 882.5,-524.5"/>
<text text-anchor="start" x="890.5" y="-542.5" font-family="Helvetica,sans-Serif" font-size="10.00">JoyDPad::activatePending</text>
<text text-anchor="middle" x="948" y="-531.5" font-family="Helvetica,sans-Serif" font-size="10.00">Event</text>
</a>
</g>
</g>
<!-- Node73&#45;&gt;Node74 -->
<g id="edge12" class="edge">
<title>Node73&#45;&gt;Node74</title>
<path fill="none" stroke="midnightblue" d="M1094.6,-579.24C1067.59,-571.87 1032.98,-562.42 1004.29,-554.59"/>
<polygon fill="midnightblue" stroke="midnightblue" points="1093.99,-582.71 1104.56,-581.96 1095.83,-575.95 1093.99,-582.71"/>
</g>
<!-- Node76 -->
<g id="node14" class="node">
<title>Node76</title>
<g id="a_node14"><a xlink:href="classVDPad.html#a48d8aa1c0a915b9ae46b519e76e4be6e" target="_top" xlink:title=" ">
<polygon fill="white" stroke="red" points="902,-574 902,-593 994,-593 994,-574 902,-574"/>
<text text-anchor="middle" x="948" y="-581" font-family="Helvetica,sans-Serif" font-size="10.00">VDPad::joyEvent</text>
</a>
</g>
</g>
<!-- Node73&#45;&gt;Node76 -->
<g id="edge13" class="edge">
<title>Node73&#45;&gt;Node76</title>
<path fill="none" stroke="midnightblue" d="M1079.59,-588.98C1051.93,-587.82 1019.63,-586.47 994.07,-585.39"/>
<polygon fill="midnightblue" stroke="midnightblue" points="1079.81,-592.5 1089.95,-589.42 1080.1,-585.5 1079.81,-592.5"/>
</g>
<!-- Node73&#45;&gt;Node81 -->
<g id="edge14" class="edge">
<title>Node73&#45;&gt;Node81</title>
<path fill="none" stroke="midnightblue" d="M1079.85,-598.37C1062.51,-600.07 1043.52,-601.65 1026,-602.5 956.75,-605.85 938.79,-611.17 870,-602.5 722.74,-583.94 552.6,-529.3 487.38,-507.07"/>
<polygon fill="midnightblue" stroke="midnightblue" points="1080.26,-601.85 1089.85,-597.36 1079.55,-594.89 1080.26,-601.85"/>
</g>
<!-- Node82 -->
<g id="node16" class="node">
<title>Node82</title>
<g id="a_node16"><a xlink:href="classAdvanceStickAssignmentDialog.html#a86cf0001cd774ce5ccec8543b7a9a50b" target="_top" xlink:title=" ">
<polygon fill="white" stroke="black" points="0,-616.5 0,-646.5 162,-646.5 162,-616.5 0,-616.5"/>
<text text-anchor="start" x="8" y="-634.5" font-family="Helvetica,sans-Serif" font-size="10.00">AdvanceStickAssignmentDialog</text>
<text text-anchor="middle" x="81" y="-623.5" font-family="Helvetica,sans-Serif" font-size="10.00">::AdvanceStickAssignmentDialog</text>
</a>
</g>
</g>
<!-- Node81&#45;&gt;Node82 -->
<g id="edge15" class="edge">
<title>Node81&#45;&gt;Node82</title>
<path fill="none" stroke="midnightblue" d="M453.02,-516.93C442.65,-552.78 415.01,-628.48 360,-659.5 281.41,-703.81 170.26,-668.95 115.36,-646.57"/>
<polygon fill="midnightblue" stroke="midnightblue" points="456.42,-517.75 455.69,-507.18 449.67,-515.9 456.42,-517.75"/>
</g>
<!-- Node83 -->
<g id="node17" class="node">
<title>Node83</title>
<g id="a_node17"><a xlink:href="classButtonEditDialog.html#a3e9feede100cbb6a11c9d87659c196ea" target="_top" xlink:title=" ">
<polygon fill="white" stroke="black" points="216.5,-619.5 216.5,-649.5 341.5,-649.5 341.5,-619.5 216.5,-619.5"/>
<text text-anchor="start" x="224.5" y="-637.5" font-family="Helvetica,sans-Serif" font-size="10.00">ButtonEditDialog::Button</text>
<text text-anchor="middle" x="279" y="-626.5" font-family="Helvetica,sans-Serif" font-size="10.00">EditDialog</text>
</a>
</g>
</g>
<!-- Node81&#45;&gt;Node83 -->
<g id="edge16" class="edge">
<title>Node81&#45;&gt;Node83</title>
<path fill="none" stroke="midnightblue" d="M446.88,-515.87C430.8,-540.91 398.67,-585.5 360,-610.5 354.4,-614.12 348.23,-617.22 341.87,-619.86"/>
<polygon fill="midnightblue" stroke="midnightblue" points="449.9,-517.64 452.24,-507.31 443.97,-513.92 449.9,-517.64"/>
</g>
<!-- Node84 -->
<g id="node18" class="node">
<title>Node84</title>
<g id="a_node18"><a xlink:href="classJoystickStatusWindow.html#a96d9e83b764e14faed4c4dc275d23c45" target="_top" xlink:title=" ">
<polygon fill="white" stroke="black" points="20,-504.5 20,-534.5 142,-534.5 142,-504.5 20,-504.5"/>
<text text-anchor="start" x="28" y="-522.5" font-family="Helvetica,sans-Serif" font-size="10.00">JoystickStatusWindow</text>
<text text-anchor="middle" x="81" y="-511.5" font-family="Helvetica,sans-Serif" font-size="10.00">::JoystickStatusWindow</text>
</a>
</g>
</g>
<!-- Node81&#45;&gt;Node84 -->
<g id="edge17" class="edge">
<title>Node81&#45;&gt;Node84</title>
<path fill="none" stroke="midnightblue" d="M418.39,-510C400.72,-514.96 379.52,-520.05 360,-522.5 285.41,-531.86 198.68,-528.72 142.19,-524.83"/>
<polygon fill="midnightblue" stroke="midnightblue" points="419.71,-513.26 428.35,-507.12 417.77,-506.54 419.71,-513.26"/>
</g>
<!-- Node85 -->
<g id="node19" class="node">
<title>Node85</title>
<g id="a_node19"><a xlink:href="classQuickSetDialog.html#a57726006cbe2d8534f4be91a05646dd2" target="_top" xlink:title=" ">
<polygon fill="white" stroke="black" points="15.5,-411.5 15.5,-441.5 146.5,-441.5 146.5,-411.5 15.5,-411.5"/>
<text text-anchor="start" x="23.5" y="-429.5" font-family="Helvetica,sans-Serif" font-size="10.00">QuickSetDialog::QuickSet</text>
<text text-anchor="middle" x="81" y="-418.5" font-family="Helvetica,sans-Serif" font-size="10.00">Dialog</text>
</a>
</g>
</g>
<!-- Node81&#45;&gt;Node85 -->
<g id="edge18" class="edge">
<title>Node81&#45;&gt;Node85</title>
<path fill="none" stroke="midnightblue" d="M411.98,-485.5C395.63,-481.43 377.05,-477.02 360,-473.5 287.26,-458.46 203.07,-444.74 146.57,-436.05"/>
<polygon fill="midnightblue" stroke="midnightblue" points="411.29,-488.93 421.84,-487.98 413,-482.15 411.29,-488.93"/>
</g>
<!-- Node86 -->
<g id="node20" class="node">
<title>Node86</title>
<g id="a_node20"><a xlink:href="classAdvanceStickAssignmentDialog.html#a48ade79f1dfeb93ff668ac18d0e1243f" target="_top" xlink:title=" ">
<polygon fill="white" stroke="black" points="201,-570.5 201,-600.5 357,-600.5 357,-570.5 201,-570.5"/>
<text text-anchor="start" x="209" y="-588.5" font-family="Helvetica,sans-Serif" font-size="10.00">AdvanceStickAssignmentDialog</text>
<text text-anchor="middle" x="279" y="-577.5" font-family="Helvetica,sans-Serif" font-size="10.00">::reenableButtonEvents</text>
</a>
</g>
</g>
<!-- Node81&#45;&gt;Node86 -->
<g id="edge19" class="edge">
<title>Node81&#45;&gt;Node86</title>
<path fill="none" stroke="midnightblue" d="M435.01,-512.67C415.54,-525.13 386.63,-542.75 360,-555.5 348.76,-560.88 336.29,-565.96 324.59,-570.36"/>
<polygon fill="midnightblue" stroke="midnightblue" points="437.01,-515.55 443.5,-507.18 433.21,-509.67 437.01,-515.55"/>
</g>
<!-- Node87 -->
<g id="node21" class="node">
<title>Node87</title>
<g id="a_node21"><a xlink:href="classJoystickStatusWindow.html#a1a1c28e1d6f480c7424ba81b30b8b4f5" target="_top" xlink:title=" ">
<polygon fill="white" stroke="black" points="221,-482.5 221,-512.5 337,-512.5 337,-482.5 221,-482.5"/>
<text text-anchor="start" x="229" y="-500.5" font-family="Helvetica,sans-Serif" font-size="10.00">JoystickStatusWindow</text>
<text text-anchor="middle" x="279" y="-489.5" font-family="Helvetica,sans-Serif" font-size="10.00">::restoreButtonStates</text>
</a>
</g>
</g>
<!-- Node81&#45;&gt;Node87 -->
<g id="edge21" class="edge">
<title>Node81&#45;&gt;Node87</title>
<path fill="none" stroke="midnightblue" d="M396.8,-497.5C377.51,-497.5 356.28,-497.5 337.27,-497.5"/>
<polygon fill="midnightblue" stroke="midnightblue" points="396.99,-501 406.99,-497.5 396.99,-494 396.99,-501"/>
</g>
<!-- Node88 -->
<g id="node22" class="node">
<title>Node88</title>
<g id="a_node22"><a xlink:href="classGameControllerMappingDialogHelper.html#a4040e6cf676fe8af751125e2928d8a35" target="_top" xlink:title=" ">
<polygon fill="white" stroke="black" points="198,-394.5 198,-424.5 360,-424.5 360,-394.5 198,-394.5"/>
<text text-anchor="start" x="206" y="-412.5" font-family="Helvetica,sans-Serif" font-size="10.00">GameControllerMappingDialog</text>
<text text-anchor="middle" x="279" y="-401.5" font-family="Helvetica,sans-Serif" font-size="10.00">Helper::restoreDeviceDeadZones</text>
</a>
</g>
</g>
<!-- Node81&#45;&gt;Node88 -->
<g id="edge23" class="edge">
<title>Node81&#45;&gt;Node88</title>
<path fill="none" stroke="midnightblue" d="M406.62,-484.16C402.92,-482.48 399.34,-480.6 396,-478.5 376.03,-465.94 379.57,-452.66 360,-439.5 351.26,-433.62 341.22,-428.7 331.26,-424.65"/>
<polygon fill="midnightblue" stroke="midnightblue" points="405.4,-487.44 415.98,-487.94 408.02,-480.95 405.4,-487.44"/>
</g>
<!-- Node89 -->
<g id="node23" class="node">
<title>Node89</title>
<g id="a_node23"><a xlink:href="classQuickSetDialog.html#afacbf395389ca073edf366a412c1626b" target="_top" xlink:title=" ">
<polygon fill="white" stroke="black" points="200.5,-345.5 200.5,-375.5 357.5,-375.5 357.5,-345.5 200.5,-345.5"/>
<text text-anchor="start" x="208.5" y="-363.5" font-family="Helvetica,sans-Serif" font-size="10.00">QuickSetDialog::restoreJoystick</text>
<text text-anchor="middle" x="279" y="-352.5" font-family="Helvetica,sans-Serif" font-size="10.00">State</text>
</a>
</g>
</g>
<!-- Node81&#45;&gt;Node89 -->
<g id="edge24" class="edge">
<title>Node81&#45;&gt;Node89</title>
<path fill="none" stroke="midnightblue" d="M401.48,-482.88C399.54,-481.55 397.71,-480.09 396,-478.5 363.55,-448.31 392.36,-415.78 360,-385.5 355.86,-381.62 351.12,-378.35 346.06,-375.58"/>
<polygon fill="midnightblue" stroke="midnightblue" points="400.06,-486.1 410.49,-487.99 403.51,-480.01 400.06,-486.1"/>
</g>
<!-- Node90 -->
<g id="node24" class="node">
<title>Node90</title>
<g id="a_node24"><a xlink:href="classGameControllerMappingDialogHelper.html#a7852aab5763281aa59c17f2f1da8dd31" target="_top" xlink:title=" ">
<polygon fill="white" stroke="black" points="204.5,-296.5 204.5,-326.5 353.5,-326.5 353.5,-296.5 204.5,-296.5"/>
<text text-anchor="start" x="212.5" y="-314.5" font-family="Helvetica,sans-Serif" font-size="10.00">GameControllerMappingDialog</text>
<text text-anchor="middle" x="279" y="-303.5" font-family="Helvetica,sans-Serif" font-size="10.00">Helper::setupDeadZones</text>
</a>
</g>
</g>
<!-- Node81&#45;&gt;Node90 -->
<g id="edge26" class="edge">
<title>Node81&#45;&gt;Node90</title>
<path fill="none" stroke="midnightblue" d="M400.01,-482.19C398.59,-481.05 397.25,-479.82 396,-478.5 350.85,-431 405.29,-382.87 360,-335.5 356.69,-332.04 352.91,-329.08 348.83,-326.53"/>
<polygon fill="midnightblue" stroke="midnightblue" points="398.49,-485.37 408.79,-487.85 402.29,-479.49 398.49,-485.37"/>
</g>
<!-- Node86&#45;&gt;Node82 -->
<g id="edge20" class="edge">
<title>Node86&#45;&gt;Node82</title>
<path fill="none" stroke="midnightblue" d="M203.98,-602.87C184.89,-607.35 164.51,-612.13 145.99,-616.48"/>
<polygon fill="midnightblue" stroke="midnightblue" points="204.89,-606.25 213.82,-600.56 203.29,-599.44 204.89,-606.25"/>
</g>
<!-- Node87&#45;&gt;Node84 -->
<g id="edge22" class="edge">
<title>Node87&#45;&gt;Node84</title>
<path fill="none" stroke="midnightblue" d="M210.72,-505.05C188.41,-507.56 163.74,-510.32 142.02,-512.76"/>
<polygon fill="midnightblue" stroke="midnightblue" points="211.23,-508.52 220.78,-503.92 210.45,-501.56 211.23,-508.52"/>
</g>
<!-- Node89&#45;&gt;Node85 -->
<g id="edge25" class="edge">
<title>Node89&#45;&gt;Node85</title>
<path fill="none" stroke="midnightblue" d="M219.16,-378.62C212.02,-380.9 204.83,-383.23 198,-385.5 173.17,-393.76 145.55,-403.51 123.48,-411.42"/>
<polygon fill="midnightblue" stroke="midnightblue" points="220.36,-381.91 228.83,-375.55 218.24,-375.24 220.36,-381.91"/>
</g>
<!-- Node92 -->
<g id="node26" class="node">
<title>Node92</title>
<g id="a_node26"><a xlink:href="classJoyAxis.html#a9c5f69db8b88f31a1df043a00ab9d09a" target="_top" xlink:title=" ">
<polygon fill="white" stroke="black" points="558,-445 558,-464 653,-464 653,-445 558,-445"/>
<text text-anchor="middle" x="605.5" y="-452" font-family="Helvetica,sans-Serif" font-size="10.00">JoyAxis::joyEvent</text>
</a>
</g>
</g>
<!-- Node91&#45;&gt;Node92 -->
<g id="edge29" class="edge">
<title>Node91&#45;&gt;Node92</title>
<path fill="none" stroke="midnightblue" d="M1063.67,-457.07C951.67,-456.44 745.35,-455.28 653.15,-454.76"/>
<polygon fill="midnightblue" stroke="midnightblue" points="1063.86,-460.57 1073.88,-457.13 1063.9,-453.57 1063.86,-460.57"/>
</g>
<!-- Node92&#45;&gt;Node81 -->
<g id="edge31" class="edge">
<title>Node92&#45;&gt;Node81</title>
<path fill="none" stroke="midnightblue" d="M562.78,-466.92C540.23,-473.63 512.82,-481.78 491.98,-487.98"/>
<polygon fill="midnightblue" stroke="midnightblue" points="563.84,-470.25 572.43,-464.04 561.85,-463.54 563.84,-470.25"/>
</g>
<!-- Node93 -->
<g id="node27" class="node">
<title>Node93</title>
<g id="a_node27"><a xlink:href="classJoyAxis.html#a6db16ad8451e2f2b09215385d5371151" target="_top" xlink:title=" ">
<polygon fill="white" stroke="red" points="396,-438.5 396,-468.5 522,-468.5 522,-438.5 396,-438.5"/>
<text text-anchor="start" x="404" y="-456.5" font-family="Helvetica,sans-Serif" font-size="10.00">JoyAxis::activatePending</text>
<text text-anchor="middle" x="459" y="-445.5" font-family="Helvetica,sans-Serif" font-size="10.00">Event</text>
</a>
</g>
</g>
<!-- Node92&#45;&gt;Node93 -->
<g id="edge30" class="edge">
<title>Node92&#45;&gt;Node93</title>
<path fill="none" stroke="midnightblue" d="M547.9,-454.11C539.48,-454.05 530.77,-453.99 522.24,-453.93"/>
<polygon fill="midnightblue" stroke="midnightblue" points="547.96,-457.61 557.98,-454.18 548.01,-450.61 547.96,-457.61"/>
</g>
<!-- Node96 -->
<g id="node29" class="node">
<title>Node96</title>
<g id="a_node29"><a xlink:href="classJoyControlStick.html#a376fa9faaaba5e00c4b1f9c8caa6236a" target="_top" xlink:title="Take the input value for the two axes that make up a stick and activate the proper event based on the...">
<polygon fill="white" stroke="black" points="883.5,-389 883.5,-408 1012.5,-408 1012.5,-389 883.5,-389"/>
<text text-anchor="middle" x="948" y="-396" font-family="Helvetica,sans-Serif" font-size="10.00">JoyControlStick::joyEvent</text>
</a>
</g>
</g>
<!-- Node95&#45;&gt;Node96 -->
<g id="edge33" class="edge">
<title>Node95&#45;&gt;Node96</title>
<path fill="none" stroke="midnightblue" d="M1059.47,-381.68C1043.42,-384.13 1026.78,-386.66 1011.43,-389"/>
<polygon fill="midnightblue" stroke="midnightblue" points="1060.02,-385.14 1069.38,-380.17 1058.96,-378.22 1060.02,-385.14"/>
</g>
<!-- Node101 -->
<g id="node32" class="node">
<title>Node101</title>
<g id="a_node32"><a xlink:href="classJoyControlStick.html#a1eada62b1da2f1a87dd698a19cc59ae4" target="_top" xlink:title="Slot called when directionDelayTimer has timed out. The method will call createDeskEvent.">
<polygon fill="white" stroke="black" points="872,-339.5 872,-369.5 1024,-369.5 1024,-339.5 872,-339.5"/>
<text text-anchor="start" x="880" y="-357.5" font-family="Helvetica,sans-Serif" font-size="10.00">JoyControlStick::stickDirection</text>
<text text-anchor="middle" x="948" y="-346.5" font-family="Helvetica,sans-Serif" font-size="10.00">ChangeEvent</text>
</a>
</g>
</g>
<!-- Node95&#45;&gt;Node101 -->
<g id="edge37" class="edge">
<title>Node95&#45;&gt;Node101</title>
<path fill="none" stroke="midnightblue" d="M1059.24,-363.18C1047.59,-362.26 1035.64,-361.32 1024.1,-360.41"/>
<polygon fill="midnightblue" stroke="midnightblue" points="1059.13,-366.68 1069.38,-363.98 1059.68,-359.7 1059.13,-366.68"/>
</g>
<!-- Node97 -->
<g id="node30" class="node">
<title>Node97</title>
<g id="a_node30"><a xlink:href="classJoyControlStick.html#ad7119f707adeb6546470809628d122be" target="_top" xlink:title=" ">
<polygon fill="white" stroke="red" points="699,-398.5 699,-428.5 824,-428.5 824,-398.5 699,-398.5"/>
<text text-anchor="start" x="707" y="-416.5" font-family="Helvetica,sans-Serif" font-size="10.00">JoyControlStick::activate</text>
<text text-anchor="middle" x="761.5" y="-405.5" font-family="Helvetica,sans-Serif" font-size="10.00">PendingEvent</text>
</a>
</g>
</g>
<!-- Node96&#45;&gt;Node97 -->
<g id="edge34" class="edge">
<title>Node96&#45;&gt;Node97</title>
<path fill="none" stroke="midnightblue" d="M873.22,-404.5C856.93,-405.82 839.83,-407.21 824.08,-408.49"/>
<polygon fill="midnightblue" stroke="midnightblue" points="873.56,-407.98 883.25,-403.68 873,-401.01 873.56,-407.98"/>
</g>
<!-- Node99 -->
<g id="node31" class="node">
<title>Node99</title>
<g id="a_node31"><a xlink:href="classJoyAxis.html#aeceeef14f2a92dad67aed5d07b2669d0" target="_top" xlink:title=" ">
<polygon fill="white" stroke="red" points="698.5,-360 698.5,-379 824.5,-379 824.5,-360 698.5,-360"/>
<text text-anchor="middle" x="761.5" y="-367" font-family="Helvetica,sans-Serif" font-size="10.00">JoyAxis::stickPassEvent</text>
</a>
</g>
</g>
<!-- Node96&#45;&gt;Node99 -->
<g id="edge35" class="edge">
<title>Node96&#45;&gt;Node99</title>
<path fill="none" stroke="midnightblue" d="M876.19,-387.37C858.71,-384.62 840.15,-381.71 823.2,-379.04"/>
<polygon fill="midnightblue" stroke="midnightblue" points="875.91,-390.87 886.33,-388.96 877,-383.95 875.91,-390.87"/>
</g>
<!-- Node99&#45;&gt;Node92 -->
<g id="edge36" class="edge">
<title>Node99&#45;&gt;Node92</title>
<path fill="none" stroke="midnightblue" d="M706.06,-382.27C700.17,-384.37 694.37,-386.77 689,-389.5 659.74,-404.37 630.84,-430.46 616.26,-444.65"/>
<polygon fill="midnightblue" stroke="midnightblue" points="707.57,-385.46 715.99,-379.02 705.39,-378.8 707.57,-385.46"/>
</g>
<!-- Node102 -->
<g id="node33" class="node">
<title>Node102</title>
<g id="a_node33"><a xlink:href="classJoyControlStick.html#add8f98ad0df0e0dfbd6380abc4422385" target="_top" xlink:title=" ">
<polygon fill="white" stroke="black" points="692,-306.5 692,-336.5 831,-336.5 831,-306.5 692,-306.5"/>
<text text-anchor="start" x="700" y="-324.5" font-family="Helvetica,sans-Serif" font-size="10.00">JoyControlStick::JoyControl</text>
<text text-anchor="middle" x="761.5" y="-313.5" font-family="Helvetica,sans-Serif" font-size="10.00">Stick</text>
</a>
</g>
</g>
<!-- Node101&#45;&gt;Node102 -->
<g id="edge38" class="edge">
<title>Node101&#45;&gt;Node102</title>
<path fill="none" stroke="midnightblue" d="M862.1,-339.31C851.76,-337.47 841.3,-335.59 831.23,-333.79"/>
<polygon fill="midnightblue" stroke="midnightblue" points="861.5,-342.76 871.96,-341.08 862.73,-335.87 861.5,-342.76"/>
</g>
<!-- Node103&#45;&gt;Node95 -->
<g id="edge40" class="edge">
<title>Node103&#45;&gt;Node95</title>
<path fill="none" stroke="midnightblue" d="M1258.8,-342.19C1241.43,-346.24 1222.97,-350.53 1205.96,-354.49"/>
<polygon fill="midnightblue" stroke="midnightblue" points="1259.93,-345.52 1268.88,-339.85 1258.34,-338.71 1259.93,-345.52"/>
</g>
<!-- Node104&#45;&gt;Node95 -->
<g id="edge42" class="edge">
<title>Node104&#45;&gt;Node95</title>
<path fill="none" stroke="midnightblue" d="M1258.8,-396.81C1241.43,-392.76 1222.97,-388.47 1205.96,-384.51"/>
<polygon fill="midnightblue" stroke="midnightblue" points="1258.34,-400.29 1268.88,-399.15 1259.93,-393.48 1258.34,-400.29"/>
</g>
<!-- Node106 -->
<g id="node37" class="node">
<title>Node106</title>
<g id="a_node37"><a xlink:href="classJoyControlStickEditDialog.html#aec8873b859f10e904c9ddde9b22c3413" target="_top" xlink:title=" ">
<polygon fill="white" stroke="black" points="1075,-85.5 1075,-115.5 1206,-115.5 1206,-85.5 1075,-85.5"/>
<text text-anchor="start" x="1083" y="-103.5" font-family="Helvetica,sans-Serif" font-size="10.00">JoyControlStickEditDialog</text>
<text text-anchor="middle" x="1140.5" y="-92.5" font-family="Helvetica,sans-Serif" font-size="10.00">::implementModes</text>
</a>
</g>
</g>
<!-- Node105&#45;&gt;Node106 -->
<g id="edge45" class="edge">
<title>Node105&#45;&gt;Node106</title>
<path fill="none" stroke="midnightblue" d="M1291.78,-177.63C1255.91,-159.22 1203.33,-132.23 1170.82,-115.55"/>
<polygon fill="midnightblue" stroke="midnightblue" points="1290.47,-180.89 1300.97,-182.34 1293.67,-174.66 1290.47,-180.89"/>
</g>
<!-- Node108 -->
<g id="node39" class="node">
<title>Node108</title>
<g id="a_node39"><a xlink:href="classJoyAxis.html#aa013bcc6b2391c594f043f8fe0f9b1f2" target="_top" xlink:title=" ">
<polygon fill="white" stroke="black" points="1069,-188 1069,-207 1212,-207 1212,-188 1069,-188"/>
<text text-anchor="middle" x="1140.5" y="-195" font-family="Helvetica,sans-Serif" font-size="10.00">JoyAxis::removeControlStick</text>
</a>
</g>
</g>
<!-- Node105&#45;&gt;Node108 -->
<g id="edge47" class="edge">
<title>Node105&#45;&gt;Node108</title>
<path fill="none" stroke="midnightblue" d="M1259.85,-197.5C1244.3,-197.5 1227.83,-197.5 1212.28,-197.5"/>
<polygon fill="midnightblue" stroke="midnightblue" points="1259.92,-201 1269.92,-197.5 1259.92,-194 1259.92,-201"/>
</g>
<!-- Node107 -->
<g id="node38" class="node">
<title>Node107</title>
<g id="a_node38"><a xlink:href="classJoyControlStickEditDialog.html#a2baa35c50ff7528a03ec6f2ba1ed657d" target="_top" xlink:title=" ">
<polygon fill="white" stroke="black" points="879.5,-49.5 879.5,-79.5 1016.5,-79.5 1016.5,-49.5 879.5,-49.5"/>
<text text-anchor="start" x="887.5" y="-67.5" font-family="Helvetica,sans-Serif" font-size="10.00">JoyControlStickEditDialog</text>
<text text-anchor="middle" x="948" y="-56.5" font-family="Helvetica,sans-Serif" font-size="10.00">::JoyControlStickEditDialog</text>
</a>
</g>
</g>
<!-- Node106&#45;&gt;Node107 -->
<g id="edge46" class="edge">
<title>Node106&#45;&gt;Node107</title>
<path fill="none" stroke="midnightblue" d="M1064.47,-86.32C1048.64,-83.33 1032.04,-80.19 1016.51,-77.26"/>
<polygon fill="midnightblue" stroke="midnightblue" points="1064.26,-89.84 1074.74,-88.26 1065.56,-82.97 1064.26,-89.84"/>
</g>
<!-- Node109 -->
<g id="node40" class="node">
<title>Node109</title>
<g id="a_node40"><a xlink:href="classJoyControlStick.html#a856e968760351507439829045910de04" target="_top" xlink:title=" ">
<polygon fill="white" stroke="red" points="689,-111 689,-130 834,-130 834,-111 689,-111"/>
<text text-anchor="middle" x="761.5" y="-118" font-family="Helvetica,sans-Serif" font-size="10.00">JoyControlStick::replaceAxes</text>
</a>
</g>
</g>
<!-- Node108&#45;&gt;Node109 -->
<g id="edge48" class="edge">
<title>Node108&#45;&gt;Node109</title>
<path fill="none" stroke="midnightblue" d="M1109.29,-183.83C1086.77,-174.2 1055.02,-161.76 1026,-154.5 962.13,-138.51 887.55,-129.78 834.08,-125.19"/>
<polygon fill="midnightblue" stroke="midnightblue" points="1108.07,-187.12 1118.64,-187.9 1110.86,-180.7 1108.07,-187.12"/>
</g>
<!-- Node113 -->
<g id="node41" class="node">
<title>Node113</title>
<g id="a_node41"><a xlink:href="classJoyControlStick.html#a65e49d5482a540c730c39416e02c19ae" target="_top" xlink:title=" ">
<polygon fill="white" stroke="black" points="700,-249.5 700,-279.5 823,-279.5 823,-249.5 700,-249.5"/>
<text text-anchor="start" x="708" y="-267.5" font-family="Helvetica,sans-Serif" font-size="10.00">JoyControlStick::replace</text>
<text text-anchor="middle" x="761.5" y="-256.5" font-family="Helvetica,sans-Serif" font-size="10.00">XAxis</text>
</a>
</g>
</g>
<!-- Node108&#45;&gt;Node113 -->
<g id="edge49" class="edge">
<title>Node108&#45;&gt;Node113</title>
<path fill="none" stroke="midnightblue" d="M1075.8,-208.82C1005.25,-221.36 892.37,-241.42 823.1,-253.73"/>
<polygon fill="midnightblue" stroke="midnightblue" points="1076.65,-212.22 1085.89,-207.03 1075.43,-205.33 1076.65,-212.22"/>
</g>
<!-- Node114 -->
<g id="node42" class="node">
<title>Node114</title>
<g id="a_node42"><a xlink:href="classJoyControlStick.html#aed8209fad6e2b9ce62cf06c36b2d63d0" target="_top" xlink:title=" ">
<polygon fill="white" stroke="black" points="700,-183.5 700,-213.5 823,-213.5 823,-183.5 700,-183.5"/>
<text text-anchor="start" x="708" y="-201.5" font-family="Helvetica,sans-Serif" font-size="10.00">JoyControlStick::replace</text>
<text text-anchor="middle" x="761.5" y="-190.5" font-family="Helvetica,sans-Serif" font-size="10.00">YAxis</text>
</a>
</g>
</g>
<!-- Node108&#45;&gt;Node114 -->
<g id="edge50" class="edge">
<title>Node108&#45;&gt;Node114</title>
<path fill="none" stroke="midnightblue" d="M1103.72,-184.68C1081.64,-177.46 1052.56,-169.17 1026,-165.5 957.32,-156 938.57,-155.21 870,-165.5 846.83,-168.98 821.76,-176.44 801.67,-183.4"/>
<polygon fill="midnightblue" stroke="midnightblue" points="1102.74,-188.04 1113.34,-187.9 1104.97,-181.41 1102.74,-188.04"/>
</g>
<!-- Node115 -->
<g id="node43" class="node">
<title>Node115</title>
<g id="a_node43"><a xlink:href="classJoyAxis.html#ac51525cabe4d0ea5aafebe949cde458f" target="_top" xlink:title=" ">
<polygon fill="white" stroke="black" points="885.5,-263 885.5,-282 1010.5,-282 1010.5,-263 885.5,-263"/>
<text text-anchor="middle" x="948" y="-270" font-family="Helvetica,sans-Serif" font-size="10.00">JoyAxis::setControlStick</text>
</a>
</g>
</g>
<!-- Node108&#45;&gt;Node115 -->
<g id="edge51" class="edge">
<title>Node108&#45;&gt;Node115</title>
<path fill="none" stroke="midnightblue" d="M1111.04,-211.44C1088.32,-222.28 1055.52,-237.31 1026,-248.5 1011.99,-253.81 996.24,-258.87 982.65,-262.97"/>
<polygon fill="midnightblue" stroke="midnightblue" points="1112.62,-214.56 1120.12,-207.07 1109.59,-208.25 1112.62,-214.56"/>
</g>
<!-- Node116 -->
<g id="node44" class="node">
<title>Node116</title>
<g id="a_node44"><a xlink:href="classJoyAxisButton.html#a8c8633a722e2c0a226924608259221d6" target="_top" xlink:title=" ">
<polygon fill="white" stroke="black" points="882.5,-301 882.5,-320 1013.5,-320 1013.5,-301 882.5,-301"/>
<text text-anchor="middle" x="948" y="-308" font-family="Helvetica,sans-Serif" font-size="10.00">JoyAxisButton::setVDPad</text>
</a>
</g>
</g>
<!-- Node108&#45;&gt;Node116 -->
<g id="edge56" class="edge">
<title>Node108&#45;&gt;Node116</title>
<path fill="none" stroke="midnightblue" d="M1123.88,-214.49C1103.42,-235.69 1065.51,-271.59 1026,-291.5 1018.38,-295.34 1009.93,-298.44 1001.5,-300.92"/>
<polygon fill="midnightblue" stroke="midnightblue" points="1126.5,-216.81 1130.83,-207.14 1121.41,-212 1126.5,-216.81"/>
</g>
<!-- Node117 -->
<g id="node45" class="node">
<title>Node117</title>
<g id="a_node45"><a xlink:href="classJoyControlStick.html#a53368f4d9bfcd6d08d8892f01742d176" target="_top" xlink:title=" ">
<polygon fill="white" stroke="black" points="875.5,-175.5 875.5,-205.5 1020.5,-205.5 1020.5,-175.5 875.5,-175.5"/>
<text text-anchor="start" x="883.5" y="-193.5" font-family="Helvetica,sans-Serif" font-size="10.00">JoyControlStick::~JoyControl</text>
<text text-anchor="middle" x="948" y="-182.5" font-family="Helvetica,sans-Serif" font-size="10.00">Stick</text>
</a>
</g>
</g>
<!-- Node108&#45;&gt;Node117 -->
<g id="edge57" class="edge">
<title>Node108&#45;&gt;Node117</title>
<path fill="none" stroke="midnightblue" d="M1058.74,-194.53C1046.04,-194.07 1032.98,-193.59 1020.5,-193.13"/>
<polygon fill="midnightblue" stroke="midnightblue" points="1058.71,-198.03 1068.84,-194.9 1058.97,-191.04 1058.71,-198.03"/>
</g>
<!-- Node115&#45;&gt;Node102 -->
<g id="edge52" class="edge">
<title>Node115&#45;&gt;Node102</title>
<path fill="none" stroke="midnightblue" d="M897.58,-284.46C888.4,-286.75 878.9,-289.16 870,-291.5 852.1,-296.2 832.6,-301.57 815.18,-306.46"/>
<polygon fill="midnightblue" stroke="midnightblue" points="898.51,-287.84 907.37,-282.03 896.83,-281.04 898.51,-287.84"/>
</g>
<!-- Node115&#45;&gt;Node109 -->
<g id="edge53" class="edge">
<title>Node115&#45;&gt;Node109</title>
<path fill="none" stroke="midnightblue" d="M923.77,-256.89C907.96,-245.82 886.92,-230.2 870,-214.5 852.22,-198.01 851.84,-189.92 834,-173.5 815.7,-156.65 792.14,-140.03 777.17,-130.02"/>
<polygon fill="midnightblue" stroke="midnightblue" points="922.18,-260.04 932.4,-262.84 926.16,-254.28 922.18,-260.04"/>
</g>
<!-- Node115&#45;&gt;Node113 -->
<g id="edge54" class="edge">
<title>Node115&#45;&gt;Node113</title>
<path fill="none" stroke="midnightblue" d="M875.3,-269.39C858.08,-268.64 839.86,-267.85 823.19,-267.13"/>
<polygon fill="midnightblue" stroke="midnightblue" points="875.17,-272.89 885.31,-269.82 875.47,-265.89 875.17,-272.89"/>
</g>
<!-- Node115&#45;&gt;Node114 -->
<g id="edge55" class="edge">
<title>Node115&#45;&gt;Node114</title>
<path fill="none" stroke="midnightblue" d="M913.9,-259.23C881.96,-246.41 833.65,-227.04 800.23,-213.63"/>
<polygon fill="midnightblue" stroke="midnightblue" points="912.67,-262.5 923.26,-262.98 915.28,-256.01 912.67,-262.5"/>
</g>
<!-- Node119 -->
<g id="node47" class="node">
<title>Node119</title>
<g id="a_node47"><a xlink:href="classDPadEditDialog.html#adfad573034ea62490614303638c16040" target="_top" xlink:title=" ">
<polygon fill="white" stroke="black" points="1072,-36.5 1072,-66.5 1209,-66.5 1209,-36.5 1072,-36.5"/>
<text text-anchor="start" x="1080" y="-54.5" font-family="Helvetica,sans-Serif" font-size="10.00">DPadEditDialog::implement</text>
<text text-anchor="middle" x="1140.5" y="-43.5" font-family="Helvetica,sans-Serif" font-size="10.00">Modes</text>
</a>
</g>
</g>
<!-- Node118&#45;&gt;Node119 -->
<g id="edge59" class="edge">
<title>Node118&#45;&gt;Node119</title>
<path fill="none" stroke="midnightblue" d="M1271.99,-77.05C1252.13,-73.16 1229.76,-68.78 1209.24,-64.76"/>
<polygon fill="midnightblue" stroke="midnightblue" points="1271.34,-80.49 1281.83,-78.97 1272.69,-73.62 1271.34,-80.49"/>
</g>
<!-- Node120 -->
<g id="node48" class="node">
<title>Node120</title>
<g id="a_node48"><a xlink:href="classDPadEditDialog.html#a87782609227b6c56ef82e3844a117dc1" target="_top" xlink:title=" ">
<polygon fill="white" stroke="black" points="881,-0.5 881,-30.5 1015,-30.5 1015,-0.5 881,-0.5"/>
<text text-anchor="start" x="889" y="-18.5" font-family="Helvetica,sans-Serif" font-size="10.00">DPadEditDialog::DPadEdit</text>
<text text-anchor="middle" x="948" y="-7.5" font-family="Helvetica,sans-Serif" font-size="10.00">Dialog</text>
</a>
</g>
</g>
<!-- Node119&#45;&gt;Node120 -->
<g id="edge60" class="edge">
<title>Node119&#45;&gt;Node120</title>
<path fill="none" stroke="midnightblue" d="M1061.76,-36.81C1046.31,-33.89 1030.22,-30.85 1015.2,-28.01"/>
<polygon fill="midnightblue" stroke="midnightblue" points="1061.32,-40.29 1071.8,-38.71 1062.62,-33.41 1061.32,-40.29"/>
</g>
<!-- Node121&#45;&gt;Node115 -->
<g id="edge62" class="edge">
<title>Node121&#45;&gt;Node115</title>
<path fill="none" stroke="midnightblue" d="M1258.08,-249.01C1186.57,-254.44 1078.38,-262.66 1010.8,-267.8"/>
<polygon fill="midnightblue" stroke="midnightblue" points="1258.65,-252.47 1268.36,-248.22 1258.12,-245.49 1258.65,-252.47"/>
</g>
<!-- Node122&#45;&gt;Node116 -->
<g id="edge64" class="edge">
<title>Node122&#45;&gt;Node116</title>
<path fill="none" stroke="midnightblue" d="M1265.37,-286.45C1195.05,-291.8 1083.74,-300.26 1013.62,-305.59"/>
<polygon fill="midnightblue" stroke="midnightblue" points="1265.73,-289.93 1275.43,-285.69 1265.2,-282.95 1265.73,-289.93"/>
</g>
</g>
</svg>
