<?xml version="1.0" encoding="UTF-8" standalone="no"?>
<!DOCTYPE svg PUBLIC "-//W3C//DTD SVG 1.1//EN"
 "http://www.w3.org/Graphics/SVG/1.1/DTD/svg11.dtd">
<!-- Generated by graphviz version 2.43.0 (0)
 -->
<!-- Title: JoyAxisButton::setChangeSetCondition Pages: 1 -->
<!--zoomable 496 -->
<svg id="main" version="1.1" xmlns="http://www.w3.org/2000/svg" xmlns:xlink="http://www.w3.org/1999/xlink" xml:space="preserve" onload="init(evt)">
<style type="text/css"><![CDATA[
.edge:hover path { stroke: red; }
.edge:hover polygon { stroke: red; fill: red; }
]]></style>
<script type="text/javascript"><![CDATA[
var edges = document.getElementsByTagName('g');
if (edges && edges.length) {
  for (var i=0;i<edges.length;i++) {
    if (edges[i].id.substr(0,4)=='edge') {
      edges[i].setAttribute('class','edge');
    }
  }
}
]]></script>
        <defs>
                <circle id="rim" cx="0" cy="0" r="7"/>
                <circle id="rim2" cx="0" cy="0" r="3.5"/>
                <g id="zoomPlus">
                        <use xlink:href="#rim" fill="#404040">
                                <set attributeName="fill" to="#808080" begin="zoomplus.mouseover" end="zoomplus.mouseout"/>
                        </use>
                        <path d="M-4,0h8M0,-4v8" fill="none" stroke="white" stroke-width="1.5" pointer-events="none"/>
                </g>
                <g id="zoomMin">
                        <use xlink:href="#rim" fill="#404040">
                                <set attributeName="fill" to="#808080" begin="zoomminus.mouseover" end="zoomminus.mouseout"/>
                        </use>
                        <path d="M-4,0h8" fill="none" stroke="white" stroke-width="1.5" pointer-events="none"/>
                </g>
                <g id="dirArrow">
                        <path fill="none" stroke="white" stroke-width="1.5" d="M0,-3.0v7 M-2.5,-0.5L0,-3.0L2.5,-0.5"/>
                </g>
               <g id="resetDef">
                       <use xlink:href="#rim2" fill="#404040">
                               <set attributeName="fill" to="#808080" begin="reset.mouseover" end="reset.mouseout"/>
                       </use>
               </g>
        </defs>

<script type="text/javascript">
var viewWidth = 2346;
var viewHeight = 496;
var sectionId = 'dynsection-13';
</script>
<script xlink:href="svgpan.js"/>
<svg id="graph" class="graph">
<g id="viewport">
<title>JoyAxisButton::setChangeSetCondition</title>
<polygon fill="white" stroke="transparent" points="-4,4 -4,-492 2342,-492 2342,4 -4,4"/>
<!-- Node1 -->
<g id="node1" class="node">
<title>Node1</title>
<g id="a_node1"><a xlink:title=" ">
<polygon fill="#bfbfbf" stroke="black" points="0,-104.5 0,-134.5 134,-134.5 134,-104.5 0,-104.5"/>
<text text-anchor="start" x="8" y="-122.5" font-family="Helvetica,sans-Serif" font-size="10.00">JoyAxisButton::setChange</text>
<text text-anchor="middle" x="67" y="-111.5" font-family="Helvetica,sans-Serif" font-size="10.00">SetCondition</text>
</a>
</g>
</g>
<!-- Node2 -->
<g id="node2" class="node">
<title>Node2</title>
<g id="a_node2"><a xlink:href="classJoyButton.html#ad2df77b5daa94a848b015265ec1869d6" target="_top" xlink:title="Generate active zone string and notify other objects.">
<polygon fill="white" stroke="black" points="376,-123.5 376,-153.5 512,-153.5 512,-123.5 376,-123.5"/>
<text text-anchor="start" x="384" y="-141.5" font-family="Helvetica,sans-Serif" font-size="10.00">JoyButton::buildActiveZone</text>
<text text-anchor="middle" x="444" y="-130.5" font-family="Helvetica,sans-Serif" font-size="10.00">SummaryString</text>
</a>
</g>
</g>
<!-- Node1&#45;&gt;Node2 -->
<g id="edge1" class="edge">
<title>Node1&#45;&gt;Node2</title>
<path fill="none" stroke="midnightblue" d="M134.14,-133.65C146.03,-135.67 158.34,-137.42 170,-138.5 235.73,-144.57 310.74,-144.04 365.48,-142.29"/>
<polygon fill="midnightblue" stroke="midnightblue" points="365.93,-145.77 375.81,-141.93 365.69,-138.78 365.93,-145.77"/>
</g>
<!-- Node41 -->
<g id="node41" class="node">
<title>Node41</title>
<g id="a_node41"><a xlink:href="classJoyAxis.html#afddf7399e2086fda738fe588f5e7d7cd" target="_top" xlink:title=" ">
<polygon fill="white" stroke="black" points="207.5,-72 207.5,-91 302.5,-91 302.5,-72 207.5,-72"/>
<text text-anchor="middle" x="255" y="-79" font-family="Helvetica,sans-Serif" font-size="10.00">JoyAxis::getIndex</text>
</a>
</g>
</g>
<!-- Node1&#45;&gt;Node41 -->
<g id="edge52" class="edge">
<title>Node1&#45;&gt;Node41</title>
<path fill="none" stroke="midnightblue" d="M134.1,-106C154.82,-101.76 177.5,-97.13 197.5,-93.04"/>
<polygon fill="midnightblue" stroke="midnightblue" points="198.28,-96.46 207.38,-91.02 196.88,-89.6 198.28,-96.46"/>
</g>
<!-- Node42 -->
<g id="node42" class="node">
<title>Node42</title>
<g id="a_node42"><a xlink:href="classJoyButton.html#af7ffbb38754f3f898935e6cc975ebb6a" target="_top" xlink:title=" ">
<polygon fill="white" stroke="black" points="170,-110 170,-129 340,-129 340,-110 170,-110"/>
<text text-anchor="middle" x="255" y="-117" font-family="Helvetica,sans-Serif" font-size="10.00">JoyButton::setChangeSetSelection</text>
</a>
</g>
</g>
<!-- Node1&#45;&gt;Node42 -->
<g id="edge53" class="edge">
<title>Node1&#45;&gt;Node42</title>
<path fill="none" stroke="midnightblue" d="M134.1,-119.5C142.43,-119.5 151.08,-119.5 159.74,-119.5"/>
<polygon fill="midnightblue" stroke="midnightblue" points="159.89,-123 169.89,-119.5 159.89,-116 159.89,-123"/>
</g>
<!-- Node3 -->
<g id="node3" class="node">
<title>Node3</title>
<g id="a_node3"><a xlink:href="classJoyButton.html#ae76ccd3147106953d53a565730c1d8ee" target="_top" xlink:title="Generate a string that represents slots that will be activated or slots that are currently active if ...">
<polygon fill="white" stroke="black" points="548,-148.5 548,-178.5 677,-178.5 677,-148.5 548,-148.5"/>
<text text-anchor="start" x="556" y="-166.5" font-family="Helvetica,sans-Serif" font-size="10.00">JoyButton::getActiveZone</text>
<text text-anchor="middle" x="612.5" y="-155.5" font-family="Helvetica,sans-Serif" font-size="10.00">Summary</text>
</a>
</g>
</g>
<!-- Node2&#45;&gt;Node3 -->
<g id="edge2" class="edge">
<title>Node2&#45;&gt;Node3</title>
<path fill="none" stroke="midnightblue" d="M512.24,-148.6C520.68,-149.86 529.34,-151.16 537.86,-152.44"/>
<polygon fill="midnightblue" stroke="midnightblue" points="537.37,-155.91 547.78,-153.93 538.41,-148.99 537.37,-155.91"/>
</g>
<!-- Node40 -->
<g id="node40" class="node">
<title>Node40</title>
<g id="a_node40"><a xlink:href="classJoyButton.html#a1b49d9ab85f0d5d128e2eca616747018" target="_top" xlink:title=" ">
<polygon fill="white" stroke="black" points="549,-99.5 549,-129.5 676,-129.5 676,-99.5 549,-99.5"/>
<text text-anchor="start" x="557" y="-117.5" font-family="Helvetica,sans-Serif" font-size="10.00">JoyButton::lockForWrited</text>
<text text-anchor="middle" x="612.5" y="-106.5" font-family="Helvetica,sans-Serif" font-size="10.00">String</text>
</a>
</g>
</g>
<!-- Node2&#45;&gt;Node40 -->
<g id="edge51" class="edge">
<title>Node2&#45;&gt;Node40</title>
<path fill="none" stroke="midnightblue" d="M512.24,-128.81C521.03,-127.54 530.06,-126.24 538.93,-124.96"/>
<polygon fill="midnightblue" stroke="midnightblue" points="539.46,-128.42 548.86,-123.53 538.46,-121.49 539.46,-128.42"/>
</g>
<!-- Node4 -->
<g id="node4" class="node">
<title>Node4</title>
<g id="a_node4"><a xlink:href="classJoyButton.html#a9404c4ca344265ce68c0eb9b6b95048b" target="_top" xlink:title=" ">
<polygon fill="white" stroke="black" points="717.5,-118.5 717.5,-148.5 853.5,-148.5 853.5,-118.5 717.5,-118.5"/>
<text text-anchor="start" x="725.5" y="-136.5" font-family="Helvetica,sans-Serif" font-size="10.00">JoyButton::buildActiveZone</text>
<text text-anchor="middle" x="785.5" y="-125.5" font-family="Helvetica,sans-Serif" font-size="10.00">Summary</text>
</a>
</g>
</g>
<!-- Node3&#45;&gt;Node4 -->
<g id="edge3" class="edge">
<title>Node3&#45;&gt;Node4</title>
<path fill="none" stroke="midnightblue" d="M677.17,-152.33C687,-150.6 697.24,-148.81 707.33,-147.04"/>
<polygon fill="midnightblue" stroke="midnightblue" points="708.09,-150.46 717.34,-145.28 706.88,-143.56 708.09,-150.46"/>
</g>
<!-- Node38 -->
<g id="node38" class="node">
<title>Node38</title>
<g id="a_node38"><a xlink:href="classJoyButton.html#a7494c1753b3f16ba988076e9eb34ff47" target="_top" xlink:title=" ">
<polygon fill="white" stroke="black" points="713,-184 713,-203 858,-203 858,-184 713,-184"/>
<text text-anchor="middle" x="785.5" y="-191" font-family="Helvetica,sans-Serif" font-size="10.00">JoyButton::getActiveZoneList</text>
</a>
</g>
</g>
<!-- Node3&#45;&gt;Node38 -->
<g id="edge46" class="edge">
<title>Node3&#45;&gt;Node38</title>
<path fill="none" stroke="midnightblue" d="M677.17,-174.67C691.23,-177.14 706.14,-179.75 720.22,-182.22"/>
<polygon fill="midnightblue" stroke="midnightblue" points="719.85,-185.71 730.31,-183.99 721.06,-178.82 719.85,-185.71"/>
</g>
<!-- Node5 -->
<g id="node5" class="node">
<title>Node5</title>
<g id="a_node5"><a xlink:href="classJoyButton.html#a773bbe39b094a62cd17776acc06efac6" target="_top" xlink:title=" ">
<polygon fill="white" stroke="black" points="897.5,-58.5 897.5,-88.5 1033.5,-88.5 1033.5,-58.5 897.5,-58.5"/>
<text text-anchor="start" x="905.5" y="-76.5" font-family="Helvetica,sans-Serif" font-size="10.00">JoyButton::buildActiveZone</text>
<text text-anchor="middle" x="965.5" y="-65.5" font-family="Helvetica,sans-Serif" font-size="10.00">SummarySwitchSlots</text>
</a>
</g>
</g>
<!-- Node4&#45;&gt;Node5 -->
<g id="edge4" class="edge">
<title>Node4&#45;&gt;Node5</title>
<path fill="none" stroke="midnightblue" d="M831.42,-118.36C855.33,-110.3 884.92,-100.32 910.12,-91.83"/>
<polygon fill="midnightblue" stroke="midnightblue" points="911.55,-95.04 919.91,-88.53 909.31,-88.41 911.55,-95.04"/>
</g>
<!-- Node8 -->
<g id="node8" class="node">
<title>Node8</title>
<g id="a_node8"><a xlink:href="classJoyButtonSlot.html#a4fb0606a34134786bc642627bc25aedd" target="_top" xlink:title=" ">
<polygon fill="white" stroke="black" points="1261.5,-20 1261.5,-39 1397.5,-39 1397.5,-20 1261.5,-20"/>
<text text-anchor="middle" x="1329.5" y="-27" font-family="Helvetica,sans-Serif" font-size="10.00">JoyButtonSlot::getMixSlots</text>
</a>
</g>
</g>
<!-- Node4&#45;&gt;Node8 -->
<g id="edge43" class="edge">
<title>Node4&#45;&gt;Node8</title>
<path fill="none" stroke="midnightblue" d="M799.62,-118.41C818.25,-98.2 854.53,-63.19 894,-48.5 1012.56,-4.37 1162.04,-9.86 1251.18,-18.93"/>
<polygon fill="midnightblue" stroke="midnightblue" points="1250.91,-22.42 1261.22,-19.99 1251.64,-15.46 1250.91,-22.42"/>
</g>
<!-- Node35 -->
<g id="node35" class="node">
<title>Node35</title>
<g id="a_node35"><a xlink:href="classJoyButton.html#a64f1660931aea2fa8df1bf5e313c05ba" target="_top" xlink:title=" ">
<polygon fill="white" stroke="black" points="900.5,-184 900.5,-203 1030.5,-203 1030.5,-184 900.5,-184"/>
<text text-anchor="middle" x="965.5" y="-191" font-family="Helvetica,sans-Serif" font-size="10.00">JoyButton::getActiveSlots</text>
</a>
</g>
</g>
<!-- Node4&#45;&gt;Node35 -->
<g id="edge42" class="edge">
<title>Node4&#45;&gt;Node35</title>
<path fill="none" stroke="midnightblue" d="M823.48,-148.67C844.06,-156.84 870.25,-166.79 894,-174.5 901.21,-176.84 908.9,-179.12 916.45,-181.25"/>
<polygon fill="midnightblue" stroke="midnightblue" points="915.67,-184.67 926.24,-183.94 917.53,-177.92 915.67,-184.67"/>
</g>
<!-- Node36 -->
<g id="node36" class="node">
<title>Node36</title>
<g id="a_node36"><a xlink:href="classJoyButtonSlot.html#abed7fe134c404b403ea79c0753f6eaaf" target="_top" xlink:title=" ">
<polygon fill="white" stroke="black" points="896,-146 896,-165 1035,-165 1035,-146 896,-146"/>
<text text-anchor="middle" x="965.5" y="-153" font-family="Helvetica,sans-Serif" font-size="10.00">JoyButtonSlot::getSlotMode</text>
</a>
</g>
</g>
<!-- Node4&#45;&gt;Node36 -->
<g id="edge44" class="edge">
<title>Node4&#45;&gt;Node36</title>
<path fill="none" stroke="midnightblue" d="M853.54,-141.79C864,-143.08 874.88,-144.42 885.57,-145.75"/>
<polygon fill="midnightblue" stroke="midnightblue" points="885.39,-149.25 895.74,-147 886.25,-142.3 885.39,-149.25"/>
</g>
<!-- Node37 -->
<g id="node37" class="node">
<title>Node37</title>
<g id="a_node37"><a xlink:href="classJoyButtonSlot.html#a1e38b923aa69abbcfb9abb008e692444" target="_top" xlink:title=" ">
<polygon fill="white" stroke="black" points="897,-108 897,-127 1034,-127 1034,-108 897,-108"/>
<text text-anchor="middle" x="965.5" y="-115" font-family="Helvetica,sans-Serif" font-size="10.00">JoyButtonSlot::getTextData</text>
</a>
</g>
</g>
<!-- Node4&#45;&gt;Node37 -->
<g id="edge45" class="edge">
<title>Node4&#45;&gt;Node37</title>
<path fill="none" stroke="midnightblue" d="M853.54,-127.47C864.41,-126.5 875.74,-125.48 886.83,-124.48"/>
<polygon fill="midnightblue" stroke="midnightblue" points="887.28,-127.96 896.93,-123.57 886.66,-120.98 887.28,-127.96"/>
</g>
<!-- Node6 -->
<g id="node6" class="node">
<title>Node6</title>
<g id="a_node6"><a xlink:href="classJoyButton.html#acb0ee9af0f5a44bd07ca5cfbfd026cf6" target="_top" xlink:title=" ">
<polygon fill="white" stroke="black" points="1074,-181 1074,-200 1212,-200 1212,-181 1074,-181"/>
<text text-anchor="middle" x="1143" y="-188" font-family="Helvetica,sans-Serif" font-size="10.00">JoyButton::findJoySlotsEnd</text>
</a>
</g>
</g>
<!-- Node5&#45;&gt;Node6 -->
<g id="edge5" class="edge">
<title>Node5&#45;&gt;Node6</title>
<path fill="none" stroke="midnightblue" d="M1016.49,-88.55C1023.58,-91.44 1030.61,-94.76 1037,-98.5 1072.47,-119.29 1107.03,-152.92 1126.32,-173.25"/>
<polygon fill="midnightblue" stroke="midnightblue" points="1124.01,-175.9 1133.38,-180.82 1129.13,-171.12 1124.01,-175.9"/>
</g>
<!-- Node7 -->
<g id="node7" class="node">
<title>Node7</title>
<g id="a_node7"><a xlink:href="classJoyButtonSlot.html#a6e10409ded595380cbdcfd5c827ab32a" target="_top" xlink:title=" ">
<polygon fill="white" stroke="black" points="1073,-64 1073,-83 1213,-83 1213,-64 1073,-64"/>
<text text-anchor="middle" x="1143" y="-71" font-family="Helvetica,sans-Serif" font-size="10.00">JoyButtonSlot::getSlotString</text>
</a>
</g>
</g>
<!-- Node5&#45;&gt;Node7 -->
<g id="edge6" class="edge">
<title>Node5&#45;&gt;Node7</title>
<path fill="none" stroke="midnightblue" d="M1033.6,-73.5C1043.15,-73.5 1053.05,-73.5 1062.81,-73.5"/>
<polygon fill="midnightblue" stroke="midnightblue" points="1062.9,-77 1072.9,-73.5 1062.9,-70 1062.9,-77"/>
</g>
<!-- Node7&#45;&gt;Node8 -->
<g id="edge7" class="edge">
<title>Node7&#45;&gt;Node8</title>
<path fill="none" stroke="midnightblue" d="M1184.03,-63.95C1211.84,-57.32 1249.08,-48.44 1278.78,-41.36"/>
<polygon fill="midnightblue" stroke="midnightblue" points="1279.63,-44.75 1288.54,-39.03 1278.01,-37.94 1279.63,-44.75"/>
</g>
<!-- Node10 -->
<g id="node10" class="node">
<title>Node10</title>
<g id="a_node10"><a xlink:href="namespacePadderCommon.html#aaa09739d2df84421a5a3467a06ce941c" target="_top" xlink:title="Returns the &quot;human&#45;readable&quot; name of the given profile.">
<polygon fill="white" stroke="black" points="1249,-61 1249,-80 1410,-80 1410,-61 1249,-61"/>
<text text-anchor="middle" x="1329.5" y="-68" font-family="Helvetica,sans-Serif" font-size="10.00">PadderCommon::getProfileName</text>
</a>
</g>
</g>
<!-- Node7&#45;&gt;Node10 -->
<g id="edge9" class="edge">
<title>Node7&#45;&gt;Node10</title>
<path fill="none" stroke="midnightblue" d="M1213.23,-72.37C1221.6,-72.24 1230.25,-72.1 1238.87,-71.96"/>
<polygon fill="midnightblue" stroke="midnightblue" points="1239.01,-75.46 1248.96,-71.79 1238.9,-68.46 1239.01,-75.46"/>
</g>
<!-- Node11 -->
<g id="node11" class="node">
<title>Node11</title>
<g id="a_node11"><a xlink:href="event_8cpp.html#a76ce89b71143c1c09343f45f038b4a67" target="_top" xlink:title=" ">
<polygon fill="white" stroke="black" points="1279,-147 1279,-166 1380,-166 1380,-147 1279,-147"/>
<text text-anchor="middle" x="1329.5" y="-154" font-family="Helvetica,sans-Serif" font-size="10.00">keysymToKeyString</text>
</a>
</g>
</g>
<!-- Node7&#45;&gt;Node11 -->
<g id="edge10" class="edge">
<title>Node7&#45;&gt;Node11</title>
<path fill="none" stroke="midnightblue" d="M1161.14,-83.16C1181.67,-94.53 1217.26,-113.62 1249,-127.5 1262.09,-133.22 1276.7,-138.78 1289.79,-143.48"/>
<polygon fill="midnightblue" stroke="midnightblue" points="1288.86,-146.86 1299.45,-146.89 1291.19,-140.26 1288.86,-146.86"/>
</g>
<!-- Node34 -->
<g id="node34" class="node">
<title>Node34</title>
<g id="a_node34"><a xlink:href="classJoyButtonSlot.html#a37ff2b523177bae4ea6a44b82f2973eb" target="_top" xlink:title=" ">
<polygon fill="white" stroke="black" points="1252,-99 1252,-118 1407,-118 1407,-99 1252,-99"/>
<text text-anchor="middle" x="1329.5" y="-106" font-family="Helvetica,sans-Serif" font-size="10.00">JoyButtonSlot::movementString</text>
</a>
</g>
</g>
<!-- Node7&#45;&gt;Node34 -->
<g id="edge41" class="edge">
<title>Node7&#45;&gt;Node34</title>
<path fill="none" stroke="midnightblue" d="M1194.42,-83.06C1217.19,-87.39 1244.29,-92.53 1268.14,-97.05"/>
<polygon fill="midnightblue" stroke="midnightblue" points="1267.67,-100.52 1278.15,-98.95 1268.97,-93.65 1267.67,-100.52"/>
</g>
<!-- Node9 -->
<g id="node9" class="node">
<title>Node9</title>
<g id="a_node9"><a xlink:href="classJoyButtonSlot.html#a9ba9cb0dda063a7df5575072c0aabe01" target="_top" xlink:title=" ">
<polygon fill="white" stroke="black" points="1446,-0.5 1446,-30.5 1575,-30.5 1575,-0.5 1446,-0.5"/>
<text text-anchor="start" x="1454" y="-18.5" font-family="Helvetica,sans-Serif" font-size="10.00">JoyButtonSlot::secureMix</text>
<text text-anchor="middle" x="1510.5" y="-7.5" font-family="Helvetica,sans-Serif" font-size="10.00">SlotsInit</text>
</a>
</g>
</g>
<!-- Node8&#45;&gt;Node9 -->
<g id="edge8" class="edge">
<title>Node8&#45;&gt;Node9</title>
<path fill="none" stroke="midnightblue" d="M1397.66,-24.25C1410.11,-23.27 1423.17,-22.25 1435.8,-21.26"/>
<polygon fill="midnightblue" stroke="midnightblue" points="1436.12,-24.75 1445.81,-20.48 1435.57,-17.77 1436.12,-24.75"/>
</g>
<!-- Node12 -->
<g id="node12" class="node">
<title>Node12</title>
<g id="a_node12"><a xlink:href="classX11Extras.html#a643c95dc1de8eb073a0accb41619fe83" target="_top" xlink:title="Get display instance.">
<polygon fill="white" stroke="black" points="1650.5,-147 1650.5,-166 1749.5,-166 1749.5,-147 1650.5,-147"/>
<text text-anchor="middle" x="1700" y="-154" font-family="Helvetica,sans-Serif" font-size="10.00">X11Extras::display</text>
</a>
</g>
</g>
<!-- Node11&#45;&gt;Node12 -->
<g id="edge11" class="edge">
<title>Node11&#45;&gt;Node12</title>
<path fill="none" stroke="midnightblue" d="M1380.2,-156.5C1447.7,-156.5 1568.18,-156.5 1640.13,-156.5"/>
<polygon fill="midnightblue" stroke="midnightblue" points="1640.38,-160 1650.38,-156.5 1640.38,-153 1640.38,-160"/>
</g>
<!-- Node13 -->
<g id="node13" class="node">
<title>Node13</title>
<g id="a_node13"><a xlink:href="classBaseEventHandler.html#a9a014e472ec57408d16b8b5eed964e90" target="_top" xlink:title=" ">
<polygon fill="white" stroke="black" points="1622.5,-109 1622.5,-128 1777.5,-128 1777.5,-109 1622.5,-109"/>
<text text-anchor="middle" x="1700" y="-116" font-family="Helvetica,sans-Serif" font-size="10.00">BaseEventHandler::getIdentifier</text>
</a>
</g>
</g>
<!-- Node11&#45;&gt;Node13 -->
<g id="edge12" class="edge">
<title>Node11&#45;&gt;Node13</title>
<path fill="none" stroke="midnightblue" d="M1380.2,-151.38C1439.58,-145.25 1539.97,-134.9 1612.25,-127.45"/>
<polygon fill="midnightblue" stroke="midnightblue" points="1612.66,-130.92 1622.25,-126.41 1611.94,-123.96 1612.66,-130.92"/>
</g>
<!-- Node14 -->
<g id="node14" class="node">
<title>Node14</title>
<g id="a_node14"><a xlink:href="classX11Extras.html#ace76277fced60e6bd6ff880030338182" target="_top" xlink:title=" ">
<polygon fill="white" stroke="black" points="1640.5,-463 1640.5,-482 1759.5,-482 1759.5,-463 1640.5,-463"/>
<text text-anchor="middle" x="1700" y="-470" font-family="Helvetica,sans-Serif" font-size="10.00">X11Extras::getInstance</text>
</a>
</g>
</g>
<!-- Node11&#45;&gt;Node14 -->
<g id="edge13" class="edge">
<title>Node11&#45;&gt;Node14</title>
<path fill="none" stroke="midnightblue" d="M1336.41,-166.08C1362.63,-207.66 1473.21,-373.76 1611,-448.5 1619.47,-453.1 1628.89,-456.86 1638.32,-459.93"/>
<polygon fill="midnightblue" stroke="midnightblue" points="1637.54,-463.35 1648.12,-462.89 1639.56,-456.65 1637.54,-463.35"/>
</g>
<!-- Node17 -->
<g id="node17" class="node">
<title>Node17</title>
<g id="a_node17"><a xlink:href="classEventHandlerFactory.html#a90ce153a19fbb91128bd52eb083ce271" target="_top" xlink:title=" ">
<polygon fill="white" stroke="black" points="1645.5,-185.5 1645.5,-215.5 1754.5,-215.5 1754.5,-185.5 1645.5,-185.5"/>
<text text-anchor="start" x="1653.5" y="-203.5" font-family="Helvetica,sans-Serif" font-size="10.00">EventHandlerFactory</text>
<text text-anchor="middle" x="1700" y="-192.5" font-family="Helvetica,sans-Serif" font-size="10.00">::getInstance</text>
</a>
</g>
</g>
<!-- Node11&#45;&gt;Node17 -->
<g id="edge16" class="edge">
<title>Node11&#45;&gt;Node17</title>
<path fill="none" stroke="midnightblue" d="M1380.24,-162.56C1400.62,-165.03 1424.44,-167.92 1446,-170.5 1510.3,-178.21 1583.81,-186.91 1634.96,-192.95"/>
<polygon fill="midnightblue" stroke="midnightblue" points="1634.86,-196.47 1645.2,-194.16 1635.68,-189.51 1634.86,-196.47"/>
</g>
<!-- Node20 -->
<g id="node20" class="node">
<title>Node20</title>
<g id="a_node20"><a xlink:href="classEventHandlerFactory.html#a4c13007f0ece5bf881080c9c04f1f20d" target="_top" xlink:title=" ">
<polygon fill="white" stroke="black" points="2018,-153.5 2018,-183.5 2127,-183.5 2127,-153.5 2018,-153.5"/>
<text text-anchor="start" x="2026" y="-171.5" font-family="Helvetica,sans-Serif" font-size="10.00">EventHandlerFactory</text>
<text text-anchor="middle" x="2072.5" y="-160.5" font-family="Helvetica,sans-Serif" font-size="10.00">::handler</text>
</a>
</g>
</g>
<!-- Node11&#45;&gt;Node20 -->
<g id="edge22" class="edge">
<title>Node11&#45;&gt;Node20</title>
<path fill="none" stroke="midnightblue" d="M1357.41,-146.92C1446.12,-116.81 1736.56,-30 1963,-97.5 1995.19,-107.1 2026.71,-129.62 2047.41,-146.75"/>
<polygon fill="midnightblue" stroke="midnightblue" points="2045.17,-149.44 2055.06,-153.24 2049.7,-144.1 2045.17,-149.44"/>
</g>
<!-- Node22 -->
<g id="node22" class="node">
<title>Node22</title>
<g id="a_node22"><a xlink:href="event_8cpp.html#ad239a34cab482dc3cad5a23a9ac1ad78" target="_top" xlink:title=" ">
<polygon fill="white" stroke="black" points="1458.5,-273 1458.5,-292 1562.5,-292 1562.5,-273 1458.5,-273"/>
<text text-anchor="middle" x="1510.5" y="-280" font-family="Helvetica,sans-Serif" font-size="10.00">keycodeToKeyString</text>
</a>
</g>
</g>
<!-- Node11&#45;&gt;Node22 -->
<g id="edge23" class="edge">
<title>Node11&#45;&gt;Node22</title>
<path fill="none" stroke="midnightblue" d="M1344.25,-166.18C1375.17,-187.94 1450.41,-240.9 1487.74,-267.18"/>
<polygon fill="midnightblue" stroke="midnightblue" points="1485.76,-270.07 1495.95,-272.96 1489.79,-264.34 1485.76,-270.07"/>
</g>
<!-- Node15 -->
<g id="node15" class="node">
<title>Node15</title>
<g id="a_node15"><a xlink:href="classX11Extras.html#ab9bcb016e23bacb0e988feb8175d2c88" target="_top" xlink:title=" ">
<polygon fill="white" stroke="black" points="1837,-463 1837,-482 1951,-482 1951,-463 1837,-463"/>
<text text-anchor="middle" x="1894" y="-470" font-family="Helvetica,sans-Serif" font-size="10.00">X11Extras::X11Extras</text>
</a>
</g>
</g>
<!-- Node14&#45;&gt;Node15 -->
<g id="edge14" class="edge">
<title>Node14&#45;&gt;Node15</title>
<path fill="none" stroke="midnightblue" d="M1759.65,-472.5C1780.78,-472.5 1804.78,-472.5 1826.54,-472.5"/>
<polygon fill="midnightblue" stroke="midnightblue" points="1826.68,-476 1836.68,-472.5 1826.68,-469 1826.68,-476"/>
</g>
<!-- Node16 -->
<g id="node16" class="node">
<title>Node16</title>
<g id="a_node16"><a xlink:href="classX11Extras.html#a6f63e77ed045e174546d77333672b8f0" target="_top" xlink:title=" ">
<polygon fill="white" stroke="black" points="2005,-457.5 2005,-487.5 2140,-487.5 2140,-457.5 2005,-457.5"/>
<text text-anchor="start" x="2013" y="-475.5" font-family="Helvetica,sans-Serif" font-size="10.00">X11Extras::populateKnown</text>
<text text-anchor="middle" x="2072.5" y="-464.5" font-family="Helvetica,sans-Serif" font-size="10.00">Aliases</text>
</a>
</g>
</g>
<!-- Node15&#45;&gt;Node16 -->
<g id="edge15" class="edge">
<title>Node15&#45;&gt;Node16</title>
<path fill="none" stroke="midnightblue" d="M1951.33,-472.5C1965.18,-472.5 1980.25,-472.5 1994.88,-472.5"/>
<polygon fill="midnightblue" stroke="midnightblue" points="1994.92,-476 2004.92,-472.5 1994.92,-469 1994.92,-476"/>
</g>
<!-- Node18 -->
<g id="node18" class="node">
<title>Node18</title>
<g id="a_node18"><a xlink:href="classEventHandlerFactory.html#ade5162034acc0f8683725fdb124bece0" target="_top" xlink:title=" ">
<polygon fill="white" stroke="black" points="1831,-126.5 1831,-156.5 1957,-156.5 1957,-126.5 1831,-126.5"/>
<text text-anchor="start" x="1839" y="-144.5" font-family="Helvetica,sans-Serif" font-size="10.00">EventHandlerFactory</text>
<text text-anchor="middle" x="1894" y="-133.5" font-family="Helvetica,sans-Serif" font-size="10.00">::buildEventGeneratorList</text>
</a>
</g>
</g>
<!-- Node17&#45;&gt;Node18 -->
<g id="edge17" class="edge">
<title>Node17&#45;&gt;Node18</title>
<path fill="none" stroke="midnightblue" d="M1754.62,-185.63C1765.99,-182.37 1777.91,-178.89 1789,-175.5 1805.17,-170.56 1822.67,-164.95 1838.62,-159.72"/>
<polygon fill="midnightblue" stroke="midnightblue" points="1839.92,-162.98 1848.33,-156.53 1837.74,-156.33 1839.92,-162.98"/>
</g>
<!-- Node19 -->
<g id="node19" class="node">
<title>Node19</title>
<g id="a_node19"><a xlink:href="classEventHandlerFactory.html#a2f843293b2ea47271fc7bd99bd871fa6" target="_top" xlink:title=" ">
<polygon fill="white" stroke="black" points="1836.5,-224.5 1836.5,-254.5 1951.5,-254.5 1951.5,-224.5 1836.5,-224.5"/>
<text text-anchor="start" x="1844.5" y="-242.5" font-family="Helvetica,sans-Serif" font-size="10.00">EventHandlerFactory</text>
<text text-anchor="middle" x="1894" y="-231.5" font-family="Helvetica,sans-Serif" font-size="10.00">::EventHandlerFactory</text>
</a>
</g>
</g>
<!-- Node17&#45;&gt;Node19 -->
<g id="edge18" class="edge">
<title>Node17&#45;&gt;Node19</title>
<path fill="none" stroke="midnightblue" d="M1754.74,-211.42C1776.97,-215.93 1802.97,-221.21 1826.4,-225.97"/>
<polygon fill="midnightblue" stroke="midnightblue" points="1825.76,-229.41 1836.26,-227.97 1827.15,-222.55 1825.76,-229.41"/>
</g>
<!-- Node17&#45;&gt;Node20 -->
<g id="edge21" class="edge">
<title>Node17&#45;&gt;Node20</title>
<path fill="none" stroke="midnightblue" d="M1754.71,-192.06C1766.81,-188.38 1779.01,-183.09 1789,-175.5 1813.46,-156.91 1798.21,-131.54 1825,-116.5 1894.33,-77.58 1989.49,-120.16 2038.84,-148.11"/>
<polygon fill="midnightblue" stroke="midnightblue" points="2037.39,-151.31 2047.79,-153.31 2040.9,-145.26 2037.39,-151.31"/>
</g>
<!-- Node21 -->
<g id="node21" class="node">
<title>Node21</title>
<g id="a_node21"><a xlink:href="classEventHandlerFactory.html#afa5ca0171c70b1a24f92b5c8dd00dc92" target="_top" xlink:title=" ">
<polygon fill="white" stroke="black" points="1839.5,-175.5 1839.5,-205.5 1948.5,-205.5 1948.5,-175.5 1839.5,-175.5"/>
<text text-anchor="start" x="1847.5" y="-193.5" font-family="Helvetica,sans-Serif" font-size="10.00">EventHandlerFactory</text>
<text text-anchor="middle" x="1894" y="-182.5" font-family="Helvetica,sans-Serif" font-size="10.00">::fallBackIdentifier</text>
</a>
</g>
</g>
<!-- Node17&#45;&gt;Node21 -->
<g id="edge20" class="edge">
<title>Node17&#45;&gt;Node21</title>
<path fill="none" stroke="midnightblue" d="M1754.74,-197.7C1777.84,-196.5 1805.02,-195.08 1829.15,-193.83"/>
<polygon fill="midnightblue" stroke="midnightblue" points="1829.47,-197.31 1839.27,-193.3 1829.11,-190.32 1829.47,-197.31"/>
</g>
<!-- Node19&#45;&gt;Node20 -->
<g id="edge19" class="edge">
<title>Node19&#45;&gt;Node20</title>
<path fill="none" stroke="midnightblue" d="M1936.84,-224.48C1945.52,-221.27 1954.58,-217.83 1963,-214.5 1984.42,-206.03 2007.98,-196.11 2027.66,-187.66"/>
<polygon fill="midnightblue" stroke="midnightblue" points="2029.19,-190.81 2036.98,-183.64 2026.41,-184.39 2029.19,-190.81"/>
</g>
<!-- Node22&#45;&gt;Node12 -->
<g id="edge24" class="edge">
<title>Node22&#45;&gt;Node12</title>
<path fill="none" stroke="midnightblue" d="M1517.37,-272.98C1530.98,-251.78 1566.9,-200.58 1611,-175.5 1620.06,-170.35 1630.37,-166.59 1640.67,-163.85"/>
<polygon fill="midnightblue" stroke="midnightblue" points="1641.57,-167.23 1650.49,-161.52 1639.96,-160.42 1641.57,-167.23"/>
</g>
<!-- Node22&#45;&gt;Node13 -->
<g id="edge29" class="edge">
<title>Node22&#45;&gt;Node13</title>
<path fill="none" stroke="midnightblue" d="M1515.12,-272.85C1525.54,-246.49 1558.27,-172.88 1611,-137.5 1613.94,-135.52 1617.06,-133.75 1620.29,-132.16"/>
<polygon fill="midnightblue" stroke="midnightblue" points="1621.85,-135.29 1629.65,-128.13 1619.08,-128.86 1621.85,-135.29"/>
</g>
<!-- Node22&#45;&gt;Node14 -->
<g id="edge37" class="edge">
<title>Node22&#45;&gt;Node14</title>
<path fill="none" stroke="midnightblue" d="M1517.85,-292.02C1529.52,-309.65 1555.06,-348.66 1575,-382.5 1591.97,-411.29 1584.79,-427.78 1611,-448.5 1616.89,-453.16 1623.62,-456.91 1630.68,-459.94"/>
<polygon fill="midnightblue" stroke="midnightblue" points="1629.86,-463.37 1640.45,-463.64 1632.34,-456.83 1629.86,-463.37"/>
</g>
<!-- Node22&#45;&gt;Node17 -->
<g id="edge38" class="edge">
<title>Node22&#45;&gt;Node17</title>
<path fill="none" stroke="midnightblue" d="M1525.76,-272.84C1544.58,-260.44 1579.07,-238.94 1611,-225.5 1618.79,-222.22 1627.13,-219.23 1635.48,-216.54"/>
<polygon fill="midnightblue" stroke="midnightblue" points="1636.71,-219.82 1645.23,-213.53 1634.65,-213.13 1636.71,-219.82"/>
</g>
<!-- Node22&#45;&gt;Node20 -->
<g id="edge39" class="edge">
<title>Node22&#45;&gt;Node20</title>
<path fill="none" stroke="midnightblue" d="M1562.52,-284.56C1664.88,-288.03 1891.62,-292.06 1963,-263.5 2000.47,-248.51 2033.77,-214.73 2053.3,-191.76"/>
<polygon fill="midnightblue" stroke="midnightblue" points="2056.17,-193.78 2059.85,-183.85 2050.78,-189.32 2056.17,-193.78"/>
</g>
<!-- Node23 -->
<g id="node23" class="node">
<title>Node23</title>
<g id="a_node23"><a xlink:href="classWinExtras.html#a3487e64cfb407033d7e28a761d1e76dc" target="_top" xlink:title=" ">
<polygon fill="white" stroke="black" points="1630,-349 1630,-368 1770,-368 1770,-349 1630,-349"/>
<text text-anchor="middle" x="1700" y="-356" font-family="Helvetica,sans-Serif" font-size="10.00">WinExtras::getDisplayString</text>
</a>
</g>
</g>
<!-- Node22&#45;&gt;Node23 -->
<g id="edge25" class="edge">
<title>Node22&#45;&gt;Node23</title>
<path fill="none" stroke="midnightblue" d="M1524.99,-292.04C1543.53,-304.71 1578.29,-326.95 1611,-339.5 1617.82,-342.12 1625.09,-344.41 1632.41,-346.42"/>
<polygon fill="midnightblue" stroke="midnightblue" points="1631.83,-349.88 1642.38,-348.97 1633.56,-343.1 1631.83,-349.88"/>
</g>
<!-- Node24 -->
<g id="node24" class="node">
<title>Node24</title>
<g id="a_node24"><a xlink:href="classUInputHelper.html#ac4c70c9479c1cc0eb515ab1bdf2426f5" target="_top" xlink:title=" ">
<polygon fill="white" stroke="black" points="2009,-407.5 2009,-437.5 2136,-437.5 2136,-407.5 2009,-407.5"/>
<text text-anchor="start" x="2017" y="-425.5" font-family="Helvetica,sans-Serif" font-size="10.00">UInputHelper::getDisplay</text>
<text text-anchor="middle" x="2072.5" y="-414.5" font-family="Helvetica,sans-Serif" font-size="10.00">String</text>
</a>
</g>
</g>
<!-- Node22&#45;&gt;Node24 -->
<g id="edge26" class="edge">
<title>Node22&#45;&gt;Node24</title>
<path fill="none" stroke="midnightblue" d="M1544.09,-292.11C1555.14,-296.75 1566.76,-303.35 1575,-312.5 1607.44,-348.54 1571.67,-387.13 1611,-415.5 1670.96,-458.75 1884.57,-443.17 1998.58,-431.18"/>
<polygon fill="midnightblue" stroke="midnightblue" points="1999.05,-434.65 2008.62,-430.11 1998.3,-427.69 1999.05,-434.65"/>
</g>
<!-- Node26 -->
<g id="node26" class="node">
<title>Node26</title>
<g id="a_node26"><a xlink:href="classX11Extras.html#abe710bac948c9802105a2d9d06815cac" target="_top" xlink:title="Get appropriate alias for a known KeySym string that might be blank or contain invalid characters whe...">
<polygon fill="white" stroke="black" points="1630,-235 1630,-254 1770,-254 1770,-235 1630,-235"/>
<text text-anchor="middle" x="1700" y="-242" font-family="Helvetica,sans-Serif" font-size="10.00">X11Extras::getDisplayString</text>
</a>
</g>
</g>
<!-- Node22&#45;&gt;Node26 -->
<g id="edge28" class="edge">
<title>Node22&#45;&gt;Node26</title>
<path fill="none" stroke="midnightblue" d="M1558.81,-272.91C1584.11,-267.78 1615.45,-261.43 1642.07,-256.04"/>
<polygon fill="midnightblue" stroke="midnightblue" points="1642.92,-259.44 1652.03,-254.02 1641.53,-252.58 1642.92,-259.44"/>
</g>
<!-- Node27 -->
<g id="node27" class="node">
<title>Node27</title>
<g id="a_node27"><a xlink:href="classUInputHelper.html#a61509601d3dbd8933aaa26c1e2db02f6" target="_top" xlink:title=" ">
<polygon fill="white" stroke="black" points="1634.5,-311 1634.5,-330 1765.5,-330 1765.5,-311 1634.5,-311"/>
<text text-anchor="middle" x="1700" y="-318" font-family="Helvetica,sans-Serif" font-size="10.00">UInputHelper::getInstance</text>
</a>
</g>
</g>
<!-- Node22&#45;&gt;Node27 -->
<g id="edge30" class="edge">
<title>Node22&#45;&gt;Node27</title>
<path fill="none" stroke="midnightblue" d="M1558.81,-292.09C1584.11,-297.22 1615.45,-303.57 1642.07,-308.96"/>
<polygon fill="midnightblue" stroke="midnightblue" points="1641.53,-312.42 1652.03,-310.98 1642.92,-305.56 1641.53,-312.42"/>
</g>
<!-- Node33 -->
<g id="node33" class="node">
<title>Node33</title>
<g id="a_node33"><a xlink:href="classWinExtras.html#a0bfa711c1abe72486dfebc8ff6fe7f5a" target="_top" xlink:title="Convert a virtual key into the corresponding keyboard scan code.">
<polygon fill="white" stroke="black" points="1611,-387 1611,-406 1789,-406 1789,-387 1611,-387"/>
<text text-anchor="middle" x="1700" y="-394" font-family="Helvetica,sans-Serif" font-size="10.00">WinExtras::scancodeFromVirtualKey</text>
</a>
</g>
</g>
<!-- Node22&#45;&gt;Node33 -->
<g id="edge40" class="edge">
<title>Node22&#45;&gt;Node33</title>
<path fill="none" stroke="midnightblue" d="M1518.52,-292.1C1533.29,-311.54 1569.64,-355.57 1611,-377.5 1615.46,-379.86 1620.2,-381.93 1625.07,-383.75"/>
<polygon fill="midnightblue" stroke="midnightblue" points="1623.97,-387.07 1634.56,-386.93 1626.19,-380.43 1623.97,-387.07"/>
</g>
<!-- Node25 -->
<g id="node25" class="node">
<title>Node25</title>
<g id="a_node25"><a xlink:href="classUInputHelper.html#a043b0fa7cf4ce5811d01d95f3ca318b7" target="_top" xlink:title=" ">
<polygon fill="white" stroke="black" points="2182,-407.5 2182,-437.5 2338,-437.5 2338,-407.5 2182,-407.5"/>
<text text-anchor="start" x="2190" y="-425.5" font-family="Helvetica,sans-Serif" font-size="10.00">UInputHelper::getKnownAliases</text>
<text text-anchor="middle" x="2260" y="-414.5" font-family="Helvetica,sans-Serif" font-size="10.00">VKStrings</text>
</a>
</g>
</g>
<!-- Node24&#45;&gt;Node25 -->
<g id="edge27" class="edge">
<title>Node24&#45;&gt;Node25</title>
<path fill="none" stroke="midnightblue" d="M2136.04,-422.5C2147.55,-422.5 2159.75,-422.5 2171.82,-422.5"/>
<polygon fill="midnightblue" stroke="midnightblue" points="2171.92,-426 2181.92,-422.5 2171.92,-419 2171.92,-426"/>
</g>
<!-- Node28 -->
<g id="node28" class="node">
<title>Node28</title>
<g id="a_node28"><a xlink:href="classUInputHelper.html#a5d56d23a0e0202435c7a5ff1aca9ce55" target="_top" xlink:title=" ">
<polygon fill="white" stroke="black" points="1825,-313 1825,-332 1963,-332 1963,-313 1825,-313"/>
<text text-anchor="middle" x="1894" y="-320" font-family="Helvetica,sans-Serif" font-size="10.00">UInputHelper::UInputHelper</text>
</a>
</g>
</g>
<!-- Node27&#45;&gt;Node28 -->
<g id="edge31" class="edge">
<title>Node27&#45;&gt;Node28</title>
<path fill="none" stroke="midnightblue" d="M1765.73,-321.17C1781.51,-321.34 1798.55,-321.52 1814.88,-321.69"/>
<polygon fill="midnightblue" stroke="midnightblue" points="1814.9,-325.19 1824.94,-321.79 1814.97,-318.19 1814.9,-325.19"/>
</g>
<!-- Node29 -->
<g id="node29" class="node">
<title>Node29</title>
<g id="a_node29"><a xlink:href="classUInputHelper.html#a0f4dbb4221502d86f7d0af12a9865568" target="_top" xlink:title=" ">
<polygon fill="white" stroke="black" points="1999,-307.5 1999,-337.5 2146,-337.5 2146,-307.5 1999,-307.5"/>
<text text-anchor="start" x="2007" y="-325.5" font-family="Helvetica,sans-Serif" font-size="10.00">UInputHelper::populateKnown</text>
<text text-anchor="middle" x="2072.5" y="-314.5" font-family="Helvetica,sans-Serif" font-size="10.00">Aliases</text>
</a>
</g>
</g>
<!-- Node28&#45;&gt;Node29 -->
<g id="edge32" class="edge">
<title>Node28&#45;&gt;Node29</title>
<path fill="none" stroke="midnightblue" d="M1963.24,-322.5C1971.52,-322.5 1980.04,-322.5 1988.5,-322.5"/>
<polygon fill="midnightblue" stroke="midnightblue" points="1988.76,-326 1998.76,-322.5 1988.76,-319 1988.76,-326"/>
</g>
<!-- Node29&#45;&gt;Node25 -->
<g id="edge33" class="edge">
<title>Node29&#45;&gt;Node25</title>
<path fill="none" stroke="midnightblue" d="M2092.57,-337.54C2113.55,-353.55 2148.72,-378.81 2182,-395.5 2187.96,-398.49 2194.32,-401.29 2200.75,-403.87"/>
<polygon fill="midnightblue" stroke="midnightblue" points="2199.57,-407.17 2210.16,-407.49 2202.09,-400.63 2199.57,-407.17"/>
</g>
<!-- Node30 -->
<g id="node30" class="node">
<title>Node30</title>
<g id="a_node30"><a xlink:href="classUInputHelper.html#a8f3fe71ae635cd3c46eaab79dd11c2e0" target="_top" xlink:title=" ">
<polygon fill="white" stroke="black" points="2182,-356.5 2182,-386.5 2338,-386.5 2338,-356.5 2182,-356.5"/>
<text text-anchor="start" x="2190" y="-374.5" font-family="Helvetica,sans-Serif" font-size="10.00">UInputHelper::getKnownAliases</text>
<text text-anchor="middle" x="2260" y="-363.5" font-family="Helvetica,sans-Serif" font-size="10.00">X11SymVK</text>
</a>
</g>
</g>
<!-- Node29&#45;&gt;Node30 -->
<g id="edge34" class="edge">
<title>Node29&#45;&gt;Node30</title>
<path fill="none" stroke="midnightblue" d="M2130.42,-337.53C2150,-342.71 2172.11,-348.55 2192.4,-353.91"/>
<polygon fill="midnightblue" stroke="midnightblue" points="2191.63,-357.32 2202.19,-356.49 2193.42,-350.56 2191.63,-357.32"/>
</g>
<!-- Node31 -->
<g id="node31" class="node">
<title>Node31</title>
<g id="a_node31"><a xlink:href="classUInputHelper.html#a9793030329fbbe1106b255814ef2bd0f" target="_top" xlink:title=" ">
<polygon fill="white" stroke="black" points="2193,-307.5 2193,-337.5 2327,-337.5 2327,-307.5 2193,-307.5"/>
<text text-anchor="start" x="2201" y="-325.5" font-family="Helvetica,sans-Serif" font-size="10.00">UInputHelper::populateX11</text>
<text text-anchor="middle" x="2260" y="-314.5" font-family="Helvetica,sans-Serif" font-size="10.00">SymVk</text>
</a>
</g>
</g>
<!-- Node29&#45;&gt;Node31 -->
<g id="edge35" class="edge">
<title>Node29&#45;&gt;Node31</title>
<path fill="none" stroke="midnightblue" d="M2146.02,-322.5C2158.08,-322.5 2170.63,-322.5 2182.79,-322.5"/>
<polygon fill="midnightblue" stroke="midnightblue" points="2182.89,-326 2192.89,-322.5 2182.89,-319 2182.89,-326"/>
</g>
<!-- Node32 -->
<g id="node32" class="node">
<title>Node32</title>
<g id="a_node32"><a xlink:href="classUInputHelper.html#af02574de230bb0550eebb63f5a669681" target="_top" xlink:title=" ">
<polygon fill="white" stroke="black" points="2192,-258.5 2192,-288.5 2328,-288.5 2328,-258.5 2192,-258.5"/>
<text text-anchor="start" x="2200" y="-276.5" font-family="Helvetica,sans-Serif" font-size="10.00">UInputHelper::populateXVk</text>
<text text-anchor="middle" x="2260" y="-265.5" font-family="Helvetica,sans-Serif" font-size="10.00">Strings</text>
</a>
</g>
</g>
<!-- Node29&#45;&gt;Node32 -->
<g id="edge36" class="edge">
<title>Node29&#45;&gt;Node32</title>
<path fill="none" stroke="midnightblue" d="M2130.42,-307.47C2150,-302.29 2172.11,-296.45 2192.4,-291.09"/>
<polygon fill="midnightblue" stroke="midnightblue" points="2193.42,-294.44 2202.19,-288.51 2191.63,-287.68 2193.42,-294.44"/>
</g>
<!-- Node38&#45;&gt;Node6 -->
<g id="edge47" class="edge">
<title>Node38&#45;&gt;Node6</title>
<path fill="none" stroke="midnightblue" d="M799.54,-203.16C818.94,-216.87 857.1,-241.32 894,-250.5 955.68,-265.84 975.57,-266.81 1037,-250.5 1069.17,-241.96 1101.77,-220.98 1121.92,-206.25"/>
<polygon fill="midnightblue" stroke="midnightblue" points="1124.11,-208.98 1130.01,-200.18 1119.91,-203.39 1124.11,-208.98"/>
</g>
<!-- Node38&#45;&gt;Node35 -->
<g id="edge48" class="edge">
<title>Node38&#45;&gt;Node35</title>
<path fill="none" stroke="midnightblue" d="M858.13,-193.5C868.75,-193.5 879.7,-193.5 890.37,-193.5"/>
<polygon fill="midnightblue" stroke="midnightblue" points="890.48,-197 900.48,-193.5 890.48,-190 890.48,-197"/>
</g>
<!-- Node38&#45;&gt;Node36 -->
<g id="edge50" class="edge">
<title>Node38&#45;&gt;Node36</title>
<path fill="none" stroke="midnightblue" d="M831.42,-183.91C855.33,-178.81 884.92,-172.49 910.12,-167.11"/>
<polygon fill="midnightblue" stroke="midnightblue" points="910.86,-170.53 919.91,-165.02 909.4,-163.69 910.86,-170.53"/>
</g>
<!-- Node39 -->
<g id="node39" class="node">
<title>Node39</title>
<g id="a_node39"><a xlink:href="classJoyButton.html#ae1d364dfa70f47fae3db99ffbcdea44b" target="_top" xlink:title=" ">
<polygon fill="white" stroke="black" points="894,-222 894,-241 1037,-241 1037,-222 894,-222"/>
<text text-anchor="middle" x="965.5" y="-229" font-family="Helvetica,sans-Serif" font-size="10.00">JoyButton::getAssignedSlots</text>
</a>
</g>
</g>
<!-- Node38&#45;&gt;Node39 -->
<g id="edge49" class="edge">
<title>Node38&#45;&gt;Node39</title>
<path fill="none" stroke="midnightblue" d="M831.42,-203.09C855.33,-208.19 884.92,-214.51 910.12,-219.89"/>
<polygon fill="midnightblue" stroke="midnightblue" points="909.4,-223.31 919.91,-221.98 910.86,-216.47 909.4,-223.31"/>
</g>
<!-- Node42&#45;&gt;Node2 -->
<g id="edge54" class="edge">
<title>Node42&#45;&gt;Node2</title>
<path fill="none" stroke="midnightblue" d="M340.2,-128.06C348.68,-128.92 357.26,-129.79 365.66,-130.64"/>
<polygon fill="midnightblue" stroke="midnightblue" points="365.49,-134.14 375.8,-131.67 366.2,-127.18 365.49,-134.14"/>
</g>
</g>
</svg>
        <g id="navigator" transform="translate(0 0)" fill="#404254">
                <rect fill="#f2f5e9" fill-opacity="0.5" stroke="#606060" stroke-width=".5" x="0" y="0" width="60" height="60"/>
                <use id="zoomplus" xlink:href="#zoomPlus" x="17" y="9" onmousedown="handleZoom(evt,'in')"/>
                <use id="zoomminus" xlink:href="#zoomMin" x="42" y="9" onmousedown="handleZoom(evt,'out')"/>
                <use id="reset" xlink:href="#resetDef" x="30" y="36" onmousedown="handleReset()"/>
                <g id="arrowUp" xlink:href="#dirArrow" transform="translate(30 24)" onmousedown="handlePan(0,-1)">
                  <use xlink:href="#rim" fill="#404040">
                        <set attributeName="fill" to="#808080" begin="arrowUp.mouseover" end="arrowUp.mouseout"/>
                  </use>
                  <path fill="none" stroke="white" stroke-width="1.5" d="M0,-3.0v7 M-2.5,-0.5L0,-3.0L2.5,-0.5"/>
                </g>
                <g id="arrowRight" xlink:href="#dirArrow" transform="rotate(90) translate(36 -43)" onmousedown="handlePan(1,0)">
                  <use xlink:href="#rim" fill="#404040">
                        <set attributeName="fill" to="#808080" begin="arrowRight.mouseover" end="arrowRight.mouseout"/>
                  </use>
                  <path fill="none" stroke="white" stroke-width="1.5" d="M0,-3.0v7 M-2.5,-0.5L0,-3.0L2.5,-0.5"/>
                </g>
                <g id="arrowDown" xlink:href="#dirArrow" transform="rotate(180) translate(-30 -48)" onmousedown="handlePan(0,1)">
                  <use xlink:href="#rim" fill="#404040">
                        <set attributeName="fill" to="#808080" begin="arrowDown.mouseover" end="arrowDown.mouseout"/>
                  </use>
                  <path fill="none" stroke="white" stroke-width="1.5" d="M0,-3.0v7 M-2.5,-0.5L0,-3.0L2.5,-0.5"/>
                </g>
                <g id="arrowLeft" xlink:href="#dirArrow" transform="rotate(270) translate(-36 17)" onmousedown="handlePan(-1,0)">
                  <use xlink:href="#rim" fill="#404040">
                        <set attributeName="fill" to="#808080" begin="arrowLeft.mouseover" end="arrowLeft.mouseout"/>
                  </use>
                  <path fill="none" stroke="white" stroke-width="1.5" d="M0,-3.0v7 M-2.5,-0.5L0,-3.0L2.5,-0.5"/>
                </g>
        </g>
        <svg viewBox="0 0 15 15" width="100%" height="30px" preserveAspectRatio="xMaxYMin meet">
         <g id="arrow_out" transform="scale(0.3 0.3)">
          <a xlink:href="classJoyAxisButton_a739f27b3f9c6714869cade651c62aa00_cgraph_org.svg" target="_base">
           <rect id="button" ry="5" rx="5" y="6" x="6" height="38" width="38"
                fill="#f2f5e9" fill-opacity="0.5" stroke="#606060" stroke-width="1.0"/>
           <path id="arrow"
             d="M 11.500037,31.436501 C 11.940474,20.09759 22.043105,11.32322 32.158766,21.979434 L 37.068811,17.246167 C 37.068811,17.246167 37.088388,32 37.088388,32 L 22.160133,31.978069 C 22.160133,31.978069 26.997745,27.140456 26.997745,27.140456 C 18.528582,18.264221 13.291696,25.230495 11.500037,31.436501 z"
             style="fill:#404040;"/>
          </a>
         </g>
        </svg>
</svg>
