<?xml version="1.0" encoding="UTF-8" standalone="no"?>
<!DOCTYPE svg PUBLIC "-//W3C//DTD SVG 1.1//EN"
 "http://www.w3.org/Graphics/SVG/1.1/DTD/svg11.dtd">
<!-- Generated by graphviz version 2.43.0 (0)
 -->
<!-- Title: InputDeviceBitArrayStatus::InputDeviceBitArrayStatus Pages: 1 -->
<svg width="693pt" height="501pt"
 viewBox="0.00 0.00 693.00 500.50" xmlns="http://www.w3.org/2000/svg" xmlns:xlink="http://www.w3.org/1999/xlink">
<g id="graph0" class="graph" transform="scale(1 1) rotate(0) translate(4 496.5)">
<title>InputDeviceBitArrayStatus::InputDeviceBitArrayStatus</title>
<polygon fill="white" stroke="transparent" points="-4,4 -4,-496.5 689,-496.5 689,4 -4,4"/>
<!-- Node1 -->
<g id="node1" class="node">
<title>Node1</title>
<g id="a_node1"><a xlink:title=" ">
<polygon fill="#bfbfbf" stroke="black" points="0,-235 0,-265 139,-265 139,-235 0,-235"/>
<text text-anchor="start" x="8" y="-253" font-family="Helvetica,sans-Serif" font-size="10.00">InputDeviceBitArrayStatus</text>
<text text-anchor="middle" x="69.5" y="-242" font-family="Helvetica,sans-Serif" font-size="10.00">::InputDeviceBitArrayStatus</text>
</a>
</g>
</g>
<!-- Node2 -->
<g id="node2" class="node">
<title>Node2</title>
<g id="a_node2"><a xlink:href="classInputDevice.html#abc23a70bef37f2fc70248cd129af170b" target="_top" xlink:title=" ">
<polygon fill="white" stroke="black" points="191.5,-462 191.5,-492 322.5,-492 322.5,-462 191.5,-462"/>
<text text-anchor="start" x="199.5" y="-480" font-family="Helvetica,sans-Serif" font-size="10.00">InputDevice::getActiveSet</text>
<text text-anchor="middle" x="257" y="-469" font-family="Helvetica,sans-Serif" font-size="10.00">Joystick</text>
</a>
</g>
</g>
<!-- Node1&#45;&gt;Node2 -->
<g id="edge1" class="edge">
<title>Node1&#45;&gt;Node2</title>
<path fill="none" stroke="midnightblue" d="M74.03,-265.22C83.54,-302.74 113.21,-400.33 175,-452 177.28,-453.9 179.7,-455.66 182.22,-457.29"/>
<polygon fill="midnightblue" stroke="midnightblue" points="180.74,-460.47 191.17,-462.31 184.16,-454.36 180.74,-460.47"/>
</g>
<!-- Node4 -->
<g id="node4" class="node">
<title>Node4</title>
<g id="a_node4"><a xlink:href="classJoyButton.html#aa1eb52e9cce61ac403f9b451c512f197" target="_top" xlink:title=" ">
<polygon fill="white" stroke="black" points="191,-423.5 191,-442.5 323,-442.5 323,-423.5 191,-423.5"/>
<text text-anchor="middle" x="257" y="-430.5" font-family="Helvetica,sans-Serif" font-size="10.00">JoyButton::getButtonState</text>
</a>
</g>
</g>
<!-- Node1&#45;&gt;Node4 -->
<g id="edge3" class="edge">
<title>Node1&#45;&gt;Node4</title>
<path fill="none" stroke="midnightblue" d="M75.77,-265.48C87.78,-298.37 120.48,-375.33 175,-414 177.71,-415.92 180.59,-417.65 183.58,-419.21"/>
<polygon fill="midnightblue" stroke="midnightblue" points="182.29,-422.47 192.85,-423.38 185.16,-416.08 182.29,-422.47"/>
</g>
<!-- Node5 -->
<g id="node5" class="node">
<title>Node5</title>
<g id="a_node5"><a xlink:href="classInputDeviceBitArrayStatus.html#aa2d24f289cc48038bc2dd9d0524ecc05" target="_top" xlink:title=" ">
<polygon fill="white" stroke="black" points="190.5,-374 190.5,-404 323.5,-404 323.5,-374 190.5,-374"/>
<text text-anchor="start" x="198.5" y="-392" font-family="Helvetica,sans-Serif" font-size="10.00">InputDeviceBitArrayStatus</text>
<text text-anchor="middle" x="257" y="-381" font-family="Helvetica,sans-Serif" font-size="10.00">::getButtonStatusLocal</text>
</a>
</g>
</g>
<!-- Node1&#45;&gt;Node5 -->
<g id="edge4" class="edge">
<title>Node1&#45;&gt;Node5</title>
<path fill="none" stroke="midnightblue" d="M80.47,-265.31C97.14,-289.73 133.03,-337.44 175,-364 178.33,-366.11 181.86,-368.05 185.49,-369.84"/>
<polygon fill="midnightblue" stroke="midnightblue" points="184.16,-373.07 194.72,-373.96 187.02,-366.68 184.16,-373.07"/>
</g>
<!-- Node6 -->
<g id="node6" class="node">
<title>Node6</title>
<g id="a_node6"><a xlink:href="classJoyDPad.html#aacfc91b263be22419a610c023b407c28" target="_top" xlink:title=" ">
<polygon fill="white" stroke="black" points="183,-335.5 183,-354.5 331,-354.5 331,-335.5 183,-335.5"/>
<text text-anchor="middle" x="257" y="-342.5" font-family="Helvetica,sans-Serif" font-size="10.00">JoyDPad::getCurrentDirection</text>
</a>
</g>
</g>
<!-- Node1&#45;&gt;Node6 -->
<g id="edge5" class="edge">
<title>Node1&#45;&gt;Node6</title>
<path fill="none" stroke="midnightblue" d="M86.91,-265.2C106.44,-282.48 140.74,-310.3 175,-326 180.38,-328.47 186.12,-330.63 191.96,-332.53"/>
<polygon fill="midnightblue" stroke="midnightblue" points="191.26,-335.97 201.84,-335.47 193.25,-329.26 191.26,-335.97"/>
</g>
<!-- Node7 -->
<g id="node7" class="node">
<title>Node7</title>
<g id="a_node7"><a xlink:href="classJoyAxis.html#a0580ab0df546a1c03b4e8f755ad00272" target="_top" xlink:title=" ">
<polygon fill="white" stroke="black" points="183.5,-297.5 183.5,-316.5 330.5,-316.5 330.5,-297.5 183.5,-297.5"/>
<text text-anchor="middle" x="257" y="-304.5" font-family="Helvetica,sans-Serif" font-size="10.00">JoyAxis::getCurrentRawValue</text>
</a>
</g>
</g>
<!-- Node1&#45;&gt;Node7 -->
<g id="edge6" class="edge">
<title>Node1&#45;&gt;Node7</title>
<path fill="none" stroke="midnightblue" d="M108.84,-265.18C128.45,-272.62 152.8,-281.38 175,-288 183.45,-290.52 192.47,-292.91 201.32,-295.11"/>
<polygon fill="midnightblue" stroke="midnightblue" points="200.64,-298.54 211.19,-297.49 202.29,-291.74 200.64,-298.54"/>
</g>
<!-- Node8 -->
<g id="node8" class="node">
<title>Node8</title>
<g id="a_node8"><a xlink:href="classSetJoystick.html#a7c8f524fe045b89901ba945c5e1045cf" target="_top" xlink:title=" ">
<polygon fill="white" stroke="black" points="196,-259.5 196,-278.5 318,-278.5 318,-259.5 196,-259.5"/>
<text text-anchor="middle" x="257" y="-266.5" font-family="Helvetica,sans-Serif" font-size="10.00">SetJoystick::getJoyAxis</text>
</a>
</g>
</g>
<!-- Node1&#45;&gt;Node8 -->
<g id="edge7" class="edge">
<title>Node1&#45;&gt;Node8</title>
<path fill="none" stroke="midnightblue" d="M139.05,-257.02C154.37,-258.59 170.64,-260.26 186.02,-261.83"/>
<polygon fill="midnightblue" stroke="midnightblue" points="185.68,-265.32 195.98,-262.85 186.39,-258.35 185.68,-265.32"/>
</g>
<!-- Node9 -->
<g id="node9" class="node">
<title>Node9</title>
<g id="a_node9"><a xlink:href="classSetJoystick.html#a652994327142229429b0d6f43a96103a" target="_top" xlink:title=" ">
<polygon fill="white" stroke="black" points="191.5,-221.5 191.5,-240.5 322.5,-240.5 322.5,-221.5 191.5,-221.5"/>
<text text-anchor="middle" x="257" y="-228.5" font-family="Helvetica,sans-Serif" font-size="10.00">SetJoystick::getJoyButton</text>
</a>
</g>
</g>
<!-- Node1&#45;&gt;Node9 -->
<g id="edge8" class="edge">
<title>Node1&#45;&gt;Node9</title>
<path fill="none" stroke="midnightblue" d="M139.05,-242.98C152.83,-241.57 167.39,-240.08 181.37,-238.64"/>
<polygon fill="midnightblue" stroke="midnightblue" points="181.84,-242.11 191.43,-237.61 181.12,-235.15 181.84,-242.11"/>
</g>
<!-- Node11 -->
<g id="node11" class="node">
<title>Node11</title>
<g id="a_node11"><a xlink:href="classSetJoystick.html#a5071c4bc7bdb1b0601b60b807a235818" target="_top" xlink:title=" ">
<polygon fill="white" stroke="black" points="193.5,-183.5 193.5,-202.5 320.5,-202.5 320.5,-183.5 193.5,-183.5"/>
<text text-anchor="middle" x="257" y="-190.5" font-family="Helvetica,sans-Serif" font-size="10.00">SetJoystick::getJoyDPad</text>
</a>
</g>
</g>
<!-- Node1&#45;&gt;Node11 -->
<g id="edge10" class="edge">
<title>Node1&#45;&gt;Node11</title>
<path fill="none" stroke="midnightblue" d="M108.84,-234.82C128.45,-227.38 152.8,-218.62 175,-212 183.45,-209.48 192.47,-207.09 201.32,-204.89"/>
<polygon fill="midnightblue" stroke="midnightblue" points="202.29,-208.26 211.19,-202.51 200.64,-201.46 202.29,-208.26"/>
</g>
<!-- Node13 -->
<g id="node13" class="node">
<title>Node13</title>
<g id="a_node13"><a xlink:href="classInputDevice.html#ab370bf7bbf5f75d11f0513360d3a2dd2" target="_top" xlink:title=" ">
<polygon fill="white" stroke="black" points="175,-145.5 175,-164.5 339,-164.5 339,-145.5 175,-145.5"/>
<text text-anchor="middle" x="257" y="-152.5" font-family="Helvetica,sans-Serif" font-size="10.00">InputDevice::getNumberRawAxes</text>
</a>
</g>
</g>
<!-- Node1&#45;&gt;Node13 -->
<g id="edge12" class="edge">
<title>Node1&#45;&gt;Node13</title>
<path fill="none" stroke="midnightblue" d="M86.91,-234.8C106.44,-217.52 140.74,-189.7 175,-174 180.38,-171.53 186.12,-169.37 191.96,-167.47"/>
<polygon fill="midnightblue" stroke="midnightblue" points="193.25,-170.74 201.84,-164.53 191.26,-164.03 193.25,-170.74"/>
</g>
<!-- Node14 -->
<g id="node14" class="node">
<title>Node14</title>
<g id="a_node14"><a xlink:href="classInputDevice.html#aba85af39454731d948fcb47105da814c" target="_top" xlink:title=" ">
<polygon fill="white" stroke="black" points="185.5,-96 185.5,-126 328.5,-126 328.5,-96 185.5,-96"/>
<text text-anchor="start" x="193.5" y="-114" font-family="Helvetica,sans-Serif" font-size="10.00">InputDevice::getNumberRaw</text>
<text text-anchor="middle" x="257" y="-103" font-family="Helvetica,sans-Serif" font-size="10.00">Buttons</text>
</a>
</g>
</g>
<!-- Node1&#45;&gt;Node14 -->
<g id="edge13" class="edge">
<title>Node1&#45;&gt;Node14</title>
<path fill="none" stroke="midnightblue" d="M80.47,-234.69C97.14,-210.27 133.03,-162.56 175,-136 178.33,-133.89 181.86,-131.95 185.49,-130.16"/>
<polygon fill="midnightblue" stroke="midnightblue" points="187.02,-133.32 194.72,-126.04 184.16,-126.93 187.02,-133.32"/>
</g>
<!-- Node15 -->
<g id="node15" class="node">
<title>Node15</title>
<g id="a_node15"><a xlink:href="classInputDevice.html#acfaadd312a041e0295d41637034ec2c2" target="_top" xlink:title=" ">
<polygon fill="white" stroke="black" points="175,-57.5 175,-76.5 339,-76.5 339,-57.5 175,-57.5"/>
<text text-anchor="middle" x="257" y="-64.5" font-family="Helvetica,sans-Serif" font-size="10.00">InputDevice::getNumberRawHats</text>
</a>
</g>
</g>
<!-- Node1&#45;&gt;Node15 -->
<g id="edge14" class="edge">
<title>Node1&#45;&gt;Node15</title>
<path fill="none" stroke="midnightblue" d="M75.83,-234.66C87.97,-202.06 120.88,-125.75 175,-87 178.44,-84.53 182.16,-82.37 186.04,-80.47"/>
<polygon fill="midnightblue" stroke="midnightblue" points="187.51,-83.65 195.34,-76.51 184.76,-77.21 187.51,-83.65"/>
</g>
<!-- Node16 -->
<g id="node16" class="node">
<title>Node16</title>
<g id="a_node16"><a xlink:href="classJoyAxis.html#aec8483db205a707cece118ea48cd7072" target="_top" xlink:title=" ">
<polygon fill="white" stroke="black" points="202,-19.5 202,-38.5 312,-38.5 312,-19.5 202,-19.5"/>
<text text-anchor="middle" x="257" y="-26.5" font-family="Helvetica,sans-Serif" font-size="10.00">JoyAxis::inDeadZone</text>
</a>
</g>
</g>
<!-- Node1&#45;&gt;Node16 -->
<g id="edge15" class="edge">
<title>Node1&#45;&gt;Node16</title>
<path fill="none" stroke="midnightblue" d="M73.75,-234.79C82.69,-196.87 111.31,-97.63 175,-48 180.08,-44.04 185.86,-40.88 191.93,-38.37"/>
<polygon fill="midnightblue" stroke="midnightblue" points="193.39,-41.56 201.64,-34.92 191.05,-34.96 193.39,-41.56"/>
</g>
<!-- Node3 -->
<g id="node3" class="node">
<title>Node3</title>
<g id="a_node3"><a xlink:href="classInputDevice.html#a1c4c65d9e509a5c3bde064871d7e1849" target="_top" xlink:title=" ">
<polygon fill="white" stroke="black" points="375,-467.5 375,-486.5 524,-486.5 524,-467.5 375,-467.5"/>
<text text-anchor="middle" x="449.5" y="-474.5" font-family="Helvetica,sans-Serif" font-size="10.00">InputDevice::getJoystick_sets</text>
</a>
</g>
</g>
<!-- Node2&#45;&gt;Node3 -->
<g id="edge2" class="edge">
<title>Node2&#45;&gt;Node3</title>
<path fill="none" stroke="midnightblue" d="M322.76,-477C336.21,-477 350.57,-477 364.6,-477"/>
<polygon fill="midnightblue" stroke="midnightblue" points="364.74,-480.5 374.74,-477 364.74,-473.5 364.74,-480.5"/>
</g>
<!-- Node10 -->
<g id="node10" class="node">
<title>Node10</title>
<g id="a_node10"><a xlink:href="classSetJoystick.html#ac5baae46a0b3924a83b523ad89819a53" target="_top" xlink:title=" ">
<polygon fill="white" stroke="black" points="389.5,-221.5 389.5,-240.5 509.5,-240.5 509.5,-221.5 389.5,-221.5"/>
<text text-anchor="middle" x="449.5" y="-228.5" font-family="Helvetica,sans-Serif" font-size="10.00">SetJoystick::getButtons</text>
</a>
</g>
</g>
<!-- Node9&#45;&gt;Node10 -->
<g id="edge9" class="edge">
<title>Node9&#45;&gt;Node10</title>
<path fill="none" stroke="midnightblue" d="M322.76,-231C340.96,-231 360.83,-231 379.28,-231"/>
<polygon fill="midnightblue" stroke="midnightblue" points="379.36,-234.5 389.36,-231 379.36,-227.5 379.36,-234.5"/>
</g>
<!-- Node12 -->
<g id="node12" class="node">
<title>Node12</title>
<g id="a_node12"><a xlink:href="classSetJoystick.html#a2a6870a2ac3f5cc490344baf7ed2edd5" target="_top" xlink:title=" ">
<polygon fill="white" stroke="black" points="396,-183.5 396,-202.5 503,-202.5 503,-183.5 396,-183.5"/>
<text text-anchor="middle" x="449.5" y="-190.5" font-family="Helvetica,sans-Serif" font-size="10.00">SetJoystick::getHats</text>
</a>
</g>
</g>
<!-- Node11&#45;&gt;Node12 -->
<g id="edge11" class="edge">
<title>Node11&#45;&gt;Node12</title>
<path fill="none" stroke="midnightblue" d="M320.64,-193C341.52,-193 364.77,-193 385.66,-193"/>
<polygon fill="midnightblue" stroke="midnightblue" points="385.7,-196.5 395.7,-193 385.7,-189.5 385.7,-196.5"/>
</g>
<!-- Node17 -->
<g id="node17" class="node">
<title>Node17</title>
<g id="a_node17"><a xlink:href="classJoyAxis.html#a06d99d722b314998440165a01b0f87b3" target="_top" xlink:title=" ">
<polygon fill="white" stroke="black" points="382,-14 382,-44 517,-44 517,-14 382,-14"/>
<text text-anchor="start" x="390" y="-32" font-family="Helvetica,sans-Serif" font-size="10.00">JoyAxis::calculateThrottled</text>
<text text-anchor="middle" x="449.5" y="-21" font-family="Helvetica,sans-Serif" font-size="10.00">Value</text>
</a>
</g>
</g>
<!-- Node16&#45;&gt;Node17 -->
<g id="edge16" class="edge">
<title>Node16&#45;&gt;Node17</title>
<path fill="none" stroke="midnightblue" d="M312.08,-29C330.62,-29 351.73,-29 371.72,-29"/>
<polygon fill="midnightblue" stroke="midnightblue" points="371.73,-32.5 381.73,-29 371.73,-25.5 371.73,-32.5"/>
</g>
<!-- Node18 -->
<g id="node18" class="node">
<title>Node18</title>
<g id="a_node18"><a xlink:href="classJoyAxis.html#af3f311fbf20c583224c2320d1fda0226" target="_top" xlink:title=" ">
<polygon fill="white" stroke="black" points="560,-38.5 560,-57.5 685,-57.5 685,-38.5 560,-38.5"/>
<text text-anchor="middle" x="622.5" y="-45.5" font-family="Helvetica,sans-Serif" font-size="10.00">JoyAxis::getAxisMaxCal</text>
</a>
</g>
</g>
<!-- Node17&#45;&gt;Node18 -->
<g id="edge17" class="edge">
<title>Node17&#45;&gt;Node18</title>
<path fill="none" stroke="midnightblue" d="M517.1,-36.4C527.76,-37.58 538.83,-38.81 549.61,-40.01"/>
<polygon fill="midnightblue" stroke="midnightblue" points="549.5,-43.52 559.83,-41.15 550.28,-36.56 549.5,-43.52"/>
</g>
<!-- Node19 -->
<g id="node19" class="node">
<title>Node19</title>
<g id="a_node19"><a xlink:href="classJoyAxis.html#aff06f563278beb621285f65fb33b784a" target="_top" xlink:title=" ">
<polygon fill="white" stroke="black" points="562,-0.5 562,-19.5 683,-19.5 683,-0.5 562,-0.5"/>
<text text-anchor="middle" x="622.5" y="-7.5" font-family="Helvetica,sans-Serif" font-size="10.00">JoyAxis::getAxisMinCal</text>
</a>
</g>
</g>
<!-- Node17&#45;&gt;Node19 -->
<g id="edge18" class="edge">
<title>Node17&#45;&gt;Node19</title>
<path fill="none" stroke="midnightblue" d="M517.1,-21.6C528.49,-20.33 540.35,-19.02 551.81,-17.74"/>
<polygon fill="midnightblue" stroke="midnightblue" points="552.21,-21.22 561.77,-16.64 551.44,-14.26 552.21,-21.22"/>
</g>
</g>
</svg>
