<?xml version="1.0" encoding="UTF-8" standalone="no"?>
<!DOCTYPE svg PUBLIC "-//W3C//DTD SVG 1.1//EN"
 "http://www.w3.org/Graphics/SVG/1.1/DTD/svg11.dtd">
<!-- Generated by graphviz version 2.43.0 (0)
 -->
<!-- Title: DPadPushButtonGroup::openDPadButtonDialog Pages: 1 -->
<svg width="604pt" height="39pt"
 viewBox="0.00 0.00 604.00 39.00" xmlns="http://www.w3.org/2000/svg" xmlns:xlink="http://www.w3.org/1999/xlink">
<g id="graph0" class="graph" transform="scale(1 1) rotate(0) translate(4 35)">
<title>DPadPushButtonGroup::openDPadButtonDialog</title>
<polygon fill="white" stroke="transparent" points="-4,4 -4,-35 600,-35 600,4 -4,4"/>
<!-- Node1 -->
<g id="node1" class="node">
<title>Node1</title>
<g id="a_node1"><a xlink:title=" ">
<polygon fill="#bfbfbf" stroke="black" points="471,-0.5 471,-30.5 596,-30.5 596,-0.5 471,-0.5"/>
<text text-anchor="start" x="479" y="-18.5" font-family="Helvetica,sans-Serif" font-size="10.00">DPadPushButtonGroup</text>
<text text-anchor="middle" x="533.5" y="-7.5" font-family="Helvetica,sans-Serif" font-size="10.00">::openDPadButtonDialog</text>
</a>
</g>
</g>
<!-- Node2 -->
<g id="node2" class="node">
<title>Node2</title>
<g id="a_node2"><a xlink:href="$classDPadPushButtonGroup.html#ad1df6bca89fd9b715a063a0f3a817792" xlink:title=" ">
<polygon fill="white" stroke="black" points="316,-0.5 316,-30.5 435,-30.5 435,-0.5 316,-0.5"/>
<text text-anchor="start" x="324" y="-18.5" font-family="Helvetica,sans-Serif" font-size="10.00">DPadPushButtonGroup</text>
<text text-anchor="middle" x="375.5" y="-7.5" font-family="Helvetica,sans-Serif" font-size="10.00">::generateBtnForGrid</text>
</a>
</g>
</g>
<!-- Node1&#45;&gt;Node2 -->
<g id="edge1" class="edge">
<title>Node1&#45;&gt;Node2</title>
<path fill="none" stroke="midnightblue" d="M460.83,-15.5C452.24,-15.5 443.54,-15.5 435.16,-15.5"/>
<polygon fill="midnightblue" stroke="midnightblue" points="460.84,-19 470.84,-15.5 460.84,-12 460.84,-19"/>
</g>
<!-- Node3 -->
<g id="node3" class="node">
<title>Node3</title>
<g id="a_node3"><a xlink:href="$classDPadPushButtonGroup.html#aee9a764b8e351c4e7cfe4cbc8d9167af" xlink:title=" ">
<polygon fill="white" stroke="black" points="161,-0.5 161,-30.5 280,-30.5 280,-0.5 161,-0.5"/>
<text text-anchor="start" x="169" y="-18.5" font-family="Helvetica,sans-Serif" font-size="10.00">DPadPushButtonGroup</text>
<text text-anchor="middle" x="220.5" y="-7.5" font-family="Helvetica,sans-Serif" font-size="10.00">::generateButtons</text>
</a>
</g>
</g>
<!-- Node2&#45;&gt;Node3 -->
<g id="edge2" class="edge">
<title>Node2&#45;&gt;Node3</title>
<path fill="none" stroke="midnightblue" d="M305.51,-15.5C297.01,-15.5 288.38,-15.5 280.06,-15.5"/>
<polygon fill="midnightblue" stroke="midnightblue" points="305.78,-19 315.78,-15.5 305.78,-12 305.78,-19"/>
</g>
<!-- Node4 -->
<g id="node4" class="node">
<title>Node4</title>
<g id="a_node4"><a xlink:href="$classDPadPushButtonGroup.html#aa7e7b7b0873d1d2528657e6dc5f6ae2a" xlink:title=" ">
<polygon fill="white" stroke="black" points="0,-0.5 0,-30.5 125,-30.5 125,-0.5 0,-0.5"/>
<text text-anchor="start" x="8" y="-18.5" font-family="Helvetica,sans-Serif" font-size="10.00">DPadPushButtonGroup</text>
<text text-anchor="middle" x="62.5" y="-7.5" font-family="Helvetica,sans-Serif" font-size="10.00">::DPadPushButtonGroup</text>
</a>
</g>
</g>
<!-- Node3&#45;&gt;Node4 -->
<g id="edge3" class="edge">
<title>Node3&#45;&gt;Node4</title>
<path fill="none" stroke="midnightblue" d="M150.72,-15.5C142.23,-15.5 133.6,-15.5 125.23,-15.5"/>
<polygon fill="midnightblue" stroke="midnightblue" points="150.97,-19 160.97,-15.5 150.97,-12 150.97,-19"/>
</g>
</g>
</svg>
