<?xml version="1.0" encoding="UTF-8" standalone="no"?>
<!DOCTYPE svg PUBLIC "-//W3C//DTD SVG 1.1//EN"
 "http://www.w3.org/Graphics/SVG/1.1/DTD/svg11.dtd">
<!-- Generated by graphviz version 2.43.0 (0)
 -->
<!-- Title: MouseDPadSettingsDialog::updateSensitivity Pages: 1 -->
<svg width="496pt" height="39pt"
 viewBox="0.00 0.00 496.00 39.00" xmlns="http://www.w3.org/2000/svg" xmlns:xlink="http://www.w3.org/1999/xlink">
<g id="graph0" class="graph" transform="scale(1 1) rotate(0) translate(4 35)">
<title>MouseDPadSettingsDialog::updateSensitivity</title>
<polygon fill="white" stroke="transparent" points="-4,4 -4,-35 492,-35 492,4 -4,4"/>
<!-- Node1 -->
<g id="node1" class="node">
<title>Node1</title>
<g id="a_node1"><a xlink:title=" ">
<polygon fill="#bfbfbf" stroke="black" points="0,-0.5 0,-30.5 134,-30.5 134,-0.5 0,-0.5"/>
<text text-anchor="start" x="8" y="-18.5" font-family="Helvetica,sans-Serif" font-size="10.00">MouseDPadSettingsDialog</text>
<text text-anchor="middle" x="67" y="-7.5" font-family="Helvetica,sans-Serif" font-size="10.00">::updateSensitivity</text>
</a>
</g>
</g>
<!-- Node2 -->
<g id="node2" class="node">
<title>Node2</title>
<g id="a_node2"><a xlink:href="classJoyDPad.html#acc343dad148487a16a4c39ff1b41eef9" target="_top" xlink:title=" ">
<polygon fill="white" stroke="black" points="170,-6 170,-25 326,-25 326,-6 170,-6"/>
<text text-anchor="middle" x="248" y="-13" font-family="Helvetica,sans-Serif" font-size="10.00">JoyDPad::setButtonsSensitivity</text>
</a>
</g>
</g>
<!-- Node1&#45;&gt;Node2 -->
<g id="edge1" class="edge">
<title>Node1&#45;&gt;Node2</title>
<path fill="none" stroke="midnightblue" d="M134.14,-15.5C142.52,-15.5 151.19,-15.5 159.83,-15.5"/>
<polygon fill="midnightblue" stroke="midnightblue" points="159.94,-19 169.94,-15.5 159.94,-12 159.94,-19"/>
</g>
<!-- Node3 -->
<g id="node3" class="node">
<title>Node3</title>
<g id="a_node3"><a xlink:href="classJoyButton.html#a79db0e0cc11d3a55497a51701f9abcd0" target="_top" xlink:title=" ">
<polygon fill="white" stroke="black" points="362,-6 362,-25 488,-25 488,-6 362,-6"/>
<text text-anchor="middle" x="425" y="-13" font-family="Helvetica,sans-Serif" font-size="10.00">JoyButton::setSensitivity</text>
</a>
</g>
</g>
<!-- Node2&#45;&gt;Node3 -->
<g id="edge2" class="edge">
<title>Node2&#45;&gt;Node3</title>
<path fill="none" stroke="midnightblue" d="M326.01,-15.5C334.55,-15.5 343.23,-15.5 351.71,-15.5"/>
<polygon fill="midnightblue" stroke="midnightblue" points="351.93,-19 361.93,-15.5 351.93,-12 351.93,-19"/>
</g>
</g>
</svg>
