<?xml version="1.0" encoding="UTF-8" standalone="no"?>
<!DOCTYPE svg PUBLIC "-//W3C//DTD SVG 1.1//EN"
 "http://www.w3.org/Graphics/SVG/1.1/DTD/svg11.dtd">
<!-- Generated by graphviz version 2.43.0 (0)
 -->
<!-- Title: JoyAxis::eventReset Pages: 1 -->
<svg width="651pt" height="394pt"
 viewBox="0.00 0.00 651.00 394.22" xmlns="http://www.w3.org/2000/svg" xmlns:xlink="http://www.w3.org/1999/xlink">
<g id="graph0" class="graph" transform="scale(1 1) rotate(0) translate(4 390.22)">
<title>JoyAxis::eventReset</title>
<polygon fill="white" stroke="transparent" points="-4,4 -4,-390.22 647,-390.22 647,4 -4,4"/>
<!-- Node1 -->
<g id="node1" class="node">
<title>Node1</title>
<g id="a_node1"><a xlink:title=" ">
<polygon fill="#bfbfbf" stroke="black" points="536,-192 536,-211 643,-211 643,-192 536,-192"/>
<text text-anchor="middle" x="589.5" y="-199" font-family="Helvetica,sans-Serif" font-size="10.00">JoyAxis::eventReset</text>
</a>
</g>
</g>
<!-- Node2 -->
<g id="node2" class="node">
<title>Node2</title>
<g id="a_node2"><a xlink:href="classSetJoystick.html#aa93108aaa5ccbf15f1b56b22ec73798b" target="_top" xlink:title="Perform a release of all elements of a set. Stick and vdpad releases will be handled by the associate...">
<polygon fill="white" stroke="black" points="396,-192 396,-211 500,-211 500,-192 396,-192"/>
<text text-anchor="middle" x="448" y="-199" font-family="Helvetica,sans-Serif" font-size="10.00">SetJoystick::release</text>
</a>
</g>
</g>
<!-- Node1&#45;&gt;Node2 -->
<g id="edge1" class="edge">
<title>Node1&#45;&gt;Node2</title>
<path fill="none" stroke="midnightblue" d="M525.59,-201.5C517.17,-201.5 508.62,-201.5 500.43,-201.5"/>
<polygon fill="midnightblue" stroke="midnightblue" points="525.76,-205 535.76,-201.5 525.76,-198 525.76,-205"/>
</g>
<!-- Node3 -->
<g id="node3" class="node">
<title>Node3</title>
<g id="a_node3"><a xlink:href="classAdvanceStickAssignmentDialog.html#a86cf0001cd774ce5ccec8543b7a9a50b" target="_top" xlink:title=" ">
<polygon fill="white" stroke="black" points="0,-320.5 0,-350.5 162,-350.5 162,-320.5 0,-320.5"/>
<text text-anchor="start" x="8" y="-338.5" font-family="Helvetica,sans-Serif" font-size="10.00">AdvanceStickAssignmentDialog</text>
<text text-anchor="middle" x="81" y="-327.5" font-family="Helvetica,sans-Serif" font-size="10.00">::AdvanceStickAssignmentDialog</text>
</a>
</g>
</g>
<!-- Node2&#45;&gt;Node3 -->
<g id="edge2" class="edge">
<title>Node2&#45;&gt;Node3</title>
<path fill="none" stroke="midnightblue" d="M443.18,-221.31C435.07,-257.2 412.41,-332.16 360,-363.5 282.15,-410.06 169.7,-373.66 114.73,-350.65"/>
<polygon fill="midnightblue" stroke="midnightblue" points="446.69,-221.64 445.32,-211.13 439.84,-220.2 446.69,-221.64"/>
</g>
<!-- Node4 -->
<g id="node4" class="node">
<title>Node4</title>
<g id="a_node4"><a xlink:href="classButtonEditDialog.html#a3e9feede100cbb6a11c9d87659c196ea" target="_top" xlink:title=" ">
<polygon fill="white" stroke="black" points="216.5,-323.5 216.5,-353.5 341.5,-353.5 341.5,-323.5 216.5,-323.5"/>
<text text-anchor="start" x="224.5" y="-341.5" font-family="Helvetica,sans-Serif" font-size="10.00">ButtonEditDialog::Button</text>
<text text-anchor="middle" x="279" y="-330.5" font-family="Helvetica,sans-Serif" font-size="10.00">EditDialog</text>
</a>
</g>
</g>
<!-- Node2&#45;&gt;Node4 -->
<g id="edge3" class="edge">
<title>Node2&#45;&gt;Node4</title>
<path fill="none" stroke="midnightblue" d="M437.47,-220.23C423.73,-245.36 396,-289.71 360,-314.5 354.39,-318.37 348.14,-321.62 341.68,-324.36"/>
<polygon fill="midnightblue" stroke="midnightblue" points="440.6,-221.8 442.19,-211.32 434.41,-218.52 440.6,-221.8"/>
</g>
<!-- Node5 -->
<g id="node5" class="node">
<title>Node5</title>
<g id="a_node5"><a xlink:href="classJoystickStatusWindow.html#a96d9e83b764e14faed4c4dc275d23c45" target="_top" xlink:title=" ">
<polygon fill="white" stroke="black" points="20,-208.5 20,-238.5 142,-238.5 142,-208.5 20,-208.5"/>
<text text-anchor="start" x="28" y="-226.5" font-family="Helvetica,sans-Serif" font-size="10.00">JoystickStatusWindow</text>
<text text-anchor="middle" x="81" y="-215.5" font-family="Helvetica,sans-Serif" font-size="10.00">::JoystickStatusWindow</text>
</a>
</g>
</g>
<!-- Node2&#45;&gt;Node5 -->
<g id="edge4" class="edge">
<title>Node2&#45;&gt;Node5</title>
<path fill="none" stroke="midnightblue" d="M411.05,-214.28C395.56,-219.14 377.11,-224.09 360,-226.5 285.56,-236.98 198.8,-233.6 142.26,-229.34"/>
<polygon fill="midnightblue" stroke="midnightblue" points="412.34,-217.54 420.76,-211.12 410.17,-210.88 412.34,-217.54"/>
</g>
<!-- Node6 -->
<g id="node6" class="node">
<title>Node6</title>
<g id="a_node6"><a xlink:href="classQuickSetDialog.html#a57726006cbe2d8534f4be91a05646dd2" target="_top" xlink:title=" ">
<polygon fill="white" stroke="black" points="15.5,-115.5 15.5,-145.5 146.5,-145.5 146.5,-115.5 15.5,-115.5"/>
<text text-anchor="start" x="23.5" y="-133.5" font-family="Helvetica,sans-Serif" font-size="10.00">QuickSetDialog::QuickSet</text>
<text text-anchor="middle" x="81" y="-122.5" font-family="Helvetica,sans-Serif" font-size="10.00">Dialog</text>
</a>
</g>
</g>
<!-- Node2&#45;&gt;Node6 -->
<g id="edge5" class="edge">
<title>Node2&#45;&gt;Node6</title>
<path fill="none" stroke="midnightblue" d="M405.75,-189.2C391.36,-185.15 375.04,-180.84 360,-177.5 287.48,-161.41 203.25,-147.88 146.68,-139.53"/>
<polygon fill="midnightblue" stroke="midnightblue" points="404.8,-192.56 415.38,-191.94 406.72,-185.83 404.8,-192.56"/>
</g>
<!-- Node7 -->
<g id="node7" class="node">
<title>Node7</title>
<g id="a_node7"><a xlink:href="classAdvanceStickAssignmentDialog.html#a48ade79f1dfeb93ff668ac18d0e1243f" target="_top" xlink:title=" ">
<polygon fill="white" stroke="black" points="201,-274.5 201,-304.5 357,-304.5 357,-274.5 201,-274.5"/>
<text text-anchor="start" x="209" y="-292.5" font-family="Helvetica,sans-Serif" font-size="10.00">AdvanceStickAssignmentDialog</text>
<text text-anchor="middle" x="279" y="-281.5" font-family="Helvetica,sans-Serif" font-size="10.00">::reenableButtonEvents</text>
</a>
</g>
</g>
<!-- Node2&#45;&gt;Node7 -->
<g id="edge6" class="edge">
<title>Node2&#45;&gt;Node7</title>
<path fill="none" stroke="midnightblue" d="M426.44,-217.17C409.31,-229.74 383.94,-247.24 360,-259.5 349.17,-265.05 337.08,-270.12 325.63,-274.45"/>
<polygon fill="midnightblue" stroke="midnightblue" points="428.66,-219.89 434.59,-211.11 424.48,-214.27 428.66,-219.89"/>
</g>
<!-- Node8 -->
<g id="node8" class="node">
<title>Node8</title>
<g id="a_node8"><a xlink:href="classJoystickStatusWindow.html#a1a1c28e1d6f480c7424ba81b30b8b4f5" target="_top" xlink:title=" ">
<polygon fill="white" stroke="black" points="221,-186.5 221,-216.5 337,-216.5 337,-186.5 221,-186.5"/>
<text text-anchor="start" x="229" y="-204.5" font-family="Helvetica,sans-Serif" font-size="10.00">JoystickStatusWindow</text>
<text text-anchor="middle" x="279" y="-193.5" font-family="Helvetica,sans-Serif" font-size="10.00">::restoreButtonStates</text>
</a>
</g>
</g>
<!-- Node2&#45;&gt;Node8 -->
<g id="edge8" class="edge">
<title>Node2&#45;&gt;Node8</title>
<path fill="none" stroke="midnightblue" d="M385.74,-201.5C369.84,-201.5 352.79,-201.5 337.11,-201.5"/>
<polygon fill="midnightblue" stroke="midnightblue" points="385.99,-205 395.99,-201.5 385.99,-198 385.99,-205"/>
</g>
<!-- Node9 -->
<g id="node9" class="node">
<title>Node9</title>
<g id="a_node9"><a xlink:href="classGameControllerMappingDialogHelper.html#a4040e6cf676fe8af751125e2928d8a35" target="_top" xlink:title=" ">
<polygon fill="white" stroke="black" points="198,-98.5 198,-128.5 360,-128.5 360,-98.5 198,-98.5"/>
<text text-anchor="start" x="206" y="-116.5" font-family="Helvetica,sans-Serif" font-size="10.00">GameControllerMappingDialog</text>
<text text-anchor="middle" x="279" y="-105.5" font-family="Helvetica,sans-Serif" font-size="10.00">Helper::restoreDeviceDeadZones</text>
</a>
</g>
</g>
<!-- Node2&#45;&gt;Node9 -->
<g id="edge10" class="edge">
<title>Node2&#45;&gt;Node9</title>
<path fill="none" stroke="midnightblue" d="M426.44,-185.83C409.31,-173.26 383.94,-155.76 360,-143.5 349.17,-137.95 337.08,-132.88 325.63,-128.55"/>
<polygon fill="midnightblue" stroke="midnightblue" points="424.48,-188.73 434.59,-191.89 428.66,-183.11 424.48,-188.73"/>
</g>
<!-- Node10 -->
<g id="node10" class="node">
<title>Node10</title>
<g id="a_node10"><a xlink:href="classQuickSetDialog.html#afacbf395389ca073edf366a412c1626b" target="_top" xlink:title=" ">
<polygon fill="white" stroke="black" points="200.5,-49.5 200.5,-79.5 357.5,-79.5 357.5,-49.5 200.5,-49.5"/>
<text text-anchor="start" x="208.5" y="-67.5" font-family="Helvetica,sans-Serif" font-size="10.00">QuickSetDialog::restoreJoystick</text>
<text text-anchor="middle" x="279" y="-56.5" font-family="Helvetica,sans-Serif" font-size="10.00">State</text>
</a>
</g>
</g>
<!-- Node2&#45;&gt;Node10 -->
<g id="edge11" class="edge">
<title>Node2&#45;&gt;Node10</title>
<path fill="none" stroke="midnightblue" d="M437.47,-182.77C423.73,-157.64 396,-113.29 360,-88.5 354.98,-85.05 349.46,-82.08 343.73,-79.53"/>
<polygon fill="midnightblue" stroke="midnightblue" points="434.41,-184.48 442.19,-191.68 440.6,-181.2 434.41,-184.48"/>
</g>
<!-- Node11 -->
<g id="node11" class="node">
<title>Node11</title>
<g id="a_node11"><a xlink:href="classGameControllerMappingDialogHelper.html#a7852aab5763281aa59c17f2f1da8dd31" target="_top" xlink:title=" ">
<polygon fill="white" stroke="black" points="204.5,-0.5 204.5,-30.5 353.5,-30.5 353.5,-0.5 204.5,-0.5"/>
<text text-anchor="start" x="212.5" y="-18.5" font-family="Helvetica,sans-Serif" font-size="10.00">GameControllerMappingDialog</text>
<text text-anchor="middle" x="279" y="-7.5" font-family="Helvetica,sans-Serif" font-size="10.00">Helper::setupDeadZones</text>
</a>
</g>
</g>
<!-- Node2&#45;&gt;Node11 -->
<g id="edge13" class="edge">
<title>Node2&#45;&gt;Node11</title>
<path fill="none" stroke="midnightblue" d="M441.92,-182.13C432.01,-148.14 406.86,-77.76 360,-39.5 355.84,-36.11 351.22,-33.19 346.35,-30.69"/>
<polygon fill="midnightblue" stroke="midnightblue" points="438.56,-183.1 444.61,-191.79 445.3,-181.22 438.56,-183.1"/>
</g>
<!-- Node7&#45;&gt;Node3 -->
<g id="edge7" class="edge">
<title>Node7&#45;&gt;Node3</title>
<path fill="none" stroke="midnightblue" d="M203.98,-306.87C184.89,-311.35 164.51,-316.13 145.99,-320.48"/>
<polygon fill="midnightblue" stroke="midnightblue" points="204.89,-310.25 213.82,-304.56 203.29,-303.44 204.89,-310.25"/>
</g>
<!-- Node8&#45;&gt;Node5 -->
<g id="edge9" class="edge">
<title>Node8&#45;&gt;Node5</title>
<path fill="none" stroke="midnightblue" d="M210.72,-209.05C188.41,-211.56 163.74,-214.32 142.02,-216.76"/>
<polygon fill="midnightblue" stroke="midnightblue" points="211.23,-212.52 220.78,-207.92 210.45,-205.56 211.23,-212.52"/>
</g>
<!-- Node10&#45;&gt;Node6 -->
<g id="edge12" class="edge">
<title>Node10&#45;&gt;Node6</title>
<path fill="none" stroke="midnightblue" d="M216.44,-82.59C210.2,-84.54 203.96,-86.53 198,-88.5 172.48,-96.94 144.1,-107.2 121.8,-115.47"/>
<polygon fill="midnightblue" stroke="midnightblue" points="217.7,-85.86 226.23,-79.57 215.64,-79.17 217.7,-85.86"/>
</g>
</g>
</svg>
