<?xml version="1.0" encoding="UTF-8" standalone="no"?>
<!DOCTYPE svg PUBLIC "-//W3C//DTD SVG 1.1//EN"
 "http://www.w3.org/Graphics/SVG/1.1/DTD/svg11.dtd">
<!-- Generated by graphviz version 2.43.0 (0)
 -->
<!-- Title: JoyControlStick::setCalibrationFlag Pages: 1 -->
<!--zoomable 237 -->
<svg id="main" version="1.1" xmlns="http://www.w3.org/2000/svg" xmlns:xlink="http://www.w3.org/1999/xlink" xml:space="preserve" onload="init(evt)">
<style type="text/css"><![CDATA[
.edge:hover path { stroke: red; }
.edge:hover polygon { stroke: red; fill: red; }
]]></style>
<script type="text/javascript"><![CDATA[
var edges = document.getElementsByTagName('g');
if (edges && edges.length) {
  for (var i=0;i<edges.length;i++) {
    if (edges[i].id.substr(0,4)=='edge') {
      edges[i].setAttribute('class','edge');
    }
  }
}
]]></script>
        <defs>
                <circle id="rim" cx="0" cy="0" r="7"/>
                <circle id="rim2" cx="0" cy="0" r="3.5"/>
                <g id="zoomPlus">
                        <use xlink:href="#rim" fill="#404040">
                                <set attributeName="fill" to="#808080" begin="zoomplus.mouseover" end="zoomplus.mouseout"/>
                        </use>
                        <path d="M-4,0h8M0,-4v8" fill="none" stroke="white" stroke-width="1.5" pointer-events="none"/>
                </g>
                <g id="zoomMin">
                        <use xlink:href="#rim" fill="#404040">
                                <set attributeName="fill" to="#808080" begin="zoomminus.mouseover" end="zoomminus.mouseout"/>
                        </use>
                        <path d="M-4,0h8" fill="none" stroke="white" stroke-width="1.5" pointer-events="none"/>
                </g>
                <g id="dirArrow">
                        <path fill="none" stroke="white" stroke-width="1.5" d="M0,-3.0v7 M-2.5,-0.5L0,-3.0L2.5,-0.5"/>
                </g>
               <g id="resetDef">
                       <use xlink:href="#rim2" fill="#404040">
                               <set attributeName="fill" to="#808080" begin="reset.mouseover" end="reset.mouseout"/>
                       </use>
               </g>
        </defs>

<script type="text/javascript">
var viewWidth = 737;
var viewHeight = 237;
var sectionId = 'dynsection-224';
</script>
<script xlink:href="svgpan.js"/>
<svg id="graph" class="graph">
<g id="viewport">
<title>JoyControlStick::setCalibrationFlag</title>
<polygon fill="white" stroke="transparent" points="-4,4 -4,-233 733,-233 733,4 -4,4"/>
<!-- Node1 -->
<g id="node1" class="node">
<title>Node1</title>
<g id="a_node1"><a xlink:title=" ">
<polygon fill="#bfbfbf" stroke="black" points="559,-152.5 559,-171.5 729,-171.5 729,-152.5 559,-152.5"/>
<text text-anchor="middle" x="644" y="-159.5" font-family="Helvetica,sans-Serif" font-size="10.00">JoyControlStick::setCalibrationFlag</text>
</a>
</g>
</g>
<!-- Node2 -->
<g id="node2" class="node">
<title>Node2</title>
<g id="a_node2"><a xlink:href="classJoyControlStick.html#ab6ce741115ee3d436c1a7e866abd21e6" target="_top" xlink:title="Take a XML stream and set the stick and direction button properties according to the values contained...">
<polygon fill="white" stroke="black" points="382.5,-209.5 382.5,-228.5 521.5,-228.5 521.5,-209.5 382.5,-209.5"/>
<text text-anchor="middle" x="452" y="-216.5" font-family="Helvetica,sans-Serif" font-size="10.00">JoyControlStick::readConfig</text>
</a>
</g>
</g>
<!-- Node1&#45;&gt;Node2 -->
<g id="edge1" class="edge">
<title>Node1&#45;&gt;Node2</title>
<path fill="none" stroke="midnightblue" d="M604.42,-174.67C580.95,-182.26 550.33,-191.97 523,-200 512.13,-203.2 500.25,-206.49 489.41,-209.43"/>
<polygon fill="midnightblue" stroke="midnightblue" points="605.58,-177.97 614.01,-171.55 603.41,-171.31 605.58,-177.97"/>
</g>
<!-- Node4 -->
<g id="node4" class="node">
<title>Node4</title>
<g id="a_node4"><a xlink:href="classCalibration.html#a8e5394c1bbe44565c442c313ca284ace" target="_top" xlink:title=" ">
<polygon fill="white" stroke="black" points="381,-171.5 381,-190.5 523,-190.5 523,-171.5 381,-171.5"/>
<text text-anchor="middle" x="452" y="-178.5" font-family="Helvetica,sans-Serif" font-size="10.00">Calibration::restoreCalValues</text>
</a>
</g>
</g>
<!-- Node1&#45;&gt;Node4 -->
<g id="edge3" class="edge">
<title>Node1&#45;&gt;Node4</title>
<path fill="none" stroke="midnightblue" d="M548.75,-171.43C540.13,-172.29 531.52,-173.15 523.17,-173.98"/>
<polygon fill="midnightblue" stroke="midnightblue" points="549.23,-174.89 558.83,-170.42 548.53,-167.93 549.23,-174.89"/>
</g>
<!-- Node6 -->
<g id="node6" class="node">
<title>Node6</title>
<g id="a_node6"><a xlink:href="classCalibration.html#a61d733b70d5fd8a60c8f98e50469ed0e" target="_top" xlink:title="Updates variables contents and shows message.">
<polygon fill="white" stroke="black" points="389.5,-133.5 389.5,-152.5 514.5,-152.5 514.5,-133.5 389.5,-133.5"/>
<text text-anchor="middle" x="452" y="-140.5" font-family="Helvetica,sans-Serif" font-size="10.00">Calibration::saveSettings</text>
</a>
</g>
</g>
<!-- Node1&#45;&gt;Node6 -->
<g id="edge5" class="edge">
<title>Node1&#45;&gt;Node6</title>
<path fill="none" stroke="midnightblue" d="M548.68,-152.57C537.09,-151.41 525.5,-150.25 514.58,-149.16"/>
<polygon fill="midnightblue" stroke="midnightblue" points="548.53,-156.07 558.83,-153.58 549.23,-149.11 548.53,-156.07"/>
</g>
<!-- Node9 -->
<g id="node9" class="node">
<title>Node9</title>
<g id="a_node9"><a xlink:href="classCalibration.html#a784c4f6d1e1ec695a5fcea99c0813934" target="_top" xlink:title="Prepares first step of calibration &#45; finding center.">
<polygon fill="white" stroke="black" points="385,-38.5 385,-57.5 519,-57.5 519,-38.5 385,-38.5"/>
<text text-anchor="middle" x="452" y="-45.5" font-family="Helvetica,sans-Serif" font-size="10.00">Calibration::startCalibration</text>
</a>
</g>
</g>
<!-- Node1&#45;&gt;Node9 -->
<g id="edge9" class="edge">
<title>Node1&#45;&gt;Node9</title>
<path fill="none" stroke="midnightblue" d="M618.37,-147.22C578.79,-123.48 502.15,-77.49 468.96,-57.58"/>
<polygon fill="midnightblue" stroke="midnightblue" points="616.75,-150.33 627.13,-152.48 620.35,-144.33 616.75,-150.33"/>
</g>
<!-- Node3 -->
<g id="node3" class="node">
<title>Node3</title>
<g id="a_node3"><a xlink:href="classSetJoystickXml.html#aa95423a01fab878cbc69bffb7f6121f3" target="_top" xlink:title=" ">
<polygon fill="white" stroke="black" points="192.5,-209.5 192.5,-228.5 330.5,-228.5 330.5,-209.5 192.5,-209.5"/>
<text text-anchor="middle" x="261.5" y="-216.5" font-family="Helvetica,sans-Serif" font-size="10.00">SetJoystickXml::readConfig</text>
</a>
</g>
</g>
<!-- Node2&#45;&gt;Node3 -->
<g id="edge2" class="edge">
<title>Node2&#45;&gt;Node3</title>
<path fill="none" stroke="midnightblue" d="M372.02,-219C358.3,-219 344.13,-219 330.72,-219"/>
<polygon fill="midnightblue" stroke="midnightblue" points="372.41,-222.5 382.41,-219 372.41,-215.5 372.41,-222.5"/>
</g>
<!-- Node5 -->
<g id="node5" class="node">
<title>Node5</title>
<g id="a_node5"><a xlink:href="classCalibration.html#aac3cc29daae69f616489ddd29407f6fe" target="_top" xlink:title="Resets memory of all variables to default, updates window and shows message.">
<polygon fill="white" stroke="black" points="198.5,-171.5 198.5,-190.5 324.5,-190.5 324.5,-171.5 198.5,-171.5"/>
<text text-anchor="middle" x="261.5" y="-178.5" font-family="Helvetica,sans-Serif" font-size="10.00">Calibration::resetSettings</text>
</a>
</g>
</g>
<!-- Node4&#45;&gt;Node5 -->
<g id="edge4" class="edge">
<title>Node4&#45;&gt;Node5</title>
<path fill="none" stroke="midnightblue" d="M370.77,-181C355.35,-181 339.42,-181 324.68,-181"/>
<polygon fill="midnightblue" stroke="midnightblue" points="370.81,-184.5 380.81,-181 370.81,-177.5 370.81,-184.5"/>
</g>
<!-- Node7 -->
<g id="node7" class="node">
<title>Node7</title>
<g id="a_node7"><a xlink:href="classCalibration.html#a27a8dcaa8bc1ae3ebf2da993b29a4e2e" target="_top" xlink:title=" ">
<polygon fill="white" stroke="black" points="14,-95.5 14,-114.5 128,-114.5 128,-95.5 14,-95.5"/>
<text text-anchor="middle" x="71" y="-102.5" font-family="Helvetica,sans-Serif" font-size="10.00">Calibration::Calibration</text>
</a>
</g>
</g>
<!-- Node6&#45;&gt;Node7 -->
<g id="edge6" class="edge">
<title>Node6&#45;&gt;Node7</title>
<path fill="none" stroke="midnightblue" d="M379.26,-140.12C324.08,-137.4 246.02,-132.44 178,-124 158.52,-121.58 137.19,-117.95 118.8,-114.51"/>
<polygon fill="midnightblue" stroke="midnightblue" points="379.13,-143.62 389.29,-140.61 379.47,-136.63 379.13,-143.62"/>
</g>
<!-- Node8 -->
<g id="node8" class="node">
<title>Node8</title>
<g id="a_node8"><a xlink:href="classCalibration.html#a7d5b82418dba451e1b59bef20f2890d2" target="_top" xlink:title="Initializes widget for moving axes (animations) and changes storing data for variables.">
<polygon fill="white" stroke="black" points="178,-95.5 178,-114.5 345,-114.5 345,-95.5 178,-95.5"/>
<text text-anchor="middle" x="261.5" y="-102.5" font-family="Helvetica,sans-Serif" font-size="10.00">Calibration::createAxesConnection</text>
</a>
</g>
</g>
<!-- Node6&#45;&gt;Node8 -->
<g id="edge7" class="edge">
<title>Node6&#45;&gt;Node8</title>
<path fill="none" stroke="midnightblue" d="M393.41,-131.39C366.6,-125.99 335.1,-119.64 309.72,-114.52"/>
<polygon fill="midnightblue" stroke="midnightblue" points="392.94,-134.87 403.43,-133.41 394.32,-128 392.94,-134.87"/>
</g>
<!-- Node8&#45;&gt;Node7 -->
<g id="edge8" class="edge">
<title>Node8&#45;&gt;Node7</title>
<path fill="none" stroke="midnightblue" d="M167.53,-105C154.04,-105 140.51,-105 128.06,-105"/>
<polygon fill="midnightblue" stroke="midnightblue" points="167.82,-108.5 177.82,-105 167.82,-101.5 167.82,-108.5"/>
</g>
<!-- Node9&#45;&gt;Node7 -->
<g id="edge10" class="edge">
<title>Node9&#45;&gt;Node7</title>
<path fill="none" stroke="midnightblue" d="M374.98,-57.77C320.15,-65.02 244.4,-75.43 178,-86 160,-88.87 140.33,-92.3 122.88,-95.46"/>
<polygon fill="midnightblue" stroke="midnightblue" points="375.52,-61.23 384.97,-56.46 374.6,-54.29 375.52,-61.23"/>
</g>
<!-- Node10 -->
<g id="node10" class="node">
<title>Node10</title>
<g id="a_node10"><a xlink:href="classCalibration.html#a7395207c632a902aba620462d1ff584c" target="_top" xlink:title="Prepares third step of calibration &#45; moving into bottom&#45;right corner &#45; postive values.">
<polygon fill="white" stroke="black" points="197.5,-19.5 197.5,-38.5 325.5,-38.5 325.5,-19.5 197.5,-19.5"/>
<text text-anchor="middle" x="261.5" y="-26.5" font-family="Helvetica,sans-Serif" font-size="10.00">Calibration::startLastStep</text>
</a>
</g>
</g>
<!-- Node9&#45;&gt;Node10 -->
<g id="edge11" class="edge">
<title>Node9&#45;&gt;Node10</title>
<path fill="none" stroke="midnightblue" d="M374.77,-40.32C358.47,-38.67 341.43,-36.96 325.68,-35.37"/>
<polygon fill="midnightblue" stroke="midnightblue" points="374.51,-43.81 384.81,-41.33 375.21,-36.84 374.51,-43.81"/>
</g>
<!-- Node11 -->
<g id="node11" class="node">
<title>Node11</title>
<g id="a_node11"><a xlink:href="classCalibration.html#ab764fc9b8f7d08e04b7453636010862d" target="_top" xlink:title="Prepares second step of calibration &#45; moving into top&#45;left corner &#45; negative values.">
<polygon fill="white" stroke="black" points="0,-0.5 0,-19.5 142,-19.5 142,-0.5 0,-0.5"/>
<text text-anchor="middle" x="71" y="-7.5" font-family="Helvetica,sans-Serif" font-size="10.00">Calibration::startSecondStep</text>
</a>
</g>
</g>
<!-- Node10&#45;&gt;Node11 -->
<g id="edge12" class="edge">
<title>Node10&#45;&gt;Node11</title>
<path fill="none" stroke="midnightblue" d="M187.32,-21.62C172.46,-20.13 156.86,-18.55 142.11,-17.07"/>
<polygon fill="midnightblue" stroke="midnightblue" points="187.17,-25.13 197.47,-22.65 187.87,-18.16 187.17,-25.13"/>
</g>
<!-- Node11&#45;&gt;Node9 -->
<g id="edge13" class="edge">
<title>Node11&#45;&gt;Node9</title>
<path fill="none" stroke="midnightblue" d="M152.12,-2.82C206.86,0.33 280.82,1.16 345,-10 376.01,-15.39 409.94,-29.03 430.85,-38.41"/>
<polygon fill="midnightblue" stroke="midnightblue" points="151.9,0.67 142.13,-3.44 152.33,-6.32 151.9,0.67"/>
</g>
</g>
</svg>
        <g id="navigator" transform="translate(0 0)" fill="#404254">
                <rect fill="#f2f5e9" fill-opacity="0.5" stroke="#606060" stroke-width=".5" x="0" y="0" width="60" height="60"/>
                <use id="zoomplus" xlink:href="#zoomPlus" x="17" y="9" onmousedown="handleZoom(evt,'in')"/>
                <use id="zoomminus" xlink:href="#zoomMin" x="42" y="9" onmousedown="handleZoom(evt,'out')"/>
                <use id="reset" xlink:href="#resetDef" x="30" y="36" onmousedown="handleReset()"/>
                <g id="arrowUp" xlink:href="#dirArrow" transform="translate(30 24)" onmousedown="handlePan(0,-1)">
                  <use xlink:href="#rim" fill="#404040">
                        <set attributeName="fill" to="#808080" begin="arrowUp.mouseover" end="arrowUp.mouseout"/>
                  </use>
                  <path fill="none" stroke="white" stroke-width="1.5" d="M0,-3.0v7 M-2.5,-0.5L0,-3.0L2.5,-0.5"/>
                </g>
                <g id="arrowRight" xlink:href="#dirArrow" transform="rotate(90) translate(36 -43)" onmousedown="handlePan(1,0)">
                  <use xlink:href="#rim" fill="#404040">
                        <set attributeName="fill" to="#808080" begin="arrowRight.mouseover" end="arrowRight.mouseout"/>
                  </use>
                  <path fill="none" stroke="white" stroke-width="1.5" d="M0,-3.0v7 M-2.5,-0.5L0,-3.0L2.5,-0.5"/>
                </g>
                <g id="arrowDown" xlink:href="#dirArrow" transform="rotate(180) translate(-30 -48)" onmousedown="handlePan(0,1)">
                  <use xlink:href="#rim" fill="#404040">
                        <set attributeName="fill" to="#808080" begin="arrowDown.mouseover" end="arrowDown.mouseout"/>
                  </use>
                  <path fill="none" stroke="white" stroke-width="1.5" d="M0,-3.0v7 M-2.5,-0.5L0,-3.0L2.5,-0.5"/>
                </g>
                <g id="arrowLeft" xlink:href="#dirArrow" transform="rotate(270) translate(-36 17)" onmousedown="handlePan(-1,0)">
                  <use xlink:href="#rim" fill="#404040">
                        <set attributeName="fill" to="#808080" begin="arrowLeft.mouseover" end="arrowLeft.mouseout"/>
                  </use>
                  <path fill="none" stroke="white" stroke-width="1.5" d="M0,-3.0v7 M-2.5,-0.5L0,-3.0L2.5,-0.5"/>
                </g>
        </g>
        <svg viewBox="0 0 15 15" width="100%" height="30px" preserveAspectRatio="xMaxYMin meet">
         <g id="arrow_out" transform="scale(0.3 0.3)">
          <a xlink:href="classJoyControlStick_ae381539f8082f6b7bd761bb7e6fed196_icgraph_org.svg" target="_base">
           <rect id="button" ry="5" rx="5" y="6" x="6" height="38" width="38"
                fill="#f2f5e9" fill-opacity="0.5" stroke="#606060" stroke-width="1.0"/>
           <path id="arrow"
             d="M 11.500037,31.436501 C 11.940474,20.09759 22.043105,11.32322 32.158766,21.979434 L 37.068811,17.246167 C 37.068811,17.246167 37.088388,32 37.088388,32 L 22.160133,31.978069 C 22.160133,31.978069 26.997745,27.140456 26.997745,27.140456 C 18.528582,18.264221 13.291696,25.230495 11.500037,31.436501 z"
             style="fill:#404040;"/>
          </a>
         </g>
        </svg>
</svg>
