<?xml version="1.0" encoding="UTF-8" standalone="no"?>
<!DOCTYPE svg PUBLIC "-//W3C//DTD SVG 1.1//EN"
 "http://www.w3.org/Graphics/SVG/1.1/DTD/svg11.dtd">
<!-- Generated by graphviz version 2.43.0 (0)
 -->
<!-- Title: JoyControlStickStatusBox::drawEightWayBox Pages: 1 -->
<!--zoomable 341 -->
<svg id="main" version="1.1" xmlns="http://www.w3.org/2000/svg" xmlns:xlink="http://www.w3.org/1999/xlink" xml:space="preserve" onload="init(evt)">
<style type="text/css"><![CDATA[
.edge:hover path { stroke: red; }
.edge:hover polygon { stroke: red; fill: red; }
]]></style>
<script type="text/javascript"><![CDATA[
var edges = document.getElementsByTagName('g');
if (edges && edges.length) {
  for (var i=0;i<edges.length;i++) {
    if (edges[i].id.substr(0,4)=='edge') {
      edges[i].setAttribute('class','edge');
    }
  }
}
]]></script>
        <defs>
                <circle id="rim" cx="0" cy="0" r="7"/>
                <circle id="rim2" cx="0" cy="0" r="3.5"/>
                <g id="zoomPlus">
                        <use xlink:href="#rim" fill="#404040">
                                <set attributeName="fill" to="#808080" begin="zoomplus.mouseover" end="zoomplus.mouseout"/>
                        </use>
                        <path d="M-4,0h8M0,-4v8" fill="none" stroke="white" stroke-width="1.5" pointer-events="none"/>
                </g>
                <g id="zoomMin">
                        <use xlink:href="#rim" fill="#404040">
                                <set attributeName="fill" to="#808080" begin="zoomminus.mouseover" end="zoomminus.mouseout"/>
                        </use>
                        <path d="M-4,0h8" fill="none" stroke="white" stroke-width="1.5" pointer-events="none"/>
                </g>
                <g id="dirArrow">
                        <path fill="none" stroke="white" stroke-width="1.5" d="M0,-3.0v7 M-2.5,-0.5L0,-3.0L2.5,-0.5"/>
                </g>
               <g id="resetDef">
                       <use xlink:href="#rim2" fill="#404040">
                               <set attributeName="fill" to="#808080" begin="reset.mouseover" end="reset.mouseout"/>
                       </use>
               </g>
        </defs>

<script type="text/javascript">
var viewWidth = 517;
var viewHeight = 341;
var sectionId = 'dynsection-2';
</script>
<script xlink:href="svgpan.js"/>
<svg id="graph" class="graph">
<g id="viewport">
<title>JoyControlStickStatusBox::drawEightWayBox</title>
<polygon fill="white" stroke="transparent" points="-4,4 -4,-336.5 513,-336.5 513,4 -4,4"/>
<!-- Node1 -->
<g id="node1" class="node">
<title>Node1</title>
<g id="a_node1"><a xlink:title=" ">
<polygon fill="#bfbfbf" stroke="black" points="0,-154 0,-184 132,-184 132,-154 0,-154"/>
<text text-anchor="start" x="8" y="-172" font-family="Helvetica,sans-Serif" font-size="10.00">JoyControlStickStatusBox</text>
<text text-anchor="middle" x="66" y="-161" font-family="Helvetica,sans-Serif" font-size="10.00">::drawEightWayBox</text>
</a>
</g>
</g>
<!-- Node2 -->
<g id="node2" class="node">
<title>Node2</title>
<g id="a_node2"><a xlink:href="classJoyControlStick.html#a0e3fe034c525e212163dd8d59cef8428" target="_top" xlink:title=" ">
<polygon fill="white" stroke="black" points="181.5,-302 181.5,-332 312.5,-332 312.5,-302 181.5,-302"/>
<text text-anchor="start" x="189.5" y="-320" font-family="Helvetica,sans-Serif" font-size="10.00">JoyControlStick::getCircle</text>
<text text-anchor="middle" x="247" y="-309" font-family="Helvetica,sans-Serif" font-size="10.00">XCoordinate</text>
</a>
</g>
</g>
<!-- Node1&#45;&gt;Node2 -->
<g id="edge1" class="edge">
<title>Node1&#45;&gt;Node2</title>
<path fill="none" stroke="midnightblue" d="M75.5,-184.25C90.7,-210.16 125.03,-262.81 168,-292 170.91,-293.98 173.99,-295.81 177.17,-297.5"/>
<polygon fill="midnightblue" stroke="midnightblue" points="175.85,-300.74 186.38,-301.9 178.87,-294.43 175.85,-300.74"/>
</g>
<!-- Node5 -->
<g id="node5" class="node">
<title>Node5</title>
<g id="a_node5"><a xlink:href="classJoyControlStick.html#ae042621e02d88cf4f4574b7c45029e1f" target="_top" xlink:title=" ">
<polygon fill="white" stroke="black" points="181.5,-176 181.5,-206 312.5,-206 312.5,-176 181.5,-176"/>
<text text-anchor="start" x="189.5" y="-194" font-family="Helvetica,sans-Serif" font-size="10.00">JoyControlStick::getCircle</text>
<text text-anchor="middle" x="247" y="-183" font-family="Helvetica,sans-Serif" font-size="10.00">YCoordinate</text>
</a>
</g>
</g>
<!-- Node1&#45;&gt;Node5 -->
<g id="edge4" class="edge">
<title>Node1&#45;&gt;Node5</title>
<path fill="none" stroke="midnightblue" d="M132.13,-177C144.75,-178.56 158.07,-180.19 170.98,-181.78"/>
<polygon fill="midnightblue" stroke="midnightblue" points="170.87,-185.29 181.22,-183.04 171.72,-178.34 170.87,-185.29"/>
</g>
<!-- Node7 -->
<g id="node7" class="node">
<title>Node7</title>
<g id="a_node7"><a xlink:href="classJoyControlStick.html#a2798057ca20a52307ced3f75eb5d9aaa" target="_top" xlink:title="Get the assigned dead zone value.">
<polygon fill="white" stroke="black" points="172,-137.5 172,-156.5 322,-156.5 322,-137.5 172,-137.5"/>
<text text-anchor="middle" x="247" y="-144.5" font-family="Helvetica,sans-Serif" font-size="10.00">JoyControlStick::getDeadZone</text>
</a>
</g>
</g>
<!-- Node1&#45;&gt;Node7 -->
<g id="edge7" class="edge">
<title>Node1&#45;&gt;Node7</title>
<path fill="none" stroke="midnightblue" d="M132.13,-161C141.8,-159.81 151.88,-158.57 161.88,-157.34"/>
<polygon fill="midnightblue" stroke="midnightblue" points="162.32,-160.81 171.82,-156.12 161.47,-153.86 162.32,-160.81"/>
</g>
<!-- Node8 -->
<g id="node8" class="node">
<title>Node8</title>
<g id="a_node8"><a xlink:href="classJoyControlStick.html#a19d2cb8e0f5888c4610dbfb29ffc5340" target="_top" xlink:title="Get the assigned diagonal range value.">
<polygon fill="white" stroke="black" points="175.5,-88 175.5,-118 318.5,-118 318.5,-88 175.5,-88"/>
<text text-anchor="start" x="183.5" y="-106" font-family="Helvetica,sans-Serif" font-size="10.00">JoyControlStick::getDiagonal</text>
<text text-anchor="middle" x="247" y="-95" font-family="Helvetica,sans-Serif" font-size="10.00">Range</text>
</a>
</g>
</g>
<!-- Node1&#45;&gt;Node8 -->
<g id="edge8" class="edge">
<title>Node1&#45;&gt;Node8</title>
<path fill="none" stroke="midnightblue" d="M102.27,-153.92C121.55,-145.87 145.94,-136 168,-128 174.29,-125.72 180.9,-123.43 187.5,-121.22"/>
<polygon fill="midnightblue" stroke="midnightblue" points="188.73,-124.5 197.13,-118.04 186.53,-117.85 188.73,-124.5"/>
</g>
<!-- Node9 -->
<g id="node9" class="node">
<title>Node9</title>
<g id="a_node9"><a xlink:href="classJoyControlStick.html#af1d63f69041b08e3e1e086768a4c22cf" target="_top" xlink:title=" ">
<polygon fill="white" stroke="black" points="175.5,-39 175.5,-69 318.5,-69 318.5,-39 175.5,-39"/>
<text text-anchor="start" x="183.5" y="-57" font-family="Helvetica,sans-Serif" font-size="10.00">JoyControlStick::getDiagonal</text>
<text text-anchor="middle" x="247" y="-46" font-family="Helvetica,sans-Serif" font-size="10.00">ZoneAngles</text>
</a>
</g>
</g>
<!-- Node1&#45;&gt;Node9 -->
<g id="edge9" class="edge">
<title>Node1&#45;&gt;Node9</title>
<path fill="none" stroke="midnightblue" d="M79.84,-153.9C97.68,-133.82 131.87,-98.49 168,-78 171.05,-76.27 174.24,-74.65 177.51,-73.14"/>
<polygon fill="midnightblue" stroke="midnightblue" points="179.08,-76.27 186.91,-69.14 176.34,-69.83 179.08,-76.27"/>
</g>
<!-- Node10 -->
<g id="node10" class="node">
<title>Node10</title>
<g id="a_node10"><a xlink:href="classJoyControlStick.html#a037c44802b5f528144bf592ace15dc08" target="_top" xlink:title=" ">
<polygon fill="white" stroke="black" points="174,-0.5 174,-19.5 320,-19.5 320,-0.5 174,-0.5"/>
<text text-anchor="middle" x="247" y="-7.5" font-family="Helvetica,sans-Serif" font-size="10.00">JoyControlStick::getMaxZone</text>
</a>
</g>
</g>
<!-- Node1&#45;&gt;Node10 -->
<g id="edge10" class="edge">
<title>Node1&#45;&gt;Node10</title>
<path fill="none" stroke="midnightblue" d="M73.62,-153.6C86.98,-124.47 120.01,-61.3 168,-29 171.07,-26.93 174.35,-25.09 177.75,-23.45"/>
<polygon fill="midnightblue" stroke="midnightblue" points="179.14,-26.66 186.99,-19.55 176.42,-20.21 179.14,-26.66"/>
</g>
<!-- Node11 -->
<g id="node11" class="node">
<title>Node11</title>
<g id="a_node11"><a xlink:href="classJoyControlStick.html#ac12ecf9bf840ecee8fa8b2873304fc66" target="_top" xlink:title="Get the value for the corresponding X axis.">
<polygon fill="white" stroke="black" points="168,-263.5 168,-282.5 326,-282.5 326,-263.5 168,-263.5"/>
<text text-anchor="middle" x="247" y="-270.5" font-family="Helvetica,sans-Serif" font-size="10.00">JoyControlStick::getXCoordinate</text>
</a>
</g>
</g>
<!-- Node1&#45;&gt;Node11 -->
<g id="edge11" class="edge">
<title>Node1&#45;&gt;Node11</title>
<path fill="none" stroke="midnightblue" d="M80.5,-184.03C98.56,-203.18 132.43,-235.97 168,-254 172.62,-256.34 177.54,-258.41 182.59,-260.22"/>
<polygon fill="midnightblue" stroke="midnightblue" points="181.78,-263.64 192.37,-263.41 183.95,-256.99 181.78,-263.64"/>
</g>
<!-- Node12 -->
<g id="node12" class="node">
<title>Node12</title>
<g id="a_node12"><a xlink:href="classJoyControlStick.html#ad68f8a723bdefd42af7b4317ab40371a" target="_top" xlink:title="Get the value for the corresponding Y axis.">
<polygon fill="white" stroke="black" points="168,-225.5 168,-244.5 326,-244.5 326,-225.5 168,-225.5"/>
<text text-anchor="middle" x="247" y="-232.5" font-family="Helvetica,sans-Serif" font-size="10.00">JoyControlStick::getYCoordinate</text>
</a>
</g>
</g>
<!-- Node1&#45;&gt;Node12 -->
<g id="edge13" class="edge">
<title>Node1&#45;&gt;Node12</title>
<path fill="none" stroke="midnightblue" d="M96.48,-184.1C116.33,-193.84 143.29,-206.28 168,-215 176.05,-217.84 184.71,-220.47 193.21,-222.82"/>
<polygon fill="midnightblue" stroke="midnightblue" points="192.52,-226.25 203.09,-225.44 194.32,-219.49 192.52,-226.25"/>
</g>
<!-- Node3 -->
<g id="node3" class="node">
<title>Node3</title>
<g id="a_node3"><a xlink:href="classJoyControlStick.html#a153940c564b3853d142059e9104f7c71" target="_top" xlink:title=" ">
<polygon fill="white" stroke="black" points="370,-302 370,-332 501,-332 501,-302 370,-302"/>
<text text-anchor="start" x="378" y="-320" font-family="Helvetica,sans-Serif" font-size="10.00">JoyControlStick::calculate</text>
<text text-anchor="middle" x="435.5" y="-309" font-family="Helvetica,sans-Serif" font-size="10.00">CircleXValue</text>
</a>
</g>
</g>
<!-- Node2&#45;&gt;Node3 -->
<g id="edge2" class="edge">
<title>Node2&#45;&gt;Node3</title>
<path fill="none" stroke="midnightblue" d="M312.71,-317C327.89,-317 344.2,-317 359.79,-317"/>
<polygon fill="midnightblue" stroke="midnightblue" points="359.91,-320.5 369.91,-317 359.91,-313.5 359.91,-320.5"/>
</g>
<!-- Node4 -->
<g id="node4" class="node">
<title>Node4</title>
<g id="a_node4"><a xlink:href="classJoyAxis.html#a0580ab0df546a1c03b4e8f755ad00272" target="_top" xlink:title=" ">
<polygon fill="white" stroke="black" points="362,-244.5 362,-263.5 509,-263.5 509,-244.5 362,-244.5"/>
<text text-anchor="middle" x="435.5" y="-251.5" font-family="Helvetica,sans-Serif" font-size="10.00">JoyAxis::getCurrentRawValue</text>
</a>
</g>
</g>
<!-- Node2&#45;&gt;Node4 -->
<g id="edge3" class="edge">
<title>Node2&#45;&gt;Node4</title>
<path fill="none" stroke="midnightblue" d="M295.5,-302C305.59,-298.75 316.16,-295.3 326,-292 350.18,-283.89 377.25,-274.41 398.3,-266.95"/>
<polygon fill="midnightblue" stroke="midnightblue" points="399.56,-270.22 407.81,-263.57 397.22,-263.62 399.56,-270.22"/>
</g>
<!-- Node5&#45;&gt;Node4 -->
<g id="edge6" class="edge">
<title>Node5&#45;&gt;Node4</title>
<path fill="none" stroke="midnightblue" d="M295.5,-206C305.59,-209.25 316.16,-212.7 326,-216 350.18,-224.11 377.25,-233.59 398.3,-241.05"/>
<polygon fill="midnightblue" stroke="midnightblue" points="397.22,-244.38 407.81,-244.43 399.56,-237.78 397.22,-244.38"/>
</g>
<!-- Node6 -->
<g id="node6" class="node">
<title>Node6</title>
<g id="a_node6"><a xlink:href="classJoyControlStick.html#a474ce78a526ae11be203450f605ef5ad" target="_top" xlink:title=" ">
<polygon fill="white" stroke="black" points="370,-176 370,-206 501,-206 501,-176 370,-176"/>
<text text-anchor="start" x="378" y="-194" font-family="Helvetica,sans-Serif" font-size="10.00">JoyControlStick::calculate</text>
<text text-anchor="middle" x="435.5" y="-183" font-family="Helvetica,sans-Serif" font-size="10.00">CircleYValue</text>
</a>
</g>
</g>
<!-- Node5&#45;&gt;Node6 -->
<g id="edge5" class="edge">
<title>Node5&#45;&gt;Node6</title>
<path fill="none" stroke="midnightblue" d="M312.71,-191C327.89,-191 344.2,-191 359.79,-191"/>
<polygon fill="midnightblue" stroke="midnightblue" points="359.91,-194.5 369.91,-191 359.91,-187.5 359.91,-194.5"/>
</g>
<!-- Node11&#45;&gt;Node4 -->
<g id="edge12" class="edge">
<title>Node11&#45;&gt;Node4</title>
<path fill="none" stroke="midnightblue" d="M326.01,-265.05C334.55,-264.18 343.26,-263.3 351.85,-262.42"/>
<polygon fill="midnightblue" stroke="midnightblue" points="352.27,-265.9 361.86,-261.4 351.56,-258.93 352.27,-265.9"/>
</g>
<!-- Node12&#45;&gt;Node4 -->
<g id="edge14" class="edge">
<title>Node12&#45;&gt;Node4</title>
<path fill="none" stroke="midnightblue" d="M326.01,-242.95C334.55,-243.82 343.26,-244.7 351.85,-245.58"/>
<polygon fill="midnightblue" stroke="midnightblue" points="351.56,-249.07 361.86,-246.6 352.27,-242.1 351.56,-249.07"/>
</g>
</g>
</svg>
        <g id="navigator" transform="translate(0 0)" fill="#404254">
                <rect fill="#f2f5e9" fill-opacity="0.5" stroke="#606060" stroke-width=".5" x="0" y="0" width="60" height="60"/>
                <use id="zoomplus" xlink:href="#zoomPlus" x="17" y="9" onmousedown="handleZoom(evt,'in')"/>
                <use id="zoomminus" xlink:href="#zoomMin" x="42" y="9" onmousedown="handleZoom(evt,'out')"/>
                <use id="reset" xlink:href="#resetDef" x="30" y="36" onmousedown="handleReset()"/>
                <g id="arrowUp" xlink:href="#dirArrow" transform="translate(30 24)" onmousedown="handlePan(0,-1)">
                  <use xlink:href="#rim" fill="#404040">
                        <set attributeName="fill" to="#808080" begin="arrowUp.mouseover" end="arrowUp.mouseout"/>
                  </use>
                  <path fill="none" stroke="white" stroke-width="1.5" d="M0,-3.0v7 M-2.5,-0.5L0,-3.0L2.5,-0.5"/>
                </g>
                <g id="arrowRight" xlink:href="#dirArrow" transform="rotate(90) translate(36 -43)" onmousedown="handlePan(1,0)">
                  <use xlink:href="#rim" fill="#404040">
                        <set attributeName="fill" to="#808080" begin="arrowRight.mouseover" end="arrowRight.mouseout"/>
                  </use>
                  <path fill="none" stroke="white" stroke-width="1.5" d="M0,-3.0v7 M-2.5,-0.5L0,-3.0L2.5,-0.5"/>
                </g>
                <g id="arrowDown" xlink:href="#dirArrow" transform="rotate(180) translate(-30 -48)" onmousedown="handlePan(0,1)">
                  <use xlink:href="#rim" fill="#404040">
                        <set attributeName="fill" to="#808080" begin="arrowDown.mouseover" end="arrowDown.mouseout"/>
                  </use>
                  <path fill="none" stroke="white" stroke-width="1.5" d="M0,-3.0v7 M-2.5,-0.5L0,-3.0L2.5,-0.5"/>
                </g>
                <g id="arrowLeft" xlink:href="#dirArrow" transform="rotate(270) translate(-36 17)" onmousedown="handlePan(-1,0)">
                  <use xlink:href="#rim" fill="#404040">
                        <set attributeName="fill" to="#808080" begin="arrowLeft.mouseover" end="arrowLeft.mouseout"/>
                  </use>
                  <path fill="none" stroke="white" stroke-width="1.5" d="M0,-3.0v7 M-2.5,-0.5L0,-3.0L2.5,-0.5"/>
                </g>
        </g>
        <svg viewBox="0 0 15 15" width="100%" height="30px" preserveAspectRatio="xMaxYMin meet">
         <g id="arrow_out" transform="scale(0.3 0.3)">
          <a xlink:href="classJoyControlStickStatusBox_a450e6a133de4e4d7894b967b051f9e31_cgraph_org.svg" target="_base">
           <rect id="button" ry="5" rx="5" y="6" x="6" height="38" width="38"
                fill="#f2f5e9" fill-opacity="0.5" stroke="#606060" stroke-width="1.0"/>
           <path id="arrow"
             d="M 11.500037,31.436501 C 11.940474,20.09759 22.043105,11.32322 32.158766,21.979434 L 37.068811,17.246167 C 37.068811,17.246167 37.088388,32 37.088388,32 L 22.160133,31.978069 C 22.160133,31.978069 26.997745,27.140456 26.997745,27.140456 C 18.528582,18.264221 13.291696,25.230495 11.500037,31.436501 z"
             style="fill:#404040;"/>
          </a>
         </g>
        </svg>
</svg>
