<?xml version="1.0" encoding="UTF-8" standalone="no"?>
<!DOCTYPE svg PUBLIC "-//W3C//DTD SVG 1.1//EN"
 "http://www.w3.org/Graphics/SVG/1.1/DTD/svg11.dtd">
<!-- Generated by graphviz version 2.43.0 (0)
 -->
<!-- Title: StickPushButtonGroup::generateButtons Pages: 1 -->
<!--zoomable 176 -->
<svg id="main" version="1.1" xmlns="http://www.w3.org/2000/svg" xmlns:xlink="http://www.w3.org/1999/xlink" xml:space="preserve" onload="init(evt)">
<style type="text/css"><![CDATA[
.edge:hover path { stroke: red; }
.edge:hover polygon { stroke: red; fill: red; }
]]></style>
<script type="text/javascript"><![CDATA[
var edges = document.getElementsByTagName('g');
if (edges && edges.length) {
  for (var i=0;i<edges.length;i++) {
    if (edges[i].id.substr(0,4)=='edge') {
      edges[i].setAttribute('class','edge');
    }
  }
}
]]></script>
        <defs>
                <circle id="rim" cx="0" cy="0" r="7"/>
                <circle id="rim2" cx="0" cy="0" r="3.5"/>
                <g id="zoomPlus">
                        <use xlink:href="#rim" fill="#404040">
                                <set attributeName="fill" to="#808080" begin="zoomplus.mouseover" end="zoomplus.mouseout"/>
                        </use>
                        <path d="M-4,0h8M0,-4v8" fill="none" stroke="white" stroke-width="1.5" pointer-events="none"/>
                </g>
                <g id="zoomMin">
                        <use xlink:href="#rim" fill="#404040">
                                <set attributeName="fill" to="#808080" begin="zoomminus.mouseover" end="zoomminus.mouseout"/>
                        </use>
                        <path d="M-4,0h8" fill="none" stroke="white" stroke-width="1.5" pointer-events="none"/>
                </g>
                <g id="dirArrow">
                        <path fill="none" stroke="white" stroke-width="1.5" d="M0,-3.0v7 M-2.5,-0.5L0,-3.0L2.5,-0.5"/>
                </g>
               <g id="resetDef">
                       <use xlink:href="#rim2" fill="#404040">
                               <set attributeName="fill" to="#808080" begin="reset.mouseover" end="reset.mouseout"/>
                       </use>
               </g>
        </defs>

<script type="text/javascript">
var viewWidth = 791;
var viewHeight = 176;
var sectionId = 'dynsection-8';
</script>
<script xlink:href="svgpan.js"/>
<svg id="graph" class="graph">
<g id="viewport">
<title>StickPushButtonGroup::generateButtons</title>
<polygon fill="white" stroke="transparent" points="-4,4 -4,-172 787,-172 787,4 -4,4"/>
<!-- Node1 -->
<g id="node1" class="node">
<title>Node1</title>
<g id="a_node1"><a xlink:title=" ">
<polygon fill="#bfbfbf" stroke="black" points="0,-46.5 0,-76.5 116,-76.5 116,-46.5 0,-46.5"/>
<text text-anchor="start" x="8" y="-64.5" font-family="Helvetica,sans-Serif" font-size="10.00">StickPushButtonGroup</text>
<text text-anchor="middle" x="58" y="-53.5" font-family="Helvetica,sans-Serif" font-size="10.00">::generateButtons</text>
</a>
</g>
</g>
<!-- Node2 -->
<g id="node2" class="node">
<title>Node2</title>
<g id="a_node2"><a xlink:href="classStickPushButtonGroup.html#a056e9f27f67795a752ce67be2f3ebf56" target="_top" xlink:title=" ">
<polygon fill="white" stroke="black" points="152,-71.5 152,-101.5 268,-101.5 268,-71.5 152,-71.5"/>
<text text-anchor="start" x="160" y="-89.5" font-family="Helvetica,sans-Serif" font-size="10.00">StickPushButtonGroup</text>
<text text-anchor="middle" x="210" y="-78.5" font-family="Helvetica,sans-Serif" font-size="10.00">::generateBtnToGrid</text>
</a>
</g>
</g>
<!-- Node1&#45;&gt;Node2 -->
<g id="edge1" class="edge">
<title>Node1&#45;&gt;Node2</title>
<path fill="none" stroke="midnightblue" d="M116.14,-71.02C124.47,-72.41 133.11,-73.85 141.62,-75.27"/>
<polygon fill="midnightblue" stroke="midnightblue" points="141.09,-78.73 151.53,-76.92 142.24,-71.82 141.09,-78.73"/>
</g>
<!-- Node12 -->
<g id="node12" class="node">
<title>Node12</title>
<g id="a_node12"><a xlink:href="classStickPushButtonGroup.html#a2db63a3856a8a931cd7a4459b33017f0" target="_top" xlink:title=" ">
<polygon fill="white" stroke="black" points="152,-22.5 152,-52.5 268,-52.5 268,-22.5 152,-22.5"/>
<text text-anchor="start" x="160" y="-40.5" font-family="Helvetica,sans-Serif" font-size="10.00">StickPushButtonGroup</text>
<text text-anchor="middle" x="210" y="-29.5" font-family="Helvetica,sans-Serif" font-size="10.00">::showStickDialog</text>
</a>
</g>
</g>
<!-- Node1&#45;&gt;Node12 -->
<g id="edge12" class="edge">
<title>Node1&#45;&gt;Node12</title>
<path fill="none" stroke="midnightblue" d="M116.14,-52.36C124.47,-51.03 133.11,-49.64 141.62,-48.28"/>
<polygon fill="midnightblue" stroke="midnightblue" points="142.2,-51.73 151.53,-46.7 141.1,-44.82 142.2,-51.73"/>
</g>
<!-- Node3 -->
<g id="node3" class="node">
<title>Node3</title>
<g id="a_node3"><a xlink:href="classJoyButton.html#a08206c3d636852749ad6e1bb731de4fa" target="_top" xlink:title=" ">
<polygon fill="white" stroke="black" points="304,-137.5 304,-167.5 447,-167.5 447,-137.5 304,-137.5"/>
<text text-anchor="start" x="312" y="-155.5" font-family="Helvetica,sans-Serif" font-size="10.00">JoyButton::establishProperty</text>
<text text-anchor="middle" x="375.5" y="-144.5" font-family="Helvetica,sans-Serif" font-size="10.00">UpdatedConnections</text>
</a>
</g>
</g>
<!-- Node2&#45;&gt;Node3 -->
<g id="edge2" class="edge">
<title>Node2&#45;&gt;Node3</title>
<path fill="none" stroke="midnightblue" d="M243.46,-101.52C261.21,-109.55 283.66,-119.42 304,-127.5 309.41,-129.65 315.09,-131.81 320.78,-133.92"/>
<polygon fill="midnightblue" stroke="midnightblue" points="319.72,-137.26 330.31,-137.4 322.12,-130.68 319.72,-137.26"/>
</g>
<!-- Node6 -->
<g id="node6" class="node">
<title>Node6</title>
<g id="a_node6"><a xlink:href="classJoyControlStick.html#a2b073090095e78d41f83f68835412550" target="_top" xlink:title=" ">
<polygon fill="white" stroke="black" points="306,-99 306,-118 445,-118 445,-99 306,-99"/>
<text text-anchor="middle" x="375.5" y="-106" font-family="Helvetica,sans-Serif" font-size="10.00">JoyControlStick::getButtons</text>
</a>
</g>
</g>
<!-- Node2&#45;&gt;Node6 -->
<g id="edge5" class="edge">
<title>Node2&#45;&gt;Node6</title>
<path fill="none" stroke="midnightblue" d="M268.18,-94.19C277.11,-95.4 286.47,-96.65 295.77,-97.91"/>
<polygon fill="midnightblue" stroke="midnightblue" points="295.45,-101.39 305.83,-99.26 296.38,-94.46 295.45,-101.39"/>
</g>
<!-- Node7 -->
<g id="node7" class="node">
<title>Node7</title>
<g id="a_node7"><a xlink:href="classStickPushButtonGroup.html#a05d2d83f1582bb66befae5b7186601fd" target="_top" xlink:title=" ">
<polygon fill="white" stroke="black" points="314.5,-49.5 314.5,-79.5 436.5,-79.5 436.5,-49.5 314.5,-49.5"/>
<text text-anchor="start" x="322.5" y="-67.5" font-family="Helvetica,sans-Serif" font-size="10.00">StickPushButtonGroup</text>
<text text-anchor="middle" x="375.5" y="-56.5" font-family="Helvetica,sans-Serif" font-size="10.00">::openStickButtonDialog</text>
</a>
</g>
</g>
<!-- Node2&#45;&gt;Node7 -->
<g id="edge6" class="edge">
<title>Node2&#45;&gt;Node7</title>
<path fill="none" stroke="midnightblue" d="M268.18,-78.81C279.84,-77.24 292.23,-75.57 304.28,-73.95"/>
<polygon fill="midnightblue" stroke="midnightblue" points="304.85,-77.4 314.29,-72.6 303.92,-70.47 304.85,-77.4"/>
</g>
<!-- Node11 -->
<g id="node11" class="node">
<title>Node11</title>
<g id="a_node11"><a xlink:href="classStickPushButtonGroup.html#a2f16803c8ccf0ab8e0f9747a29919f40" target="_top" xlink:title=" ">
<polygon fill="white" stroke="black" points="312,-0.5 312,-30.5 439,-30.5 439,-0.5 312,-0.5"/>
<text text-anchor="start" x="320" y="-18.5" font-family="Helvetica,sans-Serif" font-size="10.00">StickPushButtonGroup</text>
<text text-anchor="middle" x="375.5" y="-7.5" font-family="Helvetica,sans-Serif" font-size="10.00">::propogateSlotsChanged</text>
</a>
</g>
</g>
<!-- Node2&#45;&gt;Node11 -->
<g id="edge11" class="edge">
<title>Node2&#45;&gt;Node11</title>
<path fill="none" stroke="midnightblue" d="M247.23,-71.49C254.2,-68.36 261.39,-64.95 268,-61.5 284.62,-52.83 287.02,-47.46 304,-39.5 307.99,-37.63 312.17,-35.83 316.42,-34.12"/>
<polygon fill="midnightblue" stroke="midnightblue" points="317.71,-37.37 325.78,-30.51 315.19,-30.84 317.71,-37.37"/>
</g>
<!-- Node4 -->
<g id="node4" class="node">
<title>Node4</title>
<g id="a_node4"><a xlink:href="classSetJoystick.html#af641cbddd22e358218ba68497e40e4e3" target="_top" xlink:title=" ">
<polygon fill="white" stroke="black" points="488,-102 488,-121 627,-121 627,-102 488,-102"/>
<text text-anchor="middle" x="557.5" y="-109" font-family="Helvetica,sans-Serif" font-size="10.00">SetJoystick::getInputDevice</text>
</a>
</g>
</g>
<!-- Node3&#45;&gt;Node4 -->
<g id="edge3" class="edge">
<title>Node3&#45;&gt;Node4</title>
<path fill="none" stroke="midnightblue" d="M442.5,-137.47C463.01,-132.8 485.31,-127.72 504.7,-123.3"/>
<polygon fill="midnightblue" stroke="midnightblue" points="505.58,-126.69 514.55,-121.05 504.03,-119.86 505.58,-126.69"/>
</g>
<!-- Node5 -->
<g id="node5" class="node">
<title>Node5</title>
<g id="a_node5"><a xlink:href="classInputDevice.html#af5b2520af7b76ff18bf3c79c02e73569" target="_top" xlink:title=" ">
<polygon fill="white" stroke="black" points="493,-143 493,-162 622,-162 622,-143 493,-143"/>
<text text-anchor="middle" x="557.5" y="-150" font-family="Helvetica,sans-Serif" font-size="10.00">InputDevice::profileEdited</text>
</a>
</g>
</g>
<!-- Node3&#45;&gt;Node5 -->
<g id="edge4" class="edge">
<title>Node3&#45;&gt;Node5</title>
<path fill="none" stroke="midnightblue" d="M447.12,-152.5C458.78,-152.5 470.89,-152.5 482.62,-152.5"/>
<polygon fill="midnightblue" stroke="midnightblue" points="482.81,-156 492.81,-152.5 482.81,-149 482.81,-156"/>
</g>
<!-- Node7&#45;&gt;Node4 -->
<g id="edge8" class="edge">
<title>Node7&#45;&gt;Node4</title>
<path fill="none" stroke="midnightblue" d="M433.95,-79.5C458.51,-85.91 486.8,-93.3 510.01,-99.36"/>
<polygon fill="midnightblue" stroke="midnightblue" points="509.39,-102.82 519.95,-101.96 511.16,-96.04 509.39,-102.82"/>
</g>
<!-- Node8 -->
<g id="node8" class="node">
<title>Node8</title>
<g id="a_node8"><a xlink:href="classJoyControlStickButtonPushButton.html#a5f39ed590bf3334bbed945edb85ee010" target="_top" xlink:title=" ">
<polygon fill="white" stroke="black" points="489,-50.5 489,-80.5 626,-80.5 626,-50.5 489,-50.5"/>
<text text-anchor="start" x="497" y="-68.5" font-family="Helvetica,sans-Serif" font-size="10.00">JoyControlStickButtonPush</text>
<text text-anchor="middle" x="557.5" y="-57.5" font-family="Helvetica,sans-Serif" font-size="10.00">Button::getButton</text>
</a>
</g>
</g>
<!-- Node7&#45;&gt;Node8 -->
<g id="edge7" class="edge">
<title>Node7&#45;&gt;Node8</title>
<path fill="none" stroke="midnightblue" d="M436.69,-64.83C450.18,-64.91 464.67,-64.99 478.76,-65.07"/>
<polygon fill="midnightblue" stroke="midnightblue" points="478.9,-68.57 488.92,-65.12 478.94,-61.57 478.9,-68.57"/>
</g>
<!-- Node9 -->
<g id="node9" class="node">
<title>Node9</title>
<g id="a_node9"><a xlink:href="classJoyControlStick.html#a368fdbc00c4a4a9cf3f3e49d6736da65" target="_top" xlink:title="Get pointer to the set that a stick belongs to.">
<polygon fill="white" stroke="black" points="483,-12 483,-31 632,-31 632,-12 483,-12"/>
<text text-anchor="middle" x="557.5" y="-19" font-family="Helvetica,sans-Serif" font-size="10.00">JoyControlStick::getParentSet</text>
</a>
</g>
</g>
<!-- Node7&#45;&gt;Node9 -->
<g id="edge9" class="edge">
<title>Node7&#45;&gt;Node9</title>
<path fill="none" stroke="midnightblue" d="M436.69,-50.12C459.36,-44.71 484.88,-38.61 506.53,-33.44"/>
<polygon fill="midnightblue" stroke="midnightblue" points="507.58,-36.79 516.49,-31.06 505.95,-29.98 507.58,-36.79"/>
</g>
<!-- Node10 -->
<g id="node10" class="node">
<title>Node10</title>
<g id="a_node10"><a xlink:href="classJoyAxis.html#a12c4147c5f4a320aee710f8753263aa6" target="_top" xlink:title=" ">
<polygon fill="white" stroke="black" points="668,-12 668,-31 783,-31 783,-12 668,-12"/>
<text text-anchor="middle" x="725.5" y="-19" font-family="Helvetica,sans-Serif" font-size="10.00">JoyAxis::getParentSet</text>
</a>
</g>
</g>
<!-- Node9&#45;&gt;Node10 -->
<g id="edge10" class="edge">
<title>Node9&#45;&gt;Node10</title>
<path fill="none" stroke="midnightblue" d="M632.28,-21.5C640.77,-21.5 649.4,-21.5 657.79,-21.5"/>
<polygon fill="midnightblue" stroke="midnightblue" points="657.89,-25 667.89,-21.5 657.89,-18 657.89,-25"/>
</g>
</g>
</svg>
        <g id="navigator" transform="translate(0 0)" fill="#404254">
                <rect fill="#f2f5e9" fill-opacity="0.5" stroke="#606060" stroke-width=".5" x="0" y="0" width="60" height="60"/>
                <use id="zoomplus" xlink:href="#zoomPlus" x="17" y="9" onmousedown="handleZoom(evt,'in')"/>
                <use id="zoomminus" xlink:href="#zoomMin" x="42" y="9" onmousedown="handleZoom(evt,'out')"/>
                <use id="reset" xlink:href="#resetDef" x="30" y="36" onmousedown="handleReset()"/>
                <g id="arrowUp" xlink:href="#dirArrow" transform="translate(30 24)" onmousedown="handlePan(0,-1)">
                  <use xlink:href="#rim" fill="#404040">
                        <set attributeName="fill" to="#808080" begin="arrowUp.mouseover" end="arrowUp.mouseout"/>
                  </use>
                  <path fill="none" stroke="white" stroke-width="1.5" d="M0,-3.0v7 M-2.5,-0.5L0,-3.0L2.5,-0.5"/>
                </g>
                <g id="arrowRight" xlink:href="#dirArrow" transform="rotate(90) translate(36 -43)" onmousedown="handlePan(1,0)">
                  <use xlink:href="#rim" fill="#404040">
                        <set attributeName="fill" to="#808080" begin="arrowRight.mouseover" end="arrowRight.mouseout"/>
                  </use>
                  <path fill="none" stroke="white" stroke-width="1.5" d="M0,-3.0v7 M-2.5,-0.5L0,-3.0L2.5,-0.5"/>
                </g>
                <g id="arrowDown" xlink:href="#dirArrow" transform="rotate(180) translate(-30 -48)" onmousedown="handlePan(0,1)">
                  <use xlink:href="#rim" fill="#404040">
                        <set attributeName="fill" to="#808080" begin="arrowDown.mouseover" end="arrowDown.mouseout"/>
                  </use>
                  <path fill="none" stroke="white" stroke-width="1.5" d="M0,-3.0v7 M-2.5,-0.5L0,-3.0L2.5,-0.5"/>
                </g>
                <g id="arrowLeft" xlink:href="#dirArrow" transform="rotate(270) translate(-36 17)" onmousedown="handlePan(-1,0)">
                  <use xlink:href="#rim" fill="#404040">
                        <set attributeName="fill" to="#808080" begin="arrowLeft.mouseover" end="arrowLeft.mouseout"/>
                  </use>
                  <path fill="none" stroke="white" stroke-width="1.5" d="M0,-3.0v7 M-2.5,-0.5L0,-3.0L2.5,-0.5"/>
                </g>
        </g>
        <svg viewBox="0 0 15 15" width="100%" height="30px" preserveAspectRatio="xMaxYMin meet">
         <g id="arrow_out" transform="scale(0.3 0.3)">
          <a xlink:href="classStickPushButtonGroup_aee73b407cb87495e444f1b877895de03_cgraph_org.svg" target="_base">
           <rect id="button" ry="5" rx="5" y="6" x="6" height="38" width="38"
                fill="#f2f5e9" fill-opacity="0.5" stroke="#606060" stroke-width="1.0"/>
           <path id="arrow"
             d="M 11.500037,31.436501 C 11.940474,20.09759 22.043105,11.32322 32.158766,21.979434 L 37.068811,17.246167 C 37.068811,17.246167 37.088388,32 37.088388,32 L 22.160133,31.978069 C 22.160133,31.978069 26.997745,27.140456 26.997745,27.140456 C 18.528582,18.264221 13.291696,25.230495 11.500037,31.436501 z"
             style="fill:#404040;"/>
          </a>
         </g>
        </svg>
</svg>
