<?xml version="1.0" encoding="UTF-8" standalone="no"?>
<!DOCTYPE svg PUBLIC "-//W3C//DTD SVG 1.1//EN"
 "http://www.w3.org/Graphics/SVG/1.1/DTD/svg11.dtd">
<!-- Generated by graphviz version 2.43.0 (0)
 -->
<!-- Title: JoyControlStickPushButton::JoyControlStickPushButton Pages: 1 -->
<!--zoomable 454 -->
<svg id="main" version="1.1" xmlns="http://www.w3.org/2000/svg" xmlns:xlink="http://www.w3.org/1999/xlink" xml:space="preserve" onload="init(evt)">
<style type="text/css"><![CDATA[
.edge:hover path { stroke: red; }
.edge:hover polygon { stroke: red; fill: red; }
]]></style>
<script type="text/javascript"><![CDATA[
var edges = document.getElementsByTagName('g');
if (edges && edges.length) {
  for (var i=0;i<edges.length;i++) {
    if (edges[i].id.substr(0,4)=='edge') {
      edges[i].setAttribute('class','edge');
    }
  }
}
]]></script>
        <defs>
                <circle id="rim" cx="0" cy="0" r="7"/>
                <circle id="rim2" cx="0" cy="0" r="3.5"/>
                <g id="zoomPlus">
                        <use xlink:href="#rim" fill="#404040">
                                <set attributeName="fill" to="#808080" begin="zoomplus.mouseover" end="zoomplus.mouseout"/>
                        </use>
                        <path d="M-4,0h8M0,-4v8" fill="none" stroke="white" stroke-width="1.5" pointer-events="none"/>
                </g>
                <g id="zoomMin">
                        <use xlink:href="#rim" fill="#404040">
                                <set attributeName="fill" to="#808080" begin="zoomminus.mouseover" end="zoomminus.mouseout"/>
                        </use>
                        <path d="M-4,0h8" fill="none" stroke="white" stroke-width="1.5" pointer-events="none"/>
                </g>
                <g id="dirArrow">
                        <path fill="none" stroke="white" stroke-width="1.5" d="M0,-3.0v7 M-2.5,-0.5L0,-3.0L2.5,-0.5"/>
                </g>
               <g id="resetDef">
                       <use xlink:href="#rim2" fill="#404040">
                               <set attributeName="fill" to="#808080" begin="reset.mouseover" end="reset.mouseout"/>
                       </use>
               </g>
        </defs>

<script type="text/javascript">
var viewWidth = 1088;
var viewHeight = 454;
var sectionId = 'dynsection-2';
</script>
<script xlink:href="svgpan.js"/>
<svg id="graph" class="graph">
<g id="viewport">
<title>JoyControlStickPushButton::JoyControlStickPushButton</title>
<polygon fill="white" stroke="transparent" points="-4,4 -4,-450 1084,-450 1084,4 -4,4"/>
<!-- Node1 -->
<g id="node1" class="node">
<title>Node1</title>
<g id="a_node1"><a xlink:title=" ">
<polygon fill="#bfbfbf" stroke="black" points="0,-186 0,-216 143,-216 143,-186 0,-186"/>
<text text-anchor="start" x="8" y="-204" font-family="Helvetica,sans-Serif" font-size="10.00">JoyControlStickPushButton</text>
<text text-anchor="middle" x="71.5" y="-193" font-family="Helvetica,sans-Serif" font-size="10.00">::JoyControlStickPushButton</text>
</a>
</g>
</g>
<!-- Node2 -->
<g id="node2" class="node">
<title>Node2</title>
<g id="a_node2"><a xlink:href="classFlashButtonWidget.html#ad8d71480fd154aad271af693af681394" target="_top" xlink:title=" ">
<polygon fill="white" stroke="black" points="371.5,-284 371.5,-314 477.5,-314 477.5,-284 371.5,-284"/>
<text text-anchor="start" x="379.5" y="-302" font-family="Helvetica,sans-Serif" font-size="10.00">FlashButtonWidget::</text>
<text text-anchor="middle" x="424.5" y="-291" font-family="Helvetica,sans-Serif" font-size="10.00">flash</text>
</a>
</g>
</g>
<!-- Node1&#45;&gt;Node2 -->
<g id="edge1" class="edge">
<title>Node1&#45;&gt;Node2</title>
<path fill="none" stroke="midnightblue" d="M88.72,-216.04C108.41,-233.32 143.43,-260.96 179,-274 238.22,-295.71 310.57,-300.68 361.14,-301.01"/>
<polygon fill="midnightblue" stroke="midnightblue" points="361.27,-304.51 371.27,-301.02 361.27,-297.51 361.27,-304.51"/>
</g>
<!-- Node3 -->
<g id="node3" class="node">
<title>Node3</title>
<g id="a_node3"><a xlink:href="classFlashButtonWidget.html#a14c9ecbbd3dfaef78b78371e17aac539" target="_top" xlink:title=" ">
<polygon fill="white" stroke="black" points="194.5,-186 194.5,-216 300.5,-216 300.5,-186 194.5,-186"/>
<text text-anchor="start" x="202.5" y="-204" font-family="Helvetica,sans-Serif" font-size="10.00">FlashButtonWidget::</text>
<text text-anchor="middle" x="247.5" y="-193" font-family="Helvetica,sans-Serif" font-size="10.00">refreshLabel</text>
</a>
</g>
</g>
<!-- Node1&#45;&gt;Node3 -->
<g id="edge2" class="edge">
<title>Node1&#45;&gt;Node3</title>
<path fill="none" stroke="midnightblue" d="M143.02,-201C156.68,-201 170.91,-201 184.28,-201"/>
<polygon fill="midnightblue" stroke="midnightblue" points="184.32,-204.5 194.32,-201 184.32,-197.5 184.32,-204.5"/>
</g>
<!-- Node5 -->
<g id="node5" class="node">
<title>Node5</title>
<g id="a_node5"><a xlink:href="classJoyControlStickPushButton.html#a0416eaa8614972e597a304df58fa50ab" target="_top" xlink:title=" ">
<polygon fill="white" stroke="black" points="179,-137 179,-167 316,-167 316,-137 179,-137"/>
<text text-anchor="start" x="187" y="-155" font-family="Helvetica,sans-Serif" font-size="10.00">JoyControlStickPushButton</text>
<text text-anchor="middle" x="247.5" y="-144" font-family="Helvetica,sans-Serif" font-size="10.00">::showContextMenu</text>
</a>
</g>
</g>
<!-- Node1&#45;&gt;Node5 -->
<g id="edge4" class="edge">
<title>Node1&#45;&gt;Node5</title>
<path fill="none" stroke="midnightblue" d="M126.13,-185.9C144.24,-180.8 164.62,-175.06 183.4,-169.77"/>
<polygon fill="midnightblue" stroke="midnightblue" points="184.37,-173.13 193.05,-167.05 182.48,-166.39 184.37,-173.13"/>
</g>
<!-- Node25 -->
<g id="node25" class="node">
<title>Node25</title>
<g id="a_node25"><a xlink:href="classJoyControlStickPushButton.html#a8edc7ee30c70a6ecb217c37a849f676e" target="_top" xlink:title=" ">
<polygon fill="white" stroke="black" points="179,-235 179,-265 316,-265 316,-235 179,-235"/>
<text text-anchor="start" x="187" y="-253" font-family="Helvetica,sans-Serif" font-size="10.00">JoyControlStickPushButton</text>
<text text-anchor="middle" x="247.5" y="-242" font-family="Helvetica,sans-Serif" font-size="10.00">::tryFlash</text>
</a>
</g>
</g>
<!-- Node1&#45;&gt;Node25 -->
<g id="edge27" class="edge">
<title>Node1&#45;&gt;Node25</title>
<path fill="none" stroke="midnightblue" d="M126.13,-216.1C144.24,-221.2 164.62,-226.94 183.4,-232.23"/>
<polygon fill="midnightblue" stroke="midnightblue" points="182.48,-235.61 193.05,-234.95 184.37,-228.87 182.48,-235.61"/>
</g>
<!-- Node27 -->
<g id="node27" class="node">
<title>Node27</title>
<g id="a_node27"><a xlink:href="classFlashButtonWidget.html#a84af4cf2103d6f054e117915850199ec" target="_top" xlink:title=" ">
<polygon fill="white" stroke="black" points="194.5,-88 194.5,-118 300.5,-118 300.5,-88 194.5,-88"/>
<text text-anchor="start" x="202.5" y="-106" font-family="Helvetica,sans-Serif" font-size="10.00">FlashButtonWidget::</text>
<text text-anchor="middle" x="247.5" y="-95" font-family="Helvetica,sans-Serif" font-size="10.00">unflash</text>
</a>
</g>
</g>
<!-- Node1&#45;&gt;Node27 -->
<g id="edge30" class="edge">
<title>Node1&#45;&gt;Node27</title>
<path fill="none" stroke="midnightblue" d="M91.15,-185.73C111.68,-169.49 146.15,-143.87 179,-127 182.45,-125.23 186.06,-123.53 189.74,-121.92"/>
<polygon fill="midnightblue" stroke="midnightblue" points="191.08,-125.15 198.98,-118.09 188.4,-118.69 191.08,-125.15"/>
</g>
<!-- Node4 -->
<g id="node4" class="node">
<title>Node4</title>
<g id="a_node4"><a xlink:href="classFlashButtonWidget.html#a15b2a9c645747d9f1f8368389da5830a" target="_top" xlink:title=" ">
<polygon fill="white" stroke="black" points="371.5,-186 371.5,-216 477.5,-216 477.5,-186 371.5,-186"/>
<text text-anchor="start" x="379.5" y="-204" font-family="Helvetica,sans-Serif" font-size="10.00">FlashButtonWidget::</text>
<text text-anchor="middle" x="424.5" y="-193" font-family="Helvetica,sans-Serif" font-size="10.00">generateLabel</text>
</a>
</g>
</g>
<!-- Node3&#45;&gt;Node4 -->
<g id="edge3" class="edge">
<title>Node3&#45;&gt;Node4</title>
<path fill="none" stroke="midnightblue" d="M300.53,-201C319.58,-201 341.32,-201 361.18,-201"/>
<polygon fill="midnightblue" stroke="midnightblue" points="361.37,-204.5 371.37,-201 361.37,-197.5 361.37,-204.5"/>
</g>
<!-- Node6 -->
<g id="node6" class="node">
<title>Node6</title>
<g id="a_node6"><a xlink:href="classJoyControlStickContextMenu.html#a0290b608bf0fd639af32767a20a4b7a8" target="_top" xlink:title=" ">
<polygon fill="white" stroke="black" points="352,-137 352,-167 497,-167 497,-137 352,-137"/>
<text text-anchor="start" x="360" y="-155" font-family="Helvetica,sans-Serif" font-size="10.00">JoyControlStickContextMenu</text>
<text text-anchor="middle" x="424.5" y="-144" font-family="Helvetica,sans-Serif" font-size="10.00">::buildMenu</text>
</a>
</g>
</g>
<!-- Node5&#45;&gt;Node6 -->
<g id="edge5" class="edge">
<title>Node5&#45;&gt;Node6</title>
<path fill="none" stroke="midnightblue" d="M316.16,-152C324.59,-152 333.29,-152 341.9,-152"/>
<polygon fill="midnightblue" stroke="midnightblue" points="341.96,-155.5 351.96,-152 341.96,-148.5 341.96,-155.5"/>
</g>
<!-- Node7 -->
<g id="node7" class="node">
<title>Node7</title>
<g id="a_node7"><a xlink:href="classJoyControlStick.html#af2228e6ed7156093dd5140e53000a918" target="_top" xlink:title=" ">
<polygon fill="white" stroke="black" points="719.5,-186.5 719.5,-205.5 864.5,-205.5 864.5,-186.5 719.5,-186.5"/>
<text text-anchor="middle" x="792" y="-193.5" font-family="Helvetica,sans-Serif" font-size="10.00">JoyControlStick::getJoyMode</text>
</a>
</g>
</g>
<!-- Node6&#45;&gt;Node7 -->
<g id="edge6" class="edge">
<title>Node6&#45;&gt;Node7</title>
<path fill="none" stroke="midnightblue" d="M485.77,-167.04C501.09,-170.42 517.59,-173.69 533,-176 591.51,-184.75 658.09,-189.79 708.95,-192.62"/>
<polygon fill="midnightblue" stroke="midnightblue" points="709.06,-196.13 719.24,-193.18 709.44,-189.14 709.06,-196.13"/>
</g>
<!-- Node8 -->
<g id="node8" class="node">
<title>Node8</title>
<g id="a_node8"><a xlink:href="classJoyControlStickContextMenu.html#ae95cb2129e13935a34fb6f4300a690f7" target="_top" xlink:title=" ">
<polygon fill="white" stroke="black" points="533,-301 533,-331 678,-331 678,-301 533,-301"/>
<text text-anchor="start" x="541" y="-319" font-family="Helvetica,sans-Serif" font-size="10.00">JoyControlStickContextMenu</text>
<text text-anchor="middle" x="605.5" y="-308" font-family="Helvetica,sans-Serif" font-size="10.00">::getPresetIndex</text>
</a>
</g>
</g>
<!-- Node6&#45;&gt;Node8 -->
<g id="edge7" class="edge">
<title>Node6&#45;&gt;Node8</title>
<path fill="none" stroke="midnightblue" d="M481.37,-167.06C486.89,-169.62 492.2,-172.58 497,-176 519.88,-192.33 565.17,-257.15 589.01,-292.58"/>
<polygon fill="midnightblue" stroke="midnightblue" points="586.11,-294.54 594.58,-300.9 591.92,-290.65 586.11,-294.54"/>
</g>
<!-- Node18 -->
<g id="node18" class="node">
<title>Node18</title>
<g id="a_node18"><a xlink:href="classJoyControlStickContextMenu.html#aa7763ec88ca2297cb0693c46aaffd7cb" target="_top" xlink:title=" ">
<polygon fill="white" stroke="black" points="533,-39 533,-69 678,-69 678,-39 533,-39"/>
<text text-anchor="start" x="541" y="-57" font-family="Helvetica,sans-Serif" font-size="10.00">JoyControlStickContextMenu</text>
<text text-anchor="middle" x="605.5" y="-46" font-family="Helvetica,sans-Serif" font-size="10.00">::openMouseSettingsDialog</text>
</a>
</g>
</g>
<!-- Node6&#45;&gt;Node18 -->
<g id="edge17" class="edge">
<title>Node6&#45;&gt;Node18</title>
<path fill="none" stroke="midnightblue" d="M443.92,-136.93C464.57,-120.62 499.56,-94.71 533,-78 536.59,-76.21 540.34,-74.5 544.17,-72.88"/>
<polygon fill="midnightblue" stroke="midnightblue" points="545.78,-76.01 553.78,-69.06 543.19,-69.5 545.78,-76.01"/>
</g>
<!-- Node19 -->
<g id="node19" class="node">
<title>Node19</title>
<g id="a_node19"><a xlink:href="classJoyControlStickContextMenu.html#ac5445252e43228e7a6a3f5ae0c994b43" target="_top" xlink:title=" ">
<polygon fill="white" stroke="black" points="533,-88 533,-118 678,-118 678,-88 533,-88"/>
<text text-anchor="start" x="541" y="-106" font-family="Helvetica,sans-Serif" font-size="10.00">JoyControlStickContextMenu</text>
<text text-anchor="middle" x="605.5" y="-95" font-family="Helvetica,sans-Serif" font-size="10.00">::setStickMode</text>
</a>
</g>
</g>
<!-- Node6&#45;&gt;Node19 -->
<g id="edge18" class="edge">
<title>Node6&#45;&gt;Node19</title>
<path fill="none" stroke="midnightblue" d="M480.67,-136.9C499.38,-131.77 520.46,-126 539.85,-120.7"/>
<polygon fill="midnightblue" stroke="midnightblue" points="540.79,-124.07 549.52,-118.05 538.95,-117.32 540.79,-124.07"/>
</g>
<!-- Node21 -->
<g id="node21" class="node">
<title>Node21</title>
<g id="a_node21"><a xlink:href="classJoyControlStickContextMenu.html#a00fe5d89b13fa5116b5cadd7480e8d93" target="_top" xlink:title=" ">
<polygon fill="white" stroke="black" points="533,-137 533,-167 678,-167 678,-137 533,-137"/>
<text text-anchor="start" x="541" y="-155" font-family="Helvetica,sans-Serif" font-size="10.00">JoyControlStickContextMenu</text>
<text text-anchor="middle" x="605.5" y="-144" font-family="Helvetica,sans-Serif" font-size="10.00">::setStickPreset</text>
</a>
</g>
</g>
<!-- Node6&#45;&gt;Node21 -->
<g id="edge20" class="edge">
<title>Node6&#45;&gt;Node21</title>
<path fill="none" stroke="midnightblue" d="M497.02,-152C505.49,-152 514.18,-152 522.78,-152"/>
<polygon fill="midnightblue" stroke="midnightblue" points="522.8,-155.5 532.8,-152 522.8,-148.5 522.8,-155.5"/>
</g>
<!-- Node9 -->
<g id="node9" class="node">
<title>Node9</title>
<g id="a_node9"><a xlink:href="classJoyButton.html#ae1d364dfa70f47fae3db99ffbcdea44b" target="_top" xlink:title=" ">
<polygon fill="white" stroke="black" points="720.5,-350.5 720.5,-369.5 863.5,-369.5 863.5,-350.5 720.5,-350.5"/>
<text text-anchor="middle" x="792" y="-357.5" font-family="Helvetica,sans-Serif" font-size="10.00">JoyButton::getAssignedSlots</text>
</a>
</g>
</g>
<!-- Node8&#45;&gt;Node9 -->
<g id="edge8" class="edge">
<title>Node8&#45;&gt;Node9</title>
<path fill="none" stroke="midnightblue" d="M669.48,-331.02C692.92,-336.61 719.19,-342.87 741.28,-348.14"/>
<polygon fill="midnightblue" stroke="midnightblue" points="740.57,-351.57 751.11,-350.49 742.2,-344.76 740.57,-351.57"/>
</g>
<!-- Node10 -->
<g id="node10" class="node">
<title>Node10</title>
<g id="a_node10"><a xlink:href="classJoyControlStick.html#ae57242ae6e71190d82ef4dbf31f11dd0" target="_top" xlink:title="Get a pointer to the stick direction button for the desired direction.">
<polygon fill="white" stroke="black" points="720,-301 720,-331 864,-331 864,-301 720,-301"/>
<text text-anchor="start" x="728" y="-319" font-family="Helvetica,sans-Serif" font-size="10.00">JoyControlStick::getDirection</text>
<text text-anchor="middle" x="792" y="-308" font-family="Helvetica,sans-Serif" font-size="10.00">Button</text>
</a>
</g>
</g>
<!-- Node8&#45;&gt;Node10 -->
<g id="edge9" class="edge">
<title>Node8&#45;&gt;Node10</title>
<path fill="none" stroke="midnightblue" d="M678.1,-316C688.46,-316 699.19,-316 709.72,-316"/>
<polygon fill="midnightblue" stroke="midnightblue" points="709.75,-319.5 719.75,-316 709.75,-312.5 709.75,-319.5"/>
</g>
<!-- Node11 -->
<g id="node11" class="node">
<title>Node11</title>
<g id="a_node11"><a xlink:href="classAntKeyMapper.html#acd08c44a2501edcfdb1ef8a68d534b1b" target="_top" xlink:title=" ">
<polygon fill="white" stroke="black" points="723.5,-224.5 723.5,-243.5 860.5,-243.5 860.5,-224.5 723.5,-224.5"/>
<text text-anchor="middle" x="792" y="-231.5" font-family="Helvetica,sans-Serif" font-size="10.00">AntKeyMapper::getInstance</text>
</a>
</g>
</g>
<!-- Node8&#45;&gt;Node11 -->
<g id="edge10" class="edge">
<title>Node8&#45;&gt;Node11</title>
<path fill="none" stroke="midnightblue" d="M628.18,-300.76C649.23,-286.58 682.54,-265.79 714,-253 720.17,-250.49 726.76,-248.25 733.39,-246.27"/>
<polygon fill="midnightblue" stroke="midnightblue" points="734.4,-249.62 743.08,-243.55 732.51,-242.88 734.4,-249.62"/>
</g>
<!-- Node14 -->
<g id="node14" class="node">
<title>Node14</title>
<g id="a_node14"><a xlink:href="classJoyButtonSlot.html#a7fa0bf6d891437a2392e47d32b746502" target="_top" xlink:title=" ">
<polygon fill="white" stroke="black" points="723,-262.5 723,-281.5 861,-281.5 861,-262.5 723,-262.5"/>
<text text-anchor="middle" x="792" y="-269.5" font-family="Helvetica,sans-Serif" font-size="10.00">JoyButtonSlot::getSlotCode</text>
</a>
</g>
</g>
<!-- Node8&#45;&gt;Node14 -->
<g id="edge13" class="edge">
<title>Node8&#45;&gt;Node14</title>
<path fill="none" stroke="midnightblue" d="M669.48,-300.98C692.92,-295.39 719.19,-289.13 741.28,-283.86"/>
<polygon fill="midnightblue" stroke="midnightblue" points="742.2,-287.24 751.11,-281.51 740.57,-280.43 742.2,-287.24"/>
</g>
<!-- Node15 -->
<g id="node15" class="node">
<title>Node15</title>
<g id="a_node15"><a xlink:href="classJoyButtonSlot.html#abed7fe134c404b403ea79c0753f6eaaf" target="_top" xlink:title=" ">
<polygon fill="white" stroke="black" points="722.5,-426.5 722.5,-445.5 861.5,-445.5 861.5,-426.5 722.5,-426.5"/>
<text text-anchor="middle" x="792" y="-433.5" font-family="Helvetica,sans-Serif" font-size="10.00">JoyButtonSlot::getSlotMode</text>
</a>
</g>
</g>
<!-- Node8&#45;&gt;Node15 -->
<g id="edge14" class="edge">
<title>Node8&#45;&gt;Node15</title>
<path fill="none" stroke="midnightblue" d="M618.29,-331.23C636.4,-353.54 673.28,-394.86 714,-417 718.24,-419.3 722.76,-421.33 727.4,-423.12"/>
<polygon fill="midnightblue" stroke="midnightblue" points="726.47,-426.5 737.06,-426.46 728.75,-419.88 726.47,-426.5"/>
</g>
<!-- Node16 -->
<g id="node16" class="node">
<title>Node16</title>
<g id="a_node16"><a xlink:href="classAntKeyMapper.html#a07957c1e2baac6c4266678d89dc7c3a6" target="_top" xlink:title=" ">
<polygon fill="white" stroke="black" points="714,-388.5 714,-407.5 870,-407.5 870,-388.5 714,-388.5"/>
<text text-anchor="middle" x="792" y="-395.5" font-family="Helvetica,sans-Serif" font-size="10.00">AntKeyMapper::returnVirtualKey</text>
</a>
</g>
</g>
<!-- Node8&#45;&gt;Node16 -->
<g id="edge15" class="edge">
<title>Node8&#45;&gt;Node16</title>
<path fill="none" stroke="midnightblue" d="M628.18,-331.24C649.23,-345.42 682.54,-366.21 714,-379 720.17,-381.51 726.76,-383.75 733.39,-385.73"/>
<polygon fill="midnightblue" stroke="midnightblue" points="732.51,-389.12 743.08,-388.45 734.4,-382.38 732.51,-389.12"/>
</g>
<!-- Node12 -->
<g id="node12" class="node">
<title>Node12</title>
<g id="a_node12"><a xlink:href="classAntKeyMapper.html#abe4a434636d370a750d32a14b9a139d3" target="_top" xlink:title=" ">
<polygon fill="white" stroke="black" points="918,-243.5 918,-262.5 1068,-262.5 1068,-243.5 918,-243.5"/>
<text text-anchor="middle" x="993" y="-250.5" font-family="Helvetica,sans-Serif" font-size="10.00">AntKeyMapper::AntKeyMapper</text>
</a>
</g>
</g>
<!-- Node11&#45;&gt;Node12 -->
<g id="edge11" class="edge">
<title>Node11&#45;&gt;Node12</title>
<path fill="none" stroke="midnightblue" d="M860.65,-240.46C875.72,-241.9 891.87,-243.44 907.52,-244.93"/>
<polygon fill="midnightblue" stroke="midnightblue" points="907.42,-248.44 917.71,-245.91 908.09,-241.47 907.42,-248.44"/>
</g>
<!-- Node13 -->
<g id="node13" class="node">
<title>Node13</title>
<g id="a_node13"><a xlink:href="antkeymapper_8cpp.html#a4f87707944cf82e8e59c85d48e24951c" target="_top" xlink:title=" ">
<polygon fill="white" stroke="black" points="933,-205.5 933,-224.5 1053,-224.5 1053,-205.5 933,-205.5"/>
<text text-anchor="middle" x="993" y="-212.5" font-family="Helvetica,sans-Serif" font-size="10.00">buildEventGeneratorList</text>
</a>
</g>
</g>
<!-- Node11&#45;&gt;Node13 -->
<g id="edge12" class="edge">
<title>Node11&#45;&gt;Node13</title>
<path fill="none" stroke="midnightblue" d="M860.65,-227.54C880.7,-225.63 902.68,-223.53 922.82,-221.6"/>
<polygon fill="midnightblue" stroke="midnightblue" points="923.24,-225.08 932.86,-220.65 922.57,-218.11 923.24,-225.08"/>
</g>
<!-- Node17 -->
<g id="node17" class="node">
<title>Node17</title>
<g id="a_node17"><a xlink:href="classQtKeyMapperBase.html#a5df0f313bce11847f8495126373e7178" target="_top" xlink:title=" ">
<polygon fill="white" stroke="black" points="906,-388.5 906,-407.5 1080,-407.5 1080,-388.5 906,-388.5"/>
<text text-anchor="middle" x="993" y="-395.5" font-family="Helvetica,sans-Serif" font-size="10.00">QtKeyMapperBase::returnVirtualKey</text>
</a>
</g>
</g>
<!-- Node16&#45;&gt;Node17 -->
<g id="edge16" class="edge">
<title>Node16&#45;&gt;Node17</title>
<path fill="none" stroke="midnightblue" d="M870.22,-398C878.63,-398 887.25,-398 895.84,-398"/>
<polygon fill="midnightblue" stroke="midnightblue" points="895.9,-401.5 905.9,-398 895.9,-394.5 895.9,-401.5"/>
</g>
<!-- Node20 -->
<g id="node20" class="node">
<title>Node20</title>
<g id="a_node20"><a xlink:href="classJoyControlStick.html#a7979a689bc339467288892614fffed13" target="_top" xlink:title=" ">
<polygon fill="white" stroke="black" points="719.5,-0.5 719.5,-19.5 864.5,-19.5 864.5,-0.5 719.5,-0.5"/>
<text text-anchor="middle" x="792" y="-7.5" font-family="Helvetica,sans-Serif" font-size="10.00">JoyControlStick::setJoyMode</text>
</a>
</g>
</g>
<!-- Node19&#45;&gt;Node20 -->
<g id="edge19" class="edge">
<title>Node19&#45;&gt;Node20</title>
<path fill="none" stroke="midnightblue" d="M660.98,-87.91C667,-85.11 672.82,-81.83 678,-78 699.73,-61.93 691.54,-44.02 714,-29 717.1,-26.93 720.41,-25.08 723.84,-23.43"/>
<polygon fill="midnightblue" stroke="midnightblue" points="725.3,-26.61 733.18,-19.53 722.6,-20.16 725.3,-26.61"/>
</g>
<!-- Node21&#45;&gt;Node7 -->
<g id="edge23" class="edge">
<title>Node21&#45;&gt;Node7</title>
<path fill="none" stroke="midnightblue" d="M669.48,-167.02C692.92,-172.61 719.19,-178.87 741.28,-184.14"/>
<polygon fill="midnightblue" stroke="midnightblue" points="740.57,-187.57 751.11,-186.49 742.2,-180.76 740.57,-187.57"/>
</g>
<!-- Node21&#45;&gt;Node11 -->
<g id="edge22" class="edge">
<title>Node21&#45;&gt;Node11</title>
<path fill="none" stroke="midnightblue" d="M628.18,-167.24C649.23,-181.42 682.54,-202.21 714,-215 720.17,-217.51 726.76,-219.75 733.39,-221.73"/>
<polygon fill="midnightblue" stroke="midnightblue" points="732.51,-225.12 743.08,-224.45 734.4,-218.38 732.51,-225.12"/>
</g>
<!-- Node21&#45;&gt;Node20 -->
<g id="edge25" class="edge">
<title>Node21&#45;&gt;Node20</title>
<path fill="none" stroke="midnightblue" d="M664.61,-136.92C669.5,-134.15 674.06,-130.87 678,-127 711.07,-94.45 679.43,-59.96 714,-29 715.75,-27.43 717.61,-25.99 719.55,-24.66"/>
<polygon fill="midnightblue" stroke="midnightblue" points="721.6,-27.53 728.57,-19.55 718.14,-21.44 721.6,-27.53"/>
</g>
<!-- Node22 -->
<g id="node22" class="node">
<title>Node22</title>
<g id="a_node22"><a xlink:href="classJoyControlStickContextMenu.html#ad2bcaf30656d4ef472d20e55b43a4f0d" target="_top" xlink:title=" ">
<polygon fill="white" stroke="black" points="719.5,-137 719.5,-167 864.5,-167 864.5,-137 719.5,-137"/>
<text text-anchor="start" x="727.5" y="-155" font-family="Helvetica,sans-Serif" font-size="10.00">JoyControlStickContextMenu</text>
<text text-anchor="middle" x="792" y="-144" font-family="Helvetica,sans-Serif" font-size="10.00">::getHelperLocal</text>
</a>
</g>
</g>
<!-- Node21&#45;&gt;Node22 -->
<g id="edge21" class="edge">
<title>Node21&#45;&gt;Node22</title>
<path fill="none" stroke="midnightblue" d="M678.1,-152C688.28,-152 698.81,-152 709.17,-152"/>
<polygon fill="midnightblue" stroke="midnightblue" points="709.44,-155.5 719.44,-152 709.44,-148.5 709.44,-155.5"/>
</g>
<!-- Node23 -->
<g id="node23" class="node">
<title>Node23</title>
<g id="a_node23"><a xlink:href="classJoyControlStick.html#abf2153ee9f2364f55640feb2a6ca60d6" target="_top" xlink:title="Set the diagonal range value for a stick.">
<polygon fill="white" stroke="black" points="720.5,-88 720.5,-118 863.5,-118 863.5,-88 720.5,-88"/>
<text text-anchor="start" x="728.5" y="-106" font-family="Helvetica,sans-Serif" font-size="10.00">JoyControlStick::setDiagonal</text>
<text text-anchor="middle" x="792" y="-95" font-family="Helvetica,sans-Serif" font-size="10.00">Range</text>
</a>
</g>
</g>
<!-- Node21&#45;&gt;Node23 -->
<g id="edge24" class="edge">
<title>Node21&#45;&gt;Node23</title>
<path fill="none" stroke="midnightblue" d="M663.11,-136.97C682.59,-131.79 704.58,-125.95 724.76,-120.59"/>
<polygon fill="midnightblue" stroke="midnightblue" points="725.73,-123.96 734.5,-118.01 723.93,-117.19 725.73,-123.96"/>
</g>
<!-- Node24 -->
<g id="node24" class="node">
<title>Node24</title>
<g id="a_node24"><a xlink:href="classJoyControlStickContextMenuHelper.html#adfdb19d552a70502449f88a5e0ad6a41" target="_top" xlink:title=" ">
<polygon fill="white" stroke="black" points="719.5,-39 719.5,-69 864.5,-69 864.5,-39 719.5,-39"/>
<text text-anchor="start" x="727.5" y="-57" font-family="Helvetica,sans-Serif" font-size="10.00">JoyControlStickContextMenu</text>
<text text-anchor="middle" x="792" y="-46" font-family="Helvetica,sans-Serif" font-size="10.00">Helper::setPendingSlots</text>
</a>
</g>
</g>
<!-- Node21&#45;&gt;Node24 -->
<g id="edge26" class="edge">
<title>Node21&#45;&gt;Node24</title>
<path fill="none" stroke="midnightblue" d="M660.98,-136.91C667,-134.11 672.82,-130.83 678,-127 699.73,-110.93 692,-93.69 714,-78 716.09,-76.51 718.29,-75.1 720.55,-73.78"/>
<polygon fill="midnightblue" stroke="midnightblue" points="722.3,-76.82 729.57,-69.11 719.08,-70.6 722.3,-76.82"/>
</g>
<!-- Node25&#45;&gt;Node2 -->
<g id="edge28" class="edge">
<title>Node25&#45;&gt;Node2</title>
<path fill="none" stroke="midnightblue" d="M302.43,-265.1C321.08,-270.32 342.12,-276.21 361.36,-281.6"/>
<polygon fill="midnightblue" stroke="midnightblue" points="360.67,-285.04 371.24,-284.37 362.56,-278.3 360.67,-285.04"/>
</g>
<!-- Node26 -->
<g id="node26" class="node">
<title>Node26</title>
<g id="a_node26"><a xlink:href="classJoyControlStick.html#a6558903feba928443b415f33089beef8" target="_top" xlink:title="Get the value for the currently active stick direction.">
<polygon fill="white" stroke="black" points="356,-235 356,-265 493,-265 493,-235 356,-235"/>
<text text-anchor="start" x="364" y="-253" font-family="Helvetica,sans-Serif" font-size="10.00">JoyControlStick::getCurrent</text>
<text text-anchor="middle" x="424.5" y="-242" font-family="Helvetica,sans-Serif" font-size="10.00">Direction</text>
</a>
</g>
</g>
<!-- Node25&#45;&gt;Node26 -->
<g id="edge29" class="edge">
<title>Node25&#45;&gt;Node26</title>
<path fill="none" stroke="midnightblue" d="M316.16,-250C325.8,-250 335.77,-250 345.59,-250"/>
<polygon fill="midnightblue" stroke="midnightblue" points="345.73,-253.5 355.73,-250 345.73,-246.5 345.73,-253.5"/>
</g>
</g>
</svg>
        <g id="navigator" transform="translate(0 0)" fill="#404254">
                <rect fill="#f2f5e9" fill-opacity="0.5" stroke="#606060" stroke-width=".5" x="0" y="0" width="60" height="60"/>
                <use id="zoomplus" xlink:href="#zoomPlus" x="17" y="9" onmousedown="handleZoom(evt,'in')"/>
                <use id="zoomminus" xlink:href="#zoomMin" x="42" y="9" onmousedown="handleZoom(evt,'out')"/>
                <use id="reset" xlink:href="#resetDef" x="30" y="36" onmousedown="handleReset()"/>
                <g id="arrowUp" xlink:href="#dirArrow" transform="translate(30 24)" onmousedown="handlePan(0,-1)">
                  <use xlink:href="#rim" fill="#404040">
                        <set attributeName="fill" to="#808080" begin="arrowUp.mouseover" end="arrowUp.mouseout"/>
                  </use>
                  <path fill="none" stroke="white" stroke-width="1.5" d="M0,-3.0v7 M-2.5,-0.5L0,-3.0L2.5,-0.5"/>
                </g>
                <g id="arrowRight" xlink:href="#dirArrow" transform="rotate(90) translate(36 -43)" onmousedown="handlePan(1,0)">
                  <use xlink:href="#rim" fill="#404040">
                        <set attributeName="fill" to="#808080" begin="arrowRight.mouseover" end="arrowRight.mouseout"/>
                  </use>
                  <path fill="none" stroke="white" stroke-width="1.5" d="M0,-3.0v7 M-2.5,-0.5L0,-3.0L2.5,-0.5"/>
                </g>
                <g id="arrowDown" xlink:href="#dirArrow" transform="rotate(180) translate(-30 -48)" onmousedown="handlePan(0,1)">
                  <use xlink:href="#rim" fill="#404040">
                        <set attributeName="fill" to="#808080" begin="arrowDown.mouseover" end="arrowDown.mouseout"/>
                  </use>
                  <path fill="none" stroke="white" stroke-width="1.5" d="M0,-3.0v7 M-2.5,-0.5L0,-3.0L2.5,-0.5"/>
                </g>
                <g id="arrowLeft" xlink:href="#dirArrow" transform="rotate(270) translate(-36 17)" onmousedown="handlePan(-1,0)">
                  <use xlink:href="#rim" fill="#404040">
                        <set attributeName="fill" to="#808080" begin="arrowLeft.mouseover" end="arrowLeft.mouseout"/>
                  </use>
                  <path fill="none" stroke="white" stroke-width="1.5" d="M0,-3.0v7 M-2.5,-0.5L0,-3.0L2.5,-0.5"/>
                </g>
        </g>
        <svg viewBox="0 0 15 15" width="100%" height="30px" preserveAspectRatio="xMaxYMin meet">
         <g id="arrow_out" transform="scale(0.3 0.3)">
          <a xlink:href="classJoyControlStickPushButton_a84c9c0ebc8bab68996df6619a4969168_cgraph_org.svg" target="_base">
           <rect id="button" ry="5" rx="5" y="6" x="6" height="38" width="38"
                fill="#f2f5e9" fill-opacity="0.5" stroke="#606060" stroke-width="1.0"/>
           <path id="arrow"
             d="M 11.500037,31.436501 C 11.940474,20.09759 22.043105,11.32322 32.158766,21.979434 L 37.068811,17.246167 C 37.068811,17.246167 37.088388,32 37.088388,32 L 22.160133,31.978069 C 22.160133,31.978069 26.997745,27.140456 26.997745,27.140456 C 18.528582,18.264221 13.291696,25.230495 11.500037,31.436501 z"
             style="fill:#404040;"/>
          </a>
         </g>
        </svg>
</svg>
