<?xml version="1.0" encoding="UTF-8" standalone="no"?>
<!DOCTYPE svg PUBLIC "-//W3C//DTD SVG 1.1//EN"
 "http://www.w3.org/Graphics/SVG/1.1/DTD/svg11.dtd">
<!-- Generated by graphviz version 2.43.0 (0)
 -->
<!-- Title: JoyControlStick::populateButtons Pages: 1 -->
<svg width="636pt" height="39pt"
 viewBox="0.00 0.00 636.00 39.00" xmlns="http://www.w3.org/2000/svg" xmlns:xlink="http://www.w3.org/1999/xlink">
<g id="graph0" class="graph" transform="scale(1 1) rotate(0) translate(4 35)">
<title>JoyControlStick::populateButtons</title>
<polygon fill="white" stroke="transparent" points="-4,4 -4,-35 632,-35 632,4 -4,4"/>
<!-- Node1 -->
<g id="node1" class="node">
<title>Node1</title>
<g id="a_node1"><a xlink:title="Populate the virtual buttons assigned to an analog stick.">
<polygon fill="#bfbfbf" stroke="black" points="0,-0.5 0,-30.5 128,-30.5 128,-0.5 0,-0.5"/>
<text text-anchor="start" x="8" y="-18.5" font-family="Helvetica,sans-Serif" font-size="10.00">JoyControlStick::populate</text>
<text text-anchor="middle" x="64" y="-7.5" font-family="Helvetica,sans-Serif" font-size="10.00">Buttons</text>
</a>
</g>
</g>
<!-- Node2 -->
<g id="node2" class="node">
<title>Node2</title>
<g id="a_node2"><a xlink:href="classJoyControlStick.html#a206ddd9d2d353588f0491881dc07d307" target="_top" xlink:title=" ">
<polygon fill="white" stroke="black" points="164,-0.5 164,-30.5 292,-30.5 292,-0.5 164,-0.5"/>
<text text-anchor="start" x="172" y="-18.5" font-family="Helvetica,sans-Serif" font-size="10.00">JoyControlStick::populate</text>
<text text-anchor="middle" x="228" y="-7.5" font-family="Helvetica,sans-Serif" font-size="10.00">StickBtns</text>
</a>
</g>
</g>
<!-- Node1&#45;&gt;Node2 -->
<g id="edge1" class="edge">
<title>Node1&#45;&gt;Node2</title>
<path fill="none" stroke="midnightblue" d="M128.1,-15.5C136.43,-15.5 145.04,-15.5 153.53,-15.5"/>
<polygon fill="midnightblue" stroke="midnightblue" points="153.81,-19 163.81,-15.5 153.81,-12 153.81,-19"/>
</g>
<!-- Node3 -->
<g id="node3" class="node">
<title>Node3</title>
<g id="a_node3"><a xlink:href="classJoyControlStick.html#a368fdbc00c4a4a9cf3f3e49d6736da65" target="_top" xlink:title="Get pointer to the set that a stick belongs to.">
<polygon fill="white" stroke="black" points="328,-6 328,-25 477,-25 477,-6 328,-6"/>
<text text-anchor="middle" x="402.5" y="-13" font-family="Helvetica,sans-Serif" font-size="10.00">JoyControlStick::getParentSet</text>
</a>
</g>
</g>
<!-- Node2&#45;&gt;Node3 -->
<g id="edge2" class="edge">
<title>Node2&#45;&gt;Node3</title>
<path fill="none" stroke="midnightblue" d="M292.25,-15.5C300.55,-15.5 309.15,-15.5 317.71,-15.5"/>
<polygon fill="midnightblue" stroke="midnightblue" points="317.73,-19 327.73,-15.5 317.73,-12 317.73,-19"/>
</g>
<!-- Node4 -->
<g id="node4" class="node">
<title>Node4</title>
<g id="a_node4"><a xlink:href="classJoyAxis.html#a12c4147c5f4a320aee710f8753263aa6" target="_top" xlink:title=" ">
<polygon fill="white" stroke="black" points="513,-6 513,-25 628,-25 628,-6 513,-6"/>
<text text-anchor="middle" x="570.5" y="-13" font-family="Helvetica,sans-Serif" font-size="10.00">JoyAxis::getParentSet</text>
</a>
</g>
</g>
<!-- Node3&#45;&gt;Node4 -->
<g id="edge3" class="edge">
<title>Node3&#45;&gt;Node4</title>
<path fill="none" stroke="midnightblue" d="M477.28,-15.5C485.77,-15.5 494.4,-15.5 502.79,-15.5"/>
<polygon fill="midnightblue" stroke="midnightblue" points="502.89,-19 512.89,-15.5 502.89,-12 502.89,-19"/>
</g>
</g>
</svg>
