<?xml version="1.0" encoding="UTF-8" standalone="no"?>
<!DOCTYPE svg PUBLIC "-//W3C//DTD SVG 1.1//EN"
 "http://www.w3.org/Graphics/SVG/1.1/DTD/svg11.dtd">
<!-- Generated by graphviz version 2.43.0 (0)
 -->
<!-- Title: JoyAxis::inDeadZone Pages: 1 -->
<svg width="450pt" height="66pt"
 viewBox="0.00 0.00 450.00 66.00" xmlns="http://www.w3.org/2000/svg" xmlns:xlink="http://www.w3.org/1999/xlink">
<g id="graph0" class="graph" transform="scale(1 1) rotate(0) translate(4 62)">
<title>JoyAxis::inDeadZone</title>
<polygon fill="white" stroke="transparent" points="-4,4 -4,-62 446,-62 446,4 -4,4"/>
<!-- Node1 -->
<g id="node1" class="node">
<title>Node1</title>
<g id="a_node1"><a xlink:title=" ">
<polygon fill="#bfbfbf" stroke="black" points="0,-19.5 0,-38.5 110,-38.5 110,-19.5 0,-19.5"/>
<text text-anchor="middle" x="55" y="-26.5" font-family="Helvetica,sans-Serif" font-size="10.00">JoyAxis::inDeadZone</text>
</a>
</g>
</g>
<!-- Node2 -->
<g id="node2" class="node">
<title>Node2</title>
<g id="a_node2"><a xlink:href="$classJoyAxis.html#a06d99d722b314998440165a01b0f87b3" xlink:title=" ">
<polygon fill="white" stroke="black" points="146,-14 146,-44 281,-44 281,-14 146,-14"/>
<text text-anchor="start" x="154" y="-32" font-family="Helvetica,sans-Serif" font-size="10.00">JoyAxis::calculateThrottled</text>
<text text-anchor="middle" x="213.5" y="-21" font-family="Helvetica,sans-Serif" font-size="10.00">Value</text>
</a>
</g>
</g>
<!-- Node1&#45;&gt;Node2 -->
<g id="edge1" class="edge">
<title>Node1&#45;&gt;Node2</title>
<path fill="none" stroke="midnightblue" d="M110.3,-29C118.55,-29 127.19,-29 135.8,-29"/>
<polygon fill="midnightblue" stroke="midnightblue" points="135.88,-32.5 145.88,-29 135.88,-25.5 135.88,-32.5"/>
</g>
<!-- Node3 -->
<g id="node3" class="node">
<title>Node3</title>
<g id="a_node3"><a xlink:href="$classJoyAxis.html#af3f311fbf20c583224c2320d1fda0226" xlink:title=" ">
<polygon fill="white" stroke="black" points="317,-38.5 317,-57.5 442,-57.5 442,-38.5 317,-38.5"/>
<text text-anchor="middle" x="379.5" y="-45.5" font-family="Helvetica,sans-Serif" font-size="10.00">JoyAxis::getAxisMaxCal</text>
</a>
</g>
</g>
<!-- Node2&#45;&gt;Node3 -->
<g id="edge2" class="edge">
<title>Node2&#45;&gt;Node3</title>
<path fill="none" stroke="midnightblue" d="M281.21,-36.73C289.68,-37.71 298.39,-38.72 306.94,-39.71"/>
<polygon fill="midnightblue" stroke="midnightblue" points="306.54,-43.19 316.88,-40.86 307.35,-36.23 306.54,-43.19"/>
</g>
<!-- Node4 -->
<g id="node4" class="node">
<title>Node4</title>
<g id="a_node4"><a xlink:href="$classJoyAxis.html#aff06f563278beb621285f65fb33b784a" xlink:title=" ">
<polygon fill="white" stroke="black" points="319,-0.5 319,-19.5 440,-19.5 440,-0.5 319,-0.5"/>
<text text-anchor="middle" x="379.5" y="-7.5" font-family="Helvetica,sans-Serif" font-size="10.00">JoyAxis::getAxisMinCal</text>
</a>
</g>
</g>
<!-- Node2&#45;&gt;Node4 -->
<g id="edge3" class="edge">
<title>Node2&#45;&gt;Node4</title>
<path fill="none" stroke="midnightblue" d="M281.21,-21.27C290.29,-20.22 299.63,-19.14 308.77,-18.08"/>
<polygon fill="midnightblue" stroke="midnightblue" points="309.44,-21.52 318.97,-16.9 308.64,-14.57 309.44,-21.52"/>
</g>
</g>
</svg>
