<?xml version="1.0" encoding="UTF-8" standalone="no"?>
<!DOCTYPE svg PUBLIC "-//W3C//DTD SVG 1.1//EN"
 "http://www.w3.org/Graphics/SVG/1.1/DTD/svg11.dtd">
<!-- Generated by graphviz version 2.43.0 (0)
 -->
<!-- Title: JoyControlStick::getModifierButton Pages: 1 -->
<!--zoomable 275 -->
<svg id="main" version="1.1" xmlns="http://www.w3.org/2000/svg" xmlns:xlink="http://www.w3.org/1999/xlink" xml:space="preserve" onload="init(evt)">
<style type="text/css"><![CDATA[
.edge:hover path { stroke: red; }
.edge:hover polygon { stroke: red; fill: red; }
]]></style>
<script type="text/javascript"><![CDATA[
var edges = document.getElementsByTagName('g');
if (edges && edges.length) {
  for (var i=0;i<edges.length;i++) {
    if (edges[i].id.substr(0,4)=='edge') {
      edges[i].setAttribute('class','edge');
    }
  }
}
]]></script>
        <defs>
                <circle id="rim" cx="0" cy="0" r="7"/>
                <circle id="rim2" cx="0" cy="0" r="3.5"/>
                <g id="zoomPlus">
                        <use xlink:href="#rim" fill="#404040">
                                <set attributeName="fill" to="#808080" begin="zoomplus.mouseover" end="zoomplus.mouseout"/>
                        </use>
                        <path d="M-4,0h8M0,-4v8" fill="none" stroke="white" stroke-width="1.5" pointer-events="none"/>
                </g>
                <g id="zoomMin">
                        <use xlink:href="#rim" fill="#404040">
                                <set attributeName="fill" to="#808080" begin="zoomminus.mouseover" end="zoomminus.mouseout"/>
                        </use>
                        <path d="M-4,0h8" fill="none" stroke="white" stroke-width="1.5" pointer-events="none"/>
                </g>
                <g id="dirArrow">
                        <path fill="none" stroke="white" stroke-width="1.5" d="M0,-3.0v7 M-2.5,-0.5L0,-3.0L2.5,-0.5"/>
                </g>
               <g id="resetDef">
                       <use xlink:href="#rim2" fill="#404040">
                               <set attributeName="fill" to="#808080" begin="reset.mouseover" end="reset.mouseout"/>
                       </use>
               </g>
        </defs>

<script type="text/javascript">
var viewWidth = 544;
var viewHeight = 275;
var sectionId = 'dynsection-130';
</script>
<script xlink:href="svgpan.js"/>
<svg id="graph" class="graph">
<g id="viewport">
<title>JoyControlStick::getModifierButton</title>
<polygon fill="white" stroke="transparent" points="-4,4 -4,-271 540,-271 540,4 -4,4"/>
<!-- Node1 -->
<g id="node1" class="node">
<title>Node1</title>
<g id="a_node1"><a xlink:title=" ">
<polygon fill="#bfbfbf" stroke="black" points="396,-126.5 396,-156.5 536,-156.5 536,-126.5 396,-126.5"/>
<text text-anchor="start" x="404" y="-144.5" font-family="Helvetica,sans-Serif" font-size="10.00">JoyControlStick::getModifier</text>
<text text-anchor="middle" x="466" y="-133.5" font-family="Helvetica,sans-Serif" font-size="10.00">Button</text>
</a>
</g>
</g>
<!-- Node2 -->
<g id="node2" class="node">
<title>Node2</title>
<g id="a_node2"><a xlink:href="classJoyControlStickEditDialog.html#ac3b9507c59c8ad3e4680de709aeb6a2a" target="_top" xlink:title=" ">
<polygon fill="white" stroke="black" points="208,-236.5 208,-266.5 339,-266.5 339,-236.5 208,-236.5"/>
<text text-anchor="start" x="216" y="-254.5" font-family="Helvetica,sans-Serif" font-size="10.00">JoyControlStickEditDialog</text>
<text text-anchor="middle" x="273.5" y="-243.5" font-family="Helvetica,sans-Serif" font-size="10.00">::changeModifierSummary</text>
</a>
</g>
</g>
<!-- Node1&#45;&gt;Node2 -->
<g id="edge1" class="edge">
<title>Node1&#45;&gt;Node2</title>
<path fill="none" stroke="midnightblue" d="M441.14,-163.19C420.78,-180.79 390.1,-205.28 360,-221.5 349.34,-227.25 337.35,-232.25 325.81,-236.44"/>
<polygon fill="midnightblue" stroke="midnightblue" points="443.47,-165.8 448.68,-156.57 438.85,-160.54 443.47,-165.8"/>
</g>
<!-- Node3 -->
<g id="node3" class="node">
<title>Node3</title>
<g id="a_node3"><a xlink:href="classJoyControlStickEditDialog.html#a2baa35c50ff7528a03ec6f2ba1ed657d" target="_top" xlink:title=" ">
<polygon fill="white" stroke="black" points="7,-192.5 7,-222.5 144,-222.5 144,-192.5 7,-192.5"/>
<text text-anchor="start" x="15" y="-210.5" font-family="Helvetica,sans-Serif" font-size="10.00">JoyControlStickEditDialog</text>
<text text-anchor="middle" x="75.5" y="-199.5" font-family="Helvetica,sans-Serif" font-size="10.00">::JoyControlStickEditDialog</text>
</a>
</g>
</g>
<!-- Node1&#45;&gt;Node3 -->
<g id="edge8" class="edge">
<title>Node1&#45;&gt;Node3</title>
<path fill="none" stroke="midnightblue" d="M429.36,-161.26C409.55,-171.25 384.09,-182.5 360,-188.5 287.84,-206.46 202.36,-209.85 144.26,-209.61"/>
<polygon fill="midnightblue" stroke="midnightblue" points="431.04,-164.33 438.32,-156.63 427.83,-158.11 431.04,-164.33"/>
</g>
<!-- Node4 -->
<g id="node4" class="node">
<title>Node4</title>
<g id="a_node4"><a xlink:href="classJoyControlStick.html#a57b418a495a22ea5182e89ef4a6cf233" target="_top" xlink:title="Copy slots from all stick buttons and properties from a stick onto another.">
<polygon fill="white" stroke="black" points="188.5,-110 188.5,-129 358.5,-129 358.5,-110 188.5,-110"/>
<text text-anchor="middle" x="273.5" y="-117" font-family="Helvetica,sans-Serif" font-size="10.00">JoyControlStick::copyAssignments</text>
</a>
</g>
</g>
<!-- Node1&#45;&gt;Node4 -->
<g id="edge3" class="edge">
<title>Node1&#45;&gt;Node4</title>
<path fill="none" stroke="midnightblue" d="M385.74,-132.35C376.22,-131.25 366.49,-130.12 356.93,-129.02"/>
<polygon fill="midnightblue" stroke="midnightblue" points="385.62,-135.86 395.96,-133.53 386.42,-128.9 385.62,-135.86"/>
</g>
<!-- Node6 -->
<g id="node6" class="node">
<title>Node6</title>
<g id="a_node6"><a xlink:href="classJoyControlStickButton.html#a86579104005fc594de94d9bc126fb4e9" target="_top" xlink:title=" ">
<polygon fill="white" stroke="black" points="187,-0.5 187,-30.5 360,-30.5 360,-0.5 187,-0.5"/>
<text text-anchor="start" x="195" y="-18.5" font-family="Helvetica,sans-Serif" font-size="10.00">JoyControlStickButton</text>
<text text-anchor="middle" x="273.5" y="-7.5" font-family="Helvetica,sans-Serif" font-size="10.00">::getCalculatedActiveZoneSummary</text>
</a>
</g>
</g>
<!-- Node1&#45;&gt;Node6 -->
<g id="edge5" class="edge">
<title>Node1&#45;&gt;Node6</title>
<path fill="none" stroke="midnightblue" d="M446.98,-118.62C427.76,-95.69 395.28,-60.94 360,-40.5 353.44,-36.7 346.26,-33.44 338.94,-30.65"/>
<polygon fill="midnightblue" stroke="midnightblue" points="444.39,-120.98 453.44,-126.48 449.8,-116.54 444.39,-120.98"/>
</g>
<!-- Node8 -->
<g id="node8" class="node">
<title>Node8</title>
<g id="a_node8"><a xlink:href="classJoyControlStickButtonPushButton.html#a5542b1bc905c0a35639b4731083852fa" target="_top" xlink:title=" ">
<polygon fill="white" stroke="black" points="187.5,-50 187.5,-91 359.5,-91 359.5,-50 187.5,-50"/>
<text text-anchor="start" x="195.5" y="-79" font-family="Helvetica,sans-Serif" font-size="10.00">JoyControlStickButtonPush</text>
<text text-anchor="start" x="195.5" y="-68" font-family="Helvetica,sans-Serif" font-size="10.00">Button::JoyControlStickButtonPush</text>
<text text-anchor="middle" x="273.5" y="-57" font-family="Helvetica,sans-Serif" font-size="10.00">Button</text>
</a>
</g>
</g>
<!-- Node1&#45;&gt;Node8 -->
<g id="edge7" class="edge">
<title>Node1&#45;&gt;Node8</title>
<path fill="none" stroke="midnightblue" d="M417.54,-122.56C399.56,-115.5 378.89,-107.5 360,-100.5 351.59,-97.38 342.69,-94.17 333.93,-91.05"/>
<polygon fill="midnightblue" stroke="midnightblue" points="416.63,-125.97 427.21,-126.38 419.19,-119.45 416.63,-125.97"/>
</g>
<!-- Node9 -->
<g id="node9" class="node">
<title>Node9</title>
<g id="a_node9"><a xlink:href="classJoyControlStickEditDialog.html#a8b6494f8fce0675b780735e0fafebcb5" target="_top" xlink:title=" ">
<polygon fill="white" stroke="black" points="208,-148.5 208,-178.5 339,-178.5 339,-148.5 208,-148.5"/>
<text text-anchor="start" x="216" y="-166.5" font-family="Helvetica,sans-Serif" font-size="10.00">JoyControlStickEditDialog</text>
<text text-anchor="middle" x="273.5" y="-155.5" font-family="Helvetica,sans-Serif" font-size="10.00">::openModifierEditDialog</text>
</a>
</g>
</g>
<!-- Node1&#45;&gt;Node9 -->
<g id="edge9" class="edge">
<title>Node1&#45;&gt;Node9</title>
<path fill="none" stroke="midnightblue" d="M385.85,-150.64C370.31,-152.44 354.18,-154.3 339.18,-156.03"/>
<polygon fill="midnightblue" stroke="midnightblue" points="386.42,-154.1 395.96,-149.47 385.62,-147.14 386.42,-154.1"/>
</g>
<!-- Node2&#45;&gt;Node3 -->
<g id="edge2" class="edge">
<title>Node2&#45;&gt;Node3</title>
<path fill="none" stroke="midnightblue" d="M197.96,-234.77C180.06,-230.75 161.04,-226.48 143.5,-222.54"/>
<polygon fill="midnightblue" stroke="midnightblue" points="197.26,-238.2 207.78,-236.97 198.79,-231.37 197.26,-238.2"/>
</g>
<!-- Node5 -->
<g id="node5" class="node">
<title>Node5</title>
<g id="a_node5"><a xlink:href="classSetJoystick.html#a36b0da099fef84270b6cc7c76741e689" target="_top" xlink:title=" ">
<polygon fill="white" stroke="black" points="0,-110 0,-129 151,-129 151,-110 0,-110"/>
<text text-anchor="middle" x="75.5" y="-117" font-family="Helvetica,sans-Serif" font-size="10.00">SetJoystick::copyAssignments</text>
</a>
</g>
</g>
<!-- Node4&#45;&gt;Node5 -->
<g id="edge4" class="edge">
<title>Node4&#45;&gt;Node5</title>
<path fill="none" stroke="midnightblue" d="M178.06,-119.5C169.02,-119.5 159.93,-119.5 151.11,-119.5"/>
<polygon fill="midnightblue" stroke="midnightblue" points="178.24,-123 188.24,-119.5 178.24,-116 178.24,-123"/>
</g>
<!-- Node7 -->
<g id="node7" class="node">
<title>Node7</title>
<g id="a_node7"><a xlink:href="classJoyControlStickButtonPushButton.html#a5f99e1a540217bddf417c2e993c19aa4" target="_top" xlink:title="Generate the string that will be displayed on the button.">
<polygon fill="white" stroke="black" points="7,-0.5 7,-30.5 144,-30.5 144,-0.5 7,-0.5"/>
<text text-anchor="start" x="15" y="-18.5" font-family="Helvetica,sans-Serif" font-size="10.00">JoyControlStickButtonPush</text>
<text text-anchor="middle" x="75.5" y="-7.5" font-family="Helvetica,sans-Serif" font-size="10.00">Button::generateLabel</text>
</a>
</g>
</g>
<!-- Node6&#45;&gt;Node7 -->
<g id="edge6" class="edge">
<title>Node6&#45;&gt;Node7</title>
<path fill="none" stroke="midnightblue" d="M176.71,-15.5C165.67,-15.5 154.59,-15.5 144.04,-15.5"/>
<polygon fill="midnightblue" stroke="midnightblue" points="176.82,-19 186.82,-15.5 176.82,-12 176.82,-19"/>
</g>
<!-- Node9&#45;&gt;Node3 -->
<g id="edge10" class="edge">
<title>Node9&#45;&gt;Node3</title>
<path fill="none" stroke="midnightblue" d="M197.96,-180.23C180.06,-184.25 161.04,-188.52 143.5,-192.46"/>
<polygon fill="midnightblue" stroke="midnightblue" points="198.79,-183.63 207.78,-178.03 197.26,-176.8 198.79,-183.63"/>
</g>
</g>
</svg>
        <g id="navigator" transform="translate(0 0)" fill="#404254">
                <rect fill="#f2f5e9" fill-opacity="0.5" stroke="#606060" stroke-width=".5" x="0" y="0" width="60" height="60"/>
                <use id="zoomplus" xlink:href="#zoomPlus" x="17" y="9" onmousedown="handleZoom(evt,'in')"/>
                <use id="zoomminus" xlink:href="#zoomMin" x="42" y="9" onmousedown="handleZoom(evt,'out')"/>
                <use id="reset" xlink:href="#resetDef" x="30" y="36" onmousedown="handleReset()"/>
                <g id="arrowUp" xlink:href="#dirArrow" transform="translate(30 24)" onmousedown="handlePan(0,-1)">
                  <use xlink:href="#rim" fill="#404040">
                        <set attributeName="fill" to="#808080" begin="arrowUp.mouseover" end="arrowUp.mouseout"/>
                  </use>
                  <path fill="none" stroke="white" stroke-width="1.5" d="M0,-3.0v7 M-2.5,-0.5L0,-3.0L2.5,-0.5"/>
                </g>
                <g id="arrowRight" xlink:href="#dirArrow" transform="rotate(90) translate(36 -43)" onmousedown="handlePan(1,0)">
                  <use xlink:href="#rim" fill="#404040">
                        <set attributeName="fill" to="#808080" begin="arrowRight.mouseover" end="arrowRight.mouseout"/>
                  </use>
                  <path fill="none" stroke="white" stroke-width="1.5" d="M0,-3.0v7 M-2.5,-0.5L0,-3.0L2.5,-0.5"/>
                </g>
                <g id="arrowDown" xlink:href="#dirArrow" transform="rotate(180) translate(-30 -48)" onmousedown="handlePan(0,1)">
                  <use xlink:href="#rim" fill="#404040">
                        <set attributeName="fill" to="#808080" begin="arrowDown.mouseover" end="arrowDown.mouseout"/>
                  </use>
                  <path fill="none" stroke="white" stroke-width="1.5" d="M0,-3.0v7 M-2.5,-0.5L0,-3.0L2.5,-0.5"/>
                </g>
                <g id="arrowLeft" xlink:href="#dirArrow" transform="rotate(270) translate(-36 17)" onmousedown="handlePan(-1,0)">
                  <use xlink:href="#rim" fill="#404040">
                        <set attributeName="fill" to="#808080" begin="arrowLeft.mouseover" end="arrowLeft.mouseout"/>
                  </use>
                  <path fill="none" stroke="white" stroke-width="1.5" d="M0,-3.0v7 M-2.5,-0.5L0,-3.0L2.5,-0.5"/>
                </g>
        </g>
        <svg viewBox="0 0 15 15" width="100%" height="30px" preserveAspectRatio="xMaxYMin meet">
         <g id="arrow_out" transform="scale(0.3 0.3)">
          <a xlink:href="classJoyControlStick_a81da76522d4f12f081c169f0a0365996_icgraph_org.svg" target="_base">
           <rect id="button" ry="5" rx="5" y="6" x="6" height="38" width="38"
                fill="#f2f5e9" fill-opacity="0.5" stroke="#606060" stroke-width="1.0"/>
           <path id="arrow"
             d="M 11.500037,31.436501 C 11.940474,20.09759 22.043105,11.32322 32.158766,21.979434 L 37.068811,17.246167 C 37.068811,17.246167 37.088388,32 37.088388,32 L 22.160133,31.978069 C 22.160133,31.978069 26.997745,27.140456 26.997745,27.140456 C 18.528582,18.264221 13.291696,25.230495 11.500037,31.436501 z"
             style="fill:#404040;"/>
          </a>
         </g>
        </svg>
</svg>
