<?xml version="1.0" encoding="UTF-8" standalone="no"?>
<!DOCTYPE svg PUBLIC "-//W3C//DTD SVG 1.1//EN"
 "http://www.w3.org/Graphics/SVG/1.1/DTD/svg11.dtd">
<!-- Generated by graphviz version 2.43.0 (0)
 -->
<!-- Title: DPadContextMenu::getHelper Pages: 1 -->
<svg width="1144pt" height="78pt"
 viewBox="0.00 0.00 1144.00 77.50" xmlns="http://www.w3.org/2000/svg" xmlns:xlink="http://www.w3.org/1999/xlink">
<g id="graph0" class="graph" transform="scale(1 1) rotate(0) translate(4 73.5)">
<title>DPadContextMenu::getHelper</title>
<polygon fill="white" stroke="transparent" points="-4,4 -4,-73.5 1140,-73.5 1140,4 -4,4"/>
<!-- Node1 -->
<g id="node1" class="node">
<title>Node1</title>
<g id="a_node1"><a xlink:title=" ">
<polygon fill="#bfbfbf" stroke="black" points="988,-28 988,-47 1136,-47 1136,-28 988,-28"/>
<text text-anchor="middle" x="1062" y="-35" font-family="Helvetica,sans-Serif" font-size="10.00">DPadContextMenu::getHelper</text>
</a>
</g>
</g>
<!-- Node2 -->
<g id="node2" class="node">
<title>Node2</title>
<g id="a_node2"><a xlink:href="classDPadContextMenu.html#a98e7bb08646701295be1651800bb4cc2" target="_top" xlink:title=" ">
<polygon fill="white" stroke="black" points="763,-50 763,-69 952,-69 952,-50 763,-50"/>
<text text-anchor="middle" x="857.5" y="-57" font-family="Helvetica,sans-Serif" font-size="10.00">DPadContextMenu::DPadContextMenu</text>
</a>
</g>
</g>
<!-- Node1&#45;&gt;Node2 -->
<g id="edge1" class="edge">
<title>Node1&#45;&gt;Node2</title>
<path fill="none" stroke="midnightblue" d="M977.9,-46.53C967.38,-47.67 956.58,-48.84 945.99,-49.99"/>
<polygon fill="midnightblue" stroke="midnightblue" points="978.33,-50 987.89,-45.44 977.57,-43.04 978.33,-50"/>
</g>
<!-- Node3 -->
<g id="node3" class="node">
<title>Node3</title>
<g id="a_node3"><a xlink:href="classDPadContextMenu.html#a40550e6245c2c82666d52ca4e7e66f67" target="_top" xlink:title="Assign the appropriate slots to DPad buttons based on the preset item that was chosen.">
<polygon fill="white" stroke="black" points="785.5,-0.5 785.5,-30.5 929.5,-30.5 929.5,-0.5 785.5,-0.5"/>
<text text-anchor="start" x="793.5" y="-18.5" font-family="Helvetica,sans-Serif" font-size="10.00">DPadContextMenu::setDPad</text>
<text text-anchor="middle" x="857.5" y="-7.5" font-family="Helvetica,sans-Serif" font-size="10.00">Preset</text>
</a>
</g>
</g>
<!-- Node1&#45;&gt;Node3 -->
<g id="edge2" class="edge">
<title>Node1&#45;&gt;Node3</title>
<path fill="none" stroke="midnightblue" d="M977.57,-28.44C961.71,-26.71 945.25,-24.92 929.8,-23.25"/>
<polygon fill="midnightblue" stroke="midnightblue" points="977.57,-31.96 987.89,-29.56 978.33,-25 977.57,-31.96"/>
</g>
<!-- Node4 -->
<g id="node4" class="node">
<title>Node4</title>
<g id="a_node4"><a xlink:href="classDPadContextMenu.html#ae176816ed8b0f6674040628c02f6ef58" target="_top" xlink:title=" ">
<polygon fill="white" stroke="black" points="584,-0.5 584,-30.5 727,-30.5 727,-0.5 584,-0.5"/>
<text text-anchor="start" x="592" y="-18.5" font-family="Helvetica,sans-Serif" font-size="10.00">DPadContextMenu::generate</text>
<text text-anchor="middle" x="655.5" y="-7.5" font-family="Helvetica,sans-Serif" font-size="10.00">ActionPreset</text>
</a>
</g>
</g>
<!-- Node3&#45;&gt;Node4 -->
<g id="edge3" class="edge">
<title>Node3&#45;&gt;Node4</title>
<path fill="none" stroke="midnightblue" d="M775.07,-15.5C759.13,-15.5 742.55,-15.5 727.01,-15.5"/>
<polygon fill="midnightblue" stroke="midnightblue" points="775.42,-19 785.42,-15.5 775.42,-12 775.42,-19"/>
</g>
<!-- Node5 -->
<g id="node5" class="node">
<title>Node5</title>
<g id="a_node5"><a xlink:href="classDPadContextMenu.html#abb058d792c1ba0c3c74cb849b4390b62" target="_top" xlink:title="Generate the context menu that will be shown to a user when the person right clicks on the DPad setti...">
<polygon fill="white" stroke="black" points="398,-6 398,-25 548,-25 548,-6 398,-6"/>
<text text-anchor="middle" x="473" y="-13" font-family="Helvetica,sans-Serif" font-size="10.00">DPadContextMenu::buildMenu</text>
</a>
</g>
</g>
<!-- Node4&#45;&gt;Node5 -->
<g id="edge4" class="edge">
<title>Node4&#45;&gt;Node5</title>
<path fill="none" stroke="midnightblue" d="M573.92,-15.5C565.32,-15.5 556.6,-15.5 548.09,-15.5"/>
<polygon fill="midnightblue" stroke="midnightblue" points="573.94,-19 583.94,-15.5 573.94,-12 573.94,-19"/>
</g>
<!-- Node6 -->
<g id="node6" class="node">
<title>Node6</title>
<g id="a_node6"><a xlink:href="classDPadPushButton.html#ac4bf738d749acdff3e9c2b74fe2ea6dd" target="_top" xlink:title=" ">
<polygon fill="white" stroke="black" points="182,-6 182,-25 362,-25 362,-6 182,-6"/>
<text text-anchor="middle" x="272" y="-13" font-family="Helvetica,sans-Serif" font-size="10.00">DPadPushButton::showContextMenu</text>
</a>
</g>
</g>
<!-- Node5&#45;&gt;Node6 -->
<g id="edge5" class="edge">
<title>Node5&#45;&gt;Node6</title>
<path fill="none" stroke="midnightblue" d="M387.73,-15.5C379.32,-15.5 370.76,-15.5 362.3,-15.5"/>
<polygon fill="midnightblue" stroke="midnightblue" points="387.9,-19 397.9,-15.5 387.9,-12 387.9,-19"/>
</g>
<!-- Node7 -->
<g id="node7" class="node">
<title>Node7</title>
<g id="a_node7"><a xlink:href="classDPadPushButton.html#a8cfc7a74ee5086c8a6d5f887329946c6" target="_top" xlink:title=" ">
<polygon fill="white" stroke="black" points="0,-0.5 0,-30.5 146,-30.5 146,-0.5 0,-0.5"/>
<text text-anchor="start" x="8" y="-18.5" font-family="Helvetica,sans-Serif" font-size="10.00">DPadPushButton::DPadPush</text>
<text text-anchor="middle" x="73" y="-7.5" font-family="Helvetica,sans-Serif" font-size="10.00">Button</text>
</a>
</g>
</g>
<!-- Node6&#45;&gt;Node7 -->
<g id="edge6" class="edge">
<title>Node6&#45;&gt;Node7</title>
<path fill="none" stroke="midnightblue" d="M171.64,-15.5C163.05,-15.5 154.46,-15.5 146.15,-15.5"/>
<polygon fill="midnightblue" stroke="midnightblue" points="171.72,-19 181.72,-15.5 171.72,-12 171.72,-19"/>
</g>
</g>
</svg>
