<?xml version="1.0" encoding="UTF-8" standalone="no"?>
<!DOCTYPE svg PUBLIC "-//W3C//DTD SVG 1.1//EN"
 "http://www.w3.org/Graphics/SVG/1.1/DTD/svg11.dtd">
<!-- Generated by graphviz version 2.43.0 (0)
 -->
<!-- Title: XTestEventHandler::sendKeyboardEvent Pages: 1 -->
<svg width="611pt" height="142pt"
 viewBox="0.00 0.00 611.00 142.00" xmlns="http://www.w3.org/2000/svg" xmlns:xlink="http://www.w3.org/1999/xlink">
<g id="graph0" class="graph" transform="scale(1 1) rotate(0) translate(4 138)">
<title>XTestEventHandler::sendKeyboardEvent</title>
<polygon fill="white" stroke="transparent" points="-4,4 -4,-138 607,-138 607,4 -4,4"/>
<!-- Node1 -->
<g id="node1" class="node">
<title>Node1</title>
<g id="a_node1"><a xlink:title=" ">
<polygon fill="#bfbfbf" stroke="black" points="0,-52 0,-82 107,-82 107,-52 0,-52"/>
<text text-anchor="start" x="8" y="-70" font-family="Helvetica,sans-Serif" font-size="10.00">XTestEventHandler::</text>
<text text-anchor="middle" x="53.5" y="-59" font-family="Helvetica,sans-Serif" font-size="10.00">sendKeyboardEvent</text>
</a>
</g>
</g>
<!-- Node2 -->
<g id="node2" class="node">
<title>Node2</title>
<g id="a_node2"><a xlink:href="$classX11Extras.html#a643c95dc1de8eb073a0accb41619fe83" xlink:title="Get display instance.">
<polygon fill="white" stroke="black" points="163,-114.5 163,-133.5 262,-133.5 262,-114.5 163,-114.5"/>
<text text-anchor="middle" x="212.5" y="-121.5" font-family="Helvetica,sans-Serif" font-size="10.00">X11Extras::display</text>
</a>
</g>
</g>
<!-- Node1&#45;&gt;Node2 -->
<g id="edge1" class="edge">
<title>Node1&#45;&gt;Node2</title>
<path fill="none" stroke="midnightblue" d="M86.87,-82.14C103.44,-89.58 124.07,-98.34 143,-105 149.57,-107.31 156.57,-109.53 163.5,-111.57"/>
<polygon fill="midnightblue" stroke="midnightblue" points="162.95,-115.06 173.53,-114.45 164.88,-108.33 162.95,-115.06"/>
</g>
<!-- Node3 -->
<g id="node3" class="node">
<title>Node3</title>
<g id="a_node3"><a xlink:href="$classX11Extras.html#ace76277fced60e6bd6ff880030338182" xlink:title=" ">
<polygon fill="white" stroke="black" points="153,-76.5 153,-95.5 272,-95.5 272,-76.5 153,-76.5"/>
<text text-anchor="middle" x="212.5" y="-83.5" font-family="Helvetica,sans-Serif" font-size="10.00">X11Extras::getInstance</text>
</a>
</g>
</g>
<!-- Node1&#45;&gt;Node3 -->
<g id="edge2" class="edge">
<title>Node1&#45;&gt;Node3</title>
<path fill="none" stroke="midnightblue" d="M107.22,-73.38C118.7,-74.77 131.01,-76.26 143,-77.71"/>
<polygon fill="midnightblue" stroke="midnightblue" points="142.63,-81.19 152.98,-78.92 143.47,-74.24 142.63,-81.19"/>
</g>
<!-- Node6 -->
<g id="node6" class="node">
<title>Node6</title>
<g id="a_node6"><a xlink:href="$classJoyButtonSlot.html#a7fa0bf6d891437a2392e47d32b746502" xlink:title=" ">
<polygon fill="white" stroke="black" points="143.5,-38.5 143.5,-57.5 281.5,-57.5 281.5,-38.5 143.5,-38.5"/>
<text text-anchor="middle" x="212.5" y="-45.5" font-family="Helvetica,sans-Serif" font-size="10.00">JoyButtonSlot::getSlotCode</text>
</a>
</g>
</g>
<!-- Node1&#45;&gt;Node6 -->
<g id="edge5" class="edge">
<title>Node1&#45;&gt;Node6</title>
<path fill="none" stroke="midnightblue" d="M107.22,-60.62C115.63,-59.6 124.49,-58.53 133.34,-57.46"/>
<polygon fill="midnightblue" stroke="midnightblue" points="133.8,-60.93 143.31,-56.25 132.96,-53.98 133.8,-60.93"/>
</g>
<!-- Node7 -->
<g id="node7" class="node">
<title>Node7</title>
<g id="a_node7"><a xlink:href="$classJoyButtonSlot.html#abed7fe134c404b403ea79c0753f6eaaf" xlink:title=" ">
<polygon fill="white" stroke="black" points="143,-0.5 143,-19.5 282,-19.5 282,-0.5 143,-0.5"/>
<text text-anchor="middle" x="212.5" y="-7.5" font-family="Helvetica,sans-Serif" font-size="10.00">JoyButtonSlot::getSlotMode</text>
</a>
</g>
</g>
<!-- Node1&#45;&gt;Node7 -->
<g id="edge6" class="edge">
<title>Node1&#45;&gt;Node7</title>
<path fill="none" stroke="midnightblue" d="M86.87,-51.86C103.44,-44.42 124.07,-35.66 143,-29 149.57,-26.69 156.57,-24.47 163.5,-22.43"/>
<polygon fill="midnightblue" stroke="midnightblue" points="164.88,-25.67 173.53,-19.55 162.95,-18.94 164.88,-25.67"/>
</g>
<!-- Node4 -->
<g id="node4" class="node">
<title>Node4</title>
<g id="a_node4"><a xlink:href="$classX11Extras.html#ab9bcb016e23bacb0e988feb8175d2c88" xlink:title=" ">
<polygon fill="white" stroke="black" points="318,-76.5 318,-95.5 432,-95.5 432,-76.5 318,-76.5"/>
<text text-anchor="middle" x="375" y="-83.5" font-family="Helvetica,sans-Serif" font-size="10.00">X11Extras::X11Extras</text>
</a>
</g>
</g>
<!-- Node3&#45;&gt;Node4 -->
<g id="edge3" class="edge">
<title>Node3&#45;&gt;Node4</title>
<path fill="none" stroke="midnightblue" d="M272.35,-86C283.84,-86 295.96,-86 307.67,-86"/>
<polygon fill="midnightblue" stroke="midnightblue" points="307.83,-89.5 317.83,-86 307.83,-82.5 307.83,-89.5"/>
</g>
<!-- Node5 -->
<g id="node5" class="node">
<title>Node5</title>
<g id="a_node5"><a xlink:href="$classX11Extras.html#a6f63e77ed045e174546d77333672b8f0" xlink:title=" ">
<polygon fill="white" stroke="black" points="468,-71 468,-101 603,-101 603,-71 468,-71"/>
<text text-anchor="start" x="476" y="-89" font-family="Helvetica,sans-Serif" font-size="10.00">X11Extras::populateKnown</text>
<text text-anchor="middle" x="535.5" y="-78" font-family="Helvetica,sans-Serif" font-size="10.00">Aliases</text>
</a>
</g>
</g>
<!-- Node4&#45;&gt;Node5 -->
<g id="edge4" class="edge">
<title>Node4&#45;&gt;Node5</title>
<path fill="none" stroke="midnightblue" d="M432.33,-86C440.58,-86 449.19,-86 457.76,-86"/>
<polygon fill="midnightblue" stroke="midnightblue" points="457.79,-89.5 467.79,-86 457.79,-82.5 457.79,-89.5"/>
</g>
</g>
</svg>
