<?xml version="1.0" encoding="UTF-8" standalone="no"?>
<!DOCTYPE svg PUBLIC "-//W3C//DTD SVG 1.1//EN"
 "http://www.w3.org/Graphics/SVG/1.1/DTD/svg11.dtd">
<!-- Generated by graphviz version 2.43.0 (0)
 -->
<!-- Title: VirtualKeyPushButton::VirtualKeyPushButton Pages: 1 -->
<svg width="1233pt" height="570pt"
 viewBox="0.00 0.00 1233.00 570.00" xmlns="http://www.w3.org/2000/svg" xmlns:xlink="http://www.w3.org/1999/xlink">
<g id="graph0" class="graph" transform="scale(1 1) rotate(0) translate(4 566)">
<title>VirtualKeyPushButton::VirtualKeyPushButton</title>
<polygon fill="white" stroke="transparent" points="-4,4 -4,-566 1229,-566 1229,4 -4,4"/>
<!-- Node1 -->
<g id="node1" class="node">
<title>Node1</title>
<g id="a_node1"><a xlink:title=" ">
<polygon fill="#bfbfbf" stroke="black" points="0,-189 0,-219 119,-219 119,-189 0,-189"/>
<text text-anchor="start" x="8" y="-207" font-family="Helvetica,sans-Serif" font-size="10.00">VirtualKeyPushButton</text>
<text text-anchor="middle" x="59.5" y="-196" font-family="Helvetica,sans-Serif" font-size="10.00">::VirtualKeyPushButton</text>
</a>
</g>
</g>
<!-- Node2 -->
<g id="node2" class="node">
<title>Node2</title>
<g id="a_node2"><a xlink:href="$classBaseEventHandler.html#a9a014e472ec57408d16b8b5eed964e90" xlink:title=" ">
<polygon fill="white" stroke="black" points="521,-339.5 521,-358.5 676,-358.5 676,-339.5 521,-339.5"/>
<text text-anchor="middle" x="598.5" y="-346.5" font-family="Helvetica,sans-Serif" font-size="10.00">BaseEventHandler::getIdentifier</text>
</a>
</g>
</g>
<!-- Node1&#45;&gt;Node2 -->
<g id="edge1" class="edge">
<title>Node1&#45;&gt;Node2</title>
<path fill="none" stroke="midnightblue" d="M66.56,-219.1C78.62,-246.88 108.56,-305.52 155,-330 281.61,-396.74 458.03,-376.47 544.9,-360.44"/>
<polygon fill="midnightblue" stroke="midnightblue" points="545.62,-363.87 554.79,-358.56 544.31,-356.99 545.62,-363.87"/>
</g>
<!-- Node3 -->
<g id="node3" class="node">
<title>Node3</title>
<g id="a_node3"><a xlink:href="$classAntKeyMapper.html#acd08c44a2501edcfdb1ef8a68d534b1b" xlink:title=" ">
<polygon fill="white" stroke="black" points="155.5,-137.5 155.5,-156.5 292.5,-156.5 292.5,-137.5 155.5,-137.5"/>
<text text-anchor="middle" x="224" y="-144.5" font-family="Helvetica,sans-Serif" font-size="10.00">AntKeyMapper::getInstance</text>
</a>
</g>
</g>
<!-- Node1&#45;&gt;Node3 -->
<g id="edge2" class="edge">
<title>Node1&#45;&gt;Node3</title>
<path fill="none" stroke="midnightblue" d="M103.62,-188.87C129.24,-179.89 161.4,-168.61 185.88,-160.02"/>
<polygon fill="midnightblue" stroke="midnightblue" points="187.25,-163.25 195.53,-156.64 184.93,-156.64 187.25,-163.25"/>
</g>
<!-- Node6 -->
<g id="node6" class="node">
<title>Node6</title>
<g id="a_node6"><a xlink:href="$classEventHandlerFactory.html#a90ce153a19fbb91128bd52eb083ce271" xlink:title=" ">
<polygon fill="white" stroke="black" points="544,-290 544,-320 653,-320 653,-290 544,-290"/>
<text text-anchor="start" x="552" y="-308" font-family="Helvetica,sans-Serif" font-size="10.00">EventHandlerFactory</text>
<text text-anchor="middle" x="598.5" y="-297" font-family="Helvetica,sans-Serif" font-size="10.00">::getInstance</text>
</a>
</g>
</g>
<!-- Node1&#45;&gt;Node6 -->
<g id="edge5" class="edge">
<title>Node1&#45;&gt;Node6</title>
<path fill="none" stroke="midnightblue" d="M119.12,-218.15C130.97,-220.87 143.37,-223.61 155,-226 226.39,-240.67 429.16,-275.99 533.6,-294.01"/>
<polygon fill="midnightblue" stroke="midnightblue" points="533.25,-297.51 543.7,-295.76 534.44,-290.61 533.25,-297.51"/>
</g>
<!-- Node9 -->
<g id="node9" class="node">
<title>Node9</title>
<g id="a_node9"><a xlink:href="$classEventHandlerFactory.html#a4c13007f0ece5bf881080c9c04f1f20d" xlink:title=" ">
<polygon fill="white" stroke="black" points="905,-334 905,-364 1014,-364 1014,-334 905,-334"/>
<text text-anchor="start" x="913" y="-352" font-family="Helvetica,sans-Serif" font-size="10.00">EventHandlerFactory</text>
<text text-anchor="middle" x="959.5" y="-341" font-family="Helvetica,sans-Serif" font-size="10.00">::handler</text>
</a>
</g>
</g>
<!-- Node1&#45;&gt;Node9 -->
<g id="edge11" class="edge">
<title>Node1&#45;&gt;Node9</title>
<path fill="none" stroke="midnightblue" d="M66.28,-219.38C93.11,-287.91 212.52,-562 406,-562 406,-562 406,-562 599.5,-562 715.72,-562 755.34,-554.42 850,-487 872.3,-471.12 869.29,-458.69 886,-437 903.34,-414.5 924.02,-389.57 938.85,-372.01"/>
<polygon fill="midnightblue" stroke="midnightblue" points="941.83,-373.91 945.62,-364.02 936.49,-369.38 941.83,-373.91"/>
</g>
<!-- Node11 -->
<g id="node11" class="node">
<title>Node11</title>
<g id="a_node11"><a xlink:href="$classVirtualKeyPushButton.html#acd017e225bf9d962bc83b14687a2a8b8" xlink:title=" ">
<polygon fill="white" stroke="black" points="163,-88 163,-118 285,-118 285,-88 163,-88"/>
<text text-anchor="start" x="171" y="-106" font-family="Helvetica,sans-Serif" font-size="10.00">VirtualKeyPushButton</text>
<text text-anchor="middle" x="224" y="-95" font-family="Helvetica,sans-Serif" font-size="10.00">::populateKnownAliases</text>
</a>
</g>
</g>
<!-- Node1&#45;&gt;Node11 -->
<g id="edge12" class="edge">
<title>Node1&#45;&gt;Node11</title>
<path fill="none" stroke="midnightblue" d="M76.05,-188.81C93.88,-172.06 124.58,-145.21 155,-128 158.63,-125.94 162.47,-124 166.39,-122.18"/>
<polygon fill="midnightblue" stroke="midnightblue" points="167.88,-125.35 175.65,-118.14 165.08,-118.93 167.88,-125.35"/>
</g>
<!-- Node12 -->
<g id="node12" class="node">
<title>Node12</title>
<g id="a_node12"><a xlink:href="$classVirtualKeyPushButton.html#a2d855005009d6d0be2e14242802c0043" xlink:title=" ">
<polygon fill="white" stroke="black" points="161.5,-39 161.5,-69 286.5,-69 286.5,-39 161.5,-39"/>
<text text-anchor="start" x="169.5" y="-57" font-family="Helvetica,sans-Serif" font-size="10.00">VirtualKeyPushButton</text>
<text text-anchor="middle" x="224" y="-46" font-family="Helvetica,sans-Serif" font-size="10.00">::processSingleSelection</text>
</a>
</g>
</g>
<!-- Node1&#45;&gt;Node12 -->
<g id="edge13" class="edge">
<title>Node1&#45;&gt;Node12</title>
<path fill="none" stroke="midnightblue" d="M68.26,-188.67C82.21,-162.59 113.91,-109.46 155,-79 157.5,-77.15 160.14,-75.42 162.89,-73.82"/>
<polygon fill="midnightblue" stroke="midnightblue" points="164.71,-76.82 171.93,-69.07 161.45,-70.62 164.71,-76.82"/>
</g>
<!-- Node13 -->
<g id="node13" class="node">
<title>Node13</title>
<g id="a_node13"><a xlink:href="$classAntKeyMapper.html#afc93b666a3e8691ae48184e8093797fb" xlink:title=" ">
<polygon fill="white" stroke="black" points="155,-0.5 155,-19.5 293,-19.5 293,-0.5 155,-0.5"/>
<text text-anchor="middle" x="224" y="-7.5" font-family="Helvetica,sans-Serif" font-size="10.00">AntKeyMapper::returnQtKey</text>
</a>
</g>
</g>
<!-- Node1&#45;&gt;Node13 -->
<g id="edge14" class="edge">
<title>Node1&#45;&gt;Node13</title>
<path fill="none" stroke="midnightblue" d="M64.34,-188.73C73.72,-154.67 101.05,-72.1 155,-29 157.29,-27.17 159.74,-25.52 162.31,-24.02"/>
<polygon fill="midnightblue" stroke="midnightblue" points="164,-27.1 171.42,-19.53 160.9,-20.82 164,-27.1"/>
</g>
<!-- Node15 -->
<g id="node15" class="node">
<title>Node15</title>
<g id="a_node15"><a xlink:href="$classVirtualKeyPushButton.html#a79b2ddfcba784773ccc9fb1a4b64bb3f" xlink:title=" ">
<polygon fill="white" stroke="black" points="167.5,-290 167.5,-320 280.5,-320 280.5,-290 167.5,-290"/>
<text text-anchor="start" x="175.5" y="-308" font-family="Helvetica,sans-Serif" font-size="10.00">VirtualKeyPushButton</text>
<text text-anchor="middle" x="224" y="-297" font-family="Helvetica,sans-Serif" font-size="10.00">::setDisplayString</text>
</a>
</g>
</g>
<!-- Node1&#45;&gt;Node15 -->
<g id="edge16" class="edge">
<title>Node1&#45;&gt;Node15</title>
<path fill="none" stroke="midnightblue" d="M78.11,-219.18C96.47,-234.52 126.49,-258.3 155,-275 161.43,-278.77 168.42,-282.36 175.39,-285.67"/>
<polygon fill="midnightblue" stroke="midnightblue" points="174.28,-289.01 184.82,-289.99 177.19,-282.64 174.28,-289.01"/>
</g>
<!-- Node30 -->
<g id="node30" class="node">
<title>Node30</title>
<g id="a_node30"><a xlink:href="$event_8cpp.html#a0e1911cf2881699b5c7086c5e7c7d355" xlink:title=" ">
<polygon fill="white" stroke="black" points="348,-213.5 348,-232.5 466,-232.5 466,-213.5 348,-213.5"/>
<text text-anchor="middle" x="407" y="-220.5" font-family="Helvetica,sans-Serif" font-size="10.00">X11KeySymToKeycode</text>
</a>
</g>
</g>
<!-- Node1&#45;&gt;Node30 -->
<g id="edge47" class="edge">
<title>Node1&#45;&gt;Node30</title>
<path fill="none" stroke="midnightblue" d="M119.11,-207.22C179.57,-210.55 273.78,-215.73 337.6,-219.24"/>
<polygon fill="midnightblue" stroke="midnightblue" points="337.79,-222.75 347.97,-219.81 338.18,-215.76 337.79,-222.75"/>
</g>
<!-- Node32 -->
<g id="node32" class="node">
<title>Node32</title>
<g id="a_node32"><a xlink:href="$event_8cpp.html#a720e476fc47628b6581dba3eb6ce9657" xlink:title=" ">
<polygon fill="white" stroke="black" points="338,-175.5 338,-194.5 476,-194.5 476,-175.5 338,-175.5"/>
<text text-anchor="middle" x="407" y="-182.5" font-family="Helvetica,sans-Serif" font-size="10.00">X11KeyCodeToX11KeySym</text>
</a>
</g>
</g>
<!-- Node1&#45;&gt;Node32 -->
<g id="edge44" class="edge">
<title>Node1&#45;&gt;Node32</title>
<path fill="none" stroke="midnightblue" d="M119.11,-200.78C176.47,-197.62 264.21,-192.8 327.55,-189.31"/>
<polygon fill="midnightblue" stroke="midnightblue" points="328.1,-192.79 337.9,-188.75 327.72,-185.8 328.1,-192.79"/>
</g>
<!-- Node4 -->
<g id="node4" class="node">
<title>Node4</title>
<g id="a_node4"><a xlink:href="$classAntKeyMapper.html#abe4a434636d370a750d32a14b9a139d3" xlink:title=" ">
<polygon fill="white" stroke="black" points="332,-99.5 332,-118.5 482,-118.5 482,-99.5 332,-99.5"/>
<text text-anchor="middle" x="407" y="-106.5" font-family="Helvetica,sans-Serif" font-size="10.00">AntKeyMapper::AntKeyMapper</text>
</a>
</g>
</g>
<!-- Node3&#45;&gt;Node4 -->
<g id="edge3" class="edge">
<title>Node3&#45;&gt;Node4</title>
<path fill="none" stroke="midnightblue" d="M270.67,-137.41C294.99,-132.31 325.08,-125.99 350.71,-120.61"/>
<polygon fill="midnightblue" stroke="midnightblue" points="351.59,-124 360.65,-118.52 350.15,-117.15 351.59,-124"/>
</g>
<!-- Node5 -->
<g id="node5" class="node">
<title>Node5</title>
<g id="a_node5"><a xlink:href="$antkeymapper_8cpp.html#a4f87707944cf82e8e59c85d48e24951c" xlink:title=" ">
<polygon fill="white" stroke="black" points="347,-137.5 347,-156.5 467,-156.5 467,-137.5 347,-137.5"/>
<text text-anchor="middle" x="407" y="-144.5" font-family="Helvetica,sans-Serif" font-size="10.00">buildEventGeneratorList</text>
</a>
</g>
</g>
<!-- Node3&#45;&gt;Node5 -->
<g id="edge4" class="edge">
<title>Node3&#45;&gt;Node5</title>
<path fill="none" stroke="midnightblue" d="M292.66,-147C306.96,-147 322.07,-147 336.44,-147"/>
<polygon fill="midnightblue" stroke="midnightblue" points="336.75,-150.5 346.75,-147 336.75,-143.5 336.75,-150.5"/>
</g>
<!-- Node7 -->
<g id="node7" class="node">
<title>Node7</title>
<g id="a_node7"><a xlink:href="$classEventHandlerFactory.html#ade5162034acc0f8683725fdb124bece0" xlink:title=" ">
<polygon fill="white" stroke="black" points="718,-378 718,-408 844,-408 844,-378 718,-378"/>
<text text-anchor="start" x="726" y="-396" font-family="Helvetica,sans-Serif" font-size="10.00">EventHandlerFactory</text>
<text text-anchor="middle" x="781" y="-385" font-family="Helvetica,sans-Serif" font-size="10.00">::buildEventGeneratorList</text>
</a>
</g>
</g>
<!-- Node6&#45;&gt;Node7 -->
<g id="edge6" class="edge">
<title>Node6&#45;&gt;Node7</title>
<path fill="none" stroke="midnightblue" d="M653.04,-319.24C660.98,-322.27 668.88,-325.84 676,-330 694.74,-340.95 693.83,-351.13 712,-363 717.81,-366.79 724.17,-370.32 730.61,-373.52"/>
<polygon fill="midnightblue" stroke="midnightblue" points="729.49,-376.86 740.03,-377.96 732.48,-370.53 729.49,-376.86"/>
</g>
<!-- Node8 -->
<g id="node8" class="node">
<title>Node8</title>
<g id="a_node8"><a xlink:href="$classEventHandlerFactory.html#a2f843293b2ea47271fc7bd99bd871fa6" xlink:title=" ">
<polygon fill="white" stroke="black" points="723.5,-290 723.5,-320 838.5,-320 838.5,-290 723.5,-290"/>
<text text-anchor="start" x="731.5" y="-308" font-family="Helvetica,sans-Serif" font-size="10.00">EventHandlerFactory</text>
<text text-anchor="middle" x="781" y="-297" font-family="Helvetica,sans-Serif" font-size="10.00">::EventHandlerFactory</text>
</a>
</g>
</g>
<!-- Node6&#45;&gt;Node8 -->
<g id="edge7" class="edge">
<title>Node6&#45;&gt;Node8</title>
<path fill="none" stroke="midnightblue" d="M653.17,-305C672.02,-305 693.43,-305 713.22,-305"/>
<polygon fill="midnightblue" stroke="midnightblue" points="713.4,-308.5 723.4,-305 713.4,-301.5 713.4,-308.5"/>
</g>
<!-- Node6&#45;&gt;Node9 -->
<g id="edge10" class="edge">
<title>Node6&#45;&gt;Node9</title>
<path fill="none" stroke="midnightblue" d="M653,-318.51C671.57,-322.77 692.61,-327.11 712,-330 773.76,-339.2 844.93,-344.08 894.87,-346.58"/>
<polygon fill="midnightblue" stroke="midnightblue" points="894.72,-350.07 904.88,-347.06 895.06,-343.08 894.72,-350.07"/>
</g>
<!-- Node10 -->
<g id="node10" class="node">
<title>Node10</title>
<g id="a_node10"><a xlink:href="$classEventHandlerFactory.html#afa5ca0171c70b1a24f92b5c8dd00dc92" xlink:title=" ">
<polygon fill="white" stroke="black" points="726.5,-427 726.5,-457 835.5,-457 835.5,-427 726.5,-427"/>
<text text-anchor="start" x="734.5" y="-445" font-family="Helvetica,sans-Serif" font-size="10.00">EventHandlerFactory</text>
<text text-anchor="middle" x="781" y="-434" font-family="Helvetica,sans-Serif" font-size="10.00">::fallBackIdentifier</text>
</a>
</g>
</g>
<!-- Node6&#45;&gt;Node10 -->
<g id="edge9" class="edge">
<title>Node6&#45;&gt;Node10</title>
<path fill="none" stroke="midnightblue" d="M653.39,-315.98C661.65,-319.45 669.55,-324.01 676,-330 706.94,-358.78 681.4,-388.86 712,-418 713.69,-419.61 715.5,-421.12 717.4,-422.52"/>
<polygon fill="midnightblue" stroke="midnightblue" points="715.89,-425.71 726.22,-428.06 719.61,-419.78 715.89,-425.71"/>
</g>
<!-- Node8&#45;&gt;Node9 -->
<g id="edge8" class="edge">
<title>Node8&#45;&gt;Node9</title>
<path fill="none" stroke="midnightblue" d="M838.82,-319.16C856.76,-323.64 876.69,-328.6 895.06,-333.18"/>
<polygon fill="midnightblue" stroke="midnightblue" points="894.24,-336.59 904.79,-335.61 895.94,-329.8 894.24,-336.59"/>
</g>
<!-- Node14 -->
<g id="node14" class="node">
<title>Node14</title>
<g id="a_node14"><a xlink:href="$classQtKeyMapperBase.html#a320ec78a9a4a978014992808ca787796" xlink:title=" ">
<polygon fill="white" stroke="black" points="329,-0.5 329,-19.5 485,-19.5 485,-0.5 329,-0.5"/>
<text text-anchor="middle" x="407" y="-7.5" font-family="Helvetica,sans-Serif" font-size="10.00">QtKeyMapperBase::returnQtKey</text>
</a>
</g>
</g>
<!-- Node13&#45;&gt;Node14 -->
<g id="edge15" class="edge">
<title>Node13&#45;&gt;Node14</title>
<path fill="none" stroke="midnightblue" d="M293.17,-10C301.53,-10 310.15,-10 318.74,-10"/>
<polygon fill="midnightblue" stroke="midnightblue" points="318.78,-13.5 328.78,-10 318.78,-6.5 318.78,-13.5"/>
</g>
<!-- Node16 -->
<g id="node16" class="node">
<title>Node16</title>
<g id="a_node16"><a xlink:href="$event_8cpp.html#ad239a34cab482dc3cad5a23a9ac1ad78" xlink:title=" ">
<polygon fill="white" stroke="black" points="355,-295.5 355,-314.5 459,-314.5 459,-295.5 355,-295.5"/>
<text text-anchor="middle" x="407" y="-302.5" font-family="Helvetica,sans-Serif" font-size="10.00">keycodeToKeyString</text>
</a>
</g>
</g>
<!-- Node15&#45;&gt;Node16 -->
<g id="edge17" class="edge">
<title>Node15&#45;&gt;Node16</title>
<path fill="none" stroke="midnightblue" d="M280.78,-305C300.95,-305 323.84,-305 344.47,-305"/>
<polygon fill="midnightblue" stroke="midnightblue" points="344.72,-308.5 354.72,-305 344.72,-301.5 344.72,-308.5"/>
</g>
<!-- Node15&#45;&gt;Node30 -->
<g id="edge35" class="edge">
<title>Node15&#45;&gt;Node30</title>
<path fill="none" stroke="midnightblue" d="M258.2,-289.96C291.68,-274.79 342.94,-251.57 375.44,-236.84"/>
<polygon fill="midnightblue" stroke="midnightblue" points="377.22,-239.88 384.89,-232.56 374.34,-233.5 377.22,-239.88"/>
</g>
<!-- Node16&#45;&gt;Node2 -->
<g id="edge22" class="edge">
<title>Node16&#45;&gt;Node2</title>
<path fill="none" stroke="midnightblue" d="M449.12,-314.55C477.68,-321.18 515.92,-330.06 546.44,-337.14"/>
<polygon fill="midnightblue" stroke="midnightblue" points="545.93,-340.62 556.46,-339.47 547.51,-333.8 545.93,-340.62"/>
</g>
<!-- Node16&#45;&gt;Node6 -->
<g id="edge30" class="edge">
<title>Node16&#45;&gt;Node6</title>
<path fill="none" stroke="midnightblue" d="M459.28,-305C482.2,-305 509.46,-305 533.69,-305"/>
<polygon fill="midnightblue" stroke="midnightblue" points="533.86,-308.5 543.86,-305 533.86,-301.5 533.86,-308.5"/>
</g>
<!-- Node16&#45;&gt;Node9 -->
<g id="edge34" class="edge">
<title>Node16&#45;&gt;Node9</title>
<path fill="none" stroke="midnightblue" d="M416.07,-314.52C433.34,-334.33 476,-380.28 521,-406 598.37,-450.22 623.95,-453.28 712,-467 772.6,-476.44 793.84,-491.65 850,-467 861.57,-461.92 911.33,-404.66 939.27,-371.81"/>
<polygon fill="midnightblue" stroke="midnightblue" points="942.07,-373.93 945.87,-364.04 936.73,-369.4 942.07,-373.93"/>
</g>
<!-- Node17 -->
<g id="node17" class="node">
<title>Node17</title>
<g id="a_node17"><a xlink:href="$classX11Extras.html#a643c95dc1de8eb073a0accb41619fe83" xlink:title="Get display instance.">
<polygon fill="white" stroke="black" points="549,-99.5 549,-118.5 648,-118.5 648,-99.5 549,-99.5"/>
<text text-anchor="middle" x="598.5" y="-106.5" font-family="Helvetica,sans-Serif" font-size="10.00">X11Extras::display</text>
</a>
</g>
</g>
<!-- Node16&#45;&gt;Node17 -->
<g id="edge18" class="edge">
<title>Node16&#45;&gt;Node17</title>
<path fill="none" stroke="midnightblue" d="M423.31,-295.49C440.2,-284.37 467.34,-264.59 485,-242 508.03,-212.56 497.31,-194.91 521,-166 534.95,-148.97 555.04,-134.26 571.13,-124.05"/>
<polygon fill="midnightblue" stroke="midnightblue" points="573.36,-126.78 580.06,-118.58 569.71,-120.82 573.36,-126.78"/>
</g>
<!-- Node18 -->
<g id="node18" class="node">
<title>Node18</title>
<g id="a_node18"><a xlink:href="$classUInputHelper.html#ac4c70c9479c1cc0eb515ab1bdf2426f5" xlink:title=" ">
<polygon fill="white" stroke="black" points="896,-446 896,-476 1023,-476 1023,-446 896,-446"/>
<text text-anchor="start" x="904" y="-464" font-family="Helvetica,sans-Serif" font-size="10.00">UInputHelper::getDisplay</text>
<text text-anchor="middle" x="959.5" y="-453" font-family="Helvetica,sans-Serif" font-size="10.00">String</text>
</a>
</g>
</g>
<!-- Node16&#45;&gt;Node18 -->
<g id="edge19" class="edge">
<title>Node16&#45;&gt;Node18</title>
<path fill="none" stroke="midnightblue" d="M412.73,-314.85C425.87,-341.05 465.49,-412.77 521,-447 646.38,-524.31 703.72,-504.28 850,-487 865.39,-485.18 881.75,-481.96 896.97,-478.39"/>
<polygon fill="midnightblue" stroke="midnightblue" points="897.9,-481.77 906.8,-476.01 896.25,-474.97 897.9,-481.77"/>
</g>
<!-- Node20 -->
<g id="node20" class="node">
<title>Node20</title>
<g id="a_node20"><a xlink:href="$classX11Extras.html#abe710bac948c9802105a2d9d06815cac" xlink:title="Get appropriate alias for a known KeySym string that might be blank or contain invalid characters whe...">
<polygon fill="white" stroke="black" points="528.5,-377.5 528.5,-396.5 668.5,-396.5 668.5,-377.5 528.5,-377.5"/>
<text text-anchor="middle" x="598.5" y="-384.5" font-family="Helvetica,sans-Serif" font-size="10.00">X11Extras::getDisplayString</text>
</a>
</g>
</g>
<!-- Node16&#45;&gt;Node20 -->
<g id="edge21" class="edge">
<title>Node16&#45;&gt;Node20</title>
<path fill="none" stroke="midnightblue" d="M422.37,-314.66C443.26,-328.32 483.6,-353.24 521,-368 527.33,-370.5 534.08,-372.74 540.86,-374.74"/>
<polygon fill="midnightblue" stroke="midnightblue" points="540.19,-378.18 550.76,-377.48 542.06,-371.44 540.19,-378.18"/>
</g>
<!-- Node21 -->
<g id="node21" class="node">
<title>Node21</title>
<g id="a_node21"><a xlink:href="$classUInputHelper.html#a61509601d3dbd8933aaa26c1e2db02f6" xlink:title=" ">
<polygon fill="white" stroke="black" points="533,-251.5 533,-270.5 664,-270.5 664,-251.5 533,-251.5"/>
<text text-anchor="middle" x="598.5" y="-258.5" font-family="Helvetica,sans-Serif" font-size="10.00">UInputHelper::getInstance</text>
</a>
</g>
</g>
<!-- Node16&#45;&gt;Node21 -->
<g id="edge23" class="edge">
<title>Node16&#45;&gt;Node21</title>
<path fill="none" stroke="midnightblue" d="M449.12,-295.45C477.68,-288.82 515.92,-279.94 546.44,-272.86"/>
<polygon fill="midnightblue" stroke="midnightblue" points="547.51,-276.2 556.46,-270.53 545.93,-269.38 547.51,-276.2"/>
</g>
<!-- Node27 -->
<g id="node27" class="node">
<title>Node27</title>
<g id="a_node27"><a xlink:href="$classX11Extras.html#ace76277fced60e6bd6ff880030338182" xlink:title=" ">
<polygon fill="white" stroke="black" points="539,-175.5 539,-194.5 658,-194.5 658,-175.5 539,-175.5"/>
<text text-anchor="middle" x="598.5" y="-182.5" font-family="Helvetica,sans-Serif" font-size="10.00">X11Extras::getInstance</text>
</a>
</g>
</g>
<!-- Node16&#45;&gt;Node27 -->
<g id="edge31" class="edge">
<title>Node16&#45;&gt;Node27</title>
<path fill="none" stroke="midnightblue" d="M423.19,-295.38C456.04,-274.58 533.91,-225.27 573.5,-200.2"/>
<polygon fill="midnightblue" stroke="midnightblue" points="575.66,-202.97 582.24,-194.66 571.92,-197.06 575.66,-202.97"/>
</g>
<!-- Node19 -->
<g id="node19" class="node">
<title>Node19</title>
<g id="a_node19"><a xlink:href="$classUInputHelper.html#a043b0fa7cf4ce5811d01d95f3ca318b7" xlink:title=" ">
<polygon fill="white" stroke="black" points="1069,-361 1069,-391 1225,-391 1225,-361 1069,-361"/>
<text text-anchor="start" x="1077" y="-379" font-family="Helvetica,sans-Serif" font-size="10.00">UInputHelper::getKnownAliases</text>
<text text-anchor="middle" x="1147" y="-368" font-family="Helvetica,sans-Serif" font-size="10.00">VKStrings</text>
</a>
</g>
</g>
<!-- Node18&#45;&gt;Node19 -->
<g id="edge20" class="edge">
<title>Node18&#45;&gt;Node19</title>
<path fill="none" stroke="midnightblue" d="M993.24,-446C1024.04,-431.88 1070.32,-410.68 1103.87,-395.31"/>
<polygon fill="midnightblue" stroke="midnightblue" points="1105.33,-398.48 1112.97,-391.14 1102.42,-392.12 1105.33,-398.48"/>
</g>
<!-- Node22 -->
<g id="node22" class="node">
<title>Node22</title>
<g id="a_node22"><a xlink:href="$classUInputHelper.html#a5d56d23a0e0202435c7a5ff1aca9ce55" xlink:title=" ">
<polygon fill="white" stroke="black" points="712,-251.5 712,-270.5 850,-270.5 850,-251.5 712,-251.5"/>
<text text-anchor="middle" x="781" y="-258.5" font-family="Helvetica,sans-Serif" font-size="10.00">UInputHelper::UInputHelper</text>
</a>
</g>
</g>
<!-- Node21&#45;&gt;Node22 -->
<g id="edge24" class="edge">
<title>Node21&#45;&gt;Node22</title>
<path fill="none" stroke="midnightblue" d="M664.15,-261C676.25,-261 689.01,-261 701.46,-261"/>
<polygon fill="midnightblue" stroke="midnightblue" points="701.83,-264.5 711.83,-261 701.83,-257.5 701.83,-264.5"/>
</g>
<!-- Node23 -->
<g id="node23" class="node">
<title>Node23</title>
<g id="a_node23"><a xlink:href="$classUInputHelper.html#a0f4dbb4221502d86f7d0af12a9865568" xlink:title=" ">
<polygon fill="white" stroke="black" points="886,-246 886,-276 1033,-276 1033,-246 886,-246"/>
<text text-anchor="start" x="894" y="-264" font-family="Helvetica,sans-Serif" font-size="10.00">UInputHelper::populateKnown</text>
<text text-anchor="middle" x="959.5" y="-253" font-family="Helvetica,sans-Serif" font-size="10.00">Aliases</text>
</a>
</g>
</g>
<!-- Node22&#45;&gt;Node23 -->
<g id="edge25" class="edge">
<title>Node22&#45;&gt;Node23</title>
<path fill="none" stroke="midnightblue" d="M850.24,-261C858.52,-261 867.04,-261 875.5,-261"/>
<polygon fill="midnightblue" stroke="midnightblue" points="875.76,-264.5 885.76,-261 875.76,-257.5 875.76,-264.5"/>
</g>
<!-- Node23&#45;&gt;Node19 -->
<g id="edge26" class="edge">
<title>Node23&#45;&gt;Node19</title>
<path fill="none" stroke="midnightblue" d="M984.75,-276.03C1017.52,-296.35 1076.08,-332.65 1112.88,-355.47"/>
<polygon fill="midnightblue" stroke="midnightblue" points="1111.4,-358.67 1121.74,-360.96 1115.09,-352.72 1111.4,-358.67"/>
</g>
<!-- Node24 -->
<g id="node24" class="node">
<title>Node24</title>
<g id="a_node24"><a xlink:href="$classUInputHelper.html#a8f3fe71ae635cd3c46eaab79dd11c2e0" xlink:title=" ">
<polygon fill="white" stroke="black" points="1069,-162 1069,-192 1225,-192 1225,-162 1069,-162"/>
<text text-anchor="start" x="1077" y="-180" font-family="Helvetica,sans-Serif" font-size="10.00">UInputHelper::getKnownAliases</text>
<text text-anchor="middle" x="1147" y="-169" font-family="Helvetica,sans-Serif" font-size="10.00">X11SymVK</text>
</a>
</g>
</g>
<!-- Node23&#45;&gt;Node24 -->
<g id="edge27" class="edge">
<title>Node23&#45;&gt;Node24</title>
<path fill="none" stroke="midnightblue" d="M991.7,-245.98C1013.32,-235.67 1042.8,-221.77 1069,-210 1079.26,-205.39 1090.35,-200.56 1100.82,-196.05"/>
<polygon fill="midnightblue" stroke="midnightblue" points="1102.42,-199.18 1110.24,-192.02 1099.67,-192.74 1102.42,-199.18"/>
</g>
<!-- Node25 -->
<g id="node25" class="node">
<title>Node25</title>
<g id="a_node25"><a xlink:href="$classUInputHelper.html#a9793030329fbbe1106b255814ef2bd0f" xlink:title=" ">
<polygon fill="white" stroke="black" points="1080,-268 1080,-298 1214,-298 1214,-268 1080,-268"/>
<text text-anchor="start" x="1088" y="-286" font-family="Helvetica,sans-Serif" font-size="10.00">UInputHelper::populateX11</text>
<text text-anchor="middle" x="1147" y="-275" font-family="Helvetica,sans-Serif" font-size="10.00">SymVk</text>
</a>
</g>
</g>
<!-- Node23&#45;&gt;Node25 -->
<g id="edge28" class="edge">
<title>Node23&#45;&gt;Node25</title>
<path fill="none" stroke="midnightblue" d="M1033.02,-269.6C1045.08,-271.03 1057.63,-272.52 1069.79,-273.96"/>
<polygon fill="midnightblue" stroke="midnightblue" points="1069.54,-277.46 1079.89,-275.16 1070.37,-270.51 1069.54,-277.46"/>
</g>
<!-- Node26 -->
<g id="node26" class="node">
<title>Node26</title>
<g id="a_node26"><a xlink:href="$classUInputHelper.html#af02574de230bb0550eebb63f5a669681" xlink:title=" ">
<polygon fill="white" stroke="black" points="1079,-219 1079,-249 1215,-249 1215,-219 1079,-219"/>
<text text-anchor="start" x="1087" y="-237" font-family="Helvetica,sans-Serif" font-size="10.00">UInputHelper::populateXVk</text>
<text text-anchor="middle" x="1147" y="-226" font-family="Helvetica,sans-Serif" font-size="10.00">Strings</text>
</a>
</g>
</g>
<!-- Node23&#45;&gt;Node26 -->
<g id="edge29" class="edge">
<title>Node23&#45;&gt;Node26</title>
<path fill="none" stroke="midnightblue" d="M1033.02,-250.45C1044.84,-248.72 1057.14,-246.93 1069.07,-245.2"/>
<polygon fill="midnightblue" stroke="midnightblue" points="1069.59,-248.66 1078.98,-243.75 1068.58,-241.73 1069.59,-248.66"/>
</g>
<!-- Node28 -->
<g id="node28" class="node">
<title>Node28</title>
<g id="a_node28"><a xlink:href="$classX11Extras.html#ab9bcb016e23bacb0e988feb8175d2c88" xlink:title=" ">
<polygon fill="white" stroke="black" points="724,-175.5 724,-194.5 838,-194.5 838,-175.5 724,-175.5"/>
<text text-anchor="middle" x="781" y="-182.5" font-family="Helvetica,sans-Serif" font-size="10.00">X11Extras::X11Extras</text>
</a>
</g>
</g>
<!-- Node27&#45;&gt;Node28 -->
<g id="edge32" class="edge">
<title>Node27&#45;&gt;Node28</title>
<path fill="none" stroke="midnightblue" d="M658.1,-185C675.83,-185 695.41,-185 713.61,-185"/>
<polygon fill="midnightblue" stroke="midnightblue" points="713.84,-188.5 723.84,-185 713.84,-181.5 713.84,-188.5"/>
</g>
<!-- Node29 -->
<g id="node29" class="node">
<title>Node29</title>
<g id="a_node29"><a xlink:href="$classX11Extras.html#a6f63e77ed045e174546d77333672b8f0" xlink:title=" ">
<polygon fill="white" stroke="black" points="892,-176 892,-206 1027,-206 1027,-176 892,-176"/>
<text text-anchor="start" x="900" y="-194" font-family="Helvetica,sans-Serif" font-size="10.00">X11Extras::populateKnown</text>
<text text-anchor="middle" x="959.5" y="-183" font-family="Helvetica,sans-Serif" font-size="10.00">Aliases</text>
</a>
</g>
</g>
<!-- Node28&#45;&gt;Node29 -->
<g id="edge33" class="edge">
<title>Node28&#45;&gt;Node29</title>
<path fill="none" stroke="midnightblue" d="M838.33,-186.91C852.18,-187.39 867.25,-187.9 881.88,-188.4"/>
<polygon fill="midnightblue" stroke="midnightblue" points="881.81,-191.89 891.92,-188.74 882.05,-184.9 881.81,-191.89"/>
</g>
<!-- Node30&#45;&gt;Node2 -->
<g id="edge37" class="edge">
<title>Node30&#45;&gt;Node2</title>
<path fill="none" stroke="midnightblue" d="M421.2,-232.52C437.09,-244.27 464.24,-265.24 485,-286 502.87,-303.87 499.65,-316.49 521,-330 524.35,-332.12 527.92,-334.01 531.63,-335.68"/>
<polygon fill="midnightblue" stroke="midnightblue" points="530.45,-338.98 541.04,-339.42 533.04,-332.48 530.45,-338.98"/>
</g>
<!-- Node30&#45;&gt;Node6 -->
<g id="edge39" class="edge">
<title>Node30&#45;&gt;Node6</title>
<path fill="none" stroke="midnightblue" d="M450.16,-232.5C461.88,-236.1 474.32,-240.86 485,-247 503.81,-257.82 502.26,-269.05 521,-280 525.23,-282.47 529.73,-284.73 534.35,-286.8"/>
<polygon fill="midnightblue" stroke="midnightblue" points="533.38,-290.18 543.96,-290.76 536.05,-283.71 533.38,-290.18"/>
</g>
<!-- Node30&#45;&gt;Node9 -->
<g id="edge43" class="edge">
<title>Node30&#45;&gt;Node9</title>
<path fill="none" stroke="midnightblue" d="M466.33,-219.7C570.65,-214.75 784.41,-209.17 850,-242 872.6,-253.31 868.4,-267.87 886,-286 900.18,-300.6 917.31,-315.6 931.37,-327.3"/>
<polygon fill="midnightblue" stroke="midnightblue" points="929.29,-330.12 939.24,-333.78 933.74,-324.72 929.29,-330.12"/>
</g>
<!-- Node30&#45;&gt;Node17 -->
<g id="edge36" class="edge">
<title>Node30&#45;&gt;Node17</title>
<path fill="none" stroke="midnightblue" d="M466.08,-214.52C472.89,-211.89 479.4,-208.46 485,-204 512.69,-181.98 494,-155.87 521,-133 526.35,-128.47 532.56,-124.79 539.08,-121.8"/>
<polygon fill="midnightblue" stroke="midnightblue" points="540.82,-124.88 548.8,-117.91 538.21,-118.38 540.82,-124.88"/>
</g>
<!-- Node30&#45;&gt;Node21 -->
<g id="edge38" class="edge">
<title>Node30&#45;&gt;Node21</title>
<path fill="none" stroke="midnightblue" d="M455.82,-232.59C481.39,-237.72 513.06,-244.07 539.97,-249.46"/>
<polygon fill="midnightblue" stroke="midnightblue" points="539.53,-252.95 550.03,-251.48 540.91,-246.08 539.53,-252.95"/>
</g>
<!-- Node30&#45;&gt;Node27 -->
<g id="edge40" class="edge">
<title>Node30&#45;&gt;Node27</title>
<path fill="none" stroke="midnightblue" d="M455.82,-213.41C481.39,-208.28 513.06,-201.93 539.97,-196.54"/>
<polygon fill="midnightblue" stroke="midnightblue" points="540.91,-199.92 550.03,-194.52 539.53,-193.05 540.91,-199.92"/>
</g>
<!-- Node31 -->
<g id="node31" class="node">
<title>Node31</title>
<g id="a_node31"><a xlink:href="$classUInputHelper.html#a56e5826a700ad0513367b0b31443018f" xlink:title=" ">
<polygon fill="white" stroke="black" points="890,-137.5 890,-156.5 1029,-156.5 1029,-137.5 890,-137.5"/>
<text text-anchor="middle" x="959.5" y="-144.5" font-family="Helvetica,sans-Serif" font-size="10.00">UInputHelper::getVirtualKey</text>
</a>
</g>
</g>
<!-- Node30&#45;&gt;Node31 -->
<g id="edge41" class="edge">
<title>Node30&#45;&gt;Node31</title>
<path fill="none" stroke="midnightblue" d="M463.36,-213.43C470.9,-210.97 478.34,-207.88 485,-204 505.11,-192.3 499.83,-175.65 521,-166 582.73,-137.84 771.07,-139.71 879.45,-143.43"/>
<polygon fill="midnightblue" stroke="midnightblue" points="879.56,-146.93 889.68,-143.79 879.81,-139.94 879.56,-146.93"/>
</g>
<!-- Node31&#45;&gt;Node24 -->
<g id="edge42" class="edge">
<title>Node31&#45;&gt;Node24</title>
<path fill="none" stroke="midnightblue" d="M1019.45,-156.53C1031.96,-158.56 1045.42,-160.73 1058.73,-162.89"/>
<polygon fill="midnightblue" stroke="midnightblue" points="1058.43,-166.38 1068.87,-164.53 1059.55,-159.47 1058.43,-166.38"/>
</g>
<!-- Node32&#45;&gt;Node17 -->
<g id="edge45" class="edge">
<title>Node32&#45;&gt;Node17</title>
<path fill="none" stroke="midnightblue" d="M461.89,-175.38C469.89,-172.91 477.84,-169.84 485,-166 504.13,-155.75 502.2,-143.84 521,-133 528.71,-128.55 537.34,-124.83 545.95,-121.75"/>
<polygon fill="midnightblue" stroke="midnightblue" points="547.23,-125.01 555.61,-118.54 545.02,-118.37 547.23,-125.01"/>
</g>
<!-- Node32&#45;&gt;Node27 -->
<g id="edge46" class="edge">
<title>Node32&#45;&gt;Node27</title>
<path fill="none" stroke="midnightblue" d="M476.15,-185C493.11,-185 511.3,-185 528.31,-185"/>
<polygon fill="midnightblue" stroke="midnightblue" points="528.73,-188.5 538.73,-185 528.73,-181.5 528.73,-188.5"/>
</g>
</g>
</svg>
