<?xml version="1.0" encoding="UTF-8" standalone="no"?>
<!DOCTYPE svg PUBLIC "-//W3C//DTD SVG 1.1//EN"
 "http://www.w3.org/Graphics/SVG/1.1/DTD/svg11.dtd">
<!-- Generated by graphviz version 2.43.0 (0)
 -->
<!-- Title: AdvanceButtonDialogHelper::onlyRemoveAssignedSlot Pages: 1 -->
<!--zoomable 486 -->
<svg id="main" version="1.1" xmlns="http://www.w3.org/2000/svg" xmlns:xlink="http://www.w3.org/1999/xlink" xml:space="preserve" onload="init(evt)">
<style type="text/css"><![CDATA[
.edge:hover path { stroke: red; }
.edge:hover polygon { stroke: red; fill: red; }
]]></style>
<script type="text/javascript"><![CDATA[
var edges = document.getElementsByTagName('g');
if (edges && edges.length) {
  for (var i=0;i<edges.length;i++) {
    if (edges[i].id.substr(0,4)=='edge') {
      edges[i].setAttribute('class','edge');
    }
  }
}
]]></script>
        <defs>
                <circle id="rim" cx="0" cy="0" r="7"/>
                <circle id="rim2" cx="0" cy="0" r="3.5"/>
                <g id="zoomPlus">
                        <use xlink:href="#rim" fill="#404040">
                                <set attributeName="fill" to="#808080" begin="zoomplus.mouseover" end="zoomplus.mouseout"/>
                        </use>
                        <path d="M-4,0h8M0,-4v8" fill="none" stroke="white" stroke-width="1.5" pointer-events="none"/>
                </g>
                <g id="zoomMin">
                        <use xlink:href="#rim" fill="#404040">
                                <set attributeName="fill" to="#808080" begin="zoomminus.mouseover" end="zoomminus.mouseout"/>
                        </use>
                        <path d="M-4,0h8" fill="none" stroke="white" stroke-width="1.5" pointer-events="none"/>
                </g>
                <g id="dirArrow">
                        <path fill="none" stroke="white" stroke-width="1.5" d="M0,-3.0v7 M-2.5,-0.5L0,-3.0L2.5,-0.5"/>
                </g>
               <g id="resetDef">
                       <use xlink:href="#rim2" fill="#404040">
                               <set attributeName="fill" to="#808080" begin="reset.mouseover" end="reset.mouseout"/>
                       </use>
               </g>
        </defs>

<script type="text/javascript">
var viewWidth = 2337;
var viewHeight = 486;
var sectionId = 'dynsection-4';
</script>
<script xlink:href="svgpan.js"/>
<svg id="graph" class="graph">
<g id="viewport">
<title>AdvanceButtonDialogHelper::onlyRemoveAssignedSlot</title>
<polygon fill="white" stroke="transparent" points="-4,4 -4,-482 2333,-482 2333,4 -4,4"/>
<!-- Node1 -->
<g id="node1" class="node">
<title>Node1</title>
<g id="a_node1"><a xlink:title=" ">
<polygon fill="#bfbfbf" stroke="black" points="0,-171.5 0,-201.5 139,-201.5 139,-171.5 0,-171.5"/>
<text text-anchor="start" x="8" y="-189.5" font-family="Helvetica,sans-Serif" font-size="10.00">AdvanceButtonDialogHelper</text>
<text text-anchor="middle" x="69.5" y="-178.5" font-family="Helvetica,sans-Serif" font-size="10.00">::onlyRemoveAssignedSlot</text>
</a>
</g>
</g>
<!-- Node2 -->
<g id="node2" class="node">
<title>Node2</title>
<g id="a_node2"><a xlink:href="classJoyButton.html#a6c63b4b5dfa8af2a9f6f59f24ca1fe14" target="_top" xlink:title=" ">
<polygon fill="white" stroke="black" points="175,-177 175,-196 331,-196 331,-177 175,-177"/>
<text text-anchor="middle" x="253" y="-184" font-family="Helvetica,sans-Serif" font-size="10.00">JoyButton::removeAssignedSlot</text>
</a>
</g>
</g>
<!-- Node1&#45;&gt;Node2 -->
<g id="edge1" class="edge">
<title>Node1&#45;&gt;Node2</title>
<path fill="none" stroke="midnightblue" d="M139.12,-186.5C147.49,-186.5 156.12,-186.5 164.72,-186.5"/>
<polygon fill="midnightblue" stroke="midnightblue" points="164.77,-190 174.77,-186.5 164.77,-183 164.77,-190"/>
</g>
<!-- Node3 -->
<g id="node3" class="node">
<title>Node3</title>
<g id="a_node3"><a xlink:href="classJoyButtonSlot.html#a3b849071be5e1d6f7850209f4187aadb" target="_top" xlink:title=" ">
<polygon fill="white" stroke="black" points="371,-324.5 371,-354.5 499,-354.5 499,-324.5 371,-324.5"/>
<text text-anchor="start" x="379" y="-342.5" font-family="Helvetica,sans-Serif" font-size="10.00">JoyButtonSlot::assignMix</text>
<text text-anchor="middle" x="435" y="-331.5" font-family="Helvetica,sans-Serif" font-size="10.00">SlotsToNull</text>
</a>
</g>
</g>
<!-- Node2&#45;&gt;Node3 -->
<g id="edge2" class="edge">
<title>Node2&#45;&gt;Node3</title>
<path fill="none" stroke="midnightblue" d="M260.62,-196.04C276.59,-218.47 319.48,-275.26 367,-309.5 372.23,-313.26 378,-316.71 383.9,-319.82"/>
<polygon fill="midnightblue" stroke="midnightblue" points="382.7,-323.13 393.22,-324.42 385.8,-316.86 382.7,-323.13"/>
</g>
<!-- Node4 -->
<g id="node4" class="node">
<title>Node4</title>
<g id="a_node4"><a xlink:href="classJoyButton.html#ad2df77b5daa94a848b015265ec1869d6" target="_top" xlink:title="Generate active zone string and notify other objects.">
<polygon fill="white" stroke="black" points="367,-127.5 367,-157.5 503,-157.5 503,-127.5 367,-127.5"/>
<text text-anchor="start" x="375" y="-145.5" font-family="Helvetica,sans-Serif" font-size="10.00">JoyButton::buildActiveZone</text>
<text text-anchor="middle" x="435" y="-134.5" font-family="Helvetica,sans-Serif" font-size="10.00">SummaryString</text>
</a>
</g>
</g>
<!-- Node2&#45;&gt;Node4 -->
<g id="edge3" class="edge">
<title>Node2&#45;&gt;Node4</title>
<path fill="none" stroke="midnightblue" d="M293.06,-176.95C313.32,-172 338.73,-165.79 362.37,-160.01"/>
<polygon fill="midnightblue" stroke="midnightblue" points="363.49,-163.34 372.37,-157.57 361.82,-156.54 363.49,-163.34"/>
</g>
<!-- Node10 -->
<g id="node10" class="node">
<title>Node10</title>
<g id="a_node10"><a xlink:href="classJoyButtonSlot.html#a4fb0606a34134786bc642627bc25aedd" target="_top" xlink:title=" ">
<polygon fill="white" stroke="black" points="1252.5,-266 1252.5,-285 1388.5,-285 1388.5,-266 1252.5,-266"/>
<text text-anchor="middle" x="1320.5" y="-273" font-family="Helvetica,sans-Serif" font-size="10.00">JoyButtonSlot::getMixSlots</text>
</a>
</g>
</g>
<!-- Node2&#45;&gt;Node10 -->
<g id="edge55" class="edge">
<title>Node2&#45;&gt;Node10</title>
<path fill="none" stroke="midnightblue" d="M271.53,-196.17C321.57,-222.85 470.01,-295.5 602.5,-295.5 602.5,-295.5 602.5,-295.5 957.5,-295.5 1055.79,-295.5 1168.86,-288.06 1242.11,-282.25"/>
<polygon fill="midnightblue" stroke="midnightblue" points="1242.49,-285.73 1252.18,-281.45 1241.93,-278.76 1242.49,-285.73"/>
</g>
<!-- Node38 -->
<g id="node38" class="node">
<title>Node38</title>
<g id="a_node38"><a xlink:href="classJoyButtonSlot.html#abed7fe134c404b403ea79c0753f6eaaf" target="_top" xlink:title=" ">
<polygon fill="white" stroke="black" points="887,-160 887,-179 1026,-179 1026,-160 887,-160"/>
<text text-anchor="middle" x="956.5" y="-167" font-family="Helvetica,sans-Serif" font-size="10.00">JoyButtonSlot::getSlotMode</text>
</a>
</g>
</g>
<!-- Node2&#45;&gt;Node38 -->
<g id="edge56" class="edge">
<title>Node2&#45;&gt;Node38</title>
<path fill="none" stroke="midnightblue" d="M331.08,-184.63C465.41,-181.38 741,-174.7 876.59,-171.41"/>
<polygon fill="midnightblue" stroke="midnightblue" points="876.99,-174.9 886.9,-171.16 876.82,-167.91 876.99,-174.9"/>
</g>
<!-- Node41 -->
<g id="node41" class="node">
<title>Node41</title>
<g id="a_node41"><a xlink:href="classJoyButton.html#ae1d364dfa70f47fae3db99ffbcdea44b" target="_top" xlink:title=" ">
<polygon fill="white" stroke="black" points="885,-8 885,-27 1028,-27 1028,-8 885,-8"/>
<text text-anchor="middle" x="956.5" y="-15" font-family="Helvetica,sans-Serif" font-size="10.00">JoyButton::getAssignedSlots</text>
</a>
</g>
</g>
<!-- Node2&#45;&gt;Node41 -->
<g id="edge54" class="edge">
<title>Node2&#45;&gt;Node41</title>
<path fill="none" stroke="midnightblue" d="M266.93,-176.99C287.28,-162.38 328.47,-134.38 367,-117.5 537.24,-42.93 757.77,-23.76 874.58,-18.97"/>
<polygon fill="midnightblue" stroke="midnightblue" points="875.01,-22.46 884.87,-18.57 874.74,-15.46 875.01,-22.46"/>
</g>
<!-- Node5 -->
<g id="node5" class="node">
<title>Node5</title>
<g id="a_node5"><a xlink:href="classJoyButton.html#ae76ccd3147106953d53a565730c1d8ee" target="_top" xlink:title="Generate a string that represents slots that will be activated or slots that are currently active if ...">
<polygon fill="white" stroke="black" points="539,-127.5 539,-157.5 668,-157.5 668,-127.5 539,-127.5"/>
<text text-anchor="start" x="547" y="-145.5" font-family="Helvetica,sans-Serif" font-size="10.00">JoyButton::getActiveZone</text>
<text text-anchor="middle" x="603.5" y="-134.5" font-family="Helvetica,sans-Serif" font-size="10.00">Summary</text>
</a>
</g>
</g>
<!-- Node4&#45;&gt;Node5 -->
<g id="edge4" class="edge">
<title>Node4&#45;&gt;Node5</title>
<path fill="none" stroke="midnightblue" d="M503.24,-142.5C511.58,-142.5 520.15,-142.5 528.58,-142.5"/>
<polygon fill="midnightblue" stroke="midnightblue" points="528.78,-146 538.78,-142.5 528.78,-139 528.78,-146"/>
</g>
<!-- Node42 -->
<g id="node42" class="node">
<title>Node42</title>
<g id="a_node42"><a xlink:href="classJoyButton.html#a1b49d9ab85f0d5d128e2eca616747018" target="_top" xlink:title=" ">
<polygon fill="white" stroke="black" points="540,-78.5 540,-108.5 667,-108.5 667,-78.5 540,-78.5"/>
<text text-anchor="start" x="548" y="-96.5" font-family="Helvetica,sans-Serif" font-size="10.00">JoyButton::lockForWrited</text>
<text text-anchor="middle" x="603.5" y="-85.5" font-family="Helvetica,sans-Serif" font-size="10.00">String</text>
</a>
</g>
</g>
<!-- Node4&#45;&gt;Node42 -->
<g id="edge53" class="edge">
<title>Node4&#45;&gt;Node42</title>
<path fill="none" stroke="midnightblue" d="M487.31,-127.4C504.49,-122.34 523.8,-116.66 541.63,-111.42"/>
<polygon fill="midnightblue" stroke="midnightblue" points="542.75,-114.73 551.36,-108.55 540.77,-108.02 542.75,-114.73"/>
</g>
<!-- Node6 -->
<g id="node6" class="node">
<title>Node6</title>
<g id="a_node6"><a xlink:href="classJoyButton.html#a9404c4ca344265ce68c0eb9b6b95048b" target="_top" xlink:title=" ">
<polygon fill="white" stroke="black" points="708.5,-127.5 708.5,-157.5 844.5,-157.5 844.5,-127.5 708.5,-127.5"/>
<text text-anchor="start" x="716.5" y="-145.5" font-family="Helvetica,sans-Serif" font-size="10.00">JoyButton::buildActiveZone</text>
<text text-anchor="middle" x="776.5" y="-134.5" font-family="Helvetica,sans-Serif" font-size="10.00">Summary</text>
</a>
</g>
</g>
<!-- Node5&#45;&gt;Node6 -->
<g id="edge5" class="edge">
<title>Node5&#45;&gt;Node6</title>
<path fill="none" stroke="midnightblue" d="M668.17,-142.5C678,-142.5 688.24,-142.5 698.33,-142.5"/>
<polygon fill="midnightblue" stroke="midnightblue" points="698.34,-146 708.34,-142.5 698.34,-139 698.34,-146"/>
</g>
<!-- Node40 -->
<g id="node40" class="node">
<title>Node40</title>
<g id="a_node40"><a xlink:href="classJoyButton.html#a7494c1753b3f16ba988076e9eb34ff47" target="_top" xlink:title=" ">
<polygon fill="white" stroke="black" points="704,-84 704,-103 849,-103 849,-84 704,-84"/>
<text text-anchor="middle" x="776.5" y="-91" font-family="Helvetica,sans-Serif" font-size="10.00">JoyButton::getActiveZoneList</text>
</a>
</g>
</g>
<!-- Node5&#45;&gt;Node40 -->
<g id="edge48" class="edge">
<title>Node5&#45;&gt;Node40</title>
<path fill="none" stroke="midnightblue" d="M657.2,-127.4C681.39,-120.47 709.71,-112.35 732.58,-105.8"/>
<polygon fill="midnightblue" stroke="midnightblue" points="733.69,-109.12 742.34,-103 731.76,-102.39 733.69,-109.12"/>
</g>
<!-- Node7 -->
<g id="node7" class="node">
<title>Node7</title>
<g id="a_node7"><a xlink:href="classJoyButton.html#a773bbe39b094a62cd17776acc06efac6" target="_top" xlink:title=" ">
<polygon fill="white" stroke="black" points="888.5,-198.5 888.5,-228.5 1024.5,-228.5 1024.5,-198.5 888.5,-198.5"/>
<text text-anchor="start" x="896.5" y="-216.5" font-family="Helvetica,sans-Serif" font-size="10.00">JoyButton::buildActiveZone</text>
<text text-anchor="middle" x="956.5" y="-205.5" font-family="Helvetica,sans-Serif" font-size="10.00">SummarySwitchSlots</text>
</a>
</g>
</g>
<!-- Node6&#45;&gt;Node7 -->
<g id="edge6" class="edge">
<title>Node6&#45;&gt;Node7</title>
<path fill="none" stroke="midnightblue" d="M811.16,-157.56C832.24,-166.82 860.04,-178.75 885,-188.5 890.5,-190.65 896.27,-192.83 902.05,-194.95"/>
<polygon fill="midnightblue" stroke="midnightblue" points="901.12,-198.34 911.71,-198.46 903.51,-191.76 901.12,-198.34"/>
</g>
<!-- Node6&#45;&gt;Node10 -->
<g id="edge45" class="edge">
<title>Node6&#45;&gt;Node10</title>
<path fill="none" stroke="midnightblue" d="M789.11,-157.61C806.99,-179.59 843.57,-219.72 885,-237.5 947.27,-264.23 1134.84,-272.16 1242.08,-274.51"/>
<polygon fill="midnightblue" stroke="midnightblue" points="1242.13,-278.01 1252.2,-274.72 1242.27,-271.01 1242.13,-278.01"/>
</g>
<!-- Node37 -->
<g id="node37" class="node">
<title>Node37</title>
<g id="a_node37"><a xlink:href="classJoyButton.html#a64f1660931aea2fa8df1bf5e313c05ba" target="_top" xlink:title=" ">
<polygon fill="white" stroke="black" points="891.5,-84 891.5,-103 1021.5,-103 1021.5,-84 891.5,-84"/>
<text text-anchor="middle" x="956.5" y="-91" font-family="Helvetica,sans-Serif" font-size="10.00">JoyButton::getActiveSlots</text>
</a>
</g>
</g>
<!-- Node6&#45;&gt;Node37 -->
<g id="edge44" class="edge">
<title>Node6&#45;&gt;Node37</title>
<path fill="none" stroke="midnightblue" d="M831.06,-127.45C848.28,-122.64 867.43,-117.32 885,-112.5 893.17,-110.26 901.88,-107.89 910.29,-105.62"/>
<polygon fill="midnightblue" stroke="midnightblue" points="911.24,-108.99 919.98,-103.01 909.41,-102.23 911.24,-108.99"/>
</g>
<!-- Node6&#45;&gt;Node38 -->
<g id="edge46" class="edge">
<title>Node6&#45;&gt;Node38</title>
<path fill="none" stroke="midnightblue" d="M844.54,-152.67C856.98,-154.56 870.04,-156.54 882.64,-158.45"/>
<polygon fill="midnightblue" stroke="midnightblue" points="882.22,-161.92 892.63,-159.96 883.27,-155 882.22,-161.92"/>
</g>
<!-- Node39 -->
<g id="node39" class="node">
<title>Node39</title>
<g id="a_node39"><a xlink:href="classJoyButtonSlot.html#a1e38b923aa69abbcfb9abb008e692444" target="_top" xlink:title=" ">
<polygon fill="white" stroke="black" points="888,-122 888,-141 1025,-141 1025,-122 888,-122"/>
<text text-anchor="middle" x="956.5" y="-129" font-family="Helvetica,sans-Serif" font-size="10.00">JoyButtonSlot::getTextData</text>
</a>
</g>
</g>
<!-- Node6&#45;&gt;Node39 -->
<g id="edge47" class="edge">
<title>Node6&#45;&gt;Node39</title>
<path fill="none" stroke="midnightblue" d="M844.54,-138.36C855.41,-137.69 866.74,-136.99 877.83,-136.3"/>
<polygon fill="midnightblue" stroke="midnightblue" points="878.16,-139.79 887.93,-135.68 877.73,-132.8 878.16,-139.79"/>
</g>
<!-- Node8 -->
<g id="node8" class="node">
<title>Node8</title>
<g id="a_node8"><a xlink:href="classJoyButton.html#acb0ee9af0f5a44bd07ca5cfbfd026cf6" target="_top" xlink:title=" ">
<polygon fill="white" stroke="black" points="1065,-106 1065,-125 1203,-125 1203,-106 1065,-106"/>
<text text-anchor="middle" x="1134" y="-113" font-family="Helvetica,sans-Serif" font-size="10.00">JoyButton::findJoySlotsEnd</text>
</a>
</g>
</g>
<!-- Node7&#45;&gt;Node8 -->
<g id="edge7" class="edge">
<title>Node7&#45;&gt;Node8</title>
<path fill="none" stroke="midnightblue" d="M1005.63,-198.38C1013.26,-195.43 1020.95,-192.12 1028,-188.5 1059.8,-172.18 1093.13,-147.51 1113.49,-131.45"/>
<polygon fill="midnightblue" stroke="midnightblue" points="1115.75,-134.13 1121.38,-125.15 1111.38,-128.66 1115.75,-134.13"/>
</g>
<!-- Node9 -->
<g id="node9" class="node">
<title>Node9</title>
<g id="a_node9"><a xlink:href="classJoyButtonSlot.html#a6e10409ded595380cbdcfd5c827ab32a" target="_top" xlink:title=" ">
<polygon fill="white" stroke="black" points="1064,-204 1064,-223 1204,-223 1204,-204 1064,-204"/>
<text text-anchor="middle" x="1134" y="-211" font-family="Helvetica,sans-Serif" font-size="10.00">JoyButtonSlot::getSlotString</text>
</a>
</g>
</g>
<!-- Node7&#45;&gt;Node9 -->
<g id="edge8" class="edge">
<title>Node7&#45;&gt;Node9</title>
<path fill="none" stroke="midnightblue" d="M1024.6,-213.5C1034.15,-213.5 1044.05,-213.5 1053.81,-213.5"/>
<polygon fill="midnightblue" stroke="midnightblue" points="1053.9,-217 1063.9,-213.5 1053.9,-210 1053.9,-217"/>
</g>
<!-- Node9&#45;&gt;Node10 -->
<g id="edge9" class="edge">
<title>Node9&#45;&gt;Node10</title>
<path fill="none" stroke="midnightblue" d="M1158.13,-223.03C1179.26,-231.56 1211.46,-244.14 1240,-253.5 1250.31,-256.88 1261.49,-260.19 1272.11,-263.17"/>
<polygon fill="midnightblue" stroke="midnightblue" points="1271.5,-266.64 1282.07,-265.92 1273.36,-259.89 1271.5,-266.64"/>
</g>
<!-- Node12 -->
<g id="node12" class="node">
<title>Node12</title>
<g id="a_node12"><a xlink:href="namespacePadderCommon.html#aaa09739d2df84421a5a3467a06ce941c" target="_top" xlink:title="Returns the &quot;human&#45;readable&quot; name of the given profile.">
<polygon fill="white" stroke="black" points="1240,-225 1240,-244 1401,-244 1401,-225 1240,-225"/>
<text text-anchor="middle" x="1320.5" y="-232" font-family="Helvetica,sans-Serif" font-size="10.00">PadderCommon::getProfileName</text>
</a>
</g>
</g>
<!-- Node9&#45;&gt;Node12 -->
<g id="edge11" class="edge">
<title>Node9&#45;&gt;Node12</title>
<path fill="none" stroke="midnightblue" d="M1204.23,-221.38C1212.6,-222.33 1221.25,-223.32 1229.87,-224.3"/>
<polygon fill="midnightblue" stroke="midnightblue" points="1229.62,-227.79 1239.96,-225.45 1230.42,-220.84 1229.62,-227.79"/>
</g>
<!-- Node13 -->
<g id="node13" class="node">
<title>Node13</title>
<g id="a_node13"><a xlink:href="event_8cpp.html#a76ce89b71143c1c09343f45f038b4a67" target="_top" xlink:title=" ">
<polygon fill="white" stroke="black" points="1270,-187 1270,-206 1371,-206 1371,-187 1270,-187"/>
<text text-anchor="middle" x="1320.5" y="-194" font-family="Helvetica,sans-Serif" font-size="10.00">keysymToKeyString</text>
</a>
</g>
</g>
<!-- Node9&#45;&gt;Node13 -->
<g id="edge12" class="edge">
<title>Node9&#45;&gt;Node13</title>
<path fill="none" stroke="midnightblue" d="M1204.23,-207.12C1222.43,-205.44 1241.92,-203.65 1259.59,-202.02"/>
<polygon fill="midnightblue" stroke="midnightblue" points="1260.12,-205.49 1269.76,-201.08 1259.48,-198.52 1260.12,-205.49"/>
</g>
<!-- Node36 -->
<g id="node36" class="node">
<title>Node36</title>
<g id="a_node36"><a xlink:href="classJoyButtonSlot.html#a37ff2b523177bae4ea6a44b82f2973eb" target="_top" xlink:title=" ">
<polygon fill="white" stroke="black" points="1243,-149 1243,-168 1398,-168 1398,-149 1243,-149"/>
<text text-anchor="middle" x="1320.5" y="-156" font-family="Helvetica,sans-Serif" font-size="10.00">JoyButtonSlot::movementString</text>
</a>
</g>
</g>
<!-- Node9&#45;&gt;Node36 -->
<g id="edge43" class="edge">
<title>Node9&#45;&gt;Node36</title>
<path fill="none" stroke="midnightblue" d="M1160.67,-203.93C1181.8,-196.24 1212.61,-185.45 1240,-177.5 1248.52,-175.03 1257.61,-172.63 1266.49,-170.42"/>
<polygon fill="midnightblue" stroke="midnightblue" points="1267.51,-173.78 1276.39,-168.01 1265.85,-166.98 1267.51,-173.78"/>
</g>
<!-- Node11 -->
<g id="node11" class="node">
<title>Node11</title>
<g id="a_node11"><a xlink:href="classJoyButtonSlot.html#a9ba9cb0dda063a7df5575072c0aabe01" target="_top" xlink:title=" ">
<polygon fill="white" stroke="black" points="1437,-320.5 1437,-350.5 1566,-350.5 1566,-320.5 1437,-320.5"/>
<text text-anchor="start" x="1445" y="-338.5" font-family="Helvetica,sans-Serif" font-size="10.00">JoyButtonSlot::secureMix</text>
<text text-anchor="middle" x="1501.5" y="-327.5" font-family="Helvetica,sans-Serif" font-size="10.00">SlotsInit</text>
</a>
</g>
</g>
<!-- Node10&#45;&gt;Node11 -->
<g id="edge10" class="edge">
<title>Node10&#45;&gt;Node11</title>
<path fill="none" stroke="midnightblue" d="M1349.86,-285.01C1375.59,-293.63 1414.23,-306.58 1445.94,-317.21"/>
<polygon fill="midnightblue" stroke="midnightblue" points="1444.94,-320.57 1455.53,-320.43 1447.16,-313.93 1444.94,-320.57"/>
</g>
<!-- Node14 -->
<g id="node14" class="node">
<title>Node14</title>
<g id="a_node14"><a xlink:href="classX11Extras.html#a643c95dc1de8eb073a0accb41619fe83" target="_top" xlink:title="Get display instance.">
<polygon fill="white" stroke="black" points="1641.5,-99 1641.5,-118 1740.5,-118 1740.5,-99 1641.5,-99"/>
<text text-anchor="middle" x="1691" y="-106" font-family="Helvetica,sans-Serif" font-size="10.00">X11Extras::display</text>
</a>
</g>
</g>
<!-- Node13&#45;&gt;Node14 -->
<g id="edge13" class="edge">
<title>Node13&#45;&gt;Node14</title>
<path fill="none" stroke="midnightblue" d="M1365.47,-186.92C1377.09,-184.13 1389.58,-180.92 1401,-177.5 1417.3,-172.63 1420.67,-169.26 1437,-164.5 1509.15,-143.47 1528.6,-143.65 1602,-127.5 1612.75,-125.13 1624.25,-122.63 1635.27,-120.25"/>
<polygon fill="midnightblue" stroke="midnightblue" points="1636.18,-123.63 1645.22,-118.1 1634.7,-116.79 1636.18,-123.63"/>
</g>
<!-- Node15 -->
<g id="node15" class="node">
<title>Node15</title>
<g id="a_node15"><a xlink:href="classBaseEventHandler.html#a9a014e472ec57408d16b8b5eed964e90" target="_top" xlink:title=" ">
<polygon fill="white" stroke="black" points="1613.5,-61 1613.5,-80 1768.5,-80 1768.5,-61 1613.5,-61"/>
<text text-anchor="middle" x="1691" y="-68" font-family="Helvetica,sans-Serif" font-size="10.00">BaseEventHandler::getIdentifier</text>
</a>
</g>
</g>
<!-- Node13&#45;&gt;Node15 -->
<g id="edge14" class="edge">
<title>Node13&#45;&gt;Node15</title>
<path fill="none" stroke="midnightblue" d="M1371.05,-189.99C1381.47,-187.19 1392.01,-183.2 1401,-177.5 1422.63,-163.78 1415.51,-146.44 1437,-132.5 1500.58,-91.26 1528.28,-107.06 1602,-89.5 1612.25,-87.06 1623.21,-84.58 1633.8,-82.26"/>
<polygon fill="midnightblue" stroke="midnightblue" points="1634.76,-85.64 1643.79,-80.09 1633.27,-78.8 1634.76,-85.64"/>
</g>
<!-- Node16 -->
<g id="node16" class="node">
<title>Node16</title>
<g id="a_node16"><a xlink:href="classX11Extras.html#ace76277fced60e6bd6ff880030338182" target="_top" xlink:title=" ">
<polygon fill="white" stroke="black" points="1631.5,-453 1631.5,-472 1750.5,-472 1750.5,-453 1631.5,-453"/>
<text text-anchor="middle" x="1691" y="-460" font-family="Helvetica,sans-Serif" font-size="10.00">X11Extras::getInstance</text>
</a>
</g>
</g>
<!-- Node13&#45;&gt;Node16 -->
<g id="edge15" class="edge">
<title>Node13&#45;&gt;Node16</title>
<path fill="none" stroke="midnightblue" d="M1371.13,-202.16C1381.66,-205 1392.23,-209.22 1401,-215.5 1425.37,-232.93 1413.16,-254.35 1437,-272.5 1484.66,-308.77 1524.23,-268.57 1566,-311.5 1608.41,-355.08 1557.86,-401.67 1602,-443.5 1607.54,-448.75 1614.16,-452.69 1621.26,-455.62"/>
<polygon fill="midnightblue" stroke="midnightblue" points="1620.58,-459.09 1631.17,-459.03 1622.85,-452.47 1620.58,-459.09"/>
</g>
<!-- Node19 -->
<g id="node19" class="node">
<title>Node19</title>
<g id="a_node19"><a xlink:href="classEventHandlerFactory.html#a90ce153a19fbb91128bd52eb083ce271" target="_top" xlink:title=" ">
<polygon fill="white" stroke="black" points="1636.5,-137.5 1636.5,-167.5 1745.5,-167.5 1745.5,-137.5 1636.5,-137.5"/>
<text text-anchor="start" x="1644.5" y="-155.5" font-family="Helvetica,sans-Serif" font-size="10.00">EventHandlerFactory</text>
<text text-anchor="middle" x="1691" y="-144.5" font-family="Helvetica,sans-Serif" font-size="10.00">::getInstance</text>
</a>
</g>
</g>
<!-- Node13&#45;&gt;Node19 -->
<g id="edge18" class="edge">
<title>Node13&#45;&gt;Node19</title>
<path fill="none" stroke="midnightblue" d="M1371.24,-190.44C1391.62,-187.97 1415.44,-185.08 1437,-182.5 1501.3,-174.79 1574.81,-166.09 1625.96,-160.05"/>
<polygon fill="midnightblue" stroke="midnightblue" points="1626.68,-163.49 1636.2,-158.84 1625.86,-156.53 1626.68,-163.49"/>
</g>
<!-- Node22 -->
<g id="node22" class="node">
<title>Node22</title>
<g id="a_node22"><a xlink:href="classEventHandlerFactory.html#a4c13007f0ece5bf881080c9c04f1f20d" target="_top" xlink:title=" ">
<polygon fill="white" stroke="black" points="2009,-159.5 2009,-189.5 2118,-189.5 2118,-159.5 2009,-159.5"/>
<text text-anchor="start" x="2017" y="-177.5" font-family="Helvetica,sans-Serif" font-size="10.00">EventHandlerFactory</text>
<text text-anchor="middle" x="2063.5" y="-166.5" font-family="Helvetica,sans-Serif" font-size="10.00">::handler</text>
</a>
</g>
</g>
<!-- Node13&#45;&gt;Node22 -->
<g id="edge24" class="edge">
<title>Node13&#45;&gt;Node22</title>
<path fill="none" stroke="midnightblue" d="M1371.27,-195.02C1501.83,-191.15 1854.05,-180.69 1998.93,-176.39"/>
<polygon fill="midnightblue" stroke="midnightblue" points="1999.1,-179.88 2008.99,-176.09 1998.9,-172.89 1999.1,-179.88"/>
</g>
<!-- Node24 -->
<g id="node24" class="node">
<title>Node24</title>
<g id="a_node24"><a xlink:href="event_8cpp.html#ad239a34cab482dc3cad5a23a9ac1ad78" target="_top" xlink:title=" ">
<polygon fill="white" stroke="black" points="1449.5,-244 1449.5,-263 1553.5,-263 1553.5,-244 1449.5,-244"/>
<text text-anchor="middle" x="1501.5" y="-251" font-family="Helvetica,sans-Serif" font-size="10.00">keycodeToKeyString</text>
</a>
</g>
</g>
<!-- Node13&#45;&gt;Node24 -->
<g id="edge25" class="edge">
<title>Node13&#45;&gt;Node24</title>
<path fill="none" stroke="midnightblue" d="M1365.93,-206.04C1377.43,-208.8 1389.75,-212.02 1401,-215.5 1423.87,-222.57 1449.05,-232.2 1468.36,-240"/>
<polygon fill="midnightblue" stroke="midnightblue" points="1467.29,-243.35 1477.87,-243.89 1469.94,-236.87 1467.29,-243.35"/>
</g>
<!-- Node17 -->
<g id="node17" class="node">
<title>Node17</title>
<g id="a_node17"><a xlink:href="classX11Extras.html#ab9bcb016e23bacb0e988feb8175d2c88" target="_top" xlink:title=" ">
<polygon fill="white" stroke="black" points="1828,-453 1828,-472 1942,-472 1942,-453 1828,-453"/>
<text text-anchor="middle" x="1885" y="-460" font-family="Helvetica,sans-Serif" font-size="10.00">X11Extras::X11Extras</text>
</a>
</g>
</g>
<!-- Node16&#45;&gt;Node17 -->
<g id="edge16" class="edge">
<title>Node16&#45;&gt;Node17</title>
<path fill="none" stroke="midnightblue" d="M1750.65,-462.5C1771.78,-462.5 1795.78,-462.5 1817.54,-462.5"/>
<polygon fill="midnightblue" stroke="midnightblue" points="1817.68,-466 1827.68,-462.5 1817.68,-459 1817.68,-466"/>
</g>
<!-- Node18 -->
<g id="node18" class="node">
<title>Node18</title>
<g id="a_node18"><a xlink:href="classX11Extras.html#a6f63e77ed045e174546d77333672b8f0" target="_top" xlink:title=" ">
<polygon fill="white" stroke="black" points="1996,-447.5 1996,-477.5 2131,-477.5 2131,-447.5 1996,-447.5"/>
<text text-anchor="start" x="2004" y="-465.5" font-family="Helvetica,sans-Serif" font-size="10.00">X11Extras::populateKnown</text>
<text text-anchor="middle" x="2063.5" y="-454.5" font-family="Helvetica,sans-Serif" font-size="10.00">Aliases</text>
</a>
</g>
</g>
<!-- Node17&#45;&gt;Node18 -->
<g id="edge17" class="edge">
<title>Node17&#45;&gt;Node18</title>
<path fill="none" stroke="midnightblue" d="M1942.33,-462.5C1956.18,-462.5 1971.25,-462.5 1985.88,-462.5"/>
<polygon fill="midnightblue" stroke="midnightblue" points="1985.92,-466 1995.92,-462.5 1985.92,-459 1985.92,-466"/>
</g>
<!-- Node20 -->
<g id="node20" class="node">
<title>Node20</title>
<g id="a_node20"><a xlink:href="classEventHandlerFactory.html#ade5162034acc0f8683725fdb124bece0" target="_top" xlink:title=" ">
<polygon fill="white" stroke="black" points="1822,-0.5 1822,-30.5 1948,-30.5 1948,-0.5 1822,-0.5"/>
<text text-anchor="start" x="1830" y="-18.5" font-family="Helvetica,sans-Serif" font-size="10.00">EventHandlerFactory</text>
<text text-anchor="middle" x="1885" y="-7.5" font-family="Helvetica,sans-Serif" font-size="10.00">::buildEventGeneratorList</text>
</a>
</g>
</g>
<!-- Node19&#45;&gt;Node20 -->
<g id="edge19" class="edge">
<title>Node19&#45;&gt;Node20</title>
<path fill="none" stroke="midnightblue" d="M1745.7,-145.45C1758.08,-141.73 1770.41,-136.08 1780,-127.5 1811.5,-99.33 1785.4,-68.64 1816,-39.5 1817.13,-38.42 1818.32,-37.39 1819.55,-36.41"/>
<polygon fill="midnightblue" stroke="midnightblue" points="1821.88,-39.05 1828.21,-30.55 1817.96,-33.25 1821.88,-39.05"/>
</g>
<!-- Node21 -->
<g id="node21" class="node">
<title>Node21</title>
<g id="a_node21"><a xlink:href="classEventHandlerFactory.html#a2f843293b2ea47271fc7bd99bd871fa6" target="_top" xlink:title=" ">
<polygon fill="white" stroke="black" points="1827.5,-137.5 1827.5,-167.5 1942.5,-167.5 1942.5,-137.5 1827.5,-137.5"/>
<text text-anchor="start" x="1835.5" y="-155.5" font-family="Helvetica,sans-Serif" font-size="10.00">EventHandlerFactory</text>
<text text-anchor="middle" x="1885" y="-144.5" font-family="Helvetica,sans-Serif" font-size="10.00">::EventHandlerFactory</text>
</a>
</g>
</g>
<!-- Node19&#45;&gt;Node21 -->
<g id="edge20" class="edge">
<title>Node19&#45;&gt;Node21</title>
<path fill="none" stroke="midnightblue" d="M1745.74,-152.5C1767.87,-152.5 1793.74,-152.5 1817.08,-152.5"/>
<polygon fill="midnightblue" stroke="midnightblue" points="1817.26,-156 1827.26,-152.5 1817.26,-149 1817.26,-156"/>
</g>
<!-- Node19&#45;&gt;Node22 -->
<g id="edge23" class="edge">
<title>Node19&#45;&gt;Node22</title>
<path fill="none" stroke="midnightblue" d="M1745.7,-138.1C1799.02,-125.97 1882.86,-112.75 1954,-127.5 1979.45,-132.78 2006.26,-144.33 2026.87,-154.66"/>
<polygon fill="midnightblue" stroke="midnightblue" points="2025.38,-157.83 2035.87,-159.29 2028.58,-151.61 2025.38,-157.83"/>
</g>
<!-- Node23 -->
<g id="node23" class="node">
<title>Node23</title>
<g id="a_node23"><a xlink:href="classEventHandlerFactory.html#afa5ca0171c70b1a24f92b5c8dd00dc92" target="_top" xlink:title=" ">
<polygon fill="white" stroke="black" points="1830.5,-49.5 1830.5,-79.5 1939.5,-79.5 1939.5,-49.5 1830.5,-49.5"/>
<text text-anchor="start" x="1838.5" y="-67.5" font-family="Helvetica,sans-Serif" font-size="10.00">EventHandlerFactory</text>
<text text-anchor="middle" x="1885" y="-56.5" font-family="Helvetica,sans-Serif" font-size="10.00">::fallBackIdentifier</text>
</a>
</g>
</g>
<!-- Node19&#45;&gt;Node23 -->
<g id="edge22" class="edge">
<title>Node19&#45;&gt;Node23</title>
<path fill="none" stroke="midnightblue" d="M1745.71,-141.53C1757.42,-137.98 1769.46,-133.39 1780,-127.5 1798.95,-116.92 1797.83,-106.37 1816,-94.5 1821.81,-90.71 1828.17,-87.18 1834.61,-83.98"/>
<polygon fill="midnightblue" stroke="midnightblue" points="1836.48,-86.97 1844.03,-79.54 1833.49,-80.64 1836.48,-86.97"/>
</g>
<!-- Node21&#45;&gt;Node22 -->
<g id="edge21" class="edge">
<title>Node21&#45;&gt;Node22</title>
<path fill="none" stroke="midnightblue" d="M1942.82,-159.58C1960.67,-161.81 1980.5,-164.28 1998.8,-166.56"/>
<polygon fill="midnightblue" stroke="midnightblue" points="1998.44,-170.04 2008.79,-167.81 1999.3,-163.1 1998.44,-170.04"/>
</g>
<!-- Node24&#45;&gt;Node14 -->
<g id="edge26" class="edge">
<title>Node24&#45;&gt;Node14</title>
<path fill="none" stroke="midnightblue" d="M1507.18,-243.74C1519.21,-219.73 1553.75,-157.58 1602,-127.5 1610.84,-121.99 1621.05,-118.05 1631.31,-115.26"/>
<polygon fill="midnightblue" stroke="midnightblue" points="1632.22,-118.64 1641.13,-112.91 1630.59,-111.83 1632.22,-118.64"/>
</g>
<!-- Node24&#45;&gt;Node15 -->
<g id="edge31" class="edge">
<title>Node24&#45;&gt;Node15</title>
<path fill="none" stroke="midnightblue" d="M1505.34,-243.86C1514.29,-215.25 1544.77,-130.27 1602,-89.5 1604.67,-87.6 1607.5,-85.88 1610.44,-84.32"/>
<polygon fill="midnightblue" stroke="midnightblue" points="1611.91,-87.5 1619.54,-80.15 1608.99,-81.14 1611.91,-87.5"/>
</g>
<!-- Node24&#45;&gt;Node16 -->
<g id="edge39" class="edge">
<title>Node24&#45;&gt;Node16</title>
<path fill="none" stroke="midnightblue" d="M1545.5,-263.06C1553.22,-266.49 1560.54,-271.16 1566,-277.5 1615.29,-334.68 1548.59,-390.14 1602,-443.5 1607.6,-449.09 1614.42,-453.22 1621.77,-456.23"/>
<polygon fill="midnightblue" stroke="midnightblue" points="1620.71,-459.57 1631.31,-459.49 1622.97,-452.95 1620.71,-459.57"/>
</g>
<!-- Node24&#45;&gt;Node19 -->
<g id="edge40" class="edge">
<title>Node24&#45;&gt;Node19</title>
<path fill="none" stroke="midnightblue" d="M1520.14,-244C1550.42,-227.69 1612.89,-194.04 1653.05,-172.4"/>
<polygon fill="midnightblue" stroke="midnightblue" points="1654.86,-175.41 1662,-167.58 1651.54,-169.24 1654.86,-175.41"/>
</g>
<!-- Node24&#45;&gt;Node22 -->
<g id="edge41" class="edge">
<title>Node24&#45;&gt;Node22</title>
<path fill="none" stroke="midnightblue" d="M1553.51,-252.38C1637.75,-249.69 1810.88,-240.65 1954,-210.5 1974.26,-206.23 1996.02,-199.46 2014.7,-192.94"/>
<polygon fill="midnightblue" stroke="midnightblue" points="2015.92,-196.22 2024.16,-189.57 2013.57,-189.63 2015.92,-196.22"/>
</g>
<!-- Node25 -->
<g id="node25" class="node">
<title>Node25</title>
<g id="a_node25"><a xlink:href="classWinExtras.html#a3487e64cfb407033d7e28a761d1e76dc" target="_top" xlink:title=" ">
<polygon fill="white" stroke="black" points="1621,-301 1621,-320 1761,-320 1761,-301 1621,-301"/>
<text text-anchor="middle" x="1691" y="-308" font-family="Helvetica,sans-Serif" font-size="10.00">WinExtras::getDisplayString</text>
</a>
</g>
</g>
<!-- Node24&#45;&gt;Node25 -->
<g id="edge27" class="edge">
<title>Node24&#45;&gt;Node25</title>
<path fill="none" stroke="midnightblue" d="M1529.82,-263C1549.74,-269.82 1577.43,-279.08 1602,-286.5 1615.29,-290.51 1629.79,-294.59 1643.13,-298.22"/>
<polygon fill="midnightblue" stroke="midnightblue" points="1642.49,-301.67 1653.05,-300.9 1644.31,-294.91 1642.49,-301.67"/>
</g>
<!-- Node26 -->
<g id="node26" class="node">
<title>Node26</title>
<g id="a_node26"><a xlink:href="classUInputHelper.html#ac4c70c9479c1cc0eb515ab1bdf2426f5" target="_top" xlink:title=" ">
<polygon fill="white" stroke="black" points="2000,-263.5 2000,-293.5 2127,-293.5 2127,-263.5 2000,-263.5"/>
<text text-anchor="start" x="2008" y="-281.5" font-family="Helvetica,sans-Serif" font-size="10.00">UInputHelper::getDisplay</text>
<text text-anchor="middle" x="2063.5" y="-270.5" font-family="Helvetica,sans-Serif" font-size="10.00">String</text>
</a>
</g>
</g>
<!-- Node24&#45;&gt;Node26 -->
<g id="edge28" class="edge">
<title>Node24&#45;&gt;Node26</title>
<path fill="none" stroke="midnightblue" d="M1553.68,-255.78C1653.54,-260.24 1874.62,-270.11 1989.7,-275.25"/>
<polygon fill="midnightblue" stroke="midnightblue" points="1989.67,-278.75 1999.82,-275.7 1989.99,-271.76 1989.67,-278.75"/>
</g>
<!-- Node28 -->
<g id="node28" class="node">
<title>Node28</title>
<g id="a_node28"><a xlink:href="classX11Extras.html#abe710bac948c9802105a2d9d06815cac" target="_top" xlink:title="Get appropriate alias for a known KeySym string that might be blank or contain invalid characters whe...">
<polygon fill="white" stroke="black" points="1621,-377 1621,-396 1761,-396 1761,-377 1621,-377"/>
<text text-anchor="middle" x="1691" y="-384" font-family="Helvetica,sans-Serif" font-size="10.00">X11Extras::getDisplayString</text>
</a>
</g>
</g>
<!-- Node24&#45;&gt;Node28 -->
<g id="edge30" class="edge">
<title>Node24&#45;&gt;Node28</title>
<path fill="none" stroke="midnightblue" d="M1543.05,-263.11C1551.41,-266.56 1559.61,-271.23 1566,-277.5 1596.75,-307.67 1569.09,-339.7 1602,-367.5 1604.92,-369.96 1608.08,-372.13 1611.41,-374.04"/>
<polygon fill="midnightblue" stroke="midnightblue" points="1610.07,-377.27 1620.59,-378.49 1613.12,-370.97 1610.07,-377.27"/>
</g>
<!-- Node29 -->
<g id="node29" class="node">
<title>Node29</title>
<g id="a_node29"><a xlink:href="classUInputHelper.html#a61509601d3dbd8933aaa26c1e2db02f6" target="_top" xlink:title=" ">
<polygon fill="white" stroke="black" points="1625.5,-415 1625.5,-434 1756.5,-434 1756.5,-415 1625.5,-415"/>
<text text-anchor="middle" x="1691" y="-422" font-family="Helvetica,sans-Serif" font-size="10.00">UInputHelper::getInstance</text>
</a>
</g>
</g>
<!-- Node24&#45;&gt;Node29 -->
<g id="edge32" class="edge">
<title>Node24&#45;&gt;Node29</title>
<path fill="none" stroke="midnightblue" d="M1544.54,-263.03C1552.53,-266.48 1560.19,-271.16 1566,-277.5 1605.93,-321.07 1558.95,-365.02 1602,-405.5 1606.13,-409.38 1610.85,-412.54 1615.92,-415.11"/>
<polygon fill="midnightblue" stroke="midnightblue" points="1614.78,-418.44 1625.36,-419.13 1617.52,-411.99 1614.78,-418.44"/>
</g>
<!-- Node35 -->
<g id="node35" class="node">
<title>Node35</title>
<g id="a_node35"><a xlink:href="classWinExtras.html#a0bfa711c1abe72486dfebc8ff6fe7f5a" target="_top" xlink:title="Convert a virtual key into the corresponding keyboard scan code.">
<polygon fill="white" stroke="black" points="1602,-339 1602,-358 1780,-358 1780,-339 1602,-339"/>
<text text-anchor="middle" x="1691" y="-346" font-family="Helvetica,sans-Serif" font-size="10.00">WinExtras::scancodeFromVirtualKey</text>
</a>
</g>
</g>
<!-- Node24&#45;&gt;Node35 -->
<g id="edge42" class="edge">
<title>Node24&#45;&gt;Node35</title>
<path fill="none" stroke="midnightblue" d="M1539.08,-263.06C1548.45,-266.61 1558.11,-271.33 1566,-277.5 1588.15,-294.81 1578.63,-313.89 1602,-329.5 1604.95,-331.47 1608.07,-333.24 1611.3,-334.83"/>
<polygon fill="midnightblue" stroke="midnightblue" points="1610.1,-338.12 1620.67,-338.85 1612.86,-331.69 1610.1,-338.12"/>
</g>
<!-- Node27 -->
<g id="node27" class="node">
<title>Node27</title>
<g id="a_node27"><a xlink:href="classUInputHelper.html#a043b0fa7cf4ce5811d01d95f3ca318b7" target="_top" xlink:title=" ">
<polygon fill="white" stroke="black" points="2173,-284.5 2173,-314.5 2329,-314.5 2329,-284.5 2173,-284.5"/>
<text text-anchor="start" x="2181" y="-302.5" font-family="Helvetica,sans-Serif" font-size="10.00">UInputHelper::getKnownAliases</text>
<text text-anchor="middle" x="2251" y="-291.5" font-family="Helvetica,sans-Serif" font-size="10.00">VKStrings</text>
</a>
</g>
</g>
<!-- Node26&#45;&gt;Node27 -->
<g id="edge29" class="edge">
<title>Node26&#45;&gt;Node27</title>
<path fill="none" stroke="midnightblue" d="M2127.04,-285.58C2138.55,-286.88 2150.75,-288.26 2162.82,-289.63"/>
<polygon fill="midnightblue" stroke="midnightblue" points="2162.59,-293.13 2172.92,-290.77 2163.37,-286.17 2162.59,-293.13"/>
</g>
<!-- Node30 -->
<g id="node30" class="node">
<title>Node30</title>
<g id="a_node30"><a xlink:href="classUInputHelper.html#a5d56d23a0e0202435c7a5ff1aca9ce55" target="_top" xlink:title=" ">
<polygon fill="white" stroke="black" points="1816,-407 1816,-426 1954,-426 1954,-407 1816,-407"/>
<text text-anchor="middle" x="1885" y="-414" font-family="Helvetica,sans-Serif" font-size="10.00">UInputHelper::UInputHelper</text>
</a>
</g>
</g>
<!-- Node29&#45;&gt;Node30 -->
<g id="edge33" class="edge">
<title>Node29&#45;&gt;Node30</title>
<path fill="none" stroke="midnightblue" d="M1756.73,-421.8C1772.51,-421.15 1789.55,-420.44 1805.88,-419.75"/>
<polygon fill="midnightblue" stroke="midnightblue" points="1806.09,-423.25 1815.94,-419.34 1805.8,-416.26 1806.09,-423.25"/>
</g>
<!-- Node31 -->
<g id="node31" class="node">
<title>Node31</title>
<g id="a_node31"><a xlink:href="classUInputHelper.html#a0f4dbb4221502d86f7d0af12a9865568" target="_top" xlink:title=" ">
<polygon fill="white" stroke="black" points="1990,-393.5 1990,-423.5 2137,-423.5 2137,-393.5 1990,-393.5"/>
<text text-anchor="start" x="1998" y="-411.5" font-family="Helvetica,sans-Serif" font-size="10.00">UInputHelper::populateKnown</text>
<text text-anchor="middle" x="2063.5" y="-400.5" font-family="Helvetica,sans-Serif" font-size="10.00">Aliases</text>
</a>
</g>
</g>
<!-- Node30&#45;&gt;Node31 -->
<g id="edge34" class="edge">
<title>Node30&#45;&gt;Node31</title>
<path fill="none" stroke="midnightblue" d="M1954.24,-413.41C1962.52,-413.03 1971.04,-412.65 1979.5,-412.26"/>
<polygon fill="midnightblue" stroke="midnightblue" points="1979.93,-415.75 1989.76,-411.8 1979.62,-408.75 1979.93,-415.75"/>
</g>
<!-- Node31&#45;&gt;Node27 -->
<g id="edge35" class="edge">
<title>Node31&#45;&gt;Node27</title>
<path fill="none" stroke="midnightblue" d="M2085.09,-393.24C2106.47,-377.73 2141.18,-353.5 2173,-335.5 2183.33,-329.66 2194.77,-323.93 2205.61,-318.83"/>
<polygon fill="midnightblue" stroke="midnightblue" points="2207.32,-321.89 2214.93,-314.51 2204.38,-315.54 2207.32,-321.89"/>
</g>
<!-- Node32 -->
<g id="node32" class="node">
<title>Node32</title>
<g id="a_node32"><a xlink:href="classUInputHelper.html#a8f3fe71ae635cd3c46eaab79dd11c2e0" target="_top" xlink:title=" ">
<polygon fill="white" stroke="black" points="2173,-442.5 2173,-472.5 2329,-472.5 2329,-442.5 2173,-442.5"/>
<text text-anchor="start" x="2181" y="-460.5" font-family="Helvetica,sans-Serif" font-size="10.00">UInputHelper::getKnownAliases</text>
<text text-anchor="middle" x="2251" y="-449.5" font-family="Helvetica,sans-Serif" font-size="10.00">X11SymVK</text>
</a>
</g>
</g>
<!-- Node31&#45;&gt;Node32 -->
<g id="edge36" class="edge">
<title>Node31&#45;&gt;Node32</title>
<path fill="none" stroke="midnightblue" d="M2121.42,-423.53C2141,-428.71 2163.11,-434.55 2183.4,-439.91"/>
<polygon fill="midnightblue" stroke="midnightblue" points="2182.63,-443.32 2193.19,-442.49 2184.42,-436.56 2182.63,-443.32"/>
</g>
<!-- Node33 -->
<g id="node33" class="node">
<title>Node33</title>
<g id="a_node33"><a xlink:href="classUInputHelper.html#a9793030329fbbe1106b255814ef2bd0f" target="_top" xlink:title=" ">
<polygon fill="white" stroke="black" points="2184,-393.5 2184,-423.5 2318,-423.5 2318,-393.5 2184,-393.5"/>
<text text-anchor="start" x="2192" y="-411.5" font-family="Helvetica,sans-Serif" font-size="10.00">UInputHelper::populateX11</text>
<text text-anchor="middle" x="2251" y="-400.5" font-family="Helvetica,sans-Serif" font-size="10.00">SymVk</text>
</a>
</g>
</g>
<!-- Node31&#45;&gt;Node33 -->
<g id="edge37" class="edge">
<title>Node31&#45;&gt;Node33</title>
<path fill="none" stroke="midnightblue" d="M2137.02,-408.5C2149.08,-408.5 2161.63,-408.5 2173.79,-408.5"/>
<polygon fill="midnightblue" stroke="midnightblue" points="2173.89,-412 2183.89,-408.5 2173.89,-405 2173.89,-412"/>
</g>
<!-- Node34 -->
<g id="node34" class="node">
<title>Node34</title>
<g id="a_node34"><a xlink:href="classUInputHelper.html#af02574de230bb0550eebb63f5a669681" target="_top" xlink:title=" ">
<polygon fill="white" stroke="black" points="2183,-344.5 2183,-374.5 2319,-374.5 2319,-344.5 2183,-344.5"/>
<text text-anchor="start" x="2191" y="-362.5" font-family="Helvetica,sans-Serif" font-size="10.00">UInputHelper::populateXVk</text>
<text text-anchor="middle" x="2251" y="-351.5" font-family="Helvetica,sans-Serif" font-size="10.00">Strings</text>
</a>
</g>
</g>
<!-- Node31&#45;&gt;Node34 -->
<g id="edge38" class="edge">
<title>Node31&#45;&gt;Node34</title>
<path fill="none" stroke="midnightblue" d="M2121.42,-393.47C2141,-388.29 2163.11,-382.45 2183.4,-377.09"/>
<polygon fill="midnightblue" stroke="midnightblue" points="2184.42,-380.44 2193.19,-374.51 2182.63,-373.68 2184.42,-380.44"/>
</g>
<!-- Node40&#45;&gt;Node8 -->
<g id="edge49" class="edge">
<title>Node40&#45;&gt;Node8</title>
<path fill="none" stroke="midnightblue" d="M818.21,-83.95C868.07,-73.74 954.92,-60.74 1028,-74.5 1055.39,-79.66 1084.81,-91.77 1105.52,-101.5"/>
<polygon fill="midnightblue" stroke="midnightblue" points="1104.13,-104.72 1114.66,-105.91 1107.17,-98.41 1104.13,-104.72"/>
</g>
<!-- Node40&#45;&gt;Node37 -->
<g id="edge50" class="edge">
<title>Node40&#45;&gt;Node37</title>
<path fill="none" stroke="midnightblue" d="M849.13,-93.5C859.75,-93.5 870.7,-93.5 881.37,-93.5"/>
<polygon fill="midnightblue" stroke="midnightblue" points="881.48,-97 891.48,-93.5 881.48,-90 881.48,-97"/>
</g>
<!-- Node40&#45;&gt;Node38 -->
<g id="edge52" class="edge">
<title>Node40&#45;&gt;Node38</title>
<path fill="none" stroke="midnightblue" d="M815.53,-103.01C826.74,-106.66 838.74,-111.45 849,-117.5 867.7,-128.53 865.98,-140.04 885,-150.5 889.16,-152.78 893.6,-154.81 898.16,-156.59"/>
<polygon fill="midnightblue" stroke="midnightblue" points="897.05,-159.91 907.64,-159.95 899.38,-153.31 897.05,-159.91"/>
</g>
<!-- Node40&#45;&gt;Node41 -->
<g id="edge51" class="edge">
<title>Node40&#45;&gt;Node41</title>
<path fill="none" stroke="midnightblue" d="M795.45,-83.98C816.55,-72.98 852.78,-54.72 885,-41.5 894.6,-37.56 905.11,-33.73 915.01,-30.33"/>
<polygon fill="midnightblue" stroke="midnightblue" points="916.3,-33.6 924.66,-27.09 914.07,-26.96 916.3,-33.6"/>
</g>
</g>
</svg>
        <g id="navigator" transform="translate(0 0)" fill="#404254">
                <rect fill="#f2f5e9" fill-opacity="0.5" stroke="#606060" stroke-width=".5" x="0" y="0" width="60" height="60"/>
                <use id="zoomplus" xlink:href="#zoomPlus" x="17" y="9" onmousedown="handleZoom(evt,'in')"/>
                <use id="zoomminus" xlink:href="#zoomMin" x="42" y="9" onmousedown="handleZoom(evt,'out')"/>
                <use id="reset" xlink:href="#resetDef" x="30" y="36" onmousedown="handleReset()"/>
                <g id="arrowUp" xlink:href="#dirArrow" transform="translate(30 24)" onmousedown="handlePan(0,-1)">
                  <use xlink:href="#rim" fill="#404040">
                        <set attributeName="fill" to="#808080" begin="arrowUp.mouseover" end="arrowUp.mouseout"/>
                  </use>
                  <path fill="none" stroke="white" stroke-width="1.5" d="M0,-3.0v7 M-2.5,-0.5L0,-3.0L2.5,-0.5"/>
                </g>
                <g id="arrowRight" xlink:href="#dirArrow" transform="rotate(90) translate(36 -43)" onmousedown="handlePan(1,0)">
                  <use xlink:href="#rim" fill="#404040">
                        <set attributeName="fill" to="#808080" begin="arrowRight.mouseover" end="arrowRight.mouseout"/>
                  </use>
                  <path fill="none" stroke="white" stroke-width="1.5" d="M0,-3.0v7 M-2.5,-0.5L0,-3.0L2.5,-0.5"/>
                </g>
                <g id="arrowDown" xlink:href="#dirArrow" transform="rotate(180) translate(-30 -48)" onmousedown="handlePan(0,1)">
                  <use xlink:href="#rim" fill="#404040">
                        <set attributeName="fill" to="#808080" begin="arrowDown.mouseover" end="arrowDown.mouseout"/>
                  </use>
                  <path fill="none" stroke="white" stroke-width="1.5" d="M0,-3.0v7 M-2.5,-0.5L0,-3.0L2.5,-0.5"/>
                </g>
                <g id="arrowLeft" xlink:href="#dirArrow" transform="rotate(270) translate(-36 17)" onmousedown="handlePan(-1,0)">
                  <use xlink:href="#rim" fill="#404040">
                        <set attributeName="fill" to="#808080" begin="arrowLeft.mouseover" end="arrowLeft.mouseout"/>
                  </use>
                  <path fill="none" stroke="white" stroke-width="1.5" d="M0,-3.0v7 M-2.5,-0.5L0,-3.0L2.5,-0.5"/>
                </g>
        </g>
        <svg viewBox="0 0 15 15" width="100%" height="30px" preserveAspectRatio="xMaxYMin meet">
         <g id="arrow_out" transform="scale(0.3 0.3)">
          <a xlink:href="classAdvanceButtonDialogHelper_a66986c8b553293791cc48613050571fa_cgraph_org.svg" target="_base">
           <rect id="button" ry="5" rx="5" y="6" x="6" height="38" width="38"
                fill="#f2f5e9" fill-opacity="0.5" stroke="#606060" stroke-width="1.0"/>
           <path id="arrow"
             d="M 11.500037,31.436501 C 11.940474,20.09759 22.043105,11.32322 32.158766,21.979434 L 37.068811,17.246167 C 37.068811,17.246167 37.088388,32 37.088388,32 L 22.160133,31.978069 C 22.160133,31.978069 26.997745,27.140456 26.997745,27.140456 C 18.528582,18.264221 13.291696,25.230495 11.500037,31.436501 z"
             style="fill:#404040;"/>
          </a>
         </g>
        </svg>
</svg>
