<?xml version="1.0" encoding="UTF-8" standalone="no"?>
<!DOCTYPE svg PUBLIC "-//W3C//DTD SVG 1.1//EN"
 "http://www.w3.org/Graphics/SVG/1.1/DTD/svg11.dtd">
<!-- Generated by graphviz version 2.43.0 (0)
 -->
<!-- Title: JoyButton::stopTimers Pages: 1 -->
<svg width="1476pt" height="887pt"
 viewBox="0.00 0.00 1476.00 886.50" xmlns="http://www.w3.org/2000/svg" xmlns:xlink="http://www.w3.org/1999/xlink">
<g id="graph0" class="graph" transform="scale(1 1) rotate(0) translate(4 882.5)">
<title>JoyButton::stopTimers</title>
<polygon fill="white" stroke="transparent" points="-4,4 -4,-882.5 1472,-882.5 1472,4 -4,4"/>
<!-- Node1 -->
<g id="node1" class="node">
<title>Node1</title>
<g id="a_node1"><a xlink:title=" ">
<polygon fill="#bfbfbf" stroke="black" points="1352,-270.5 1352,-289.5 1468,-289.5 1468,-270.5 1352,-270.5"/>
<text text-anchor="middle" x="1410" y="-277.5" font-family="Helvetica,sans-Serif" font-size="10.00">JoyButton::stopTimers</text>
</a>
</g>
</g>
<!-- Node2 -->
<g id="node2" class="node">
<title>Node2</title>
<g id="a_node2"><a xlink:href="$classJoyButton.html#a04aadf5bd54cd6fde12426dce5b03196" xlink:title=" ">
<polygon fill="white" stroke="black" points="1181,-554 1181,-584 1316,-584 1316,-554 1181,-554"/>
<text text-anchor="start" x="1189" y="-572" font-family="Helvetica,sans-Serif" font-size="10.00">JoyButton::clearSlotsEvent</text>
<text text-anchor="middle" x="1248.5" y="-561" font-family="Helvetica,sans-Serif" font-size="10.00">Reset</text>
</a>
</g>
</g>
<!-- Node1&#45;&gt;Node2 -->
<g id="edge1" class="edge">
<title>Node1&#45;&gt;Node2</title>
<path fill="none" stroke="midnightblue" d="M1398.71,-298.65C1369.23,-352.06 1284.88,-504.89 1257.91,-553.77"/>
<polygon fill="midnightblue" stroke="midnightblue" points="1401.93,-300.06 1403.69,-289.62 1395.8,-296.68 1401.93,-300.06"/>
</g>
<!-- Node15 -->
<g id="node15" class="node">
<title>Node15</title>
<g id="a_node15"><a xlink:href="$classJoyButton.html#ae8bc1417525f44cbb811be752146c25c" xlink:title=" ">
<polygon fill="white" stroke="black" points="798.5,-377.5 798.5,-396.5 914.5,-396.5 914.5,-377.5 798.5,-377.5"/>
<text text-anchor="middle" x="856.5" y="-384.5" font-family="Helvetica,sans-Serif" font-size="10.00">JoyButton::eventReset</text>
</a>
</g>
</g>
<!-- Node1&#45;&gt;Node15 -->
<g id="edge14" class="edge">
<title>Node1&#45;&gt;Node15</title>
<path fill="none" stroke="midnightblue" d="M1341.86,-270.17C1252.74,-259.92 1091.98,-251.27 966,-299 921.77,-315.76 881.97,-358.04 865.51,-377.25"/>
<polygon fill="midnightblue" stroke="midnightblue" points="1341.49,-273.65 1351.84,-271.36 1342.32,-266.7 1341.49,-273.65"/>
</g>
<!-- Node37 -->
<g id="node37" class="node">
<title>Node37</title>
<g id="a_node37"><a xlink:href="$classJoyButton.html#a0d10908f5a06ca73366ca988d985933b" xlink:title=" ">
<polygon fill="white" stroke="black" points="1185.5,-232.5 1185.5,-251.5 1311.5,-251.5 1311.5,-232.5 1185.5,-232.5"/>
<text text-anchor="middle" x="1248.5" y="-239.5" font-family="Helvetica,sans-Serif" font-size="10.00">JoyButton::resetPrivVars</text>
</a>
</g>
</g>
<!-- Node1&#45;&gt;Node37 -->
<g id="edge44" class="edge">
<title>Node1&#45;&gt;Node37</title>
<path fill="none" stroke="midnightblue" d="M1358.77,-268.03C1336.41,-262.71 1310.46,-256.52 1289.46,-251.52"/>
<polygon fill="midnightblue" stroke="midnightblue" points="1358.21,-271.5 1368.75,-270.41 1359.83,-264.69 1358.21,-271.5"/>
</g>
<!-- Node3 -->
<g id="node3" class="node">
<title>Node3</title>
<g id="a_node3"><a xlink:href="$classJoyAxisContextMenuHelper.html#ad50e929e28d85dcf66193c59753c71ce" xlink:title=" ">
<polygon fill="white" stroke="black" points="985.5,-554 985.5,-584 1125.5,-584 1125.5,-554 985.5,-554"/>
<text text-anchor="start" x="993.5" y="-572" font-family="Helvetica,sans-Serif" font-size="10.00">JoyAxisContextMenuHelper</text>
<text text-anchor="middle" x="1055.5" y="-561" font-family="Helvetica,sans-Serif" font-size="10.00">::clearAndResetAxisButtons</text>
</a>
</g>
</g>
<!-- Node2&#45;&gt;Node3 -->
<g id="edge2" class="edge">
<title>Node2&#45;&gt;Node3</title>
<path fill="none" stroke="midnightblue" d="M1170.77,-569C1155.88,-569 1140.35,-569 1125.71,-569"/>
<polygon fill="midnightblue" stroke="midnightblue" points="1170.97,-572.5 1180.97,-569 1170.97,-565.5 1170.97,-572.5"/>
</g>
<!-- Node4 -->
<g id="node4" class="node">
<title>Node4</title>
<g id="a_node4"><a xlink:href="$classJoyControlStickEditDialogHelper.html#a3971cdde1f78981f07ac2d8563e61b8c" xlink:title=" ">
<polygon fill="white" stroke="black" points="966,-505 966,-535 1145,-535 1145,-505 966,-505"/>
<text text-anchor="start" x="974" y="-523" font-family="Helvetica,sans-Serif" font-size="10.00">JoyControlStickEditDialog</text>
<text text-anchor="middle" x="1055.5" y="-512" font-family="Helvetica,sans-Serif" font-size="10.00">Helper::clearButtonsSlotsEventReset</text>
</a>
</g>
</g>
<!-- Node2&#45;&gt;Node4 -->
<g id="edge3" class="edge">
<title>Node2&#45;&gt;Node4</title>
<path fill="none" stroke="midnightblue" d="M1179.09,-551.45C1158.12,-546.07 1135.24,-540.2 1114.99,-535.01"/>
<polygon fill="midnightblue" stroke="midnightblue" points="1178.34,-554.87 1188.9,-553.97 1180.08,-548.09 1178.34,-554.87"/>
</g>
<!-- Node5 -->
<g id="node5" class="node">
<title>Node5</title>
<g id="a_node5"><a xlink:href="$classJoyControlStickContextMenuHelper.html#a6d523f35bf8983898ac197c13191410b" xlink:title=" ">
<polygon fill="white" stroke="black" points="966,-456 966,-486 1145,-486 1145,-456 966,-456"/>
<text text-anchor="start" x="974" y="-474" font-family="Helvetica,sans-Serif" font-size="10.00">JoyControlStickContextMenu</text>
<text text-anchor="middle" x="1055.5" y="-463" font-family="Helvetica,sans-Serif" font-size="10.00">Helper::clearButtonsSlotsEventReset</text>
</a>
</g>
</g>
<!-- Node2&#45;&gt;Node5 -->
<g id="edge4" class="edge">
<title>Node2&#45;&gt;Node5</title>
<path fill="none" stroke="midnightblue" d="M1222.25,-547.24C1202.4,-531.11 1173.44,-509.64 1145,-496 1137.08,-492.2 1128.48,-488.88 1119.86,-486.01"/>
<polygon fill="midnightblue" stroke="midnightblue" points="1220.24,-550.12 1230.17,-553.79 1224.7,-544.72 1220.24,-550.12"/>
</g>
<!-- Node6 -->
<g id="node6" class="node">
<title>Node6</title>
<g id="a_node6"><a xlink:href="$classDPadContextMenuHelper.html#a586c406fa21f53ca137fe56d0cf236fd" xlink:title=" ">
<polygon fill="white" stroke="black" points="980.5,-407 980.5,-437 1130.5,-437 1130.5,-407 980.5,-407"/>
<text text-anchor="start" x="988.5" y="-425" font-family="Helvetica,sans-Serif" font-size="10.00">DPadContextMenuHelper</text>
<text text-anchor="middle" x="1055.5" y="-414" font-family="Helvetica,sans-Serif" font-size="10.00">::clearButtonsSlotsEventReset</text>
</a>
</g>
</g>
<!-- Node2&#45;&gt;Node6 -->
<g id="edge5" class="edge">
<title>Node2&#45;&gt;Node6</title>
<path fill="none" stroke="midnightblue" d="M1233.61,-545.05C1216.32,-517.36 1184.25,-472.36 1145,-447 1138.97,-443.1 1132.32,-439.8 1125.46,-437.01"/>
<polygon fill="midnightblue" stroke="midnightblue" points="1230.7,-547 1238.89,-553.72 1236.68,-543.36 1230.7,-547"/>
</g>
<!-- Node7 -->
<g id="node7" class="node">
<title>Node7</title>
<g id="a_node7"><a xlink:href="$classDPadEditDialogHelper.html#add08a863a14dee0fed6c437c4b2f5631" xlink:title=" ">
<polygon fill="white" stroke="black" points="980.5,-358 980.5,-388 1130.5,-388 1130.5,-358 980.5,-358"/>
<text text-anchor="start" x="988.5" y="-376" font-family="Helvetica,sans-Serif" font-size="10.00">DPadEditDialogHelper</text>
<text text-anchor="middle" x="1055.5" y="-365" font-family="Helvetica,sans-Serif" font-size="10.00">::clearButtonsSlotsEventReset</text>
</a>
</g>
</g>
<!-- Node2&#45;&gt;Node7 -->
<g id="edge6" class="edge">
<title>Node2&#45;&gt;Node7</title>
<path fill="none" stroke="midnightblue" d="M1239.38,-544.21C1225.85,-506.83 1195.13,-436.35 1145,-398 1139.93,-394.12 1134.28,-390.84 1128.36,-388.07"/>
<polygon fill="midnightblue" stroke="midnightblue" points="1236.13,-545.54 1242.74,-553.82 1242.74,-543.22 1236.13,-545.54"/>
</g>
<!-- Node8 -->
<g id="node8" class="node">
<title>Node8</title>
<g id="a_node8"><a xlink:href="$classButtonEditDialogHelper.html#ae0c8bd126dcedd33ced87883cd4da566" xlink:title=" ">
<polygon fill="white" stroke="black" points="996,-309 996,-339 1115,-339 1115,-309 996,-309"/>
<text text-anchor="start" x="1004" y="-327" font-family="Helvetica,sans-Serif" font-size="10.00">ButtonEditDialogHelper</text>
<text text-anchor="middle" x="1055.5" y="-316" font-family="Helvetica,sans-Serif" font-size="10.00">::setAssignedSlot</text>
</a>
</g>
</g>
<!-- Node2&#45;&gt;Node8 -->
<g id="edge7" class="edge">
<title>Node2&#45;&gt;Node8</title>
<path fill="none" stroke="midnightblue" d="M1243,-543.69C1233.46,-497.65 1206.81,-400.13 1145,-348 1136.48,-340.82 1126,-335.77 1115.28,-332.22"/>
<polygon fill="midnightblue" stroke="midnightblue" points="1239.61,-544.59 1244.97,-553.72 1246.48,-543.24 1239.61,-544.59"/>
</g>
<!-- Node9 -->
<g id="node9" class="node">
<title>Node9</title>
<g id="a_node9"><a xlink:href="$classJoyControlStickEditDialogHelper.html#afe11e24f991d5d825a6ed3b7a7f0a5a6" xlink:title=" ">
<polygon fill="white" stroke="black" points="983.5,-848 983.5,-878 1127.5,-878 1127.5,-848 983.5,-848"/>
<text text-anchor="start" x="991.5" y="-866" font-family="Helvetica,sans-Serif" font-size="10.00">JoyControlStickEditDialog</text>
<text text-anchor="middle" x="1055.5" y="-855" font-family="Helvetica,sans-Serif" font-size="10.00">Helper::setFromPendingSlots</text>
</a>
</g>
</g>
<!-- Node2&#45;&gt;Node9 -->
<g id="edge8" class="edge">
<title>Node2&#45;&gt;Node9</title>
<path fill="none" stroke="midnightblue" d="M1245.41,-594.14C1239.62,-647.44 1218.5,-772.37 1145,-839 1139.93,-843.6 1134.06,-847.33 1127.82,-850.35"/>
<polygon fill="midnightblue" stroke="midnightblue" points="1248.9,-594.48 1246.41,-584.18 1241.93,-593.79 1248.9,-594.48"/>
</g>
<!-- Node10 -->
<g id="node10" class="node">
<title>Node10</title>
<g id="a_node10"><a xlink:href="$classJoyControlStickContextMenuHelper.html#ac0fbd4e209aedcd20d547081e80291d1" xlink:title=" ">
<polygon fill="white" stroke="black" points="983,-799 983,-829 1128,-829 1128,-799 983,-799"/>
<text text-anchor="start" x="991" y="-817" font-family="Helvetica,sans-Serif" font-size="10.00">JoyControlStickContextMenu</text>
<text text-anchor="middle" x="1055.5" y="-806" font-family="Helvetica,sans-Serif" font-size="10.00">Helper::setFromPendingSlots</text>
</a>
</g>
</g>
<!-- Node2&#45;&gt;Node10 -->
<g id="edge9" class="edge">
<title>Node2&#45;&gt;Node10</title>
<path fill="none" stroke="midnightblue" d="M1243,-594.31C1233.46,-640.35 1206.81,-737.87 1145,-790 1140.01,-794.21 1134.35,-797.68 1128.36,-800.55"/>
<polygon fill="midnightblue" stroke="midnightblue" points="1246.48,-594.76 1244.97,-584.28 1239.61,-593.41 1246.48,-594.76"/>
</g>
<!-- Node11 -->
<g id="node11" class="node">
<title>Node11</title>
<g id="a_node11"><a xlink:href="$classDPadContextMenuHelper.html#a4a8d1d9c4ec96d3de8ff69c9afdd560b" xlink:title=" ">
<polygon fill="white" stroke="black" points="991.5,-750 991.5,-780 1119.5,-780 1119.5,-750 991.5,-750"/>
<text text-anchor="start" x="999.5" y="-768" font-family="Helvetica,sans-Serif" font-size="10.00">DPadContextMenuHelper</text>
<text text-anchor="middle" x="1055.5" y="-757" font-family="Helvetica,sans-Serif" font-size="10.00">::setFromPendingSlots</text>
</a>
</g>
</g>
<!-- Node2&#45;&gt;Node11 -->
<g id="edge10" class="edge">
<title>Node2&#45;&gt;Node11</title>
<path fill="none" stroke="midnightblue" d="M1239.57,-593.72C1226.22,-631.32 1195.62,-702.59 1145,-741 1137.52,-746.68 1128.78,-751.01 1119.77,-754.32"/>
<polygon fill="midnightblue" stroke="midnightblue" points="1242.95,-594.65 1242.88,-584.06 1236.33,-592.38 1242.95,-594.65"/>
</g>
<!-- Node12 -->
<g id="node12" class="node">
<title>Node12</title>
<g id="a_node12"><a xlink:href="$classDPadEditDialogHelper.html#a15e31302f41da2df05eec55810fc9b1e" xlink:title=" ">
<polygon fill="white" stroke="black" points="997.5,-701 997.5,-731 1113.5,-731 1113.5,-701 997.5,-701"/>
<text text-anchor="start" x="1005.5" y="-719" font-family="Helvetica,sans-Serif" font-size="10.00">DPadEditDialogHelper</text>
<text text-anchor="middle" x="1055.5" y="-708" font-family="Helvetica,sans-Serif" font-size="10.00">::setFromPendingSlots</text>
</a>
</g>
</g>
<!-- Node2&#45;&gt;Node12 -->
<g id="edge11" class="edge">
<title>Node2&#45;&gt;Node12</title>
<path fill="none" stroke="midnightblue" d="M1233.98,-592.77C1216.85,-620.72 1184.73,-666.51 1145,-692 1135.62,-698.02 1124.75,-702.54 1113.91,-705.93"/>
<polygon fill="midnightblue" stroke="midnightblue" points="1237.07,-594.41 1239.2,-584.04 1231.06,-590.82 1237.07,-594.41"/>
</g>
<!-- Node13 -->
<g id="node13" class="node">
<title>Node13</title>
<g id="a_node13"><a xlink:href="$classJoyAxisContextMenuHelper.html#ad2e0df387f0d979acb676364889f31fe" xlink:title=" ">
<polygon fill="white" stroke="black" points="986,-652 986,-682 1125,-682 1125,-652 986,-652"/>
<text text-anchor="start" x="994" y="-670" font-family="Helvetica,sans-Serif" font-size="10.00">JoyAxisContextMenuHelper</text>
<text text-anchor="middle" x="1055.5" y="-659" font-family="Helvetica,sans-Serif" font-size="10.00">::setNAssignedSlot</text>
</a>
</g>
</g>
<!-- Node2&#45;&gt;Node13 -->
<g id="edge12" class="edge">
<title>Node2&#45;&gt;Node13</title>
<path fill="none" stroke="midnightblue" d="M1222.7,-590.86C1202.89,-607.3 1173.77,-629.28 1145,-643 1137.96,-646.36 1130.37,-649.31 1122.7,-651.89"/>
<polygon fill="midnightblue" stroke="midnightblue" points="1225.22,-593.32 1230.6,-584.19 1220.7,-587.97 1225.22,-593.32"/>
</g>
<!-- Node14 -->
<g id="node14" class="node">
<title>Node14</title>
<g id="a_node14"><a xlink:href="$classJoyAxisContextMenuHelper.html#abeb45b1b03177dbb96744d86811396e8" xlink:title=" ">
<polygon fill="white" stroke="black" points="986,-603 986,-633 1125,-633 1125,-603 986,-603"/>
<text text-anchor="start" x="994" y="-621" font-family="Helvetica,sans-Serif" font-size="10.00">JoyAxisContextMenuHelper</text>
<text text-anchor="middle" x="1055.5" y="-610" font-family="Helvetica,sans-Serif" font-size="10.00">::setPAssignedSlot</text>
</a>
</g>
</g>
<!-- Node2&#45;&gt;Node14 -->
<g id="edge13" class="edge">
<title>Node2&#45;&gt;Node14</title>
<path fill="none" stroke="midnightblue" d="M1179.09,-586.55C1158.12,-591.93 1135.24,-597.8 1114.99,-602.99"/>
<polygon fill="midnightblue" stroke="midnightblue" points="1180.08,-589.91 1188.9,-584.03 1178.34,-583.13 1180.08,-589.91"/>
</g>
<!-- Node16 -->
<g id="node16" class="node">
<title>Node16</title>
<g id="a_node16"><a xlink:href="$classJoyButton.html#a5f380246b40f29a3349500b8efc2f997" xlink:title="Copy assignments and properties from one button to another. Used for set copying.">
<polygon fill="white" stroke="black" points="602,-240.5 602,-259.5 747,-259.5 747,-240.5 602,-240.5"/>
<text text-anchor="middle" x="674.5" y="-247.5" font-family="Helvetica,sans-Serif" font-size="10.00">JoyButton::copyAssignments</text>
</a>
</g>
</g>
<!-- Node15&#45;&gt;Node16 -->
<g id="edge15" class="edge">
<title>Node15&#45;&gt;Node16</title>
<path fill="none" stroke="midnightblue" d="M843.8,-368.78C826.06,-342.67 789.85,-294.89 747,-269 740.62,-265.15 733.47,-262.07 726.21,-259.6"/>
<polygon fill="midnightblue" stroke="midnightblue" points="841.03,-370.95 849.48,-377.34 846.87,-367.08 841.03,-370.95"/>
</g>
<!-- Node21 -->
<g id="node21" class="node">
<title>Node21</title>
<g id="a_node21"><a xlink:href="$classJoyDPad.html#a2b41cc51a860cc9b1475938c16da5dba" xlink:title=" ">
<polygon fill="white" stroke="black" points="618.5,-415.5 618.5,-434.5 730.5,-434.5 730.5,-415.5 618.5,-415.5"/>
<text text-anchor="middle" x="674.5" y="-422.5" font-family="Helvetica,sans-Serif" font-size="10.00">JoyDPad::eventReset</text>
</a>
</g>
</g>
<!-- Node15&#45;&gt;Node21 -->
<g id="edge23" class="edge">
<title>Node15&#45;&gt;Node21</title>
<path fill="none" stroke="midnightblue" d="M800.17,-398.68C774.64,-404.07 744.72,-410.39 720.59,-415.48"/>
<polygon fill="midnightblue" stroke="midnightblue" points="801.02,-402.08 810.08,-396.59 799.57,-395.23 801.02,-402.08"/>
</g>
<!-- Node22 -->
<g id="node22" class="node">
<title>Node22</title>
<g id="a_node22"><a xlink:href="$classSetJoystick.html#aa93108aaa5ccbf15f1b56b22ec73798b" xlink:title="Perform a release of all elements of a set. Stick and vdpad releases will be handled by the associate...">
<polygon fill="white" stroke="black" points="429,-415.5 429,-434.5 533,-434.5 533,-415.5 429,-415.5"/>
<text text-anchor="middle" x="481" y="-422.5" font-family="Helvetica,sans-Serif" font-size="10.00">SetJoystick::release</text>
</a>
</g>
</g>
<!-- Node15&#45;&gt;Node22 -->
<g id="edge41" class="edge">
<title>Node15&#45;&gt;Node22</title>
<path fill="none" stroke="midnightblue" d="M833.84,-402.44C812.81,-416.42 779.39,-436.01 747,-444 667.06,-463.72 569.76,-446.7 518.18,-434.59"/>
<polygon fill="midnightblue" stroke="midnightblue" points="836.03,-405.19 842.32,-396.66 832.09,-399.4 836.03,-405.19"/>
</g>
<!-- Node32 -->
<g id="node32" class="node">
<title>Node32</title>
<g id="a_node32"><a xlink:href="$classJoyAxis.html#afdab5ac18d52b640d58355ca48b69e09" xlink:title=" ">
<polygon fill="white" stroke="black" points="621,-377.5 621,-396.5 728,-396.5 728,-377.5 621,-377.5"/>
<text text-anchor="middle" x="674.5" y="-384.5" font-family="Helvetica,sans-Serif" font-size="10.00">JoyAxis::eventReset</text>
</a>
</g>
</g>
<!-- Node15&#45;&gt;Node32 -->
<g id="edge37" class="edge">
<title>Node15&#45;&gt;Node32</title>
<path fill="none" stroke="midnightblue" d="M787.88,-387C768.12,-387 746.82,-387 728.13,-387"/>
<polygon fill="midnightblue" stroke="midnightblue" points="788.05,-390.5 798.05,-387 788.05,-383.5 788.05,-390.5"/>
</g>
<!-- Node33 -->
<g id="node33" class="node">
<title>Node33</title>
<g id="a_node33"><a xlink:href="$classAdvanceButtonDialogHelper.html#ae2e882e5267140a7e995d254db152312" xlink:title=" ">
<polygon fill="white" stroke="black" points="605,-328 605,-358 744,-358 744,-328 605,-328"/>
<text text-anchor="start" x="613" y="-346" font-family="Helvetica,sans-Serif" font-size="10.00">AdvanceButtonDialogHelper</text>
<text text-anchor="middle" x="674.5" y="-335" font-family="Helvetica,sans-Serif" font-size="10.00">::insertAssignedSlot</text>
</a>
</g>
</g>
<!-- Node15&#45;&gt;Node33 -->
<g id="edge39" class="edge">
<title>Node15&#45;&gt;Node33</title>
<path fill="none" stroke="midnightblue" d="M806.59,-375.04C785.18,-369.81 759.82,-363.61 737.13,-358.07"/>
<polygon fill="midnightblue" stroke="midnightblue" points="805.9,-378.48 816.44,-377.45 807.56,-371.68 805.9,-378.48"/>
</g>
<!-- Node34 -->
<g id="node34" class="node">
<title>Node34</title>
<g id="a_node34"><a xlink:href="$classAdvanceButtonDialogHelper.html#add82ea506ac0aeeb44830a10c46bde2a" xlink:title=" ">
<polygon fill="white" stroke="black" points="605,-279 605,-309 744,-309 744,-279 605,-279"/>
<text text-anchor="start" x="613" y="-297" font-family="Helvetica,sans-Serif" font-size="10.00">AdvanceButtonDialogHelper</text>
<text text-anchor="middle" x="674.5" y="-286" font-family="Helvetica,sans-Serif" font-size="10.00">::onlyReset</text>
</a>
</g>
</g>
<!-- Node15&#45;&gt;Node34 -->
<g id="edge40" class="edge">
<title>Node15&#45;&gt;Node34</title>
<path fill="none" stroke="midnightblue" d="M834.47,-371.44C813.24,-356.27 779.09,-333.31 747,-318 740.26,-314.79 732.98,-311.81 725.73,-309.13"/>
<polygon fill="midnightblue" stroke="midnightblue" points="832.58,-374.4 842.74,-377.42 836.69,-368.72 832.58,-374.4"/>
</g>
<!-- Node35 -->
<g id="node35" class="node">
<title>Node35</title>
<g id="a_node35"><a xlink:href="$classAdvanceButtonDialogHelper.html#ad773014089c34e4ebc43fd8f9b789fa5" xlink:title=" ">
<polygon fill="white" stroke="black" points="605,-541 605,-571 744,-571 744,-541 605,-541"/>
<text text-anchor="start" x="613" y="-559" font-family="Helvetica,sans-Serif" font-size="10.00">AdvanceButtonDialogHelper</text>
<text text-anchor="middle" x="674.5" y="-548" font-family="Helvetica,sans-Serif" font-size="10.00">::removeAssignedSlot</text>
</a>
</g>
</g>
<!-- Node15&#45;&gt;Node35 -->
<g id="edge42" class="edge">
<title>Node15&#45;&gt;Node35</title>
<path fill="none" stroke="midnightblue" d="M846.22,-405.92C830.18,-436.73 794.38,-497.73 747,-532 742.33,-535.38 737.16,-538.3 731.78,-540.83"/>
<polygon fill="midnightblue" stroke="midnightblue" points="849.49,-407.21 850.89,-396.71 843.25,-404.05 849.49,-407.21"/>
</g>
<!-- Node36 -->
<g id="node36" class="node">
<title>Node36</title>
<g id="a_node36"><a xlink:href="$classAdvanceButtonDialogHelper.html#ace294cb1befe2c657dc7cd94456353fa" xlink:title=" ">
<polygon fill="white" stroke="black" points="605,-492 605,-522 744,-522 744,-492 605,-492"/>
<text text-anchor="start" x="613" y="-510" font-family="Helvetica,sans-Serif" font-size="10.00">AdvanceButtonDialogHelper</text>
<text text-anchor="middle" x="674.5" y="-499" font-family="Helvetica,sans-Serif" font-size="10.00">::setAssignedSlot</text>
</a>
</g>
</g>
<!-- Node15&#45;&gt;Node36 -->
<g id="edge43" class="edge">
<title>Node15&#45;&gt;Node36</title>
<path fill="none" stroke="midnightblue" d="M838.54,-403.82C818.16,-423.35 782.29,-455.61 747,-477 737.79,-482.58 727.35,-487.6 717.36,-491.87"/>
<polygon fill="midnightblue" stroke="midnightblue" points="841.06,-406.25 845.8,-396.77 836.19,-401.23 841.06,-406.25"/>
</g>
<!-- Node17 -->
<g id="node17" class="node">
<title>Node17</title>
<g id="a_node17"><a xlink:href="$classJoyControlStick.html#a57b418a495a22ea5182e89ef4a6cf233" xlink:title="Copy slots from all stick buttons and properties from a stick onto another.">
<polygon fill="white" stroke="black" points="396,-172.5 396,-191.5 566,-191.5 566,-172.5 396,-172.5"/>
<text text-anchor="middle" x="481" y="-179.5" font-family="Helvetica,sans-Serif" font-size="10.00">JoyControlStick::copyAssignments</text>
</a>
</g>
</g>
<!-- Node16&#45;&gt;Node17 -->
<g id="edge16" class="edge">
<title>Node16&#45;&gt;Node17</title>
<path fill="none" stroke="midnightblue" d="M616.29,-237.23C611.35,-235.41 606.52,-233.34 602,-231 583.5,-221.43 584.68,-210.22 566,-201 558.22,-197.16 549.66,-194.09 541.06,-191.63"/>
<polygon fill="midnightblue" stroke="midnightblue" points="615.28,-240.58 625.87,-240.46 617.51,-233.95 615.28,-240.58"/>
</g>
<!-- Node18 -->
<g id="node18" class="node">
<title>Node18</title>
<g id="a_node18"><a xlink:href="$classSetJoystick.html#a36b0da099fef84270b6cc7c76741e689" xlink:title=" ">
<polygon fill="white" stroke="black" points="203.5,-180.5 203.5,-199.5 354.5,-199.5 354.5,-180.5 203.5,-180.5"/>
<text text-anchor="middle" x="279" y="-187.5" font-family="Helvetica,sans-Serif" font-size="10.00">SetJoystick::copyAssignments</text>
</a>
</g>
</g>
<!-- Node16&#45;&gt;Node18 -->
<g id="edge20" class="edge">
<title>Node16&#45;&gt;Node18</title>
<path fill="none" stroke="midnightblue" d="M591.69,-254.4C535.9,-255.54 460.68,-253.44 396,-239 394.78,-238.73 336.03,-213.81 302.62,-199.61"/>
<polygon fill="midnightblue" stroke="midnightblue" points="591.97,-257.89 601.88,-254.15 591.8,-250.89 591.97,-257.89"/>
</g>
<!-- Node19 -->
<g id="node19" class="node">
<title>Node19</title>
<g id="a_node19"><a xlink:href="$classJoyDPad.html#ad7787a985beddc065f2818df29fd5b77" xlink:title=" ">
<polygon fill="white" stroke="black" points="410.5,-210.5 410.5,-229.5 551.5,-229.5 551.5,-210.5 410.5,-210.5"/>
<text text-anchor="middle" x="481" y="-217.5" font-family="Helvetica,sans-Serif" font-size="10.00">JoyDPad::copyAssignments</text>
</a>
</g>
</g>
<!-- Node16&#45;&gt;Node19 -->
<g id="edge18" class="edge">
<title>Node16&#45;&gt;Node19</title>
<path fill="none" stroke="midnightblue" d="M602.52,-238.88C582.86,-235.8 561.71,-232.49 542.7,-229.51"/>
<polygon fill="midnightblue" stroke="midnightblue" points="602.22,-242.38 612.65,-240.47 603.31,-235.46 602.22,-242.38"/>
</g>
<!-- Node20 -->
<g id="node20" class="node">
<title>Node20</title>
<g id="a_node20"><a xlink:href="$classJoyAxis.html#a854637def50e6ef091c87ee78e7dbb58" xlink:title=" ">
<polygon fill="white" stroke="black" points="413,-134.5 413,-153.5 549,-153.5 549,-134.5 413,-134.5"/>
<text text-anchor="middle" x="481" y="-141.5" font-family="Helvetica,sans-Serif" font-size="10.00">JoyAxis::copyAssignments</text>
</a>
</g>
</g>
<!-- Node16&#45;&gt;Node20 -->
<g id="edge21" class="edge">
<title>Node16&#45;&gt;Node20</title>
<path fill="none" stroke="midnightblue" d="M608.95,-235.76C606.52,-234.32 604.19,-232.74 602,-231 575.23,-209.72 593.16,-183.78 566,-163 560.89,-159.09 555.13,-155.96 549.08,-153.46"/>
<polygon fill="midnightblue" stroke="midnightblue" points="607.64,-239.01 618.15,-240.35 610.77,-232.75 607.64,-239.01"/>
</g>
<!-- Node17&#45;&gt;Node18 -->
<g id="edge17" class="edge">
<title>Node17&#45;&gt;Node18</title>
<path fill="none" stroke="midnightblue" d="M385.45,-185.78C375.1,-186.2 364.68,-186.61 354.61,-187.02"/>
<polygon fill="midnightblue" stroke="midnightblue" points="385.91,-189.27 395.76,-185.37 385.63,-182.27 385.91,-189.27"/>
</g>
<!-- Node19&#45;&gt;Node18 -->
<g id="edge19" class="edge">
<title>Node19&#45;&gt;Node18</title>
<path fill="none" stroke="midnightblue" d="M406.44,-208.97C385.75,-205.86 363.43,-202.51 343.39,-199.51"/>
<polygon fill="midnightblue" stroke="midnightblue" points="406.04,-212.44 416.44,-210.47 407.07,-205.52 406.04,-212.44"/>
</g>
<!-- Node20&#45;&gt;Node18 -->
<g id="edge22" class="edge">
<title>Node20&#45;&gt;Node18</title>
<path fill="none" stroke="midnightblue" d="M427.78,-155.76C417.25,-158.14 406.27,-160.64 396,-163 371.01,-168.73 343.01,-175.25 320.79,-180.44"/>
<polygon fill="midnightblue" stroke="midnightblue" points="428.71,-159.14 437.69,-153.52 427.16,-152.31 428.71,-159.14"/>
</g>
<!-- Node21&#45;&gt;Node22 -->
<g id="edge24" class="edge">
<title>Node21&#45;&gt;Node22</title>
<path fill="none" stroke="midnightblue" d="M608.07,-425C583.59,-425 556.15,-425 533.14,-425"/>
<polygon fill="midnightblue" stroke="midnightblue" points="608.37,-428.5 618.37,-425 608.37,-421.5 608.37,-428.5"/>
</g>
<!-- Node23 -->
<g id="node23" class="node">
<title>Node23</title>
<g id="a_node23"><a xlink:href="$classAdvanceStickAssignmentDialog.html#a86cf0001cd774ce5ccec8543b7a9a50b" xlink:title=" ">
<polygon fill="white" stroke="black" points="0,-481 0,-511 162,-511 162,-481 0,-481"/>
<text text-anchor="start" x="8" y="-499" font-family="Helvetica,sans-Serif" font-size="10.00">AdvanceStickAssignmentDialog</text>
<text text-anchor="middle" x="81" y="-488" font-family="Helvetica,sans-Serif" font-size="10.00">::AdvanceStickAssignmentDialog</text>
</a>
</g>
</g>
<!-- Node22&#45;&gt;Node23 -->
<g id="edge25" class="edge">
<title>Node22&#45;&gt;Node23</title>
<path fill="none" stroke="midnightblue" d="M461.13,-441.33C438.75,-459.51 399.5,-487.8 360,-499 295.22,-517.37 218.49,-514.83 162.07,-508.71"/>
<polygon fill="midnightblue" stroke="midnightblue" points="463.66,-443.78 469.11,-434.69 459.18,-438.4 463.66,-443.78"/>
</g>
<!-- Node24 -->
<g id="node24" class="node">
<title>Node24</title>
<g id="a_node24"><a xlink:href="$classButtonEditDialog.html#a3e9feede100cbb6a11c9d87659c196ea" xlink:title=" ">
<polygon fill="white" stroke="black" points="216.5,-410 216.5,-440 341.5,-440 341.5,-410 216.5,-410"/>
<text text-anchor="start" x="224.5" y="-428" font-family="Helvetica,sans-Serif" font-size="10.00">ButtonEditDialog::Button</text>
<text text-anchor="middle" x="279" y="-417" font-family="Helvetica,sans-Serif" font-size="10.00">EditDialog</text>
</a>
</g>
</g>
<!-- Node22&#45;&gt;Node24 -->
<g id="edge26" class="edge">
<title>Node22&#45;&gt;Node24</title>
<path fill="none" stroke="midnightblue" d="M418.55,-425C394.19,-425 366.21,-425 341.81,-425"/>
<polygon fill="midnightblue" stroke="midnightblue" points="418.75,-428.5 428.75,-425 418.75,-421.5 418.75,-428.5"/>
</g>
<!-- Node25 -->
<g id="node25" class="node">
<title>Node25</title>
<g id="a_node25"><a xlink:href="$classJoystickStatusWindow.html#a96d9e83b764e14faed4c4dc275d23c45" xlink:title=" ">
<polygon fill="white" stroke="black" points="20,-334 20,-364 142,-364 142,-334 20,-334"/>
<text text-anchor="start" x="28" y="-352" font-family="Helvetica,sans-Serif" font-size="10.00">JoystickStatusWindow</text>
<text text-anchor="middle" x="81" y="-341" font-family="Helvetica,sans-Serif" font-size="10.00">::JoystickStatusWindow</text>
</a>
</g>
</g>
<!-- Node22&#45;&gt;Node25 -->
<g id="edge27" class="edge">
<title>Node22&#45;&gt;Node25</title>
<path fill="none" stroke="midnightblue" d="M423.14,-413.48C403.19,-409.47 380.61,-404.99 360,-401 285.04,-386.49 198.57,-370.42 142.24,-360.04"/>
<polygon fill="midnightblue" stroke="midnightblue" points="422.52,-416.92 433.01,-415.46 423.9,-410.06 422.52,-416.92"/>
</g>
<!-- Node26 -->
<g id="node26" class="node">
<title>Node26</title>
<g id="a_node26"><a xlink:href="$classQuickSetDialog.html#a57726006cbe2d8534f4be91a05646dd2" xlink:title=" ">
<polygon fill="white" stroke="black" points="15.5,-266 15.5,-296 146.5,-296 146.5,-266 15.5,-266"/>
<text text-anchor="start" x="23.5" y="-284" font-family="Helvetica,sans-Serif" font-size="10.00">QuickSetDialog::QuickSet</text>
<text text-anchor="middle" x="81" y="-273" font-family="Helvetica,sans-Serif" font-size="10.00">Dialog</text>
</a>
</g>
</g>
<!-- Node22&#45;&gt;Node26 -->
<g id="edge28" class="edge">
<title>Node22&#45;&gt;Node26</title>
<path fill="none" stroke="midnightblue" d="M467.14,-407.05C447.4,-381.07 406.93,-333.71 360,-312 292.01,-280.55 205.03,-275.75 146.62,-276.9"/>
<polygon fill="midnightblue" stroke="midnightblue" points="464.47,-409.33 473.24,-415.28 470.09,-405.16 464.47,-409.33"/>
</g>
<!-- Node27 -->
<g id="node27" class="node">
<title>Node27</title>
<g id="a_node27"><a xlink:href="$classAdvanceStickAssignmentDialog.html#a48ade79f1dfeb93ff668ac18d0e1243f" xlink:title=" ">
<polygon fill="white" stroke="black" points="201,-459 201,-489 357,-489 357,-459 201,-459"/>
<text text-anchor="start" x="209" y="-477" font-family="Helvetica,sans-Serif" font-size="10.00">AdvanceStickAssignmentDialog</text>
<text text-anchor="middle" x="279" y="-466" font-family="Helvetica,sans-Serif" font-size="10.00">::reenableButtonEvents</text>
</a>
</g>
</g>
<!-- Node22&#45;&gt;Node27 -->
<g id="edge29" class="edge">
<title>Node22&#45;&gt;Node27</title>
<path fill="none" stroke="midnightblue" d="M430.96,-437.01C403.94,-443.64 370.14,-451.92 341.38,-458.96"/>
<polygon fill="midnightblue" stroke="midnightblue" points="432.08,-440.34 440.96,-434.56 430.42,-433.54 432.08,-440.34"/>
</g>
<!-- Node28 -->
<g id="node28" class="node">
<title>Node28</title>
<g id="a_node28"><a xlink:href="$classJoystickStatusWindow.html#a1a1c28e1d6f480c7424ba81b30b8b4f5" xlink:title=" ">
<polygon fill="white" stroke="black" points="221,-322 221,-352 337,-352 337,-322 221,-322"/>
<text text-anchor="start" x="229" y="-340" font-family="Helvetica,sans-Serif" font-size="10.00">JoystickStatusWindow</text>
<text text-anchor="middle" x="279" y="-329" font-family="Helvetica,sans-Serif" font-size="10.00">::restoreButtonStates</text>
</a>
</g>
</g>
<!-- Node22&#45;&gt;Node28 -->
<g id="edge31" class="edge">
<title>Node22&#45;&gt;Node28</title>
<path fill="none" stroke="midnightblue" d="M452.61,-410.88C428.5,-398.66 392.3,-380.83 360,-367 347.86,-361.8 334.5,-356.6 322.22,-352.01"/>
<polygon fill="midnightblue" stroke="midnightblue" points="451.04,-414 461.54,-415.42 454.22,-407.77 451.04,-414"/>
</g>
<!-- Node29 -->
<g id="node29" class="node">
<title>Node29</title>
<g id="a_node29"><a xlink:href="$classGameControllerMappingDialogHelper.html#a4040e6cf676fe8af751125e2928d8a35" xlink:title=" ">
<polygon fill="white" stroke="black" points="198,-596 198,-626 360,-626 360,-596 198,-596"/>
<text text-anchor="start" x="206" y="-614" font-family="Helvetica,sans-Serif" font-size="10.00">GameControllerMappingDialog</text>
<text text-anchor="middle" x="279" y="-603" font-family="Helvetica,sans-Serif" font-size="10.00">Helper::restoreDeviceDeadZones</text>
</a>
</g>
</g>
<!-- Node22&#45;&gt;Node29 -->
<g id="edge33" class="edge">
<title>Node22&#45;&gt;Node29</title>
<path fill="none" stroke="midnightblue" d="M471.12,-443.96C454.29,-477.82 414.51,-548.71 360,-587 355.14,-590.42 349.78,-593.36 344.21,-595.88"/>
<polygon fill="midnightblue" stroke="midnightblue" points="474.39,-445.25 475.59,-434.72 468.09,-442.19 474.39,-445.25"/>
</g>
<!-- Node30 -->
<g id="node30" class="node">
<title>Node30</title>
<g id="a_node30"><a xlink:href="$classQuickSetDialog.html#afacbf395389ca073edf366a412c1626b" xlink:title=" ">
<polygon fill="white" stroke="black" points="200.5,-234 200.5,-264 357.5,-264 357.5,-234 200.5,-234"/>
<text text-anchor="start" x="208.5" y="-252" font-family="Helvetica,sans-Serif" font-size="10.00">QuickSetDialog::restoreJoystick</text>
<text text-anchor="middle" x="279" y="-241" font-family="Helvetica,sans-Serif" font-size="10.00">State</text>
</a>
</g>
</g>
<!-- Node22&#45;&gt;Node30 -->
<g id="edge34" class="edge">
<title>Node22&#45;&gt;Node30</title>
<path fill="none" stroke="midnightblue" d="M469.36,-406.57C450.84,-376 409.85,-314.65 360,-279 351.67,-273.05 342.03,-268.12 332.37,-264.11"/>
<polygon fill="midnightblue" stroke="midnightblue" points="466.45,-408.53 474.57,-415.34 472.47,-404.96 466.45,-408.53"/>
</g>
<!-- Node31 -->
<g id="node31" class="node">
<title>Node31</title>
<g id="a_node31"><a xlink:href="$classGameControllerMappingDialogHelper.html#a7852aab5763281aa59c17f2f1da8dd31" xlink:title=" ">
<polygon fill="white" stroke="black" points="204.5,-547 204.5,-577 353.5,-577 353.5,-547 204.5,-547"/>
<text text-anchor="start" x="212.5" y="-565" font-family="Helvetica,sans-Serif" font-size="10.00">GameControllerMappingDialog</text>
<text text-anchor="middle" x="279" y="-554" font-family="Helvetica,sans-Serif" font-size="10.00">Helper::setupDeadZones</text>
</a>
</g>
</g>
<!-- Node22&#45;&gt;Node31 -->
<g id="edge36" class="edge">
<title>Node22&#45;&gt;Node31</title>
<path fill="none" stroke="midnightblue" d="M464.61,-442.24C443.16,-465.39 402.13,-506.55 360,-532 350.48,-537.75 339.67,-542.71 329.14,-546.84"/>
<polygon fill="midnightblue" stroke="midnightblue" points="467.44,-444.33 471.6,-434.59 462.27,-439.61 467.44,-444.33"/>
</g>
<!-- Node27&#45;&gt;Node23 -->
<g id="edge30" class="edge">
<title>Node27&#45;&gt;Node23</title>
<path fill="none" stroke="midnightblue" d="M190.87,-483.78C181.27,-484.86 171.52,-485.95 162.01,-487.02"/>
<polygon fill="midnightblue" stroke="midnightblue" points="191.27,-487.26 200.82,-482.66 190.49,-480.3 191.27,-487.26"/>
</g>
<!-- Node28&#45;&gt;Node25 -->
<g id="edge32" class="edge">
<title>Node28&#45;&gt;Node25</title>
<path fill="none" stroke="midnightblue" d="M210.72,-341.12C188.41,-342.49 163.74,-344 142.02,-345.33"/>
<polygon fill="midnightblue" stroke="midnightblue" points="211.01,-344.61 220.78,-340.5 210.59,-337.62 211.01,-344.61"/>
</g>
<!-- Node30&#45;&gt;Node26 -->
<g id="edge35" class="edge">
<title>Node30&#45;&gt;Node26</title>
<path fill="none" stroke="midnightblue" d="M190.19,-263.34C175.57,-265.72 160.63,-268.16 146.72,-270.43"/>
<polygon fill="midnightblue" stroke="midnightblue" points="190.95,-266.76 200.25,-261.69 189.82,-259.85 190.95,-266.76"/>
</g>
<!-- Node32&#45;&gt;Node22 -->
<g id="edge38" class="edge">
<title>Node32&#45;&gt;Node22</title>
<path fill="none" stroke="midnightblue" d="M615.35,-398.54C588.04,-403.96 555.87,-410.34 529.98,-415.48"/>
<polygon fill="midnightblue" stroke="midnightblue" points="616.05,-401.97 625.18,-396.59 614.69,-395.1 616.05,-401.97"/>
</g>
<!-- Node38 -->
<g id="node38" class="node">
<title>Node38</title>
<g id="a_node38"><a xlink:href="$classJoyButton.html#a9c65911b5b33fc6bec20d7418cea4324" xlink:title=" ">
<polygon fill="white" stroke="black" points="1011,-126.5 1011,-145.5 1100,-145.5 1100,-126.5 1011,-126.5"/>
<text text-anchor="middle" x="1055.5" y="-133.5" font-family="Helvetica,sans-Serif" font-size="10.00">JoyButton::reset</text>
</a>
</g>
</g>
<!-- Node37&#45;&gt;Node38 -->
<g id="edge45" class="edge">
<title>Node37&#45;&gt;Node38</title>
<path fill="none" stroke="midnightblue" d="M1221.39,-227.51C1181.78,-205.53 1107.55,-164.33 1073.89,-145.65"/>
<polygon fill="midnightblue" stroke="midnightblue" points="1219.77,-230.61 1230.21,-232.41 1223.17,-224.49 1219.77,-230.61"/>
</g>
<!-- Node39 -->
<g id="node39" class="node">
<title>Node39</title>
<g id="a_node39"><a xlink:href="$classGameControllerTrigger.html#a9a377b27df224a6eeddea986c0b1cf4d" xlink:title=" ">
<polygon fill="white" stroke="black" points="799.5,-39 799.5,-69 913.5,-69 913.5,-39 799.5,-39"/>
<text text-anchor="start" x="807.5" y="-57" font-family="Helvetica,sans-Serif" font-size="10.00">GameControllerTrigger</text>
<text text-anchor="middle" x="856.5" y="-46" font-family="Helvetica,sans-Serif" font-size="10.00">::reset</text>
</a>
</g>
</g>
<!-- Node38&#45;&gt;Node39 -->
<g id="edge46" class="edge">
<title>Node38&#45;&gt;Node39</title>
<path fill="none" stroke="midnightblue" d="M1025.65,-121.82C1000.63,-109.76 963.32,-92.33 930,-79 921.47,-75.59 912.27,-72.2 903.39,-69.07"/>
<polygon fill="midnightblue" stroke="midnightblue" points="1024.39,-125.1 1034.92,-126.32 1027.45,-118.8 1024.39,-125.1"/>
</g>
<!-- Node41 -->
<g id="node41" class="node">
<title>Node41</title>
<g id="a_node41"><a xlink:href="$classJoyDPadButton.html#aebe0fc163770e4f98ab9cbaeb96b4f08" xlink:title=" ">
<polygon fill="white" stroke="black" points="800,-202.5 800,-221.5 913,-221.5 913,-202.5 800,-202.5"/>
<text text-anchor="middle" x="856.5" y="-209.5" font-family="Helvetica,sans-Serif" font-size="10.00">JoyDPadButton::reset</text>
</a>
</g>
</g>
<!-- Node38&#45;&gt;Node41 -->
<g id="edge48" class="edge">
<title>Node38&#45;&gt;Node41</title>
<path fill="none" stroke="midnightblue" d="M1027.19,-150.17C1002.34,-162.66 964.39,-180.73 930,-193 920.07,-196.54 909.17,-199.75 898.9,-202.47"/>
<polygon fill="midnightblue" stroke="midnightblue" points="1029.02,-153.17 1036.35,-145.52 1025.85,-146.92 1029.02,-153.17"/>
</g>
<!-- Node43 -->
<g id="node43" class="node">
<title>Node43</title>
<g id="a_node43"><a xlink:href="$classJoyButton.html#ae9adbedab9e5f99a893833b19035896b" xlink:title=" ">
<polygon fill="white" stroke="black" points="812,-164.5 812,-183.5 901,-183.5 901,-164.5 812,-164.5"/>
<text text-anchor="middle" x="856.5" y="-171.5" font-family="Helvetica,sans-Serif" font-size="10.00">JoyButton::reset</text>
</a>
</g>
</g>
<!-- Node38&#45;&gt;Node43 -->
<g id="edge50" class="edge">
<title>Node38&#45;&gt;Node43</title>
<path fill="none" stroke="midnightblue" d="M1000.9,-146.34C969.57,-152.38 930.53,-159.91 901.1,-165.59"/>
<polygon fill="midnightblue" stroke="midnightblue" points="1001.62,-149.76 1010.78,-144.43 1000.3,-142.89 1001.62,-149.76"/>
</g>
<!-- Node44 -->
<g id="node44" class="node">
<title>Node44</title>
<g id="a_node44"><a xlink:href="$classJoyControlStick.html#ae9e4c58304bb10ae998f854e4247f39f" xlink:title="Reset all the properties of the stick direction buttons and the stick modifier button.">
<polygon fill="white" stroke="black" points="783,-126.5 783,-145.5 930,-145.5 930,-126.5 783,-126.5"/>
<text text-anchor="middle" x="856.5" y="-133.5" font-family="Helvetica,sans-Serif" font-size="10.00">JoyControlStick::resetButtons</text>
</a>
</g>
</g>
<!-- Node38&#45;&gt;Node44 -->
<g id="edge51" class="edge">
<title>Node38&#45;&gt;Node44</title>
<path fill="none" stroke="midnightblue" d="M1000.74,-136C978.97,-136 953.5,-136 930.12,-136"/>
<polygon fill="midnightblue" stroke="midnightblue" points="1000.78,-139.5 1010.78,-136 1000.78,-132.5 1000.78,-139.5"/>
</g>
<!-- Node47 -->
<g id="node46" class="node">
<title>Node47</title>
<g id="a_node46"><a xlink:href="$classJoyAxis.html#afce1f31390f589a417e9c70f47bd7187" xlink:title=" ">
<polygon fill="white" stroke="black" points="791.5,-88.5 791.5,-107.5 921.5,-107.5 921.5,-88.5 791.5,-88.5"/>
<text text-anchor="middle" x="856.5" y="-95.5" font-family="Helvetica,sans-Serif" font-size="10.00">JoyAxis::resetPrivateVars</text>
</a>
</g>
</g>
<!-- Node38&#45;&gt;Node47 -->
<g id="edge54" class="edge">
<title>Node38&#45;&gt;Node47</title>
<path fill="none" stroke="midnightblue" d="M1000.73,-125.63C971.48,-119.99 935.55,-113.06 906.99,-107.55"/>
<polygon fill="midnightblue" stroke="midnightblue" points="1000.3,-129.11 1010.78,-127.57 1001.62,-122.24 1000.3,-129.11"/>
</g>
<!-- Node52 -->
<g id="node50" class="node">
<title>Node52</title>
<g id="a_node50"><a xlink:href="$classJoyButton.html#a0e609c3e96518adfec008f3a04849900" xlink:title=" ">
<polygon fill="white" stroke="black" points="798,-0.5 798,-19.5 915,-19.5 915,-0.5 798,-0.5"/>
<text text-anchor="middle" x="856.5" y="-7.5" font-family="Helvetica,sans-Serif" font-size="10.00">JoyButton::~JoyButton</text>
</a>
</g>
</g>
<!-- Node38&#45;&gt;Node52 -->
<g id="edge59" class="edge">
<title>Node38&#45;&gt;Node52</title>
<path fill="none" stroke="midnightblue" d="M1039.39,-118.82C1017.57,-95.1 974.93,-52.57 930,-29 922.63,-25.13 914.41,-22.01 906.23,-19.5"/>
<polygon fill="midnightblue" stroke="midnightblue" points="1036.9,-121.29 1046.2,-126.37 1042.1,-116.6 1036.9,-121.29"/>
</g>
<!-- Node40 -->
<g id="node40" class="node">
<title>Node40</title>
<g id="a_node40"><a xlink:href="$classGameControllerTrigger.html#a29c6221684b8eb4b3a4017ed93c6e866" xlink:title=" ">
<polygon fill="white" stroke="black" points="614.5,-1 614.5,-31 734.5,-31 734.5,-1 614.5,-1"/>
<text text-anchor="start" x="622.5" y="-19" font-family="Helvetica,sans-Serif" font-size="10.00">GameControllerTrigger</text>
<text text-anchor="middle" x="674.5" y="-8" font-family="Helvetica,sans-Serif" font-size="10.00">::GameControllerTrigger</text>
</a>
</g>
</g>
<!-- Node39&#45;&gt;Node40 -->
<g id="edge47" class="edge">
<title>Node39&#45;&gt;Node40</title>
<path fill="none" stroke="midnightblue" d="M789.24,-40.01C771.32,-36.23 752.05,-32.16 734.56,-28.47"/>
<polygon fill="midnightblue" stroke="midnightblue" points="788.53,-43.44 799.04,-42.08 789.98,-36.59 788.53,-43.44"/>
</g>
<!-- Node42 -->
<g id="node42" class="node">
<title>Node42</title>
<g id="a_node42"><a xlink:href="$classJoyDPadButton.html#adce03b9dac0e26f1601907b36bb11263" xlink:title=" ">
<polygon fill="white" stroke="black" points="618,-202.5 618,-221.5 731,-221.5 731,-202.5 618,-202.5"/>
<text text-anchor="middle" x="674.5" y="-209.5" font-family="Helvetica,sans-Serif" font-size="10.00">JoyDPadButton::reset</text>
</a>
</g>
</g>
<!-- Node41&#45;&gt;Node42 -->
<g id="edge49" class="edge">
<title>Node41&#45;&gt;Node42</title>
<path fill="none" stroke="midnightblue" d="M789.39,-212C770.25,-212 749.55,-212 731.12,-212"/>
<polygon fill="midnightblue" stroke="midnightblue" points="789.53,-215.5 799.53,-212 789.53,-208.5 789.53,-215.5"/>
</g>
<!-- Node45 -->
<g id="node45" class="node">
<title>Node45</title>
<g id="a_node45"><a xlink:href="$classJoyControlStick.html#ae522566bf421862cb84d33aeefff71af" xlink:title=" ">
<polygon fill="white" stroke="red" points="618,-164.5 618,-183.5 731,-183.5 731,-164.5 618,-164.5"/>
<text text-anchor="middle" x="674.5" y="-171.5" font-family="Helvetica,sans-Serif" font-size="10.00">JoyControlStick::reset</text>
</a>
</g>
</g>
<!-- Node44&#45;&gt;Node45 -->
<g id="edge52" class="edge">
<title>Node44&#45;&gt;Node45</title>
<path fill="none" stroke="midnightblue" d="M800.17,-147.68C774.64,-153.07 744.72,-159.39 720.59,-164.48"/>
<polygon fill="midnightblue" stroke="midnightblue" points="801.02,-151.08 810.08,-145.59 799.57,-144.23 801.02,-151.08"/>
</g>
<!-- Node45&#45;&gt;Node17 -->
<g id="edge53" class="edge">
<title>Node45&#45;&gt;Node17</title>
<path fill="none" stroke="midnightblue" d="M607.82,-176.74C594.45,-177.3 580.21,-177.9 566.3,-178.48"/>
<polygon fill="midnightblue" stroke="midnightblue" points="608.01,-180.24 617.85,-176.32 607.72,-173.25 608.01,-180.24"/>
</g>
<!-- Node48 -->
<g id="node47" class="node">
<title>Node48</title>
<g id="a_node47"><a xlink:href="$classJoyAxis.html#a6123cf3edbb03ad45f114c333cdfd5f4" xlink:title=" ">
<polygon fill="white" stroke="black" points="628,-50.5 628,-69.5 721,-69.5 721,-50.5 628,-50.5"/>
<text text-anchor="middle" x="674.5" y="-57.5" font-family="Helvetica,sans-Serif" font-size="10.00">JoyAxis::JoyAxis</text>
</a>
</g>
</g>
<!-- Node47&#45;&gt;Node48 -->
<g id="edge55" class="edge">
<title>Node47&#45;&gt;Node48</title>
<path fill="none" stroke="midnightblue" d="M800.17,-86.32C774.64,-80.93 744.72,-74.61 720.59,-69.52"/>
<polygon fill="midnightblue" stroke="midnightblue" points="799.57,-89.77 810.08,-88.41 801.02,-82.92 799.57,-89.77"/>
</g>
<!-- Node49 -->
<g id="node48" class="node">
<title>Node49</title>
<g id="a_node48"><a xlink:href="$classJoyAxis.html#a9e0633e04b88d2eecb10c8cf9599a86e" xlink:title=" ">
<polygon fill="white" stroke="red" points="634.5,-126.5 634.5,-145.5 714.5,-145.5 714.5,-126.5 634.5,-126.5"/>
<text text-anchor="middle" x="674.5" y="-133.5" font-family="Helvetica,sans-Serif" font-size="10.00">JoyAxis::reset</text>
</a>
</g>
</g>
<!-- Node47&#45;&gt;Node49 -->
<g id="edge56" class="edge">
<title>Node47&#45;&gt;Node49</title>
<path fill="none" stroke="midnightblue" d="M800.16,-109.68C772.55,-115.51 739.8,-122.43 714.79,-127.7"/>
<polygon fill="midnightblue" stroke="midnightblue" points="801.02,-113.08 810.08,-107.59 799.57,-106.23 801.02,-113.08"/>
</g>
<!-- Node51 -->
<g id="node49" class="node">
<title>Node51</title>
<g id="a_node49"><a xlink:href="$classJoyAxis.html#a3e8aa5f4ba3afb8959ddd2d153a5fff1" xlink:title=" ">
<polygon fill="white" stroke="black" points="625,-88.5 625,-107.5 724,-107.5 724,-88.5 625,-88.5"/>
<text text-anchor="middle" x="674.5" y="-95.5" font-family="Helvetica,sans-Serif" font-size="10.00">JoyAxis::~JoyAxis</text>
</a>
</g>
</g>
<!-- Node47&#45;&gt;Node51 -->
<g id="edge58" class="edge">
<title>Node47&#45;&gt;Node51</title>
<path fill="none" stroke="midnightblue" d="M781.04,-98C761.83,-98 741.64,-98 724.13,-98"/>
<polygon fill="midnightblue" stroke="midnightblue" points="781.28,-101.5 791.28,-98 781.28,-94.5 781.28,-101.5"/>
</g>
<!-- Node49&#45;&gt;Node20 -->
<g id="edge57" class="edge">
<title>Node49&#45;&gt;Node20</title>
<path fill="none" stroke="midnightblue" d="M624.14,-138.06C601.28,-139.02 573.78,-140.17 549.08,-141.2"/>
<polygon fill="midnightblue" stroke="midnightblue" points="624.44,-141.55 634.29,-137.64 624.15,-134.56 624.44,-141.55"/>
</g>
</g>
</svg>
