<?xml version="1.0" encoding="UTF-8" standalone="no"?>
<!DOCTYPE svg PUBLIC "-//W3C//DTD SVG 1.1//EN"
 "http://www.w3.org/Graphics/SVG/1.1/DTD/svg11.dtd">
<!-- Generated by graphviz version 2.43.0 (0)
 -->
<!-- Title: WinExtras::isUsingEnhancedPointerPrecision Pages: 1 -->
<svg width="433pt" height="39pt"
 viewBox="0.00 0.00 433.00 39.00" xmlns="http://www.w3.org/2000/svg" xmlns:xlink="http://www.w3.org/1999/xlink">
<g id="graph0" class="graph" transform="scale(1 1) rotate(0) translate(4 35)">
<title>WinExtras::isUsingEnhancedPointerPrecision</title>
<polygon fill="white" stroke="transparent" points="-4,4 -4,-35 429,-35 429,4 -4,4"/>
<!-- Node1 -->
<g id="node1" class="node">
<title>Node1</title>
<g id="a_node1"><a xlink:title="Used to check if the &quot;Enhance Pointer Precision&quot; Windows option is currently enabled.">
<polygon fill="#bfbfbf" stroke="black" points="280,-0.5 280,-30.5 425,-30.5 425,-0.5 280,-0.5"/>
<text text-anchor="start" x="288" y="-18.5" font-family="Helvetica,sans-Serif" font-size="10.00">WinExtras::isUsingEnhanced</text>
<text text-anchor="middle" x="352.5" y="-7.5" font-family="Helvetica,sans-Serif" font-size="10.00">PointerPrecision</text>
</a>
</g>
</g>
<!-- Node2 -->
<g id="node2" class="node">
<title>Node2</title>
<g id="a_node2"><a xlink:href="classMainSettingsDialog.html#a07b54c6c80f72c4c5b28b32a58cbcca6" target="_top" xlink:title=" ">
<polygon fill="white" stroke="black" points="143,-0.5 143,-30.5 244,-30.5 244,-0.5 143,-0.5"/>
<text text-anchor="start" x="151" y="-18.5" font-family="Helvetica,sans-Serif" font-size="10.00">MainSettingsDialog</text>
<text text-anchor="middle" x="193.5" y="-7.5" font-family="Helvetica,sans-Serif" font-size="10.00">::saveNewSettings</text>
</a>
</g>
</g>
<!-- Node1&#45;&gt;Node2 -->
<g id="edge1" class="edge">
<title>Node1&#45;&gt;Node2</title>
<path fill="none" stroke="midnightblue" d="M269.63,-15.5C260.89,-15.5 252.2,-15.5 244.01,-15.5"/>
<polygon fill="midnightblue" stroke="midnightblue" points="269.89,-19 279.89,-15.5 269.89,-12 269.89,-19"/>
</g>
<!-- Node3 -->
<g id="node3" class="node">
<title>Node3</title>
<g id="a_node3"><a xlink:href="classMainSettingsDialog.html#aeee272ff5482aca59310558ffdb9ebbe" target="_top" xlink:title=" ">
<polygon fill="white" stroke="black" points="0,-0.5 0,-30.5 107,-30.5 107,-0.5 0,-0.5"/>
<text text-anchor="start" x="8" y="-18.5" font-family="Helvetica,sans-Serif" font-size="10.00">MainSettingsDialog</text>
<text text-anchor="middle" x="53.5" y="-7.5" font-family="Helvetica,sans-Serif" font-size="10.00">::MainSettingsDialog</text>
</a>
</g>
</g>
<!-- Node2&#45;&gt;Node3 -->
<g id="edge2" class="edge">
<title>Node2&#45;&gt;Node3</title>
<path fill="none" stroke="midnightblue" d="M132.48,-15.5C124.01,-15.5 115.35,-15.5 107.04,-15.5"/>
<polygon fill="midnightblue" stroke="midnightblue" points="132.68,-19 142.68,-15.5 132.68,-12 132.68,-19"/>
</g>
</g>
</svg>
