<?xml version="1.0" encoding="UTF-8" standalone="no"?>
<!DOCTYPE svg PUBLIC "-//W3C//DTD SVG 1.1//EN"
 "http://www.w3.org/Graphics/SVG/1.1/DTD/svg11.dtd">
<!-- Generated by graphviz version 2.43.0 (0)
 -->
<!-- Title: JoyControlStickPushButton::tryFlash Pages: 1 -->
<svg width="507pt" height="78pt"
 viewBox="0.00 0.00 507.00 77.50" xmlns="http://www.w3.org/2000/svg" xmlns:xlink="http://www.w3.org/1999/xlink">
<g id="graph0" class="graph" transform="scale(1 1) rotate(0) translate(4 73.5)">
<title>JoyControlStickPushButton::tryFlash</title>
<polygon fill="white" stroke="transparent" points="-4,4 -4,-73.5 503,-73.5 503,4 -4,4"/>
<!-- Node1 -->
<g id="node1" class="node">
<title>Node1</title>
<g id="a_node1"><a xlink:title=" ">
<polygon fill="#bfbfbf" stroke="black" points="362,-22.5 362,-52.5 499,-52.5 499,-22.5 362,-22.5"/>
<text text-anchor="start" x="370" y="-40.5" font-family="Helvetica,sans-Serif" font-size="10.00">JoyControlStickPushButton</text>
<text text-anchor="middle" x="430.5" y="-29.5" font-family="Helvetica,sans-Serif" font-size="10.00">::tryFlash</text>
</a>
</g>
</g>
<!-- Node2 -->
<g id="node2" class="node">
<title>Node2</title>
<g id="a_node2"><a xlink:href="$classMainWindow.html#a435b6567cdb461077fee16ac1d23523c" xlink:title=" ">
<polygon fill="white" stroke="black" points="162,-50 162,-69 326,-69 326,-50 162,-50"/>
<text text-anchor="middle" x="244" y="-57" font-family="Helvetica,sans-Serif" font-size="10.00">MainWindow::enableFlashActions</text>
</a>
</g>
</g>
<!-- Node1&#45;&gt;Node2 -->
<g id="edge1" class="edge">
<title>Node1&#45;&gt;Node2</title>
<path fill="none" stroke="midnightblue" d="M351.86,-46.76C342.93,-47.82 333.81,-48.91 324.85,-49.98"/>
<polygon fill="midnightblue" stroke="midnightblue" points="352.33,-50.23 361.85,-45.57 351.5,-43.28 352.33,-50.23"/>
</g>
<!-- Node4 -->
<g id="node4" class="node">
<title>Node4</title>
<g id="a_node4"><a xlink:href="$classJoyControlStickPushButton.html#a84c9c0ebc8bab68996df6619a4969168" xlink:title=" ">
<polygon fill="white" stroke="black" points="172.5,-0.5 172.5,-30.5 315.5,-30.5 315.5,-0.5 172.5,-0.5"/>
<text text-anchor="start" x="180.5" y="-18.5" font-family="Helvetica,sans-Serif" font-size="10.00">JoyControlStickPushButton</text>
<text text-anchor="middle" x="244" y="-7.5" font-family="Helvetica,sans-Serif" font-size="10.00">::JoyControlStickPushButton</text>
</a>
</g>
</g>
<!-- Node1&#45;&gt;Node4 -->
<g id="edge3" class="edge">
<title>Node1&#45;&gt;Node4</title>
<path fill="none" stroke="midnightblue" d="M351.88,-28.24C339.89,-26.81 327.57,-25.35 315.74,-23.94"/>
<polygon fill="midnightblue" stroke="midnightblue" points="351.5,-31.72 361.85,-29.43 352.33,-24.77 351.5,-31.72"/>
</g>
<!-- Node3 -->
<g id="node3" class="node">
<title>Node3</title>
<g id="a_node3"><a xlink:href="$classMainWindow.html#a3dfe834b2836b316908ace3f38c06db2" xlink:title=" ">
<polygon fill="white" stroke="black" points="0,-50 0,-69 126,-69 126,-50 0,-50"/>
<text text-anchor="middle" x="63" y="-57" font-family="Helvetica,sans-Serif" font-size="10.00">MainWindow::showEvent</text>
</a>
</g>
</g>
<!-- Node2&#45;&gt;Node3 -->
<g id="edge2" class="edge">
<title>Node2&#45;&gt;Node3</title>
<path fill="none" stroke="midnightblue" d="M151.7,-59.5C143.03,-59.5 134.38,-59.5 126.07,-59.5"/>
<polygon fill="midnightblue" stroke="midnightblue" points="151.88,-63 161.88,-59.5 151.88,-56 151.88,-63"/>
</g>
</g>
</svg>
