<?xml version="1.0" encoding="UTF-8" standalone="no"?>
<!DOCTYPE svg PUBLIC "-//W3C//DTD SVG 1.1//EN"
 "http://www.w3.org/Graphics/SVG/1.1/DTD/svg11.dtd">
<!-- Generated by graphviz version 2.43.0 (0)
 -->
<!-- Title: MouseControlStickSettingsDialog::calculateAccelExtraDuration Pages: 1 -->
<svg width="543pt" height="88pt"
 viewBox="0.00 0.00 543.00 88.00" xmlns="http://www.w3.org/2000/svg" xmlns:xlink="http://www.w3.org/1999/xlink">
<g id="graph0" class="graph" transform="scale(1 1) rotate(0) translate(4 84)">
<title>MouseControlStickSettingsDialog::calculateAccelExtraDuration</title>
<polygon fill="white" stroke="transparent" points="-4,4 -4,-84 539,-84 539,4 -4,4"/>
<!-- Node1 -->
<g id="node1" class="node">
<title>Node1</title>
<g id="a_node1"><a xlink:title=" ">
<polygon fill="#bfbfbf" stroke="black" points="0,-24.5 0,-54.5 174,-54.5 174,-24.5 0,-24.5"/>
<text text-anchor="start" x="8" y="-42.5" font-family="Helvetica,sans-Serif" font-size="10.00">MouseControlStickSettings</text>
<text text-anchor="middle" x="87" y="-31.5" font-family="Helvetica,sans-Serif" font-size="10.00">Dialog::calculateAccelExtraDuration</text>
</a>
</g>
</g>
<!-- Node2 -->
<g id="node2" class="node">
<title>Node2</title>
<g id="a_node2"><a xlink:href="classJoyControlStick.html#aa9845c5546a46ca612a97085abdbd256" target="_top" xlink:title=" ">
<polygon fill="white" stroke="black" points="210,-24.5 210,-54.5 349,-54.5 349,-24.5 210,-24.5"/>
<text text-anchor="start" x="218" y="-42.5" font-family="Helvetica,sans-Serif" font-size="10.00">JoyControlStick::getButtons</text>
<text text-anchor="middle" x="279.5" y="-31.5" font-family="Helvetica,sans-Serif" font-size="10.00">AccelerationEasingDuration</text>
</a>
</g>
</g>
<!-- Node1&#45;&gt;Node2 -->
<g id="edge1" class="edge">
<title>Node1&#45;&gt;Node2</title>
<path fill="none" stroke="midnightblue" d="M174.05,-39.5C182.61,-39.5 191.26,-39.5 199.73,-39.5"/>
<polygon fill="midnightblue" stroke="midnightblue" points="199.96,-43 209.96,-39.5 199.96,-36 199.96,-43"/>
</g>
<!-- Node3 -->
<g id="node3" class="node">
<title>Node3</title>
<g id="a_node3"><a xlink:href="classJoyButton.html#adecd613014ea43710adc26c9c32ba2ab" target="_top" xlink:title=" ">
<polygon fill="white" stroke="black" points="396,-49.5 396,-79.5 524,-79.5 524,-49.5 396,-49.5"/>
<text text-anchor="start" x="404" y="-67.5" font-family="Helvetica,sans-Serif" font-size="10.00">JoyButton::getAccelExtra</text>
<text text-anchor="middle" x="460" y="-56.5" font-family="Helvetica,sans-Serif" font-size="10.00">Duration</text>
</a>
</g>
</g>
<!-- Node2&#45;&gt;Node3 -->
<g id="edge2" class="edge">
<title>Node2&#45;&gt;Node3</title>
<path fill="none" stroke="midnightblue" d="M349,-49.09C361.06,-50.78 373.66,-52.55 385.84,-54.25"/>
<polygon fill="midnightblue" stroke="midnightblue" points="385.56,-57.75 395.95,-55.67 386.53,-50.82 385.56,-57.75"/>
</g>
<!-- Node4 -->
<g id="node4" class="node">
<title>Node4</title>
<g id="a_node4"><a xlink:href="classJoyControlStick.html#a79d9ede9279281b0074eca6e2d99e8ec" target="_top" xlink:title=" ">
<polygon fill="white" stroke="black" points="385,-0.5 385,-30.5 535,-30.5 535,-0.5 385,-0.5"/>
<text text-anchor="start" x="393" y="-18.5" font-family="Helvetica,sans-Serif" font-size="10.00">JoyControlStick::getApplicable</text>
<text text-anchor="middle" x="460" y="-7.5" font-family="Helvetica,sans-Serif" font-size="10.00">Buttons</text>
</a>
</g>
</g>
<!-- Node2&#45;&gt;Node4 -->
<g id="edge3" class="edge">
<title>Node2&#45;&gt;Node4</title>
<path fill="none" stroke="midnightblue" d="M349,-30.29C357.41,-29.16 366.08,-27.99 374.69,-26.84"/>
<polygon fill="midnightblue" stroke="midnightblue" points="375.3,-30.29 384.75,-25.48 374.37,-23.35 375.3,-30.29"/>
</g>
</g>
</svg>
