<?xml version="1.0" encoding="UTF-8" standalone="no"?>
<!DOCTYPE svg PUBLIC "-//W3C//DTD SVG 1.1//EN"
 "http://www.w3.org/Graphics/SVG/1.1/DTD/svg11.dtd">
<!-- Generated by graphviz version 2.43.0 (0)
 -->
<!-- Title: XTestEventHandler::init Pages: 1 -->
<svg width="623pt" height="83pt"
 viewBox="0.00 0.00 623.00 83.00" xmlns="http://www.w3.org/2000/svg" xmlns:xlink="http://www.w3.org/1999/xlink">
<g id="graph0" class="graph" transform="scale(1 1) rotate(0) translate(4 79)">
<title>XTestEventHandler::init</title>
<polygon fill="white" stroke="transparent" points="-4,4 -4,-79 619,-79 619,4 -4,4"/>
<!-- Node1 -->
<g id="node1" class="node">
<title>Node1</title>
<g id="a_node1"><a xlink:title=" ">
<polygon fill="#bfbfbf" stroke="black" points="0,-28 0,-47 119,-47 119,-28 0,-28"/>
<text text-anchor="middle" x="59.5" y="-35" font-family="Helvetica,sans-Serif" font-size="10.00">XTestEventHandler::init</text>
</a>
</g>
</g>
<!-- Node2 -->
<g id="node2" class="node">
<title>Node2</title>
<g id="a_node2"><a xlink:href="classX11Extras.html#ace76277fced60e6bd6ff880030338182" target="_top" xlink:title=" ">
<polygon fill="white" stroke="black" points="165,-50 165,-69 284,-69 284,-50 165,-50"/>
<text text-anchor="middle" x="224.5" y="-57" font-family="Helvetica,sans-Serif" font-size="10.00">X11Extras::getInstance</text>
</a>
</g>
</g>
<!-- Node1&#45;&gt;Node2 -->
<g id="edge1" class="edge">
<title>Node1&#45;&gt;Node2</title>
<path fill="none" stroke="midnightblue" d="M119.35,-45.44C130.77,-46.98 142.84,-48.61 154.56,-50.2"/>
<polygon fill="midnightblue" stroke="midnightblue" points="154.36,-53.7 164.74,-51.57 155.3,-46.76 154.36,-53.7"/>
</g>
<!-- Node5 -->
<g id="node5" class="node">
<title>Node5</title>
<g id="a_node5"><a xlink:href="classX11Extras.html#a2abbf531484e05ac81bb14e1f1f98472" target="_top" xlink:title=" ">
<polygon fill="white" stroke="black" points="155,-0.5 155,-30.5 294,-30.5 294,-0.5 155,-0.5"/>
<text text-anchor="start" x="163" y="-18.5" font-family="Helvetica,sans-Serif" font-size="10.00">X11Extras::x11ResetMouse</text>
<text text-anchor="middle" x="224.5" y="-7.5" font-family="Helvetica,sans-Serif" font-size="10.00">AccelerationChange</text>
</a>
</g>
</g>
<!-- Node1&#45;&gt;Node5 -->
<g id="edge4" class="edge">
<title>Node1&#45;&gt;Node5</title>
<path fill="none" stroke="midnightblue" d="M119.35,-29.56C127.61,-28.44 136.2,-27.28 144.76,-26.13"/>
<polygon fill="midnightblue" stroke="midnightblue" points="145.32,-29.58 154.76,-24.78 144.38,-22.65 145.32,-29.58"/>
</g>
<!-- Node3 -->
<g id="node3" class="node">
<title>Node3</title>
<g id="a_node3"><a xlink:href="classX11Extras.html#ab9bcb016e23bacb0e988feb8175d2c88" target="_top" xlink:title=" ">
<polygon fill="white" stroke="black" points="330,-50 330,-69 444,-69 444,-50 330,-50"/>
<text text-anchor="middle" x="387" y="-57" font-family="Helvetica,sans-Serif" font-size="10.00">X11Extras::X11Extras</text>
</a>
</g>
</g>
<!-- Node2&#45;&gt;Node3 -->
<g id="edge2" class="edge">
<title>Node2&#45;&gt;Node3</title>
<path fill="none" stroke="midnightblue" d="M284.35,-59.5C295.84,-59.5 307.96,-59.5 319.67,-59.5"/>
<polygon fill="midnightblue" stroke="midnightblue" points="319.83,-63 329.83,-59.5 319.83,-56 319.83,-63"/>
</g>
<!-- Node4 -->
<g id="node4" class="node">
<title>Node4</title>
<g id="a_node4"><a xlink:href="classX11Extras.html#a6f63e77ed045e174546d77333672b8f0" target="_top" xlink:title=" ">
<polygon fill="white" stroke="black" points="480,-44.5 480,-74.5 615,-74.5 615,-44.5 480,-44.5"/>
<text text-anchor="start" x="488" y="-62.5" font-family="Helvetica,sans-Serif" font-size="10.00">X11Extras::populateKnown</text>
<text text-anchor="middle" x="547.5" y="-51.5" font-family="Helvetica,sans-Serif" font-size="10.00">Aliases</text>
</a>
</g>
</g>
<!-- Node3&#45;&gt;Node4 -->
<g id="edge3" class="edge">
<title>Node3&#45;&gt;Node4</title>
<path fill="none" stroke="midnightblue" d="M444.33,-59.5C452.58,-59.5 461.19,-59.5 469.76,-59.5"/>
<polygon fill="midnightblue" stroke="midnightblue" points="469.79,-63 479.79,-59.5 469.79,-56 469.79,-63"/>
</g>
</g>
</svg>
