<?xml version="1.0" encoding="UTF-8" standalone="no"?>
<!DOCTYPE svg PUBLIC "-//W3C//DTD SVG 1.1//EN"
 "http://www.w3.org/Graphics/SVG/1.1/DTD/svg11.dtd">
<!-- Generated by graphviz version 2.43.0 (0)
 -->
<!-- Title: MouseAxisSettingsDialog Pages: 1 -->
<!--zoomable 809 -->
<svg id="main" version="1.1" xmlns="http://www.w3.org/2000/svg" xmlns:xlink="http://www.w3.org/1999/xlink" xml:space="preserve" onload="init(evt)">
<style type="text/css"><![CDATA[
.edge:hover path { stroke: red; }
.edge:hover polygon { stroke: red; fill: red; }
]]></style>
<script type="text/javascript"><![CDATA[
var edges = document.getElementsByTagName('g');
if (edges && edges.length) {
  for (var i=0;i<edges.length;i++) {
    if (edges[i].id.substr(0,4)=='edge') {
      edges[i].setAttribute('class','edge');
    }
  }
}
]]></script>
        <defs>
                <circle id="rim" cx="0" cy="0" r="7"/>
                <circle id="rim2" cx="0" cy="0" r="3.5"/>
                <g id="zoomPlus">
                        <use xlink:href="#rim" fill="#404040">
                                <set attributeName="fill" to="#808080" begin="zoomplus.mouseover" end="zoomplus.mouseout"/>
                        </use>
                        <path d="M-4,0h8M0,-4v8" fill="none" stroke="white" stroke-width="1.5" pointer-events="none"/>
                </g>
                <g id="zoomMin">
                        <use xlink:href="#rim" fill="#404040">
                                <set attributeName="fill" to="#808080" begin="zoomminus.mouseover" end="zoomminus.mouseout"/>
                        </use>
                        <path d="M-4,0h8" fill="none" stroke="white" stroke-width="1.5" pointer-events="none"/>
                </g>
                <g id="dirArrow">
                        <path fill="none" stroke="white" stroke-width="1.5" d="M0,-3.0v7 M-2.5,-0.5L0,-3.0L2.5,-0.5"/>
                </g>
               <g id="resetDef">
                       <use xlink:href="#rim2" fill="#404040">
                               <set attributeName="fill" to="#808080" begin="reset.mouseover" end="reset.mouseout"/>
                       </use>
               </g>
        </defs>

<script type="text/javascript">
var viewWidth = 2218;
var viewHeight = 809;
var sectionId = 'dynsection-1';
</script>
<script xlink:href="svgpan.js"/>
<svg id="graph" class="graph">
<g id="viewport">
<title>MouseAxisSettingsDialog</title>
<polygon fill="white" stroke="transparent" points="-4,4 -4,-804.68 2214,-804.68 2214,4 -4,4"/>
<!-- Node1 -->
<g id="node1" class="node">
<title>Node1</title>
<g id="a_node1"><a xlink:title=" ">
<polygon fill="#bfbfbf" stroke="black" points="595,-722.18 595,-741.18 724,-741.18 724,-722.18 595,-722.18"/>
<text text-anchor="middle" x="659.5" y="-729.18" font-family="Helvetica,sans-Serif" font-size="10.00">MouseAxisSettingsDialog</text>
</a>
</g>
</g>
<!-- Node2 -->
<g id="node2" class="node">
<title>Node2</title>
<g id="a_node2"><a xlink:href="classMouseSettingsDialog.html" target="_top" xlink:title=" ">
<polygon fill="white" stroke="black" points="329,-743.18 329,-762.18 439,-762.18 439,-743.18 329,-743.18"/>
<text text-anchor="middle" x="384" y="-750.18" font-family="Helvetica,sans-Serif" font-size="10.00">MouseSettingsDialog</text>
</a>
</g>
</g>
<!-- Node2&#45;&gt;Node1 -->
<g id="edge1" class="edge">
<title>Node2&#45;&gt;Node1</title>
<path fill="none" stroke="midnightblue" d="M449.04,-747.76C493.01,-744.38 551.12,-739.92 594.98,-736.55"/>
<polygon fill="midnightblue" stroke="midnightblue" points="448.74,-744.27 439.03,-748.53 449.27,-751.25 448.74,-744.27"/>
</g>
<!-- Node3 -->
<g id="node3" class="node">
<title>Node3</title>
<g id="a_node3"><a xlink:title=" ">
<polygon fill="white" stroke="#bfbfbf" points="94,-743.18 94,-762.18 146,-762.18 146,-743.18 94,-743.18"/>
<text text-anchor="middle" x="120" y="-750.18" font-family="Helvetica,sans-Serif" font-size="10.00">QDialog</text>
</a>
</g>
</g>
<!-- Node3&#45;&gt;Node2 -->
<g id="edge2" class="edge">
<title>Node3&#45;&gt;Node2</title>
<path fill="none" stroke="midnightblue" d="M156.13,-752.68C200.46,-752.68 277.16,-752.68 328.97,-752.68"/>
<polygon fill="midnightblue" stroke="midnightblue" points="156.12,-749.18 146.12,-752.68 156.12,-756.18 156.12,-749.18"/>
</g>
<!-- Node4 -->
<g id="node4" class="node">
<title>Node4</title>
<g id="a_node4"><a xlink:href="classMouseAxisSettingsDialogHelper.html" target="_top" xlink:title=" ">
<polygon fill="white" stroke="black" points="305,-705.18 305,-724.18 463,-724.18 463,-705.18 305,-705.18"/>
<text text-anchor="middle" x="384" y="-712.18" font-family="Helvetica,sans-Serif" font-size="10.00">MouseAxisSettingsDialogHelper</text>
</a>
</g>
</g>
<!-- Node4&#45;&gt;Node1 -->
<g id="edge3" class="edge">
<title>Node4&#45;&gt;Node1</title>
<path fill="none" stroke="#9a32cd" stroke-dasharray="5,2" d="M473.5,-716.32C506.07,-717.34 543.25,-719 577,-721.68 582.83,-722.14 588.88,-722.71 594.93,-723.34"/>
<polygon fill="#9a32cd" stroke="#9a32cd" points="473.19,-712.81 463.09,-716.01 472.98,-719.81 473.19,-712.81"/>
<text text-anchor="middle" x="529" y="-724.68" font-family="Helvetica,sans-Serif" font-size="10.00"> helper</text>
</g>
<!-- Node5 -->
<g id="node5" class="node">
<title>Node5</title>
<g id="a_node5"><a xlink:title=" ">
<polygon fill="white" stroke="#bfbfbf" points="0,-286.18 0,-305.18 53,-305.18 53,-286.18 0,-286.18"/>
<text text-anchor="middle" x="26.5" y="-293.18" font-family="Helvetica,sans-Serif" font-size="10.00">QObject</text>
</a>
</g>
</g>
<!-- Node5&#45;&gt;Node4 -->
<g id="edge4" class="edge">
<title>Node5&#45;&gt;Node4</title>
<path fill="none" stroke="midnightblue" d="M28.23,-315.64C31.24,-392.23 43.77,-664.32 71,-690.68 146.35,-763.59 285.42,-740.2 349.3,-724.28"/>
<polygon fill="midnightblue" stroke="midnightblue" points="31.72,-315.31 27.84,-305.45 24.73,-315.58 31.72,-315.31"/>
</g>
<!-- Node6 -->
<g id="node6" class="node">
<title>Node6</title>
<g id="a_node6"><a xlink:href="classJoyAxis.html" target="_top" xlink:title=" ">
<polygon fill="white" stroke="black" points="94,-476.18 94,-495.18 146,-495.18 146,-476.18 94,-476.18"/>
<text text-anchor="middle" x="120" y="-483.18" font-family="Helvetica,sans-Serif" font-size="10.00">JoyAxis</text>
</a>
</g>
</g>
<!-- Node5&#45;&gt;Node6 -->
<g id="edge6" class="edge">
<title>Node5&#45;&gt;Node6</title>
<path fill="none" stroke="midnightblue" d="M36.56,-314.49C55.7,-354.24 99.69,-445.59 114.24,-475.79"/>
<polygon fill="midnightblue" stroke="midnightblue" points="39.66,-312.85 32.16,-305.36 33.35,-315.89 39.66,-312.85"/>
</g>
<!-- Node8 -->
<g id="node8" class="node">
<title>Node8</title>
<g id="a_node8"><a xlink:href="classSetJoystickXml.html" target="_top" xlink:title=" ">
<polygon fill="white" stroke="black" points="617,-178.18 617,-197.18 702,-197.18 702,-178.18 617,-178.18"/>
<text text-anchor="middle" x="659.5" y="-185.18" font-family="Helvetica,sans-Serif" font-size="10.00">SetJoystickXml</text>
</a>
</g>
</g>
<!-- Node5&#45;&gt;Node8 -->
<g id="edge9" class="edge">
<title>Node5&#45;&gt;Node8</title>
<path fill="none" stroke="midnightblue" d="M51.14,-280.88C62.51,-274.38 76.56,-267.21 90,-262.68 123.3,-251.44 133.26,-254.98 168,-249.68 333.67,-224.39 531.96,-201.61 616.73,-192.22"/>
<polygon fill="midnightblue" stroke="midnightblue" points="49.12,-278.01 42.3,-286.11 52.69,-284.04 49.12,-278.01"/>
</g>
<!-- Node9 -->
<g id="node9" class="node">
<title>Node9</title>
<g id="a_node9"><a xlink:href="classJoyAxisXml.html" target="_top" xlink:title=" ">
<polygon fill="white" stroke="black" points="349.5,-240.18 349.5,-259.18 418.5,-259.18 418.5,-240.18 349.5,-240.18"/>
<text text-anchor="middle" x="384" y="-247.18" font-family="Helvetica,sans-Serif" font-size="10.00">JoyAxisXml</text>
</a>
</g>
</g>
<!-- Node5&#45;&gt;Node9 -->
<g id="edge12" class="edge">
<title>Node5&#45;&gt;Node9</title>
<path fill="none" stroke="midnightblue" d="M62.97,-285.95C91.21,-278.61 131.84,-268.94 168,-263.68 231.67,-254.41 306.84,-251.28 349.31,-250.22"/>
<polygon fill="midnightblue" stroke="midnightblue" points="61.94,-282.6 53.16,-288.54 63.73,-289.37 61.94,-282.6"/>
</g>
<!-- Node10 -->
<g id="node10" class="node">
<title>Node10</title>
<g id="a_node10"><a xlink:href="classJoyButtonXml.html" target="_top" xlink:title=" ">
<polygon fill="white" stroke="black" points="1533,-372.18 1533,-391.18 1611,-391.18 1611,-372.18 1533,-372.18"/>
<text text-anchor="middle" x="1572" y="-379.18" font-family="Helvetica,sans-Serif" font-size="10.00">JoyButtonXml</text>
</a>
</g>
</g>
<!-- Node5&#45;&gt;Node10 -->
<g id="edge15" class="edge">
<title>Node5&#45;&gt;Node10</title>
<path fill="none" stroke="midnightblue" d="M38.56,-314.03C53.67,-336.52 83.04,-371.68 119,-371.68 119,-371.68 119,-371.68 530,-371.68 722.88,-371.68 770.12,-400.68 963,-400.68 963,-400.68 963,-400.68 1399.5,-400.68 1445.63,-400.68 1498.32,-393.8 1532.99,-388.32"/>
<polygon fill="midnightblue" stroke="midnightblue" points="41.31,-311.84 32.98,-305.3 35.42,-315.61 41.31,-311.84"/>
</g>
<!-- Node11 -->
<g id="node11" class="node">
<title>Node11</title>
<g id="a_node11"><a xlink:href="classJoyButton.html" target="_top" xlink:title=" ">
<polygon fill="white" stroke="black" points="1368,-167.18 1368,-186.18 1429,-186.18 1429,-167.18 1368,-167.18"/>
<text text-anchor="middle" x="1398.5" y="-174.18" font-family="Helvetica,sans-Serif" font-size="10.00">JoyButton</text>
</a>
</g>
</g>
<!-- Node5&#45;&gt;Node11 -->
<g id="edge17" class="edge">
<title>Node5&#45;&gt;Node11</title>
<path fill="none" stroke="midnightblue" d="M27.68,-275.94C29.28,-225.83 41.01,-97.68 119,-97.68 119,-97.68 119,-97.68 776.5,-97.68 1005.82,-97.68 1278.99,-151.34 1367.94,-170.21"/>
<polygon fill="midnightblue" stroke="midnightblue" points="24.18,-276.05 27.46,-286.13 31.18,-276.2 24.18,-276.05"/>
</g>
<!-- Node12 -->
<g id="node12" class="node">
<title>Node12</title>
<g id="a_node12"><a xlink:href="classJoyButtonMouseHelper.html" target="_top" xlink:title=" ">
<polygon fill="white" stroke="black" points="168,-299.18 168,-318.18 287,-318.18 287,-299.18 168,-299.18"/>
<text text-anchor="middle" x="227.5" y="-306.18" font-family="Helvetica,sans-Serif" font-size="10.00">JoyButtonMouseHelper</text>
</a>
</g>
</g>
<!-- Node5&#45;&gt;Node12 -->
<g id="edge19" class="edge">
<title>Node5&#45;&gt;Node12</title>
<path fill="none" stroke="midnightblue" d="M63.23,-298.01C92.33,-299.91 134.03,-302.64 167.99,-304.86"/>
<polygon fill="midnightblue" stroke="midnightblue" points="63.32,-294.51 53.11,-297.35 62.86,-301.49 63.32,-294.51"/>
</g>
<!-- Node13 -->
<g id="node13" class="node">
<title>Node13</title>
<g id="a_node13"><a xlink:href="classJoyButtonSlot.html" target="_top" xlink:title=" ">
<polygon fill="white" stroke="black" points="490,-315.18 490,-334.18 568,-334.18 568,-315.18 490,-315.18"/>
<text text-anchor="middle" x="529" y="-322.18" font-family="Helvetica,sans-Serif" font-size="10.00">JoyButtonSlot</text>
</a>
</g>
</g>
<!-- Node5&#45;&gt;Node13 -->
<g id="edge22" class="edge">
<title>Node5&#45;&gt;Node13</title>
<path fill="none" stroke="midnightblue" d="M61.3,-308.65C64.56,-309.74 67.83,-310.77 71,-311.68 112.57,-323.63 124.77,-318.27 168,-319.68 285.29,-323.5 424.18,-324.4 489.89,-324.62"/>
<polygon fill="midnightblue" stroke="midnightblue" points="62.28,-305.28 51.68,-305.28 59.96,-311.89 62.28,-305.28"/>
</g>
<!-- Node15 -->
<g id="node15" class="node">
<title>Node15</title>
<g id="a_node15"><a xlink:href="classJoyDPad.html" target="_top" xlink:title=" ">
<polygon fill="white" stroke="black" points="1033,-50.18 1033,-69.18 1090,-69.18 1090,-50.18 1033,-50.18"/>
<text text-anchor="middle" x="1061.5" y="-57.18" font-family="Helvetica,sans-Serif" font-size="10.00">JoyDPad</text>
</a>
</g>
</g>
<!-- Node5&#45;&gt;Node15 -->
<g id="edge25" class="edge">
<title>Node5&#45;&gt;Node15</title>
<path fill="none" stroke="midnightblue" d="M29.35,-275.92C34.06,-229.26 47.8,-113.89 71,-83.68 85.52,-64.76 95.15,-59.68 119,-59.68 119,-59.68 119,-59.68 862,-59.68 923,-59.68 994.54,-59.68 1032.88,-59.68"/>
<polygon fill="midnightblue" stroke="midnightblue" points="25.86,-275.68 28.37,-285.97 32.82,-276.36 25.86,-275.68"/>
</g>
<!-- Node17 -->
<g id="node17" class="node">
<title>Node17</title>
<g id="a_node17"><a xlink:href="classInputDevice.html" target="_top" xlink:title=" ">
<polygon fill="white" stroke="black" points="625,-126.18 625,-145.18 694,-145.18 694,-126.18 625,-126.18"/>
<text text-anchor="middle" x="659.5" y="-133.18" font-family="Helvetica,sans-Serif" font-size="10.00">InputDevice</text>
</a>
</g>
</g>
<!-- Node5&#45;&gt;Node17 -->
<g id="edge31" class="edge">
<title>Node5&#45;&gt;Node17</title>
<path fill="none" stroke="midnightblue" d="M29.76,-275.68C34.54,-243.84 48.88,-182.42 90,-154.68 177.6,-95.58 516.01,-122.01 624.69,-132.27"/>
<polygon fill="midnightblue" stroke="midnightblue" points="26.24,-275.58 28.4,-285.95 33.18,-276.5 26.24,-275.58"/>
</g>
<!-- Node22 -->
<g id="node22" class="node">
<title>Node22</title>
<g id="a_node22"><a xlink:href="classJoyControlStick.html" target="_top" xlink:title=" ">
<polygon fill="white" stroke="black" points="1910,-429.18 1910,-448.18 1996,-448.18 1996,-429.18 1910,-429.18"/>
<text text-anchor="middle" x="1953" y="-436.18" font-family="Helvetica,sans-Serif" font-size="10.00">JoyControlStick</text>
</a>
</g>
</g>
<!-- Node5&#45;&gt;Node22 -->
<g id="edge39" class="edge">
<title>Node5&#45;&gt;Node22</title>
<path fill="none" stroke="midnightblue" d="M27.97,-315.95C30.35,-394.8 44.1,-676.68 119,-676.68 119,-676.68 119,-676.68 1733.5,-676.68 1806.49,-676.68 1839.53,-684.42 1892,-633.68 1946.49,-580.99 1951.81,-480.12 1952.09,-448.45"/>
<polygon fill="midnightblue" stroke="midnightblue" points="31.46,-315.38 27.69,-305.48 24.46,-315.57 31.46,-315.38"/>
</g>
<!-- Node6&#45;&gt;Node1 -->
<g id="edge50" class="edge">
<title>Node6&#45;&gt;Node1</title>
<path fill="none" stroke="#9a32cd" stroke-dasharray="5,2" d="M123.24,-505.28C127.32,-531.67 138.48,-578.23 168,-603.68 209.15,-639.15 234.32,-618.39 287,-631.68 411.83,-663.16 559.29,-703.92 624.53,-722.15"/>
<polygon fill="#9a32cd" stroke="#9a32cd" points="126.7,-504.77 121.89,-495.33 119.76,-505.71 126.7,-504.77"/>
<text text-anchor="middle" x="384" y="-679.68" font-family="Helvetica,sans-Serif" font-size="10.00"> axis</text>
</g>
<!-- Node6&#45;&gt;Node4 -->
<g id="edge5" class="edge">
<title>Node6&#45;&gt;Node4</title>
<path fill="none" stroke="#9a32cd" stroke-dasharray="5,2" d="M122.32,-505.59C125.35,-535.93 135.32,-593.88 168,-628.68 193.66,-656.01 296.04,-689.16 349.74,-705.15"/>
<polygon fill="#9a32cd" stroke="#9a32cd" points="125.79,-505.09 121.46,-495.42 118.81,-505.68 125.79,-505.09"/>
<text text-anchor="middle" x="227.5" y="-686.68" font-family="Helvetica,sans-Serif" font-size="10.00"> axis</text>
</g>
<!-- Node6&#45;&gt;Node9 -->
<g id="edge13" class="edge">
<title>Node6&#45;&gt;Node9</title>
<path fill="none" stroke="#9a32cd" stroke-dasharray="5,2" d="M122.77,-465.84C127.32,-419.59 141,-306.64 168,-281.68 174.6,-275.58 290.43,-260.84 349.27,-253.69"/>
<polygon fill="#9a32cd" stroke="#9a32cd" points="119.26,-465.79 121.81,-476.07 126.23,-466.44 119.26,-465.79"/>
<text text-anchor="middle" x="227.5" y="-284.68" font-family="Helvetica,sans-Serif" font-size="10.00"> m_joyAxis</text>
</g>
<!-- Node20 -->
<g id="node20" class="node">
<title>Node20</title>
<g id="a_node20"><a xlink:href="classJoyAxisButton.html" target="_top" xlink:title=" ">
<polygon fill="white" stroke="black" points="1692.5,-475.18 1692.5,-494.18 1772.5,-494.18 1772.5,-475.18 1692.5,-475.18"/>
<text text-anchor="middle" x="1732.5" y="-482.18" font-family="Helvetica,sans-Serif" font-size="10.00">JoyAxisButton</text>
</a>
</g>
</g>
<!-- Node6&#45;&gt;Node20 -->
<g id="edge37" class="edge">
<title>Node6&#45;&gt;Node20</title>
<path fill="none" stroke="#9a32cd" stroke-dasharray="5,2" d="M151.86,-499.14C200.18,-518.97 297.05,-553.68 383,-553.68 383,-553.68 383,-553.68 1573,-553.68 1631.82,-553.68 1693.48,-513.23 1719.15,-494.27"/>
<polygon fill="#9a32cd" stroke="#9a32cd" points="153.17,-495.9 142.59,-495.28 150.47,-502.36 153.17,-495.9"/>
<text text-anchor="middle" x="1061.5" y="-556.68" font-family="Helvetica,sans-Serif" font-size="10.00"> m_axis</text>
</g>
<!-- Node6&#45;&gt;Node22 -->
<g id="edge47" class="edge">
<title>Node6&#45;&gt;Node22</title>
<path fill="none" stroke="#9a32cd" stroke-dasharray="5,2" d="M133.38,-503.71C141.89,-514.79 154.13,-528.4 168,-536.68 252.68,-587.25 284.37,-591.68 383,-591.68 383,-591.68 383,-591.68 776.5,-591.68 902.72,-591.68 934.28,-592.68 1060.5,-592.68 1060.5,-592.68 1060.5,-592.68 1733.5,-592.68 1834.21,-592.68 1921.18,-482.02 1945.34,-448.31"/>
<polygon fill="#9a32cd" stroke="#9a32cd" points="136.12,-501.53 127.4,-495.52 130.47,-505.66 136.12,-501.53"/>
<text text-anchor="middle" x="1139" y="-606.68" font-family="Helvetica,sans-Serif" font-size="10.00"> axisX</text>
<text text-anchor="middle" x="1139" y="-595.68" font-family="Helvetica,sans-Serif" font-size="10.00">axisY</text>
</g>
<!-- Node7 -->
<g id="node7" class="node">
<title>Node7</title>
<g id="a_node7"><a xlink:href="classSetJoystick.html" target="_top" xlink:title=" ">
<polygon fill="white" stroke="black" points="827,-150.18 827,-169.18 895,-169.18 895,-150.18 827,-150.18"/>
<text text-anchor="middle" x="861" y="-157.18" font-family="Helvetica,sans-Serif" font-size="10.00">SetJoystick</text>
</a>
</g>
</g>
<!-- Node7&#45;&gt;Node6 -->
<g id="edge7" class="edge">
<title>Node7&#45;&gt;Node6</title>
<path fill="none" stroke="#9a32cd" stroke-dasharray="5,2" d="M841.96,-176.31C789.69,-224.14 638,-360.22 577,-385.68 408.09,-456.17 330.65,-349.75 168,-433.68 149.18,-443.39 134.23,-463.92 126.59,-476.08"/>
<polygon fill="#9a32cd" stroke="#9a32cd" points="844.47,-178.76 849.47,-169.42 839.73,-173.61 844.47,-178.76"/>
<text text-anchor="middle" x="529" y="-412.68" font-family="Helvetica,sans-Serif" font-size="10.00"> m_parentSet</text>
</g>
<!-- Node7&#45;&gt;Node8 -->
<g id="edge10" class="edge">
<title>Node7&#45;&gt;Node8</title>
<path fill="none" stroke="#9a32cd" stroke-dasharray="5,2" d="M817.07,-170.18C814.35,-170.72 811.64,-171.23 809,-171.68 773.22,-177.79 732.16,-182 702.3,-184.56"/>
<polygon fill="#9a32cd" stroke="#9a32cd" points="817.87,-173.59 826.93,-168.09 816.42,-166.74 817.87,-173.59"/>
<text text-anchor="middle" x="775.5" y="-183.68" font-family="Helvetica,sans-Serif" font-size="10.00"> m_setJoystick</text>
</g>
<!-- Node7&#45;&gt;Node11 -->
<g id="edge20" class="edge">
<title>Node7&#45;&gt;Node11</title>
<path fill="none" stroke="#9a32cd" stroke-dasharray="5,2" d="M905.37,-161.05C1010.84,-164.4 1278.6,-172.9 1367.96,-175.74"/>
<polygon fill="#9a32cd" stroke="#9a32cd" points="905.2,-157.55 895.09,-160.73 904.98,-164.54 905.2,-157.55"/>
<text text-anchor="middle" x="1139" y="-172.68" font-family="Helvetica,sans-Serif" font-size="10.00"> m_parentSet</text>
</g>
<!-- Node7&#45;&gt;Node15 -->
<g id="edge26" class="edge">
<title>Node7&#45;&gt;Node15</title>
<path fill="none" stroke="#9a32cd" stroke-dasharray="5,2" d="M888.88,-145.27C896.64,-141.16 905.14,-136.7 913,-132.68 958.52,-109.37 1012.5,-82.96 1040.85,-69.19"/>
<polygon fill="#9a32cd" stroke="#9a32cd" points="887.06,-142.27 879.88,-150.06 890.35,-148.45 887.06,-142.27"/>
<text text-anchor="middle" x="964" y="-135.68" font-family="Helvetica,sans-Serif" font-size="10.00"> m_parentSet</text>
</g>
<!-- Node8&#45;&gt;Node7 -->
<g id="edge8" class="edge">
<title>Node8&#45;&gt;Node7</title>
<path fill="none" stroke="midnightblue" d="M712.4,-179.15C722.22,-177.6 732.42,-176.05 742,-174.68 770.62,-170.58 803.23,-166.47 826.9,-163.6"/>
<polygon fill="midnightblue" stroke="midnightblue" points="711.67,-175.72 702.34,-180.74 712.77,-182.63 711.67,-175.72"/>
</g>
<!-- Node9&#45;&gt;Node8 -->
<g id="edge11" class="edge">
<title>Node9&#45;&gt;Node8</title>
<path fill="none" stroke="#9a32cd" stroke-dasharray="5,2" d="M428.71,-250.03C468.65,-248.97 528.67,-243.84 577,-224.68 586.17,-221.04 586.31,-216.35 595,-211.68 605.48,-206.04 617.58,-201.11 628.38,-197.22"/>
<polygon fill="#9a32cd" stroke="#9a32cd" points="428.44,-246.54 418.5,-250.23 428.57,-253.54 428.44,-246.54"/>
<text text-anchor="middle" x="529" y="-249.68" font-family="Helvetica,sans-Serif" font-size="10.00"> joyAxisXml</text>
</g>
<!-- Node10&#45;&gt;Node8 -->
<g id="edge14" class="edge">
<title>Node10&#45;&gt;Node8</title>
<path fill="none" stroke="#9a32cd" stroke-dasharray="5,2" d="M1522.78,-373.46C1488.5,-368.32 1441.31,-362.68 1399.5,-362.68 1138,-362.68 1138,-362.68 1138,-362.68 1038,-362.68 1008.42,-391.6 913,-361.68 804.29,-327.58 700.89,-228.9 669.88,-197.44"/>
<polygon fill="#9a32cd" stroke="#9a32cd" points="1522.57,-376.97 1532.99,-375.03 1523.64,-370.05 1522.57,-376.97"/>
<text text-anchor="middle" x="1139" y="-365.68" font-family="Helvetica,sans-Serif" font-size="10.00"> joyButtonXml</text>
</g>
<!-- Node11&#45;&gt;Node10 -->
<g id="edge16" class="edge">
<title>Node11&#45;&gt;Node10</title>
<path fill="none" stroke="#9a32cd" stroke-dasharray="5,2" d="M1411.43,-194.95C1441.65,-241.22 1519.13,-359.54 1523,-362.68 1527.67,-366.46 1533.18,-369.56 1538.77,-372.08"/>
<polygon fill="#9a32cd" stroke="#9a32cd" points="1414.29,-192.94 1405.89,-186.48 1408.43,-196.76 1414.29,-192.94"/>
<text text-anchor="middle" x="1476" y="-336.68" font-family="Helvetica,sans-Serif" font-size="10.00"> m_joyButton</text>
</g>
<!-- Node16 -->
<g id="node16" class="node">
<title>Node16</title>
<g id="a_node16"><a xlink:href="classJoyDPadButton.html" target="_top" xlink:title=" ">
<polygon fill="white" stroke="black" points="1529,-26.18 1529,-45.18 1615,-45.18 1615,-26.18 1529,-26.18"/>
<text text-anchor="middle" x="1572" y="-33.18" font-family="Helvetica,sans-Serif" font-size="10.00">JoyDPadButton</text>
</a>
</g>
</g>
<!-- Node11&#45;&gt;Node16 -->
<g id="edge28" class="edge">
<title>Node11&#45;&gt;Node16</title>
<path fill="none" stroke="midnightblue" d="M1419.11,-160.56C1454.95,-131.09 1530.04,-69.35 1559.13,-45.44"/>
<polygon fill="midnightblue" stroke="midnightblue" points="1416.79,-157.93 1411.29,-166.99 1421.24,-163.34 1416.79,-157.93"/>
</g>
<!-- Node21 -->
<g id="node21" class="node">
<title>Node21</title>
<g id="a_node21"><a xlink:href="classJoyGradientButton.html" target="_top" xlink:title=" ">
<polygon fill="white" stroke="black" points="1523,-334.18 1523,-353.18 1621,-353.18 1621,-334.18 1523,-334.18"/>
<text text-anchor="middle" x="1572" y="-341.18" font-family="Helvetica,sans-Serif" font-size="10.00">JoyGradientButton</text>
</a>
</g>
</g>
<!-- Node11&#45;&gt;Node21 -->
<g id="edge36" class="edge">
<title>Node11&#45;&gt;Node21</title>
<path fill="none" stroke="midnightblue" d="M1422.99,-192.05C1445.35,-207.28 1479.31,-231.99 1505,-257.68 1530.02,-282.7 1553.88,-317.35 1564.8,-333.99"/>
<polygon fill="midnightblue" stroke="midnightblue" points="1424.71,-188.99 1414.46,-186.32 1420.81,-194.8 1424.71,-188.99"/>
</g>
<!-- Node12&#45;&gt;Node11 -->
<g id="edge18" class="edge">
<title>Node12&#45;&gt;Node11</title>
<path fill="none" stroke="#9a32cd" stroke-dasharray="5,2" d="M297.25,-300.23C367.63,-291.39 480.11,-276.73 577,-261.68 688.48,-244.36 715.01,-231.35 827,-217.68 1058.28,-189.44 1117.88,-201.88 1350,-181.68 1355.78,-181.17 1361.95,-180.57 1367.87,-179.96"/>
<polygon fill="#9a32cd" stroke="#9a32cd" points="296.67,-296.78 287.18,-301.49 297.54,-303.72 296.67,-296.78"/>
<text text-anchor="middle" x="861" y="-220.68" font-family="Helvetica,sans-Serif" font-size="10.00"> mouseHelper</text>
</g>
<!-- Node13&#45;&gt;Node11 -->
<g id="edge21" class="edge">
<title>Node13&#45;&gt;Node11</title>
<path fill="none" stroke="#9a32cd" stroke-dasharray="5,2" d="M569.47,-312.14C638.36,-290.87 785.38,-248.24 913,-229.68 1105.4,-201.69 1165.84,-272.03 1350,-209.68 1364.27,-204.85 1378.12,-194.35 1387.15,-186.48"/>
<polygon fill="#9a32cd" stroke="#9a32cd" points="568.4,-308.8 559.88,-315.11 570.47,-315.49 568.4,-308.8"/>
<text text-anchor="middle" x="964" y="-353.68" font-family="Helvetica,sans-Serif" font-size="10.00"> currentDelay</text>
<text text-anchor="middle" x="964" y="-342.68" font-family="Helvetica,sans-Serif" font-size="10.00">lastActiveKey</text>
<text text-anchor="middle" x="964" y="-331.68" font-family="Helvetica,sans-Serif" font-size="10.00">currentSetChangeSlot</text>
<text text-anchor="middle" x="964" y="-320.68" font-family="Helvetica,sans-Serif" font-size="10.00">currentKeyPress</text>
<text text-anchor="middle" x="964" y="-309.68" font-family="Helvetica,sans-Serif" font-size="10.00">currentRelease</text>
<text text-anchor="middle" x="964" y="-298.68" font-family="Helvetica,sans-Serif" font-size="10.00">currentCycle</text>
<text text-anchor="middle" x="964" y="-287.68" font-family="Helvetica,sans-Serif" font-size="10.00">previousCycle</text>
<text text-anchor="middle" x="964" y="-276.68" font-family="Helvetica,sans-Serif" font-size="10.00">m_currentDistance</text>
<text text-anchor="middle" x="964" y="-265.68" font-family="Helvetica,sans-Serif" font-size="10.00">currentPause</text>
<text text-anchor="start" x="913" y="-254.68" font-family="Helvetica,sans-Serif" font-size="10.00">currentWheelHorizontal</text>
<text text-anchor="middle" x="964" y="-243.68" font-family="Helvetica,sans-Serif" font-size="10.00">Event</text>
<text text-anchor="middle" x="964" y="-232.68" font-family="Helvetica,sans-Serif" font-size="10.00">...</text>
</g>
<!-- Node14 -->
<g id="node14" class="node">
<title>Node14</title>
<g id="a_node14"><a xlink:href="classVDPad.html" target="_top" xlink:title=" ">
<polygon fill="white" stroke="black" points="1188,-64.18 1188,-83.18 1236,-83.18 1236,-64.18 1188,-64.18"/>
<text text-anchor="middle" x="1212" y="-71.18" font-family="Helvetica,sans-Serif" font-size="10.00">VDPad</text>
</a>
</g>
</g>
<!-- Node14&#45;&gt;Node11 -->
<g id="edge23" class="edge">
<title>Node14&#45;&gt;Node11</title>
<path fill="none" stroke="#9a32cd" stroke-dasharray="5,2" d="M1246.31,-68.48C1276.01,-65.66 1319.41,-66.2 1350,-86.68 1378.63,-105.84 1391.2,-148.03 1395.57,-167.05"/>
<polygon fill="#9a32cd" stroke="#9a32cd" points="1245.58,-65.04 1236.03,-69.64 1246.36,-72 1245.58,-65.04"/>
<text text-anchor="middle" x="1302" y="-89.68" font-family="Helvetica,sans-Serif" font-size="10.00"> m_vdpad</text>
</g>
<!-- Node15&#45;&gt;Node14 -->
<g id="edge24" class="edge">
<title>Node15&#45;&gt;Node14</title>
<path fill="none" stroke="midnightblue" d="M1100.2,-63.23C1127.85,-65.84 1164.53,-69.3 1187.95,-71.5"/>
<polygon fill="midnightblue" stroke="midnightblue" points="1100.37,-59.73 1090.08,-62.28 1099.71,-66.7 1100.37,-59.73"/>
</g>
<!-- Node15&#45;&gt;Node16 -->
<g id="edge29" class="edge">
<title>Node15&#45;&gt;Node16</title>
<path fill="none" stroke="#9a32cd" stroke-dasharray="5,2" d="M1100.26,-57.89C1193.06,-53.52 1431.74,-42.25 1528.9,-37.66"/>
<polygon fill="#9a32cd" stroke="#9a32cd" points="1100.02,-54.4 1090.2,-58.37 1100.35,-61.39 1100.02,-54.4"/>
<text text-anchor="middle" x="1302" y="-53.68" font-family="Helvetica,sans-Serif" font-size="10.00"> m_dpad</text>
</g>
<!-- Node16&#45;&gt;Node15 -->
<g id="edge27" class="edge">
<title>Node16&#45;&gt;Node15</title>
<path fill="none" stroke="#9a32cd" stroke-dasharray="5,2" d="M1518.75,-24.16C1514.11,-23.27 1509.48,-22.42 1505,-21.68 1394.65,-3.25 1365.64,4.56 1254,-2.68 1188.7,-6.91 1167.94,4.56 1108,-21.68 1093.1,-28.2 1079.26,-41.14 1070.85,-50.1"/>
<polygon fill="#9a32cd" stroke="#9a32cd" points="1518.36,-27.65 1528.85,-26.17 1519.73,-20.78 1518.36,-27.65"/>
<text text-anchor="middle" x="1302" y="-5.68" font-family="Helvetica,sans-Serif" font-size="10.00"> activeDiagonalButton</text>
</g>
<!-- Node17&#45;&gt;Node7 -->
<g id="edge30" class="edge">
<title>Node17&#45;&gt;Node7</title>
<path fill="none" stroke="#9a32cd" stroke-dasharray="5,2" d="M704.38,-130.7C734.24,-128.52 774.45,-127.95 809,-135.68 821.41,-138.45 834.37,-144.6 844.12,-149.98"/>
<polygon fill="#9a32cd" stroke="#9a32cd" points="703.96,-127.22 694.28,-131.53 704.53,-134.2 703.96,-127.22"/>
<text text-anchor="middle" x="775.5" y="-138.68" font-family="Helvetica,sans-Serif" font-size="10.00"> m_device</text>
</g>
<!-- Node18 -->
<g id="node18" class="node">
<title>Node18</title>
<g id="a_node18"><a xlink:href="classAntiMicroSettings.html" target="_top" xlink:title=" ">
<polygon fill="white" stroke="black" points="337,-164.18 337,-183.18 431,-183.18 431,-164.18 337,-164.18"/>
<text text-anchor="middle" x="384" y="-171.18" font-family="Helvetica,sans-Serif" font-size="10.00">AntiMicroSettings</text>
</a>
</g>
</g>
<!-- Node18&#45;&gt;Node17 -->
<g id="edge32" class="edge">
<title>Node18&#45;&gt;Node17</title>
<path fill="none" stroke="#9a32cd" stroke-dasharray="5,2" d="M441.15,-166.8C479.46,-162 531.34,-155.29 577,-148.68 592.74,-146.4 610.15,-143.65 624.83,-141.27"/>
<polygon fill="#9a32cd" stroke="#9a32cd" points="440.71,-163.32 431.22,-168.04 441.57,-170.27 440.71,-163.32"/>
<text text-anchor="middle" x="529" y="-164.68" font-family="Helvetica,sans-Serif" font-size="10.00"> m_settings</text>
</g>
<!-- Node19 -->
<g id="node19" class="node">
<title>Node19</title>
<g id="a_node19"><a xlink:title=" ">
<polygon fill="white" stroke="#bfbfbf" points="90,-164.18 90,-183.18 150,-183.18 150,-164.18 90,-164.18"/>
<text text-anchor="middle" x="120" y="-171.18" font-family="Helvetica,sans-Serif" font-size="10.00">QSettings</text>
</a>
</g>
</g>
<!-- Node19&#45;&gt;Node18 -->
<g id="edge33" class="edge">
<title>Node19&#45;&gt;Node18</title>
<path fill="none" stroke="midnightblue" d="M160.17,-173.68C207.34,-173.68 286.48,-173.68 336.65,-173.68"/>
<polygon fill="midnightblue" stroke="midnightblue" points="160.04,-170.18 150.04,-173.68 160.04,-177.18 160.04,-170.18"/>
</g>
<!-- Node20&#45;&gt;Node6 -->
<g id="edge34" class="edge">
<title>Node20&#45;&gt;Node6</title>
<path fill="none" stroke="#9a32cd" stroke-dasharray="5,2" d="M1682.22,-484.68C1650.93,-484.68 1609.59,-484.68 1573,-484.68 963,-484.68 963,-484.68 963,-484.68 640.31,-484.68 248.05,-485.42 146.14,-485.63"/>
<polygon fill="#9a32cd" stroke="#9a32cd" points="1682.42,-488.18 1692.42,-484.68 1682.42,-481.18 1682.42,-488.18"/>
<text text-anchor="middle" x="1061.5" y="-509.68" font-family="Helvetica,sans-Serif" font-size="10.00"> paxisbutton</text>
<text text-anchor="middle" x="1061.5" y="-498.68" font-family="Helvetica,sans-Serif" font-size="10.00">activeButton</text>
<text text-anchor="middle" x="1061.5" y="-487.68" font-family="Helvetica,sans-Serif" font-size="10.00">naxisbutton</text>
</g>
<!-- Node21&#45;&gt;Node20 -->
<g id="edge35" class="edge">
<title>Node21&#45;&gt;Node20</title>
<path fill="none" stroke="midnightblue" d="M1612.42,-357.52C1615.41,-359.1 1618.31,-360.81 1621,-362.68 1633.33,-371.22 1699.79,-447.84 1723.27,-475.1"/>
<polygon fill="midnightblue" stroke="midnightblue" points="1613.81,-354.31 1603.27,-353.21 1610.83,-360.64 1613.81,-354.31"/>
</g>
<!-- Node24 -->
<g id="node24" class="node">
<title>Node24</title>
<g id="a_node24"><a xlink:href="classJoyControlStickModifierButton.html" target="_top" xlink:title=" ">
<polygon fill="white" stroke="black" points="1658,-372.18 1658,-391.18 1807,-391.18 1807,-372.18 1658,-372.18"/>
<text text-anchor="middle" x="1732.5" y="-379.18" font-family="Helvetica,sans-Serif" font-size="10.00">JoyControlStickModifierButton</text>
</a>
</g>
</g>
<!-- Node21&#45;&gt;Node24 -->
<g id="edge42" class="edge">
<title>Node21&#45;&gt;Node24</title>
<path fill="none" stroke="midnightblue" d="M1622.92,-355.65C1645.13,-360.97 1670.92,-367.15 1691.79,-372.16"/>
<polygon fill="midnightblue" stroke="midnightblue" points="1623.54,-352.19 1613,-353.27 1621.9,-359 1623.54,-352.19"/>
</g>
<!-- Node25 -->
<g id="node25" class="node">
<title>Node25</title>
<g id="a_node25"><a xlink:href="classJoyControlStickButton.html" target="_top" xlink:title=" ">
<polygon fill="white" stroke="black" points="2095,-373.18 2095,-392.18 2210,-392.18 2210,-373.18 2095,-373.18"/>
<text text-anchor="middle" x="2152.5" y="-380.18" font-family="Helvetica,sans-Serif" font-size="10.00">JoyControlStickButton</text>
</a>
</g>
</g>
<!-- Node21&#45;&gt;Node25 -->
<g id="edge45" class="edge">
<title>Node21&#45;&gt;Node25</title>
<path fill="none" stroke="midnightblue" d="M1631.3,-344C1725.38,-345.09 1916.41,-349.69 2077,-368.68 2086.54,-369.8 2096.7,-371.43 2106.34,-373.17"/>
<polygon fill="midnightblue" stroke="midnightblue" points="1631.17,-340.5 1621.13,-343.89 1631.09,-347.49 1631.17,-340.5"/>
</g>
<!-- Node22&#45;&gt;Node6 -->
<g id="edge38" class="edge">
<title>Node22&#45;&gt;Node6</title>
<path fill="none" stroke="#9a32cd" stroke-dasharray="5,2" d="M1899.47,-438.68C1855.21,-438.68 1790.22,-438.68 1733.5,-438.68 1138,-438.68 1138,-438.68 1138,-438.68 706.48,-438.68 598.31,-448.5 168,-480.68 160.96,-481.2 153.35,-481.94 146.34,-482.69"/>
<polygon fill="#9a32cd" stroke="#9a32cd" points="1899.7,-442.18 1909.7,-438.68 1899.7,-435.18 1899.7,-442.18"/>
<text text-anchor="middle" x="1139" y="-441.68" font-family="Helvetica,sans-Serif" font-size="10.00"> m_stick</text>
</g>
<!-- Node22&#45;&gt;Node24 -->
<g id="edge43" class="edge">
<title>Node22&#45;&gt;Node24</title>
<path fill="none" stroke="#9a32cd" stroke-dasharray="5,2" d="M1939.44,-420.92C1928.64,-407.3 1911.7,-389.54 1892,-381.68 1858.39,-368.26 1817.49,-368.63 1785.66,-372.16"/>
<polygon fill="#9a32cd" stroke="#9a32cd" points="1936.81,-423.24 1945.63,-429.12 1942.4,-419.03 1936.81,-423.24"/>
<text text-anchor="middle" x="1858.5" y="-384.68" font-family="Helvetica,sans-Serif" font-size="10.00"> stick</text>
</g>
<!-- Node22&#45;&gt;Node25 -->
<g id="edge46" class="edge">
<title>Node22&#45;&gt;Node25</title>
<path fill="none" stroke="#9a32cd" stroke-dasharray="5,2" d="M2006.08,-432.32C2028.25,-428.86 2054.19,-423.8 2077,-416.68 2097.22,-410.36 2119.14,-399.88 2133.93,-392.22"/>
<polygon fill="#9a32cd" stroke="#9a32cd" points="2005.56,-428.86 1996.19,-433.8 2006.59,-435.78 2005.56,-428.86"/>
<text text-anchor="middle" x="2045.5" y="-432.68" font-family="Helvetica,sans-Serif" font-size="10.00"> stick</text>
</g>
<!-- Node23 -->
<g id="node23" class="node">
<title>Node23</title>
<g id="a_node23"><a xlink:href="classJoyStickDirectionsType.html" target="_top" xlink:title=" ">
<polygon fill="white" stroke="black" points="1672.5,-621.18 1672.5,-640.18 1792.5,-640.18 1792.5,-621.18 1672.5,-621.18"/>
<text text-anchor="middle" x="1732.5" y="-628.18" font-family="Helvetica,sans-Serif" font-size="10.00">JoyStickDirectionsType</text>
</a>
</g>
</g>
<!-- Node23&#45;&gt;Node22 -->
<g id="edge40" class="edge">
<title>Node23&#45;&gt;Node22</title>
<path fill="none" stroke="midnightblue" d="M1802.66,-635.36C1833.07,-633.88 1867.39,-626.95 1892,-606.68 1942.44,-565.13 1950.49,-477.94 1951.77,-448.57"/>
<polygon fill="midnightblue" stroke="midnightblue" points="1802.4,-631.86 1792.51,-635.66 1802.61,-638.86 1802.4,-631.86"/>
</g>
<!-- Node24&#45;&gt;Node22 -->
<g id="edge41" class="edge">
<title>Node24&#45;&gt;Node22</title>
<path fill="none" stroke="#9a32cd" stroke-dasharray="5,2" d="M1805.09,-393.06C1832.57,-398.22 1864.03,-405.12 1892,-413.68 1905.6,-417.84 1920.34,-423.96 1931.82,-429.1"/>
<polygon fill="#9a32cd" stroke="#9a32cd" points="1805.63,-389.6 1795.16,-391.23 1804.37,-396.48 1805.63,-389.6"/>
<text text-anchor="middle" x="1858.5" y="-416.68" font-family="Helvetica,sans-Serif" font-size="10.00"> modifierButton</text>
</g>
<!-- Node25&#45;&gt;Node22 -->
<g id="edge44" class="edge">
<title>Node25&#45;&gt;Node22</title>
<path fill="none" stroke="#9a32cd" stroke-dasharray="5,2" d="M2084.82,-373.59C2061.7,-372.91 2036.06,-375 2014,-383.68 1990.59,-392.88 1970.73,-415.88 1960.8,-429.03"/>
<polygon fill="#9a32cd" stroke="#9a32cd" points="2084.74,-377.09 2094.89,-374.07 2085.07,-370.1 2084.74,-377.09"/>
<text text-anchor="middle" x="2045.5" y="-408.68" font-family="Helvetica,sans-Serif" font-size="10.00"> activeButton1</text>
<text text-anchor="middle" x="2045.5" y="-397.68" font-family="Helvetica,sans-Serif" font-size="10.00">activeButton2</text>
<text text-anchor="middle" x="2045.5" y="-386.68" font-family="Helvetica,sans-Serif" font-size="10.00">activeButton3</text>
</g>
<!-- Node26 -->
<g id="node26" class="node">
<title>Node26</title>
<g id="a_node26"><a xlink:href="classSpringModeRegionPreview.html" target="_top" xlink:title=" ">
<polygon fill="white" stroke="black" points="317,-781.18 317,-800.18 451,-800.18 451,-781.18 317,-781.18"/>
<text text-anchor="middle" x="384" y="-788.18" font-family="Helvetica,sans-Serif" font-size="10.00">SpringModeRegionPreview</text>
</a>
</g>
</g>
<!-- Node26&#45;&gt;Node1 -->
<g id="edge48" class="edge">
<title>Node26&#45;&gt;Node1</title>
<path fill="none" stroke="#9a32cd" stroke-dasharray="5,2" d="M456.73,-779.46C492.97,-773.32 537.53,-765.06 577,-755.68 594.36,-751.55 613.52,-745.96 628.9,-741.22"/>
<polygon fill="#9a32cd" stroke="#9a32cd" points="456.02,-776.03 446.74,-781.13 457.18,-782.93 456.02,-776.03"/>
<text text-anchor="middle" x="529" y="-777.68" font-family="Helvetica,sans-Serif" font-size="10.00"> springPreviewWidget</text>
</g>
<!-- Node27 -->
<g id="node27" class="node">
<title>Node27</title>
<g id="a_node27"><a xlink:title=" ">
<polygon fill="white" stroke="#bfbfbf" points="92.5,-781.18 92.5,-800.18 147.5,-800.18 147.5,-781.18 92.5,-781.18"/>
<text text-anchor="middle" x="120" y="-788.18" font-family="Helvetica,sans-Serif" font-size="10.00">QWidget</text>
</a>
</g>
</g>
<!-- Node27&#45;&gt;Node26 -->
<g id="edge49" class="edge">
<title>Node27&#45;&gt;Node26</title>
<path fill="none" stroke="midnightblue" d="M157.68,-790.68C198.8,-790.68 266.34,-790.68 316.77,-790.68"/>
<polygon fill="midnightblue" stroke="midnightblue" points="157.56,-787.18 147.56,-790.68 157.56,-794.18 157.56,-787.18"/>
</g>
</g>
</svg>
        <g id="navigator" transform="translate(0 0)" fill="#404254">
                <rect fill="#f2f5e9" fill-opacity="0.5" stroke="#606060" stroke-width=".5" x="0" y="0" width="60" height="60"/>
                <use id="zoomplus" xlink:href="#zoomPlus" x="17" y="9" onmousedown="handleZoom(evt,'in')"/>
                <use id="zoomminus" xlink:href="#zoomMin" x="42" y="9" onmousedown="handleZoom(evt,'out')"/>
                <use id="reset" xlink:href="#resetDef" x="30" y="36" onmousedown="handleReset()"/>
                <g id="arrowUp" xlink:href="#dirArrow" transform="translate(30 24)" onmousedown="handlePan(0,-1)">
                  <use xlink:href="#rim" fill="#404040">
                        <set attributeName="fill" to="#808080" begin="arrowUp.mouseover" end="arrowUp.mouseout"/>
                  </use>
                  <path fill="none" stroke="white" stroke-width="1.5" d="M0,-3.0v7 M-2.5,-0.5L0,-3.0L2.5,-0.5"/>
                </g>
                <g id="arrowRight" xlink:href="#dirArrow" transform="rotate(90) translate(36 -43)" onmousedown="handlePan(1,0)">
                  <use xlink:href="#rim" fill="#404040">
                        <set attributeName="fill" to="#808080" begin="arrowRight.mouseover" end="arrowRight.mouseout"/>
                  </use>
                  <path fill="none" stroke="white" stroke-width="1.5" d="M0,-3.0v7 M-2.5,-0.5L0,-3.0L2.5,-0.5"/>
                </g>
                <g id="arrowDown" xlink:href="#dirArrow" transform="rotate(180) translate(-30 -48)" onmousedown="handlePan(0,1)">
                  <use xlink:href="#rim" fill="#404040">
                        <set attributeName="fill" to="#808080" begin="arrowDown.mouseover" end="arrowDown.mouseout"/>
                  </use>
                  <path fill="none" stroke="white" stroke-width="1.5" d="M0,-3.0v7 M-2.5,-0.5L0,-3.0L2.5,-0.5"/>
                </g>
                <g id="arrowLeft" xlink:href="#dirArrow" transform="rotate(270) translate(-36 17)" onmousedown="handlePan(-1,0)">
                  <use xlink:href="#rim" fill="#404040">
                        <set attributeName="fill" to="#808080" begin="arrowLeft.mouseover" end="arrowLeft.mouseout"/>
                  </use>
                  <path fill="none" stroke="white" stroke-width="1.5" d="M0,-3.0v7 M-2.5,-0.5L0,-3.0L2.5,-0.5"/>
                </g>
        </g>
        <svg viewBox="0 0 15 15" width="100%" height="30px" preserveAspectRatio="xMaxYMin meet">
         <g id="arrow_out" transform="scale(0.3 0.3)">
          <a xlink:href="classMouseAxisSettingsDialog__coll__graph_org.svg" target="_base">
           <rect id="button" ry="5" rx="5" y="6" x="6" height="38" width="38"
                fill="#f2f5e9" fill-opacity="0.5" stroke="#606060" stroke-width="1.0"/>
           <path id="arrow"
             d="M 11.500037,31.436501 C 11.940474,20.09759 22.043105,11.32322 32.158766,21.979434 L 37.068811,17.246167 C 37.068811,17.246167 37.088388,32 37.088388,32 L 22.160133,31.978069 C 22.160133,31.978069 26.997745,27.140456 26.997745,27.140456 C 18.528582,18.264221 13.291696,25.230495 11.500037,31.436501 z"
             style="fill:#404040;"/>
          </a>
         </g>
        </svg>
</svg>
