<?xml version="1.0" encoding="UTF-8" standalone="no"?>
<!DOCTYPE svg PUBLIC "-//W3C//DTD SVG 1.1//EN"
 "http://www.w3.org/Graphics/SVG/1.1/DTD/svg11.dtd">
<!-- Generated by graphviz version 2.43.0 (0)
 -->
<!-- Title: AxisEditDialog::refreshPButtonLabel Pages: 1 -->
<svg width="1646pt" height="464pt"
 viewBox="0.00 0.00 1646.00 464.50" xmlns="http://www.w3.org/2000/svg" xmlns:xlink="http://www.w3.org/1999/xlink">
<g id="graph0" class="graph" transform="scale(1 1) rotate(0) translate(4 460.5)">
<title>AxisEditDialog::refreshPButtonLabel</title>
<polygon fill="white" stroke="transparent" points="-4,4 -4,-460.5 1642,-460.5 1642,4 -4,4"/>
<!-- Node1 -->
<g id="node1" class="node">
<title>Node1</title>
<g id="a_node1"><a xlink:title=" ">
<polygon fill="#bfbfbf" stroke="black" points="0,-298.5 0,-328.5 152,-328.5 152,-298.5 0,-298.5"/>
<text text-anchor="start" x="8" y="-316.5" font-family="Helvetica,sans-Serif" font-size="10.00">AxisEditDialog::refreshPButton</text>
<text text-anchor="middle" x="76" y="-305.5" font-family="Helvetica,sans-Serif" font-size="10.00">Label</text>
</a>
</g>
</g>
<!-- Node2 -->
<g id="node2" class="node">
<title>Node2</title>
<g id="a_node2"><a xlink:href="classJoyAxis.html#ad51d55d2a95190468209f7481eae8639" target="_top" xlink:title=" ">
<polygon fill="white" stroke="black" points="198.5,-323 198.5,-342 323.5,-342 323.5,-323 198.5,-323"/>
<text text-anchor="middle" x="261" y="-330" font-family="Helvetica,sans-Serif" font-size="10.00">JoyAxis::getPAxisButton</text>
</a>
</g>
</g>
<!-- Node1&#45;&gt;Node2 -->
<g id="edge1" class="edge">
<title>Node1&#45;&gt;Node2</title>
<path fill="none" stroke="midnightblue" d="M152.23,-321.31C164.12,-322.54 176.39,-323.82 188.21,-325.04"/>
<polygon fill="midnightblue" stroke="midnightblue" points="188.14,-328.55 198.45,-326.1 188.86,-321.59 188.14,-328.55"/>
</g>
<!-- Node3 -->
<g id="node3" class="node">
<title>Node3</title>
<g id="a_node3"><a xlink:href="classJoyButton.html#ad0e91e7eea8ee9487ee3acf57f1bdc41" target="_top" xlink:title="Generate a string representing a summary of the slots currently assigned to a button.">
<polygon fill="white" stroke="black" points="188,-285 188,-304 334,-304 334,-285 188,-285"/>
<text text-anchor="middle" x="261" y="-292" font-family="Helvetica,sans-Serif" font-size="10.00">JoyButton::getSlotsSummary</text>
</a>
</g>
</g>
<!-- Node1&#45;&gt;Node3 -->
<g id="edge2" class="edge">
<title>Node1&#45;&gt;Node3</title>
<path fill="none" stroke="midnightblue" d="M152.23,-305.69C160.57,-304.82 169.09,-303.93 177.52,-303.06"/>
<polygon fill="midnightblue" stroke="midnightblue" points="178.14,-306.51 187.72,-302 177.41,-299.55 178.14,-306.51"/>
</g>
<!-- Node4 -->
<g id="node4" class="node">
<title>Node4</title>
<g id="a_node4"><a xlink:href="classJoyButton.html#ae1d364dfa70f47fae3db99ffbcdea44b" target="_top" xlink:title=" ">
<polygon fill="white" stroke="black" points="370,-304 370,-323 513,-323 513,-304 370,-304"/>
<text text-anchor="middle" x="441.5" y="-311" font-family="Helvetica,sans-Serif" font-size="10.00">JoyButton::getAssignedSlots</text>
</a>
</g>
</g>
<!-- Node3&#45;&gt;Node4 -->
<g id="edge3" class="edge">
<title>Node3&#45;&gt;Node4</title>
<path fill="none" stroke="midnightblue" d="M334.09,-302.17C342.57,-303.07 351.27,-304 359.86,-304.91"/>
<polygon fill="midnightblue" stroke="midnightblue" points="359.57,-308.4 369.88,-305.98 360.31,-301.44 359.57,-308.4"/>
</g>
<!-- Node5 -->
<g id="node5" class="node">
<title>Node5</title>
<g id="a_node5"><a xlink:href="classJoyButtonSlot.html#a6e10409ded595380cbdcfd5c827ab32a" target="_top" xlink:title=" ">
<polygon fill="white" stroke="black" points="371.5,-266 371.5,-285 511.5,-285 511.5,-266 371.5,-266"/>
<text text-anchor="middle" x="441.5" y="-273" font-family="Helvetica,sans-Serif" font-size="10.00">JoyButtonSlot::getSlotString</text>
</a>
</g>
</g>
<!-- Node3&#45;&gt;Node5 -->
<g id="edge4" class="edge">
<title>Node3&#45;&gt;Node5</title>
<path fill="none" stroke="midnightblue" d="M334.09,-286.82C343.02,-285.87 352.18,-284.9 361.21,-283.94"/>
<polygon fill="midnightblue" stroke="midnightblue" points="361.75,-287.4 371.33,-282.86 361.01,-280.44 361.75,-287.4"/>
</g>
<!-- Node6 -->
<g id="node6" class="node">
<title>Node6</title>
<g id="a_node6"><a xlink:href="classJoyButtonSlot.html#a4fb0606a34134786bc642627bc25aedd" target="_top" xlink:title=" ">
<polygon fill="white" stroke="black" points="561.5,-345 561.5,-364 697.5,-364 697.5,-345 561.5,-345"/>
<text text-anchor="middle" x="629.5" y="-352" font-family="Helvetica,sans-Serif" font-size="10.00">JoyButtonSlot::getMixSlots</text>
</a>
</g>
</g>
<!-- Node5&#45;&gt;Node6 -->
<g id="edge5" class="edge">
<title>Node5&#45;&gt;Node6</title>
<path fill="none" stroke="midnightblue" d="M484.01,-285.03C493.66,-287.7 503.8,-290.88 513,-294.5 529.84,-301.11 532.96,-305.13 549,-313.5 566.22,-322.48 585.58,-332.47 600.89,-340.34"/>
<polygon fill="midnightblue" stroke="midnightblue" points="599.35,-343.48 609.84,-344.94 602.55,-337.25 599.35,-343.48"/>
</g>
<!-- Node8 -->
<g id="node8" class="node">
<title>Node8</title>
<g id="a_node8"><a xlink:href="namespacePadderCommon.html#aaa09739d2df84421a5a3467a06ce941c" target="_top" xlink:title="Returns the &quot;human&#45;readable&quot; name of the given profile.">
<polygon fill="white" stroke="black" points="549,-285 549,-304 710,-304 710,-285 549,-285"/>
<text text-anchor="middle" x="629.5" y="-292" font-family="Helvetica,sans-Serif" font-size="10.00">PadderCommon::getProfileName</text>
</a>
</g>
</g>
<!-- Node5&#45;&gt;Node8 -->
<g id="edge7" class="edge">
<title>Node5&#45;&gt;Node8</title>
<path fill="none" stroke="midnightblue" d="M511.76,-282.57C520.54,-283.47 529.62,-284.4 538.67,-285.32"/>
<polygon fill="midnightblue" stroke="midnightblue" points="538.54,-288.82 548.84,-286.36 539.25,-281.86 538.54,-288.82"/>
</g>
<!-- Node9 -->
<g id="node9" class="node">
<title>Node9</title>
<g id="a_node9"><a xlink:href="event_8cpp.html#a76ce89b71143c1c09343f45f038b4a67" target="_top" xlink:title=" ">
<polygon fill="white" stroke="black" points="579,-247 579,-266 680,-266 680,-247 579,-247"/>
<text text-anchor="middle" x="629.5" y="-254" font-family="Helvetica,sans-Serif" font-size="10.00">keysymToKeyString</text>
</a>
</g>
</g>
<!-- Node5&#45;&gt;Node9 -->
<g id="edge8" class="edge">
<title>Node5&#45;&gt;Node9</title>
<path fill="none" stroke="midnightblue" d="M511.76,-268.42C530.5,-266.51 550.61,-264.45 568.77,-262.6"/>
<polygon fill="midnightblue" stroke="midnightblue" points="569.34,-266.06 578.93,-261.56 568.63,-259.09 569.34,-266.06"/>
</g>
<!-- Node32 -->
<g id="node32" class="node">
<title>Node32</title>
<g id="a_node32"><a xlink:href="classJoyButtonSlot.html#a37ff2b523177bae4ea6a44b82f2973eb" target="_top" xlink:title=" ">
<polygon fill="white" stroke="black" points="552,-209 552,-228 707,-228 707,-209 552,-209"/>
<text text-anchor="middle" x="629.5" y="-216" font-family="Helvetica,sans-Serif" font-size="10.00">JoyButtonSlot::movementString</text>
</a>
</g>
</g>
<!-- Node5&#45;&gt;Node32 -->
<g id="edge39" class="edge">
<title>Node5&#45;&gt;Node32</title>
<path fill="none" stroke="midnightblue" d="M466.79,-265.98C488.21,-257.79 520.39,-245.99 549,-237.5 557.4,-235 566.38,-232.6 575.16,-230.4"/>
<polygon fill="midnightblue" stroke="midnightblue" points="576.07,-233.78 584.95,-228.01 574.41,-226.98 576.07,-233.78"/>
</g>
<!-- Node7 -->
<g id="node7" class="node">
<title>Node7</title>
<g id="a_node7"><a xlink:href="classJoyButtonSlot.html#a9ba9cb0dda063a7df5575072c0aabe01" target="_top" xlink:title=" ">
<polygon fill="white" stroke="black" points="746,-361.5 746,-391.5 875,-391.5 875,-361.5 746,-361.5"/>
<text text-anchor="start" x="754" y="-379.5" font-family="Helvetica,sans-Serif" font-size="10.00">JoyButtonSlot::secureMix</text>
<text text-anchor="middle" x="810.5" y="-368.5" font-family="Helvetica,sans-Serif" font-size="10.00">SlotsInit</text>
</a>
</g>
</g>
<!-- Node6&#45;&gt;Node7 -->
<g id="edge6" class="edge">
<title>Node6&#45;&gt;Node7</title>
<path fill="none" stroke="midnightblue" d="M697.66,-362.75C710.11,-364.28 723.17,-365.89 735.8,-367.44"/>
<polygon fill="midnightblue" stroke="midnightblue" points="735.46,-370.92 745.81,-368.67 736.32,-363.97 735.46,-370.92"/>
</g>
<!-- Node10 -->
<g id="node10" class="node">
<title>Node10</title>
<g id="a_node10"><a xlink:href="classX11Extras.html#a643c95dc1de8eb073a0accb41619fe83" target="_top" xlink:title="Get display instance.">
<polygon fill="white" stroke="black" points="950.5,-83 950.5,-102 1049.5,-102 1049.5,-83 950.5,-83"/>
<text text-anchor="middle" x="1000" y="-90" font-family="Helvetica,sans-Serif" font-size="10.00">X11Extras::display</text>
</a>
</g>
</g>
<!-- Node9&#45;&gt;Node10 -->
<g id="edge9" class="edge">
<title>Node9&#45;&gt;Node10</title>
<path fill="none" stroke="midnightblue" d="M680.05,-251.4C690.7,-248.54 701.34,-244.16 710,-237.5 736.78,-216.87 720.32,-192.48 746,-170.5 805.06,-119.95 836.31,-134.03 911,-112.5 921.04,-109.6 931.82,-106.86 942.27,-104.38"/>
<polygon fill="midnightblue" stroke="midnightblue" points="943.21,-107.76 952.16,-102.09 941.63,-100.94 943.21,-107.76"/>
</g>
<!-- Node11 -->
<g id="node11" class="node">
<title>Node11</title>
<g id="a_node11"><a xlink:href="classBaseEventHandler.html#a9a014e472ec57408d16b8b5eed964e90" target="_top" xlink:title=" ">
<polygon fill="white" stroke="black" points="922.5,-437 922.5,-456 1077.5,-456 1077.5,-437 922.5,-437"/>
<text text-anchor="middle" x="1000" y="-444" font-family="Helvetica,sans-Serif" font-size="10.00">BaseEventHandler::getIdentifier</text>
</a>
</g>
</g>
<!-- Node9&#45;&gt;Node11 -->
<g id="edge10" class="edge">
<title>Node9&#45;&gt;Node11</title>
<path fill="none" stroke="midnightblue" d="M680.02,-263.88C690.33,-266.62 700.84,-270.37 710,-275.5 729.75,-286.54 726.67,-299.73 746,-311.5 797.4,-342.76 829.59,-313.03 875,-352.5 902.91,-376.75 881.97,-404.59 911,-427.5 913.09,-429.15 915.3,-430.66 917.59,-432.05"/>
<polygon fill="midnightblue" stroke="midnightblue" points="916.33,-435.34 926.82,-436.82 919.54,-429.12 916.33,-435.34"/>
</g>
<!-- Node12 -->
<g id="node12" class="node">
<title>Node12</title>
<g id="a_node12"><a xlink:href="classX11Extras.html#ace76277fced60e6bd6ff880030338182" target="_top" xlink:title=" ">
<polygon fill="white" stroke="black" points="940.5,-399 940.5,-418 1059.5,-418 1059.5,-399 940.5,-399"/>
<text text-anchor="middle" x="1000" y="-406" font-family="Helvetica,sans-Serif" font-size="10.00">X11Extras::getInstance</text>
</a>
</g>
</g>
<!-- Node9&#45;&gt;Node12 -->
<g id="edge11" class="edge">
<title>Node9&#45;&gt;Node12</title>
<path fill="none" stroke="midnightblue" d="M680.02,-264.06C742.45,-274.42 845.25,-294.52 875,-318.5 902.55,-340.69 882.99,-367.88 911,-389.5 916.87,-394.02 923.59,-397.53 930.63,-400.23"/>
<polygon fill="midnightblue" stroke="midnightblue" points="929.81,-403.64 940.4,-403.44 931.99,-396.99 929.81,-403.64"/>
</g>
<!-- Node15 -->
<g id="node15" class="node">
<title>Node15</title>
<g id="a_node15"><a xlink:href="classEventHandlerFactory.html#a90ce153a19fbb91128bd52eb083ce271" target="_top" xlink:title=" ">
<polygon fill="white" stroke="black" points="945.5,-121.5 945.5,-151.5 1054.5,-151.5 1054.5,-121.5 945.5,-121.5"/>
<text text-anchor="start" x="953.5" y="-139.5" font-family="Helvetica,sans-Serif" font-size="10.00">EventHandlerFactory</text>
<text text-anchor="middle" x="1000" y="-128.5" font-family="Helvetica,sans-Serif" font-size="10.00">::getInstance</text>
</a>
</g>
</g>
<!-- Node9&#45;&gt;Node15 -->
<g id="edge14" class="edge">
<title>Node9&#45;&gt;Node15</title>
<path fill="none" stroke="midnightblue" d="M674.92,-246.93C686.43,-244.17 698.74,-240.95 710,-237.5 801.3,-209.45 820.32,-191.46 911,-161.5 918.91,-158.88 927.28,-156.29 935.58,-153.82"/>
<polygon fill="midnightblue" stroke="midnightblue" points="936.65,-157.15 945.26,-150.98 934.68,-150.43 936.65,-157.15"/>
</g>
<!-- Node18 -->
<g id="node18" class="node">
<title>Node18</title>
<g id="a_node18"><a xlink:href="classEventHandlerFactory.html#a4c13007f0ece5bf881080c9c04f1f20d" target="_top" xlink:title=" ">
<polygon fill="white" stroke="black" points="1318,-119.5 1318,-149.5 1427,-149.5 1427,-119.5 1318,-119.5"/>
<text text-anchor="start" x="1326" y="-137.5" font-family="Helvetica,sans-Serif" font-size="10.00">EventHandlerFactory</text>
<text text-anchor="middle" x="1372.5" y="-126.5" font-family="Helvetica,sans-Serif" font-size="10.00">::handler</text>
</a>
</g>
</g>
<!-- Node9&#45;&gt;Node18 -->
<g id="edge20" class="edge">
<title>Node9&#45;&gt;Node18</title>
<path fill="none" stroke="midnightblue" d="M680.29,-252.86C691.17,-249.96 701.86,-245.2 710,-237.5 750.74,-198.92 705.86,-155.69 746,-116.5 870.89,5.45 951.98,-36.59 1125,-13.5 1185.79,-5.38 1206.99,11.51 1263,-13.5 1307.4,-33.32 1341.2,-81.29 1358.54,-110.53"/>
<polygon fill="midnightblue" stroke="midnightblue" points="1355.57,-112.38 1363.59,-119.3 1361.63,-108.89 1355.57,-112.38"/>
</g>
<!-- Node20 -->
<g id="node20" class="node">
<title>Node20</title>
<g id="a_node20"><a xlink:href="event_8cpp.html#ad239a34cab482dc3cad5a23a9ac1ad78" target="_top" xlink:title=" ">
<polygon fill="white" stroke="black" points="758.5,-247 758.5,-266 862.5,-266 862.5,-247 758.5,-247"/>
<text text-anchor="middle" x="810.5" y="-254" font-family="Helvetica,sans-Serif" font-size="10.00">keycodeToKeyString</text>
</a>
</g>
</g>
<!-- Node9&#45;&gt;Node20 -->
<g id="edge21" class="edge">
<title>Node9&#45;&gt;Node20</title>
<path fill="none" stroke="midnightblue" d="M680.36,-256.5C701.35,-256.5 725.98,-256.5 748.07,-256.5"/>
<polygon fill="midnightblue" stroke="midnightblue" points="748.35,-260 758.35,-256.5 748.35,-253 748.35,-260"/>
</g>
<!-- Node13 -->
<g id="node13" class="node">
<title>Node13</title>
<g id="a_node13"><a xlink:href="classX11Extras.html#ab9bcb016e23bacb0e988feb8175d2c88" target="_top" xlink:title=" ">
<polygon fill="white" stroke="black" points="1137,-399 1137,-418 1251,-418 1251,-399 1137,-399"/>
<text text-anchor="middle" x="1194" y="-406" font-family="Helvetica,sans-Serif" font-size="10.00">X11Extras::X11Extras</text>
</a>
</g>
</g>
<!-- Node12&#45;&gt;Node13 -->
<g id="edge12" class="edge">
<title>Node12&#45;&gt;Node13</title>
<path fill="none" stroke="midnightblue" d="M1059.65,-408.5C1080.78,-408.5 1104.78,-408.5 1126.54,-408.5"/>
<polygon fill="midnightblue" stroke="midnightblue" points="1126.68,-412 1136.68,-408.5 1126.68,-405 1126.68,-412"/>
</g>
<!-- Node14 -->
<g id="node14" class="node">
<title>Node14</title>
<g id="a_node14"><a xlink:href="classX11Extras.html#a6f63e77ed045e174546d77333672b8f0" target="_top" xlink:title=" ">
<polygon fill="white" stroke="black" points="1305,-393.5 1305,-423.5 1440,-423.5 1440,-393.5 1305,-393.5"/>
<text text-anchor="start" x="1313" y="-411.5" font-family="Helvetica,sans-Serif" font-size="10.00">X11Extras::populateKnown</text>
<text text-anchor="middle" x="1372.5" y="-400.5" font-family="Helvetica,sans-Serif" font-size="10.00">Aliases</text>
</a>
</g>
</g>
<!-- Node13&#45;&gt;Node14 -->
<g id="edge13" class="edge">
<title>Node13&#45;&gt;Node14</title>
<path fill="none" stroke="midnightblue" d="M1251.33,-408.5C1265.18,-408.5 1280.25,-408.5 1294.88,-408.5"/>
<polygon fill="midnightblue" stroke="midnightblue" points="1294.92,-412 1304.92,-408.5 1294.92,-405 1294.92,-412"/>
</g>
<!-- Node16 -->
<g id="node16" class="node">
<title>Node16</title>
<g id="a_node16"><a xlink:href="classEventHandlerFactory.html#ade5162034acc0f8683725fdb124bece0" target="_top" xlink:title=" ">
<polygon fill="white" stroke="black" points="1131,-121.5 1131,-151.5 1257,-151.5 1257,-121.5 1131,-121.5"/>
<text text-anchor="start" x="1139" y="-139.5" font-family="Helvetica,sans-Serif" font-size="10.00">EventHandlerFactory</text>
<text text-anchor="middle" x="1194" y="-128.5" font-family="Helvetica,sans-Serif" font-size="10.00">::buildEventGeneratorList</text>
</a>
</g>
</g>
<!-- Node15&#45;&gt;Node16 -->
<g id="edge15" class="edge">
<title>Node15&#45;&gt;Node16</title>
<path fill="none" stroke="midnightblue" d="M1054.74,-136.5C1075.14,-136.5 1098.72,-136.5 1120.56,-136.5"/>
<polygon fill="midnightblue" stroke="midnightblue" points="1120.79,-140 1130.79,-136.5 1120.79,-133 1120.79,-140"/>
</g>
<!-- Node17 -->
<g id="node17" class="node">
<title>Node17</title>
<g id="a_node17"><a xlink:href="classEventHandlerFactory.html#a2f843293b2ea47271fc7bd99bd871fa6" target="_top" xlink:title=" ">
<polygon fill="white" stroke="black" points="1136.5,-72.5 1136.5,-102.5 1251.5,-102.5 1251.5,-72.5 1136.5,-72.5"/>
<text text-anchor="start" x="1144.5" y="-90.5" font-family="Helvetica,sans-Serif" font-size="10.00">EventHandlerFactory</text>
<text text-anchor="middle" x="1194" y="-79.5" font-family="Helvetica,sans-Serif" font-size="10.00">::EventHandlerFactory</text>
</a>
</g>
</g>
<!-- Node15&#45;&gt;Node17 -->
<g id="edge16" class="edge">
<title>Node15&#45;&gt;Node17</title>
<path fill="none" stroke="midnightblue" d="M1054.74,-122.78C1076.97,-117.11 1102.97,-110.47 1126.4,-104.49"/>
<polygon fill="midnightblue" stroke="midnightblue" points="1127.43,-107.84 1136.26,-101.98 1125.7,-101.06 1127.43,-107.84"/>
</g>
<!-- Node15&#45;&gt;Node18 -->
<g id="edge19" class="edge">
<title>Node15&#45;&gt;Node18</title>
<path fill="none" stroke="midnightblue" d="M1054.66,-149.74C1076.36,-154.46 1101.73,-159.17 1125,-161.5 1186.03,-167.59 1202.12,-168.96 1263,-161.5 1279.04,-159.53 1296.13,-155.99 1311.88,-152.1"/>
<polygon fill="midnightblue" stroke="midnightblue" points="1313.19,-155.38 1322.01,-149.51 1311.46,-148.59 1313.19,-155.38"/>
</g>
<!-- Node19 -->
<g id="node19" class="node">
<title>Node19</title>
<g id="a_node19"><a xlink:href="classEventHandlerFactory.html#afa5ca0171c70b1a24f92b5c8dd00dc92" target="_top" xlink:title=" ">
<polygon fill="white" stroke="black" points="1139.5,-23.5 1139.5,-53.5 1248.5,-53.5 1248.5,-23.5 1139.5,-23.5"/>
<text text-anchor="start" x="1147.5" y="-41.5" font-family="Helvetica,sans-Serif" font-size="10.00">EventHandlerFactory</text>
<text text-anchor="middle" x="1194" y="-30.5" font-family="Helvetica,sans-Serif" font-size="10.00">::fallBackIdentifier</text>
</a>
</g>
</g>
<!-- Node15&#45;&gt;Node19 -->
<g id="edge18" class="edge">
<title>Node15&#45;&gt;Node19</title>
<path fill="none" stroke="midnightblue" d="M1054.71,-127.29C1066.68,-123.64 1078.82,-118.56 1089,-111.5 1111.2,-96.08 1103.3,-78.6 1125,-62.5 1126.88,-61.1 1128.85,-59.78 1130.88,-58.54"/>
<polygon fill="midnightblue" stroke="midnightblue" points="1133.01,-61.36 1140.13,-53.52 1129.67,-55.21 1133.01,-61.36"/>
</g>
<!-- Node17&#45;&gt;Node18 -->
<g id="edge17" class="edge">
<title>Node17&#45;&gt;Node18</title>
<path fill="none" stroke="midnightblue" d="M1251.33,-102.5C1269.38,-107.3 1289.48,-112.65 1308,-117.59"/>
<polygon fill="midnightblue" stroke="midnightblue" points="1307.24,-121.01 1317.81,-120.2 1309.04,-114.24 1307.24,-121.01"/>
</g>
<!-- Node20&#45;&gt;Node10 -->
<g id="edge22" class="edge">
<title>Node20&#45;&gt;Node10</title>
<path fill="none" stroke="midnightblue" d="M815.16,-246.94C825.68,-220.84 858.65,-147.91 911,-112.5 919.75,-106.57 930,-102.38 940.35,-99.43"/>
<polygon fill="midnightblue" stroke="midnightblue" points="941.4,-102.77 950.26,-96.95 939.71,-95.98 941.4,-102.77"/>
</g>
<!-- Node20&#45;&gt;Node11 -->
<g id="edge27" class="edge">
<title>Node20&#45;&gt;Node11</title>
<path fill="none" stroke="midnightblue" d="M824.5,-266.05C838.78,-277.17 861.45,-296.8 875,-318.5 902.02,-361.77 873.06,-393.39 911,-427.5 912.7,-429.02 914.49,-430.44 916.36,-431.75"/>
<polygon fill="midnightblue" stroke="midnightblue" points="914.61,-434.78 925,-436.85 918.17,-428.75 914.61,-434.78"/>
</g>
<!-- Node20&#45;&gt;Node12 -->
<g id="edge35" class="edge">
<title>Node20&#45;&gt;Node12</title>
<path fill="none" stroke="midnightblue" d="M853,-266.09C861.11,-269.54 868.97,-274.2 875,-280.5 910.3,-317.33 873.06,-355.39 911,-389.5 916.67,-394.6 923.38,-398.44 930.53,-401.33"/>
<polygon fill="midnightblue" stroke="midnightblue" points="929.89,-404.81 940.48,-404.69 932.13,-398.17 929.89,-404.81"/>
</g>
<!-- Node20&#45;&gt;Node15 -->
<g id="edge36" class="edge">
<title>Node20&#45;&gt;Node15</title>
<path fill="none" stroke="midnightblue" d="M821.18,-246.74C844.08,-223.72 900.48,-167.51 911,-161.5 918.61,-157.14 927.04,-153.5 935.57,-150.47"/>
<polygon fill="midnightblue" stroke="midnightblue" points="936.8,-153.75 945.2,-147.31 934.61,-147.1 936.8,-153.75"/>
</g>
<!-- Node20&#45;&gt;Node18 -->
<g id="edge37" class="edge">
<title>Node20&#45;&gt;Node18</title>
<path fill="none" stroke="midnightblue" d="M860.3,-246.98C876.43,-243.88 894.47,-240.48 911,-237.5 1067.17,-209.28 1110.18,-220.3 1263,-177.5 1285.47,-171.2 1309.68,-161.87 1329.51,-153.51"/>
<polygon fill="midnightblue" stroke="midnightblue" points="1331.06,-156.65 1338.88,-149.5 1328.31,-150.22 1331.06,-156.65"/>
</g>
<!-- Node21 -->
<g id="node21" class="node">
<title>Node21</title>
<g id="a_node21"><a xlink:href="classWinExtras.html#a3487e64cfb407033d7e28a761d1e76dc" target="_top" xlink:title=" ">
<polygon fill="white" stroke="black" points="930,-323 930,-342 1070,-342 1070,-323 930,-323"/>
<text text-anchor="middle" x="1000" y="-330" font-family="Helvetica,sans-Serif" font-size="10.00">WinExtras::getDisplayString</text>
</a>
</g>
</g>
<!-- Node20&#45;&gt;Node21 -->
<g id="edge23" class="edge">
<title>Node20&#45;&gt;Node21</title>
<path fill="none" stroke="midnightblue" d="M842.37,-266.06C853.02,-269.9 864.82,-274.79 875,-280.5 892.68,-290.41 892.87,-299.43 911,-308.5 920.34,-313.16 930.7,-317.02 940.95,-320.17"/>
<polygon fill="midnightblue" stroke="midnightblue" points="940.11,-323.58 950.69,-322.98 942.05,-316.85 940.11,-323.58"/>
</g>
<!-- Node22 -->
<g id="node22" class="node">
<title>Node22</title>
<g id="a_node22"><a xlink:href="classUInputHelper.html#ac4c70c9479c1cc0eb515ab1bdf2426f5" target="_top" xlink:title=" ">
<polygon fill="white" stroke="black" points="1309,-284.5 1309,-314.5 1436,-314.5 1436,-284.5 1309,-284.5"/>
<text text-anchor="start" x="1317" y="-302.5" font-family="Helvetica,sans-Serif" font-size="10.00">UInputHelper::getDisplay</text>
<text text-anchor="middle" x="1372.5" y="-291.5" font-family="Helvetica,sans-Serif" font-size="10.00">String</text>
</a>
</g>
</g>
<!-- Node20&#45;&gt;Node22 -->
<g id="edge24" class="edge">
<title>Node20&#45;&gt;Node22</title>
<path fill="none" stroke="midnightblue" d="M854.4,-266.02C871.87,-269.55 892.32,-273.24 911,-275.5 1047.22,-291.97 1207.45,-297.14 1298.49,-298.76"/>
<polygon fill="midnightblue" stroke="midnightblue" points="1298.64,-302.27 1308.7,-298.93 1298.76,-295.27 1298.64,-302.27"/>
</g>
<!-- Node24 -->
<g id="node24" class="node">
<title>Node24</title>
<g id="a_node24"><a xlink:href="classX11Extras.html#abe710bac948c9802105a2d9d06815cac" target="_top" xlink:title="Get appropriate alias for a known KeySym string that might be blank or contain invalid characters whe...">
<polygon fill="white" stroke="black" points="930,-171 930,-190 1070,-190 1070,-171 930,-171"/>
<text text-anchor="middle" x="1000" y="-178" font-family="Helvetica,sans-Serif" font-size="10.00">X11Extras::getDisplayString</text>
</a>
</g>
</g>
<!-- Node20&#45;&gt;Node24 -->
<g id="edge26" class="edge">
<title>Node20&#45;&gt;Node24</title>
<path fill="none" stroke="midnightblue" d="M827.2,-246.93C846.4,-235.56 880.15,-216.6 911,-204.5 922.4,-200.02 934.95,-196.06 946.9,-192.71"/>
<polygon fill="midnightblue" stroke="midnightblue" points="948.03,-196.03 956.77,-190.04 946.2,-189.27 948.03,-196.03"/>
</g>
<!-- Node25 -->
<g id="node25" class="node">
<title>Node25</title>
<g id="a_node25"><a xlink:href="classUInputHelper.html#a61509601d3dbd8933aaa26c1e2db02f6" target="_top" xlink:title=" ">
<polygon fill="white" stroke="black" points="934.5,-247 934.5,-266 1065.5,-266 1065.5,-247 934.5,-247"/>
<text text-anchor="middle" x="1000" y="-254" font-family="Helvetica,sans-Serif" font-size="10.00">UInputHelper::getInstance</text>
</a>
</g>
</g>
<!-- Node20&#45;&gt;Node25 -->
<g id="edge28" class="edge">
<title>Node20&#45;&gt;Node25</title>
<path fill="none" stroke="midnightblue" d="M862.74,-256.5C881.74,-256.5 903.71,-256.5 924.38,-256.5"/>
<polygon fill="midnightblue" stroke="midnightblue" points="924.41,-260 934.41,-256.5 924.41,-253 924.41,-260"/>
</g>
<!-- Node31 -->
<g id="node31" class="node">
<title>Node31</title>
<g id="a_node31"><a xlink:href="classWinExtras.html#a0bfa711c1abe72486dfebc8ff6fe7f5a" target="_top" xlink:title="Convert a virtual key into the corresponding keyboard scan code.">
<polygon fill="white" stroke="black" points="911,-361 911,-380 1089,-380 1089,-361 911,-361"/>
<text text-anchor="middle" x="1000" y="-368" font-family="Helvetica,sans-Serif" font-size="10.00">WinExtras::scancodeFromVirtualKey</text>
</a>
</g>
</g>
<!-- Node20&#45;&gt;Node31 -->
<g id="edge38" class="edge">
<title>Node20&#45;&gt;Node31</title>
<path fill="none" stroke="midnightblue" d="M850.32,-266C859.15,-269.49 867.98,-274.2 875,-280.5 901.33,-304.13 882.99,-329.88 911,-351.5 913.32,-353.29 915.77,-354.92 918.33,-356.4"/>
<polygon fill="midnightblue" stroke="midnightblue" points="916.84,-359.57 927.35,-360.9 919.96,-353.3 916.84,-359.57"/>
</g>
<!-- Node23 -->
<g id="node23" class="node">
<title>Node23</title>
<g id="a_node23"><a xlink:href="classUInputHelper.html#a043b0fa7cf4ce5811d01d95f3ca318b7" target="_top" xlink:title=" ">
<polygon fill="white" stroke="black" points="1482,-284.5 1482,-314.5 1638,-314.5 1638,-284.5 1482,-284.5"/>
<text text-anchor="start" x="1490" y="-302.5" font-family="Helvetica,sans-Serif" font-size="10.00">UInputHelper::getKnownAliases</text>
<text text-anchor="middle" x="1560" y="-291.5" font-family="Helvetica,sans-Serif" font-size="10.00">VKStrings</text>
</a>
</g>
</g>
<!-- Node22&#45;&gt;Node23 -->
<g id="edge25" class="edge">
<title>Node22&#45;&gt;Node23</title>
<path fill="none" stroke="midnightblue" d="M1436.04,-299.5C1447.55,-299.5 1459.75,-299.5 1471.82,-299.5"/>
<polygon fill="midnightblue" stroke="midnightblue" points="1471.92,-303 1481.92,-299.5 1471.92,-296 1471.92,-303"/>
</g>
<!-- Node26 -->
<g id="node26" class="node">
<title>Node26</title>
<g id="a_node26"><a xlink:href="classUInputHelper.html#a5d56d23a0e0202435c7a5ff1aca9ce55" target="_top" xlink:title=" ">
<polygon fill="white" stroke="black" points="1125,-247 1125,-266 1263,-266 1263,-247 1125,-247"/>
<text text-anchor="middle" x="1194" y="-254" font-family="Helvetica,sans-Serif" font-size="10.00">UInputHelper::UInputHelper</text>
</a>
</g>
</g>
<!-- Node25&#45;&gt;Node26 -->
<g id="edge29" class="edge">
<title>Node25&#45;&gt;Node26</title>
<path fill="none" stroke="midnightblue" d="M1065.73,-256.5C1081.51,-256.5 1098.55,-256.5 1114.88,-256.5"/>
<polygon fill="midnightblue" stroke="midnightblue" points="1114.94,-260 1124.94,-256.5 1114.94,-253 1114.94,-260"/>
</g>
<!-- Node27 -->
<g id="node27" class="node">
<title>Node27</title>
<g id="a_node27"><a xlink:href="classUInputHelper.html#a0f4dbb4221502d86f7d0af12a9865568" target="_top" xlink:title=" ">
<polygon fill="white" stroke="black" points="1299,-235.5 1299,-265.5 1446,-265.5 1446,-235.5 1299,-235.5"/>
<text text-anchor="start" x="1307" y="-253.5" font-family="Helvetica,sans-Serif" font-size="10.00">UInputHelper::populateKnown</text>
<text text-anchor="middle" x="1372.5" y="-242.5" font-family="Helvetica,sans-Serif" font-size="10.00">Aliases</text>
</a>
</g>
</g>
<!-- Node26&#45;&gt;Node27 -->
<g id="edge30" class="edge">
<title>Node26&#45;&gt;Node27</title>
<path fill="none" stroke="midnightblue" d="M1263.24,-254.18C1271.52,-253.89 1280.04,-253.6 1288.5,-253.32"/>
<polygon fill="midnightblue" stroke="midnightblue" points="1288.89,-256.81 1298.76,-252.97 1288.65,-249.81 1288.89,-256.81"/>
</g>
<!-- Node27&#45;&gt;Node23 -->
<g id="edge31" class="edge">
<title>Node27&#45;&gt;Node23</title>
<path fill="none" stroke="midnightblue" d="M1430.42,-265.53C1450,-270.7 1472.11,-276.54 1492.4,-281.9"/>
<polygon fill="midnightblue" stroke="midnightblue" points="1491.63,-285.32 1502.19,-284.49 1493.42,-278.55 1491.63,-285.32"/>
</g>
<!-- Node28 -->
<g id="node28" class="node">
<title>Node28</title>
<g id="a_node28"><a xlink:href="classUInputHelper.html#a8f3fe71ae635cd3c46eaab79dd11c2e0" target="_top" xlink:title=" ">
<polygon fill="white" stroke="black" points="1482,-235.5 1482,-265.5 1638,-265.5 1638,-235.5 1482,-235.5"/>
<text text-anchor="start" x="1490" y="-253.5" font-family="Helvetica,sans-Serif" font-size="10.00">UInputHelper::getKnownAliases</text>
<text text-anchor="middle" x="1560" y="-242.5" font-family="Helvetica,sans-Serif" font-size="10.00">X11SymVK</text>
</a>
</g>
</g>
<!-- Node27&#45;&gt;Node28 -->
<g id="edge32" class="edge">
<title>Node27&#45;&gt;Node28</title>
<path fill="none" stroke="midnightblue" d="M1446.02,-250.5C1454.49,-250.5 1463.2,-250.5 1471.84,-250.5"/>
<polygon fill="midnightblue" stroke="midnightblue" points="1471.94,-254 1481.94,-250.5 1471.94,-247 1471.94,-254"/>
</g>
<!-- Node29 -->
<g id="node29" class="node">
<title>Node29</title>
<g id="a_node29"><a xlink:href="classUInputHelper.html#a9793030329fbbe1106b255814ef2bd0f" target="_top" xlink:title=" ">
<polygon fill="white" stroke="black" points="1493,-186.5 1493,-216.5 1627,-216.5 1627,-186.5 1493,-186.5"/>
<text text-anchor="start" x="1501" y="-204.5" font-family="Helvetica,sans-Serif" font-size="10.00">UInputHelper::populateX11</text>
<text text-anchor="middle" x="1560" y="-193.5" font-family="Helvetica,sans-Serif" font-size="10.00">SymVk</text>
</a>
</g>
</g>
<!-- Node27&#45;&gt;Node29 -->
<g id="edge33" class="edge">
<title>Node27&#45;&gt;Node29</title>
<path fill="none" stroke="midnightblue" d="M1430.42,-235.46C1450,-230.29 1472.11,-224.45 1492.4,-219.09"/>
<polygon fill="midnightblue" stroke="midnightblue" points="1493.42,-222.44 1502.19,-216.5 1491.63,-215.67 1493.42,-222.44"/>
</g>
<!-- Node30 -->
<g id="node30" class="node">
<title>Node30</title>
<g id="a_node30"><a xlink:href="classUInputHelper.html#af02574de230bb0550eebb63f5a669681" target="_top" xlink:title=" ">
<polygon fill="white" stroke="black" points="1492,-137.5 1492,-167.5 1628,-167.5 1628,-137.5 1492,-137.5"/>
<text text-anchor="start" x="1500" y="-155.5" font-family="Helvetica,sans-Serif" font-size="10.00">UInputHelper::populateXVk</text>
<text text-anchor="middle" x="1560" y="-144.5" font-family="Helvetica,sans-Serif" font-size="10.00">Strings</text>
</a>
</g>
</g>
<!-- Node27&#45;&gt;Node30 -->
<g id="edge34" class="edge">
<title>Node27&#45;&gt;Node30</title>
<path fill="none" stroke="midnightblue" d="M1392.5,-235.3C1413.41,-219.17 1448.52,-193.79 1482,-177.5 1486.62,-175.25 1491.49,-173.13 1496.45,-171.15"/>
<polygon fill="midnightblue" stroke="midnightblue" points="1497.92,-174.34 1506.04,-167.53 1495.45,-167.79 1497.92,-174.34"/>
</g>
</g>
</svg>
