<?xml version="1.0" encoding="UTF-8" standalone="no"?>
<!DOCTYPE svg PUBLIC "-//W3C//DTD SVG 1.1//EN"
 "http://www.w3.org/Graphics/SVG/1.1/DTD/svg11.dtd">
<!-- Generated by graphviz version 2.43.0 (0)
 -->
<!-- Title: JoyButtonXml Pages: 1 -->
<svg width="1850pt" height="673pt"
 viewBox="0.00 0.00 1850.00 673.00" xmlns="http://www.w3.org/2000/svg" xmlns:xlink="http://www.w3.org/1999/xlink">
<g id="graph0" class="graph" transform="scale(1 1) rotate(0) translate(4 669)">
<title>JoyButtonXml</title>
<polygon fill="white" stroke="transparent" points="-4,4 -4,-669 1846,-669 1846,4 -4,4"/>
<!-- Node1 -->
<g id="node1" class="node">
<title>Node1</title>
<g id="a_node1"><a xlink:title=" ">
<polygon fill="#bfbfbf" stroke="black" points="105,-382.5 105,-401.5 183,-401.5 183,-382.5 105,-382.5"/>
<text text-anchor="middle" x="144" y="-389.5" font-family="Helvetica,sans-Serif" font-size="10.00">JoyButtonXml</text>
</a>
</g>
</g>
<!-- Node6 -->
<g id="node6" class="node">
<title>Node6</title>
<g id="a_node6"><a xlink:href="$classSetJoystickXml.html" xlink:title=" ">
<polygon fill="white" stroke="black" points="346,-420.5 346,-439.5 431,-439.5 431,-420.5 346,-420.5"/>
<text text-anchor="middle" x="388.5" y="-427.5" font-family="Helvetica,sans-Serif" font-size="10.00">SetJoystickXml</text>
</a>
</g>
</g>
<!-- Node1&#45;&gt;Node6 -->
<g id="edge29" class="edge">
<title>Node1&#45;&gt;Node6</title>
<path fill="none" stroke="#9a32cd" stroke-dasharray="5,2" d="M193.14,-391.17C230.42,-391.53 283.12,-394.28 328,-405 342.28,-408.41 357.52,-414.87 369.01,-420.38"/>
<polygon fill="#9a32cd" stroke="#9a32cd" points="193.06,-387.66 183.05,-391.12 193.03,-394.66 193.06,-387.66"/>
<text text-anchor="middle" x="268.5" y="-408" font-family="Helvetica,sans-Serif" font-size="10.00"> joyButtonXml</text>
</g>
<!-- Node2 -->
<g id="node2" class="node">
<title>Node2</title>
<g id="a_node2"><a xlink:title=" ">
<polygon fill="white" stroke="#bfbfbf" points="3.5,-401.5 3.5,-420.5 56.5,-420.5 56.5,-401.5 3.5,-401.5"/>
<text text-anchor="middle" x="30" y="-408.5" font-family="Helvetica,sans-Serif" font-size="10.00">QObject</text>
</a>
</g>
</g>
<!-- Node2&#45;&gt;Node1 -->
<g id="edge1" class="edge">
<title>Node2&#45;&gt;Node1</title>
<path fill="none" stroke="midnightblue" d="M66.86,-404.92C78.92,-402.87 92.42,-400.58 104.67,-398.5"/>
<polygon fill="midnightblue" stroke="midnightblue" points="65.97,-401.52 56.7,-406.64 67.14,-408.42 65.97,-401.52"/>
</g>
<!-- Node3 -->
<g id="node3" class="node">
<title>Node3</title>
<g id="a_node3"><a xlink:href="$classJoyButton.html" xlink:title=" ">
<polygon fill="white" stroke="black" points="742,-313.5 742,-332.5 803,-332.5 803,-313.5 742,-313.5"/>
<text text-anchor="middle" x="772.5" y="-320.5" font-family="Helvetica,sans-Serif" font-size="10.00">JoyButton</text>
</a>
</g>
</g>
<!-- Node2&#45;&gt;Node3 -->
<g id="edge3" class="edge">
<title>Node2&#45;&gt;Node3</title>
<path fill="none" stroke="midnightblue" d="M39.01,-391.58C54.07,-358.56 89.95,-295 143,-295 143,-295 143,-295 597,-295 648.39,-295 707.24,-306.99 741.78,-315.27"/>
<polygon fill="midnightblue" stroke="midnightblue" points="35.64,-390.54 34.85,-401.11 42.06,-393.34 35.64,-390.54"/>
</g>
<!-- Node4 -->
<g id="node4" class="node">
<title>Node4</title>
<g id="a_node4"><a xlink:href="$classJoyButtonMouseHelper.html" xlink:title=" ">
<polygon fill="white" stroke="black" points="209,-330.5 209,-349.5 328,-349.5 328,-330.5 209,-330.5"/>
<text text-anchor="middle" x="268.5" y="-337.5" font-family="Helvetica,sans-Serif" font-size="10.00">JoyButtonMouseHelper</text>
</a>
</g>
</g>
<!-- Node2&#45;&gt;Node4 -->
<g id="edge5" class="edge">
<title>Node2&#45;&gt;Node4</title>
<path fill="none" stroke="midnightblue" d="M53.2,-395.74C65.59,-387.87 81.6,-378.74 97,-373 133.02,-359.57 175.45,-351.34 208.98,-346.45"/>
<polygon fill="midnightblue" stroke="midnightblue" points="50.95,-393.03 44.5,-401.43 54.78,-398.88 50.95,-393.03"/>
</g>
<!-- Node2&#45;&gt;Node6 -->
<g id="edge8" class="edge">
<title>Node2&#45;&gt;Node6</title>
<path fill="none" stroke="midnightblue" d="M67.08,-415.06C70.77,-415.41 74.46,-415.73 78,-416 173.74,-423.25 286.44,-427.2 345.9,-428.92"/>
<polygon fill="midnightblue" stroke="midnightblue" points="67.13,-411.55 56.83,-414.03 66.43,-418.52 67.13,-411.55"/>
</g>
<!-- Node7 -->
<g id="node7" class="node">
<title>Node7</title>
<g id="a_node7"><a xlink:href="$classJoyAxisXml.html" xlink:title=" ">
<polygon fill="white" stroke="black" points="1512.5,-517.5 1512.5,-536.5 1581.5,-536.5 1581.5,-517.5 1512.5,-517.5"/>
<text text-anchor="middle" x="1547" y="-524.5" font-family="Helvetica,sans-Serif" font-size="10.00">JoyAxisXml</text>
</a>
</g>
</g>
<!-- Node2&#45;&gt;Node7 -->
<g id="edge11" class="edge">
<title>Node2&#45;&gt;Node7</title>
<path fill="none" stroke="midnightblue" d="M31.93,-430.7C35.64,-484.51 53.89,-630 143,-630 143,-630 143,-630 1360,-630 1436.78,-630 1511.58,-562 1536.93,-536.51"/>
<polygon fill="midnightblue" stroke="midnightblue" points="35.42,-430.47 31.34,-420.69 28.44,-430.88 35.42,-430.47"/>
</g>
<!-- Node8 -->
<g id="node8" class="node">
<title>Node8</title>
<g id="a_node8"><a xlink:href="$classJoyAxis.html" xlink:title=" ">
<polygon fill="white" stroke="black" points="1333,-198.5 1333,-217.5 1385,-217.5 1385,-198.5 1333,-198.5"/>
<text text-anchor="middle" x="1359" y="-205.5" font-family="Helvetica,sans-Serif" font-size="10.00">JoyAxis</text>
</a>
</g>
</g>
<!-- Node2&#45;&gt;Node8 -->
<g id="edge13" class="edge">
<title>Node2&#45;&gt;Node8</title>
<path fill="none" stroke="midnightblue" d="M33.48,-391.24C42.83,-321.21 78.66,-89 143,-89 143,-89 143,-89 489,-89 819.86,-89 897.66,-153.21 1226,-194 1263.05,-198.6 1306.07,-202.99 1332.66,-205.59"/>
<polygon fill="midnightblue" stroke="midnightblue" points="29.99,-391 32.17,-401.36 36.93,-391.9 29.99,-391"/>
</g>
<!-- Node11 -->
<g id="node11" class="node">
<title>Node11</title>
<g id="a_node11"><a xlink:href="$classJoyControlStick.html" xlink:title=" ">
<polygon fill="white" stroke="black" points="1504,-136.5 1504,-155.5 1590,-155.5 1590,-136.5 1504,-136.5"/>
<text text-anchor="middle" x="1547" y="-143.5" font-family="Helvetica,sans-Serif" font-size="10.00">JoyControlStick</text>
</a>
</g>
</g>
<!-- Node2&#45;&gt;Node11 -->
<g id="edge20" class="edge">
<title>Node2&#45;&gt;Node11</title>
<path fill="none" stroke="midnightblue" d="M43.88,-429.05C56.22,-445.5 76.03,-469.78 97,-487 200.32,-571.83 253.82,-565 387.5,-565 387.5,-565 387.5,-565 1063,-565 1236.11,-565 1294.46,-527.23 1419,-407 1498.58,-330.17 1535.06,-193.21 1543.84,-155.72"/>
<polygon fill="midnightblue" stroke="midnightblue" points="46.57,-426.8 37.83,-420.81 40.93,-430.94 46.57,-426.8"/>
</g>
<!-- Node15 -->
<g id="node15" class="node">
<title>Node15</title>
<g id="a_node15"><a xlink:href="$classInputDevice.html" xlink:title=" ">
<polygon fill="white" stroke="black" points="354,-476.5 354,-495.5 423,-495.5 423,-476.5 354,-476.5"/>
<text text-anchor="middle" x="388.5" y="-483.5" font-family="Helvetica,sans-Serif" font-size="10.00">InputDevice</text>
</a>
</g>
</g>
<!-- Node2&#45;&gt;Node15 -->
<g id="edge31" class="edge">
<title>Node2&#45;&gt;Node15</title>
<path fill="none" stroke="midnightblue" d="M61.63,-424.28C67.02,-426.36 72.63,-428.36 78,-430 86.25,-432.52 88.53,-432.35 97,-434 189.79,-452.07 299.72,-471.1 353.89,-480.32"/>
<polygon fill="midnightblue" stroke="midnightblue" points="62.82,-420.99 52.24,-420.51 60.21,-427.49 62.82,-420.99"/>
</g>
<!-- Node18 -->
<g id="node18" class="node">
<title>Node18</title>
<g id="a_node18"><a xlink:href="$classJoyButtonSlot.html" xlink:title=" ">
<polygon fill="white" stroke="black" points="449,-186.5 449,-205.5 527,-205.5 527,-186.5 449,-186.5"/>
<text text-anchor="middle" x="488" y="-193.5" font-family="Helvetica,sans-Serif" font-size="10.00">JoyButtonSlot</text>
</a>
</g>
</g>
<!-- Node2&#45;&gt;Node18 -->
<g id="edge35" class="edge">
<title>Node2&#45;&gt;Node18</title>
<path fill="none" stroke="midnightblue" d="M32.29,-391.38C35.28,-362.65 45.19,-309.46 78,-281 185.8,-187.51 369.49,-187.52 448.74,-192.53"/>
<polygon fill="midnightblue" stroke="midnightblue" points="28.8,-391.15 31.43,-401.42 35.77,-391.75 28.8,-391.15"/>
</g>
<!-- Node20 -->
<g id="node20" class="node">
<title>Node20</title>
<g id="a_node20"><a xlink:href="$classJoyDPad.html" xlink:title=" ">
<polygon fill="white" stroke="black" points="1139.5,-403.5 1139.5,-422.5 1196.5,-422.5 1196.5,-403.5 1139.5,-403.5"/>
<text text-anchor="middle" x="1168" y="-410.5" font-family="Helvetica,sans-Serif" font-size="10.00">JoyDPad</text>
</a>
</g>
</g>
<!-- Node2&#45;&gt;Node20 -->
<g id="edge38" class="edge">
<title>Node2&#45;&gt;Node20</title>
<path fill="none" stroke="midnightblue" d="M49.69,-427C62.26,-436.9 79.65,-449.01 97,-456 260.21,-521.74 311.05,-524 487,-524 487,-524 487,-524 851.5,-524 916.6,-524 934.15,-520.33 996,-500 1057.07,-479.92 1123.25,-440.67 1152.12,-422.57"/>
<polygon fill="midnightblue" stroke="midnightblue" points="51.78,-424.18 41.82,-420.59 47.36,-429.61 51.78,-424.18"/>
</g>
<!-- Node3&#45;&gt;Node1 -->
<g id="edge2" class="edge">
<title>Node3&#45;&gt;Node1</title>
<path fill="none" stroke="#9a32cd" stroke-dasharray="5,2" d="M736.87,-335.7C732.58,-336.97 728.21,-338.11 724,-339 671.29,-350.13 303.79,-379.56 183.22,-389.02"/>
<polygon fill="#9a32cd" stroke="#9a32cd" points="738.19,-338.95 746.66,-332.58 736.07,-332.28 738.19,-338.95"/>
<text text-anchor="middle" x="488" y="-369" font-family="Helvetica,sans-Serif" font-size="10.00"> m_joyButton</text>
</g>
<!-- Node10 -->
<g id="node10" class="node">
<title>Node10</title>
<g id="a_node10"><a xlink:href="$classJoyGradientButton.html" xlink:title=" ">
<polygon fill="white" stroke="black" points="898,-94.5 898,-113.5 996,-113.5 996,-94.5 898,-94.5"/>
<text text-anchor="middle" x="947" y="-101.5" font-family="Helvetica,sans-Serif" font-size="10.00">JoyGradientButton</text>
</a>
</g>
</g>
<!-- Node3&#45;&gt;Node10 -->
<g id="edge17" class="edge">
<title>Node3&#45;&gt;Node10</title>
<path fill="none" stroke="midnightblue" d="M787.51,-305.21C822.33,-261.01 911.87,-147.33 938.45,-113.58"/>
<polygon fill="midnightblue" stroke="midnightblue" points="784.57,-303.29 781.13,-313.31 790.07,-307.62 784.57,-303.29"/>
</g>
<!-- Node21 -->
<g id="node21" class="node">
<title>Node21</title>
<g id="a_node21"><a xlink:href="$classJoyDPadButton.html" xlink:title=" ">
<polygon fill="white" stroke="black" points="904,-391.5 904,-410.5 990,-410.5 990,-391.5 904,-391.5"/>
<text text-anchor="middle" x="947" y="-398.5" font-family="Helvetica,sans-Serif" font-size="10.00">JoyDPadButton</text>
</a>
</g>
</g>
<!-- Node3&#45;&gt;Node21 -->
<g id="edge41" class="edge">
<title>Node3&#45;&gt;Node21</title>
<path fill="none" stroke="midnightblue" d="M803.85,-336.72C838.61,-352.44 894.66,-377.78 924.95,-391.48"/>
<polygon fill="midnightblue" stroke="midnightblue" points="805.21,-333.5 794.65,-332.56 802.32,-339.87 805.21,-333.5"/>
</g>
<!-- Node4&#45;&gt;Node3 -->
<g id="edge4" class="edge">
<title>Node4&#45;&gt;Node3</title>
<path fill="none" stroke="#9a32cd" stroke-dasharray="5,2" d="M338.16,-337.67C449.18,-333.92 663.6,-326.65 741.93,-324"/>
<polygon fill="#9a32cd" stroke="#9a32cd" points="337.94,-334.18 328.07,-338.02 338.18,-341.18 337.94,-334.18"/>
<text text-anchor="middle" x="488" y="-336" font-family="Helvetica,sans-Serif" font-size="10.00"> mouseHelper</text>
</g>
<!-- Node5 -->
<g id="node5" class="node">
<title>Node5</title>
<g id="a_node5"><a xlink:href="$classSetJoystick.html" xlink:title=" ">
<polygon fill="white" stroke="black" points="562,-414.5 562,-433.5 630,-433.5 630,-414.5 562,-414.5"/>
<text text-anchor="middle" x="596" y="-421.5" font-family="Helvetica,sans-Serif" font-size="10.00">SetJoystick</text>
</a>
</g>
</g>
<!-- Node5&#45;&gt;Node3 -->
<g id="edge6" class="edge">
<title>Node5&#45;&gt;Node3</title>
<path fill="none" stroke="#9a32cd" stroke-dasharray="5,2" d="M623.32,-409.65C635.8,-403.05 651.01,-395.31 665,-389 690.66,-377.43 700.06,-380.8 724,-366 739.14,-356.64 753.91,-342.18 762.86,-332.66"/>
<polygon fill="#9a32cd" stroke="#9a32cd" points="621.54,-406.63 614.37,-414.43 624.84,-412.8 621.54,-406.63"/>
<text text-anchor="middle" x="694.5" y="-392" font-family="Helvetica,sans-Serif" font-size="10.00"> m_parentSet</text>
</g>
<!-- Node5&#45;&gt;Node6 -->
<g id="edge9" class="edge">
<title>Node5&#45;&gt;Node6</title>
<path fill="none" stroke="#9a32cd" stroke-dasharray="5,2" d="M551.86,-425.26C516.31,-426.3 466.2,-427.76 431.09,-428.79"/>
<polygon fill="#9a32cd" stroke="#9a32cd" points="552.04,-428.76 561.94,-424.97 551.84,-421.76 552.04,-428.76"/>
<text text-anchor="middle" x="488" y="-431" font-family="Helvetica,sans-Serif" font-size="10.00"> m_setJoystick</text>
</g>
<!-- Node5&#45;&gt;Node8 -->
<g id="edge14" class="edge">
<title>Node5&#45;&gt;Node8</title>
<path fill="none" stroke="#9a32cd" stroke-dasharray="5,2" d="M640.27,-416.32C761.9,-394.72 1098.74,-334.73 1110,-331 1202.84,-300.25 1304.79,-240.66 1342.7,-217.52"/>
<polygon fill="#9a32cd" stroke="#9a32cd" points="639.43,-412.92 630.2,-418.11 640.66,-419.81 639.43,-412.92"/>
<text text-anchor="middle" x="947" y="-372" font-family="Helvetica,sans-Serif" font-size="10.00"> m_parentSet</text>
</g>
<!-- Node5&#45;&gt;Node20 -->
<g id="edge39" class="edge">
<title>Node5&#45;&gt;Node20</title>
<path fill="none" stroke="#9a32cd" stroke-dasharray="5,2" d="M640.35,-424.73C648.54,-424.84 657.03,-424.94 665,-425 691.22,-425.19 697.78,-425.03 724,-425 895.56,-424.78 939.24,-440.55 1110,-424 1119.63,-423.07 1130.05,-421.29 1139.32,-419.43"/>
<polygon fill="#9a32cd" stroke="#9a32cd" points="640.25,-421.23 630.2,-424.59 640.15,-428.23 640.25,-421.23"/>
<text text-anchor="middle" x="850.5" y="-432" font-family="Helvetica,sans-Serif" font-size="10.00"> m_parentSet</text>
</g>
<!-- Node6&#45;&gt;Node5 -->
<g id="edge7" class="edge">
<title>Node6&#45;&gt;Node5</title>
<path fill="none" stroke="midnightblue" d="M437.55,-418.58C441.41,-417.95 445.26,-417.4 449,-417 487.6,-412.83 532.21,-416.15 561.86,-419.49"/>
<polygon fill="midnightblue" stroke="midnightblue" points="436.59,-415.2 427.39,-420.45 437.86,-422.08 436.59,-415.2"/>
</g>
<!-- Node7&#45;&gt;Node6 -->
<g id="edge10" class="edge">
<title>Node7&#45;&gt;Node6</title>
<path fill="none" stroke="#9a32cd" stroke-dasharray="5,2" d="M1502.05,-525.82C1353.31,-521.37 855.48,-502.67 449,-443 442.62,-442.06 435.9,-440.83 429.37,-439.51"/>
<polygon fill="#9a32cd" stroke="#9a32cd" points="1502.05,-529.32 1512.15,-526.12 1502.25,-522.33 1502.05,-529.32"/>
<text text-anchor="middle" x="947" y="-502" font-family="Helvetica,sans-Serif" font-size="10.00"> joyAxisXml</text>
</g>
<!-- Node8&#45;&gt;Node7 -->
<g id="edge12" class="edge">
<title>Node8&#45;&gt;Node7</title>
<path fill="none" stroke="#9a32cd" stroke-dasharray="5,2" d="M1370.65,-226.26C1405.36,-285.8 1514.56,-473.09 1540.46,-517.49"/>
<polygon fill="#9a32cd" stroke="#9a32cd" points="1373.63,-224.42 1365.57,-217.55 1367.58,-227.95 1373.63,-224.42"/>
<text text-anchor="middle" x="1461.5" y="-426" font-family="Helvetica,sans-Serif" font-size="10.00"> m_joyAxis</text>
</g>
<!-- Node9 -->
<g id="node9" class="node">
<title>Node9</title>
<g id="a_node9"><a xlink:href="$classJoyAxisButton.html" xlink:title=" ">
<polygon fill="white" stroke="black" points="1128,-121.5 1128,-140.5 1208,-140.5 1208,-121.5 1128,-121.5"/>
<text text-anchor="middle" x="1168" y="-128.5" font-family="Helvetica,sans-Serif" font-size="10.00">JoyAxisButton</text>
</a>
</g>
</g>
<!-- Node8&#45;&gt;Node9 -->
<g id="edge18" class="edge">
<title>Node8&#45;&gt;Node9</title>
<path fill="none" stroke="#9a32cd" stroke-dasharray="5,2" d="M1340.18,-191.25C1328.27,-179.87 1312.38,-164.33 1299,-150 1290.61,-141.02 1292.17,-134.14 1281,-129 1258.38,-118.6 1230.38,-119.1 1208.04,-122.2"/>
<polygon fill="#9a32cd" stroke="#9a32cd" points="1338.05,-194.06 1347.72,-198.4 1342.87,-188.98 1338.05,-194.06"/>
<text text-anchor="middle" x="1253.5" y="-132" font-family="Helvetica,sans-Serif" font-size="10.00"> m_axis</text>
</g>
<!-- Node8&#45;&gt;Node11 -->
<g id="edge28" class="edge">
<title>Node8&#45;&gt;Node11</title>
<path fill="none" stroke="#9a32cd" stroke-dasharray="5,2" d="M1380.39,-192.32C1395.27,-181.72 1416.35,-168.36 1437,-161 1458.32,-153.4 1483.26,-149.62 1503.9,-147.76"/>
<polygon fill="#9a32cd" stroke="#9a32cd" points="1377.99,-189.74 1372,-198.48 1382.13,-195.39 1377.99,-189.74"/>
<text text-anchor="middle" x="1461.5" y="-175" font-family="Helvetica,sans-Serif" font-size="10.00"> axisX</text>
<text text-anchor="middle" x="1461.5" y="-164" font-family="Helvetica,sans-Serif" font-size="10.00">axisY</text>
</g>
<!-- Node9&#45;&gt;Node8 -->
<g id="edge15" class="edge">
<title>Node9&#45;&gt;Node8</title>
<path fill="none" stroke="#9a32cd" stroke-dasharray="5,2" d="M1217.86,-140.87C1237.87,-145.73 1260.98,-152.42 1281,-161 1304.9,-171.24 1330.18,-187.96 1345,-198.45"/>
<polygon fill="#9a32cd" stroke="#9a32cd" points="1218.55,-137.44 1208.02,-138.56 1216.95,-144.25 1218.55,-137.44"/>
<text text-anchor="middle" x="1253.5" y="-186" font-family="Helvetica,sans-Serif" font-size="10.00"> paxisbutton</text>
<text text-anchor="middle" x="1253.5" y="-175" font-family="Helvetica,sans-Serif" font-size="10.00">activeButton</text>
<text text-anchor="middle" x="1253.5" y="-164" font-family="Helvetica,sans-Serif" font-size="10.00">naxisbutton</text>
</g>
<!-- Node10&#45;&gt;Node9 -->
<g id="edge16" class="edge">
<title>Node10&#45;&gt;Node9</title>
<path fill="none" stroke="midnightblue" d="M1006.09,-111.16C1044.55,-115.9 1093.96,-121.99 1127.82,-126.17"/>
<polygon fill="midnightblue" stroke="midnightblue" points="1006.41,-107.68 996.06,-109.93 1005.56,-114.62 1006.41,-107.68"/>
</g>
<!-- Node13 -->
<g id="node13" class="node">
<title>Node13</title>
<g id="a_node13"><a xlink:href="$classJoyControlStickModifierButton.html" xlink:title=" ">
<polygon fill="white" stroke="black" points="1693,-23.5 1693,-42.5 1842,-42.5 1842,-23.5 1693,-23.5"/>
<text text-anchor="middle" x="1767.5" y="-30.5" font-family="Helvetica,sans-Serif" font-size="10.00">JoyControlStickModifierButton</text>
</a>
</g>
</g>
<!-- Node10&#45;&gt;Node13 -->
<g id="edge23" class="edge">
<title>Node10&#45;&gt;Node13</title>
<path fill="none" stroke="midnightblue" d="M966.75,-88.01C1002.92,-58.84 1085.95,0 1167,0 1167,0 1167,0 1548,0 1611.3,0 1683.77,-13.71 1727.3,-23.46"/>
<polygon fill="midnightblue" stroke="midnightblue" points="964.47,-85.35 958.98,-94.4 968.92,-90.75 964.47,-85.35"/>
</g>
<!-- Node14 -->
<g id="node14" class="node">
<title>Node14</title>
<g id="a_node14"><a xlink:href="$classJoyControlStickButton.html" xlink:title=" ">
<polygon fill="white" stroke="black" points="1710,-116.5 1710,-135.5 1825,-135.5 1825,-116.5 1710,-116.5"/>
<text text-anchor="middle" x="1767.5" y="-123.5" font-family="Helvetica,sans-Serif" font-size="10.00">JoyControlStickButton</text>
</a>
</g>
</g>
<!-- Node10&#45;&gt;Node14 -->
<g id="edge26" class="edge">
<title>Node10&#45;&gt;Node14</title>
<path fill="none" stroke="midnightblue" d="M1006.49,-99.46C1050.58,-96.43 1112.55,-93 1167,-93 1167,-93 1167,-93 1548,-93 1611.3,-93 1683.77,-106.71 1727.3,-116.46"/>
<polygon fill="midnightblue" stroke="midnightblue" points="1005.97,-95.99 996.24,-100.18 1006.46,-102.97 1005.97,-95.99"/>
</g>
<!-- Node11&#45;&gt;Node8 -->
<g id="edge19" class="edge">
<title>Node11&#45;&gt;Node8</title>
<path fill="none" stroke="#9a32cd" stroke-dasharray="5,2" d="M1527.11,-162.08C1515.87,-170.81 1500.92,-181 1486,-187 1452.67,-200.4 1411.06,-205.25 1385.01,-207.01"/>
<polygon fill="#9a32cd" stroke="#9a32cd" points="1529.32,-164.79 1534.92,-155.8 1524.93,-159.34 1529.32,-164.79"/>
<text text-anchor="middle" x="1461.5" y="-204" font-family="Helvetica,sans-Serif" font-size="10.00"> m_stick</text>
</g>
<!-- Node11&#45;&gt;Node13 -->
<g id="edge24" class="edge">
<title>Node11&#45;&gt;Node13</title>
<path fill="none" stroke="#9a32cd" stroke-dasharray="5,2" d="M1555.64,-127.02C1564.87,-106.7 1582.41,-75.21 1608,-59 1632.97,-43.18 1664.43,-36 1692.74,-33.02"/>
<polygon fill="#9a32cd" stroke="#9a32cd" points="1552.42,-125.66 1551.68,-136.23 1558.85,-128.43 1552.42,-125.66"/>
<text text-anchor="middle" x="1641.5" y="-62" font-family="Helvetica,sans-Serif" font-size="10.00"> stick</text>
</g>
<!-- Node11&#45;&gt;Node14 -->
<g id="edge27" class="edge">
<title>Node11&#45;&gt;Node14</title>
<path fill="none" stroke="#9a32cd" stroke-dasharray="5,2" d="M1579.2,-132.85C1588.31,-129.63 1598.41,-126.63 1608,-125 1641.5,-119.31 1679.57,-119.34 1710,-120.9"/>
<polygon fill="#9a32cd" stroke="#9a32cd" points="1577.89,-129.61 1569.75,-136.4 1580.35,-136.16 1577.89,-129.61"/>
<text text-anchor="middle" x="1641.5" y="-128" font-family="Helvetica,sans-Serif" font-size="10.00"> stick</text>
</g>
<!-- Node12 -->
<g id="node12" class="node">
<title>Node12</title>
<g id="a_node12"><a xlink:href="$classJoyStickDirectionsType.html" xlink:title=" ">
<polygon fill="white" stroke="black" points="1299,-121.5 1299,-140.5 1419,-140.5 1419,-121.5 1299,-121.5"/>
<text text-anchor="middle" x="1359" y="-128.5" font-family="Helvetica,sans-Serif" font-size="10.00">JoyStickDirectionsType</text>
</a>
</g>
</g>
<!-- Node12&#45;&gt;Node11 -->
<g id="edge21" class="edge">
<title>Node12&#45;&gt;Node11</title>
<path fill="none" stroke="midnightblue" d="M1429.3,-136.59C1454.34,-138.61 1481.84,-140.83 1503.85,-142.6"/>
<polygon fill="midnightblue" stroke="midnightblue" points="1429.36,-133.08 1419.11,-135.77 1428.79,-140.06 1429.36,-133.08"/>
</g>
<!-- Node13&#45;&gt;Node11 -->
<g id="edge22" class="edge">
<title>Node13&#45;&gt;Node11</title>
<path fill="none" stroke="#9a32cd" stroke-dasharray="5,2" d="M1733.34,-46.48C1700.74,-60.14 1649.94,-82.55 1608,-106 1591.17,-115.41 1572.88,-127.97 1560.97,-136.49"/>
<polygon fill="#9a32cd" stroke="#9a32cd" points="1734.95,-49.6 1742.84,-42.53 1732.26,-43.14 1734.95,-49.6"/>
<text text-anchor="middle" x="1641.5" y="-109" font-family="Helvetica,sans-Serif" font-size="10.00"> modifierButton</text>
</g>
<!-- Node14&#45;&gt;Node11 -->
<g id="edge25" class="edge">
<title>Node14&#45;&gt;Node11</title>
<path fill="none" stroke="#9a32cd" stroke-dasharray="5,2" d="M1699.83,-135.28C1691.48,-136.28 1683.05,-137.22 1675,-138 1646.74,-140.74 1614.86,-142.74 1590.1,-144.06"/>
<polygon fill="#9a32cd" stroke="#9a32cd" points="1700.45,-138.73 1709.95,-134.02 1699.59,-131.78 1700.45,-138.73"/>
<text text-anchor="middle" x="1641.5" y="-168" font-family="Helvetica,sans-Serif" font-size="10.00"> activeButton1</text>
<text text-anchor="middle" x="1641.5" y="-157" font-family="Helvetica,sans-Serif" font-size="10.00">activeButton2</text>
<text text-anchor="middle" x="1641.5" y="-146" font-family="Helvetica,sans-Serif" font-size="10.00">activeButton3</text>
</g>
<!-- Node15&#45;&gt;Node5 -->
<g id="edge30" class="edge">
<title>Node15&#45;&gt;Node5</title>
<path fill="none" stroke="#9a32cd" stroke-dasharray="5,2" d="M431.16,-473.43C470.25,-461.64 527.84,-444.26 563.31,-433.56"/>
<polygon fill="#9a32cd" stroke="#9a32cd" points="429.72,-470.21 421.16,-476.45 431.74,-476.91 429.72,-470.21"/>
<text text-anchor="middle" x="488" y="-470" font-family="Helvetica,sans-Serif" font-size="10.00"> m_device</text>
</g>
<!-- Node16 -->
<g id="node16" class="node">
<title>Node16</title>
<g id="a_node16"><a xlink:href="$classAntiMicroSettings.html" xlink:title=" ">
<polygon fill="white" stroke="black" points="97,-582.5 97,-601.5 191,-601.5 191,-582.5 97,-582.5"/>
<text text-anchor="middle" x="144" y="-589.5" font-family="Helvetica,sans-Serif" font-size="10.00">AntiMicroSettings</text>
</a>
</g>
</g>
<!-- Node16&#45;&gt;Node15 -->
<g id="edge32" class="edge">
<title>Node16&#45;&gt;Node15</title>
<path fill="none" stroke="#9a32cd" stroke-dasharray="5,2" d="M176.26,-578.34C226.05,-556.57 322.15,-514.57 365.43,-495.65"/>
<polygon fill="#9a32cd" stroke="#9a32cd" points="174.71,-575.19 166.95,-582.41 177.51,-581.61 174.71,-575.19"/>
<text text-anchor="middle" x="268.5" y="-566" font-family="Helvetica,sans-Serif" font-size="10.00"> m_settings</text>
</g>
<!-- Node17 -->
<g id="node17" class="node">
<title>Node17</title>
<g id="a_node17"><a xlink:title=" ">
<polygon fill="white" stroke="#bfbfbf" points="0,-645.5 0,-664.5 60,-664.5 60,-645.5 0,-645.5"/>
<text text-anchor="middle" x="30" y="-652.5" font-family="Helvetica,sans-Serif" font-size="10.00">QSettings</text>
</a>
</g>
</g>
<!-- Node17&#45;&gt;Node16 -->
<g id="edge33" class="edge">
<title>Node17&#45;&gt;Node16</title>
<path fill="none" stroke="midnightblue" d="M56.82,-640.48C78.01,-628.56 107.43,-612.01 125.83,-601.66"/>
<polygon fill="midnightblue" stroke="midnightblue" points="55.01,-637.48 48.01,-645.43 58.44,-643.58 55.01,-637.48"/>
</g>
<!-- Node18&#45;&gt;Node3 -->
<g id="edge34" class="edge">
<title>Node18&#45;&gt;Node3</title>
<path fill="none" stroke="#9a32cd" stroke-dasharray="5,2" d="M503.81,-178.47C514.1,-167.7 528.84,-154.88 545,-149 587.6,-133.49 606.68,-128.27 647,-149 717.69,-185.34 757.2,-282.52 768.25,-313.42"/>
<polygon fill="#9a32cd" stroke="#9a32cd" points="500.97,-176.39 496.85,-186.15 506.16,-181.09 500.97,-176.39"/>
<text text-anchor="middle" x="596" y="-273" font-family="Helvetica,sans-Serif" font-size="10.00"> currentDelay</text>
<text text-anchor="middle" x="596" y="-262" font-family="Helvetica,sans-Serif" font-size="10.00">lastActiveKey</text>
<text text-anchor="middle" x="596" y="-251" font-family="Helvetica,sans-Serif" font-size="10.00">currentSetChangeSlot</text>
<text text-anchor="middle" x="596" y="-240" font-family="Helvetica,sans-Serif" font-size="10.00">currentKeyPress</text>
<text text-anchor="middle" x="596" y="-229" font-family="Helvetica,sans-Serif" font-size="10.00">currentRelease</text>
<text text-anchor="middle" x="596" y="-218" font-family="Helvetica,sans-Serif" font-size="10.00">currentCycle</text>
<text text-anchor="middle" x="596" y="-207" font-family="Helvetica,sans-Serif" font-size="10.00">previousCycle</text>
<text text-anchor="middle" x="596" y="-196" font-family="Helvetica,sans-Serif" font-size="10.00">m_currentDistance</text>
<text text-anchor="middle" x="596" y="-185" font-family="Helvetica,sans-Serif" font-size="10.00">currentPause</text>
<text text-anchor="start" x="545" y="-174" font-family="Helvetica,sans-Serif" font-size="10.00">currentWheelHorizontal</text>
<text text-anchor="middle" x="596" y="-163" font-family="Helvetica,sans-Serif" font-size="10.00">Event</text>
<text text-anchor="middle" x="596" y="-152" font-family="Helvetica,sans-Serif" font-size="10.00">...</text>
</g>
<!-- Node19 -->
<g id="node19" class="node">
<title>Node19</title>
<g id="a_node19"><a xlink:href="$classVDPad.html" xlink:title=" ">
<polygon fill="white" stroke="black" points="1335,-378.5 1335,-397.5 1383,-397.5 1383,-378.5 1335,-378.5"/>
<text text-anchor="middle" x="1359" y="-385.5" font-family="Helvetica,sans-Serif" font-size="10.00">VDPad</text>
</a>
</g>
</g>
<!-- Node19&#45;&gt;Node3 -->
<g id="edge36" class="edge">
<title>Node19&#45;&gt;Node3</title>
<path fill="none" stroke="#9a32cd" stroke-dasharray="5,2" d="M1324.51,-382.93C1260.71,-373.4 1117.3,-352.67 996,-340 927.03,-332.8 845.73,-327.36 803.06,-324.73"/>
<polygon fill="#9a32cd" stroke="#9a32cd" points="1324.35,-386.44 1334.76,-384.46 1325.39,-379.52 1324.35,-386.44"/>
<text text-anchor="middle" x="1062" y="-355" font-family="Helvetica,sans-Serif" font-size="10.00"> m_vdpad</text>
</g>
<!-- Node20&#45;&gt;Node19 -->
<g id="edge37" class="edge">
<title>Node20&#45;&gt;Node19</title>
<path fill="none" stroke="midnightblue" d="M1207.11,-407.96C1245.32,-402.9 1302.92,-395.29 1334.77,-391.07"/>
<polygon fill="midnightblue" stroke="midnightblue" points="1206.34,-404.53 1196.89,-409.31 1207.26,-411.47 1206.34,-404.53"/>
</g>
<!-- Node20&#45;&gt;Node21 -->
<g id="edge42" class="edge">
<title>Node20&#45;&gt;Node21</title>
<path fill="none" stroke="#9a32cd" stroke-dasharray="5,2" d="M1129.14,-410.93C1090.43,-408.8 1030.44,-405.52 990.23,-403.31"/>
<polygon fill="#9a32cd" stroke="#9a32cd" points="1129.28,-414.44 1139.46,-411.49 1129.66,-407.45 1129.28,-414.44"/>
<text text-anchor="middle" x="1062" y="-412" font-family="Helvetica,sans-Serif" font-size="10.00"> m_dpad</text>
</g>
<!-- Node21&#45;&gt;Node20 -->
<g id="edge40" class="edge">
<title>Node21&#45;&gt;Node20</title>
<path fill="none" stroke="#9a32cd" stroke-dasharray="5,2" d="M981.77,-388.06C991.97,-384.75 1003.31,-381.66 1014,-380 1056.16,-373.45 1068.79,-368.93 1110,-380 1126.79,-384.51 1143.73,-395.3 1154.73,-403.32"/>
<polygon fill="#9a32cd" stroke="#9a32cd" points="980.35,-384.84 972.02,-391.39 982.61,-391.47 980.35,-384.84"/>
<text text-anchor="middle" x="1062" y="-383" font-family="Helvetica,sans-Serif" font-size="10.00"> activeDiagonalButton</text>
</g>
</g>
</svg>
