<?xml version="1.0" encoding="UTF-8" standalone="no"?>
<!DOCTYPE svg PUBLIC "-//W3C//DTD SVG 1.1//EN"
 "http://www.w3.org/Graphics/SVG/1.1/DTD/svg11.dtd">
<!-- Generated by graphviz version 2.43.0 (0)
 -->
<!-- Title: JoyAxis::setDeadZone Pages: 1 -->
<!--zoomable 340 -->
<svg id="main" version="1.1" xmlns="http://www.w3.org/2000/svg" xmlns:xlink="http://www.w3.org/1999/xlink" xml:space="preserve" onload="init(evt)">
<style type="text/css"><![CDATA[
.edge:hover path { stroke: red; }
.edge:hover polygon { stroke: red; fill: red; }
]]></style>
<script type="text/javascript"><![CDATA[
var edges = document.getElementsByTagName('g');
if (edges && edges.length) {
  for (var i=0;i<edges.length;i++) {
    if (edges[i].id.substr(0,4)=='edge') {
      edges[i].setAttribute('class','edge');
    }
  }
}
]]></script>
        <defs>
                <circle id="rim" cx="0" cy="0" r="7"/>
                <circle id="rim2" cx="0" cy="0" r="3.5"/>
                <g id="zoomPlus">
                        <use xlink:href="#rim" fill="#404040">
                                <set attributeName="fill" to="#808080" begin="zoomplus.mouseover" end="zoomplus.mouseout"/>
                        </use>
                        <path d="M-4,0h8M0,-4v8" fill="none" stroke="white" stroke-width="1.5" pointer-events="none"/>
                </g>
                <g id="zoomMin">
                        <use xlink:href="#rim" fill="#404040">
                                <set attributeName="fill" to="#808080" begin="zoomminus.mouseover" end="zoomminus.mouseout"/>
                        </use>
                        <path d="M-4,0h8" fill="none" stroke="white" stroke-width="1.5" pointer-events="none"/>
                </g>
                <g id="dirArrow">
                        <path fill="none" stroke="white" stroke-width="1.5" d="M0,-3.0v7 M-2.5,-0.5L0,-3.0L2.5,-0.5"/>
                </g>
               <g id="resetDef">
                       <use xlink:href="#rim2" fill="#404040">
                               <set attributeName="fill" to="#808080" begin="reset.mouseover" end="reset.mouseout"/>
                       </use>
               </g>
        </defs>

<script type="text/javascript">
var viewWidth = 968;
var viewHeight = 340;
var sectionId = 'dynsection-125';
</script>
<script xlink:href="svgpan.js"/>
<svg id="graph" class="graph">
<g id="viewport">
<title>JoyAxis::setDeadZone</title>
<polygon fill="white" stroke="transparent" points="-4,4 -4,-336 964,-336 964,4 -4,4"/>
<!-- Node1 -->
<g id="node1" class="node">
<title>Node1</title>
<g id="a_node1"><a xlink:title=" ">
<polygon fill="#bfbfbf" stroke="black" points="844,-148 844,-167 960,-167 960,-148 844,-148"/>
<text text-anchor="middle" x="902" y="-155" font-family="Helvetica,sans-Serif" font-size="10.00">JoyAxis::setDeadZone</text>
</a>
</g>
</g>
<!-- Node2 -->
<g id="node2" class="node">
<title>Node2</title>
<g id="a_node2"><a xlink:href="classAxisEditDialog.html#a702a1718f3a1dd6b64b4474ea19b71cd" target="_top" xlink:title=" ">
<polygon fill="white" stroke="black" points="674.5,-279.5 674.5,-309.5 798.5,-309.5 798.5,-279.5 674.5,-279.5"/>
<text text-anchor="start" x="682.5" y="-297.5" font-family="Helvetica,sans-Serif" font-size="10.00">AxisEditDialog::AxisEdit</text>
<text text-anchor="middle" x="736.5" y="-286.5" font-family="Helvetica,sans-Serif" font-size="10.00">Dialog</text>
</a>
</g>
</g>
<!-- Node1&#45;&gt;Node2 -->
<g id="edge1" class="edge">
<title>Node1&#45;&gt;Node2</title>
<path fill="none" stroke="midnightblue" d="M890.35,-176.02C875.14,-200.91 844.89,-244.98 808,-270.5 803.11,-273.88 797.7,-276.83 792.11,-279.38"/>
<polygon fill="midnightblue" stroke="midnightblue" points="893.49,-177.59 895.6,-167.21 887.47,-174.01 893.49,-177.59"/>
</g>
<!-- Node3 -->
<g id="node3" class="node">
<title>Node3</title>
<g id="a_node3"><a xlink:href="classSetJoystick.html#a65ac9f7b25b04650d7243219ad6e8ebd" target="_top" xlink:title="Raise the dead zones for axes. Used when launching the controller mapping window.">
<polygon fill="white" stroke="black" points="667,-230.5 667,-260.5 806,-260.5 806,-230.5 667,-230.5"/>
<text text-anchor="start" x="675" y="-248.5" font-family="Helvetica,sans-Serif" font-size="10.00">SetJoystick::raiseAxesDead</text>
<text text-anchor="middle" x="736.5" y="-237.5" font-family="Helvetica,sans-Serif" font-size="10.00">Zones</text>
</a>
</g>
</g>
<!-- Node1&#45;&gt;Node3 -->
<g id="edge2" class="edge">
<title>Node1&#45;&gt;Node3</title>
<path fill="none" stroke="midnightblue" d="M874.17,-171.94C844.25,-188.04 796.1,-213.96 765.66,-230.34"/>
<polygon fill="midnightblue" stroke="midnightblue" points="876.04,-174.91 883.19,-167.09 872.73,-168.74 876.04,-174.91"/>
</g>
<!-- Node6 -->
<g id="node6" class="node">
<title>Node6</title>
<g id="a_node6"><a xlink:href="classJoyAxisXml.html#a722916013ad49036b2ad38ab8ec30484" target="_top" xlink:title=" ">
<polygon fill="white" stroke="black" points="665,-170 665,-189 808,-189 808,-170 665,-170"/>
<text text-anchor="middle" x="736.5" y="-177" font-family="Helvetica,sans-Serif" font-size="10.00">JoyAxisXml::readMainConfig</text>
</a>
</g>
</g>
<!-- Node1&#45;&gt;Node6 -->
<g id="edge5" class="edge">
<title>Node1&#45;&gt;Node6</title>
<path fill="none" stroke="midnightblue" d="M833.68,-166.56C825.26,-167.69 816.64,-168.85 808.17,-169.99"/>
<polygon fill="midnightblue" stroke="midnightblue" points="834.37,-170 843.82,-165.19 833.44,-163.06 834.37,-170"/>
</g>
<!-- Node13 -->
<g id="node13" class="node">
<title>Node13</title>
<g id="a_node13"><a xlink:href="classCalibration.html#a8e5394c1bbe44565c442c313ca284ace" target="_top" xlink:title=" ">
<polygon fill="white" stroke="black" points="665.5,-129 665.5,-148 807.5,-148 807.5,-129 665.5,-129"/>
<text text-anchor="middle" x="736.5" y="-136" font-family="Helvetica,sans-Serif" font-size="10.00">Calibration::restoreCalValues</text>
</a>
</g>
</g>
<!-- Node1&#45;&gt;Node13 -->
<g id="edge12" class="edge">
<title>Node1&#45;&gt;Node13</title>
<path fill="none" stroke="midnightblue" d="M833.8,-149.69C825.15,-148.69 816.29,-147.66 807.6,-146.65"/>
<polygon fill="midnightblue" stroke="midnightblue" points="833.48,-153.18 843.82,-150.85 834.29,-146.22 833.48,-153.18"/>
</g>
<!-- Node15 -->
<g id="node15" class="node">
<title>Node15</title>
<g id="a_node15"><a xlink:href="classCalibration.html#a61d733b70d5fd8a60c8f98e50469ed0e" target="_top" xlink:title="Updates variables contents and shows message.">
<polygon fill="white" stroke="black" points="674,-88 674,-107 799,-107 799,-88 674,-88"/>
<text text-anchor="middle" x="736.5" y="-95" font-family="Helvetica,sans-Serif" font-size="10.00">Calibration::saveSettings</text>
</a>
</g>
</g>
<!-- Node1&#45;&gt;Node15 -->
<g id="edge14" class="edge">
<title>Node1&#45;&gt;Node15</title>
<path fill="none" stroke="midnightblue" d="M869.65,-143.91C851.74,-136.34 828.77,-126.97 808,-119.5 795.69,-115.07 782,-110.68 769.98,-107"/>
<polygon fill="midnightblue" stroke="midnightblue" points="868.46,-147.21 879.03,-147.9 871.2,-140.77 868.46,-147.21"/>
</g>
<!-- Node18 -->
<g id="node18" class="node">
<title>Node18</title>
<g id="a_node18"><a xlink:href="classSetJoystick.html#ab3214fccc9b07b7f4b47ae886c62cd60" target="_top" xlink:title=" ">
<polygon fill="white" stroke="black" points="671,-19.5 671,-49.5 802,-49.5 802,-19.5 671,-19.5"/>
<text text-anchor="start" x="679" y="-37.5" font-family="Helvetica,sans-Serif" font-size="10.00">SetJoystick::setAxesDead</text>
<text text-anchor="middle" x="736.5" y="-26.5" font-family="Helvetica,sans-Serif" font-size="10.00">Zones</text>
</a>
</g>
</g>
<!-- Node1&#45;&gt;Node18 -->
<g id="edge18" class="edge">
<title>Node1&#45;&gt;Node18</title>
<path fill="none" stroke="midnightblue" d="M883.27,-141.07C865.01,-124.5 835.44,-98.55 808,-78.5 793.79,-68.11 777.11,-57.63 763.55,-49.51"/>
<polygon fill="midnightblue" stroke="midnightblue" points="881.07,-143.81 890.81,-147.98 885.79,-138.64 881.07,-143.81"/>
</g>
<!-- Node4 -->
<g id="node4" class="node">
<title>Node4</title>
<g id="a_node4"><a xlink:href="classGameControllerMappingDialogHelper.html#a2302e55d686dfedb8b6e0dfa880bb199" target="_top" xlink:title=" ">
<polygon fill="white" stroke="black" points="471,-301.5 471,-331.5 620,-331.5 620,-301.5 471,-301.5"/>
<text text-anchor="start" x="479" y="-319.5" font-family="Helvetica,sans-Serif" font-size="10.00">GameControllerMappingDialog</text>
<text text-anchor="middle" x="545.5" y="-308.5" font-family="Helvetica,sans-Serif" font-size="10.00">Helper::raiseDeadZones</text>
</a>
</g>
</g>
<!-- Node3&#45;&gt;Node4 -->
<g id="edge3" class="edge">
<title>Node3&#45;&gt;Node4</title>
<path fill="none" stroke="midnightblue" d="M679.27,-264.24C674.39,-266.23 669.57,-268.32 665,-270.5 648.07,-278.57 646.15,-284.93 629,-292.5 621.49,-295.81 613.41,-298.81 605.33,-301.48"/>
<polygon fill="midnightblue" stroke="midnightblue" points="680.64,-267.46 688.68,-260.56 678.09,-260.94 680.64,-267.46"/>
</g>
<!-- Node5 -->
<g id="node5" class="node">
<title>Node5</title>
<g id="a_node5"><a xlink:href="classGameControllerMappingDialogHelper.html#a7852aab5763281aa59c17f2f1da8dd31" target="_top" xlink:title=" ">
<polygon fill="white" stroke="black" points="471,-252.5 471,-282.5 620,-282.5 620,-252.5 471,-252.5"/>
<text text-anchor="start" x="479" y="-270.5" font-family="Helvetica,sans-Serif" font-size="10.00">GameControllerMappingDialog</text>
<text text-anchor="middle" x="545.5" y="-259.5" font-family="Helvetica,sans-Serif" font-size="10.00">Helper::setupDeadZones</text>
</a>
</g>
</g>
<!-- Node3&#45;&gt;Node5 -->
<g id="edge4" class="edge">
<title>Node3&#45;&gt;Node5</title>
<path fill="none" stroke="midnightblue" d="M656.89,-254.65C644.74,-256.06 632.23,-257.52 620.19,-258.92"/>
<polygon fill="midnightblue" stroke="midnightblue" points="657.47,-258.11 667,-253.47 656.66,-251.15 657.47,-258.11"/>
</g>
<!-- Node7 -->
<g id="node7" class="node">
<title>Node7</title>
<g id="a_node7"><a xlink:href="classJoyAxisXml.html#abfcf483748d22f52a9f76d2bf23e9a3d" target="_top" xlink:title=" ">
<polygon fill="white" stroke="black" points="484.5,-214 484.5,-233 606.5,-233 606.5,-214 484.5,-214"/>
<text text-anchor="middle" x="545.5" y="-221" font-family="Helvetica,sans-Serif" font-size="10.00">JoyAxisXml::readConfig</text>
</a>
</g>
</g>
<!-- Node6&#45;&gt;Node7 -->
<g id="edge6" class="edge">
<title>Node6&#45;&gt;Node7</title>
<path fill="none" stroke="midnightblue" d="M684.93,-191.42C667.24,-195.57 647.25,-200.26 629,-204.5 615.69,-207.6 601.16,-210.95 588.05,-213.97"/>
<polygon fill="midnightblue" stroke="midnightblue" points="686.12,-194.73 695.05,-189.04 684.52,-187.92 686.12,-194.73"/>
</g>
<!-- Node9 -->
<g id="node9" class="node">
<title>Node9</title>
<g id="a_node9"><a xlink:href="classGameControllerTriggerXml.html#a4578ad54daf8a24231e8b0e4e09f1587" target="_top" xlink:title=" ">
<polygon fill="white" stroke="black" points="480,-164.5 480,-194.5 611,-194.5 611,-164.5 480,-164.5"/>
<text text-anchor="start" x="488" y="-182.5" font-family="Helvetica,sans-Serif" font-size="10.00">GameControllerTriggerXml</text>
<text text-anchor="middle" x="545.5" y="-171.5" font-family="Helvetica,sans-Serif" font-size="10.00">::readJoystickConfig</text>
</a>
</g>
</g>
<!-- Node6&#45;&gt;Node9 -->
<g id="edge8" class="edge">
<title>Node6&#45;&gt;Node9</title>
<path fill="none" stroke="midnightblue" d="M654.84,-179.5C640.24,-179.5 625.2,-179.5 611.13,-179.5"/>
<polygon fill="midnightblue" stroke="midnightblue" points="654.85,-183 664.85,-179.5 654.85,-176 654.85,-183"/>
</g>
<!-- Node8 -->
<g id="node8" class="node">
<title>Node8</title>
<g id="a_node8"><a xlink:href="classSetJoystickXml.html#aa95423a01fab878cbc69bffb7f6121f3" target="_top" xlink:title=" ">
<polygon fill="white" stroke="black" points="288,-214 288,-233 426,-233 426,-214 288,-214"/>
<text text-anchor="middle" x="357" y="-221" font-family="Helvetica,sans-Serif" font-size="10.00">SetJoystickXml::readConfig</text>
</a>
</g>
</g>
<!-- Node7&#45;&gt;Node8 -->
<g id="edge7" class="edge">
<title>Node7&#45;&gt;Node8</title>
<path fill="none" stroke="midnightblue" d="M474.24,-223.5C458.45,-223.5 441.72,-223.5 426.02,-223.5"/>
<polygon fill="midnightblue" stroke="midnightblue" points="474.46,-227 484.46,-223.5 474.46,-220 474.46,-227"/>
</g>
<!-- Node10 -->
<g id="node10" class="node">
<title>Node10</title>
<g id="a_node10"><a xlink:href="classGameControllerSet.html#a6b551139e353a654212d498309744025" target="_top" xlink:title=" ">
<polygon fill="white" stroke="black" points="304,-164.5 304,-194.5 410,-194.5 410,-164.5 304,-164.5"/>
<text text-anchor="start" x="312" y="-182.5" font-family="Helvetica,sans-Serif" font-size="10.00">GameControllerSet::</text>
<text text-anchor="middle" x="357" y="-171.5" font-family="Helvetica,sans-Serif" font-size="10.00">readJoystickConfig</text>
</a>
</g>
</g>
<!-- Node9&#45;&gt;Node10 -->
<g id="edge9" class="edge">
<title>Node9&#45;&gt;Node10</title>
<path fill="none" stroke="midnightblue" d="M469.53,-179.5C449.66,-179.5 428.64,-179.5 410.27,-179.5"/>
<polygon fill="midnightblue" stroke="midnightblue" points="469.79,-183 479.79,-179.5 469.79,-176 469.79,-183"/>
</g>
<!-- Node11 -->
<g id="node11" class="node">
<title>Node11</title>
<g id="a_node11"><a xlink:href="classGameControllerXml.html#aaa5257d4c6fe13f1d5fc51981e247c25" target="_top" xlink:title=" ">
<polygon fill="white" stroke="black" points="144,-164.5 144,-194.5 252,-194.5 252,-164.5 144,-164.5"/>
<text text-anchor="start" x="152" y="-182.5" font-family="Helvetica,sans-Serif" font-size="10.00">GameControllerXml::</text>
<text text-anchor="middle" x="198" y="-171.5" font-family="Helvetica,sans-Serif" font-size="10.00">readJoystickConfig</text>
</a>
</g>
</g>
<!-- Node10&#45;&gt;Node11 -->
<g id="edge10" class="edge">
<title>Node10&#45;&gt;Node11</title>
<path fill="none" stroke="midnightblue" d="M293.42,-179.5C279.74,-179.5 265.39,-179.5 252.12,-179.5"/>
<polygon fill="midnightblue" stroke="midnightblue" points="293.72,-183 303.72,-179.5 293.72,-176 293.72,-183"/>
</g>
<!-- Node12 -->
<g id="node12" class="node">
<title>Node12</title>
<g id="a_node12"><a xlink:href="classGameControllerXml.html#a7e47256cae0d3815419bc254413777d1" target="_top" xlink:title=" ">
<polygon fill="white" stroke="black" points="0,-164.5 0,-194.5 108,-194.5 108,-164.5 0,-164.5"/>
<text text-anchor="start" x="8" y="-182.5" font-family="Helvetica,sans-Serif" font-size="10.00">GameControllerXml::</text>
<text text-anchor="middle" x="54" y="-171.5" font-family="Helvetica,sans-Serif" font-size="10.00">readConfig</text>
</a>
</g>
</g>
<!-- Node11&#45;&gt;Node12 -->
<g id="edge11" class="edge">
<title>Node11&#45;&gt;Node12</title>
<path fill="none" stroke="midnightblue" d="M133.48,-179.5C125,-179.5 116.38,-179.5 108.11,-179.5"/>
<polygon fill="midnightblue" stroke="midnightblue" points="133.72,-183 143.72,-179.5 133.72,-176 133.72,-183"/>
</g>
<!-- Node14 -->
<g id="node14" class="node">
<title>Node14</title>
<g id="a_node14"><a xlink:href="classCalibration.html#aac3cc29daae69f616489ddd29407f6fe" target="_top" xlink:title="Resets memory of all variables to default, updates window and shows message.">
<polygon fill="white" stroke="black" points="482.5,-126 482.5,-145 608.5,-145 608.5,-126 482.5,-126"/>
<text text-anchor="middle" x="545.5" y="-133" font-family="Helvetica,sans-Serif" font-size="10.00">Calibration::resetSettings</text>
</a>
</g>
</g>
<!-- Node13&#45;&gt;Node14 -->
<g id="edge13" class="edge">
<title>Node13&#45;&gt;Node14</title>
<path fill="none" stroke="midnightblue" d="M655.26,-137.23C639.69,-136.98 623.59,-136.72 608.71,-136.49"/>
<polygon fill="midnightblue" stroke="midnightblue" points="655.34,-140.73 665.39,-137.39 655.45,-133.73 655.34,-140.73"/>
</g>
<!-- Node16 -->
<g id="node16" class="node">
<title>Node16</title>
<g id="a_node16"><a xlink:href="classCalibration.html#a27a8dcaa8bc1ae3ebf2da993b29a4e2e" target="_top" xlink:title=" ">
<polygon fill="white" stroke="black" points="300,-69 300,-88 414,-88 414,-69 300,-69"/>
<text text-anchor="middle" x="357" y="-76" font-family="Helvetica,sans-Serif" font-size="10.00">Calibration::Calibration</text>
</a>
</g>
</g>
<!-- Node15&#45;&gt;Node16 -->
<g id="edge15" class="edge">
<title>Node15&#45;&gt;Node16</title>
<path fill="none" stroke="midnightblue" d="M663.16,-93.86C590.57,-90.21 480.31,-84.66 414.09,-81.32"/>
<polygon fill="midnightblue" stroke="midnightblue" points="663.42,-97.38 673.59,-94.38 663.77,-90.39 663.42,-97.38"/>
</g>
<!-- Node17 -->
<g id="node17" class="node">
<title>Node17</title>
<g id="a_node17"><a xlink:href="classCalibration.html#a7d5b82418dba451e1b59bef20f2890d2" target="_top" xlink:title="Initializes widget for moving axes (animations) and changes storing data for variables.">
<polygon fill="white" stroke="black" points="462,-50 462,-69 629,-69 629,-50 462,-50"/>
<text text-anchor="middle" x="545.5" y="-57" font-family="Helvetica,sans-Serif" font-size="10.00">Calibration::createAxesConnection</text>
</a>
</g>
</g>
<!-- Node15&#45;&gt;Node17 -->
<g id="edge16" class="edge">
<title>Node15&#45;&gt;Node17</title>
<path fill="none" stroke="midnightblue" d="M677.76,-85.89C650.88,-80.49 619.3,-74.14 593.85,-69.02"/>
<polygon fill="midnightblue" stroke="midnightblue" points="677.31,-89.37 687.81,-87.91 678.69,-82.51 677.31,-89.37"/>
</g>
<!-- Node17&#45;&gt;Node16 -->
<g id="edge17" class="edge">
<title>Node17&#45;&gt;Node16</title>
<path fill="none" stroke="midnightblue" d="M451.61,-68.96C438.77,-70.27 425.93,-71.58 414.05,-72.79"/>
<polygon fill="midnightblue" stroke="midnightblue" points="452.29,-72.41 461.88,-67.92 451.58,-65.45 452.29,-72.41"/>
</g>
<!-- Node19 -->
<g id="node19" class="node">
<title>Node19</title>
<g id="a_node19"><a xlink:href="classGameControllerMappingDialogHelper.html#a4040e6cf676fe8af751125e2928d8a35" target="_top" xlink:title=" ">
<polygon fill="white" stroke="black" points="464.5,-0.5 464.5,-30.5 626.5,-30.5 626.5,-0.5 464.5,-0.5"/>
<text text-anchor="start" x="472.5" y="-18.5" font-family="Helvetica,sans-Serif" font-size="10.00">GameControllerMappingDialog</text>
<text text-anchor="middle" x="545.5" y="-7.5" font-family="Helvetica,sans-Serif" font-size="10.00">Helper::restoreDeviceDeadZones</text>
</a>
</g>
</g>
<!-- Node18&#45;&gt;Node19 -->
<g id="edge19" class="edge">
<title>Node18&#45;&gt;Node19</title>
<path fill="none" stroke="midnightblue" d="M660.84,-26.99C649.65,-25.87 638.07,-24.71 626.77,-23.57"/>
<polygon fill="midnightblue" stroke="midnightblue" points="660.69,-30.5 670.99,-28.01 661.39,-23.53 660.69,-30.5"/>
</g>
</g>
</svg>
        <g id="navigator" transform="translate(0 0)" fill="#404254">
                <rect fill="#f2f5e9" fill-opacity="0.5" stroke="#606060" stroke-width=".5" x="0" y="0" width="60" height="60"/>
                <use id="zoomplus" xlink:href="#zoomPlus" x="17" y="9" onmousedown="handleZoom(evt,'in')"/>
                <use id="zoomminus" xlink:href="#zoomMin" x="42" y="9" onmousedown="handleZoom(evt,'out')"/>
                <use id="reset" xlink:href="#resetDef" x="30" y="36" onmousedown="handleReset()"/>
                <g id="arrowUp" xlink:href="#dirArrow" transform="translate(30 24)" onmousedown="handlePan(0,-1)">
                  <use xlink:href="#rim" fill="#404040">
                        <set attributeName="fill" to="#808080" begin="arrowUp.mouseover" end="arrowUp.mouseout"/>
                  </use>
                  <path fill="none" stroke="white" stroke-width="1.5" d="M0,-3.0v7 M-2.5,-0.5L0,-3.0L2.5,-0.5"/>
                </g>
                <g id="arrowRight" xlink:href="#dirArrow" transform="rotate(90) translate(36 -43)" onmousedown="handlePan(1,0)">
                  <use xlink:href="#rim" fill="#404040">
                        <set attributeName="fill" to="#808080" begin="arrowRight.mouseover" end="arrowRight.mouseout"/>
                  </use>
                  <path fill="none" stroke="white" stroke-width="1.5" d="M0,-3.0v7 M-2.5,-0.5L0,-3.0L2.5,-0.5"/>
                </g>
                <g id="arrowDown" xlink:href="#dirArrow" transform="rotate(180) translate(-30 -48)" onmousedown="handlePan(0,1)">
                  <use xlink:href="#rim" fill="#404040">
                        <set attributeName="fill" to="#808080" begin="arrowDown.mouseover" end="arrowDown.mouseout"/>
                  </use>
                  <path fill="none" stroke="white" stroke-width="1.5" d="M0,-3.0v7 M-2.5,-0.5L0,-3.0L2.5,-0.5"/>
                </g>
                <g id="arrowLeft" xlink:href="#dirArrow" transform="rotate(270) translate(-36 17)" onmousedown="handlePan(-1,0)">
                  <use xlink:href="#rim" fill="#404040">
                        <set attributeName="fill" to="#808080" begin="arrowLeft.mouseover" end="arrowLeft.mouseout"/>
                  </use>
                  <path fill="none" stroke="white" stroke-width="1.5" d="M0,-3.0v7 M-2.5,-0.5L0,-3.0L2.5,-0.5"/>
                </g>
        </g>
        <svg viewBox="0 0 15 15" width="100%" height="30px" preserveAspectRatio="xMaxYMin meet">
         <g id="arrow_out" transform="scale(0.3 0.3)">
          <a xlink:href="classJoyAxis_a368b17910df9a49089bd6f46cab2ff1c_icgraph_org.svg" target="_base">
           <rect id="button" ry="5" rx="5" y="6" x="6" height="38" width="38"
                fill="#f2f5e9" fill-opacity="0.5" stroke="#606060" stroke-width="1.0"/>
           <path id="arrow"
             d="M 11.500037,31.436501 C 11.940474,20.09759 22.043105,11.32322 32.158766,21.979434 L 37.068811,17.246167 C 37.068811,17.246167 37.088388,32 37.088388,32 L 22.160133,31.978069 C 22.160133,31.978069 26.997745,27.140456 26.997745,27.140456 C 18.528582,18.264221 13.291696,25.230495 11.500037,31.436501 z"
             style="fill:#404040;"/>
          </a>
         </g>
        </svg>
</svg>
