<?xml version="1.0" encoding="UTF-8" standalone="no"?>
<!DOCTYPE svg PUBLIC "-//W3C//DTD SVG 1.1//EN"
 "http://www.w3.org/Graphics/SVG/1.1/DTD/svg11.dtd">
<!-- Generated by graphviz version 2.43.0 (0)
 -->
<!-- Title: MainSettingsDialog::resetAutoProfSett Pages: 1 -->
<svg width="467pt" height="164pt"
 viewBox="0.00 0.00 467.00 164.00" xmlns="http://www.w3.org/2000/svg" xmlns:xlink="http://www.w3.org/1999/xlink">
<g id="graph0" class="graph" transform="scale(1 1) rotate(0) translate(4 160)">
<title>MainSettingsDialog::resetAutoProfSett</title>
<polygon fill="white" stroke="transparent" points="-4,4 -4,-160 463,-160 463,4 -4,4"/>
<!-- Node1 -->
<g id="node1" class="node">
<title>Node1</title>
<g id="a_node1"><a xlink:title=" ">
<polygon fill="#bfbfbf" stroke="black" points="0,-74 0,-104 101,-104 101,-74 0,-74"/>
<text text-anchor="start" x="8" y="-92" font-family="Helvetica,sans-Serif" font-size="10.00">MainSettingsDialog</text>
<text text-anchor="middle" x="50.5" y="-81" font-family="Helvetica,sans-Serif" font-size="10.00">::resetAutoProfSett</text>
</a>
</g>
</g>
<!-- Node2 -->
<g id="node2" class="node">
<title>Node2</title>
<g id="a_node2"><a xlink:href="classAutoProfileInfo.html#a79dc148898bc863eb5ceedc88d8f7638" target="_top" xlink:title=" ">
<polygon fill="white" stroke="black" points="137,-136.5 137,-155.5 295,-155.5 295,-136.5 137,-136.5"/>
<text text-anchor="middle" x="216" y="-143.5" font-family="Helvetica,sans-Serif" font-size="10.00">AutoProfileInfo::getDeviceName</text>
</a>
</g>
</g>
<!-- Node1&#45;&gt;Node2 -->
<g id="edge1" class="edge">
<title>Node1&#45;&gt;Node2</title>
<path fill="none" stroke="midnightblue" d="M81.84,-104.08C97.95,-111.67 118.24,-120.6 137,-127 144.33,-129.5 152.15,-131.81 159.9,-133.89"/>
<polygon fill="midnightblue" stroke="midnightblue" points="159.09,-137.3 169.65,-136.41 160.84,-130.52 159.09,-137.3"/>
</g>
<!-- Node3 -->
<g id="node3" class="node">
<title>Node3</title>
<g id="a_node3"><a xlink:href="classAutoProfileInfo.html#aba94c3fdd9e66bf8dc42a74237ff911c" target="_top" xlink:title=" ">
<polygon fill="white" stroke="black" points="145,-98.5 145,-117.5 287,-117.5 287,-98.5 145,-98.5"/>
<text text-anchor="middle" x="216" y="-105.5" font-family="Helvetica,sans-Serif" font-size="10.00">AutoProfileInfo::getUniqueID</text>
</a>
</g>
</g>
<!-- Node1&#45;&gt;Node3 -->
<g id="edge2" class="edge">
<title>Node1&#45;&gt;Node3</title>
<path fill="none" stroke="midnightblue" d="M101.44,-94.8C112.05,-96.04 123.5,-97.37 134.91,-98.69"/>
<polygon fill="midnightblue" stroke="midnightblue" points="134.56,-102.18 144.9,-99.85 135.37,-95.22 134.56,-102.18"/>
</g>
<!-- Node4 -->
<g id="node4" class="node">
<title>Node4</title>
<g id="a_node4"><a xlink:href="classAutoProfileInfo.html#a51f57cf7cda4e66b052d12e5a8879785" target="_top" xlink:title=" ">
<polygon fill="white" stroke="black" points="155,-60.5 155,-79.5 277,-79.5 277,-60.5 155,-60.5"/>
<text text-anchor="middle" x="216" y="-67.5" font-family="Helvetica,sans-Serif" font-size="10.00">AutoProfileInfo::isActive</text>
</a>
</g>
</g>
<!-- Node1&#45;&gt;Node4 -->
<g id="edge3" class="edge">
<title>Node1&#45;&gt;Node4</title>
<path fill="none" stroke="midnightblue" d="M101.44,-83.2C115.1,-81.61 130.16,-79.86 144.73,-78.17"/>
<polygon fill="midnightblue" stroke="midnightblue" points="145.18,-81.64 154.71,-77.01 144.37,-74.68 145.18,-81.64"/>
</g>
<!-- Node5 -->
<g id="node5" class="node">
<title>Node5</title>
<g id="a_node5"><a xlink:href="classMainSettingsDialog.html#af7d83bc727ba8b5bd545df56961c1aed" target="_top" xlink:title=" ">
<polygon fill="white" stroke="black" points="150,-0.5 150,-41.5 282,-41.5 282,-0.5 150,-0.5"/>
<text text-anchor="start" x="158" y="-29.5" font-family="Helvetica,sans-Serif" font-size="10.00">MainSettingsDialog</text>
<text text-anchor="start" x="158" y="-18.5" font-family="Helvetica,sans-Serif" font-size="10.00">::processAutoProfileActive</text>
<text text-anchor="middle" x="216" y="-7.5" font-family="Helvetica,sans-Serif" font-size="10.00">Click</text>
</a>
</g>
</g>
<!-- Node1&#45;&gt;Node5 -->
<g id="edge4" class="edge">
<title>Node1&#45;&gt;Node5</title>
<path fill="none" stroke="midnightblue" d="M84.22,-73.99C100.07,-66.84 119.44,-58.27 137,-51 141.46,-49.15 146.07,-47.28 150.73,-45.42"/>
<polygon fill="midnightblue" stroke="midnightblue" points="152.3,-48.56 160.31,-41.63 149.72,-42.05 152.3,-48.56"/>
</g>
<!-- Node6 -->
<g id="node6" class="node">
<title>Node6</title>
<g id="a_node6"><a xlink:href="classAutoProfileInfo.html#a9268ba686a854dfefe57d4840daa171d" target="_top" xlink:title=" ">
<polygon fill="white" stroke="black" points="331,-11.5 331,-30.5 459,-30.5 459,-11.5 331,-11.5"/>
<text text-anchor="middle" x="395" y="-18.5" font-family="Helvetica,sans-Serif" font-size="10.00">AutoProfileInfo::setActive</text>
</a>
</g>
</g>
<!-- Node5&#45;&gt;Node6 -->
<g id="edge5" class="edge">
<title>Node5&#45;&gt;Node6</title>
<path fill="none" stroke="midnightblue" d="M282.15,-21C294.68,-21 307.87,-21 320.63,-21"/>
<polygon fill="midnightblue" stroke="midnightblue" points="320.75,-24.5 330.75,-21 320.75,-17.5 320.75,-24.5"/>
</g>
</g>
</svg>
