<?xml version="1.0" encoding="UTF-8" standalone="no"?>
<!DOCTYPE svg PUBLIC "-//W3C//DTD SVG 1.1//EN"
 "http://www.w3.org/Graphics/SVG/1.1/DTD/svg11.dtd">
<!-- Generated by graphviz version 2.43.0 (0)
 -->
<!-- Title: JoyControlStickModifierButton::getLastMouseDistanceFromDeadZone Pages: 1 -->
<svg width="788pt" height="235pt"
 viewBox="0.00 0.00 788.00 235.00" xmlns="http://www.w3.org/2000/svg" xmlns:xlink="http://www.w3.org/1999/xlink">
<g id="graph0" class="graph" transform="scale(1 1) rotate(0) translate(4 231)">
<title>JoyControlStickModifierButton::getLastMouseDistanceFromDeadZone</title>
<polygon fill="white" stroke="transparent" points="-4,4 -4,-231 784,-231 784,4 -4,4"/>
<!-- Node1 -->
<g id="node1" class="node">
<title>Node1</title>
<g id="a_node1"><a xlink:title=" ">
<polygon fill="#bfbfbf" stroke="black" points="0,-98.5 0,-128.5 191,-128.5 191,-98.5 0,-98.5"/>
<text text-anchor="start" x="8" y="-116.5" font-family="Helvetica,sans-Serif" font-size="10.00">JoyControlStickModifierButton</text>
<text text-anchor="middle" x="95.5" y="-105.5" font-family="Helvetica,sans-Serif" font-size="10.00">::getLastMouseDistanceFromDeadZone</text>
</a>
</g>
</g>
<!-- Node2 -->
<g id="node2" class="node">
<title>Node2</title>
<g id="a_node2"><a xlink:href="classJoyControlStick.html#afb2b5e5e03f384d3d0533518baedf7ab" target="_top" xlink:title=" ">
<polygon fill="white" stroke="black" points="227,-98.5 227,-128.5 358,-128.5 358,-98.5 227,-98.5"/>
<text text-anchor="start" x="235" y="-116.5" font-family="Helvetica,sans-Serif" font-size="10.00">JoyControlStick::calculate</text>
<text text-anchor="middle" x="292.5" y="-105.5" font-family="Helvetica,sans-Serif" font-size="10.00">LastDirectionalDistance</text>
</a>
</g>
</g>
<!-- Node1&#45;&gt;Node2 -->
<g id="edge1" class="edge">
<title>Node1&#45;&gt;Node2</title>
<path fill="none" stroke="midnightblue" d="M191.14,-113.5C199.77,-113.5 208.42,-113.5 216.83,-113.5"/>
<polygon fill="midnightblue" stroke="midnightblue" points="216.96,-117 226.96,-113.5 216.96,-110 216.96,-117"/>
</g>
<!-- Node3 -->
<g id="node3" class="node">
<title>Node3</title>
<g id="a_node3"><a xlink:href="classJoyControlStick.html#a1110ba6e8d87b226653e7d4c38602c92" target="_top" xlink:title=" ">
<polygon fill="white" stroke="black" points="394,-196.5 394,-226.5 597,-226.5 597,-196.5 394,-196.5"/>
<text text-anchor="start" x="402" y="-214.5" font-family="Helvetica,sans-Serif" font-size="10.00">JoyControlStick::calculate</text>
<text text-anchor="middle" x="495.5" y="-203.5" font-family="Helvetica,sans-Serif" font-size="10.00">EightWayDiagonalDistanceFromDeadZone</text>
</a>
</g>
</g>
<!-- Node2&#45;&gt;Node3 -->
<g id="edge2" class="edge">
<title>Node2&#45;&gt;Node3</title>
<path fill="none" stroke="midnightblue" d="M309.59,-128.59C328.41,-145.42 361.18,-172.27 394,-187.5 398.4,-189.54 402.98,-191.42 407.67,-193.14"/>
<polygon fill="midnightblue" stroke="midnightblue" points="406.82,-196.55 417.41,-196.47 409.08,-189.93 406.82,-196.55"/>
</g>
<!-- Node5 -->
<g id="node5" class="node">
<title>Node5</title>
<g id="a_node5"><a xlink:href="classJoyControlStick.html#a9a9a23ba2fd1d4304e759a2de2985a69" target="_top" xlink:title="Calculate the current direction of the stick based on the values of the X and Y axes and the current ...">
<polygon fill="white" stroke="black" points="430,-147.5 430,-177.5 561,-177.5 561,-147.5 430,-147.5"/>
<text text-anchor="start" x="438" y="-165.5" font-family="Helvetica,sans-Serif" font-size="10.00">JoyControlStick::calculate</text>
<text text-anchor="middle" x="495.5" y="-154.5" font-family="Helvetica,sans-Serif" font-size="10.00">StickDirection</text>
</a>
</g>
</g>
<!-- Node2&#45;&gt;Node5 -->
<g id="edge4" class="edge">
<title>Node2&#45;&gt;Node5</title>
<path fill="none" stroke="midnightblue" d="M353.53,-128.53C366.85,-131.84 380.9,-135.31 394,-138.5 402.83,-140.65 412.1,-142.89 421.3,-145.1"/>
<polygon fill="midnightblue" stroke="midnightblue" points="420.68,-148.55 431.22,-147.48 422.31,-141.75 420.68,-148.55"/>
</g>
<!-- Node6 -->
<g id="node6" class="node">
<title>Node6</title>
<g id="a_node6"><a xlink:href="classJoyControlStick.html#a0898d3ba1c5f94781f8fd2df1b30c674" target="_top" xlink:title="Get distance of the X axis past the assigned dead zone.">
<polygon fill="white" stroke="black" points="430,-98.5 430,-128.5 561,-128.5 561,-98.5 430,-98.5"/>
<text text-anchor="start" x="438" y="-116.5" font-family="Helvetica,sans-Serif" font-size="10.00">JoyControlStick::calculate</text>
<text text-anchor="middle" x="495.5" y="-105.5" font-family="Helvetica,sans-Serif" font-size="10.00">XDistanceFromDeadZone</text>
</a>
</g>
</g>
<!-- Node2&#45;&gt;Node6 -->
<g id="edge6" class="edge">
<title>Node2&#45;&gt;Node6</title>
<path fill="none" stroke="midnightblue" d="M358.2,-113.5C377.84,-113.5 399.57,-113.5 419.81,-113.5"/>
<polygon fill="midnightblue" stroke="midnightblue" points="419.92,-117 429.92,-113.5 419.92,-110 419.92,-117"/>
</g>
<!-- Node7 -->
<g id="node7" class="node">
<title>Node7</title>
<g id="a_node7"><a xlink:href="classJoyControlStick.html#a42462afc22445206967b92b08c30995b" target="_top" xlink:title="Get distance of the Y axis past the assigned dead zone.">
<polygon fill="white" stroke="black" points="430,-49.5 430,-79.5 561,-79.5 561,-49.5 430,-49.5"/>
<text text-anchor="start" x="438" y="-67.5" font-family="Helvetica,sans-Serif" font-size="10.00">JoyControlStick::calculate</text>
<text text-anchor="middle" x="495.5" y="-56.5" font-family="Helvetica,sans-Serif" font-size="10.00">YDistanceFromDeadZone</text>
</a>
</g>
</g>
<!-- Node2&#45;&gt;Node7 -->
<g id="edge8" class="edge">
<title>Node2&#45;&gt;Node7</title>
<path fill="none" stroke="midnightblue" d="M355.17,-98.47C376.59,-93.24 400.78,-87.35 422.93,-81.95"/>
<polygon fill="midnightblue" stroke="midnightblue" points="424.06,-85.28 432.94,-79.51 422.4,-78.47 424.06,-85.28"/>
</g>
<!-- Node8 -->
<g id="node8" class="node">
<title>Node8</title>
<g id="a_node8"><a xlink:href="classJoyAxis.html#a6ed704ce0c9da777cbb5c694a9ed2238" target="_top" xlink:title=" ">
<polygon fill="white" stroke="black" points="419.5,-0.5 419.5,-30.5 571.5,-30.5 571.5,-0.5 419.5,-0.5"/>
<text text-anchor="start" x="427.5" y="-18.5" font-family="Helvetica,sans-Serif" font-size="10.00">JoyAxis::getLastKnownThrottle</text>
<text text-anchor="middle" x="495.5" y="-7.5" font-family="Helvetica,sans-Serif" font-size="10.00">Value</text>
</a>
</g>
</g>
<!-- Node2&#45;&gt;Node8 -->
<g id="edge10" class="edge">
<title>Node2&#45;&gt;Node8</title>
<path fill="none" stroke="midnightblue" d="M310,-98.38C328.93,-81.82 361.55,-55.62 394,-40.5 399.27,-38.04 404.82,-35.81 410.48,-33.78"/>
<polygon fill="midnightblue" stroke="midnightblue" points="411.73,-37.05 420.1,-30.55 409.51,-30.41 411.73,-37.05"/>
</g>
<!-- Node4 -->
<g id="node4" class="node">
<title>Node4</title>
<g id="a_node4"><a xlink:href="classJoyAxis.html#a0580ab0df546a1c03b4e8f755ad00272" target="_top" xlink:title=" ">
<polygon fill="white" stroke="black" points="633,-128 633,-147 780,-147 780,-128 633,-128"/>
<text text-anchor="middle" x="706.5" y="-135" font-family="Helvetica,sans-Serif" font-size="10.00">JoyAxis::getCurrentRawValue</text>
</a>
</g>
</g>
<!-- Node3&#45;&gt;Node4 -->
<g id="edge3" class="edge">
<title>Node3&#45;&gt;Node4</title>
<path fill="none" stroke="midnightblue" d="M567.29,-196.46C577.36,-193.78 587.51,-190.78 597,-187.5 625.68,-177.57 657.03,-162.66 678.62,-151.7"/>
<polygon fill="midnightblue" stroke="midnightblue" points="680.23,-154.81 687.52,-147.12 677.03,-148.58 680.23,-154.81"/>
</g>
<!-- Node5&#45;&gt;Node4 -->
<g id="edge5" class="edge">
<title>Node5&#45;&gt;Node4</title>
<path fill="none" stroke="midnightblue" d="M561.2,-154.76C580.67,-152.43 602.31,-149.84 622.78,-147.39"/>
<polygon fill="midnightblue" stroke="midnightblue" points="623.21,-150.87 632.72,-146.21 622.38,-143.92 623.21,-150.87"/>
</g>
<!-- Node6&#45;&gt;Node4 -->
<g id="edge7" class="edge">
<title>Node6&#45;&gt;Node4</title>
<path fill="none" stroke="midnightblue" d="M561.2,-120.93C580.67,-123.17 602.31,-125.65 622.78,-128"/>
<polygon fill="midnightblue" stroke="midnightblue" points="622.39,-131.48 632.72,-129.14 623.19,-124.52 622.39,-131.48"/>
</g>
<!-- Node7&#45;&gt;Node4 -->
<g id="edge9" class="edge">
<title>Node7&#45;&gt;Node4</title>
<path fill="none" stroke="midnightblue" d="M561.05,-78.8C573.11,-81.97 585.52,-85.57 597,-89.5 625.05,-99.11 655.86,-113.09 677.46,-123.49"/>
<polygon fill="midnightblue" stroke="midnightblue" points="676.17,-126.75 686.69,-127.98 679.23,-120.46 676.17,-126.75"/>
</g>
</g>
</svg>
