<?xml version="1.0" encoding="UTF-8" standalone="no"?>
<!DOCTYPE svg PUBLIC "-//W3C//DTD SVG 1.1//EN"
 "http://www.w3.org/Graphics/SVG/1.1/DTD/svg11.dtd">
<!-- Generated by graphviz version 2.43.0 (0)
 -->
<!-- Title: AxisEditDialog Pages: 1 -->
<svg width="2136pt" height="741pt"
 viewBox="0.00 0.00 2136.00 740.68" xmlns="http://www.w3.org/2000/svg" xmlns:xlink="http://www.w3.org/1999/xlink">
<g id="graph0" class="graph" transform="scale(1 1) rotate(0) translate(4 736.68)">
<title>AxisEditDialog</title>
<polygon fill="white" stroke="transparent" points="-4,4 -4,-736.68 2132,-736.68 2132,4 -4,4"/>
<!-- Node1 -->
<g id="node1" class="node">
<title>Node1</title>
<g id="a_node1"><a xlink:title=" ">
<polygon fill="#bfbfbf" stroke="black" points="559,-647.18 559,-666.18 640,-666.18 640,-647.18 559,-647.18"/>
<text text-anchor="middle" x="599.5" y="-654.18" font-family="Helvetica,sans-Serif" font-size="10.00">AxisEditDialog</text>
</a>
</g>
</g>
<!-- Node2 -->
<g id="node2" class="node">
<title>Node2</title>
<g id="a_node2"><a xlink:title=" ">
<polygon fill="white" stroke="#bfbfbf" points="94,-673.18 94,-692.18 146,-692.18 146,-673.18 94,-673.18"/>
<text text-anchor="middle" x="120" y="-680.18" font-family="Helvetica,sans-Serif" font-size="10.00">QDialog</text>
</a>
</g>
</g>
<!-- Node2&#45;&gt;Node1 -->
<g id="edge1" class="edge">
<title>Node2&#45;&gt;Node1</title>
<path fill="none" stroke="midnightblue" d="M156.5,-684.48C228.87,-687.54 398.52,-691.66 539,-671.68 547.86,-670.42 557.31,-668.37 566.01,-666.18"/>
<polygon fill="midnightblue" stroke="midnightblue" points="156.28,-680.96 146.14,-684.01 155.97,-687.96 156.28,-680.96"/>
</g>
<!-- Node3 -->
<g id="node3" class="node">
<title>Node3</title>
<g id="a_node3"><a xlink:href="classSetAxisThrottleDialog.html" target="_top" xlink:title=" ">
<polygon fill="white" stroke="black" points="305,-647.18 305,-666.18 417,-666.18 417,-647.18 305,-647.18"/>
<text text-anchor="middle" x="361" y="-654.18" font-family="Helvetica,sans-Serif" font-size="10.00">SetAxisThrottleDialog</text>
</a>
</g>
</g>
<!-- Node2&#45;&gt;Node3 -->
<g id="edge3" class="edge">
<title>Node2&#45;&gt;Node3</title>
<path fill="none" stroke="midnightblue" d="M156.23,-678.84C195.33,-674.59 258.95,-667.67 304.71,-662.69"/>
<polygon fill="midnightblue" stroke="midnightblue" points="155.69,-675.38 146.13,-679.94 156.45,-682.34 155.69,-675.38"/>
</g>
<!-- Node3&#45;&gt;Node1 -->
<g id="edge2" class="edge">
<title>Node3&#45;&gt;Node1</title>
<path fill="none" stroke="#9a32cd" stroke-dasharray="5,2" d="M427.33,-656.68C469.49,-656.68 522.96,-656.68 558.82,-656.68"/>
<polygon fill="#9a32cd" stroke="#9a32cd" points="427.15,-653.18 417.15,-656.68 427.15,-660.18 427.15,-653.18"/>
<text text-anchor="middle" x="487" y="-659.68" font-family="Helvetica,sans-Serif" font-size="10.00"> setAxisThrottleConfirm</text>
</g>
<!-- Node4 -->
<g id="node4" class="node">
<title>Node4</title>
<g id="a_node4"><a xlink:href="classJoyAxis.html" target="_top" xlink:title=" ">
<polygon fill="white" stroke="black" points="94,-477.18 94,-496.18 146,-496.18 146,-477.18 94,-477.18"/>
<text text-anchor="middle" x="120" y="-484.18" font-family="Helvetica,sans-Serif" font-size="10.00">JoyAxis</text>
</a>
</g>
</g>
<!-- Node4&#45;&gt;Node1 -->
<g id="edge47" class="edge">
<title>Node4&#45;&gt;Node1</title>
<path fill="none" stroke="#9a32cd" stroke-dasharray="5,2" d="M124.67,-506.39C130.01,-529.26 142.27,-566.3 168,-585.68 257.6,-653.14 306.34,-608.42 417,-626.68 465.84,-634.74 522.08,-644.03 558.85,-650.12"/>
<polygon fill="#9a32cd" stroke="#9a32cd" points="128.06,-505.5 122.57,-496.44 121.21,-506.94 128.06,-505.5"/>
<text text-anchor="middle" x="361" y="-629.68" font-family="Helvetica,sans-Serif" font-size="10.00"> m_axis</text>
</g>
<!-- Node4&#45;&gt;Node3 -->
<g id="edge4" class="edge">
<title>Node4&#45;&gt;Node3</title>
<path fill="none" stroke="#9a32cd" stroke-dasharray="5,2" d="M121.88,-506.31C124.34,-536.05 133.56,-592.2 168,-621.68 178.36,-630.55 251.63,-642.1 304.58,-649.46"/>
<polygon fill="#9a32cd" stroke="#9a32cd" points="125.37,-506.06 121.23,-496.31 118.39,-506.52 125.37,-506.06"/>
<text text-anchor="middle" x="227.5" y="-649.68" font-family="Helvetica,sans-Serif" font-size="10.00"> axis</text>
</g>
<!-- Node8 -->
<g id="node8" class="node">
<title>Node8</title>
<g id="a_node8"><a xlink:href="classJoyAxisXml.html" target="_top" xlink:title=" ">
<polygon fill="white" stroke="black" points="326.5,-241.18 326.5,-260.18 395.5,-260.18 395.5,-241.18 326.5,-241.18"/>
<text text-anchor="middle" x="361" y="-248.18" font-family="Helvetica,sans-Serif" font-size="10.00">JoyAxisXml</text>
</a>
</g>
</g>
<!-- Node4&#45;&gt;Node8 -->
<g id="edge12" class="edge">
<title>Node4&#45;&gt;Node8</title>
<path fill="none" stroke="#9a32cd" stroke-dasharray="5,2" d="M122.8,-466.87C127.41,-420.69 141.21,-307.87 168,-282.68 170.88,-279.97 272,-264.14 326.3,-255.81"/>
<polygon fill="#9a32cd" stroke="#9a32cd" points="119.29,-466.8 121.82,-477.09 126.26,-467.46 119.29,-466.8"/>
<text text-anchor="middle" x="227.5" y="-285.68" font-family="Helvetica,sans-Serif" font-size="10.00"> m_joyAxis</text>
</g>
<!-- Node19 -->
<g id="node19" class="node">
<title>Node19</title>
<g id="a_node19"><a xlink:href="classJoyAxisButton.html" target="_top" xlink:title=" ">
<polygon fill="white" stroke="black" points="1610.5,-477.18 1610.5,-496.18 1690.5,-496.18 1690.5,-477.18 1610.5,-477.18"/>
<text text-anchor="middle" x="1650.5" y="-484.18" font-family="Helvetica,sans-Serif" font-size="10.00">JoyAxisButton</text>
</a>
</g>
</g>
<!-- Node4&#45;&gt;Node19 -->
<g id="edge36" class="edge">
<title>Node4&#45;&gt;Node19</title>
<path fill="none" stroke="#9a32cd" stroke-dasharray="5,2" d="M156.3,-486.68C202.93,-486.68 287.63,-486.68 360,-486.68 360,-486.68 360,-486.68 1491,-486.68 1531.73,-486.68 1578.34,-486.68 1610.42,-486.68"/>
<polygon fill="#9a32cd" stroke="#9a32cd" points="156.12,-483.18 146.12,-486.68 156.12,-490.18 156.12,-483.18"/>
<text text-anchor="middle" x="979.5" y="-489.68" font-family="Helvetica,sans-Serif" font-size="10.00"> m_axis</text>
</g>
<!-- Node21 -->
<g id="node21" class="node">
<title>Node21</title>
<g id="a_node21"><a xlink:href="classJoyControlStick.html" target="_top" xlink:title=" ">
<polygon fill="white" stroke="black" points="1828,-431.18 1828,-450.18 1914,-450.18 1914,-431.18 1828,-431.18"/>
<text text-anchor="middle" x="1871" y="-438.18" font-family="Helvetica,sans-Serif" font-size="10.00">JoyControlStick</text>
</a>
</g>
</g>
<!-- Node4&#45;&gt;Node21 -->
<g id="edge46" class="edge">
<title>Node4&#45;&gt;Node21</title>
<path fill="none" stroke="#9a32cd" stroke-dasharray="5,2" d="M156.48,-483.51C160.37,-483.21 164.27,-482.92 168,-482.68 562.25,-456.59 660.89,-440.68 1056,-440.68 1056,-440.68 1056,-440.68 1651.5,-440.68 1712.76,-440.68 1783.69,-440.68 1827.7,-440.68"/>
<polygon fill="#9a32cd" stroke="#9a32cd" points="156.04,-480.04 146.35,-484.34 156.61,-487.02 156.04,-480.04"/>
<text text-anchor="middle" x="1057" y="-454.68" font-family="Helvetica,sans-Serif" font-size="10.00"> axisX</text>
<text text-anchor="middle" x="1057" y="-443.68" font-family="Helvetica,sans-Serif" font-size="10.00">axisY</text>
</g>
<!-- Node5 -->
<g id="node5" class="node">
<title>Node5</title>
<g id="a_node5"><a xlink:title=" ">
<polygon fill="white" stroke="#bfbfbf" points="0,-264.18 0,-283.18 53,-283.18 53,-264.18 0,-264.18"/>
<text text-anchor="middle" x="26.5" y="-271.18" font-family="Helvetica,sans-Serif" font-size="10.00">QObject</text>
</a>
</g>
</g>
<!-- Node5&#45;&gt;Node4 -->
<g id="edge5" class="edge">
<title>Node5&#45;&gt;Node4</title>
<path fill="none" stroke="midnightblue" d="M34.38,-292.92C42.59,-315.56 56.98,-354.19 71,-386.68 85.58,-420.45 105.12,-459.49 114.11,-477.14"/>
<polygon fill="midnightblue" stroke="midnightblue" points="37.65,-291.68 30.97,-283.46 31.06,-294.05 37.65,-291.68"/>
</g>
<!-- Node7 -->
<g id="node7" class="node">
<title>Node7</title>
<g id="a_node7"><a xlink:href="classSetJoystickXml.html" target="_top" xlink:title=" ">
<polygon fill="white" stroke="black" points="557,-182.18 557,-201.18 642,-201.18 642,-182.18 557,-182.18"/>
<text text-anchor="middle" x="599.5" y="-189.18" font-family="Helvetica,sans-Serif" font-size="10.00">SetJoystickXml</text>
</a>
</g>
</g>
<!-- Node5&#45;&gt;Node7 -->
<g id="edge8" class="edge">
<title>Node5&#45;&gt;Node7</title>
<path fill="none" stroke="midnightblue" d="M63.19,-265.8C71.93,-264 81.29,-262.17 90,-260.68 262.54,-231.06 469.8,-206.26 556.82,-196.33"/>
<polygon fill="midnightblue" stroke="midnightblue" points="62.33,-262.41 53.27,-267.89 63.78,-269.26 62.33,-262.41"/>
</g>
<!-- Node5&#45;&gt;Node8 -->
<g id="edge11" class="edge">
<title>Node5&#45;&gt;Node8</title>
<path fill="none" stroke="midnightblue" d="M63.14,-271.21C127.74,-266.74 263.29,-257.37 326.38,-253"/>
<polygon fill="midnightblue" stroke="midnightblue" points="62.77,-267.73 53.04,-271.91 63.26,-274.71 62.77,-267.73"/>
</g>
<!-- Node9 -->
<g id="node9" class="node">
<title>Node9</title>
<g id="a_node9"><a xlink:href="classJoyButtonXml.html" target="_top" xlink:title=" ">
<polygon fill="white" stroke="black" points="1451,-374.18 1451,-393.18 1529,-393.18 1529,-374.18 1451,-374.18"/>
<text text-anchor="middle" x="1490" y="-381.18" font-family="Helvetica,sans-Serif" font-size="10.00">JoyButtonXml</text>
</a>
</g>
</g>
<!-- Node5&#45;&gt;Node9 -->
<g id="edge14" class="edge">
<title>Node5&#45;&gt;Node9</title>
<path fill="none" stroke="midnightblue" d="M35.03,-293.02C47.67,-321.83 76.06,-372.68 119,-372.68 119,-372.68 119,-372.68 488,-372.68 706.41,-372.68 760.09,-402.68 978.5,-402.68 978.5,-402.68 978.5,-402.68 1317.5,-402.68 1363.63,-402.68 1416.32,-395.8 1450.99,-390.32"/>
<polygon fill="midnightblue" stroke="midnightblue" points="38.16,-291.42 31.09,-283.53 31.7,-294.11 38.16,-291.42"/>
</g>
<!-- Node10 -->
<g id="node10" class="node">
<title>Node10</title>
<g id="a_node10"><a xlink:href="classJoyButton.html" target="_top" xlink:title=" ">
<polygon fill="white" stroke="black" points="1286,-169.18 1286,-188.18 1347,-188.18 1347,-169.18 1286,-169.18"/>
<text text-anchor="middle" x="1316.5" y="-176.18" font-family="Helvetica,sans-Serif" font-size="10.00">JoyButton</text>
</a>
</g>
</g>
<!-- Node5&#45;&gt;Node10 -->
<g id="edge16" class="edge">
<title>Node5&#45;&gt;Node10</title>
<path fill="none" stroke="midnightblue" d="M28.73,-253.84C32.75,-208.02 49.63,-98.68 119,-98.68 119,-98.68 119,-98.68 488,-98.68 685.91,-98.68 736.07,-95.05 933,-114.68 1065.66,-127.9 1221.92,-158.95 1285.92,-172.35"/>
<polygon fill="midnightblue" stroke="midnightblue" points="25.23,-253.78 27.96,-264.02 32.21,-254.31 25.23,-253.78"/>
</g>
<!-- Node11 -->
<g id="node11" class="node">
<title>Node11</title>
<g id="a_node11"><a xlink:href="classJoyButtonMouseHelper.html" target="_top" xlink:title=" ">
<polygon fill="white" stroke="black" points="168,-300.18 168,-319.18 287,-319.18 287,-300.18 168,-300.18"/>
<text text-anchor="middle" x="227.5" y="-307.18" font-family="Helvetica,sans-Serif" font-size="10.00">JoyButtonMouseHelper</text>
</a>
</g>
</g>
<!-- Node5&#45;&gt;Node11 -->
<g id="edge18" class="edge">
<title>Node5&#45;&gt;Node11</title>
<path fill="none" stroke="midnightblue" d="M62.97,-280.09C93.75,-285.66 138.74,-293.8 173.74,-300.13"/>
<polygon fill="midnightblue" stroke="midnightblue" points="63.57,-276.65 53.11,-278.31 62.33,-283.53 63.57,-276.65"/>
</g>
<!-- Node12 -->
<g id="node12" class="node">
<title>Node12</title>
<g id="a_node12"><a xlink:href="classJoyButtonSlot.html" target="_top" xlink:title=" ">
<polygon fill="white" stroke="black" points="448,-311.18 448,-330.18 526,-330.18 526,-311.18 448,-311.18"/>
<text text-anchor="middle" x="487" y="-318.18" font-family="Helvetica,sans-Serif" font-size="10.00">JoyButtonSlot</text>
</a>
</g>
</g>
<!-- Node5&#45;&gt;Node12 -->
<g id="edge21" class="edge">
<title>Node5&#45;&gt;Node12</title>
<path fill="none" stroke="midnightblue" d="M56.46,-287.7C61.31,-290.03 66.3,-292.43 71,-294.68 79.43,-298.71 81.16,-300.66 90,-303.68 123.58,-315.12 132.72,-316.88 168,-320.68 268.45,-331.5 387.79,-326.85 447.68,-323.32"/>
<polygon fill="midnightblue" stroke="midnightblue" points="57.94,-284.52 47.41,-283.33 54.89,-290.82 57.94,-284.52"/>
</g>
<!-- Node14 -->
<g id="node14" class="node">
<title>Node14</title>
<g id="a_node14"><a xlink:href="classJoyDPad.html" target="_top" xlink:title=" ">
<polygon fill="white" stroke="black" points="951,-51.18 951,-70.18 1008,-70.18 1008,-51.18 951,-51.18"/>
<text text-anchor="middle" x="979.5" y="-58.18" font-family="Helvetica,sans-Serif" font-size="10.00">JoyDPad</text>
</a>
</g>
</g>
<!-- Node5&#45;&gt;Node14 -->
<g id="edge24" class="edge">
<title>Node5&#45;&gt;Node14</title>
<path fill="none" stroke="midnightblue" d="M27.12,-253.83C27.22,-200.96 35.38,-60.68 119,-60.68 119,-60.68 119,-60.68 780,-60.68 841,-60.68 912.54,-60.68 950.88,-60.68"/>
<polygon fill="midnightblue" stroke="midnightblue" points="23.62,-254 27.2,-263.97 30.62,-253.94 23.62,-254"/>
</g>
<!-- Node16 -->
<g id="node16" class="node">
<title>Node16</title>
<g id="a_node16"><a xlink:href="classInputDevice.html" target="_top" xlink:title=" ">
<polygon fill="white" stroke="black" points="565,-127.18 565,-146.18 634,-146.18 634,-127.18 565,-127.18"/>
<text text-anchor="middle" x="599.5" y="-134.18" font-family="Helvetica,sans-Serif" font-size="10.00">InputDevice</text>
</a>
</g>
</g>
<!-- Node5&#45;&gt;Node16 -->
<g id="edge30" class="edge">
<title>Node5&#45;&gt;Node16</title>
<path fill="none" stroke="midnightblue" d="M56.85,-259.87C67.19,-255.31 78.98,-250.44 90,-246.68 123.86,-235.1 133.12,-234.67 168,-226.68 331.98,-189.11 374.95,-188.92 539,-151.68 547.41,-149.77 556.46,-147.56 564.9,-145.44"/>
<polygon fill="midnightblue" stroke="midnightblue" points="55.13,-256.81 47.45,-264.11 58.01,-263.19 55.13,-256.81"/>
</g>
<!-- Node5&#45;&gt;Node21 -->
<g id="edge38" class="edge">
<title>Node5&#45;&gt;Node21</title>
<path fill="none" stroke="midnightblue" d="M27.17,-293.46C26.19,-381.43 28.02,-732.68 119,-732.68 119,-732.68 119,-732.68 1651.5,-732.68 1734.09,-732.68 1759.36,-700.92 1810,-635.68 1856.26,-576.08 1867.08,-480.66 1869.41,-450.29"/>
<polygon fill="midnightblue" stroke="midnightblue" points="30.67,-293.31 27.3,-283.26 23.67,-293.22 30.67,-293.31"/>
</g>
<!-- Node6 -->
<g id="node6" class="node">
<title>Node6</title>
<g id="a_node6"><a xlink:href="classSetJoystick.html" target="_top" xlink:title=" ">
<polygon fill="white" stroke="black" points="745,-151.18 745,-170.18 813,-170.18 813,-151.18 745,-151.18"/>
<text text-anchor="middle" x="779" y="-158.18" font-family="Helvetica,sans-Serif" font-size="10.00">SetJoystick</text>
</a>
</g>
</g>
<!-- Node6&#45;&gt;Node4 -->
<g id="edge6" class="edge">
<title>Node6&#45;&gt;Node4</title>
<path fill="none" stroke="#9a32cd" stroke-dasharray="5,2" d="M755.62,-176.26C752,-178.98 748.35,-181.85 745,-184.68 647.11,-267.5 654.34,-330.66 539,-386.68 389.44,-459.31 315.3,-357.57 168,-434.68 149.24,-444.5 134.27,-464.99 126.6,-477.11"/>
<polygon fill="#9a32cd" stroke="#9a32cd" points="757.82,-178.99 763.85,-170.28 753.7,-173.33 757.82,-178.99"/>
<text text-anchor="middle" x="487" y="-416.68" font-family="Helvetica,sans-Serif" font-size="10.00"> m_parentSet</text>
</g>
<!-- Node6&#45;&gt;Node7 -->
<g id="edge9" class="edge">
<title>Node6&#45;&gt;Node7</title>
<path fill="none" stroke="#9a32cd" stroke-dasharray="5,2" d="M735.05,-171.05C732.33,-171.62 729.63,-172.17 727,-172.68 698.87,-178.09 666.97,-182.87 642.24,-186.28"/>
<polygon fill="#9a32cd" stroke="#9a32cd" points="735.88,-174.45 744.89,-168.88 734.37,-167.61 735.88,-174.45"/>
<text text-anchor="middle" x="693.5" y="-185.68" font-family="Helvetica,sans-Serif" font-size="10.00"> m_setJoystick</text>
</g>
<!-- Node6&#45;&gt;Node10 -->
<g id="edge19" class="edge">
<title>Node6&#45;&gt;Node10</title>
<path fill="none" stroke="#9a32cd" stroke-dasharray="5,2" d="M823.37,-162.13C928.84,-165.68 1196.6,-174.68 1285.96,-177.68"/>
<polygon fill="#9a32cd" stroke="#9a32cd" points="823.21,-158.63 813.09,-161.79 822.97,-165.62 823.21,-158.63"/>
<text text-anchor="middle" x="1057" y="-173.68" font-family="Helvetica,sans-Serif" font-size="10.00"> m_parentSet</text>
</g>
<!-- Node6&#45;&gt;Node14 -->
<g id="edge25" class="edge">
<title>Node6&#45;&gt;Node14</title>
<path fill="none" stroke="#9a32cd" stroke-dasharray="5,2" d="M807.94,-146.39C815.43,-142.58 823.52,-138.46 831,-134.68 877.02,-111.4 931.25,-84.27 959.39,-70.22"/>
<polygon fill="#9a32cd" stroke="#9a32cd" points="806.19,-143.35 798.88,-151.02 809.37,-149.59 806.19,-143.35"/>
<text text-anchor="middle" x="882" y="-137.68" font-family="Helvetica,sans-Serif" font-size="10.00"> m_parentSet</text>
</g>
<!-- Node7&#45;&gt;Node6 -->
<g id="edge7" class="edge">
<title>Node7&#45;&gt;Node6</title>
<path fill="none" stroke="midnightblue" d="M642.44,-179.63C648.31,-178.17 654.29,-176.8 660,-175.68 688.47,-170.07 721.23,-166.1 745,-163.66"/>
<polygon fill="midnightblue" stroke="midnightblue" points="641.54,-176.25 632.74,-182.15 643.29,-183.03 641.54,-176.25"/>
</g>
<!-- Node8&#45;&gt;Node7 -->
<g id="edge10" class="edge">
<title>Node8&#45;&gt;Node7</title>
<path fill="none" stroke="#9a32cd" stroke-dasharray="5,2" d="M405.9,-249.73C442.46,-247.77 495.39,-242.19 539,-226.68 547.83,-223.54 548.94,-220.47 557,-215.68 565.01,-210.91 573.96,-205.72 581.49,-201.39"/>
<polygon fill="#9a32cd" stroke="#9a32cd" points="405.41,-246.25 395.58,-250.21 405.73,-253.24 405.41,-246.25"/>
<text text-anchor="middle" x="487" y="-249.68" font-family="Helvetica,sans-Serif" font-size="10.00"> joyAxisXml</text>
</g>
<!-- Node9&#45;&gt;Node7 -->
<g id="edge13" class="edge">
<title>Node9&#45;&gt;Node7</title>
<path fill="none" stroke="#9a32cd" stroke-dasharray="5,2" d="M1440.78,-375.46C1406.5,-370.32 1359.31,-364.68 1317.5,-364.68 1056,-364.68 1056,-364.68 1056,-364.68 956,-364.68 925.84,-395.4 831,-363.68 729.67,-329.79 636.68,-232.36 608.89,-201.31"/>
<polygon fill="#9a32cd" stroke="#9a32cd" points="1440.57,-378.97 1450.99,-377.03 1441.64,-372.05 1440.57,-378.97"/>
<text text-anchor="middle" x="1057" y="-367.68" font-family="Helvetica,sans-Serif" font-size="10.00"> joyButtonXml</text>
</g>
<!-- Node10&#45;&gt;Node9 -->
<g id="edge15" class="edge">
<title>Node10&#45;&gt;Node9</title>
<path fill="none" stroke="#9a32cd" stroke-dasharray="5,2" d="M1329.43,-196.95C1359.65,-243.22 1437.13,-361.54 1441,-364.68 1445.67,-368.46 1451.18,-371.56 1456.77,-374.08"/>
<polygon fill="#9a32cd" stroke="#9a32cd" points="1332.29,-194.94 1323.89,-188.48 1326.43,-198.76 1332.29,-194.94"/>
<text text-anchor="middle" x="1394" y="-338.68" font-family="Helvetica,sans-Serif" font-size="10.00"> m_joyButton</text>
</g>
<!-- Node15 -->
<g id="node15" class="node">
<title>Node15</title>
<g id="a_node15"><a xlink:href="classJoyDPadButton.html" target="_top" xlink:title=" ">
<polygon fill="white" stroke="black" points="1447,-26.18 1447,-45.18 1533,-45.18 1533,-26.18 1447,-26.18"/>
<text text-anchor="middle" x="1490" y="-33.18" font-family="Helvetica,sans-Serif" font-size="10.00">JoyDPadButton</text>
</a>
</g>
</g>
<!-- Node10&#45;&gt;Node15 -->
<g id="edge27" class="edge">
<title>Node10&#45;&gt;Node15</title>
<path fill="none" stroke="midnightblue" d="M1336.84,-162.55C1372.74,-132.62 1448.66,-69.31 1477.53,-45.24"/>
<polygon fill="midnightblue" stroke="midnightblue" points="1334.46,-159.98 1329.02,-169.07 1338.94,-165.36 1334.46,-159.98"/>
</g>
<!-- Node20 -->
<g id="node20" class="node">
<title>Node20</title>
<g id="a_node20"><a xlink:href="classJoyGradientButton.html" target="_top" xlink:title=" ">
<polygon fill="white" stroke="black" points="1441,-336.18 1441,-355.18 1539,-355.18 1539,-336.18 1441,-336.18"/>
<text text-anchor="middle" x="1490" y="-343.18" font-family="Helvetica,sans-Serif" font-size="10.00">JoyGradientButton</text>
</a>
</g>
</g>
<!-- Node10&#45;&gt;Node20 -->
<g id="edge35" class="edge">
<title>Node10&#45;&gt;Node20</title>
<path fill="none" stroke="midnightblue" d="M1341.47,-193.75C1363.9,-208.49 1397.68,-232.37 1423,-257.68 1448.53,-283.19 1472.34,-319 1483.05,-335.99"/>
<polygon fill="midnightblue" stroke="midnightblue" points="1343.19,-190.69 1332.89,-188.19 1339.38,-196.57 1343.19,-190.69"/>
</g>
<!-- Node11&#45;&gt;Node10 -->
<g id="edge17" class="edge">
<title>Node11&#45;&gt;Node10</title>
<path fill="none" stroke="#9a32cd" stroke-dasharray="5,2" d="M297.22,-300.01C360.25,-290.93 456.1,-276.53 539,-261.68 630.98,-245.2 652.41,-232.25 745,-219.68 975.88,-188.34 1035.88,-203.88 1268,-183.68 1273.78,-183.17 1279.95,-182.57 1285.87,-181.96"/>
<polygon fill="#9a32cd" stroke="#9a32cd" points="296.41,-296.6 287.01,-301.48 297.41,-303.52 296.41,-296.6"/>
<text text-anchor="middle" x="779" y="-222.68" font-family="Helvetica,sans-Serif" font-size="10.00"> mouseHelper</text>
</g>
<!-- Node12&#45;&gt;Node10 -->
<g id="edge20" class="edge">
<title>Node12&#45;&gt;Node10</title>
<path fill="none" stroke="#9a32cd" stroke-dasharray="5,2" d="M526.35,-307.92C589.19,-287.66 718.35,-248.68 831,-231.68 1023.25,-202.66 1083.84,-274.03 1268,-211.68 1282.27,-206.85 1296.12,-196.35 1305.15,-188.48"/>
<polygon fill="#9a32cd" stroke="#9a32cd" points="524.92,-304.7 516.49,-311.12 527.08,-311.36 524.92,-304.7"/>
<text text-anchor="middle" x="882" y="-355.68" font-family="Helvetica,sans-Serif" font-size="10.00"> currentDelay</text>
<text text-anchor="middle" x="882" y="-344.68" font-family="Helvetica,sans-Serif" font-size="10.00">lastActiveKey</text>
<text text-anchor="middle" x="882" y="-333.68" font-family="Helvetica,sans-Serif" font-size="10.00">currentSetChangeSlot</text>
<text text-anchor="middle" x="882" y="-322.68" font-family="Helvetica,sans-Serif" font-size="10.00">currentKeyPress</text>
<text text-anchor="middle" x="882" y="-311.68" font-family="Helvetica,sans-Serif" font-size="10.00">currentRelease</text>
<text text-anchor="middle" x="882" y="-300.68" font-family="Helvetica,sans-Serif" font-size="10.00">currentCycle</text>
<text text-anchor="middle" x="882" y="-289.68" font-family="Helvetica,sans-Serif" font-size="10.00">previousCycle</text>
<text text-anchor="middle" x="882" y="-278.68" font-family="Helvetica,sans-Serif" font-size="10.00">m_currentDistance</text>
<text text-anchor="middle" x="882" y="-267.68" font-family="Helvetica,sans-Serif" font-size="10.00">currentPause</text>
<text text-anchor="start" x="831" y="-256.68" font-family="Helvetica,sans-Serif" font-size="10.00">currentWheelHorizontal</text>
<text text-anchor="middle" x="882" y="-245.68" font-family="Helvetica,sans-Serif" font-size="10.00">Event</text>
<text text-anchor="middle" x="882" y="-234.68" font-family="Helvetica,sans-Serif" font-size="10.00">...</text>
</g>
<!-- Node13 -->
<g id="node13" class="node">
<title>Node13</title>
<g id="a_node13"><a xlink:href="classVDPad.html" target="_top" xlink:title=" ">
<polygon fill="white" stroke="black" points="1106,-64.18 1106,-83.18 1154,-83.18 1154,-64.18 1106,-64.18"/>
<text text-anchor="middle" x="1130" y="-71.18" font-family="Helvetica,sans-Serif" font-size="10.00">VDPad</text>
</a>
</g>
</g>
<!-- Node13&#45;&gt;Node10 -->
<g id="edge22" class="edge">
<title>Node13&#45;&gt;Node10</title>
<path fill="none" stroke="#9a32cd" stroke-dasharray="5,2" d="M1164.35,-68.42C1194.09,-65.55 1237.5,-66.06 1268,-86.68 1297.19,-106.41 1309.53,-149.85 1313.71,-169.14"/>
<polygon fill="#9a32cd" stroke="#9a32cd" points="1163.6,-64.98 1154.07,-69.59 1164.4,-71.93 1163.6,-64.98"/>
<text text-anchor="middle" x="1220" y="-89.68" font-family="Helvetica,sans-Serif" font-size="10.00"> m_vdpad</text>
</g>
<!-- Node14&#45;&gt;Node13 -->
<g id="edge23" class="edge">
<title>Node14&#45;&gt;Node13</title>
<path fill="none" stroke="midnightblue" d="M1018.2,-63.98C1045.85,-66.4 1082.53,-69.61 1105.95,-71.66"/>
<polygon fill="midnightblue" stroke="midnightblue" points="1018.35,-60.48 1008.08,-63.09 1017.74,-67.45 1018.35,-60.48"/>
</g>
<!-- Node14&#45;&gt;Node15 -->
<g id="edge28" class="edge">
<title>Node14&#45;&gt;Node15</title>
<path fill="none" stroke="#9a32cd" stroke-dasharray="5,2" d="M1018.26,-58.82C1111.06,-54.26 1349.74,-42.52 1446.9,-37.75"/>
<polygon fill="#9a32cd" stroke="#9a32cd" points="1018.02,-55.33 1008.2,-59.32 1018.36,-62.32 1018.02,-55.33"/>
<text text-anchor="middle" x="1220" y="-54.68" font-family="Helvetica,sans-Serif" font-size="10.00"> m_dpad</text>
</g>
<!-- Node15&#45;&gt;Node14 -->
<g id="edge26" class="edge">
<title>Node15&#45;&gt;Node14</title>
<path fill="none" stroke="#9a32cd" stroke-dasharray="5,2" d="M1436.75,-24.16C1432.11,-23.27 1427.48,-22.42 1423,-21.68 1312.65,-3.25 1283.64,4.56 1172,-2.68 1106.7,-6.91 1085.78,4.95 1026,-21.68 1010.98,-28.37 997.17,-41.65 988.8,-50.85"/>
<polygon fill="#9a32cd" stroke="#9a32cd" points="1436.36,-27.65 1446.85,-26.17 1437.73,-20.78 1436.36,-27.65"/>
<text text-anchor="middle" x="1220" y="-5.68" font-family="Helvetica,sans-Serif" font-size="10.00"> activeDiagonalButton</text>
</g>
<!-- Node16&#45;&gt;Node6 -->
<g id="edge29" class="edge">
<title>Node16&#45;&gt;Node6</title>
<path fill="none" stroke="#9a32cd" stroke-dasharray="5,2" d="M644.34,-132.01C668.93,-130.55 699.99,-130.64 727,-136.68 739.41,-139.45 752.37,-145.6 762.12,-150.98"/>
<polygon fill="#9a32cd" stroke="#9a32cd" points="643.96,-128.52 634.23,-132.72 644.45,-135.51 643.96,-128.52"/>
<text text-anchor="middle" x="693.5" y="-139.68" font-family="Helvetica,sans-Serif" font-size="10.00"> m_device</text>
</g>
<!-- Node17 -->
<g id="node17" class="node">
<title>Node17</title>
<g id="a_node17"><a xlink:href="classAntiMicroSettings.html" target="_top" xlink:title=" ">
<polygon fill="white" stroke="black" points="314,-127.18 314,-146.18 408,-146.18 408,-127.18 314,-127.18"/>
<text text-anchor="middle" x="361" y="-134.18" font-family="Helvetica,sans-Serif" font-size="10.00">AntiMicroSettings</text>
</a>
</g>
</g>
<!-- Node17&#45;&gt;Node16 -->
<g id="edge31" class="edge">
<title>Node17&#45;&gt;Node16</title>
<path fill="none" stroke="#9a32cd" stroke-dasharray="5,2" d="M418.19,-136.68C463.76,-136.68 526.5,-136.68 564.69,-136.68"/>
<polygon fill="#9a32cd" stroke="#9a32cd" points="418.16,-133.18 408.16,-136.68 418.16,-140.18 418.16,-133.18"/>
<text text-anchor="middle" x="487" y="-139.68" font-family="Helvetica,sans-Serif" font-size="10.00"> m_settings</text>
</g>
<!-- Node18 -->
<g id="node18" class="node">
<title>Node18</title>
<g id="a_node18"><a xlink:title=" ">
<polygon fill="white" stroke="#bfbfbf" points="90,-127.18 90,-146.18 150,-146.18 150,-127.18 90,-127.18"/>
<text text-anchor="middle" x="120" y="-134.18" font-family="Helvetica,sans-Serif" font-size="10.00">QSettings</text>
</a>
</g>
</g>
<!-- Node18&#45;&gt;Node17 -->
<g id="edge32" class="edge">
<title>Node18&#45;&gt;Node17</title>
<path fill="none" stroke="midnightblue" d="M160.44,-136.68C202.51,-136.68 269.07,-136.68 313.62,-136.68"/>
<polygon fill="midnightblue" stroke="midnightblue" points="160.31,-133.18 150.31,-136.68 160.31,-140.18 160.31,-133.18"/>
</g>
<!-- Node19&#45;&gt;Node4 -->
<g id="edge33" class="edge">
<title>Node19&#45;&gt;Node4</title>
<path fill="none" stroke="#9a32cd" stroke-dasharray="5,2" d="M1621.17,-500.47C1590.02,-514.33 1538.14,-533.68 1491,-533.68 360,-533.68 360,-533.68 360,-533.68 280.71,-533.68 189.36,-508.46 146.15,-494.97"/>
<polygon fill="#9a32cd" stroke="#9a32cd" points="1622.88,-503.53 1630.52,-496.19 1619.97,-497.17 1622.88,-503.53"/>
<text text-anchor="middle" x="979.5" y="-558.68" font-family="Helvetica,sans-Serif" font-size="10.00"> paxisbutton</text>
<text text-anchor="middle" x="979.5" y="-547.68" font-family="Helvetica,sans-Serif" font-size="10.00">activeButton</text>
<text text-anchor="middle" x="979.5" y="-536.68" font-family="Helvetica,sans-Serif" font-size="10.00">naxisbutton</text>
</g>
<!-- Node20&#45;&gt;Node19 -->
<g id="edge34" class="edge">
<title>Node20&#45;&gt;Node19</title>
<path fill="none" stroke="midnightblue" d="M1530.42,-359.52C1533.41,-361.1 1536.31,-362.81 1539,-364.68 1551.33,-373.22 1617.79,-449.84 1641.27,-477.1"/>
<polygon fill="midnightblue" stroke="midnightblue" points="1531.81,-356.31 1521.27,-355.21 1528.83,-362.64 1531.81,-356.31"/>
</g>
<!-- Node23 -->
<g id="node23" class="node">
<title>Node23</title>
<g id="a_node23"><a xlink:href="classJoyControlStickModifierButton.html" target="_top" xlink:title=" ">
<polygon fill="white" stroke="black" points="1576,-374.18 1576,-393.18 1725,-393.18 1725,-374.18 1576,-374.18"/>
<text text-anchor="middle" x="1650.5" y="-381.18" font-family="Helvetica,sans-Serif" font-size="10.00">JoyControlStickModifierButton</text>
</a>
</g>
</g>
<!-- Node20&#45;&gt;Node23 -->
<g id="edge41" class="edge">
<title>Node20&#45;&gt;Node23</title>
<path fill="none" stroke="midnightblue" d="M1540.92,-357.65C1563.13,-362.97 1588.92,-369.15 1609.79,-374.16"/>
<polygon fill="midnightblue" stroke="midnightblue" points="1541.54,-354.19 1531,-355.27 1539.9,-361 1541.54,-354.19"/>
</g>
<!-- Node24 -->
<g id="node24" class="node">
<title>Node24</title>
<g id="a_node24"><a xlink:href="classJoyControlStickButton.html" target="_top" xlink:title=" ">
<polygon fill="white" stroke="black" points="2013,-375.18 2013,-394.18 2128,-394.18 2128,-375.18 2013,-375.18"/>
<text text-anchor="middle" x="2070.5" y="-382.18" font-family="Helvetica,sans-Serif" font-size="10.00">JoyControlStickButton</text>
</a>
</g>
</g>
<!-- Node20&#45;&gt;Node24 -->
<g id="edge44" class="edge">
<title>Node20&#45;&gt;Node24</title>
<path fill="none" stroke="midnightblue" d="M1549.3,-346C1643.38,-347.09 1834.41,-351.69 1995,-370.68 2004.54,-371.8 2014.7,-373.43 2024.34,-375.17"/>
<polygon fill="midnightblue" stroke="midnightblue" points="1549.17,-342.5 1539.13,-345.89 1549.09,-349.49 1549.17,-342.5"/>
</g>
<!-- Node21&#45;&gt;Node4 -->
<g id="edge37" class="edge">
<title>Node21&#45;&gt;Node4</title>
<path fill="none" stroke="#9a32cd" stroke-dasharray="5,2" d="M1857.33,-458.5C1826.88,-499.04 1745.13,-594.68 1651.5,-594.68 1056,-594.68 1056,-594.68 1056,-594.68 721.51,-594.68 638,-577.17 305,-545.68 243.92,-539.9 223.86,-554.05 168,-528.68 151.86,-521.35 137.33,-506.47 128.83,-496.54"/>
<polygon fill="#9a32cd" stroke="#9a32cd" points="1860.25,-460.44 1863.34,-450.31 1854.6,-456.3 1860.25,-460.44"/>
<text text-anchor="middle" x="1057" y="-597.68" font-family="Helvetica,sans-Serif" font-size="10.00"> m_stick</text>
</g>
<!-- Node21&#45;&gt;Node23 -->
<g id="edge42" class="edge">
<title>Node21&#45;&gt;Node23</title>
<path fill="none" stroke="#9a32cd" stroke-dasharray="5,2" d="M1857.44,-422.92C1846.64,-409.3 1829.7,-391.54 1810,-383.68 1776.39,-370.26 1735.49,-370.63 1703.66,-374.16"/>
<polygon fill="#9a32cd" stroke="#9a32cd" points="1854.81,-425.24 1863.63,-431.12 1860.4,-421.03 1854.81,-425.24"/>
<text text-anchor="middle" x="1776.5" y="-386.68" font-family="Helvetica,sans-Serif" font-size="10.00"> stick</text>
</g>
<!-- Node21&#45;&gt;Node24 -->
<g id="edge45" class="edge">
<title>Node21&#45;&gt;Node24</title>
<path fill="none" stroke="#9a32cd" stroke-dasharray="5,2" d="M1924.08,-434.32C1946.25,-430.86 1972.19,-425.8 1995,-418.68 2015.22,-412.36 2037.14,-401.88 2051.93,-394.22"/>
<polygon fill="#9a32cd" stroke="#9a32cd" points="1923.56,-430.86 1914.19,-435.8 1924.59,-437.78 1923.56,-430.86"/>
<text text-anchor="middle" x="1963.5" y="-434.68" font-family="Helvetica,sans-Serif" font-size="10.00"> stick</text>
</g>
<!-- Node22 -->
<g id="node22" class="node">
<title>Node22</title>
<g id="a_node22"><a xlink:href="classJoyStickDirectionsType.html" target="_top" xlink:title=" ">
<polygon fill="white" stroke="black" points="1590.5,-623.18 1590.5,-642.18 1710.5,-642.18 1710.5,-623.18 1590.5,-623.18"/>
<text text-anchor="middle" x="1650.5" y="-630.18" font-family="Helvetica,sans-Serif" font-size="10.00">JoyStickDirectionsType</text>
</a>
</g>
</g>
<!-- Node22&#45;&gt;Node21 -->
<g id="edge39" class="edge">
<title>Node22&#45;&gt;Node21</title>
<path fill="none" stroke="midnightblue" d="M1720.66,-637.36C1751.07,-635.88 1785.39,-628.95 1810,-608.68 1860.44,-567.13 1868.49,-479.94 1869.77,-450.57"/>
<polygon fill="midnightblue" stroke="midnightblue" points="1720.4,-633.86 1710.51,-637.66 1720.61,-640.86 1720.4,-633.86"/>
</g>
<!-- Node23&#45;&gt;Node21 -->
<g id="edge40" class="edge">
<title>Node23&#45;&gt;Node21</title>
<path fill="none" stroke="#9a32cd" stroke-dasharray="5,2" d="M1723.09,-395.06C1750.57,-400.22 1782.03,-407.12 1810,-415.68 1823.6,-419.84 1838.34,-425.96 1849.82,-431.1"/>
<polygon fill="#9a32cd" stroke="#9a32cd" points="1723.63,-391.6 1713.16,-393.23 1722.37,-398.48 1723.63,-391.6"/>
<text text-anchor="middle" x="1776.5" y="-418.68" font-family="Helvetica,sans-Serif" font-size="10.00"> modifierButton</text>
</g>
<!-- Node24&#45;&gt;Node21 -->
<g id="edge43" class="edge">
<title>Node24&#45;&gt;Node21</title>
<path fill="none" stroke="#9a32cd" stroke-dasharray="5,2" d="M2002.82,-375.59C1979.7,-374.91 1954.06,-377 1932,-385.68 1908.59,-394.88 1888.73,-417.88 1878.8,-431.03"/>
<polygon fill="#9a32cd" stroke="#9a32cd" points="2002.74,-379.09 2012.89,-376.07 2003.07,-372.1 2002.74,-379.09"/>
<text text-anchor="middle" x="1963.5" y="-410.68" font-family="Helvetica,sans-Serif" font-size="10.00"> activeButton1</text>
<text text-anchor="middle" x="1963.5" y="-399.68" font-family="Helvetica,sans-Serif" font-size="10.00">activeButton2</text>
<text text-anchor="middle" x="1963.5" y="-388.68" font-family="Helvetica,sans-Serif" font-size="10.00">activeButton3</text>
</g>
</g>
</svg>
