<?xml version="1.0" encoding="UTF-8" standalone="no"?>
<!DOCTYPE svg PUBLIC "-//W3C//DTD SVG 1.1//EN"
 "http://www.w3.org/Graphics/SVG/1.1/DTD/svg11.dtd">
<!-- Generated by graphviz version 2.43.0 (0)
 -->
<!-- Title: JoyButton::waitForDeskEvent Pages: 1 -->
<svg width="1925pt" height="773pt"
 viewBox="0.00 0.00 1925.00 773.00" xmlns="http://www.w3.org/2000/svg" xmlns:xlink="http://www.w3.org/1999/xlink">
<g id="graph0" class="graph" transform="scale(1 1) rotate(0) translate(4 769)">
<title>JoyButton::waitForDeskEvent</title>
<polygon fill="white" stroke="transparent" points="-4,4 -4,-769 1921,-769 1921,4 -4,4"/>
<!-- Node1 -->
<g id="node1" class="node">
<title>Node1</title>
<g id="a_node1"><a xlink:title=" ">
<polygon fill="#bfbfbf" stroke="black" points="1771,-308 1771,-327 1917,-327 1917,-308 1771,-308"/>
<text text-anchor="middle" x="1844" y="-315" font-family="Helvetica,sans-Serif" font-size="10.00">JoyButton::waitForDeskEvent</text>
</a>
</g>
</g>
<!-- Node2 -->
<g id="node2" class="node">
<title>Node2</title>
<g id="a_node2"><a xlink:href="classJoyButton.html#aca54bc4605f7db801e8fc41a90d7f223" target="_top" xlink:title=" ">
<polygon fill="white" stroke="black" points="1604,-346 1604,-365 1715,-365 1715,-346 1604,-346"/>
<text text-anchor="middle" x="1659.5" y="-353" font-family="Helvetica,sans-Serif" font-size="10.00">JoyButton::JoyButton</text>
</a>
</g>
</g>
<!-- Node1&#45;&gt;Node2 -->
<g id="edge1" class="edge">
<title>Node1&#45;&gt;Node2</title>
<path fill="none" stroke="midnightblue" d="M1786.9,-329.18C1761.02,-334.57 1730.69,-340.89 1706.22,-345.98"/>
<polygon fill="midnightblue" stroke="midnightblue" points="1787.87,-332.55 1796.95,-327.09 1786.44,-325.7 1787.87,-332.55"/>
</g>
<!-- Node3 -->
<g id="node3" class="node">
<title>Node3</title>
<g id="a_node3"><a xlink:href="classJoyButton.html#abb09326682e89c3c32975519ee73dfb0" target="_top" xlink:title=" ">
<polygon fill="white" stroke="black" points="1444,-286 1444,-305 1548,-305 1548,-286 1444,-286"/>
<text text-anchor="middle" x="1496" y="-293" font-family="Helvetica,sans-Serif" font-size="10.00">JoyButton::joyEvent</text>
</a>
</g>
</g>
<!-- Node1&#45;&gt;Node3 -->
<g id="edge2" class="edge">
<title>Node1&#45;&gt;Node3</title>
<path fill="none" stroke="midnightblue" d="M1760.52,-312.26C1694.57,-308.06 1604.19,-302.32 1548.25,-298.76"/>
<polygon fill="midnightblue" stroke="midnightblue" points="1760.69,-315.77 1770.89,-312.91 1761.13,-308.79 1760.69,-315.77"/>
</g>
<!-- Node125 -->
<g id="node50" class="node">
<title>Node125</title>
<g id="a_node50"><a xlink:href="classJoyButton.html#ab0ca3b9966d8da06279d2f347e42e78b" target="_top" xlink:title=" ">
<polygon fill="white" stroke="black" points="1584,-258.5 1584,-288.5 1735,-288.5 1735,-258.5 1584,-258.5"/>
<text text-anchor="start" x="1592" y="-276.5" font-family="Helvetica,sans-Serif" font-size="10.00">JoyButton::updateParamsAfter</text>
<text text-anchor="middle" x="1659.5" y="-265.5" font-family="Helvetica,sans-Serif" font-size="10.00">DistEvent</text>
</a>
</g>
</g>
<!-- Node1&#45;&gt;Node125 -->
<g id="edge64" class="edge">
<title>Node1&#45;&gt;Node125</title>
<path fill="none" stroke="midnightblue" d="M1793.41,-305.54C1771.7,-300.31 1745.99,-294.11 1722.99,-288.57"/>
<polygon fill="midnightblue" stroke="midnightblue" points="1792.86,-309.01 1803.4,-307.95 1794.5,-302.21 1792.86,-309.01"/>
</g>
<!-- Node4 -->
<g id="node4" class="node">
<title>Node4</title>
<g id="a_node4"><a xlink:href="classJoyButton.html#a4acc0f1d2e12a34874522f558e1e9d3f" target="_top" xlink:title=" ">
<polygon fill="white" stroke="black" points="1264,-567.5 1264,-597.5 1399,-597.5 1399,-567.5 1264,-567.5"/>
<text text-anchor="start" x="1272" y="-585.5" font-family="Helvetica,sans-Serif" font-size="10.00">JoyButton::activatePending</text>
<text text-anchor="middle" x="1331.5" y="-574.5" font-family="Helvetica,sans-Serif" font-size="10.00">Event</text>
</a>
</g>
</g>
<!-- Node3&#45;&gt;Node4 -->
<g id="edge3" class="edge">
<title>Node3&#45;&gt;Node4</title>
<path fill="none" stroke="midnightblue" d="M1487.13,-315.02C1473.05,-349.15 1441.87,-421.46 1408,-478.5 1388.29,-511.69 1360.74,-547.52 1344.95,-567.26"/>
<polygon fill="midnightblue" stroke="midnightblue" points="1490.53,-315.93 1491.08,-305.35 1484.05,-313.28 1490.53,-315.93"/>
</g>
<!-- Node72 -->
<g id="node10" class="node">
<title>Node72</title>
<g id="a_node10"><a xlink:href="classJoyDPad.html#a1f5c5db45f36b205d1c4a43f1616950a" target="_top" xlink:title=" ">
<polygon fill="white" stroke="black" points="1262.5,-450 1262.5,-469 1400.5,-469 1400.5,-450 1262.5,-450"/>
<text text-anchor="middle" x="1331.5" y="-457" font-family="Helvetica,sans-Serif" font-size="10.00">JoyDPad::createDeskEvent</text>
</a>
</g>
</g>
<!-- Node3&#45;&gt;Node72 -->
<g id="edge9" class="edge">
<title>Node3&#45;&gt;Node72</title>
<path fill="none" stroke="midnightblue" d="M1487.3,-314.32C1474.72,-342.93 1447.17,-397.4 1408,-429.5 1396.87,-438.62 1382.63,-445.23 1369.51,-449.89"/>
<polygon fill="midnightblue" stroke="midnightblue" points="1490.55,-315.62 1491.25,-305.04 1484.11,-312.87 1490.55,-315.62"/>
</g>
<!-- Node83 -->
<g id="node16" class="node">
<title>Node83</title>
<g id="a_node16"><a xlink:href="classSetJoystick.html#aa93108aaa5ccbf15f1b56b22ec73798b" target="_top" xlink:title="Perform a release of all elements of a set. Stick and vdpad releases will be handled by the associate...">
<polygon fill="white" stroke="black" points="407,-408 407,-427 511,-427 511,-408 407,-408"/>
<text text-anchor="middle" x="459" y="-415" font-family="Helvetica,sans-Serif" font-size="10.00">SetJoystick::release</text>
</a>
</g>
</g>
<!-- Node3&#45;&gt;Node83 -->
<g id="edge44" class="edge">
<title>Node3&#45;&gt;Node83</title>
<path fill="none" stroke="midnightblue" d="M1479.37,-312.49C1463.17,-328.99 1436.28,-353.42 1408,-366.5 1298.69,-417.05 1261.93,-415.5 1141.5,-415.5 1141.5,-415.5 1141.5,-415.5 760.5,-415.5 672.85,-415.5 570.83,-416.36 511.04,-416.95"/>
<polygon fill="midnightblue" stroke="midnightblue" points="1482.05,-314.76 1486.43,-305.11 1476.99,-309.92 1482.05,-314.76"/>
</g>
<!-- Node93 -->
<g id="node26" class="node">
<title>Node93</title>
<g id="a_node26"><a xlink:href="classJoyAxis.html#a0e85739f3da15defbb1ad9ffb7def2d9" target="_top" xlink:title=" ">
<polygon fill="white" stroke="black" points="695,-368 695,-387 828,-387 828,-368 695,-368"/>
<text text-anchor="middle" x="761.5" y="-375" font-family="Helvetica,sans-Serif" font-size="10.00">JoyAxis::createDeskEvent</text>
</a>
</g>
</g>
<!-- Node3&#45;&gt;Node93 -->
<g id="edge29" class="edge">
<title>Node3&#45;&gt;Node93</title>
<path fill="none" stroke="midnightblue" d="M1471,-310.23C1454.05,-319.83 1430.45,-331.63 1408,-337.5 1201.88,-391.41 946.68,-387.38 828.4,-381.68"/>
<polygon fill="midnightblue" stroke="midnightblue" points="1472.8,-313.23 1479.68,-305.18 1469.28,-307.19 1472.8,-313.23"/>
</g>
<!-- Node97 -->
<g id="node29" class="node">
<title>Node97</title>
<g id="a_node29"><a xlink:href="classJoyControlStick.html#a18e586ffa9f2fc09004dd1ebc895b3a8" target="_top" xlink:title="Find the position of the two stick axes, deactivate no longer used stick direction button and then ac...">
<polygon fill="white" stroke="black" points="1069.5,-280.5 1069.5,-310.5 1211.5,-310.5 1211.5,-280.5 1069.5,-280.5"/>
<text text-anchor="start" x="1077.5" y="-298.5" font-family="Helvetica,sans-Serif" font-size="10.00">JoyControlStick::createDesk</text>
<text text-anchor="middle" x="1140.5" y="-287.5" font-family="Helvetica,sans-Serif" font-size="10.00">Event</text>
</a>
</g>
</g>
<!-- Node3&#45;&gt;Node97 -->
<g id="edge33" class="edge">
<title>Node3&#45;&gt;Node97</title>
<path fill="none" stroke="midnightblue" d="M1457.97,-308.08C1442.69,-312.65 1424.69,-317.24 1408,-319.5 1340.61,-328.62 1322.63,-326.57 1255,-319.5 1237.37,-317.66 1218.45,-314.24 1201.21,-310.56"/>
<polygon fill="midnightblue" stroke="midnightblue" points="1459.06,-311.41 1467.58,-305.11 1456.99,-304.72 1459.06,-311.41"/>
</g>
<!-- Node105 -->
<g id="node35" class="node">
<title>Node105</title>
<g id="a_node35"><a xlink:href="classJoyControlStick.html#a0bd5c24e572f9485780820d54f755b88" target="_top" xlink:title="Activate a stick direction button.">
<polygon fill="white" stroke="black" points="1269,-280.5 1269,-310.5 1394,-310.5 1394,-280.5 1269,-280.5"/>
<text text-anchor="start" x="1277" y="-298.5" font-family="Helvetica,sans-Serif" font-size="10.00">JoyControlStick::perform</text>
<text text-anchor="middle" x="1331.5" y="-287.5" font-family="Helvetica,sans-Serif" font-size="10.00">ButtonPress</text>
</a>
</g>
</g>
<!-- Node3&#45;&gt;Node105 -->
<g id="edge40" class="edge">
<title>Node3&#45;&gt;Node105</title>
<path fill="none" stroke="midnightblue" d="M1433.44,-295.5C1420.56,-295.5 1406.98,-295.5 1394.11,-295.5"/>
<polygon fill="midnightblue" stroke="midnightblue" points="1433.58,-299 1443.58,-295.5 1433.58,-292 1433.58,-299"/>
</g>
<!-- Node106 -->
<g id="node36" class="node">
<title>Node106</title>
<g id="a_node36"><a xlink:href="classJoyControlStick.html#a32b6c7a796ec7b24e9c0124a6bcffd2e" target="_top" xlink:title="Stick direction button to release.">
<polygon fill="white" stroke="black" points="1269,-231.5 1269,-261.5 1394,-261.5 1394,-231.5 1269,-231.5"/>
<text text-anchor="start" x="1277" y="-249.5" font-family="Helvetica,sans-Serif" font-size="10.00">JoyControlStick::perform</text>
<text text-anchor="middle" x="1331.5" y="-238.5" font-family="Helvetica,sans-Serif" font-size="10.00">ButtonRelease</text>
</a>
</g>
</g>
<!-- Node3&#45;&gt;Node106 -->
<g id="edge42" class="edge">
<title>Node3&#45;&gt;Node106</title>
<path fill="none" stroke="midnightblue" d="M1453.7,-283.05C1431.99,-276.5 1405.22,-268.43 1382.37,-261.54"/>
<polygon fill="midnightblue" stroke="midnightblue" points="1452.7,-286.4 1463.28,-285.94 1454.72,-279.7 1452.7,-286.4"/>
</g>
<!-- Node107 -->
<g id="node37" class="node">
<title>Node107</title>
<g id="a_node37"><a xlink:href="classJoyControlStick.html#a295a9b9b1a5c4d3a49c9d9697a9527e0" target="_top" xlink:title=" ">
<polygon fill="white" stroke="black" points="1270,-105.5 1270,-135.5 1393,-135.5 1393,-105.5 1270,-105.5"/>
<text text-anchor="start" x="1278" y="-123.5" font-family="Helvetica,sans-Serif" font-size="10.00">JoyControlStick::release</text>
<text text-anchor="middle" x="1331.5" y="-112.5" font-family="Helvetica,sans-Serif" font-size="10.00">ButtonEvents</text>
</a>
</g>
</g>
<!-- Node3&#45;&gt;Node107 -->
<g id="edge45" class="edge">
<title>Node3&#45;&gt;Node107</title>
<path fill="none" stroke="midnightblue" d="M1488.22,-276.42C1476.44,-245.84 1449.43,-185.7 1408,-150.5 1400.91,-144.47 1392.45,-139.56 1383.81,-135.59"/>
<polygon fill="midnightblue" stroke="midnightblue" points="1484.98,-277.77 1491.75,-285.92 1491.55,-275.33 1484.98,-277.77"/>
</g>
<!-- Node120 -->
<g id="node46" class="node">
<title>Node120</title>
<g id="a_node46"><a xlink:href="classJoyDPad.html#aa20b65bef79d9e80894a9be835b441c1" target="_top" xlink:title=" ">
<polygon fill="white" stroke="black" points="1255,-37 1255,-56 1408,-56 1408,-37 1255,-37"/>
<text text-anchor="middle" x="1331.5" y="-44" font-family="Helvetica,sans-Serif" font-size="10.00">JoyDPad::releaseButtonEvents</text>
</a>
</g>
</g>
<!-- Node3&#45;&gt;Node120 -->
<g id="edge58" class="edge">
<title>Node3&#45;&gt;Node120</title>
<path fill="none" stroke="midnightblue" d="M1490.5,-275.77C1480.92,-237.39 1455.44,-151.52 1408,-95.5 1393.15,-77.97 1370.46,-64.42 1353.83,-56.05"/>
<polygon fill="midnightblue" stroke="midnightblue" points="1487.14,-276.77 1492.87,-285.68 1493.94,-275.14 1487.14,-276.77"/>
</g>
<!-- Node123 -->
<g id="node48" class="node">
<title>Node123</title>
<g id="a_node48"><a xlink:href="classJoyAxis.html#a8df3e761cbf9876ab5a3db30c1a02fc3" target="_top" xlink:title=" ">
<polygon fill="white" stroke="black" points="1268.5,-193 1268.5,-212 1394.5,-212 1394.5,-193 1268.5,-193"/>
<text text-anchor="middle" x="1331.5" y="-200" font-family="Helvetica,sans-Serif" font-size="10.00">JoyAxis::removeVDPads</text>
</a>
</g>
</g>
<!-- Node3&#45;&gt;Node123 -->
<g id="edge60" class="edge">
<title>Node3&#45;&gt;Node123</title>
<path fill="none" stroke="midnightblue" d="M1479.58,-278.44C1463.37,-261.53 1436.33,-236.09 1408,-221.5 1400.55,-217.66 1392.28,-214.57 1384.02,-212.08"/>
<polygon fill="midnightblue" stroke="midnightblue" points="1477.24,-281.06 1486.63,-285.97 1482.36,-276.28 1477.24,-281.06"/>
</g>
<!-- Node124 -->
<g id="node49" class="node">
<title>Node124</title>
<g id="a_node49"><a xlink:href="classJoyButton.html#ad152d22f7f7d8ea561f363d43903e059" target="_top" xlink:title=" ">
<polygon fill="white" stroke="black" points="1084.5,-99 1084.5,-118 1196.5,-118 1196.5,-99 1084.5,-99"/>
<text text-anchor="middle" x="1140.5" y="-106" font-family="Helvetica,sans-Serif" font-size="10.00">JoyButton::setVDPad</text>
</a>
</g>
</g>
<!-- Node3&#45;&gt;Node124 -->
<g id="edge62" class="edge">
<title>Node3&#45;&gt;Node124</title>
<path fill="none" stroke="midnightblue" d="M1485.78,-277.1C1472.23,-252 1444.55,-207.44 1408,-183.5 1349.3,-145.04 1321.03,-168.26 1255,-144.5 1238.35,-138.51 1235.68,-133.41 1219,-127.5 1208.82,-123.89 1197.64,-120.71 1187.03,-118.05"/>
<polygon fill="midnightblue" stroke="midnightblue" points="1482.68,-278.73 1490.41,-285.97 1488.88,-275.48 1482.68,-278.73"/>
</g>
<!-- Node5 -->
<g id="node5" class="node">
<title>Node5</title>
<g id="a_node5"><a xlink:href="classInputDevice.html#af5f9f9065334b90aa45d4c86a63337f1" target="_top" xlink:title=" ">
<polygon fill="white" stroke="black" points="1067.5,-646.5 1067.5,-676.5 1213.5,-676.5 1213.5,-646.5 1067.5,-646.5"/>
<text text-anchor="start" x="1075.5" y="-664.5" font-family="Helvetica,sans-Serif" font-size="10.00">InputDevice::activatePossible</text>
<text text-anchor="middle" x="1140.5" y="-653.5" font-family="Helvetica,sans-Serif" font-size="10.00">ButtonEvents</text>
</a>
</g>
</g>
<!-- Node4&#45;&gt;Node5 -->
<g id="edge4" class="edge">
<title>Node4&#45;&gt;Node5</title>
<path fill="none" stroke="midnightblue" d="M1285.1,-601.48C1252.18,-615.24 1208.25,-633.6 1177.68,-646.38"/>
<polygon fill="midnightblue" stroke="midnightblue" points="1286.63,-604.63 1294.51,-597.55 1283.93,-598.17 1286.63,-604.63"/>
</g>
<!-- Node6 -->
<g id="node6" class="node">
<title>Node6</title>
<g id="a_node6"><a xlink:href="classInputDevice.html#a65bcbfa6997970fff86e72e3a13167e0" target="_top" xlink:title=" ">
<polygon fill="white" stroke="black" points="875,-734.5 875,-764.5 1021,-764.5 1021,-734.5 875,-734.5"/>
<text text-anchor="start" x="883" y="-752.5" font-family="Helvetica,sans-Serif" font-size="10.00">InputDevice::activatePossible</text>
<text text-anchor="middle" x="948" y="-741.5" font-family="Helvetica,sans-Serif" font-size="10.00">PendingEvents</text>
</a>
</g>
</g>
<!-- Node5&#45;&gt;Node6 -->
<g id="edge5" class="edge">
<title>Node5&#45;&gt;Node6</title>
<path fill="none" stroke="midnightblue" d="M1106.7,-681.92C1084.48,-695.2 1054.15,-712.25 1026,-724.5 1017.75,-728.09 1008.81,-731.44 1000.05,-734.46"/>
<polygon fill="midnightblue" stroke="midnightblue" points="1108.65,-684.84 1115.4,-676.67 1105.03,-678.85 1108.65,-684.84"/>
</g>
<!-- Node7 -->
<g id="node7" class="node">
<title>Node7</title>
<g id="a_node7"><a xlink:href="classInputDevice.html#ac34e93b3e44b08cffb86551e15bedfb4" target="_top" xlink:title=" ">
<polygon fill="white" stroke="red" points="882.5,-696 882.5,-715 1013.5,-715 1013.5,-696 882.5,-696"/>
<text text-anchor="middle" x="948" y="-703" font-family="Helvetica,sans-Serif" font-size="10.00">InputDevice::reInitButtons</text>
</a>
</g>
</g>
<!-- Node5&#45;&gt;Node7 -->
<g id="edge6" class="edge">
<title>Node5&#45;&gt;Node7</title>
<path fill="none" stroke="midnightblue" d="M1064.52,-678.82C1039.21,-684.66 1011.89,-690.97 990.18,-695.99"/>
<polygon fill="midnightblue" stroke="midnightblue" points="1065.52,-682.18 1074.47,-676.52 1063.94,-675.36 1065.52,-682.18"/>
</g>
<!-- Node13 -->
<g id="node8" class="node">
<title>Node13</title>
<g id="a_node8"><a xlink:href="classInputDaemon.html#a0cf6bcd3287d97d75c32a3921c633a7a" target="_top" xlink:title=" ">
<polygon fill="white" stroke="red" points="870,-608 870,-627 1026,-627 1026,-608 870,-608"/>
<text text-anchor="middle" x="948" y="-615" font-family="Helvetica,sans-Serif" font-size="10.00">InputDaemon::secondInputPass</text>
</a>
</g>
</g>
<!-- Node5&#45;&gt;Node13 -->
<g id="edge7" class="edge">
<title>Node5&#45;&gt;Node13</title>
<path fill="none" stroke="midnightblue" d="M1064.52,-644.18C1039.21,-638.34 1011.89,-632.03 990.18,-627.01"/>
<polygon fill="midnightblue" stroke="midnightblue" points="1063.94,-647.64 1074.47,-646.48 1065.52,-640.82 1063.94,-647.64"/>
</g>
<!-- Node16 -->
<g id="node9" class="node">
<title>Node16</title>
<g id="a_node9"><a xlink:href="classInputDevice.html#aebcc4b8149c2bab8a0652323206d32bb" target="_top" xlink:title=" ">
<polygon fill="white" stroke="red" points="882.5,-646.5 882.5,-676.5 1013.5,-676.5 1013.5,-646.5 882.5,-646.5"/>
<text text-anchor="start" x="890.5" y="-664.5" font-family="Helvetica,sans-Serif" font-size="10.00">InputDevice::setActiveSet</text>
<text text-anchor="middle" x="948" y="-653.5" font-family="Helvetica,sans-Serif" font-size="10.00">Number</text>
</a>
</g>
</g>
<!-- Node5&#45;&gt;Node16 -->
<g id="edge8" class="edge">
<title>Node5&#45;&gt;Node16</title>
<path fill="none" stroke="midnightblue" d="M1057.42,-661.5C1042.77,-661.5 1027.69,-661.5 1013.61,-661.5"/>
<polygon fill="midnightblue" stroke="midnightblue" points="1057.48,-665 1067.48,-661.5 1057.48,-658 1057.48,-665"/>
</g>
<!-- Node73 -->
<g id="node11" class="node">
<title>Node73</title>
<g id="a_node11"><a xlink:href="classJoyDPad.html#adfcee6e2b57a7e643c74c26159a32997" target="_top" xlink:title=" ">
<polygon fill="white" stroke="black" points="1062,-444.5 1062,-474.5 1219,-474.5 1219,-444.5 1062,-444.5"/>
<text text-anchor="start" x="1070" y="-462.5" font-family="Helvetica,sans-Serif" font-size="10.00">JoyDPad::dpadDirectionChange</text>
<text text-anchor="middle" x="1140.5" y="-451.5" font-family="Helvetica,sans-Serif" font-size="10.00">Event</text>
</a>
</g>
</g>
<!-- Node72&#45;&gt;Node73 -->
<g id="edge10" class="edge">
<title>Node72&#45;&gt;Node73</title>
<path fill="none" stroke="midnightblue" d="M1252,-459.5C1241.18,-459.5 1230.07,-459.5 1219.26,-459.5"/>
<polygon fill="midnightblue" stroke="midnightblue" points="1252.27,-463 1262.27,-459.5 1252.27,-456 1252.27,-463"/>
</g>
<!-- Node75 -->
<g id="node13" class="node">
<title>Node75</title>
<g id="a_node13"><a xlink:href="classJoyDPad.html#ac660764f3e958b5c1cf9da1a5d2f2398" target="_top" xlink:title=" ">
<polygon fill="white" stroke="black" points="1090,-526 1090,-545 1191,-545 1191,-526 1090,-526"/>
<text text-anchor="middle" x="1140.5" y="-533" font-family="Helvetica,sans-Serif" font-size="10.00">JoyDPad::joyEvent</text>
</a>
</g>
</g>
<!-- Node72&#45;&gt;Node75 -->
<g id="edge12" class="edge">
<title>Node72&#45;&gt;Node75</title>
<path fill="none" stroke="midnightblue" d="M1297,-472.97C1259.15,-488.19 1198.51,-512.58 1165.24,-525.95"/>
<polygon fill="midnightblue" stroke="midnightblue" points="1298.59,-476.1 1306.56,-469.13 1295.98,-469.61 1298.59,-476.1"/>
</g>
<!-- Node74 -->
<g id="node12" class="node">
<title>Node74</title>
<g id="a_node12"><a xlink:href="classJoyDPad.html#a10f75107588bfe924d270b5151c374e8" target="_top" xlink:title=" ">
<polygon fill="white" stroke="black" points="896,-444 896,-463 1000,-463 1000,-444 896,-444"/>
<text text-anchor="middle" x="948" y="-451" font-family="Helvetica,sans-Serif" font-size="10.00">JoyDPad::JoyDPad</text>
</a>
</g>
</g>
<!-- Node73&#45;&gt;Node74 -->
<g id="edge11" class="edge">
<title>Node73&#45;&gt;Node74</title>
<path fill="none" stroke="midnightblue" d="M1051.44,-456.73C1033.84,-456.17 1015.92,-455.61 1000.09,-455.11"/>
<polygon fill="midnightblue" stroke="midnightblue" points="1051.64,-460.23 1061.74,-457.05 1051.86,-453.24 1051.64,-460.23"/>
</g>
<!-- Node75&#45;&gt;Node13 -->
<g id="edge28" class="edge">
<title>Node75&#45;&gt;Node13</title>
<path fill="none" stroke="midnightblue" d="M1114.06,-550.09C1091.43,-562.67 1057.2,-580.78 1026,-593.5 1012.52,-599 997.28,-603.99 983.94,-607.98"/>
<polygon fill="midnightblue" stroke="midnightblue" points="1115.99,-553.01 1123,-545.06 1112.57,-546.91 1115.99,-553.01"/>
</g>
<!-- Node76 -->
<g id="node14" class="node">
<title>Node76</title>
<g id="a_node14"><a xlink:href="classJoyDPad.html#a640159e6d6d1cc955e74b95b3f45834c" target="_top" xlink:title=" ">
<polygon fill="white" stroke="red" points="882.5,-520.5 882.5,-550.5 1013.5,-550.5 1013.5,-520.5 882.5,-520.5"/>
<text text-anchor="start" x="890.5" y="-538.5" font-family="Helvetica,sans-Serif" font-size="10.00">JoyDPad::activatePending</text>
<text text-anchor="middle" x="948" y="-527.5" font-family="Helvetica,sans-Serif" font-size="10.00">Event</text>
</a>
</g>
</g>
<!-- Node75&#45;&gt;Node76 -->
<g id="edge13" class="edge">
<title>Node75&#45;&gt;Node76</title>
<path fill="none" stroke="midnightblue" d="M1079.87,-535.5C1058.86,-535.5 1035.15,-535.5 1013.74,-535.5"/>
<polygon fill="midnightblue" stroke="midnightblue" points="1079.95,-539 1089.95,-535.5 1079.95,-532 1079.95,-539"/>
</g>
<!-- Node78 -->
<g id="node15" class="node">
<title>Node78</title>
<g id="a_node15"><a xlink:href="classVDPad.html#a48d8aa1c0a915b9ae46b519e76e4be6e" target="_top" xlink:title=" ">
<polygon fill="white" stroke="red" points="902,-482 902,-501 994,-501 994,-482 902,-482"/>
<text text-anchor="middle" x="948" y="-489" font-family="Helvetica,sans-Serif" font-size="10.00">VDPad::joyEvent</text>
</a>
</g>
</g>
<!-- Node75&#45;&gt;Node78 -->
<g id="edge14" class="edge">
<title>Node75&#45;&gt;Node78</title>
<path fill="none" stroke="midnightblue" d="M1088.08,-523.62C1057.39,-516.54 1018.94,-507.66 990.25,-501.03"/>
<polygon fill="midnightblue" stroke="midnightblue" points="1087.63,-527.11 1098.16,-525.95 1089.21,-520.29 1087.63,-527.11"/>
</g>
<!-- Node75&#45;&gt;Node83 -->
<g id="edge15" class="edge">
<title>Node75&#45;&gt;Node83</title>
<path fill="none" stroke="midnightblue" d="M1094.01,-547.38C1073.41,-552.18 1048.64,-557.13 1026,-559.5 957.04,-566.71 938.37,-571 870,-559.5 714,-533.25 538.04,-454.51 479.85,-427.06"/>
<polygon fill="midnightblue" stroke="midnightblue" points="1094.85,-550.78 1103.77,-545.05 1093.23,-543.97 1094.85,-550.78"/>
</g>
<!-- Node84 -->
<g id="node17" class="node">
<title>Node84</title>
<g id="a_node17"><a xlink:href="classAdvanceStickAssignmentDialog.html#a86cf0001cd774ce5ccec8543b7a9a50b" target="_top" xlink:title=" ">
<polygon fill="white" stroke="black" points="0,-561.5 0,-591.5 162,-591.5 162,-561.5 0,-561.5"/>
<text text-anchor="start" x="8" y="-579.5" font-family="Helvetica,sans-Serif" font-size="10.00">AdvanceStickAssignmentDialog</text>
<text text-anchor="middle" x="81" y="-568.5" font-family="Helvetica,sans-Serif" font-size="10.00">::AdvanceStickAssignmentDialog</text>
</a>
</g>
</g>
<!-- Node83&#45;&gt;Node84 -->
<g id="edge16" class="edge">
<title>Node83&#45;&gt;Node84</title>
<path fill="none" stroke="midnightblue" d="M452.98,-436.82C442.55,-472.45 414.81,-547.7 360,-578.5 290.05,-617.81 193.71,-605.22 134.76,-591.56"/>
<polygon fill="midnightblue" stroke="midnightblue" points="456.37,-437.69 455.67,-427.12 449.62,-435.82 456.37,-437.69"/>
</g>
<!-- Node85 -->
<g id="node18" class="node">
<title>Node85</title>
<g id="a_node18"><a xlink:href="classButtonEditDialog.html#a3e9feede100cbb6a11c9d87659c196ea" target="_top" xlink:title=" ">
<polygon fill="white" stroke="black" points="216.5,-490.5 216.5,-520.5 341.5,-520.5 341.5,-490.5 216.5,-490.5"/>
<text text-anchor="start" x="224.5" y="-508.5" font-family="Helvetica,sans-Serif" font-size="10.00">ButtonEditDialog::Button</text>
<text text-anchor="middle" x="279" y="-497.5" font-family="Helvetica,sans-Serif" font-size="10.00">EditDialog</text>
</a>
</g>
</g>
<!-- Node83&#45;&gt;Node85 -->
<g id="edge17" class="edge">
<title>Node83&#45;&gt;Node85</title>
<path fill="none" stroke="midnightblue" d="M435.01,-432.67C415.54,-445.13 386.63,-462.75 360,-475.5 348.76,-480.88 336.29,-485.96 324.59,-490.36"/>
<polygon fill="midnightblue" stroke="midnightblue" points="437.01,-435.55 443.5,-427.18 433.21,-429.67 437.01,-435.55"/>
</g>
<!-- Node86 -->
<g id="node19" class="node">
<title>Node86</title>
<g id="a_node19"><a xlink:href="classJoystickStatusWindow.html#a96d9e83b764e14faed4c4dc275d23c45" target="_top" xlink:title=" ">
<polygon fill="white" stroke="black" points="20,-414.5 20,-444.5 142,-444.5 142,-414.5 20,-414.5"/>
<text text-anchor="start" x="28" y="-432.5" font-family="Helvetica,sans-Serif" font-size="10.00">JoystickStatusWindow</text>
<text text-anchor="middle" x="81" y="-421.5" font-family="Helvetica,sans-Serif" font-size="10.00">::JoystickStatusWindow</text>
</a>
</g>
</g>
<!-- Node83&#45;&gt;Node86 -->
<g id="edge18" class="edge">
<title>Node83&#45;&gt;Node86</title>
<path fill="none" stroke="midnightblue" d="M417.16,-429.82C399.73,-434.48 379.04,-439.2 360,-441.5 285.3,-450.51 198.59,-444.12 142.14,-437.73"/>
<polygon fill="midnightblue" stroke="midnightblue" points="418.3,-433.14 427.02,-427.11 416.45,-426.39 418.3,-433.14"/>
</g>
<!-- Node87 -->
<g id="node20" class="node">
<title>Node87</title>
<g id="a_node20"><a xlink:href="classQuickSetDialog.html#a57726006cbe2d8534f4be91a05646dd2" target="_top" xlink:title=" ">
<polygon fill="white" stroke="black" points="15.5,-346.5 15.5,-376.5 146.5,-376.5 146.5,-346.5 15.5,-346.5"/>
<text text-anchor="start" x="23.5" y="-364.5" font-family="Helvetica,sans-Serif" font-size="10.00">QuickSetDialog::QuickSet</text>
<text text-anchor="middle" x="81" y="-353.5" font-family="Helvetica,sans-Serif" font-size="10.00">Dialog</text>
</a>
</g>
</g>
<!-- Node83&#45;&gt;Node87 -->
<g id="edge19" class="edge">
<title>Node83&#45;&gt;Node87</title>
<path fill="none" stroke="midnightblue" d="M415.43,-405.27C398.32,-400.71 378.34,-395.84 360,-392.5 287.5,-379.28 203.27,-370.84 146.69,-366.16"/>
<polygon fill="midnightblue" stroke="midnightblue" points="414.57,-408.66 425.14,-407.9 416.4,-401.91 414.57,-408.66"/>
</g>
<!-- Node88 -->
<g id="node21" class="node">
<title>Node88</title>
<g id="a_node21"><a xlink:href="classAdvanceStickAssignmentDialog.html#a48ade79f1dfeb93ff668ac18d0e1243f" target="_top" xlink:title=" ">
<polygon fill="white" stroke="black" points="201,-539.5 201,-569.5 357,-569.5 357,-539.5 201,-539.5"/>
<text text-anchor="start" x="209" y="-557.5" font-family="Helvetica,sans-Serif" font-size="10.00">AdvanceStickAssignmentDialog</text>
<text text-anchor="middle" x="279" y="-546.5" font-family="Helvetica,sans-Serif" font-size="10.00">::reenableButtonEvents</text>
</a>
</g>
</g>
<!-- Node83&#45;&gt;Node88 -->
<g id="edge20" class="edge">
<title>Node83&#45;&gt;Node88</title>
<path fill="none" stroke="midnightblue" d="M446.8,-435.64C430.62,-460.38 398.39,-504.49 360,-529.5 354.15,-533.31 347.68,-536.57 341.03,-539.36"/>
<polygon fill="midnightblue" stroke="midnightblue" points="449.77,-437.5 452.2,-427.18 443.87,-433.73 449.77,-437.5"/>
</g>
<!-- Node89 -->
<g id="node22" class="node">
<title>Node89</title>
<g id="a_node22"><a xlink:href="classJoystickStatusWindow.html#a1a1c28e1d6f480c7424ba81b30b8b4f5" target="_top" xlink:title=" ">
<polygon fill="white" stroke="black" points="221,-402.5 221,-432.5 337,-432.5 337,-402.5 221,-402.5"/>
<text text-anchor="start" x="229" y="-420.5" font-family="Helvetica,sans-Serif" font-size="10.00">JoystickStatusWindow</text>
<text text-anchor="middle" x="279" y="-409.5" font-family="Helvetica,sans-Serif" font-size="10.00">::restoreButtonStates</text>
</a>
</g>
</g>
<!-- Node83&#45;&gt;Node89 -->
<g id="edge22" class="edge">
<title>Node83&#45;&gt;Node89</title>
<path fill="none" stroke="midnightblue" d="M396.8,-417.5C377.51,-417.5 356.28,-417.5 337.27,-417.5"/>
<polygon fill="midnightblue" stroke="midnightblue" points="396.99,-421 406.99,-417.5 396.99,-414 396.99,-421"/>
</g>
<!-- Node90 -->
<g id="node23" class="node">
<title>Node90</title>
<g id="a_node23"><a xlink:href="classGameControllerMappingDialogHelper.html#a4040e6cf676fe8af751125e2928d8a35" target="_top" xlink:title=" ">
<polygon fill="white" stroke="black" points="198,-265.5 198,-295.5 360,-295.5 360,-265.5 198,-265.5"/>
<text text-anchor="start" x="206" y="-283.5" font-family="Helvetica,sans-Serif" font-size="10.00">GameControllerMappingDialog</text>
<text text-anchor="middle" x="279" y="-272.5" font-family="Helvetica,sans-Serif" font-size="10.00">Helper::restoreDeviceDeadZones</text>
</a>
</g>
</g>
<!-- Node83&#45;&gt;Node90 -->
<g id="edge24" class="edge">
<title>Node83&#45;&gt;Node90</title>
<path fill="none" stroke="midnightblue" d="M403.04,-403.01C400.53,-401.37 398.16,-399.54 396,-397.5 363.77,-367.07 392.54,-334.6 360,-304.5 356.27,-301.05 352.07,-298.1 347.59,-295.57"/>
<polygon fill="midnightblue" stroke="midnightblue" points="401.58,-406.2 412.03,-407.91 404.93,-400.06 401.58,-406.2"/>
</g>
<!-- Node91 -->
<g id="node24" class="node">
<title>Node91</title>
<g id="a_node24"><a xlink:href="classQuickSetDialog.html#afacbf395389ca073edf366a412c1626b" target="_top" xlink:title=" ">
<polygon fill="white" stroke="black" points="200.5,-314.5 200.5,-344.5 357.5,-344.5 357.5,-314.5 200.5,-314.5"/>
<text text-anchor="start" x="208.5" y="-332.5" font-family="Helvetica,sans-Serif" font-size="10.00">QuickSetDialog::restoreJoystick</text>
<text text-anchor="middle" x="279" y="-321.5" font-family="Helvetica,sans-Serif" font-size="10.00">State</text>
</a>
</g>
</g>
<!-- Node83&#45;&gt;Node91 -->
<g id="edge25" class="edge">
<title>Node83&#45;&gt;Node91</title>
<path fill="none" stroke="midnightblue" d="M408.93,-404.27C404.42,-402.29 400.03,-400.04 396,-397.5 376.32,-385.1 379.39,-372.36 360,-359.5 351.1,-353.6 340.88,-348.64 330.78,-344.57"/>
<polygon fill="midnightblue" stroke="midnightblue" points="407.72,-407.55 418.31,-407.97 410.29,-401.04 407.72,-407.55"/>
</g>
<!-- Node92 -->
<g id="node25" class="node">
<title>Node92</title>
<g id="a_node25"><a xlink:href="classGameControllerMappingDialogHelper.html#a7852aab5763281aa59c17f2f1da8dd31" target="_top" xlink:title=" ">
<polygon fill="white" stroke="black" points="204.5,-216.5 204.5,-246.5 353.5,-246.5 353.5,-216.5 204.5,-216.5"/>
<text text-anchor="start" x="212.5" y="-234.5" font-family="Helvetica,sans-Serif" font-size="10.00">GameControllerMappingDialog</text>
<text text-anchor="middle" x="279" y="-223.5" font-family="Helvetica,sans-Serif" font-size="10.00">Helper::setupDeadZones</text>
</a>
</g>
</g>
<!-- Node83&#45;&gt;Node92 -->
<g id="edge27" class="edge">
<title>Node83&#45;&gt;Node92</title>
<path fill="none" stroke="midnightblue" d="M401.89,-402.71C399.77,-401.14 397.79,-399.41 396,-397.5 351.45,-350.02 405.03,-302.52 360,-255.5 356.69,-252.04 352.9,-249.08 348.82,-246.54"/>
<polygon fill="midnightblue" stroke="midnightblue" points="400.24,-405.8 410.61,-407.96 403.85,-399.8 400.24,-405.8"/>
</g>
<!-- Node88&#45;&gt;Node84 -->
<g id="edge21" class="edge">
<title>Node88&#45;&gt;Node84</title>
<path fill="none" stroke="midnightblue" d="M190.87,-564.28C181.27,-565.36 171.52,-566.45 162.01,-567.52"/>
<polygon fill="midnightblue" stroke="midnightblue" points="191.27,-567.76 200.82,-563.16 190.49,-560.8 191.27,-567.76"/>
</g>
<!-- Node89&#45;&gt;Node86 -->
<g id="edge23" class="edge">
<title>Node89&#45;&gt;Node86</title>
<path fill="none" stroke="midnightblue" d="M210.72,-421.62C188.41,-422.99 163.74,-424.5 142.02,-425.83"/>
<polygon fill="midnightblue" stroke="midnightblue" points="211.01,-425.11 220.78,-421 210.59,-418.12 211.01,-425.11"/>
</g>
<!-- Node91&#45;&gt;Node87 -->
<g id="edge26" class="edge">
<title>Node91&#45;&gt;Node87</title>
<path fill="none" stroke="midnightblue" d="M190.19,-343.84C175.57,-346.22 160.63,-348.66 146.72,-350.93"/>
<polygon fill="midnightblue" stroke="midnightblue" points="190.95,-347.26 200.25,-342.19 189.82,-340.35 190.95,-347.26"/>
</g>
<!-- Node94 -->
<g id="node27" class="node">
<title>Node94</title>
<g id="a_node27"><a xlink:href="classJoyAxis.html#a9c5f69db8b88f31a1df043a00ab9d09a" target="_top" xlink:title=" ">
<polygon fill="white" stroke="black" points="558,-365 558,-384 653,-384 653,-365 558,-365"/>
<text text-anchor="middle" x="605.5" y="-372" font-family="Helvetica,sans-Serif" font-size="10.00">JoyAxis::joyEvent</text>
</a>
</g>
</g>
<!-- Node93&#45;&gt;Node94 -->
<g id="edge30" class="edge">
<title>Node93&#45;&gt;Node94</title>
<path fill="none" stroke="midnightblue" d="M684.58,-376.02C673.95,-375.81 663.29,-375.61 653.42,-375.41"/>
<polygon fill="midnightblue" stroke="midnightblue" points="684.68,-379.52 694.74,-376.22 684.81,-372.52 684.68,-379.52"/>
</g>
<!-- Node94&#45;&gt;Node83 -->
<g id="edge32" class="edge">
<title>Node94&#45;&gt;Node83</title>
<path fill="none" stroke="midnightblue" d="M562.78,-386.92C540.23,-393.63 512.82,-401.78 491.98,-407.98"/>
<polygon fill="midnightblue" stroke="midnightblue" points="563.84,-390.25 572.43,-384.04 561.85,-383.54 563.84,-390.25"/>
</g>
<!-- Node95 -->
<g id="node28" class="node">
<title>Node95</title>
<g id="a_node28"><a xlink:href="classJoyAxis.html#a6db16ad8451e2f2b09215385d5371151" target="_top" xlink:title=" ">
<polygon fill="white" stroke="red" points="396,-358.5 396,-388.5 522,-388.5 522,-358.5 396,-358.5"/>
<text text-anchor="start" x="404" y="-376.5" font-family="Helvetica,sans-Serif" font-size="10.00">JoyAxis::activatePending</text>
<text text-anchor="middle" x="459" y="-365.5" font-family="Helvetica,sans-Serif" font-size="10.00">Event</text>
</a>
</g>
</g>
<!-- Node94&#45;&gt;Node95 -->
<g id="edge31" class="edge">
<title>Node94&#45;&gt;Node95</title>
<path fill="none" stroke="midnightblue" d="M547.9,-374.11C539.48,-374.05 530.77,-373.99 522.24,-373.93"/>
<polygon fill="midnightblue" stroke="midnightblue" points="547.96,-377.61 557.98,-374.18 548.01,-370.61 547.96,-377.61"/>
</g>
<!-- Node98 -->
<g id="node30" class="node">
<title>Node98</title>
<g id="a_node30"><a xlink:href="classJoyControlStick.html#a376fa9faaaba5e00c4b1f9c8caa6236a" target="_top" xlink:title="Take the input value for the two axes that make up a stick and activate the proper event based on the...">
<polygon fill="white" stroke="black" points="883.5,-301 883.5,-320 1012.5,-320 1012.5,-301 883.5,-301"/>
<text text-anchor="middle" x="948" y="-308" font-family="Helvetica,sans-Serif" font-size="10.00">JoyControlStick::joyEvent</text>
</a>
</g>
</g>
<!-- Node97&#45;&gt;Node98 -->
<g id="edge34" class="edge">
<title>Node97&#45;&gt;Node98</title>
<path fill="none" stroke="midnightblue" d="M1059.25,-301.82C1043.7,-303.04 1027.6,-304.31 1012.67,-305.49"/>
<polygon fill="midnightblue" stroke="midnightblue" points="1059.68,-305.3 1069.38,-301.02 1059.13,-298.32 1059.68,-305.3"/>
</g>
<!-- Node103 -->
<g id="node33" class="node">
<title>Node103</title>
<g id="a_node33"><a xlink:href="classJoyControlStick.html#a1eada62b1da2f1a87dd698a19cc59ae4" target="_top" xlink:title="Slot called when directionDelayTimer has timed out. The method will call createDeskEvent.">
<polygon fill="white" stroke="black" points="872,-251.5 872,-281.5 1024,-281.5 1024,-251.5 872,-251.5"/>
<text text-anchor="start" x="880" y="-269.5" font-family="Helvetica,sans-Serif" font-size="10.00">JoyControlStick::stickDirection</text>
<text text-anchor="middle" x="948" y="-258.5" font-family="Helvetica,sans-Serif" font-size="10.00">ChangeEvent</text>
</a>
</g>
</g>
<!-- Node97&#45;&gt;Node103 -->
<g id="edge38" class="edge">
<title>Node97&#45;&gt;Node103</title>
<path fill="none" stroke="midnightblue" d="M1059.24,-283.28C1047.59,-281.51 1035.64,-279.69 1024.1,-277.93"/>
<polygon fill="midnightblue" stroke="midnightblue" points="1058.96,-286.78 1069.38,-284.83 1060.02,-279.86 1058.96,-286.78"/>
</g>
<!-- Node99 -->
<g id="node31" class="node">
<title>Node99</title>
<g id="a_node31"><a xlink:href="classJoyControlStick.html#ad7119f707adeb6546470809628d122be" target="_top" xlink:title=" ">
<polygon fill="white" stroke="red" points="699,-318.5 699,-348.5 824,-348.5 824,-318.5 699,-318.5"/>
<text text-anchor="start" x="707" y="-336.5" font-family="Helvetica,sans-Serif" font-size="10.00">JoyControlStick::activate</text>
<text text-anchor="middle" x="761.5" y="-325.5" font-family="Helvetica,sans-Serif" font-size="10.00">PendingEvent</text>
</a>
</g>
</g>
<!-- Node98&#45;&gt;Node99 -->
<g id="edge35" class="edge">
<title>Node98&#45;&gt;Node99</title>
<path fill="none" stroke="midnightblue" d="M873.22,-319.7C856.93,-321.73 839.83,-323.86 824.08,-325.82"/>
<polygon fill="midnightblue" stroke="midnightblue" points="873.76,-323.16 883.25,-318.45 872.89,-316.21 873.76,-323.16"/>
</g>
<!-- Node101 -->
<g id="node32" class="node">
<title>Node101</title>
<g id="a_node32"><a xlink:href="classJoyAxis.html#aeceeef14f2a92dad67aed5d07b2669d0" target="_top" xlink:title=" ">
<polygon fill="white" stroke="red" points="698.5,-280 698.5,-299 824.5,-299 824.5,-280 698.5,-280"/>
<text text-anchor="middle" x="761.5" y="-287" font-family="Helvetica,sans-Serif" font-size="10.00">JoyAxis::stickPassEvent</text>
</a>
</g>
</g>
<!-- Node98&#45;&gt;Node101 -->
<g id="edge36" class="edge">
<title>Node98&#45;&gt;Node101</title>
<path fill="none" stroke="midnightblue" d="M872.88,-302.06C856.9,-300.24 840.17,-298.34 824.7,-296.58"/>
<polygon fill="midnightblue" stroke="midnightblue" points="872.92,-305.59 883.25,-303.24 873.71,-298.64 872.92,-305.59"/>
</g>
<!-- Node101&#45;&gt;Node94 -->
<g id="edge37" class="edge">
<title>Node101&#45;&gt;Node94</title>
<path fill="none" stroke="midnightblue" d="M703.57,-302.28C698.54,-304.11 693.61,-306.17 689,-308.5 659.2,-323.54 630.07,-350.55 615.72,-364.91"/>
<polygon fill="midnightblue" stroke="midnightblue" points="704.92,-305.52 713.31,-299.05 702.72,-298.88 704.92,-305.52"/>
</g>
<!-- Node104 -->
<g id="node34" class="node">
<title>Node104</title>
<g id="a_node34"><a xlink:href="classJoyControlStick.html#add8f98ad0df0e0dfbd6380abc4422385" target="_top" xlink:title=" ">
<polygon fill="white" stroke="black" points="692,-230.5 692,-260.5 831,-260.5 831,-230.5 692,-230.5"/>
<text text-anchor="start" x="700" y="-248.5" font-family="Helvetica,sans-Serif" font-size="10.00">JoyControlStick::JoyControl</text>
<text text-anchor="middle" x="761.5" y="-237.5" font-family="Helvetica,sans-Serif" font-size="10.00">Stick</text>
</a>
</g>
</g>
<!-- Node103&#45;&gt;Node104 -->
<g id="edge39" class="edge">
<title>Node103&#45;&gt;Node104</title>
<path fill="none" stroke="midnightblue" d="M861.78,-256.8C851.54,-255.64 841.19,-254.46 831.23,-253.32"/>
<polygon fill="midnightblue" stroke="midnightblue" points="861.63,-260.31 871.96,-257.96 862.42,-253.35 861.63,-260.31"/>
</g>
<!-- Node105&#45;&gt;Node97 -->
<g id="edge41" class="edge">
<title>Node105&#45;&gt;Node97</title>
<path fill="none" stroke="midnightblue" d="M1258.84,-295.5C1243.35,-295.5 1226.99,-295.5 1211.56,-295.5"/>
<polygon fill="midnightblue" stroke="midnightblue" points="1258.88,-299 1268.88,-295.5 1258.88,-292 1258.88,-299"/>
</g>
<!-- Node106&#45;&gt;Node97 -->
<g id="edge43" class="edge">
<title>Node106&#45;&gt;Node97</title>
<path fill="none" stroke="midnightblue" d="M1262.81,-264.05C1242.05,-269.43 1219.42,-275.3 1199.38,-280.49"/>
<polygon fill="midnightblue" stroke="midnightblue" points="1263.71,-267.43 1272.51,-261.53 1261.95,-260.66 1263.71,-267.43"/>
</g>
<!-- Node108 -->
<g id="node38" class="node">
<title>Node108</title>
<g id="a_node38"><a xlink:href="classJoyControlStickEditDialog.html#aec8873b859f10e904c9ddde9b22c3413" target="_top" xlink:title=" ">
<polygon fill="white" stroke="black" points="1075,-49.5 1075,-79.5 1206,-79.5 1206,-49.5 1075,-49.5"/>
<text text-anchor="start" x="1083" y="-67.5" font-family="Helvetica,sans-Serif" font-size="10.00">JoyControlStickEditDialog</text>
<text text-anchor="middle" x="1140.5" y="-56.5" font-family="Helvetica,sans-Serif" font-size="10.00">::implementModes</text>
</a>
</g>
</g>
<!-- Node107&#45;&gt;Node108 -->
<g id="edge46" class="edge">
<title>Node107&#45;&gt;Node108</title>
<path fill="none" stroke="midnightblue" d="M1270.08,-102.6C1245.01,-95.17 1216.25,-86.65 1192.29,-79.55"/>
<polygon fill="midnightblue" stroke="midnightblue" points="1269.27,-106.01 1279.85,-105.49 1271.26,-99.3 1269.27,-106.01"/>
</g>
<!-- Node110 -->
<g id="node40" class="node">
<title>Node110</title>
<g id="a_node40"><a xlink:href="classJoyAxis.html#aa013bcc6b2391c594f043f8fe0f9b1f2" target="_top" xlink:title=" ">
<polygon fill="white" stroke="red" points="1069,-137 1069,-156 1212,-156 1212,-137 1069,-137"/>
<text text-anchor="middle" x="1140.5" y="-144" font-family="Helvetica,sans-Serif" font-size="10.00">JoyAxis::removeControlStick</text>
</a>
</g>
</g>
<!-- Node107&#45;&gt;Node110 -->
<g id="edge48" class="edge">
<title>Node107&#45;&gt;Node110</title>
<path fill="none" stroke="midnightblue" d="M1260.01,-130.2C1243.86,-132.42 1226.7,-134.78 1210.61,-136.99"/>
<polygon fill="midnightblue" stroke="midnightblue" points="1260.49,-133.66 1269.92,-128.83 1259.54,-126.73 1260.49,-133.66"/>
</g>
<!-- Node109 -->
<g id="node39" class="node">
<title>Node109</title>
<g id="a_node39"><a xlink:href="classJoyControlStickEditDialog.html#a2baa35c50ff7528a03ec6f2ba1ed657d" target="_top" xlink:title=" ">
<polygon fill="white" stroke="black" points="879.5,-11.5 879.5,-41.5 1016.5,-41.5 1016.5,-11.5 879.5,-11.5"/>
<text text-anchor="start" x="887.5" y="-29.5" font-family="Helvetica,sans-Serif" font-size="10.00">JoyControlStickEditDialog</text>
<text text-anchor="middle" x="948" y="-18.5" font-family="Helvetica,sans-Serif" font-size="10.00">::JoyControlStickEditDialog</text>
</a>
</g>
</g>
<!-- Node108&#45;&gt;Node109 -->
<g id="edge47" class="edge">
<title>Node108&#45;&gt;Node109</title>
<path fill="none" stroke="midnightblue" d="M1064.92,-49.62C1048.96,-46.44 1032.18,-43.09 1016.51,-39.97"/>
<polygon fill="midnightblue" stroke="midnightblue" points="1064.25,-53.06 1074.74,-51.58 1065.62,-46.19 1064.25,-53.06"/>
</g>
<!-- Node111 -->
<g id="node41" class="node">
<title>Node111</title>
<g id="a_node41"><a xlink:href="classJoyControlStick.html#a856e968760351507439829045910de04" target="_top" xlink:title=" ">
<polygon fill="white" stroke="red" points="689,-143 689,-162 834,-162 834,-143 689,-143"/>
<text text-anchor="middle" x="761.5" y="-150" font-family="Helvetica,sans-Serif" font-size="10.00">JoyControlStick::replaceAxes</text>
</a>
</g>
</g>
<!-- Node110&#45;&gt;Node111 -->
<g id="edge49" class="edge">
<title>Node110&#45;&gt;Node111</title>
<path fill="none" stroke="midnightblue" d="M1058.53,-147.79C991.8,-148.85 898.06,-150.34 834.05,-151.36"/>
<polygon fill="midnightblue" stroke="midnightblue" points="1058.65,-151.29 1068.59,-147.63 1058.53,-144.29 1058.65,-151.29"/>
</g>
<!-- Node115 -->
<g id="node42" class="node">
<title>Node115</title>
<g id="a_node42"><a xlink:href="classJoyControlStick.html#a65e49d5482a540c730c39416e02c19ae" target="_top" xlink:title=" ">
<polygon fill="white" stroke="black" points="700,-93.5 700,-123.5 823,-123.5 823,-93.5 700,-93.5"/>
<text text-anchor="start" x="708" y="-111.5" font-family="Helvetica,sans-Serif" font-size="10.00">JoyControlStick::replace</text>
<text text-anchor="middle" x="761.5" y="-100.5" font-family="Helvetica,sans-Serif" font-size="10.00">XAxis</text>
</a>
</g>
</g>
<!-- Node110&#45;&gt;Node115 -->
<g id="edge50" class="edge">
<title>Node110&#45;&gt;Node115</title>
<path fill="none" stroke="midnightblue" d="M1058.4,-138.33C987.77,-131.21 886.96,-121.04 823.14,-114.61"/>
<polygon fill="midnightblue" stroke="midnightblue" points="1058.29,-141.83 1068.59,-139.35 1058.99,-134.87 1058.29,-141.83"/>
</g>
<!-- Node116 -->
<g id="node43" class="node">
<title>Node116</title>
<g id="a_node43"><a xlink:href="classJoyControlStick.html#aed8209fad6e2b9ce62cf06c36b2d63d0" target="_top" xlink:title=" ">
<polygon fill="white" stroke="black" points="700,-181.5 700,-211.5 823,-211.5 823,-181.5 700,-181.5"/>
<text text-anchor="start" x="708" y="-199.5" font-family="Helvetica,sans-Serif" font-size="10.00">JoyControlStick::replace</text>
<text text-anchor="middle" x="761.5" y="-188.5" font-family="Helvetica,sans-Serif" font-size="10.00">YAxis</text>
</a>
</g>
</g>
<!-- Node110&#45;&gt;Node116 -->
<g id="edge51" class="edge">
<title>Node110&#45;&gt;Node116</title>
<path fill="none" stroke="midnightblue" d="M1071.83,-157.65C1056.76,-160.01 1040.85,-162.42 1026,-164.5 956.52,-174.23 876.48,-183.7 823.02,-189.78"/>
<polygon fill="midnightblue" stroke="midnightblue" points="1072.78,-161.04 1082.11,-156.02 1071.69,-154.12 1072.78,-161.04"/>
</g>
<!-- Node117 -->
<g id="node44" class="node">
<title>Node117</title>
<g id="a_node44"><a xlink:href="classJoyAxis.html#ac51525cabe4d0ea5aafebe949cde458f" target="_top" xlink:title=" ">
<polygon fill="white" stroke="black" points="885.5,-213 885.5,-232 1010.5,-232 1010.5,-213 885.5,-213"/>
<text text-anchor="middle" x="948" y="-220" font-family="Helvetica,sans-Serif" font-size="10.00">JoyAxis::setControlStick</text>
</a>
</g>
</g>
<!-- Node110&#45;&gt;Node117 -->
<g id="edge52" class="edge">
<title>Node110&#45;&gt;Node117</title>
<path fill="none" stroke="midnightblue" d="M1111.47,-160.55C1088.76,-171.65 1055.75,-187.1 1026,-198.5 1012.14,-203.81 996.56,-208.84 983.05,-212.91"/>
<polygon fill="midnightblue" stroke="midnightblue" points="1113.11,-163.65 1120.54,-156.09 1110.02,-157.37 1113.11,-163.65"/>
</g>
<!-- Node118 -->
<g id="node45" class="node">
<title>Node118</title>
<g id="a_node45"><a xlink:href="classJoyAxisButton.html#a8c8633a722e2c0a226924608259221d6" target="_top" xlink:title=" ">
<polygon fill="white" stroke="black" points="882.5,-61 882.5,-80 1013.5,-80 1013.5,-61 882.5,-61"/>
<text text-anchor="middle" x="948" y="-68" font-family="Helvetica,sans-Serif" font-size="10.00">JoyAxisButton::setVDPad</text>
</a>
</g>
</g>
<!-- Node110&#45;&gt;Node118 -->
<g id="edge57" class="edge">
<title>Node110&#45;&gt;Node118</title>
<path fill="none" stroke="midnightblue" d="M1075.52,-133.59C1070.84,-131.81 1066.28,-129.79 1062,-127.5 1042.86,-117.26 1044.81,-105.32 1026,-94.5 1015.32,-88.36 1002.88,-83.6 991.16,-80"/>
<polygon fill="midnightblue" stroke="midnightblue" points="1074.66,-136.99 1085.26,-136.91 1076.92,-130.37 1074.66,-136.99"/>
</g>
<!-- Node117&#45;&gt;Node104 -->
<g id="edge53" class="edge">
<title>Node117&#45;&gt;Node104</title>
<path fill="none" stroke="midnightblue" d="M875.37,-231.43C860.83,-233.24 845.56,-235.15 831.13,-236.94"/>
<polygon fill="midnightblue" stroke="midnightblue" points="875.82,-234.9 885.31,-230.19 874.95,-227.95 875.82,-234.9"/>
</g>
<!-- Node117&#45;&gt;Node111 -->
<g id="edge54" class="edge">
<title>Node117&#45;&gt;Node111</title>
<path fill="none" stroke="midnightblue" d="M919.2,-208.4C896.64,-197.35 863.81,-182.11 834,-171.5 824.08,-167.97 813.18,-164.75 802.94,-162.01"/>
<polygon fill="midnightblue" stroke="midnightblue" points="917.68,-211.56 928.2,-212.86 920.79,-205.29 917.68,-211.56"/>
</g>
<!-- Node117&#45;&gt;Node115 -->
<g id="edge55" class="edge">
<title>Node117&#45;&gt;Node115</title>
<path fill="none" stroke="midnightblue" d="M929.73,-205.86C908.62,-186.27 871.11,-153.86 834,-133.5 827.31,-129.83 819.99,-126.54 812.65,-123.65"/>
<polygon fill="midnightblue" stroke="midnightblue" points="927.55,-208.61 937.23,-212.92 932.34,-203.51 927.55,-208.61"/>
</g>
<!-- Node117&#45;&gt;Node116 -->
<g id="edge56" class="edge">
<title>Node117&#45;&gt;Node116</title>
<path fill="none" stroke="midnightblue" d="M875.3,-212.4C858.08,-209.97 839.86,-207.4 823.19,-205.05"/>
<polygon fill="midnightblue" stroke="midnightblue" points="874.92,-215.88 885.31,-213.81 875.89,-208.94 874.92,-215.88"/>
</g>
<!-- Node121 -->
<g id="node47" class="node">
<title>Node121</title>
<g id="a_node47"><a xlink:href="classDPadEditDialog.html#adfad573034ea62490614303638c16040" target="_top" xlink:title=" ">
<polygon fill="white" stroke="red" points="1072,-0.5 1072,-30.5 1209,-30.5 1209,-0.5 1072,-0.5"/>
<text text-anchor="start" x="1080" y="-18.5" font-family="Helvetica,sans-Serif" font-size="10.00">DPadEditDialog::implement</text>
<text text-anchor="middle" x="1140.5" y="-7.5" font-family="Helvetica,sans-Serif" font-size="10.00">Modes</text>
</a>
</g>
</g>
<!-- Node120&#45;&gt;Node121 -->
<g id="edge59" class="edge">
<title>Node120&#45;&gt;Node121</title>
<path fill="none" stroke="midnightblue" d="M1262.49,-35.35C1245.2,-32.51 1226.62,-29.46 1209.33,-26.63"/>
<polygon fill="midnightblue" stroke="midnightblue" points="1262.07,-38.82 1272.51,-36.99 1263.21,-31.92 1262.07,-38.82"/>
</g>
<!-- Node123&#45;&gt;Node117 -->
<g id="edge61" class="edge">
<title>Node123&#45;&gt;Node117</title>
<path fill="none" stroke="midnightblue" d="M1258.08,-206.3C1186.57,-210.05 1078.38,-215.72 1010.8,-219.26"/>
<polygon fill="midnightblue" stroke="midnightblue" points="1258.55,-209.78 1268.36,-205.76 1258.19,-202.79 1258.55,-209.78"/>
</g>
<!-- Node124&#45;&gt;Node118 -->
<g id="edge63" class="edge">
<title>Node124&#45;&gt;Node118</title>
<path fill="none" stroke="midnightblue" d="M1081.3,-96.89C1054.21,-91.49 1022.37,-85.14 996.73,-80.02"/>
<polygon fill="midnightblue" stroke="midnightblue" points="1080.94,-100.39 1091.43,-98.91 1082.31,-93.52 1080.94,-100.39"/>
</g>
<!-- Node125&#45;&gt;Node3 -->
<g id="edge65" class="edge">
<title>Node125&#45;&gt;Node3</title>
<path fill="none" stroke="midnightblue" d="M1573.98,-285.01C1565.2,-286.21 1556.48,-287.4 1548.23,-288.52"/>
<polygon fill="midnightblue" stroke="midnightblue" points="1574.46,-288.48 1583.9,-283.66 1573.51,-281.54 1574.46,-288.48"/>
</g>
</g>
</svg>
