<?xml version="1.0" encoding="UTF-8" standalone="no"?>
<!DOCTYPE svg PUBLIC "-//W3C//DTD SVG 1.1//EN"
 "http://www.w3.org/Graphics/SVG/1.1/DTD/svg11.dtd">
<!-- Generated by graphviz version 2.43.0 (0)
 -->
<!-- Title: /home/pawel/antimicrox/src/uihelpers Pages: 1 -->
<svg width="106pt" height="223pt"
 viewBox="0.00 0.00 106.00 223.00" xmlns="http://www.w3.org/2000/svg" xmlns:xlink="http://www.w3.org/1999/xlink">
<g id="graph0" class="graph" transform="scale(1 1) rotate(0) translate(4 219)">
<title>/home/pawel/antimicrox/src/uihelpers</title>
<polygon fill="white" stroke="transparent" points="-4,4 -4,-219 102,-219 102,4 -4,4"/>
<g id="clust1" class="cluster">
<title>clusterdir_68267d1309a1af8e8297ef4c3efbcdba</title>
<g id="a_clust1"><a xlink:href="dir_68267d1309a1af8e8297ef4c3efbcdba.html" target="_top" xlink:title="src">
<polygon fill="#ddddee" stroke="black" points="8,-136 8,-207 80,-207 80,-136 8,-136"/>
<text text-anchor="middle" x="44" y="-195" font-family="Helvetica,sans-Serif" font-size="10.00">src</text>
</a>
</g>
</g>
<!-- dir_d3ef957bd63225a4b91c9bfe1b1ee8f1 -->
<g id="node1" class="node">
<title>dir_d3ef957bd63225a4b91c9bfe1b1ee8f1</title>
<g id="a_node1"><a xlink:href="dir_d3ef957bd63225a4b91c9bfe1b1ee8f1.html" target="_top" xlink:title="uihelpers">
<polygon fill="#eeeeff" stroke="black" points="72,-180 16,-180 16,-144 72,-144 72,-180"/>
<text text-anchor="middle" x="44" y="-159.5" font-family="Helvetica,sans-Serif" font-size="10.00">uihelpers</text>
</a>
</g>
</g>
<!-- dir_7e98ab78f7c4c69c748bca1aedeab2ac -->
<g id="node2" class="node">
<title>dir_7e98ab78f7c4c69c748bca1aedeab2ac</title>
<g id="a_node2"><a xlink:href="dir_7e98ab78f7c4c69c748bca1aedeab2ac.html" target="_top" xlink:title="joybuttontypes">
<polygon fill="none" stroke="black" points="83,-36 3,-36 3,0 83,0 83,-36"/>
<text text-anchor="middle" x="43" y="-15.5" font-family="Helvetica,sans-Serif" font-size="10.00">joybuttontypes</text>
</a>
</g>
</g>
<!-- dir_d3ef957bd63225a4b91c9bfe1b1ee8f1&#45;&gt;dir_7e98ab78f7c4c69c748bca1aedeab2ac -->
<g id="edge2" class="edge">
<title>dir_d3ef957bd63225a4b91c9bfe1b1ee8f1&#45;&gt;dir_7e98ab78f7c4c69c748bca1aedeab2ac</title>
<path fill="none" stroke="black" d="M40.35,-143.91C38.32,-133.57 36.02,-120.09 35,-108 33.66,-92.06 33.8,-87.96 35,-72 35.64,-63.52 36.84,-54.34 38.12,-46.04"/>
<polygon fill="black" stroke="black" points="41.58,-46.55 39.75,-36.11 34.68,-45.41 41.58,-46.55"/>
<g id="a_edge2&#45;headlabel"><a xlink:href="dir_000011_000007.html" target="_top" xlink:title="2">
<text text-anchor="middle" x="43.8" y="-48.05" font-family="Helvetica,sans-Serif" font-size="10.00">2</text>
</a>
</g>
</g>
<!-- dir_c43b215a2ade73e6562bd37d8a11c12a -->
<g id="node3" class="node">
<title>dir_c43b215a2ade73e6562bd37d8a11c12a</title>
<g id="a_node3"><a xlink:href="dir_c43b215a2ade73e6562bd37d8a11c12a.html" target="_top" xlink:title="xml">
<polygon fill="none" stroke="black" points="98,-108 44,-108 44,-72 98,-72 98,-108"/>
<text text-anchor="middle" x="71" y="-87.5" font-family="Helvetica,sans-Serif" font-size="10.00">xml</text>
</a>
</g>
</g>
<!-- dir_d3ef957bd63225a4b91c9bfe1b1ee8f1&#45;&gt;dir_c43b215a2ade73e6562bd37d8a11c12a -->
<g id="edge3" class="edge">
<title>dir_d3ef957bd63225a4b91c9bfe1b1ee8f1&#45;&gt;dir_c43b215a2ade73e6562bd37d8a11c12a</title>
<path fill="none" stroke="black" d="M50.67,-143.7C53.71,-135.81 57.38,-126.3 60.76,-117.55"/>
<polygon fill="black" stroke="black" points="64.07,-118.69 64.4,-108.1 57.54,-116.17 64.07,-118.69"/>
<g id="a_edge3&#45;headlabel"><a xlink:href="dir_000011_000012.html" target="_top" xlink:title="1">
<text text-anchor="middle" x="65.42" y="-120.57" font-family="Helvetica,sans-Serif" font-size="10.00">1</text>
</a>
</g>
</g>
<!-- dir_c43b215a2ade73e6562bd37d8a11c12a&#45;&gt;dir_7e98ab78f7c4c69c748bca1aedeab2ac -->
<g id="edge1" class="edge">
<title>dir_c43b215a2ade73e6562bd37d8a11c12a&#45;&gt;dir_7e98ab78f7c4c69c748bca1aedeab2ac</title>
<path fill="none" stroke="black" d="M64.08,-71.7C60.93,-63.81 57.12,-54.3 53.62,-45.55"/>
<polygon fill="black" stroke="black" points="56.81,-44.09 49.84,-36.1 50.31,-46.69 56.81,-44.09"/>
<g id="a_edge1&#45;headlabel"><a xlink:href="dir_000012_000007.html" target="_top" xlink:title="2">
<text text-anchor="middle" x="60.78" y="-43.87" font-family="Helvetica,sans-Serif" font-size="10.00">2</text>
</a>
</g>
</g>
</g>
</svg>
