<?xml version="1.0" encoding="UTF-8" standalone="no"?>
<!DOCTYPE svg PUBLIC "-//W3C//DTD SVG 1.1//EN"
 "http://www.w3.org/Graphics/SVG/1.1/DTD/svg11.dtd">
<!-- Generated by graphviz version 2.43.0 (0)
 -->
<!-- Title: /home/pawel/antimicrox/src/dpadpushbuttongroup.cpp Pages: 1 -->
<!--zoomable 487 -->
<svg id="main" version="1.1" xmlns="http://www.w3.org/2000/svg" xmlns:xlink="http://www.w3.org/1999/xlink" xml:space="preserve" onload="init(evt)">
<style type="text/css"><![CDATA[
.edge:hover path { stroke: red; }
.edge:hover polygon { stroke: red; fill: red; }
]]></style>
<script type="text/javascript"><![CDATA[
var edges = document.getElementsByTagName('g');
if (edges && edges.length) {
  for (var i=0;i<edges.length;i++) {
    if (edges[i].id.substr(0,4)=='edge') {
      edges[i].setAttribute('class','edge');
    }
  }
}
]]></script>
        <defs>
                <circle id="rim" cx="0" cy="0" r="7"/>
                <circle id="rim2" cx="0" cy="0" r="3.5"/>
                <g id="zoomPlus">
                        <use xlink:href="#rim" fill="#404040">
                                <set attributeName="fill" to="#808080" begin="zoomplus.mouseover" end="zoomplus.mouseout"/>
                        </use>
                        <path d="M-4,0h8M0,-4v8" fill="none" stroke="white" stroke-width="1.5" pointer-events="none"/>
                </g>
                <g id="zoomMin">
                        <use xlink:href="#rim" fill="#404040">
                                <set attributeName="fill" to="#808080" begin="zoomminus.mouseover" end="zoomminus.mouseout"/>
                        </use>
                        <path d="M-4,0h8" fill="none" stroke="white" stroke-width="1.5" pointer-events="none"/>
                </g>
                <g id="dirArrow">
                        <path fill="none" stroke="white" stroke-width="1.5" d="M0,-3.0v7 M-2.5,-0.5L0,-3.0L2.5,-0.5"/>
                </g>
               <g id="resetDef">
                       <use xlink:href="#rim2" fill="#404040">
                               <set attributeName="fill" to="#808080" begin="reset.mouseover" end="reset.mouseout"/>
                       </use>
               </g>
        </defs>

<script type="text/javascript">
var viewWidth = 1744;
var viewHeight = 487;
var sectionId = 'dynsection-0';
</script>
<script xlink:href="svgpan.js"/>
<svg id="graph" class="graph">
<g id="viewport">
<title>/home/pawel/antimicrox/src/dpadpushbuttongroup.cpp</title>
<polygon fill="white" stroke="transparent" points="-4,4 -4,-483 1739.5,-483 1739.5,4 -4,4"/>
<!-- Node1 -->
<g id="node1" class="node">
<title>Node1</title>
<g id="a_node1"><a xlink:title=" ">
<polygon fill="#bfbfbf" stroke="black" points="989,-448.5 989,-478.5 1137,-478.5 1137,-448.5 989,-448.5"/>
<text text-anchor="start" x="997" y="-466.5" font-family="Helvetica,sans-Serif" font-size="10.00">/home/pawel/antimicrox</text>
<text text-anchor="middle" x="1063" y="-455.5" font-family="Helvetica,sans-Serif" font-size="10.00">/src/dpadpushbuttongroup.cpp</text>
</a>
</g>
</g>
<!-- Node2 -->
<g id="node2" class="node">
<title>Node2</title>
<g id="a_node2"><a xlink:href="dpadpushbuttongroup_8h.html" target="_top" xlink:title=" ">
<polygon fill="white" stroke="black" points="524,-392.5 524,-411.5 642,-411.5 642,-392.5 524,-392.5"/>
<text text-anchor="middle" x="583" y="-399.5" font-family="Helvetica,sans-Serif" font-size="10.00">dpadpushbuttongroup.h</text>
</a>
</g>
</g>
<!-- Node1&#45;&gt;Node2 -->
<g id="edge1" class="edge">
<title>Node1&#45;&gt;Node2</title>
<path fill="none" stroke="midnightblue" d="M988.92,-453.64C908.6,-443.98 776.33,-427.93 652.38,-412.17"/>
<polygon fill="midnightblue" stroke="midnightblue" points="652.7,-408.68 642.33,-410.89 651.81,-415.62 652.7,-408.68"/>
</g>
<!-- Node4 -->
<g id="node4" class="node">
<title>Node4</title>
<g id="a_node4"><a xlink:href="buttoneditdialog_8h.html" target="_top" xlink:title=" ">
<polygon fill="white" stroke="black" points="660.5,-392.5 660.5,-411.5 753.5,-411.5 753.5,-392.5 660.5,-392.5"/>
<text text-anchor="middle" x="707" y="-399.5" font-family="Helvetica,sans-Serif" font-size="10.00">buttoneditdialog.h</text>
</a>
</g>
</g>
<!-- Node1&#45;&gt;Node4 -->
<g id="edge3" class="edge">
<title>Node1&#45;&gt;Node4</title>
<path fill="none" stroke="midnightblue" d="M988.8,-450.1C921.86,-438.91 824.82,-422.69 763.85,-412.5"/>
<polygon fill="midnightblue" stroke="midnightblue" points="764.09,-408.99 753.65,-410.8 762.93,-415.9 764.09,-408.99"/>
</g>
<!-- Node14 -->
<g id="node14" class="node">
<title>Node14</title>
<g id="a_node14"><a xlink:href="dpadeditdialog_8h.html" target="_top" xlink:title=" ">
<polygon fill="white" stroke="black" points="783.5,-392.5 783.5,-411.5 870.5,-411.5 870.5,-392.5 783.5,-392.5"/>
<text text-anchor="middle" x="827" y="-399.5" font-family="Helvetica,sans-Serif" font-size="10.00">dpadeditdialog.h</text>
</a>
</g>
</g>
<!-- Node1&#45;&gt;Node14 -->
<g id="edge13" class="edge">
<title>Node1&#45;&gt;Node14</title>
<path fill="none" stroke="midnightblue" d="M1007.37,-448.47C965.59,-437.94 909.17,-423.72 870.62,-414"/>
<polygon fill="midnightblue" stroke="midnightblue" points="871.29,-410.56 860.74,-411.51 869.58,-417.34 871.29,-410.56"/>
</g>
<!-- Node16 -->
<g id="node16" class="node">
<title>Node16</title>
<g id="a_node16"><a xlink:href="joydpad_8h.html" target="_top" xlink:title=" ">
<polygon fill="white" stroke="black" points="797.5,-280.5 797.5,-299.5 856.5,-299.5 856.5,-280.5 797.5,-280.5"/>
<text text-anchor="middle" x="827" y="-287.5" font-family="Helvetica,sans-Serif" font-size="10.00">joydpad.h</text>
</a>
</g>
</g>
<!-- Node1&#45;&gt;Node16 -->
<g id="edge53" class="edge">
<title>Node1&#45;&gt;Node16</title>
<path fill="none" stroke="midnightblue" d="M1022.07,-448.4C1002.05,-440.05 978.54,-427.96 961,-412 931.63,-385.27 943.14,-362.99 914,-336 898.88,-321.99 878.57,-311.16 861.38,-303.64"/>
<polygon fill="midnightblue" stroke="midnightblue" points="862.26,-300.21 851.68,-299.59 859.56,-306.67 862.26,-300.21"/>
</g>
<!-- Node29 -->
<g id="node29" class="node">
<title>Node29</title>
<g id="a_node29"><a xlink:href="dpadpushbutton_8h.html" target="_top" xlink:title=" ">
<polygon fill="white" stroke="black" points="1361,-336.5 1361,-355.5 1455,-355.5 1455,-336.5 1361,-336.5"/>
<text text-anchor="middle" x="1408" y="-343.5" font-family="Helvetica,sans-Serif" font-size="10.00">dpadpushbutton.h</text>
</a>
</g>
</g>
<!-- Node1&#45;&gt;Node29 -->
<g id="edge32" class="edge">
<title>Node1&#45;&gt;Node29</title>
<path fill="none" stroke="midnightblue" d="M1099.1,-448.45C1123.56,-438.72 1156.5,-425.18 1185,-412 1202.68,-403.82 1205.75,-398.8 1224,-392 1265.4,-376.56 1314.03,-364.93 1350.9,-357.37"/>
<polygon fill="midnightblue" stroke="midnightblue" points="1351.86,-360.75 1360.97,-355.34 1350.48,-353.88 1351.86,-360.75"/>
</g>
<!-- Node32 -->
<g id="node32" class="node">
<title>Node32</title>
<g id="a_node32"><a xlink:href="inputdevice_8h.html" target="_top" xlink:title=" ">
<polygon fill="white" stroke="black" points="970,-392.5 970,-411.5 1044,-411.5 1044,-392.5 970,-392.5"/>
<text text-anchor="middle" x="1007" y="-399.5" font-family="Helvetica,sans-Serif" font-size="10.00">inputdevice.h</text>
</a>
</g>
</g>
<!-- Node1&#45;&gt;Node32 -->
<g id="edge35" class="edge">
<title>Node1&#45;&gt;Node32</title>
<path fill="none" stroke="midnightblue" d="M1049.73,-448.4C1041.42,-439.58 1030.7,-428.18 1022.08,-419.02"/>
<polygon fill="midnightblue" stroke="midnightblue" points="1024.55,-416.54 1015.15,-411.66 1019.45,-421.34 1024.55,-416.54"/>
</g>
<!-- Node44 -->
<g id="node44" class="node">
<title>Node44</title>
<g id="a_node44"><a xlink:href="joydpadbuttonwidget_8h.html" target="_top" xlink:title=" ">
<polygon fill="white" stroke="black" points="1062.5,-392.5 1062.5,-411.5 1175.5,-411.5 1175.5,-392.5 1062.5,-392.5"/>
<text text-anchor="middle" x="1119" y="-399.5" font-family="Helvetica,sans-Serif" font-size="10.00">joydpadbuttonwidget.h</text>
</a>
</g>
</g>
<!-- Node1&#45;&gt;Node44 -->
<g id="edge54" class="edge">
<title>Node1&#45;&gt;Node44</title>
<path fill="none" stroke="midnightblue" d="M1076.27,-448.4C1084.58,-439.58 1095.3,-428.18 1103.92,-419.02"/>
<polygon fill="midnightblue" stroke="midnightblue" points="1106.55,-421.34 1110.85,-411.66 1101.45,-416.54 1106.55,-421.34"/>
</g>
<!-- Node46 -->
<g id="node46" class="node">
<title>Node46</title>
<g id="a_node46"><a xlink:title=" ">
<polygon fill="white" stroke="#bfbfbf" points="1232.5,-392.5 1232.5,-411.5 1285.5,-411.5 1285.5,-392.5 1232.5,-392.5"/>
<text text-anchor="middle" x="1259" y="-399.5" font-family="Helvetica,sans-Serif" font-size="10.00">QDebug</text>
</a>
</g>
</g>
<!-- Node1&#45;&gt;Node46 -->
<g id="edge57" class="edge">
<title>Node1&#45;&gt;Node46</title>
<path fill="none" stroke="midnightblue" d="M1109.45,-448.4C1144.08,-437.89 1190.71,-423.73 1222.64,-414.04"/>
<polygon fill="midnightblue" stroke="midnightblue" points="1223.91,-417.31 1232.46,-411.06 1221.87,-410.61 1223.91,-417.31"/>
</g>
<!-- Node47 -->
<g id="node47" class="node">
<title>Node47</title>
<g id="a_node47"><a xlink:title=" ">
<polygon fill="white" stroke="#bfbfbf" points="1303.5,-392.5 1303.5,-411.5 1350.5,-411.5 1350.5,-392.5 1303.5,-392.5"/>
<text text-anchor="middle" x="1327" y="-399.5" font-family="Helvetica,sans-Serif" font-size="10.00">QHash</text>
</a>
</g>
</g>
<!-- Node1&#45;&gt;Node47 -->
<g id="edge58" class="edge">
<title>Node1&#45;&gt;Node47</title>
<path fill="none" stroke="midnightblue" d="M1132.54,-448.5C1176.32,-439.42 1234.21,-426.93 1293.38,-412.31"/>
<polygon fill="midnightblue" stroke="midnightblue" points="1294.42,-415.65 1303.28,-409.84 1292.73,-408.86 1294.42,-415.65"/>
</g>
<!-- Node48 -->
<g id="node48" class="node">
<title>Node48</title>
<g id="a_node48"><a xlink:title=" ">
<polygon fill="white" stroke="#bfbfbf" points="1368.5,-392.5 1368.5,-411.5 1423.5,-411.5 1423.5,-392.5 1368.5,-392.5"/>
<text text-anchor="middle" x="1396" y="-399.5" font-family="Helvetica,sans-Serif" font-size="10.00">QWidget</text>
</a>
</g>
</g>
<!-- Node1&#45;&gt;Node48 -->
<g id="edge59" class="edge">
<title>Node1&#45;&gt;Node48</title>
<path fill="none" stroke="midnightblue" d="M1137.14,-451.51C1195.05,-442.55 1277.73,-428.95 1358.32,-412.24"/>
<polygon fill="midnightblue" stroke="midnightblue" points="1359.07,-415.66 1368.14,-410.19 1357.64,-408.81 1359.07,-415.66"/>
</g>
<!-- Node3 -->
<g id="node3" class="node">
<title>Node3</title>
<g id="a_node3"><a xlink:title=" ">
<polygon fill="white" stroke="#bfbfbf" points="547.5,-336.5 547.5,-355.5 618.5,-355.5 618.5,-336.5 547.5,-336.5"/>
<text text-anchor="middle" x="583" y="-343.5" font-family="Helvetica,sans-Serif" font-size="10.00">QGridLayout</text>
</a>
</g>
</g>
<!-- Node2&#45;&gt;Node3 -->
<g id="edge2" class="edge">
<title>Node2&#45;&gt;Node3</title>
<path fill="none" stroke="midnightblue" d="M583,-392.08C583,-385.01 583,-374.86 583,-365.99"/>
<polygon fill="midnightblue" stroke="midnightblue" points="586.5,-365.75 583,-355.75 579.5,-365.75 586.5,-365.75"/>
</g>
<!-- Node5 -->
<g id="node5" class="node">
<title>Node5</title>
<g id="a_node5"><a xlink:title=" ">
<polygon fill="white" stroke="#bfbfbf" points="679,-336.5 679,-355.5 731,-355.5 731,-336.5 679,-336.5"/>
<text text-anchor="middle" x="705" y="-343.5" font-family="Helvetica,sans-Serif" font-size="10.00">QDialog</text>
</a>
</g>
</g>
<!-- Node4&#45;&gt;Node5 -->
<g id="edge4" class="edge">
<title>Node4&#45;&gt;Node5</title>
<path fill="none" stroke="midnightblue" d="M706.67,-392.08C706.41,-385.01 706.03,-374.86 705.7,-365.99"/>
<polygon fill="midnightblue" stroke="midnightblue" points="709.19,-365.61 705.32,-355.75 702.2,-365.87 709.19,-365.61"/>
</g>
<!-- Node6 -->
<g id="node6" class="node">
<title>Node6</title>
<g id="a_node6"><a xlink:href="buttoneditdialoghelper_8h.html" target="_top" xlink:title=" ">
<polygon fill="white" stroke="black" points="355,-168.5 355,-187.5 517,-187.5 517,-168.5 355,-168.5"/>
<text text-anchor="middle" x="436" y="-175.5" font-family="Helvetica,sans-Serif" font-size="10.00">uihelpers/buttoneditdialoghelper.h</text>
</a>
</g>
</g>
<!-- Node4&#45;&gt;Node6 -->
<g id="edge5" class="edge">
<title>Node4&#45;&gt;Node6</title>
<path fill="none" stroke="midnightblue" d="M696.38,-392.3C655.31,-358.66 506.65,-236.88 454.35,-194.03"/>
<polygon fill="midnightblue" stroke="midnightblue" points="456.5,-191.27 446.55,-187.64 452.07,-196.69 456.5,-191.27"/>
</g>
<!-- Node7 -->
<g id="node7" class="node">
<title>Node7</title>
<g id="a_node7"><a xlink:href="joybuttonslot_8h.html" target="_top" xlink:title=" ">
<polygon fill="white" stroke="black" points="230,-56.5 230,-75.5 310,-75.5 310,-56.5 230,-56.5"/>
<text text-anchor="middle" x="270" y="-63.5" font-family="Helvetica,sans-Serif" font-size="10.00">joybuttonslot.h</text>
</a>
</g>
</g>
<!-- Node6&#45;&gt;Node7 -->
<g id="edge6" class="edge">
<title>Node6&#45;&gt;Node7</title>
<path fill="none" stroke="midnightblue" d="M402.96,-168.45C379.43,-161.29 347.88,-149.4 324,-132 306.1,-118.96 290.54,-98.7 280.78,-84.27"/>
<polygon fill="midnightblue" stroke="midnightblue" points="283.63,-82.23 275.23,-75.76 277.76,-86.05 283.63,-82.23"/>
</g>
<!-- Node8 -->
<g id="node8" class="node">
<title>Node8</title>
<g id="a_node8"><a xlink:title=" ">
<polygon fill="white" stroke="#bfbfbf" points="140,-0.5 140,-19.5 224,-19.5 224,-0.5 140,-0.5"/>
<text text-anchor="middle" x="182" y="-7.5" font-family="Helvetica,sans-Serif" font-size="10.00">QElapsedTimer</text>
</a>
</g>
</g>
<!-- Node7&#45;&gt;Node8 -->
<g id="edge7" class="edge">
<title>Node7&#45;&gt;Node8</title>
<path fill="none" stroke="midnightblue" d="M255.86,-56.32C242.13,-47.9 221.06,-34.97 204.94,-25.07"/>
<polygon fill="midnightblue" stroke="midnightblue" points="206.46,-21.9 196.1,-19.65 202.8,-27.87 206.46,-21.9"/>
</g>
<!-- Node9 -->
<g id="node9" class="node">
<title>Node9</title>
<g id="a_node9"><a xlink:title=" ">
<polygon fill="white" stroke="#bfbfbf" points="1032.5,-0.5 1032.5,-19.5 1085.5,-19.5 1085.5,-0.5 1032.5,-0.5"/>
<text text-anchor="middle" x="1059" y="-7.5" font-family="Helvetica,sans-Serif" font-size="10.00">QObject</text>
</a>
</g>
</g>
<!-- Node7&#45;&gt;Node9 -->
<g id="edge8" class="edge">
<title>Node7&#45;&gt;Node9</title>
<path fill="none" stroke="midnightblue" d="M310.04,-57.85C314.74,-57.15 319.47,-56.52 324,-56 590.76,-25.69 914.48,-14.82 1022.18,-11.9"/>
<polygon fill="midnightblue" stroke="midnightblue" points="1022.31,-15.4 1032.21,-11.63 1022.13,-8.4 1022.31,-15.4"/>
</g>
<!-- Node10 -->
<g id="node10" class="node">
<title>Node10</title>
<g id="a_node10"><a xlink:title=" ">
<polygon fill="white" stroke="#bfbfbf" points="242.5,-0.5 242.5,-19.5 297.5,-19.5 297.5,-0.5 242.5,-0.5"/>
<text text-anchor="middle" x="270" y="-7.5" font-family="Helvetica,sans-Serif" font-size="10.00">QPointer</text>
</a>
</g>
</g>
<!-- Node7&#45;&gt;Node10 -->
<g id="edge9" class="edge">
<title>Node7&#45;&gt;Node10</title>
<path fill="none" stroke="midnightblue" d="M270,-56.08C270,-49.01 270,-38.86 270,-29.99"/>
<polygon fill="midnightblue" stroke="midnightblue" points="273.5,-29.75 270,-19.75 266.5,-29.75 273.5,-29.75"/>
</g>
<!-- Node11 -->
<g id="node11" class="node">
<title>Node11</title>
<g id="a_node11"><a xlink:title=" ">
<polygon fill="white" stroke="#bfbfbf" points="316,-0.5 316,-19.5 362,-19.5 362,-0.5 316,-0.5"/>
<text text-anchor="middle" x="339" y="-7.5" font-family="Helvetica,sans-Serif" font-size="10.00">QTime</text>
</a>
</g>
</g>
<!-- Node7&#45;&gt;Node11 -->
<g id="edge10" class="edge">
<title>Node7&#45;&gt;Node11</title>
<path fill="none" stroke="midnightblue" d="M281.09,-56.32C291.49,-48.18 307.26,-35.84 319.72,-26.09"/>
<polygon fill="midnightblue" stroke="midnightblue" points="321.99,-28.75 327.71,-19.83 317.68,-23.24 321.99,-28.75"/>
</g>
<!-- Node12 -->
<g id="node12" class="node">
<title>Node12</title>
<g id="a_node12"><a xlink:title=" ">
<polygon fill="white" stroke="#bfbfbf" points="380,-0.5 380,-19.5 434,-19.5 434,-0.5 380,-0.5"/>
<text text-anchor="middle" x="407" y="-7.5" font-family="Helvetica,sans-Serif" font-size="10.00">QVariant</text>
</a>
</g>
</g>
<!-- Node7&#45;&gt;Node12 -->
<g id="edge11" class="edge">
<title>Node7&#45;&gt;Node12</title>
<path fill="none" stroke="midnightblue" d="M291.71,-56.44C314.35,-47.52 350.07,-33.44 375.75,-23.32"/>
<polygon fill="midnightblue" stroke="midnightblue" points="377.37,-26.44 385.39,-19.52 374.81,-19.93 377.37,-26.44"/>
</g>
<!-- Node13 -->
<g id="node13" class="node">
<title>Node13</title>
<g id="a_node13"><a xlink:title=" ">
<polygon fill="white" stroke="#bfbfbf" points="0,-0.5 0,-19.5 122,-19.5 122,-0.5 0,-0.5"/>
<text text-anchor="middle" x="61" y="-7.5" font-family="Helvetica,sans-Serif" font-size="10.00">QtWidgets/QApplication</text>
</a>
</g>
</g>
<!-- Node7&#45;&gt;Node13 -->
<g id="edge12" class="edge">
<title>Node7&#45;&gt;Node13</title>
<path fill="none" stroke="midnightblue" d="M236.88,-56.44C200.88,-47.14 143.23,-32.25 103.81,-22.06"/>
<polygon fill="midnightblue" stroke="midnightblue" points="104.52,-18.63 93.96,-19.52 102.77,-25.41 104.52,-18.63"/>
</g>
<!-- Node14&#45;&gt;Node5 -->
<g id="edge31" class="edge">
<title>Node14&#45;&gt;Node5</title>
<path fill="none" stroke="midnightblue" d="M807.67,-392.44C787.68,-383.6 756.26,-369.69 733.44,-359.59"/>
<polygon fill="midnightblue" stroke="midnightblue" points="734.8,-356.36 724.24,-355.52 731.97,-362.76 734.8,-356.36"/>
</g>
<!-- Node15 -->
<g id="node15" class="node">
<title>Node15</title>
<g id="a_node15"><a xlink:href="dpadeditdialoghelper_8h.html" target="_top" xlink:title=" ">
<polygon fill="white" stroke="black" points="749,-336.5 749,-355.5 905,-355.5 905,-336.5 749,-336.5"/>
<text text-anchor="middle" x="827" y="-343.5" font-family="Helvetica,sans-Serif" font-size="10.00">uihelpers/dpadeditdialoghelper.h</text>
</a>
</g>
</g>
<!-- Node14&#45;&gt;Node15 -->
<g id="edge14" class="edge">
<title>Node14&#45;&gt;Node15</title>
<path fill="none" stroke="midnightblue" d="M827,-392.08C827,-385.01 827,-374.86 827,-365.99"/>
<polygon fill="midnightblue" stroke="midnightblue" points="830.5,-365.75 827,-355.75 823.5,-365.75 830.5,-365.75"/>
</g>
<!-- Node15&#45;&gt;Node16 -->
<g id="edge15" class="edge">
<title>Node15&#45;&gt;Node16</title>
<path fill="none" stroke="midnightblue" d="M827,-336.08C827,-329.01 827,-318.86 827,-309.99"/>
<polygon fill="midnightblue" stroke="midnightblue" points="830.5,-309.75 827,-299.75 823.5,-309.75 830.5,-309.75"/>
</g>
<!-- Node17 -->
<g id="node17" class="node">
<title>Node17</title>
<g id="a_node17"><a xlink:href="joydpadbutton_8h.html" target="_top" xlink:title=" ">
<polygon fill="white" stroke="black" points="739,-224.5 739,-243.5 891,-243.5 891,-224.5 739,-224.5"/>
<text text-anchor="middle" x="815" y="-231.5" font-family="Helvetica,sans-Serif" font-size="10.00">joybuttontypes/joydpadbutton.h</text>
</a>
</g>
</g>
<!-- Node16&#45;&gt;Node17 -->
<g id="edge16" class="edge">
<title>Node16&#45;&gt;Node17</title>
<path fill="none" stroke="midnightblue" d="M825.02,-280.08C823.43,-272.93 821.14,-262.64 819.15,-253.69"/>
<polygon fill="midnightblue" stroke="midnightblue" points="822.53,-252.75 816.94,-243.75 815.7,-254.27 822.53,-252.75"/>
</g>
<!-- Node18 -->
<g id="node18" class="node">
<title>Node18</title>
<g id="a_node18"><a xlink:href="joybutton_8h.html" target="_top" xlink:title=" ">
<polygon fill="white" stroke="black" points="778.5,-112.5 778.5,-131.5 843.5,-131.5 843.5,-112.5 778.5,-112.5"/>
<text text-anchor="middle" x="811" y="-119.5" font-family="Helvetica,sans-Serif" font-size="10.00">joybutton.h</text>
</a>
</g>
</g>
<!-- Node17&#45;&gt;Node18 -->
<g id="edge17" class="edge">
<title>Node17&#45;&gt;Node18</title>
<path fill="none" stroke="midnightblue" d="M814.69,-224.37C814.04,-206.62 812.55,-165.67 811.68,-141.6"/>
<polygon fill="midnightblue" stroke="midnightblue" points="815.17,-141.46 811.31,-131.59 808.18,-141.71 815.17,-141.46"/>
</g>
<!-- Node18&#45;&gt;Node7 -->
<g id="edge23" class="edge">
<title>Node18&#45;&gt;Node7</title>
<path fill="none" stroke="midnightblue" d="M778.24,-117.8C703.52,-110.5 514.8,-91.98 357,-76 345.2,-74.8 332.5,-73.5 320.55,-72.27"/>
<polygon fill="midnightblue" stroke="midnightblue" points="320.59,-68.75 310.28,-71.2 319.86,-75.71 320.59,-68.75"/>
</g>
<!-- Node19 -->
<g id="node19" class="node">
<title>Node19</title>
<g id="a_node19"><a xlink:href="globalvariables_8h.html" target="_top" xlink:title=" ">
<polygon fill="white" stroke="black" points="1076.5,-56.5 1076.5,-75.5 1165.5,-75.5 1165.5,-56.5 1076.5,-56.5"/>
<text text-anchor="middle" x="1121" y="-63.5" font-family="Helvetica,sans-Serif" font-size="10.00">globalvariables.h</text>
</a>
</g>
</g>
<!-- Node18&#45;&gt;Node19 -->
<g id="edge18" class="edge">
<title>Node18&#45;&gt;Node19</title>
<path fill="none" stroke="midnightblue" d="M843.59,-115.32C896.56,-106.1 1001.91,-87.75 1066.45,-76.5"/>
<polygon fill="midnightblue" stroke="midnightblue" points="1067.19,-79.93 1076.44,-74.76 1065.99,-73.03 1067.19,-79.93"/>
</g>
<!-- Node21 -->
<g id="node21" class="node">
<title>Node21</title>
<g id="a_node21"><a xlink:href="joybuttonmousehelper_8h.html" target="_top" xlink:title=" ">
<polygon fill="white" stroke="black" points="938,-56.5 938,-75.5 1058,-75.5 1058,-56.5 938,-56.5"/>
<text text-anchor="middle" x="998" y="-63.5" font-family="Helvetica,sans-Serif" font-size="10.00">joybuttonmousehelper.h</text>
</a>
</g>
</g>
<!-- Node18&#45;&gt;Node21 -->
<g id="edge21" class="edge">
<title>Node18&#45;&gt;Node21</title>
<path fill="none" stroke="midnightblue" d="M840.63,-112.44C872.5,-103.24 923.33,-88.56 958.56,-78.39"/>
<polygon fill="midnightblue" stroke="midnightblue" points="959.87,-81.65 968.51,-75.52 957.93,-74.93 959.87,-81.65"/>
</g>
<!-- Node22 -->
<g id="node22" class="node">
<title>Node22</title>
<g id="a_node22"><a xlink:href="springmousemoveinfo_8h.html" target="_top" xlink:title=" ">
<polygon fill="white" stroke="black" points="624.5,-56.5 624.5,-75.5 743.5,-75.5 743.5,-56.5 624.5,-56.5"/>
<text text-anchor="middle" x="684" y="-63.5" font-family="Helvetica,sans-Serif" font-size="10.00">springmousemoveinfo.h</text>
</a>
</g>
</g>
<!-- Node18&#45;&gt;Node22 -->
<g id="edge24" class="edge">
<title>Node18&#45;&gt;Node22</title>
<path fill="none" stroke="midnightblue" d="M790.88,-112.44C769.98,-103.56 737.07,-89.56 713.28,-79.45"/>
<polygon fill="midnightblue" stroke="midnightblue" points="714.6,-76.21 704.03,-75.52 711.86,-82.65 714.6,-76.21"/>
</g>
<!-- Node23 -->
<g id="node23" class="node">
<title>Node23</title>
<g id="a_node23"><a xlink:title=" ">
<polygon fill="white" stroke="#bfbfbf" points="761.5,-56.5 761.5,-75.5 848.5,-75.5 848.5,-56.5 761.5,-56.5"/>
<text text-anchor="middle" x="805" y="-63.5" font-family="Helvetica,sans-Serif" font-size="10.00">QDeadlineTimer</text>
</a>
</g>
</g>
<!-- Node18&#45;&gt;Node23 -->
<g id="edge25" class="edge">
<title>Node18&#45;&gt;Node23</title>
<path fill="none" stroke="midnightblue" d="M810.01,-112.08C809.21,-104.93 808.07,-94.64 807.08,-85.69"/>
<polygon fill="midnightblue" stroke="midnightblue" points="810.56,-85.3 805.97,-75.75 803.6,-86.08 810.56,-85.3"/>
</g>
<!-- Node24 -->
<g id="node24" class="node">
<title>Node24</title>
<g id="a_node24"><a xlink:title=" ">
<polygon fill="white" stroke="#bfbfbf" points="866.5,-56.5 866.5,-75.5 919.5,-75.5 919.5,-56.5 866.5,-56.5"/>
<text text-anchor="middle" x="893" y="-63.5" font-family="Helvetica,sans-Serif" font-size="10.00">QQueue</text>
</a>
</g>
</g>
<!-- Node18&#45;&gt;Node24 -->
<g id="edge26" class="edge">
<title>Node18&#45;&gt;Node24</title>
<path fill="none" stroke="midnightblue" d="M824.17,-112.32C836.85,-103.98 856.23,-91.21 871.21,-81.35"/>
<polygon fill="midnightblue" stroke="midnightblue" points="873.43,-84.08 879.86,-75.65 869.58,-78.23 873.43,-84.08"/>
</g>
<!-- Node25 -->
<g id="node25" class="node">
<title>Node25</title>
<g id="a_node25"><a xlink:title=" ">
<polygon fill="white" stroke="#bfbfbf" points="366,-56.5 366,-75.5 456,-75.5 456,-56.5 366,-56.5"/>
<text text-anchor="middle" x="411" y="-63.5" font-family="Helvetica,sans-Serif" font-size="10.00">QReadWriteLock</text>
</a>
</g>
</g>
<!-- Node18&#45;&gt;Node25 -->
<g id="edge27" class="edge">
<title>Node18&#45;&gt;Node25</title>
<path fill="none" stroke="midnightblue" d="M778.03,-117.11C718.12,-109.96 587.17,-93.93 466.24,-76.14"/>
<polygon fill="midnightblue" stroke="midnightblue" points="466.47,-72.63 456.06,-74.63 465.44,-79.56 466.47,-72.63"/>
</g>
<!-- Node26 -->
<g id="node26" class="node">
<title>Node26</title>
<g id="a_node26"><a xlink:title=" ">
<polygon fill="white" stroke="#bfbfbf" points="474.5,-56.5 474.5,-75.5 539.5,-75.5 539.5,-56.5 474.5,-56.5"/>
<text text-anchor="middle" x="507" y="-63.5" font-family="Helvetica,sans-Serif" font-size="10.00">QRunnable</text>
</a>
</g>
</g>
<!-- Node18&#45;&gt;Node26 -->
<g id="edge28" class="edge">
<title>Node18&#45;&gt;Node26</title>
<path fill="none" stroke="midnightblue" d="M778.11,-115.88C730.03,-108.28 637.52,-93.25 549.52,-76.23"/>
<polygon fill="midnightblue" stroke="midnightblue" points="550.13,-72.78 539.65,-74.31 548.79,-79.66 550.13,-72.78"/>
</g>
<!-- Node27 -->
<g id="node27" class="node">
<title>Node27</title>
<g id="a_node27"><a xlink:title=" ">
<polygon fill="white" stroke="#bfbfbf" points="1184,-56.5 1184,-75.5 1238,-75.5 1238,-56.5 1184,-56.5"/>
<text text-anchor="middle" x="1211" y="-63.5" font-family="Helvetica,sans-Serif" font-size="10.00">QThread</text>
</a>
</g>
</g>
<!-- Node18&#45;&gt;Node27 -->
<g id="edge29" class="edge">
<title>Node18&#45;&gt;Node27</title>
<path fill="none" stroke="midnightblue" d="M843.83,-118.29C906.27,-112.86 1046.51,-99.26 1174.01,-75.98"/>
<polygon fill="midnightblue" stroke="midnightblue" points="1174.75,-79.4 1183.95,-74.14 1173.48,-72.52 1174.75,-79.4"/>
</g>
<!-- Node28 -->
<g id="node28" class="node">
<title>Node28</title>
<g id="a_node28"><a xlink:title=" ">
<polygon fill="white" stroke="#bfbfbf" points="557.5,-56.5 557.5,-75.5 606.5,-75.5 606.5,-56.5 557.5,-56.5"/>
<text text-anchor="middle" x="582" y="-63.5" font-family="Helvetica,sans-Serif" font-size="10.00">QTimer</text>
</a>
</g>
</g>
<!-- Node18&#45;&gt;Node28 -->
<g id="edge30" class="edge">
<title>Node18&#45;&gt;Node28</title>
<path fill="none" stroke="midnightblue" d="M778.3,-113.92C741.29,-105.81 678.97,-91.87 616.81,-76.39"/>
<polygon fill="midnightblue" stroke="midnightblue" points="617.39,-72.93 606.84,-73.89 615.69,-79.72 617.39,-72.93"/>
</g>
<!-- Node19&#45;&gt;Node9 -->
<g id="edge20" class="edge">
<title>Node19&#45;&gt;Node9</title>
<path fill="none" stroke="midnightblue" d="M1111.04,-56.32C1101.87,-48.34 1088.06,-36.31 1076.97,-26.65"/>
<polygon fill="midnightblue" stroke="midnightblue" points="1078.98,-23.76 1069.14,-19.83 1074.38,-29.04 1078.98,-23.76"/>
</g>
<!-- Node20 -->
<g id="node20" class="node">
<title>Node20</title>
<g id="a_node20"><a xlink:title=" ">
<polygon fill="white" stroke="#bfbfbf" points="1356,-0.5 1356,-19.5 1396,-19.5 1396,-0.5 1356,-0.5"/>
<text text-anchor="middle" x="1376" y="-7.5" font-family="Helvetica,sans-Serif" font-size="10.00">QList</text>
</a>
</g>
</g>
<!-- Node19&#45;&gt;Node20 -->
<g id="edge19" class="edge">
<title>Node19&#45;&gt;Node20</title>
<path fill="none" stroke="midnightblue" d="M1161.41,-56.44C1212.74,-45.57 1300.15,-27.06 1345.96,-17.36"/>
<polygon fill="midnightblue" stroke="midnightblue" points="1346.82,-20.76 1355.88,-15.26 1345.37,-13.91 1346.82,-20.76"/>
</g>
<!-- Node21&#45;&gt;Node9 -->
<g id="edge22" class="edge">
<title>Node21&#45;&gt;Node9</title>
<path fill="none" stroke="midnightblue" d="M1007.8,-56.32C1016.82,-48.34 1030.41,-36.31 1041.32,-26.65"/>
<polygon fill="midnightblue" stroke="midnightblue" points="1043.85,-29.08 1049.02,-19.83 1039.21,-23.84 1043.85,-29.08"/>
</g>
<!-- Node30 -->
<g id="node30" class="node">
<title>Node30</title>
<g id="a_node30"><a xlink:href="flashbuttonwidget_8h.html" target="_top" xlink:title=" ">
<polygon fill="white" stroke="black" points="1357.5,-280.5 1357.5,-299.5 1458.5,-299.5 1458.5,-280.5 1357.5,-280.5"/>
<text text-anchor="middle" x="1408" y="-287.5" font-family="Helvetica,sans-Serif" font-size="10.00">flashbuttonwidget.h</text>
</a>
</g>
</g>
<!-- Node29&#45;&gt;Node30 -->
<g id="edge33" class="edge">
<title>Node29&#45;&gt;Node30</title>
<path fill="none" stroke="midnightblue" d="M1408,-336.08C1408,-329.01 1408,-318.86 1408,-309.99"/>
<polygon fill="midnightblue" stroke="midnightblue" points="1411.5,-309.75 1408,-299.75 1404.5,-309.75 1411.5,-309.75"/>
</g>
<!-- Node31 -->
<g id="node31" class="node">
<title>Node31</title>
<g id="a_node31"><a xlink:title=" ">
<polygon fill="white" stroke="#bfbfbf" points="1660.5,-224.5 1660.5,-243.5 1735.5,-243.5 1735.5,-224.5 1660.5,-224.5"/>
<text text-anchor="middle" x="1698" y="-231.5" font-family="Helvetica,sans-Serif" font-size="10.00">QPushButton</text>
</a>
</g>
</g>
<!-- Node30&#45;&gt;Node31 -->
<g id="edge34" class="edge">
<title>Node30&#45;&gt;Node31</title>
<path fill="none" stroke="midnightblue" d="M1453.95,-280.44C1507.52,-270.47 1595.62,-254.06 1650.04,-243.93"/>
<polygon fill="midnightblue" stroke="midnightblue" points="1650.93,-247.33 1660.12,-242.05 1649.65,-240.44 1650.93,-247.33"/>
</g>
<!-- Node33 -->
<g id="node33" class="node">
<title>Node33</title>
<g id="a_node33"><a xlink:href="setjoystick_8h.html" target="_top" xlink:title=" ">
<polygon fill="white" stroke="black" points="1089.5,-336.5 1089.5,-355.5 1160.5,-355.5 1160.5,-336.5 1089.5,-336.5"/>
<text text-anchor="middle" x="1125" y="-343.5" font-family="Helvetica,sans-Serif" font-size="10.00">setjoystick.h</text>
</a>
</g>
</g>
<!-- Node32&#45;&gt;Node33 -->
<g id="edge36" class="edge">
<title>Node32&#45;&gt;Node33</title>
<path fill="none" stroke="midnightblue" d="M1025.7,-392.44C1044.94,-383.64 1075.15,-369.81 1097.2,-359.72"/>
<polygon fill="midnightblue" stroke="midnightblue" points="1098.75,-362.86 1106.39,-355.52 1095.84,-356.5 1098.75,-362.86"/>
</g>
<!-- Node43 -->
<g id="node43" class="node">
<title>Node43</title>
<g id="a_node43"><a xlink:title=" ">
<polygon fill="white" stroke="#bfbfbf" points="961,-336.5 961,-355.5 1071,-355.5 1071,-336.5 961,-336.5"/>
<text text-anchor="middle" x="1016" y="-343.5" font-family="Helvetica,sans-Serif" font-size="10.00">SDL2/SDL_joystick.h</text>
</a>
</g>
</g>
<!-- Node32&#45;&gt;Node43 -->
<g id="edge52" class="edge">
<title>Node32&#45;&gt;Node43</title>
<path fill="none" stroke="midnightblue" d="M1008.49,-392.08C1009.68,-384.93 1011.39,-374.64 1012.88,-365.69"/>
<polygon fill="midnightblue" stroke="midnightblue" points="1016.35,-366.19 1014.54,-355.75 1009.45,-365.04 1016.35,-366.19"/>
</g>
<!-- Node34 -->
<g id="node34" class="node">
<title>Node34</title>
<g id="a_node34"><a xlink:href="joyaxis_8h.html" target="_top" xlink:title=" ">
<polygon fill="white" stroke="black" points="1283,-280.5 1283,-299.5 1339,-299.5 1339,-280.5 1283,-280.5"/>
<text text-anchor="middle" x="1311" y="-287.5" font-family="Helvetica,sans-Serif" font-size="10.00">joyaxis.h</text>
</a>
</g>
</g>
<!-- Node33&#45;&gt;Node34 -->
<g id="edge37" class="edge">
<title>Node33&#45;&gt;Node34</title>
<path fill="none" stroke="midnightblue" d="M1154.47,-336.44C1186.54,-327.13 1237.92,-312.22 1273.01,-302.03"/>
<polygon fill="midnightblue" stroke="midnightblue" points="1274.26,-305.31 1282.88,-299.16 1272.3,-298.59 1274.26,-305.31"/>
</g>
<!-- Node42 -->
<g id="node42" class="node">
<title>Node42</title>
<g id="a_node42"><a xlink:href="setjoystickxml_8h.html" target="_top" xlink:title=" ">
<polygon fill="white" stroke="black" points="612,-168.5 612,-187.5 718,-187.5 718,-168.5 612,-168.5"/>
<text text-anchor="middle" x="665" y="-175.5" font-family="Helvetica,sans-Serif" font-size="10.00">xml/setjoystickxml.h</text>
</a>
</g>
</g>
<!-- Node33&#45;&gt;Node42 -->
<g id="edge50" class="edge">
<title>Node33&#45;&gt;Node42</title>
<path fill="none" stroke="midnightblue" d="M1112.46,-336.46C1079.32,-314.3 986.1,-254.58 900,-224 843.54,-203.94 776.1,-192.2 727.98,-185.77"/>
<polygon fill="midnightblue" stroke="midnightblue" points="728.38,-182.3 718.01,-184.48 727.48,-189.24 728.38,-182.3"/>
</g>
<!-- Node34&#45;&gt;Node9 -->
<g id="edge39" class="edge">
<title>Node34&#45;&gt;Node9</title>
<path fill="none" stroke="midnightblue" d="M1339.17,-281.16C1410.75,-260.83 1594,-206.15 1594,-179 1594,-179 1594,-179 1594,-121 1594,-90.9 1598.28,-75.08 1575,-56 1538.12,-25.76 1207.98,-14.74 1095.98,-11.85"/>
<polygon fill="midnightblue" stroke="midnightblue" points="1095.92,-8.34 1085.83,-11.59 1095.74,-15.34 1095.92,-8.34"/>
</g>
<!-- Node34&#45;&gt;Node20 -->
<g id="edge38" class="edge">
<title>Node34&#45;&gt;Node20</title>
<path fill="none" stroke="midnightblue" d="M1339.16,-282.02C1342.47,-281.29 1345.8,-280.6 1349,-280 1406.11,-269.29 1562.73,-280.43 1608,-244 1631.99,-224.69 1632,-209.8 1632,-179 1632,-179 1632,-179 1632,-121 1632,-90.2 1631.47,-75.94 1608,-56 1577.89,-30.42 1461.78,-17.86 1406.11,-13.21"/>
<polygon fill="midnightblue" stroke="midnightblue" points="1406.39,-9.72 1396.14,-12.4 1405.83,-16.69 1406.39,-9.72"/>
</g>
<!-- Node35 -->
<g id="node35" class="node">
<title>Node35</title>
<g id="a_node35"><a xlink:href="joyaxisbutton_8h.html" target="_top" xlink:title=" ">
<polygon fill="white" stroke="black" points="1236.5,-224.5 1236.5,-243.5 1385.5,-243.5 1385.5,-224.5 1236.5,-224.5"/>
<text text-anchor="middle" x="1311" y="-231.5" font-family="Helvetica,sans-Serif" font-size="10.00">joybuttontypes/joyaxisbutton.h</text>
</a>
</g>
</g>
<!-- Node34&#45;&gt;Node35 -->
<g id="edge40" class="edge">
<title>Node34&#45;&gt;Node35</title>
<path fill="none" stroke="midnightblue" d="M1311,-280.08C1311,-273.01 1311,-262.86 1311,-253.99"/>
<polygon fill="midnightblue" stroke="midnightblue" points="1314.5,-253.75 1311,-243.75 1307.5,-253.75 1314.5,-253.75"/>
</g>
<!-- Node36 -->
<g id="node36" class="node">
<title>Node36</title>
<g id="a_node36"><a xlink:href="joygradientbutton_8h.html" target="_top" xlink:title=" ">
<polygon fill="white" stroke="black" points="975.5,-168.5 975.5,-187.5 1140.5,-187.5 1140.5,-168.5 975.5,-168.5"/>
<text text-anchor="middle" x="1058" y="-175.5" font-family="Helvetica,sans-Serif" font-size="10.00">joybuttontypes/joygradientbutton.h</text>
</a>
</g>
</g>
<!-- Node35&#45;&gt;Node36 -->
<g id="edge41" class="edge">
<title>Node35&#45;&gt;Node36</title>
<path fill="none" stroke="midnightblue" d="M1270.91,-224.44C1226.68,-215 1155.46,-199.8 1107.72,-189.61"/>
<polygon fill="midnightblue" stroke="midnightblue" points="1108.41,-186.18 1097.9,-187.52 1106.95,-193.03 1108.41,-186.18"/>
</g>
<!-- Node37 -->
<g id="node37" class="node">
<title>Node37</title>
<g id="a_node37"><a xlink:href="logger_8h.html" target="_top" xlink:title=" ">
<polygon fill="white" stroke="black" points="1288.5,-112.5 1288.5,-131.5 1339.5,-131.5 1339.5,-112.5 1288.5,-112.5"/>
<text text-anchor="middle" x="1314" y="-119.5" font-family="Helvetica,sans-Serif" font-size="10.00">logger.h</text>
</a>
</g>
</g>
<!-- Node35&#45;&gt;Node37 -->
<g id="edge43" class="edge">
<title>Node35&#45;&gt;Node37</title>
<path fill="none" stroke="midnightblue" d="M1311.24,-224.37C1311.72,-206.62 1312.84,-165.67 1313.49,-141.6"/>
<polygon fill="midnightblue" stroke="midnightblue" points="1316.99,-141.68 1313.77,-131.59 1309.99,-141.49 1316.99,-141.68"/>
</g>
<!-- Node36&#45;&gt;Node18 -->
<g id="edge42" class="edge">
<title>Node36&#45;&gt;Node18</title>
<path fill="none" stroke="midnightblue" d="M1018.86,-168.44C973.84,-158.6 900.17,-142.49 853.7,-132.33"/>
<polygon fill="midnightblue" stroke="midnightblue" points="854.16,-128.85 843.64,-130.14 852.67,-135.69 854.16,-128.85"/>
</g>
<!-- Node37&#45;&gt;Node9 -->
<g id="edge46" class="edge">
<title>Node37&#45;&gt;Node9</title>
<path fill="none" stroke="midnightblue" d="M1307.64,-112.33C1296.82,-98.25 1273.42,-70.52 1247,-56 1198.67,-29.44 1134.93,-18.43 1095.47,-13.96"/>
<polygon fill="midnightblue" stroke="midnightblue" points="1095.82,-10.48 1085.5,-12.91 1095.08,-17.44 1095.82,-10.48"/>
</g>
<!-- Node37&#45;&gt;Node27 -->
<g id="edge48" class="edge">
<title>Node37&#45;&gt;Node27</title>
<path fill="none" stroke="midnightblue" d="M1297.45,-112.32C1281.01,-103.7 1255.57,-90.36 1236.53,-80.39"/>
<polygon fill="midnightblue" stroke="midnightblue" points="1237.99,-77.2 1227.51,-75.65 1234.74,-83.4 1237.99,-77.2"/>
</g>
<!-- Node38 -->
<g id="node38" class="node">
<title>Node38</title>
<g id="a_node38"><a xlink:title=" ">
<polygon fill="white" stroke="#bfbfbf" points="1294,-56.5 1294,-75.5 1334,-75.5 1334,-56.5 1294,-56.5"/>
<text text-anchor="middle" x="1314" y="-63.5" font-family="Helvetica,sans-Serif" font-size="10.00">QFile</text>
</a>
</g>
</g>
<!-- Node37&#45;&gt;Node38 -->
<g id="edge44" class="edge">
<title>Node37&#45;&gt;Node38</title>
<path fill="none" stroke="midnightblue" d="M1314,-112.08C1314,-105.01 1314,-94.86 1314,-85.99"/>
<polygon fill="midnightblue" stroke="midnightblue" points="1317.5,-85.75 1314,-75.75 1310.5,-85.75 1317.5,-85.75"/>
</g>
<!-- Node39 -->
<g id="node39" class="node">
<title>Node39</title>
<g id="a_node39"><a xlink:title=" ">
<polygon fill="white" stroke="#bfbfbf" points="1352.5,-56.5 1352.5,-75.5 1403.5,-75.5 1403.5,-56.5 1352.5,-56.5"/>
<text text-anchor="middle" x="1378" y="-63.5" font-family="Helvetica,sans-Serif" font-size="10.00">QMutex</text>
</a>
</g>
</g>
<!-- Node37&#45;&gt;Node39 -->
<g id="edge45" class="edge">
<title>Node37&#45;&gt;Node39</title>
<path fill="none" stroke="midnightblue" d="M1324.28,-112.32C1333.84,-104.26 1348.28,-92.08 1359.78,-82.37"/>
<polygon fill="midnightblue" stroke="midnightblue" points="1362.14,-84.96 1367.53,-75.83 1357.63,-79.61 1362.14,-84.96"/>
</g>
<!-- Node40 -->
<g id="node40" class="node">
<title>Node40</title>
<g id="a_node40"><a xlink:title=" ">
<polygon fill="white" stroke="#bfbfbf" points="1422,-56.5 1422,-75.5 1496,-75.5 1496,-56.5 1422,-56.5"/>
<text text-anchor="middle" x="1459" y="-63.5" font-family="Helvetica,sans-Serif" font-size="10.00">QTextStream</text>
</a>
</g>
</g>
<!-- Node37&#45;&gt;Node40 -->
<g id="edge47" class="edge">
<title>Node37&#45;&gt;Node40</title>
<path fill="none" stroke="midnightblue" d="M1336.98,-112.44C1361.16,-103.44 1399.42,-89.19 1426.65,-79.05"/>
<polygon fill="midnightblue" stroke="midnightblue" points="1427.98,-82.29 1436.13,-75.52 1425.54,-75.73 1427.98,-82.29"/>
</g>
<!-- Node41 -->
<g id="node41" class="node">
<title>Node41</title>
<g id="a_node41"><a xlink:title=" ">
<polygon fill="white" stroke="#bfbfbf" points="1514,-56.5 1514,-75.5 1566,-75.5 1566,-56.5 1514,-56.5"/>
<text text-anchor="middle" x="1540" y="-63.5" font-family="Helvetica,sans-Serif" font-size="10.00">sstream</text>
</a>
</g>
</g>
<!-- Node37&#45;&gt;Node41 -->
<g id="edge49" class="edge">
<title>Node37&#45;&gt;Node41</title>
<path fill="none" stroke="midnightblue" d="M1339.68,-115.12C1374.6,-107.1 1439.24,-92.1 1503.72,-76.28"/>
<polygon fill="midnightblue" stroke="midnightblue" points="1504.77,-79.63 1513.64,-73.84 1503.09,-72.83 1504.77,-79.63"/>
</g>
<!-- Node42&#45;&gt;Node9 -->
<g id="edge51" class="edge">
<title>Node42&#45;&gt;Node9</title>
<path fill="none" stroke="midnightblue" d="M611.94,-173.9C504.84,-165.84 279.38,-138.76 357,-56 379.95,-31.53 880.88,-15.91 1022.19,-11.98"/>
<polygon fill="midnightblue" stroke="midnightblue" points="1022.58,-15.47 1032.48,-11.69 1022.39,-8.47 1022.58,-15.47"/>
</g>
<!-- Node45 -->
<g id="node45" class="node">
<title>Node45</title>
<g id="a_node45"><a xlink:href="joybuttonwidget_8h.html" target="_top" xlink:title=" ">
<polygon fill="white" stroke="black" points="1227,-336.5 1227,-355.5 1319,-355.5 1319,-336.5 1227,-336.5"/>
<text text-anchor="middle" x="1273" y="-343.5" font-family="Helvetica,sans-Serif" font-size="10.00">joybuttonwidget.h</text>
</a>
</g>
</g>
<!-- Node44&#45;&gt;Node45 -->
<g id="edge55" class="edge">
<title>Node44&#45;&gt;Node45</title>
<path fill="none" stroke="midnightblue" d="M1143.4,-392.44C1169.2,-383.4 1210.08,-369.06 1239.02,-358.92"/>
<polygon fill="midnightblue" stroke="midnightblue" points="1240.43,-362.13 1248.71,-355.52 1238.12,-355.52 1240.43,-362.13"/>
</g>
<!-- Node45&#45;&gt;Node30 -->
<g id="edge56" class="edge">
<title>Node45&#45;&gt;Node30</title>
<path fill="none" stroke="midnightblue" d="M1294.39,-336.44C1316.71,-327.52 1351.9,-313.44 1377.21,-303.32"/>
<polygon fill="midnightblue" stroke="midnightblue" points="1378.72,-306.48 1386.71,-299.52 1376.12,-299.98 1378.72,-306.48"/>
</g>
</g>
</svg>
        <g id="navigator" transform="translate(0 0)" fill="#404254">
                <rect fill="#f2f5e9" fill-opacity="0.5" stroke="#606060" stroke-width=".5" x="0" y="0" width="60" height="60"/>
                <use id="zoomplus" xlink:href="#zoomPlus" x="17" y="9" onmousedown="handleZoom(evt,'in')"/>
                <use id="zoomminus" xlink:href="#zoomMin" x="42" y="9" onmousedown="handleZoom(evt,'out')"/>
                <use id="reset" xlink:href="#resetDef" x="30" y="36" onmousedown="handleReset()"/>
                <g id="arrowUp" xlink:href="#dirArrow" transform="translate(30 24)" onmousedown="handlePan(0,-1)">
                  <use xlink:href="#rim" fill="#404040">
                        <set attributeName="fill" to="#808080" begin="arrowUp.mouseover" end="arrowUp.mouseout"/>
                  </use>
                  <path fill="none" stroke="white" stroke-width="1.5" d="M0,-3.0v7 M-2.5,-0.5L0,-3.0L2.5,-0.5"/>
                </g>
                <g id="arrowRight" xlink:href="#dirArrow" transform="rotate(90) translate(36 -43)" onmousedown="handlePan(1,0)">
                  <use xlink:href="#rim" fill="#404040">
                        <set attributeName="fill" to="#808080" begin="arrowRight.mouseover" end="arrowRight.mouseout"/>
                  </use>
                  <path fill="none" stroke="white" stroke-width="1.5" d="M0,-3.0v7 M-2.5,-0.5L0,-3.0L2.5,-0.5"/>
                </g>
                <g id="arrowDown" xlink:href="#dirArrow" transform="rotate(180) translate(-30 -48)" onmousedown="handlePan(0,1)">
                  <use xlink:href="#rim" fill="#404040">
                        <set attributeName="fill" to="#808080" begin="arrowDown.mouseover" end="arrowDown.mouseout"/>
                  </use>
                  <path fill="none" stroke="white" stroke-width="1.5" d="M0,-3.0v7 M-2.5,-0.5L0,-3.0L2.5,-0.5"/>
                </g>
                <g id="arrowLeft" xlink:href="#dirArrow" transform="rotate(270) translate(-36 17)" onmousedown="handlePan(-1,0)">
                  <use xlink:href="#rim" fill="#404040">
                        <set attributeName="fill" to="#808080" begin="arrowLeft.mouseover" end="arrowLeft.mouseout"/>
                  </use>
                  <path fill="none" stroke="white" stroke-width="1.5" d="M0,-3.0v7 M-2.5,-0.5L0,-3.0L2.5,-0.5"/>
                </g>
        </g>
        <svg viewBox="0 0 15 15" width="100%" height="30px" preserveAspectRatio="xMaxYMin meet">
         <g id="arrow_out" transform="scale(0.3 0.3)">
          <a xlink:href="dpadpushbuttongroup_8cpp__incl_org.svg" target="_base">
           <rect id="button" ry="5" rx="5" y="6" x="6" height="38" width="38"
                fill="#f2f5e9" fill-opacity="0.5" stroke="#606060" stroke-width="1.0"/>
           <path id="arrow"
             d="M 11.500037,31.436501 C 11.940474,20.09759 22.043105,11.32322 32.158766,21.979434 L 37.068811,17.246167 C 37.068811,17.246167 37.088388,32 37.088388,32 L 22.160133,31.978069 C 22.160133,31.978069 26.997745,27.140456 26.997745,27.140456 C 18.528582,18.264221 13.291696,25.230495 11.500037,31.436501 z"
             style="fill:#404040;"/>
          </a>
         </g>
        </svg>
</svg>
