<?xml version="1.0" encoding="UTF-8" standalone="no"?>
<!DOCTYPE svg PUBLIC "-//W3C//DTD SVG 1.1//EN"
 "http://www.w3.org/Graphics/SVG/1.1/DTD/svg11.dtd">
<!-- Generated by graphviz version 2.43.0 (0)
 -->
<!-- Title: /home/pawel/antimicrox/src/gui/dpadeditdialog.cpp Pages: 1 -->
<svg width="3502pt" height="263pt"
 viewBox="0.00 0.00 3502.00 263.00" xmlns="http://www.w3.org/2000/svg" xmlns:xlink="http://www.w3.org/1999/xlink">
<g id="graph0" class="graph" transform="scale(1 1) rotate(0) translate(4 259)">
<title>/home/pawel/antimicrox/src/gui/dpadeditdialog.cpp</title>
<polygon fill="white" stroke="transparent" points="-4,4 -4,-259 3498,-259 3498,4 -4,4"/>
<!-- Node1 -->
<g id="node1" class="node">
<title>Node1</title>
<g id="a_node1"><a xlink:title=" ">
<polygon fill="#bfbfbf" stroke="black" points="1703.5,-224.5 1703.5,-254.5 1836.5,-254.5 1836.5,-224.5 1703.5,-224.5"/>
<text text-anchor="start" x="1711.5" y="-242.5" font-family="Helvetica,sans-Serif" font-size="10.00">/home/pawel/antimicrox</text>
<text text-anchor="middle" x="1770" y="-231.5" font-family="Helvetica,sans-Serif" font-size="10.00">/src/gui/dpadeditdialog.cpp</text>
</a>
</g>
</g>
<!-- Node2 -->
<g id="node2" class="node">
<title>Node2</title>
<g id="a_node2"><a xlink:href="dpadeditdialog_8h.html" target="_top" xlink:title=" ">
<polygon fill="white" stroke="black" points="191.5,-168.5 191.5,-187.5 278.5,-187.5 278.5,-168.5 191.5,-168.5"/>
<text text-anchor="middle" x="235" y="-175.5" font-family="Helvetica,sans-Serif" font-size="10.00">dpadeditdialog.h</text>
</a>
</g>
</g>
<!-- Node1&#45;&gt;Node2 -->
<g id="edge1" class="edge">
<title>Node1&#45;&gt;Node2</title>
<path fill="none" stroke="midnightblue" d="M1703.47,-236.08C1509.5,-228.98 927.74,-207.54 445,-188 391.95,-185.85 331.36,-183.24 288.95,-181.38"/>
<polygon fill="midnightblue" stroke="midnightblue" points="288.98,-177.88 278.84,-180.94 288.68,-184.87 288.98,-177.88"/>
</g>
<!-- Node4 -->
<g id="node4" class="node">
<title>Node4</title>
<g id="a_node4"><a xlink:href="joydpad_8h.html" target="_top" xlink:title=" ">
<polygon fill="white" stroke="black" points="46.5,-56.5 46.5,-75.5 105.5,-75.5 105.5,-56.5 46.5,-56.5"/>
<text text-anchor="middle" x="76" y="-63.5" font-family="Helvetica,sans-Serif" font-size="10.00">joydpad.h</text>
</a>
</g>
</g>
<!-- Node1&#45;&gt;Node4 -->
<g id="edge50" class="edge">
<title>Node1&#45;&gt;Node4</title>
<path fill="none" stroke="midnightblue" d="M1703.25,-237.75C1420.89,-234.37 332.18,-219.41 182,-188 116.4,-174.28 79.57,-187.49 42,-132 31.26,-116.13 44.89,-96.46 57.95,-82.94"/>
<polygon fill="midnightblue" stroke="midnightblue" points="60.62,-85.23 65.39,-75.77 55.76,-80.19 60.62,-85.23"/>
</g>
<!-- Node25 -->
<g id="node7" class="node">
<title>Node25</title>
<g id="a_node7"><a xlink:title=" ">
<polygon fill="white" stroke="#bfbfbf" points="1394,-168.5 1394,-187.5 1494,-187.5 1494,-168.5 1394,-168.5"/>
<text text-anchor="middle" x="1444" y="-175.5" font-family="Helvetica,sans-Serif" font-size="10.00">ui_dpadeditdialog.h</text>
</a>
</g>
</g>
<!-- Node1&#45;&gt;Node25 -->
<g id="edge6" class="edge">
<title>Node1&#45;&gt;Node25</title>
<path fill="none" stroke="midnightblue" d="M1703.24,-226.32C1643.62,-215.43 1557.23,-199.67 1500.84,-189.37"/>
<polygon fill="midnightblue" stroke="midnightblue" points="1501.14,-185.87 1490.67,-187.52 1499.88,-192.76 1501.14,-185.87"/>
</g>
<!-- Node26 -->
<g id="node8" class="node">
<title>Node26</title>
<g id="a_node8"><a xlink:title=" ">
<polygon fill="white" stroke="#bfbfbf" points="1512.5,-168.5 1512.5,-187.5 1601.5,-187.5 1601.5,-168.5 1512.5,-168.5"/>
<text text-anchor="middle" x="1557" y="-175.5" font-family="Helvetica,sans-Serif" font-size="10.00">QtCore/QVariant</text>
</a>
</g>
</g>
<!-- Node1&#45;&gt;Node26 -->
<g id="edge7" class="edge">
<title>Node1&#45;&gt;Node26</title>
<path fill="none" stroke="midnightblue" d="M1719.79,-224.47C1682.4,-214.03 1632.02,-199.96 1597.26,-190.25"/>
<polygon fill="midnightblue" stroke="midnightblue" points="1598.02,-186.83 1587.45,-187.51 1596.14,-193.57 1598.02,-186.83"/>
</g>
<!-- Node27 -->
<g id="node9" class="node">
<title>Node27</title>
<g id="a_node9"><a xlink:title=" ">
<polygon fill="white" stroke="#bfbfbf" points="1619.5,-168.5 1619.5,-187.5 1690.5,-187.5 1690.5,-168.5 1619.5,-168.5"/>
<text text-anchor="middle" x="1655" y="-175.5" font-family="Helvetica,sans-Serif" font-size="10.00">QtGui/QIcon</text>
</a>
</g>
</g>
<!-- Node1&#45;&gt;Node27 -->
<g id="edge8" class="edge">
<title>Node1&#45;&gt;Node27</title>
<path fill="none" stroke="midnightblue" d="M1742.75,-224.4C1723.97,-214.68 1699.17,-201.86 1680.73,-192.31"/>
<polygon fill="midnightblue" stroke="midnightblue" points="1682.22,-189.14 1671.73,-187.66 1679.01,-195.36 1682.22,-189.14"/>
</g>
<!-- Node16 -->
<g id="node10" class="node">
<title>Node16</title>
<g id="a_node10"><a xlink:title=" ">
<polygon fill="white" stroke="#bfbfbf" points="1059,-56.5 1059,-75.5 1181,-75.5 1181,-56.5 1059,-56.5"/>
<text text-anchor="middle" x="1120" y="-63.5" font-family="Helvetica,sans-Serif" font-size="10.00">QtWidgets/QApplication</text>
</a>
</g>
</g>
<!-- Node1&#45;&gt;Node16 -->
<g id="edge9" class="edge">
<title>Node1&#45;&gt;Node16</title>
<path fill="none" stroke="midnightblue" d="M1703.34,-236.99C1571.48,-233.29 1282.05,-221.52 1189,-188 1147.82,-173.17 1128.32,-170.76 1108,-132 1100.27,-117.26 1105.15,-98.36 1110.83,-84.74"/>
<polygon fill="midnightblue" stroke="midnightblue" points="1114.08,-86.06 1115.14,-75.52 1107.74,-83.1 1114.08,-86.06"/>
</g>
<!-- Node28 -->
<g id="node11" class="node">
<title>Node28</title>
<g id="a_node11"><a xlink:title=" ">
<polygon fill="white" stroke="#bfbfbf" points="1709,-168.5 1709,-187.5 1831,-187.5 1831,-168.5 1709,-168.5"/>
<text text-anchor="middle" x="1770" y="-175.5" font-family="Helvetica,sans-Serif" font-size="10.00">QtWidgets/QComboBox</text>
</a>
</g>
</g>
<!-- Node1&#45;&gt;Node28 -->
<g id="edge10" class="edge">
<title>Node1&#45;&gt;Node28</title>
<path fill="none" stroke="midnightblue" d="M1770,-224.4C1770,-216.47 1770,-206.46 1770,-197.86"/>
<polygon fill="midnightblue" stroke="midnightblue" points="1773.5,-197.66 1770,-187.66 1766.5,-197.66 1773.5,-197.66"/>
</g>
<!-- Node29 -->
<g id="node12" class="node">
<title>Node29</title>
<g id="a_node12"><a xlink:title=" ">
<polygon fill="white" stroke="#bfbfbf" points="1849.5,-168.5 1849.5,-187.5 1950.5,-187.5 1950.5,-168.5 1849.5,-168.5"/>
<text text-anchor="middle" x="1900" y="-175.5" font-family="Helvetica,sans-Serif" font-size="10.00">QtWidgets/QDialog</text>
</a>
</g>
</g>
<!-- Node1&#45;&gt;Node29 -->
<g id="edge11" class="edge">
<title>Node1&#45;&gt;Node29</title>
<path fill="none" stroke="midnightblue" d="M1800.81,-224.4C1822.33,-214.55 1850.84,-201.5 1871.77,-191.92"/>
<polygon fill="midnightblue" stroke="midnightblue" points="1873.45,-195 1881.08,-187.66 1870.53,-188.64 1873.45,-195"/>
</g>
<!-- Node30 -->
<g id="node13" class="node">
<title>Node30</title>
<g id="a_node13"><a xlink:title=" ">
<polygon fill="white" stroke="#bfbfbf" points="1968.5,-168.5 1968.5,-187.5 2115.5,-187.5 2115.5,-168.5 1968.5,-168.5"/>
<text text-anchor="middle" x="2042" y="-175.5" font-family="Helvetica,sans-Serif" font-size="10.00">QtWidgets/QDialogButtonBox</text>
</a>
</g>
</g>
<!-- Node1&#45;&gt;Node30 -->
<g id="edge12" class="edge">
<title>Node1&#45;&gt;Node30</title>
<path fill="none" stroke="midnightblue" d="M1834.12,-224.47C1882.78,-213.83 1948.68,-199.41 1993.14,-189.69"/>
<polygon fill="midnightblue" stroke="midnightblue" points="1994.09,-193.06 2003.11,-187.51 1992.6,-186.22 1994.09,-193.06"/>
</g>
<!-- Node31 -->
<g id="node14" class="node">
<title>Node31</title>
<g id="a_node14"><a xlink:title=" ">
<polygon fill="white" stroke="#bfbfbf" points="2133.5,-168.5 2133.5,-187.5 2274.5,-187.5 2274.5,-168.5 2133.5,-168.5"/>
<text text-anchor="middle" x="2204" y="-175.5" font-family="Helvetica,sans-Serif" font-size="10.00">QtWidgets/QDoubleSpinBox</text>
</a>
</g>
</g>
<!-- Node1&#45;&gt;Node31 -->
<g id="edge13" class="edge">
<title>Node1&#45;&gt;Node31</title>
<path fill="none" stroke="midnightblue" d="M1836.86,-229.33C1916.75,-218.38 2049.89,-200.13 2131.99,-188.87"/>
<polygon fill="midnightblue" stroke="midnightblue" points="2132.56,-192.33 2141.99,-187.5 2131.61,-185.39 2132.56,-192.33"/>
</g>
<!-- Node32 -->
<g id="node15" class="node">
<title>Node32</title>
<g id="a_node15"><a xlink:title=" ">
<polygon fill="white" stroke="#bfbfbf" points="2292.5,-168.5 2292.5,-187.5 2393.5,-187.5 2393.5,-168.5 2292.5,-168.5"/>
<text text-anchor="middle" x="2343" y="-175.5" font-family="Helvetica,sans-Serif" font-size="10.00">QtWidgets/QFrame</text>
</a>
</g>
</g>
<!-- Node1&#45;&gt;Node32 -->
<g id="edge14" class="edge">
<title>Node1&#45;&gt;Node32</title>
<path fill="none" stroke="midnightblue" d="M1836.66,-233.1C1932.79,-225.05 2116.14,-208.75 2282.09,-188.18"/>
<polygon fill="midnightblue" stroke="midnightblue" points="2283,-191.6 2292.49,-186.89 2282.14,-184.65 2283,-191.6"/>
</g>
<!-- Node33 -->
<g id="node16" class="node">
<title>Node33</title>
<g id="a_node16"><a xlink:title=" ">
<polygon fill="white" stroke="#bfbfbf" points="2411.5,-168.5 2411.5,-187.5 2538.5,-187.5 2538.5,-168.5 2411.5,-168.5"/>
<text text-anchor="middle" x="2475" y="-175.5" font-family="Helvetica,sans-Serif" font-size="10.00">QtWidgets/QHBoxLayout</text>
</a>
</g>
</g>
<!-- Node1&#45;&gt;Node33 -->
<g id="edge15" class="edge">
<title>Node1&#45;&gt;Node33</title>
<path fill="none" stroke="midnightblue" d="M1836.62,-234.17C1950.28,-226.57 2189.2,-209.64 2401.33,-188.13"/>
<polygon fill="midnightblue" stroke="midnightblue" points="2401.82,-191.6 2411.41,-187.1 2401.11,-184.64 2401.82,-191.6"/>
</g>
<!-- Node34 -->
<g id="node17" class="node">
<title>Node34</title>
<g id="a_node17"><a xlink:title=" ">
<polygon fill="white" stroke="#bfbfbf" points="2556.5,-168.5 2556.5,-187.5 2653.5,-187.5 2653.5,-168.5 2556.5,-168.5"/>
<text text-anchor="middle" x="2605" y="-175.5" font-family="Helvetica,sans-Serif" font-size="10.00">QtWidgets/QLabel</text>
</a>
</g>
</g>
<!-- Node1&#45;&gt;Node34 -->
<g id="edge16" class="edge">
<title>Node1&#45;&gt;Node34</title>
<path fill="none" stroke="midnightblue" d="M1836.53,-236.24C1969.47,-231.28 2277.56,-217.53 2545.89,-188.14"/>
<polygon fill="midnightblue" stroke="midnightblue" points="2546.67,-191.58 2556.22,-187 2545.9,-184.62 2546.67,-191.58"/>
</g>
<!-- Node35 -->
<g id="node18" class="node">
<title>Node35</title>
<g id="a_node18"><a xlink:title=" ">
<polygon fill="white" stroke="#bfbfbf" points="2671.5,-168.5 2671.5,-187.5 2780.5,-187.5 2780.5,-168.5 2671.5,-168.5"/>
<text text-anchor="middle" x="2726" y="-175.5" font-family="Helvetica,sans-Serif" font-size="10.00">QtWidgets/QLineEdit</text>
</a>
</g>
</g>
<!-- Node1&#45;&gt;Node35 -->
<g id="edge17" class="edge">
<title>Node1&#45;&gt;Node35</title>
<path fill="none" stroke="midnightblue" d="M1836.53,-236.68C1983.48,-232.24 2347.01,-218.95 2661.18,-188.1"/>
<polygon fill="midnightblue" stroke="midnightblue" points="2661.79,-191.56 2671.4,-187.09 2661.1,-184.59 2661.79,-191.56"/>
</g>
<!-- Node36 -->
<g id="node19" class="node">
<title>Node36</title>
<g id="a_node19"><a xlink:title=" ">
<polygon fill="white" stroke="#bfbfbf" points="2798.5,-168.5 2798.5,-187.5 2923.5,-187.5 2923.5,-168.5 2798.5,-168.5"/>
<text text-anchor="middle" x="2861" y="-175.5" font-family="Helvetica,sans-Serif" font-size="10.00">QtWidgets/QPushButton</text>
</a>
</g>
</g>
<!-- Node1&#45;&gt;Node36 -->
<g id="edge18" class="edge">
<title>Node1&#45;&gt;Node36</title>
<path fill="none" stroke="midnightblue" d="M1836.65,-236.97C1998.17,-232.87 2423.47,-219.81 2788.35,-188.08"/>
<polygon fill="midnightblue" stroke="midnightblue" points="2788.65,-191.57 2798.31,-187.21 2788.04,-184.6 2788.65,-191.57"/>
</g>
<!-- Node37 -->
<g id="node20" class="node">
<title>Node37</title>
<g id="a_node20"><a xlink:title=" ">
<polygon fill="white" stroke="#bfbfbf" points="2942,-168.5 2942,-187.5 3040,-187.5 3040,-168.5 2942,-168.5"/>
<text text-anchor="middle" x="2991" y="-175.5" font-family="Helvetica,sans-Serif" font-size="10.00">QtWidgets/QSlider</text>
</a>
</g>
</g>
<!-- Node1&#45;&gt;Node37 -->
<g id="edge19" class="edge">
<title>Node1&#45;&gt;Node37</title>
<path fill="none" stroke="midnightblue" d="M1836.72,-238.18C2013.66,-236.78 2509.61,-229.26 2931.73,-188.01"/>
<polygon fill="midnightblue" stroke="midnightblue" points="2932.08,-191.49 2941.69,-187.03 2931.39,-184.53 2932.08,-191.49"/>
</g>
<!-- Node38 -->
<g id="node21" class="node">
<title>Node38</title>
<g id="a_node21"><a xlink:title=" ">
<polygon fill="white" stroke="#bfbfbf" points="3058,-168.5 3058,-187.5 3182,-187.5 3182,-168.5 3058,-168.5"/>
<text text-anchor="middle" x="3120" y="-175.5" font-family="Helvetica,sans-Serif" font-size="10.00">QtWidgets/QSpacerItem</text>
</a>
</g>
</g>
<!-- Node1&#45;&gt;Node38 -->
<g id="edge20" class="edge">
<title>Node1&#45;&gt;Node38</title>
<path fill="none" stroke="midnightblue" d="M1836.7,-237.9C2025.22,-235.77 2578.24,-226.53 3047.67,-188.04"/>
<polygon fill="midnightblue" stroke="midnightblue" points="3048.02,-191.52 3057.69,-187.21 3047.44,-184.54 3048.02,-191.52"/>
</g>
<!-- Node39 -->
<g id="node22" class="node">
<title>Node39</title>
<g id="a_node22"><a xlink:title=" ">
<polygon fill="white" stroke="#bfbfbf" points="3200,-168.5 3200,-187.5 3326,-187.5 3326,-168.5 3200,-168.5"/>
<text text-anchor="middle" x="3263" y="-175.5" font-family="Helvetica,sans-Serif" font-size="10.00">QtWidgets/QVBoxLayout</text>
</a>
</g>
</g>
<!-- Node1&#45;&gt;Node39 -->
<g id="edge21" class="edge">
<title>Node1&#45;&gt;Node39</title>
<path fill="none" stroke="midnightblue" d="M1836.71,-238.23C2038.86,-236.97 2662.58,-229.78 3189.73,-188.02"/>
<polygon fill="midnightblue" stroke="midnightblue" points="3190.13,-191.5 3199.82,-187.22 3189.57,-184.53 3190.13,-191.5"/>
</g>
<!-- Node40 -->
<g id="node23" class="node">
<title>Node40</title>
<g id="a_node23"><a xlink:href="antkeymapper_8h.html" target="_top" xlink:title=" ">
<polygon fill="white" stroke="black" points="1117,-112.5 1117,-131.5 1203,-131.5 1203,-112.5 1117,-112.5"/>
<text text-anchor="middle" x="1160" y="-119.5" font-family="Helvetica,sans-Serif" font-size="10.00">antkeymapper.h</text>
</a>
</g>
</g>
<!-- Node1&#45;&gt;Node40 -->
<g id="edge22" class="edge">
<title>Node1&#45;&gt;Node40</title>
<path fill="none" stroke="midnightblue" d="M1703.07,-238.52C1574.94,-237.55 1300.33,-230.43 1217,-188 1196.18,-177.4 1179.6,-155.65 1169.81,-140.24"/>
<polygon fill="midnightblue" stroke="midnightblue" points="1172.77,-138.37 1164.61,-131.61 1166.77,-141.98 1172.77,-138.37"/>
</g>
<!-- Node41 -->
<g id="node25" class="node">
<title>Node41</title>
<g id="a_node25"><a xlink:href="common_8h.html" target="_top" xlink:title=" ">
<polygon fill="white" stroke="black" points="763,-112.5 763,-131.5 825,-131.5 825,-112.5 763,-112.5"/>
<text text-anchor="middle" x="794" y="-119.5" font-family="Helvetica,sans-Serif" font-size="10.00">common.h</text>
</a>
</g>
</g>
<!-- Node1&#45;&gt;Node41 -->
<g id="edge24" class="edge">
<title>Node1&#45;&gt;Node41</title>
<path fill="none" stroke="midnightblue" d="M1703.47,-238.47C1528.28,-237.78 1057.57,-231.77 909,-188 872.46,-177.23 834.92,-153.07 813.06,-137.43"/>
<polygon fill="midnightblue" stroke="midnightblue" points="815.1,-134.59 804.96,-131.51 810.97,-140.24 815.1,-134.59"/>
</g>
<!-- Node57 -->
<g id="node36" class="node">
<title>Node57</title>
<g id="a_node36"><a xlink:href="event_8h.html" target="_top" xlink:title=" ">
<polygon fill="white" stroke="black" points="918.5,-168.5 918.5,-187.5 965.5,-187.5 965.5,-168.5 918.5,-168.5"/>
<text text-anchor="middle" x="942" y="-175.5" font-family="Helvetica,sans-Serif" font-size="10.00">event.h</text>
</a>
</g>
</g>
<!-- Node1&#45;&gt;Node57 -->
<g id="edge36" class="edge">
<title>Node1&#45;&gt;Node57</title>
<path fill="none" stroke="midnightblue" d="M1703.29,-233.71C1535.41,-221.64 1099.95,-190.35 975.6,-181.41"/>
<polygon fill="midnightblue" stroke="midnightblue" points="975.76,-177.92 965.54,-180.69 975.26,-184.9 975.76,-177.92"/>
</g>
<!-- Node58 -->
<g id="node39" class="node">
<title>Node58</title>
<g id="a_node39"><a xlink:href="inputdevice_8h.html" target="_top" xlink:title=" ">
<polygon fill="white" stroke="black" points="1226,-168.5 1226,-187.5 1300,-187.5 1300,-168.5 1226,-168.5"/>
<text text-anchor="middle" x="1263" y="-175.5" font-family="Helvetica,sans-Serif" font-size="10.00">inputdevice.h</text>
</a>
</g>
</g>
<!-- Node1&#45;&gt;Node58 -->
<g id="edge42" class="edge">
<title>Node1&#45;&gt;Node58</title>
<path fill="none" stroke="midnightblue" d="M1703.37,-232.48C1614.4,-224.12 1451.98,-207.79 1314,-188 1312.72,-187.82 1311.43,-187.63 1310.13,-187.43"/>
<polygon fill="midnightblue" stroke="midnightblue" points="1310.43,-183.93 1300,-185.82 1309.33,-190.85 1310.43,-183.93"/>
</g>
<!-- Node59 -->
<g id="node40" class="node">
<title>Node59</title>
<g id="a_node40"><a xlink:href="setjoystick_8h.html" target="_top" xlink:title=" ">
<polygon fill="white" stroke="black" points="1349.5,-112.5 1349.5,-131.5 1420.5,-131.5 1420.5,-112.5 1349.5,-112.5"/>
<text text-anchor="middle" x="1385" y="-119.5" font-family="Helvetica,sans-Serif" font-size="10.00">setjoystick.h</text>
</a>
</g>
</g>
<!-- Node1&#45;&gt;Node59 -->
<g id="edge57" class="edge">
<title>Node1&#45;&gt;Node59</title>
<path fill="none" stroke="midnightblue" d="M1703.36,-235.22C1591.25,-229.01 1374.88,-213.81 1352,-188 1339.11,-173.46 1353.56,-152.97 1367.18,-138.91"/>
<polygon fill="midnightblue" stroke="midnightblue" points="1369.74,-141.3 1374.49,-131.83 1364.87,-136.27 1369.74,-141.3"/>
</g>
<!-- Node8 -->
<g id="node42" class="node">
<title>Node8</title>
<g id="a_node42"><a xlink:title=" ">
<polygon fill="white" stroke="#bfbfbf" points="1401,-0.5 1401,-19.5 1441,-19.5 1441,-0.5 1401,-0.5"/>
<text text-anchor="middle" x="1421" y="-7.5" font-family="Helvetica,sans-Serif" font-size="10.00">QList</text>
</a>
</g>
</g>
<!-- Node1&#45;&gt;Node8 -->
<g id="edge60" class="edge">
<title>Node1&#45;&gt;Node8</title>
<path fill="none" stroke="midnightblue" d="M1703.18,-234.47C1598.5,-227.46 1405.62,-211.5 1385,-188 1359.53,-158.97 1423.54,-145.43 1430,-132 1446.06,-98.59 1435.79,-53.94 1427.8,-29.29"/>
<polygon fill="midnightblue" stroke="midnightblue" points="1431.08,-28.06 1424.49,-19.76 1424.46,-30.36 1431.08,-28.06"/>
</g>
<!-- Node65 -->
<g id="node45" class="node">
<title>Node65</title>
<g id="a_node45"><a xlink:href="mousedpadsettingsdialog_8h.html" target="_top" xlink:title=" ">
<polygon fill="white" stroke="black" points="454.5,-168.5 454.5,-187.5 647.5,-187.5 647.5,-168.5 454.5,-168.5"/>
<text text-anchor="middle" x="551" y="-175.5" font-family="Helvetica,sans-Serif" font-size="10.00">mousedialog/mousedpadsettingsdialog.h</text>
</a>
</g>
</g>
<!-- Node1&#45;&gt;Node65 -->
<g id="edge51" class="edge">
<title>Node1&#45;&gt;Node65</title>
<path fill="none" stroke="midnightblue" d="M1703.16,-235.24C1502.4,-225.44 903.42,-196.2 657.84,-184.21"/>
<polygon fill="midnightblue" stroke="midnightblue" points="657.99,-180.72 647.83,-183.73 657.65,-187.71 657.99,-180.72"/>
</g>
<!-- Node69 -->
<g id="node49" class="node">
<title>Node69</title>
<g id="a_node49"><a xlink:title=" ">
<polygon fill="white" stroke="#bfbfbf" points="3344.5,-168.5 3344.5,-187.5 3397.5,-187.5 3397.5,-168.5 3344.5,-168.5"/>
<text text-anchor="middle" x="3371" y="-175.5" font-family="Helvetica,sans-Serif" font-size="10.00">QDebug</text>
</a>
</g>
</g>
<!-- Node1&#45;&gt;Node69 -->
<g id="edge58" class="edge">
<title>Node1&#45;&gt;Node69</title>
<path fill="none" stroke="midnightblue" d="M1836.57,-238.24C2093.13,-236.93 3018.66,-229.48 3334.32,-187.7"/>
<polygon fill="midnightblue" stroke="midnightblue" points="3334.95,-191.14 3344.39,-186.32 3334.01,-184.21 3334.95,-191.14"/>
</g>
<!-- Node70 -->
<g id="node50" class="node">
<title>Node70</title>
<g id="a_node50"><a xlink:title=" ">
<polygon fill="white" stroke="#bfbfbf" points="3416,-168.5 3416,-187.5 3494,-187.5 3494,-168.5 3416,-168.5"/>
<text text-anchor="middle" x="3455" y="-175.5" font-family="Helvetica,sans-Serif" font-size="10.00">QHashIterator</text>
</a>
</g>
</g>
<!-- Node1&#45;&gt;Node70 -->
<g id="edge59" class="edge">
<title>Node1&#45;&gt;Node70</title>
<path fill="none" stroke="midnightblue" d="M1836.82,-237.82C2101.12,-234.9 3074.75,-222.12 3405.7,-187.93"/>
<polygon fill="midnightblue" stroke="midnightblue" points="3406.21,-191.4 3415.78,-186.86 3405.47,-184.44 3406.21,-191.4"/>
</g>
<!-- Node3 -->
<g id="node3" class="node">
<title>Node3</title>
<g id="a_node3"><a xlink:href="dpadeditdialoghelper_8h.html" target="_top" xlink:title=" ">
<polygon fill="white" stroke="black" points="51,-112.5 51,-131.5 207,-131.5 207,-112.5 51,-112.5"/>
<text text-anchor="middle" x="129" y="-119.5" font-family="Helvetica,sans-Serif" font-size="10.00">uihelpers/dpadeditdialoghelper.h</text>
</a>
</g>
</g>
<!-- Node2&#45;&gt;Node3 -->
<g id="edge2" class="edge">
<title>Node2&#45;&gt;Node3</title>
<path fill="none" stroke="midnightblue" d="M217.97,-168.32C200.97,-159.66 174.62,-146.24 155.01,-136.25"/>
<polygon fill="midnightblue" stroke="midnightblue" points="156.49,-133.08 145.99,-131.65 153.31,-139.31 156.49,-133.08"/>
</g>
<!-- Node24 -->
<g id="node6" class="node">
<title>Node24</title>
<g id="a_node6"><a xlink:title=" ">
<polygon fill="white" stroke="#bfbfbf" points="232,-56.5 232,-75.5 284,-75.5 284,-56.5 232,-56.5"/>
<text text-anchor="middle" x="258" y="-63.5" font-family="Helvetica,sans-Serif" font-size="10.00">QDialog</text>
</a>
</g>
</g>
<!-- Node2&#45;&gt;Node24 -->
<g id="edge5" class="edge">
<title>Node2&#45;&gt;Node24</title>
<path fill="none" stroke="midnightblue" d="M236.8,-168.37C240.52,-150.62 249.08,-109.67 254.11,-85.6"/>
<polygon fill="midnightblue" stroke="midnightblue" points="257.58,-86.1 256.2,-75.59 250.73,-84.66 257.58,-86.1"/>
</g>
<!-- Node3&#45;&gt;Node4 -->
<g id="edge3" class="edge">
<title>Node3&#45;&gt;Node4</title>
<path fill="none" stroke="midnightblue" d="M120.25,-112.08C112.53,-104.22 101.1,-92.57 91.78,-83.08"/>
<polygon fill="midnightblue" stroke="midnightblue" points="94.09,-80.44 84.59,-75.75 89.1,-85.34 94.09,-80.44"/>
</g>
<!-- Node5 -->
<g id="node5" class="node">
<title>Node5</title>
<g id="a_node5"><a xlink:href="joydpadbutton_8h.html" target="_top" xlink:title=" ">
<polygon fill="white" stroke="red" points="0,-0.5 0,-19.5 152,-19.5 152,-0.5 0,-0.5"/>
<text text-anchor="middle" x="76" y="-7.5" font-family="Helvetica,sans-Serif" font-size="10.00">joybuttontypes/joydpadbutton.h</text>
</a>
</g>
</g>
<!-- Node4&#45;&gt;Node5 -->
<g id="edge4" class="edge">
<title>Node4&#45;&gt;Node5</title>
<path fill="none" stroke="midnightblue" d="M76,-56.08C76,-49.01 76,-38.86 76,-29.99"/>
<polygon fill="midnightblue" stroke="midnightblue" points="79.5,-29.75 76,-19.75 72.5,-29.75 79.5,-29.75"/>
</g>
<!-- Node9 -->
<g id="node24" class="node">
<title>Node9</title>
<g id="a_node24"><a xlink:title=" ">
<polygon fill="white" stroke="#bfbfbf" points="1093.5,-0.5 1093.5,-19.5 1146.5,-19.5 1146.5,-0.5 1093.5,-0.5"/>
<text text-anchor="middle" x="1120" y="-7.5" font-family="Helvetica,sans-Serif" font-size="10.00">QObject</text>
</a>
</g>
</g>
<!-- Node40&#45;&gt;Node9 -->
<g id="edge23" class="edge">
<title>Node40&#45;&gt;Node9</title>
<path fill="none" stroke="midnightblue" d="M1169.2,-112.41C1181.53,-99.79 1200.72,-75.64 1190,-56 1182.18,-41.68 1167.64,-31.24 1153.82,-24.04"/>
<polygon fill="midnightblue" stroke="midnightblue" points="1155,-20.72 1144.47,-19.56 1151.98,-27.03 1155,-20.72"/>
</g>
<!-- Node42 -->
<g id="node26" class="node">
<title>Node42</title>
<g id="a_node26"><a xlink:href="antimicrosettings_8h.html" target="_top" xlink:title=" ">
<polygon fill="white" stroke="black" points="321.5,-56.5 321.5,-75.5 420.5,-75.5 420.5,-56.5 321.5,-56.5"/>
<text text-anchor="middle" x="371" y="-63.5" font-family="Helvetica,sans-Serif" font-size="10.00">antimicrosettings.h</text>
</a>
</g>
</g>
<!-- Node41&#45;&gt;Node42 -->
<g id="edge25" class="edge">
<title>Node41&#45;&gt;Node42</title>
<path fill="none" stroke="midnightblue" d="M762.62,-113.61C759.71,-113.03 756.81,-112.48 754,-112 693.33,-101.64 522.25,-82.95 430.65,-73.24"/>
<polygon fill="midnightblue" stroke="midnightblue" points="431.01,-69.76 420.69,-72.19 430.27,-76.72 431.01,-69.76"/>
</g>
<!-- Node51 -->
<g id="node29" class="node">
<title>Node51</title>
<g id="a_node29"><a xlink:title=" ">
<polygon fill="white" stroke="#bfbfbf" points="665.5,-56.5 665.5,-75.5 716.5,-75.5 716.5,-56.5 665.5,-56.5"/>
<text text-anchor="middle" x="691" y="-63.5" font-family="Helvetica,sans-Serif" font-size="10.00">config.h</text>
</a>
</g>
</g>
<!-- Node41&#45;&gt;Node51 -->
<g id="edge28" class="edge">
<title>Node41&#45;&gt;Node51</title>
<path fill="none" stroke="midnightblue" d="M777.45,-112.32C761.01,-103.7 735.57,-90.36 716.53,-80.39"/>
<polygon fill="midnightblue" stroke="midnightblue" points="717.99,-77.2 707.51,-75.65 714.74,-83.4 717.99,-77.2"/>
</g>
<!-- Node52 -->
<g id="node30" class="node">
<title>Node52</title>
<g id="a_node30"><a xlink:href="mousehelper_8h.html" target="_top" xlink:title=" ">
<polygon fill="white" stroke="red" points="923,-56.5 923,-75.5 1003,-75.5 1003,-56.5 923,-56.5"/>
<text text-anchor="middle" x="963" y="-63.5" font-family="Helvetica,sans-Serif" font-size="10.00">mousehelper.h</text>
</a>
</g>
</g>
<!-- Node41&#45;&gt;Node52 -->
<g id="edge29" class="edge">
<title>Node41&#45;&gt;Node52</title>
<path fill="none" stroke="midnightblue" d="M820.78,-112.44C849.33,-103.32 894.73,-88.81 926.54,-78.65"/>
<polygon fill="midnightblue" stroke="midnightblue" points="927.89,-81.89 936.35,-75.52 925.76,-75.23 927.89,-81.89"/>
</g>
<!-- Node53 -->
<g id="node31" class="node">
<title>Node53</title>
<g id="a_node31"><a xlink:title=" ">
<polygon fill="white" stroke="#bfbfbf" points="734.5,-56.5 734.5,-75.5 771.5,-75.5 771.5,-56.5 734.5,-56.5"/>
<text text-anchor="middle" x="753" y="-63.5" font-family="Helvetica,sans-Serif" font-size="10.00">QDir</text>
</a>
</g>
</g>
<!-- Node41&#45;&gt;Node53 -->
<g id="edge31" class="edge">
<title>Node41&#45;&gt;Node53</title>
<path fill="none" stroke="midnightblue" d="M787.23,-112.08C781.44,-104.46 772.94,-93.26 765.86,-83.94"/>
<polygon fill="midnightblue" stroke="midnightblue" points="768.48,-81.6 759.64,-75.75 762.9,-85.83 768.48,-81.6"/>
</g>
<!-- Node54 -->
<g id="node32" class="node">
<title>Node54</title>
<g id="a_node32"><a xlink:title=" ">
<polygon fill="white" stroke="#bfbfbf" points="789.5,-56.5 789.5,-75.5 832.5,-75.5 832.5,-56.5 789.5,-56.5"/>
<text text-anchor="middle" x="811" y="-63.5" font-family="Helvetica,sans-Serif" font-size="10.00">QIcon</text>
</a>
</g>
</g>
<!-- Node41&#45;&gt;Node54 -->
<g id="edge32" class="edge">
<title>Node41&#45;&gt;Node54</title>
<path fill="none" stroke="midnightblue" d="M796.81,-112.08C799.08,-104.85 802.37,-94.41 805.21,-85.4"/>
<polygon fill="midnightblue" stroke="midnightblue" points="808.58,-86.34 808.25,-75.75 801.9,-84.24 808.58,-86.34"/>
</g>
<!-- Node22 -->
<g id="node33" class="node">
<title>Node22</title>
<g id="a_node33"><a xlink:title=" ">
<polygon fill="white" stroke="#bfbfbf" points="851,-56.5 851,-75.5 905,-75.5 905,-56.5 851,-56.5"/>
<text text-anchor="middle" x="878" y="-63.5" font-family="Helvetica,sans-Serif" font-size="10.00">QThread</text>
</a>
</g>
</g>
<!-- Node41&#45;&gt;Node22 -->
<g id="edge33" class="edge">
<title>Node41&#45;&gt;Node22</title>
<path fill="none" stroke="midnightblue" d="M807.5,-112.32C820.6,-103.9 840.71,-90.97 856.11,-81.07"/>
<polygon fill="midnightblue" stroke="midnightblue" points="858.02,-84.01 864.54,-75.65 854.23,-78.12 858.02,-84.01"/>
</g>
<!-- Node55 -->
<g id="node34" class="node">
<title>Node55</title>
<g id="a_node34"><a xlink:title=" ">
<polygon fill="white" stroke="#bfbfbf" points="477.5,-56.5 477.5,-75.5 544.5,-75.5 544.5,-56.5 477.5,-56.5"/>
<text text-anchor="middle" x="511" y="-63.5" font-family="Helvetica,sans-Serif" font-size="10.00">QTranslator</text>
</a>
</g>
</g>
<!-- Node41&#45;&gt;Node55 -->
<g id="edge34" class="edge">
<title>Node41&#45;&gt;Node55</title>
<path fill="none" stroke="midnightblue" d="M762.59,-113.79C759.69,-113.17 756.79,-112.56 754,-112 668.17,-94.67 643.75,-93.57 554.88,-76.32"/>
<polygon fill="midnightblue" stroke="midnightblue" points="555.39,-72.85 544.91,-74.37 554.05,-79.72 555.39,-72.85"/>
</g>
<!-- Node56 -->
<g id="node35" class="node">
<title>Node56</title>
<g id="a_node35"><a xlink:title=" ">
<polygon fill="white" stroke="#bfbfbf" points="562.5,-56.5 562.5,-75.5 647.5,-75.5 647.5,-56.5 562.5,-56.5"/>
<text text-anchor="middle" x="605" y="-63.5" font-family="Helvetica,sans-Serif" font-size="10.00">QWaitCondition</text>
</a>
</g>
</g>
<!-- Node41&#45;&gt;Node56 -->
<g id="edge35" class="edge">
<title>Node41&#45;&gt;Node56</title>
<path fill="none" stroke="midnightblue" d="M764.05,-112.44C731.84,-103.24 680.47,-88.56 644.86,-78.39"/>
<polygon fill="midnightblue" stroke="midnightblue" points="645.38,-74.9 634.81,-75.52 643.46,-81.63 645.38,-74.9"/>
</g>
<!-- Node43 -->
<g id="node27" class="node">
<title>Node43</title>
<g id="a_node27"><a xlink:href="commandlineutility_8h.html" target="_top" xlink:title=" ">
<polygon fill="white" stroke="red" points="369.5,-0.5 369.5,-19.5 474.5,-19.5 474.5,-0.5 369.5,-0.5"/>
<text text-anchor="middle" x="422" y="-7.5" font-family="Helvetica,sans-Serif" font-size="10.00">commandlineutility.h</text>
</a>
</g>
</g>
<!-- Node42&#45;&gt;Node43 -->
<g id="edge26" class="edge">
<title>Node42&#45;&gt;Node43</title>
<path fill="none" stroke="midnightblue" d="M379.42,-56.08C386.85,-48.22 397.85,-36.57 406.81,-27.08"/>
<polygon fill="midnightblue" stroke="midnightblue" points="409.41,-29.42 413.74,-19.75 404.32,-24.62 409.41,-29.42"/>
</g>
<!-- Node50 -->
<g id="node28" class="node">
<title>Node50</title>
<g id="a_node28"><a xlink:title=" ">
<polygon fill="white" stroke="#bfbfbf" points="291,-0.5 291,-19.5 351,-19.5 351,-0.5 291,-0.5"/>
<text text-anchor="middle" x="321" y="-7.5" font-family="Helvetica,sans-Serif" font-size="10.00">QSettings</text>
</a>
</g>
</g>
<!-- Node42&#45;&gt;Node50 -->
<g id="edge27" class="edge">
<title>Node42&#45;&gt;Node50</title>
<path fill="none" stroke="midnightblue" d="M362.74,-56.08C355.54,-48.3 344.89,-36.8 336.15,-27.37"/>
<polygon fill="midnightblue" stroke="midnightblue" points="338.47,-24.71 329.1,-19.75 333.33,-29.47 338.47,-24.71"/>
</g>
<!-- Node52&#45;&gt;Node9 -->
<g id="edge30" class="edge">
<title>Node52&#45;&gt;Node9</title>
<path fill="none" stroke="midnightblue" d="M987.88,-56.44C1014.29,-47.36 1056.22,-32.94 1085.74,-22.78"/>
<polygon fill="midnightblue" stroke="midnightblue" points="1086.92,-26.08 1095.24,-19.52 1084.64,-19.46 1086.92,-26.08"/>
</g>
<!-- Node57&#45;&gt;Node41 -->
<g id="edge37" class="edge">
<title>Node57&#45;&gt;Node41</title>
<path fill="none" stroke="midnightblue" d="M918.55,-168.44C893.87,-159.44 854.81,-145.19 827.02,-135.05"/>
<polygon fill="midnightblue" stroke="midnightblue" points="827.94,-131.66 817.34,-131.52 825.54,-138.23 827.94,-131.66"/>
</g>
<!-- Node11 -->
<g id="node37" class="node">
<title>Node11</title>
<g id="a_node37"><a xlink:href="joybuttonslot_8h.html" target="_top" xlink:title=" ">
<polygon fill="white" stroke="red" points="843,-112.5 843,-131.5 923,-131.5 923,-112.5 843,-112.5"/>
<text text-anchor="middle" x="883" y="-119.5" font-family="Helvetica,sans-Serif" font-size="10.00">joybuttonslot.h</text>
</a>
</g>
</g>
<!-- Node57&#45;&gt;Node11 -->
<g id="edge38" class="edge">
<title>Node57&#45;&gt;Node11</title>
<path fill="none" stroke="midnightblue" d="M932.52,-168.32C923.8,-160.34 910.66,-148.31 900.1,-138.65"/>
<polygon fill="midnightblue" stroke="midnightblue" points="902.39,-136 892.65,-131.83 897.67,-141.17 902.39,-136"/>
</g>
<!-- Node17 -->
<g id="node38" class="node">
<title>Node17</title>
<g id="a_node38"><a xlink:href="springmousemoveinfo_8h.html" target="_top" xlink:title=" ">
<polygon fill="white" stroke="black" points="941.5,-112.5 941.5,-131.5 1060.5,-131.5 1060.5,-112.5 941.5,-112.5"/>
<text text-anchor="middle" x="1001" y="-119.5" font-family="Helvetica,sans-Serif" font-size="10.00">springmousemoveinfo.h</text>
</a>
</g>
</g>
<!-- Node57&#45;&gt;Node17 -->
<g id="edge41" class="edge">
<title>Node57&#45;&gt;Node17</title>
<path fill="none" stroke="midnightblue" d="M951.48,-168.32C960.2,-160.34 973.34,-148.31 983.9,-138.65"/>
<polygon fill="midnightblue" stroke="midnightblue" points="986.33,-141.17 991.35,-131.83 981.61,-136 986.33,-141.17"/>
</g>
<!-- Node11&#45;&gt;Node16 -->
<g id="edge40" class="edge">
<title>Node11&#45;&gt;Node16</title>
<path fill="none" stroke="midnightblue" d="M920.55,-112.44C961.81,-103.04 1028.14,-87.93 1072.87,-77.74"/>
<polygon fill="midnightblue" stroke="midnightblue" points="1073.65,-81.15 1082.62,-75.52 1072.09,-74.33 1073.65,-81.15"/>
</g>
<!-- Node11&#45;&gt;Node9 -->
<g id="edge39" class="edge">
<title>Node11&#45;&gt;Node9</title>
<path fill="none" stroke="midnightblue" d="M912.89,-112.49C939.48,-104.48 979.15,-91.42 1012,-76 1043.58,-61.18 1077.71,-39.61 1098.97,-25.45"/>
<polygon fill="midnightblue" stroke="midnightblue" points="1101.17,-28.18 1107.51,-19.69 1097.26,-22.38 1101.17,-28.18"/>
</g>
<!-- Node58&#45;&gt;Node59 -->
<g id="edge43" class="edge">
<title>Node58&#45;&gt;Node59</title>
<path fill="none" stroke="midnightblue" d="M1282.33,-168.44C1302.32,-159.6 1333.74,-145.69 1356.56,-135.59"/>
<polygon fill="midnightblue" stroke="midnightblue" points="1358.03,-138.76 1365.76,-131.52 1355.2,-132.36 1358.03,-138.76"/>
</g>
<!-- Node64 -->
<g id="node44" class="node">
<title>Node64</title>
<g id="a_node44"><a xlink:title=" ">
<polygon fill="white" stroke="#bfbfbf" points="1221,-112.5 1221,-131.5 1331,-131.5 1331,-112.5 1221,-112.5"/>
<text text-anchor="middle" x="1276" y="-119.5" font-family="Helvetica,sans-Serif" font-size="10.00">SDL2/SDL_joystick.h</text>
</a>
</g>
</g>
<!-- Node58&#45;&gt;Node64 -->
<g id="edge49" class="edge">
<title>Node58&#45;&gt;Node64</title>
<path fill="none" stroke="midnightblue" d="M1265.15,-168.08C1266.87,-160.93 1269.35,-150.64 1271.5,-141.69"/>
<polygon fill="midnightblue" stroke="midnightblue" points="1274.96,-142.29 1273.89,-131.75 1268.15,-140.65 1274.96,-142.29"/>
</g>
<!-- Node60 -->
<g id="node41" class="node">
<title>Node60</title>
<g id="a_node41"><a xlink:href="joyaxis_8h.html" target="_top" xlink:title=" ">
<polygon fill="white" stroke="red" points="1361,-56.5 1361,-75.5 1417,-75.5 1417,-56.5 1361,-56.5"/>
<text text-anchor="middle" x="1389" y="-63.5" font-family="Helvetica,sans-Serif" font-size="10.00">joyaxis.h</text>
</a>
</g>
</g>
<!-- Node59&#45;&gt;Node60 -->
<g id="edge44" class="edge">
<title>Node59&#45;&gt;Node60</title>
<path fill="none" stroke="midnightblue" d="M1385.66,-112.08C1386.18,-105.01 1386.94,-94.86 1387.59,-85.99"/>
<polygon fill="midnightblue" stroke="midnightblue" points="1391.1,-85.98 1388.35,-75.75 1384.12,-85.47 1391.1,-85.98"/>
</g>
<!-- Node63 -->
<g id="node43" class="node">
<title>Node63</title>
<g id="a_node43"><a xlink:href="setjoystickxml_8h.html" target="_top" xlink:title=" ">
<polygon fill="white" stroke="black" points="1237,-56.5 1237,-75.5 1343,-75.5 1343,-56.5 1237,-56.5"/>
<text text-anchor="middle" x="1290" y="-63.5" font-family="Helvetica,sans-Serif" font-size="10.00">xml/setjoystickxml.h</text>
</a>
</g>
</g>
<!-- Node59&#45;&gt;Node63 -->
<g id="edge47" class="edge">
<title>Node59&#45;&gt;Node63</title>
<path fill="none" stroke="midnightblue" d="M1369.74,-112.32C1354.78,-103.82 1331.75,-90.73 1314.27,-80.8"/>
<polygon fill="midnightblue" stroke="midnightblue" points="1315.65,-77.55 1305.23,-75.65 1312.19,-83.64 1315.65,-77.55"/>
</g>
<!-- Node60&#45;&gt;Node9 -->
<g id="edge46" class="edge">
<title>Node60&#45;&gt;Node9</title>
<path fill="none" stroke="midnightblue" d="M1360.75,-57.98C1357.8,-57.29 1354.84,-56.62 1352,-56 1283.21,-40.97 1202.38,-25.87 1156.57,-17.54"/>
<polygon fill="midnightblue" stroke="midnightblue" points="1156.99,-14.06 1146.53,-15.73 1155.74,-20.95 1156.99,-14.06"/>
</g>
<!-- Node60&#45;&gt;Node8 -->
<g id="edge45" class="edge">
<title>Node60&#45;&gt;Node8</title>
<path fill="none" stroke="midnightblue" d="M1394.28,-56.08C1398.71,-48.61 1405.16,-37.72 1410.62,-28.52"/>
<polygon fill="midnightblue" stroke="midnightblue" points="1413.73,-30.14 1415.81,-19.75 1407.71,-26.57 1413.73,-30.14"/>
</g>
<!-- Node63&#45;&gt;Node9 -->
<g id="edge48" class="edge">
<title>Node63&#45;&gt;Node9</title>
<path fill="none" stroke="midnightblue" d="M1263.06,-56.44C1234.26,-47.29 1188.4,-32.73 1156.4,-22.56"/>
<polygon fill="midnightblue" stroke="midnightblue" points="1157.12,-19.12 1146.53,-19.43 1155,-25.79 1157.12,-19.12"/>
</g>
<!-- Node66 -->
<g id="node46" class="node">
<title>Node66</title>
<g id="a_node46"><a xlink:title=" ">
<polygon fill="white" stroke="#bfbfbf" points="395.5,-112.5 395.5,-131.5 522.5,-131.5 522.5,-112.5 395.5,-112.5"/>
<text text-anchor="middle" x="459" y="-119.5" font-family="Helvetica,sans-Serif" font-size="10.00">ui_mousesettingsdialog.h</text>
</a>
</g>
</g>
<!-- Node65&#45;&gt;Node66 -->
<g id="edge52" class="edge">
<title>Node65&#45;&gt;Node66</title>
<path fill="none" stroke="midnightblue" d="M536.22,-168.32C521.73,-159.82 499.43,-146.73 482.51,-136.8"/>
<polygon fill="midnightblue" stroke="midnightblue" points="484.14,-133.7 473.74,-131.65 480.6,-139.74 484.14,-133.7"/>
</g>
<!-- Node67 -->
<g id="node47" class="node">
<title>Node67</title>
<g id="a_node47"><a xlink:href="mousesettingsdialog_8h.html" target="_top" xlink:title=" ">
<polygon fill="white" stroke="red" points="263,-112.5 263,-131.5 377,-131.5 377,-112.5 263,-112.5"/>
<text text-anchor="middle" x="320" y="-119.5" font-family="Helvetica,sans-Serif" font-size="10.00">mousesettingsdialog.h</text>
</a>
</g>
</g>
<!-- Node65&#45;&gt;Node67 -->
<g id="edge53" class="edge">
<title>Node65&#45;&gt;Node67</title>
<path fill="none" stroke="midnightblue" d="M514.4,-168.44C474.27,-159.06 409.8,-143.99 366.22,-133.8"/>
<polygon fill="midnightblue" stroke="midnightblue" points="366.97,-130.38 356.43,-131.52 365.37,-137.2 366.97,-130.38"/>
</g>
<!-- Node68 -->
<g id="node48" class="node">
<title>Node68</title>
<g id="a_node48"><a xlink:href="mousedpadsettingsdialoghelper_8h.html" target="_top" xlink:title=" ">
<polygon fill="white" stroke="black" points="541,-112.5 541,-131.5 745,-131.5 745,-112.5 541,-112.5"/>
<text text-anchor="middle" x="643" y="-119.5" font-family="Helvetica,sans-Serif" font-size="10.00">uihelpers/mousedpadsettingsdialoghelper.h</text>
</a>
</g>
</g>
<!-- Node65&#45;&gt;Node68 -->
<g id="edge55" class="edge">
<title>Node65&#45;&gt;Node68</title>
<path fill="none" stroke="midnightblue" d="M565.78,-168.32C580.27,-159.82 602.57,-146.73 619.49,-136.8"/>
<polygon fill="midnightblue" stroke="midnightblue" points="621.4,-139.74 628.26,-131.65 617.86,-133.7 621.4,-139.74"/>
</g>
<!-- Node67&#45;&gt;Node24 -->
<g id="edge54" class="edge">
<title>Node67&#45;&gt;Node24</title>
<path fill="none" stroke="midnightblue" d="M310.04,-112.32C300.87,-104.34 287.06,-92.31 275.97,-82.65"/>
<polygon fill="midnightblue" stroke="midnightblue" points="277.98,-79.76 268.14,-75.83 273.38,-85.04 277.98,-79.76"/>
</g>
<!-- Node68&#45;&gt;Node9 -->
<g id="edge56" class="edge">
<title>Node68&#45;&gt;Node9</title>
<path fill="none" stroke="midnightblue" d="M541.76,-112.46C487.89,-104.13 438.31,-87.81 468,-56 510.08,-10.92 950.85,-9.95 1082.85,-10.69"/>
<polygon fill="midnightblue" stroke="midnightblue" points="1083.21,-14.19 1093.23,-10.75 1083.26,-7.19 1083.21,-14.19"/>
</g>
</g>
</svg>
