<?xml version="1.0" encoding="UTF-8" standalone="no"?>
<!DOCTYPE svg PUBLIC "-//W3C//DTD SVG 1.1//EN"
 "http://www.w3.org/Graphics/SVG/1.1/DTD/svg11.dtd">
<!-- Generated by graphviz version 2.43.0 (0)
 -->
<!-- Title: /home/pawel/antimicrox/src/uihelpers/dpadeditdialoghelper.h Pages: 1 -->
<svg width="978pt" height="319pt"
 viewBox="0.00 0.00 978.00 319.00" xmlns="http://www.w3.org/2000/svg" xmlns:xlink="http://www.w3.org/1999/xlink">
<g id="graph0" class="graph" transform="scale(1 1) rotate(0) translate(4 315)">
<title>/home/pawel/antimicrox/src/uihelpers/dpadeditdialoghelper.h</title>
<polygon fill="white" stroke="transparent" points="-4,4 -4,-315 974,-315 974,4 -4,4"/>
<!-- Node1 -->
<g id="node1" class="node">
<title>Node1</title>
<g id="a_node1"><a xlink:title=" ">
<polygon fill="#bfbfbf" stroke="black" points="479.5,-280.5 479.5,-310.5 655.5,-310.5 655.5,-280.5 479.5,-280.5"/>
<text text-anchor="start" x="487.5" y="-298.5" font-family="Helvetica,sans-Serif" font-size="10.00">/home/pawel/antimicrox</text>
<text text-anchor="middle" x="567.5" y="-287.5" font-family="Helvetica,sans-Serif" font-size="10.00">/src/uihelpers/dpadeditdialoghelper.h</text>
</a>
</g>
</g>
<!-- Node2 -->
<g id="node2" class="node">
<title>Node2</title>
<g id="a_node2"><a xlink:href="joydpad_8h.html" target="_top" xlink:title=" ">
<polygon fill="white" stroke="black" points="538,-224.5 538,-243.5 597,-243.5 597,-224.5 538,-224.5"/>
<text text-anchor="middle" x="567.5" y="-231.5" font-family="Helvetica,sans-Serif" font-size="10.00">joydpad.h</text>
</a>
</g>
</g>
<!-- Node1&#45;&gt;Node2 -->
<g id="edge1" class="edge">
<title>Node1&#45;&gt;Node2</title>
<path fill="none" stroke="midnightblue" d="M567.5,-280.4C567.5,-272.47 567.5,-262.46 567.5,-253.86"/>
<polygon fill="midnightblue" stroke="midnightblue" points="571,-253.66 567.5,-243.66 564,-253.66 571,-253.66"/>
</g>
<!-- Node3 -->
<g id="node3" class="node">
<title>Node3</title>
<g id="a_node3"><a xlink:href="joydpadbutton_8h.html" target="_top" xlink:title=" ">
<polygon fill="white" stroke="black" points="491.5,-168.5 491.5,-187.5 643.5,-187.5 643.5,-168.5 491.5,-168.5"/>
<text text-anchor="middle" x="567.5" y="-175.5" font-family="Helvetica,sans-Serif" font-size="10.00">joybuttontypes/joydpadbutton.h</text>
</a>
</g>
</g>
<!-- Node2&#45;&gt;Node3 -->
<g id="edge2" class="edge">
<title>Node2&#45;&gt;Node3</title>
<path fill="none" stroke="midnightblue" d="M567.5,-224.08C567.5,-217.01 567.5,-206.86 567.5,-197.99"/>
<polygon fill="midnightblue" stroke="midnightblue" points="571,-197.75 567.5,-187.75 564,-197.75 571,-197.75"/>
</g>
<!-- Node4 -->
<g id="node4" class="node">
<title>Node4</title>
<g id="a_node4"><a xlink:href="joybutton_8h.html" target="_top" xlink:title=" ">
<polygon fill="white" stroke="black" points="535,-112.5 535,-131.5 600,-131.5 600,-112.5 535,-112.5"/>
<text text-anchor="middle" x="567.5" y="-119.5" font-family="Helvetica,sans-Serif" font-size="10.00">joybutton.h</text>
</a>
</g>
</g>
<!-- Node3&#45;&gt;Node4 -->
<g id="edge3" class="edge">
<title>Node3&#45;&gt;Node4</title>
<path fill="none" stroke="midnightblue" d="M567.5,-168.08C567.5,-161.01 567.5,-150.86 567.5,-141.99"/>
<polygon fill="midnightblue" stroke="midnightblue" points="571,-141.75 567.5,-131.75 564,-141.75 571,-141.75"/>
</g>
<!-- Node5 -->
<g id="node5" class="node">
<title>Node5</title>
<g id="a_node5"><a xlink:href="globalvariables_8h.html" target="_top" xlink:title=" ">
<polygon fill="white" stroke="black" points="0,-56.5 0,-75.5 89,-75.5 89,-56.5 0,-56.5"/>
<text text-anchor="middle" x="44.5" y="-63.5" font-family="Helvetica,sans-Serif" font-size="10.00">globalvariables.h</text>
</a>
</g>
</g>
<!-- Node4&#45;&gt;Node5 -->
<g id="edge4" class="edge">
<title>Node4&#45;&gt;Node5</title>
<path fill="none" stroke="midnightblue" d="M534.93,-118.7C459.9,-113.23 268.89,-98.31 99.39,-76.17"/>
<polygon fill="midnightblue" stroke="midnightblue" points="99.66,-72.68 89.28,-74.84 98.74,-79.62 99.66,-72.68"/>
</g>
<!-- Node8 -->
<g id="node8" class="node">
<title>Node8</title>
<g id="a_node8"><a xlink:href="joybuttonmousehelper_8h.html" target="_top" xlink:title=" ">
<polygon fill="white" stroke="black" points="106.5,-56.5 106.5,-75.5 226.5,-75.5 226.5,-56.5 106.5,-56.5"/>
<text text-anchor="middle" x="166.5" y="-63.5" font-family="Helvetica,sans-Serif" font-size="10.00">joybuttonmousehelper.h</text>
</a>
</g>
</g>
<!-- Node4&#45;&gt;Node8 -->
<g id="edge7" class="edge">
<title>Node4&#45;&gt;Node8</title>
<path fill="none" stroke="midnightblue" d="M534.68,-116.58C469.91,-107.86 324.33,-88.25 236.88,-76.48"/>
<polygon fill="midnightblue" stroke="midnightblue" points="237.16,-72.98 226.78,-75.12 236.22,-79.92 237.16,-72.98"/>
</g>
<!-- Node9 -->
<g id="node9" class="node">
<title>Node9</title>
<g id="a_node9"><a xlink:href="joybuttonslot_8h.html" target="_top" xlink:title=" ">
<polygon fill="white" stroke="black" points="244.5,-56.5 244.5,-75.5 324.5,-75.5 324.5,-56.5 244.5,-56.5"/>
<text text-anchor="middle" x="284.5" y="-63.5" font-family="Helvetica,sans-Serif" font-size="10.00">joybuttonslot.h</text>
</a>
</g>
</g>
<!-- Node4&#45;&gt;Node9 -->
<g id="edge9" class="edge">
<title>Node4&#45;&gt;Node9</title>
<path fill="none" stroke="midnightblue" d="M534.76,-114.75C485.62,-105.38 392.42,-87.59 334.67,-76.57"/>
<polygon fill="midnightblue" stroke="midnightblue" points="335.14,-73.1 324.67,-74.66 333.83,-79.98 335.14,-73.1"/>
</g>
<!-- Node15 -->
<g id="node15" class="node">
<title>Node15</title>
<g id="a_node15"><a xlink:href="springmousemoveinfo_8h.html" target="_top" xlink:title=" ">
<polygon fill="white" stroke="black" points="343,-56.5 343,-75.5 462,-75.5 462,-56.5 343,-56.5"/>
<text text-anchor="middle" x="402.5" y="-63.5" font-family="Helvetica,sans-Serif" font-size="10.00">springmousemoveinfo.h</text>
</a>
</g>
</g>
<!-- Node4&#45;&gt;Node15 -->
<g id="edge16" class="edge">
<title>Node4&#45;&gt;Node15</title>
<path fill="none" stroke="midnightblue" d="M541.36,-112.44C513.48,-103.32 469.15,-88.81 438.1,-78.65"/>
<polygon fill="midnightblue" stroke="midnightblue" points="439.12,-75.3 428.52,-75.52 436.94,-81.95 439.12,-75.3"/>
</g>
<!-- Node16 -->
<g id="node16" class="node">
<title>Node16</title>
<g id="a_node16"><a xlink:title=" ">
<polygon fill="white" stroke="#bfbfbf" points="480,-56.5 480,-75.5 567,-75.5 567,-56.5 480,-56.5"/>
<text text-anchor="middle" x="523.5" y="-63.5" font-family="Helvetica,sans-Serif" font-size="10.00">QDeadlineTimer</text>
</a>
</g>
</g>
<!-- Node4&#45;&gt;Node16 -->
<g id="edge17" class="edge">
<title>Node4&#45;&gt;Node16</title>
<path fill="none" stroke="midnightblue" d="M560.23,-112.08C553.96,-104.38 544.71,-93.03 537.07,-83.65"/>
<polygon fill="midnightblue" stroke="midnightblue" points="539.66,-81.29 530.63,-75.75 534.23,-85.71 539.66,-81.29"/>
</g>
<!-- Node17 -->
<g id="node17" class="node">
<title>Node17</title>
<g id="a_node17"><a xlink:title=" ">
<polygon fill="white" stroke="#bfbfbf" points="585,-56.5 585,-75.5 638,-75.5 638,-56.5 585,-56.5"/>
<text text-anchor="middle" x="611.5" y="-63.5" font-family="Helvetica,sans-Serif" font-size="10.00">QQueue</text>
</a>
</g>
</g>
<!-- Node4&#45;&gt;Node17 -->
<g id="edge18" class="edge">
<title>Node4&#45;&gt;Node17</title>
<path fill="none" stroke="midnightblue" d="M574.77,-112.08C581.04,-104.38 590.29,-93.03 597.93,-83.65"/>
<polygon fill="midnightblue" stroke="midnightblue" points="600.77,-85.71 604.37,-75.75 595.34,-81.29 600.77,-85.71"/>
</g>
<!-- Node18 -->
<g id="node18" class="node">
<title>Node18</title>
<g id="a_node18"><a xlink:title=" ">
<polygon fill="white" stroke="#bfbfbf" points="656.5,-56.5 656.5,-75.5 746.5,-75.5 746.5,-56.5 656.5,-56.5"/>
<text text-anchor="middle" x="701.5" y="-63.5" font-family="Helvetica,sans-Serif" font-size="10.00">QReadWriteLock</text>
</a>
</g>
</g>
<!-- Node4&#45;&gt;Node18 -->
<g id="edge19" class="edge">
<title>Node4&#45;&gt;Node18</title>
<path fill="none" stroke="midnightblue" d="M588.73,-112.44C610.88,-103.52 645.82,-89.44 670.94,-79.32"/>
<polygon fill="midnightblue" stroke="midnightblue" points="672.4,-82.5 680.37,-75.52 669.78,-76.01 672.4,-82.5"/>
</g>
<!-- Node19 -->
<g id="node19" class="node">
<title>Node19</title>
<g id="a_node19"><a xlink:title=" ">
<polygon fill="white" stroke="#bfbfbf" points="765,-56.5 765,-75.5 830,-75.5 830,-56.5 765,-56.5"/>
<text text-anchor="middle" x="797.5" y="-63.5" font-family="Helvetica,sans-Serif" font-size="10.00">QRunnable</text>
</a>
</g>
</g>
<!-- Node4&#45;&gt;Node19 -->
<g id="edge20" class="edge">
<title>Node4&#45;&gt;Node19</title>
<path fill="none" stroke="midnightblue" d="M600.45,-113.26C641.13,-103.71 710.39,-87.45 755.02,-76.97"/>
<polygon fill="midnightblue" stroke="midnightblue" points="756.04,-80.33 764.98,-74.64 754.44,-73.51 756.04,-80.33"/>
</g>
<!-- Node20 -->
<g id="node20" class="node">
<title>Node20</title>
<g id="a_node20"><a xlink:title=" ">
<polygon fill="white" stroke="#bfbfbf" points="848.5,-56.5 848.5,-75.5 902.5,-75.5 902.5,-56.5 848.5,-56.5"/>
<text text-anchor="middle" x="875.5" y="-63.5" font-family="Helvetica,sans-Serif" font-size="10.00">QThread</text>
</a>
</g>
</g>
<!-- Node4&#45;&gt;Node20 -->
<g id="edge21" class="edge">
<title>Node4&#45;&gt;Node20</title>
<path fill="none" stroke="midnightblue" d="M600.32,-116.45C649.79,-109.4 746.61,-94.85 838.41,-76.09"/>
<polygon fill="midnightblue" stroke="midnightblue" points="839.34,-79.47 848.43,-74.02 837.93,-72.61 839.34,-79.47"/>
</g>
<!-- Node21 -->
<g id="node21" class="node">
<title>Node21</title>
<g id="a_node21"><a xlink:title=" ">
<polygon fill="white" stroke="#bfbfbf" points="921,-56.5 921,-75.5 970,-75.5 970,-56.5 921,-56.5"/>
<text text-anchor="middle" x="945.5" y="-63.5" font-family="Helvetica,sans-Serif" font-size="10.00">QTimer</text>
</a>
</g>
</g>
<!-- Node4&#45;&gt;Node21 -->
<g id="edge22" class="edge">
<title>Node4&#45;&gt;Node21</title>
<path fill="none" stroke="midnightblue" d="M600.46,-118.11C660.3,-112.57 790.93,-99.05 910.64,-75.93"/>
<polygon fill="midnightblue" stroke="midnightblue" points="911.56,-79.32 920.7,-73.96 910.22,-72.45 911.56,-79.32"/>
</g>
<!-- Node6 -->
<g id="node6" class="node">
<title>Node6</title>
<g id="a_node6"><a xlink:title=" ">
<polygon fill="white" stroke="#bfbfbf" points="24.5,-0.5 24.5,-19.5 64.5,-19.5 64.5,-0.5 24.5,-0.5"/>
<text text-anchor="middle" x="44.5" y="-7.5" font-family="Helvetica,sans-Serif" font-size="10.00">QList</text>
</a>
</g>
</g>
<!-- Node5&#45;&gt;Node6 -->
<g id="edge5" class="edge">
<title>Node5&#45;&gt;Node6</title>
<path fill="none" stroke="midnightblue" d="M44.5,-56.08C44.5,-49.01 44.5,-38.86 44.5,-29.99"/>
<polygon fill="midnightblue" stroke="midnightblue" points="48,-29.75 44.5,-19.75 41,-29.75 48,-29.75"/>
</g>
<!-- Node7 -->
<g id="node7" class="node">
<title>Node7</title>
<g id="a_node7"><a xlink:title=" ">
<polygon fill="white" stroke="#bfbfbf" points="83,-0.5 83,-19.5 136,-19.5 136,-0.5 83,-0.5"/>
<text text-anchor="middle" x="109.5" y="-7.5" font-family="Helvetica,sans-Serif" font-size="10.00">QObject</text>
</a>
</g>
</g>
<!-- Node5&#45;&gt;Node7 -->
<g id="edge6" class="edge">
<title>Node5&#45;&gt;Node7</title>
<path fill="none" stroke="midnightblue" d="M54.94,-56.32C64.65,-48.26 79.32,-36.08 91,-26.37"/>
<polygon fill="midnightblue" stroke="midnightblue" points="93.41,-28.92 98.87,-19.83 88.94,-23.53 93.41,-28.92"/>
</g>
<!-- Node8&#45;&gt;Node7 -->
<g id="edge8" class="edge">
<title>Node8&#45;&gt;Node7</title>
<path fill="none" stroke="midnightblue" d="M157.34,-56.32C149,-48.42 136.47,-36.55 126.32,-26.94"/>
<polygon fill="midnightblue" stroke="midnightblue" points="128.49,-24.17 118.82,-19.83 123.68,-29.25 128.49,-24.17"/>
</g>
<!-- Node9&#45;&gt;Node7 -->
<g id="edge11" class="edge">
<title>Node9&#45;&gt;Node7</title>
<path fill="none" stroke="midnightblue" d="M256.77,-56.44C226.81,-47.2 178.95,-32.43 145.96,-22.25"/>
<polygon fill="midnightblue" stroke="midnightblue" points="146.83,-18.85 136.24,-19.25 144.76,-25.54 146.83,-18.85"/>
</g>
<!-- Node10 -->
<g id="node10" class="node">
<title>Node10</title>
<g id="a_node10"><a xlink:title=" ">
<polygon fill="white" stroke="#bfbfbf" points="154.5,-0.5 154.5,-19.5 238.5,-19.5 238.5,-0.5 154.5,-0.5"/>
<text text-anchor="middle" x="196.5" y="-7.5" font-family="Helvetica,sans-Serif" font-size="10.00">QElapsedTimer</text>
</a>
</g>
</g>
<!-- Node9&#45;&gt;Node10 -->
<g id="edge10" class="edge">
<title>Node9&#45;&gt;Node10</title>
<path fill="none" stroke="midnightblue" d="M270.36,-56.32C256.63,-47.9 235.56,-34.97 219.44,-25.07"/>
<polygon fill="midnightblue" stroke="midnightblue" points="220.96,-21.9 210.6,-19.65 217.3,-27.87 220.96,-21.9"/>
</g>
<!-- Node11 -->
<g id="node11" class="node">
<title>Node11</title>
<g id="a_node11"><a xlink:title=" ">
<polygon fill="white" stroke="#bfbfbf" points="257,-0.5 257,-19.5 312,-19.5 312,-0.5 257,-0.5"/>
<text text-anchor="middle" x="284.5" y="-7.5" font-family="Helvetica,sans-Serif" font-size="10.00">QPointer</text>
</a>
</g>
</g>
<!-- Node9&#45;&gt;Node11 -->
<g id="edge12" class="edge">
<title>Node9&#45;&gt;Node11</title>
<path fill="none" stroke="midnightblue" d="M284.5,-56.08C284.5,-49.01 284.5,-38.86 284.5,-29.99"/>
<polygon fill="midnightblue" stroke="midnightblue" points="288,-29.75 284.5,-19.75 281,-29.75 288,-29.75"/>
</g>
<!-- Node12 -->
<g id="node12" class="node">
<title>Node12</title>
<g id="a_node12"><a xlink:title=" ">
<polygon fill="white" stroke="#bfbfbf" points="330.5,-0.5 330.5,-19.5 376.5,-19.5 376.5,-0.5 330.5,-0.5"/>
<text text-anchor="middle" x="353.5" y="-7.5" font-family="Helvetica,sans-Serif" font-size="10.00">QTime</text>
</a>
</g>
</g>
<!-- Node9&#45;&gt;Node12 -->
<g id="edge13" class="edge">
<title>Node9&#45;&gt;Node12</title>
<path fill="none" stroke="midnightblue" d="M295.59,-56.32C305.99,-48.18 321.76,-35.84 334.22,-26.09"/>
<polygon fill="midnightblue" stroke="midnightblue" points="336.49,-28.75 342.21,-19.83 332.18,-23.24 336.49,-28.75"/>
</g>
<!-- Node13 -->
<g id="node13" class="node">
<title>Node13</title>
<g id="a_node13"><a xlink:title=" ">
<polygon fill="white" stroke="#bfbfbf" points="394.5,-0.5 394.5,-19.5 448.5,-19.5 448.5,-0.5 394.5,-0.5"/>
<text text-anchor="middle" x="421.5" y="-7.5" font-family="Helvetica,sans-Serif" font-size="10.00">QVariant</text>
</a>
</g>
</g>
<!-- Node9&#45;&gt;Node13 -->
<g id="edge14" class="edge">
<title>Node9&#45;&gt;Node13</title>
<path fill="none" stroke="midnightblue" d="M306.21,-56.44C328.85,-47.52 364.57,-33.44 390.25,-23.32"/>
<polygon fill="midnightblue" stroke="midnightblue" points="391.87,-26.44 399.89,-19.52 389.31,-19.93 391.87,-26.44"/>
</g>
<!-- Node14 -->
<g id="node14" class="node">
<title>Node14</title>
<g id="a_node14"><a xlink:title=" ">
<polygon fill="white" stroke="#bfbfbf" points="466.5,-0.5 466.5,-19.5 588.5,-19.5 588.5,-0.5 466.5,-0.5"/>
<text text-anchor="middle" x="527.5" y="-7.5" font-family="Helvetica,sans-Serif" font-size="10.00">QtWidgets/QApplication</text>
</a>
</g>
</g>
<!-- Node9&#45;&gt;Node14 -->
<g id="edge15" class="edge">
<title>Node9&#45;&gt;Node14</title>
<path fill="none" stroke="midnightblue" d="M323,-56.44C365.31,-47.04 433.32,-31.93 479.17,-21.74"/>
<polygon fill="midnightblue" stroke="midnightblue" points="480.17,-25.1 489.18,-19.52 478.65,-18.27 480.17,-25.1"/>
</g>
</g>
</svg>
