<?xml version="1.0" encoding="UTF-8" standalone="no"?>
<!DOCTYPE svg PUBLIC "-//W3C//DTD SVG 1.1//EN"
 "http://www.w3.org/Graphics/SVG/1.1/DTD/svg11.dtd">
<!-- Generated by graphviz version 2.43.0 (0)
 -->
<!-- Title: /home/pawel/antimicrox/src/extraprofilesettingsdialog.cpp Pages: 1 -->
<svg width="1689pt" height="487pt"
 viewBox="0.00 0.00 1689.00 487.00" xmlns="http://www.w3.org/2000/svg" xmlns:xlink="http://www.w3.org/1999/xlink">
<g id="graph0" class="graph" transform="scale(1 1) rotate(0) translate(4 483)">
<title>/home/pawel/antimicrox/src/extraprofilesettingsdialog.cpp</title>
<polygon fill="white" stroke="transparent" points="-4,4 -4,-483 1685,-483 1685,4 -4,4"/>
<!-- Node1 -->
<g id="node1" class="node">
<title>Node1</title>
<g id="a_node1"><a xlink:title=" ">
<polygon fill="#bfbfbf" stroke="black" points="793,-448.5 793,-478.5 956,-478.5 956,-448.5 793,-448.5"/>
<text text-anchor="start" x="801" y="-466.5" font-family="Helvetica,sans-Serif" font-size="10.00">/home/pawel/antimicrox</text>
<text text-anchor="middle" x="874.5" y="-455.5" font-family="Helvetica,sans-Serif" font-size="10.00">/src/extraprofilesettingsdialog.cpp</text>
</a>
</g>
</g>
<!-- Node2 -->
<g id="node2" class="node">
<title>Node2</title>
<g id="a_node2"><a xlink:href="$extraprofilesettingsdialog_8h.html" xlink:title=" ">
<polygon fill="white" stroke="black" points="0,-392.5 0,-411.5 133,-411.5 133,-392.5 0,-392.5"/>
<text text-anchor="middle" x="66.5" y="-399.5" font-family="Helvetica,sans-Serif" font-size="10.00">extraprofilesettingsdialog.h</text>
</a>
</g>
</g>
<!-- Node1&#45;&gt;Node2 -->
<g id="edge1" class="edge">
<title>Node1&#45;&gt;Node2</title>
<path fill="none" stroke="midnightblue" d="M792.88,-458.18C659.4,-450.82 385.86,-434.53 143.28,-412.03"/>
<polygon fill="midnightblue" stroke="midnightblue" points="143.49,-408.53 133.21,-411.09 142.84,-415.5 143.49,-408.53"/>
</g>
<!-- Node4 -->
<g id="node4" class="node">
<title>Node4</title>
<g id="a_node4"><a xlink:title=" ">
<polygon fill="white" stroke="#bfbfbf" points="151.5,-392.5 151.5,-411.5 297.5,-411.5 297.5,-392.5 151.5,-392.5"/>
<text text-anchor="middle" x="224.5" y="-399.5" font-family="Helvetica,sans-Serif" font-size="10.00">ui_extraprofilesettingsdialog.h</text>
</a>
</g>
</g>
<!-- Node1&#45;&gt;Node4 -->
<g id="edge3" class="edge">
<title>Node1&#45;&gt;Node4</title>
<path fill="none" stroke="midnightblue" d="M792.62,-455.75C684.23,-446.7 486.89,-429.81 307.94,-412.13"/>
<polygon fill="midnightblue" stroke="midnightblue" points="308.11,-408.63 297.81,-411.12 307.42,-415.59 308.11,-408.63"/>
</g>
<!-- Node5 -->
<g id="node5" class="node">
<title>Node5</title>
<g id="a_node5"><a xlink:title=" ">
<polygon fill="white" stroke="#bfbfbf" points="316,-392.5 316,-411.5 405,-411.5 405,-392.5 316,-392.5"/>
<text text-anchor="middle" x="360.5" y="-399.5" font-family="Helvetica,sans-Serif" font-size="10.00">QtCore/QVariant</text>
</a>
</g>
</g>
<!-- Node1&#45;&gt;Node5 -->
<g id="edge4" class="edge">
<title>Node1&#45;&gt;Node5</title>
<path fill="none" stroke="midnightblue" d="M792.6,-454.43C701.41,-445.2 549.71,-429.15 419.5,-412 418.2,-411.83 416.88,-411.65 415.56,-411.47"/>
<polygon fill="midnightblue" stroke="midnightblue" points="415.64,-407.95 405.25,-410.02 414.67,-414.88 415.64,-407.95"/>
</g>
<!-- Node6 -->
<g id="node6" class="node">
<title>Node6</title>
<g id="a_node6"><a xlink:title=" ">
<polygon fill="white" stroke="#bfbfbf" points="372.5,-0.5 372.5,-19.5 494.5,-19.5 494.5,-0.5 372.5,-0.5"/>
<text text-anchor="middle" x="433.5" y="-7.5" font-family="Helvetica,sans-Serif" font-size="10.00">QtWidgets/QApplication</text>
</a>
</g>
</g>
<!-- Node1&#45;&gt;Node6 -->
<g id="edge5" class="edge">
<title>Node1&#45;&gt;Node6</title>
<path fill="none" stroke="midnightblue" d="M792.98,-463.1C684.99,-462.19 502.33,-454.21 452.5,-412 429.53,-392.55 433.5,-377.1 433.5,-347 433.5,-347 433.5,-347 433.5,-121 433.5,-88.95 433.5,-51.64 433.5,-29.75"/>
<polygon fill="midnightblue" stroke="midnightblue" points="437,-29.56 433.5,-19.56 430,-29.56 437,-29.56"/>
</g>
<!-- Node7 -->
<g id="node7" class="node">
<title>Node7</title>
<g id="a_node7"><a xlink:title=" ">
<polygon fill="white" stroke="#bfbfbf" points="462,-392.5 462,-411.5 563,-411.5 563,-392.5 462,-392.5"/>
<text text-anchor="middle" x="512.5" y="-399.5" font-family="Helvetica,sans-Serif" font-size="10.00">QtWidgets/QDialog</text>
</a>
</g>
</g>
<!-- Node1&#45;&gt;Node7 -->
<g id="edge6" class="edge">
<title>Node1&#45;&gt;Node7</title>
<path fill="none" stroke="midnightblue" d="M792.81,-449.07C726.18,-438.12 633.55,-422.9 573.31,-413"/>
<polygon fill="midnightblue" stroke="midnightblue" points="573.63,-409.5 563.2,-411.33 572.5,-416.41 573.63,-409.5"/>
</g>
<!-- Node8 -->
<g id="node8" class="node">
<title>Node8</title>
<g id="a_node8"><a xlink:title=" ">
<polygon fill="white" stroke="#bfbfbf" points="581,-392.5 581,-411.5 728,-411.5 728,-392.5 581,-392.5"/>
<text text-anchor="middle" x="654.5" y="-399.5" font-family="Helvetica,sans-Serif" font-size="10.00">QtWidgets/QDialogButtonBox</text>
</a>
</g>
</g>
<!-- Node1&#45;&gt;Node8 -->
<g id="edge7" class="edge">
<title>Node1&#45;&gt;Node8</title>
<path fill="none" stroke="midnightblue" d="M822.64,-448.47C783.86,-437.99 731.54,-423.84 695.62,-414.12"/>
<polygon fill="midnightblue" stroke="midnightblue" points="696.52,-410.74 685.95,-411.51 694.69,-417.5 696.52,-410.74"/>
</g>
<!-- Node9 -->
<g id="node9" class="node">
<title>Node9</title>
<g id="a_node9"><a xlink:title=" ">
<polygon fill="white" stroke="#bfbfbf" points="746,-392.5 746,-411.5 873,-411.5 873,-392.5 746,-392.5"/>
<text text-anchor="middle" x="809.5" y="-399.5" font-family="Helvetica,sans-Serif" font-size="10.00">QtWidgets/QHBoxLayout</text>
</a>
</g>
</g>
<!-- Node1&#45;&gt;Node9 -->
<g id="edge8" class="edge">
<title>Node1&#45;&gt;Node9</title>
<path fill="none" stroke="midnightblue" d="M859.1,-448.4C849.26,-439.4 836.51,-427.72 826.39,-418.47"/>
<polygon fill="midnightblue" stroke="midnightblue" points="828.7,-415.83 818.96,-411.66 823.97,-420.99 828.7,-415.83"/>
</g>
<!-- Node10 -->
<g id="node10" class="node">
<title>Node10</title>
<g id="a_node10"><a xlink:title=" ">
<polygon fill="white" stroke="#bfbfbf" points="891,-392.5 891,-411.5 988,-411.5 988,-392.5 891,-392.5"/>
<text text-anchor="middle" x="939.5" y="-399.5" font-family="Helvetica,sans-Serif" font-size="10.00">QtWidgets/QLabel</text>
</a>
</g>
</g>
<!-- Node1&#45;&gt;Node10 -->
<g id="edge9" class="edge">
<title>Node1&#45;&gt;Node10</title>
<path fill="none" stroke="midnightblue" d="M889.9,-448.4C899.74,-439.4 912.49,-427.72 922.61,-418.47"/>
<polygon fill="midnightblue" stroke="midnightblue" points="925.03,-420.99 930.04,-411.66 920.3,-415.83 925.03,-420.99"/>
</g>
<!-- Node11 -->
<g id="node11" class="node">
<title>Node11</title>
<g id="a_node11"><a xlink:title=" ">
<polygon fill="white" stroke="#bfbfbf" points="1006,-392.5 1006,-411.5 1115,-411.5 1115,-392.5 1006,-392.5"/>
<text text-anchor="middle" x="1060.5" y="-399.5" font-family="Helvetica,sans-Serif" font-size="10.00">QtWidgets/QLineEdit</text>
</a>
</g>
</g>
<!-- Node1&#45;&gt;Node11 -->
<g id="edge10" class="edge">
<title>Node1&#45;&gt;Node11</title>
<path fill="none" stroke="midnightblue" d="M918.58,-448.4C950.72,-438.12 993.76,-424.35 1023.98,-414.68"/>
<polygon fill="midnightblue" stroke="midnightblue" points="1025.25,-417.95 1033.71,-411.57 1023.12,-411.28 1025.25,-417.95"/>
</g>
<!-- Node12 -->
<g id="node12" class="node">
<title>Node12</title>
<g id="a_node12"><a xlink:title=" ">
<polygon fill="white" stroke="#bfbfbf" points="1133.5,-392.5 1133.5,-411.5 1231.5,-411.5 1231.5,-392.5 1133.5,-392.5"/>
<text text-anchor="middle" x="1182.5" y="-399.5" font-family="Helvetica,sans-Serif" font-size="10.00">QtWidgets/QSlider</text>
</a>
</g>
</g>
<!-- Node1&#45;&gt;Node12 -->
<g id="edge11" class="edge">
<title>Node1&#45;&gt;Node12</title>
<path fill="none" stroke="midnightblue" d="M947.1,-448.47C1002.67,-437.74 1078.09,-423.17 1128.43,-413.44"/>
<polygon fill="midnightblue" stroke="midnightblue" points="1129.31,-416.84 1138.47,-411.51 1127.98,-409.97 1129.31,-416.84"/>
</g>
<!-- Node13 -->
<g id="node13" class="node">
<title>Node13</title>
<g id="a_node13"><a xlink:title=" ">
<polygon fill="white" stroke="#bfbfbf" points="1249.5,-392.5 1249.5,-411.5 1373.5,-411.5 1373.5,-392.5 1249.5,-392.5"/>
<text text-anchor="middle" x="1311.5" y="-399.5" font-family="Helvetica,sans-Serif" font-size="10.00">QtWidgets/QSpacerItem</text>
</a>
</g>
</g>
<!-- Node1&#45;&gt;Node13 -->
<g id="edge12" class="edge">
<title>Node1&#45;&gt;Node13</title>
<path fill="none" stroke="midnightblue" d="M956.18,-451.38C1037.51,-440.3 1161.16,-423.47 1239.08,-412.86"/>
<polygon fill="midnightblue" stroke="midnightblue" points="1239.85,-416.29 1249.29,-411.47 1238.91,-409.35 1239.85,-416.29"/>
</g>
<!-- Node14 -->
<g id="node14" class="node">
<title>Node14</title>
<g id="a_node14"><a xlink:title=" ">
<polygon fill="white" stroke="#bfbfbf" points="1391.5,-392.5 1391.5,-411.5 1517.5,-411.5 1517.5,-392.5 1391.5,-392.5"/>
<text text-anchor="middle" x="1454.5" y="-399.5" font-family="Helvetica,sans-Serif" font-size="10.00">QtWidgets/QVBoxLayout</text>
</a>
</g>
</g>
<!-- Node1&#45;&gt;Node14 -->
<g id="edge13" class="edge">
<title>Node1&#45;&gt;Node14</title>
<path fill="none" stroke="midnightblue" d="M956.39,-455C1054.7,-445.85 1224.82,-429.57 1381.03,-412.14"/>
<polygon fill="midnightblue" stroke="midnightblue" points="1381.75,-415.58 1391.29,-410.99 1380.97,-408.63 1381.75,-415.58"/>
</g>
<!-- Node15 -->
<g id="node15" class="node">
<title>Node15</title>
<g id="a_node15"><a xlink:href="$inputdevice_8h.html" xlink:title=" ">
<polygon fill="white" stroke="black" points="1535.5,-392.5 1535.5,-411.5 1609.5,-411.5 1609.5,-392.5 1535.5,-392.5"/>
<text text-anchor="middle" x="1572.5" y="-399.5" font-family="Helvetica,sans-Serif" font-size="10.00">inputdevice.h</text>
</a>
</g>
</g>
<!-- Node1&#45;&gt;Node15 -->
<g id="edge14" class="edge">
<title>Node1&#45;&gt;Node15</title>
<path fill="none" stroke="midnightblue" d="M956.14,-459.22C1077.99,-453.65 1314.77,-440.21 1525.4,-412"/>
<polygon fill="midnightblue" stroke="midnightblue" points="1525.96,-415.45 1535.4,-410.64 1525.03,-408.51 1525.96,-415.45"/>
</g>
<!-- Node39 -->
<g id="node39" class="node">
<title>Node39</title>
<g id="a_node39"><a xlink:title=" ">
<polygon fill="white" stroke="#bfbfbf" points="1628,-392.5 1628,-411.5 1681,-411.5 1681,-392.5 1628,-392.5"/>
<text text-anchor="middle" x="1654.5" y="-399.5" font-family="Helvetica,sans-Serif" font-size="10.00">QDebug</text>
</a>
</g>
</g>
<!-- Node1&#45;&gt;Node39 -->
<g id="edge44" class="edge">
<title>Node1&#45;&gt;Node39</title>
<path fill="none" stroke="midnightblue" d="M956.22,-461.67C1091.87,-459.27 1372.04,-449.89 1617.68,-411.82"/>
<polygon fill="midnightblue" stroke="midnightblue" points="1618.54,-415.22 1627.87,-410.22 1617.45,-408.31 1618.54,-415.22"/>
</g>
<!-- Node3 -->
<g id="node3" class="node">
<title>Node3</title>
<g id="a_node3"><a xlink:title=" ">
<polygon fill="white" stroke="#bfbfbf" points="40.5,-336.5 40.5,-355.5 92.5,-355.5 92.5,-336.5 40.5,-336.5"/>
<text text-anchor="middle" x="66.5" y="-343.5" font-family="Helvetica,sans-Serif" font-size="10.00">QDialog</text>
</a>
</g>
</g>
<!-- Node2&#45;&gt;Node3 -->
<g id="edge2" class="edge">
<title>Node2&#45;&gt;Node3</title>
<path fill="none" stroke="midnightblue" d="M66.5,-392.08C66.5,-385.01 66.5,-374.86 66.5,-365.99"/>
<polygon fill="midnightblue" stroke="midnightblue" points="70,-365.75 66.5,-355.75 63,-365.75 70,-365.75"/>
</g>
<!-- Node16 -->
<g id="node16" class="node">
<title>Node16</title>
<g id="a_node16"><a xlink:href="$setjoystick_8h.html" xlink:title=" ">
<polygon fill="white" stroke="black" points="1438,-336.5 1438,-355.5 1509,-355.5 1509,-336.5 1438,-336.5"/>
<text text-anchor="middle" x="1473.5" y="-343.5" font-family="Helvetica,sans-Serif" font-size="10.00">setjoystick.h</text>
</a>
</g>
</g>
<!-- Node15&#45;&gt;Node16 -->
<g id="edge15" class="edge">
<title>Node15&#45;&gt;Node16</title>
<path fill="none" stroke="midnightblue" d="M1556.59,-392.32C1540.86,-383.74 1516.56,-370.49 1498.29,-360.52"/>
<polygon fill="midnightblue" stroke="midnightblue" points="1499.82,-357.37 1489.37,-355.65 1496.47,-363.52 1499.82,-357.37"/>
</g>
<!-- Node38 -->
<g id="node38" class="node">
<title>Node38</title>
<g id="a_node38"><a xlink:title=" ">
<polygon fill="white" stroke="#bfbfbf" points="1527.5,-336.5 1527.5,-355.5 1637.5,-355.5 1637.5,-336.5 1527.5,-336.5"/>
<text text-anchor="middle" x="1582.5" y="-343.5" font-family="Helvetica,sans-Serif" font-size="10.00">SDL2/SDL_joystick.h</text>
</a>
</g>
</g>
<!-- Node15&#45;&gt;Node38 -->
<g id="edge43" class="edge">
<title>Node15&#45;&gt;Node38</title>
<path fill="none" stroke="midnightblue" d="M1574.15,-392.08C1575.48,-384.93 1577.38,-374.64 1579.04,-365.69"/>
<polygon fill="midnightblue" stroke="midnightblue" points="1582.5,-366.22 1580.88,-355.75 1575.62,-364.95 1582.5,-366.22"/>
</g>
<!-- Node17 -->
<g id="node17" class="node">
<title>Node17</title>
<g id="a_node17"><a xlink:href="$joyaxis_8h.html" xlink:title=" ">
<polygon fill="white" stroke="black" points="1466.5,-280.5 1466.5,-299.5 1522.5,-299.5 1522.5,-280.5 1466.5,-280.5"/>
<text text-anchor="middle" x="1494.5" y="-287.5" font-family="Helvetica,sans-Serif" font-size="10.00">joyaxis.h</text>
</a>
</g>
</g>
<!-- Node16&#45;&gt;Node17 -->
<g id="edge16" class="edge">
<title>Node16&#45;&gt;Node17</title>
<path fill="none" stroke="midnightblue" d="M1476.97,-336.08C1479.81,-328.77 1483.93,-318.18 1487.46,-309.1"/>
<polygon fill="midnightblue" stroke="midnightblue" points="1490.73,-310.34 1491.1,-299.75 1484.21,-307.8 1490.73,-310.34"/>
</g>
<!-- Node37 -->
<g id="node37" class="node">
<title>Node37</title>
<g id="a_node37"><a xlink:href="$setjoystickxml_8h.html" xlink:title=" ">
<polygon fill="white" stroke="black" points="879.5,-224.5 879.5,-243.5 985.5,-243.5 985.5,-224.5 879.5,-224.5"/>
<text text-anchor="middle" x="932.5" y="-231.5" font-family="Helvetica,sans-Serif" font-size="10.00">xml/setjoystickxml.h</text>
</a>
</g>
</g>
<!-- Node16&#45;&gt;Node37 -->
<g id="edge41" class="edge">
<title>Node16&#45;&gt;Node37</title>
<path fill="none" stroke="midnightblue" d="M1437.58,-337.7C1344.31,-318.73 1094.04,-267.85 984.76,-245.63"/>
<polygon fill="midnightblue" stroke="midnightblue" points="985.13,-242.13 974.63,-243.57 983.74,-248.99 985.13,-242.13"/>
</g>
<!-- Node18 -->
<g id="node18" class="node">
<title>Node18</title>
<g id="a_node18"><a xlink:title=" ">
<polygon fill="white" stroke="#bfbfbf" points="1569.5,-0.5 1569.5,-19.5 1609.5,-19.5 1609.5,-0.5 1569.5,-0.5"/>
<text text-anchor="middle" x="1589.5" y="-7.5" font-family="Helvetica,sans-Serif" font-size="10.00">QList</text>
</a>
</g>
</g>
<!-- Node17&#45;&gt;Node18 -->
<g id="edge17" class="edge">
<title>Node17&#45;&gt;Node18</title>
<path fill="none" stroke="midnightblue" d="M1522.55,-282.26C1566.22,-269.89 1645.5,-239.16 1645.5,-179 1645.5,-179 1645.5,-179 1645.5,-121 1645.5,-84.44 1620.62,-47.75 1604.03,-27.34"/>
<polygon fill="midnightblue" stroke="midnightblue" points="1606.65,-25.02 1597.52,-19.64 1601.3,-29.54 1606.65,-25.02"/>
</g>
<!-- Node19 -->
<g id="node19" class="node">
<title>Node19</title>
<g id="a_node19"><a xlink:title=" ">
<polygon fill="white" stroke="#bfbfbf" points="1385,-0.5 1385,-19.5 1438,-19.5 1438,-0.5 1385,-0.5"/>
<text text-anchor="middle" x="1411.5" y="-7.5" font-family="Helvetica,sans-Serif" font-size="10.00">QObject</text>
</a>
</g>
</g>
<!-- Node17&#45;&gt;Node19 -->
<g id="edge18" class="edge">
<title>Node17&#45;&gt;Node19</title>
<path fill="none" stroke="midnightblue" d="M1514.7,-280.49C1547.2,-265.29 1607.5,-230.2 1607.5,-179 1607.5,-179 1607.5,-179 1607.5,-121 1607.5,-90.9 1610.16,-76.9 1588.5,-56 1550.8,-19.62 1488.03,-11.45 1448.26,-10.24"/>
<polygon fill="midnightblue" stroke="midnightblue" points="1448.24,-6.74 1438.18,-10.06 1448.12,-13.74 1448.24,-6.74"/>
</g>
<!-- Node20 -->
<g id="node20" class="node">
<title>Node20</title>
<g id="a_node20"><a xlink:href="$joyaxisbutton_8h.html" xlink:title=" ">
<polygon fill="white" stroke="black" points="1334,-224.5 1334,-243.5 1483,-243.5 1483,-224.5 1334,-224.5"/>
<text text-anchor="middle" x="1408.5" y="-231.5" font-family="Helvetica,sans-Serif" font-size="10.00">joybuttontypes/joyaxisbutton.h</text>
</a>
</g>
</g>
<!-- Node17&#45;&gt;Node20 -->
<g id="edge19" class="edge">
<title>Node17&#45;&gt;Node20</title>
<path fill="none" stroke="midnightblue" d="M1480.68,-280.32C1467.27,-271.9 1446.68,-258.97 1430.91,-249.07"/>
<polygon fill="midnightblue" stroke="midnightblue" points="1432.61,-246.01 1422.28,-243.65 1428.89,-251.94 1432.61,-246.01"/>
</g>
<!-- Node21 -->
<g id="node21" class="node">
<title>Node21</title>
<g id="a_node21"><a xlink:href="$joygradientbutton_8h.html" xlink:title=" ">
<polygon fill="white" stroke="black" points="1240,-168.5 1240,-187.5 1405,-187.5 1405,-168.5 1240,-168.5"/>
<text text-anchor="middle" x="1322.5" y="-175.5" font-family="Helvetica,sans-Serif" font-size="10.00">joybuttontypes/joygradientbutton.h</text>
</a>
</g>
</g>
<!-- Node20&#45;&gt;Node21 -->
<g id="edge20" class="edge">
<title>Node20&#45;&gt;Node21</title>
<path fill="none" stroke="midnightblue" d="M1394.68,-224.32C1381.27,-215.9 1360.68,-202.97 1344.91,-193.07"/>
<polygon fill="midnightblue" stroke="midnightblue" points="1346.61,-190.01 1336.28,-187.65 1342.89,-195.94 1346.61,-190.01"/>
</g>
<!-- Node22 -->
<g id="node22" class="node">
<title>Node22</title>
<g id="a_node22"><a xlink:href="$joybutton_8h.html" xlink:title=" ">
<polygon fill="white" stroke="black" points="1128,-112.5 1128,-131.5 1193,-131.5 1193,-112.5 1128,-112.5"/>
<text text-anchor="middle" x="1160.5" y="-119.5" font-family="Helvetica,sans-Serif" font-size="10.00">joybutton.h</text>
</a>
</g>
</g>
<!-- Node21&#45;&gt;Node22 -->
<g id="edge21" class="edge">
<title>Node21&#45;&gt;Node22</title>
<path fill="none" stroke="midnightblue" d="M1296.83,-168.44C1269.58,-159.36 1226.32,-144.94 1195.85,-134.78"/>
<polygon fill="midnightblue" stroke="midnightblue" points="1196.64,-131.36 1186.05,-131.52 1194.43,-138 1196.64,-131.36"/>
</g>
<!-- Node23 -->
<g id="node23" class="node">
<title>Node23</title>
<g id="a_node23"><a xlink:href="$globalvariables_8h.html" xlink:title=" ">
<polygon fill="white" stroke="black" points="1490,-56.5 1490,-75.5 1579,-75.5 1579,-56.5 1490,-56.5"/>
<text text-anchor="middle" x="1534.5" y="-63.5" font-family="Helvetica,sans-Serif" font-size="10.00">globalvariables.h</text>
</a>
</g>
</g>
<!-- Node22&#45;&gt;Node23 -->
<g id="edge22" class="edge">
<title>Node22&#45;&gt;Node23</title>
<path fill="none" stroke="midnightblue" d="M1193.25,-116.67C1249.52,-109.18 1368.46,-93.08 1479.68,-76.09"/>
<polygon fill="midnightblue" stroke="midnightblue" points="1480.37,-79.53 1489.72,-74.55 1479.31,-72.61 1480.37,-79.53"/>
</g>
<!-- Node24 -->
<g id="node24" class="node">
<title>Node24</title>
<g id="a_node24"><a xlink:href="$joybuttonmousehelper_8h.html" xlink:title=" ">
<polygon fill="white" stroke="black" points="1351.5,-56.5 1351.5,-75.5 1471.5,-75.5 1471.5,-56.5 1351.5,-56.5"/>
<text text-anchor="middle" x="1411.5" y="-63.5" font-family="Helvetica,sans-Serif" font-size="10.00">joybuttonmousehelper.h</text>
</a>
</g>
</g>
<!-- Node22&#45;&gt;Node24 -->
<g id="edge25" class="edge">
<title>Node22&#45;&gt;Node24</title>
<path fill="none" stroke="midnightblue" d="M1193.06,-114C1235.99,-104.76 1311.95,-88.42 1362.02,-77.65"/>
<polygon fill="midnightblue" stroke="midnightblue" points="1362.94,-81.03 1371.98,-75.5 1361.46,-74.18 1362.94,-81.03"/>
</g>
<!-- Node25 -->
<g id="node25" class="node">
<title>Node25</title>
<g id="a_node25"><a xlink:href="$joybuttonslot_8h.html" xlink:title=" ">
<polygon fill="white" stroke="black" points="569.5,-56.5 569.5,-75.5 649.5,-75.5 649.5,-56.5 569.5,-56.5"/>
<text text-anchor="middle" x="609.5" y="-63.5" font-family="Helvetica,sans-Serif" font-size="10.00">joybuttonslot.h</text>
</a>
</g>
</g>
<!-- Node22&#45;&gt;Node25 -->
<g id="edge27" class="edge">
<title>Node22&#45;&gt;Node25</title>
<path fill="none" stroke="midnightblue" d="M1127.87,-117.91C1052.09,-110.71 858.37,-92.22 696.5,-76 684.7,-74.82 672,-73.52 660.05,-72.28"/>
<polygon fill="midnightblue" stroke="midnightblue" points="660.08,-68.77 649.78,-71.22 659.36,-75.73 660.08,-68.77"/>
</g>
<!-- Node30 -->
<g id="node30" class="node">
<title>Node30</title>
<g id="a_node30"><a xlink:href="$springmousemoveinfo_8h.html" xlink:title=" ">
<polygon fill="white" stroke="black" points="706,-56.5 706,-75.5 825,-75.5 825,-56.5 706,-56.5"/>
<text text-anchor="middle" x="765.5" y="-63.5" font-family="Helvetica,sans-Serif" font-size="10.00">springmousemoveinfo.h</text>
</a>
</g>
</g>
<!-- Node22&#45;&gt;Node30 -->
<g id="edge34" class="edge">
<title>Node22&#45;&gt;Node30</title>
<path fill="none" stroke="midnightblue" d="M1127.84,-116.54C1063.92,-107.8 921.05,-88.27 835.04,-76.51"/>
<polygon fill="midnightblue" stroke="midnightblue" points="835.48,-73.03 825.1,-75.15 834.53,-79.97 835.48,-73.03"/>
</g>
<!-- Node31 -->
<g id="node31" class="node">
<title>Node31</title>
<g id="a_node31"><a xlink:title=" ">
<polygon fill="white" stroke="#bfbfbf" points="843,-56.5 843,-75.5 930,-75.5 930,-56.5 843,-56.5"/>
<text text-anchor="middle" x="886.5" y="-63.5" font-family="Helvetica,sans-Serif" font-size="10.00">QDeadlineTimer</text>
</a>
</g>
</g>
<!-- Node22&#45;&gt;Node31 -->
<g id="edge35" class="edge">
<title>Node22&#45;&gt;Node31</title>
<path fill="none" stroke="midnightblue" d="M1127.99,-114.59C1081.55,-105.44 995.67,-88.52 939.83,-77.51"/>
<polygon fill="midnightblue" stroke="midnightblue" points="940.26,-74.03 929.77,-75.53 938.91,-80.9 940.26,-74.03"/>
</g>
<!-- Node32 -->
<g id="node32" class="node">
<title>Node32</title>
<g id="a_node32"><a xlink:title=" ">
<polygon fill="white" stroke="#bfbfbf" points="948,-56.5 948,-75.5 1001,-75.5 1001,-56.5 948,-56.5"/>
<text text-anchor="middle" x="974.5" y="-63.5" font-family="Helvetica,sans-Serif" font-size="10.00">QQueue</text>
</a>
</g>
</g>
<!-- Node22&#45;&gt;Node32 -->
<g id="edge36" class="edge">
<title>Node22&#45;&gt;Node32</title>
<path fill="none" stroke="midnightblue" d="M1131.03,-112.44C1098.49,-103 1046.08,-87.78 1010.98,-77.59"/>
<polygon fill="midnightblue" stroke="midnightblue" points="1011.7,-74.16 1001.12,-74.73 1009.75,-80.88 1011.7,-74.16"/>
</g>
<!-- Node33 -->
<g id="node33" class="node">
<title>Node33</title>
<g id="a_node33"><a xlink:title=" ">
<polygon fill="white" stroke="#bfbfbf" points="1019.5,-56.5 1019.5,-75.5 1109.5,-75.5 1109.5,-56.5 1019.5,-56.5"/>
<text text-anchor="middle" x="1064.5" y="-63.5" font-family="Helvetica,sans-Serif" font-size="10.00">QReadWriteLock</text>
</a>
</g>
</g>
<!-- Node22&#45;&gt;Node33 -->
<g id="edge37" class="edge">
<title>Node22&#45;&gt;Node33</title>
<path fill="none" stroke="midnightblue" d="M1145.08,-112.32C1129.96,-103.82 1106.68,-90.73 1089.03,-80.8"/>
<polygon fill="midnightblue" stroke="midnightblue" points="1090.32,-77.51 1079.89,-75.65 1086.89,-83.61 1090.32,-77.51"/>
</g>
<!-- Node34 -->
<g id="node34" class="node">
<title>Node34</title>
<g id="a_node34"><a xlink:title=" ">
<polygon fill="white" stroke="#bfbfbf" points="1128,-56.5 1128,-75.5 1193,-75.5 1193,-56.5 1128,-56.5"/>
<text text-anchor="middle" x="1160.5" y="-63.5" font-family="Helvetica,sans-Serif" font-size="10.00">QRunnable</text>
</a>
</g>
</g>
<!-- Node22&#45;&gt;Node34 -->
<g id="edge38" class="edge">
<title>Node22&#45;&gt;Node34</title>
<path fill="none" stroke="midnightblue" d="M1160.5,-112.08C1160.5,-105.01 1160.5,-94.86 1160.5,-85.99"/>
<polygon fill="midnightblue" stroke="midnightblue" points="1164,-85.75 1160.5,-75.75 1157,-85.75 1164,-85.75"/>
</g>
<!-- Node35 -->
<g id="node35" class="node">
<title>Node35</title>
<g id="a_node35"><a xlink:title=" ">
<polygon fill="white" stroke="#bfbfbf" points="1211.5,-56.5 1211.5,-75.5 1265.5,-75.5 1265.5,-56.5 1211.5,-56.5"/>
<text text-anchor="middle" x="1238.5" y="-63.5" font-family="Helvetica,sans-Serif" font-size="10.00">QThread</text>
</a>
</g>
</g>
<!-- Node22&#45;&gt;Node35 -->
<g id="edge39" class="edge">
<title>Node22&#45;&gt;Node35</title>
<path fill="none" stroke="midnightblue" d="M1173.03,-112.32C1185.09,-103.98 1203.53,-91.21 1217.77,-81.35"/>
<polygon fill="midnightblue" stroke="midnightblue" points="1219.77,-84.22 1226,-75.65 1215.78,-78.47 1219.77,-84.22"/>
</g>
<!-- Node36 -->
<g id="node36" class="node">
<title>Node36</title>
<g id="a_node36"><a xlink:title=" ">
<polygon fill="white" stroke="#bfbfbf" points="1284,-56.5 1284,-75.5 1333,-75.5 1333,-56.5 1284,-56.5"/>
<text text-anchor="middle" x="1308.5" y="-63.5" font-family="Helvetica,sans-Serif" font-size="10.00">QTimer</text>
</a>
</g>
</g>
<!-- Node22&#45;&gt;Node36 -->
<g id="edge40" class="edge">
<title>Node22&#45;&gt;Node36</title>
<path fill="none" stroke="midnightblue" d="M1183.95,-112.44C1208.63,-103.44 1247.69,-89.19 1275.48,-79.05"/>
<polygon fill="midnightblue" stroke="midnightblue" points="1276.96,-82.23 1285.16,-75.52 1274.56,-75.66 1276.96,-82.23"/>
</g>
<!-- Node23&#45;&gt;Node18 -->
<g id="edge23" class="edge">
<title>Node23&#45;&gt;Node18</title>
<path fill="none" stroke="midnightblue" d="M1543.58,-56.08C1551.67,-48.14 1563.7,-36.34 1573.41,-26.8"/>
<polygon fill="midnightblue" stroke="midnightblue" points="1575.9,-29.25 1580.59,-19.75 1571,-24.26 1575.9,-29.25"/>
</g>
<!-- Node23&#45;&gt;Node19 -->
<g id="edge24" class="edge">
<title>Node23&#45;&gt;Node19</title>
<path fill="none" stroke="midnightblue" d="M1515.01,-56.44C1494.86,-47.6 1463.18,-33.69 1440.17,-23.59"/>
<polygon fill="midnightblue" stroke="midnightblue" points="1441.46,-20.33 1430.9,-19.52 1438.65,-26.74 1441.46,-20.33"/>
</g>
<!-- Node24&#45;&gt;Node19 -->
<g id="edge26" class="edge">
<title>Node24&#45;&gt;Node19</title>
<path fill="none" stroke="midnightblue" d="M1411.5,-56.08C1411.5,-49.01 1411.5,-38.86 1411.5,-29.99"/>
<polygon fill="midnightblue" stroke="midnightblue" points="1415,-29.75 1411.5,-19.75 1408,-29.75 1415,-29.75"/>
</g>
<!-- Node25&#45;&gt;Node6 -->
<g id="edge33" class="edge">
<title>Node25&#45;&gt;Node6</title>
<path fill="none" stroke="midnightblue" d="M581.61,-56.44C551.75,-47.28 504.19,-32.69 471.04,-22.52"/>
<polygon fill="midnightblue" stroke="midnightblue" points="471.84,-19.1 461.26,-19.52 469.79,-25.8 471.84,-19.1"/>
</g>
<!-- Node25&#45;&gt;Node19 -->
<g id="edge29" class="edge">
<title>Node25&#45;&gt;Node19</title>
<path fill="none" stroke="midnightblue" d="M649.54,-57.85C654.24,-57.15 658.97,-56.51 663.5,-56 935.61,-25.23 1265.94,-14.64 1374.79,-11.84"/>
<polygon fill="midnightblue" stroke="midnightblue" points="1375,-15.34 1384.91,-11.59 1374.83,-8.34 1375,-15.34"/>
</g>
<!-- Node26 -->
<g id="node26" class="node">
<title>Node26</title>
<g id="a_node26"><a xlink:title=" ">
<polygon fill="white" stroke="#bfbfbf" points="722.5,-0.5 722.5,-19.5 806.5,-19.5 806.5,-0.5 722.5,-0.5"/>
<text text-anchor="middle" x="764.5" y="-7.5" font-family="Helvetica,sans-Serif" font-size="10.00">QElapsedTimer</text>
</a>
</g>
</g>
<!-- Node25&#45;&gt;Node26 -->
<g id="edge28" class="edge">
<title>Node25&#45;&gt;Node26</title>
<path fill="none" stroke="midnightblue" d="M634.06,-56.44C660.02,-47.4 701.17,-33.06 730.3,-22.92"/>
<polygon fill="midnightblue" stroke="midnightblue" points="731.76,-26.11 740.05,-19.52 729.46,-19.5 731.76,-26.11"/>
</g>
<!-- Node27 -->
<g id="node27" class="node">
<title>Node27</title>
<g id="a_node27"><a xlink:title=" ">
<polygon fill="white" stroke="#bfbfbf" points="513,-0.5 513,-19.5 568,-19.5 568,-0.5 513,-0.5"/>
<text text-anchor="middle" x="540.5" y="-7.5" font-family="Helvetica,sans-Serif" font-size="10.00">QPointer</text>
</a>
</g>
</g>
<!-- Node25&#45;&gt;Node27 -->
<g id="edge30" class="edge">
<title>Node25&#45;&gt;Node27</title>
<path fill="none" stroke="midnightblue" d="M598.41,-56.32C588.01,-48.18 572.24,-35.84 559.78,-26.09"/>
<polygon fill="midnightblue" stroke="midnightblue" points="561.82,-23.24 551.79,-19.83 557.51,-28.75 561.82,-23.24"/>
</g>
<!-- Node28 -->
<g id="node28" class="node">
<title>Node28</title>
<g id="a_node28"><a xlink:title=" ">
<polygon fill="white" stroke="#bfbfbf" points="586.5,-0.5 586.5,-19.5 632.5,-19.5 632.5,-0.5 586.5,-0.5"/>
<text text-anchor="middle" x="609.5" y="-7.5" font-family="Helvetica,sans-Serif" font-size="10.00">QTime</text>
</a>
</g>
</g>
<!-- Node25&#45;&gt;Node28 -->
<g id="edge31" class="edge">
<title>Node25&#45;&gt;Node28</title>
<path fill="none" stroke="midnightblue" d="M609.5,-56.08C609.5,-49.01 609.5,-38.86 609.5,-29.99"/>
<polygon fill="midnightblue" stroke="midnightblue" points="613,-29.75 609.5,-19.75 606,-29.75 613,-29.75"/>
</g>
<!-- Node29 -->
<g id="node29" class="node">
<title>Node29</title>
<g id="a_node29"><a xlink:title=" ">
<polygon fill="white" stroke="#bfbfbf" points="650.5,-0.5 650.5,-19.5 704.5,-19.5 704.5,-0.5 650.5,-0.5"/>
<text text-anchor="middle" x="677.5" y="-7.5" font-family="Helvetica,sans-Serif" font-size="10.00">QVariant</text>
</a>
</g>
</g>
<!-- Node25&#45;&gt;Node29 -->
<g id="edge32" class="edge">
<title>Node25&#45;&gt;Node29</title>
<path fill="none" stroke="midnightblue" d="M620.43,-56.32C630.67,-48.18 646.22,-35.84 658.5,-26.09"/>
<polygon fill="midnightblue" stroke="midnightblue" points="660.72,-28.79 666.38,-19.83 656.37,-23.31 660.72,-28.79"/>
</g>
<!-- Node37&#45;&gt;Node19 -->
<g id="edge42" class="edge">
<title>Node37&#45;&gt;Node19</title>
<path fill="none" stroke="midnightblue" d="M901.61,-224.44C822.54,-201.15 624.02,-133.19 696.5,-56 719.94,-31.04 1232.24,-15.72 1374.91,-11.93"/>
<polygon fill="midnightblue" stroke="midnightblue" points="1375.01,-15.43 1384.92,-11.66 1374.83,-8.43 1375.01,-15.43"/>
</g>
</g>
</svg>
