<?xml version="1.0" encoding="UTF-8" standalone="no"?>
<!DOCTYPE svg PUBLIC "-//W3C//DTD SVG 1.1//EN"
 "http://www.w3.org/Graphics/SVG/1.1/DTD/svg11.dtd">
<!-- Generated by graphviz version 2.43.0 (0)
 -->
<!-- Title: /home/pawel/antimicrox/src/gamecontroller/gamecontrollerdpad.h Pages: 1 -->
<!--zoomable 117 -->
<svg id="main" version="1.1" xmlns="http://www.w3.org/2000/svg" xmlns:xlink="http://www.w3.org/1999/xlink" xml:space="preserve" onload="init(evt)">
<style type="text/css"><![CDATA[
.edge:hover path { stroke: red; }
.edge:hover polygon { stroke: red; fill: red; }
]]></style>
<script type="text/javascript"><![CDATA[
var edges = document.getElementsByTagName('g');
if (edges && edges.length) {
  for (var i=0;i<edges.length;i++) {
    if (edges[i].id.substr(0,4)=='edge') {
      edges[i].setAttribute('class','edge');
    }
  }
}
]]></script>
        <defs>
                <circle id="rim" cx="0" cy="0" r="7"/>
                <circle id="rim2" cx="0" cy="0" r="3.5"/>
                <g id="zoomPlus">
                        <use xlink:href="#rim" fill="#404040">
                                <set attributeName="fill" to="#808080" begin="zoomplus.mouseover" end="zoomplus.mouseout"/>
                        </use>
                        <path d="M-4,0h8M0,-4v8" fill="none" stroke="white" stroke-width="1.5" pointer-events="none"/>
                </g>
                <g id="zoomMin">
                        <use xlink:href="#rim" fill="#404040">
                                <set attributeName="fill" to="#808080" begin="zoomminus.mouseover" end="zoomminus.mouseout"/>
                        </use>
                        <path d="M-4,0h8" fill="none" stroke="white" stroke-width="1.5" pointer-events="none"/>
                </g>
                <g id="dirArrow">
                        <path fill="none" stroke="white" stroke-width="1.5" d="M0,-3.0v7 M-2.5,-0.5L0,-3.0L2.5,-0.5"/>
                </g>
               <g id="resetDef">
                       <use xlink:href="#rim2" fill="#404040">
                               <set attributeName="fill" to="#808080" begin="reset.mouseover" end="reset.mouseout"/>
                       </use>
               </g>
        </defs>

<script type="text/javascript">
var viewWidth = 1070;
var viewHeight = 117;
var sectionId = 'dynsection-1';
</script>
<script xlink:href="svgpan.js"/>
<svg id="graph" class="graph">
<g id="viewport">
<title>/home/pawel/antimicrox/src/gamecontroller/gamecontrollerdpad.h</title>
<polygon fill="white" stroke="transparent" points="-4,4 -4,-113 1066,-113 1066,4 -4,4"/>
<!-- Node1 -->
<g id="node1" class="node">
<title>Node1</title>
<g id="a_node1"><a xlink:title=" ">
<polygon fill="#bfbfbf" stroke="black" points="522.5,-78.5 522.5,-108.5 718.5,-108.5 718.5,-78.5 522.5,-78.5"/>
<text text-anchor="start" x="530.5" y="-96.5" font-family="Helvetica,sans-Serif" font-size="10.00">/home/pawel/antimicrox</text>
<text text-anchor="middle" x="620.5" y="-85.5" font-family="Helvetica,sans-Serif" font-size="10.00">/src/gamecontroller/gamecontrollerdpad.h</text>
</a>
</g>
</g>
<!-- Node2 -->
<g id="node2" class="node">
<title>Node2</title>
<g id="a_node2"><a xlink:href="gamecontroller_8cpp.html" target="_top" xlink:title=" ">
<polygon fill="white" stroke="black" points="0,-6 0,-36 185,-36 185,-6 0,-6"/>
<text text-anchor="start" x="8" y="-24" font-family="Helvetica,sans-Serif" font-size="10.00">/home/pawel/antimicrox</text>
<text text-anchor="middle" x="92.5" y="-13" font-family="Helvetica,sans-Serif" font-size="10.00">/src/gamecontroller/gamecontroller.cpp</text>
</a>
</g>
</g>
<!-- Node1&#45;&gt;Node2 -->
<g id="edge1" class="edge">
<title>Node1&#45;&gt;Node2</title>
<path fill="none" stroke="midnightblue" d="M512.01,-81.93C425.73,-72.97 302.07,-58.9 194.5,-42 183.36,-40.25 171.58,-38.16 160.13,-36.01"/>
<polygon fill="midnightblue" stroke="midnightblue" points="511.77,-85.42 522.07,-82.97 512.49,-78.46 511.77,-85.42"/>
</g>
<!-- Node3 -->
<g id="node3" class="node">
<title>Node3</title>
<g id="a_node3"><a xlink:href="gamecontrollerdpad_8cpp.html" target="_top" xlink:title=" ">
<polygon fill="white" stroke="black" points="203.5,-6 203.5,-36 409.5,-36 409.5,-6 203.5,-6"/>
<text text-anchor="start" x="211.5" y="-24" font-family="Helvetica,sans-Serif" font-size="10.00">/home/pawel/antimicrox</text>
<text text-anchor="middle" x="306.5" y="-13" font-family="Helvetica,sans-Serif" font-size="10.00">/src/gamecontroller/gamecontrollerdpad.cpp</text>
</a>
</g>
</g>
<!-- Node1&#45;&gt;Node3 -->
<g id="edge2" class="edge">
<title>Node1&#45;&gt;Node3</title>
<path fill="none" stroke="midnightblue" d="M548.21,-76.27C494.06,-64.11 420.71,-47.64 369.06,-36.05"/>
<polygon fill="midnightblue" stroke="midnightblue" points="547.56,-79.71 558.09,-78.49 549.1,-72.88 547.56,-79.71"/>
</g>
<!-- Node4 -->
<g id="node4" class="node">
<title>Node4</title>
<g id="a_node4"><a xlink:href="gamecontrollerset_8cpp.html" target="_top" xlink:title=" ">
<polygon fill="white" stroke="black" points="428,-6 428,-36 627,-36 627,-6 428,-6"/>
<text text-anchor="start" x="436" y="-24" font-family="Helvetica,sans-Serif" font-size="10.00">/home/pawel/antimicrox</text>
<text text-anchor="middle" x="527.5" y="-13" font-family="Helvetica,sans-Serif" font-size="10.00">/src/gamecontroller/gamecontrollerset.cpp</text>
</a>
</g>
</g>
<!-- Node1&#45;&gt;Node4 -->
<g id="edge3" class="edge">
<title>Node1&#45;&gt;Node4</title>
<path fill="none" stroke="midnightblue" d="M593.6,-72.11C578.33,-60.53 559.59,-46.33 545.97,-36"/>
<polygon fill="midnightblue" stroke="midnightblue" points="591.6,-74.98 601.68,-78.23 595.83,-69.4 591.6,-74.98"/>
</g>
<!-- Node5 -->
<g id="node5" class="node">
<title>Node5</title>
<g id="a_node5"><a xlink:href="gamecontrollerdpadxml_8cpp.html" target="_top" xlink:title=" ">
<polygon fill="white" stroke="black" points="645,-0.5 645,-41.5 784,-41.5 784,-0.5 645,-0.5"/>
<text text-anchor="start" x="653" y="-29.5" font-family="Helvetica,sans-Serif" font-size="10.00">/home/pawel/antimicrox</text>
<text text-anchor="start" x="653" y="-18.5" font-family="Helvetica,sans-Serif" font-size="10.00">/src/gamecontroller/xml</text>
<text text-anchor="middle" x="714.5" y="-7.5" font-family="Helvetica,sans-Serif" font-size="10.00">/gamecontrollerdpadxml.cpp</text>
</a>
</g>
</g>
<!-- Node1&#45;&gt;Node5 -->
<g id="edge4" class="edge">
<title>Node1&#45;&gt;Node5</title>
<path fill="none" stroke="midnightblue" d="M647.55,-72.21C660.39,-62.58 675.67,-51.12 688.38,-41.59"/>
<polygon fill="midnightblue" stroke="midnightblue" points="645.42,-69.43 639.52,-78.23 649.62,-75.03 645.42,-69.43"/>
</g>
<!-- Node6 -->
<g id="node6" class="node">
<title>Node6</title>
<g id="a_node6"><a xlink:href="gamecontrollerxml_8cpp.html" target="_top" xlink:title=" ">
<polygon fill="white" stroke="black" points="802,-0.5 802,-41.5 921,-41.5 921,-0.5 802,-0.5"/>
<text text-anchor="start" x="810" y="-29.5" font-family="Helvetica,sans-Serif" font-size="10.00">/home/pawel/antimicrox</text>
<text text-anchor="start" x="810" y="-18.5" font-family="Helvetica,sans-Serif" font-size="10.00">/src/gamecontroller/xml</text>
<text text-anchor="middle" x="861.5" y="-7.5" font-family="Helvetica,sans-Serif" font-size="10.00">/gamecontrollerxml.cpp</text>
</a>
</g>
</g>
<!-- Node1&#45;&gt;Node6 -->
<g id="edge5" class="edge">
<title>Node1&#45;&gt;Node6</title>
<path fill="none" stroke="midnightblue" d="M678.27,-75.67C711.9,-65.86 755.1,-53.25 793.5,-42 796.22,-41.2 798.99,-40.39 801.8,-39.57"/>
<polygon fill="midnightblue" stroke="midnightblue" points="677.23,-72.33 668.61,-78.49 679.19,-79.05 677.23,-72.33"/>
</g>
<!-- Node7 -->
<g id="node7" class="node">
<title>Node7</title>
<g id="a_node7"><a xlink:href="joydpadxml_8cpp.html" target="_top" xlink:title=" ">
<polygon fill="white" stroke="black" points="939,-6 939,-36 1062,-36 1062,-6 939,-6"/>
<text text-anchor="start" x="947" y="-24" font-family="Helvetica,sans-Serif" font-size="10.00">/home/pawel/antimicrox</text>
<text text-anchor="middle" x="1000.5" y="-13" font-family="Helvetica,sans-Serif" font-size="10.00">/src/xml/joydpadxml.cpp</text>
</a>
</g>
</g>
<!-- Node1&#45;&gt;Node7 -->
<g id="edge6" class="edge">
<title>Node1&#45;&gt;Node7</title>
<path fill="none" stroke="midnightblue" d="M729.01,-78C788.78,-69.21 864.1,-56.84 930.5,-42 938.27,-40.26 946.46,-38.17 954.38,-36"/>
<polygon fill="midnightblue" stroke="midnightblue" points="728.19,-74.58 718.79,-79.48 729.19,-81.51 728.19,-74.58"/>
</g>
</g>
</svg>
        <g id="navigator" transform="translate(0 0)" fill="#404254">
                <rect fill="#f2f5e9" fill-opacity="0.5" stroke="#606060" stroke-width=".5" x="0" y="0" width="60" height="60"/>
                <use id="zoomplus" xlink:href="#zoomPlus" x="17" y="9" onmousedown="handleZoom(evt,'in')"/>
                <use id="zoomminus" xlink:href="#zoomMin" x="42" y="9" onmousedown="handleZoom(evt,'out')"/>
                <use id="reset" xlink:href="#resetDef" x="30" y="36" onmousedown="handleReset()"/>
                <g id="arrowUp" xlink:href="#dirArrow" transform="translate(30 24)" onmousedown="handlePan(0,-1)">
                  <use xlink:href="#rim" fill="#404040">
                        <set attributeName="fill" to="#808080" begin="arrowUp.mouseover" end="arrowUp.mouseout"/>
                  </use>
                  <path fill="none" stroke="white" stroke-width="1.5" d="M0,-3.0v7 M-2.5,-0.5L0,-3.0L2.5,-0.5"/>
                </g>
                <g id="arrowRight" xlink:href="#dirArrow" transform="rotate(90) translate(36 -43)" onmousedown="handlePan(1,0)">
                  <use xlink:href="#rim" fill="#404040">
                        <set attributeName="fill" to="#808080" begin="arrowRight.mouseover" end="arrowRight.mouseout"/>
                  </use>
                  <path fill="none" stroke="white" stroke-width="1.5" d="M0,-3.0v7 M-2.5,-0.5L0,-3.0L2.5,-0.5"/>
                </g>
                <g id="arrowDown" xlink:href="#dirArrow" transform="rotate(180) translate(-30 -48)" onmousedown="handlePan(0,1)">
                  <use xlink:href="#rim" fill="#404040">
                        <set attributeName="fill" to="#808080" begin="arrowDown.mouseover" end="arrowDown.mouseout"/>
                  </use>
                  <path fill="none" stroke="white" stroke-width="1.5" d="M0,-3.0v7 M-2.5,-0.5L0,-3.0L2.5,-0.5"/>
                </g>
                <g id="arrowLeft" xlink:href="#dirArrow" transform="rotate(270) translate(-36 17)" onmousedown="handlePan(-1,0)">
                  <use xlink:href="#rim" fill="#404040">
                        <set attributeName="fill" to="#808080" begin="arrowLeft.mouseover" end="arrowLeft.mouseout"/>
                  </use>
                  <path fill="none" stroke="white" stroke-width="1.5" d="M0,-3.0v7 M-2.5,-0.5L0,-3.0L2.5,-0.5"/>
                </g>
        </g>
        <svg viewBox="0 0 15 15" width="100%" height="30px" preserveAspectRatio="xMaxYMin meet">
         <g id="arrow_out" transform="scale(0.3 0.3)">
          <a xlink:href="gamecontrollerdpad_8h__dep__incl_org.svg" target="_base">
           <rect id="button" ry="5" rx="5" y="6" x="6" height="38" width="38"
                fill="#f2f5e9" fill-opacity="0.5" stroke="#606060" stroke-width="1.0"/>
           <path id="arrow"
             d="M 11.500037,31.436501 C 11.940474,20.09759 22.043105,11.32322 32.158766,21.979434 L 37.068811,17.246167 C 37.068811,17.246167 37.088388,32 37.088388,32 L 22.160133,31.978069 C 22.160133,31.978069 26.997745,27.140456 26.997745,27.140456 C 18.528582,18.264221 13.291696,25.230495 11.500037,31.436501 z"
             style="fill:#404040;"/>
          </a>
         </g>
        </svg>
</svg>
