<?xml version="1.0" encoding="UTF-8" standalone="no"?>
<!DOCTYPE svg PUBLIC "-//W3C//DTD SVG 1.1//EN"
 "http://www.w3.org/Graphics/SVG/1.1/DTD/svg11.dtd">
<!-- Generated by graphviz version 2.43.0 (0)
 -->
<!-- Title: /home/pawel/antimicrox/src/gamecontroller/xml/gamecontrollertriggerxml.cpp Pages: 1 -->
<!--zoomable 442 -->
<svg id="main" version="1.1" xmlns="http://www.w3.org/2000/svg" xmlns:xlink="http://www.w3.org/1999/xlink" xml:space="preserve" onload="init(evt)">
<style type="text/css"><![CDATA[
.edge:hover path { stroke: red; }
.edge:hover polygon { stroke: red; fill: red; }
]]></style>
<script type="text/javascript"><![CDATA[
var edges = document.getElementsByTagName('g');
if (edges && edges.length) {
  for (var i=0;i<edges.length;i++) {
    if (edges[i].id.substr(0,4)=='edge') {
      edges[i].setAttribute('class','edge');
    }
  }
}
]]></script>
        <defs>
                <circle id="rim" cx="0" cy="0" r="7"/>
                <circle id="rim2" cx="0" cy="0" r="3.5"/>
                <g id="zoomPlus">
                        <use xlink:href="#rim" fill="#404040">
                                <set attributeName="fill" to="#808080" begin="zoomplus.mouseover" end="zoomplus.mouseout"/>
                        </use>
                        <path d="M-4,0h8M0,-4v8" fill="none" stroke="white" stroke-width="1.5" pointer-events="none"/>
                </g>
                <g id="zoomMin">
                        <use xlink:href="#rim" fill="#404040">
                                <set attributeName="fill" to="#808080" begin="zoomminus.mouseover" end="zoomminus.mouseout"/>
                        </use>
                        <path d="M-4,0h8" fill="none" stroke="white" stroke-width="1.5" pointer-events="none"/>
                </g>
                <g id="dirArrow">
                        <path fill="none" stroke="white" stroke-width="1.5" d="M0,-3.0v7 M-2.5,-0.5L0,-3.0L2.5,-0.5"/>
                </g>
               <g id="resetDef">
                       <use xlink:href="#rim2" fill="#404040">
                               <set attributeName="fill" to="#808080" begin="reset.mouseover" end="reset.mouseout"/>
                       </use>
               </g>
        </defs>

<script type="text/javascript">
var viewWidth = 1666;
var viewHeight = 442;
var sectionId = 'dynsection-0';
</script>
<script xlink:href="svgpan.js"/>
<svg id="graph" class="graph">
<g id="viewport">
<title>/home/pawel/antimicrox/src/gamecontroller/xml/gamecontrollertriggerxml.cpp</title>
<polygon fill="white" stroke="transparent" points="-4,4 -4,-438 1661.6,-438 1661.6,4 -4,4"/>
<!-- Node1 -->
<g id="node1" class="node">
<title>Node1</title>
<g id="a_node1"><a xlink:title=" ">
<polygon fill="#bfbfbf" stroke="black" points="600.5,-392.5 600.5,-433.5 746.5,-433.5 746.5,-392.5 600.5,-392.5"/>
<text text-anchor="start" x="608.5" y="-421.5" font-family="Helvetica,sans-Serif" font-size="10.00">/home/pawel/antimicrox</text>
<text text-anchor="start" x="608.5" y="-410.5" font-family="Helvetica,sans-Serif" font-size="10.00">/src/gamecontroller/xml</text>
<text text-anchor="middle" x="673.5" y="-399.5" font-family="Helvetica,sans-Serif" font-size="10.00">/gamecontrollertriggerxml.cpp</text>
</a>
</g>
</g>
<!-- Node2 -->
<g id="node2" class="node">
<title>Node2</title>
<g id="a_node2"><a xlink:href="gamecontrollertriggerxml_8h.html" target="_top" xlink:title=" ">
<polygon fill="white" stroke="black" points="161,-336.5 161,-355.5 294,-355.5 294,-336.5 161,-336.5"/>
<text text-anchor="middle" x="227.5" y="-343.5" font-family="Helvetica,sans-Serif" font-size="10.00">gamecontrollertriggerxml.h</text>
</a>
</g>
</g>
<!-- Node1&#45;&gt;Node2 -->
<g id="edge1" class="edge">
<title>Node1&#45;&gt;Node2</title>
<path fill="none" stroke="midnightblue" d="M600.35,-401.34C516.02,-389.05 378.46,-369 296.1,-357"/>
<polygon fill="midnightblue" stroke="midnightblue" points="296.49,-353.52 286.09,-355.54 295.48,-360.44 296.49,-353.52"/>
</g>
<!-- Node3 -->
<g id="node3" class="node">
<title>Node3</title>
<g id="a_node3"><a xlink:href="joyaxisxml_8h.html" target="_top" xlink:title=" ">
<polygon fill="white" stroke="black" points="227.5,-168.5 227.5,-187.5 317.5,-187.5 317.5,-168.5 227.5,-168.5"/>
<text text-anchor="middle" x="272.5" y="-175.5" font-family="Helvetica,sans-Serif" font-size="10.00">xml/joyaxisxml.h</text>
</a>
</g>
</g>
<!-- Node1&#45;&gt;Node3 -->
<g id="edge40" class="edge">
<title>Node1&#45;&gt;Node3</title>
<path fill="none" stroke="midnightblue" d="M600.41,-404.5C526.66,-395.77 418.9,-379.48 384.5,-356 325.98,-316.05 291.66,-234.38 278.6,-197.64"/>
<polygon fill="midnightblue" stroke="midnightblue" points="281.78,-196.1 275.23,-187.77 275.15,-198.37 281.78,-196.1"/>
</g>
<!-- Node6 -->
<g id="node6" class="node">
<title>Node6</title>
<g id="a_node6"><a xlink:href="gamecontrollertrigger_8h.html" target="_top" xlink:title=" ">
<polygon fill="white" stroke="black" points="393,-336.5 393,-355.5 576,-355.5 576,-336.5 393,-336.5"/>
<text text-anchor="middle" x="484.5" y="-343.5" font-family="Helvetica,sans-Serif" font-size="10.00">gamecontroller/gamecontrollertrigger.h</text>
</a>
</g>
</g>
<!-- Node1&#45;&gt;Node6 -->
<g id="edge5" class="edge">
<title>Node1&#45;&gt;Node6</title>
<path fill="none" stroke="midnightblue" d="M616.79,-392.5C585.03,-381.57 546.45,-368.3 519.16,-358.92"/>
<polygon fill="midnightblue" stroke="midnightblue" points="520.25,-355.6 509.66,-355.65 517.98,-362.21 520.25,-355.6"/>
</g>
<!-- Node31 -->
<g id="node31" class="node">
<title>Node31</title>
<g id="a_node31"><a xlink:href="gamecontrollertriggerbutton_8h.html" target="_top" xlink:title=" ">
<polygon fill="white" stroke="black" points="445,-280.5 445,-299.5 656,-299.5 656,-280.5 445,-280.5"/>
<text text-anchor="middle" x="550.5" y="-287.5" font-family="Helvetica,sans-Serif" font-size="10.00">gamecontroller/gamecontrollertriggerbutton.h</text>
</a>
</g>
</g>
<!-- Node1&#45;&gt;Node31 -->
<g id="edge38" class="edge">
<title>Node1&#45;&gt;Node31</title>
<path fill="none" stroke="midnightblue" d="M653.46,-392.29C629.21,-368.43 588.86,-328.74 566.55,-306.79"/>
<polygon fill="midnightblue" stroke="midnightblue" points="568.8,-304.09 559.22,-299.57 563.89,-309.08 568.8,-304.09"/>
</g>
<!-- Node32 -->
<g id="node32" class="node">
<title>Node32</title>
<g id="a_node32"><a xlink:href="joybuttonxml_8h.html" target="_top" xlink:title=" ">
<polygon fill="white" stroke="black" points="1187,-224.5 1187,-243.5 1286,-243.5 1286,-224.5 1187,-224.5"/>
<text text-anchor="middle" x="1236.5" y="-231.5" font-family="Helvetica,sans-Serif" font-size="10.00">xml/joybuttonxml.h</text>
</a>
</g>
</g>
<!-- Node1&#45;&gt;Node32 -->
<g id="edge41" class="edge">
<title>Node1&#45;&gt;Node32</title>
<path fill="none" stroke="midnightblue" d="M673.16,-392.23C674,-374.9 678.11,-350.3 693.5,-336 763.11,-271.33 1050.36,-246.26 1176.56,-238.23"/>
<polygon fill="midnightblue" stroke="midnightblue" points="1177.05,-241.71 1186.82,-237.6 1176.62,-234.72 1177.05,-241.71"/>
</g>
<!-- Node33 -->
<g id="node33" class="node">
<title>Node33</title>
<g id="a_node33"><a xlink:title=" ">
<polygon fill="white" stroke="#bfbfbf" points="702,-336.5 702,-355.5 843,-355.5 843,-336.5 702,-336.5"/>
<text text-anchor="middle" x="772.5" y="-343.5" font-family="Helvetica,sans-Serif" font-size="10.00">SDL2/SDL_gamecontroller.h</text>
</a>
</g>
</g>
<!-- Node1&#45;&gt;Node33 -->
<g id="edge43" class="edge">
<title>Node1&#45;&gt;Node33</title>
<path fill="none" stroke="midnightblue" d="M703.2,-392.5C718.53,-382.44 736.88,-370.38 750.85,-361.21"/>
<polygon fill="midnightblue" stroke="midnightblue" points="752.88,-364.07 759.32,-355.65 749.04,-358.22 752.88,-364.07"/>
</g>
<!-- Node34 -->
<g id="node34" class="node">
<title>Node34</title>
<g id="a_node34"><a xlink:title=" ">
<polygon fill="white" stroke="#bfbfbf" points="861,-336.5 861,-355.5 914,-355.5 914,-336.5 861,-336.5"/>
<text text-anchor="middle" x="887.5" y="-343.5" font-family="Helvetica,sans-Serif" font-size="10.00">QDebug</text>
</a>
</g>
</g>
<!-- Node1&#45;&gt;Node34 -->
<g id="edge44" class="edge">
<title>Node1&#45;&gt;Node34</title>
<path fill="none" stroke="midnightblue" d="M737.71,-392.5C774.76,-381.24 820.01,-367.5 851.02,-358.08"/>
<polygon fill="midnightblue" stroke="midnightblue" points="852.41,-361.32 860.96,-355.06 850.37,-354.62 852.41,-361.32"/>
</g>
<!-- Node35 -->
<g id="node35" class="node">
<title>Node35</title>
<g id="a_node35"><a xlink:title=" ">
<polygon fill="white" stroke="#bfbfbf" points="932.5,-336.5 932.5,-355.5 1036.5,-355.5 1036.5,-336.5 932.5,-336.5"/>
<text text-anchor="middle" x="984.5" y="-343.5" font-family="Helvetica,sans-Serif" font-size="10.00">QXmlStreamReader</text>
</a>
</g>
</g>
<!-- Node1&#45;&gt;Node35 -->
<g id="edge45" class="edge">
<title>Node1&#45;&gt;Node35</title>
<path fill="none" stroke="midnightblue" d="M746.81,-396.68C804.27,-384.67 882.74,-368.27 933.52,-357.66"/>
<polygon fill="midnightblue" stroke="midnightblue" points="934.53,-361.02 943.6,-355.55 933.1,-354.17 934.53,-361.02"/>
</g>
<!-- Node36 -->
<g id="node36" class="node">
<title>Node36</title>
<g id="a_node36"><a xlink:title=" ">
<polygon fill="white" stroke="#bfbfbf" points="1054.5,-336.5 1054.5,-355.5 1152.5,-355.5 1152.5,-336.5 1054.5,-336.5"/>
<text text-anchor="middle" x="1103.5" y="-343.5" font-family="Helvetica,sans-Serif" font-size="10.00">QXmlStreamWriter</text>
</a>
</g>
</g>
<!-- Node1&#45;&gt;Node36 -->
<g id="edge46" class="edge">
<title>Node1&#45;&gt;Node36</title>
<path fill="none" stroke="midnightblue" d="M746.57,-401.1C819.4,-390.21 934.72,-372.91 1044.53,-356.14"/>
<polygon fill="midnightblue" stroke="midnightblue" points="1045.1,-359.6 1054.45,-354.63 1044.04,-352.68 1045.1,-359.6"/>
</g>
<!-- Node2&#45;&gt;Node3 -->
<g id="edge2" class="edge">
<title>Node2&#45;&gt;Node3</title>
<path fill="none" stroke="midnightblue" d="M229.92,-336.08C237,-309.95 257.8,-233.21 267.46,-197.58"/>
<polygon fill="midnightblue" stroke="midnightblue" points="270.94,-198.14 270.18,-187.57 264.18,-196.3 270.94,-198.14"/>
</g>
<!-- Node4 -->
<g id="node4" class="node">
<title>Node4</title>
<g id="a_node4"><a xlink:title=" ">
<polygon fill="white" stroke="#bfbfbf" points="510,-0.5 510,-19.5 563,-19.5 563,-0.5 510,-0.5"/>
<text text-anchor="middle" x="536.5" y="-7.5" font-family="Helvetica,sans-Serif" font-size="10.00">QObject</text>
</a>
</g>
</g>
<!-- Node3&#45;&gt;Node4 -->
<g id="edge3" class="edge">
<title>Node3&#45;&gt;Node4</title>
<path fill="none" stroke="midnightblue" d="M278.13,-168.19C292.82,-145.93 334.66,-86.97 384.5,-56 394.43,-49.83 458.19,-32.01 499.92,-20.74"/>
<polygon fill="midnightblue" stroke="midnightblue" points="501,-24.07 509.74,-18.09 499.18,-17.31 501,-24.07"/>
</g>
<!-- Node5 -->
<g id="node5" class="node">
<title>Node5</title>
<g id="a_node5"><a xlink:title=" ">
<polygon fill="white" stroke="#bfbfbf" points="0,-0.5 0,-19.5 55,-19.5 55,-0.5 0,-0.5"/>
<text text-anchor="middle" x="27.5" y="-7.5" font-family="Helvetica,sans-Serif" font-size="10.00">QPointer</text>
</a>
</g>
</g>
<!-- Node3&#45;&gt;Node5 -->
<g id="edge4" class="edge">
<title>Node3&#45;&gt;Node5</title>
<path fill="none" stroke="midnightblue" d="M259.67,-168.31C219.82,-141.3 97.85,-58.67 48.53,-25.25"/>
<polygon fill="midnightblue" stroke="midnightblue" points="50.44,-22.32 40.2,-19.61 46.52,-28.11 50.44,-22.32"/>
</g>
<!-- Node7 -->
<g id="node7" class="node">
<title>Node7</title>
<g id="a_node7"><a xlink:href="joyaxis_8h.html" target="_top" xlink:title=" ">
<polygon fill="white" stroke="black" points="370.5,-280.5 370.5,-299.5 426.5,-299.5 426.5,-280.5 370.5,-280.5"/>
<text text-anchor="middle" x="398.5" y="-287.5" font-family="Helvetica,sans-Serif" font-size="10.00">joyaxis.h</text>
</a>
</g>
</g>
<!-- Node6&#45;&gt;Node7 -->
<g id="edge6" class="edge">
<title>Node6&#45;&gt;Node7</title>
<path fill="none" stroke="midnightblue" d="M470.68,-336.32C457.27,-327.9 436.68,-314.97 420.91,-305.07"/>
<polygon fill="midnightblue" stroke="midnightblue" points="422.61,-302.01 412.28,-299.65 418.89,-307.94 422.61,-302.01"/>
</g>
<!-- Node7&#45;&gt;Node4 -->
<g id="edge8" class="edge">
<title>Node7&#45;&gt;Node4</title>
<path fill="none" stroke="midnightblue" d="M398.5,-280.44C398.5,-261.94 398.5,-216.81 398.5,-179 398.5,-179 398.5,-179 398.5,-121 398.5,-90.77 397.84,-78.06 418.5,-56 429.94,-43.78 469.73,-30.12 499.97,-21.09"/>
<polygon fill="midnightblue" stroke="midnightblue" points="501.19,-24.38 509.81,-18.22 499.23,-17.66 501.19,-24.38"/>
</g>
<!-- Node8 -->
<g id="node8" class="node">
<title>Node8</title>
<g id="a_node8"><a xlink:title=" ">
<polygon fill="white" stroke="#bfbfbf" points="451.5,-0.5 451.5,-19.5 491.5,-19.5 491.5,-0.5 451.5,-0.5"/>
<text text-anchor="middle" x="471.5" y="-7.5" font-family="Helvetica,sans-Serif" font-size="10.00">QList</text>
</a>
</g>
</g>
<!-- Node7&#45;&gt;Node8 -->
<g id="edge7" class="edge">
<title>Node7&#45;&gt;Node8</title>
<path fill="none" stroke="midnightblue" d="M394.63,-280.11C381.02,-247.37 338.57,-131.47 384.5,-56 391.05,-45.24 419.13,-31.87 441.64,-22.51"/>
<polygon fill="midnightblue" stroke="midnightblue" points="443.24,-25.65 451.19,-18.64 440.6,-19.16 443.24,-25.65"/>
</g>
<!-- Node9 -->
<g id="node9" class="node">
<title>Node9</title>
<g id="a_node9"><a xlink:href="joyaxisbutton_8h.html" target="_top" xlink:title=" ">
<polygon fill="white" stroke="black" points="539,-224.5 539,-243.5 688,-243.5 688,-224.5 539,-224.5"/>
<text text-anchor="middle" x="613.5" y="-231.5" font-family="Helvetica,sans-Serif" font-size="10.00">joybuttontypes/joyaxisbutton.h</text>
</a>
</g>
</g>
<!-- Node7&#45;&gt;Node9 -->
<g id="edge9" class="edge">
<title>Node7&#45;&gt;Node9</title>
<path fill="none" stroke="midnightblue" d="M426.61,-281.94C462.96,-272.81 526.69,-256.8 569.49,-246.05"/>
<polygon fill="midnightblue" stroke="midnightblue" points="570.51,-249.41 579.35,-243.58 568.8,-242.62 570.51,-249.41"/>
</g>
<!-- Node10 -->
<g id="node10" class="node">
<title>Node10</title>
<g id="a_node10"><a xlink:href="joygradientbutton_8h.html" target="_top" xlink:title=" ">
<polygon fill="white" stroke="black" points="594,-168.5 594,-187.5 759,-187.5 759,-168.5 594,-168.5"/>
<text text-anchor="middle" x="676.5" y="-175.5" font-family="Helvetica,sans-Serif" font-size="10.00">joybuttontypes/joygradientbutton.h</text>
</a>
</g>
</g>
<!-- Node9&#45;&gt;Node10 -->
<g id="edge10" class="edge">
<title>Node9&#45;&gt;Node10</title>
<path fill="none" stroke="midnightblue" d="M623.62,-224.32C633.03,-216.26 647.24,-204.08 658.57,-194.37"/>
<polygon fill="midnightblue" stroke="midnightblue" points="660.88,-197 666.19,-187.83 656.32,-191.68 660.88,-197"/>
</g>
<!-- Node26 -->
<g id="node26" class="node">
<title>Node26</title>
<g id="a_node26"><a xlink:href="logger_8h.html" target="_top" xlink:title=" ">
<polygon fill="white" stroke="black" points="1349,-112.5 1349,-131.5 1400,-131.5 1400,-112.5 1349,-112.5"/>
<text text-anchor="middle" x="1374.5" y="-119.5" font-family="Helvetica,sans-Serif" font-size="10.00">logger.h</text>
</a>
</g>
</g>
<!-- Node9&#45;&gt;Node26 -->
<g id="edge31" class="edge">
<title>Node9&#45;&gt;Node26</title>
<path fill="none" stroke="midnightblue" d="M672.58,-224.46C823.09,-202.7 1217.59,-145.68 1338.65,-128.18"/>
<polygon fill="midnightblue" stroke="midnightblue" points="1339.45,-131.6 1348.85,-126.71 1338.45,-124.67 1339.45,-131.6"/>
</g>
<!-- Node11 -->
<g id="node11" class="node">
<title>Node11</title>
<g id="a_node11"><a xlink:href="joybutton_8h.html" target="_top" xlink:title=" ">
<polygon fill="white" stroke="black" points="770,-112.5 770,-131.5 835,-131.5 835,-112.5 770,-112.5"/>
<text text-anchor="middle" x="802.5" y="-119.5" font-family="Helvetica,sans-Serif" font-size="10.00">joybutton.h</text>
</a>
</g>
</g>
<!-- Node10&#45;&gt;Node11 -->
<g id="edge11" class="edge">
<title>Node10&#45;&gt;Node11</title>
<path fill="none" stroke="midnightblue" d="M696.47,-168.44C717.11,-159.6 749.56,-145.69 773.13,-135.59"/>
<polygon fill="midnightblue" stroke="midnightblue" points="774.82,-138.67 782.63,-131.52 772.06,-132.24 774.82,-138.67"/>
</g>
<!-- Node12 -->
<g id="node12" class="node">
<title>Node12</title>
<g id="a_node12"><a xlink:href="globalvariables_8h.html" target="_top" xlink:title=" ">
<polygon fill="white" stroke="black" points="427,-56.5 427,-75.5 516,-75.5 516,-56.5 427,-56.5"/>
<text text-anchor="middle" x="471.5" y="-63.5" font-family="Helvetica,sans-Serif" font-size="10.00">globalvariables.h</text>
</a>
</g>
</g>
<!-- Node11&#45;&gt;Node12 -->
<g id="edge12" class="edge">
<title>Node11&#45;&gt;Node12</title>
<path fill="none" stroke="midnightblue" d="M769.66,-115.71C719.56,-107.63 620.77,-91.66 526.3,-76.13"/>
<polygon fill="midnightblue" stroke="midnightblue" points="526.72,-72.65 516.29,-74.48 525.59,-79.56 526.72,-72.65"/>
</g>
<!-- Node13 -->
<g id="node13" class="node">
<title>Node13</title>
<g id="a_node13"><a xlink:href="joybuttonmousehelper_8h.html" target="_top" xlink:title=" ">
<polygon fill="white" stroke="black" points="1106.5,-56.5 1106.5,-75.5 1226.5,-75.5 1226.5,-56.5 1106.5,-56.5"/>
<text text-anchor="middle" x="1166.5" y="-63.5" font-family="Helvetica,sans-Serif" font-size="10.00">joybuttonmousehelper.h</text>
</a>
</g>
</g>
<!-- Node11&#45;&gt;Node13 -->
<g id="edge15" class="edge">
<title>Node11&#45;&gt;Node13</title>
<path fill="none" stroke="midnightblue" d="M835.12,-116.16C894.24,-107.39 1020.21,-88.7 1098.68,-77.06"/>
<polygon fill="midnightblue" stroke="midnightblue" points="1099.58,-80.47 1108.95,-75.54 1098.55,-73.54 1099.58,-80.47"/>
</g>
<!-- Node14 -->
<g id="node14" class="node">
<title>Node14</title>
<g id="a_node14"><a xlink:href="joybuttonslot_8h.html" target="_top" xlink:title=" ">
<polygon fill="white" stroke="black" points="214.5,-56.5 214.5,-75.5 294.5,-75.5 294.5,-56.5 214.5,-56.5"/>
<text text-anchor="middle" x="254.5" y="-63.5" font-family="Helvetica,sans-Serif" font-size="10.00">joybuttonslot.h</text>
</a>
</g>
</g>
<!-- Node11&#45;&gt;Node14 -->
<g id="edge17" class="edge">
<title>Node11&#45;&gt;Node14</title>
<path fill="none" stroke="midnightblue" d="M769.86,-117.78C677.78,-108.71 415.5,-82.86 304.79,-71.96"/>
<polygon fill="midnightblue" stroke="midnightblue" points="304.85,-68.44 294.56,-70.95 304.16,-75.41 304.85,-68.44"/>
</g>
<!-- Node19 -->
<g id="node19" class="node">
<title>Node19</title>
<g id="a_node19"><a xlink:href="springmousemoveinfo_8h.html" target="_top" xlink:title=" ">
<polygon fill="white" stroke="black" points="534,-56.5 534,-75.5 653,-75.5 653,-56.5 534,-56.5"/>
<text text-anchor="middle" x="593.5" y="-63.5" font-family="Helvetica,sans-Serif" font-size="10.00">springmousemoveinfo.h</text>
</a>
</g>
</g>
<!-- Node11&#45;&gt;Node19 -->
<g id="edge24" class="edge">
<title>Node11&#45;&gt;Node19</title>
<path fill="none" stroke="midnightblue" d="M769.84,-112.56C733.94,-103.28 676.09,-88.34 636.51,-78.11"/>
<polygon fill="midnightblue" stroke="midnightblue" points="637.17,-74.67 626.62,-75.56 635.42,-81.45 637.17,-74.67"/>
</g>
<!-- Node20 -->
<g id="node20" class="node">
<title>Node20</title>
<g id="a_node20"><a xlink:title=" ">
<polygon fill="white" stroke="#bfbfbf" points="671,-56.5 671,-75.5 758,-75.5 758,-56.5 671,-56.5"/>
<text text-anchor="middle" x="714.5" y="-63.5" font-family="Helvetica,sans-Serif" font-size="10.00">QDeadlineTimer</text>
</a>
</g>
</g>
<!-- Node11&#45;&gt;Node20 -->
<g id="edge25" class="edge">
<title>Node11&#45;&gt;Node20</title>
<path fill="none" stroke="midnightblue" d="M788.36,-112.32C774.63,-103.9 753.56,-90.97 737.44,-81.07"/>
<polygon fill="midnightblue" stroke="midnightblue" points="738.96,-77.9 728.6,-75.65 735.3,-83.87 738.96,-77.9"/>
</g>
<!-- Node21 -->
<g id="node21" class="node">
<title>Node21</title>
<g id="a_node21"><a xlink:title=" ">
<polygon fill="white" stroke="#bfbfbf" points="776,-56.5 776,-75.5 829,-75.5 829,-56.5 776,-56.5"/>
<text text-anchor="middle" x="802.5" y="-63.5" font-family="Helvetica,sans-Serif" font-size="10.00">QQueue</text>
</a>
</g>
</g>
<!-- Node11&#45;&gt;Node21 -->
<g id="edge26" class="edge">
<title>Node11&#45;&gt;Node21</title>
<path fill="none" stroke="midnightblue" d="M802.5,-112.08C802.5,-105.01 802.5,-94.86 802.5,-85.99"/>
<polygon fill="midnightblue" stroke="midnightblue" points="806,-85.75 802.5,-75.75 799,-85.75 806,-85.75"/>
</g>
<!-- Node22 -->
<g id="node22" class="node">
<title>Node22</title>
<g id="a_node22"><a xlink:title=" ">
<polygon fill="white" stroke="#bfbfbf" points="847.5,-56.5 847.5,-75.5 937.5,-75.5 937.5,-56.5 847.5,-56.5"/>
<text text-anchor="middle" x="892.5" y="-63.5" font-family="Helvetica,sans-Serif" font-size="10.00">QReadWriteLock</text>
</a>
</g>
</g>
<!-- Node11&#45;&gt;Node22 -->
<g id="edge27" class="edge">
<title>Node11&#45;&gt;Node22</title>
<path fill="none" stroke="midnightblue" d="M816.96,-112.32C831,-103.9 852.55,-90.97 869.04,-81.07"/>
<polygon fill="midnightblue" stroke="midnightblue" points="871.3,-83.8 878.08,-75.65 867.7,-77.8 871.3,-83.8"/>
</g>
<!-- Node23 -->
<g id="node23" class="node">
<title>Node23</title>
<g id="a_node23"><a xlink:title=" ">
<polygon fill="white" stroke="#bfbfbf" points="956,-56.5 956,-75.5 1021,-75.5 1021,-56.5 956,-56.5"/>
<text text-anchor="middle" x="988.5" y="-63.5" font-family="Helvetica,sans-Serif" font-size="10.00">QRunnable</text>
</a>
</g>
</g>
<!-- Node11&#45;&gt;Node23 -->
<g id="edge28" class="edge">
<title>Node11&#45;&gt;Node23</title>
<path fill="none" stroke="midnightblue" d="M831.97,-112.44C863.67,-103.24 914.23,-88.56 949.27,-78.39"/>
<polygon fill="midnightblue" stroke="midnightblue" points="950.54,-81.67 959.17,-75.52 948.59,-74.94 950.54,-81.67"/>
</g>
<!-- Node24 -->
<g id="node24" class="node">
<title>Node24</title>
<g id="a_node24"><a xlink:title=" ">
<polygon fill="white" stroke="#bfbfbf" points="1244.5,-56.5 1244.5,-75.5 1298.5,-75.5 1298.5,-56.5 1244.5,-56.5"/>
<text text-anchor="middle" x="1271.5" y="-63.5" font-family="Helvetica,sans-Serif" font-size="10.00">QThread</text>
</a>
</g>
</g>
<!-- Node11&#45;&gt;Node24 -->
<g id="edge29" class="edge">
<title>Node11&#45;&gt;Node24</title>
<path fill="none" stroke="midnightblue" d="M835.04,-119.2C905.89,-114.93 1079.52,-102.65 1234.29,-75.97"/>
<polygon fill="midnightblue" stroke="midnightblue" points="1235.21,-79.37 1244.46,-74.2 1234.01,-72.47 1235.21,-79.37"/>
</g>
<!-- Node25 -->
<g id="node25" class="node">
<title>Node25</title>
<g id="a_node25"><a xlink:title=" ">
<polygon fill="white" stroke="#bfbfbf" points="1039,-56.5 1039,-75.5 1088,-75.5 1088,-56.5 1039,-56.5"/>
<text text-anchor="middle" x="1063.5" y="-63.5" font-family="Helvetica,sans-Serif" font-size="10.00">QTimer</text>
</a>
</g>
</g>
<!-- Node11&#45;&gt;Node25 -->
<g id="edge30" class="edge">
<title>Node11&#45;&gt;Node25</title>
<path fill="none" stroke="midnightblue" d="M835.13,-115.32C877.62,-107.75 954.4,-93.52 1028.69,-76.31"/>
<polygon fill="midnightblue" stroke="midnightblue" points="1029.74,-79.66 1038.68,-73.97 1028.15,-72.84 1029.74,-79.66"/>
</g>
<!-- Node12&#45;&gt;Node4 -->
<g id="edge14" class="edge">
<title>Node12&#45;&gt;Node4</title>
<path fill="none" stroke="midnightblue" d="M481.94,-56.32C491.65,-48.26 506.32,-36.08 518,-26.37"/>
<polygon fill="midnightblue" stroke="midnightblue" points="520.41,-28.92 525.87,-19.83 515.94,-23.53 520.41,-28.92"/>
</g>
<!-- Node12&#45;&gt;Node8 -->
<g id="edge13" class="edge">
<title>Node12&#45;&gt;Node8</title>
<path fill="none" stroke="midnightblue" d="M471.5,-56.08C471.5,-49.01 471.5,-38.86 471.5,-29.99"/>
<polygon fill="midnightblue" stroke="midnightblue" points="475,-29.75 471.5,-19.75 468,-29.75 475,-29.75"/>
</g>
<!-- Node13&#45;&gt;Node4 -->
<g id="edge16" class="edge">
<title>Node13&#45;&gt;Node4</title>
<path fill="none" stroke="midnightblue" d="M1106.31,-56.97C1103.33,-56.63 1100.38,-56.3 1097.5,-56 900.24,-35.24 663.07,-19.11 573.32,-13.32"/>
<polygon fill="midnightblue" stroke="midnightblue" points="573.32,-9.81 563.12,-12.66 572.87,-16.8 573.32,-9.81"/>
</g>
<!-- Node14&#45;&gt;Node4 -->
<g id="edge19" class="edge">
<title>Node14&#45;&gt;Node4</title>
<path fill="none" stroke="midnightblue" d="M294.71,-58.46C341.55,-50.66 421.46,-36.8 499.77,-20.04"/>
<polygon fill="midnightblue" stroke="midnightblue" points="500.77,-23.41 509.81,-17.88 499.29,-16.56 500.77,-23.41"/>
</g>
<!-- Node14&#45;&gt;Node5 -->
<g id="edge20" class="edge">
<title>Node14&#45;&gt;Node5</title>
<path fill="none" stroke="midnightblue" d="M218.06,-56.44C181.82,-47.91 124.36,-34.34 65.26,-20.17"/>
<polygon fill="midnightblue" stroke="midnightblue" points="65.92,-16.73 55.38,-17.8 64.28,-23.54 65.92,-16.73"/>
</g>
<!-- Node15 -->
<g id="node15" class="node">
<title>Node15</title>
<g id="a_node15"><a xlink:title=" ">
<polygon fill="white" stroke="#bfbfbf" points="349.5,-0.5 349.5,-19.5 433.5,-19.5 433.5,-0.5 349.5,-0.5"/>
<text text-anchor="middle" x="391.5" y="-7.5" font-family="Helvetica,sans-Serif" font-size="10.00">QElapsedTimer</text>
</a>
</g>
</g>
<!-- Node14&#45;&gt;Node15 -->
<g id="edge18" class="edge">
<title>Node14&#45;&gt;Node15</title>
<path fill="none" stroke="midnightblue" d="M276.21,-56.44C298.85,-47.52 334.57,-33.44 360.25,-23.32"/>
<polygon fill="midnightblue" stroke="midnightblue" points="361.87,-26.44 369.89,-19.52 359.31,-19.93 361.87,-26.44"/>
</g>
<!-- Node16 -->
<g id="node16" class="node">
<title>Node16</title>
<g id="a_node16"><a xlink:title=" ">
<polygon fill="white" stroke="#bfbfbf" points="73.5,-0.5 73.5,-19.5 119.5,-19.5 119.5,-0.5 73.5,-0.5"/>
<text text-anchor="middle" x="96.5" y="-7.5" font-family="Helvetica,sans-Serif" font-size="10.00">QTime</text>
</a>
</g>
</g>
<!-- Node14&#45;&gt;Node16 -->
<g id="edge21" class="edge">
<title>Node14&#45;&gt;Node16</title>
<path fill="none" stroke="midnightblue" d="M229.46,-56.44C202.34,-47.17 158.95,-32.34 129.16,-22.16"/>
<polygon fill="midnightblue" stroke="midnightblue" points="130.21,-18.82 119.62,-18.9 127.95,-25.45 130.21,-18.82"/>
</g>
<!-- Node17 -->
<g id="node17" class="node">
<title>Node17</title>
<g id="a_node17"><a xlink:title=" ">
<polygon fill="white" stroke="#bfbfbf" points="137.5,-0.5 137.5,-19.5 191.5,-19.5 191.5,-0.5 137.5,-0.5"/>
<text text-anchor="middle" x="164.5" y="-7.5" font-family="Helvetica,sans-Serif" font-size="10.00">QVariant</text>
</a>
</g>
</g>
<!-- Node14&#45;&gt;Node17 -->
<g id="edge22" class="edge">
<title>Node14&#45;&gt;Node17</title>
<path fill="none" stroke="midnightblue" d="M240.04,-56.32C226,-47.9 204.45,-34.97 187.96,-25.07"/>
<polygon fill="midnightblue" stroke="midnightblue" points="189.3,-21.8 178.92,-19.65 185.7,-27.8 189.3,-21.8"/>
</g>
<!-- Node18 -->
<g id="node18" class="node">
<title>Node18</title>
<g id="a_node18"><a xlink:title=" ">
<polygon fill="white" stroke="#bfbfbf" points="209.5,-0.5 209.5,-19.5 331.5,-19.5 331.5,-0.5 209.5,-0.5"/>
<text text-anchor="middle" x="270.5" y="-7.5" font-family="Helvetica,sans-Serif" font-size="10.00">QtWidgets/QApplication</text>
</a>
</g>
</g>
<!-- Node14&#45;&gt;Node18 -->
<g id="edge23" class="edge">
<title>Node14&#45;&gt;Node18</title>
<path fill="none" stroke="midnightblue" d="M257.14,-56.08C259.29,-48.85 262.38,-38.41 265.05,-29.4"/>
<polygon fill="midnightblue" stroke="midnightblue" points="268.42,-30.33 267.91,-19.75 261.71,-28.34 268.42,-30.33"/>
</g>
<!-- Node26&#45;&gt;Node4 -->
<g id="edge34" class="edge">
<title>Node26&#45;&gt;Node4</title>
<path fill="none" stroke="midnightblue" d="M1368.73,-112.27C1358.45,-97.57 1335.39,-68.26 1307.5,-56 1239.92,-26.28 717.98,-14.39 573.48,-11.65"/>
<polygon fill="midnightblue" stroke="midnightblue" points="573.41,-8.15 563.35,-11.46 573.28,-15.15 573.41,-8.15"/>
</g>
<!-- Node26&#45;&gt;Node24 -->
<g id="edge36" class="edge">
<title>Node26&#45;&gt;Node24</title>
<path fill="none" stroke="midnightblue" d="M1357.95,-112.32C1341.51,-103.7 1316.07,-90.36 1297.03,-80.39"/>
<polygon fill="midnightblue" stroke="midnightblue" points="1298.49,-77.2 1288.01,-75.65 1295.24,-83.4 1298.49,-77.2"/>
</g>
<!-- Node27 -->
<g id="node27" class="node">
<title>Node27</title>
<g id="a_node27"><a xlink:title=" ">
<polygon fill="white" stroke="#bfbfbf" points="1354.5,-56.5 1354.5,-75.5 1394.5,-75.5 1394.5,-56.5 1354.5,-56.5"/>
<text text-anchor="middle" x="1374.5" y="-63.5" font-family="Helvetica,sans-Serif" font-size="10.00">QFile</text>
</a>
</g>
</g>
<!-- Node26&#45;&gt;Node27 -->
<g id="edge32" class="edge">
<title>Node26&#45;&gt;Node27</title>
<path fill="none" stroke="midnightblue" d="M1374.5,-112.08C1374.5,-105.01 1374.5,-94.86 1374.5,-85.99"/>
<polygon fill="midnightblue" stroke="midnightblue" points="1378,-85.75 1374.5,-75.75 1371,-85.75 1378,-85.75"/>
</g>
<!-- Node28 -->
<g id="node28" class="node">
<title>Node28</title>
<g id="a_node28"><a xlink:title=" ">
<polygon fill="white" stroke="#bfbfbf" points="1413,-56.5 1413,-75.5 1464,-75.5 1464,-56.5 1413,-56.5"/>
<text text-anchor="middle" x="1438.5" y="-63.5" font-family="Helvetica,sans-Serif" font-size="10.00">QMutex</text>
</a>
</g>
</g>
<!-- Node26&#45;&gt;Node28 -->
<g id="edge33" class="edge">
<title>Node26&#45;&gt;Node28</title>
<path fill="none" stroke="midnightblue" d="M1384.78,-112.32C1394.34,-104.26 1408.78,-92.08 1420.28,-82.37"/>
<polygon fill="midnightblue" stroke="midnightblue" points="1422.64,-84.96 1428.03,-75.83 1418.13,-79.61 1422.64,-84.96"/>
</g>
<!-- Node29 -->
<g id="node29" class="node">
<title>Node29</title>
<g id="a_node29"><a xlink:title=" ">
<polygon fill="white" stroke="#bfbfbf" points="1482.5,-56.5 1482.5,-75.5 1556.5,-75.5 1556.5,-56.5 1482.5,-56.5"/>
<text text-anchor="middle" x="1519.5" y="-63.5" font-family="Helvetica,sans-Serif" font-size="10.00">QTextStream</text>
</a>
</g>
</g>
<!-- Node26&#45;&gt;Node29 -->
<g id="edge35" class="edge">
<title>Node26&#45;&gt;Node29</title>
<path fill="none" stroke="midnightblue" d="M1397.48,-112.44C1421.66,-103.44 1459.92,-89.19 1487.15,-79.05"/>
<polygon fill="midnightblue" stroke="midnightblue" points="1488.48,-82.29 1496.63,-75.52 1486.04,-75.73 1488.48,-82.29"/>
</g>
<!-- Node30 -->
<g id="node30" class="node">
<title>Node30</title>
<g id="a_node30"><a xlink:title=" ">
<polygon fill="white" stroke="#bfbfbf" points="1574.5,-56.5 1574.5,-75.5 1626.5,-75.5 1626.5,-56.5 1574.5,-56.5"/>
<text text-anchor="middle" x="1600.5" y="-63.5" font-family="Helvetica,sans-Serif" font-size="10.00">sstream</text>
</a>
</g>
</g>
<!-- Node26&#45;&gt;Node30 -->
<g id="edge37" class="edge">
<title>Node26&#45;&gt;Node30</title>
<path fill="none" stroke="midnightblue" d="M1400.18,-115.12C1435.1,-107.1 1499.74,-92.1 1564.22,-76.28"/>
<polygon fill="midnightblue" stroke="midnightblue" points="1565.27,-79.63 1574.14,-73.84 1563.59,-72.83 1565.27,-79.63"/>
</g>
<!-- Node31&#45;&gt;Node9 -->
<g id="edge39" class="edge">
<title>Node31&#45;&gt;Node9</title>
<path fill="none" stroke="midnightblue" d="M560.62,-280.32C570.03,-272.26 584.24,-260.08 595.57,-250.37"/>
<polygon fill="midnightblue" stroke="midnightblue" points="597.88,-253 603.19,-243.83 593.32,-247.68 597.88,-253"/>
</g>
<!-- Node32&#45;&gt;Node4 -->
<g id="edge42" class="edge">
<title>Node32&#45;&gt;Node4</title>
<path fill="none" stroke="midnightblue" d="M1286.23,-228.52C1415.42,-215.16 1744.26,-169.3 1635.5,-56 1597.92,-16.85 760.41,-11.75 573.33,-11.09"/>
<polygon fill="midnightblue" stroke="midnightblue" points="573.2,-7.59 563.18,-11.06 573.17,-14.59 573.2,-7.59"/>
</g>
</g>
</svg>
        <g id="navigator" transform="translate(0 0)" fill="#404254">
                <rect fill="#f2f5e9" fill-opacity="0.5" stroke="#606060" stroke-width=".5" x="0" y="0" width="60" height="60"/>
                <use id="zoomplus" xlink:href="#zoomPlus" x="17" y="9" onmousedown="handleZoom(evt,'in')"/>
                <use id="zoomminus" xlink:href="#zoomMin" x="42" y="9" onmousedown="handleZoom(evt,'out')"/>
                <use id="reset" xlink:href="#resetDef" x="30" y="36" onmousedown="handleReset()"/>
                <g id="arrowUp" xlink:href="#dirArrow" transform="translate(30 24)" onmousedown="handlePan(0,-1)">
                  <use xlink:href="#rim" fill="#404040">
                        <set attributeName="fill" to="#808080" begin="arrowUp.mouseover" end="arrowUp.mouseout"/>
                  </use>
                  <path fill="none" stroke="white" stroke-width="1.5" d="M0,-3.0v7 M-2.5,-0.5L0,-3.0L2.5,-0.5"/>
                </g>
                <g id="arrowRight" xlink:href="#dirArrow" transform="rotate(90) translate(36 -43)" onmousedown="handlePan(1,0)">
                  <use xlink:href="#rim" fill="#404040">
                        <set attributeName="fill" to="#808080" begin="arrowRight.mouseover" end="arrowRight.mouseout"/>
                  </use>
                  <path fill="none" stroke="white" stroke-width="1.5" d="M0,-3.0v7 M-2.5,-0.5L0,-3.0L2.5,-0.5"/>
                </g>
                <g id="arrowDown" xlink:href="#dirArrow" transform="rotate(180) translate(-30 -48)" onmousedown="handlePan(0,1)">
                  <use xlink:href="#rim" fill="#404040">
                        <set attributeName="fill" to="#808080" begin="arrowDown.mouseover" end="arrowDown.mouseout"/>
                  </use>
                  <path fill="none" stroke="white" stroke-width="1.5" d="M0,-3.0v7 M-2.5,-0.5L0,-3.0L2.5,-0.5"/>
                </g>
                <g id="arrowLeft" xlink:href="#dirArrow" transform="rotate(270) translate(-36 17)" onmousedown="handlePan(-1,0)">
                  <use xlink:href="#rim" fill="#404040">
                        <set attributeName="fill" to="#808080" begin="arrowLeft.mouseover" end="arrowLeft.mouseout"/>
                  </use>
                  <path fill="none" stroke="white" stroke-width="1.5" d="M0,-3.0v7 M-2.5,-0.5L0,-3.0L2.5,-0.5"/>
                </g>
        </g>
        <svg viewBox="0 0 15 15" width="100%" height="30px" preserveAspectRatio="xMaxYMin meet">
         <g id="arrow_out" transform="scale(0.3 0.3)">
          <a xlink:href="gamecontrollertriggerxml_8cpp__incl_org.svg" target="_base">
           <rect id="button" ry="5" rx="5" y="6" x="6" height="38" width="38"
                fill="#f2f5e9" fill-opacity="0.5" stroke="#606060" stroke-width="1.0"/>
           <path id="arrow"
             d="M 11.500037,31.436501 C 11.940474,20.09759 22.043105,11.32322 32.158766,21.979434 L 37.068811,17.246167 C 37.068811,17.246167 37.088388,32 37.088388,32 L 22.160133,31.978069 C 22.160133,31.978069 26.997745,27.140456 26.997745,27.140456 C 18.528582,18.264221 13.291696,25.230495 11.500037,31.436501 z"
             style="fill:#404040;"/>
          </a>
         </g>
        </svg>
</svg>
