<?xml version="1.0" encoding="UTF-8" standalone="no"?>
<!DOCTYPE svg PUBLIC "-//W3C//DTD SVG 1.1//EN"
 "http://www.w3.org/Graphics/SVG/1.1/DTD/svg11.dtd">
<!-- Generated by graphviz version 2.43.0 (0)
 -->
<!-- Title: /home/pawel/antimicrox/src/gamecontroller/xml/gamecontrollerxml.cpp Pages: 1 -->
<svg width="1442pt" height="610pt"
 viewBox="0.00 0.00 1442.40 610.00" xmlns="http://www.w3.org/2000/svg" xmlns:xlink="http://www.w3.org/1999/xlink">
<g id="graph0" class="graph" transform="scale(1 1) rotate(0) translate(4 606)">
<title>/home/pawel/antimicrox/src/gamecontroller/xml/gamecontrollerxml.cpp</title>
<polygon fill="white" stroke="transparent" points="-4,4 -4,-606 1438.4,-606 1438.4,4 -4,4"/>
<!-- Node1 -->
<g id="node1" class="node">
<title>Node1</title>
<g id="a_node1"><a xlink:title=" ">
<polygon fill="#bfbfbf" stroke="black" points="844.9,-560.5 844.9,-601.5 963.9,-601.5 963.9,-560.5 844.9,-560.5"/>
<text text-anchor="start" x="852.9" y="-589.5" font-family="Helvetica,sans-Serif" font-size="10.00">/home/pawel/antimicrox</text>
<text text-anchor="start" x="852.9" y="-578.5" font-family="Helvetica,sans-Serif" font-size="10.00">/src/gamecontroller/xml</text>
<text text-anchor="middle" x="904.4" y="-567.5" font-family="Helvetica,sans-Serif" font-size="10.00">/gamecontrollerxml.cpp</text>
</a>
</g>
</g>
<!-- Node2 -->
<g id="node2" class="node">
<title>Node2</title>
<g id="a_node2"><a xlink:href="gamecontrollerxml_8h.html" target="_top" xlink:title=" ">
<polygon fill="white" stroke="black" points="327.9,-504.5 327.9,-523.5 432.9,-523.5 432.9,-504.5 327.9,-504.5"/>
<text text-anchor="middle" x="380.4" y="-511.5" font-family="Helvetica,sans-Serif" font-size="10.00">gamecontrollerxml.h</text>
</a>
</g>
</g>
<!-- Node1&#45;&gt;Node2 -->
<g id="edge1" class="edge">
<title>Node1&#45;&gt;Node2</title>
<path fill="none" stroke="midnightblue" d="M844.67,-572.68C758,-562.04 592.34,-541.64 451.4,-524 448.71,-523.66 445.98,-523.32 443.21,-522.97"/>
<polygon fill="midnightblue" stroke="midnightblue" points="443.48,-519.48 433.12,-521.7 442.61,-526.42 443.48,-519.48"/>
</g>
<!-- Node3 -->
<g id="node3" class="node">
<title>Node3</title>
<g id="a_node3"><a xlink:href="gamecontroller_8h.html" target="_top" xlink:title=" ">
<polygon fill="white" stroke="black" points="302.9,-448.5 302.9,-467.5 457.9,-467.5 457.9,-448.5 302.9,-448.5"/>
<text text-anchor="middle" x="380.4" y="-455.5" font-family="Helvetica,sans-Serif" font-size="10.00">gamecontroller/gamecontroller.h</text>
</a>
</g>
</g>
<!-- Node1&#45;&gt;Node3 -->
<g id="edge35" class="edge">
<title>Node1&#45;&gt;Node3</title>
<path fill="none" stroke="midnightblue" d="M844.68,-567.73C791.7,-556.72 712.26,-539.89 643.4,-524 565.63,-506.05 475.41,-483.34 423.41,-470.06"/>
<polygon fill="midnightblue" stroke="midnightblue" points="424.09,-466.62 413.53,-467.54 422.35,-473.41 424.09,-466.62"/>
</g>
<!-- Node13 -->
<g id="node13" class="node">
<title>Node13</title>
<g id="a_node13"><a xlink:href="globalvariables_8h.html" target="_top" xlink:title=" ">
<polygon fill="white" stroke="black" points="11.9,-56.5 11.9,-75.5 100.9,-75.5 100.9,-56.5 11.9,-56.5"/>
<text text-anchor="middle" x="56.4" y="-63.5" font-family="Helvetica,sans-Serif" font-size="10.00">globalvariables.h</text>
</a>
</g>
</g>
<!-- Node1&#45;&gt;Node13 -->
<g id="edge51" class="edge">
<title>Node1&#45;&gt;Node13</title>
<path fill="none" stroke="midnightblue" d="M844.89,-577.81C651.55,-569.93 53.4,-539.07 53.4,-459 53.4,-459 53.4,-459 53.4,-177 53.4,-144.94 54.69,-107.63 55.57,-85.74"/>
<polygon fill="midnightblue" stroke="midnightblue" points="59.08,-85.69 56,-75.56 52.09,-85.4 59.08,-85.69"/>
</g>
<!-- Node36 -->
<g id="node28" class="node">
<title>Node36</title>
<g id="a_node28"><a xlink:href="common_8h.html" target="_top" xlink:title=" ">
<polygon fill="white" stroke="black" points="674.4,-280.5 674.4,-299.5 736.4,-299.5 736.4,-280.5 674.4,-280.5"/>
<text text-anchor="middle" x="705.4" y="-287.5" font-family="Helvetica,sans-Serif" font-size="10.00">common.h</text>
</a>
</g>
</g>
<!-- Node1&#45;&gt;Node36 -->
<g id="edge36" class="edge">
<title>Node1&#45;&gt;Node36</title>
<path fill="none" stroke="midnightblue" d="M844.78,-574.39C807.28,-567.92 760.31,-553.98 729.4,-524 707.4,-502.66 706.4,-489.64 706.4,-459 706.4,-459 706.4,-459 706.4,-401 706.4,-368.95 705.97,-331.64 705.67,-309.75"/>
<polygon fill="midnightblue" stroke="midnightblue" points="709.17,-309.51 705.53,-299.56 702.17,-309.61 709.17,-309.51"/>
</g>
<!-- Node47 -->
<g id="node39" class="node">
<title>Node47</title>
<g id="a_node39"><a xlink:href="gamecontrollerdpad_8h.html" target="_top" xlink:title=" ">
<polygon fill="white" stroke="black" points="1115.4,-448.5 1115.4,-467.5 1291.4,-467.5 1291.4,-448.5 1115.4,-448.5"/>
<text text-anchor="middle" x="1203.4" y="-455.5" font-family="Helvetica,sans-Serif" font-size="10.00">gamecontroller/gamecontrollerdpad.h</text>
</a>
</g>
</g>
<!-- Node1&#45;&gt;Node47 -->
<g id="edge52" class="edge">
<title>Node1&#45;&gt;Node47</title>
<path fill="none" stroke="midnightblue" d="M951.65,-560.49C976.23,-550.09 1006.65,-536.82 1033.4,-524 1050.61,-515.75 1053.87,-511.55 1071.4,-504 1101.96,-490.84 1137.75,-478.84 1164.35,-470.55"/>
<polygon fill="midnightblue" stroke="midnightblue" points="1165.54,-473.85 1174.07,-467.56 1163.48,-467.16 1165.54,-473.85"/>
</g>
<!-- Node51 -->
<g id="node43" class="node">
<title>Node51</title>
<g id="a_node43"><a xlink:href="gamecontrollerset_8h.html" target="_top" xlink:title=" ">
<polygon fill="white" stroke="black" points="475.9,-448.5 475.9,-467.5 644.9,-467.5 644.9,-448.5 475.9,-448.5"/>
<text text-anchor="middle" x="560.4" y="-455.5" font-family="Helvetica,sans-Serif" font-size="10.00">gamecontroller/gamecontrollerset.h</text>
</a>
</g>
</g>
<!-- Node1&#45;&gt;Node51 -->
<g id="edge58" class="edge">
<title>Node1&#45;&gt;Node51</title>
<path fill="none" stroke="midnightblue" d="M844.47,-567.53C801.46,-557.78 742.49,-542.74 692.4,-524 653.19,-509.34 610.09,-486.81 584.14,-472.5"/>
<polygon fill="midnightblue" stroke="midnightblue" points="585.84,-469.44 575.4,-467.63 582.43,-475.55 585.84,-469.44"/>
</g>
<!-- Node52 -->
<g id="node44" class="node">
<title>Node52</title>
<g id="a_node44"><a xlink:href="joycontrolstickbutton_8h.html" target="_top" xlink:title=" ">
<polygon fill="white" stroke="black" points="737.9,-504.5 737.9,-523.5 918.9,-523.5 918.9,-504.5 737.9,-504.5"/>
<text text-anchor="middle" x="828.4" y="-511.5" font-family="Helvetica,sans-Serif" font-size="10.00">joybuttontypes/joycontrolstickbutton.h</text>
</a>
</g>
</g>
<!-- Node1&#45;&gt;Node52 -->
<g id="edge61" class="edge">
<title>Node1&#45;&gt;Node52</title>
<path fill="none" stroke="midnightblue" d="M881.59,-560.5C870.28,-550.82 856.81,-539.3 846.26,-530.27"/>
<polygon fill="midnightblue" stroke="midnightblue" points="848.39,-527.49 838.51,-523.65 843.84,-532.81 848.39,-527.49"/>
</g>
<!-- Node54 -->
<g id="node46" class="node">
<title>Node54</title>
<g id="a_node46"><a xlink:href="joycontrolstick_8h.html" target="_top" xlink:title=" ">
<polygon fill="white" stroke="black" points="936.9,-504.5 936.9,-523.5 1023.9,-523.5 1023.9,-504.5 936.9,-504.5"/>
<text text-anchor="middle" x="980.4" y="-511.5" font-family="Helvetica,sans-Serif" font-size="10.00">joycontrolstick.h</text>
</a>
</g>
</g>
<!-- Node1&#45;&gt;Node54 -->
<g id="edge64" class="edge">
<title>Node1&#45;&gt;Node54</title>
<path fill="none" stroke="midnightblue" d="M927.2,-560.5C938.51,-550.82 951.98,-539.3 962.54,-530.27"/>
<polygon fill="midnightblue" stroke="midnightblue" points="964.95,-532.81 970.28,-523.65 960.4,-527.49 964.95,-532.81"/>
</g>
<!-- Node55 -->
<g id="node47" class="node">
<title>Node55</title>
<g id="a_node47"><a xlink:title=" ">
<polygon fill="white" stroke="#bfbfbf" points="1080.4,-504.5 1080.4,-523.5 1124.4,-523.5 1124.4,-504.5 1080.4,-504.5"/>
<text text-anchor="middle" x="1102.4" y="-511.5" font-family="Helvetica,sans-Serif" font-size="10.00">cmath</text>
</a>
</g>
</g>
<!-- Node1&#45;&gt;Node55 -->
<g id="edge67" class="edge">
<title>Node1&#45;&gt;Node55</title>
<path fill="none" stroke="midnightblue" d="M963.8,-560.5C998.86,-548.99 1041.84,-534.88 1070.55,-525.45"/>
<polygon fill="midnightblue" stroke="midnightblue" points="1071.67,-528.77 1080.08,-522.33 1069.49,-522.12 1071.67,-528.77"/>
</g>
<!-- Node56 -->
<g id="node48" class="node">
<title>Node56</title>
<g id="a_node48"><a xlink:title=" ">
<polygon fill="white" stroke="#bfbfbf" points="1142.9,-504.5 1142.9,-523.5 1195.9,-523.5 1195.9,-504.5 1142.9,-504.5"/>
<text text-anchor="middle" x="1169.4" y="-511.5" font-family="Helvetica,sans-Serif" font-size="10.00">QDebug</text>
</a>
</g>
</g>
<!-- Node1&#45;&gt;Node56 -->
<g id="edge68" class="edge">
<title>Node1&#45;&gt;Node56</title>
<path fill="none" stroke="midnightblue" d="M964.21,-565.46C1008.17,-554.76 1069.63,-539.75 1132.91,-524.11"/>
<polygon fill="midnightblue" stroke="midnightblue" points="1133.8,-527.5 1142.66,-521.7 1132.12,-520.7 1133.8,-527.5"/>
</g>
<!-- Node57 -->
<g id="node49" class="node">
<title>Node57</title>
<g id="a_node49"><a xlink:title=" ">
<polygon fill="white" stroke="#bfbfbf" points="1214.4,-504.5 1214.4,-523.5 1318.4,-523.5 1318.4,-504.5 1214.4,-504.5"/>
<text text-anchor="middle" x="1266.4" y="-511.5" font-family="Helvetica,sans-Serif" font-size="10.00">QXmlStreamReader</text>
</a>
</g>
</g>
<!-- Node1&#45;&gt;Node57 -->
<g id="edge69" class="edge">
<title>Node1&#45;&gt;Node57</title>
<path fill="none" stroke="midnightblue" d="M964.17,-569.27C1032.08,-557.07 1142.11,-537.32 1209.01,-525.3"/>
<polygon fill="midnightblue" stroke="midnightblue" points="1209.73,-528.73 1218.96,-523.52 1208.5,-521.84 1209.73,-528.73"/>
</g>
<!-- Node58 -->
<g id="node50" class="node">
<title>Node58</title>
<g id="a_node50"><a xlink:title=" ">
<polygon fill="white" stroke="#bfbfbf" points="1336.4,-504.5 1336.4,-523.5 1434.4,-523.5 1434.4,-504.5 1336.4,-504.5"/>
<text text-anchor="middle" x="1385.4" y="-511.5" font-family="Helvetica,sans-Serif" font-size="10.00">QXmlStreamWriter</text>
</a>
</g>
</g>
<!-- Node1&#45;&gt;Node58 -->
<g id="edge70" class="edge">
<title>Node1&#45;&gt;Node58</title>
<path fill="none" stroke="midnightblue" d="M964,-572.54C1043.94,-562.43 1190.6,-543.56 1326.2,-524.15"/>
<polygon fill="midnightblue" stroke="midnightblue" points="1326.96,-527.57 1336.36,-522.69 1325.96,-520.64 1326.96,-527.57"/>
</g>
<!-- Node2&#45;&gt;Node3 -->
<g id="edge2" class="edge">
<title>Node2&#45;&gt;Node3</title>
<path fill="none" stroke="midnightblue" d="M380.4,-504.08C380.4,-497.01 380.4,-486.86 380.4,-477.99"/>
<polygon fill="midnightblue" stroke="midnightblue" points="383.9,-477.75 380.4,-467.75 376.9,-477.75 383.9,-477.75"/>
</g>
<!-- Node35 -->
<g id="node27" class="node">
<title>Node35</title>
<g id="a_node27"><a xlink:href="inputdevicexml_8h.html" target="_top" xlink:title=" ">
<polygon fill="white" stroke="black" points="113.9,-392.5 113.9,-411.5 222.9,-411.5 222.9,-392.5 113.9,-392.5"/>
<text text-anchor="middle" x="168.4" y="-399.5" font-family="Helvetica,sans-Serif" font-size="10.00">xml/inputdevicexml.h</text>
</a>
</g>
</g>
<!-- Node2&#45;&gt;Node35 -->
<g id="edge33" class="edge">
<title>Node2&#45;&gt;Node35</title>
<path fill="none" stroke="midnightblue" d="M363.71,-504.38C346.19,-495.33 317.85,-480.68 293.4,-468 258.93,-450.13 219.15,-429.43 193.9,-416.28"/>
<polygon fill="midnightblue" stroke="midnightblue" points="195.46,-413.15 184.97,-411.63 192.22,-419.36 195.46,-413.15"/>
</g>
<!-- Node4 -->
<g id="node4" class="node">
<title>Node4</title>
<g id="a_node4"><a xlink:title=" ">
<polygon fill="white" stroke="#bfbfbf" points="379.9,-392.5 379.9,-411.5 520.9,-411.5 520.9,-392.5 379.9,-392.5"/>
<text text-anchor="middle" x="450.4" y="-399.5" font-family="Helvetica,sans-Serif" font-size="10.00">SDL2/SDL_gamecontroller.h</text>
</a>
</g>
</g>
<!-- Node3&#45;&gt;Node4 -->
<g id="edge3" class="edge">
<title>Node3&#45;&gt;Node4</title>
<path fill="none" stroke="midnightblue" d="M391.64,-448.32C402.19,-440.18 418.2,-427.84 430.84,-418.09"/>
<polygon fill="midnightblue" stroke="midnightblue" points="433.16,-420.71 438.94,-411.83 428.89,-415.17 433.16,-420.71"/>
</g>
<!-- Node5 -->
<g id="node5" class="node">
<title>Node5</title>
<g id="a_node5"><a xlink:href="inputdevice_8h.html" target="_top" xlink:title=" ">
<polygon fill="white" stroke="black" points="273.4,-392.5 273.4,-411.5 347.4,-411.5 347.4,-392.5 273.4,-392.5"/>
<text text-anchor="middle" x="310.4" y="-399.5" font-family="Helvetica,sans-Serif" font-size="10.00">inputdevice.h</text>
</a>
</g>
</g>
<!-- Node3&#45;&gt;Node5 -->
<g id="edge4" class="edge">
<title>Node3&#45;&gt;Node5</title>
<path fill="none" stroke="midnightblue" d="M369.15,-448.32C358.6,-440.18 342.6,-427.84 329.95,-418.09"/>
<polygon fill="midnightblue" stroke="midnightblue" points="331.9,-415.17 321.85,-411.83 327.63,-420.71 331.9,-415.17"/>
</g>
<!-- Node6 -->
<g id="node6" class="node">
<title>Node6</title>
<g id="a_node6"><a xlink:href="setjoystick_8h.html" target="_top" xlink:title=" ">
<polygon fill="white" stroke="black" points="274.9,-336.5 274.9,-355.5 345.9,-355.5 345.9,-336.5 274.9,-336.5"/>
<text text-anchor="middle" x="310.4" y="-343.5" font-family="Helvetica,sans-Serif" font-size="10.00">setjoystick.h</text>
</a>
</g>
</g>
<!-- Node5&#45;&gt;Node6 -->
<g id="edge5" class="edge">
<title>Node5&#45;&gt;Node6</title>
<path fill="none" stroke="midnightblue" d="M310.4,-392.08C310.4,-385.01 310.4,-374.86 310.4,-365.99"/>
<polygon fill="midnightblue" stroke="midnightblue" points="313.9,-365.75 310.4,-355.75 306.9,-365.75 313.9,-365.75"/>
</g>
<!-- Node34 -->
<g id="node26" class="node">
<title>Node34</title>
<g id="a_node26"><a xlink:title=" ">
<polygon fill="white" stroke="#bfbfbf" points="146.4,-336.5 146.4,-355.5 256.4,-355.5 256.4,-336.5 146.4,-336.5"/>
<text text-anchor="middle" x="201.4" y="-343.5" font-family="Helvetica,sans-Serif" font-size="10.00">SDL2/SDL_joystick.h</text>
</a>
</g>
</g>
<!-- Node5&#45;&gt;Node34 -->
<g id="edge32" class="edge">
<title>Node5&#45;&gt;Node34</title>
<path fill="none" stroke="midnightblue" d="M292.88,-392.32C275.32,-383.62 248.06,-370.12 227.87,-360.11"/>
<polygon fill="midnightblue" stroke="midnightblue" points="229.38,-356.96 218.87,-355.65 226.27,-363.23 229.38,-356.96"/>
</g>
<!-- Node7 -->
<g id="node7" class="node">
<title>Node7</title>
<g id="a_node7"><a xlink:href="joyaxis_8h.html" target="_top" xlink:title=" ">
<polygon fill="white" stroke="black" points="157.4,-280.5 157.4,-299.5 213.4,-299.5 213.4,-280.5 157.4,-280.5"/>
<text text-anchor="middle" x="185.4" y="-287.5" font-family="Helvetica,sans-Serif" font-size="10.00">joyaxis.h</text>
</a>
</g>
</g>
<!-- Node6&#45;&gt;Node7 -->
<g id="edge6" class="edge">
<title>Node6&#45;&gt;Node7</title>
<path fill="none" stroke="midnightblue" d="M290.59,-336.44C270.11,-327.6 237.91,-313.69 214.53,-303.59"/>
<polygon fill="midnightblue" stroke="midnightblue" points="215.68,-300.27 205.11,-299.52 212.9,-306.7 215.68,-300.27"/>
</g>
<!-- Node33 -->
<g id="node25" class="node">
<title>Node33</title>
<g id="a_node25"><a xlink:href="setjoystickxml_8h.html" target="_top" xlink:title=" ">
<polygon fill="white" stroke="black" points="249.4,-280.5 249.4,-299.5 355.4,-299.5 355.4,-280.5 249.4,-280.5"/>
<text text-anchor="middle" x="302.4" y="-287.5" font-family="Helvetica,sans-Serif" font-size="10.00">xml/setjoystickxml.h</text>
</a>
</g>
</g>
<!-- Node6&#45;&gt;Node33 -->
<g id="edge30" class="edge">
<title>Node6&#45;&gt;Node33</title>
<path fill="none" stroke="midnightblue" d="M309.08,-336.08C308.02,-328.93 306.49,-318.64 305.17,-309.69"/>
<polygon fill="midnightblue" stroke="midnightblue" points="308.62,-309.13 303.69,-299.75 301.7,-310.16 308.62,-309.13"/>
</g>
<!-- Node8 -->
<g id="node8" class="node">
<title>Node8</title>
<g id="a_node8"><a xlink:title=" ">
<polygon fill="white" stroke="#bfbfbf" points="0.4,-0.5 0.4,-19.5 40.4,-19.5 40.4,-0.5 0.4,-0.5"/>
<text text-anchor="middle" x="20.4" y="-7.5" font-family="Helvetica,sans-Serif" font-size="10.00">QList</text>
</a>
</g>
</g>
<!-- Node7&#45;&gt;Node8 -->
<g id="edge7" class="edge">
<title>Node7&#45;&gt;Node8</title>
<path fill="none" stroke="midnightblue" d="M173.24,-280.14C138.32,-253.83 37.97,-172 2.4,-76 -3.44,-60.25 2.91,-41.74 9.63,-28.51"/>
<polygon fill="midnightblue" stroke="midnightblue" points="12.81,-30 14.64,-19.56 6.7,-26.58 12.81,-30"/>
</g>
<!-- Node9 -->
<g id="node9" class="node">
<title>Node9</title>
<g id="a_node9"><a xlink:title=" ">
<polygon fill="white" stroke="#bfbfbf" points="228.9,-0.5 228.9,-19.5 281.9,-19.5 281.9,-0.5 228.9,-0.5"/>
<text text-anchor="middle" x="255.4" y="-7.5" font-family="Helvetica,sans-Serif" font-size="10.00">QObject</text>
</a>
</g>
</g>
<!-- Node7&#45;&gt;Node9 -->
<g id="edge8" class="edge">
<title>Node7&#45;&gt;Node9</title>
<path fill="none" stroke="midnightblue" d="M182.97,-280.24C178.06,-261.71 167.4,-217.12 167.4,-179 167.4,-179 167.4,-179 167.4,-121 167.4,-79.03 206.94,-43.9 233.01,-25.3"/>
<polygon fill="midnightblue" stroke="midnightblue" points="234.99,-28.18 241.26,-19.64 231.03,-22.41 234.99,-28.18"/>
</g>
<!-- Node10 -->
<g id="node10" class="node">
<title>Node10</title>
<g id="a_node10"><a xlink:href="joyaxisbutton_8h.html" target="_top" xlink:title=" ">
<polygon fill="white" stroke="black" points="350.9,-224.5 350.9,-243.5 499.9,-243.5 499.9,-224.5 350.9,-224.5"/>
<text text-anchor="middle" x="425.4" y="-231.5" font-family="Helvetica,sans-Serif" font-size="10.00">joybuttontypes/joyaxisbutton.h</text>
</a>
</g>
</g>
<!-- Node7&#45;&gt;Node10 -->
<g id="edge9" class="edge">
<title>Node7&#45;&gt;Node10</title>
<path fill="none" stroke="midnightblue" d="M213.4,-282.7C253.65,-273.64 328.43,-256.82 377.55,-245.76"/>
<polygon fill="midnightblue" stroke="midnightblue" points="378.33,-249.18 387.32,-243.57 376.8,-242.35 378.33,-249.18"/>
</g>
<!-- Node11 -->
<g id="node11" class="node">
<title>Node11</title>
<g id="a_node11"><a xlink:href="joygradientbutton_8h.html" target="_top" xlink:title=" ">
<polygon fill="white" stroke="black" points="893.9,-168.5 893.9,-187.5 1058.9,-187.5 1058.9,-168.5 893.9,-168.5"/>
<text text-anchor="middle" x="976.4" y="-175.5" font-family="Helvetica,sans-Serif" font-size="10.00">joybuttontypes/joygradientbutton.h</text>
</a>
</g>
</g>
<!-- Node10&#45;&gt;Node11 -->
<g id="edge10" class="edge">
<title>Node10&#45;&gt;Node11</title>
<path fill="none" stroke="midnightblue" d="M499.99,-225.69C599.39,-215.95 775.25,-198.71 883.25,-188.13"/>
<polygon fill="midnightblue" stroke="midnightblue" points="883.87,-191.58 893.48,-187.13 883.19,-184.62 883.87,-191.58"/>
</g>
<!-- Node28 -->
<g id="node24" class="node">
<title>Node28</title>
<g id="a_node24"><a xlink:href="logger_8h.html" target="_top" xlink:title=" ">
<polygon fill="white" stroke="red" points="368.9,-112.5 368.9,-131.5 419.9,-131.5 419.9,-112.5 368.9,-112.5"/>
<text text-anchor="middle" x="394.4" y="-119.5" font-family="Helvetica,sans-Serif" font-size="10.00">logger.h</text>
</a>
</g>
</g>
<!-- Node10&#45;&gt;Node28 -->
<g id="edge27" class="edge">
<title>Node10&#45;&gt;Node28</title>
<path fill="none" stroke="midnightblue" d="M427.24,-224.33C429.57,-211.63 432.58,-187.35 426.4,-168 423.06,-157.54 416.3,-147.43 409.85,-139.45"/>
<polygon fill="midnightblue" stroke="midnightblue" points="412.34,-136.98 403.15,-131.71 407.05,-141.56 412.34,-136.98"/>
</g>
<!-- Node12 -->
<g id="node12" class="node">
<title>Node12</title>
<g id="a_node12"><a xlink:href="joybutton_8h.html" target="_top" xlink:title=" ">
<polygon fill="white" stroke="black" points="890.9,-112.5 890.9,-131.5 955.9,-131.5 955.9,-112.5 890.9,-112.5"/>
<text text-anchor="middle" x="923.4" y="-119.5" font-family="Helvetica,sans-Serif" font-size="10.00">joybutton.h</text>
</a>
</g>
</g>
<!-- Node11&#45;&gt;Node12 -->
<g id="edge11" class="edge">
<title>Node11&#45;&gt;Node12</title>
<path fill="none" stroke="midnightblue" d="M967.64,-168.08C959.93,-160.22 948.49,-148.57 939.18,-139.08"/>
<polygon fill="midnightblue" stroke="midnightblue" points="941.49,-136.44 931.99,-131.75 936.49,-141.34 941.49,-136.44"/>
</g>
<!-- Node12&#45;&gt;Node13 -->
<g id="edge12" class="edge">
<title>Node12&#45;&gt;Node13</title>
<path fill="none" stroke="midnightblue" d="M890.73,-118.97C760.3,-110.84 275.98,-80.68 111.48,-70.43"/>
<polygon fill="midnightblue" stroke="midnightblue" points="111.31,-66.91 101.12,-69.79 110.88,-73.9 111.31,-66.91"/>
</g>
<!-- Node14 -->
<g id="node14" class="node">
<title>Node14</title>
<g id="a_node14"><a xlink:href="joybuttonmousehelper_8h.html" target="_top" xlink:title=" ">
<polygon fill="white" stroke="black" points="572.4,-56.5 572.4,-75.5 692.4,-75.5 692.4,-56.5 572.4,-56.5"/>
<text text-anchor="middle" x="632.4" y="-63.5" font-family="Helvetica,sans-Serif" font-size="10.00">joybuttonmousehelper.h</text>
</a>
</g>
</g>
<!-- Node12&#45;&gt;Node14 -->
<g id="edge15" class="edge">
<title>Node12&#45;&gt;Node14</title>
<path fill="none" stroke="midnightblue" d="M890.86,-114.96C841.86,-105.87 748.48,-88.54 688.39,-77.39"/>
<polygon fill="midnightblue" stroke="midnightblue" points="688.78,-73.9 678.31,-75.52 687.51,-80.79 688.78,-73.9"/>
</g>
<!-- Node15 -->
<g id="node15" class="node">
<title>Node15</title>
<g id="a_node15"><a xlink:href="joybuttonslot_8h.html" target="_top" xlink:title=" ">
<polygon fill="white" stroke="red" points="974.4,-56.5 974.4,-75.5 1054.4,-75.5 1054.4,-56.5 974.4,-56.5"/>
<text text-anchor="middle" x="1014.4" y="-63.5" font-family="Helvetica,sans-Serif" font-size="10.00">joybuttonslot.h</text>
</a>
</g>
</g>
<!-- Node12&#45;&gt;Node15 -->
<g id="edge17" class="edge">
<title>Node12&#45;&gt;Node15</title>
<path fill="none" stroke="midnightblue" d="M938.02,-112.32C952.35,-103.82 974.41,-90.73 991.14,-80.8"/>
<polygon fill="midnightblue" stroke="midnightblue" points="993,-83.77 999.81,-75.65 989.43,-77.75 993,-83.77"/>
</g>
<!-- Node21 -->
<g id="node17" class="node">
<title>Node21</title>
<g id="a_node17"><a xlink:href="springmousemoveinfo_8h.html" target="_top" xlink:title=" ">
<polygon fill="white" stroke="black" points="1072.9,-56.5 1072.9,-75.5 1191.9,-75.5 1191.9,-56.5 1072.9,-56.5"/>
<text text-anchor="middle" x="1132.4" y="-63.5" font-family="Helvetica,sans-Serif" font-size="10.00">springmousemoveinfo.h</text>
</a>
</g>
</g>
<!-- Node12&#45;&gt;Node21 -->
<g id="edge20" class="edge">
<title>Node12&#45;&gt;Node21</title>
<path fill="none" stroke="midnightblue" d="M956.05,-112.56C991.96,-103.28 1049.81,-88.34 1089.39,-78.11"/>
<polygon fill="midnightblue" stroke="midnightblue" points="1090.47,-81.45 1099.28,-75.56 1088.72,-74.67 1090.47,-81.45"/>
</g>
<!-- Node22 -->
<g id="node18" class="node">
<title>Node22</title>
<g id="a_node18"><a xlink:title=" ">
<polygon fill="white" stroke="#bfbfbf" points="1209.9,-56.5 1209.9,-75.5 1296.9,-75.5 1296.9,-56.5 1209.9,-56.5"/>
<text text-anchor="middle" x="1253.4" y="-63.5" font-family="Helvetica,sans-Serif" font-size="10.00">QDeadlineTimer</text>
</a>
</g>
</g>
<!-- Node12&#45;&gt;Node22 -->
<g id="edge21" class="edge">
<title>Node12&#45;&gt;Node22</title>
<path fill="none" stroke="midnightblue" d="M955.94,-115.85C1006.1,-107.89 1105.57,-91.99 1199.73,-76.27"/>
<polygon fill="midnightblue" stroke="midnightblue" points="1200.42,-79.7 1209.71,-74.6 1199.27,-72.79 1200.42,-79.7"/>
</g>
<!-- Node23 -->
<g id="node19" class="node">
<title>Node23</title>
<g id="a_node19"><a xlink:title=" ">
<polygon fill="white" stroke="#bfbfbf" points="710.9,-56.5 710.9,-75.5 763.9,-75.5 763.9,-56.5 710.9,-56.5"/>
<text text-anchor="middle" x="737.4" y="-63.5" font-family="Helvetica,sans-Serif" font-size="10.00">QQueue</text>
</a>
</g>
</g>
<!-- Node12&#45;&gt;Node23 -->
<g id="edge22" class="edge">
<title>Node12&#45;&gt;Node23</title>
<path fill="none" stroke="midnightblue" d="M893.92,-112.44C861.39,-103 808.97,-87.78 773.87,-77.59"/>
<polygon fill="midnightblue" stroke="midnightblue" points="774.6,-74.16 764.02,-74.73 772.65,-80.88 774.6,-74.16"/>
</g>
<!-- Node24 -->
<g id="node20" class="node">
<title>Node24</title>
<g id="a_node20"><a xlink:title=" ">
<polygon fill="white" stroke="#bfbfbf" points="782.4,-56.5 782.4,-75.5 872.4,-75.5 872.4,-56.5 782.4,-56.5"/>
<text text-anchor="middle" x="827.4" y="-63.5" font-family="Helvetica,sans-Serif" font-size="10.00">QReadWriteLock</text>
</a>
</g>
</g>
<!-- Node12&#45;&gt;Node24 -->
<g id="edge23" class="edge">
<title>Node12&#45;&gt;Node24</title>
<path fill="none" stroke="midnightblue" d="M907.97,-112.32C892.86,-103.82 869.58,-90.73 851.93,-80.8"/>
<polygon fill="midnightblue" stroke="midnightblue" points="853.21,-77.51 842.78,-75.65 849.78,-83.61 853.21,-77.51"/>
</g>
<!-- Node25 -->
<g id="node21" class="node">
<title>Node25</title>
<g id="a_node21"><a xlink:title=" ">
<polygon fill="white" stroke="#bfbfbf" points="890.9,-56.5 890.9,-75.5 955.9,-75.5 955.9,-56.5 890.9,-56.5"/>
<text text-anchor="middle" x="923.4" y="-63.5" font-family="Helvetica,sans-Serif" font-size="10.00">QRunnable</text>
</a>
</g>
</g>
<!-- Node12&#45;&gt;Node25 -->
<g id="edge24" class="edge">
<title>Node12&#45;&gt;Node25</title>
<path fill="none" stroke="midnightblue" d="M923.4,-112.08C923.4,-105.01 923.4,-94.86 923.4,-85.99"/>
<polygon fill="midnightblue" stroke="midnightblue" points="926.9,-85.75 923.4,-75.75 919.9,-85.75 926.9,-85.75"/>
</g>
<!-- Node26 -->
<g id="node22" class="node">
<title>Node26</title>
<g id="a_node22"><a xlink:title=" ">
<polygon fill="white" stroke="#bfbfbf" points="394.4,-56.5 394.4,-75.5 448.4,-75.5 448.4,-56.5 394.4,-56.5"/>
<text text-anchor="middle" x="421.4" y="-63.5" font-family="Helvetica,sans-Serif" font-size="10.00">QThread</text>
</a>
</g>
</g>
<!-- Node12&#45;&gt;Node26 -->
<g id="edge25" class="edge">
<title>Node12&#45;&gt;Node26</title>
<path fill="none" stroke="midnightblue" d="M890.7,-117.72C819.17,-110.5 643.43,-92.57 496.4,-76 484.1,-74.61 470.68,-73.03 458.63,-71.58"/>
<polygon fill="midnightblue" stroke="midnightblue" points="458.81,-68.07 448.46,-70.34 457.97,-75.02 458.81,-68.07"/>
</g>
<!-- Node27 -->
<g id="node23" class="node">
<title>Node27</title>
<g id="a_node23"><a xlink:title=" ">
<polygon fill="white" stroke="#bfbfbf" points="504.9,-56.5 504.9,-75.5 553.9,-75.5 553.9,-56.5 504.9,-56.5"/>
<text text-anchor="middle" x="529.4" y="-63.5" font-family="Helvetica,sans-Serif" font-size="10.00">QTimer</text>
</a>
</g>
</g>
<!-- Node12&#45;&gt;Node27 -->
<g id="edge26" class="edge">
<title>Node12&#45;&gt;Node27</title>
<path fill="none" stroke="midnightblue" d="M890.9,-118.41C829.1,-113.18 690.33,-99.9 564.03,-75.87"/>
<polygon fill="midnightblue" stroke="midnightblue" points="564.67,-72.43 554.19,-73.97 563.35,-79.31 564.67,-72.43"/>
</g>
<!-- Node13&#45;&gt;Node8 -->
<g id="edge13" class="edge">
<title>Node13&#45;&gt;Node8</title>
<path fill="none" stroke="midnightblue" d="M50.45,-56.08C45.42,-48.53 38.06,-37.49 31.88,-28.23"/>
<polygon fill="midnightblue" stroke="midnightblue" points="34.69,-26.13 26.23,-19.75 28.87,-30.01 34.69,-26.13"/>
</g>
<!-- Node13&#45;&gt;Node9 -->
<g id="edge14" class="edge">
<title>Node13&#45;&gt;Node9</title>
<path fill="none" stroke="midnightblue" d="M87.93,-56.44C123.49,-46.79 181.24,-31.12 218.77,-20.94"/>
<polygon fill="midnightblue" stroke="midnightblue" points="220.05,-24.22 228.79,-18.22 218.22,-17.46 220.05,-24.22"/>
</g>
<!-- Node14&#45;&gt;Node9 -->
<g id="edge16" class="edge">
<title>Node14&#45;&gt;Node9</title>
<path fill="none" stroke="midnightblue" d="M572.66,-56.44C493.79,-45.15 357.32,-25.6 292.13,-16.26"/>
<polygon fill="midnightblue" stroke="midnightblue" points="292.32,-12.75 281.93,-14.8 291.33,-19.68 292.32,-12.75"/>
</g>
<!-- Node15&#45;&gt;Node9 -->
<g id="edge18" class="edge">
<title>Node15&#45;&gt;Node9</title>
<path fill="none" stroke="midnightblue" d="M974.34,-57.24C971.32,-56.78 968.31,-56.36 965.4,-56 708.81,-24.42 397.16,-14.4 292.03,-11.79"/>
<polygon fill="midnightblue" stroke="midnightblue" points="292.02,-8.29 281.93,-11.55 291.85,-15.29 292.02,-8.29"/>
</g>
<!-- Node17 -->
<g id="node16" class="node">
<title>Node17</title>
<g id="a_node16"><a xlink:title=" ">
<polygon fill="white" stroke="#bfbfbf" points="1141.9,-0.5 1141.9,-19.5 1196.9,-19.5 1196.9,-0.5 1141.9,-0.5"/>
<text text-anchor="middle" x="1169.4" y="-7.5" font-family="Helvetica,sans-Serif" font-size="10.00">QPointer</text>
</a>
</g>
</g>
<!-- Node15&#45;&gt;Node17 -->
<g id="edge19" class="edge">
<title>Node15&#45;&gt;Node17</title>
<path fill="none" stroke="midnightblue" d="M1038.96,-56.44C1064.92,-47.4 1106.06,-33.06 1135.19,-22.92"/>
<polygon fill="midnightblue" stroke="midnightblue" points="1136.66,-26.11 1144.95,-19.52 1134.36,-19.5 1136.66,-26.11"/>
</g>
<!-- Node28&#45;&gt;Node9 -->
<g id="edge28" class="edge">
<title>Node28&#45;&gt;Node9</title>
<path fill="none" stroke="midnightblue" d="M383.49,-112.37C359.84,-93.65 303.61,-49.15 274.14,-25.83"/>
<polygon fill="midnightblue" stroke="midnightblue" points="276.27,-23.05 266.25,-19.59 271.92,-28.54 276.27,-23.05"/>
</g>
<!-- Node28&#45;&gt;Node26 -->
<g id="edge29" class="edge">
<title>Node28&#45;&gt;Node26</title>
<path fill="none" stroke="midnightblue" d="M398.85,-112.08C402.55,-104.69 407.92,-93.95 412.49,-84.81"/>
<polygon fill="midnightblue" stroke="midnightblue" points="415.68,-86.26 417.02,-75.75 409.42,-83.13 415.68,-86.26"/>
</g>
<!-- Node33&#45;&gt;Node9 -->
<g id="edge31" class="edge">
<title>Node33&#45;&gt;Node9</title>
<path fill="none" stroke="midnightblue" d="M277.56,-280.41C260.29,-273.22 238.01,-261.33 224.4,-244 205.8,-220.33 205.4,-209.1 205.4,-179 205.4,-179 205.4,-179 205.4,-121 205.4,-85.18 227.64,-48.21 242.45,-27.56"/>
<polygon fill="midnightblue" stroke="midnightblue" points="245.27,-29.63 248.44,-19.52 239.66,-25.45 245.27,-29.63"/>
</g>
<!-- Node35&#45;&gt;Node9 -->
<g id="edge34" class="edge">
<title>Node35&#45;&gt;Node9</title>
<path fill="none" stroke="midnightblue" d="M156.7,-392.47C135.16,-375.66 91.4,-335.99 91.4,-291 91.4,-291 91.4,-291 91.4,-177 91.4,-101.01 179.45,-47.26 226.51,-23.95"/>
<polygon fill="midnightblue" stroke="midnightblue" points="228.12,-27.06 235.61,-19.57 225.09,-20.75 228.12,-27.06"/>
</g>
<!-- Node36&#45;&gt;Node26 -->
<g id="edge48" class="edge">
<title>Node36&#45;&gt;Node26</title>
<path fill="none" stroke="midnightblue" d="M674.27,-286.27C640.36,-281.99 585.84,-271.14 547.4,-244 487.1,-201.43 445.36,-120.52 429.04,-84.76"/>
<polygon fill="midnightblue" stroke="midnightblue" points="432.22,-83.28 424.96,-75.57 425.82,-86.13 432.22,-83.28"/>
</g>
<!-- Node37 -->
<g id="node29" class="node">
<title>Node37</title>
<g id="a_node29"><a xlink:href="antimicrosettings_8h.html" target="_top" xlink:title=" ">
<polygon fill="white" stroke="black" points="233.9,-224.5 233.9,-243.5 332.9,-243.5 332.9,-224.5 233.9,-224.5"/>
<text text-anchor="middle" x="283.4" y="-231.5" font-family="Helvetica,sans-Serif" font-size="10.00">antimicrosettings.h</text>
</a>
</g>
</g>
<!-- Node36&#45;&gt;Node37 -->
<g id="edge37" class="edge">
<title>Node36&#45;&gt;Node37</title>
<path fill="none" stroke="midnightblue" d="M674.28,-285.44C613.07,-278.37 472.44,-261.82 343.04,-244.05"/>
<polygon fill="midnightblue" stroke="midnightblue" points="343.34,-240.56 332.96,-242.66 342.38,-247.5 343.34,-240.56"/>
</g>
<!-- Node41 -->
<g id="node33" class="node">
<title>Node41</title>
<g id="a_node33"><a xlink:title=" ">
<polygon fill="white" stroke="#bfbfbf" points="898.9,-224.5 898.9,-243.5 949.9,-243.5 949.9,-224.5 898.9,-224.5"/>
<text text-anchor="middle" x="924.4" y="-231.5" font-family="Helvetica,sans-Serif" font-size="10.00">config.h</text>
</a>
</g>
</g>
<!-- Node36&#45;&gt;Node41 -->
<g id="edge42" class="edge">
<title>Node36&#45;&gt;Node41</title>
<path fill="none" stroke="midnightblue" d="M736.77,-281.26C777.09,-271.32 846.89,-254.11 889.05,-243.72"/>
<polygon fill="midnightblue" stroke="midnightblue" points="890.01,-247.08 898.88,-241.29 888.33,-240.29 890.01,-247.08"/>
</g>
<!-- Node42 -->
<g id="node34" class="node">
<title>Node42</title>
<g id="a_node34"><a xlink:href="mousehelper_8h.html" target="_top" xlink:title=" ">
<polygon fill="white" stroke="black" points="555.4,-112.5 555.4,-131.5 635.4,-131.5 635.4,-112.5 555.4,-112.5"/>
<text text-anchor="middle" x="595.4" y="-119.5" font-family="Helvetica,sans-Serif" font-size="10.00">mousehelper.h</text>
</a>
</g>
</g>
<!-- Node36&#45;&gt;Node42 -->
<g id="edge43" class="edge">
<title>Node36&#45;&gt;Node42</title>
<path fill="none" stroke="midnightblue" d="M736.63,-286.84C787.75,-282.04 880.82,-267.24 851.4,-224 805.28,-156.23 705.99,-133.93 645.51,-126.6"/>
<polygon fill="midnightblue" stroke="midnightblue" points="645.75,-123.1 635.42,-125.47 644.97,-130.06 645.75,-123.1"/>
</g>
<!-- Node43 -->
<g id="node35" class="node">
<title>Node43</title>
<g id="a_node35"><a xlink:title=" ">
<polygon fill="white" stroke="#bfbfbf" points="555.9,-224.5 555.9,-243.5 592.9,-243.5 592.9,-224.5 555.9,-224.5"/>
<text text-anchor="middle" x="574.4" y="-231.5" font-family="Helvetica,sans-Serif" font-size="10.00">QDir</text>
</a>
</g>
</g>
<!-- Node36&#45;&gt;Node43 -->
<g id="edge46" class="edge">
<title>Node36&#45;&gt;Node43</title>
<path fill="none" stroke="midnightblue" d="M684.64,-280.44C662.45,-271.3 627.13,-256.74 602.46,-246.57"/>
<polygon fill="midnightblue" stroke="midnightblue" points="603.52,-243.22 592.94,-242.64 600.85,-249.69 603.52,-243.22"/>
</g>
<!-- Node44 -->
<g id="node36" class="node">
<title>Node44</title>
<g id="a_node36"><a xlink:title=" ">
<polygon fill="white" stroke="#bfbfbf" points="610.9,-224.5 610.9,-243.5 653.9,-243.5 653.9,-224.5 610.9,-224.5"/>
<text text-anchor="middle" x="632.4" y="-231.5" font-family="Helvetica,sans-Serif" font-size="10.00">QIcon</text>
</a>
</g>
</g>
<!-- Node36&#45;&gt;Node44 -->
<g id="edge47" class="edge">
<title>Node36&#45;&gt;Node44</title>
<path fill="none" stroke="midnightblue" d="M693.67,-280.32C682.56,-272.11 665.65,-259.6 652.41,-249.81"/>
<polygon fill="midnightblue" stroke="midnightblue" points="654.46,-246.97 644.34,-243.83 650.3,-252.59 654.46,-246.97"/>
</g>
<!-- Node45 -->
<g id="node37" class="node">
<title>Node45</title>
<g id="a_node37"><a xlink:title=" ">
<polygon fill="white" stroke="#bfbfbf" points="671.9,-224.5 671.9,-243.5 738.9,-243.5 738.9,-224.5 671.9,-224.5"/>
<text text-anchor="middle" x="705.4" y="-231.5" font-family="Helvetica,sans-Serif" font-size="10.00">QTranslator</text>
</a>
</g>
</g>
<!-- Node36&#45;&gt;Node45 -->
<g id="edge49" class="edge">
<title>Node36&#45;&gt;Node45</title>
<path fill="none" stroke="midnightblue" d="M705.4,-280.08C705.4,-273.01 705.4,-262.86 705.4,-253.99"/>
<polygon fill="midnightblue" stroke="midnightblue" points="708.9,-253.75 705.4,-243.75 701.9,-253.75 708.9,-253.75"/>
</g>
<!-- Node46 -->
<g id="node38" class="node">
<title>Node46</title>
<g id="a_node38"><a xlink:title=" ">
<polygon fill="white" stroke="#bfbfbf" points="756.9,-224.5 756.9,-243.5 841.9,-243.5 841.9,-224.5 756.9,-224.5"/>
<text text-anchor="middle" x="799.4" y="-231.5" font-family="Helvetica,sans-Serif" font-size="10.00">QWaitCondition</text>
</a>
</g>
</g>
<!-- Node36&#45;&gt;Node46 -->
<g id="edge50" class="edge">
<title>Node36&#45;&gt;Node46</title>
<path fill="none" stroke="midnightblue" d="M720.5,-280.32C735.3,-271.82 758.09,-258.73 775.38,-248.8"/>
<polygon fill="midnightblue" stroke="midnightblue" points="777.4,-251.67 784.33,-243.65 773.92,-245.6 777.4,-251.67"/>
</g>
<!-- Node38 -->
<g id="node30" class="node">
<title>Node38</title>
<g id="a_node30"><a xlink:href="commandlineutility_8h.html" target="_top" xlink:title=" ">
<polygon fill="white" stroke="black" points="233.9,-168.5 233.9,-187.5 338.9,-187.5 338.9,-168.5 233.9,-168.5"/>
<text text-anchor="middle" x="286.4" y="-175.5" font-family="Helvetica,sans-Serif" font-size="10.00">commandlineutility.h</text>
</a>
</g>
</g>
<!-- Node37&#45;&gt;Node38 -->
<g id="edge38" class="edge">
<title>Node37&#45;&gt;Node38</title>
<path fill="none" stroke="midnightblue" d="M283.89,-224.08C284.28,-217.01 284.85,-206.86 285.34,-197.99"/>
<polygon fill="midnightblue" stroke="midnightblue" points="288.85,-197.93 285.91,-187.75 281.86,-197.54 288.85,-197.93"/>
</g>
<!-- Node40 -->
<g id="node32" class="node">
<title>Node40</title>
<g id="a_node32"><a xlink:title=" ">
<polygon fill="white" stroke="#bfbfbf" points="357.4,-168.5 357.4,-187.5 417.4,-187.5 417.4,-168.5 357.4,-168.5"/>
<text text-anchor="middle" x="387.4" y="-175.5" font-family="Helvetica,sans-Serif" font-size="10.00">QSettings</text>
</a>
</g>
</g>
<!-- Node37&#45;&gt;Node40 -->
<g id="edge41" class="edge">
<title>Node37&#45;&gt;Node40</title>
<path fill="none" stroke="midnightblue" d="M300.11,-224.32C316.71,-215.7 342.4,-202.36 361.62,-192.39"/>
<polygon fill="midnightblue" stroke="midnightblue" points="363.47,-195.37 370.73,-187.65 360.24,-189.16 363.47,-195.37"/>
</g>
<!-- Node38&#45;&gt;Node28 -->
<g id="edge40" class="edge">
<title>Node38&#45;&gt;Node28</title>
<path fill="none" stroke="midnightblue" d="M303.75,-168.32C321.07,-159.66 347.91,-146.24 367.9,-136.25"/>
<polygon fill="midnightblue" stroke="midnightblue" points="369.71,-139.26 377.09,-131.65 366.58,-133 369.71,-139.26"/>
</g>
<!-- Node39 -->
<g id="node31" class="node">
<title>Node39</title>
<g id="a_node31"><a xlink:title=" ">
<polygon fill="white" stroke="#bfbfbf" points="250.4,-112.5 250.4,-131.5 322.4,-131.5 322.4,-112.5 250.4,-112.5"/>
<text text-anchor="middle" x="286.4" y="-119.5" font-family="Helvetica,sans-Serif" font-size="10.00">QApplication</text>
</a>
</g>
</g>
<!-- Node38&#45;&gt;Node39 -->
<g id="edge39" class="edge">
<title>Node38&#45;&gt;Node39</title>
<path fill="none" stroke="midnightblue" d="M286.4,-168.08C286.4,-161.01 286.4,-150.86 286.4,-141.99"/>
<polygon fill="midnightblue" stroke="midnightblue" points="289.9,-141.75 286.4,-131.75 282.9,-141.75 289.9,-141.75"/>
</g>
<!-- Node42&#45;&gt;Node9 -->
<g id="edge44" class="edge">
<title>Node42&#45;&gt;Node9</title>
<path fill="none" stroke="midnightblue" d="M575.92,-112.47C555.86,-103.62 523.76,-89.23 496.4,-76 478.86,-67.52 475.72,-62.62 457.4,-56 401.44,-35.79 333.36,-22.9 292.25,-16.31"/>
<polygon fill="midnightblue" stroke="midnightblue" points="292.57,-12.82 282.15,-14.74 291.49,-19.74 292.57,-12.82"/>
</g>
<!-- Node42&#45;&gt;Node27 -->
<g id="edge45" class="edge">
<title>Node42&#45;&gt;Node27</title>
<path fill="none" stroke="midnightblue" d="M584.79,-112.32C574.94,-104.26 560.05,-92.08 548.18,-82.37"/>
<polygon fill="midnightblue" stroke="midnightblue" points="550.15,-79.46 540.19,-75.83 545.72,-84.88 550.15,-79.46"/>
</g>
<!-- Node48 -->
<g id="node40" class="node">
<title>Node48</title>
<g id="a_node40"><a xlink:href="vdpad_8h.html" target="_top" xlink:title=" ">
<polygon fill="white" stroke="black" points="1177.9,-280.5 1177.9,-299.5 1228.9,-299.5 1228.9,-280.5 1177.9,-280.5"/>
<text text-anchor="middle" x="1203.4" y="-287.5" font-family="Helvetica,sans-Serif" font-size="10.00">vdpad.h</text>
</a>
</g>
</g>
<!-- Node47&#45;&gt;Node48 -->
<g id="edge53" class="edge">
<title>Node47&#45;&gt;Node48</title>
<path fill="none" stroke="midnightblue" d="M1203.4,-448.08C1203.4,-421.95 1203.4,-345.21 1203.4,-309.58"/>
<polygon fill="midnightblue" stroke="midnightblue" points="1206.9,-309.57 1203.4,-299.57 1199.9,-309.57 1206.9,-309.57"/>
</g>
<!-- Node48&#45;&gt;Node17 -->
<g id="edge57" class="edge">
<title>Node48&#45;&gt;Node17</title>
<path fill="none" stroke="midnightblue" d="M1226.34,-280.48C1261.68,-265.71 1325.4,-231.76 1325.4,-179 1325.4,-179 1325.4,-179 1325.4,-121 1325.4,-90.9 1327.32,-77.63 1306.4,-56 1280.28,-29.01 1237.71,-18.2 1206.96,-13.87"/>
<polygon fill="midnightblue" stroke="midnightblue" points="1207.37,-10.4 1197.02,-12.64 1206.51,-17.34 1207.37,-10.4"/>
</g>
<!-- Node49 -->
<g id="node41" class="node">
<title>Node49</title>
<g id="a_node41"><a xlink:href="joydpad_8h.html" target="_top" xlink:title=" ">
<polygon fill="white" stroke="black" points="1170.9,-224.5 1170.9,-243.5 1229.9,-243.5 1229.9,-224.5 1170.9,-224.5"/>
<text text-anchor="middle" x="1200.4" y="-231.5" font-family="Helvetica,sans-Serif" font-size="10.00">joydpad.h</text>
</a>
</g>
</g>
<!-- Node48&#45;&gt;Node49 -->
<g id="edge54" class="edge">
<title>Node48&#45;&gt;Node49</title>
<path fill="none" stroke="midnightblue" d="M1202.9,-280.08C1202.51,-273.01 1201.94,-262.86 1201.45,-253.99"/>
<polygon fill="midnightblue" stroke="midnightblue" points="1204.93,-253.54 1200.88,-243.75 1197.94,-253.93 1204.93,-253.54"/>
</g>
<!-- Node50 -->
<g id="node42" class="node">
<title>Node50</title>
<g id="a_node42"><a xlink:href="joydpadbutton_8h.html" target="_top" xlink:title=" ">
<polygon fill="white" stroke="black" points="1121.4,-168.5 1121.4,-187.5 1273.4,-187.5 1273.4,-168.5 1121.4,-168.5"/>
<text text-anchor="middle" x="1197.4" y="-175.5" font-family="Helvetica,sans-Serif" font-size="10.00">joybuttontypes/joydpadbutton.h</text>
</a>
</g>
</g>
<!-- Node49&#45;&gt;Node50 -->
<g id="edge55" class="edge">
<title>Node49&#45;&gt;Node50</title>
<path fill="none" stroke="midnightblue" d="M1199.9,-224.08C1199.51,-217.01 1198.94,-206.86 1198.45,-197.99"/>
<polygon fill="midnightblue" stroke="midnightblue" points="1201.93,-197.54 1197.88,-187.75 1194.94,-197.93 1201.93,-197.54"/>
</g>
<!-- Node50&#45;&gt;Node12 -->
<g id="edge56" class="edge">
<title>Node50&#45;&gt;Node12</title>
<path fill="none" stroke="midnightblue" d="M1153.98,-168.44C1102.59,-158.32 1017.56,-141.56 966.37,-131.47"/>
<polygon fill="midnightblue" stroke="midnightblue" points="966.78,-127.98 956.29,-129.48 965.42,-134.85 966.78,-127.98"/>
</g>
<!-- Node51&#45;&gt;Node4 -->
<g id="edge60" class="edge">
<title>Node51&#45;&gt;Node4</title>
<path fill="none" stroke="midnightblue" d="M542.72,-448.32C525,-439.62 497.49,-426.12 477.11,-416.11"/>
<polygon fill="midnightblue" stroke="midnightblue" points="478.54,-412.92 468.03,-411.65 475.46,-419.2 478.54,-412.92"/>
</g>
<!-- Node51&#45;&gt;Node6 -->
<g id="edge59" class="edge">
<title>Node51&#45;&gt;Node6</title>
<path fill="none" stroke="midnightblue" d="M558.96,-448.3C556.14,-434.16 548.52,-406.36 530.4,-392 503.93,-371.03 412.56,-357.84 356.23,-351.5"/>
<polygon fill="midnightblue" stroke="midnightblue" points="356.47,-348 346.14,-350.39 355.7,-354.96 356.47,-348"/>
</g>
<!-- Node52&#45;&gt;Node11 -->
<g id="edge62" class="edge">
<title>Node52&#45;&gt;Node11</title>
<path fill="none" stroke="midnightblue" d="M833.34,-504.45C852.11,-471.7 919.91,-350.69 959.4,-244 965.03,-228.77 969.57,-210.88 972.53,-197.73"/>
<polygon fill="midnightblue" stroke="midnightblue" points="976.03,-198.09 974.72,-187.58 969.19,-196.62 976.03,-198.09"/>
</g>
<!-- Node53 -->
<g id="node45" class="node">
<title>Node53</title>
<g id="a_node45"><a xlink:href="joycontrolstickdirectionstype_8h.html" target="_top" xlink:title=" ">
<polygon fill="white" stroke="black" points="911.9,-448.5 911.9,-467.5 1058.9,-467.5 1058.9,-448.5 911.9,-448.5"/>
<text text-anchor="middle" x="985.4" y="-455.5" font-family="Helvetica,sans-Serif" font-size="10.00">joycontrolstickdirectionstype.h</text>
</a>
</g>
</g>
<!-- Node52&#45;&gt;Node53 -->
<g id="edge63" class="edge">
<title>Node52&#45;&gt;Node53</title>
<path fill="none" stroke="midnightblue" d="M853.27,-504.44C879.69,-495.36 921.61,-480.94 951.14,-470.78"/>
<polygon fill="midnightblue" stroke="midnightblue" points="952.32,-474.08 960.64,-467.52 950.04,-467.46 952.32,-474.08"/>
</g>
<!-- Node54&#45;&gt;Node12 -->
<g id="edge65" class="edge">
<title>Node54&#45;&gt;Node12</title>
<path fill="none" stroke="midnightblue" d="M1010.47,-504.46C1029.61,-497.56 1053.52,-485.98 1068.4,-468 1087.58,-444.81 1087.4,-433.1 1087.4,-403 1087.4,-403 1087.4,-403 1087.4,-233 1087.4,-202.9 1089.5,-189.46 1068.4,-168 1041.54,-140.7 998.47,-129.89 966.24,-125.65"/>
<polygon fill="midnightblue" stroke="midnightblue" points="966.52,-122.16 956.19,-124.49 965.72,-129.12 966.52,-122.16"/>
</g>
<!-- Node54&#45;&gt;Node53 -->
<g id="edge66" class="edge">
<title>Node54&#45;&gt;Node53</title>
<path fill="none" stroke="midnightblue" d="M981.22,-504.08C981.88,-497.01 982.82,-486.86 983.64,-477.99"/>
<polygon fill="midnightblue" stroke="midnightblue" points="987.15,-478.03 984.59,-467.75 980.18,-477.39 987.15,-478.03"/>
</g>
</g>
</svg>
