<?xml version="1.0" encoding="UTF-8" standalone="no"?>
<!DOCTYPE svg PUBLIC "-//W3C//DTD SVG 1.1//EN"
 "http://www.w3.org/Graphics/SVG/1.1/DTD/svg11.dtd">
<!-- Generated by graphviz version 2.43.0 (0)
 -->
<!-- Title: /home/pawel/antimicrox/src/gamecontroller/gamecontrollerset.cpp Pages: 1 -->
<svg width="1440pt" height="498pt"
 viewBox="0.00 0.00 1439.50 498.00" xmlns="http://www.w3.org/2000/svg" xmlns:xlink="http://www.w3.org/1999/xlink">
<g id="graph0" class="graph" transform="scale(1 1) rotate(0) translate(4 494)">
<title>/home/pawel/antimicrox/src/gamecontroller/gamecontrollerset.cpp</title>
<polygon fill="white" stroke="transparent" points="-4,4 -4,-494 1435.5,-494 1435.5,4 -4,4"/>
<!-- Node1 -->
<g id="node1" class="node">
<title>Node1</title>
<g id="a_node1"><a xlink:title=" ">
<polygon fill="#bfbfbf" stroke="black" points="489,-459.5 489,-489.5 688,-489.5 688,-459.5 489,-459.5"/>
<text text-anchor="start" x="497" y="-477.5" font-family="Helvetica,sans-Serif" font-size="10.00">/home/pawel/antimicrox</text>
<text text-anchor="middle" x="588.5" y="-466.5" font-family="Helvetica,sans-Serif" font-size="10.00">/src/gamecontroller/gamecontrollerset.cpp</text>
</a>
</g>
</g>
<!-- Node2 -->
<g id="node2" class="node">
<title>Node2</title>
<g id="a_node2"><a xlink:href="$gamecontrollerset_8h.html" xlink:title=" ">
<polygon fill="white" stroke="black" points="259.5,-398 259.5,-417 361.5,-417 361.5,-398 259.5,-398"/>
<text text-anchor="middle" x="310.5" y="-405" font-family="Helvetica,sans-Serif" font-size="10.00">gamecontrollerset.h</text>
</a>
</g>
</g>
<!-- Node1&#45;&gt;Node2 -->
<g id="edge1" class="edge">
<title>Node1&#45;&gt;Node2</title>
<path fill="none" stroke="midnightblue" d="M528.52,-459.48C477.07,-447.45 403.98,-430.36 356.9,-419.35"/>
<polygon fill="midnightblue" stroke="midnightblue" points="357.51,-415.9 346.98,-417.03 355.92,-422.71 357.51,-415.9"/>
</g>
<!-- Node27 -->
<g id="node27" class="node">
<title>Node27</title>
<g id="a_node27"><a xlink:href="$gamecontrollertriggerxml_8h.html" xlink:title=" ">
<polygon fill="white" stroke="black" points="616.5,-392.5 616.5,-422.5 752.5,-422.5 752.5,-392.5 616.5,-392.5"/>
<text text-anchor="start" x="624.5" y="-410.5" font-family="Helvetica,sans-Serif" font-size="10.00">gamecontroller/xml</text>
<text text-anchor="middle" x="684.5" y="-399.5" font-family="Helvetica,sans-Serif" font-size="10.00">/gamecontrollertriggerxml.h</text>
</a>
</g>
</g>
<!-- Node1&#45;&gt;Node27 -->
<g id="edge31" class="edge">
<title>Node1&#45;&gt;Node27</title>
<path fill="none" stroke="midnightblue" d="M609.33,-459.4C622.79,-450.28 640.5,-438.29 655.35,-428.24"/>
<polygon fill="midnightblue" stroke="midnightblue" points="657.39,-431.08 663.71,-422.58 653.47,-425.28 657.39,-431.08"/>
</g>
<!-- Node28 -->
<g id="node28" class="node">
<title>Node28</title>
<g id="a_node28"><a xlink:href="$joyaxisxml_8h.html" xlink:title=" ">
<polygon fill="white" stroke="black" points="610.5,-168.5 610.5,-187.5 700.5,-187.5 700.5,-168.5 610.5,-168.5"/>
<text text-anchor="middle" x="655.5" y="-175.5" font-family="Helvetica,sans-Serif" font-size="10.00">xml/joyaxisxml.h</text>
</a>
</g>
</g>
<!-- Node1&#45;&gt;Node28 -->
<g id="edge49" class="edge">
<title>Node1&#45;&gt;Node28</title>
<path fill="none" stroke="midnightblue" d="M591.62,-459.32C595.24,-443.03 601.5,-415.51 607.5,-392 611.61,-375.91 613.53,-372.13 617.5,-356 631.61,-298.65 645.48,-230.12 651.86,-197.73"/>
<polygon fill="midnightblue" stroke="midnightblue" points="655.37,-198 653.86,-187.52 648.5,-196.66 655.37,-198"/>
</g>
<!-- Node29 -->
<g id="node29" class="node">
<title>Node29</title>
<g id="a_node29"><a xlink:href="$gamecontrollerdpad_8h.html" xlink:title=" ">
<polygon fill="white" stroke="black" points="876.5,-398 876.5,-417 986.5,-417 986.5,-398 876.5,-398"/>
<text text-anchor="middle" x="931.5" y="-405" font-family="Helvetica,sans-Serif" font-size="10.00">gamecontrollerdpad.h</text>
</a>
</g>
</g>
<!-- Node1&#45;&gt;Node29 -->
<g id="edge35" class="edge">
<title>Node1&#45;&gt;Node29</title>
<path fill="none" stroke="midnightblue" d="M671.39,-459.47C726.99,-449.83 801.78,-436.39 867.5,-423 873.22,-421.83 879.22,-420.55 885.15,-419.25"/>
<polygon fill="midnightblue" stroke="midnightblue" points="886.01,-422.65 895.01,-417.06 884.49,-415.81 886.01,-422.65"/>
</g>
<!-- Node33 -->
<g id="node33" class="node">
<title>Node33</title>
<g id="a_node33"><a xlink:href="$gamecontrollertrigger_8h.html" xlink:title=" ">
<polygon fill="white" stroke="black" points="492.5,-336.5 492.5,-355.5 608.5,-355.5 608.5,-336.5 492.5,-336.5"/>
<text text-anchor="middle" x="550.5" y="-343.5" font-family="Helvetica,sans-Serif" font-size="10.00">gamecontrollertrigger.h</text>
</a>
</g>
</g>
<!-- Node1&#45;&gt;Node33 -->
<g id="edge41" class="edge">
<title>Node1&#45;&gt;Node33</title>
<path fill="none" stroke="midnightblue" d="M584.29,-459.48C577.39,-436.51 563.68,-390.89 556.02,-365.37"/>
<polygon fill="midnightblue" stroke="midnightblue" points="559.37,-364.36 553.14,-355.79 552.67,-366.37 559.37,-364.36"/>
</g>
<!-- Node34 -->
<g id="node34" class="node">
<title>Node34</title>
<g id="a_node34"><a xlink:href="$inputdevice_8h.html" xlink:title=" ">
<polygon fill="white" stroke="black" points="382.5,-398 382.5,-417 456.5,-417 456.5,-398 382.5,-398"/>
<text text-anchor="middle" x="419.5" y="-405" font-family="Helvetica,sans-Serif" font-size="10.00">inputdevice.h</text>
</a>
</g>
</g>
<!-- Node1&#45;&gt;Node34 -->
<g id="edge43" class="edge">
<title>Node1&#45;&gt;Node34</title>
<path fill="none" stroke="midnightblue" d="M551.83,-459.4C521.78,-447.84 479.71,-431.66 451.12,-420.66"/>
<polygon fill="midnightblue" stroke="midnightblue" points="452.21,-417.33 441.62,-417.01 449.7,-423.86 452.21,-417.33"/>
</g>
<!-- Node36 -->
<g id="node36" class="node">
<title>Node36</title>
<g id="a_node36"><a xlink:href="$joycontrolstick_8h.html" xlink:title=" ">
<polygon fill="white" stroke="black" points="771,-398 771,-417 858,-417 858,-398 771,-398"/>
<text text-anchor="middle" x="814.5" y="-405" font-family="Helvetica,sans-Serif" font-size="10.00">joycontrolstick.h</text>
</a>
</g>
</g>
<!-- Node1&#45;&gt;Node36 -->
<g id="edge46" class="edge">
<title>Node1&#45;&gt;Node36</title>
<path fill="none" stroke="midnightblue" d="M637.26,-459.48C678.47,-447.62 736.76,-430.86 775.08,-419.84"/>
<polygon fill="midnightblue" stroke="midnightblue" points="776.2,-423.16 784.85,-417.03 774.27,-416.43 776.2,-423.16"/>
</g>
<!-- Node38 -->
<g id="node38" class="node">
<title>Node38</title>
<g id="a_node38"><a xlink:href="$joybuttonxml_8h.html" xlink:title=" ">
<polygon fill="white" stroke="black" points="0,-112.5 0,-131.5 99,-131.5 99,-112.5 0,-112.5"/>
<text text-anchor="middle" x="49.5" y="-119.5" font-family="Helvetica,sans-Serif" font-size="10.00">xml/joybuttonxml.h</text>
</a>
</g>
</g>
<!-- Node1&#45;&gt;Node38 -->
<g id="edge50" class="edge">
<title>Node1&#45;&gt;Node38</title>
<path fill="none" stroke="midnightblue" d="M488.7,-470.3C332.89,-462.56 49.5,-436.21 49.5,-347 49.5,-347 49.5,-347 49.5,-233 49.5,-200.95 49.5,-163.64 49.5,-141.75"/>
<polygon fill="midnightblue" stroke="midnightblue" points="53,-141.56 49.5,-131.56 46,-141.56 53,-141.56"/>
</g>
<!-- Node39 -->
<g id="node39" class="node">
<title>Node39</title>
<g id="a_node39"><a xlink:href="$joydpadxml_8h.html" xlink:title=" ">
<polygon fill="white" stroke="black" points="79,-224.5 79,-243.5 172,-243.5 172,-224.5 79,-224.5"/>
<text text-anchor="middle" x="125.5" y="-231.5" font-family="Helvetica,sans-Serif" font-size="10.00">xml/joydpadxml.h</text>
</a>
</g>
</g>
<!-- Node1&#45;&gt;Node39 -->
<g id="edge52" class="edge">
<title>Node1&#45;&gt;Node39</title>
<path fill="none" stroke="midnightblue" d="M488.92,-465C360.09,-451.52 147.28,-419.95 106.5,-356 86.1,-324.01 103.37,-277.84 115.7,-252.79"/>
<polygon fill="midnightblue" stroke="midnightblue" points="118.9,-254.22 120.41,-243.73 112.69,-250.99 118.9,-254.22"/>
</g>
<!-- Node40 -->
<g id="node40" class="node">
<title>Node40</title>
<g id="a_node40"><a xlink:title=" ">
<polygon fill="white" stroke="#bfbfbf" points="1005,-398 1005,-417 1058,-417 1058,-398 1005,-398"/>
<text text-anchor="middle" x="1031.5" y="-405" font-family="Helvetica,sans-Serif" font-size="10.00">QDebug</text>
</a>
</g>
</g>
<!-- Node1&#45;&gt;Node40 -->
<g id="edge54" class="edge">
<title>Node1&#45;&gt;Node40</title>
<path fill="none" stroke="midnightblue" d="M688.12,-468.37C771.36,-462.36 892.62,-449.62 995.5,-423 998.01,-422.35 1000.58,-421.57 1003.14,-420.71"/>
<polygon fill="midnightblue" stroke="midnightblue" points="1004.61,-423.89 1012.75,-417.12 1002.16,-417.34 1004.61,-423.89"/>
</g>
<!-- Node41 -->
<g id="node41" class="node">
<title>Node41</title>
<g id="a_node41"><a xlink:title=" ">
<polygon fill="white" stroke="#bfbfbf" points="1076.5,-398 1076.5,-417 1180.5,-417 1180.5,-398 1076.5,-398"/>
<text text-anchor="middle" x="1128.5" y="-405" font-family="Helvetica,sans-Serif" font-size="10.00">QXmlStreamReader</text>
</a>
</g>
</g>
<!-- Node1&#45;&gt;Node41 -->
<g id="edge55" class="edge">
<title>Node1&#45;&gt;Node41</title>
<path fill="none" stroke="midnightblue" d="M688.09,-466.75C785.33,-459.27 937.27,-445.25 1067.5,-423 1073.48,-421.98 1079.75,-420.71 1085.89,-419.36"/>
<polygon fill="midnightblue" stroke="midnightblue" points="1087.09,-422.68 1096.05,-417.03 1085.52,-415.86 1087.09,-422.68"/>
</g>
<!-- Node3 -->
<g id="node3" class="node">
<title>Node3</title>
<g id="a_node3"><a xlink:href="$setjoystick_8h.html" xlink:title=" ">
<polygon fill="white" stroke="black" points="275,-336.5 275,-355.5 346,-355.5 346,-336.5 275,-336.5"/>
<text text-anchor="middle" x="310.5" y="-343.5" font-family="Helvetica,sans-Serif" font-size="10.00">setjoystick.h</text>
</a>
</g>
</g>
<!-- Node2&#45;&gt;Node3 -->
<g id="edge2" class="edge">
<title>Node2&#45;&gt;Node3</title>
<path fill="none" stroke="midnightblue" d="M310.5,-397.98C310.5,-389.58 310.5,-376.48 310.5,-365.66"/>
<polygon fill="midnightblue" stroke="midnightblue" points="314,-365.51 310.5,-355.51 307,-365.51 314,-365.51"/>
</g>
<!-- Node26 -->
<g id="node26" class="node">
<title>Node26</title>
<g id="a_node26"><a xlink:title=" ">
<polygon fill="white" stroke="#bfbfbf" points="116,-336.5 116,-355.5 257,-355.5 257,-336.5 116,-336.5"/>
<text text-anchor="middle" x="186.5" y="-343.5" font-family="Helvetica,sans-Serif" font-size="10.00">SDL2/SDL_gamecontroller.h</text>
</a>
</g>
</g>
<!-- Node2&#45;&gt;Node26 -->
<g id="edge30" class="edge">
<title>Node2&#45;&gt;Node26</title>
<path fill="none" stroke="midnightblue" d="M292.73,-397.98C272.02,-388.03 237.55,-371.49 213.51,-359.96"/>
<polygon fill="midnightblue" stroke="midnightblue" points="214.76,-356.68 204.23,-355.51 211.73,-362.99 214.76,-356.68"/>
</g>
<!-- Node4 -->
<g id="node4" class="node">
<title>Node4</title>
<g id="a_node4"><a xlink:href="$joyaxis_8h.html" xlink:title=" ">
<polygon fill="white" stroke="black" points="299.5,-280.5 299.5,-299.5 355.5,-299.5 355.5,-280.5 299.5,-280.5"/>
<text text-anchor="middle" x="327.5" y="-287.5" font-family="Helvetica,sans-Serif" font-size="10.00">joyaxis.h</text>
</a>
</g>
</g>
<!-- Node3&#45;&gt;Node4 -->
<g id="edge3" class="edge">
<title>Node3&#45;&gt;Node4</title>
<path fill="none" stroke="midnightblue" d="M313.31,-336.08C315.58,-328.85 318.87,-318.41 321.71,-309.4"/>
<polygon fill="midnightblue" stroke="midnightblue" points="325.08,-310.34 324.75,-299.75 318.4,-308.24 325.08,-310.34"/>
</g>
<!-- Node25 -->
<g id="node25" class="node">
<title>Node25</title>
<g id="a_node25"><a xlink:href="$setjoystickxml_8h.html" xlink:title=" ">
<polygon fill="white" stroke="black" points="155.5,-112.5 155.5,-131.5 261.5,-131.5 261.5,-112.5 155.5,-112.5"/>
<text text-anchor="middle" x="208.5" y="-119.5" font-family="Helvetica,sans-Serif" font-size="10.00">xml/setjoystickxml.h</text>
</a>
</g>
</g>
<!-- Node3&#45;&gt;Node25 -->
<g id="edge28" class="edge">
<title>Node3&#45;&gt;Node25</title>
<path fill="none" stroke="midnightblue" d="M306.5,-336.3C291.4,-303.42 237.63,-186.39 216.81,-141.09"/>
<polygon fill="midnightblue" stroke="midnightblue" points="219.94,-139.51 212.58,-131.88 213.58,-142.43 219.94,-139.51"/>
</g>
<!-- Node5 -->
<g id="node5" class="node">
<title>Node5</title>
<g id="a_node5"><a xlink:title=" ">
<polygon fill="white" stroke="#bfbfbf" points="498.5,-0.5 498.5,-19.5 538.5,-19.5 538.5,-0.5 498.5,-0.5"/>
<text text-anchor="middle" x="518.5" y="-7.5" font-family="Helvetica,sans-Serif" font-size="10.00">QList</text>
</a>
</g>
</g>
<!-- Node4&#45;&gt;Node5 -->
<g id="edge4" class="edge">
<title>Node4&#45;&gt;Node5</title>
<path fill="none" stroke="midnightblue" d="M327.5,-280.44C327.5,-261.94 327.5,-216.81 327.5,-179 327.5,-179 327.5,-179 327.5,-121 327.5,-47.64 434.62,-22.46 488.42,-14.45"/>
<polygon fill="midnightblue" stroke="midnightblue" points="488.99,-17.9 498.42,-13.06 488.04,-10.97 488.99,-17.9"/>
</g>
<!-- Node6 -->
<g id="node6" class="node">
<title>Node6</title>
<g id="a_node6"><a xlink:title=" ">
<polygon fill="white" stroke="#bfbfbf" points="301,-0.5 301,-19.5 354,-19.5 354,-0.5 301,-0.5"/>
<text text-anchor="middle" x="327.5" y="-7.5" font-family="Helvetica,sans-Serif" font-size="10.00">QObject</text>
</a>
</g>
</g>
<!-- Node4&#45;&gt;Node6 -->
<g id="edge5" class="edge">
<title>Node4&#45;&gt;Node6</title>
<path fill="none" stroke="midnightblue" d="M322.22,-280.23C311.77,-262.04 289.5,-218.6 289.5,-179 289.5,-179 289.5,-179 289.5,-121 289.5,-86.81 306.1,-49.76 317.36,-28.57"/>
<polygon fill="midnightblue" stroke="midnightblue" points="320.45,-30.22 322.22,-19.77 314.32,-26.83 320.45,-30.22"/>
</g>
<!-- Node7 -->
<g id="node7" class="node">
<title>Node7</title>
<g id="a_node7"><a xlink:href="$joyaxisbutton_8h.html" xlink:title=" ">
<polygon fill="white" stroke="black" points="382,-224.5 382,-243.5 531,-243.5 531,-224.5 382,-224.5"/>
<text text-anchor="middle" x="456.5" y="-231.5" font-family="Helvetica,sans-Serif" font-size="10.00">joybuttontypes/joyaxisbutton.h</text>
</a>
</g>
</g>
<!-- Node4&#45;&gt;Node7 -->
<g id="edge6" class="edge">
<title>Node4&#45;&gt;Node7</title>
<path fill="none" stroke="midnightblue" d="M347.94,-280.44C369.17,-271.56 402.6,-257.56 426.75,-247.45"/>
<polygon fill="midnightblue" stroke="midnightblue" points="428.28,-250.61 436.16,-243.52 425.58,-244.15 428.28,-250.61"/>
</g>
<!-- Node8 -->
<g id="node8" class="node">
<title>Node8</title>
<g id="a_node8"><a xlink:href="$joygradientbutton_8h.html" xlink:title=" ">
<polygon fill="white" stroke="black" points="401,-168.5 401,-187.5 566,-187.5 566,-168.5 401,-168.5"/>
<text text-anchor="middle" x="483.5" y="-175.5" font-family="Helvetica,sans-Serif" font-size="10.00">joybuttontypes/joygradientbutton.h</text>
</a>
</g>
</g>
<!-- Node7&#45;&gt;Node8 -->
<g id="edge7" class="edge">
<title>Node7&#45;&gt;Node8</title>
<path fill="none" stroke="midnightblue" d="M460.96,-224.08C464.65,-216.69 470.02,-205.95 474.59,-196.81"/>
<polygon fill="midnightblue" stroke="midnightblue" points="477.78,-198.26 479.12,-187.75 471.52,-195.13 477.78,-198.26"/>
</g>
<!-- Node9 -->
<g id="node9" class="node">
<title>Node9</title>
<g id="a_node9"><a xlink:href="$joybutton_8h.html" xlink:title=" ">
<polygon fill="white" stroke="black" points="846,-112.5 846,-131.5 911,-131.5 911,-112.5 846,-112.5"/>
<text text-anchor="middle" x="878.5" y="-119.5" font-family="Helvetica,sans-Serif" font-size="10.00">joybutton.h</text>
</a>
</g>
</g>
<!-- Node8&#45;&gt;Node9 -->
<g id="edge8" class="edge">
<title>Node8&#45;&gt;Node9</title>
<path fill="none" stroke="midnightblue" d="M546.09,-168.44C626.99,-157.38 765.75,-138.41 835.63,-128.86"/>
<polygon fill="midnightblue" stroke="midnightblue" points="836.4,-132.29 845.83,-127.47 835.45,-125.35 836.4,-132.29"/>
</g>
<!-- Node10 -->
<g id="node10" class="node">
<title>Node10</title>
<g id="a_node10"><a xlink:href="$globalvariables_8h.html" xlink:title=" ">
<polygon fill="white" stroke="black" points="532,-56.5 532,-75.5 621,-75.5 621,-56.5 532,-56.5"/>
<text text-anchor="middle" x="576.5" y="-63.5" font-family="Helvetica,sans-Serif" font-size="10.00">globalvariables.h</text>
</a>
</g>
</g>
<!-- Node9&#45;&gt;Node10 -->
<g id="edge9" class="edge">
<title>Node9&#45;&gt;Node10</title>
<path fill="none" stroke="midnightblue" d="M845.89,-115.17C794.46,-105.97 693.91,-87.99 631.26,-76.79"/>
<polygon fill="midnightblue" stroke="midnightblue" points="631.63,-73.3 621.17,-74.99 630.39,-80.19 631.63,-73.3"/>
</g>
<!-- Node11 -->
<g id="node11" class="node">
<title>Node11</title>
<g id="a_node11"><a xlink:href="$joybuttonmousehelper_8h.html" xlink:title=" ">
<polygon fill="white" stroke="black" points="393.5,-56.5 393.5,-75.5 513.5,-75.5 513.5,-56.5 393.5,-56.5"/>
<text text-anchor="middle" x="453.5" y="-63.5" font-family="Helvetica,sans-Serif" font-size="10.00">joybuttonmousehelper.h</text>
</a>
</g>
</g>
<!-- Node9&#45;&gt;Node11 -->
<g id="edge12" class="edge">
<title>Node9&#45;&gt;Node11</title>
<path fill="none" stroke="midnightblue" d="M845.71,-116.86C784.73,-109.17 649.51,-92.08 524,-76.06"/>
<polygon fill="midnightblue" stroke="midnightblue" points="524.19,-72.56 513.83,-74.76 523.3,-79.5 524.19,-72.56"/>
</g>
<!-- Node12 -->
<g id="node12" class="node">
<title>Node12</title>
<g id="a_node12"><a xlink:href="$joybuttonslot_8h.html" xlink:title=" ">
<polygon fill="white" stroke="black" points="779.5,-56.5 779.5,-75.5 859.5,-75.5 859.5,-56.5 779.5,-56.5"/>
<text text-anchor="middle" x="819.5" y="-63.5" font-family="Helvetica,sans-Serif" font-size="10.00">joybuttonslot.h</text>
</a>
</g>
</g>
<!-- Node9&#45;&gt;Node12 -->
<g id="edge14" class="edge">
<title>Node9&#45;&gt;Node12</title>
<path fill="none" stroke="midnightblue" d="M869.02,-112.32C860.3,-104.34 847.16,-92.31 836.6,-82.65"/>
<polygon fill="midnightblue" stroke="midnightblue" points="838.89,-80 829.15,-75.83 834.17,-85.17 838.89,-80"/>
</g>
<!-- Node18 -->
<g id="node18" class="node">
<title>Node18</title>
<g id="a_node18"><a xlink:href="$springmousemoveinfo_8h.html" xlink:title=" ">
<polygon fill="white" stroke="black" points="878,-56.5 878,-75.5 997,-75.5 997,-56.5 878,-56.5"/>
<text text-anchor="middle" x="937.5" y="-63.5" font-family="Helvetica,sans-Serif" font-size="10.00">springmousemoveinfo.h</text>
</a>
</g>
</g>
<!-- Node9&#45;&gt;Node18 -->
<g id="edge21" class="edge">
<title>Node9&#45;&gt;Node18</title>
<path fill="none" stroke="midnightblue" d="M887.98,-112.32C896.7,-104.34 909.84,-92.31 920.4,-82.65"/>
<polygon fill="midnightblue" stroke="midnightblue" points="922.83,-85.17 927.85,-75.83 918.11,-80 922.83,-85.17"/>
</g>
<!-- Node19 -->
<g id="node19" class="node">
<title>Node19</title>
<g id="a_node19"><a xlink:title=" ">
<polygon fill="white" stroke="#bfbfbf" points="1015,-56.5 1015,-75.5 1102,-75.5 1102,-56.5 1015,-56.5"/>
<text text-anchor="middle" x="1058.5" y="-63.5" font-family="Helvetica,sans-Serif" font-size="10.00">QDeadlineTimer</text>
</a>
</g>
</g>
<!-- Node9&#45;&gt;Node19 -->
<g id="edge22" class="edge">
<title>Node9&#45;&gt;Node19</title>
<path fill="none" stroke="midnightblue" d="M907.02,-112.44C937.57,-103.28 986.21,-88.69 1020.1,-78.52"/>
<polygon fill="midnightblue" stroke="midnightblue" points="1021.54,-81.74 1030.11,-75.52 1019.53,-75.04 1021.54,-81.74"/>
</g>
<!-- Node20 -->
<g id="node20" class="node">
<title>Node20</title>
<g id="a_node20"><a xlink:title=" ">
<polygon fill="white" stroke="#bfbfbf" points="1120,-56.5 1120,-75.5 1173,-75.5 1173,-56.5 1120,-56.5"/>
<text text-anchor="middle" x="1146.5" y="-63.5" font-family="Helvetica,sans-Serif" font-size="10.00">QQueue</text>
</a>
</g>
</g>
<!-- Node9&#45;&gt;Node20 -->
<g id="edge23" class="edge">
<title>Node9&#45;&gt;Node20</title>
<path fill="none" stroke="midnightblue" d="M911.05,-115.36C954.35,-107.72 1033.52,-93.25 1109.99,-76.24"/>
<polygon fill="midnightblue" stroke="midnightblue" points="1110.8,-79.65 1119.79,-74.05 1109.26,-72.82 1110.8,-79.65"/>
</g>
<!-- Node21 -->
<g id="node21" class="node">
<title>Node21</title>
<g id="a_node21"><a xlink:title=" ">
<polygon fill="white" stroke="#bfbfbf" points="1191.5,-56.5 1191.5,-75.5 1281.5,-75.5 1281.5,-56.5 1191.5,-56.5"/>
<text text-anchor="middle" x="1236.5" y="-63.5" font-family="Helvetica,sans-Serif" font-size="10.00">QReadWriteLock</text>
</a>
</g>
</g>
<!-- Node9&#45;&gt;Node21 -->
<g id="edge24" class="edge">
<title>Node9&#45;&gt;Node21</title>
<path fill="none" stroke="midnightblue" d="M911.37,-116.33C965.42,-108.62 1076.7,-92.55 1181.33,-76.16"/>
<polygon fill="midnightblue" stroke="midnightblue" points="1182.09,-79.58 1191.43,-74.57 1181.01,-72.67 1182.09,-79.58"/>
</g>
<!-- Node22 -->
<g id="node22" class="node">
<title>Node22</title>
<g id="a_node22"><a xlink:title=" ">
<polygon fill="white" stroke="#bfbfbf" points="1300,-56.5 1300,-75.5 1365,-75.5 1365,-56.5 1300,-56.5"/>
<text text-anchor="middle" x="1332.5" y="-63.5" font-family="Helvetica,sans-Serif" font-size="10.00">QRunnable</text>
</a>
</g>
</g>
<!-- Node9&#45;&gt;Node22 -->
<g id="edge25" class="edge">
<title>Node9&#45;&gt;Node22</title>
<path fill="none" stroke="midnightblue" d="M911.23,-118.57C979.59,-113.25 1142.66,-99.28 1289.45,-76.01"/>
<polygon fill="midnightblue" stroke="midnightblue" points="1290.23,-79.43 1299.55,-74.39 1289.12,-72.52 1290.23,-79.43"/>
</g>
<!-- Node23 -->
<g id="node23" class="node">
<title>Node23</title>
<g id="a_node23"><a xlink:title=" ">
<polygon fill="white" stroke="#bfbfbf" points="639.5,-56.5 639.5,-75.5 693.5,-75.5 693.5,-56.5 639.5,-56.5"/>
<text text-anchor="middle" x="666.5" y="-63.5" font-family="Helvetica,sans-Serif" font-size="10.00">QThread</text>
</a>
</g>
</g>
<!-- Node9&#45;&gt;Node23 -->
<g id="edge26" class="edge">
<title>Node9&#45;&gt;Node23</title>
<path fill="none" stroke="midnightblue" d="M845.84,-112.68C807.4,-102.89 743.72,-86.67 703.49,-76.42"/>
<polygon fill="midnightblue" stroke="midnightblue" points="704.36,-73.03 693.8,-73.95 702.63,-79.81 704.36,-73.03"/>
</g>
<!-- Node24 -->
<g id="node24" class="node">
<title>Node24</title>
<g id="a_node24"><a xlink:title=" ">
<polygon fill="white" stroke="#bfbfbf" points="712,-56.5 712,-75.5 761,-75.5 761,-56.5 712,-56.5"/>
<text text-anchor="middle" x="736.5" y="-63.5" font-family="Helvetica,sans-Serif" font-size="10.00">QTimer</text>
</a>
</g>
</g>
<!-- Node9&#45;&gt;Node24 -->
<g id="edge27" class="edge">
<title>Node9&#45;&gt;Node24</title>
<path fill="none" stroke="midnightblue" d="M856,-112.44C832.42,-103.48 795.18,-89.31 768.54,-79.18"/>
<polygon fill="midnightblue" stroke="midnightblue" points="769.49,-75.8 758.9,-75.52 767,-82.34 769.49,-75.8"/>
</g>
<!-- Node10&#45;&gt;Node5 -->
<g id="edge10" class="edge">
<title>Node10&#45;&gt;Node5</title>
<path fill="none" stroke="midnightblue" d="M567.18,-56.32C558.61,-48.34 545.69,-36.31 535.31,-26.65"/>
<polygon fill="midnightblue" stroke="midnightblue" points="537.69,-24.09 527.99,-19.83 532.92,-29.21 537.69,-24.09"/>
</g>
<!-- Node10&#45;&gt;Node6 -->
<g id="edge11" class="edge">
<title>Node10&#45;&gt;Node6</title>
<path fill="none" stroke="midnightblue" d="M537.05,-56.44C489.49,-46.13 410.23,-28.94 364.03,-18.92"/>
<polygon fill="midnightblue" stroke="midnightblue" points="364.65,-15.48 354.14,-16.78 363.17,-22.32 364.65,-15.48"/>
</g>
<!-- Node11&#45;&gt;Node6 -->
<g id="edge13" class="edge">
<title>Node11&#45;&gt;Node6</title>
<path fill="none" stroke="midnightblue" d="M433.53,-56.44C412.89,-47.6 380.44,-33.69 356.87,-23.59"/>
<polygon fill="midnightblue" stroke="midnightblue" points="357.94,-20.24 347.37,-19.52 355.18,-26.67 357.94,-20.24"/>
</g>
<!-- Node12&#45;&gt;Node6 -->
<g id="edge16" class="edge">
<title>Node12&#45;&gt;Node6</title>
<path fill="none" stroke="midnightblue" d="M779.43,-57.37C776.41,-56.88 773.41,-56.41 770.5,-56 620.29,-34.61 440.01,-19.57 364.06,-13.71"/>
<polygon fill="midnightblue" stroke="midnightblue" points="364.29,-10.22 354.05,-12.95 363.76,-17.2 364.29,-10.22"/>
</g>
<!-- Node13 -->
<g id="node13" class="node">
<title>Node13</title>
<g id="a_node13"><a xlink:title=" ">
<polygon fill="white" stroke="#bfbfbf" points="835.5,-0.5 835.5,-19.5 919.5,-19.5 919.5,-0.5 835.5,-0.5"/>
<text text-anchor="middle" x="877.5" y="-7.5" font-family="Helvetica,sans-Serif" font-size="10.00">QElapsedTimer</text>
</a>
</g>
</g>
<!-- Node12&#45;&gt;Node13 -->
<g id="edge15" class="edge">
<title>Node12&#45;&gt;Node13</title>
<path fill="none" stroke="midnightblue" d="M828.82,-56.32C837.39,-48.34 850.31,-36.31 860.69,-26.65"/>
<polygon fill="midnightblue" stroke="midnightblue" points="863.08,-29.21 868.01,-19.83 858.31,-24.09 863.08,-29.21"/>
</g>
<!-- Node14 -->
<g id="node14" class="node">
<title>Node14</title>
<g id="a_node14"><a xlink:title=" ">
<polygon fill="white" stroke="#bfbfbf" points="1366,-0.5 1366,-19.5 1421,-19.5 1421,-0.5 1366,-0.5"/>
<text text-anchor="middle" x="1393.5" y="-7.5" font-family="Helvetica,sans-Serif" font-size="10.00">QPointer</text>
</a>
</g>
</g>
<!-- Node12&#45;&gt;Node14 -->
<g id="edge17" class="edge">
<title>Node12&#45;&gt;Node14</title>
<path fill="none" stroke="midnightblue" d="M859.57,-57.45C862.92,-56.92 866.26,-56.43 869.5,-56 1050.88,-31.94 1269.38,-17.97 1355.74,-13.04"/>
<polygon fill="midnightblue" stroke="midnightblue" points="1356.06,-16.53 1365.85,-12.47 1355.67,-9.54 1356.06,-16.53"/>
</g>
<!-- Node15 -->
<g id="node15" class="node">
<title>Node15</title>
<g id="a_node15"><a xlink:title=" ">
<polygon fill="white" stroke="#bfbfbf" points="937.5,-0.5 937.5,-19.5 983.5,-19.5 983.5,-0.5 937.5,-0.5"/>
<text text-anchor="middle" x="960.5" y="-7.5" font-family="Helvetica,sans-Serif" font-size="10.00">QTime</text>
</a>
</g>
</g>
<!-- Node12&#45;&gt;Node15 -->
<g id="edge18" class="edge">
<title>Node12&#45;&gt;Node15</title>
<path fill="none" stroke="midnightblue" d="M841.84,-56.44C865.25,-47.48 902.24,-33.31 928.69,-23.18"/>
<polygon fill="midnightblue" stroke="midnightblue" points="930.18,-26.36 938.26,-19.52 927.67,-19.82 930.18,-26.36"/>
</g>
<!-- Node16 -->
<g id="node16" class="node">
<title>Node16</title>
<g id="a_node16"><a xlink:title=" ">
<polygon fill="white" stroke="#bfbfbf" points="623.5,-0.5 623.5,-19.5 677.5,-19.5 677.5,-0.5 623.5,-0.5"/>
<text text-anchor="middle" x="650.5" y="-7.5" font-family="Helvetica,sans-Serif" font-size="10.00">QVariant</text>
</a>
</g>
</g>
<!-- Node12&#45;&gt;Node16 -->
<g id="edge19" class="edge">
<title>Node12&#45;&gt;Node16</title>
<path fill="none" stroke="midnightblue" d="M792.72,-56.44C764.17,-47.32 718.77,-32.81 686.96,-22.65"/>
<polygon fill="midnightblue" stroke="midnightblue" points="687.74,-19.23 677.15,-19.52 685.61,-25.89 687.74,-19.23"/>
</g>
<!-- Node17 -->
<g id="node17" class="node">
<title>Node17</title>
<g id="a_node17"><a xlink:title=" ">
<polygon fill="white" stroke="#bfbfbf" points="695.5,-0.5 695.5,-19.5 817.5,-19.5 817.5,-0.5 695.5,-0.5"/>
<text text-anchor="middle" x="756.5" y="-7.5" font-family="Helvetica,sans-Serif" font-size="10.00">QtWidgets/QApplication</text>
</a>
</g>
</g>
<!-- Node12&#45;&gt;Node17 -->
<g id="edge20" class="edge">
<title>Node12&#45;&gt;Node17</title>
<path fill="none" stroke="midnightblue" d="M809.38,-56.32C799.97,-48.26 785.76,-36.08 774.43,-26.37"/>
<polygon fill="midnightblue" stroke="midnightblue" points="776.68,-23.68 766.81,-19.83 772.12,-29 776.68,-23.68"/>
</g>
<!-- Node25&#45;&gt;Node6 -->
<g id="edge29" class="edge">
<title>Node25&#45;&gt;Node6</title>
<path fill="none" stroke="midnightblue" d="M217.02,-112.43C229.61,-99.84 253.99,-75.71 275.5,-56 286.5,-45.92 299.16,-34.95 309.23,-26.37"/>
<polygon fill="midnightblue" stroke="midnightblue" points="311.62,-28.93 316.99,-19.79 307.1,-23.59 311.62,-28.93"/>
</g>
<!-- Node27&#45;&gt;Node28 -->
<g id="edge32" class="edge">
<title>Node27&#45;&gt;Node28</title>
<path fill="none" stroke="midnightblue" d="M682.69,-392.27C677.67,-352.89 663.59,-242.49 657.92,-197.97"/>
<polygon fill="midnightblue" stroke="midnightblue" points="661.37,-197.4 656.64,-187.93 654.43,-198.29 661.37,-197.4"/>
</g>
<!-- Node28&#45;&gt;Node6 -->
<g id="edge33" class="edge">
<title>Node28&#45;&gt;Node6</title>
<path fill="none" stroke="midnightblue" d="M614.91,-168.5C559.2,-155.43 457.66,-126.46 384.5,-76 365.85,-63.14 349.38,-42.85 339,-28.36"/>
<polygon fill="midnightblue" stroke="midnightblue" points="341.66,-26.05 333.1,-19.81 335.9,-30.03 341.66,-26.05"/>
</g>
<!-- Node28&#45;&gt;Node14 -->
<g id="edge34" class="edge">
<title>Node28&#45;&gt;Node14</title>
<path fill="none" stroke="midnightblue" d="M700.71,-173.49C850.4,-161.48 1323.22,-120.34 1374.5,-76 1387.68,-64.6 1391.97,-44.61 1393.24,-29.8"/>
<polygon fill="midnightblue" stroke="midnightblue" points="1396.74,-29.87 1393.73,-19.71 1389.75,-29.53 1396.74,-29.87"/>
</g>
<!-- Node30 -->
<g id="node30" class="node">
<title>Node30</title>
<g id="a_node30"><a xlink:href="$vdpad_8h.html" xlink:title=" ">
<polygon fill="white" stroke="black" points="957,-280.5 957,-299.5 1008,-299.5 1008,-280.5 957,-280.5"/>
<text text-anchor="middle" x="982.5" y="-287.5" font-family="Helvetica,sans-Serif" font-size="10.00">vdpad.h</text>
</a>
</g>
</g>
<!-- Node29&#45;&gt;Node30 -->
<g id="edge36" class="edge">
<title>Node29&#45;&gt;Node30</title>
<path fill="none" stroke="midnightblue" d="M935.33,-397.82C943.64,-379.01 963.45,-334.15 974.57,-308.96"/>
<polygon fill="midnightblue" stroke="midnightblue" points="977.78,-310.34 978.62,-299.78 971.38,-307.52 977.78,-310.34"/>
</g>
<!-- Node30&#45;&gt;Node14 -->
<g id="edge40" class="edge">
<title>Node30&#45;&gt;Node14</title>
<path fill="none" stroke="midnightblue" d="M1008.25,-288.27C1103.66,-284.86 1431.5,-266.78 1431.5,-179 1431.5,-179 1431.5,-179 1431.5,-121 1431.5,-86.81 1414.9,-49.76 1403.64,-28.57"/>
<polygon fill="midnightblue" stroke="midnightblue" points="1406.68,-26.83 1398.78,-19.77 1400.55,-30.22 1406.68,-26.83"/>
</g>
<!-- Node31 -->
<g id="node31" class="node">
<title>Node31</title>
<g id="a_node31"><a xlink:href="$joydpad_8h.html" xlink:title=" ">
<polygon fill="white" stroke="black" points="953,-224.5 953,-243.5 1012,-243.5 1012,-224.5 953,-224.5"/>
<text text-anchor="middle" x="982.5" y="-231.5" font-family="Helvetica,sans-Serif" font-size="10.00">joydpad.h</text>
</a>
</g>
</g>
<!-- Node30&#45;&gt;Node31 -->
<g id="edge37" class="edge">
<title>Node30&#45;&gt;Node31</title>
<path fill="none" stroke="midnightblue" d="M982.5,-280.08C982.5,-273.01 982.5,-262.86 982.5,-253.99"/>
<polygon fill="midnightblue" stroke="midnightblue" points="986,-253.75 982.5,-243.75 979,-253.75 986,-253.75"/>
</g>
<!-- Node32 -->
<g id="node32" class="node">
<title>Node32</title>
<g id="a_node32"><a xlink:href="$joydpadbutton_8h.html" xlink:title=" ">
<polygon fill="white" stroke="black" points="906.5,-168.5 906.5,-187.5 1058.5,-187.5 1058.5,-168.5 906.5,-168.5"/>
<text text-anchor="middle" x="982.5" y="-175.5" font-family="Helvetica,sans-Serif" font-size="10.00">joybuttontypes/joydpadbutton.h</text>
</a>
</g>
</g>
<!-- Node31&#45;&gt;Node32 -->
<g id="edge38" class="edge">
<title>Node31&#45;&gt;Node32</title>
<path fill="none" stroke="midnightblue" d="M982.5,-224.08C982.5,-217.01 982.5,-206.86 982.5,-197.99"/>
<polygon fill="midnightblue" stroke="midnightblue" points="986,-197.75 982.5,-187.75 979,-197.75 986,-197.75"/>
</g>
<!-- Node32&#45;&gt;Node9 -->
<g id="edge39" class="edge">
<title>Node32&#45;&gt;Node9</title>
<path fill="none" stroke="midnightblue" d="M965.79,-168.32C949.19,-159.7 923.5,-146.36 904.28,-136.39"/>
<polygon fill="midnightblue" stroke="midnightblue" points="905.66,-133.16 895.17,-131.65 902.43,-139.37 905.66,-133.16"/>
</g>
<!-- Node33&#45;&gt;Node4 -->
<g id="edge42" class="edge">
<title>Node33&#45;&gt;Node4</title>
<path fill="none" stroke="midnightblue" d="M515.16,-336.44C474.32,-326.55 407.36,-310.34 365.44,-300.19"/>
<polygon fill="midnightblue" stroke="midnightblue" points="366.15,-296.76 355.61,-297.81 364.5,-303.56 366.15,-296.76"/>
</g>
<!-- Node34&#45;&gt;Node3 -->
<g id="edge44" class="edge">
<title>Node34&#45;&gt;Node3</title>
<path fill="none" stroke="midnightblue" d="M403.88,-397.98C385.91,-388.17 356.18,-371.93 335.09,-360.42"/>
<polygon fill="midnightblue" stroke="midnightblue" points="336.54,-357.23 326.09,-355.51 333.19,-363.37 336.54,-357.23"/>
</g>
<!-- Node35 -->
<g id="node35" class="node">
<title>Node35</title>
<g id="a_node35"><a xlink:title=" ">
<polygon fill="white" stroke="#bfbfbf" points="364.5,-336.5 364.5,-355.5 474.5,-355.5 474.5,-336.5 364.5,-336.5"/>
<text text-anchor="middle" x="419.5" y="-343.5" font-family="Helvetica,sans-Serif" font-size="10.00">SDL2/SDL_joystick.h</text>
</a>
</g>
</g>
<!-- Node34&#45;&gt;Node35 -->
<g id="edge45" class="edge">
<title>Node34&#45;&gt;Node35</title>
<path fill="none" stroke="midnightblue" d="M419.5,-397.98C419.5,-389.58 419.5,-376.48 419.5,-365.66"/>
<polygon fill="midnightblue" stroke="midnightblue" points="423,-365.51 419.5,-355.51 416,-365.51 423,-365.51"/>
</g>
<!-- Node36&#45;&gt;Node9 -->
<g id="edge47" class="edge">
<title>Node36&#45;&gt;Node9</title>
<path fill="none" stroke="midnightblue" d="M824.52,-397.8C834.71,-388.44 850.28,-372.64 859.5,-356 874.09,-329.68 878.5,-321.1 878.5,-291 878.5,-291 878.5,-291 878.5,-233 878.5,-200.95 878.5,-163.64 878.5,-141.75"/>
<polygon fill="midnightblue" stroke="midnightblue" points="882,-141.56 878.5,-131.56 875,-141.56 882,-141.56"/>
</g>
<!-- Node37 -->
<g id="node37" class="node">
<title>Node37</title>
<g id="a_node37"><a xlink:href="$joycontrolstickdirectionstype_8h.html" xlink:title=" ">
<polygon fill="white" stroke="black" points="703,-336.5 703,-355.5 850,-355.5 850,-336.5 703,-336.5"/>
<text text-anchor="middle" x="776.5" y="-343.5" font-family="Helvetica,sans-Serif" font-size="10.00">joycontrolstickdirectionstype.h</text>
</a>
</g>
</g>
<!-- Node36&#45;&gt;Node37 -->
<g id="edge48" class="edge">
<title>Node36&#45;&gt;Node37</title>
<path fill="none" stroke="midnightblue" d="M809.06,-397.98C803.41,-389.14 794.44,-375.09 787.34,-363.98"/>
<polygon fill="midnightblue" stroke="midnightblue" points="790.27,-362.05 781.93,-355.51 784.37,-365.82 790.27,-362.05"/>
</g>
<!-- Node38&#45;&gt;Node6 -->
<g id="edge51" class="edge">
<title>Node38&#45;&gt;Node6</title>
<path fill="none" stroke="midnightblue" d="M55.44,-112.25C65.58,-98.04 87.65,-70.13 113.5,-56 170.25,-24.98 246.23,-15.32 290.72,-12.33"/>
<polygon fill="midnightblue" stroke="midnightblue" points="291.01,-15.81 300.78,-11.73 290.59,-8.83 291.01,-15.81"/>
</g>
<!-- Node39&#45;&gt;Node6 -->
<g id="edge53" class="edge">
<title>Node39&#45;&gt;Node6</title>
<path fill="none" stroke="midnightblue" d="M124.63,-224.44C122.94,-203.25 121.34,-147.48 146.5,-112 181.59,-62.51 248.97,-34.4 290.89,-20.97"/>
<polygon fill="midnightblue" stroke="midnightblue" points="292.18,-24.24 300.7,-17.95 290.11,-17.55 292.18,-24.24"/>
</g>
</g>
</svg>
