<?xml version="1.0" encoding="UTF-8" standalone="no"?>
<!DOCTYPE svg PUBLIC "-//W3C//DTD SVG 1.1//EN"
 "http://www.w3.org/Graphics/SVG/1.1/DTD/svg11.dtd">
<!-- Generated by graphviz version 2.43.0 (0)
 -->
<!-- Title: /home/pawel/antimicrox/src/inputdevice.cpp Pages: 1 -->
<!--zoomable 487 -->
<svg id="main" version="1.1" xmlns="http://www.w3.org/2000/svg" xmlns:xlink="http://www.w3.org/1999/xlink" xml:space="preserve" onload="init(evt)">
<style type="text/css"><![CDATA[
.edge:hover path { stroke: red; }
.edge:hover polygon { stroke: red; fill: red; }
]]></style>
<script type="text/javascript"><![CDATA[
var edges = document.getElementsByTagName('g');
if (edges && edges.length) {
  for (var i=0;i<edges.length;i++) {
    if (edges[i].id.substr(0,4)=='edge') {
      edges[i].setAttribute('class','edge');
    }
  }
}
]]></script>
        <defs>
                <circle id="rim" cx="0" cy="0" r="7"/>
                <circle id="rim2" cx="0" cy="0" r="3.5"/>
                <g id="zoomPlus">
                        <use xlink:href="#rim" fill="#404040">
                                <set attributeName="fill" to="#808080" begin="zoomplus.mouseover" end="zoomplus.mouseout"/>
                        </use>
                        <path d="M-4,0h8M0,-4v8" fill="none" stroke="white" stroke-width="1.5" pointer-events="none"/>
                </g>
                <g id="zoomMin">
                        <use xlink:href="#rim" fill="#404040">
                                <set attributeName="fill" to="#808080" begin="zoomminus.mouseover" end="zoomminus.mouseout"/>
                        </use>
                        <path d="M-4,0h8" fill="none" stroke="white" stroke-width="1.5" pointer-events="none"/>
                </g>
                <g id="dirArrow">
                        <path fill="none" stroke="white" stroke-width="1.5" d="M0,-3.0v7 M-2.5,-0.5L0,-3.0L2.5,-0.5"/>
                </g>
               <g id="resetDef">
                       <use xlink:href="#rim2" fill="#404040">
                               <set attributeName="fill" to="#808080" begin="reset.mouseover" end="reset.mouseout"/>
                       </use>
               </g>
        </defs>

<script type="text/javascript">
var viewWidth = 1673;
var viewHeight = 487;
var sectionId = 'dynsection-0';
</script>
<script xlink:href="svgpan.js"/>
<svg id="graph" class="graph">
<g id="viewport">
<title>/home/pawel/antimicrox/src/inputdevice.cpp</title>
<polygon fill="white" stroke="transparent" points="-4,4 -4,-483 1669,-483 1669,4 -4,4"/>
<!-- Node1 -->
<g id="node1" class="node">
<title>Node1</title>
<g id="a_node1"><a xlink:title=" ">
<polygon fill="#bfbfbf" stroke="black" points="1109.5,-448.5 1109.5,-478.5 1228.5,-478.5 1228.5,-448.5 1109.5,-448.5"/>
<text text-anchor="start" x="1117.5" y="-466.5" font-family="Helvetica,sans-Serif" font-size="10.00">/home/pawel/antimicrox</text>
<text text-anchor="middle" x="1169" y="-455.5" font-family="Helvetica,sans-Serif" font-size="10.00">/src/inputdevice.cpp</text>
</a>
</g>
</g>
<!-- Node2 -->
<g id="node2" class="node">
<title>Node2</title>
<g id="a_node2"><a xlink:href="inputdevice_8h.html" target="_top" xlink:title=" ">
<polygon fill="white" stroke="black" points="163,-392.5 163,-411.5 237,-411.5 237,-392.5 163,-392.5"/>
<text text-anchor="middle" x="200" y="-399.5" font-family="Helvetica,sans-Serif" font-size="10.00">inputdevice.h</text>
</a>
</g>
</g>
<!-- Node1&#45;&gt;Node2 -->
<g id="edge1" class="edge">
<title>Node1&#45;&gt;Node2</title>
<path fill="none" stroke="midnightblue" d="M1109.48,-458.85C931.79,-447.93 407.57,-415.75 247.17,-405.9"/>
<polygon fill="midnightblue" stroke="midnightblue" points="247.34,-402.4 237.14,-405.28 246.91,-409.39 247.34,-402.4"/>
</g>
<!-- Node10 -->
<g id="node10" class="node">
<title>Node10</title>
<g id="a_node10"><a xlink:href="globalvariables_8h.html" target="_top" xlink:title=" ">
<polygon fill="white" stroke="black" points="44.5,-56.5 44.5,-75.5 133.5,-75.5 133.5,-56.5 44.5,-56.5"/>
<text text-anchor="middle" x="89" y="-63.5" font-family="Helvetica,sans-Serif" font-size="10.00">globalvariables.h</text>
</a>
</g>
</g>
<!-- Node1&#45;&gt;Node10 -->
<g id="edge52" class="edge">
<title>Node1&#45;&gt;Node10</title>
<path fill="none" stroke="midnightblue" d="M1109.42,-462.93C871.2,-463.89 0,-459.68 0,-347 0,-347 0,-347 0,-177 0,-134.85 39.99,-99.78 66.36,-81.24"/>
<polygon fill="midnightblue" stroke="midnightblue" points="68.38,-84.1 74.7,-75.6 64.46,-78.3 68.38,-84.1"/>
</g>
<!-- Node32 -->
<g id="node30" class="node">
<title>Node32</title>
<g id="a_node30"><a xlink:href="antimicrosettings_8h.html" target="_top" xlink:title=" ">
<polygon fill="white" stroke="black" points="394.5,-224.5 394.5,-243.5 493.5,-243.5 493.5,-224.5 394.5,-224.5"/>
<text text-anchor="middle" x="444" y="-231.5" font-family="Helvetica,sans-Serif" font-size="10.00">antimicrosettings.h</text>
</a>
</g>
</g>
<!-- Node1&#45;&gt;Node32 -->
<g id="edge36" class="edge">
<title>Node1&#45;&gt;Node32</title>
<path fill="none" stroke="midnightblue" d="M1109.29,-459.97C1036.32,-455.57 909.75,-443.7 806,-412 669.7,-370.36 521.1,-282.91 466.08,-248.92"/>
<polygon fill="midnightblue" stroke="midnightblue" points="467.83,-245.89 457.49,-243.58 464.13,-251.83 467.83,-245.89"/>
</g>
<!-- Node36 -->
<g id="node34" class="node">
<title>Node36</title>
<g id="a_node34"><a xlink:href="common_8h.html" target="_top" xlink:title=" ">
<polygon fill="white" stroke="black" points="669,-280.5 669,-299.5 731,-299.5 731,-280.5 669,-280.5"/>
<text text-anchor="middle" x="700" y="-287.5" font-family="Helvetica,sans-Serif" font-size="10.00">common.h</text>
</a>
</g>
</g>
<!-- Node1&#45;&gt;Node36 -->
<g id="edge41" class="edge">
<title>Node1&#45;&gt;Node36</title>
<path fill="none" stroke="midnightblue" d="M1109.45,-462.53C1042.54,-460.49 932.02,-450.78 846,-412 789.94,-386.73 737.96,-333.92 713.95,-307.21"/>
<polygon fill="midnightblue" stroke="midnightblue" points="716.41,-304.71 707.17,-299.52 711.16,-309.34 716.41,-304.71"/>
</g>
<!-- Node43 -->
<g id="node41" class="node">
<title>Node43</title>
<g id="a_node41"><a xlink:href="joycontrolstickbutton_8h.html" target="_top" xlink:title=" ">
<polygon fill="white" stroke="black" points="854.5,-392.5 854.5,-411.5 1035.5,-411.5 1035.5,-392.5 854.5,-392.5"/>
<text text-anchor="middle" x="945" y="-399.5" font-family="Helvetica,sans-Serif" font-size="10.00">joybuttontypes/joycontrolstickbutton.h</text>
</a>
</g>
</g>
<!-- Node1&#45;&gt;Node43 -->
<g id="edge53" class="edge">
<title>Node1&#45;&gt;Node43</title>
<path fill="none" stroke="midnightblue" d="M1116.2,-448.47C1076.71,-437.99 1023.44,-423.84 986.87,-414.12"/>
<polygon fill="midnightblue" stroke="midnightblue" points="987.59,-410.69 977.02,-411.51 985.79,-417.46 987.59,-410.69"/>
</g>
<!-- Node45 -->
<g id="node43" class="node">
<title>Node45</title>
<g id="a_node43"><a xlink:href="joydpadbutton_8h.html" target="_top" xlink:title=" ">
<polygon fill="white" stroke="black" points="1159,-280.5 1159,-299.5 1311,-299.5 1311,-280.5 1159,-280.5"/>
<text text-anchor="middle" x="1235" y="-287.5" font-family="Helvetica,sans-Serif" font-size="10.00">joybuttontypes/joydpadbutton.h</text>
</a>
</g>
</g>
<!-- Node1&#45;&gt;Node45 -->
<g id="edge56" class="edge">
<title>Node1&#45;&gt;Node45</title>
<path fill="none" stroke="midnightblue" d="M1169.91,-448.49C1171.94,-424.36 1178.24,-373.9 1197,-336 1202.31,-325.28 1210.7,-314.96 1218.25,-306.91"/>
<polygon fill="midnightblue" stroke="midnightblue" points="1220.84,-309.27 1225.37,-299.69 1215.86,-304.35 1220.84,-309.27"/>
</g>
<!-- Node46 -->
<g id="node44" class="node">
<title>Node46</title>
<g id="a_node44"><a xlink:href="joycontrolstick_8h.html" target="_top" xlink:title=" ">
<polygon fill="white" stroke="black" points="1053.5,-392.5 1053.5,-411.5 1140.5,-411.5 1140.5,-392.5 1053.5,-392.5"/>
<text text-anchor="middle" x="1097" y="-399.5" font-family="Helvetica,sans-Serif" font-size="10.00">joycontrolstick.h</text>
</a>
</g>
</g>
<!-- Node1&#45;&gt;Node46 -->
<g id="edge58" class="edge">
<title>Node1&#45;&gt;Node46</title>
<path fill="none" stroke="midnightblue" d="M1151.94,-448.4C1140.94,-439.31 1126.63,-427.49 1115.38,-418.19"/>
<polygon fill="midnightblue" stroke="midnightblue" points="1117.41,-415.33 1107.48,-411.66 1112.96,-420.73 1117.41,-415.33"/>
</g>
<!-- Node47 -->
<g id="node45" class="node">
<title>Node47</title>
<g id="a_node45"><a xlink:href="joydpad_8h.html" target="_top" xlink:title=" ">
<polygon fill="white" stroke="black" points="1205.5,-336.5 1205.5,-355.5 1264.5,-355.5 1264.5,-336.5 1205.5,-336.5"/>
<text text-anchor="middle" x="1235" y="-343.5" font-family="Helvetica,sans-Serif" font-size="10.00">joydpad.h</text>
</a>
</g>
</g>
<!-- Node1&#45;&gt;Node47 -->
<g id="edge61" class="edge">
<title>Node1&#45;&gt;Node47</title>
<path fill="none" stroke="midnightblue" d="M1177.09,-448.34C1189.15,-427.24 1211.8,-387.6 1224.92,-364.65"/>
<polygon fill="midnightblue" stroke="midnightblue" points="1228.12,-366.09 1230.05,-355.67 1222.05,-362.62 1228.12,-366.09"/>
</g>
<!-- Node48 -->
<g id="node46" class="node">
<title>Node48</title>
<g id="a_node46"><a xlink:href="vdpad_8h.html" target="_top" xlink:title=" ">
<polygon fill="white" stroke="black" points="1235.5,-392.5 1235.5,-411.5 1286.5,-411.5 1286.5,-392.5 1235.5,-392.5"/>
<text text-anchor="middle" x="1261" y="-399.5" font-family="Helvetica,sans-Serif" font-size="10.00">vdpad.h</text>
</a>
</g>
</g>
<!-- Node1&#45;&gt;Node48 -->
<g id="edge63" class="edge">
<title>Node1&#45;&gt;Node48</title>
<path fill="none" stroke="midnightblue" d="M1190.8,-448.4C1205.41,-438.95 1224.57,-426.56 1239.18,-417.11"/>
<polygon fill="midnightblue" stroke="midnightblue" points="1241.12,-420.03 1247.61,-411.66 1237.32,-414.15 1241.12,-420.03"/>
</g>
<!-- Node49 -->
<g id="node47" class="node">
<title>Node49</title>
<g id="a_node47"><a xlink:title=" ">
<polygon fill="white" stroke="#bfbfbf" points="1304.5,-392.5 1304.5,-411.5 1355.5,-411.5 1355.5,-392.5 1304.5,-392.5"/>
<text text-anchor="middle" x="1330" y="-399.5" font-family="Helvetica,sans-Serif" font-size="10.00">typeinfo</text>
</a>
</g>
</g>
<!-- Node1&#45;&gt;Node49 -->
<g id="edge66" class="edge">
<title>Node1&#45;&gt;Node49</title>
<path fill="none" stroke="midnightblue" d="M1207.15,-448.4C1234.53,-438.28 1271.04,-424.79 1297.13,-415.15"/>
<polygon fill="midnightblue" stroke="midnightblue" points="1298.41,-418.41 1306.57,-411.66 1295.98,-411.84 1298.41,-418.41"/>
</g>
<!-- Node50 -->
<g id="node48" class="node">
<title>Node50</title>
<g id="a_node48"><a xlink:title=" ">
<polygon fill="white" stroke="#bfbfbf" points="1373.5,-392.5 1373.5,-411.5 1426.5,-411.5 1426.5,-392.5 1373.5,-392.5"/>
<text text-anchor="middle" x="1400" y="-399.5" font-family="Helvetica,sans-Serif" font-size="10.00">QDebug</text>
</a>
</g>
</g>
<!-- Node1&#45;&gt;Node50 -->
<g id="edge67" class="edge">
<title>Node1&#45;&gt;Node50</title>
<path fill="none" stroke="midnightblue" d="M1223.45,-448.47C1266.61,-437.36 1325.73,-422.13 1363.4,-412.43"/>
<polygon fill="midnightblue" stroke="midnightblue" points="1364.62,-415.73 1373.43,-409.84 1362.87,-408.95 1364.62,-415.73"/>
</g>
<!-- Node51 -->
<g id="node49" class="node">
<title>Node51</title>
<g id="a_node49"><a xlink:title=" ">
<polygon fill="white" stroke="#bfbfbf" points="1445,-392.5 1445,-411.5 1549,-411.5 1549,-392.5 1445,-392.5"/>
<text text-anchor="middle" x="1497" y="-399.5" font-family="Helvetica,sans-Serif" font-size="10.00">QXmlStreamReader</text>
</a>
</g>
</g>
<!-- Node1&#45;&gt;Node51 -->
<g id="edge68" class="edge">
<title>Node1&#45;&gt;Node51</title>
<path fill="none" stroke="midnightblue" d="M1228.78,-451.66C1288.95,-440.74 1381.09,-424.03 1440.19,-413.31"/>
<polygon fill="midnightblue" stroke="midnightblue" points="1440.89,-416.74 1450.1,-411.51 1439.64,-409.85 1440.89,-416.74"/>
</g>
<!-- Node52 -->
<g id="node50" class="node">
<title>Node52</title>
<g id="a_node50"><a xlink:title=" ">
<polygon fill="white" stroke="#bfbfbf" points="1567,-392.5 1567,-411.5 1665,-411.5 1665,-392.5 1567,-392.5"/>
<text text-anchor="middle" x="1616" y="-399.5" font-family="Helvetica,sans-Serif" font-size="10.00">QXmlStreamWriter</text>
</a>
</g>
</g>
<!-- Node1&#45;&gt;Node52 -->
<g id="edge69" class="edge">
<title>Node1&#45;&gt;Node52</title>
<path fill="none" stroke="midnightblue" d="M1228.71,-455.22C1303.1,-446.04 1434.38,-429.5 1557.02,-412.11"/>
<polygon fill="midnightblue" stroke="midnightblue" points="1557.56,-415.57 1566.97,-410.7 1556.57,-408.64 1557.56,-415.57"/>
</g>
<!-- Node3 -->
<g id="node3" class="node">
<title>Node3</title>
<g id="a_node3"><a xlink:href="setjoystick_8h.html" target="_top" xlink:title=" ">
<polygon fill="white" stroke="black" points="164.5,-336.5 164.5,-355.5 235.5,-355.5 235.5,-336.5 164.5,-336.5"/>
<text text-anchor="middle" x="200" y="-343.5" font-family="Helvetica,sans-Serif" font-size="10.00">setjoystick.h</text>
</a>
</g>
</g>
<!-- Node2&#45;&gt;Node3 -->
<g id="edge2" class="edge">
<title>Node2&#45;&gt;Node3</title>
<path fill="none" stroke="midnightblue" d="M200,-392.08C200,-385.01 200,-374.86 200,-365.99"/>
<polygon fill="midnightblue" stroke="midnightblue" points="203.5,-365.75 200,-355.75 196.5,-365.75 203.5,-365.75"/>
</g>
<!-- Node31 -->
<g id="node29" class="node">
<title>Node31</title>
<g id="a_node29"><a xlink:title=" ">
<polygon fill="white" stroke="#bfbfbf" points="36,-336.5 36,-355.5 146,-355.5 146,-336.5 36,-336.5"/>
<text text-anchor="middle" x="91" y="-343.5" font-family="Helvetica,sans-Serif" font-size="10.00">SDL2/SDL_joystick.h</text>
</a>
</g>
</g>
<!-- Node2&#45;&gt;Node31 -->
<g id="edge35" class="edge">
<title>Node2&#45;&gt;Node31</title>
<path fill="none" stroke="midnightblue" d="M182.49,-392.32C164.93,-383.62 137.67,-370.12 117.47,-360.11"/>
<polygon fill="midnightblue" stroke="midnightblue" points="118.98,-356.96 108.47,-355.65 115.88,-363.23 118.98,-356.96"/>
</g>
<!-- Node4 -->
<g id="node4" class="node">
<title>Node4</title>
<g id="a_node4"><a xlink:href="joyaxis_8h.html" target="_top" xlink:title=" ">
<polygon fill="white" stroke="black" points="172,-280.5 172,-299.5 228,-299.5 228,-280.5 172,-280.5"/>
<text text-anchor="middle" x="200" y="-287.5" font-family="Helvetica,sans-Serif" font-size="10.00">joyaxis.h</text>
</a>
</g>
</g>
<!-- Node3&#45;&gt;Node4 -->
<g id="edge3" class="edge">
<title>Node3&#45;&gt;Node4</title>
<path fill="none" stroke="midnightblue" d="M200,-336.08C200,-329.01 200,-318.86 200,-309.99"/>
<polygon fill="midnightblue" stroke="midnightblue" points="203.5,-309.75 200,-299.75 196.5,-309.75 203.5,-309.75"/>
</g>
<!-- Node30 -->
<g id="node28" class="node">
<title>Node30</title>
<g id="a_node28"><a xlink:href="setjoystickxml_8h.html" target="_top" xlink:title=" ">
<polygon fill="white" stroke="black" points="28,-168.5 28,-187.5 134,-187.5 134,-168.5 28,-168.5"/>
<text text-anchor="middle" x="81" y="-175.5" font-family="Helvetica,sans-Serif" font-size="10.00">xml/setjoystickxml.h</text>
</a>
</g>
</g>
<!-- Node3&#45;&gt;Node30 -->
<g id="edge33" class="edge">
<title>Node3&#45;&gt;Node30</title>
<path fill="none" stroke="midnightblue" d="M192.38,-336.23C184.72,-327.3 172.69,-312.96 163,-300 136.16,-264.09 107.31,-220.12 92.01,-196.32"/>
<polygon fill="midnightblue" stroke="midnightblue" points="94.84,-194.24 86.5,-187.7 88.94,-198.01 94.84,-194.24"/>
</g>
<!-- Node5 -->
<g id="node5" class="node">
<title>Node5</title>
<g id="a_node5"><a xlink:title=" ">
<polygon fill="white" stroke="#bfbfbf" points="33,-0.5 33,-19.5 73,-19.5 73,-0.5 33,-0.5"/>
<text text-anchor="middle" x="53" y="-7.5" font-family="Helvetica,sans-Serif" font-size="10.00">QList</text>
</a>
</g>
</g>
<!-- Node4&#45;&gt;Node5 -->
<g id="edge4" class="edge">
<title>Node4&#45;&gt;Node5</title>
<path fill="none" stroke="midnightblue" d="M197.35,-280.41C190.66,-259.62 171.54,-205.51 143,-168 105.02,-118.09 62.16,-133 36,-76 29.02,-60.79 35.2,-42.22 41.98,-28.83"/>
<polygon fill="midnightblue" stroke="midnightblue" points="45.24,-30.17 47.08,-19.74 39.14,-26.75 45.24,-30.17"/>
</g>
<!-- Node6 -->
<g id="node6" class="node">
<title>Node6</title>
<g id="a_node6"><a xlink:title=" ">
<polygon fill="white" stroke="#bfbfbf" points="501.5,-0.5 501.5,-19.5 554.5,-19.5 554.5,-0.5 501.5,-0.5"/>
<text text-anchor="middle" x="528" y="-7.5" font-family="Helvetica,sans-Serif" font-size="10.00">QObject</text>
</a>
</g>
</g>
<!-- Node4&#45;&gt;Node6 -->
<g id="edge5" class="edge">
<title>Node4&#45;&gt;Node6</title>
<path fill="none" stroke="midnightblue" d="M200,-280.44C200,-261.94 200,-216.81 200,-179 200,-179 200,-179 200,-121 200,-90.9 196.28,-75.74 219,-56 258.97,-21.26 417.93,-13.33 490.96,-11.53"/>
<polygon fill="midnightblue" stroke="midnightblue" points="491.17,-15.03 501.09,-11.31 491.01,-8.03 491.17,-15.03"/>
</g>
<!-- Node7 -->
<g id="node7" class="node">
<title>Node7</title>
<g id="a_node7"><a xlink:href="joyaxisbutton_8h.html" target="_top" xlink:title=" ">
<polygon fill="white" stroke="black" points="227.5,-224.5 227.5,-243.5 376.5,-243.5 376.5,-224.5 227.5,-224.5"/>
<text text-anchor="middle" x="302" y="-231.5" font-family="Helvetica,sans-Serif" font-size="10.00">joybuttontypes/joyaxisbutton.h</text>
</a>
</g>
</g>
<!-- Node4&#45;&gt;Node7 -->
<g id="edge6" class="edge">
<title>Node4&#45;&gt;Node7</title>
<path fill="none" stroke="midnightblue" d="M216.39,-280.32C232.67,-271.7 257.87,-258.36 276.72,-248.39"/>
<polygon fill="midnightblue" stroke="midnightblue" points="278.45,-251.43 285.65,-243.65 275.18,-245.24 278.45,-251.43"/>
</g>
<!-- Node8 -->
<g id="node8" class="node">
<title>Node8</title>
<g id="a_node8"><a xlink:href="joygradientbutton_8h.html" target="_top" xlink:title=" ">
<polygon fill="white" stroke="black" points="937.5,-168.5 937.5,-187.5 1102.5,-187.5 1102.5,-168.5 937.5,-168.5"/>
<text text-anchor="middle" x="1020" y="-175.5" font-family="Helvetica,sans-Serif" font-size="10.00">joybuttontypes/joygradientbutton.h</text>
</a>
</g>
</g>
<!-- Node7&#45;&gt;Node8 -->
<g id="edge7" class="edge">
<title>Node7&#45;&gt;Node8</title>
<path fill="none" stroke="midnightblue" d="M376.64,-224.86C379.8,-224.56 382.93,-224.27 386,-224 578.16,-206.89 803.56,-192.16 927.17,-184.54"/>
<polygon fill="midnightblue" stroke="midnightblue" points="927.58,-188.02 937.35,-183.92 927.15,-181.04 927.58,-188.02"/>
</g>
<!-- Node25 -->
<g id="node23" class="node">
<title>Node25</title>
<g id="a_node23"><a xlink:href="logger_8h.html" target="_top" xlink:title=" ">
<polygon fill="white" stroke="black" points="347.5,-112.5 347.5,-131.5 398.5,-131.5 398.5,-112.5 347.5,-112.5"/>
<text text-anchor="middle" x="373" y="-119.5" font-family="Helvetica,sans-Serif" font-size="10.00">logger.h</text>
</a>
</g>
</g>
<!-- Node7&#45;&gt;Node25 -->
<g id="edge26" class="edge">
<title>Node7&#45;&gt;Node25</title>
<path fill="none" stroke="midnightblue" d="M301.33,-224.3C300.73,-211.13 301.25,-185.78 312,-168 319.98,-154.81 333.43,-144.27 345.67,-136.71"/>
<polygon fill="midnightblue" stroke="midnightblue" points="347.76,-139.55 354.69,-131.52 344.27,-133.48 347.76,-139.55"/>
</g>
<!-- Node9 -->
<g id="node9" class="node">
<title>Node9</title>
<g id="a_node9"><a xlink:href="joybutton_8h.html" target="_top" xlink:title=" ">
<polygon fill="white" stroke="black" points="987.5,-112.5 987.5,-131.5 1052.5,-131.5 1052.5,-112.5 987.5,-112.5"/>
<text text-anchor="middle" x="1020" y="-119.5" font-family="Helvetica,sans-Serif" font-size="10.00">joybutton.h</text>
</a>
</g>
</g>
<!-- Node8&#45;&gt;Node9 -->
<g id="edge8" class="edge">
<title>Node8&#45;&gt;Node9</title>
<path fill="none" stroke="midnightblue" d="M1020,-168.08C1020,-161.01 1020,-150.86 1020,-141.99"/>
<polygon fill="midnightblue" stroke="midnightblue" points="1023.5,-141.75 1020,-131.75 1016.5,-141.75 1023.5,-141.75"/>
</g>
<!-- Node9&#45;&gt;Node10 -->
<g id="edge9" class="edge">
<title>Node9&#45;&gt;Node10</title>
<path fill="none" stroke="midnightblue" d="M987.18,-119.31C878.02,-113.65 517.17,-94.7 219,-76 194.22,-74.45 166.79,-72.57 143.54,-70.93"/>
<polygon fill="midnightblue" stroke="midnightblue" points="143.74,-67.44 133.51,-70.23 143.24,-74.42 143.74,-67.44"/>
</g>
<!-- Node11 -->
<g id="node11" class="node">
<title>Node11</title>
<g id="a_node11"><a xlink:href="joybuttonmousehelper_8h.html" target="_top" xlink:title=" ">
<polygon fill="white" stroke="black" points="817,-56.5 817,-75.5 937,-75.5 937,-56.5 817,-56.5"/>
<text text-anchor="middle" x="877" y="-63.5" font-family="Helvetica,sans-Serif" font-size="10.00">joybuttonmousehelper.h</text>
</a>
</g>
</g>
<!-- Node9&#45;&gt;Node11 -->
<g id="edge12" class="edge">
<title>Node9&#45;&gt;Node11</title>
<path fill="none" stroke="midnightblue" d="M997.34,-112.44C973.6,-103.48 936.09,-89.31 909.26,-79.18"/>
<polygon fill="midnightblue" stroke="midnightblue" points="910.14,-75.77 899.55,-75.52 907.67,-82.32 910.14,-75.77"/>
</g>
<!-- Node12 -->
<g id="node12" class="node">
<title>Node12</title>
<g id="a_node12"><a xlink:href="joybuttonslot_8h.html" target="_top" xlink:title=" ">
<polygon fill="white" stroke="red" points="955,-56.5 955,-75.5 1035,-75.5 1035,-56.5 955,-56.5"/>
<text text-anchor="middle" x="995" y="-63.5" font-family="Helvetica,sans-Serif" font-size="10.00">joybuttonslot.h</text>
</a>
</g>
</g>
<!-- Node9&#45;&gt;Node12 -->
<g id="edge14" class="edge">
<title>Node9&#45;&gt;Node12</title>
<path fill="none" stroke="midnightblue" d="M1015.87,-112.08C1012.49,-104.77 1007.58,-94.18 1003.38,-85.1"/>
<polygon fill="midnightblue" stroke="midnightblue" points="1006.43,-83.36 999.05,-75.75 1000.08,-86.3 1006.43,-83.36"/>
</g>
<!-- Node18 -->
<g id="node16" class="node">
<title>Node18</title>
<g id="a_node16"><a xlink:href="springmousemoveinfo_8h.html" target="_top" xlink:title=" ">
<polygon fill="white" stroke="black" points="1053.5,-56.5 1053.5,-75.5 1172.5,-75.5 1172.5,-56.5 1053.5,-56.5"/>
<text text-anchor="middle" x="1113" y="-63.5" font-family="Helvetica,sans-Serif" font-size="10.00">springmousemoveinfo.h</text>
</a>
</g>
</g>
<!-- Node9&#45;&gt;Node18 -->
<g id="edge19" class="edge">
<title>Node9&#45;&gt;Node18</title>
<path fill="none" stroke="midnightblue" d="M1034.94,-112.32C1049.59,-103.82 1072.13,-90.73 1089.24,-80.8"/>
<polygon fill="midnightblue" stroke="midnightblue" points="1091.2,-83.7 1098.1,-75.65 1087.69,-77.65 1091.2,-83.7"/>
</g>
<!-- Node19 -->
<g id="node17" class="node">
<title>Node19</title>
<g id="a_node17"><a xlink:title=" ">
<polygon fill="white" stroke="#bfbfbf" points="1190.5,-56.5 1190.5,-75.5 1277.5,-75.5 1277.5,-56.5 1190.5,-56.5"/>
<text text-anchor="middle" x="1234" y="-63.5" font-family="Helvetica,sans-Serif" font-size="10.00">QDeadlineTimer</text>
</a>
</g>
</g>
<!-- Node9&#45;&gt;Node19 -->
<g id="edge20" class="edge">
<title>Node9&#45;&gt;Node19</title>
<path fill="none" stroke="midnightblue" d="M1052.5,-112.8C1089.26,-103.52 1149.3,-88.37 1190.18,-78.06"/>
<polygon fill="midnightblue" stroke="midnightblue" points="1191.29,-81.39 1200.13,-75.55 1189.58,-74.6 1191.29,-81.39"/>
</g>
<!-- Node20 -->
<g id="node18" class="node">
<title>Node20</title>
<g id="a_node18"><a xlink:title=" ">
<polygon fill="white" stroke="#bfbfbf" points="1295.5,-56.5 1295.5,-75.5 1348.5,-75.5 1348.5,-56.5 1295.5,-56.5"/>
<text text-anchor="middle" x="1322" y="-63.5" font-family="Helvetica,sans-Serif" font-size="10.00">QQueue</text>
</a>
</g>
</g>
<!-- Node9&#45;&gt;Node20 -->
<g id="edge21" class="edge">
<title>Node9&#45;&gt;Node20</title>
<path fill="none" stroke="midnightblue" d="M1052.64,-116.41C1101.3,-109.37 1195.92,-94.92 1285.28,-76.23"/>
<polygon fill="midnightblue" stroke="midnightblue" points="1286.24,-79.61 1295.3,-74.11 1284.79,-72.76 1286.24,-79.61"/>
</g>
<!-- Node21 -->
<g id="node19" class="node">
<title>Node21</title>
<g id="a_node19"><a xlink:title=" ">
<polygon fill="white" stroke="#bfbfbf" points="1367,-56.5 1367,-75.5 1457,-75.5 1457,-56.5 1367,-56.5"/>
<text text-anchor="middle" x="1412" y="-63.5" font-family="Helvetica,sans-Serif" font-size="10.00">QReadWriteLock</text>
</a>
</g>
</g>
<!-- Node9&#45;&gt;Node21 -->
<g id="edge22" class="edge">
<title>Node9&#45;&gt;Node21</title>
<path fill="none" stroke="midnightblue" d="M1052.68,-117.01C1111.42,-109.76 1238.95,-93.67 1357,-76.11"/>
<polygon fill="midnightblue" stroke="midnightblue" points="1357.56,-79.56 1366.94,-74.62 1356.53,-72.64 1357.56,-79.56"/>
</g>
<!-- Node22 -->
<g id="node20" class="node">
<title>Node22</title>
<g id="a_node20"><a xlink:title=" ">
<polygon fill="white" stroke="#bfbfbf" points="733.5,-56.5 733.5,-75.5 798.5,-75.5 798.5,-56.5 733.5,-56.5"/>
<text text-anchor="middle" x="766" y="-63.5" font-family="Helvetica,sans-Serif" font-size="10.00">QRunnable</text>
</a>
</g>
</g>
<!-- Node9&#45;&gt;Node22 -->
<g id="edge23" class="edge">
<title>Node9&#45;&gt;Node22</title>
<path fill="none" stroke="midnightblue" d="M987.31,-114.08C947.54,-105.66 878.08,-90.94 808.39,-76.08"/>
<polygon fill="midnightblue" stroke="midnightblue" points="809.07,-72.65 798.56,-73.98 807.61,-79.49 809.07,-72.65"/>
</g>
<!-- Node23 -->
<g id="node21" class="node">
<title>Node23</title>
<g id="a_node21"><a xlink:title=" ">
<polygon fill="white" stroke="#bfbfbf" points="556,-56.5 556,-75.5 610,-75.5 610,-56.5 556,-56.5"/>
<text text-anchor="middle" x="583" y="-63.5" font-family="Helvetica,sans-Serif" font-size="10.00">QThread</text>
</a>
</g>
</g>
<!-- Node9&#45;&gt;Node23 -->
<g id="edge24" class="edge">
<title>Node9&#45;&gt;Node23</title>
<path fill="none" stroke="midnightblue" d="M987.15,-116.94C907.49,-107.1 704.39,-82 620.32,-71.61"/>
<polygon fill="midnightblue" stroke="midnightblue" points="620.55,-68.11 610.2,-70.36 619.7,-75.06 620.55,-68.11"/>
</g>
<!-- Node24 -->
<g id="node22" class="node">
<title>Node24</title>
<g id="a_node22"><a xlink:title=" ">
<polygon fill="white" stroke="#bfbfbf" points="666.5,-56.5 666.5,-75.5 715.5,-75.5 715.5,-56.5 666.5,-56.5"/>
<text text-anchor="middle" x="691" y="-63.5" font-family="Helvetica,sans-Serif" font-size="10.00">QTimer</text>
</a>
</g>
</g>
<!-- Node9&#45;&gt;Node24 -->
<g id="edge25" class="edge">
<title>Node9&#45;&gt;Node24</title>
<path fill="none" stroke="midnightblue" d="M987.49,-117.2C934.69,-110.78 826.84,-96.63 725.87,-75.98"/>
<polygon fill="midnightblue" stroke="midnightblue" points="726.31,-72.5 715.81,-73.9 724.89,-79.35 726.31,-72.5"/>
</g>
<!-- Node10&#45;&gt;Node5 -->
<g id="edge10" class="edge">
<title>Node10&#45;&gt;Node5</title>
<path fill="none" stroke="midnightblue" d="M83.06,-56.08C78.02,-48.53 70.66,-37.49 64.49,-28.23"/>
<polygon fill="midnightblue" stroke="midnightblue" points="67.29,-26.13 58.83,-19.75 61.47,-30.01 67.29,-26.13"/>
</g>
<!-- Node10&#45;&gt;Node6 -->
<g id="edge11" class="edge">
<title>Node10&#45;&gt;Node6</title>
<path fill="none" stroke="midnightblue" d="M133.76,-58.01C138.56,-57.31 143.38,-56.63 148,-56 273.6,-38.99 423.06,-22.34 491.04,-14.96"/>
<polygon fill="midnightblue" stroke="midnightblue" points="491.67,-18.41 501.24,-13.86 490.92,-11.45 491.67,-18.41"/>
</g>
<!-- Node11&#45;&gt;Node6 -->
<g id="edge13" class="edge">
<title>Node11&#45;&gt;Node6</title>
<path fill="none" stroke="midnightblue" d="M821.7,-56.44C749.75,-45.31 626.01,-26.16 564.67,-16.67"/>
<polygon fill="midnightblue" stroke="midnightblue" points="565.09,-13.2 554.68,-15.13 564.02,-20.12 565.09,-13.2"/>
</g>
<!-- Node12&#45;&gt;Node6 -->
<g id="edge16" class="edge">
<title>Node12&#45;&gt;Node6</title>
<path fill="none" stroke="midnightblue" d="M954.93,-57.39C951.91,-56.89 948.91,-56.42 946,-56 805.9,-35.62 638.15,-20.29 565.06,-14.06"/>
<polygon fill="midnightblue" stroke="midnightblue" points="565.24,-10.56 554.98,-13.2 564.65,-17.53 565.24,-10.56"/>
</g>
<!-- Node13 -->
<g id="node13" class="node">
<title>Node13</title>
<g id="a_node13"><a xlink:title=" ">
<polygon fill="white" stroke="#bfbfbf" points="994,-0.5 994,-19.5 1078,-19.5 1078,-0.5 994,-0.5"/>
<text text-anchor="middle" x="1036" y="-7.5" font-family="Helvetica,sans-Serif" font-size="10.00">QElapsedTimer</text>
</a>
</g>
</g>
<!-- Node12&#45;&gt;Node13 -->
<g id="edge15" class="edge">
<title>Node12&#45;&gt;Node13</title>
<path fill="none" stroke="midnightblue" d="M1001.77,-56.08C1007.56,-48.46 1016.06,-37.26 1023.14,-27.94"/>
<polygon fill="midnightblue" stroke="midnightblue" points="1026.1,-29.83 1029.36,-19.75 1020.52,-25.6 1026.1,-29.83"/>
</g>
<!-- Node14 -->
<g id="node14" class="node">
<title>Node14</title>
<g id="a_node14"><a xlink:title=" ">
<polygon fill="white" stroke="#bfbfbf" points="1297.5,-0.5 1297.5,-19.5 1352.5,-19.5 1352.5,-0.5 1297.5,-0.5"/>
<text text-anchor="middle" x="1325" y="-7.5" font-family="Helvetica,sans-Serif" font-size="10.00">QPointer</text>
</a>
</g>
</g>
<!-- Node12&#45;&gt;Node14 -->
<g id="edge17" class="edge">
<title>Node12&#45;&gt;Node14</title>
<path fill="none" stroke="midnightblue" d="M1035.11,-57.71C1038.45,-57.13 1041.78,-56.55 1045,-56 1131.45,-41.27 1233.16,-25.25 1287.03,-16.87"/>
<polygon fill="midnightblue" stroke="midnightblue" points="1287.81,-20.29 1297.15,-15.3 1286.73,-13.38 1287.81,-20.29"/>
</g>
<!-- Node15 -->
<g id="node15" class="node">
<title>Node15</title>
<g id="a_node15"><a xlink:title=" ">
<polygon fill="white" stroke="#bfbfbf" points="930,-0.5 930,-19.5 976,-19.5 976,-0.5 930,-0.5"/>
<text text-anchor="middle" x="953" y="-7.5" font-family="Helvetica,sans-Serif" font-size="10.00">QTime</text>
</a>
</g>
</g>
<!-- Node12&#45;&gt;Node15 -->
<g id="edge18" class="edge">
<title>Node12&#45;&gt;Node15</title>
<path fill="none" stroke="midnightblue" d="M988.06,-56.08C982.07,-48.38 973.25,-37.03 965.95,-27.65"/>
<polygon fill="midnightblue" stroke="midnightblue" points="968.71,-25.5 959.81,-19.75 963.18,-29.79 968.71,-25.5"/>
</g>
<!-- Node25&#45;&gt;Node6 -->
<g id="edge29" class="edge">
<title>Node25&#45;&gt;Node6</title>
<path fill="none" stroke="midnightblue" d="M398.55,-113.93C435.72,-103.45 501.14,-84.14 509,-76 520.86,-63.72 525.38,-44.46 527.07,-30.09"/>
<polygon fill="midnightblue" stroke="midnightblue" points="530.58,-30.09 527.9,-19.84 523.6,-29.52 530.58,-30.09"/>
</g>
<!-- Node25&#45;&gt;Node23 -->
<g id="edge31" class="edge">
<title>Node25&#45;&gt;Node23</title>
<path fill="none" stroke="midnightblue" d="M398.75,-114.38C435.58,-104.91 503.51,-87.44 545.8,-76.57"/>
<polygon fill="midnightblue" stroke="midnightblue" points="546.89,-79.9 555.71,-74.02 545.15,-73.12 546.89,-79.9"/>
</g>
<!-- Node26 -->
<g id="node24" class="node">
<title>Node26</title>
<g id="a_node24"><a xlink:title=" ">
<polygon fill="white" stroke="#bfbfbf" points="298,-56.5 298,-75.5 338,-75.5 338,-56.5 298,-56.5"/>
<text text-anchor="middle" x="318" y="-63.5" font-family="Helvetica,sans-Serif" font-size="10.00">QFile</text>
</a>
</g>
</g>
<!-- Node25&#45;&gt;Node26 -->
<g id="edge27" class="edge">
<title>Node25&#45;&gt;Node26</title>
<path fill="none" stroke="midnightblue" d="M363.92,-112.08C355.83,-104.14 343.8,-92.34 334.09,-82.8"/>
<polygon fill="midnightblue" stroke="midnightblue" points="336.5,-80.26 326.91,-75.75 331.6,-85.25 336.5,-80.26"/>
</g>
<!-- Node27 -->
<g id="node25" class="node">
<title>Node27</title>
<g id="a_node25"><a xlink:title=" ">
<polygon fill="white" stroke="#bfbfbf" points="356.5,-56.5 356.5,-75.5 407.5,-75.5 407.5,-56.5 356.5,-56.5"/>
<text text-anchor="middle" x="382" y="-63.5" font-family="Helvetica,sans-Serif" font-size="10.00">QMutex</text>
</a>
</g>
</g>
<!-- Node25&#45;&gt;Node27 -->
<g id="edge28" class="edge">
<title>Node25&#45;&gt;Node27</title>
<path fill="none" stroke="midnightblue" d="M374.49,-112.08C375.68,-104.93 377.39,-94.64 378.88,-85.69"/>
<polygon fill="midnightblue" stroke="midnightblue" points="382.35,-86.19 380.54,-75.75 375.45,-85.04 382.35,-86.19"/>
</g>
<!-- Node28 -->
<g id="node26" class="node">
<title>Node28</title>
<g id="a_node26"><a xlink:title=" ">
<polygon fill="white" stroke="#bfbfbf" points="426,-56.5 426,-75.5 500,-75.5 500,-56.5 426,-56.5"/>
<text text-anchor="middle" x="463" y="-63.5" font-family="Helvetica,sans-Serif" font-size="10.00">QTextStream</text>
</a>
</g>
</g>
<!-- Node25&#45;&gt;Node28 -->
<g id="edge30" class="edge">
<title>Node25&#45;&gt;Node28</title>
<path fill="none" stroke="midnightblue" d="M387.46,-112.32C401.5,-103.9 423.05,-90.97 439.54,-81.07"/>
<polygon fill="midnightblue" stroke="midnightblue" points="441.8,-83.8 448.58,-75.65 438.2,-77.8 441.8,-83.8"/>
</g>
<!-- Node29 -->
<g id="node27" class="node">
<title>Node29</title>
<g id="a_node27"><a xlink:title=" ">
<polygon fill="white" stroke="#bfbfbf" points="228,-56.5 228,-75.5 280,-75.5 280,-56.5 228,-56.5"/>
<text text-anchor="middle" x="254" y="-63.5" font-family="Helvetica,sans-Serif" font-size="10.00">sstream</text>
</a>
</g>
</g>
<!-- Node25&#45;&gt;Node29 -->
<g id="edge32" class="edge">
<title>Node25&#45;&gt;Node29</title>
<path fill="none" stroke="midnightblue" d="M354.14,-112.44C334.73,-103.64 304.27,-89.81 282.04,-79.72"/>
<polygon fill="midnightblue" stroke="midnightblue" points="283.32,-76.46 272.77,-75.52 280.43,-82.84 283.32,-76.46"/>
</g>
<!-- Node30&#45;&gt;Node6 -->
<g id="edge34" class="edge">
<title>Node30&#45;&gt;Node6</title>
<path fill="none" stroke="midnightblue" d="M85.49,-168.4C97.94,-145.55 135.29,-83.27 186,-56 238.2,-27.93 414.14,-16.36 491.26,-12.56"/>
<polygon fill="midnightblue" stroke="midnightblue" points="491.64,-16.05 501.46,-12.08 491.31,-9.06 491.64,-16.05"/>
</g>
<!-- Node33 -->
<g id="node31" class="node">
<title>Node33</title>
<g id="a_node31"><a xlink:href="commandlineutility_8h.html" target="_top" xlink:title=" ">
<polygon fill="white" stroke="black" points="320.5,-168.5 320.5,-187.5 425.5,-187.5 425.5,-168.5 320.5,-168.5"/>
<text text-anchor="middle" x="373" y="-175.5" font-family="Helvetica,sans-Serif" font-size="10.00">commandlineutility.h</text>
</a>
</g>
</g>
<!-- Node32&#45;&gt;Node33 -->
<g id="edge37" class="edge">
<title>Node32&#45;&gt;Node33</title>
<path fill="none" stroke="midnightblue" d="M432.59,-224.32C421.89,-216.18 405.66,-203.84 392.84,-194.09"/>
<polygon fill="midnightblue" stroke="midnightblue" points="394.69,-191.1 384.61,-187.83 390.46,-196.67 394.69,-191.1"/>
</g>
<!-- Node35 -->
<g id="node33" class="node">
<title>Node35</title>
<g id="a_node33"><a xlink:title=" ">
<polygon fill="white" stroke="#bfbfbf" points="444,-168.5 444,-187.5 504,-187.5 504,-168.5 444,-168.5"/>
<text text-anchor="middle" x="474" y="-175.5" font-family="Helvetica,sans-Serif" font-size="10.00">QSettings</text>
</a>
</g>
</g>
<!-- Node32&#45;&gt;Node35 -->
<g id="edge40" class="edge">
<title>Node32&#45;&gt;Node35</title>
<path fill="none" stroke="midnightblue" d="M448.95,-224.08C453.1,-216.61 459.15,-205.72 464.27,-196.52"/>
<polygon fill="midnightblue" stroke="midnightblue" points="467.34,-198.19 469.14,-187.75 461.22,-194.79 467.34,-198.19"/>
</g>
<!-- Node33&#45;&gt;Node25 -->
<g id="edge39" class="edge">
<title>Node33&#45;&gt;Node25</title>
<path fill="none" stroke="midnightblue" d="M373,-168.08C373,-161.01 373,-150.86 373,-141.99"/>
<polygon fill="midnightblue" stroke="midnightblue" points="376.5,-141.75 373,-131.75 369.5,-141.75 376.5,-141.75"/>
</g>
<!-- Node34 -->
<g id="node32" class="node">
<title>Node34</title>
<g id="a_node32"><a xlink:title=" ">
<polygon fill="white" stroke="#bfbfbf" points="417,-112.5 417,-131.5 489,-131.5 489,-112.5 417,-112.5"/>
<text text-anchor="middle" x="453" y="-119.5" font-family="Helvetica,sans-Serif" font-size="10.00">QApplication</text>
</a>
</g>
</g>
<!-- Node33&#45;&gt;Node34 -->
<g id="edge38" class="edge">
<title>Node33&#45;&gt;Node34</title>
<path fill="none" stroke="midnightblue" d="M385.85,-168.32C398.22,-159.98 417.13,-147.21 431.74,-137.35"/>
<polygon fill="midnightblue" stroke="midnightblue" points="433.85,-140.15 440.18,-131.65 429.93,-134.35 433.85,-140.15"/>
</g>
<!-- Node36&#45;&gt;Node23 -->
<g id="edge49" class="edge">
<title>Node36&#45;&gt;Node23</title>
<path fill="none" stroke="midnightblue" d="M668.84,-284.6C627.31,-278.02 557.25,-264.2 542,-244 505,-194.99 547.99,-118.15 570.71,-84.16"/>
<polygon fill="midnightblue" stroke="midnightblue" points="573.7,-85.98 576.49,-75.77 567.93,-82.01 573.7,-85.98"/>
</g>
<!-- Node36&#45;&gt;Node32 -->
<g id="edge42" class="edge">
<title>Node36&#45;&gt;Node32</title>
<path fill="none" stroke="midnightblue" d="M668.87,-282.43C625.52,-273.29 546.48,-256.62 494.6,-245.67"/>
<polygon fill="midnightblue" stroke="midnightblue" points="495.11,-242.2 484.6,-243.56 493.66,-249.05 495.11,-242.2"/>
</g>
<!-- Node37 -->
<g id="node35" class="node">
<title>Node37</title>
<g id="a_node35"><a xlink:title=" ">
<polygon fill="white" stroke="#bfbfbf" points="854.5,-224.5 854.5,-243.5 905.5,-243.5 905.5,-224.5 854.5,-224.5"/>
<text text-anchor="middle" x="880" y="-231.5" font-family="Helvetica,sans-Serif" font-size="10.00">config.h</text>
</a>
</g>
</g>
<!-- Node36&#45;&gt;Node37 -->
<g id="edge43" class="edge">
<title>Node36&#45;&gt;Node37</title>
<path fill="none" stroke="midnightblue" d="M728.52,-280.44C759.87,-271.04 810.3,-255.91 844.26,-245.72"/>
<polygon fill="midnightblue" stroke="midnightblue" points="845.66,-248.95 854.24,-242.73 843.65,-242.25 845.66,-248.95"/>
</g>
<!-- Node38 -->
<g id="node36" class="node">
<title>Node38</title>
<g id="a_node36"><a xlink:href="mousehelper_8h.html" target="_top" xlink:title=" ">
<polygon fill="white" stroke="black" points="651,-112.5 651,-131.5 731,-131.5 731,-112.5 651,-112.5"/>
<text text-anchor="middle" x="691" y="-119.5" font-family="Helvetica,sans-Serif" font-size="10.00">mousehelper.h</text>
</a>
</g>
</g>
<!-- Node36&#45;&gt;Node38 -->
<g id="edge44" class="edge">
<title>Node36&#45;&gt;Node38</title>
<path fill="none" stroke="midnightblue" d="M731.37,-287.15C785.35,-283.23 892.22,-272.05 915,-244 967.38,-179.52 822.09,-144.49 741.16,-130.43"/>
<polygon fill="midnightblue" stroke="midnightblue" points="741.59,-126.96 731.15,-128.74 740.43,-133.86 741.59,-126.96"/>
</g>
<!-- Node39 -->
<g id="node37" class="node">
<title>Node39</title>
<g id="a_node37"><a xlink:title=" ">
<polygon fill="white" stroke="#bfbfbf" points="550.5,-224.5 550.5,-243.5 587.5,-243.5 587.5,-224.5 550.5,-224.5"/>
<text text-anchor="middle" x="569" y="-231.5" font-family="Helvetica,sans-Serif" font-size="10.00">QDir</text>
</a>
</g>
</g>
<!-- Node36&#45;&gt;Node39 -->
<g id="edge47" class="edge">
<title>Node36&#45;&gt;Node39</title>
<path fill="none" stroke="midnightblue" d="M679.24,-280.44C657.05,-271.3 621.73,-256.74 597.07,-246.57"/>
<polygon fill="midnightblue" stroke="midnightblue" points="598.12,-243.22 587.54,-242.64 595.45,-249.69 598.12,-243.22"/>
</g>
<!-- Node40 -->
<g id="node38" class="node">
<title>Node40</title>
<g id="a_node38"><a xlink:title=" ">
<polygon fill="white" stroke="#bfbfbf" points="605.5,-224.5 605.5,-243.5 648.5,-243.5 648.5,-224.5 605.5,-224.5"/>
<text text-anchor="middle" x="627" y="-231.5" font-family="Helvetica,sans-Serif" font-size="10.00">QIcon</text>
</a>
</g>
</g>
<!-- Node36&#45;&gt;Node40 -->
<g id="edge48" class="edge">
<title>Node36&#45;&gt;Node40</title>
<path fill="none" stroke="midnightblue" d="M688.27,-280.32C677.16,-272.11 660.26,-259.6 647.02,-249.81"/>
<polygon fill="midnightblue" stroke="midnightblue" points="649.06,-246.97 638.94,-243.83 644.9,-252.59 649.06,-246.97"/>
</g>
<!-- Node41 -->
<g id="node39" class="node">
<title>Node41</title>
<g id="a_node39"><a xlink:title=" ">
<polygon fill="white" stroke="#bfbfbf" points="666.5,-224.5 666.5,-243.5 733.5,-243.5 733.5,-224.5 666.5,-224.5"/>
<text text-anchor="middle" x="700" y="-231.5" font-family="Helvetica,sans-Serif" font-size="10.00">QTranslator</text>
</a>
</g>
</g>
<!-- Node36&#45;&gt;Node41 -->
<g id="edge50" class="edge">
<title>Node36&#45;&gt;Node41</title>
<path fill="none" stroke="midnightblue" d="M700,-280.08C700,-273.01 700,-262.86 700,-253.99"/>
<polygon fill="midnightblue" stroke="midnightblue" points="703.5,-253.75 700,-243.75 696.5,-253.75 703.5,-253.75"/>
</g>
<!-- Node42 -->
<g id="node40" class="node">
<title>Node42</title>
<g id="a_node40"><a xlink:title=" ">
<polygon fill="white" stroke="#bfbfbf" points="751.5,-224.5 751.5,-243.5 836.5,-243.5 836.5,-224.5 751.5,-224.5"/>
<text text-anchor="middle" x="794" y="-231.5" font-family="Helvetica,sans-Serif" font-size="10.00">QWaitCondition</text>
</a>
</g>
</g>
<!-- Node36&#45;&gt;Node42 -->
<g id="edge51" class="edge">
<title>Node36&#45;&gt;Node42</title>
<path fill="none" stroke="midnightblue" d="M715.1,-280.32C729.9,-271.82 752.69,-258.73 769.98,-248.8"/>
<polygon fill="midnightblue" stroke="midnightblue" points="772.01,-251.67 778.93,-243.65 768.52,-245.6 772.01,-251.67"/>
</g>
<!-- Node38&#45;&gt;Node6 -->
<g id="edge45" class="edge">
<title>Node38&#45;&gt;Node6</title>
<path fill="none" stroke="midnightblue" d="M682.78,-112.16C670.05,-98.81 644.35,-73.22 619,-56 600.09,-43.15 576.99,-31.77 558.79,-23.67"/>
<polygon fill="midnightblue" stroke="midnightblue" points="560.07,-20.41 549.51,-19.63 557.28,-26.83 560.07,-20.41"/>
</g>
<!-- Node38&#45;&gt;Node24 -->
<g id="edge46" class="edge">
<title>Node38&#45;&gt;Node24</title>
<path fill="none" stroke="midnightblue" d="M691,-112.08C691,-105.01 691,-94.86 691,-85.99"/>
<polygon fill="midnightblue" stroke="midnightblue" points="694.5,-85.75 691,-75.75 687.5,-85.75 694.5,-85.75"/>
</g>
<!-- Node43&#45;&gt;Node8 -->
<g id="edge54" class="edge">
<title>Node43&#45;&gt;Node8</title>
<path fill="none" stroke="midnightblue" d="M944.18,-392.44C943.23,-379.88 942.31,-355.77 947,-336 959.79,-282.11 991.99,-224.45 1009.03,-196.38"/>
<polygon fill="midnightblue" stroke="midnightblue" points="1012.09,-198.08 1014.37,-187.73 1006.14,-194.4 1012.09,-198.08"/>
</g>
<!-- Node44 -->
<g id="node42" class="node">
<title>Node44</title>
<g id="a_node42"><a xlink:href="joycontrolstickdirectionstype_8h.html" target="_top" xlink:title=" ">
<polygon fill="white" stroke="black" points="955.5,-336.5 955.5,-355.5 1102.5,-355.5 1102.5,-336.5 955.5,-336.5"/>
<text text-anchor="middle" x="1029" y="-343.5" font-family="Helvetica,sans-Serif" font-size="10.00">joycontrolstickdirectionstype.h</text>
</a>
</g>
</g>
<!-- Node43&#45;&gt;Node44 -->
<g id="edge55" class="edge">
<title>Node43&#45;&gt;Node44</title>
<path fill="none" stroke="midnightblue" d="M958.5,-392.32C971.6,-383.9 991.71,-370.97 1007.11,-361.07"/>
<polygon fill="midnightblue" stroke="midnightblue" points="1009.02,-364.01 1015.54,-355.65 1005.23,-358.12 1009.02,-364.01"/>
</g>
<!-- Node45&#45;&gt;Node9 -->
<g id="edge57" class="edge">
<title>Node45&#45;&gt;Node9</title>
<path fill="none" stroke="midnightblue" d="M1230.84,-280.31C1219.89,-258.33 1188.1,-199.98 1145,-168 1120.55,-149.86 1088.09,-138.46 1062.37,-131.68"/>
<polygon fill="midnightblue" stroke="midnightblue" points="1063.07,-128.25 1052.52,-129.22 1061.38,-135.04 1063.07,-128.25"/>
</g>
<!-- Node46&#45;&gt;Node9 -->
<g id="edge59" class="edge">
<title>Node46&#45;&gt;Node9</title>
<path fill="none" stroke="midnightblue" d="M1101.59,-392.44C1110.87,-374.29 1131,-330.38 1131,-291 1131,-291 1131,-291 1131,-233 1131,-202.9 1131.39,-191.02 1112,-168 1099.05,-152.63 1079.59,-142.05 1061.9,-135.04"/>
<polygon fill="midnightblue" stroke="midnightblue" points="1062.9,-131.68 1052.31,-131.5 1060.48,-138.25 1062.9,-131.68"/>
</g>
<!-- Node46&#45;&gt;Node44 -->
<g id="edge60" class="edge">
<title>Node46&#45;&gt;Node44</title>
<path fill="none" stroke="midnightblue" d="M1086.07,-392.32C1075.83,-384.18 1060.28,-371.84 1048,-362.09"/>
<polygon fill="midnightblue" stroke="midnightblue" points="1050.13,-359.31 1040.12,-355.83 1045.78,-364.79 1050.13,-359.31"/>
</g>
<!-- Node47&#45;&gt;Node45 -->
<g id="edge62" class="edge">
<title>Node47&#45;&gt;Node45</title>
<path fill="none" stroke="midnightblue" d="M1235,-336.08C1235,-329.01 1235,-318.86 1235,-309.99"/>
<polygon fill="midnightblue" stroke="midnightblue" points="1238.5,-309.75 1235,-299.75 1231.5,-309.75 1238.5,-309.75"/>
</g>
<!-- Node48&#45;&gt;Node14 -->
<g id="edge65" class="edge">
<title>Node48&#45;&gt;Node14</title>
<path fill="none" stroke="midnightblue" d="M1286.7,-394.22C1345.53,-377.95 1485,-334.76 1485,-291 1485,-291 1485,-291 1485,-121 1485,-90.9 1487.02,-77.54 1466,-56 1438.83,-28.16 1394.49,-17.51 1362.78,-13.45"/>
<polygon fill="midnightblue" stroke="midnightblue" points="1362.88,-9.94 1352.56,-12.32 1362.11,-16.9 1362.88,-9.94"/>
</g>
<!-- Node48&#45;&gt;Node47 -->
<g id="edge64" class="edge">
<title>Node48&#45;&gt;Node47</title>
<path fill="none" stroke="midnightblue" d="M1256.71,-392.08C1253.15,-384.69 1247.98,-373.95 1243.58,-364.81"/>
<polygon fill="midnightblue" stroke="midnightblue" points="1246.71,-363.24 1239.21,-355.75 1240.4,-366.28 1246.71,-363.24"/>
</g>
</g>
</svg>
        <g id="navigator" transform="translate(0 0)" fill="#404254">
                <rect fill="#f2f5e9" fill-opacity="0.5" stroke="#606060" stroke-width=".5" x="0" y="0" width="60" height="60"/>
                <use id="zoomplus" xlink:href="#zoomPlus" x="17" y="9" onmousedown="handleZoom(evt,'in')"/>
                <use id="zoomminus" xlink:href="#zoomMin" x="42" y="9" onmousedown="handleZoom(evt,'out')"/>
                <use id="reset" xlink:href="#resetDef" x="30" y="36" onmousedown="handleReset()"/>
                <g id="arrowUp" xlink:href="#dirArrow" transform="translate(30 24)" onmousedown="handlePan(0,-1)">
                  <use xlink:href="#rim" fill="#404040">
                        <set attributeName="fill" to="#808080" begin="arrowUp.mouseover" end="arrowUp.mouseout"/>
                  </use>
                  <path fill="none" stroke="white" stroke-width="1.5" d="M0,-3.0v7 M-2.5,-0.5L0,-3.0L2.5,-0.5"/>
                </g>
                <g id="arrowRight" xlink:href="#dirArrow" transform="rotate(90) translate(36 -43)" onmousedown="handlePan(1,0)">
                  <use xlink:href="#rim" fill="#404040">
                        <set attributeName="fill" to="#808080" begin="arrowRight.mouseover" end="arrowRight.mouseout"/>
                  </use>
                  <path fill="none" stroke="white" stroke-width="1.5" d="M0,-3.0v7 M-2.5,-0.5L0,-3.0L2.5,-0.5"/>
                </g>
                <g id="arrowDown" xlink:href="#dirArrow" transform="rotate(180) translate(-30 -48)" onmousedown="handlePan(0,1)">
                  <use xlink:href="#rim" fill="#404040">
                        <set attributeName="fill" to="#808080" begin="arrowDown.mouseover" end="arrowDown.mouseout"/>
                  </use>
                  <path fill="none" stroke="white" stroke-width="1.5" d="M0,-3.0v7 M-2.5,-0.5L0,-3.0L2.5,-0.5"/>
                </g>
                <g id="arrowLeft" xlink:href="#dirArrow" transform="rotate(270) translate(-36 17)" onmousedown="handlePan(-1,0)">
                  <use xlink:href="#rim" fill="#404040">
                        <set attributeName="fill" to="#808080" begin="arrowLeft.mouseover" end="arrowLeft.mouseout"/>
                  </use>
                  <path fill="none" stroke="white" stroke-width="1.5" d="M0,-3.0v7 M-2.5,-0.5L0,-3.0L2.5,-0.5"/>
                </g>
        </g>
        <svg viewBox="0 0 15 15" width="100%" height="30px" preserveAspectRatio="xMaxYMin meet">
         <g id="arrow_out" transform="scale(0.3 0.3)">
          <a xlink:href="inputdevice_8cpp__incl_org.svg" target="_base">
           <rect id="button" ry="5" rx="5" y="6" x="6" height="38" width="38"
                fill="#f2f5e9" fill-opacity="0.5" stroke="#606060" stroke-width="1.0"/>
           <path id="arrow"
             d="M 11.500037,31.436501 C 11.940474,20.09759 22.043105,11.32322 32.158766,21.979434 L 37.068811,17.246167 C 37.068811,17.246167 37.088388,32 37.088388,32 L 22.160133,31.978069 C 22.160133,31.978069 26.997745,27.140456 26.997745,27.140456 C 18.528582,18.264221 13.291696,25.230495 11.500037,31.436501 z"
             style="fill:#404040;"/>
          </a>
         </g>
        </svg>
</svg>
