<?xml version="1.0" encoding="UTF-8" standalone="no"?>
<!DOCTYPE svg PUBLIC "-//W3C//DTD SVG 1.1//EN"
 "http://www.w3.org/Graphics/SVG/1.1/DTD/svg11.dtd">
<!-- Generated by graphviz version 2.43.0 (0)
 -->
<!-- Title: /home/pawel/antimicrox/src/xml/joyaxisxml.cpp Pages: 1 -->
<svg width="1825pt" height="487pt"
 viewBox="0.00 0.00 1824.50 487.00" xmlns="http://www.w3.org/2000/svg" xmlns:xlink="http://www.w3.org/1999/xlink">
<g id="graph0" class="graph" transform="scale(1 1) rotate(0) translate(4 483)">
<title>/home/pawel/antimicrox/src/xml/joyaxisxml.cpp</title>
<polygon fill="white" stroke="transparent" points="-4,4 -4,-483 1820.5,-483 1820.5,4 -4,4"/>
<!-- Node1 -->
<g id="node1" class="node">
<title>Node1</title>
<g id="a_node1"><a xlink:title=" ">
<polygon fill="#bfbfbf" stroke="black" points="802.5,-448.5 802.5,-478.5 922.5,-478.5 922.5,-448.5 802.5,-448.5"/>
<text text-anchor="start" x="810.5" y="-466.5" font-family="Helvetica,sans-Serif" font-size="10.00">/home/pawel/antimicrox</text>
<text text-anchor="middle" x="862.5" y="-455.5" font-family="Helvetica,sans-Serif" font-size="10.00">/src/xml/joyaxisxml.cpp</text>
</a>
</g>
</g>
<!-- Node2 -->
<g id="node2" class="node">
<title>Node2</title>
<g id="a_node2"><a xlink:href="joyaxisxml_8h.html" target="_top" xlink:title=" ">
<polygon fill="white" stroke="black" points="1449,-56.5 1449,-75.5 1520,-75.5 1520,-56.5 1449,-56.5"/>
<text text-anchor="middle" x="1484.5" y="-63.5" font-family="Helvetica,sans-Serif" font-size="10.00">joyaxisxml.h</text>
</a>
</g>
</g>
<!-- Node1&#45;&gt;Node2 -->
<g id="edge1" class="edge">
<title>Node1&#45;&gt;Node2</title>
<path fill="none" stroke="midnightblue" d="M874.68,-448.47C888.15,-433.45 910.95,-409.41 933.5,-392 1119.55,-248.39 1374.53,-120.12 1457.34,-79.97"/>
<polygon fill="midnightblue" stroke="midnightblue" points="1458.87,-83.12 1466.35,-75.62 1455.82,-76.81 1458.87,-83.12"/>
</g>
<!-- Node5 -->
<g id="node5" class="node">
<title>Node5</title>
<g id="a_node5"><a xlink:href="inputdevice_8h.html" target="_top" xlink:title=" ">
<polygon fill="white" stroke="black" points="712.5,-392.5 712.5,-411.5 786.5,-411.5 786.5,-392.5 712.5,-392.5"/>
<text text-anchor="middle" x="749.5" y="-399.5" font-family="Helvetica,sans-Serif" font-size="10.00">inputdevice.h</text>
</a>
</g>
</g>
<!-- Node1&#45;&gt;Node5 -->
<g id="edge4" class="edge">
<title>Node1&#45;&gt;Node5</title>
<path fill="none" stroke="midnightblue" d="M835.72,-448.4C817.44,-438.77 793.35,-426.09 775.29,-416.58"/>
<polygon fill="midnightblue" stroke="midnightblue" points="776.42,-413.22 765.94,-411.66 773.16,-419.41 776.42,-413.22"/>
</g>
<!-- Node7 -->
<g id="node7" class="node">
<title>Node7</title>
<g id="a_node7"><a xlink:href="joyaxis_8h.html" target="_top" xlink:title=" ">
<polygon fill="white" stroke="black" points="525.5,-280.5 525.5,-299.5 581.5,-299.5 581.5,-280.5 525.5,-280.5"/>
<text text-anchor="middle" x="553.5" y="-287.5" font-family="Helvetica,sans-Serif" font-size="10.00">joyaxis.h</text>
</a>
</g>
</g>
<!-- Node1&#45;&gt;Node7 -->
<g id="edge41" class="edge">
<title>Node1&#45;&gt;Node7</title>
<path fill="none" stroke="midnightblue" d="M802.44,-456.76C736.7,-447.23 632.78,-422.07 573.5,-356 562.05,-343.24 557.16,-324.05 555.06,-309.82"/>
<polygon fill="midnightblue" stroke="midnightblue" points="558.52,-309.24 553.91,-299.7 551.56,-310.03 558.52,-309.24"/>
</g>
<!-- Node9 -->
<g id="node9" class="node">
<title>Node9</title>
<g id="a_node9"><a xlink:href="joyaxisbutton_8h.html" target="_top" xlink:title=" ">
<polygon fill="white" stroke="black" points="754,-224.5 754,-243.5 903,-243.5 903,-224.5 754,-224.5"/>
<text text-anchor="middle" x="828.5" y="-231.5" font-family="Helvetica,sans-Serif" font-size="10.00">joybuttontypes/joyaxisbutton.h</text>
</a>
</g>
</g>
<!-- Node1&#45;&gt;Node9 -->
<g id="edge42" class="edge">
<title>Node1&#45;&gt;Node9</title>
<path fill="none" stroke="midnightblue" d="M860.37,-448.27C854.49,-408.89 837.99,-298.49 831.33,-253.97"/>
<polygon fill="midnightblue" stroke="midnightblue" points="834.77,-253.3 829.83,-243.93 827.85,-254.33 834.77,-253.3"/>
</g>
<!-- Node33 -->
<g id="node33" class="node">
<title>Node33</title>
<g id="a_node33"><a xlink:href="joybuttonxml_8h.html" target="_top" xlink:title=" ">
<polygon fill="white" stroke="black" points="0,-224.5 0,-243.5 99,-243.5 99,-224.5 0,-224.5"/>
<text text-anchor="middle" x="49.5" y="-231.5" font-family="Helvetica,sans-Serif" font-size="10.00">xml/joybuttonxml.h</text>
</a>
</g>
</g>
<!-- Node1&#45;&gt;Node33 -->
<g id="edge43" class="edge">
<title>Node1&#45;&gt;Node33</title>
<path fill="none" stroke="midnightblue" d="M802.48,-452.14C751.8,-442.96 677.47,-428.48 613.5,-412 409.64,-359.49 170.36,-277.49 83.31,-246.97"/>
<polygon fill="midnightblue" stroke="midnightblue" points="84.3,-243.61 73.7,-243.59 81.97,-250.21 84.3,-243.61"/>
</g>
<!-- Node34 -->
<g id="node34" class="node">
<title>Node34</title>
<g id="a_node34"><a xlink:title=" ">
<polygon fill="white" stroke="#bfbfbf" points="942,-392.5 942,-411.5 995,-411.5 995,-392.5 942,-392.5"/>
<text text-anchor="middle" x="968.5" y="-399.5" font-family="Helvetica,sans-Serif" font-size="10.00">QDebug</text>
</a>
</g>
</g>
<!-- Node1&#45;&gt;Node34 -->
<g id="edge45" class="edge">
<title>Node1&#45;&gt;Node34</title>
<path fill="none" stroke="midnightblue" d="M887.62,-448.4C904.77,-438.77 927.36,-426.09 944.31,-416.58"/>
<polygon fill="midnightblue" stroke="midnightblue" points="946.07,-419.6 953.08,-411.66 942.64,-413.5 946.07,-419.6"/>
</g>
<!-- Node35 -->
<g id="node35" class="node">
<title>Node35</title>
<g id="a_node35"><a xlink:title=" ">
<polygon fill="white" stroke="#bfbfbf" points="1013.5,-392.5 1013.5,-411.5 1117.5,-411.5 1117.5,-392.5 1013.5,-392.5"/>
<text text-anchor="middle" x="1065.5" y="-399.5" font-family="Helvetica,sans-Serif" font-size="10.00">QXmlStreamReader</text>
</a>
</g>
</g>
<!-- Node1&#45;&gt;Node35 -->
<g id="edge46" class="edge">
<title>Node1&#45;&gt;Node35</title>
<path fill="none" stroke="midnightblue" d="M910.35,-448.47C945.83,-438.08 993.59,-424.08 1026.7,-414.37"/>
<polygon fill="midnightblue" stroke="midnightblue" points="1027.87,-417.68 1036.48,-411.51 1025.9,-410.96 1027.87,-417.68"/>
</g>
<!-- Node36 -->
<g id="node36" class="node">
<title>Node36</title>
<g id="a_node36"><a xlink:title=" ">
<polygon fill="white" stroke="#bfbfbf" points="1135.5,-392.5 1135.5,-411.5 1233.5,-411.5 1233.5,-392.5 1135.5,-392.5"/>
<text text-anchor="middle" x="1184.5" y="-399.5" font-family="Helvetica,sans-Serif" font-size="10.00">QXmlStreamWriter</text>
</a>
</g>
</g>
<!-- Node1&#45;&gt;Node36 -->
<g id="edge47" class="edge">
<title>Node1&#45;&gt;Node36</title>
<path fill="none" stroke="midnightblue" d="M922.69,-451.38C981.59,-440.49 1070.61,-424.05 1128.15,-413.41"/>
<polygon fill="midnightblue" stroke="midnightblue" points="1128.97,-416.82 1138.16,-411.56 1127.69,-409.94 1128.97,-416.82"/>
</g>
<!-- Node3 -->
<g id="node3" class="node">
<title>Node3</title>
<g id="a_node3"><a xlink:title=" ">
<polygon fill="white" stroke="#bfbfbf" points="613,-0.5 613,-19.5 666,-19.5 666,-0.5 613,-0.5"/>
<text text-anchor="middle" x="639.5" y="-7.5" font-family="Helvetica,sans-Serif" font-size="10.00">QObject</text>
</a>
</g>
</g>
<!-- Node2&#45;&gt;Node3 -->
<g id="edge2" class="edge">
<title>Node2&#45;&gt;Node3</title>
<path fill="none" stroke="midnightblue" d="M1448.55,-57.2C1445.84,-56.75 1443.13,-56.34 1440.5,-56 1147.79,-18.05 790.81,-12.09 676.54,-11.17"/>
<polygon fill="midnightblue" stroke="midnightblue" points="676.28,-7.67 666.25,-11.09 676.22,-14.67 676.28,-7.67"/>
</g>
<!-- Node4 -->
<g id="node4" class="node">
<title>Node4</title>
<g id="a_node4"><a xlink:title=" ">
<polygon fill="white" stroke="#bfbfbf" points="1383,-0.5 1383,-19.5 1438,-19.5 1438,-0.5 1383,-0.5"/>
<text text-anchor="middle" x="1410.5" y="-7.5" font-family="Helvetica,sans-Serif" font-size="10.00">QPointer</text>
</a>
</g>
</g>
<!-- Node2&#45;&gt;Node4 -->
<g id="edge3" class="edge">
<title>Node2&#45;&gt;Node4</title>
<path fill="none" stroke="midnightblue" d="M1472.61,-56.32C1461.35,-48.11 1444.21,-35.6 1430.79,-25.81"/>
<polygon fill="midnightblue" stroke="midnightblue" points="1432.75,-22.9 1422.61,-19.83 1428.62,-28.56 1432.75,-22.9"/>
</g>
<!-- Node6 -->
<g id="node6" class="node">
<title>Node6</title>
<g id="a_node6"><a xlink:href="setjoystick_8h.html" target="_top" xlink:title=" ">
<polygon fill="white" stroke="black" points="582,-336.5 582,-355.5 653,-355.5 653,-336.5 582,-336.5"/>
<text text-anchor="middle" x="617.5" y="-343.5" font-family="Helvetica,sans-Serif" font-size="10.00">setjoystick.h</text>
</a>
</g>
</g>
<!-- Node5&#45;&gt;Node6 -->
<g id="edge5" class="edge">
<title>Node5&#45;&gt;Node6</title>
<path fill="none" stroke="midnightblue" d="M728.58,-392.44C706.76,-383.52 672.35,-369.44 647.61,-359.32"/>
<polygon fill="midnightblue" stroke="midnightblue" points="648.9,-356.06 638.32,-355.52 646.25,-362.54 648.9,-356.06"/>
</g>
<!-- Node32 -->
<g id="node32" class="node">
<title>Node32</title>
<g id="a_node32"><a xlink:title=" ">
<polygon fill="white" stroke="#bfbfbf" points="694.5,-336.5 694.5,-355.5 804.5,-355.5 804.5,-336.5 694.5,-336.5"/>
<text text-anchor="middle" x="749.5" y="-343.5" font-family="Helvetica,sans-Serif" font-size="10.00">SDL2/SDL_joystick.h</text>
</a>
</g>
</g>
<!-- Node5&#45;&gt;Node32 -->
<g id="edge40" class="edge">
<title>Node5&#45;&gt;Node32</title>
<path fill="none" stroke="midnightblue" d="M749.5,-392.08C749.5,-385.01 749.5,-374.86 749.5,-365.99"/>
<polygon fill="midnightblue" stroke="midnightblue" points="753,-365.75 749.5,-355.75 746,-365.75 753,-365.75"/>
</g>
<!-- Node6&#45;&gt;Node7 -->
<g id="edge6" class="edge">
<title>Node6&#45;&gt;Node7</title>
<path fill="none" stroke="midnightblue" d="M607.22,-336.32C597.66,-328.26 583.22,-316.08 571.72,-306.37"/>
<polygon fill="midnightblue" stroke="midnightblue" points="573.87,-303.61 563.97,-299.83 569.36,-308.96 573.87,-303.61"/>
</g>
<!-- Node31 -->
<g id="node31" class="node">
<title>Node31</title>
<g id="a_node31"><a xlink:href="setjoystickxml_8h.html" target="_top" xlink:title=" ">
<polygon fill="white" stroke="black" points="553.5,-168.5 553.5,-187.5 659.5,-187.5 659.5,-168.5 553.5,-168.5"/>
<text text-anchor="middle" x="606.5" y="-175.5" font-family="Helvetica,sans-Serif" font-size="10.00">xml/setjoystickxml.h</text>
</a>
</g>
</g>
<!-- Node6&#45;&gt;Node31 -->
<g id="edge38" class="edge">
<title>Node6&#45;&gt;Node31</title>
<path fill="none" stroke="midnightblue" d="M616.91,-336.08C615.18,-309.95 610.09,-233.21 607.73,-197.58"/>
<polygon fill="midnightblue" stroke="midnightblue" points="611.22,-197.31 607.07,-187.57 604.24,-197.78 611.22,-197.31"/>
</g>
<!-- Node7&#45;&gt;Node3 -->
<g id="edge8" class="edge">
<title>Node7&#45;&gt;Node3</title>
<path fill="none" stroke="midnightblue" d="M525.28,-287.12C436,-280.39 165.5,-253.83 165.5,-179 165.5,-179 165.5,-179 165.5,-121 165.5,-90.9 161.34,-75.22 184.5,-56 216.44,-29.51 499.76,-16.27 602.5,-12.31"/>
<polygon fill="midnightblue" stroke="midnightblue" points="602.85,-15.8 612.71,-11.92 602.58,-8.8 602.85,-15.8"/>
</g>
<!-- Node8 -->
<g id="node8" class="node">
<title>Node8</title>
<g id="a_node8"><a xlink:title=" ">
<polygon fill="white" stroke="#bfbfbf" points="330.5,-0.5 330.5,-19.5 370.5,-19.5 370.5,-0.5 330.5,-0.5"/>
<text text-anchor="middle" x="350.5" y="-7.5" font-family="Helvetica,sans-Serif" font-size="10.00">QList</text>
</a>
</g>
</g>
<!-- Node7&#45;&gt;Node8 -->
<g id="edge7" class="edge">
<title>Node7&#45;&gt;Node8</title>
<path fill="none" stroke="midnightblue" d="M525.33,-288.22C452.01,-285.75 257.13,-276.24 202.5,-244 175.93,-228.32 173.64,-216.36 161.5,-188 138.41,-134.04 123.87,-97.37 165.5,-56 187.09,-34.55 273.35,-20.67 320.07,-14.57"/>
<polygon fill="midnightblue" stroke="midnightblue" points="320.73,-18.02 330.22,-13.29 319.86,-11.07 320.73,-18.02"/>
</g>
<!-- Node7&#45;&gt;Node9 -->
<g id="edge9" class="edge">
<title>Node7&#45;&gt;Node9</title>
<path fill="none" stroke="midnightblue" d="M581.64,-283.47C626.96,-274.57 716.91,-256.91 774.81,-245.54"/>
<polygon fill="midnightblue" stroke="midnightblue" points="775.74,-248.93 784.88,-243.57 774.39,-242.06 775.74,-248.93"/>
</g>
<!-- Node10 -->
<g id="node10" class="node">
<title>Node10</title>
<g id="a_node10"><a xlink:href="joygradientbutton_8h.html" target="_top" xlink:title=" ">
<polygon fill="white" stroke="black" points="749,-168.5 749,-187.5 914,-187.5 914,-168.5 749,-168.5"/>
<text text-anchor="middle" x="831.5" y="-175.5" font-family="Helvetica,sans-Serif" font-size="10.00">joybuttontypes/joygradientbutton.h</text>
</a>
</g>
</g>
<!-- Node9&#45;&gt;Node10 -->
<g id="edge10" class="edge">
<title>Node9&#45;&gt;Node10</title>
<path fill="none" stroke="midnightblue" d="M829,-224.08C829.39,-217.01 829.95,-206.86 830.45,-197.99"/>
<polygon fill="midnightblue" stroke="midnightblue" points="833.95,-197.93 831.01,-187.75 826.96,-197.54 833.95,-197.93"/>
</g>
<!-- Node26 -->
<g id="node26" class="node">
<title>Node26</title>
<g id="a_node26"><a xlink:href="logger_8h.html" target="_top" xlink:title=" ">
<polygon fill="white" stroke="black" points="414,-112.5 414,-131.5 465,-131.5 465,-112.5 414,-112.5"/>
<text text-anchor="middle" x="439.5" y="-119.5" font-family="Helvetica,sans-Serif" font-size="10.00">logger.h</text>
</a>
</g>
</g>
<!-- Node9&#45;&gt;Node26 -->
<g id="edge31" class="edge">
<title>Node9&#45;&gt;Node26</title>
<path fill="none" stroke="midnightblue" d="M753.8,-229.25C695.3,-224.41 612.7,-213.34 544.5,-188 511.76,-175.84 478.17,-152.84 458.07,-137.71"/>
<polygon fill="midnightblue" stroke="midnightblue" points="460.14,-134.89 450.08,-131.58 455.88,-140.44 460.14,-134.89"/>
</g>
<!-- Node11 -->
<g id="node11" class="node">
<title>Node11</title>
<g id="a_node11"><a xlink:href="joybutton_8h.html" target="_top" xlink:title=" ">
<polygon fill="white" stroke="black" points="900,-112.5 900,-131.5 965,-131.5 965,-112.5 900,-112.5"/>
<text text-anchor="middle" x="932.5" y="-119.5" font-family="Helvetica,sans-Serif" font-size="10.00">joybutton.h</text>
</a>
</g>
</g>
<!-- Node10&#45;&gt;Node11 -->
<g id="edge11" class="edge">
<title>Node10&#45;&gt;Node11</title>
<path fill="none" stroke="midnightblue" d="M847.73,-168.32C863.85,-159.7 888.8,-146.36 907.46,-136.39"/>
<polygon fill="midnightblue" stroke="midnightblue" points="909.14,-139.46 916.31,-131.65 905.84,-133.28 909.14,-139.46"/>
</g>
<!-- Node12 -->
<g id="node12" class="node">
<title>Node12</title>
<g id="a_node12"><a xlink:href="globalvariables_8h.html" target="_top" xlink:title=" ">
<polygon fill="white" stroke="black" points="632,-56.5 632,-75.5 721,-75.5 721,-56.5 632,-56.5"/>
<text text-anchor="middle" x="676.5" y="-63.5" font-family="Helvetica,sans-Serif" font-size="10.00">globalvariables.h</text>
</a>
</g>
</g>
<!-- Node11&#45;&gt;Node12 -->
<g id="edge12" class="edge">
<title>Node11&#45;&gt;Node12</title>
<path fill="none" stroke="midnightblue" d="M899.82,-114.11C856.09,-104.88 778.14,-88.44 726.87,-77.63"/>
<polygon fill="midnightblue" stroke="midnightblue" points="727.5,-74.18 716.99,-75.54 726.06,-81.03 727.5,-74.18"/>
</g>
<!-- Node13 -->
<g id="node13" class="node">
<title>Node13</title>
<g id="a_node13"><a xlink:href="joybuttonmousehelper_8h.html" target="_top" xlink:title=" ">
<polygon fill="white" stroke="black" points="738.5,-56.5 738.5,-75.5 858.5,-75.5 858.5,-56.5 738.5,-56.5"/>
<text text-anchor="middle" x="798.5" y="-63.5" font-family="Helvetica,sans-Serif" font-size="10.00">joybuttonmousehelper.h</text>
</a>
</g>
</g>
<!-- Node11&#45;&gt;Node13 -->
<g id="edge15" class="edge">
<title>Node11&#45;&gt;Node13</title>
<path fill="none" stroke="midnightblue" d="M911.27,-112.44C889.12,-103.52 854.18,-89.44 829.06,-79.32"/>
<polygon fill="midnightblue" stroke="midnightblue" points="830.22,-76.01 819.63,-75.52 827.6,-82.5 830.22,-76.01"/>
</g>
<!-- Node14 -->
<g id="node14" class="node">
<title>Node14</title>
<g id="a_node14"><a xlink:href="joybuttonslot_8h.html" target="_top" xlink:title=" ">
<polygon fill="white" stroke="black" points="1538.5,-56.5 1538.5,-75.5 1618.5,-75.5 1618.5,-56.5 1538.5,-56.5"/>
<text text-anchor="middle" x="1578.5" y="-63.5" font-family="Helvetica,sans-Serif" font-size="10.00">joybuttonslot.h</text>
</a>
</g>
</g>
<!-- Node11&#45;&gt;Node14 -->
<g id="edge17" class="edge">
<title>Node11&#45;&gt;Node14</title>
<path fill="none" stroke="midnightblue" d="M965.31,-119.75C1054.24,-116.12 1307.52,-104.03 1528.29,-76.02"/>
<polygon fill="midnightblue" stroke="midnightblue" points="1528.97,-79.46 1538.44,-74.72 1528.08,-72.52 1528.97,-79.46"/>
</g>
<!-- Node19 -->
<g id="node19" class="node">
<title>Node19</title>
<g id="a_node19"><a xlink:href="springmousemoveinfo_8h.html" target="_top" xlink:title=" ">
<polygon fill="white" stroke="black" points="877,-56.5 877,-75.5 996,-75.5 996,-56.5 877,-56.5"/>
<text text-anchor="middle" x="936.5" y="-63.5" font-family="Helvetica,sans-Serif" font-size="10.00">springmousemoveinfo.h</text>
</a>
</g>
</g>
<!-- Node11&#45;&gt;Node19 -->
<g id="edge24" class="edge">
<title>Node11&#45;&gt;Node19</title>
<path fill="none" stroke="midnightblue" d="M933.16,-112.08C933.68,-105.01 934.44,-94.86 935.09,-85.99"/>
<polygon fill="midnightblue" stroke="midnightblue" points="938.6,-85.98 935.85,-75.75 931.62,-85.47 938.6,-85.98"/>
</g>
<!-- Node20 -->
<g id="node20" class="node">
<title>Node20</title>
<g id="a_node20"><a xlink:title=" ">
<polygon fill="white" stroke="#bfbfbf" points="1014,-56.5 1014,-75.5 1101,-75.5 1101,-56.5 1014,-56.5"/>
<text text-anchor="middle" x="1057.5" y="-63.5" font-family="Helvetica,sans-Serif" font-size="10.00">QDeadlineTimer</text>
</a>
</g>
</g>
<!-- Node11&#45;&gt;Node20 -->
<g id="edge25" class="edge">
<title>Node11&#45;&gt;Node20</title>
<path fill="none" stroke="midnightblue" d="M952.31,-112.44C972.79,-103.6 1004.98,-89.69 1028.36,-79.59"/>
<polygon fill="midnightblue" stroke="midnightblue" points="1029.99,-82.7 1037.79,-75.52 1027.22,-76.27 1029.99,-82.7"/>
</g>
<!-- Node21 -->
<g id="node21" class="node">
<title>Node21</title>
<g id="a_node21"><a xlink:title=" ">
<polygon fill="white" stroke="#bfbfbf" points="1119,-56.5 1119,-75.5 1172,-75.5 1172,-56.5 1119,-56.5"/>
<text text-anchor="middle" x="1145.5" y="-63.5" font-family="Helvetica,sans-Serif" font-size="10.00">QQueue</text>
</a>
</g>
</g>
<!-- Node11&#45;&gt;Node21 -->
<g id="edge26" class="edge">
<title>Node11&#45;&gt;Node21</title>
<path fill="none" stroke="midnightblue" d="M965.32,-112.75C999.02,-104.26 1053.26,-90.58 1108.75,-76.44"/>
<polygon fill="midnightblue" stroke="midnightblue" points="1109.92,-79.75 1118.75,-73.89 1108.2,-72.97 1109.92,-79.75"/>
</g>
<!-- Node22 -->
<g id="node22" class="node">
<title>Node22</title>
<g id="a_node22"><a xlink:title=" ">
<polygon fill="white" stroke="#bfbfbf" points="1190.5,-56.5 1190.5,-75.5 1280.5,-75.5 1280.5,-56.5 1190.5,-56.5"/>
<text text-anchor="middle" x="1235.5" y="-63.5" font-family="Helvetica,sans-Serif" font-size="10.00">QReadWriteLock</text>
</a>
</g>
</g>
<!-- Node11&#45;&gt;Node22 -->
<g id="edge27" class="edge">
<title>Node11&#45;&gt;Node22</title>
<path fill="none" stroke="midnightblue" d="M965.1,-114.69C969.93,-113.78 974.84,-112.86 979.5,-112 1048.57,-99.32 1128.27,-85.42 1180.15,-76.48"/>
<polygon fill="midnightblue" stroke="midnightblue" points="1180.88,-79.9 1190.14,-74.76 1179.7,-73.01 1180.88,-79.9"/>
</g>
<!-- Node23 -->
<g id="node23" class="node">
<title>Node23</title>
<g id="a_node23"><a xlink:title=" ">
<polygon fill="white" stroke="#bfbfbf" points="1299,-56.5 1299,-75.5 1364,-75.5 1364,-56.5 1299,-56.5"/>
<text text-anchor="middle" x="1331.5" y="-63.5" font-family="Helvetica,sans-Serif" font-size="10.00">QRunnable</text>
</a>
</g>
</g>
<!-- Node11&#45;&gt;Node23 -->
<g id="edge28" class="edge">
<title>Node11&#45;&gt;Node23</title>
<path fill="none" stroke="midnightblue" d="M965.06,-114.44C969.89,-113.56 974.82,-112.72 979.5,-112 1113.38,-91.44 1150.9,-98.22 1288.89,-75.94"/>
<polygon fill="midnightblue" stroke="midnightblue" points="1289.7,-79.35 1299,-74.28 1288.56,-72.45 1289.7,-79.35"/>
</g>
<!-- Node24 -->
<g id="node24" class="node">
<title>Node24</title>
<g id="a_node24"><a xlink:title=" ">
<polygon fill="white" stroke="#bfbfbf" points="521.5,-56.5 521.5,-75.5 575.5,-75.5 575.5,-56.5 521.5,-56.5"/>
<text text-anchor="middle" x="548.5" y="-63.5" font-family="Helvetica,sans-Serif" font-size="10.00">QThread</text>
</a>
</g>
</g>
<!-- Node11&#45;&gt;Node24 -->
<g id="edge29" class="edge">
<title>Node11&#45;&gt;Node24</title>
<path fill="none" stroke="midnightblue" d="M899.76,-116.4C828.65,-106.4 660.48,-82.75 585.59,-72.22"/>
<polygon fill="midnightblue" stroke="midnightblue" points="586.05,-68.75 575.66,-70.82 585.08,-75.68 586.05,-68.75"/>
</g>
<!-- Node25 -->
<g id="node25" class="node">
<title>Node25</title>
<g id="a_node25"><a xlink:title=" ">
<polygon fill="white" stroke="#bfbfbf" points="1382,-56.5 1382,-75.5 1431,-75.5 1431,-56.5 1382,-56.5"/>
<text text-anchor="middle" x="1406.5" y="-63.5" font-family="Helvetica,sans-Serif" font-size="10.00">QTimer</text>
</a>
</g>
</g>
<!-- Node11&#45;&gt;Node25 -->
<g id="edge30" class="edge">
<title>Node11&#45;&gt;Node25</title>
<path fill="none" stroke="midnightblue" d="M965.05,-114.34C969.88,-113.47 974.81,-112.66 979.5,-112 1150.39,-87.89 1198.68,-106.53 1371.79,-76.04"/>
<polygon fill="midnightblue" stroke="midnightblue" points="1372.51,-79.46 1381.74,-74.25 1371.28,-72.57 1372.51,-79.46"/>
</g>
<!-- Node12&#45;&gt;Node3 -->
<g id="edge14" class="edge">
<title>Node12&#45;&gt;Node3</title>
<path fill="none" stroke="midnightblue" d="M670.39,-56.08C665.22,-48.53 657.65,-37.49 651.31,-28.23"/>
<polygon fill="midnightblue" stroke="midnightblue" points="654.04,-26.02 645.5,-19.75 648.26,-29.98 654.04,-26.02"/>
</g>
<!-- Node12&#45;&gt;Node8 -->
<g id="edge13" class="edge">
<title>Node12&#45;&gt;Node8</title>
<path fill="none" stroke="midnightblue" d="M631.85,-57.6C564.38,-46.43 438.21,-25.53 380.59,-15.98"/>
<polygon fill="midnightblue" stroke="midnightblue" points="381.1,-12.52 370.66,-14.34 379.95,-19.43 381.1,-12.52"/>
</g>
<!-- Node13&#45;&gt;Node3 -->
<g id="edge16" class="edge">
<title>Node13&#45;&gt;Node3</title>
<path fill="none" stroke="midnightblue" d="M773.31,-56.44C746.56,-47.36 704.1,-32.94 674.19,-22.78"/>
<polygon fill="midnightblue" stroke="midnightblue" points="675.17,-19.42 664.58,-19.52 672.92,-26.05 675.17,-19.42"/>
</g>
<!-- Node14&#45;&gt;Node3 -->
<g id="edge19" class="edge">
<title>Node14&#45;&gt;Node3</title>
<path fill="none" stroke="midnightblue" d="M1538.45,-57.2C1535.43,-56.75 1532.42,-56.34 1529.5,-56 1200.21,-17.6 798.61,-11.96 676.47,-11.14"/>
<polygon fill="midnightblue" stroke="midnightblue" points="676.2,-7.63 666.18,-11.07 676.16,-14.63 676.2,-7.63"/>
</g>
<!-- Node14&#45;&gt;Node4 -->
<g id="edge20" class="edge">
<title>Node14&#45;&gt;Node4</title>
<path fill="none" stroke="midnightblue" d="M1551.88,-56.44C1523.49,-47.32 1478.36,-32.81 1446.75,-22.65"/>
<polygon fill="midnightblue" stroke="midnightblue" points="1447.59,-19.24 1437,-19.52 1445.44,-25.91 1447.59,-19.24"/>
</g>
<!-- Node15 -->
<g id="node15" class="node">
<title>Node15</title>
<g id="a_node15"><a xlink:title=" ">
<polygon fill="white" stroke="#bfbfbf" points="1596.5,-0.5 1596.5,-19.5 1680.5,-19.5 1680.5,-0.5 1596.5,-0.5"/>
<text text-anchor="middle" x="1638.5" y="-7.5" font-family="Helvetica,sans-Serif" font-size="10.00">QElapsedTimer</text>
</a>
</g>
</g>
<!-- Node14&#45;&gt;Node15 -->
<g id="edge18" class="edge">
<title>Node14&#45;&gt;Node15</title>
<path fill="none" stroke="midnightblue" d="M1588.14,-56.32C1597.01,-48.34 1610.37,-36.31 1621.11,-26.65"/>
<polygon fill="midnightblue" stroke="midnightblue" points="1623.59,-29.13 1628.68,-19.83 1618.91,-23.92 1623.59,-29.13"/>
</g>
<!-- Node16 -->
<g id="node16" class="node">
<title>Node16</title>
<g id="a_node16"><a xlink:title=" ">
<polygon fill="white" stroke="#bfbfbf" points="1698.5,-0.5 1698.5,-19.5 1744.5,-19.5 1744.5,-0.5 1698.5,-0.5"/>
<text text-anchor="middle" x="1721.5" y="-7.5" font-family="Helvetica,sans-Serif" font-size="10.00">QTime</text>
</a>
</g>
</g>
<!-- Node14&#45;&gt;Node16 -->
<g id="edge21" class="edge">
<title>Node14&#45;&gt;Node16</title>
<path fill="none" stroke="midnightblue" d="M1601.16,-56.44C1624.9,-47.48 1662.41,-33.31 1689.24,-23.18"/>
<polygon fill="midnightblue" stroke="midnightblue" points="1690.83,-26.32 1698.95,-19.52 1688.36,-19.77 1690.83,-26.32"/>
</g>
<!-- Node17 -->
<g id="node17" class="node">
<title>Node17</title>
<g id="a_node17"><a xlink:title=" ">
<polygon fill="white" stroke="#bfbfbf" points="1762.5,-0.5 1762.5,-19.5 1816.5,-19.5 1816.5,-0.5 1762.5,-0.5"/>
<text text-anchor="middle" x="1789.5" y="-7.5" font-family="Helvetica,sans-Serif" font-size="10.00">QVariant</text>
</a>
</g>
</g>
<!-- Node14&#45;&gt;Node17 -->
<g id="edge22" class="edge">
<title>Node14&#45;&gt;Node17</title>
<path fill="none" stroke="midnightblue" d="M1611.93,-56.44C1650.2,-46.65 1712.71,-30.65 1752.44,-20.49"/>
<polygon fill="midnightblue" stroke="midnightblue" points="1753.44,-23.84 1762.26,-17.97 1751.71,-17.06 1753.44,-23.84"/>
</g>
<!-- Node18 -->
<g id="node18" class="node">
<title>Node18</title>
<g id="a_node18"><a xlink:title=" ">
<polygon fill="white" stroke="#bfbfbf" points="1456.5,-0.5 1456.5,-19.5 1578.5,-19.5 1578.5,-0.5 1456.5,-0.5"/>
<text text-anchor="middle" x="1517.5" y="-7.5" font-family="Helvetica,sans-Serif" font-size="10.00">QtWidgets/QApplication</text>
</a>
</g>
</g>
<!-- Node14&#45;&gt;Node18 -->
<g id="edge23" class="edge">
<title>Node14&#45;&gt;Node18</title>
<path fill="none" stroke="midnightblue" d="M1568.7,-56.32C1559.68,-48.34 1546.09,-36.31 1535.18,-26.65"/>
<polygon fill="midnightblue" stroke="midnightblue" points="1537.29,-23.84 1527.48,-19.83 1532.65,-29.08 1537.29,-23.84"/>
</g>
<!-- Node26&#45;&gt;Node3 -->
<g id="edge34" class="edge">
<title>Node26&#45;&gt;Node3</title>
<path fill="none" stroke="midnightblue" d="M447.2,-112.24C459.67,-98.52 485.62,-71.89 512.5,-56 540.94,-39.18 576.66,-27.22 602.97,-19.88"/>
<polygon fill="midnightblue" stroke="midnightblue" points="604.16,-23.18 612.91,-17.2 602.34,-16.43 604.16,-23.18"/>
</g>
<!-- Node26&#45;&gt;Node24 -->
<g id="edge36" class="edge">
<title>Node26&#45;&gt;Node24</title>
<path fill="none" stroke="midnightblue" d="M457.01,-112.32C474.57,-103.62 501.83,-90.12 522.03,-80.11"/>
<polygon fill="midnightblue" stroke="midnightblue" points="523.62,-83.23 531.03,-75.65 520.52,-76.96 523.62,-83.23"/>
</g>
<!-- Node27 -->
<g id="node27" class="node">
<title>Node27</title>
<g id="a_node27"><a xlink:title=" ">
<polygon fill="white" stroke="#bfbfbf" points="355.5,-56.5 355.5,-75.5 395.5,-75.5 395.5,-56.5 355.5,-56.5"/>
<text text-anchor="middle" x="375.5" y="-63.5" font-family="Helvetica,sans-Serif" font-size="10.00">QFile</text>
</a>
</g>
</g>
<!-- Node26&#45;&gt;Node27 -->
<g id="edge32" class="edge">
<title>Node26&#45;&gt;Node27</title>
<path fill="none" stroke="midnightblue" d="M429.22,-112.32C419.66,-104.26 405.22,-92.08 393.72,-82.37"/>
<polygon fill="midnightblue" stroke="midnightblue" points="395.87,-79.61 385.97,-75.83 391.36,-84.96 395.87,-79.61"/>
</g>
<!-- Node28 -->
<g id="node28" class="node">
<title>Node28</title>
<g id="a_node28"><a xlink:title=" ">
<polygon fill="white" stroke="#bfbfbf" points="414,-56.5 414,-75.5 465,-75.5 465,-56.5 414,-56.5"/>
<text text-anchor="middle" x="439.5" y="-63.5" font-family="Helvetica,sans-Serif" font-size="10.00">QMutex</text>
</a>
</g>
</g>
<!-- Node26&#45;&gt;Node28 -->
<g id="edge33" class="edge">
<title>Node26&#45;&gt;Node28</title>
<path fill="none" stroke="midnightblue" d="M439.5,-112.08C439.5,-105.01 439.5,-94.86 439.5,-85.99"/>
<polygon fill="midnightblue" stroke="midnightblue" points="443,-85.75 439.5,-75.75 436,-85.75 443,-85.75"/>
</g>
<!-- Node29 -->
<g id="node29" class="node">
<title>Node29</title>
<g id="a_node29"><a xlink:title=" ">
<polygon fill="white" stroke="#bfbfbf" points="193.5,-56.5 193.5,-75.5 267.5,-75.5 267.5,-56.5 193.5,-56.5"/>
<text text-anchor="middle" x="230.5" y="-63.5" font-family="Helvetica,sans-Serif" font-size="10.00">QTextStream</text>
</a>
</g>
</g>
<!-- Node26&#45;&gt;Node29 -->
<g id="edge35" class="edge">
<title>Node26&#45;&gt;Node29</title>
<path fill="none" stroke="midnightblue" d="M413.87,-114.38C378.86,-105.33 315.59,-88.99 273.31,-78.06"/>
<polygon fill="midnightblue" stroke="midnightblue" points="274.13,-74.66 263.57,-75.55 272.38,-81.44 274.13,-74.66"/>
</g>
<!-- Node30 -->
<g id="node30" class="node">
<title>Node30</title>
<g id="a_node30"><a xlink:title=" ">
<polygon fill="white" stroke="#bfbfbf" points="285.5,-56.5 285.5,-75.5 337.5,-75.5 337.5,-56.5 285.5,-56.5"/>
<text text-anchor="middle" x="311.5" y="-63.5" font-family="Helvetica,sans-Serif" font-size="10.00">sstream</text>
</a>
</g>
</g>
<!-- Node26&#45;&gt;Node30 -->
<g id="edge37" class="edge">
<title>Node26&#45;&gt;Node30</title>
<path fill="none" stroke="midnightblue" d="M419.22,-112.44C398.15,-103.56 364.98,-89.56 341.01,-79.45"/>
<polygon fill="midnightblue" stroke="midnightblue" points="342.26,-76.18 331.69,-75.52 339.54,-82.63 342.26,-76.18"/>
</g>
<!-- Node31&#45;&gt;Node3 -->
<g id="edge39" class="edge">
<title>Node31&#45;&gt;Node3</title>
<path fill="none" stroke="midnightblue" d="M607.11,-168.38C608.65,-148.39 613.34,-97.41 623.5,-56 625.7,-47.04 629.01,-37.37 632.05,-29.3"/>
<polygon fill="midnightblue" stroke="midnightblue" points="635.38,-30.39 635.77,-19.8 628.86,-27.83 635.38,-30.39"/>
</g>
<!-- Node33&#45;&gt;Node3 -->
<g id="edge44" class="edge">
<title>Node33&#45;&gt;Node3</title>
<path fill="none" stroke="midnightblue" d="M51.47,-224.41C58.73,-194.93 87,-97.34 151.5,-56 189.24,-31.81 495.52,-16.95 602.66,-12.45"/>
<polygon fill="midnightblue" stroke="midnightblue" points="602.84,-15.95 612.68,-12.04 602.55,-8.96 602.84,-15.95"/>
</g>
</g>
</svg>
