<?xml version="1.0" encoding="UTF-8" standalone="no"?>
<!DOCTYPE svg PUBLIC "-//W3C//DTD SVG 1.1//EN"
 "http://www.w3.org/Graphics/SVG/1.1/DTD/svg11.dtd">
<!-- Generated by graphviz version 2.43.0 (0)
 -->
<!-- Title: /home/pawel/antimicrox/src/joyaxis.h Pages: 1 -->
<svg width="1496pt" height="319pt"
 viewBox="0.00 0.00 1495.78 319.00" xmlns="http://www.w3.org/2000/svg" xmlns:xlink="http://www.w3.org/1999/xlink">
<g id="graph0" class="graph" transform="scale(1 1) rotate(0) translate(4 315)">
<title>/home/pawel/antimicrox/src/joyaxis.h</title>
<polygon fill="white" stroke="transparent" points="-4,4 -4,-315 1491.78,-315 1491.78,4 -4,4"/>
<!-- Node1 -->
<g id="node1" class="node">
<title>Node1</title>
<g id="a_node1"><a xlink:title=" ">
<polygon fill="#bfbfbf" stroke="black" points="552.28,-280.5 552.28,-310.5 671.28,-310.5 671.28,-280.5 552.28,-280.5"/>
<text text-anchor="start" x="560.28" y="-298.5" font-family="Helvetica,sans-Serif" font-size="10.00">/home/pawel/antimicrox</text>
<text text-anchor="middle" x="611.78" y="-287.5" font-family="Helvetica,sans-Serif" font-size="10.00">/src/joyaxis.h</text>
</a>
</g>
</g>
<!-- Node2 -->
<g id="node2" class="node">
<title>Node2</title>
<g id="a_node2"><a xlink:title=" ">
<polygon fill="white" stroke="#bfbfbf" points="217.78,-0.5 217.78,-19.5 257.78,-19.5 257.78,-0.5 217.78,-0.5"/>
<text text-anchor="middle" x="237.78" y="-7.5" font-family="Helvetica,sans-Serif" font-size="10.00">QList</text>
</a>
</g>
</g>
<!-- Node1&#45;&gt;Node2 -->
<g id="edge1" class="edge">
<title>Node1&#45;&gt;Node2</title>
<path fill="none" stroke="midnightblue" d="M552.08,-289.47C398.34,-275.7 0.78,-234.73 0.78,-179 0.78,-179 0.78,-179 0.78,-121 0.78,-90.9 -2.34,-76.41 19.78,-56 46.82,-31.06 154.21,-18.33 207.49,-13.44"/>
<polygon fill="midnightblue" stroke="midnightblue" points="208.03,-16.9 217.68,-12.54 207.41,-9.93 208.03,-16.9"/>
</g>
<!-- Node3 -->
<g id="node3" class="node">
<title>Node3</title>
<g id="a_node3"><a xlink:title=" ">
<polygon fill="white" stroke="#bfbfbf" points="569.28,-0.5 569.28,-19.5 622.28,-19.5 622.28,-0.5 569.28,-0.5"/>
<text text-anchor="middle" x="595.78" y="-7.5" font-family="Helvetica,sans-Serif" font-size="10.00">QObject</text>
</a>
</g>
</g>
<!-- Node1&#45;&gt;Node3 -->
<g id="edge2" class="edge">
<title>Node1&#45;&gt;Node3</title>
<path fill="none" stroke="midnightblue" d="M671.5,-290.05C831.15,-277.35 1255.78,-238.03 1255.78,-179 1255.78,-179 1255.78,-179 1255.78,-121 1255.78,-90.9 1260.22,-74.88 1236.78,-56 1189.68,-18.04 762.24,-12.1 632.77,-11.17"/>
<polygon fill="midnightblue" stroke="midnightblue" points="632.6,-7.67 622.58,-11.11 632.55,-14.67 632.6,-7.67"/>
</g>
<!-- Node4 -->
<g id="node4" class="node">
<title>Node4</title>
<g id="a_node4"><a xlink:href="joyaxisbutton_8h.html" target="_top" xlink:title=" ">
<polygon fill="white" stroke="black" points="537.28,-224.5 537.28,-243.5 686.28,-243.5 686.28,-224.5 537.28,-224.5"/>
<text text-anchor="middle" x="611.78" y="-231.5" font-family="Helvetica,sans-Serif" font-size="10.00">joybuttontypes/joyaxisbutton.h</text>
</a>
</g>
</g>
<!-- Node1&#45;&gt;Node4 -->
<g id="edge3" class="edge">
<title>Node1&#45;&gt;Node4</title>
<path fill="none" stroke="midnightblue" d="M611.78,-280.4C611.78,-272.47 611.78,-262.46 611.78,-253.86"/>
<polygon fill="midnightblue" stroke="midnightblue" points="615.28,-253.66 611.78,-243.66 608.28,-253.66 615.28,-253.66"/>
</g>
<!-- Node5 -->
<g id="node5" class="node">
<title>Node5</title>
<g id="a_node5"><a xlink:href="joygradientbutton_8h.html" target="_top" xlink:title=" ">
<polygon fill="white" stroke="black" points="597.28,-168.5 597.28,-187.5 762.28,-187.5 762.28,-168.5 597.28,-168.5"/>
<text text-anchor="middle" x="679.78" y="-175.5" font-family="Helvetica,sans-Serif" font-size="10.00">joybuttontypes/joygradientbutton.h</text>
</a>
</g>
</g>
<!-- Node4&#45;&gt;Node5 -->
<g id="edge4" class="edge">
<title>Node4&#45;&gt;Node5</title>
<path fill="none" stroke="midnightblue" d="M622.71,-224.32C632.96,-216.18 648.5,-203.84 660.78,-194.09"/>
<polygon fill="midnightblue" stroke="midnightblue" points="663,-196.79 668.66,-187.83 658.65,-191.31 663,-196.79"/>
</g>
<!-- Node22 -->
<g id="node22" class="node">
<title>Node22</title>
<g id="a_node22"><a xlink:href="logger_8h.html" target="_top" xlink:title=" ">
<polygon fill="white" stroke="black" points="249.28,-112.5 249.28,-131.5 300.28,-131.5 300.28,-112.5 249.28,-112.5"/>
<text text-anchor="middle" x="274.78" y="-119.5" font-family="Helvetica,sans-Serif" font-size="10.00">logger.h</text>
</a>
</g>
</g>
<!-- Node4&#45;&gt;Node22 -->
<g id="edge25" class="edge">
<title>Node4&#45;&gt;Node22</title>
<path fill="none" stroke="midnightblue" d="M585.62,-224.46C525.75,-204.92 378.71,-156.92 310.55,-134.67"/>
<polygon fill="midnightblue" stroke="midnightblue" points="311.29,-131.23 300.7,-131.46 309.12,-137.89 311.29,-131.23"/>
</g>
<!-- Node6 -->
<g id="node6" class="node">
<title>Node6</title>
<g id="a_node6"><a xlink:href="joybutton_8h.html" target="_top" xlink:title=" ">
<polygon fill="white" stroke="black" points="782.28,-112.5 782.28,-131.5 847.28,-131.5 847.28,-112.5 782.28,-112.5"/>
<text text-anchor="middle" x="814.78" y="-119.5" font-family="Helvetica,sans-Serif" font-size="10.00">joybutton.h</text>
</a>
</g>
</g>
<!-- Node5&#45;&gt;Node6 -->
<g id="edge5" class="edge">
<title>Node5&#45;&gt;Node6</title>
<path fill="none" stroke="midnightblue" d="M701.17,-168.44C723.49,-159.52 758.68,-145.44 783.99,-135.32"/>
<polygon fill="midnightblue" stroke="midnightblue" points="785.51,-138.48 793.49,-131.52 782.91,-131.98 785.51,-138.48"/>
</g>
<!-- Node7 -->
<g id="node7" class="node">
<title>Node7</title>
<g id="a_node7"><a xlink:href="globalvariables_8h.html" target="_top" xlink:title=" ">
<polygon fill="white" stroke="black" points="429.28,-56.5 429.28,-75.5 518.28,-75.5 518.28,-56.5 429.28,-56.5"/>
<text text-anchor="middle" x="473.78" y="-63.5" font-family="Helvetica,sans-Serif" font-size="10.00">globalvariables.h</text>
</a>
</g>
</g>
<!-- Node6&#45;&gt;Node7 -->
<g id="edge6" class="edge">
<title>Node6&#45;&gt;Node7</title>
<path fill="none" stroke="midnightblue" d="M781.93,-116.01C730.21,-108.13 626.38,-92.17 528.38,-76.25"/>
<polygon fill="midnightblue" stroke="midnightblue" points="528.74,-72.76 518.31,-74.6 527.61,-79.67 528.74,-72.76"/>
</g>
<!-- Node8 -->
<g id="node8" class="node">
<title>Node8</title>
<g id="a_node8"><a xlink:href="joybuttonmousehelper_8h.html" target="_top" xlink:title=" ">
<polygon fill="white" stroke="black" points="535.78,-56.5 535.78,-75.5 655.78,-75.5 655.78,-56.5 535.78,-56.5"/>
<text text-anchor="middle" x="595.78" y="-63.5" font-family="Helvetica,sans-Serif" font-size="10.00">joybuttonmousehelper.h</text>
</a>
</g>
</g>
<!-- Node6&#45;&gt;Node8 -->
<g id="edge9" class="edge">
<title>Node6&#45;&gt;Node8</title>
<path fill="none" stroke="midnightblue" d="M781.99,-112.92C744.4,-103.65 682.58,-88.4 640.57,-78.04"/>
<polygon fill="midnightblue" stroke="midnightblue" points="641.15,-74.58 630.6,-75.59 639.48,-81.38 641.15,-74.58"/>
</g>
<!-- Node9 -->
<g id="node9" class="node">
<title>Node9</title>
<g id="a_node9"><a xlink:href="joybuttonslot_8h.html" target="_top" xlink:title=" ">
<polygon fill="white" stroke="black" points="1283.78,-56.5 1283.78,-75.5 1363.78,-75.5 1363.78,-56.5 1283.78,-56.5"/>
<text text-anchor="middle" x="1323.78" y="-63.5" font-family="Helvetica,sans-Serif" font-size="10.00">joybuttonslot.h</text>
</a>
</g>
</g>
<!-- Node6&#45;&gt;Node9 -->
<g id="edge11" class="edge">
<title>Node6&#45;&gt;Node9</title>
<path fill="none" stroke="midnightblue" d="M847.4,-117.54C933.84,-108.37 1169.31,-83.39 1273.29,-72.36"/>
<polygon fill="midnightblue" stroke="midnightblue" points="1273.95,-75.81 1283.52,-71.27 1273.21,-68.85 1273.95,-75.81"/>
</g>
<!-- Node15 -->
<g id="node15" class="node">
<title>Node15</title>
<g id="a_node15"><a xlink:href="springmousemoveinfo_8h.html" target="_top" xlink:title=" ">
<polygon fill="white" stroke="black" points="932.28,-56.5 932.28,-75.5 1051.28,-75.5 1051.28,-56.5 932.28,-56.5"/>
<text text-anchor="middle" x="991.78" y="-63.5" font-family="Helvetica,sans-Serif" font-size="10.00">springmousemoveinfo.h</text>
</a>
</g>
</g>
<!-- Node6&#45;&gt;Node15 -->
<g id="edge18" class="edge">
<title>Node6&#45;&gt;Node15</title>
<path fill="none" stroke="midnightblue" d="M842.83,-112.44C872.86,-103.28 920.69,-88.69 954.02,-78.52"/>
<polygon fill="midnightblue" stroke="midnightblue" points="955.32,-81.78 963.87,-75.52 953.28,-75.09 955.32,-81.78"/>
</g>
<!-- Node16 -->
<g id="node16" class="node">
<title>Node16</title>
<g id="a_node16"><a xlink:title=" ">
<polygon fill="white" stroke="#bfbfbf" points="1069.28,-56.5 1069.28,-75.5 1156.28,-75.5 1156.28,-56.5 1069.28,-56.5"/>
<text text-anchor="middle" x="1112.78" y="-63.5" font-family="Helvetica,sans-Serif" font-size="10.00">QDeadlineTimer</text>
</a>
</g>
</g>
<!-- Node6&#45;&gt;Node16 -->
<g id="edge19" class="edge">
<title>Node6&#45;&gt;Node16</title>
<path fill="none" stroke="midnightblue" d="M847.52,-115.07C898.58,-105.81 997.68,-87.86 1059.24,-76.7"/>
<polygon fill="midnightblue" stroke="midnightblue" points="1059.94,-80.13 1069.16,-74.91 1058.69,-73.24 1059.94,-80.13"/>
</g>
<!-- Node17 -->
<g id="node17" class="node">
<title>Node17</title>
<g id="a_node17"><a xlink:title=" ">
<polygon fill="white" stroke="#bfbfbf" points="1174.28,-56.5 1174.28,-75.5 1227.28,-75.5 1227.28,-56.5 1174.28,-56.5"/>
<text text-anchor="middle" x="1200.78" y="-63.5" font-family="Helvetica,sans-Serif" font-size="10.00">QQueue</text>
</a>
</g>
</g>
<!-- Node6&#45;&gt;Node17 -->
<g id="edge20" class="edge">
<title>Node6&#45;&gt;Node17</title>
<path fill="none" stroke="midnightblue" d="M847.42,-118.18C908.05,-112.65 1042.31,-99.03 1164.23,-76.11"/>
<polygon fill="midnightblue" stroke="midnightblue" points="1164.94,-79.53 1174.11,-74.22 1163.63,-72.66 1164.94,-79.53"/>
</g>
<!-- Node18 -->
<g id="node18" class="node">
<title>Node18</title>
<g id="a_node18"><a xlink:title=" ">
<polygon fill="white" stroke="#bfbfbf" points="673.78,-56.5 673.78,-75.5 763.78,-75.5 763.78,-56.5 673.78,-56.5"/>
<text text-anchor="middle" x="718.78" y="-63.5" font-family="Helvetica,sans-Serif" font-size="10.00">QReadWriteLock</text>
</a>
</g>
</g>
<!-- Node6&#45;&gt;Node18 -->
<g id="edge21" class="edge">
<title>Node6&#45;&gt;Node18</title>
<path fill="none" stroke="midnightblue" d="M799.36,-112.32C784.24,-103.82 760.97,-90.73 743.31,-80.8"/>
<polygon fill="midnightblue" stroke="midnightblue" points="744.6,-77.51 734.17,-75.65 741.17,-83.61 744.6,-77.51"/>
</g>
<!-- Node19 -->
<g id="node19" class="node">
<title>Node19</title>
<g id="a_node19"><a xlink:title=" ">
<polygon fill="white" stroke="#bfbfbf" points="782.28,-56.5 782.28,-75.5 847.28,-75.5 847.28,-56.5 782.28,-56.5"/>
<text text-anchor="middle" x="814.78" y="-63.5" font-family="Helvetica,sans-Serif" font-size="10.00">QRunnable</text>
</a>
</g>
</g>
<!-- Node6&#45;&gt;Node19 -->
<g id="edge22" class="edge">
<title>Node6&#45;&gt;Node19</title>
<path fill="none" stroke="midnightblue" d="M814.78,-112.08C814.78,-105.01 814.78,-94.86 814.78,-85.99"/>
<polygon fill="midnightblue" stroke="midnightblue" points="818.28,-85.75 814.78,-75.75 811.28,-85.75 818.28,-85.75"/>
</g>
<!-- Node20 -->
<g id="node20" class="node">
<title>Node20</title>
<g id="a_node20"><a xlink:title=" ">
<polygon fill="white" stroke="#bfbfbf" points="356.78,-56.5 356.78,-75.5 410.78,-75.5 410.78,-56.5 356.78,-56.5"/>
<text text-anchor="middle" x="383.78" y="-63.5" font-family="Helvetica,sans-Serif" font-size="10.00">QThread</text>
</a>
</g>
</g>
<!-- Node6&#45;&gt;Node20 -->
<g id="edge23" class="edge">
<title>Node6&#45;&gt;Node20</title>
<path fill="none" stroke="midnightblue" d="M782.05,-118.74C715.72,-113.83 560.56,-100.78 420.86,-75.97"/>
<polygon fill="midnightblue" stroke="midnightblue" points="421.29,-72.49 410.83,-74.17 420.05,-79.38 421.29,-72.49"/>
</g>
<!-- Node21 -->
<g id="node21" class="node">
<title>Node21</title>
<g id="a_node21"><a xlink:title=" ">
<polygon fill="white" stroke="#bfbfbf" points="865.28,-56.5 865.28,-75.5 914.28,-75.5 914.28,-56.5 865.28,-56.5"/>
<text text-anchor="middle" x="889.78" y="-63.5" font-family="Helvetica,sans-Serif" font-size="10.00">QTimer</text>
</a>
</g>
</g>
<!-- Node6&#45;&gt;Node21 -->
<g id="edge24" class="edge">
<title>Node6&#45;&gt;Node21</title>
<path fill="none" stroke="midnightblue" d="M826.83,-112.32C838.24,-104.11 855.61,-91.6 869.22,-81.81"/>
<polygon fill="midnightblue" stroke="midnightblue" points="871.44,-84.52 877.51,-75.83 867.35,-78.84 871.44,-84.52"/>
</g>
<!-- Node7&#45;&gt;Node2 -->
<g id="edge7" class="edge">
<title>Node7&#45;&gt;Node2</title>
<path fill="none" stroke="midnightblue" d="M436.39,-56.44C389.68,-45.76 310.69,-27.68 267.75,-17.86"/>
<polygon fill="midnightblue" stroke="midnightblue" points="268.44,-14.42 257.91,-15.6 266.87,-21.25 268.44,-14.42"/>
</g>
<!-- Node7&#45;&gt;Node3 -->
<g id="edge8" class="edge">
<title>Node7&#45;&gt;Node3</title>
<path fill="none" stroke="midnightblue" d="M493.11,-56.44C513.1,-47.6 544.52,-33.69 567.35,-23.59"/>
<polygon fill="midnightblue" stroke="midnightblue" points="568.81,-26.76 576.54,-19.52 565.98,-20.36 568.81,-26.76"/>
</g>
<!-- Node8&#45;&gt;Node3 -->
<g id="edge10" class="edge">
<title>Node8&#45;&gt;Node3</title>
<path fill="none" stroke="midnightblue" d="M595.78,-56.08C595.78,-49.01 595.78,-38.86 595.78,-29.99"/>
<polygon fill="midnightblue" stroke="midnightblue" points="599.28,-29.75 595.78,-19.75 592.28,-29.75 599.28,-29.75"/>
</g>
<!-- Node9&#45;&gt;Node3 -->
<g id="edge13" class="edge">
<title>Node9&#45;&gt;Node3</title>
<path fill="none" stroke="midnightblue" d="M1283.74,-57.88C1279.04,-57.17 1274.31,-56.53 1269.78,-56 1027.61,-27.8 734.28,-15.73 632.58,-12.18"/>
<polygon fill="midnightblue" stroke="midnightblue" points="632.63,-8.68 622.52,-11.84 632.39,-15.68 632.63,-8.68"/>
</g>
<!-- Node10 -->
<g id="node10" class="node">
<title>Node10</title>
<g id="a_node10"><a xlink:title=" ">
<polygon fill="white" stroke="#bfbfbf" points="1193.78,-0.5 1193.78,-19.5 1277.78,-19.5 1277.78,-0.5 1193.78,-0.5"/>
<text text-anchor="middle" x="1235.78" y="-7.5" font-family="Helvetica,sans-Serif" font-size="10.00">QElapsedTimer</text>
</a>
</g>
</g>
<!-- Node9&#45;&gt;Node10 -->
<g id="edge12" class="edge">
<title>Node9&#45;&gt;Node10</title>
<path fill="none" stroke="midnightblue" d="M1309.64,-56.32C1295.91,-47.9 1274.84,-34.97 1258.72,-25.07"/>
<polygon fill="midnightblue" stroke="midnightblue" points="1260.24,-21.9 1249.88,-19.65 1256.58,-27.87 1260.24,-21.9"/>
</g>
<!-- Node11 -->
<g id="node11" class="node">
<title>Node11</title>
<g id="a_node11"><a xlink:title=" ">
<polygon fill="white" stroke="#bfbfbf" points="1296.28,-0.5 1296.28,-19.5 1351.28,-19.5 1351.28,-0.5 1296.28,-0.5"/>
<text text-anchor="middle" x="1323.78" y="-7.5" font-family="Helvetica,sans-Serif" font-size="10.00">QPointer</text>
</a>
</g>
</g>
<!-- Node9&#45;&gt;Node11 -->
<g id="edge14" class="edge">
<title>Node9&#45;&gt;Node11</title>
<path fill="none" stroke="midnightblue" d="M1323.78,-56.08C1323.78,-49.01 1323.78,-38.86 1323.78,-29.99"/>
<polygon fill="midnightblue" stroke="midnightblue" points="1327.28,-29.75 1323.78,-19.75 1320.28,-29.75 1327.28,-29.75"/>
</g>
<!-- Node12 -->
<g id="node12" class="node">
<title>Node12</title>
<g id="a_node12"><a xlink:title=" ">
<polygon fill="white" stroke="#bfbfbf" points="1369.78,-0.5 1369.78,-19.5 1415.78,-19.5 1415.78,-0.5 1369.78,-0.5"/>
<text text-anchor="middle" x="1392.78" y="-7.5" font-family="Helvetica,sans-Serif" font-size="10.00">QTime</text>
</a>
</g>
</g>
<!-- Node9&#45;&gt;Node12 -->
<g id="edge15" class="edge">
<title>Node9&#45;&gt;Node12</title>
<path fill="none" stroke="midnightblue" d="M1334.87,-56.32C1345.27,-48.18 1361.04,-35.84 1373.5,-26.09"/>
<polygon fill="midnightblue" stroke="midnightblue" points="1375.78,-28.75 1381.49,-19.83 1371.46,-23.24 1375.78,-28.75"/>
</g>
<!-- Node13 -->
<g id="node13" class="node">
<title>Node13</title>
<g id="a_node13"><a xlink:title=" ">
<polygon fill="white" stroke="#bfbfbf" points="1433.78,-0.5 1433.78,-19.5 1487.78,-19.5 1487.78,-0.5 1433.78,-0.5"/>
<text text-anchor="middle" x="1460.78" y="-7.5" font-family="Helvetica,sans-Serif" font-size="10.00">QVariant</text>
</a>
</g>
</g>
<!-- Node9&#45;&gt;Node13 -->
<g id="edge16" class="edge">
<title>Node9&#45;&gt;Node13</title>
<path fill="none" stroke="midnightblue" d="M1345.49,-56.44C1368.14,-47.52 1403.85,-33.44 1429.53,-23.32"/>
<polygon fill="midnightblue" stroke="midnightblue" points="1431.15,-26.44 1439.17,-19.52 1428.59,-19.93 1431.15,-26.44"/>
</g>
<!-- Node14 -->
<g id="node14" class="node">
<title>Node14</title>
<g id="a_node14"><a xlink:title=" ">
<polygon fill="white" stroke="#bfbfbf" points="1053.78,-0.5 1053.78,-19.5 1175.78,-19.5 1175.78,-0.5 1053.78,-0.5"/>
<text text-anchor="middle" x="1114.78" y="-7.5" font-family="Helvetica,sans-Serif" font-size="10.00">QtWidgets/QApplication</text>
</a>
</g>
</g>
<!-- Node9&#45;&gt;Node14 -->
<g id="edge17" class="edge">
<title>Node9&#45;&gt;Node14</title>
<path fill="none" stroke="midnightblue" d="M1290.66,-56.44C1254.66,-47.14 1197.01,-32.25 1157.6,-22.06"/>
<polygon fill="midnightblue" stroke="midnightblue" points="1158.3,-18.63 1147.74,-19.52 1156.55,-25.41 1158.3,-18.63"/>
</g>
<!-- Node22&#45;&gt;Node3 -->
<g id="edge28" class="edge">
<title>Node22&#45;&gt;Node3</title>
<path fill="none" stroke="midnightblue" d="M281.81,-112.18C293.73,-97.88 319.41,-69.83 347.78,-56 417.19,-22.17 508.74,-13.6 558.93,-11.54"/>
<polygon fill="midnightblue" stroke="midnightblue" points="559.12,-15.03 568.99,-11.19 558.87,-8.04 559.12,-15.03"/>
</g>
<!-- Node22&#45;&gt;Node20 -->
<g id="edge30" class="edge">
<title>Node22&#45;&gt;Node20</title>
<path fill="none" stroke="midnightblue" d="M292.29,-112.32C309.85,-103.62 337.11,-90.12 357.31,-80.11"/>
<polygon fill="midnightblue" stroke="midnightblue" points="358.91,-83.23 366.31,-75.65 355.8,-76.96 358.91,-83.23"/>
</g>
<!-- Node23 -->
<g id="node23" class="node">
<title>Node23</title>
<g id="a_node23"><a xlink:title=" ">
<polygon fill="white" stroke="#bfbfbf" points="28.78,-56.5 28.78,-75.5 68.78,-75.5 68.78,-56.5 28.78,-56.5"/>
<text text-anchor="middle" x="48.78" y="-63.5" font-family="Helvetica,sans-Serif" font-size="10.00">QFile</text>
</a>
</g>
</g>
<!-- Node22&#45;&gt;Node23 -->
<g id="edge26" class="edge">
<title>Node22&#45;&gt;Node23</title>
<path fill="none" stroke="midnightblue" d="M249.13,-115.79C213.15,-108.35 145.49,-93.85 78.83,-76.13"/>
<polygon fill="midnightblue" stroke="midnightblue" points="79.57,-72.7 69.01,-73.49 77.76,-79.46 79.57,-72.7"/>
</g>
<!-- Node24 -->
<g id="node24" class="node">
<title>Node24</title>
<g id="a_node24"><a xlink:title=" ">
<polygon fill="white" stroke="#bfbfbf" points="87.28,-56.5 87.28,-75.5 138.28,-75.5 138.28,-56.5 87.28,-56.5"/>
<text text-anchor="middle" x="112.78" y="-63.5" font-family="Helvetica,sans-Serif" font-size="10.00">QMutex</text>
</a>
</g>
</g>
<!-- Node22&#45;&gt;Node24 -->
<g id="edge27" class="edge">
<title>Node22&#45;&gt;Node24</title>
<path fill="none" stroke="midnightblue" d="M249.11,-112.44C221.86,-103.36 178.6,-88.94 148.13,-78.78"/>
<polygon fill="midnightblue" stroke="midnightblue" points="148.92,-75.36 138.33,-75.52 146.71,-82 148.92,-75.36"/>
</g>
<!-- Node25 -->
<g id="node25" class="node">
<title>Node25</title>
<g id="a_node25"><a xlink:title=" ">
<polygon fill="white" stroke="#bfbfbf" points="156.78,-56.5 156.78,-75.5 230.78,-75.5 230.78,-56.5 156.78,-56.5"/>
<text text-anchor="middle" x="193.78" y="-63.5" font-family="Helvetica,sans-Serif" font-size="10.00">QTextStream</text>
</a>
</g>
</g>
<!-- Node22&#45;&gt;Node25 -->
<g id="edge29" class="edge">
<title>Node22&#45;&gt;Node25</title>
<path fill="none" stroke="midnightblue" d="M261.77,-112.32C249.25,-103.98 230.1,-91.21 215.31,-81.35"/>
<polygon fill="midnightblue" stroke="midnightblue" points="217.02,-78.29 206.76,-75.65 213.14,-84.11 217.02,-78.29"/>
</g>
<!-- Node26 -->
<g id="node26" class="node">
<title>Node26</title>
<g id="a_node26"><a xlink:title=" ">
<polygon fill="white" stroke="#bfbfbf" points="248.78,-56.5 248.78,-75.5 300.78,-75.5 300.78,-56.5 248.78,-56.5"/>
<text text-anchor="middle" x="274.78" y="-63.5" font-family="Helvetica,sans-Serif" font-size="10.00">sstream</text>
</a>
</g>
</g>
<!-- Node22&#45;&gt;Node26 -->
<g id="edge31" class="edge">
<title>Node22&#45;&gt;Node26</title>
<path fill="none" stroke="midnightblue" d="M274.78,-112.08C274.78,-105.01 274.78,-94.86 274.78,-85.99"/>
<polygon fill="midnightblue" stroke="midnightblue" points="278.28,-85.75 274.78,-75.75 271.28,-85.75 278.28,-85.75"/>
</g>
</g>
</svg>
