<?xml version="1.0" encoding="UTF-8" standalone="no"?>
<!DOCTYPE svg PUBLIC "-//W3C//DTD SVG 1.1//EN"
 "http://www.w3.org/Graphics/SVG/1.1/DTD/svg11.dtd">
<!-- Generated by graphviz version 2.43.0 (0)
 -->
<!-- Title: /home/pawel/antimicrox/src/joybuttonslot.cpp Pages: 1 -->
<svg width="1841pt" height="487pt"
 viewBox="0.00 0.00 1841.00 487.00" xmlns="http://www.w3.org/2000/svg" xmlns:xlink="http://www.w3.org/1999/xlink">
<g id="graph0" class="graph" transform="scale(1 1) rotate(0) translate(4 483)">
<title>/home/pawel/antimicrox/src/joybuttonslot.cpp</title>
<polygon fill="white" stroke="transparent" points="-4,4 -4,-483 1837,-483 1837,4 -4,4"/>
<!-- Node1 -->
<g id="node1" class="node">
<title>Node1</title>
<g id="a_node1"><a xlink:title=" ">
<polygon fill="#bfbfbf" stroke="black" points="1546.5,-448.5 1546.5,-478.5 1665.5,-478.5 1665.5,-448.5 1546.5,-448.5"/>
<text text-anchor="start" x="1554.5" y="-466.5" font-family="Helvetica,sans-Serif" font-size="10.00">/home/pawel/antimicrox</text>
<text text-anchor="middle" x="1606" y="-455.5" font-family="Helvetica,sans-Serif" font-size="10.00">/src/joybuttonslot.cpp</text>
</a>
</g>
</g>
<!-- Node2 -->
<g id="node2" class="node">
<title>Node2</title>
<g id="a_node2"><a xlink:href="joybuttonslot_8h.html" target="_top" xlink:title=" ">
<polygon fill="white" stroke="black" points="165,-56.5 165,-75.5 245,-75.5 245,-56.5 165,-56.5"/>
<text text-anchor="middle" x="205" y="-63.5" font-family="Helvetica,sans-Serif" font-size="10.00">joybuttonslot.h</text>
</a>
</g>
</g>
<!-- Node1&#45;&gt;Node2 -->
<g id="edge1" class="edge">
<title>Node1&#45;&gt;Node2</title>
<path fill="none" stroke="midnightblue" d="M1546.45,-460.89C1274.89,-453.17 167,-417.37 167,-347 167,-347 167,-347 167,-177 167,-142.81 183.6,-105.76 194.86,-84.57"/>
<polygon fill="midnightblue" stroke="midnightblue" points="197.95,-86.22 199.72,-75.77 191.82,-82.83 197.95,-86.22"/>
</g>
<!-- Node9 -->
<g id="node9" class="node">
<title>Node9</title>
<g id="a_node9"><a xlink:href="antkeymapper_8h.html" target="_top" xlink:title=" ">
<polygon fill="white" stroke="black" points="1563,-336.5 1563,-355.5 1649,-355.5 1649,-336.5 1563,-336.5"/>
<text text-anchor="middle" x="1606" y="-343.5" font-family="Helvetica,sans-Serif" font-size="10.00">antkeymapper.h</text>
</a>
</g>
</g>
<!-- Node1&#45;&gt;Node9 -->
<g id="edge8" class="edge">
<title>Node1&#45;&gt;Node9</title>
<path fill="none" stroke="midnightblue" d="M1606,-448.34C1606,-427.62 1606,-389.02 1606,-365.9"/>
<polygon fill="midnightblue" stroke="midnightblue" points="1609.5,-365.67 1606,-355.67 1602.5,-365.67 1609.5,-365.67"/>
</g>
<!-- Node10 -->
<g id="node10" class="node">
<title>Node10</title>
<g id="a_node10"><a xlink:href="event_8h.html" target="_top" xlink:title=" ">
<polygon fill="white" stroke="black" points="682.5,-280.5 682.5,-299.5 729.5,-299.5 729.5,-280.5 682.5,-280.5"/>
<text text-anchor="middle" x="706" y="-287.5" font-family="Helvetica,sans-Serif" font-size="10.00">event.h</text>
</a>
</g>
</g>
<!-- Node1&#45;&gt;Node10 -->
<g id="edge10" class="edge">
<title>Node1&#45;&gt;Node10</title>
<path fill="none" stroke="midnightblue" d="M1546.25,-451.11C1373.09,-418.12 874.74,-323.15 739.95,-297.47"/>
<polygon fill="midnightblue" stroke="midnightblue" points="740.3,-293.97 729.82,-295.54 738.98,-300.85 740.3,-293.97"/>
</g>
<!-- Node30 -->
<g id="node30" class="node">
<title>Node30</title>
<g id="a_node30"><a xlink:href="globalvariables_8h.html" target="_top" xlink:title=" ">
<polygon fill="white" stroke="black" points="1611.5,-56.5 1611.5,-75.5 1700.5,-75.5 1700.5,-56.5 1611.5,-56.5"/>
<text text-anchor="middle" x="1656" y="-63.5" font-family="Helvetica,sans-Serif" font-size="10.00">globalvariables.h</text>
</a>
</g>
</g>
<!-- Node1&#45;&gt;Node30 -->
<g id="edge34" class="edge">
<title>Node1&#45;&gt;Node30</title>
<path fill="none" stroke="midnightblue" d="M1622.11,-448.19C1643.06,-427.93 1677,-388.66 1677,-347 1677,-347 1677,-347 1677,-177 1677,-144.38 1667.98,-107.28 1661.77,-85.57"/>
<polygon fill="midnightblue" stroke="midnightblue" points="1665.04,-84.32 1658.83,-75.73 1658.33,-86.32 1665.04,-84.32"/>
</g>
<!-- Node32 -->
<g id="node32" class="node">
<title>Node32</title>
<g id="a_node32"><a xlink:href="inputdevice_8h.html" target="_top" xlink:title=" ">
<polygon fill="white" stroke="black" points="1453,-392.5 1453,-411.5 1527,-411.5 1527,-392.5 1453,-392.5"/>
<text text-anchor="middle" x="1490" y="-399.5" font-family="Helvetica,sans-Serif" font-size="10.00">inputdevice.h</text>
</a>
</g>
</g>
<!-- Node1&#45;&gt;Node32 -->
<g id="edge37" class="edge">
<title>Node1&#45;&gt;Node32</title>
<path fill="none" stroke="midnightblue" d="M1578.51,-448.4C1559.57,-438.68 1534.56,-425.86 1515.96,-416.31"/>
<polygon fill="midnightblue" stroke="midnightblue" points="1517.37,-413.11 1506.88,-411.66 1514.18,-419.34 1517.37,-413.11"/>
</g>
<!-- Node45 -->
<g id="node45" class="node">
<title>Node45</title>
<g id="a_node45"><a xlink:title=" ">
<polygon fill="white" stroke="#bfbfbf" points="1705.5,-392.5 1705.5,-411.5 1758.5,-411.5 1758.5,-392.5 1705.5,-392.5"/>
<text text-anchor="middle" x="1732" y="-399.5" font-family="Helvetica,sans-Serif" font-size="10.00">QDebug</text>
</a>
</g>
</g>
<!-- Node1&#45;&gt;Node45 -->
<g id="edge60" class="edge">
<title>Node1&#45;&gt;Node45</title>
<path fill="none" stroke="midnightblue" d="M1635.86,-448.4C1656.62,-438.59 1684.1,-425.62 1704.36,-416.05"/>
<polygon fill="midnightblue" stroke="midnightblue" points="1706.12,-419.09 1713.67,-411.66 1703.13,-412.76 1706.12,-419.09"/>
</g>
<!-- Node46 -->
<g id="node46" class="node">
<title>Node46</title>
<g id="a_node46"><a xlink:title=" ">
<polygon fill="white" stroke="#bfbfbf" points="1777,-392.5 1777,-411.5 1833,-411.5 1833,-392.5 1777,-392.5"/>
<text text-anchor="middle" x="1805" y="-399.5" font-family="Helvetica,sans-Serif" font-size="10.00">QFileInfo</text>
</a>
</g>
</g>
<!-- Node1&#45;&gt;Node46 -->
<g id="edge61" class="edge">
<title>Node1&#45;&gt;Node46</title>
<path fill="none" stroke="midnightblue" d="M1652.91,-448.47C1687.79,-438.04 1734.78,-423.99 1767.26,-414.29"/>
<polygon fill="midnightblue" stroke="midnightblue" points="1768.26,-417.64 1776.84,-411.42 1766.26,-410.93 1768.26,-417.64"/>
</g>
<!-- Node3 -->
<g id="node3" class="node">
<title>Node3</title>
<g id="a_node3"><a xlink:title=" ">
<polygon fill="white" stroke="#bfbfbf" points="0,-0.5 0,-19.5 84,-19.5 84,-0.5 0,-0.5"/>
<text text-anchor="middle" x="42" y="-7.5" font-family="Helvetica,sans-Serif" font-size="10.00">QElapsedTimer</text>
</a>
</g>
</g>
<!-- Node2&#45;&gt;Node3 -->
<g id="edge2" class="edge">
<title>Node2&#45;&gt;Node3</title>
<path fill="none" stroke="midnightblue" d="M179.17,-56.44C151.75,-47.36 108.22,-32.94 77.57,-22.78"/>
<polygon fill="midnightblue" stroke="midnightblue" points="78.3,-19.34 67.71,-19.52 76.1,-25.98 78.3,-19.34"/>
</g>
<!-- Node4 -->
<g id="node4" class="node">
<title>Node4</title>
<g id="a_node4"><a xlink:title=" ">
<polygon fill="white" stroke="#bfbfbf" points="1436.5,-0.5 1436.5,-19.5 1489.5,-19.5 1489.5,-0.5 1436.5,-0.5"/>
<text text-anchor="middle" x="1463" y="-7.5" font-family="Helvetica,sans-Serif" font-size="10.00">QObject</text>
</a>
</g>
</g>
<!-- Node2&#45;&gt;Node4 -->
<g id="edge3" class="edge">
<title>Node2&#45;&gt;Node4</title>
<path fill="none" stroke="midnightblue" d="M245.08,-63.28C435.13,-55.12 1243.9,-20.4 1426.34,-12.57"/>
<polygon fill="midnightblue" stroke="midnightblue" points="1426.64,-16.06 1436.48,-12.14 1426.34,-9.07 1426.64,-16.06"/>
</g>
<!-- Node5 -->
<g id="node5" class="node">
<title>Node5</title>
<g id="a_node5"><a xlink:title=" ">
<polygon fill="white" stroke="#bfbfbf" points="102.5,-0.5 102.5,-19.5 157.5,-19.5 157.5,-0.5 102.5,-0.5"/>
<text text-anchor="middle" x="130" y="-7.5" font-family="Helvetica,sans-Serif" font-size="10.00">QPointer</text>
</a>
</g>
</g>
<!-- Node2&#45;&gt;Node5 -->
<g id="edge4" class="edge">
<title>Node2&#45;&gt;Node5</title>
<path fill="none" stroke="midnightblue" d="M192.95,-56.32C181.54,-48.11 164.17,-35.6 150.57,-25.81"/>
<polygon fill="midnightblue" stroke="midnightblue" points="152.43,-22.84 142.27,-19.83 148.34,-28.52 152.43,-22.84"/>
</g>
<!-- Node6 -->
<g id="node6" class="node">
<title>Node6</title>
<g id="a_node6"><a xlink:title=" ">
<polygon fill="white" stroke="#bfbfbf" points="176,-0.5 176,-19.5 222,-19.5 222,-0.5 176,-0.5"/>
<text text-anchor="middle" x="199" y="-7.5" font-family="Helvetica,sans-Serif" font-size="10.00">QTime</text>
</a>
</g>
</g>
<!-- Node2&#45;&gt;Node6 -->
<g id="edge5" class="edge">
<title>Node2&#45;&gt;Node6</title>
<path fill="none" stroke="midnightblue" d="M204.01,-56.08C203.21,-48.93 202.07,-38.64 201.08,-29.69"/>
<polygon fill="midnightblue" stroke="midnightblue" points="204.56,-29.3 199.97,-19.75 197.6,-30.08 204.56,-29.3"/>
</g>
<!-- Node7 -->
<g id="node7" class="node">
<title>Node7</title>
<g id="a_node7"><a xlink:title=" ">
<polygon fill="white" stroke="#bfbfbf" points="240,-0.5 240,-19.5 294,-19.5 294,-0.5 240,-0.5"/>
<text text-anchor="middle" x="267" y="-7.5" font-family="Helvetica,sans-Serif" font-size="10.00">QVariant</text>
</a>
</g>
</g>
<!-- Node2&#45;&gt;Node7 -->
<g id="edge6" class="edge">
<title>Node2&#45;&gt;Node7</title>
<path fill="none" stroke="midnightblue" d="M214.96,-56.32C224.13,-48.34 237.94,-36.31 249.03,-26.65"/>
<polygon fill="midnightblue" stroke="midnightblue" points="251.62,-29.04 256.86,-19.83 247.02,-23.76 251.62,-29.04"/>
</g>
<!-- Node8 -->
<g id="node8" class="node">
<title>Node8</title>
<g id="a_node8"><a xlink:title=" ">
<polygon fill="white" stroke="#bfbfbf" points="312,-0.5 312,-19.5 434,-19.5 434,-0.5 312,-0.5"/>
<text text-anchor="middle" x="373" y="-7.5" font-family="Helvetica,sans-Serif" font-size="10.00">QtWidgets/QApplication</text>
</a>
</g>
</g>
<!-- Node2&#45;&gt;Node8 -->
<g id="edge7" class="edge">
<title>Node2&#45;&gt;Node8</title>
<path fill="none" stroke="midnightblue" d="M231.62,-56.44C260.01,-47.32 305.14,-32.81 336.75,-22.65"/>
<polygon fill="midnightblue" stroke="midnightblue" points="338.06,-25.91 346.5,-19.52 335.91,-19.24 338.06,-25.91"/>
</g>
<!-- Node9&#45;&gt;Node4 -->
<g id="edge9" class="edge">
<title>Node9&#45;&gt;Node4</title>
<path fill="none" stroke="midnightblue" d="M1606.11,-336.35C1606.34,-318.9 1606.83,-278.19 1607,-244 1607.04,-235.11 1608.7,-232.73 1607,-224 1591.61,-144.93 1591.53,-117.07 1539,-56 1526.99,-42.04 1509.53,-31.28 1494.37,-23.78"/>
<polygon fill="midnightblue" stroke="midnightblue" points="1495.84,-20.6 1485.3,-19.54 1492.87,-26.94 1495.84,-20.6"/>
</g>
<!-- Node10&#45;&gt;Node2 -->
<g id="edge32" class="edge">
<title>Node10&#45;&gt;Node2</title>
<path fill="none" stroke="midnightblue" d="M682.45,-287.51C594.68,-281.47 288.42,-255.78 224,-188 197.84,-160.48 198.93,-112.47 201.98,-85.96"/>
<polygon fill="midnightblue" stroke="midnightblue" points="205.49,-86.11 203.39,-75.73 198.56,-85.16 205.49,-86.11"/>
</g>
<!-- Node11 -->
<g id="node11" class="node">
<title>Node11</title>
<g id="a_node11"><a xlink:href="common_8h.html" target="_top" xlink:title=" ">
<polygon fill="white" stroke="black" points="556,-224.5 556,-243.5 618,-243.5 618,-224.5 556,-224.5"/>
<text text-anchor="middle" x="587" y="-231.5" font-family="Helvetica,sans-Serif" font-size="10.00">common.h</text>
</a>
</g>
</g>
<!-- Node10&#45;&gt;Node11 -->
<g id="edge11" class="edge">
<title>Node10&#45;&gt;Node11</title>
<path fill="none" stroke="midnightblue" d="M687.14,-280.44C667.73,-271.64 637.27,-257.81 615.04,-247.72"/>
<polygon fill="midnightblue" stroke="midnightblue" points="616.32,-244.46 605.77,-243.52 613.43,-250.84 616.32,-244.46"/>
</g>
<!-- Node29 -->
<g id="node29" class="node">
<title>Node29</title>
<g id="a_node29"><a xlink:href="springmousemoveinfo_8h.html" target="_top" xlink:title=" ">
<polygon fill="white" stroke="black" points="814.5,-56.5 814.5,-75.5 933.5,-75.5 933.5,-56.5 814.5,-56.5"/>
<text text-anchor="middle" x="874" y="-63.5" font-family="Helvetica,sans-Serif" font-size="10.00">springmousemoveinfo.h</text>
</a>
</g>
</g>
<!-- Node10&#45;&gt;Node29 -->
<g id="edge33" class="edge">
<title>Node10&#45;&gt;Node29</title>
<path fill="none" stroke="midnightblue" d="M712.59,-280.3C737.67,-247.15 827.52,-128.41 861.16,-83.96"/>
<polygon fill="midnightblue" stroke="midnightblue" points="864.03,-85.97 867.28,-75.88 858.45,-81.75 864.03,-85.97"/>
</g>
<!-- Node12 -->
<g id="node12" class="node">
<title>Node12</title>
<g id="a_node12"><a xlink:href="antimicrosettings_8h.html" target="_top" xlink:title=" ">
<polygon fill="white" stroke="black" points="537.5,-168.5 537.5,-187.5 636.5,-187.5 636.5,-168.5 537.5,-168.5"/>
<text text-anchor="middle" x="587" y="-175.5" font-family="Helvetica,sans-Serif" font-size="10.00">antimicrosettings.h</text>
</a>
</g>
</g>
<!-- Node11&#45;&gt;Node12 -->
<g id="edge12" class="edge">
<title>Node11&#45;&gt;Node12</title>
<path fill="none" stroke="midnightblue" d="M587,-224.08C587,-217.01 587,-206.86 587,-197.99"/>
<polygon fill="midnightblue" stroke="midnightblue" points="590.5,-197.75 587,-187.75 583.5,-197.75 590.5,-197.75"/>
</g>
<!-- Node19 -->
<g id="node19" class="node">
<title>Node19</title>
<g id="a_node19"><a xlink:title=" ">
<polygon fill="white" stroke="#bfbfbf" points="742,-0.5 742,-19.5 796,-19.5 796,-0.5 742,-0.5"/>
<text text-anchor="middle" x="769" y="-7.5" font-family="Helvetica,sans-Serif" font-size="10.00">QThread</text>
</a>
</g>
</g>
<!-- Node11&#45;&gt;Node19 -->
<g id="edge29" class="edge">
<title>Node11&#45;&gt;Node19</title>
<path fill="none" stroke="midnightblue" d="M618.19,-231.02C647.74,-227.36 690.93,-217.02 714,-188 716.3,-185.11 727.5,-59.37 729,-56 733.92,-44.98 742.54,-34.74 750.53,-26.82"/>
<polygon fill="midnightblue" stroke="midnightblue" points="753.2,-29.11 758.14,-19.74 748.43,-23.99 753.2,-29.11"/>
</g>
<!-- Node22 -->
<g id="node22" class="node">
<title>Node22</title>
<g id="a_node22"><a xlink:title=" ">
<polygon fill="white" stroke="#bfbfbf" points="654.5,-168.5 654.5,-187.5 705.5,-187.5 705.5,-168.5 654.5,-168.5"/>
<text text-anchor="middle" x="680" y="-175.5" font-family="Helvetica,sans-Serif" font-size="10.00">config.h</text>
</a>
</g>
</g>
<!-- Node11&#45;&gt;Node22 -->
<g id="edge23" class="edge">
<title>Node11&#45;&gt;Node22</title>
<path fill="none" stroke="midnightblue" d="M601.94,-224.32C616.59,-215.82 639.13,-202.73 656.24,-192.8"/>
<polygon fill="midnightblue" stroke="midnightblue" points="658.2,-195.7 665.1,-187.65 654.69,-189.65 658.2,-195.7"/>
</g>
<!-- Node23 -->
<g id="node23" class="node">
<title>Node23</title>
<g id="a_node23"><a xlink:href="mousehelper_8h.html" target="_top" xlink:title=" ">
<polygon fill="white" stroke="black" points="732,-112.5 732,-131.5 812,-131.5 812,-112.5 732,-112.5"/>
<text text-anchor="middle" x="772" y="-119.5" font-family="Helvetica,sans-Serif" font-size="10.00">mousehelper.h</text>
</a>
</g>
</g>
<!-- Node11&#45;&gt;Node23 -->
<g id="edge24" class="edge">
<title>Node11&#45;&gt;Node23</title>
<path fill="none" stroke="midnightblue" d="M618.29,-232.42C654.02,-230.1 712.15,-221.05 748,-188 761.11,-175.91 767.08,-156.03 769.79,-141.44"/>
<polygon fill="midnightblue" stroke="midnightblue" points="773.26,-141.93 771.29,-131.52 766.33,-140.89 773.26,-141.93"/>
</g>
<!-- Node25 -->
<g id="node25" class="node">
<title>Node25</title>
<g id="a_node25"><a xlink:title=" ">
<polygon fill="white" stroke="#bfbfbf" points="233.5,-168.5 233.5,-187.5 270.5,-187.5 270.5,-168.5 233.5,-168.5"/>
<text text-anchor="middle" x="252" y="-175.5" font-family="Helvetica,sans-Serif" font-size="10.00">QDir</text>
</a>
</g>
</g>
<!-- Node11&#45;&gt;Node25 -->
<g id="edge27" class="edge">
<title>Node11&#45;&gt;Node25</title>
<path fill="none" stroke="midnightblue" d="M555.62,-230.26C501.23,-225.12 385.89,-212.48 280.59,-188.05"/>
<polygon fill="midnightblue" stroke="midnightblue" points="281.3,-184.62 270.76,-185.72 279.69,-191.43 281.3,-184.62"/>
</g>
<!-- Node26 -->
<g id="node26" class="node">
<title>Node26</title>
<g id="a_node26"><a xlink:title=" ">
<polygon fill="white" stroke="#bfbfbf" points="288.5,-168.5 288.5,-187.5 331.5,-187.5 331.5,-168.5 288.5,-168.5"/>
<text text-anchor="middle" x="310" y="-175.5" font-family="Helvetica,sans-Serif" font-size="10.00">QIcon</text>
</a>
</g>
</g>
<!-- Node11&#45;&gt;Node26 -->
<g id="edge28" class="edge">
<title>Node11&#45;&gt;Node26</title>
<path fill="none" stroke="midnightblue" d="M555.96,-228.48C510.72,-221.65 423.87,-207.61 341.33,-188.12"/>
<polygon fill="midnightblue" stroke="midnightblue" points="342.09,-184.7 331.55,-185.78 340.46,-191.51 342.09,-184.7"/>
</g>
<!-- Node27 -->
<g id="node27" class="node">
<title>Node27</title>
<g id="a_node27"><a xlink:title=" ">
<polygon fill="white" stroke="#bfbfbf" points="349.5,-168.5 349.5,-187.5 416.5,-187.5 416.5,-168.5 349.5,-168.5"/>
<text text-anchor="middle" x="383" y="-175.5" font-family="Helvetica,sans-Serif" font-size="10.00">QTranslator</text>
</a>
</g>
</g>
<!-- Node11&#45;&gt;Node27 -->
<g id="edge30" class="edge">
<title>Node11&#45;&gt;Node27</title>
<path fill="none" stroke="midnightblue" d="M555.57,-224.68C520.59,-215.42 463.87,-200.41 425.08,-190.14"/>
<polygon fill="midnightblue" stroke="midnightblue" points="425.7,-186.68 415.14,-187.51 423.91,-193.45 425.7,-186.68"/>
</g>
<!-- Node28 -->
<g id="node28" class="node">
<title>Node28</title>
<g id="a_node28"><a xlink:title=" ">
<polygon fill="white" stroke="#bfbfbf" points="434.5,-168.5 434.5,-187.5 519.5,-187.5 519.5,-168.5 434.5,-168.5"/>
<text text-anchor="middle" x="477" y="-175.5" font-family="Helvetica,sans-Serif" font-size="10.00">QWaitCondition</text>
</a>
</g>
</g>
<!-- Node11&#45;&gt;Node28 -->
<g id="edge31" class="edge">
<title>Node11&#45;&gt;Node28</title>
<path fill="none" stroke="midnightblue" d="M569.33,-224.32C551.61,-215.62 524.1,-202.12 503.71,-192.11"/>
<polygon fill="midnightblue" stroke="midnightblue" points="505.15,-188.92 494.63,-187.65 502.06,-195.2 505.15,-188.92"/>
</g>
<!-- Node13 -->
<g id="node13" class="node">
<title>Node13</title>
<g id="a_node13"><a xlink:href="commandlineutility_8h.html" target="_top" xlink:title=" ">
<polygon fill="white" stroke="black" points="454.5,-112.5 454.5,-131.5 559.5,-131.5 559.5,-112.5 454.5,-112.5"/>
<text text-anchor="middle" x="507" y="-119.5" font-family="Helvetica,sans-Serif" font-size="10.00">commandlineutility.h</text>
</a>
</g>
</g>
<!-- Node12&#45;&gt;Node13 -->
<g id="edge13" class="edge">
<title>Node12&#45;&gt;Node13</title>
<path fill="none" stroke="midnightblue" d="M574.15,-168.32C561.78,-159.98 542.87,-147.21 528.26,-137.35"/>
<polygon fill="midnightblue" stroke="midnightblue" points="530.07,-134.35 519.82,-131.65 526.15,-140.15 530.07,-134.35"/>
</g>
<!-- Node21 -->
<g id="node21" class="node">
<title>Node21</title>
<g id="a_node21"><a xlink:title=" ">
<polygon fill="white" stroke="#bfbfbf" points="578,-112.5 578,-131.5 638,-131.5 638,-112.5 578,-112.5"/>
<text text-anchor="middle" x="608" y="-119.5" font-family="Helvetica,sans-Serif" font-size="10.00">QSettings</text>
</a>
</g>
</g>
<!-- Node12&#45;&gt;Node21 -->
<g id="edge22" class="edge">
<title>Node12&#45;&gt;Node21</title>
<path fill="none" stroke="midnightblue" d="M590.47,-168.08C593.31,-160.77 597.43,-150.18 600.96,-141.1"/>
<polygon fill="midnightblue" stroke="midnightblue" points="604.23,-142.34 604.6,-131.75 597.71,-139.8 604.23,-142.34"/>
</g>
<!-- Node14 -->
<g id="node14" class="node">
<title>Node14</title>
<g id="a_node14"><a xlink:title=" ">
<polygon fill="white" stroke="#bfbfbf" points="471,-56.5 471,-75.5 543,-75.5 543,-56.5 471,-56.5"/>
<text text-anchor="middle" x="507" y="-63.5" font-family="Helvetica,sans-Serif" font-size="10.00">QApplication</text>
</a>
</g>
</g>
<!-- Node13&#45;&gt;Node14 -->
<g id="edge14" class="edge">
<title>Node13&#45;&gt;Node14</title>
<path fill="none" stroke="midnightblue" d="M507,-112.08C507,-105.01 507,-94.86 507,-85.99"/>
<polygon fill="midnightblue" stroke="midnightblue" points="510.5,-85.75 507,-75.75 503.5,-85.75 510.5,-85.75"/>
</g>
<!-- Node15 -->
<g id="node15" class="node">
<title>Node15</title>
<g id="a_node15"><a xlink:href="logger_8h.html" target="_top" xlink:title=" ">
<polygon fill="white" stroke="black" points="601.5,-56.5 601.5,-75.5 652.5,-75.5 652.5,-56.5 601.5,-56.5"/>
<text text-anchor="middle" x="627" y="-63.5" font-family="Helvetica,sans-Serif" font-size="10.00">logger.h</text>
</a>
</g>
</g>
<!-- Node13&#45;&gt;Node15 -->
<g id="edge15" class="edge">
<title>Node13&#45;&gt;Node15</title>
<path fill="none" stroke="midnightblue" d="M526.01,-112.44C545.59,-103.64 576.31,-89.81 598.73,-79.72"/>
<polygon fill="midnightblue" stroke="midnightblue" points="600.39,-82.81 608.07,-75.52 597.52,-76.43 600.39,-82.81"/>
</g>
<!-- Node15&#45;&gt;Node4 -->
<g id="edge18" class="edge">
<title>Node15&#45;&gt;Node4</title>
<path fill="none" stroke="midnightblue" d="M652.61,-61.68C667.81,-59.8 687.48,-57.53 705,-56 981.75,-31.84 1316.51,-16.96 1426.24,-12.46"/>
<polygon fill="midnightblue" stroke="midnightblue" points="1426.59,-15.95 1436.44,-12.04 1426.31,-8.95 1426.59,-15.95"/>
</g>
<!-- Node16 -->
<g id="node16" class="node">
<title>Node16</title>
<g id="a_node16"><a xlink:title=" ">
<polygon fill="white" stroke="#bfbfbf" points="614,-0.5 614,-19.5 654,-19.5 654,-0.5 614,-0.5"/>
<text text-anchor="middle" x="634" y="-7.5" font-family="Helvetica,sans-Serif" font-size="10.00">QFile</text>
</a>
</g>
</g>
<!-- Node15&#45;&gt;Node16 -->
<g id="edge16" class="edge">
<title>Node15&#45;&gt;Node16</title>
<path fill="none" stroke="midnightblue" d="M628.16,-56.08C629.08,-48.93 630.42,-38.64 631.58,-29.69"/>
<polygon fill="midnightblue" stroke="midnightblue" points="635.05,-30.12 632.87,-19.75 628.11,-29.22 635.05,-30.12"/>
</g>
<!-- Node17 -->
<g id="node17" class="node">
<title>Node17</title>
<g id="a_node17"><a xlink:title=" ">
<polygon fill="white" stroke="#bfbfbf" points="672.5,-0.5 672.5,-19.5 723.5,-19.5 723.5,-0.5 672.5,-0.5"/>
<text text-anchor="middle" x="698" y="-7.5" font-family="Helvetica,sans-Serif" font-size="10.00">QMutex</text>
</a>
</g>
</g>
<!-- Node15&#45;&gt;Node17 -->
<g id="edge17" class="edge">
<title>Node15&#45;&gt;Node17</title>
<path fill="none" stroke="midnightblue" d="M638.41,-56.32C649.11,-48.18 665.34,-35.84 678.16,-26.09"/>
<polygon fill="midnightblue" stroke="midnightblue" points="680.54,-28.67 686.39,-19.83 676.31,-23.1 680.54,-28.67"/>
</g>
<!-- Node18 -->
<g id="node18" class="node">
<title>Node18</title>
<g id="a_node18"><a xlink:title=" ">
<polygon fill="white" stroke="#bfbfbf" points="452,-0.5 452,-19.5 526,-19.5 526,-0.5 452,-0.5"/>
<text text-anchor="middle" x="489" y="-7.5" font-family="Helvetica,sans-Serif" font-size="10.00">QTextStream</text>
</a>
</g>
</g>
<!-- Node15&#45;&gt;Node18 -->
<g id="edge19" class="edge">
<title>Node15&#45;&gt;Node18</title>
<path fill="none" stroke="midnightblue" d="M605.13,-56.44C582.22,-47.48 546.02,-33.31 520.13,-23.18"/>
<polygon fill="midnightblue" stroke="midnightblue" points="521.35,-19.9 510.76,-19.52 518.8,-26.42 521.35,-19.9"/>
</g>
<!-- Node15&#45;&gt;Node19 -->
<g id="edge20" class="edge">
<title>Node15&#45;&gt;Node19</title>
<path fill="none" stroke="midnightblue" d="M649.5,-56.44C673.08,-47.48 710.32,-33.31 736.96,-23.18"/>
<polygon fill="midnightblue" stroke="midnightblue" points="738.5,-26.34 746.6,-19.52 736.01,-19.8 738.5,-26.34"/>
</g>
<!-- Node20 -->
<g id="node20" class="node">
<title>Node20</title>
<g id="a_node20"><a xlink:title=" ">
<polygon fill="white" stroke="#bfbfbf" points="544,-0.5 544,-19.5 596,-19.5 596,-0.5 544,-0.5"/>
<text text-anchor="middle" x="570" y="-7.5" font-family="Helvetica,sans-Serif" font-size="10.00">sstream</text>
</a>
</g>
</g>
<!-- Node15&#45;&gt;Node20 -->
<g id="edge21" class="edge">
<title>Node15&#45;&gt;Node20</title>
<path fill="none" stroke="midnightblue" d="M617.84,-56.32C609.5,-48.42 596.97,-36.55 586.82,-26.94"/>
<polygon fill="midnightblue" stroke="midnightblue" points="588.99,-24.17 579.32,-19.83 584.18,-29.25 588.99,-24.17"/>
</g>
<!-- Node23&#45;&gt;Node4 -->
<g id="edge25" class="edge">
<title>Node23&#45;&gt;Node4</title>
<path fill="none" stroke="midnightblue" d="M761.39,-112.3C746.27,-98.9 722.04,-72.98 738,-56 761.8,-30.67 1282.39,-15.59 1426.38,-11.9"/>
<polygon fill="midnightblue" stroke="midnightblue" points="1426.56,-15.39 1436.47,-11.64 1426.38,-8.39 1426.56,-15.39"/>
</g>
<!-- Node24 -->
<g id="node24" class="node">
<title>Node24</title>
<g id="a_node24"><a xlink:title=" ">
<polygon fill="white" stroke="#bfbfbf" points="747.5,-56.5 747.5,-75.5 796.5,-75.5 796.5,-56.5 747.5,-56.5"/>
<text text-anchor="middle" x="772" y="-63.5" font-family="Helvetica,sans-Serif" font-size="10.00">QTimer</text>
</a>
</g>
</g>
<!-- Node23&#45;&gt;Node24 -->
<g id="edge26" class="edge">
<title>Node23&#45;&gt;Node24</title>
<path fill="none" stroke="midnightblue" d="M772,-112.08C772,-105.01 772,-94.86 772,-85.99"/>
<polygon fill="midnightblue" stroke="midnightblue" points="775.5,-85.75 772,-75.75 768.5,-85.75 775.5,-85.75"/>
</g>
<!-- Node30&#45;&gt;Node4 -->
<g id="edge36" class="edge">
<title>Node30&#45;&gt;Node4</title>
<path fill="none" stroke="midnightblue" d="M1625.42,-56.44C1591.22,-46.87 1535.86,-31.39 1499.45,-21.2"/>
<polygon fill="midnightblue" stroke="midnightblue" points="1500.28,-17.8 1489.71,-18.47 1498.4,-24.54 1500.28,-17.8"/>
</g>
<!-- Node31 -->
<g id="node31" class="node">
<title>Node31</title>
<g id="a_node31"><a xlink:title=" ">
<polygon fill="white" stroke="#bfbfbf" points="1672,-0.5 1672,-19.5 1712,-19.5 1712,-0.5 1672,-0.5"/>
<text text-anchor="middle" x="1692" y="-7.5" font-family="Helvetica,sans-Serif" font-size="10.00">QList</text>
</a>
</g>
</g>
<!-- Node30&#45;&gt;Node31 -->
<g id="edge35" class="edge">
<title>Node30&#45;&gt;Node31</title>
<path fill="none" stroke="midnightblue" d="M1661.94,-56.08C1666.98,-48.53 1674.34,-37.49 1680.51,-28.23"/>
<polygon fill="midnightblue" stroke="midnightblue" points="1683.53,-30.01 1686.17,-19.75 1677.71,-26.13 1683.53,-30.01"/>
</g>
<!-- Node33 -->
<g id="node33" class="node">
<title>Node33</title>
<g id="a_node33"><a xlink:href="setjoystick_8h.html" target="_top" xlink:title=" ">
<polygon fill="white" stroke="black" points="1345.5,-336.5 1345.5,-355.5 1416.5,-355.5 1416.5,-336.5 1345.5,-336.5"/>
<text text-anchor="middle" x="1381" y="-343.5" font-family="Helvetica,sans-Serif" font-size="10.00">setjoystick.h</text>
</a>
</g>
</g>
<!-- Node32&#45;&gt;Node33 -->
<g id="edge38" class="edge">
<title>Node32&#45;&gt;Node33</title>
<path fill="none" stroke="midnightblue" d="M1472.49,-392.32C1454.93,-383.62 1427.67,-370.12 1407.47,-360.11"/>
<polygon fill="midnightblue" stroke="midnightblue" points="1408.98,-356.96 1398.47,-355.65 1405.88,-363.23 1408.98,-356.96"/>
</g>
<!-- Node44 -->
<g id="node44" class="node">
<title>Node44</title>
<g id="a_node44"><a xlink:title=" ">
<polygon fill="white" stroke="#bfbfbf" points="1435,-336.5 1435,-355.5 1545,-355.5 1545,-336.5 1435,-336.5"/>
<text text-anchor="middle" x="1490" y="-343.5" font-family="Helvetica,sans-Serif" font-size="10.00">SDL2/SDL_joystick.h</text>
</a>
</g>
</g>
<!-- Node32&#45;&gt;Node44 -->
<g id="edge59" class="edge">
<title>Node32&#45;&gt;Node44</title>
<path fill="none" stroke="midnightblue" d="M1490,-392.08C1490,-385.01 1490,-374.86 1490,-365.99"/>
<polygon fill="midnightblue" stroke="midnightblue" points="1493.5,-365.75 1490,-355.75 1486.5,-365.75 1493.5,-365.75"/>
</g>
<!-- Node34 -->
<g id="node34" class="node">
<title>Node34</title>
<g id="a_node34"><a xlink:href="joyaxis_8h.html" target="_top" xlink:title=" ">
<polygon fill="white" stroke="black" points="1376,-280.5 1376,-299.5 1432,-299.5 1432,-280.5 1376,-280.5"/>
<text text-anchor="middle" x="1404" y="-287.5" font-family="Helvetica,sans-Serif" font-size="10.00">joyaxis.h</text>
</a>
</g>
</g>
<!-- Node33&#45;&gt;Node34 -->
<g id="edge39" class="edge">
<title>Node33&#45;&gt;Node34</title>
<path fill="none" stroke="midnightblue" d="M1384.8,-336.08C1387.91,-328.77 1392.42,-318.18 1396.29,-309.1"/>
<polygon fill="midnightblue" stroke="midnightblue" points="1399.57,-310.32 1400.27,-299.75 1393.13,-307.58 1399.57,-310.32"/>
</g>
<!-- Node43 -->
<g id="node43" class="node">
<title>Node43</title>
<g id="a_node43"><a xlink:href="setjoystickxml_8h.html" target="_top" xlink:title=" ">
<polygon fill="white" stroke="black" points="1492,-224.5 1492,-243.5 1598,-243.5 1598,-224.5 1492,-224.5"/>
<text text-anchor="middle" x="1545" y="-231.5" font-family="Helvetica,sans-Serif" font-size="10.00">xml/setjoystickxml.h</text>
</a>
</g>
</g>
<!-- Node33&#45;&gt;Node43 -->
<g id="edge57" class="edge">
<title>Node33&#45;&gt;Node43</title>
<path fill="none" stroke="midnightblue" d="M1393.87,-336.37C1422.01,-317.49 1489.26,-272.38 1523.77,-249.24"/>
<polygon fill="midnightblue" stroke="midnightblue" points="1525.84,-252.07 1532.19,-243.59 1521.94,-246.26 1525.84,-252.07"/>
</g>
<!-- Node34&#45;&gt;Node4 -->
<g id="edge41" class="edge">
<title>Node34&#45;&gt;Node4</title>
<path fill="none" stroke="midnightblue" d="M1408.76,-280.43C1424.09,-252.26 1472.12,-159.57 1488,-76 1489.66,-67.27 1490.23,-64.6 1488,-56 1485.45,-46.18 1480.25,-36.21 1475.24,-28.17"/>
<polygon fill="midnightblue" stroke="midnightblue" points="1478.08,-26.11 1469.63,-19.73 1472.25,-29.99 1478.08,-26.11"/>
</g>
<!-- Node34&#45;&gt;Node31 -->
<g id="edge40" class="edge">
<title>Node34&#45;&gt;Node31</title>
<path fill="none" stroke="midnightblue" d="M1413.94,-280.22C1428.64,-267.37 1457.23,-242.92 1483,-224 1580.09,-152.74 1652.63,-181.89 1710,-76 1718.08,-61.09 1711.25,-42.24 1703.8,-28.69"/>
<polygon fill="midnightblue" stroke="midnightblue" points="1706.65,-26.63 1698.47,-19.88 1700.66,-30.25 1706.65,-26.63"/>
</g>
<!-- Node35 -->
<g id="node35" class="node">
<title>Node35</title>
<g id="a_node35"><a xlink:href="joyaxisbutton_8h.html" target="_top" xlink:title=" ">
<polygon fill="white" stroke="black" points="1003.5,-224.5 1003.5,-243.5 1152.5,-243.5 1152.5,-224.5 1003.5,-224.5"/>
<text text-anchor="middle" x="1078" y="-231.5" font-family="Helvetica,sans-Serif" font-size="10.00">joybuttontypes/joyaxisbutton.h</text>
</a>
</g>
</g>
<!-- Node34&#45;&gt;Node35 -->
<g id="edge42" class="edge">
<title>Node34&#45;&gt;Node35</title>
<path fill="none" stroke="midnightblue" d="M1375.92,-284.35C1323.67,-275.69 1210.36,-256.93 1139.52,-245.19"/>
<polygon fill="midnightblue" stroke="midnightblue" points="1139.83,-241.69 1129.39,-243.51 1138.69,-248.6 1139.83,-241.69"/>
</g>
<!-- Node35&#45;&gt;Node15 -->
<g id="edge56" class="edge">
<title>Node35&#45;&gt;Node15</title>
<path fill="none" stroke="midnightblue" d="M1030.35,-224.46C960.58,-210.87 827.54,-180.73 723,-132 693.86,-118.42 663.72,-96.49 645.16,-81.91"/>
<polygon fill="midnightblue" stroke="midnightblue" points="647.27,-79.11 637.27,-75.6 642.89,-84.57 647.27,-79.11"/>
</g>
<!-- Node36 -->
<g id="node36" class="node">
<title>Node36</title>
<g id="a_node36"><a xlink:href="joygradientbutton_8h.html" target="_top" xlink:title=" ">
<polygon fill="white" stroke="black" points="995.5,-168.5 995.5,-187.5 1160.5,-187.5 1160.5,-168.5 995.5,-168.5"/>
<text text-anchor="middle" x="1078" y="-175.5" font-family="Helvetica,sans-Serif" font-size="10.00">joybuttontypes/joygradientbutton.h</text>
</a>
</g>
</g>
<!-- Node35&#45;&gt;Node36 -->
<g id="edge43" class="edge">
<title>Node35&#45;&gt;Node36</title>
<path fill="none" stroke="midnightblue" d="M1078,-224.08C1078,-217.01 1078,-206.86 1078,-197.99"/>
<polygon fill="midnightblue" stroke="midnightblue" points="1081.5,-197.75 1078,-187.75 1074.5,-197.75 1081.5,-197.75"/>
</g>
<!-- Node37 -->
<g id="node37" class="node">
<title>Node37</title>
<g id="a_node37"><a xlink:href="joybutton_8h.html" target="_top" xlink:title=" ">
<polygon fill="white" stroke="black" points="1045.5,-112.5 1045.5,-131.5 1110.5,-131.5 1110.5,-112.5 1045.5,-112.5"/>
<text text-anchor="middle" x="1078" y="-119.5" font-family="Helvetica,sans-Serif" font-size="10.00">joybutton.h</text>
</a>
</g>
</g>
<!-- Node36&#45;&gt;Node37 -->
<g id="edge44" class="edge">
<title>Node36&#45;&gt;Node37</title>
<path fill="none" stroke="midnightblue" d="M1078,-168.08C1078,-161.01 1078,-150.86 1078,-141.99"/>
<polygon fill="midnightblue" stroke="midnightblue" points="1081.5,-141.75 1078,-131.75 1074.5,-141.75 1081.5,-141.75"/>
</g>
<!-- Node37&#45;&gt;Node2 -->
<g id="edge48" class="edge">
<title>Node37&#45;&gt;Node2</title>
<path fill="none" stroke="midnightblue" d="M1045.37,-118.98C913.01,-110.79 415.56,-80.02 255.18,-70.1"/>
<polygon fill="midnightblue" stroke="midnightblue" points="255.3,-66.6 245.11,-69.48 254.87,-73.59 255.3,-66.6"/>
</g>
<!-- Node37&#45;&gt;Node19 -->
<g id="edge54" class="edge">
<title>Node37&#45;&gt;Node19</title>
<path fill="none" stroke="midnightblue" d="M1059.14,-112.4C1039.72,-103.49 1008.61,-89.05 982,-76 964.51,-67.42 961.21,-62.93 943,-56 897.08,-38.53 841.82,-25.53 806.09,-18.11"/>
<polygon fill="midnightblue" stroke="midnightblue" points="806.6,-14.64 796.1,-16.07 805.2,-21.5 806.6,-14.64"/>
</g>
<!-- Node37&#45;&gt;Node24 -->
<g id="edge55" class="edge">
<title>Node37&#45;&gt;Node24</title>
<path fill="none" stroke="midnightblue" d="M1045.44,-116.74C995.85,-110.01 898.29,-95.83 806.78,-76.22"/>
<polygon fill="midnightblue" stroke="midnightblue" points="807.31,-72.76 796.8,-74.06 805.83,-79.6 807.31,-72.76"/>
</g>
<!-- Node37&#45;&gt;Node29 -->
<g id="edge49" class="edge">
<title>Node37&#45;&gt;Node29</title>
<path fill="none" stroke="midnightblue" d="M1045.68,-112.44C1010.61,-103.16 954.5,-88.31 916.04,-78.13"/>
<polygon fill="midnightblue" stroke="midnightblue" points="916.74,-74.69 906.17,-75.52 914.94,-81.46 916.74,-74.69"/>
</g>
<!-- Node37&#45;&gt;Node30 -->
<g id="edge45" class="edge">
<title>Node37&#45;&gt;Node30</title>
<path fill="none" stroke="midnightblue" d="M1110.73,-117.94C1205.78,-109.06 1482.53,-83.21 1601.07,-72.13"/>
<polygon fill="midnightblue" stroke="midnightblue" points="1601.73,-75.59 1611.36,-71.17 1601.08,-68.62 1601.73,-75.59"/>
</g>
<!-- Node38 -->
<g id="node38" class="node">
<title>Node38</title>
<g id="a_node38"><a xlink:href="joybuttonmousehelper_8h.html" target="_top" xlink:title=" ">
<polygon fill="white" stroke="black" points="1359,-56.5 1359,-75.5 1479,-75.5 1479,-56.5 1359,-56.5"/>
<text text-anchor="middle" x="1419" y="-63.5" font-family="Helvetica,sans-Serif" font-size="10.00">joybuttonmousehelper.h</text>
</a>
</g>
</g>
<!-- Node37&#45;&gt;Node38 -->
<g id="edge46" class="edge">
<title>Node37&#45;&gt;Node38</title>
<path fill="none" stroke="midnightblue" d="M1110.7,-115.82C1166.9,-106.92 1282.76,-88.57 1355.35,-77.08"/>
<polygon fill="midnightblue" stroke="midnightblue" points="1355.96,-80.53 1365.29,-75.5 1354.87,-73.61 1355.96,-80.53"/>
</g>
<!-- Node39 -->
<g id="node39" class="node">
<title>Node39</title>
<g id="a_node39"><a xlink:title=" ">
<polygon fill="white" stroke="#bfbfbf" points="990.5,-56.5 990.5,-75.5 1077.5,-75.5 1077.5,-56.5 990.5,-56.5"/>
<text text-anchor="middle" x="1034" y="-63.5" font-family="Helvetica,sans-Serif" font-size="10.00">QDeadlineTimer</text>
</a>
</g>
</g>
<!-- Node37&#45;&gt;Node39 -->
<g id="edge50" class="edge">
<title>Node37&#45;&gt;Node39</title>
<path fill="none" stroke="midnightblue" d="M1070.73,-112.08C1064.46,-104.38 1055.21,-93.03 1047.57,-83.65"/>
<polygon fill="midnightblue" stroke="midnightblue" points="1050.16,-81.29 1041.13,-75.75 1044.73,-85.71 1050.16,-81.29"/>
</g>
<!-- Node40 -->
<g id="node40" class="node">
<title>Node40</title>
<g id="a_node40"><a xlink:title=" ">
<polygon fill="white" stroke="#bfbfbf" points="1095.5,-56.5 1095.5,-75.5 1148.5,-75.5 1148.5,-56.5 1095.5,-56.5"/>
<text text-anchor="middle" x="1122" y="-63.5" font-family="Helvetica,sans-Serif" font-size="10.00">QQueue</text>
</a>
</g>
</g>
<!-- Node37&#45;&gt;Node40 -->
<g id="edge51" class="edge">
<title>Node37&#45;&gt;Node40</title>
<path fill="none" stroke="midnightblue" d="M1085.27,-112.08C1091.54,-104.38 1100.79,-93.03 1108.43,-83.65"/>
<polygon fill="midnightblue" stroke="midnightblue" points="1111.27,-85.71 1114.87,-75.75 1105.84,-81.29 1111.27,-85.71"/>
</g>
<!-- Node41 -->
<g id="node41" class="node">
<title>Node41</title>
<g id="a_node41"><a xlink:title=" ">
<polygon fill="white" stroke="#bfbfbf" points="1167,-56.5 1167,-75.5 1257,-75.5 1257,-56.5 1167,-56.5"/>
<text text-anchor="middle" x="1212" y="-63.5" font-family="Helvetica,sans-Serif" font-size="10.00">QReadWriteLock</text>
</a>
</g>
</g>
<!-- Node37&#45;&gt;Node41 -->
<g id="edge52" class="edge">
<title>Node37&#45;&gt;Node41</title>
<path fill="none" stroke="midnightblue" d="M1099.23,-112.44C1121.38,-103.52 1156.32,-89.44 1181.44,-79.32"/>
<polygon fill="midnightblue" stroke="midnightblue" points="1182.9,-82.5 1190.87,-75.52 1180.28,-76.01 1182.9,-82.5"/>
</g>
<!-- Node42 -->
<g id="node42" class="node">
<title>Node42</title>
<g id="a_node42"><a xlink:title=" ">
<polygon fill="white" stroke="#bfbfbf" points="1275.5,-56.5 1275.5,-75.5 1340.5,-75.5 1340.5,-56.5 1275.5,-56.5"/>
<text text-anchor="middle" x="1308" y="-63.5" font-family="Helvetica,sans-Serif" font-size="10.00">QRunnable</text>
</a>
</g>
</g>
<!-- Node37&#45;&gt;Node42 -->
<g id="edge53" class="edge">
<title>Node37&#45;&gt;Node42</title>
<path fill="none" stroke="midnightblue" d="M1110.95,-113.26C1151.63,-103.71 1220.89,-87.45 1265.52,-76.97"/>
<polygon fill="midnightblue" stroke="midnightblue" points="1266.54,-80.33 1275.48,-74.64 1264.94,-73.51 1266.54,-80.33"/>
</g>
<!-- Node38&#45;&gt;Node4 -->
<g id="edge47" class="edge">
<title>Node38&#45;&gt;Node4</title>
<path fill="none" stroke="midnightblue" d="M1426.27,-56.08C1432.54,-48.38 1441.79,-37.03 1449.43,-27.65"/>
<polygon fill="midnightblue" stroke="midnightblue" points="1452.27,-29.71 1455.87,-19.75 1446.84,-25.29 1452.27,-29.71"/>
</g>
<!-- Node43&#45;&gt;Node4 -->
<g id="edge58" class="edge">
<title>Node43&#45;&gt;Node4</title>
<path fill="none" stroke="midnightblue" d="M1546.03,-224.16C1548.74,-196.96 1553.83,-112.96 1521,-56 1513.49,-42.98 1500.59,-32.4 1488.86,-24.78"/>
<polygon fill="midnightblue" stroke="midnightblue" points="1490.59,-21.74 1480.23,-19.54 1486.96,-27.72 1490.59,-21.74"/>
</g>
</g>
</svg>
