<?xml version="1.0" encoding="UTF-8" standalone="no"?>
<!DOCTYPE svg PUBLIC "-//W3C//DTD SVG 1.1//EN"
 "http://www.w3.org/Graphics/SVG/1.1/DTD/svg11.dtd">
<!-- Generated by graphviz version 2.43.0 (0)
 -->
<!-- Title: /home/pawel/antimicrox/src/joycontrolstickbuttonpushbutton.h Pages: 1 -->
<svg width="508pt" height="106pt"
 viewBox="0.00 0.00 508.00 106.00" xmlns="http://www.w3.org/2000/svg" xmlns:xlink="http://www.w3.org/1999/xlink">
<g id="graph0" class="graph" transform="scale(1 1) rotate(0) translate(4 102)">
<title>/home/pawel/antimicrox/src/joycontrolstickbuttonpushbutton.h</title>
<polygon fill="white" stroke="transparent" points="-4,4 -4,-102 504,-102 504,4 -4,4"/>
<!-- Node1 -->
<g id="node1" class="node">
<title>Node1</title>
<g id="a_node1"><a xlink:title=" ">
<polygon fill="#bfbfbf" stroke="black" points="147,-67.5 147,-97.5 329,-97.5 329,-67.5 147,-67.5"/>
<text text-anchor="start" x="155" y="-85.5" font-family="Helvetica,sans-Serif" font-size="10.00">/home/pawel/antimicrox</text>
<text text-anchor="middle" x="238" y="-74.5" font-family="Helvetica,sans-Serif" font-size="10.00">/src/joycontrolstickbuttonpushbutton.h</text>
</a>
</g>
</g>
<!-- Node2 -->
<g id="node2" class="node">
<title>Node2</title>
<g id="a_node2"><a xlink:href="mainwindow_8cpp.html" target="_top" xlink:title=" ">
<polygon fill="white" stroke="black" points="0,-0.5 0,-30.5 124,-30.5 124,-0.5 0,-0.5"/>
<text text-anchor="start" x="8" y="-18.5" font-family="Helvetica,sans-Serif" font-size="10.00">/home/pawel/antimicrox</text>
<text text-anchor="middle" x="62" y="-7.5" font-family="Helvetica,sans-Serif" font-size="10.00">/src/gui/mainwindow.cpp</text>
</a>
</g>
</g>
<!-- Node1&#45;&gt;Node2 -->
<g id="edge1" class="edge">
<title>Node1&#45;&gt;Node2</title>
<path fill="none" stroke="midnightblue" d="M190.12,-63.82C161.83,-53.37 126.51,-40.32 100.11,-30.58"/>
<polygon fill="midnightblue" stroke="midnightblue" points="189.22,-67.21 199.81,-67.4 191.64,-60.65 189.22,-67.21"/>
</g>
<!-- Node3 -->
<g id="node3" class="node">
<title>Node3</title>
<g id="a_node3"><a xlink:href="joycontrolstickbuttonpushbutton_8cpp.html" target="_top" xlink:title=" ">
<polygon fill="white" stroke="black" points="142,-0.5 142,-30.5 334,-30.5 334,-0.5 142,-0.5"/>
<text text-anchor="start" x="150" y="-18.5" font-family="Helvetica,sans-Serif" font-size="10.00">/home/pawel/antimicrox</text>
<text text-anchor="middle" x="238" y="-7.5" font-family="Helvetica,sans-Serif" font-size="10.00">/src/joycontrolstickbuttonpushbutton.cpp</text>
</a>
</g>
</g>
<!-- Node1&#45;&gt;Node3 -->
<g id="edge2" class="edge">
<title>Node1&#45;&gt;Node3</title>
<path fill="none" stroke="midnightblue" d="M238,-57.11C238,-48.15 238,-38.32 238,-30.58"/>
<polygon fill="midnightblue" stroke="midnightblue" points="234.5,-57.4 238,-67.4 241.5,-57.4 234.5,-57.4"/>
</g>
<!-- Node4 -->
<g id="node4" class="node">
<title>Node4</title>
<g id="a_node4"><a xlink:href="stickpushbuttongroup_8cpp.html" target="_top" xlink:title=" ">
<polygon fill="white" stroke="black" points="352,-0.5 352,-30.5 500,-30.5 500,-0.5 352,-0.5"/>
<text text-anchor="start" x="360" y="-18.5" font-family="Helvetica,sans-Serif" font-size="10.00">/home/pawel/antimicrox</text>
<text text-anchor="middle" x="426" y="-7.5" font-family="Helvetica,sans-Serif" font-size="10.00">/src/stickpushbuttongroup.cpp</text>
</a>
</g>
</g>
<!-- Node1&#45;&gt;Node4 -->
<g id="edge3" class="edge">
<title>Node1&#45;&gt;Node4</title>
<path fill="none" stroke="midnightblue" d="M288.35,-64.09C318.7,-53.6 356.85,-40.41 385.29,-30.58"/>
<polygon fill="midnightblue" stroke="midnightblue" points="287.1,-60.82 278.79,-67.4 289.39,-67.44 287.1,-60.82"/>
</g>
</g>
</svg>
