<?xml version="1.0" encoding="UTF-8" standalone="no"?>
<!DOCTYPE svg PUBLIC "-//W3C//DTD SVG 1.1//EN"
 "http://www.w3.org/Graphics/SVG/1.1/DTD/svg11.dtd">
<!-- Generated by graphviz version 2.43.0 (0)
 -->
<!-- Title: /home/pawel/antimicrox/src/joybuttontypes/joycontrolstickbutton.cpp Pages: 1 -->
<svg width="1619pt" height="431pt"
 viewBox="0.00 0.00 1619.11 431.00" xmlns="http://www.w3.org/2000/svg" xmlns:xlink="http://www.w3.org/1999/xlink">
<g id="graph0" class="graph" transform="scale(1 1) rotate(0) translate(4 427)">
<title>/home/pawel/antimicrox/src/joybuttontypes/joycontrolstickbutton.cpp</title>
<polygon fill="white" stroke="transparent" points="-4,4 -4,-427 1615.11,-427 1615.11,4 -4,4"/>
<!-- Node1 -->
<g id="node1" class="node">
<title>Node1</title>
<g id="a_node1"><a xlink:title=" ">
<polygon fill="#bfbfbf" stroke="black" points="546.11,-392.5 546.11,-422.5 757.11,-422.5 757.11,-392.5 546.11,-392.5"/>
<text text-anchor="start" x="554.11" y="-410.5" font-family="Helvetica,sans-Serif" font-size="10.00">/home/pawel/antimicrox</text>
<text text-anchor="middle" x="651.61" y="-399.5" font-family="Helvetica,sans-Serif" font-size="10.00">/src/joybuttontypes/joycontrolstickbutton.cpp</text>
</a>
</g>
</g>
<!-- Node2 -->
<g id="node2" class="node">
<title>Node2</title>
<g id="a_node2"><a xlink:href="joycontrolstickbutton_8h.html" target="_top" xlink:title=" ">
<polygon fill="white" stroke="black" points="475.61,-336.5 475.61,-355.5 589.61,-355.5 589.61,-336.5 475.61,-336.5"/>
<text text-anchor="middle" x="532.61" y="-343.5" font-family="Helvetica,sans-Serif" font-size="10.00">joycontrolstickbutton.h</text>
</a>
</g>
</g>
<!-- Node1&#45;&gt;Node2 -->
<g id="edge1" class="edge">
<title>Node1&#45;&gt;Node2</title>
<path fill="none" stroke="midnightblue" d="M623.41,-392.4C603.89,-382.64 578.08,-369.74 558.97,-360.18"/>
<polygon fill="midnightblue" stroke="midnightblue" points="560.43,-357 549.92,-355.66 557.3,-363.26 560.43,-357"/>
</g>
<!-- Node5 -->
<g id="node5" class="node">
<title>Node5</title>
<g id="a_node5"><a xlink:href="globalvariables_8h.html" target="_top" xlink:title=" ">
<polygon fill="white" stroke="black" points="25.11,-56.5 25.11,-75.5 114.11,-75.5 114.11,-56.5 25.11,-56.5"/>
<text text-anchor="middle" x="69.61" y="-63.5" font-family="Helvetica,sans-Serif" font-size="10.00">globalvariables.h</text>
</a>
</g>
</g>
<!-- Node1&#45;&gt;Node5 -->
<g id="edge48" class="edge">
<title>Node1&#45;&gt;Node5</title>
<path fill="none" stroke="midnightblue" d="M545.89,-405.24C416.16,-402.14 204.86,-391.59 135.61,-356 76.78,-325.76 60.87,-305.92 37.61,-244 16.7,-188.34 44.59,-117.57 60.26,-84.95"/>
<polygon fill="midnightblue" stroke="midnightblue" points="63.51,-86.28 64.84,-75.77 57.24,-83.15 63.51,-86.28"/>
</g>
<!-- Node23 -->
<g id="node23" class="node">
<title>Node23</title>
<g id="a_node23"><a xlink:href="event_8h.html" target="_top" xlink:title=" ">
<polygon fill="white" stroke="black" points="891.11,-280.5 891.11,-299.5 938.11,-299.5 938.11,-280.5 891.11,-280.5"/>
<text text-anchor="middle" x="914.61" y="-287.5" font-family="Helvetica,sans-Serif" font-size="10.00">event.h</text>
</a>
</g>
</g>
<!-- Node1&#45;&gt;Node23 -->
<g id="edge24" class="edge">
<title>Node1&#45;&gt;Node23</title>
<path fill="none" stroke="midnightblue" d="M665.8,-392.49C682.71,-376.56 712.49,-350.83 742.61,-336 787.85,-313.73 845.4,-301.55 881.12,-295.66"/>
<polygon fill="midnightblue" stroke="midnightblue" points="881.69,-299.11 891.03,-294.1 880.6,-292.2 881.69,-299.11"/>
</g>
<!-- Node40 -->
<g id="node40" class="node">
<title>Node40</title>
<g id="a_node40"><a xlink:href="joycontrolstick_8h.html" target="_top" xlink:title=" ">
<polygon fill="white" stroke="black" points="608.11,-336.5 608.11,-355.5 695.11,-355.5 695.11,-336.5 608.11,-336.5"/>
<text text-anchor="middle" x="651.61" y="-343.5" font-family="Helvetica,sans-Serif" font-size="10.00">joycontrolstick.h</text>
</a>
</g>
</g>
<!-- Node1&#45;&gt;Node40 -->
<g id="edge49" class="edge">
<title>Node1&#45;&gt;Node40</title>
<path fill="none" stroke="midnightblue" d="M651.61,-392.4C651.61,-384.47 651.61,-374.46 651.61,-365.86"/>
<polygon fill="midnightblue" stroke="midnightblue" points="655.11,-365.66 651.61,-355.66 648.11,-365.66 655.11,-365.66"/>
</g>
<!-- Node41 -->
<g id="node41" class="node">
<title>Node41</title>
<g id="a_node41"><a xlink:href="joycontrolstickmodifierbutton_8h.html" target="_top" xlink:title=" ">
<polygon fill="white" stroke="black" points="375.11,-224.5 375.11,-243.5 524.11,-243.5 524.11,-224.5 375.11,-224.5"/>
<text text-anchor="middle" x="449.61" y="-231.5" font-family="Helvetica,sans-Serif" font-size="10.00">joycontrolstickmodifierbutton.h</text>
</a>
</g>
</g>
<!-- Node1&#45;&gt;Node41 -->
<g id="edge52" class="edge">
<title>Node1&#45;&gt;Node41</title>
<path fill="none" stroke="midnightblue" d="M565.9,-392.48C524.26,-383.87 480.28,-371.52 466.61,-356 441.57,-327.57 443.19,-279.93 446.46,-253.71"/>
<polygon fill="midnightblue" stroke="midnightblue" points="449.96,-254.01 447.94,-243.61 443.03,-252.99 449.96,-254.01"/>
</g>
<!-- Node42 -->
<g id="node42" class="node">
<title>Node42</title>
<g id="a_node42"><a xlink:href="setjoystick_8h.html" target="_top" xlink:title=" ">
<polygon fill="white" stroke="black" points="145.11,-336.5 145.11,-355.5 216.11,-355.5 216.11,-336.5 145.11,-336.5"/>
<text text-anchor="middle" x="180.61" y="-343.5" font-family="Helvetica,sans-Serif" font-size="10.00">setjoystick.h</text>
</a>
</g>
</g>
<!-- Node1&#45;&gt;Node42 -->
<g id="edge54" class="edge">
<title>Node1&#45;&gt;Node42</title>
<path fill="none" stroke="midnightblue" d="M545.91,-393.15C445.73,-380.49 299.99,-362.08 226.56,-352.8"/>
<polygon fill="midnightblue" stroke="midnightblue" points="226.62,-349.28 216.26,-351.5 225.74,-356.23 226.62,-349.28"/>
</g>
<!-- Node46 -->
<g id="node46" class="node">
<title>Node46</title>
<g id="a_node46"><a xlink:title=" ">
<polygon fill="white" stroke="#bfbfbf" points="751.61,-336.5 751.61,-355.5 795.61,-355.5 795.61,-336.5 751.61,-336.5"/>
<text text-anchor="middle" x="773.61" y="-343.5" font-family="Helvetica,sans-Serif" font-size="10.00">cmath</text>
</a>
</g>
</g>
<!-- Node1&#45;&gt;Node46 -->
<g id="edge63" class="edge">
<title>Node1&#45;&gt;Node46</title>
<path fill="none" stroke="midnightblue" d="M680.52,-392.4C700.62,-382.59 727.23,-369.62 746.85,-360.05"/>
<polygon fill="midnightblue" stroke="midnightblue" points="748.4,-363.19 755.86,-355.66 745.33,-356.9 748.4,-363.19"/>
</g>
<!-- Node47 -->
<g id="node47" class="node">
<title>Node47</title>
<g id="a_node47"><a xlink:title=" ">
<polygon fill="white" stroke="#bfbfbf" points="814.11,-336.5 814.11,-355.5 867.11,-355.5 867.11,-336.5 814.11,-336.5"/>
<text text-anchor="middle" x="840.61" y="-343.5" font-family="Helvetica,sans-Serif" font-size="10.00">QDebug</text>
</a>
</g>
</g>
<!-- Node1&#45;&gt;Node47 -->
<g id="edge64" class="edge">
<title>Node1&#45;&gt;Node47</title>
<path fill="none" stroke="midnightblue" d="M696.4,-392.4C729.25,-382.06 773.31,-368.19 804.05,-358.51"/>
<polygon fill="midnightblue" stroke="midnightblue" points="805.44,-361.74 813.93,-355.4 803.34,-355.06 805.44,-361.74"/>
</g>
<!-- Node48 -->
<g id="node48" class="node">
<title>Node48</title>
<g id="a_node48"><a xlink:title=" ">
<polygon fill="white" stroke="#bfbfbf" points="885.11,-336.5 885.11,-355.5 950.11,-355.5 950.11,-336.5 885.11,-336.5"/>
<text text-anchor="middle" x="917.61" y="-343.5" font-family="Helvetica,sans-Serif" font-size="10.00">QStringList</text>
</a>
</g>
</g>
<!-- Node1&#45;&gt;Node48 -->
<g id="edge65" class="edge">
<title>Node1&#45;&gt;Node48</title>
<path fill="none" stroke="midnightblue" d="M714.31,-392.47C763.79,-381.41 831.5,-366.26 874.9,-356.55"/>
<polygon fill="midnightblue" stroke="midnightblue" points="875.85,-359.93 884.85,-354.33 874.32,-353.1 875.85,-359.93"/>
</g>
<!-- Node3 -->
<g id="node3" class="node">
<title>Node3</title>
<g id="a_node3"><a xlink:href="joygradientbutton_8h.html" target="_top" xlink:title=" ">
<polygon fill="white" stroke="black" points="518.11,-168.5 518.11,-187.5 683.11,-187.5 683.11,-168.5 518.11,-168.5"/>
<text text-anchor="middle" x="600.61" y="-175.5" font-family="Helvetica,sans-Serif" font-size="10.00">joybuttontypes/joygradientbutton.h</text>
</a>
</g>
</g>
<!-- Node2&#45;&gt;Node3 -->
<g id="edge2" class="edge">
<title>Node2&#45;&gt;Node3</title>
<path fill="none" stroke="midnightblue" d="M530.35,-336.34C527.45,-323.65 523.47,-299.39 529.61,-280 540.36,-246 567.13,-213.53 584.55,-194.97"/>
<polygon fill="midnightblue" stroke="midnightblue" points="587.16,-197.3 591.59,-187.68 582.12,-192.44 587.16,-197.3"/>
</g>
<!-- Node22 -->
<g id="node22" class="node">
<title>Node22</title>
<g id="a_node22"><a xlink:href="joycontrolstickdirectionstype_8h.html" target="_top" xlink:title=" ">
<polygon fill="white" stroke="black" points="538.11,-280.5 538.11,-299.5 685.11,-299.5 685.11,-280.5 538.11,-280.5"/>
<text text-anchor="middle" x="611.61" y="-287.5" font-family="Helvetica,sans-Serif" font-size="10.00">joycontrolstickdirectionstype.h</text>
</a>
</g>
</g>
<!-- Node2&#45;&gt;Node22 -->
<g id="edge23" class="edge">
<title>Node2&#45;&gt;Node22</title>
<path fill="none" stroke="midnightblue" d="M545.3,-336.32C557.51,-327.98 576.19,-315.21 590.61,-305.35"/>
<polygon fill="midnightblue" stroke="midnightblue" points="592.67,-308.19 598.95,-299.65 588.72,-302.41 592.67,-308.19"/>
</g>
<!-- Node4 -->
<g id="node4" class="node">
<title>Node4</title>
<g id="a_node4"><a xlink:href="joybutton_8h.html" target="_top" xlink:title=" ">
<polygon fill="white" stroke="black" points="595.11,-112.5 595.11,-131.5 660.11,-131.5 660.11,-112.5 595.11,-112.5"/>
<text text-anchor="middle" x="627.61" y="-119.5" font-family="Helvetica,sans-Serif" font-size="10.00">joybutton.h</text>
</a>
</g>
</g>
<!-- Node3&#45;&gt;Node4 -->
<g id="edge3" class="edge">
<title>Node3&#45;&gt;Node4</title>
<path fill="none" stroke="midnightblue" d="M605.07,-168.08C608.76,-160.69 614.13,-149.95 618.7,-140.81"/>
<polygon fill="midnightblue" stroke="midnightblue" points="621.89,-142.26 623.23,-131.75 615.63,-139.13 621.89,-142.26"/>
</g>
<!-- Node4&#45;&gt;Node5 -->
<g id="edge4" class="edge">
<title>Node4&#45;&gt;Node5</title>
<path fill="none" stroke="midnightblue" d="M594.78,-117.82C502.38,-108.88 239.29,-83.42 124.4,-72.3"/>
<polygon fill="midnightblue" stroke="midnightblue" points="124.7,-68.82 114.41,-71.34 124.03,-75.78 124.7,-68.82"/>
</g>
<!-- Node8 -->
<g id="node8" class="node">
<title>Node8</title>
<g id="a_node8"><a xlink:href="joybuttonmousehelper_8h.html" target="_top" xlink:title=" ">
<polygon fill="white" stroke="black" points="208.61,-56.5 208.61,-75.5 328.61,-75.5 328.61,-56.5 208.61,-56.5"/>
<text text-anchor="middle" x="268.61" y="-63.5" font-family="Helvetica,sans-Serif" font-size="10.00">joybuttonmousehelper.h</text>
</a>
</g>
</g>
<!-- Node4&#45;&gt;Node8 -->
<g id="edge7" class="edge">
<title>Node4&#45;&gt;Node8</title>
<path fill="none" stroke="midnightblue" d="M594.8,-116.06C536.15,-107.24 412.3,-88.61 335.21,-77.02"/>
<polygon fill="midnightblue" stroke="midnightblue" points="335.53,-73.53 325.12,-75.5 334.49,-80.45 335.53,-73.53"/>
</g>
<!-- Node9 -->
<g id="node9" class="node">
<title>Node9</title>
<g id="a_node9"><a xlink:href="joybuttonslot_8h.html" target="_top" xlink:title=" ">
<polygon fill="white" stroke="black" points="1334.61,-56.5 1334.61,-75.5 1414.61,-75.5 1414.61,-56.5 1334.61,-56.5"/>
<text text-anchor="middle" x="1374.61" y="-63.5" font-family="Helvetica,sans-Serif" font-size="10.00">joybuttonslot.h</text>
</a>
</g>
</g>
<!-- Node4&#45;&gt;Node9 -->
<g id="edge9" class="edge">
<title>Node4&#45;&gt;Node9</title>
<path fill="none" stroke="midnightblue" d="M660.19,-118.64C777.85,-110.14 1181.41,-80.97 1324.12,-70.65"/>
<polygon fill="midnightblue" stroke="midnightblue" points="1324.61,-74.12 1334.33,-69.91 1324.11,-67.14 1324.61,-74.12"/>
</g>
<!-- Node15 -->
<g id="node15" class="node">
<title>Node15</title>
<g id="a_node15"><a xlink:href="springmousemoveinfo_8h.html" target="_top" xlink:title=" ">
<polygon fill="white" stroke="black" points="715.11,-56.5 715.11,-75.5 834.11,-75.5 834.11,-56.5 715.11,-56.5"/>
<text text-anchor="middle" x="774.61" y="-63.5" font-family="Helvetica,sans-Serif" font-size="10.00">springmousemoveinfo.h</text>
</a>
</g>
</g>
<!-- Node4&#45;&gt;Node15 -->
<g id="edge16" class="edge">
<title>Node4&#45;&gt;Node15</title>
<path fill="none" stroke="midnightblue" d="M650.9,-112.44C675.41,-103.44 714.2,-89.19 741.81,-79.05"/>
<polygon fill="midnightblue" stroke="midnightblue" points="743.24,-82.25 751.42,-75.52 740.83,-75.68 743.24,-82.25"/>
</g>
<!-- Node16 -->
<g id="node16" class="node">
<title>Node16</title>
<g id="a_node16"><a xlink:title=" ">
<polygon fill="white" stroke="#bfbfbf" points="430.11,-56.5 430.11,-75.5 517.11,-75.5 517.11,-56.5 430.11,-56.5"/>
<text text-anchor="middle" x="473.61" y="-63.5" font-family="Helvetica,sans-Serif" font-size="10.00">QDeadlineTimer</text>
</a>
</g>
</g>
<!-- Node4&#45;&gt;Node16 -->
<g id="edge17" class="edge">
<title>Node4&#45;&gt;Node16</title>
<path fill="none" stroke="midnightblue" d="M603.21,-112.44C577.41,-103.4 536.53,-89.06 507.59,-78.92"/>
<polygon fill="midnightblue" stroke="midnightblue" points="508.49,-75.52 497.89,-75.52 506.17,-82.13 508.49,-75.52"/>
</g>
<!-- Node17 -->
<g id="node17" class="node">
<title>Node17</title>
<g id="a_node17"><a xlink:title=" ">
<polygon fill="white" stroke="#bfbfbf" points="535.11,-56.5 535.11,-75.5 588.11,-75.5 588.11,-56.5 535.11,-56.5"/>
<text text-anchor="middle" x="561.61" y="-63.5" font-family="Helvetica,sans-Serif" font-size="10.00">QQueue</text>
</a>
</g>
</g>
<!-- Node4&#45;&gt;Node17 -->
<g id="edge18" class="edge">
<title>Node4&#45;&gt;Node17</title>
<path fill="none" stroke="midnightblue" d="M617,-112.32C607.15,-104.26 592.26,-92.08 580.39,-82.37"/>
<polygon fill="midnightblue" stroke="midnightblue" points="582.36,-79.46 572.4,-75.83 577.93,-84.88 582.36,-79.46"/>
</g>
<!-- Node18 -->
<g id="node18" class="node">
<title>Node18</title>
<g id="a_node18"><a xlink:title=" ">
<polygon fill="white" stroke="#bfbfbf" points="606.61,-56.5 606.61,-75.5 696.61,-75.5 696.61,-56.5 606.61,-56.5"/>
<text text-anchor="middle" x="651.61" y="-63.5" font-family="Helvetica,sans-Serif" font-size="10.00">QReadWriteLock</text>
</a>
</g>
</g>
<!-- Node4&#45;&gt;Node18 -->
<g id="edge19" class="edge">
<title>Node4&#45;&gt;Node18</title>
<path fill="none" stroke="midnightblue" d="M631.57,-112.08C634.82,-104.77 639.53,-94.18 643.56,-85.1"/>
<polygon fill="midnightblue" stroke="midnightblue" points="646.85,-86.31 647.72,-75.75 640.46,-83.47 646.85,-86.31"/>
</g>
<!-- Node19 -->
<g id="node19" class="node">
<title>Node19</title>
<g id="a_node19"><a xlink:title=" ">
<polygon fill="white" stroke="#bfbfbf" points="347.11,-56.5 347.11,-75.5 412.11,-75.5 412.11,-56.5 347.11,-56.5"/>
<text text-anchor="middle" x="379.61" y="-63.5" font-family="Helvetica,sans-Serif" font-size="10.00">QRunnable</text>
</a>
</g>
</g>
<!-- Node4&#45;&gt;Node19 -->
<g id="edge20" class="edge">
<title>Node4&#45;&gt;Node19</title>
<path fill="none" stroke="midnightblue" d="M594.98,-113.93C556.1,-105.5 488.9,-90.91 422.13,-76.33"/>
<polygon fill="midnightblue" stroke="midnightblue" points="422.8,-72.89 412.28,-74.18 421.3,-79.73 422.8,-72.89"/>
</g>
<!-- Node20 -->
<g id="node20" class="node">
<title>Node20</title>
<g id="a_node20"><a xlink:title=" ">
<polygon fill="white" stroke="#bfbfbf" points="1091.61,-0.5 1091.61,-19.5 1145.61,-19.5 1145.61,-0.5 1091.61,-0.5"/>
<text text-anchor="middle" x="1118.61" y="-7.5" font-family="Helvetica,sans-Serif" font-size="10.00">QThread</text>
</a>
</g>
</g>
<!-- Node4&#45;&gt;Node20 -->
<g id="edge21" class="edge">
<title>Node4&#45;&gt;Node20</title>
<path fill="none" stroke="midnightblue" d="M660.13,-119.18C741.62,-114.31 952.71,-99.72 1018.61,-76 1035.28,-70 1074.35,-42.97 1098.42,-25.71"/>
<polygon fill="midnightblue" stroke="midnightblue" points="1100.77,-28.33 1106.84,-19.64 1096.68,-22.66 1100.77,-28.33"/>
</g>
<!-- Node21 -->
<g id="node21" class="node">
<title>Node21</title>
<g id="a_node21"><a xlink:title=" ">
<polygon fill="white" stroke="#bfbfbf" points="852.11,-56.5 852.11,-75.5 901.11,-75.5 901.11,-56.5 852.11,-56.5"/>
<text text-anchor="middle" x="876.61" y="-63.5" font-family="Helvetica,sans-Serif" font-size="10.00">QTimer</text>
</a>
</g>
</g>
<!-- Node4&#45;&gt;Node21 -->
<g id="edge22" class="edge">
<title>Node4&#45;&gt;Node21</title>
<path fill="none" stroke="midnightblue" d="M660.31,-114.83C700.84,-107.04 772.21,-92.87 841.95,-76.3"/>
<polygon fill="midnightblue" stroke="midnightblue" points="842.87,-79.68 851.78,-73.94 841.24,-72.87 842.87,-79.68"/>
</g>
<!-- Node6 -->
<g id="node6" class="node">
<title>Node6</title>
<g id="a_node6"><a xlink:title=" ">
<polygon fill="white" stroke="#bfbfbf" points="13.61,-0.5 13.61,-19.5 53.61,-19.5 53.61,-0.5 13.61,-0.5"/>
<text text-anchor="middle" x="33.61" y="-7.5" font-family="Helvetica,sans-Serif" font-size="10.00">QList</text>
</a>
</g>
</g>
<!-- Node5&#45;&gt;Node6 -->
<g id="edge5" class="edge">
<title>Node5&#45;&gt;Node6</title>
<path fill="none" stroke="midnightblue" d="M63.66,-56.08C58.63,-48.53 51.27,-37.49 45.09,-28.23"/>
<polygon fill="midnightblue" stroke="midnightblue" points="47.9,-26.13 39.44,-19.75 42.08,-30.01 47.9,-26.13"/>
</g>
<!-- Node7 -->
<g id="node7" class="node">
<title>Node7</title>
<g id="a_node7"><a xlink:title=" ">
<polygon fill="white" stroke="#bfbfbf" points="242.11,-0.5 242.11,-19.5 295.11,-19.5 295.11,-0.5 242.11,-0.5"/>
<text text-anchor="middle" x="268.61" y="-7.5" font-family="Helvetica,sans-Serif" font-size="10.00">QObject</text>
</a>
</g>
</g>
<!-- Node5&#45;&gt;Node7 -->
<g id="edge6" class="edge">
<title>Node5&#45;&gt;Node7</title>
<path fill="none" stroke="midnightblue" d="M101.14,-56.44C136.7,-46.79 194.45,-31.12 231.98,-20.94"/>
<polygon fill="midnightblue" stroke="midnightblue" points="233.26,-24.22 242,-18.22 231.43,-17.46 233.26,-24.22"/>
</g>
<!-- Node8&#45;&gt;Node7 -->
<g id="edge8" class="edge">
<title>Node8&#45;&gt;Node7</title>
<path fill="none" stroke="midnightblue" d="M268.61,-56.08C268.61,-49.01 268.61,-38.86 268.61,-29.99"/>
<polygon fill="midnightblue" stroke="midnightblue" points="272.11,-29.75 268.61,-19.75 265.11,-29.75 272.11,-29.75"/>
</g>
<!-- Node9&#45;&gt;Node7 -->
<g id="edge11" class="edge">
<title>Node9&#45;&gt;Node7</title>
<path fill="none" stroke="midnightblue" d="M1334.59,-63.05C1160.75,-54.56 472.4,-20.95 305.3,-12.79"/>
<polygon fill="midnightblue" stroke="midnightblue" points="305.43,-9.29 295.28,-12.3 305.09,-16.29 305.43,-9.29"/>
</g>
<!-- Node10 -->
<g id="node10" class="node">
<title>Node10</title>
<g id="a_node10"><a xlink:title=" ">
<polygon fill="white" stroke="#bfbfbf" points="1453.61,-0.5 1453.61,-19.5 1537.61,-19.5 1537.61,-0.5 1453.61,-0.5"/>
<text text-anchor="middle" x="1495.61" y="-7.5" font-family="Helvetica,sans-Serif" font-size="10.00">QElapsedTimer</text>
</a>
</g>
</g>
<!-- Node9&#45;&gt;Node10 -->
<g id="edge10" class="edge">
<title>Node9&#45;&gt;Node10</title>
<path fill="none" stroke="midnightblue" d="M1393.78,-56.44C1413.52,-47.64 1444.49,-33.81 1467.1,-23.72"/>
<polygon fill="midnightblue" stroke="midnightblue" points="1468.82,-26.79 1476.52,-19.52 1465.97,-20.4 1468.82,-26.79"/>
</g>
<!-- Node11 -->
<g id="node11" class="node">
<title>Node11</title>
<g id="a_node11"><a xlink:title=" ">
<polygon fill="white" stroke="#bfbfbf" points="1556.11,-0.5 1556.11,-19.5 1611.11,-19.5 1611.11,-0.5 1556.11,-0.5"/>
<text text-anchor="middle" x="1583.61" y="-7.5" font-family="Helvetica,sans-Serif" font-size="10.00">QPointer</text>
</a>
</g>
</g>
<!-- Node9&#45;&gt;Node11 -->
<g id="edge12" class="edge">
<title>Node9&#45;&gt;Node11</title>
<path fill="none" stroke="midnightblue" d="M1407.72,-56.44C1445.42,-46.7 1506.85,-30.83 1546.23,-20.66"/>
<polygon fill="midnightblue" stroke="midnightblue" points="1547.18,-24.03 1555.99,-18.14 1545.43,-17.25 1547.18,-24.03"/>
</g>
<!-- Node12 -->
<g id="node12" class="node">
<title>Node12</title>
<g id="a_node12"><a xlink:title=" ">
<polygon fill="white" stroke="#bfbfbf" points="1177.61,-0.5 1177.61,-19.5 1223.61,-19.5 1223.61,-0.5 1177.61,-0.5"/>
<text text-anchor="middle" x="1200.61" y="-7.5" font-family="Helvetica,sans-Serif" font-size="10.00">QTime</text>
</a>
</g>
</g>
<!-- Node9&#45;&gt;Node12 -->
<g id="edge13" class="edge">
<title>Node9&#45;&gt;Node12</title>
<path fill="none" stroke="midnightblue" d="M1347.04,-56.44C1316.21,-46.88 1266.31,-31.39 1233.47,-21.2"/>
<polygon fill="midnightblue" stroke="midnightblue" points="1234.46,-17.84 1223.87,-18.22 1232.39,-24.53 1234.46,-17.84"/>
</g>
<!-- Node13 -->
<g id="node13" class="node">
<title>Node13</title>
<g id="a_node13"><a xlink:title=" ">
<polygon fill="white" stroke="#bfbfbf" points="1241.61,-0.5 1241.61,-19.5 1295.61,-19.5 1295.61,-0.5 1241.61,-0.5"/>
<text text-anchor="middle" x="1268.61" y="-7.5" font-family="Helvetica,sans-Serif" font-size="10.00">QVariant</text>
</a>
</g>
</g>
<!-- Node9&#45;&gt;Node13 -->
<g id="edge14" class="edge">
<title>Node9&#45;&gt;Node13</title>
<path fill="none" stroke="midnightblue" d="M1357.58,-56.32C1340.58,-47.66 1314.23,-34.24 1294.61,-24.25"/>
<polygon fill="midnightblue" stroke="midnightblue" points="1296.09,-21.08 1285.6,-19.65 1292.92,-27.31 1296.09,-21.08"/>
</g>
<!-- Node14 -->
<g id="node14" class="node">
<title>Node14</title>
<g id="a_node14"><a xlink:title=" ">
<polygon fill="white" stroke="#bfbfbf" points="1313.61,-0.5 1313.61,-19.5 1435.61,-19.5 1435.61,-0.5 1313.61,-0.5"/>
<text text-anchor="middle" x="1374.61" y="-7.5" font-family="Helvetica,sans-Serif" font-size="10.00">QtWidgets/QApplication</text>
</a>
</g>
</g>
<!-- Node9&#45;&gt;Node14 -->
<g id="edge15" class="edge">
<title>Node9&#45;&gt;Node14</title>
<path fill="none" stroke="midnightblue" d="M1374.61,-56.08C1374.61,-49.01 1374.61,-38.86 1374.61,-29.99"/>
<polygon fill="midnightblue" stroke="midnightblue" points="1378.11,-29.75 1374.61,-19.75 1371.11,-29.75 1378.11,-29.75"/>
</g>
<!-- Node23&#45;&gt;Node9 -->
<g id="edge46" class="edge">
<title>Node23&#45;&gt;Node9</title>
<path fill="none" stroke="midnightblue" d="M938.55,-289.71C1006.05,-290.44 1200.55,-283.65 1316.61,-188 1349.01,-161.29 1364.54,-112.21 1370.89,-85.5"/>
<polygon fill="midnightblue" stroke="midnightblue" points="1374.35,-86.07 1373.07,-75.55 1367.51,-84.57 1374.35,-86.07"/>
</g>
<!-- Node23&#45;&gt;Node15 -->
<g id="edge47" class="edge">
<title>Node23&#45;&gt;Node15</title>
<path fill="none" stroke="midnightblue" d="M901.41,-280.37C877.87,-264.45 828.15,-228.37 796.61,-188 774.44,-159.63 766.22,-147.92 768.61,-112 769.18,-103.34 770.37,-93.81 771.54,-85.75"/>
<polygon fill="midnightblue" stroke="midnightblue" points="775.04,-86.01 773.12,-75.59 768.13,-84.94 775.04,-86.01"/>
</g>
<!-- Node24 -->
<g id="node24" class="node">
<title>Node24</title>
<g id="a_node24"><a xlink:href="common_8h.html" target="_top" xlink:title=" ">
<polygon fill="white" stroke="black" points="1030.61,-224.5 1030.61,-243.5 1092.61,-243.5 1092.61,-224.5 1030.61,-224.5"/>
<text text-anchor="middle" x="1061.61" y="-231.5" font-family="Helvetica,sans-Serif" font-size="10.00">common.h</text>
</a>
</g>
</g>
<!-- Node23&#45;&gt;Node24 -->
<g id="edge25" class="edge">
<title>Node23&#45;&gt;Node24</title>
<path fill="none" stroke="midnightblue" d="M937.9,-280.44C962.41,-271.44 1001.2,-257.19 1028.81,-247.05"/>
<polygon fill="midnightblue" stroke="midnightblue" points="1030.24,-250.25 1038.42,-243.52 1027.83,-243.68 1030.24,-250.25"/>
</g>
<!-- Node24&#45;&gt;Node20 -->
<g id="edge43" class="edge">
<title>Node24&#45;&gt;Node20</title>
<path fill="none" stroke="midnightblue" d="M1092.79,-231.8C1150.84,-228.84 1271.95,-219.01 1297.61,-188 1352.99,-121.06 1214.42,-51.35 1149.72,-23.54"/>
<polygon fill="midnightblue" stroke="midnightblue" points="1150.95,-20.26 1140.38,-19.59 1148.23,-26.71 1150.95,-20.26"/>
</g>
<!-- Node25 -->
<g id="node25" class="node">
<title>Node25</title>
<g id="a_node25"><a xlink:href="antimicrosettings_8h.html" target="_top" xlink:title=" ">
<polygon fill="white" stroke="black" points="919.11,-168.5 919.11,-187.5 1018.11,-187.5 1018.11,-168.5 919.11,-168.5"/>
<text text-anchor="middle" x="968.61" y="-175.5" font-family="Helvetica,sans-Serif" font-size="10.00">antimicrosettings.h</text>
</a>
</g>
</g>
<!-- Node24&#45;&gt;Node25 -->
<g id="edge26" class="edge">
<title>Node24&#45;&gt;Node25</title>
<path fill="none" stroke="midnightblue" d="M1046.67,-224.32C1032.02,-215.82 1009.47,-202.73 992.37,-192.8"/>
<polygon fill="midnightblue" stroke="midnightblue" points="993.92,-189.65 983.51,-187.65 990.4,-195.7 993.92,-189.65"/>
</g>
<!-- Node34 -->
<g id="node34" class="node">
<title>Node34</title>
<g id="a_node34"><a xlink:title=" ">
<polygon fill="white" stroke="#bfbfbf" points="1036.11,-168.5 1036.11,-187.5 1087.11,-187.5 1087.11,-168.5 1036.11,-168.5"/>
<text text-anchor="middle" x="1061.61" y="-175.5" font-family="Helvetica,sans-Serif" font-size="10.00">config.h</text>
</a>
</g>
</g>
<!-- Node24&#45;&gt;Node34 -->
<g id="edge37" class="edge">
<title>Node24&#45;&gt;Node34</title>
<path fill="none" stroke="midnightblue" d="M1061.61,-224.08C1061.61,-217.01 1061.61,-206.86 1061.61,-197.99"/>
<polygon fill="midnightblue" stroke="midnightblue" points="1065.11,-197.75 1061.61,-187.75 1058.11,-197.75 1065.11,-197.75"/>
</g>
<!-- Node35 -->
<g id="node35" class="node">
<title>Node35</title>
<g id="a_node35"><a xlink:href="mousehelper_8h.html" target="_top" xlink:title=" ">
<polygon fill="white" stroke="black" points="777.61,-112.5 777.61,-131.5 857.61,-131.5 857.61,-112.5 777.61,-112.5"/>
<text text-anchor="middle" x="817.61" y="-119.5" font-family="Helvetica,sans-Serif" font-size="10.00">mousehelper.h</text>
</a>
</g>
</g>
<!-- Node24&#45;&gt;Node35 -->
<g id="edge38" class="edge">
<title>Node24&#45;&gt;Node35</title>
<path fill="none" stroke="midnightblue" d="M1030.47,-232.27C969.03,-230.1 835.73,-221.55 807.61,-188 796.75,-175.05 801.79,-155.33 807.98,-141.01"/>
<polygon fill="midnightblue" stroke="midnightblue" points="811.28,-142.24 812.48,-131.71 804.97,-139.19 811.28,-142.24"/>
</g>
<!-- Node36 -->
<g id="node36" class="node">
<title>Node36</title>
<g id="a_node36"><a xlink:title=" ">
<polygon fill="white" stroke="#bfbfbf" points="1105.11,-168.5 1105.11,-187.5 1142.11,-187.5 1142.11,-168.5 1105.11,-168.5"/>
<text text-anchor="middle" x="1123.61" y="-175.5" font-family="Helvetica,sans-Serif" font-size="10.00">QDir</text>
</a>
</g>
</g>
<!-- Node24&#45;&gt;Node36 -->
<g id="edge41" class="edge">
<title>Node24&#45;&gt;Node36</title>
<path fill="none" stroke="midnightblue" d="M1071.57,-224.32C1080.73,-216.34 1094.54,-204.31 1105.64,-194.65"/>
<polygon fill="midnightblue" stroke="midnightblue" points="1108.22,-197.04 1113.46,-187.83 1103.63,-191.76 1108.22,-197.04"/>
</g>
<!-- Node37 -->
<g id="node37" class="node">
<title>Node37</title>
<g id="a_node37"><a xlink:title=" ">
<polygon fill="white" stroke="#bfbfbf" points="1160.11,-168.5 1160.11,-187.5 1203.11,-187.5 1203.11,-168.5 1160.11,-168.5"/>
<text text-anchor="middle" x="1181.61" y="-175.5" font-family="Helvetica,sans-Serif" font-size="10.00">QIcon</text>
</a>
</g>
</g>
<!-- Node24&#45;&gt;Node37 -->
<g id="edge42" class="edge">
<title>Node24&#45;&gt;Node37</title>
<path fill="none" stroke="midnightblue" d="M1080.62,-224.44C1100.19,-215.64 1130.91,-201.81 1153.34,-191.72"/>
<polygon fill="midnightblue" stroke="midnightblue" points="1155,-194.81 1162.68,-187.52 1152.13,-188.43 1155,-194.81"/>
</g>
<!-- Node38 -->
<g id="node38" class="node">
<title>Node38</title>
<g id="a_node38"><a xlink:title=" ">
<polygon fill="white" stroke="#bfbfbf" points="1221.11,-168.5 1221.11,-187.5 1288.11,-187.5 1288.11,-168.5 1221.11,-168.5"/>
<text text-anchor="middle" x="1254.61" y="-175.5" font-family="Helvetica,sans-Serif" font-size="10.00">QTranslator</text>
</a>
</g>
</g>
<!-- Node24&#45;&gt;Node38 -->
<g id="edge44" class="edge">
<title>Node24&#45;&gt;Node38</title>
<path fill="none" stroke="midnightblue" d="M1092.19,-224.44C1125.22,-215.2 1177.99,-200.44 1214.37,-190.26"/>
<polygon fill="midnightblue" stroke="midnightblue" points="1215.48,-193.58 1224.17,-187.52 1213.6,-186.84 1215.48,-193.58"/>
</g>
<!-- Node39 -->
<g id="node39" class="node">
<title>Node39</title>
<g id="a_node39"><a xlink:title=" ">
<polygon fill="white" stroke="#bfbfbf" points="816.11,-168.5 816.11,-187.5 901.11,-187.5 901.11,-168.5 816.11,-168.5"/>
<text text-anchor="middle" x="858.61" y="-175.5" font-family="Helvetica,sans-Serif" font-size="10.00">QWaitCondition</text>
</a>
</g>
</g>
<!-- Node24&#45;&gt;Node39 -->
<g id="edge45" class="edge">
<title>Node24&#45;&gt;Node39</title>
<path fill="none" stroke="midnightblue" d="M1030.33,-224.68C995.52,-215.42 939.09,-200.41 900.48,-190.14"/>
<polygon fill="midnightblue" stroke="midnightblue" points="901.15,-186.7 890.59,-187.51 899.35,-193.46 901.15,-186.7"/>
</g>
<!-- Node26 -->
<g id="node26" class="node">
<title>Node26</title>
<g id="a_node26"><a xlink:href="commandlineutility_8h.html" target="_top" xlink:title=" ">
<polygon fill="white" stroke="black" points="1004.11,-112.5 1004.11,-131.5 1109.11,-131.5 1109.11,-112.5 1004.11,-112.5"/>
<text text-anchor="middle" x="1056.61" y="-119.5" font-family="Helvetica,sans-Serif" font-size="10.00">commandlineutility.h</text>
</a>
</g>
</g>
<!-- Node25&#45;&gt;Node26 -->
<g id="edge27" class="edge">
<title>Node25&#45;&gt;Node26</title>
<path fill="none" stroke="midnightblue" d="M982.75,-168.32C996.47,-159.9 1017.54,-146.97 1033.67,-137.07"/>
<polygon fill="midnightblue" stroke="midnightblue" points="1035.81,-139.87 1042.5,-131.65 1032.15,-133.9 1035.81,-139.87"/>
</g>
<!-- Node33 -->
<g id="node33" class="node">
<title>Node33</title>
<g id="a_node33"><a xlink:title=" ">
<polygon fill="white" stroke="#bfbfbf" points="925.61,-112.5 925.61,-131.5 985.61,-131.5 985.61,-112.5 925.61,-112.5"/>
<text text-anchor="middle" x="955.61" y="-119.5" font-family="Helvetica,sans-Serif" font-size="10.00">QSettings</text>
</a>
</g>
</g>
<!-- Node25&#45;&gt;Node33 -->
<g id="edge36" class="edge">
<title>Node25&#45;&gt;Node33</title>
<path fill="none" stroke="midnightblue" d="M966.46,-168.08C964.74,-160.93 962.26,-150.64 960.11,-141.69"/>
<polygon fill="midnightblue" stroke="midnightblue" points="963.46,-140.65 957.71,-131.75 956.65,-142.29 963.46,-140.65"/>
</g>
<!-- Node27 -->
<g id="node27" class="node">
<title>Node27</title>
<g id="a_node27"><a xlink:title=" ">
<polygon fill="white" stroke="#bfbfbf" points="1065.61,-56.5 1065.61,-75.5 1137.61,-75.5 1137.61,-56.5 1065.61,-56.5"/>
<text text-anchor="middle" x="1101.61" y="-63.5" font-family="Helvetica,sans-Serif" font-size="10.00">QApplication</text>
</a>
</g>
</g>
<!-- Node26&#45;&gt;Node27 -->
<g id="edge28" class="edge">
<title>Node26&#45;&gt;Node27</title>
<path fill="none" stroke="midnightblue" d="M1064.04,-112.08C1070.46,-104.38 1079.91,-93.03 1087.73,-83.65"/>
<polygon fill="midnightblue" stroke="midnightblue" points="1090.6,-85.67 1094.31,-75.75 1085.22,-81.19 1090.6,-85.67"/>
</g>
<!-- Node28 -->
<g id="node28" class="node">
<title>Node28</title>
<g id="a_node28"><a xlink:href="logger_8h.html" target="_top" xlink:title=" ">
<polygon fill="white" stroke="black" points="958.11,-56.5 958.11,-75.5 1009.11,-75.5 1009.11,-56.5 958.11,-56.5"/>
<text text-anchor="middle" x="983.61" y="-63.5" font-family="Helvetica,sans-Serif" font-size="10.00">logger.h</text>
</a>
</g>
</g>
<!-- Node26&#45;&gt;Node28 -->
<g id="edge29" class="edge">
<title>Node26&#45;&gt;Node28</title>
<path fill="none" stroke="midnightblue" d="M1044.88,-112.32C1033.77,-104.11 1016.87,-91.6 1003.62,-81.81"/>
<polygon fill="midnightblue" stroke="midnightblue" points="1005.67,-78.97 995.55,-75.83 1001.51,-84.59 1005.67,-78.97"/>
</g>
<!-- Node28&#45;&gt;Node7 -->
<g id="edge32" class="edge">
<title>Node28&#45;&gt;Node7</title>
<path fill="none" stroke="midnightblue" d="M957.9,-58.6C953.17,-57.6 948.26,-56.67 943.61,-56 701.69,-20.94 406.96,-13.14 305.2,-11.45"/>
<polygon fill="midnightblue" stroke="midnightblue" points="305.19,-7.95 295.14,-11.3 305.08,-14.95 305.19,-7.95"/>
</g>
<!-- Node28&#45;&gt;Node20 -->
<g id="edge34" class="edge">
<title>Node28&#45;&gt;Node20</title>
<path fill="none" stroke="midnightblue" d="M1005,-56.44C1027.31,-47.52 1062.51,-33.44 1087.82,-23.32"/>
<polygon fill="midnightblue" stroke="midnightblue" points="1089.33,-26.48 1097.32,-19.52 1086.73,-19.98 1089.33,-26.48"/>
</g>
<!-- Node29 -->
<g id="node29" class="node">
<title>Node29</title>
<g id="a_node29"><a xlink:title=" ">
<polygon fill="white" stroke="#bfbfbf" points="963.61,-0.5 963.61,-19.5 1003.61,-19.5 1003.61,-0.5 963.61,-0.5"/>
<text text-anchor="middle" x="983.61" y="-7.5" font-family="Helvetica,sans-Serif" font-size="10.00">QFile</text>
</a>
</g>
</g>
<!-- Node28&#45;&gt;Node29 -->
<g id="edge30" class="edge">
<title>Node28&#45;&gt;Node29</title>
<path fill="none" stroke="midnightblue" d="M983.61,-56.08C983.61,-49.01 983.61,-38.86 983.61,-29.99"/>
<polygon fill="midnightblue" stroke="midnightblue" points="987.11,-29.75 983.61,-19.75 980.11,-29.75 987.11,-29.75"/>
</g>
<!-- Node30 -->
<g id="node30" class="node">
<title>Node30</title>
<g id="a_node30"><a xlink:title=" ">
<polygon fill="white" stroke="#bfbfbf" points="1022.11,-0.5 1022.11,-19.5 1073.11,-19.5 1073.11,-0.5 1022.11,-0.5"/>
<text text-anchor="middle" x="1047.61" y="-7.5" font-family="Helvetica,sans-Serif" font-size="10.00">QMutex</text>
</a>
</g>
</g>
<!-- Node28&#45;&gt;Node30 -->
<g id="edge31" class="edge">
<title>Node28&#45;&gt;Node30</title>
<path fill="none" stroke="midnightblue" d="M993.89,-56.32C1003.44,-48.26 1017.89,-36.08 1029.39,-26.37"/>
<polygon fill="midnightblue" stroke="midnightblue" points="1031.75,-28.96 1037.14,-19.83 1027.24,-23.61 1031.75,-28.96"/>
</g>
<!-- Node31 -->
<g id="node31" class="node">
<title>Node31</title>
<g id="a_node31"><a xlink:title=" ">
<polygon fill="white" stroke="#bfbfbf" points="801.61,-0.5 801.61,-19.5 875.61,-19.5 875.61,-0.5 801.61,-0.5"/>
<text text-anchor="middle" x="838.61" y="-7.5" font-family="Helvetica,sans-Serif" font-size="10.00">QTextStream</text>
</a>
</g>
</g>
<!-- Node28&#45;&gt;Node31 -->
<g id="edge33" class="edge">
<title>Node28&#45;&gt;Node31</title>
<path fill="none" stroke="midnightblue" d="M960.63,-56.44C936.45,-47.44 898.19,-33.19 870.96,-23.05"/>
<polygon fill="midnightblue" stroke="midnightblue" points="872.07,-19.73 861.48,-19.52 869.63,-26.29 872.07,-19.73"/>
</g>
<!-- Node32 -->
<g id="node32" class="node">
<title>Node32</title>
<g id="a_node32"><a xlink:title=" ">
<polygon fill="white" stroke="#bfbfbf" points="893.61,-0.5 893.61,-19.5 945.61,-19.5 945.61,-0.5 893.61,-0.5"/>
<text text-anchor="middle" x="919.61" y="-7.5" font-family="Helvetica,sans-Serif" font-size="10.00">sstream</text>
</a>
</g>
</g>
<!-- Node28&#45;&gt;Node32 -->
<g id="edge35" class="edge">
<title>Node28&#45;&gt;Node32</title>
<path fill="none" stroke="midnightblue" d="M973.32,-56.32C963.77,-48.26 949.33,-36.08 937.82,-26.37"/>
<polygon fill="midnightblue" stroke="midnightblue" points="939.98,-23.61 930.08,-19.83 935.46,-28.96 939.98,-23.61"/>
</g>
<!-- Node35&#45;&gt;Node7 -->
<g id="edge39" class="edge">
<title>Node35&#45;&gt;Node7</title>
<path fill="none" stroke="midnightblue" d="M849.15,-112.41C884.37,-101.36 933.58,-80.64 910.61,-56 869.24,-11.64 436.14,-10.16 305.63,-10.73"/>
<polygon fill="midnightblue" stroke="midnightblue" points="305.33,-7.23 295.35,-10.78 305.37,-14.23 305.33,-7.23"/>
</g>
<!-- Node35&#45;&gt;Node21 -->
<g id="edge40" class="edge">
<title>Node35&#45;&gt;Node21</title>
<path fill="none" stroke="midnightblue" d="M827.09,-112.32C835.81,-104.34 848.95,-92.31 859.5,-82.65"/>
<polygon fill="midnightblue" stroke="midnightblue" points="861.94,-85.17 866.96,-75.83 857.22,-80 861.94,-85.17"/>
</g>
<!-- Node40&#45;&gt;Node4 -->
<g id="edge50" class="edge">
<title>Node40&#45;&gt;Node4</title>
<path fill="none" stroke="midnightblue" d="M664.1,-336.3C674.48,-328.25 688.49,-315.24 694.61,-300 705.87,-271.9 752.89,-280.59 692.61,-168 685.2,-154.17 671.46,-143.72 658.51,-136.39"/>
<polygon fill="midnightblue" stroke="midnightblue" points="659.81,-133.12 649.32,-131.6 656.57,-139.33 659.81,-133.12"/>
</g>
<!-- Node40&#45;&gt;Node22 -->
<g id="edge51" class="edge">
<title>Node40&#45;&gt;Node22</title>
<path fill="none" stroke="midnightblue" d="M645,-336.08C639.35,-328.46 631.06,-317.26 624.16,-307.94"/>
<polygon fill="midnightblue" stroke="midnightblue" points="626.85,-305.7 618.09,-299.75 621.23,-309.87 626.85,-305.7"/>
</g>
<!-- Node41&#45;&gt;Node3 -->
<g id="edge53" class="edge">
<title>Node41&#45;&gt;Node3</title>
<path fill="none" stroke="midnightblue" d="M473.53,-224.44C498.83,-215.4 538.91,-201.06 567.29,-190.92"/>
<polygon fill="midnightblue" stroke="midnightblue" points="568.56,-194.18 576.79,-187.52 566.2,-187.59 568.56,-194.18"/>
</g>
<!-- Node43 -->
<g id="node43" class="node">
<title>Node43</title>
<g id="a_node43"><a xlink:href="joyaxis_8h.html" target="_top" xlink:title=" ">
<polygon fill="white" stroke="black" points="152.61,-280.5 152.61,-299.5 208.61,-299.5 208.61,-280.5 152.61,-280.5"/>
<text text-anchor="middle" x="180.61" y="-287.5" font-family="Helvetica,sans-Serif" font-size="10.00">joyaxis.h</text>
</a>
</g>
</g>
<!-- Node42&#45;&gt;Node43 -->
<g id="edge55" class="edge">
<title>Node42&#45;&gt;Node43</title>
<path fill="none" stroke="midnightblue" d="M180.61,-336.08C180.61,-329.01 180.61,-318.86 180.61,-309.99"/>
<polygon fill="midnightblue" stroke="midnightblue" points="184.11,-309.75 180.61,-299.75 177.11,-309.75 184.11,-309.75"/>
</g>
<!-- Node45 -->
<g id="node45" class="node">
<title>Node45</title>
<g id="a_node45"><a xlink:href="setjoystickxml_8h.html" target="_top" xlink:title=" ">
<polygon fill="white" stroke="black" points="46.61,-224.5 46.61,-243.5 152.61,-243.5 152.61,-224.5 46.61,-224.5"/>
<text text-anchor="middle" x="99.61" y="-231.5" font-family="Helvetica,sans-Serif" font-size="10.00">xml/setjoystickxml.h</text>
</a>
</g>
</g>
<!-- Node42&#45;&gt;Node45 -->
<g id="edge61" class="edge">
<title>Node42&#45;&gt;Node45</title>
<path fill="none" stroke="midnightblue" d="M172.99,-336.23C165.32,-327.3 153.29,-312.96 143.61,-300 131.79,-284.19 119.26,-265.46 110.61,-252.18"/>
<polygon fill="midnightblue" stroke="midnightblue" points="113.42,-250.09 105.06,-243.59 107.55,-253.89 113.42,-250.09"/>
</g>
<!-- Node43&#45;&gt;Node6 -->
<g id="edge56" class="edge">
<title>Node43&#45;&gt;Node6</title>
<path fill="none" stroke="midnightblue" d="M152.37,-288.63C119.46,-286.57 65.96,-277.8 37.61,-244 -16.46,-179.55 -0.3,-138.61 15.61,-56 17.4,-46.7 21.09,-36.89 24.67,-28.8"/>
<polygon fill="midnightblue" stroke="midnightblue" points="27.88,-30.2 28.99,-19.66 21.55,-27.21 27.88,-30.2"/>
</g>
<!-- Node43&#45;&gt;Node7 -->
<g id="edge57" class="edge">
<title>Node43&#45;&gt;Node7</title>
<path fill="none" stroke="midnightblue" d="M180.61,-280.44C180.61,-261.94 180.61,-216.81 180.61,-179 180.61,-179 180.61,-179 180.61,-121 180.61,-90.9 181.67,-80.17 199.61,-56 209.65,-42.47 225.06,-31.86 238.78,-24.35"/>
<polygon fill="midnightblue" stroke="midnightblue" points="240.62,-27.34 247.91,-19.65 237.42,-21.12 240.62,-27.34"/>
</g>
<!-- Node44 -->
<g id="node44" class="node">
<title>Node44</title>
<g id="a_node44"><a xlink:href="joyaxisbutton_8h.html" target="_top" xlink:title=" ">
<polygon fill="white" stroke="black" points="208.11,-224.5 208.11,-243.5 357.11,-243.5 357.11,-224.5 208.11,-224.5"/>
<text text-anchor="middle" x="282.61" y="-231.5" font-family="Helvetica,sans-Serif" font-size="10.00">joybuttontypes/joyaxisbutton.h</text>
</a>
</g>
</g>
<!-- Node43&#45;&gt;Node44 -->
<g id="edge58" class="edge">
<title>Node43&#45;&gt;Node44</title>
<path fill="none" stroke="midnightblue" d="M197,-280.32C213.28,-271.7 238.47,-258.36 257.32,-248.39"/>
<polygon fill="midnightblue" stroke="midnightblue" points="259.06,-251.43 266.26,-243.65 255.78,-245.24 259.06,-251.43"/>
</g>
<!-- Node44&#45;&gt;Node3 -->
<g id="edge59" class="edge">
<title>Node44&#45;&gt;Node3</title>
<path fill="none" stroke="midnightblue" d="M333,-224.44C389.28,-214.89 480.36,-199.42 540.37,-189.23"/>
<polygon fill="midnightblue" stroke="midnightblue" points="541.18,-192.64 550.45,-187.52 540.01,-185.74 541.18,-192.64"/>
</g>
<!-- Node44&#45;&gt;Node28 -->
<g id="edge60" class="edge">
<title>Node44&#45;&gt;Node28</title>
<path fill="none" stroke="midnightblue" d="M307.11,-224.42C348.36,-210.33 434.53,-182.42 509.61,-168 666.22,-137.93 714.44,-179.71 866.61,-132 903.24,-120.51 941.33,-96.78 963.73,-81.39"/>
<polygon fill="midnightblue" stroke="midnightblue" points="965.87,-84.16 972.05,-75.56 961.85,-78.43 965.87,-84.16"/>
</g>
<!-- Node45&#45;&gt;Node7 -->
<g id="edge62" class="edge">
<title>Node45&#45;&gt;Node7</title>
<path fill="none" stroke="midnightblue" d="M100.52,-224.39C103.92,-196.43 118.24,-107.03 166.61,-56 184.08,-37.57 210.44,-26.21 231.98,-19.51"/>
<polygon fill="midnightblue" stroke="midnightblue" points="233.17,-22.81 241.8,-16.67 231.22,-16.09 233.17,-22.81"/>
</g>
</g>
</svg>
