<?xml version="1.0" encoding="UTF-8" standalone="no"?>
<!DOCTYPE svg PUBLIC "-//W3C//DTD SVG 1.1//EN"
 "http://www.w3.org/Graphics/SVG/1.1/DTD/svg11.dtd">
<!-- Generated by graphviz version 2.43.0 (0)
 -->
<!-- Title: /home/pawel/antimicrox/src/mousedialog/uihelpers/mousecontrolsticksettingsdialoghelper.h Pages: 1 -->
<svg width="643pt" height="195pt"
 viewBox="0.00 0.00 642.50 195.00" xmlns="http://www.w3.org/2000/svg" xmlns:xlink="http://www.w3.org/1999/xlink">
<g id="graph0" class="graph" transform="scale(1 1) rotate(0) translate(4 191)">
<title>/home/pawel/antimicrox/src/mousedialog/uihelpers/mousecontrolsticksettingsdialoghelper.h</title>
<polygon fill="white" stroke="transparent" points="-4,4 -4,-191 638.5,-191 638.5,4 -4,4"/>
<!-- Node1 -->
<g id="node1" class="node">
<title>Node1</title>
<g id="a_node1"><a xlink:title=" ">
<polygon fill="#bfbfbf" stroke="black" points="300.5,-145.5 300.5,-186.5 494.5,-186.5 494.5,-145.5 300.5,-145.5"/>
<text text-anchor="start" x="308.5" y="-174.5" font-family="Helvetica,sans-Serif" font-size="10.00">/home/pawel/antimicrox</text>
<text text-anchor="start" x="308.5" y="-163.5" font-family="Helvetica,sans-Serif" font-size="10.00">/src/mousedialog/uihelpers</text>
<text text-anchor="middle" x="397.5" y="-152.5" font-family="Helvetica,sans-Serif" font-size="10.00">/mousecontrolsticksettingsdialoghelper.h</text>
</a>
</g>
</g>
<!-- Node2 -->
<g id="node2" class="node">
<title>Node2</title>
<g id="a_node2"><a xlink:href="mousecontrolsticksettingsdialog_8h.html" target="_top" xlink:title=" ">
<polygon fill="white" stroke="black" points="156.5,-73 156.5,-103 398.5,-103 398.5,-73 156.5,-73"/>
<text text-anchor="start" x="164.5" y="-91" font-family="Helvetica,sans-Serif" font-size="10.00">/home/pawel/antimicrox</text>
<text text-anchor="middle" x="277.5" y="-80" font-family="Helvetica,sans-Serif" font-size="10.00">/src/mousedialog/mousecontrolsticksettingsdialog.h</text>
</a>
</g>
</g>
<!-- Node1&#45;&gt;Node2 -->
<g id="edge1" class="edge">
<title>Node1&#45;&gt;Node2</title>
<path fill="none" stroke="midnightblue" d="M358,-139.99C338.73,-127.78 316.26,-113.55 299.96,-103.23"/>
<polygon fill="midnightblue" stroke="midnightblue" points="356.28,-143.03 366.6,-145.43 360.02,-137.12 356.28,-143.03"/>
</g>
<!-- Node6 -->
<g id="node6" class="node">
<title>Node6</title>
<g id="a_node6"><a xlink:href="mousecontrolsticksettingsdialoghelper_8cpp.html" target="_top" xlink:title=" ">
<polygon fill="white" stroke="black" points="416.5,-67.5 416.5,-108.5 620.5,-108.5 620.5,-67.5 416.5,-67.5"/>
<text text-anchor="start" x="424.5" y="-96.5" font-family="Helvetica,sans-Serif" font-size="10.00">/home/pawel/antimicrox</text>
<text text-anchor="start" x="424.5" y="-85.5" font-family="Helvetica,sans-Serif" font-size="10.00">/src/mousedialog/uihelpers</text>
<text text-anchor="middle" x="518.5" y="-74.5" font-family="Helvetica,sans-Serif" font-size="10.00">/mousecontrolsticksettingsdialoghelper.cpp</text>
</a>
</g>
</g>
<!-- Node1&#45;&gt;Node6 -->
<g id="edge5" class="edge">
<title>Node1&#45;&gt;Node6</title>
<path fill="none" stroke="midnightblue" d="M437.43,-139.92C453.7,-129.7 472.22,-118.07 487.45,-108.51"/>
<polygon fill="midnightblue" stroke="midnightblue" points="435.27,-137.15 428.66,-145.43 438.99,-143.07 435.27,-137.15"/>
</g>
<!-- Node3 -->
<g id="node3" class="node">
<title>Node3</title>
<g id="a_node3"><a xlink:href="joycontrolstickeditdialog_8cpp.html" target="_top" xlink:title=" ">
<polygon fill="white" stroke="black" points="0,-0.5 0,-30.5 173,-30.5 173,-0.5 0,-0.5"/>
<text text-anchor="start" x="8" y="-18.5" font-family="Helvetica,sans-Serif" font-size="10.00">/home/pawel/antimicrox</text>
<text text-anchor="middle" x="86.5" y="-7.5" font-family="Helvetica,sans-Serif" font-size="10.00">/src/gui/joycontrolstickeditdialog.cpp</text>
</a>
</g>
</g>
<!-- Node2&#45;&gt;Node3 -->
<g id="edge2" class="edge">
<title>Node2&#45;&gt;Node3</title>
<path fill="none" stroke="midnightblue" d="M229.57,-69.31C197.11,-57.33 154.8,-41.71 124.63,-30.57"/>
<polygon fill="midnightblue" stroke="midnightblue" points="228.71,-72.72 239.31,-72.9 231.14,-66.16 228.71,-72.72"/>
</g>
<!-- Node4 -->
<g id="node4" class="node">
<title>Node4</title>
<g id="a_node4"><a xlink:href="joycontrolstickcontextmenu_8cpp.html" target="_top" xlink:title=" ">
<polygon fill="white" stroke="black" points="191,-0.5 191,-30.5 364,-30.5 364,-0.5 191,-0.5"/>
<text text-anchor="start" x="199" y="-18.5" font-family="Helvetica,sans-Serif" font-size="10.00">/home/pawel/antimicrox</text>
<text text-anchor="middle" x="277.5" y="-7.5" font-family="Helvetica,sans-Serif" font-size="10.00">/src/joycontrolstickcontextmenu.cpp</text>
</a>
</g>
</g>
<!-- Node2&#45;&gt;Node4 -->
<g id="edge3" class="edge">
<title>Node2&#45;&gt;Node4</title>
<path fill="none" stroke="midnightblue" d="M277.5,-62.73C277.5,-52.07 277.5,-39.91 277.5,-30.75"/>
<polygon fill="midnightblue" stroke="midnightblue" points="274,-62.73 277.5,-72.73 281,-62.73 274,-62.73"/>
</g>
<!-- Node5 -->
<g id="node5" class="node">
<title>Node5</title>
<g id="a_node5"><a xlink:href="mousecontrolsticksettingsdialog_8cpp.html" target="_top" xlink:title=" ">
<polygon fill="white" stroke="black" points="382.5,-0.5 382.5,-30.5 634.5,-30.5 634.5,-0.5 382.5,-0.5"/>
<text text-anchor="start" x="390.5" y="-18.5" font-family="Helvetica,sans-Serif" font-size="10.00">/home/pawel/antimicrox</text>
<text text-anchor="middle" x="508.5" y="-7.5" font-family="Helvetica,sans-Serif" font-size="10.00">/src/mousedialog/mousecontrolsticksettingsdialog.cpp</text>
</a>
</g>
</g>
<!-- Node2&#45;&gt;Node5 -->
<g id="edge4" class="edge">
<title>Node2&#45;&gt;Node5</title>
<path fill="none" stroke="midnightblue" d="M333.16,-70.01C372.67,-57.96 425.08,-41.96 462.28,-30.61"/>
<polygon fill="midnightblue" stroke="midnightblue" points="331.96,-66.72 323.41,-72.99 334,-73.42 331.96,-66.72"/>
</g>
</g>
</svg>
