<?xml version="1.0" encoding="UTF-8" standalone="no"?>
<!DOCTYPE svg PUBLIC "-//W3C//DTD SVG 1.1//EN"
 "http://www.w3.org/Graphics/SVG/1.1/DTD/svg11.dtd">
<!-- Generated by graphviz version 2.43.0 (0)
 -->
<!-- Title: /home/pawel/antimicrox/src/mousedialog/mousecontrolsticksettingsdialog.cpp Pages: 1 -->
<svg width="1692pt" height="487pt"
 viewBox="0.00 0.00 1692.14 487.00" xmlns="http://www.w3.org/2000/svg" xmlns:xlink="http://www.w3.org/1999/xlink">
<g id="graph0" class="graph" transform="scale(1 1) rotate(0) translate(4 483)">
<title>/home/pawel/antimicrox/src/mousedialog/mousecontrolsticksettingsdialog.cpp</title>
<polygon fill="white" stroke="transparent" points="-4,4 -4,-483 1688.14,-483 1688.14,4 -4,4"/>
<!-- Node1 -->
<g id="node1" class="node">
<title>Node1</title>
<g id="a_node1"><a xlink:title=" ">
<polygon fill="#bfbfbf" stroke="black" points="914,-448.5 914,-478.5 1166,-478.5 1166,-448.5 914,-448.5"/>
<text text-anchor="start" x="922" y="-466.5" font-family="Helvetica,sans-Serif" font-size="10.00">/home/pawel/antimicrox</text>
<text text-anchor="middle" x="1040" y="-455.5" font-family="Helvetica,sans-Serif" font-size="10.00">/src/mousedialog/mousecontrolsticksettingsdialog.cpp</text>
</a>
</g>
</g>
<!-- Node2 -->
<g id="node2" class="node">
<title>Node2</title>
<g id="a_node2"><a xlink:href="$mousecontrolsticksettingsdialog_8h.html" xlink:title=" ">
<polygon fill="white" stroke="black" points="321,-224.5 321,-243.5 485,-243.5 485,-224.5 321,-224.5"/>
<text text-anchor="middle" x="403" y="-231.5" font-family="Helvetica,sans-Serif" font-size="10.00">mousecontrolsticksettingsdialog.h</text>
</a>
</g>
</g>
<!-- Node1&#45;&gt;Node2 -->
<g id="edge1" class="edge">
<title>Node1&#45;&gt;Node2</title>
<path fill="none" stroke="midnightblue" d="M913.77,-457.78C799.17,-451.83 639.69,-438.93 583,-412 504.51,-374.71 439.62,-289 414.35,-252.25"/>
<polygon fill="midnightblue" stroke="midnightblue" points="417.04,-249.97 408.55,-243.64 411.24,-253.89 417.04,-249.97"/>
</g>
<!-- Node25 -->
<g id="node23" class="node">
<title>Node25</title>
<g id="a_node23"><a xlink:href="$common_8h.html" xlink:title=" ">
<polygon fill="white" stroke="black" points="1341,-280.5 1341,-299.5 1403,-299.5 1403,-280.5 1341,-280.5"/>
<text text-anchor="middle" x="1372" y="-287.5" font-family="Helvetica,sans-Serif" font-size="10.00">common.h</text>
</a>
</g>
</g>
<!-- Node1&#45;&gt;Node25 -->
<g id="edge25" class="edge">
<title>Node1&#45;&gt;Node25</title>
<path fill="none" stroke="midnightblue" d="M1041.68,-448.21C1045.79,-420.68 1059.09,-360.85 1099,-336 1136.93,-312.38 1263.92,-299.32 1330.48,-293.95"/>
<polygon fill="midnightblue" stroke="midnightblue" points="1330.93,-297.43 1340.63,-293.16 1330.38,-290.45 1330.93,-297.43"/>
</g>
<!-- Node41 -->
<g id="node35" class="node">
<title>Node41</title>
<g id="a_node35"><a xlink:href="$inputdevice_8h.html" xlink:title=" ">
<polygon fill="white" stroke="black" points="900,-392.5 900,-411.5 974,-411.5 974,-392.5 900,-392.5"/>
<text text-anchor="middle" x="937" y="-399.5" font-family="Helvetica,sans-Serif" font-size="10.00">inputdevice.h</text>
</a>
</g>
</g>
<!-- Node1&#45;&gt;Node41 -->
<g id="edge42" class="edge">
<title>Node1&#45;&gt;Node41</title>
<path fill="none" stroke="midnightblue" d="M1015.59,-448.4C999.08,-438.86 977.38,-426.32 960.96,-416.84"/>
<polygon fill="midnightblue" stroke="midnightblue" points="962.4,-413.63 951.99,-411.66 958.9,-419.69 962.4,-413.63"/>
</g>
<!-- Node42 -->
<g id="node36" class="node">
<title>Node42</title>
<g id="a_node36"><a xlink:href="$setjoystick_8h.html" xlink:title=" ">
<polygon fill="white" stroke="black" points="944.5,-336.5 944.5,-355.5 1015.5,-355.5 1015.5,-336.5 944.5,-336.5"/>
<text text-anchor="middle" x="980" y="-343.5" font-family="Helvetica,sans-Serif" font-size="10.00">setjoystick.h</text>
</a>
</g>
</g>
<!-- Node1&#45;&gt;Node42 -->
<g id="edge59" class="edge">
<title>Node1&#45;&gt;Node42</title>
<path fill="none" stroke="midnightblue" d="M1032.64,-448.34C1021.68,-427.24 1001.09,-387.6 989.17,-364.65"/>
<polygon fill="midnightblue" stroke="midnightblue" points="992.22,-362.93 984.5,-355.67 986.01,-366.16 992.22,-362.93"/>
</g>
<!-- Node48 -->
<g id="node42" class="node">
<title>Node48</title>
<g id="a_node42"><a xlink:href="$joycontrolstickbutton_8h.html" xlink:title=" ">
<polygon fill="white" stroke="black" points="697.5,-392.5 697.5,-411.5 878.5,-411.5 878.5,-392.5 697.5,-392.5"/>
<text text-anchor="middle" x="788" y="-399.5" font-family="Helvetica,sans-Serif" font-size="10.00">joybuttontypes/joycontrolstickbutton.h</text>
</a>
</g>
</g>
<!-- Node1&#45;&gt;Node48 -->
<g id="edge53" class="edge">
<title>Node1&#45;&gt;Node48</title>
<path fill="none" stroke="midnightblue" d="M980.6,-448.47C935.7,-437.87 874.97,-423.53 833.79,-413.81"/>
<polygon fill="midnightblue" stroke="midnightblue" points="834.56,-410.4 824.03,-411.51 832.96,-417.21 834.56,-410.4"/>
</g>
<!-- Node50 -->
<g id="node44" class="node">
<title>Node50</title>
<g id="a_node44"><a xlink:href="$joycontrolstick_8h.html" xlink:title=" ">
<polygon fill="white" stroke="black" points="592.5,-392.5 592.5,-411.5 679.5,-411.5 679.5,-392.5 592.5,-392.5"/>
<text text-anchor="middle" x="636" y="-399.5" font-family="Helvetica,sans-Serif" font-size="10.00">joycontrolstick.h</text>
</a>
</g>
</g>
<!-- Node1&#45;&gt;Node50 -->
<g id="edge56" class="edge">
<title>Node1&#45;&gt;Node50</title>
<path fill="none" stroke="midnightblue" d="M936.69,-448.48C869.01,-439.1 778.37,-426.19 689.65,-412.23"/>
<polygon fill="midnightblue" stroke="midnightblue" points="690.1,-408.76 679.68,-410.65 689.01,-415.67 690.1,-408.76"/>
</g>
<!-- Node51 -->
<g id="node45" class="node">
<title>Node51</title>
<g id="a_node45"><a xlink:href="$springmoderegionpreview_8h.html" xlink:title=" ">
<polygon fill="white" stroke="black" points="1068,-392.5 1068,-411.5 1202,-411.5 1202,-392.5 1068,-392.5"/>
<text text-anchor="middle" x="1135" y="-399.5" font-family="Helvetica,sans-Serif" font-size="10.00">springmoderegionpreview.h</text>
</a>
</g>
</g>
<!-- Node1&#45;&gt;Node51 -->
<g id="edge60" class="edge">
<title>Node1&#45;&gt;Node51</title>
<path fill="none" stroke="midnightblue" d="M1062.51,-448.4C1077.6,-438.95 1097.39,-426.56 1112.47,-417.11"/>
<polygon fill="midnightblue" stroke="midnightblue" points="1114.56,-419.93 1121.18,-411.66 1110.84,-414 1114.56,-419.93"/>
</g>
<!-- Node53 -->
<g id="node47" class="node">
<title>Node53</title>
<g id="a_node47"><a xlink:title=" ">
<polygon fill="white" stroke="#bfbfbf" points="1220.5,-392.5 1220.5,-411.5 1293.5,-411.5 1293.5,-392.5 1220.5,-392.5"/>
<text text-anchor="middle" x="1257" y="-399.5" font-family="Helvetica,sans-Serif" font-size="10.00">QComboBox</text>
</a>
</g>
</g>
<!-- Node1&#45;&gt;Node53 -->
<g id="edge62" class="edge">
<title>Node1&#45;&gt;Node53</title>
<path fill="none" stroke="midnightblue" d="M1091.15,-448.47C1129.24,-438.03 1180.57,-423.96 1215.98,-414.25"/>
<polygon fill="midnightblue" stroke="midnightblue" points="1217.26,-417.53 1225.98,-411.51 1215.41,-410.78 1217.26,-417.53"/>
</g>
<!-- Node54 -->
<g id="node48" class="node">
<title>Node54</title>
<g id="a_node48"><a xlink:title=" ">
<polygon fill="white" stroke="#bfbfbf" points="1311.5,-392.5 1311.5,-411.5 1364.5,-411.5 1364.5,-392.5 1311.5,-392.5"/>
<text text-anchor="middle" x="1338" y="-399.5" font-family="Helvetica,sans-Serif" font-size="10.00">QDebug</text>
</a>
</g>
</g>
<!-- Node1&#45;&gt;Node54 -->
<g id="edge63" class="edge">
<title>Node1&#45;&gt;Node54</title>
<path fill="none" stroke="midnightblue" d="M1119.97,-448.48C1169.78,-439.43 1235.38,-426.95 1301.53,-412.24"/>
<polygon fill="midnightblue" stroke="midnightblue" points="1302.3,-415.65 1311.29,-410.05 1300.76,-408.82 1302.3,-415.65"/>
</g>
<!-- Node55 -->
<g id="node49" class="node">
<title>Node55</title>
<g id="a_node49"><a xlink:title=" ">
<polygon fill="white" stroke="#bfbfbf" points="1383,-392.5 1383,-411.5 1461,-411.5 1461,-392.5 1383,-392.5"/>
<text text-anchor="middle" x="1422" y="-399.5" font-family="Helvetica,sans-Serif" font-size="10.00">QHashIterator</text>
</a>
</g>
</g>
<!-- Node1&#45;&gt;Node55 -->
<g id="edge64" class="edge">
<title>Node1&#45;&gt;Node55</title>
<path fill="none" stroke="midnightblue" d="M1138.79,-448.5C1202.82,-439.2 1288.27,-426.38 1372.94,-412.13"/>
<polygon fill="midnightblue" stroke="midnightblue" points="1373.71,-415.55 1382.99,-410.43 1372.54,-408.65 1373.71,-415.55"/>
</g>
<!-- Node56 -->
<g id="node50" class="node">
<title>Node56</title>
<g id="a_node50"><a xlink:title=" ">
<polygon fill="white" stroke="#bfbfbf" points="1479.5,-392.5 1479.5,-411.5 1540.5,-411.5 1540.5,-392.5 1479.5,-392.5"/>
<text text-anchor="middle" x="1510" y="-399.5" font-family="Helvetica,sans-Serif" font-size="10.00">QSpinBox</text>
</a>
</g>
</g>
<!-- Node1&#45;&gt;Node56 -->
<g id="edge65" class="edge">
<title>Node1&#45;&gt;Node56</title>
<path fill="none" stroke="midnightblue" d="M1166.09,-451.19C1249.45,-442.88 1361.3,-430.16 1469.38,-411.93"/>
<polygon fill="midnightblue" stroke="midnightblue" points="1470.22,-415.34 1479.49,-410.21 1469.04,-408.44 1470.22,-415.34"/>
</g>
<!-- Node3 -->
<g id="node3" class="node">
<title>Node3</title>
<g id="a_node3"><a xlink:title=" ">
<polygon fill="white" stroke="#bfbfbf" points="293.5,-168.5 293.5,-187.5 420.5,-187.5 420.5,-168.5 293.5,-168.5"/>
<text text-anchor="middle" x="357" y="-175.5" font-family="Helvetica,sans-Serif" font-size="10.00">ui_mousesettingsdialog.h</text>
</a>
</g>
</g>
<!-- Node2&#45;&gt;Node3 -->
<g id="edge2" class="edge">
<title>Node2&#45;&gt;Node3</title>
<path fill="none" stroke="midnightblue" d="M395.4,-224.08C388.77,-216.3 378.98,-204.8 370.94,-195.37"/>
<polygon fill="midnightblue" stroke="midnightblue" points="373.6,-193.09 364.45,-187.75 368.27,-197.63 373.6,-193.09"/>
</g>
<!-- Node4 -->
<g id="node4" class="node">
<title>Node4</title>
<g id="a_node4"><a xlink:href="$mousesettingsdialog_8h.html" xlink:title=" ">
<polygon fill="white" stroke="black" points="439,-168.5 439,-187.5 553,-187.5 553,-168.5 439,-168.5"/>
<text text-anchor="middle" x="496" y="-175.5" font-family="Helvetica,sans-Serif" font-size="10.00">mousesettingsdialog.h</text>
</a>
</g>
</g>
<!-- Node2&#45;&gt;Node4 -->
<g id="edge3" class="edge">
<title>Node2&#45;&gt;Node4</title>
<path fill="none" stroke="midnightblue" d="M417.94,-224.32C432.59,-215.82 455.13,-202.73 472.24,-192.8"/>
<polygon fill="midnightblue" stroke="midnightblue" points="474.2,-195.7 481.1,-187.65 470.69,-189.65 474.2,-195.7"/>
</g>
<!-- Node24 -->
<g id="node22" class="node">
<title>Node24</title>
<g id="a_node22"><a xlink:href="$mousecontrolsticksettingsdialoghelper_8h.html" xlink:title=" ">
<polygon fill="white" stroke="black" points="94.5,-112.5 94.5,-131.5 327.5,-131.5 327.5,-112.5 94.5,-112.5"/>
<text text-anchor="middle" x="211" y="-119.5" font-family="Helvetica,sans-Serif" font-size="10.00">uihelpers/mousecontrolsticksettingsdialoghelper.h</text>
</a>
</g>
</g>
<!-- Node2&#45;&gt;Node24 -->
<g id="edge23" class="edge">
<title>Node2&#45;&gt;Node24</title>
<path fill="none" stroke="midnightblue" d="M371.25,-224.47C346.41,-216.99 311.58,-204.7 284,-188 261.67,-174.48 239.82,-153.74 225.94,-139.34"/>
<polygon fill="midnightblue" stroke="midnightblue" points="228.14,-136.58 218.74,-131.69 223.04,-141.37 228.14,-136.58"/>
</g>
<!-- Node5 -->
<g id="node5" class="node">
<title>Node5</title>
<g id="a_node5"><a xlink:href="$joybutton_8h.html" xlink:title=" ">
<polygon fill="white" stroke="black" points="619.5,-112.5 619.5,-131.5 684.5,-131.5 684.5,-112.5 619.5,-112.5"/>
<text text-anchor="middle" x="652" y="-119.5" font-family="Helvetica,sans-Serif" font-size="10.00">joybutton.h</text>
</a>
</g>
</g>
<!-- Node4&#45;&gt;Node5 -->
<g id="edge4" class="edge">
<title>Node4&#45;&gt;Node5</title>
<path fill="none" stroke="midnightblue" d="M520.72,-168.44C546.85,-159.4 588.26,-145.06 617.58,-134.92"/>
<polygon fill="midnightblue" stroke="midnightblue" points="619.09,-138.1 627.4,-131.52 616.8,-131.48 619.09,-138.1"/>
</g>
<!-- Node23 -->
<g id="node21" class="node">
<title>Node23</title>
<g id="a_node21"><a xlink:title=" ">
<polygon fill="white" stroke="#bfbfbf" points="470,-112.5 470,-131.5 522,-131.5 522,-112.5 470,-112.5"/>
<text text-anchor="middle" x="496" y="-119.5" font-family="Helvetica,sans-Serif" font-size="10.00">QDialog</text>
</a>
</g>
</g>
<!-- Node4&#45;&gt;Node23 -->
<g id="edge22" class="edge">
<title>Node4&#45;&gt;Node23</title>
<path fill="none" stroke="midnightblue" d="M496,-168.08C496,-161.01 496,-150.86 496,-141.99"/>
<polygon fill="midnightblue" stroke="midnightblue" points="499.5,-141.75 496,-131.75 492.5,-141.75 499.5,-141.75"/>
</g>
<!-- Node6 -->
<g id="node6" class="node">
<title>Node6</title>
<g id="a_node6"><a xlink:href="$globalvariables_8h.html" xlink:title=" ">
<polygon fill="white" stroke="black" points="226.5,-56.5 226.5,-75.5 315.5,-75.5 315.5,-56.5 226.5,-56.5"/>
<text text-anchor="middle" x="271" y="-63.5" font-family="Helvetica,sans-Serif" font-size="10.00">globalvariables.h</text>
</a>
</g>
</g>
<!-- Node5&#45;&gt;Node6 -->
<g id="edge5" class="edge">
<title>Node5&#45;&gt;Node6</title>
<path fill="none" stroke="midnightblue" d="M619.36,-116.87C562.01,-109.54 439.16,-93.51 325.44,-76.18"/>
<polygon fill="midnightblue" stroke="midnightblue" points="325.93,-72.72 315.52,-74.67 324.87,-79.64 325.93,-72.72"/>
</g>
<!-- Node9 -->
<g id="node9" class="node">
<title>Node9</title>
<g id="a_node9"><a xlink:href="$joybuttonmousehelper_8h.html" xlink:title=" ">
<polygon fill="white" stroke="black" points="333,-56.5 333,-75.5 453,-75.5 453,-56.5 333,-56.5"/>
<text text-anchor="middle" x="393" y="-63.5" font-family="Helvetica,sans-Serif" font-size="10.00">joybuttonmousehelper.h</text>
</a>
</g>
</g>
<!-- Node5&#45;&gt;Node9 -->
<g id="edge8" class="edge">
<title>Node5&#45;&gt;Node9</title>
<path fill="none" stroke="midnightblue" d="M619.46,-114.22C575.39,-105.03 496.26,-88.53 444.19,-77.67"/>
<polygon fill="midnightblue" stroke="midnightblue" points="444.66,-74.2 434.15,-75.58 443.23,-81.05 444.66,-74.2"/>
</g>
<!-- Node10 -->
<g id="node10" class="node">
<title>Node10</title>
<g id="a_node10"><a xlink:href="$joybuttonslot_8h.html" xlink:title=" ">
<polygon fill="white" stroke="red" points="90,-56.5 90,-75.5 170,-75.5 170,-56.5 90,-56.5"/>
<text text-anchor="middle" x="130" y="-63.5" font-family="Helvetica,sans-Serif" font-size="10.00">joybuttonslot.h</text>
</a>
</g>
</g>
<!-- Node5&#45;&gt;Node10 -->
<g id="edge10" class="edge">
<title>Node5&#45;&gt;Node10</title>
<path fill="none" stroke="midnightblue" d="M619.35,-117.62C531,-108.48 286.79,-83.22 180.51,-72.22"/>
<polygon fill="midnightblue" stroke="midnightblue" points="180.67,-68.72 170.36,-71.18 179.95,-75.69 180.67,-68.72"/>
</g>
<!-- Node16 -->
<g id="node14" class="node">
<title>Node16</title>
<g id="a_node14"><a xlink:href="$springmousemoveinfo_8h.html" xlink:title=" ">
<polygon fill="white" stroke="black" points="471.5,-56.5 471.5,-75.5 590.5,-75.5 590.5,-56.5 471.5,-56.5"/>
<text text-anchor="middle" x="531" y="-63.5" font-family="Helvetica,sans-Serif" font-size="10.00">springmousemoveinfo.h</text>
</a>
</g>
</g>
<!-- Node5&#45;&gt;Node16 -->
<g id="edge15" class="edge">
<title>Node5&#45;&gt;Node16</title>
<path fill="none" stroke="midnightblue" d="M632.83,-112.44C613.09,-103.64 582.11,-89.81 559.51,-79.72"/>
<polygon fill="midnightblue" stroke="midnightblue" points="560.64,-76.4 550.08,-75.52 557.79,-82.79 560.64,-76.4"/>
</g>
<!-- Node17 -->
<g id="node15" class="node">
<title>Node17</title>
<g id="a_node15"><a xlink:title=" ">
<polygon fill="white" stroke="#bfbfbf" points="608.5,-56.5 608.5,-75.5 695.5,-75.5 695.5,-56.5 608.5,-56.5"/>
<text text-anchor="middle" x="652" y="-63.5" font-family="Helvetica,sans-Serif" font-size="10.00">QDeadlineTimer</text>
</a>
</g>
</g>
<!-- Node5&#45;&gt;Node17 -->
<g id="edge16" class="edge">
<title>Node5&#45;&gt;Node17</title>
<path fill="none" stroke="midnightblue" d="M652,-112.08C652,-105.01 652,-94.86 652,-85.99"/>
<polygon fill="midnightblue" stroke="midnightblue" points="655.5,-85.75 652,-75.75 648.5,-85.75 655.5,-85.75"/>
</g>
<!-- Node18 -->
<g id="node16" class="node">
<title>Node18</title>
<g id="a_node16"><a xlink:title=" ">
<polygon fill="white" stroke="#bfbfbf" points="713.5,-56.5 713.5,-75.5 766.5,-75.5 766.5,-56.5 713.5,-56.5"/>
<text text-anchor="middle" x="740" y="-63.5" font-family="Helvetica,sans-Serif" font-size="10.00">QQueue</text>
</a>
</g>
</g>
<!-- Node5&#45;&gt;Node18 -->
<g id="edge17" class="edge">
<title>Node5&#45;&gt;Node18</title>
<path fill="none" stroke="midnightblue" d="M666.14,-112.32C679.87,-103.9 700.94,-90.97 717.06,-81.07"/>
<polygon fill="midnightblue" stroke="midnightblue" points="719.2,-83.87 725.9,-75.65 715.54,-77.9 719.2,-83.87"/>
</g>
<!-- Node19 -->
<g id="node17" class="node">
<title>Node19</title>
<g id="a_node17"><a xlink:title=" ">
<polygon fill="white" stroke="#bfbfbf" points="785,-56.5 785,-75.5 875,-75.5 875,-56.5 785,-56.5"/>
<text text-anchor="middle" x="830" y="-63.5" font-family="Helvetica,sans-Serif" font-size="10.00">QReadWriteLock</text>
</a>
</g>
</g>
<!-- Node5&#45;&gt;Node19 -->
<g id="edge18" class="edge">
<title>Node5&#45;&gt;Node19</title>
<path fill="none" stroke="midnightblue" d="M680.2,-112.44C710.41,-103.28 758.51,-88.69 792.03,-78.52"/>
<polygon fill="midnightblue" stroke="midnightblue" points="793.37,-81.77 801.93,-75.52 791.34,-75.07 793.37,-81.77"/>
</g>
<!-- Node20 -->
<g id="node18" class="node">
<title>Node20</title>
<g id="a_node18"><a xlink:title=" ">
<polygon fill="white" stroke="#bfbfbf" points="893.5,-56.5 893.5,-75.5 958.5,-75.5 958.5,-56.5 893.5,-56.5"/>
<text text-anchor="middle" x="926" y="-63.5" font-family="Helvetica,sans-Serif" font-size="10.00">QRunnable</text>
</a>
</g>
</g>
<!-- Node5&#45;&gt;Node20 -->
<g id="edge19" class="edge">
<title>Node5&#45;&gt;Node20</title>
<path fill="none" stroke="midnightblue" d="M684.7,-114.87C727.81,-106.73 806.27,-91.77 883.55,-76.06"/>
<polygon fill="midnightblue" stroke="midnightblue" points="884.35,-79.47 893.45,-74.04 882.96,-72.61 884.35,-79.47"/>
</g>
<!-- Node21 -->
<g id="node19" class="node">
<title>Node21</title>
<g id="a_node19"><a xlink:title=" ">
<polygon fill="white" stroke="#bfbfbf" points="1256,-56.5 1256,-75.5 1310,-75.5 1310,-56.5 1256,-56.5"/>
<text text-anchor="middle" x="1283" y="-63.5" font-family="Helvetica,sans-Serif" font-size="10.00">QThread</text>
</a>
</g>
</g>
<!-- Node5&#45;&gt;Node21 -->
<g id="edge20" class="edge">
<title>Node5&#45;&gt;Node21</title>
<path fill="none" stroke="midnightblue" d="M684.6,-118.21C791.56,-109.06 1131.48,-79.97 1245.39,-70.22"/>
<polygon fill="midnightblue" stroke="midnightblue" points="1246.03,-73.68 1255.69,-69.34 1245.43,-66.7 1246.03,-73.68"/>
</g>
<!-- Node22 -->
<g id="node20" class="node">
<title>Node22</title>
<g id="a_node20"><a xlink:title=" ">
<polygon fill="white" stroke="#bfbfbf" points="1015.5,-56.5 1015.5,-75.5 1064.5,-75.5 1064.5,-56.5 1015.5,-56.5"/>
<text text-anchor="middle" x="1040" y="-63.5" font-family="Helvetica,sans-Serif" font-size="10.00">QTimer</text>
</a>
</g>
</g>
<!-- Node5&#45;&gt;Node22 -->
<g id="edge21" class="edge">
<title>Node5&#45;&gt;Node22</title>
<path fill="none" stroke="midnightblue" d="M684.75,-116.44C757.19,-106.36 930.48,-82.24 1004.98,-71.87"/>
<polygon fill="midnightblue" stroke="midnightblue" points="1005.81,-75.29 1015.23,-70.45 1004.84,-68.36 1005.81,-75.29"/>
</g>
<!-- Node7 -->
<g id="node7" class="node">
<title>Node7</title>
<g id="a_node7"><a xlink:title=" ">
<polygon fill="white" stroke="#bfbfbf" points="444,-0.5 444,-19.5 484,-19.5 484,-0.5 444,-0.5"/>
<text text-anchor="middle" x="464" y="-7.5" font-family="Helvetica,sans-Serif" font-size="10.00">QList</text>
</a>
</g>
</g>
<!-- Node6&#45;&gt;Node7 -->
<g id="edge6" class="edge">
<title>Node6&#45;&gt;Node7</title>
<path fill="none" stroke="midnightblue" d="M301.58,-56.44C337.86,-46.29 397.95,-29.48 433.98,-19.4"/>
<polygon fill="midnightblue" stroke="midnightblue" points="435.21,-22.69 443.9,-16.62 433.32,-15.95 435.21,-22.69"/>
</g>
<!-- Node8 -->
<g id="node8" class="node">
<title>Node8</title>
<g id="a_node8"><a xlink:title=" ">
<polygon fill="white" stroke="#bfbfbf" points="695.5,-0.5 695.5,-19.5 748.5,-19.5 748.5,-0.5 695.5,-0.5"/>
<text text-anchor="middle" x="722" y="-7.5" font-family="Helvetica,sans-Serif" font-size="10.00">QObject</text>
</a>
</g>
</g>
<!-- Node6&#45;&gt;Node8 -->
<g id="edge7" class="edge">
<title>Node6&#45;&gt;Node8</title>
<path fill="none" stroke="midnightblue" d="M315.51,-57.26C318.38,-56.82 321.23,-56.39 324,-56 456.62,-37.26 614.98,-21.24 685.27,-14.46"/>
<polygon fill="midnightblue" stroke="midnightblue" points="685.77,-17.93 695.39,-13.49 685.1,-10.96 685.77,-17.93"/>
</g>
<!-- Node9&#45;&gt;Node8 -->
<g id="edge9" class="edge">
<title>Node9&#45;&gt;Node8</title>
<path fill="none" stroke="midnightblue" d="M445.13,-56.44C512.13,-45.45 626.78,-26.63 685.3,-17.02"/>
<polygon fill="midnightblue" stroke="midnightblue" points="685.91,-20.47 695.21,-15.4 684.77,-13.56 685.91,-20.47"/>
</g>
<!-- Node10&#45;&gt;Node8 -->
<g id="edge12" class="edge">
<title>Node10&#45;&gt;Node8</title>
<path fill="none" stroke="midnightblue" d="M170.05,-57.95C174.75,-57.24 179.47,-56.57 184,-56 371.72,-32.55 597.85,-18.1 685.14,-13.04"/>
<polygon fill="midnightblue" stroke="midnightblue" points="685.55,-16.52 695.33,-12.46 685.15,-9.54 685.55,-16.52"/>
</g>
<!-- Node11 -->
<g id="node11" class="node">
<title>Node11</title>
<g id="a_node11"><a xlink:title=" ">
<polygon fill="white" stroke="#bfbfbf" points="0,-0.5 0,-19.5 84,-19.5 84,-0.5 0,-0.5"/>
<text text-anchor="middle" x="42" y="-7.5" font-family="Helvetica,sans-Serif" font-size="10.00">QElapsedTimer</text>
</a>
</g>
</g>
<!-- Node10&#45;&gt;Node11 -->
<g id="edge11" class="edge">
<title>Node10&#45;&gt;Node11</title>
<path fill="none" stroke="midnightblue" d="M115.86,-56.32C102.13,-47.9 81.06,-34.97 64.94,-25.07"/>
<polygon fill="midnightblue" stroke="midnightblue" points="66.46,-21.9 56.1,-19.65 62.8,-27.87 66.46,-21.9"/>
</g>
<!-- Node12 -->
<g id="node12" class="node">
<title>Node12</title>
<g id="a_node12"><a xlink:title=" ">
<polygon fill="white" stroke="#bfbfbf" points="102.5,-0.5 102.5,-19.5 157.5,-19.5 157.5,-0.5 102.5,-0.5"/>
<text text-anchor="middle" x="130" y="-7.5" font-family="Helvetica,sans-Serif" font-size="10.00">QPointer</text>
</a>
</g>
</g>
<!-- Node10&#45;&gt;Node12 -->
<g id="edge13" class="edge">
<title>Node10&#45;&gt;Node12</title>
<path fill="none" stroke="midnightblue" d="M130,-56.08C130,-49.01 130,-38.86 130,-29.99"/>
<polygon fill="midnightblue" stroke="midnightblue" points="133.5,-29.75 130,-19.75 126.5,-29.75 133.5,-29.75"/>
</g>
<!-- Node13 -->
<g id="node13" class="node">
<title>Node13</title>
<g id="a_node13"><a xlink:title=" ">
<polygon fill="white" stroke="#bfbfbf" points="176,-0.5 176,-19.5 222,-19.5 222,-0.5 176,-0.5"/>
<text text-anchor="middle" x="199" y="-7.5" font-family="Helvetica,sans-Serif" font-size="10.00">QTime</text>
</a>
</g>
</g>
<!-- Node10&#45;&gt;Node13 -->
<g id="edge14" class="edge">
<title>Node10&#45;&gt;Node13</title>
<path fill="none" stroke="midnightblue" d="M141.09,-56.32C151.49,-48.18 167.26,-35.84 179.72,-26.09"/>
<polygon fill="midnightblue" stroke="midnightblue" points="181.99,-28.75 187.71,-19.83 177.68,-23.24 181.99,-28.75"/>
</g>
<!-- Node24&#45;&gt;Node8 -->
<g id="edge24" class="edge">
<title>Node24&#45;&gt;Node8</title>
<path fill="none" stroke="midnightblue" d="M208.75,-112.42C205.67,-98.45 202.07,-70.88 217,-56 233.57,-39.48 571.03,-19.36 684.87,-13.01"/>
<polygon fill="midnightblue" stroke="midnightblue" points="685.38,-16.49 695.17,-12.44 684.99,-9.5 685.38,-16.49"/>
</g>
<!-- Node25&#45;&gt;Node21 -->
<g id="edge39" class="edge">
<title>Node25&#45;&gt;Node21</title>
<path fill="none" stroke="midnightblue" d="M1403.09,-289.35C1474.02,-289.42 1644.39,-285.19 1680,-244 1685.81,-237.28 1684.95,-231.39 1680,-224 1597.62,-100.99 1402.1,-74.36 1320.15,-68.59"/>
<polygon fill="midnightblue" stroke="midnightblue" points="1320.25,-65.09 1310.05,-67.95 1319.81,-72.08 1320.25,-65.09"/>
</g>
<!-- Node26 -->
<g id="node24" class="node">
<title>Node26</title>
<g id="a_node24"><a xlink:href="$antimicrosettings_8h.html" xlink:title=" ">
<polygon fill="white" stroke="black" points="1322.5,-224.5 1322.5,-243.5 1421.5,-243.5 1421.5,-224.5 1322.5,-224.5"/>
<text text-anchor="middle" x="1372" y="-231.5" font-family="Helvetica,sans-Serif" font-size="10.00">antimicrosettings.h</text>
</a>
</g>
</g>
<!-- Node25&#45;&gt;Node26 -->
<g id="edge26" class="edge">
<title>Node25&#45;&gt;Node26</title>
<path fill="none" stroke="midnightblue" d="M1372,-280.08C1372,-273.01 1372,-262.86 1372,-253.99"/>
<polygon fill="midnightblue" stroke="midnightblue" points="1375.5,-253.75 1372,-243.75 1368.5,-253.75 1375.5,-253.75"/>
</g>
<!-- Node35 -->
<g id="node29" class="node">
<title>Node35</title>
<g id="a_node29"><a xlink:title=" ">
<polygon fill="white" stroke="#bfbfbf" points="1159.5,-224.5 1159.5,-243.5 1210.5,-243.5 1210.5,-224.5 1159.5,-224.5"/>
<text text-anchor="middle" x="1185" y="-231.5" font-family="Helvetica,sans-Serif" font-size="10.00">config.h</text>
</a>
</g>
</g>
<!-- Node25&#45;&gt;Node35 -->
<g id="edge33" class="edge">
<title>Node25&#45;&gt;Node35</title>
<path fill="none" stroke="midnightblue" d="M1342.37,-280.44C1309.28,-270.89 1255.75,-255.43 1220.47,-245.24"/>
<polygon fill="midnightblue" stroke="midnightblue" points="1221.16,-241.8 1210.59,-242.39 1219.22,-248.53 1221.16,-241.8"/>
</g>
<!-- Node36 -->
<g id="node30" class="node">
<title>Node36</title>
<g id="a_node30"><a xlink:href="$mousehelper_8h.html" xlink:title=" ">
<polygon fill="white" stroke="black" points="1159,-112.5 1159,-131.5 1239,-131.5 1239,-112.5 1159,-112.5"/>
<text text-anchor="middle" x="1199" y="-119.5" font-family="Helvetica,sans-Serif" font-size="10.00">mousehelper.h</text>
</a>
</g>
</g>
<!-- Node25&#45;&gt;Node36 -->
<g id="edge34" class="edge">
<title>Node25&#45;&gt;Node36</title>
<path fill="none" stroke="midnightblue" d="M1340.9,-283.04C1316.16,-276.91 1281.98,-265.18 1259,-244 1228.07,-215.49 1211.03,-167.53 1203.6,-141.37"/>
<polygon fill="midnightblue" stroke="midnightblue" points="1206.95,-140.37 1200.99,-131.61 1200.19,-142.18 1206.95,-140.37"/>
</g>
<!-- Node37 -->
<g id="node31" class="node">
<title>Node37</title>
<g id="a_node31"><a xlink:title=" ">
<polygon fill="white" stroke="#bfbfbf" points="1267.5,-224.5 1267.5,-243.5 1304.5,-243.5 1304.5,-224.5 1267.5,-224.5"/>
<text text-anchor="middle" x="1286" y="-231.5" font-family="Helvetica,sans-Serif" font-size="10.00">QDir</text>
</a>
</g>
</g>
<!-- Node25&#45;&gt;Node37 -->
<g id="edge37" class="edge">
<title>Node25&#45;&gt;Node37</title>
<path fill="none" stroke="midnightblue" d="M1358.18,-280.32C1344.77,-271.9 1324.18,-258.97 1308.41,-249.07"/>
<polygon fill="midnightblue" stroke="midnightblue" points="1310.11,-246.01 1299.78,-243.65 1306.39,-251.94 1310.11,-246.01"/>
</g>
<!-- Node38 -->
<g id="node32" class="node">
<title>Node38</title>
<g id="a_node32"><a xlink:title=" ">
<polygon fill="white" stroke="#bfbfbf" points="1439.5,-224.5 1439.5,-243.5 1482.5,-243.5 1482.5,-224.5 1439.5,-224.5"/>
<text text-anchor="middle" x="1461" y="-231.5" font-family="Helvetica,sans-Serif" font-size="10.00">QIcon</text>
</a>
</g>
</g>
<!-- Node25&#45;&gt;Node38 -->
<g id="edge38" class="edge">
<title>Node25&#45;&gt;Node38</title>
<path fill="none" stroke="midnightblue" d="M1386.3,-280.32C1400.18,-271.9 1421.49,-258.97 1437.8,-249.07"/>
<polygon fill="midnightblue" stroke="midnightblue" points="1440,-251.83 1446.74,-243.65 1436.37,-245.85 1440,-251.83"/>
</g>
<!-- Node39 -->
<g id="node33" class="node">
<title>Node39</title>
<g id="a_node33"><a xlink:title=" ">
<polygon fill="white" stroke="#bfbfbf" points="1500.5,-224.5 1500.5,-243.5 1567.5,-243.5 1567.5,-224.5 1500.5,-224.5"/>
<text text-anchor="middle" x="1534" y="-231.5" font-family="Helvetica,sans-Serif" font-size="10.00">QTranslator</text>
</a>
</g>
</g>
<!-- Node25&#45;&gt;Node39 -->
<g id="edge40" class="edge">
<title>Node25&#45;&gt;Node39</title>
<path fill="none" stroke="midnightblue" d="M1397.67,-280.44C1424.92,-271.36 1468.18,-256.94 1498.65,-246.78"/>
<polygon fill="midnightblue" stroke="midnightblue" points="1500.07,-250 1508.45,-243.52 1497.86,-243.36 1500.07,-250"/>
</g>
<!-- Node40 -->
<g id="node34" class="node">
<title>Node40</title>
<g id="a_node34"><a xlink:title=" ">
<polygon fill="white" stroke="#bfbfbf" points="1585.5,-224.5 1585.5,-243.5 1670.5,-243.5 1670.5,-224.5 1585.5,-224.5"/>
<text text-anchor="middle" x="1628" y="-231.5" font-family="Helvetica,sans-Serif" font-size="10.00">QWaitCondition</text>
</a>
</g>
</g>
<!-- Node25&#45;&gt;Node40 -->
<g id="edge41" class="edge">
<title>Node25&#45;&gt;Node40</title>
<path fill="none" stroke="midnightblue" d="M1403.13,-282.43C1446.48,-273.29 1525.52,-256.62 1577.4,-245.67"/>
<polygon fill="midnightblue" stroke="midnightblue" points="1578.34,-249.05 1587.4,-243.56 1576.89,-242.2 1578.34,-249.05"/>
</g>
<!-- Node27 -->
<g id="node25" class="node">
<title>Node27</title>
<g id="a_node25"><a xlink:href="$commandlineutility_8h.html" xlink:title=" ">
<polygon fill="white" stroke="black" points="1288.5,-168.5 1288.5,-187.5 1393.5,-187.5 1393.5,-168.5 1288.5,-168.5"/>
<text text-anchor="middle" x="1341" y="-175.5" font-family="Helvetica,sans-Serif" font-size="10.00">commandlineutility.h</text>
</a>
</g>
</g>
<!-- Node26&#45;&gt;Node27 -->
<g id="edge27" class="edge">
<title>Node26&#45;&gt;Node27</title>
<path fill="none" stroke="midnightblue" d="M1366.88,-224.08C1362.59,-216.61 1356.34,-205.72 1351.06,-196.52"/>
<polygon fill="midnightblue" stroke="midnightblue" points="1354.04,-194.68 1346.02,-187.75 1347.97,-198.17 1354.04,-194.68"/>
</g>
<!-- Node34 -->
<g id="node28" class="node">
<title>Node34</title>
<g id="a_node28"><a xlink:title=" ">
<polygon fill="white" stroke="#bfbfbf" points="1412,-168.5 1412,-187.5 1472,-187.5 1472,-168.5 1412,-168.5"/>
<text text-anchor="middle" x="1442" y="-175.5" font-family="Helvetica,sans-Serif" font-size="10.00">QSettings</text>
</a>
</g>
</g>
<!-- Node26&#45;&gt;Node34 -->
<g id="edge32" class="edge">
<title>Node26&#45;&gt;Node34</title>
<path fill="none" stroke="midnightblue" d="M1383.25,-224.32C1393.8,-216.18 1409.8,-203.84 1422.44,-194.09"/>
<polygon fill="midnightblue" stroke="midnightblue" points="1424.77,-196.71 1430.55,-187.83 1420.49,-191.17 1424.77,-196.71"/>
</g>
<!-- Node28 -->
<g id="node26" class="node">
<title>Node28</title>
<g id="a_node26"><a xlink:title=" ">
<polygon fill="white" stroke="#bfbfbf" points="1327,-112.5 1327,-131.5 1399,-131.5 1399,-112.5 1327,-112.5"/>
<text text-anchor="middle" x="1363" y="-119.5" font-family="Helvetica,sans-Serif" font-size="10.00">QApplication</text>
</a>
</g>
</g>
<!-- Node27&#45;&gt;Node28 -->
<g id="edge28" class="edge">
<title>Node27&#45;&gt;Node28</title>
<path fill="none" stroke="midnightblue" d="M1344.63,-168.08C1347.61,-160.77 1351.93,-150.18 1355.62,-141.1"/>
<polygon fill="midnightblue" stroke="midnightblue" points="1358.9,-142.33 1359.43,-131.75 1352.42,-139.69 1358.9,-142.33"/>
</g>
<!-- Node29 -->
<g id="node27" class="node">
<title>Node29</title>
<g id="a_node27"><a xlink:href="$logger_8h.html" xlink:title=" ">
<polygon fill="white" stroke="red" points="1257.5,-112.5 1257.5,-131.5 1308.5,-131.5 1308.5,-112.5 1257.5,-112.5"/>
<text text-anchor="middle" x="1283" y="-119.5" font-family="Helvetica,sans-Serif" font-size="10.00">logger.h</text>
</a>
</g>
</g>
<!-- Node27&#45;&gt;Node29 -->
<g id="edge29" class="edge">
<title>Node27&#45;&gt;Node29</title>
<path fill="none" stroke="midnightblue" d="M1331.68,-168.32C1323.11,-160.34 1310.19,-148.31 1299.81,-138.65"/>
<polygon fill="midnightblue" stroke="midnightblue" points="1302.19,-136.09 1292.49,-131.83 1297.42,-141.21 1302.19,-136.09"/>
</g>
<!-- Node29&#45;&gt;Node8 -->
<g id="edge30" class="edge">
<title>Node29&#45;&gt;Node8</title>
<path fill="none" stroke="midnightblue" d="M1271.89,-112.43C1252.46,-97.97 1210.51,-69.02 1170,-56 1093.6,-31.44 851.53,-17.33 758.72,-12.7"/>
<polygon fill="midnightblue" stroke="midnightblue" points="758.83,-9.21 748.67,-12.21 758.49,-16.2 758.83,-9.21"/>
</g>
<!-- Node29&#45;&gt;Node21 -->
<g id="edge31" class="edge">
<title>Node29&#45;&gt;Node21</title>
<path fill="none" stroke="midnightblue" d="M1283,-112.08C1283,-105.01 1283,-94.86 1283,-85.99"/>
<polygon fill="midnightblue" stroke="midnightblue" points="1286.5,-85.75 1283,-75.75 1279.5,-85.75 1286.5,-85.75"/>
</g>
<!-- Node36&#45;&gt;Node8 -->
<g id="edge35" class="edge">
<title>Node36&#45;&gt;Node8</title>
<path fill="none" stroke="midnightblue" d="M1194.74,-112.43C1187.04,-97.97 1169.31,-69.02 1145,-56 1078.54,-20.4 849.04,-12.96 758.83,-11.41"/>
<polygon fill="midnightblue" stroke="midnightblue" points="758.84,-7.91 748.79,-11.25 758.73,-14.91 758.84,-7.91"/>
</g>
<!-- Node36&#45;&gt;Node22 -->
<g id="edge36" class="edge">
<title>Node36&#45;&gt;Node22</title>
<path fill="none" stroke="midnightblue" d="M1173.81,-112.44C1146.9,-103.31 1104.1,-88.77 1074.17,-78.6"/>
<polygon fill="midnightblue" stroke="midnightblue" points="1075.15,-75.24 1064.55,-75.34 1072.9,-81.87 1075.15,-75.24"/>
</g>
<!-- Node41&#45;&gt;Node42 -->
<g id="edge43" class="edge">
<title>Node41&#45;&gt;Node42</title>
<path fill="none" stroke="midnightblue" d="M944.1,-392.08C950.24,-384.38 959.27,-373.03 966.74,-363.65"/>
<polygon fill="midnightblue" stroke="midnightblue" points="969.54,-365.75 973.03,-355.75 964.06,-361.39 969.54,-365.75"/>
</g>
<!-- Node47 -->
<g id="node41" class="node">
<title>Node47</title>
<g id="a_node41"><a xlink:title=" ">
<polygon fill="white" stroke="#bfbfbf" points="816,-336.5 816,-355.5 926,-355.5 926,-336.5 816,-336.5"/>
<text text-anchor="middle" x="871" y="-343.5" font-family="Helvetica,sans-Serif" font-size="10.00">SDL2/SDL_joystick.h</text>
</a>
</g>
</g>
<!-- Node41&#45;&gt;Node47 -->
<g id="edge52" class="edge">
<title>Node41&#45;&gt;Node47</title>
<path fill="none" stroke="midnightblue" d="M926.4,-392.32C916.54,-384.26 901.65,-372.08 889.78,-362.37"/>
<polygon fill="midnightblue" stroke="midnightblue" points="891.75,-359.46 881.8,-355.83 887.32,-364.88 891.75,-359.46"/>
</g>
<!-- Node43 -->
<g id="node37" class="node">
<title>Node43</title>
<g id="a_node37"><a xlink:href="$joyaxis_8h.html" xlink:title=" ">
<polygon fill="white" stroke="black" points="953,-280.5 953,-299.5 1009,-299.5 1009,-280.5 953,-280.5"/>
<text text-anchor="middle" x="981" y="-287.5" font-family="Helvetica,sans-Serif" font-size="10.00">joyaxis.h</text>
</a>
</g>
</g>
<!-- Node42&#45;&gt;Node43 -->
<g id="edge44" class="edge">
<title>Node42&#45;&gt;Node43</title>
<path fill="none" stroke="midnightblue" d="M980.17,-336.08C980.3,-329.01 980.48,-318.86 980.65,-309.99"/>
<polygon fill="midnightblue" stroke="midnightblue" points="984.15,-309.81 980.84,-299.75 977.15,-309.68 984.15,-309.81"/>
</g>
<!-- Node46 -->
<g id="node40" class="node">
<title>Node46</title>
<g id="a_node40"><a xlink:href="$setjoystickxml_8h.html" xlink:title=" ">
<polygon fill="white" stroke="black" points="1053,-280.5 1053,-299.5 1159,-299.5 1159,-280.5 1053,-280.5"/>
<text text-anchor="middle" x="1106" y="-287.5" font-family="Helvetica,sans-Serif" font-size="10.00">xml/setjoystickxml.h</text>
</a>
</g>
</g>
<!-- Node42&#45;&gt;Node46 -->
<g id="edge50" class="edge">
<title>Node42&#45;&gt;Node46</title>
<path fill="none" stroke="midnightblue" d="M999.97,-336.44C1020.61,-327.6 1053.06,-313.69 1076.63,-303.59"/>
<polygon fill="midnightblue" stroke="midnightblue" points="1078.32,-306.67 1086.13,-299.52 1075.56,-300.24 1078.32,-306.67"/>
</g>
<!-- Node43&#45;&gt;Node7 -->
<g id="edge45" class="edge">
<title>Node43&#45;&gt;Node7</title>
<path fill="none" stroke="midnightblue" d="M981.78,-280.45C983.41,-261.96 987,-216.87 987,-179 987,-179 987,-179 987,-121 987,-90.9 991.26,-75.11 968,-56 949.58,-40.87 600.11,-19.05 494.18,-12.76"/>
<polygon fill="midnightblue" stroke="midnightblue" points="494.34,-9.26 484.15,-12.17 493.93,-16.25 494.34,-9.26"/>
</g>
<!-- Node43&#45;&gt;Node8 -->
<g id="edge46" class="edge">
<title>Node43&#45;&gt;Node8</title>
<path fill="none" stroke="midnightblue" d="M1001.02,-280.44C1033.24,-265.17 1093,-229.97 1093,-179 1093,-179 1093,-179 1093,-121 1093,-90.9 1096.89,-75.55 1074,-56 1027.2,-16.04 839.07,-11.04 758.7,-10.78"/>
<polygon fill="midnightblue" stroke="midnightblue" points="758.55,-7.28 748.55,-10.77 758.55,-14.28 758.55,-7.28"/>
</g>
<!-- Node44 -->
<g id="node38" class="node">
<title>Node44</title>
<g id="a_node38"><a xlink:href="$joyaxisbutton_8h.html" xlink:title=" ">
<polygon fill="white" stroke="black" points="810.5,-224.5 810.5,-243.5 959.5,-243.5 959.5,-224.5 810.5,-224.5"/>
<text text-anchor="middle" x="885" y="-231.5" font-family="Helvetica,sans-Serif" font-size="10.00">joybuttontypes/joyaxisbutton.h</text>
</a>
</g>
</g>
<!-- Node43&#45;&gt;Node44 -->
<g id="edge47" class="edge">
<title>Node43&#45;&gt;Node44</title>
<path fill="none" stroke="midnightblue" d="M965.58,-280.32C950.46,-271.82 927.18,-258.73 909.53,-248.8"/>
<polygon fill="midnightblue" stroke="midnightblue" points="910.82,-245.51 900.39,-243.65 907.39,-251.61 910.82,-245.51"/>
</g>
<!-- Node45 -->
<g id="node39" class="node">
<title>Node45</title>
<g id="a_node39"><a xlink:href="$joygradientbutton_8h.html" xlink:title=" ">
<polygon fill="white" stroke="black" points="700.5,-168.5 700.5,-187.5 865.5,-187.5 865.5,-168.5 700.5,-168.5"/>
<text text-anchor="middle" x="783" y="-175.5" font-family="Helvetica,sans-Serif" font-size="10.00">joybuttontypes/joygradientbutton.h</text>
</a>
</g>
</g>
<!-- Node44&#45;&gt;Node45 -->
<g id="edge48" class="edge">
<title>Node44&#45;&gt;Node45</title>
<path fill="none" stroke="midnightblue" d="M868.61,-224.32C852.33,-215.7 827.13,-202.36 808.28,-192.39"/>
<polygon fill="midnightblue" stroke="midnightblue" points="809.82,-189.24 799.35,-187.65 806.55,-195.43 809.82,-189.24"/>
</g>
<!-- Node45&#45;&gt;Node5 -->
<g id="edge49" class="edge">
<title>Node45&#45;&gt;Node5</title>
<path fill="none" stroke="midnightblue" d="M762.24,-168.44C740.68,-159.56 706.74,-145.56 682.21,-135.45"/>
<polygon fill="midnightblue" stroke="midnightblue" points="683.24,-132.09 672.66,-131.52 680.57,-138.56 683.24,-132.09"/>
</g>
<!-- Node46&#45;&gt;Node8 -->
<g id="edge51" class="edge">
<title>Node46&#45;&gt;Node8</title>
<path fill="none" stroke="midnightblue" d="M1109.37,-280.31C1116.2,-261.92 1131,-217.58 1131,-179 1131,-179 1131,-179 1131,-121 1131,-87.98 1122.39,-74.44 1095,-56 1040.64,-19.4 841.81,-12.53 758.79,-11.27"/>
<polygon fill="midnightblue" stroke="midnightblue" points="758.61,-7.77 748.57,-11.13 758.52,-14.77 758.61,-7.77"/>
</g>
<!-- Node48&#45;&gt;Node45 -->
<g id="edge54" class="edge">
<title>Node48&#45;&gt;Node45</title>
<path fill="none" stroke="midnightblue" d="M787.8,-392.3C787.07,-359.63 784.46,-243.87 783.43,-197.96"/>
<polygon fill="midnightblue" stroke="midnightblue" points="786.92,-197.8 783.2,-187.88 779.93,-197.96 786.92,-197.8"/>
</g>
<!-- Node49 -->
<g id="node43" class="node">
<title>Node49</title>
<g id="a_node43"><a xlink:href="$joycontrolstickdirectionstype_8h.html" xlink:title=" ">
<polygon fill="white" stroke="black" points="609.5,-336.5 609.5,-355.5 756.5,-355.5 756.5,-336.5 609.5,-336.5"/>
<text text-anchor="middle" x="683" y="-343.5" font-family="Helvetica,sans-Serif" font-size="10.00">joycontrolstickdirectionstype.h</text>
</a>
</g>
</g>
<!-- Node48&#45;&gt;Node49 -->
<g id="edge55" class="edge">
<title>Node48&#45;&gt;Node49</title>
<path fill="none" stroke="midnightblue" d="M771.13,-392.32C754.29,-383.66 728.19,-370.24 708.76,-360.25"/>
<polygon fill="midnightblue" stroke="midnightblue" points="710.32,-357.12 699.83,-355.65 707.12,-363.34 710.32,-357.12"/>
</g>
<!-- Node50&#45;&gt;Node5 -->
<g id="edge57" class="edge">
<title>Node50&#45;&gt;Node5</title>
<path fill="none" stroke="midnightblue" d="M627.42,-392.43C619.3,-383.88 607.29,-370.02 600,-356 586.11,-329.3 581,-321.1 581,-291 581,-291 581,-291 581,-233 581,-194.1 612.73,-158.05 633.77,-138.43"/>
<polygon fill="midnightblue" stroke="midnightblue" points="636.11,-141.02 641.22,-131.74 631.44,-135.81 636.11,-141.02"/>
</g>
<!-- Node50&#45;&gt;Node49 -->
<g id="edge58" class="edge">
<title>Node50&#45;&gt;Node49</title>
<path fill="none" stroke="midnightblue" d="M643.76,-392.08C650.54,-384.3 660.54,-372.8 668.76,-363.37"/>
<polygon fill="midnightblue" stroke="midnightblue" points="671.46,-365.59 675.38,-355.75 666.18,-361 671.46,-365.59"/>
</g>
<!-- Node52 -->
<g id="node46" class="node">
<title>Node52</title>
<g id="a_node46"><a xlink:title=" ">
<polygon fill="white" stroke="#bfbfbf" points="1107.5,-336.5 1107.5,-355.5 1162.5,-355.5 1162.5,-336.5 1107.5,-336.5"/>
<text text-anchor="middle" x="1135" y="-343.5" font-family="Helvetica,sans-Serif" font-size="10.00">QWidget</text>
</a>
</g>
</g>
<!-- Node51&#45;&gt;Node52 -->
<g id="edge61" class="edge">
<title>Node51&#45;&gt;Node52</title>
<path fill="none" stroke="midnightblue" d="M1135,-392.08C1135,-385.01 1135,-374.86 1135,-365.99"/>
<polygon fill="midnightblue" stroke="midnightblue" points="1138.5,-365.75 1135,-355.75 1131.5,-365.75 1138.5,-365.75"/>
</g>
</g>
</svg>
