<?xml version="1.0" encoding="UTF-8" standalone="no"?>
<!DOCTYPE svg PUBLIC "-//W3C//DTD SVG 1.1//EN"
 "http://www.w3.org/Graphics/SVG/1.1/DTD/svg11.dtd">
<!-- Generated by graphviz version 2.43.0 (0)
 -->
<!-- Title: /home/pawel/antimicrox/src/mousedialog/uihelpers/mousebuttonsettingsdialoghelper.cpp Pages: 1 -->
<svg width="1221pt" height="218pt"
 viewBox="0.00 0.00 1221.40 218.00" xmlns="http://www.w3.org/2000/svg" xmlns:xlink="http://www.w3.org/1999/xlink">
<g id="graph0" class="graph" transform="scale(1 1) rotate(0) translate(4 214)">
<title>/home/pawel/antimicrox/src/mousedialog/uihelpers/mousebuttonsettingsdialoghelper.cpp</title>
<polygon fill="white" stroke="transparent" points="-4,4 -4,-214 1217.4,-214 1217.4,4 -4,4"/>
<!-- Node1 -->
<g id="node1" class="node">
<title>Node1</title>
<g id="a_node1"><a xlink:title=" ">
<polygon fill="#bfbfbf" stroke="black" points="636.5,-168.5 636.5,-209.5 817.5,-209.5 817.5,-168.5 636.5,-168.5"/>
<text text-anchor="start" x="644.5" y="-197.5" font-family="Helvetica,sans-Serif" font-size="10.00">/home/pawel/antimicrox</text>
<text text-anchor="start" x="644.5" y="-186.5" font-family="Helvetica,sans-Serif" font-size="10.00">/src/mousedialog/uihelpers</text>
<text text-anchor="middle" x="727" y="-175.5" font-family="Helvetica,sans-Serif" font-size="10.00">/mousebuttonsettingsdialoghelper.cpp</text>
</a>
</g>
</g>
<!-- Node2 -->
<g id="node2" class="node">
<title>Node2</title>
<g id="a_node2"><a xlink:href="$mousebuttonsettingsdialoghelper_8h.html" xlink:title=" ">
<polygon fill="white" stroke="black" points="710.5,-112.5 710.5,-131.5 877.5,-131.5 877.5,-112.5 710.5,-112.5"/>
<text text-anchor="middle" x="794" y="-119.5" font-family="Helvetica,sans-Serif" font-size="10.00">mousebuttonsettingsdialoghelper.h</text>
</a>
</g>
</g>
<!-- Node1&#45;&gt;Node2 -->
<g id="edge1" class="edge">
<title>Node1&#45;&gt;Node2</title>
<path fill="none" stroke="midnightblue" d="M747.1,-168.5C756.88,-159.01 768.48,-147.76 777.7,-138.81"/>
<polygon fill="midnightblue" stroke="midnightblue" points="780.34,-141.13 785.08,-131.65 775.47,-136.1 780.34,-141.13"/>
</g>
<!-- Node4 -->
<g id="node4" class="node">
<title>Node4</title>
<g id="a_node4"><a xlink:href="$joybutton_8h.html" xlink:title=" ">
<polygon fill="white" stroke="black" points="627.5,-112.5 627.5,-131.5 692.5,-131.5 692.5,-112.5 627.5,-112.5"/>
<text text-anchor="middle" x="660" y="-119.5" font-family="Helvetica,sans-Serif" font-size="10.00">joybutton.h</text>
</a>
</g>
</g>
<!-- Node1&#45;&gt;Node4 -->
<g id="edge3" class="edge">
<title>Node1&#45;&gt;Node4</title>
<path fill="none" stroke="midnightblue" d="M706.9,-168.5C697.12,-159.01 685.52,-147.76 676.3,-138.81"/>
<polygon fill="midnightblue" stroke="midnightblue" points="678.53,-136.1 668.92,-131.65 673.66,-141.13 678.53,-136.1"/>
</g>
<!-- Node8 -->
<g id="node8" class="node">
<title>Node8</title>
<g id="a_node8"><a xlink:href="$joybuttonslot_8h.html" xlink:title=" ">
<polygon fill="white" stroke="black" points="230,-56.5 230,-75.5 310,-75.5 310,-56.5 230,-56.5"/>
<text text-anchor="middle" x="270" y="-63.5" font-family="Helvetica,sans-Serif" font-size="10.00">joybuttonslot.h</text>
</a>
</g>
</g>
<!-- Node1&#45;&gt;Node8 -->
<g id="edge23" class="edge">
<title>Node1&#45;&gt;Node8</title>
<path fill="none" stroke="midnightblue" d="M653.32,-168.49C556.55,-142.87 389.85,-98.73 312.15,-78.16"/>
<polygon fill="midnightblue" stroke="midnightblue" points="312.8,-74.71 302.23,-75.53 311,-81.48 312.8,-74.71"/>
</g>
<!-- Node21 -->
<g id="node21" class="node">
<title>Node21</title>
<g id="a_node21"><a xlink:title=" ">
<polygon fill="white" stroke="#bfbfbf" points="895.5,-112.5 895.5,-131.5 948.5,-131.5 948.5,-112.5 895.5,-112.5"/>
<text text-anchor="middle" x="922" y="-119.5" font-family="Helvetica,sans-Serif" font-size="10.00">QDebug</text>
</a>
</g>
</g>
<!-- Node1&#45;&gt;Node21 -->
<g id="edge24" class="edge">
<title>Node1&#45;&gt;Node21</title>
<path fill="none" stroke="midnightblue" d="M785.51,-168.5C818.38,-157.54 858.33,-144.22 886.49,-134.84"/>
<polygon fill="midnightblue" stroke="midnightblue" points="887.92,-138.05 896.3,-131.57 885.71,-131.41 887.92,-138.05"/>
</g>
<!-- Node3 -->
<g id="node3" class="node">
<title>Node3</title>
<g id="a_node3"><a xlink:title=" ">
<polygon fill="white" stroke="#bfbfbf" points="927.5,-0.5 927.5,-19.5 980.5,-19.5 980.5,-0.5 927.5,-0.5"/>
<text text-anchor="middle" x="954" y="-7.5" font-family="Helvetica,sans-Serif" font-size="10.00">QObject</text>
</a>
</g>
</g>
<!-- Node2&#45;&gt;Node3 -->
<g id="edge2" class="edge">
<title>Node2&#45;&gt;Node3</title>
<path fill="none" stroke="midnightblue" d="M877.79,-112.61C998.23,-100.46 1206.25,-79.06 1209,-76 1214.94,-69.38 1214.71,-62.81 1209,-56 1181.56,-23.3 1054.48,-14.35 990.71,-11.91"/>
<polygon fill="midnightblue" stroke="midnightblue" points="990.79,-8.41 980.67,-11.56 990.55,-15.41 990.79,-8.41"/>
</g>
<!-- Node5 -->
<g id="node5" class="node">
<title>Node5</title>
<g id="a_node5"><a xlink:href="$globalvariables_8h.html" xlink:title=" ">
<polygon fill="white" stroke="black" points="659.5,-56.5 659.5,-75.5 748.5,-75.5 748.5,-56.5 659.5,-56.5"/>
<text text-anchor="middle" x="704" y="-63.5" font-family="Helvetica,sans-Serif" font-size="10.00">globalvariables.h</text>
</a>
</g>
</g>
<!-- Node4&#45;&gt;Node5 -->
<g id="edge4" class="edge">
<title>Node4&#45;&gt;Node5</title>
<path fill="none" stroke="midnightblue" d="M667.27,-112.08C673.54,-104.38 682.79,-93.03 690.43,-83.65"/>
<polygon fill="midnightblue" stroke="midnightblue" points="693.27,-85.71 696.87,-75.75 687.84,-81.29 693.27,-85.71"/>
</g>
<!-- Node7 -->
<g id="node7" class="node">
<title>Node7</title>
<g id="a_node7"><a xlink:href="$joybuttonmousehelper_8h.html" xlink:title=" ">
<polygon fill="white" stroke="black" points="1080,-56.5 1080,-75.5 1200,-75.5 1200,-56.5 1080,-56.5"/>
<text text-anchor="middle" x="1140" y="-63.5" font-family="Helvetica,sans-Serif" font-size="10.00">joybuttonmousehelper.h</text>
</a>
</g>
</g>
<!-- Node4&#45;&gt;Node7 -->
<g id="edge7" class="edge">
<title>Node4&#45;&gt;Node7</title>
<path fill="none" stroke="midnightblue" d="M692.95,-113.57C696,-112.99 699.05,-112.46 702,-112 861.64,-87.19 905.58,-94.36 1069.84,-76.09"/>
<polygon fill="midnightblue" stroke="midnightblue" points="1070.26,-79.57 1079.8,-74.97 1069.47,-72.61 1070.26,-79.57"/>
</g>
<!-- Node4&#45;&gt;Node8 -->
<g id="edge9" class="edge">
<title>Node4&#45;&gt;Node8</title>
<path fill="none" stroke="midnightblue" d="M627.48,-117.26C568.4,-110.35 439.27,-94.7 320.11,-76.11"/>
<polygon fill="midnightblue" stroke="midnightblue" points="320.51,-72.63 310.08,-74.53 319.42,-79.54 320.51,-72.63"/>
</g>
<!-- Node14 -->
<g id="node14" class="node">
<title>Node14</title>
<g id="a_node14"><a xlink:href="$springmousemoveinfo_8h.html" xlink:title=" ">
<polygon fill="white" stroke="black" points="766.5,-56.5 766.5,-75.5 885.5,-75.5 885.5,-56.5 766.5,-56.5"/>
<text text-anchor="middle" x="826" y="-63.5" font-family="Helvetica,sans-Serif" font-size="10.00">springmousemoveinfo.h</text>
</a>
</g>
</g>
<!-- Node4&#45;&gt;Node14 -->
<g id="edge16" class="edge">
<title>Node4&#45;&gt;Node14</title>
<path fill="none" stroke="midnightblue" d="M686.3,-112.44C714.35,-103.32 758.94,-88.81 790.18,-78.65"/>
<polygon fill="midnightblue" stroke="midnightblue" points="791.39,-81.94 799.82,-75.52 789.23,-75.28 791.39,-81.94"/>
</g>
<!-- Node15 -->
<g id="node15" class="node">
<title>Node15</title>
<g id="a_node15"><a xlink:title=" ">
<polygon fill="white" stroke="#bfbfbf" points="903.5,-56.5 903.5,-75.5 990.5,-75.5 990.5,-56.5 903.5,-56.5"/>
<text text-anchor="middle" x="947" y="-63.5" font-family="Helvetica,sans-Serif" font-size="10.00">QDeadlineTimer</text>
</a>
</g>
</g>
<!-- Node4&#45;&gt;Node15 -->
<g id="edge17" class="edge">
<title>Node4&#45;&gt;Node15</title>
<path fill="none" stroke="midnightblue" d="M692.54,-113.93C695.73,-113.26 698.93,-112.61 702,-112 767.67,-98.94 843.53,-85.21 893.22,-76.41"/>
<polygon fill="midnightblue" stroke="midnightblue" points="893.87,-79.85 903.11,-74.66 892.65,-72.95 893.87,-79.85"/>
</g>
<!-- Node16 -->
<g id="node16" class="node">
<title>Node16</title>
<g id="a_node16"><a xlink:title=" ">
<polygon fill="white" stroke="#bfbfbf" points="1008.5,-56.5 1008.5,-75.5 1061.5,-75.5 1061.5,-56.5 1008.5,-56.5"/>
<text text-anchor="middle" x="1035" y="-63.5" font-family="Helvetica,sans-Serif" font-size="10.00">QQueue</text>
</a>
</g>
</g>
<!-- Node4&#45;&gt;Node16 -->
<g id="edge18" class="edge">
<title>Node4&#45;&gt;Node16</title>
<path fill="none" stroke="midnightblue" d="M692.5,-113.73C695.7,-113.11 698.91,-112.52 702,-112 830.37,-90.54 867.11,-100.16 998.3,-76.11"/>
<polygon fill="midnightblue" stroke="midnightblue" points="999.14,-79.52 1008.33,-74.24 997.86,-72.64 999.14,-79.52"/>
</g>
<!-- Node17 -->
<g id="node17" class="node">
<title>Node17</title>
<g id="a_node17"><a xlink:title=" ">
<polygon fill="white" stroke="#bfbfbf" points="328,-56.5 328,-75.5 418,-75.5 418,-56.5 328,-56.5"/>
<text text-anchor="middle" x="373" y="-63.5" font-family="Helvetica,sans-Serif" font-size="10.00">QReadWriteLock</text>
</a>
</g>
</g>
<!-- Node4&#45;&gt;Node17 -->
<g id="edge19" class="edge">
<title>Node4&#45;&gt;Node17</title>
<path fill="none" stroke="midnightblue" d="M627.36,-114.86C578.89,-105.74 487.27,-88.5 428.24,-77.39"/>
<polygon fill="midnightblue" stroke="midnightblue" points="428.81,-73.94 418.33,-75.53 427.51,-80.82 428.81,-73.94"/>
</g>
<!-- Node18 -->
<g id="node18" class="node">
<title>Node18</title>
<g id="a_node18"><a xlink:title=" ">
<polygon fill="white" stroke="#bfbfbf" points="436.5,-56.5 436.5,-75.5 501.5,-75.5 501.5,-56.5 436.5,-56.5"/>
<text text-anchor="middle" x="469" y="-63.5" font-family="Helvetica,sans-Serif" font-size="10.00">QRunnable</text>
</a>
</g>
</g>
<!-- Node4&#45;&gt;Node18 -->
<g id="edge20" class="edge">
<title>Node4&#45;&gt;Node18</title>
<path fill="none" stroke="midnightblue" d="M629.74,-112.44C597.04,-103.2 544.82,-88.44 508.82,-78.26"/>
<polygon fill="midnightblue" stroke="midnightblue" points="509.7,-74.87 499.12,-75.52 507.79,-81.61 509.7,-74.87"/>
</g>
<!-- Node19 -->
<g id="node19" class="node">
<title>Node19</title>
<g id="a_node19"><a xlink:title=" ">
<polygon fill="white" stroke="#bfbfbf" points="520,-56.5 520,-75.5 574,-75.5 574,-56.5 520,-56.5"/>
<text text-anchor="middle" x="547" y="-63.5" font-family="Helvetica,sans-Serif" font-size="10.00">QThread</text>
</a>
</g>
</g>
<!-- Node4&#45;&gt;Node19 -->
<g id="edge21" class="edge">
<title>Node4&#45;&gt;Node19</title>
<path fill="none" stroke="midnightblue" d="M642.09,-112.44C623.75,-103.68 594.99,-89.94 573.91,-79.86"/>
<polygon fill="midnightblue" stroke="midnightblue" points="575.35,-76.67 564.82,-75.52 572.33,-82.99 575.35,-76.67"/>
</g>
<!-- Node20 -->
<g id="node20" class="node">
<title>Node20</title>
<g id="a_node20"><a xlink:title=" ">
<polygon fill="white" stroke="#bfbfbf" points="592.5,-56.5 592.5,-75.5 641.5,-75.5 641.5,-56.5 592.5,-56.5"/>
<text text-anchor="middle" x="617" y="-63.5" font-family="Helvetica,sans-Serif" font-size="10.00">QTimer</text>
</a>
</g>
</g>
<!-- Node4&#45;&gt;Node20 -->
<g id="edge22" class="edge">
<title>Node4&#45;&gt;Node20</title>
<path fill="none" stroke="midnightblue" d="M652.9,-112.08C646.76,-104.38 637.73,-93.03 630.26,-83.65"/>
<polygon fill="midnightblue" stroke="midnightblue" points="632.94,-81.39 623.97,-75.75 627.46,-85.75 632.94,-81.39"/>
</g>
<!-- Node5&#45;&gt;Node3 -->
<g id="edge6" class="edge">
<title>Node5&#45;&gt;Node3</title>
<path fill="none" stroke="midnightblue" d="M743.61,-56.44C791.36,-46.13 870.94,-28.94 917.33,-18.92"/>
<polygon fill="midnightblue" stroke="midnightblue" points="918.22,-22.31 927.26,-16.78 916.74,-15.47 918.22,-22.31"/>
</g>
<!-- Node6 -->
<g id="node6" class="node">
<title>Node6</title>
<g id="a_node6"><a xlink:title=" ">
<polygon fill="white" stroke="#bfbfbf" points="684,-0.5 684,-19.5 724,-19.5 724,-0.5 684,-0.5"/>
<text text-anchor="middle" x="704" y="-7.5" font-family="Helvetica,sans-Serif" font-size="10.00">QList</text>
</a>
</g>
</g>
<!-- Node5&#45;&gt;Node6 -->
<g id="edge5" class="edge">
<title>Node5&#45;&gt;Node6</title>
<path fill="none" stroke="midnightblue" d="M704,-56.08C704,-49.01 704,-38.86 704,-29.99"/>
<polygon fill="midnightblue" stroke="midnightblue" points="707.5,-29.75 704,-19.75 700.5,-29.75 707.5,-29.75"/>
</g>
<!-- Node7&#45;&gt;Node3 -->
<g id="edge8" class="edge">
<title>Node7&#45;&gt;Node3</title>
<path fill="none" stroke="midnightblue" d="M1110.53,-56.44C1077.99,-47 1025.58,-31.78 990.48,-21.59"/>
<polygon fill="midnightblue" stroke="midnightblue" points="991.2,-18.16 980.62,-18.73 989.25,-24.88 991.2,-18.16"/>
</g>
<!-- Node8&#45;&gt;Node3 -->
<g id="edge11" class="edge">
<title>Node8&#45;&gt;Node3</title>
<path fill="none" stroke="midnightblue" d="M310.05,-57.27C313.08,-56.8 316.08,-56.37 319,-56 545.15,-27.31 819.11,-15.64 917.02,-12.19"/>
<polygon fill="midnightblue" stroke="midnightblue" points="917.41,-15.68 927.28,-11.83 917.16,-8.68 917.41,-15.68"/>
</g>
<!-- Node9 -->
<g id="node9" class="node">
<title>Node9</title>
<g id="a_node9"><a xlink:title=" ">
<polygon fill="white" stroke="#bfbfbf" points="140,-0.5 140,-19.5 224,-19.5 224,-0.5 140,-0.5"/>
<text text-anchor="middle" x="182" y="-7.5" font-family="Helvetica,sans-Serif" font-size="10.00">QElapsedTimer</text>
</a>
</g>
</g>
<!-- Node8&#45;&gt;Node9 -->
<g id="edge10" class="edge">
<title>Node8&#45;&gt;Node9</title>
<path fill="none" stroke="midnightblue" d="M255.86,-56.32C242.13,-47.9 221.06,-34.97 204.94,-25.07"/>
<polygon fill="midnightblue" stroke="midnightblue" points="206.46,-21.9 196.1,-19.65 202.8,-27.87 206.46,-21.9"/>
</g>
<!-- Node10 -->
<g id="node10" class="node">
<title>Node10</title>
<g id="a_node10"><a xlink:title=" ">
<polygon fill="white" stroke="#bfbfbf" points="242.5,-0.5 242.5,-19.5 297.5,-19.5 297.5,-0.5 242.5,-0.5"/>
<text text-anchor="middle" x="270" y="-7.5" font-family="Helvetica,sans-Serif" font-size="10.00">QPointer</text>
</a>
</g>
</g>
<!-- Node8&#45;&gt;Node10 -->
<g id="edge12" class="edge">
<title>Node8&#45;&gt;Node10</title>
<path fill="none" stroke="midnightblue" d="M270,-56.08C270,-49.01 270,-38.86 270,-29.99"/>
<polygon fill="midnightblue" stroke="midnightblue" points="273.5,-29.75 270,-19.75 266.5,-29.75 273.5,-29.75"/>
</g>
<!-- Node11 -->
<g id="node11" class="node">
<title>Node11</title>
<g id="a_node11"><a xlink:title=" ">
<polygon fill="white" stroke="#bfbfbf" points="316,-0.5 316,-19.5 362,-19.5 362,-0.5 316,-0.5"/>
<text text-anchor="middle" x="339" y="-7.5" font-family="Helvetica,sans-Serif" font-size="10.00">QTime</text>
</a>
</g>
</g>
<!-- Node8&#45;&gt;Node11 -->
<g id="edge13" class="edge">
<title>Node8&#45;&gt;Node11</title>
<path fill="none" stroke="midnightblue" d="M281.09,-56.32C291.49,-48.18 307.26,-35.84 319.72,-26.09"/>
<polygon fill="midnightblue" stroke="midnightblue" points="321.99,-28.75 327.71,-19.83 317.68,-23.24 321.99,-28.75"/>
</g>
<!-- Node12 -->
<g id="node12" class="node">
<title>Node12</title>
<g id="a_node12"><a xlink:title=" ">
<polygon fill="white" stroke="#bfbfbf" points="380,-0.5 380,-19.5 434,-19.5 434,-0.5 380,-0.5"/>
<text text-anchor="middle" x="407" y="-7.5" font-family="Helvetica,sans-Serif" font-size="10.00">QVariant</text>
</a>
</g>
</g>
<!-- Node8&#45;&gt;Node12 -->
<g id="edge14" class="edge">
<title>Node8&#45;&gt;Node12</title>
<path fill="none" stroke="midnightblue" d="M291.71,-56.44C314.35,-47.52 350.07,-33.44 375.75,-23.32"/>
<polygon fill="midnightblue" stroke="midnightblue" points="377.37,-26.44 385.39,-19.52 374.81,-19.93 377.37,-26.44"/>
</g>
<!-- Node13 -->
<g id="node13" class="node">
<title>Node13</title>
<g id="a_node13"><a xlink:title=" ">
<polygon fill="white" stroke="#bfbfbf" points="0,-0.5 0,-19.5 122,-19.5 122,-0.5 0,-0.5"/>
<text text-anchor="middle" x="61" y="-7.5" font-family="Helvetica,sans-Serif" font-size="10.00">QtWidgets/QApplication</text>
</a>
</g>
</g>
<!-- Node8&#45;&gt;Node13 -->
<g id="edge15" class="edge">
<title>Node8&#45;&gt;Node13</title>
<path fill="none" stroke="midnightblue" d="M236.88,-56.44C200.88,-47.14 143.23,-32.25 103.81,-22.06"/>
<polygon fill="midnightblue" stroke="midnightblue" points="104.52,-18.63 93.96,-19.52 102.77,-25.41 104.52,-18.63"/>
</g>
</g>
</svg>
