<?xml version="1.0" encoding="UTF-8" standalone="no"?>
<!DOCTYPE svg PUBLIC "-//W3C//DTD SVG 1.1//EN"
 "http://www.w3.org/Graphics/SVG/1.1/DTD/svg11.dtd">
<!-- Generated by graphviz version 2.43.0 (0)
 -->
<!-- Title: /home/pawel/antimicrox/src/stickpushbuttongroup.cpp Pages: 1 -->
<!--zoomable 487 -->
<svg id="main" version="1.1" xmlns="http://www.w3.org/2000/svg" xmlns:xlink="http://www.w3.org/1999/xlink" xml:space="preserve" onload="init(evt)">
<style type="text/css"><![CDATA[
.edge:hover path { stroke: red; }
.edge:hover polygon { stroke: red; fill: red; }
]]></style>
<script type="text/javascript"><![CDATA[
var edges = document.getElementsByTagName('g');
if (edges && edges.length) {
  for (var i=0;i<edges.length;i++) {
    if (edges[i].id.substr(0,4)=='edge') {
      edges[i].setAttribute('class','edge');
    }
  }
}
]]></script>
        <defs>
                <circle id="rim" cx="0" cy="0" r="7"/>
                <circle id="rim2" cx="0" cy="0" r="3.5"/>
                <g id="zoomPlus">
                        <use xlink:href="#rim" fill="#404040">
                                <set attributeName="fill" to="#808080" begin="zoomplus.mouseover" end="zoomplus.mouseout"/>
                        </use>
                        <path d="M-4,0h8M0,-4v8" fill="none" stroke="white" stroke-width="1.5" pointer-events="none"/>
                </g>
                <g id="zoomMin">
                        <use xlink:href="#rim" fill="#404040">
                                <set attributeName="fill" to="#808080" begin="zoomminus.mouseover" end="zoomminus.mouseout"/>
                        </use>
                        <path d="M-4,0h8" fill="none" stroke="white" stroke-width="1.5" pointer-events="none"/>
                </g>
                <g id="dirArrow">
                        <path fill="none" stroke="white" stroke-width="1.5" d="M0,-3.0v7 M-2.5,-0.5L0,-3.0L2.5,-0.5"/>
                </g>
               <g id="resetDef">
                       <use xlink:href="#rim2" fill="#404040">
                               <set attributeName="fill" to="#808080" begin="reset.mouseover" end="reset.mouseout"/>
                       </use>
               </g>
        </defs>

<script type="text/javascript">
var viewWidth = 1683;
var viewHeight = 487;
var sectionId = 'dynsection-0';
</script>
<script xlink:href="svgpan.js"/>
<svg id="graph" class="graph">
<g id="viewport">
<title>/home/pawel/antimicrox/src/stickpushbuttongroup.cpp</title>
<polygon fill="white" stroke="transparent" points="-4,4 -4,-483 1679,-483 1679,4 -4,4"/>
<!-- Node1 -->
<g id="node1" class="node">
<title>Node1</title>
<g id="a_node1"><a xlink:title=" ">
<polygon fill="#bfbfbf" stroke="black" points="868,-448.5 868,-478.5 1016,-478.5 1016,-448.5 868,-448.5"/>
<text text-anchor="start" x="876" y="-466.5" font-family="Helvetica,sans-Serif" font-size="10.00">/home/pawel/antimicrox</text>
<text text-anchor="middle" x="942" y="-455.5" font-family="Helvetica,sans-Serif" font-size="10.00">/src/stickpushbuttongroup.cpp</text>
</a>
</g>
</g>
<!-- Node2 -->
<g id="node2" class="node">
<title>Node2</title>
<g id="a_node2"><a xlink:href="stickpushbuttongroup_8h.html" target="_top" xlink:title=" ">
<polygon fill="white" stroke="black" points="393,-392.5 393,-411.5 511,-411.5 511,-392.5 393,-392.5"/>
<text text-anchor="middle" x="452" y="-399.5" font-family="Helvetica,sans-Serif" font-size="10.00">stickpushbuttongroup.h</text>
</a>
</g>
</g>
<!-- Node1&#45;&gt;Node2 -->
<g id="edge1" class="edge">
<title>Node1&#45;&gt;Node2</title>
<path fill="none" stroke="midnightblue" d="M867.64,-453.89C785.45,-444.3 648.86,-428.18 521.28,-412.15"/>
<polygon fill="midnightblue" stroke="midnightblue" points="521.69,-408.67 511.33,-410.9 520.82,-415.62 521.69,-408.67"/>
</g>
<!-- Node5 -->
<g id="node5" class="node">
<title>Node5</title>
<g id="a_node5"><a xlink:href="buttoneditdialog_8h.html" target="_top" xlink:title=" ">
<polygon fill="white" stroke="black" points="529.5,-392.5 529.5,-411.5 622.5,-411.5 622.5,-392.5 529.5,-392.5"/>
<text text-anchor="middle" x="576" y="-399.5" font-family="Helvetica,sans-Serif" font-size="10.00">buttoneditdialog.h</text>
</a>
</g>
</g>
<!-- Node1&#45;&gt;Node5 -->
<g id="edge4" class="edge">
<title>Node1&#45;&gt;Node5</title>
<path fill="none" stroke="midnightblue" d="M867.93,-450.46C798.48,-439.17 696.12,-422.53 632.88,-412.25"/>
<polygon fill="midnightblue" stroke="midnightblue" points="633.13,-408.74 622.7,-410.59 632.01,-415.65 633.13,-408.74"/>
</g>
<!-- Node15 -->
<g id="node15" class="node">
<title>Node15</title>
<g id="a_node15"><a xlink:href="inputdevice_8h.html" target="_top" xlink:title=" ">
<polygon fill="white" stroke="black" points="905,-392.5 905,-411.5 979,-411.5 979,-392.5 905,-392.5"/>
<text text-anchor="middle" x="942" y="-399.5" font-family="Helvetica,sans-Serif" font-size="10.00">inputdevice.h</text>
</a>
</g>
</g>
<!-- Node1&#45;&gt;Node15 -->
<g id="edge14" class="edge">
<title>Node1&#45;&gt;Node15</title>
<path fill="none" stroke="midnightblue" d="M942,-448.4C942,-440.47 942,-430.46 942,-421.86"/>
<polygon fill="midnightblue" stroke="midnightblue" points="945.5,-421.66 942,-411.66 938.5,-421.66 945.5,-421.66"/>
</g>
<!-- Node38 -->
<g id="node38" class="node">
<title>Node38</title>
<g id="a_node38"><a xlink:href="joycontrolstickbutton_8h.html" target="_top" xlink:title=" ">
<polygon fill="white" stroke="black" points="773.5,-280.5 773.5,-299.5 954.5,-299.5 954.5,-280.5 773.5,-280.5"/>
<text text-anchor="middle" x="864" y="-287.5" font-family="Helvetica,sans-Serif" font-size="10.00">joybuttontypes/joycontrolstickbutton.h</text>
</a>
</g>
</g>
<!-- Node1&#45;&gt;Node38 -->
<g id="edge45" class="edge">
<title>Node1&#45;&gt;Node38</title>
<path fill="none" stroke="midnightblue" d="M925.35,-448.11C915.48,-438.74 903.49,-425.75 896,-412 877.88,-378.72 869.6,-334.64 866.16,-309.91"/>
<polygon fill="midnightblue" stroke="midnightblue" points="869.6,-309.22 864.87,-299.73 862.65,-310.1 869.6,-309.22"/>
</g>
<!-- Node39 -->
<g id="node39" class="node">
<title>Node39</title>
<g id="a_node39"><a xlink:href="joycontrolstick_8h.html" target="_top" xlink:title=" ">
<polygon fill="white" stroke="black" points="668.5,-280.5 668.5,-299.5 755.5,-299.5 755.5,-280.5 668.5,-280.5"/>
<text text-anchor="middle" x="712" y="-287.5" font-family="Helvetica,sans-Serif" font-size="10.00">joycontrolstick.h</text>
</a>
</g>
</g>
<!-- Node1&#45;&gt;Node39 -->
<g id="edge48" class="edge">
<title>Node1&#45;&gt;Node39</title>
<path fill="none" stroke="midnightblue" d="M924.04,-448.41C911.99,-438.65 896.01,-425.11 883,-412 851.9,-380.65 854.56,-362.18 819,-336 798.96,-321.25 773.37,-310.26 752.24,-302.84"/>
<polygon fill="midnightblue" stroke="midnightblue" points="753.17,-299.46 742.57,-299.58 750.93,-306.09 753.17,-299.46"/>
</g>
<!-- Node40 -->
<g id="node40" class="node">
<title>Node40</title>
<g id="a_node40"><a xlink:href="joycontrolstickbuttonpushbutton_8h.html" target="_top" xlink:title=" ">
<polygon fill="white" stroke="black" points="997,-392.5 997,-411.5 1159,-411.5 1159,-392.5 997,-392.5"/>
<text text-anchor="middle" x="1078" y="-399.5" font-family="Helvetica,sans-Serif" font-size="10.00">joycontrolstickbuttonpushbutton.h</text>
</a>
</g>
</g>
<!-- Node1&#45;&gt;Node40 -->
<g id="edge51" class="edge">
<title>Node1&#45;&gt;Node40</title>
<path fill="none" stroke="midnightblue" d="M974.23,-448.4C996.84,-438.51 1026.84,-425.38 1048.76,-415.79"/>
<polygon fill="midnightblue" stroke="midnightblue" points="1050.45,-418.87 1058.21,-411.66 1047.65,-412.46 1050.45,-418.87"/>
</g>
<!-- Node43 -->
<g id="node43" class="node">
<title>Node43</title>
<g id="a_node43"><a xlink:href="joycontrolstickeditdialog_8h.html" target="_top" xlink:title=" ">
<polygon fill="white" stroke="black" points="648,-392.5 648,-411.5 776,-411.5 776,-392.5 648,-392.5"/>
<text text-anchor="middle" x="712" y="-399.5" font-family="Helvetica,sans-Serif" font-size="10.00">joycontrolstickeditdialog.h</text>
</a>
</g>
</g>
<!-- Node1&#45;&gt;Node43 -->
<g id="edge54" class="edge">
<title>Node1&#45;&gt;Node43</title>
<path fill="none" stroke="midnightblue" d="M887.78,-448.47C847.24,-437.99 792.55,-423.84 754.99,-414.12"/>
<polygon fill="midnightblue" stroke="midnightblue" points="755.44,-410.62 744.88,-411.51 753.69,-417.4 755.44,-410.62"/>
</g>
<!-- Node45 -->
<g id="node45" class="node">
<title>Node45</title>
<g id="a_node45"><a xlink:href="joycontrolstickpushbutton_8h.html" target="_top" xlink:title=" ">
<polygon fill="white" stroke="black" points="1177.5,-392.5 1177.5,-411.5 1312.5,-411.5 1312.5,-392.5 1177.5,-392.5"/>
<text text-anchor="middle" x="1245" y="-399.5" font-family="Helvetica,sans-Serif" font-size="10.00">joycontrolstickpushbutton.h</text>
</a>
</g>
</g>
<!-- Node1&#45;&gt;Node45 -->
<g id="edge58" class="edge">
<title>Node1&#45;&gt;Node45</title>
<path fill="none" stroke="midnightblue" d="M1013.42,-448.47C1068.09,-437.74 1142.29,-423.17 1191.81,-413.44"/>
<polygon fill="midnightblue" stroke="midnightblue" points="1192.54,-416.87 1201.68,-411.51 1191.19,-410 1192.54,-416.87"/>
</g>
<!-- Node46 -->
<g id="node46" class="node">
<title>Node46</title>
<g id="a_node46"><a xlink:title=" ">
<polygon fill="white" stroke="#bfbfbf" points="1330.5,-392.5 1330.5,-411.5 1383.5,-411.5 1383.5,-392.5 1330.5,-392.5"/>
<text text-anchor="middle" x="1357" y="-399.5" font-family="Helvetica,sans-Serif" font-size="10.00">QDebug</text>
</a>
</g>
</g>
<!-- Node1&#45;&gt;Node46 -->
<g id="edge60" class="edge">
<title>Node1&#45;&gt;Node46</title>
<path fill="none" stroke="midnightblue" d="M1016.34,-455.28C1091,-447.42 1209.46,-433.32 1320.31,-412.15"/>
<polygon fill="midnightblue" stroke="midnightblue" points="1321.17,-415.55 1330.32,-410.21 1319.84,-408.67 1321.17,-415.55"/>
</g>
<!-- Node47 -->
<g id="node47" class="node">
<title>Node47</title>
<g id="a_node47"><a xlink:title=" ">
<polygon fill="white" stroke="#bfbfbf" points="1401.5,-392.5 1401.5,-411.5 1448.5,-411.5 1448.5,-392.5 1401.5,-392.5"/>
<text text-anchor="middle" x="1425" y="-399.5" font-family="Helvetica,sans-Serif" font-size="10.00">QHash</text>
</a>
</g>
</g>
<!-- Node1&#45;&gt;Node47 -->
<g id="edge61" class="edge">
<title>Node1&#45;&gt;Node47</title>
<path fill="none" stroke="midnightblue" d="M1016.39,-457.89C1104.15,-451.63 1254.48,-438.28 1391.5,-412.03"/>
<polygon fill="midnightblue" stroke="midnightblue" points="1392.19,-415.46 1401.34,-410.12 1390.85,-408.59 1392.19,-415.46"/>
</g>
<!-- Node48 -->
<g id="node48" class="node">
<title>Node48</title>
<g id="a_node48"><a xlink:title=" ">
<polygon fill="white" stroke="#bfbfbf" points="1466.5,-392.5 1466.5,-411.5 1521.5,-411.5 1521.5,-392.5 1466.5,-392.5"/>
<text text-anchor="middle" x="1494" y="-399.5" font-family="Helvetica,sans-Serif" font-size="10.00">QWidget</text>
</a>
</g>
</g>
<!-- Node1&#45;&gt;Node48 -->
<g id="edge62" class="edge">
<title>Node1&#45;&gt;Node48</title>
<path fill="none" stroke="midnightblue" d="M1016.37,-458.67C1115.01,-452.83 1294.57,-439.52 1456.06,-412.13"/>
<polygon fill="midnightblue" stroke="midnightblue" points="1456.92,-415.53 1466.18,-410.39 1455.73,-408.63 1456.92,-415.53"/>
</g>
<!-- Node3 -->
<g id="node3" class="node">
<title>Node3</title>
<g id="a_node3"><a xlink:href="joycontrolstickdirectionstype_8h.html" target="_top" xlink:title=" ">
<polygon fill="white" stroke="black" points="548.5,-224.5 548.5,-243.5 695.5,-243.5 695.5,-224.5 548.5,-224.5"/>
<text text-anchor="middle" x="622" y="-231.5" font-family="Helvetica,sans-Serif" font-size="10.00">joycontrolstickdirectionstype.h</text>
</a>
</g>
</g>
<!-- Node2&#45;&gt;Node3 -->
<g id="edge2" class="edge">
<title>Node2&#45;&gt;Node3</title>
<path fill="none" stroke="midnightblue" d="M461.14,-392.08C488.59,-365.27 570.6,-285.19 605.73,-250.89"/>
<polygon fill="midnightblue" stroke="midnightblue" points="608.52,-253.06 613.23,-243.57 603.63,-248.05 608.52,-253.06"/>
</g>
<!-- Node4 -->
<g id="node4" class="node">
<title>Node4</title>
<g id="a_node4"><a xlink:title=" ">
<polygon fill="white" stroke="#bfbfbf" points="377.5,-336.5 377.5,-355.5 448.5,-355.5 448.5,-336.5 377.5,-336.5"/>
<text text-anchor="middle" x="413" y="-343.5" font-family="Helvetica,sans-Serif" font-size="10.00">QGridLayout</text>
</a>
</g>
</g>
<!-- Node2&#45;&gt;Node4 -->
<g id="edge3" class="edge">
<title>Node2&#45;&gt;Node4</title>
<path fill="none" stroke="midnightblue" d="M445.56,-392.08C440.05,-384.46 431.97,-373.26 425.24,-363.94"/>
<polygon fill="midnightblue" stroke="midnightblue" points="428.01,-361.81 419.32,-355.75 422.34,-365.91 428.01,-361.81"/>
</g>
<!-- Node6 -->
<g id="node6" class="node">
<title>Node6</title>
<g id="a_node6"><a xlink:title=" ">
<polygon fill="white" stroke="#bfbfbf" points="543,-336.5 543,-355.5 595,-355.5 595,-336.5 543,-336.5"/>
<text text-anchor="middle" x="569" y="-343.5" font-family="Helvetica,sans-Serif" font-size="10.00">QDialog</text>
</a>
</g>
</g>
<!-- Node5&#45;&gt;Node6 -->
<g id="edge5" class="edge">
<title>Node5&#45;&gt;Node6</title>
<path fill="none" stroke="midnightblue" d="M574.84,-392.08C573.92,-384.93 572.58,-374.64 571.42,-365.69"/>
<polygon fill="midnightblue" stroke="midnightblue" points="574.89,-365.22 570.13,-355.75 567.95,-366.12 574.89,-365.22"/>
</g>
<!-- Node7 -->
<g id="node7" class="node">
<title>Node7</title>
<g id="a_node7"><a xlink:href="buttoneditdialoghelper_8h.html" target="_top" xlink:title=" ">
<polygon fill="white" stroke="black" points="368,-168.5 368,-187.5 530,-187.5 530,-168.5 368,-168.5"/>
<text text-anchor="middle" x="449" y="-175.5" font-family="Helvetica,sans-Serif" font-size="10.00">uihelpers/buttoneditdialoghelper.h</text>
</a>
</g>
</g>
<!-- Node5&#45;&gt;Node7 -->
<g id="edge6" class="edge">
<title>Node5&#45;&gt;Node7</title>
<path fill="none" stroke="midnightblue" d="M566.43,-392.39C557.29,-383.82 543.52,-369.94 534,-356 497.38,-302.39 468.2,-230.57 455.66,-197.32"/>
<polygon fill="midnightblue" stroke="midnightblue" points="458.81,-195.76 452.06,-187.6 452.25,-198.19 458.81,-195.76"/>
</g>
<!-- Node8 -->
<g id="node8" class="node">
<title>Node8</title>
<g id="a_node8"><a xlink:href="joybuttonslot_8h.html" target="_top" xlink:title=" ">
<polygon fill="white" stroke="black" points="214,-56.5 214,-75.5 294,-75.5 294,-56.5 214,-56.5"/>
<text text-anchor="middle" x="254" y="-63.5" font-family="Helvetica,sans-Serif" font-size="10.00">joybuttonslot.h</text>
</a>
</g>
</g>
<!-- Node7&#45;&gt;Node8 -->
<g id="edge7" class="edge">
<title>Node7&#45;&gt;Node8</title>
<path fill="none" stroke="midnightblue" d="M433.7,-168.37C399.88,-149.29 318.57,-103.42 277.94,-80.51"/>
<polygon fill="midnightblue" stroke="midnightblue" points="279.66,-77.46 269.23,-75.59 276.22,-83.55 279.66,-77.46"/>
</g>
<!-- Node9 -->
<g id="node9" class="node">
<title>Node9</title>
<g id="a_node9"><a xlink:title=" ">
<polygon fill="white" stroke="#bfbfbf" points="212,-0.5 212,-19.5 296,-19.5 296,-0.5 212,-0.5"/>
<text text-anchor="middle" x="254" y="-7.5" font-family="Helvetica,sans-Serif" font-size="10.00">QElapsedTimer</text>
</a>
</g>
</g>
<!-- Node8&#45;&gt;Node9 -->
<g id="edge8" class="edge">
<title>Node8&#45;&gt;Node9</title>
<path fill="none" stroke="midnightblue" d="M254,-56.08C254,-49.01 254,-38.86 254,-29.99"/>
<polygon fill="midnightblue" stroke="midnightblue" points="257.5,-29.75 254,-19.75 250.5,-29.75 257.5,-29.75"/>
</g>
<!-- Node10 -->
<g id="node10" class="node">
<title>Node10</title>
<g id="a_node10"><a xlink:title=" ">
<polygon fill="white" stroke="#bfbfbf" points="1044.5,-0.5 1044.5,-19.5 1097.5,-19.5 1097.5,-0.5 1044.5,-0.5"/>
<text text-anchor="middle" x="1071" y="-7.5" font-family="Helvetica,sans-Serif" font-size="10.00">QObject</text>
</a>
</g>
</g>
<!-- Node8&#45;&gt;Node10 -->
<g id="edge9" class="edge">
<title>Node8&#45;&gt;Node10</title>
<path fill="none" stroke="midnightblue" d="M294.05,-57.23C297.07,-56.77 300.08,-56.35 303,-56 582.75,-22.24 923.01,-13.56 1034.05,-11.55"/>
<polygon fill="midnightblue" stroke="midnightblue" points="1034.43,-15.05 1044.37,-11.37 1034.31,-8.05 1034.43,-15.05"/>
</g>
<!-- Node11 -->
<g id="node11" class="node">
<title>Node11</title>
<g id="a_node11"><a xlink:title=" ">
<polygon fill="white" stroke="#bfbfbf" points="314.5,-0.5 314.5,-19.5 369.5,-19.5 369.5,-0.5 314.5,-0.5"/>
<text text-anchor="middle" x="342" y="-7.5" font-family="Helvetica,sans-Serif" font-size="10.00">QPointer</text>
</a>
</g>
</g>
<!-- Node8&#45;&gt;Node11 -->
<g id="edge10" class="edge">
<title>Node8&#45;&gt;Node11</title>
<path fill="none" stroke="midnightblue" d="M268.14,-56.32C281.87,-47.9 302.94,-34.97 319.06,-25.07"/>
<polygon fill="midnightblue" stroke="midnightblue" points="321.2,-27.87 327.9,-19.65 317.54,-21.9 321.2,-27.87"/>
</g>
<!-- Node12 -->
<g id="node12" class="node">
<title>Node12</title>
<g id="a_node12"><a xlink:title=" ">
<polygon fill="white" stroke="#bfbfbf" points="388,-0.5 388,-19.5 434,-19.5 434,-0.5 388,-0.5"/>
<text text-anchor="middle" x="411" y="-7.5" font-family="Helvetica,sans-Serif" font-size="10.00">QTime</text>
</a>
</g>
</g>
<!-- Node8&#45;&gt;Node12 -->
<g id="edge11" class="edge">
<title>Node8&#45;&gt;Node12</title>
<path fill="none" stroke="midnightblue" d="M278.88,-56.44C305.76,-47.2 348.7,-32.43 378.29,-22.25"/>
<polygon fill="midnightblue" stroke="midnightblue" points="379.46,-25.55 387.77,-18.99 377.18,-18.93 379.46,-25.55"/>
</g>
<!-- Node13 -->
<g id="node13" class="node">
<title>Node13</title>
<g id="a_node13"><a xlink:title=" ">
<polygon fill="white" stroke="#bfbfbf" points="0,-0.5 0,-19.5 54,-19.5 54,-0.5 0,-0.5"/>
<text text-anchor="middle" x="27" y="-7.5" font-family="Helvetica,sans-Serif" font-size="10.00">QVariant</text>
</a>
</g>
</g>
<!-- Node8&#45;&gt;Node13 -->
<g id="edge12" class="edge">
<title>Node8&#45;&gt;Node13</title>
<path fill="none" stroke="midnightblue" d="M216.99,-56.44C180.52,-47.96 122.94,-34.5 63.97,-20.21"/>
<polygon fill="midnightblue" stroke="midnightblue" points="64.66,-16.78 54.12,-17.82 63.01,-23.58 64.66,-16.78"/>
</g>
<!-- Node14 -->
<g id="node14" class="node">
<title>Node14</title>
<g id="a_node14"><a xlink:title=" ">
<polygon fill="white" stroke="#bfbfbf" points="72,-0.5 72,-19.5 194,-19.5 194,-0.5 72,-0.5"/>
<text text-anchor="middle" x="133" y="-7.5" font-family="Helvetica,sans-Serif" font-size="10.00">QtWidgets/QApplication</text>
</a>
</g>
</g>
<!-- Node8&#45;&gt;Node14 -->
<g id="edge13" class="edge">
<title>Node8&#45;&gt;Node14</title>
<path fill="none" stroke="midnightblue" d="M234.83,-56.44C215.09,-47.64 184.11,-33.81 161.51,-23.72"/>
<polygon fill="midnightblue" stroke="midnightblue" points="162.64,-20.4 152.08,-19.52 159.79,-26.79 162.64,-20.4"/>
</g>
<!-- Node16 -->
<g id="node16" class="node">
<title>Node16</title>
<g id="a_node16"><a xlink:href="setjoystick_8h.html" target="_top" xlink:title=" ">
<polygon fill="white" stroke="black" points="941.5,-336.5 941.5,-355.5 1012.5,-355.5 1012.5,-336.5 941.5,-336.5"/>
<text text-anchor="middle" x="977" y="-343.5" font-family="Helvetica,sans-Serif" font-size="10.00">setjoystick.h</text>
</a>
</g>
</g>
<!-- Node15&#45;&gt;Node16 -->
<g id="edge15" class="edge">
<title>Node15&#45;&gt;Node16</title>
<path fill="none" stroke="midnightblue" d="M947.78,-392.08C952.67,-384.53 959.83,-373.49 965.83,-364.23"/>
<polygon fill="midnightblue" stroke="midnightblue" points="968.83,-366.05 971.33,-355.75 962.95,-362.24 968.83,-366.05"/>
</g>
<!-- Node37 -->
<g id="node37" class="node">
<title>Node37</title>
<g id="a_node37"><a xlink:title=" ">
<polygon fill="white" stroke="#bfbfbf" points="1031,-336.5 1031,-355.5 1141,-355.5 1141,-336.5 1031,-336.5"/>
<text text-anchor="middle" x="1086" y="-343.5" font-family="Helvetica,sans-Serif" font-size="10.00">SDL2/SDL_joystick.h</text>
</a>
</g>
</g>
<!-- Node15&#45;&gt;Node37 -->
<g id="edge44" class="edge">
<title>Node15&#45;&gt;Node37</title>
<path fill="none" stroke="midnightblue" d="M964.82,-392.44C988.83,-383.44 1026.83,-369.19 1053.87,-359.05"/>
<polygon fill="midnightblue" stroke="midnightblue" points="1055.16,-362.3 1063.29,-355.52 1052.7,-355.75 1055.16,-362.3"/>
</g>
<!-- Node17 -->
<g id="node17" class="node">
<title>Node17</title>
<g id="a_node17"><a xlink:href="joyaxis_8h.html" target="_top" xlink:title=" ">
<polygon fill="white" stroke="black" points="998,-280.5 998,-299.5 1054,-299.5 1054,-280.5 998,-280.5"/>
<text text-anchor="middle" x="1026" y="-287.5" font-family="Helvetica,sans-Serif" font-size="10.00">joyaxis.h</text>
</a>
</g>
</g>
<!-- Node16&#45;&gt;Node17 -->
<g id="edge16" class="edge">
<title>Node16&#45;&gt;Node17</title>
<path fill="none" stroke="midnightblue" d="M985.09,-336.08C992.16,-328.3 1002.59,-316.8 1011.15,-307.37"/>
<polygon fill="midnightblue" stroke="midnightblue" points="1013.93,-309.51 1018.06,-299.75 1008.75,-304.8 1013.93,-309.51"/>
</g>
<!-- Node36 -->
<g id="node36" class="node">
<title>Node36</title>
<g id="a_node36"><a xlink:href="setjoystickxml_8h.html" target="_top" xlink:title=" ">
<polygon fill="white" stroke="black" points="1569,-224.5 1569,-243.5 1675,-243.5 1675,-224.5 1569,-224.5"/>
<text text-anchor="middle" x="1622" y="-231.5" font-family="Helvetica,sans-Serif" font-size="10.00">xml/setjoystickxml.h</text>
</a>
</g>
</g>
<!-- Node16&#45;&gt;Node36 -->
<g id="edge42" class="edge">
<title>Node16&#45;&gt;Node36</title>
<path fill="none" stroke="midnightblue" d="M998.63,-336.42C1035.44,-322.21 1112.91,-293.96 1181,-280 1344.59,-246.46 1389.11,-263.12 1555,-244 1556.28,-243.85 1557.57,-243.7 1558.87,-243.55"/>
<polygon fill="midnightblue" stroke="midnightblue" points="1559.49,-247 1568.99,-242.31 1558.64,-240.05 1559.49,-247"/>
</g>
<!-- Node17&#45;&gt;Node10 -->
<g id="edge18" class="edge">
<title>Node17&#45;&gt;Node10</title>
<path fill="none" stroke="midnightblue" d="M1026.92,-280.45C1028.81,-261.97 1033,-216.89 1033,-179 1033,-179 1033,-179 1033,-121 1033,-86.81 1049.6,-49.76 1060.86,-28.57"/>
<polygon fill="midnightblue" stroke="midnightblue" points="1063.95,-30.22 1065.72,-19.77 1057.82,-26.83 1063.95,-30.22"/>
</g>
<!-- Node18 -->
<g id="node18" class="node">
<title>Node18</title>
<g id="a_node18"><a xlink:title=" ">
<polygon fill="white" stroke="#bfbfbf" points="1120,-0.5 1120,-19.5 1160,-19.5 1160,-0.5 1120,-0.5"/>
<text text-anchor="middle" x="1140" y="-7.5" font-family="Helvetica,sans-Serif" font-size="10.00">QList</text>
</a>
</g>
</g>
<!-- Node17&#45;&gt;Node18 -->
<g id="edge17" class="edge">
<title>Node17&#45;&gt;Node18</title>
<path fill="none" stroke="midnightblue" d="M1054.12,-282.18C1155.43,-256.99 1499.03,-165.96 1560,-76 1604.78,-9.93 1273.92,-9.11 1170.34,-10.44"/>
<polygon fill="midnightblue" stroke="midnightblue" points="1170.17,-6.94 1160.22,-10.59 1170.27,-13.94 1170.17,-6.94"/>
</g>
<!-- Node19 -->
<g id="node19" class="node">
<title>Node19</title>
<g id="a_node19"><a xlink:href="joyaxisbutton_8h.html" target="_top" xlink:title=" ">
<polygon fill="white" stroke="black" points="856.5,-224.5 856.5,-243.5 1005.5,-243.5 1005.5,-224.5 856.5,-224.5"/>
<text text-anchor="middle" x="931" y="-231.5" font-family="Helvetica,sans-Serif" font-size="10.00">joybuttontypes/joyaxisbutton.h</text>
</a>
</g>
</g>
<!-- Node17&#45;&gt;Node19 -->
<g id="edge19" class="edge">
<title>Node17&#45;&gt;Node19</title>
<path fill="none" stroke="midnightblue" d="M1010.74,-280.32C995.78,-271.82 972.75,-258.73 955.27,-248.8"/>
<polygon fill="midnightblue" stroke="midnightblue" points="956.65,-245.55 946.23,-243.65 953.19,-251.64 956.65,-245.55"/>
</g>
<!-- Node20 -->
<g id="node20" class="node">
<title>Node20</title>
<g id="a_node20"><a xlink:href="joygradientbutton_8h.html" target="_top" xlink:title=" ">
<polygon fill="white" stroke="black" points="752.5,-168.5 752.5,-187.5 917.5,-187.5 917.5,-168.5 752.5,-168.5"/>
<text text-anchor="middle" x="835" y="-175.5" font-family="Helvetica,sans-Serif" font-size="10.00">joybuttontypes/joygradientbutton.h</text>
</a>
</g>
</g>
<!-- Node19&#45;&gt;Node20 -->
<g id="edge20" class="edge">
<title>Node19&#45;&gt;Node20</title>
<path fill="none" stroke="midnightblue" d="M915.58,-224.32C900.46,-215.82 877.18,-202.73 859.53,-192.8"/>
<polygon fill="midnightblue" stroke="midnightblue" points="860.82,-189.51 850.39,-187.65 857.39,-195.61 860.82,-189.51"/>
</g>
<!-- Node31 -->
<g id="node31" class="node">
<title>Node31</title>
<g id="a_node31"><a xlink:href="logger_8h.html" target="_top" xlink:title=" ">
<polygon fill="white" stroke="black" points="1290.5,-112.5 1290.5,-131.5 1341.5,-131.5 1341.5,-112.5 1290.5,-112.5"/>
<text text-anchor="middle" x="1316" y="-119.5" font-family="Helvetica,sans-Serif" font-size="10.00">logger.h</text>
</a>
</g>
</g>
<!-- Node19&#45;&gt;Node31 -->
<g id="edge35" class="edge">
<title>Node19&#45;&gt;Node31</title>
<path fill="none" stroke="midnightblue" d="M960.89,-224.46C1030.92,-204.45 1205.34,-154.62 1280.55,-133.13"/>
<polygon fill="midnightblue" stroke="midnightblue" points="1281.83,-136.4 1290.49,-130.29 1279.91,-129.67 1281.83,-136.4"/>
</g>
<!-- Node21 -->
<g id="node21" class="node">
<title>Node21</title>
<g id="a_node21"><a xlink:href="joybutton_8h.html" target="_top" xlink:title=" ">
<polygon fill="white" stroke="black" points="698.5,-112.5 698.5,-131.5 763.5,-131.5 763.5,-112.5 698.5,-112.5"/>
<text text-anchor="middle" x="731" y="-119.5" font-family="Helvetica,sans-Serif" font-size="10.00">joybutton.h</text>
</a>
</g>
</g>
<!-- Node20&#45;&gt;Node21 -->
<g id="edge21" class="edge">
<title>Node20&#45;&gt;Node21</title>
<path fill="none" stroke="midnightblue" d="M818.29,-168.32C801.69,-159.7 776,-146.36 756.78,-136.39"/>
<polygon fill="midnightblue" stroke="midnightblue" points="758.16,-133.16 747.67,-131.65 754.93,-139.37 758.16,-133.16"/>
</g>
<!-- Node21&#45;&gt;Node8 -->
<g id="edge27" class="edge">
<title>Node21&#45;&gt;Node8</title>
<path fill="none" stroke="midnightblue" d="M698.41,-118.43C628.25,-112.73 457.52,-97.85 304.15,-76.06"/>
<polygon fill="midnightblue" stroke="midnightblue" points="304.47,-72.57 294.07,-74.62 303.47,-79.5 304.47,-72.57"/>
</g>
<!-- Node22 -->
<g id="node22" class="node">
<title>Node22</title>
<g id="a_node22"><a xlink:href="globalvariables_8h.html" target="_top" xlink:title=" ">
<polygon fill="white" stroke="black" points="1061.5,-56.5 1061.5,-75.5 1150.5,-75.5 1150.5,-56.5 1061.5,-56.5"/>
<text text-anchor="middle" x="1106" y="-63.5" font-family="Helvetica,sans-Serif" font-size="10.00">globalvariables.h</text>
</a>
</g>
</g>
<!-- Node21&#45;&gt;Node22 -->
<g id="edge22" class="edge">
<title>Node21&#45;&gt;Node22</title>
<path fill="none" stroke="midnightblue" d="M763.62,-116.3C828,-107.03 972,-86.3 1051.2,-74.89"/>
<polygon fill="midnightblue" stroke="midnightblue" points="1052.06,-78.3 1061.46,-73.41 1051.06,-71.38 1052.06,-78.3"/>
</g>
<!-- Node23 -->
<g id="node23" class="node">
<title>Node23</title>
<g id="a_node23"><a xlink:href="joybuttonmousehelper_8h.html" target="_top" xlink:title=" ">
<polygon fill="white" stroke="black" points="312,-56.5 312,-75.5 432,-75.5 432,-56.5 312,-56.5"/>
<text text-anchor="middle" x="372" y="-63.5" font-family="Helvetica,sans-Serif" font-size="10.00">joybuttonmousehelper.h</text>
</a>
</g>
</g>
<!-- Node21&#45;&gt;Node23 -->
<g id="edge25" class="edge">
<title>Node21&#45;&gt;Node23</title>
<path fill="none" stroke="midnightblue" d="M698.19,-116.06C639.55,-107.24 515.69,-88.61 438.6,-77.02"/>
<polygon fill="midnightblue" stroke="midnightblue" points="438.92,-73.53 428.51,-75.5 437.88,-80.45 438.92,-73.53"/>
</g>
<!-- Node24 -->
<g id="node24" class="node">
<title>Node24</title>
<g id="a_node24"><a xlink:href="springmousemoveinfo_8h.html" target="_top" xlink:title=" ">
<polygon fill="white" stroke="black" points="780.5,-56.5 780.5,-75.5 899.5,-75.5 899.5,-56.5 780.5,-56.5"/>
<text text-anchor="middle" x="840" y="-63.5" font-family="Helvetica,sans-Serif" font-size="10.00">springmousemoveinfo.h</text>
</a>
</g>
</g>
<!-- Node21&#45;&gt;Node24 -->
<g id="edge28" class="edge">
<title>Node21&#45;&gt;Node24</title>
<path fill="none" stroke="midnightblue" d="M748.51,-112.32C766.07,-103.62 793.33,-90.12 813.53,-80.11"/>
<polygon fill="midnightblue" stroke="midnightblue" points="815.12,-83.23 822.53,-75.65 812.02,-76.96 815.12,-83.23"/>
</g>
<!-- Node25 -->
<g id="node25" class="node">
<title>Node25</title>
<g id="a_node25"><a xlink:title=" ">
<polygon fill="white" stroke="#bfbfbf" points="917.5,-56.5 917.5,-75.5 1004.5,-75.5 1004.5,-56.5 917.5,-56.5"/>
<text text-anchor="middle" x="961" y="-63.5" font-family="Helvetica,sans-Serif" font-size="10.00">QDeadlineTimer</text>
</a>
</g>
</g>
<!-- Node21&#45;&gt;Node25 -->
<g id="edge29" class="edge">
<title>Node21&#45;&gt;Node25</title>
<path fill="none" stroke="midnightblue" d="M763.95,-113.26C803.56,-103.96 870.27,-88.3 914.95,-77.81"/>
<polygon fill="midnightblue" stroke="midnightblue" points="915.76,-81.22 924.69,-75.52 914.16,-74.4 915.76,-81.22"/>
</g>
<!-- Node26 -->
<g id="node26" class="node">
<title>Node26</title>
<g id="a_node26"><a xlink:title=" ">
<polygon fill="white" stroke="#bfbfbf" points="450.5,-56.5 450.5,-75.5 503.5,-75.5 503.5,-56.5 450.5,-56.5"/>
<text text-anchor="middle" x="477" y="-63.5" font-family="Helvetica,sans-Serif" font-size="10.00">QQueue</text>
</a>
</g>
</g>
<!-- Node21&#45;&gt;Node26 -->
<g id="edge30" class="edge">
<title>Node21&#45;&gt;Node26</title>
<path fill="none" stroke="midnightblue" d="M698.41,-114.71C657.63,-106.74 585.42,-92.33 513.8,-76.11"/>
<polygon fill="midnightblue" stroke="midnightblue" points="514.23,-72.62 503.71,-73.81 512.68,-79.44 514.23,-72.62"/>
</g>
<!-- Node27 -->
<g id="node27" class="node">
<title>Node27</title>
<g id="a_node27"><a xlink:title=" ">
<polygon fill="white" stroke="#bfbfbf" points="522,-56.5 522,-75.5 612,-75.5 612,-56.5 522,-56.5"/>
<text text-anchor="middle" x="567" y="-63.5" font-family="Helvetica,sans-Serif" font-size="10.00">QReadWriteLock</text>
</a>
</g>
</g>
<!-- Node21&#45;&gt;Node27 -->
<g id="edge31" class="edge">
<title>Node21&#45;&gt;Node27</title>
<path fill="none" stroke="midnightblue" d="M705.01,-112.44C677.3,-103.32 633.25,-88.81 602.38,-78.65"/>
<polygon fill="midnightblue" stroke="midnightblue" points="603.46,-75.32 592.86,-75.52 601.27,-81.97 603.46,-75.32"/>
</g>
<!-- Node28 -->
<g id="node28" class="node">
<title>Node28</title>
<g id="a_node28"><a xlink:title=" ">
<polygon fill="white" stroke="#bfbfbf" points="630.5,-56.5 630.5,-75.5 695.5,-75.5 695.5,-56.5 630.5,-56.5"/>
<text text-anchor="middle" x="663" y="-63.5" font-family="Helvetica,sans-Serif" font-size="10.00">QRunnable</text>
</a>
</g>
</g>
<!-- Node21&#45;&gt;Node28 -->
<g id="edge32" class="edge">
<title>Node21&#45;&gt;Node28</title>
<path fill="none" stroke="midnightblue" d="M720.07,-112.32C709.83,-104.18 694.28,-91.84 682,-82.09"/>
<polygon fill="midnightblue" stroke="midnightblue" points="684.13,-79.31 674.12,-75.83 679.78,-84.79 684.13,-79.31"/>
</g>
<!-- Node29 -->
<g id="node29" class="node">
<title>Node29</title>
<g id="a_node29"><a xlink:title=" ">
<polygon fill="white" stroke="#bfbfbf" points="1169,-56.5 1169,-75.5 1223,-75.5 1223,-56.5 1169,-56.5"/>
<text text-anchor="middle" x="1196" y="-63.5" font-family="Helvetica,sans-Serif" font-size="10.00">QThread</text>
</a>
</g>
</g>
<!-- Node21&#45;&gt;Node29 -->
<g id="edge33" class="edge">
<title>Node21&#45;&gt;Node29</title>
<path fill="none" stroke="midnightblue" d="M763.69,-119.06C834.04,-114.57 1005.13,-101.93 1158.53,-75.83"/>
<polygon fill="midnightblue" stroke="midnightblue" points="1159.35,-79.24 1168.61,-74.1 1158.16,-72.35 1159.35,-79.24"/>
</g>
<!-- Node30 -->
<g id="node30" class="node">
<title>Node30</title>
<g id="a_node30"><a xlink:title=" ">
<polygon fill="white" stroke="#bfbfbf" points="713.5,-56.5 713.5,-75.5 762.5,-75.5 762.5,-56.5 713.5,-56.5"/>
<text text-anchor="middle" x="738" y="-63.5" font-family="Helvetica,sans-Serif" font-size="10.00">QTimer</text>
</a>
</g>
</g>
<!-- Node21&#45;&gt;Node30 -->
<g id="edge34" class="edge">
<title>Node21&#45;&gt;Node30</title>
<path fill="none" stroke="midnightblue" d="M732.16,-112.08C733.08,-104.93 734.42,-94.64 735.58,-85.69"/>
<polygon fill="midnightblue" stroke="midnightblue" points="739.05,-86.12 736.87,-75.75 732.11,-85.22 739.05,-86.12"/>
</g>
<!-- Node22&#45;&gt;Node10 -->
<g id="edge24" class="edge">
<title>Node22&#45;&gt;Node10</title>
<path fill="none" stroke="midnightblue" d="M1100.22,-56.08C1095.33,-48.53 1088.17,-37.49 1082.17,-28.23"/>
<polygon fill="midnightblue" stroke="midnightblue" points="1085.05,-26.24 1076.67,-19.75 1079.17,-30.05 1085.05,-26.24"/>
</g>
<!-- Node22&#45;&gt;Node18 -->
<g id="edge23" class="edge">
<title>Node22&#45;&gt;Node18</title>
<path fill="none" stroke="midnightblue" d="M1111.61,-56.08C1116.37,-48.53 1123.32,-37.49 1129.15,-28.23"/>
<polygon fill="midnightblue" stroke="midnightblue" points="1132.12,-30.08 1134.49,-19.75 1126.2,-26.35 1132.12,-30.08"/>
</g>
<!-- Node23&#45;&gt;Node10 -->
<g id="edge26" class="edge">
<title>Node23&#45;&gt;Node10</title>
<path fill="none" stroke="midnightblue" d="M432.19,-56.94C435.16,-56.61 438.12,-56.29 441,-56 665.78,-33.33 936.8,-18 1034.05,-12.88"/>
<polygon fill="midnightblue" stroke="midnightblue" points="1034.44,-16.37 1044.24,-12.35 1034.07,-9.38 1034.44,-16.37"/>
</g>
<!-- Node31&#45;&gt;Node10 -->
<g id="edge38" class="edge">
<title>Node31&#45;&gt;Node10</title>
<path fill="none" stroke="midnightblue" d="M1307,-112.08C1292.45,-98.15 1262.32,-71.23 1232,-56 1210.24,-45.07 1147.85,-29.14 1107.43,-19.45"/>
<polygon fill="midnightblue" stroke="midnightblue" points="1108.2,-16.04 1097.66,-17.13 1106.58,-22.85 1108.2,-16.04"/>
</g>
<!-- Node31&#45;&gt;Node29 -->
<g id="edge40" class="edge">
<title>Node31&#45;&gt;Node29</title>
<path fill="none" stroke="midnightblue" d="M1296.99,-112.44C1277.41,-103.64 1246.69,-89.81 1224.27,-79.72"/>
<polygon fill="midnightblue" stroke="midnightblue" points="1225.48,-76.43 1214.93,-75.52 1222.61,-82.81 1225.48,-76.43"/>
</g>
<!-- Node32 -->
<g id="node32" class="node">
<title>Node32</title>
<g id="a_node32"><a xlink:title=" ">
<polygon fill="white" stroke="#bfbfbf" points="1441,-56.5 1441,-75.5 1481,-75.5 1481,-56.5 1441,-56.5"/>
<text text-anchor="middle" x="1461" y="-63.5" font-family="Helvetica,sans-Serif" font-size="10.00">QFile</text>
</a>
</g>
</g>
<!-- Node31&#45;&gt;Node32 -->
<g id="edge36" class="edge">
<title>Node31&#45;&gt;Node32</title>
<path fill="none" stroke="midnightblue" d="M1338.98,-112.44C1364.01,-103.12 1404.14,-88.18 1431.49,-77.99"/>
<polygon fill="midnightblue" stroke="midnightblue" points="1432.78,-81.24 1440.93,-74.47 1430.34,-74.68 1432.78,-81.24"/>
</g>
<!-- Node33 -->
<g id="node33" class="node">
<title>Node33</title>
<g id="a_node33"><a xlink:title=" ">
<polygon fill="white" stroke="#bfbfbf" points="1499.5,-56.5 1499.5,-75.5 1550.5,-75.5 1550.5,-56.5 1499.5,-56.5"/>
<text text-anchor="middle" x="1525" y="-63.5" font-family="Helvetica,sans-Serif" font-size="10.00">QMutex</text>
</a>
</g>
</g>
<!-- Node31&#45;&gt;Node33 -->
<g id="edge37" class="edge">
<title>Node31&#45;&gt;Node33</title>
<path fill="none" stroke="midnightblue" d="M1341.63,-114.38C1378.79,-104.78 1447.75,-86.96 1489.7,-76.12"/>
<polygon fill="midnightblue" stroke="midnightblue" points="1490.68,-79.48 1499.49,-73.59 1488.93,-72.7 1490.68,-79.48"/>
</g>
<!-- Node34 -->
<g id="node34" class="node">
<title>Node34</title>
<g id="a_node34"><a xlink:title=" ">
<polygon fill="white" stroke="#bfbfbf" points="1279,-56.5 1279,-75.5 1353,-75.5 1353,-56.5 1279,-56.5"/>
<text text-anchor="middle" x="1316" y="-63.5" font-family="Helvetica,sans-Serif" font-size="10.00">QTextStream</text>
</a>
</g>
</g>
<!-- Node31&#45;&gt;Node34 -->
<g id="edge39" class="edge">
<title>Node31&#45;&gt;Node34</title>
<path fill="none" stroke="midnightblue" d="M1316,-112.08C1316,-105.01 1316,-94.86 1316,-85.99"/>
<polygon fill="midnightblue" stroke="midnightblue" points="1319.5,-85.75 1316,-75.75 1312.5,-85.75 1319.5,-85.75"/>
</g>
<!-- Node35 -->
<g id="node35" class="node">
<title>Node35</title>
<g id="a_node35"><a xlink:title=" ">
<polygon fill="white" stroke="#bfbfbf" points="1371,-56.5 1371,-75.5 1423,-75.5 1423,-56.5 1371,-56.5"/>
<text text-anchor="middle" x="1397" y="-63.5" font-family="Helvetica,sans-Serif" font-size="10.00">sstream</text>
</a>
</g>
</g>
<!-- Node31&#45;&gt;Node35 -->
<g id="edge41" class="edge">
<title>Node31&#45;&gt;Node35</title>
<path fill="none" stroke="midnightblue" d="M1329.01,-112.32C1341.53,-103.98 1360.68,-91.21 1375.47,-81.35"/>
<polygon fill="midnightblue" stroke="midnightblue" points="1377.64,-84.11 1384.02,-75.65 1373.76,-78.29 1377.64,-84.11"/>
</g>
<!-- Node36&#45;&gt;Node10 -->
<g id="edge43" class="edge">
<title>Node36&#45;&gt;Node10</title>
<path fill="none" stroke="midnightblue" d="M1622,-224.12C1621.49,-194.54 1615.43,-98.75 1560,-56 1480.74,5.13 1209.96,-35.02 1111,-20 1109.91,-19.83 1108.8,-19.66 1107.69,-19.47"/>
<polygon fill="midnightblue" stroke="midnightblue" points="1108.06,-15.97 1097.58,-17.53 1106.74,-22.85 1108.06,-15.97"/>
</g>
<!-- Node38&#45;&gt;Node3 -->
<g id="edge47" class="edge">
<title>Node38&#45;&gt;Node3</title>
<path fill="none" stroke="midnightblue" d="M825.65,-280.44C783.53,-271.04 715.79,-255.93 670.13,-245.74"/>
<polygon fill="midnightblue" stroke="midnightblue" points="670.69,-242.28 660.17,-243.52 669.16,-249.11 670.69,-242.28"/>
</g>
<!-- Node38&#45;&gt;Node20 -->
<g id="edge46" class="edge">
<title>Node38&#45;&gt;Node20</title>
<path fill="none" stroke="midnightblue" d="M860.13,-280.19C856.33,-271.23 850.59,-256.87 847,-244 842.71,-228.61 839.54,-210.74 837.53,-197.63"/>
<polygon fill="midnightblue" stroke="midnightblue" points="840.97,-196.92 836.08,-187.52 834.04,-197.92 840.97,-196.92"/>
</g>
<!-- Node39&#45;&gt;Node3 -->
<g id="edge50" class="edge">
<title>Node39&#45;&gt;Node3</title>
<path fill="none" stroke="midnightblue" d="M697.54,-280.32C683.5,-271.9 661.95,-258.97 645.46,-249.07"/>
<polygon fill="midnightblue" stroke="midnightblue" points="646.8,-245.8 636.42,-243.65 643.2,-251.8 646.8,-245.8"/>
</g>
<!-- Node39&#45;&gt;Node21 -->
<g id="edge49" class="edge">
<title>Node39&#45;&gt;Node21</title>
<path fill="none" stroke="midnightblue" d="M713.02,-280.08C716.01,-253.95 724.8,-177.21 728.87,-141.58"/>
<polygon fill="midnightblue" stroke="midnightblue" points="732.36,-141.9 730.02,-131.57 725.4,-141.11 732.36,-141.9"/>
</g>
<!-- Node41 -->
<g id="node41" class="node">
<title>Node41</title>
<g id="a_node41"><a xlink:href="flashbuttonwidget_8h.html" target="_top" xlink:title=" ">
<polygon fill="white" stroke="black" points="1176.5,-336.5 1176.5,-355.5 1277.5,-355.5 1277.5,-336.5 1176.5,-336.5"/>
<text text-anchor="middle" x="1227" y="-343.5" font-family="Helvetica,sans-Serif" font-size="10.00">flashbuttonwidget.h</text>
</a>
</g>
</g>
<!-- Node40&#45;&gt;Node41 -->
<g id="edge52" class="edge">
<title>Node40&#45;&gt;Node41</title>
<path fill="none" stroke="midnightblue" d="M1101.61,-392.44C1126.46,-383.44 1165.77,-369.19 1193.75,-359.05"/>
<polygon fill="midnightblue" stroke="midnightblue" points="1195.29,-362.21 1203.5,-355.52 1192.91,-355.63 1195.29,-362.21"/>
</g>
<!-- Node42 -->
<g id="node42" class="node">
<title>Node42</title>
<g id="a_node42"><a xlink:title=" ">
<polygon fill="white" stroke="#bfbfbf" points="1189.5,-280.5 1189.5,-299.5 1264.5,-299.5 1264.5,-280.5 1189.5,-280.5"/>
<text text-anchor="middle" x="1227" y="-287.5" font-family="Helvetica,sans-Serif" font-size="10.00">QPushButton</text>
</a>
</g>
</g>
<!-- Node41&#45;&gt;Node42 -->
<g id="edge53" class="edge">
<title>Node41&#45;&gt;Node42</title>
<path fill="none" stroke="midnightblue" d="M1227,-336.08C1227,-329.01 1227,-318.86 1227,-309.99"/>
<polygon fill="midnightblue" stroke="midnightblue" points="1230.5,-309.75 1227,-299.75 1223.5,-309.75 1230.5,-309.75"/>
</g>
<!-- Node43&#45;&gt;Node6 -->
<g id="edge57" class="edge">
<title>Node43&#45;&gt;Node6</title>
<path fill="none" stroke="midnightblue" d="M689.34,-392.44C665.6,-383.48 628.09,-369.31 601.26,-359.18"/>
<polygon fill="midnightblue" stroke="midnightblue" points="602.14,-355.77 591.55,-355.52 599.67,-362.32 602.14,-355.77"/>
</g>
<!-- Node44 -->
<g id="node44" class="node">
<title>Node44</title>
<g id="a_node44"><a xlink:href="joycontrolstickeditdialoghelper_8h.html" target="_top" xlink:title=" ">
<polygon fill="white" stroke="black" points="613.5,-336.5 613.5,-355.5 810.5,-355.5 810.5,-336.5 613.5,-336.5"/>
<text text-anchor="middle" x="712" y="-343.5" font-family="Helvetica,sans-Serif" font-size="10.00">uihelpers/joycontrolstickeditdialoghelper.h</text>
</a>
</g>
</g>
<!-- Node43&#45;&gt;Node44 -->
<g id="edge55" class="edge">
<title>Node43&#45;&gt;Node44</title>
<path fill="none" stroke="midnightblue" d="M712,-392.08C712,-385.01 712,-374.86 712,-365.99"/>
<polygon fill="midnightblue" stroke="midnightblue" points="715.5,-365.75 712,-355.75 708.5,-365.75 715.5,-365.75"/>
</g>
<!-- Node44&#45;&gt;Node39 -->
<g id="edge56" class="edge">
<title>Node44&#45;&gt;Node39</title>
<path fill="none" stroke="midnightblue" d="M712,-336.08C712,-329.01 712,-318.86 712,-309.99"/>
<polygon fill="midnightblue" stroke="midnightblue" points="715.5,-309.75 712,-299.75 708.5,-309.75 715.5,-309.75"/>
</g>
<!-- Node45&#45;&gt;Node41 -->
<g id="edge59" class="edge">
<title>Node45&#45;&gt;Node41</title>
<path fill="none" stroke="midnightblue" d="M1242.03,-392.08C1239.62,-384.85 1236.14,-374.41 1233.13,-365.4"/>
<polygon fill="midnightblue" stroke="midnightblue" points="1236.4,-364.13 1229.92,-355.75 1229.76,-366.34 1236.4,-364.13"/>
</g>
</g>
</svg>
        <g id="navigator" transform="translate(0 0)" fill="#404254">
                <rect fill="#f2f5e9" fill-opacity="0.5" stroke="#606060" stroke-width=".5" x="0" y="0" width="60" height="60"/>
                <use id="zoomplus" xlink:href="#zoomPlus" x="17" y="9" onmousedown="handleZoom(evt,'in')"/>
                <use id="zoomminus" xlink:href="#zoomMin" x="42" y="9" onmousedown="handleZoom(evt,'out')"/>
                <use id="reset" xlink:href="#resetDef" x="30" y="36" onmousedown="handleReset()"/>
                <g id="arrowUp" xlink:href="#dirArrow" transform="translate(30 24)" onmousedown="handlePan(0,-1)">
                  <use xlink:href="#rim" fill="#404040">
                        <set attributeName="fill" to="#808080" begin="arrowUp.mouseover" end="arrowUp.mouseout"/>
                  </use>
                  <path fill="none" stroke="white" stroke-width="1.5" d="M0,-3.0v7 M-2.5,-0.5L0,-3.0L2.5,-0.5"/>
                </g>
                <g id="arrowRight" xlink:href="#dirArrow" transform="rotate(90) translate(36 -43)" onmousedown="handlePan(1,0)">
                  <use xlink:href="#rim" fill="#404040">
                        <set attributeName="fill" to="#808080" begin="arrowRight.mouseover" end="arrowRight.mouseout"/>
                  </use>
                  <path fill="none" stroke="white" stroke-width="1.5" d="M0,-3.0v7 M-2.5,-0.5L0,-3.0L2.5,-0.5"/>
                </g>
                <g id="arrowDown" xlink:href="#dirArrow" transform="rotate(180) translate(-30 -48)" onmousedown="handlePan(0,1)">
                  <use xlink:href="#rim" fill="#404040">
                        <set attributeName="fill" to="#808080" begin="arrowDown.mouseover" end="arrowDown.mouseout"/>
                  </use>
                  <path fill="none" stroke="white" stroke-width="1.5" d="M0,-3.0v7 M-2.5,-0.5L0,-3.0L2.5,-0.5"/>
                </g>
                <g id="arrowLeft" xlink:href="#dirArrow" transform="rotate(270) translate(-36 17)" onmousedown="handlePan(-1,0)">
                  <use xlink:href="#rim" fill="#404040">
                        <set attributeName="fill" to="#808080" begin="arrowLeft.mouseover" end="arrowLeft.mouseout"/>
                  </use>
                  <path fill="none" stroke="white" stroke-width="1.5" d="M0,-3.0v7 M-2.5,-0.5L0,-3.0L2.5,-0.5"/>
                </g>
        </g>
        <svg viewBox="0 0 15 15" width="100%" height="30px" preserveAspectRatio="xMaxYMin meet">
         <g id="arrow_out" transform="scale(0.3 0.3)">
          <a xlink:href="stickpushbuttongroup_8cpp__incl_org.svg" target="_base">
           <rect id="button" ry="5" rx="5" y="6" x="6" height="38" width="38"
                fill="#f2f5e9" fill-opacity="0.5" stroke="#606060" stroke-width="1.0"/>
           <path id="arrow"
             d="M 11.500037,31.436501 C 11.940474,20.09759 22.043105,11.32322 32.158766,21.979434 L 37.068811,17.246167 C 37.068811,17.246167 37.088388,32 37.088388,32 L 22.160133,31.978069 C 22.160133,31.978069 26.997745,27.140456 26.997745,27.140456 C 18.528582,18.264221 13.291696,25.230495 11.500037,31.436501 z"
             style="fill:#404040;"/>
          </a>
         </g>
        </svg>
</svg>
