<?xml version="1.0" encoding="UTF-8" standalone="no"?>
<!DOCTYPE svg PUBLIC "-//W3C//DTD SVG 1.1//EN"
 "http://www.w3.org/Graphics/SVG/1.1/DTD/svg11.dtd">
<!-- Generated by graphviz version 2.43.0 (0)
 -->
<!-- Title: /home/pawel/antimicrox/src/unixcapturewindowutility.cpp Pages: 1 -->
<!--zoomable 207 -->
<svg id="main" version="1.1" xmlns="http://www.w3.org/2000/svg" xmlns:xlink="http://www.w3.org/1999/xlink" xml:space="preserve" onload="init(evt)">
<style type="text/css"><![CDATA[
.edge:hover path { stroke: red; }
.edge:hover polygon { stroke: red; fill: red; }
]]></style>
<script type="text/javascript"><![CDATA[
var edges = document.getElementsByTagName('g');
if (edges && edges.length) {
  for (var i=0;i<edges.length;i++) {
    if (edges[i].id.substr(0,4)=='edge') {
      edges[i].setAttribute('class','edge');
    }
  }
}
]]></script>
        <defs>
                <circle id="rim" cx="0" cy="0" r="7"/>
                <circle id="rim2" cx="0" cy="0" r="3.5"/>
                <g id="zoomPlus">
                        <use xlink:href="#rim" fill="#404040">
                                <set attributeName="fill" to="#808080" begin="zoomplus.mouseover" end="zoomplus.mouseout"/>
                        </use>
                        <path d="M-4,0h8M0,-4v8" fill="none" stroke="white" stroke-width="1.5" pointer-events="none"/>
                </g>
                <g id="zoomMin">
                        <use xlink:href="#rim" fill="#404040">
                                <set attributeName="fill" to="#808080" begin="zoomminus.mouseover" end="zoomminus.mouseout"/>
                        </use>
                        <path d="M-4,0h8" fill="none" stroke="white" stroke-width="1.5" pointer-events="none"/>
                </g>
                <g id="dirArrow">
                        <path fill="none" stroke="white" stroke-width="1.5" d="M0,-3.0v7 M-2.5,-0.5L0,-3.0L2.5,-0.5"/>
                </g>
               <g id="resetDef">
                       <use xlink:href="#rim2" fill="#404040">
                               <set attributeName="fill" to="#808080" begin="reset.mouseover" end="reset.mouseout"/>
                       </use>
               </g>
        </defs>

<script type="text/javascript">
var viewWidth = 647;
var viewHeight = 207;
var sectionId = 'dynsection-0';
</script>
<script xlink:href="svgpan.js"/>
<svg id="graph" class="graph">
<g id="viewport">
<title>/home/pawel/antimicrox/src/unixcapturewindowutility.cpp</title>
<polygon fill="white" stroke="transparent" points="-4,4 -4,-203 642.5,-203 642.5,4 -4,4"/>
<!-- Node1 -->
<g id="node1" class="node">
<title>Node1</title>
<g id="a_node1"><a xlink:title=" ">
<polygon fill="#bfbfbf" stroke="black" points="261,-168.5 261,-198.5 421,-198.5 421,-168.5 261,-168.5"/>
<text text-anchor="start" x="269" y="-186.5" font-family="Helvetica,sans-Serif" font-size="10.00">/home/pawel/antimicrox</text>
<text text-anchor="middle" x="341" y="-175.5" font-family="Helvetica,sans-Serif" font-size="10.00">/src/unixcapturewindowutility.cpp</text>
</a>
</g>
</g>
<!-- Node2 -->
<g id="node2" class="node">
<title>Node2</title>
<g id="a_node2"><a xlink:href="unixcapturewindowutility_8h.html" target="_top" xlink:title=" ">
<polygon fill="white" stroke="black" points="0,-56.5 0,-75.5 130,-75.5 130,-56.5 0,-56.5"/>
<text text-anchor="middle" x="65" y="-63.5" font-family="Helvetica,sans-Serif" font-size="10.00">unixcapturewindowutility.h</text>
</a>
</g>
</g>
<!-- Node1&#45;&gt;Node2 -->
<g id="edge1" class="edge">
<title>Node1&#45;&gt;Node2</title>
<path fill="none" stroke="midnightblue" d="M260.54,-170.67C223.08,-163.04 178.77,-150.9 142,-132 117.58,-119.45 94.16,-97.86 79.7,-83.03"/>
<polygon fill="midnightblue" stroke="midnightblue" points="82.06,-80.43 72.63,-75.59 76.98,-85.25 82.06,-80.43"/>
</g>
<!-- Node4 -->
<g id="node4" class="node">
<title>Node4</title>
<g id="a_node4"><a xlink:href="qtx11keymapper_8h.html" target="_top" xlink:title=" ">
<polygon fill="white" stroke="black" points="151,-112.5 151,-131.5 247,-131.5 247,-112.5 151,-112.5"/>
<text text-anchor="middle" x="199" y="-119.5" font-family="Helvetica,sans-Serif" font-size="10.00">qtx11keymapper.h</text>
</a>
</g>
</g>
<!-- Node1&#45;&gt;Node4 -->
<g id="edge3" class="edge">
<title>Node1&#45;&gt;Node4</title>
<path fill="none" stroke="midnightblue" d="M307.35,-168.4C283.52,-158.42 251.85,-145.15 228.91,-135.53"/>
<polygon fill="midnightblue" stroke="midnightblue" points="230.24,-132.29 219.66,-131.66 227.53,-138.75 230.24,-132.29"/>
</g>
<!-- Node7 -->
<g id="node7" class="node">
<title>Node7</title>
<g id="a_node7"><a xlink:title=" ">
<polygon fill="white" stroke="#bfbfbf" points="303,-112.5 303,-131.5 379,-131.5 379,-112.5 303,-112.5"/>
<text text-anchor="middle" x="341" y="-119.5" font-family="Helvetica,sans-Serif" font-size="10.00">QDataStream</text>
</a>
</g>
</g>
<!-- Node1&#45;&gt;Node7 -->
<g id="edge7" class="edge">
<title>Node1&#45;&gt;Node7</title>
<path fill="none" stroke="midnightblue" d="M341,-168.4C341,-160.47 341,-150.46 341,-141.86"/>
<polygon fill="midnightblue" stroke="midnightblue" points="344.5,-141.66 341,-131.66 337.5,-141.66 344.5,-141.66"/>
</g>
<!-- Node8 -->
<g id="node8" class="node">
<title>Node8</title>
<g id="a_node8"><a xlink:title=" ">
<polygon fill="white" stroke="#bfbfbf" points="397.5,-112.5 397.5,-131.5 450.5,-131.5 450.5,-112.5 397.5,-112.5"/>
<text text-anchor="middle" x="424" y="-119.5" font-family="Helvetica,sans-Serif" font-size="10.00">QDebug</text>
</a>
</g>
</g>
<!-- Node1&#45;&gt;Node8 -->
<g id="edge8" class="edge">
<title>Node1&#45;&gt;Node8</title>
<path fill="none" stroke="midnightblue" d="M360.67,-168.4C373.6,-159.13 390.49,-147.03 403.57,-137.65"/>
<polygon fill="midnightblue" stroke="midnightblue" points="405.83,-140.33 411.92,-131.66 401.76,-134.64 405.83,-140.33"/>
</g>
<!-- Node9 -->
<g id="node9" class="node">
<title>Node9</title>
<g id="a_node9"><a xlink:title=" ">
<polygon fill="white" stroke="#bfbfbf" points="469,-112.5 469,-131.5 531,-131.5 531,-112.5 469,-112.5"/>
<text text-anchor="middle" x="500" y="-119.5" font-family="Helvetica,sans-Serif" font-size="10.00">X11/Xlib.h</text>
</a>
</g>
</g>
<!-- Node1&#45;&gt;Node9 -->
<g id="edge9" class="edge">
<title>Node1&#45;&gt;Node9</title>
<path fill="none" stroke="midnightblue" d="M378.68,-168.4C405.6,-158.33 441.45,-144.91 467.19,-135.28"/>
<polygon fill="midnightblue" stroke="midnightblue" points="468.73,-138.44 476.86,-131.66 466.27,-131.88 468.73,-138.44"/>
</g>
<!-- Node10 -->
<g id="node10" class="node">
<title>Node10</title>
<g id="a_node10"><a xlink:title=" ">
<polygon fill="white" stroke="#bfbfbf" points="549.5,-112.5 549.5,-131.5 638.5,-131.5 638.5,-112.5 549.5,-112.5"/>
<text text-anchor="middle" x="594" y="-119.5" font-family="Helvetica,sans-Serif" font-size="10.00">X11/cursorfont.h</text>
</a>
</g>
</g>
<!-- Node1&#45;&gt;Node10 -->
<g id="edge10" class="edge">
<title>Node1&#45;&gt;Node10</title>
<path fill="none" stroke="midnightblue" d="M400.64,-168.47C445.71,-157.87 506.69,-143.53 548.03,-133.81"/>
<polygon fill="midnightblue" stroke="midnightblue" points="548.9,-137.2 557.83,-131.51 547.29,-130.39 548.9,-137.2"/>
</g>
<!-- Node11 -->
<g id="node11" class="node">
<title>Node11</title>
<g id="a_node11"><a xlink:href="x11extras_8h.html" target="_top" xlink:title=" ">
<polygon fill="white" stroke="black" points="268,-56.5 268,-75.5 336,-75.5 336,-56.5 268,-56.5"/>
<text text-anchor="middle" x="302" y="-63.5" font-family="Helvetica,sans-Serif" font-size="10.00">x11extras.h</text>
</a>
</g>
</g>
<!-- Node1&#45;&gt;Node11 -->
<g id="edge11" class="edge">
<title>Node1&#45;&gt;Node11</title>
<path fill="none" stroke="midnightblue" d="M322.19,-168.37C311.73,-159.29 299.7,-146.49 294,-132 288.09,-116.97 291.2,-98.61 295.14,-85.24"/>
<polygon fill="midnightblue" stroke="midnightblue" points="298.46,-86.34 298.32,-75.75 291.83,-84.12 298.46,-86.34"/>
</g>
<!-- Node3 -->
<g id="node3" class="node">
<title>Node3</title>
<g id="a_node3"><a xlink:title=" ">
<polygon fill="white" stroke="#bfbfbf" points="123.5,-0.5 123.5,-19.5 176.5,-19.5 176.5,-0.5 123.5,-0.5"/>
<text text-anchor="middle" x="150" y="-7.5" font-family="Helvetica,sans-Serif" font-size="10.00">QObject</text>
</a>
</g>
</g>
<!-- Node2&#45;&gt;Node3 -->
<g id="edge2" class="edge">
<title>Node2&#45;&gt;Node3</title>
<path fill="none" stroke="midnightblue" d="M78.66,-56.32C91.92,-47.9 112.27,-34.97 127.85,-25.07"/>
<polygon fill="midnightblue" stroke="midnightblue" points="129.81,-27.97 136.38,-19.65 126.06,-22.06 129.81,-27.97"/>
</g>
<!-- Node5 -->
<g id="node5" class="node">
<title>Node5</title>
<g id="a_node5"><a xlink:href="qtkeymapperbase_8h.html" target="_top" xlink:title=" ">
<polygon fill="white" stroke="black" points="148,-56.5 148,-75.5 250,-75.5 250,-56.5 148,-56.5"/>
<text text-anchor="middle" x="199" y="-63.5" font-family="Helvetica,sans-Serif" font-size="10.00">qtkeymapperbase.h</text>
</a>
</g>
</g>
<!-- Node4&#45;&gt;Node5 -->
<g id="edge4" class="edge">
<title>Node4&#45;&gt;Node5</title>
<path fill="none" stroke="midnightblue" d="M199,-112.08C199,-105.01 199,-94.86 199,-85.99"/>
<polygon fill="midnightblue" stroke="midnightblue" points="202.5,-85.75 199,-75.75 195.5,-85.75 202.5,-85.75"/>
</g>
<!-- Node5&#45;&gt;Node3 -->
<g id="edge6" class="edge">
<title>Node5&#45;&gt;Node3</title>
<path fill="none" stroke="midnightblue" d="M190.91,-56.08C183.84,-48.3 173.41,-36.8 164.85,-27.37"/>
<polygon fill="midnightblue" stroke="midnightblue" points="167.25,-24.8 157.94,-19.75 162.07,-29.51 167.25,-24.8"/>
</g>
<!-- Node6 -->
<g id="node6" class="node">
<title>Node6</title>
<g id="a_node6"><a xlink:title=" ">
<polygon fill="white" stroke="#bfbfbf" points="194.5,-0.5 194.5,-19.5 241.5,-19.5 241.5,-0.5 194.5,-0.5"/>
<text text-anchor="middle" x="218" y="-7.5" font-family="Helvetica,sans-Serif" font-size="10.00">QHash</text>
</a>
</g>
</g>
<!-- Node5&#45;&gt;Node6 -->
<g id="edge5" class="edge">
<title>Node5&#45;&gt;Node6</title>
<path fill="none" stroke="midnightblue" d="M202.14,-56.08C204.68,-48.85 208.36,-38.41 211.53,-29.4"/>
<polygon fill="midnightblue" stroke="midnightblue" points="214.9,-30.35 214.92,-19.75 208.3,-28.02 214.9,-30.35"/>
</g>
<!-- Node11&#45;&gt;Node3 -->
<g id="edge13" class="edge">
<title>Node11&#45;&gt;Node3</title>
<path fill="none" stroke="midnightblue" d="M277.92,-56.44C252.46,-47.4 212.11,-33.06 183.54,-22.92"/>
<polygon fill="midnightblue" stroke="midnightblue" points="184.57,-19.57 173.97,-19.52 182.22,-26.16 184.57,-19.57"/>
</g>
<!-- Node11&#45;&gt;Node6 -->
<g id="edge12" class="edge">
<title>Node11&#45;&gt;Node6</title>
<path fill="none" stroke="midnightblue" d="M288.5,-56.32C275.4,-47.9 255.29,-34.97 239.89,-25.07"/>
<polygon fill="midnightblue" stroke="midnightblue" points="241.77,-22.12 231.46,-19.65 237.98,-28.01 241.77,-22.12"/>
</g>
<!-- Node12 -->
<g id="node12" class="node">
<title>Node12</title>
<g id="a_node12"><a xlink:title=" ">
<polygon fill="white" stroke="#bfbfbf" points="259.5,-0.5 259.5,-19.5 306.5,-19.5 306.5,-0.5 259.5,-0.5"/>
<text text-anchor="middle" x="283" y="-7.5" font-family="Helvetica,sans-Serif" font-size="10.00">QPoint</text>
</a>
</g>
</g>
<!-- Node11&#45;&gt;Node12 -->
<g id="edge14" class="edge">
<title>Node11&#45;&gt;Node12</title>
<path fill="none" stroke="midnightblue" d="M298.86,-56.08C296.32,-48.85 292.64,-38.41 289.47,-29.4"/>
<polygon fill="midnightblue" stroke="midnightblue" points="292.7,-28.02 286.08,-19.75 286.1,-30.35 292.7,-28.02"/>
</g>
<!-- Node13 -->
<g id="node13" class="node">
<title>Node13</title>
<g id="a_node13"><a xlink:title=" ">
<polygon fill="white" stroke="#bfbfbf" points="324.5,-0.5 324.5,-19.5 447.5,-19.5 447.5,-0.5 324.5,-0.5"/>
<text text-anchor="middle" x="386" y="-7.5" font-family="Helvetica,sans-Serif" font-size="10.00">X11/extensions/XInput.h</text>
</a>
</g>
</g>
<!-- Node11&#45;&gt;Node13 -->
<g id="edge15" class="edge">
<title>Node11&#45;&gt;Node13</title>
<path fill="none" stroke="midnightblue" d="M315.5,-56.32C328.6,-47.9 348.71,-34.97 364.11,-25.07"/>
<polygon fill="midnightblue" stroke="midnightblue" points="366.02,-28.01 372.54,-19.65 362.23,-22.12 366.02,-28.01"/>
</g>
<!-- Node14 -->
<g id="node14" class="node">
<title>Node14</title>
<g id="a_node14"><a xlink:title=" ">
<polygon fill="white" stroke="#bfbfbf" points="465.5,-0.5 465.5,-19.5 594.5,-19.5 594.5,-0.5 465.5,-0.5"/>
<text text-anchor="middle" x="530" y="-7.5" font-family="Helvetica,sans-Serif" font-size="10.00">X11/extensions/XInput2.h</text>
</a>
</g>
</g>
<!-- Node11&#45;&gt;Node14 -->
<g id="edge16" class="edge">
<title>Node11&#45;&gt;Node14</title>
<path fill="none" stroke="midnightblue" d="M336.13,-56.92C375.43,-47.61 440.18,-32.27 483.93,-21.91"/>
<polygon fill="midnightblue" stroke="midnightblue" points="484.82,-25.3 493.75,-19.59 483.21,-18.49 484.82,-25.3"/>
</g>
</g>
</svg>
        <g id="navigator" transform="translate(0 0)" fill="#404254">
                <rect fill="#f2f5e9" fill-opacity="0.5" stroke="#606060" stroke-width=".5" x="0" y="0" width="60" height="60"/>
                <use id="zoomplus" xlink:href="#zoomPlus" x="17" y="9" onmousedown="handleZoom(evt,'in')"/>
                <use id="zoomminus" xlink:href="#zoomMin" x="42" y="9" onmousedown="handleZoom(evt,'out')"/>
                <use id="reset" xlink:href="#resetDef" x="30" y="36" onmousedown="handleReset()"/>
                <g id="arrowUp" xlink:href="#dirArrow" transform="translate(30 24)" onmousedown="handlePan(0,-1)">
                  <use xlink:href="#rim" fill="#404040">
                        <set attributeName="fill" to="#808080" begin="arrowUp.mouseover" end="arrowUp.mouseout"/>
                  </use>
                  <path fill="none" stroke="white" stroke-width="1.5" d="M0,-3.0v7 M-2.5,-0.5L0,-3.0L2.5,-0.5"/>
                </g>
                <g id="arrowRight" xlink:href="#dirArrow" transform="rotate(90) translate(36 -43)" onmousedown="handlePan(1,0)">
                  <use xlink:href="#rim" fill="#404040">
                        <set attributeName="fill" to="#808080" begin="arrowRight.mouseover" end="arrowRight.mouseout"/>
                  </use>
                  <path fill="none" stroke="white" stroke-width="1.5" d="M0,-3.0v7 M-2.5,-0.5L0,-3.0L2.5,-0.5"/>
                </g>
                <g id="arrowDown" xlink:href="#dirArrow" transform="rotate(180) translate(-30 -48)" onmousedown="handlePan(0,1)">
                  <use xlink:href="#rim" fill="#404040">
                        <set attributeName="fill" to="#808080" begin="arrowDown.mouseover" end="arrowDown.mouseout"/>
                  </use>
                  <path fill="none" stroke="white" stroke-width="1.5" d="M0,-3.0v7 M-2.5,-0.5L0,-3.0L2.5,-0.5"/>
                </g>
                <g id="arrowLeft" xlink:href="#dirArrow" transform="rotate(270) translate(-36 17)" onmousedown="handlePan(-1,0)">
                  <use xlink:href="#rim" fill="#404040">
                        <set attributeName="fill" to="#808080" begin="arrowLeft.mouseover" end="arrowLeft.mouseout"/>
                  </use>
                  <path fill="none" stroke="white" stroke-width="1.5" d="M0,-3.0v7 M-2.5,-0.5L0,-3.0L2.5,-0.5"/>
                </g>
        </g>
        <svg viewBox="0 0 15 15" width="100%" height="30px" preserveAspectRatio="xMaxYMin meet">
         <g id="arrow_out" transform="scale(0.3 0.3)">
          <a xlink:href="unixcapturewindowutility_8cpp__incl_org.svg" target="_base">
           <rect id="button" ry="5" rx="5" y="6" x="6" height="38" width="38"
                fill="#f2f5e9" fill-opacity="0.5" stroke="#606060" stroke-width="1.0"/>
           <path id="arrow"
             d="M 11.500037,31.436501 C 11.940474,20.09759 22.043105,11.32322 32.158766,21.979434 L 37.068811,17.246167 C 37.068811,17.246167 37.088388,32 37.088388,32 L 22.160133,31.978069 C 22.160133,31.978069 26.997745,27.140456 26.997745,27.140456 C 18.528582,18.264221 13.291696,25.230495 11.500037,31.436501 z"
             style="fill:#404040;"/>
          </a>
         </g>
        </svg>
</svg>
