<?xml version="1.0" encoding="UTF-8" standalone="no"?>
<!DOCTYPE svg PUBLIC "-//W3C//DTD SVG 1.1//EN"
 "http://www.w3.org/Graphics/SVG/1.1/DTD/svg11.dtd">
<!-- Generated by graphviz version 2.43.0 (0)
 -->
<!-- Title: /home/pawel/antimicrox/src/vdpad.h Pages: 1 -->
<svg width="2290pt" height="195pt"
 viewBox="0.00 0.00 2289.50 195.00" xmlns="http://www.w3.org/2000/svg" xmlns:xlink="http://www.w3.org/1999/xlink">
<g id="graph0" class="graph" transform="scale(1 1) rotate(0) translate(4 191)">
<title>/home/pawel/antimicrox/src/vdpad.h</title>
<polygon fill="white" stroke="transparent" points="-4,4 -4,-191 2285.5,-191 2285.5,4 -4,4"/>
<!-- Node1 -->
<g id="node1" class="node">
<title>Node1</title>
<g id="a_node1"><a xlink:title=" ">
<polygon fill="#bfbfbf" stroke="black" points="1273,-156.5 1273,-186.5 1392,-186.5 1392,-156.5 1273,-156.5"/>
<text text-anchor="start" x="1281" y="-174.5" font-family="Helvetica,sans-Serif" font-size="10.00">/home/pawel/antimicrox</text>
<text text-anchor="middle" x="1332.5" y="-163.5" font-family="Helvetica,sans-Serif" font-size="10.00">/src/vdpad.h</text>
</a>
</g>
</g>
<!-- Node2 -->
<g id="node2" class="node">
<title>Node2</title>
<g id="a_node2"><a xlink:href="$advancestickassignmentdialog_8cpp.html" xlink:title=" ">
<polygon fill="white" stroke="black" points="359.5,-84 359.5,-114 547.5,-114 547.5,-84 359.5,-84"/>
<text text-anchor="start" x="367.5" y="-102" font-family="Helvetica,sans-Serif" font-size="10.00">/home/pawel/antimicrox</text>
<text text-anchor="middle" x="453.5" y="-91" font-family="Helvetica,sans-Serif" font-size="10.00">/src/advancestickassignmentdialog.cpp</text>
</a>
</g>
</g>
<!-- Node1&#45;&gt;Node2 -->
<g id="edge1" class="edge">
<title>Node1&#45;&gt;Node2</title>
<path fill="none" stroke="midnightblue" d="M1262.57,-168.92C1126.23,-165.18 815.54,-153.44 556.5,-120 544.31,-118.43 531.38,-116.29 518.96,-114"/>
<polygon fill="midnightblue" stroke="midnightblue" points="1262.78,-172.42 1272.87,-169.19 1262.96,-165.43 1262.78,-172.42"/>
</g>
<!-- Node3 -->
<g id="node3" class="node">
<title>Node3</title>
<g id="a_node3"><a xlink:href="$gamecontrollerdpad_8h.html" xlink:title=" ">
<polygon fill="white" stroke="black" points="565.5,-84 565.5,-114 761.5,-114 761.5,-84 565.5,-84"/>
<text text-anchor="start" x="573.5" y="-102" font-family="Helvetica,sans-Serif" font-size="10.00">/home/pawel/antimicrox</text>
<text text-anchor="middle" x="663.5" y="-91" font-family="Helvetica,sans-Serif" font-size="10.00">/src/gamecontroller/gamecontrollerdpad.h</text>
</a>
</g>
</g>
<!-- Node1&#45;&gt;Node3 -->
<g id="edge2" class="edge">
<title>Node1&#45;&gt;Node3</title>
<path fill="none" stroke="midnightblue" d="M1262.74,-166.12C1157.04,-159.04 950.12,-143.46 775.5,-120 762.97,-118.32 749.71,-116.22 736.86,-114.03"/>
<polygon fill="midnightblue" stroke="midnightblue" points="1262.75,-169.62 1272.96,-166.8 1263.21,-162.64 1262.75,-169.62"/>
</g>
<!-- Node9 -->
<g id="node9" class="node">
<title>Node9</title>
<g id="a_node9"><a xlink:href="$joydpadxml_8cpp.html" xlink:title=" ">
<polygon fill="white" stroke="black" points="939,-6 939,-36 1062,-36 1062,-6 939,-6"/>
<text text-anchor="start" x="947" y="-24" font-family="Helvetica,sans-Serif" font-size="10.00">/home/pawel/antimicrox</text>
<text text-anchor="middle" x="1000.5" y="-13" font-family="Helvetica,sans-Serif" font-size="10.00">/src/xml/joydpadxml.cpp</text>
</a>
</g>
</g>
<!-- Node1&#45;&gt;Node9 -->
<g id="edge19" class="edge">
<title>Node1&#45;&gt;Node9</title>
<path fill="none" stroke="midnightblue" d="M1262.55,-171.47C1165.87,-171.14 998.92,-163.99 960.5,-120 938.74,-95.09 967.36,-56.76 986.26,-36.2"/>
<polygon fill="midnightblue" stroke="midnightblue" points="1262.83,-174.97 1272.83,-171.48 1262.84,-167.97 1262.83,-174.97"/>
</g>
<!-- Node10 -->
<g id="node10" class="node">
<title>Node10</title>
<g id="a_node10"><a xlink:href="$gamecontrollerdpadxml_8h.html" xlink:title=" ">
<polygon fill="white" stroke="black" points="784.5,-78.5 784.5,-119.5 912.5,-119.5 912.5,-78.5 784.5,-78.5"/>
<text text-anchor="start" x="792.5" y="-107.5" font-family="Helvetica,sans-Serif" font-size="10.00">/home/pawel/antimicrox</text>
<text text-anchor="start" x="792.5" y="-96.5" font-family="Helvetica,sans-Serif" font-size="10.00">/src/gamecontroller/xml</text>
<text text-anchor="middle" x="848.5" y="-85.5" font-family="Helvetica,sans-Serif" font-size="10.00">/gamecontrollerdpadxml.h</text>
</a>
</g>
</g>
<!-- Node1&#45;&gt;Node10 -->
<g id="edge9" class="edge">
<title>Node1&#45;&gt;Node10</title>
<path fill="none" stroke="midnightblue" d="M1262.86,-164.56C1181.66,-157 1043.62,-142.21 926.5,-120 921.97,-119.14 917.31,-118.17 912.63,-117.13"/>
<polygon fill="midnightblue" stroke="midnightblue" points="1262.68,-168.05 1272.96,-165.49 1263.33,-161.08 1262.68,-168.05"/>
</g>
<!-- Node11 -->
<g id="node11" class="node">
<title>Node11</title>
<g id="a_node11"><a xlink:href="$inputdevice_8cpp.html" xlink:title=" ">
<polygon fill="white" stroke="black" points="969,-84 969,-114 1088,-114 1088,-84 969,-84"/>
<text text-anchor="start" x="977" y="-102" font-family="Helvetica,sans-Serif" font-size="10.00">/home/pawel/antimicrox</text>
<text text-anchor="middle" x="1028.5" y="-91" font-family="Helvetica,sans-Serif" font-size="10.00">/src/inputdevice.cpp</text>
</a>
</g>
</g>
<!-- Node1&#45;&gt;Node11 -->
<g id="edge11" class="edge">
<title>Node1&#45;&gt;Node11</title>
<path fill="none" stroke="midnightblue" d="M1262.78,-156.86C1215.86,-147.35 1152.73,-133.92 1097.5,-120 1090.24,-118.17 1082.6,-116.1 1075.15,-114"/>
<polygon fill="midnightblue" stroke="midnightblue" points="1262.34,-160.34 1272.83,-158.89 1263.72,-153.48 1262.34,-160.34"/>
</g>
<!-- Node12 -->
<g id="node12" class="node">
<title>Node12</title>
<g id="a_node12"><a xlink:href="$joybutton_8cpp.html" xlink:title=" ">
<polygon fill="white" stroke="black" points="1106,-84 1106,-114 1225,-114 1225,-84 1106,-84"/>
<text text-anchor="start" x="1114" y="-102" font-family="Helvetica,sans-Serif" font-size="10.00">/home/pawel/antimicrox</text>
<text text-anchor="middle" x="1165.5" y="-91" font-family="Helvetica,sans-Serif" font-size="10.00">/src/joybutton.cpp</text>
</a>
</g>
</g>
<!-- Node1&#45;&gt;Node12 -->
<g id="edge12" class="edge">
<title>Node1&#45;&gt;Node12</title>
<path fill="none" stroke="midnightblue" d="M1289.86,-152.5C1261.57,-140.56 1224.99,-125.11 1198.84,-114.07"/>
<polygon fill="midnightblue" stroke="midnightblue" points="1288.53,-155.74 1299.11,-156.4 1291.25,-149.29 1288.53,-155.74"/>
</g>
<!-- Node13 -->
<g id="node13" class="node">
<title>Node13</title>
<g id="a_node13"><a xlink:href="$joyaxisbutton_8cpp.html" xlink:title=" ">
<polygon fill="white" stroke="black" points="1243,-84 1243,-114 1422,-114 1422,-84 1243,-84"/>
<text text-anchor="start" x="1251" y="-102" font-family="Helvetica,sans-Serif" font-size="10.00">/home/pawel/antimicrox</text>
<text text-anchor="middle" x="1332.5" y="-91" font-family="Helvetica,sans-Serif" font-size="10.00">/src/joybuttontypes/joyaxisbutton.cpp</text>
</a>
</g>
</g>
<!-- Node1&#45;&gt;Node13 -->
<g id="edge13" class="edge">
<title>Node1&#45;&gt;Node13</title>
<path fill="none" stroke="midnightblue" d="M1332.5,-146.23C1332.5,-135.57 1332.5,-123.41 1332.5,-114.25"/>
<polygon fill="midnightblue" stroke="midnightblue" points="1329,-146.23 1332.5,-156.23 1336,-146.23 1329,-146.23"/>
</g>
<!-- Node14 -->
<g id="node14" class="node">
<title>Node14</title>
<g id="a_node14"><a xlink:href="$joytabwidget_8cpp.html" xlink:title=" ">
<polygon fill="white" stroke="black" points="1440,-84 1440,-114 1559,-114 1559,-84 1440,-84"/>
<text text-anchor="start" x="1448" y="-102" font-family="Helvetica,sans-Serif" font-size="10.00">/home/pawel/antimicrox</text>
<text text-anchor="middle" x="1499.5" y="-91" font-family="Helvetica,sans-Serif" font-size="10.00">/src/joytabwidget.cpp</text>
</a>
</g>
</g>
<!-- Node1&#45;&gt;Node14 -->
<g id="edge14" class="edge">
<title>Node1&#45;&gt;Node14</title>
<path fill="none" stroke="midnightblue" d="M1375.14,-152.5C1403.43,-140.56 1440.01,-125.11 1466.16,-114.07"/>
<polygon fill="midnightblue" stroke="midnightblue" points="1373.75,-149.29 1365.89,-156.4 1376.47,-155.74 1373.75,-149.29"/>
</g>
<!-- Node15 -->
<g id="node15" class="node">
<title>Node15</title>
<g id="a_node15"><a xlink:href="$quicksetdialog_8cpp.html" xlink:title=" ">
<polygon fill="white" stroke="black" points="1577,-84 1577,-114 1696,-114 1696,-84 1577,-84"/>
<text text-anchor="start" x="1585" y="-102" font-family="Helvetica,sans-Serif" font-size="10.00">/home/pawel/antimicrox</text>
<text text-anchor="middle" x="1636.5" y="-91" font-family="Helvetica,sans-Serif" font-size="10.00">/src/quicksetdialog.cpp</text>
</a>
</g>
</g>
<!-- Node1&#45;&gt;Node15 -->
<g id="edge15" class="edge">
<title>Node1&#45;&gt;Node15</title>
<path fill="none" stroke="midnightblue" d="M1402.54,-156.95C1449.66,-147.48 1513.07,-134.06 1568.5,-120 1575.66,-118.18 1583.19,-116.12 1590.54,-114.03"/>
<polygon fill="midnightblue" stroke="midnightblue" points="1401.56,-153.58 1392.44,-158.97 1402.93,-160.44 1401.56,-153.58"/>
</g>
<!-- Node16 -->
<g id="node16" class="node">
<title>Node16</title>
<g id="a_node16"><a xlink:href="$setjoystick_8cpp.html" xlink:title=" ">
<polygon fill="white" stroke="black" points="1714,-84 1714,-114 1833,-114 1833,-84 1714,-84"/>
<text text-anchor="start" x="1722" y="-102" font-family="Helvetica,sans-Serif" font-size="10.00">/home/pawel/antimicrox</text>
<text text-anchor="middle" x="1773.5" y="-91" font-family="Helvetica,sans-Serif" font-size="10.00">/src/setjoystick.cpp</text>
</a>
</g>
</g>
<!-- Node1&#45;&gt;Node16 -->
<g id="edge16" class="edge">
<title>Node1&#45;&gt;Node16</title>
<path fill="none" stroke="midnightblue" d="M1402.4,-164.23C1477.76,-156.73 1600.97,-142.31 1705.5,-120 1713.2,-118.36 1721.3,-116.28 1729.12,-114.1"/>
<polygon fill="midnightblue" stroke="midnightblue" points="1401.7,-160.78 1392.09,-165.24 1402.38,-167.75 1401.7,-160.78"/>
</g>
<!-- Node17 -->
<g id="node17" class="node">
<title>Node17</title>
<g id="a_node17"><a xlink:href="$vdpad_8cpp.html" xlink:title=" ">
<polygon fill="white" stroke="black" points="1851,-84 1851,-114 1970,-114 1970,-84 1851,-84"/>
<text text-anchor="start" x="1859" y="-102" font-family="Helvetica,sans-Serif" font-size="10.00">/home/pawel/antimicrox</text>
<text text-anchor="middle" x="1910.5" y="-91" font-family="Helvetica,sans-Serif" font-size="10.00">/src/vdpad.cpp</text>
</a>
</g>
</g>
<!-- Node1&#45;&gt;Node17 -->
<g id="edge17" class="edge">
<title>Node1&#45;&gt;Node17</title>
<path fill="none" stroke="midnightblue" d="M1402.47,-167.72C1501.31,-162.86 1687.09,-150.27 1842.5,-120 1850.59,-118.42 1859.11,-116.3 1867.27,-114.03"/>
<polygon fill="midnightblue" stroke="midnightblue" points="1402.13,-164.23 1392.31,-168.21 1402.47,-171.23 1402.13,-164.23"/>
</g>
<!-- Node18 -->
<g id="node18" class="node">
<title>Node18</title>
<g id="a_node18"><a xlink:href="$inputdevicexml_8cpp.html" xlink:title=" ">
<polygon fill="white" stroke="black" points="1988,-84 1988,-114 2127,-114 2127,-84 1988,-84"/>
<text text-anchor="start" x="1996" y="-102" font-family="Helvetica,sans-Serif" font-size="10.00">/home/pawel/antimicrox</text>
<text text-anchor="middle" x="2057.5" y="-91" font-family="Helvetica,sans-Serif" font-size="10.00">/src/xml/inputdevicexml.cpp</text>
</a>
</g>
</g>
<!-- Node1&#45;&gt;Node18 -->
<g id="edge18" class="edge">
<title>Node1&#45;&gt;Node18</title>
<path fill="none" stroke="midnightblue" d="M1402.32,-169C1521.45,-165.57 1771.33,-154.55 1979.5,-120 1988.74,-118.47 1998.49,-116.37 2007.84,-114.1"/>
<polygon fill="midnightblue" stroke="midnightblue" points="1402.13,-165.51 1392.24,-169.29 1402.33,-172.51 1402.13,-165.51"/>
</g>
<!-- Node19 -->
<g id="node19" class="node">
<title>Node19</title>
<g id="a_node19"><a xlink:href="$setjoystickxml_8cpp.html" xlink:title=" ">
<polygon fill="white" stroke="black" points="2145.5,-84 2145.5,-114 2281.5,-114 2281.5,-84 2145.5,-84"/>
<text text-anchor="start" x="2153.5" y="-102" font-family="Helvetica,sans-Serif" font-size="10.00">/home/pawel/antimicrox</text>
<text text-anchor="middle" x="2213.5" y="-91" font-family="Helvetica,sans-Serif" font-size="10.00">/src/xml/setjoystickxml.cpp</text>
</a>
</g>
</g>
<!-- Node1&#45;&gt;Node19 -->
<g id="edge20" class="edge">
<title>Node1&#45;&gt;Node19</title>
<path fill="none" stroke="midnightblue" d="M1402.36,-170.59C1542.49,-169.79 1867.53,-162.97 2136.5,-120 2145.91,-118.5 2155.84,-116.35 2165.33,-114.02"/>
<polygon fill="midnightblue" stroke="midnightblue" points="1402.17,-167.09 1392.19,-170.64 1402.2,-174.09 1402.17,-167.09"/>
</g>
<!-- Node4 -->
<g id="node4" class="node">
<title>Node4</title>
<g id="a_node4"><a xlink:href="$gamecontroller_8cpp.html" xlink:title=" ">
<polygon fill="white" stroke="black" points="354,-6 354,-36 539,-36 539,-6 354,-6"/>
<text text-anchor="start" x="362" y="-24" font-family="Helvetica,sans-Serif" font-size="10.00">/home/pawel/antimicrox</text>
<text text-anchor="middle" x="446.5" y="-13" font-family="Helvetica,sans-Serif" font-size="10.00">/src/gamecontroller/gamecontroller.cpp</text>
</a>
</g>
</g>
<!-- Node3&#45;&gt;Node4 -->
<g id="edge3" class="edge">
<title>Node3&#45;&gt;Node4</title>
<path fill="none" stroke="midnightblue" d="M613.97,-80.65C575.43,-67.16 522.63,-48.66 486.69,-36.07"/>
<polygon fill="midnightblue" stroke="midnightblue" points="612.85,-83.97 623.45,-83.97 615.16,-77.36 612.85,-83.97"/>
</g>
<!-- Node5 -->
<g id="node5" class="node">
<title>Node5</title>
<g id="a_node5"><a xlink:href="$gamecontrollerdpad_8cpp.html" xlink:title=" ">
<polygon fill="white" stroke="black" points="557.5,-6 557.5,-36 763.5,-36 763.5,-6 557.5,-6"/>
<text text-anchor="start" x="565.5" y="-24" font-family="Helvetica,sans-Serif" font-size="10.00">/home/pawel/antimicrox</text>
<text text-anchor="middle" x="660.5" y="-13" font-family="Helvetica,sans-Serif" font-size="10.00">/src/gamecontroller/gamecontrollerdpad.cpp</text>
</a>
</g>
</g>
<!-- Node3&#45;&gt;Node5 -->
<g id="edge4" class="edge">
<title>Node3&#45;&gt;Node5</title>
<path fill="none" stroke="midnightblue" d="M662.54,-73.59C662.05,-61.26 661.48,-46.72 661.06,-36.23"/>
<polygon fill="midnightblue" stroke="midnightblue" points="659.04,-73.85 662.94,-83.7 666.04,-73.57 659.04,-73.85"/>
</g>
<!-- Node6 -->
<g id="node6" class="node">
<title>Node6</title>
<g id="a_node6"><a xlink:href="$gamecontrollerset_8cpp.html" xlink:title=" ">
<polygon fill="white" stroke="black" points="0,-6 0,-36 199,-36 199,-6 0,-6"/>
<text text-anchor="start" x="8" y="-24" font-family="Helvetica,sans-Serif" font-size="10.00">/home/pawel/antimicrox</text>
<text text-anchor="middle" x="99.5" y="-13" font-family="Helvetica,sans-Serif" font-size="10.00">/src/gamecontroller/gamecontrollerset.cpp</text>
</a>
</g>
</g>
<!-- Node3&#45;&gt;Node6 -->
<g id="edge5" class="edge">
<title>Node3&#45;&gt;Node6</title>
<path fill="none" stroke="midnightblue" d="M583.07,-82.23C574.12,-80.7 565.13,-79.25 556.5,-78 402.18,-55.66 361.84,-64.21 207.5,-42 195.61,-40.29 183.03,-38.21 170.82,-36.04"/>
<polygon fill="midnightblue" stroke="midnightblue" points="582.68,-85.72 593.13,-84 583.89,-78.82 582.68,-85.72"/>
</g>
<!-- Node7 -->
<g id="node7" class="node">
<title>Node7</title>
<g id="a_node7"><a xlink:href="$gamecontrollerdpadxml_8cpp.html" xlink:title=" ">
<polygon fill="white" stroke="black" points="782,-0.5 782,-41.5 921,-41.5 921,-0.5 782,-0.5"/>
<text text-anchor="start" x="790" y="-29.5" font-family="Helvetica,sans-Serif" font-size="10.00">/home/pawel/antimicrox</text>
<text text-anchor="start" x="790" y="-18.5" font-family="Helvetica,sans-Serif" font-size="10.00">/src/gamecontroller/xml</text>
<text text-anchor="middle" x="851.5" y="-7.5" font-family="Helvetica,sans-Serif" font-size="10.00">/gamecontrollerdpadxml.cpp</text>
</a>
</g>
</g>
<!-- Node3&#45;&gt;Node7 -->
<g id="edge6" class="edge">
<title>Node3&#45;&gt;Node7</title>
<path fill="none" stroke="midnightblue" d="M707.76,-80.11C736.35,-68.55 773.55,-53.51 802.95,-41.63"/>
<polygon fill="midnightblue" stroke="midnightblue" points="706.38,-76.89 698.42,-83.88 709,-83.38 706.38,-76.89"/>
</g>
<!-- Node8 -->
<g id="node8" class="node">
<title>Node8</title>
<g id="a_node8"><a xlink:href="$gamecontrollerxml_8cpp.html" xlink:title=" ">
<polygon fill="white" stroke="black" points="217,-0.5 217,-41.5 336,-41.5 336,-0.5 217,-0.5"/>
<text text-anchor="start" x="225" y="-29.5" font-family="Helvetica,sans-Serif" font-size="10.00">/home/pawel/antimicrox</text>
<text text-anchor="start" x="225" y="-18.5" font-family="Helvetica,sans-Serif" font-size="10.00">/src/gamecontroller/xml</text>
<text text-anchor="middle" x="276.5" y="-7.5" font-family="Helvetica,sans-Serif" font-size="10.00">/gamecontrollerxml.cpp</text>
</a>
</g>
</g>
<!-- Node3&#45;&gt;Node8 -->
<g id="edge7" class="edge">
<title>Node3&#45;&gt;Node8</title>
<path fill="none" stroke="midnightblue" d="M579.2,-82.11C571.53,-80.7 563.87,-79.32 556.5,-78 462.41,-61.22 437.62,-63.52 344.5,-42 341.74,-41.36 338.93,-40.68 336.1,-39.96"/>
<polygon fill="midnightblue" stroke="midnightblue" points="578.81,-85.59 589.28,-83.96 580.07,-78.71 578.81,-85.59"/>
</g>
<!-- Node3&#45;&gt;Node9 -->
<g id="edge8" class="edge">
<title>Node3&#45;&gt;Node9</title>
<path fill="none" stroke="midnightblue" d="M747.47,-81.99C800.24,-71.53 869.6,-57.07 930.5,-42 937.86,-40.18 945.62,-38.11 953.18,-36.02"/>
<polygon fill="midnightblue" stroke="midnightblue" points="746.62,-78.59 737.49,-83.96 747.97,-85.46 746.62,-78.59"/>
</g>
<!-- Node10&#45;&gt;Node7 -->
<g id="edge10" class="edge">
<title>Node10&#45;&gt;Node7</title>
<path fill="none" stroke="midnightblue" d="M849.67,-68.3C850.03,-59.3 850.41,-49.65 850.73,-41.51"/>
<polygon fill="midnightblue" stroke="midnightblue" points="846.17,-68.3 849.27,-78.43 853.16,-68.57 846.17,-68.3"/>
</g>
</g>
</svg>
