<?xml version="1.0" encoding="UTF-8" standalone="no"?>
<!DOCTYPE svg PUBLIC "-//W3C//DTD SVG 1.1//EN"
 "http://www.w3.org/Graphics/SVG/1.1/DTD/svg11.dtd">
<!-- Generated by graphviz version 2.43.0 (0)
 -->
<!-- Title: /home/pawel/antimicrox/src/xmlconfigwriter.cpp Pages: 1 -->
<svg width="1836pt" height="487pt"
 viewBox="0.00 0.00 1836.00 487.00" xmlns="http://www.w3.org/2000/svg" xmlns:xlink="http://www.w3.org/1999/xlink">
<g id="graph0" class="graph" transform="scale(1 1) rotate(0) translate(4 483)">
<title>/home/pawel/antimicrox/src/xmlconfigwriter.cpp</title>
<polygon fill="white" stroke="transparent" points="-4,4 -4,-483 1832,-483 1832,4 -4,4"/>
<!-- Node1 -->
<g id="node1" class="node">
<title>Node1</title>
<g id="a_node1"><a xlink:title=" ">
<polygon fill="#bfbfbf" stroke="black" points="504.5,-448.5 504.5,-478.5 625.5,-478.5 625.5,-448.5 504.5,-448.5"/>
<text text-anchor="start" x="512.5" y="-466.5" font-family="Helvetica,sans-Serif" font-size="10.00">/home/pawel/antimicrox</text>
<text text-anchor="middle" x="565" y="-455.5" font-family="Helvetica,sans-Serif" font-size="10.00">/src/xmlconfigwriter.cpp</text>
</a>
</g>
</g>
<!-- Node2 -->
<g id="node2" class="node">
<title>Node2</title>
<g id="a_node2"><a xlink:href="$xmlconfigwriter_8h.html" xlink:title=" ">
<polygon fill="white" stroke="black" points="618.5,-336.5 618.5,-355.5 709.5,-355.5 709.5,-336.5 618.5,-336.5"/>
<text text-anchor="middle" x="664" y="-343.5" font-family="Helvetica,sans-Serif" font-size="10.00">xmlconfigwriter.h</text>
</a>
</g>
</g>
<!-- Node1&#45;&gt;Node2 -->
<g id="edge1" class="edge">
<title>Node1&#45;&gt;Node2</title>
<path fill="none" stroke="midnightblue" d="M570.4,-448.4C576.66,-433.31 588.05,-409.22 603,-392 613.52,-379.88 627.85,-369.1 639.98,-361.13"/>
<polygon fill="midnightblue" stroke="midnightblue" points="642.14,-363.9 648.73,-355.61 638.41,-357.99 642.14,-363.9"/>
</g>
<!-- Node4 -->
<g id="node4" class="node">
<title>Node4</title>
<g id="a_node4"><a xlink:href="$common_8h.html" xlink:title=" ">
<polygon fill="white" stroke="black" points="373,-280.5 373,-299.5 435,-299.5 435,-280.5 373,-280.5"/>
<text text-anchor="middle" x="404" y="-287.5" font-family="Helvetica,sans-Serif" font-size="10.00">common.h</text>
</a>
</g>
</g>
<!-- Node1&#45;&gt;Node4 -->
<g id="edge3" class="edge">
<title>Node1&#45;&gt;Node4</title>
<path fill="none" stroke="midnightblue" d="M509.28,-448.44C488.08,-440.69 465.16,-429.07 449,-412 421.48,-382.94 410.46,-335.54 406.31,-309.53"/>
<polygon fill="midnightblue" stroke="midnightblue" points="409.76,-308.93 404.88,-299.52 402.83,-309.91 409.76,-308.93"/>
</g>
<!-- Node9 -->
<g id="node9" class="node">
<title>Node9</title>
<g id="a_node9"><a xlink:title=" ">
<polygon fill="white" stroke="#bfbfbf" points="63,-56.5 63,-75.5 103,-75.5 103,-56.5 63,-56.5"/>
<text text-anchor="middle" x="83" y="-63.5" font-family="Helvetica,sans-Serif" font-size="10.00">QFile</text>
</a>
</g>
</g>
<!-- Node1&#45;&gt;Node9 -->
<g id="edge58" class="edge">
<title>Node1&#45;&gt;Node9</title>
<path fill="none" stroke="midnightblue" d="M504.27,-462.78C358.34,-461.81 0,-449.06 0,-347 0,-347 0,-347 0,-177 0,-135.91 37.36,-100.44 61.95,-81.55"/>
<polygon fill="midnightblue" stroke="midnightblue" points="64.07,-84.33 70.03,-75.57 59.91,-78.7 64.07,-84.33"/>
</g>
<!-- Node18 -->
<g id="node18" class="node">
<title>Node18</title>
<g id="a_node18"><a xlink:title=" ">
<polygon fill="white" stroke="#bfbfbf" points="540.5,-224.5 540.5,-243.5 577.5,-243.5 577.5,-224.5 540.5,-224.5"/>
<text text-anchor="middle" x="559" y="-231.5" font-family="Helvetica,sans-Serif" font-size="10.00">QDir</text>
</a>
</g>
</g>
<!-- Node1&#45;&gt;Node18 -->
<g id="edge57" class="edge">
<title>Node1&#45;&gt;Node18</title>
<path fill="none" stroke="midnightblue" d="M548.64,-448.27C528.45,-429.51 495.18,-394.35 482,-356 467.54,-313.93 510.77,-271.64 538.21,-249.94"/>
<polygon fill="midnightblue" stroke="midnightblue" points="540.64,-252.49 546.47,-243.64 536.39,-246.92 540.64,-252.49"/>
</g>
<!-- Node22 -->
<g id="node22" class="node">
<title>Node22</title>
<g id="a_node22"><a xlink:href="$inputdevice_8h.html" xlink:title=" ">
<polygon fill="white" stroke="black" points="612,-392.5 612,-411.5 686,-411.5 686,-392.5 612,-392.5"/>
<text text-anchor="middle" x="649" y="-399.5" font-family="Helvetica,sans-Serif" font-size="10.00">inputdevice.h</text>
</a>
</g>
</g>
<!-- Node1&#45;&gt;Node22 -->
<g id="edge24" class="edge">
<title>Node1&#45;&gt;Node22</title>
<path fill="none" stroke="midnightblue" d="M584.91,-448.4C597.99,-439.13 615.08,-427.03 628.32,-417.65"/>
<polygon fill="midnightblue" stroke="midnightblue" points="630.64,-420.29 636.78,-411.66 626.59,-414.58 630.64,-420.29"/>
</g>
<!-- Node44 -->
<g id="node44" class="node">
<title>Node44</title>
<g id="a_node44"><a xlink:href="$inputdevicexml_8h.html" xlink:title=" ">
<polygon fill="white" stroke="black" points="491.5,-336.5 491.5,-355.5 600.5,-355.5 600.5,-336.5 491.5,-336.5"/>
<text text-anchor="middle" x="546" y="-343.5" font-family="Helvetica,sans-Serif" font-size="10.00">xml/inputdevicexml.h</text>
</a>
</g>
</g>
<!-- Node1&#45;&gt;Node44 -->
<g id="edge54" class="edge">
<title>Node1&#45;&gt;Node44</title>
<path fill="none" stroke="midnightblue" d="M562.67,-448.34C559.25,-427.53 552.85,-388.66 549.06,-365.58"/>
<polygon fill="midnightblue" stroke="midnightblue" points="552.5,-364.97 547.43,-355.67 545.6,-366.1 552.5,-364.97"/>
</g>
<!-- Node45 -->
<g id="node45" class="node">
<title>Node45</title>
<g id="a_node45"><a xlink:title=" ">
<polygon fill="white" stroke="#bfbfbf" points="704.5,-392.5 704.5,-411.5 757.5,-411.5 757.5,-392.5 704.5,-392.5"/>
<text text-anchor="middle" x="731" y="-399.5" font-family="Helvetica,sans-Serif" font-size="10.00">QDebug</text>
</a>
</g>
</g>
<!-- Node1&#45;&gt;Node45 -->
<g id="edge56" class="edge">
<title>Node1&#45;&gt;Node45</title>
<path fill="none" stroke="midnightblue" d="M604.34,-448.4C632.56,-438.28 670.21,-424.79 697.1,-415.15"/>
<polygon fill="midnightblue" stroke="midnightblue" points="698.61,-418.33 706.85,-411.66 696.25,-411.74 698.61,-418.33"/>
</g>
<!-- Node46 -->
<g id="node46" class="node">
<title>Node46</title>
<g id="a_node46"><a xlink:title=" ">
<polygon fill="white" stroke="#bfbfbf" points="776,-392.5 776,-411.5 874,-411.5 874,-392.5 776,-392.5"/>
<text text-anchor="middle" x="825" y="-399.5" font-family="Helvetica,sans-Serif" font-size="10.00">QXmlStreamWriter</text>
</a>
</g>
</g>
<!-- Node1&#45;&gt;Node46 -->
<g id="edge59" class="edge">
<title>Node1&#45;&gt;Node46</title>
<path fill="none" stroke="midnightblue" d="M625.63,-448.62C672.03,-438.01 735.1,-423.57 777.78,-413.81"/>
<polygon fill="midnightblue" stroke="midnightblue" points="778.67,-417.19 787.64,-411.55 777.11,-410.37 778.67,-417.19"/>
</g>
<!-- Node3 -->
<g id="node3" class="node">
<title>Node3</title>
<g id="a_node3"><a xlink:title=" ">
<polygon fill="white" stroke="#bfbfbf" points="659.5,-0.5 659.5,-19.5 712.5,-19.5 712.5,-0.5 659.5,-0.5"/>
<text text-anchor="middle" x="686" y="-7.5" font-family="Helvetica,sans-Serif" font-size="10.00">QObject</text>
</a>
</g>
</g>
<!-- Node2&#45;&gt;Node3 -->
<g id="edge2" class="edge">
<title>Node2&#45;&gt;Node3</title>
<path fill="none" stroke="midnightblue" d="M661.84,-336.22C657.47,-317.66 648,-273.02 648,-235 648,-235 648,-235 648,-121 648,-86.81 664.6,-49.76 675.86,-28.57"/>
<polygon fill="midnightblue" stroke="midnightblue" points="678.95,-30.22 680.72,-19.77 672.82,-26.83 678.95,-30.22"/>
</g>
<!-- Node5 -->
<g id="node5" class="node">
<title>Node5</title>
<g id="a_node5"><a xlink:href="$antimicrosettings_8h.html" xlink:title=" ">
<polygon fill="white" stroke="black" points="277.5,-224.5 277.5,-243.5 376.5,-243.5 376.5,-224.5 277.5,-224.5"/>
<text text-anchor="middle" x="327" y="-231.5" font-family="Helvetica,sans-Serif" font-size="10.00">antimicrosettings.h</text>
</a>
</g>
</g>
<!-- Node4&#45;&gt;Node5 -->
<g id="edge4" class="edge">
<title>Node4&#45;&gt;Node5</title>
<path fill="none" stroke="midnightblue" d="M391.63,-280.32C379.84,-272.06 361.87,-259.45 347.86,-249.63"/>
<polygon fill="midnightblue" stroke="midnightblue" points="349.54,-246.53 339.34,-243.65 345.52,-252.26 349.54,-246.53"/>
</g>
<!-- Node12 -->
<g id="node12" class="node">
<title>Node12</title>
<g id="a_node12"><a xlink:title=" ">
<polygon fill="white" stroke="#bfbfbf" points="482,-56.5 482,-75.5 536,-75.5 536,-56.5 482,-56.5"/>
<text text-anchor="middle" x="509" y="-63.5" font-family="Helvetica,sans-Serif" font-size="10.00">QThread</text>
</a>
</g>
</g>
<!-- Node4&#45;&gt;Node12 -->
<g id="edge21" class="edge">
<title>Node4&#45;&gt;Node12</title>
<path fill="none" stroke="midnightblue" d="M417.36,-280.19C428.68,-272.06 444.53,-259.02 454,-244 486.63,-192.26 474.08,-170.17 493,-112 495.89,-103.12 499.33,-93.34 502.28,-85.17"/>
<polygon fill="midnightblue" stroke="midnightblue" points="505.65,-86.17 505.79,-75.58 499.07,-83.77 505.65,-86.17"/>
</g>
<!-- Node15 -->
<g id="node15" class="node">
<title>Node15</title>
<g id="a_node15"><a xlink:title=" ">
<polygon fill="white" stroke="#bfbfbf" points="394.5,-224.5 394.5,-243.5 445.5,-243.5 445.5,-224.5 394.5,-224.5"/>
<text text-anchor="middle" x="420" y="-231.5" font-family="Helvetica,sans-Serif" font-size="10.00">config.h</text>
</a>
</g>
</g>
<!-- Node4&#45;&gt;Node15 -->
<g id="edge15" class="edge">
<title>Node4&#45;&gt;Node15</title>
<path fill="none" stroke="midnightblue" d="M406.64,-280.08C408.79,-272.85 411.88,-262.41 414.55,-253.4"/>
<polygon fill="midnightblue" stroke="midnightblue" points="417.92,-254.33 417.41,-243.75 411.21,-252.34 417.92,-254.33"/>
</g>
<!-- Node16 -->
<g id="node16" class="node">
<title>Node16</title>
<g id="a_node16"><a xlink:href="$mousehelper_8h.html" xlink:title=" ">
<polygon fill="white" stroke="black" points="502,-112.5 502,-131.5 582,-131.5 582,-112.5 502,-112.5"/>
<text text-anchor="middle" x="542" y="-119.5" font-family="Helvetica,sans-Serif" font-size="10.00">mousehelper.h</text>
</a>
</g>
</g>
<!-- Node4&#45;&gt;Node16 -->
<g id="edge16" class="edge">
<title>Node4&#45;&gt;Node16</title>
<path fill="none" stroke="midnightblue" d="M429.62,-280.41C447.9,-273.16 472,-261.2 488,-244 515.85,-214.07 531.05,-167.39 537.75,-141.63"/>
<polygon fill="midnightblue" stroke="midnightblue" points="541.2,-142.24 540.18,-131.7 534.4,-140.58 541.2,-142.24"/>
</g>
<!-- Node4&#45;&gt;Node18 -->
<g id="edge19" class="edge">
<title>Node4&#45;&gt;Node18</title>
<path fill="none" stroke="midnightblue" d="M428.56,-280.44C456.36,-270.76 501.55,-255.01 530.78,-244.83"/>
<polygon fill="midnightblue" stroke="midnightblue" points="532.1,-248.08 540.39,-241.48 529.8,-241.47 532.1,-248.08"/>
</g>
<!-- Node19 -->
<g id="node19" class="node">
<title>Node19</title>
<g id="a_node19"><a xlink:title=" ">
<polygon fill="white" stroke="#bfbfbf" points="28.5,-224.5 28.5,-243.5 71.5,-243.5 71.5,-224.5 28.5,-224.5"/>
<text text-anchor="middle" x="50" y="-231.5" font-family="Helvetica,sans-Serif" font-size="10.00">QIcon</text>
</a>
</g>
</g>
<!-- Node4&#45;&gt;Node19 -->
<g id="edge20" class="edge">
<title>Node4&#45;&gt;Node19</title>
<path fill="none" stroke="midnightblue" d="M372.9,-286.28C316.49,-281.01 193.48,-267.94 81.31,-244.01"/>
<polygon fill="midnightblue" stroke="midnightblue" points="82.04,-240.59 71.53,-241.89 80.56,-247.43 82.04,-240.59"/>
</g>
<!-- Node20 -->
<g id="node20" class="node">
<title>Node20</title>
<g id="a_node20"><a xlink:title=" ">
<polygon fill="white" stroke="#bfbfbf" points="89.5,-224.5 89.5,-243.5 156.5,-243.5 156.5,-224.5 89.5,-224.5"/>
<text text-anchor="middle" x="123" y="-231.5" font-family="Helvetica,sans-Serif" font-size="10.00">QTranslator</text>
</a>
</g>
</g>
<!-- Node4&#45;&gt;Node20 -->
<g id="edge22" class="edge">
<title>Node4&#45;&gt;Node20</title>
<path fill="none" stroke="midnightblue" d="M372.63,-283.35C328.78,-275.4 246.42,-260.26 167.07,-244.38"/>
<polygon fill="midnightblue" stroke="midnightblue" points="167.4,-240.88 156.91,-242.34 166.03,-247.74 167.4,-240.88"/>
</g>
<!-- Node21 -->
<g id="node21" class="node">
<title>Node21</title>
<g id="a_node21"><a xlink:title=" ">
<polygon fill="white" stroke="#bfbfbf" points="174.5,-224.5 174.5,-243.5 259.5,-243.5 259.5,-224.5 174.5,-224.5"/>
<text text-anchor="middle" x="217" y="-231.5" font-family="Helvetica,sans-Serif" font-size="10.00">QWaitCondition</text>
</a>
</g>
</g>
<!-- Node4&#45;&gt;Node21 -->
<g id="edge23" class="edge">
<title>Node4&#45;&gt;Node21</title>
<path fill="none" stroke="midnightblue" d="M374.37,-280.44C342.5,-271.24 291.67,-256.56 256.44,-246.39"/>
<polygon fill="midnightblue" stroke="midnightblue" points="257.07,-242.93 246.49,-243.52 255.13,-249.65 257.07,-242.93"/>
</g>
<!-- Node6 -->
<g id="node6" class="node">
<title>Node6</title>
<g id="a_node6"><a xlink:href="$commandlineutility_8h.html" xlink:title=" ">
<polygon fill="white" stroke="black" points="291.5,-168.5 291.5,-187.5 396.5,-187.5 396.5,-168.5 291.5,-168.5"/>
<text text-anchor="middle" x="344" y="-175.5" font-family="Helvetica,sans-Serif" font-size="10.00">commandlineutility.h</text>
</a>
</g>
</g>
<!-- Node5&#45;&gt;Node6 -->
<g id="edge5" class="edge">
<title>Node5&#45;&gt;Node6</title>
<path fill="none" stroke="midnightblue" d="M329.81,-224.08C332.08,-216.85 335.37,-206.41 338.21,-197.4"/>
<polygon fill="midnightblue" stroke="midnightblue" points="341.58,-198.34 341.25,-187.75 334.9,-196.24 341.58,-198.34"/>
</g>
<!-- Node14 -->
<g id="node14" class="node">
<title>Node14</title>
<g id="a_node14"><a xlink:title=" ">
<polygon fill="white" stroke="#bfbfbf" points="213,-168.5 213,-187.5 273,-187.5 273,-168.5 213,-168.5"/>
<text text-anchor="middle" x="243" y="-175.5" font-family="Helvetica,sans-Serif" font-size="10.00">QSettings</text>
</a>
</g>
</g>
<!-- Node5&#45;&gt;Node14 -->
<g id="edge14" class="edge">
<title>Node5&#45;&gt;Node14</title>
<path fill="none" stroke="midnightblue" d="M313.5,-224.32C300.4,-215.9 280.29,-202.97 264.89,-193.07"/>
<polygon fill="midnightblue" stroke="midnightblue" points="266.77,-190.12 256.46,-187.65 262.98,-196.01 266.77,-190.12"/>
</g>
<!-- Node7 -->
<g id="node7" class="node">
<title>Node7</title>
<g id="a_node7"><a xlink:title=" ">
<polygon fill="white" stroke="#bfbfbf" points="245,-112.5 245,-131.5 317,-131.5 317,-112.5 245,-112.5"/>
<text text-anchor="middle" x="281" y="-119.5" font-family="Helvetica,sans-Serif" font-size="10.00">QApplication</text>
</a>
</g>
</g>
<!-- Node6&#45;&gt;Node7 -->
<g id="edge6" class="edge">
<title>Node6&#45;&gt;Node7</title>
<path fill="none" stroke="midnightblue" d="M333.88,-168.32C324.47,-160.26 310.26,-148.08 298.93,-138.37"/>
<polygon fill="midnightblue" stroke="midnightblue" points="301.18,-135.68 291.31,-131.83 296.62,-141 301.18,-135.68"/>
</g>
<!-- Node8 -->
<g id="node8" class="node">
<title>Node8</title>
<g id="a_node8"><a xlink:href="$logger_8h.html" xlink:title=" ">
<polygon fill="white" stroke="black" points="335.5,-112.5 335.5,-131.5 386.5,-131.5 386.5,-112.5 335.5,-112.5"/>
<text text-anchor="middle" x="361" y="-119.5" font-family="Helvetica,sans-Serif" font-size="10.00">logger.h</text>
</a>
</g>
</g>
<!-- Node6&#45;&gt;Node8 -->
<g id="edge7" class="edge">
<title>Node6&#45;&gt;Node8</title>
<path fill="none" stroke="midnightblue" d="M346.81,-168.08C349.08,-160.85 352.37,-150.41 355.21,-141.4"/>
<polygon fill="midnightblue" stroke="midnightblue" points="358.58,-142.34 358.25,-131.75 351.9,-140.24 358.58,-142.34"/>
</g>
<!-- Node8&#45;&gt;Node3 -->
<g id="edge10" class="edge">
<title>Node8&#45;&gt;Node3</title>
<path fill="none" stroke="midnightblue" d="M374.72,-112.3C399.93,-96.43 452.85,-63.74 473,-56 532.48,-33.13 606,-20.87 649.27,-15.16"/>
<polygon fill="midnightblue" stroke="midnightblue" points="649.85,-18.61 659.33,-13.88 648.97,-11.67 649.85,-18.61"/>
</g>
<!-- Node8&#45;&gt;Node9 -->
<g id="edge8" class="edge">
<title>Node8&#45;&gt;Node9</title>
<path fill="none" stroke="midnightblue" d="M335.43,-114.21C332.26,-113.43 329.06,-112.68 326,-112 249.82,-95.17 159.26,-79.55 113.19,-71.91"/>
<polygon fill="midnightblue" stroke="midnightblue" points="113.69,-68.44 103.26,-70.27 112.55,-75.35 113.69,-68.44"/>
</g>
<!-- Node10 -->
<g id="node10" class="node">
<title>Node10</title>
<g id="a_node10"><a xlink:title=" ">
<polygon fill="white" stroke="#bfbfbf" points="374.5,-56.5 374.5,-75.5 425.5,-75.5 425.5,-56.5 374.5,-56.5"/>
<text text-anchor="middle" x="400" y="-63.5" font-family="Helvetica,sans-Serif" font-size="10.00">QMutex</text>
</a>
</g>
</g>
<!-- Node8&#45;&gt;Node10 -->
<g id="edge9" class="edge">
<title>Node8&#45;&gt;Node10</title>
<path fill="none" stroke="midnightblue" d="M367.44,-112.08C372.95,-104.46 381.03,-93.26 387.76,-83.94"/>
<polygon fill="midnightblue" stroke="midnightblue" points="390.66,-85.91 393.68,-75.75 384.99,-81.81 390.66,-85.91"/>
</g>
<!-- Node11 -->
<g id="node11" class="node">
<title>Node11</title>
<g id="a_node11"><a xlink:title=" ">
<polygon fill="white" stroke="#bfbfbf" points="212,-56.5 212,-75.5 286,-75.5 286,-56.5 212,-56.5"/>
<text text-anchor="middle" x="249" y="-63.5" font-family="Helvetica,sans-Serif" font-size="10.00">QTextStream</text>
</a>
</g>
</g>
<!-- Node8&#45;&gt;Node11 -->
<g id="edge11" class="edge">
<title>Node8&#45;&gt;Node11</title>
<path fill="none" stroke="midnightblue" d="M343.01,-112.32C324.96,-103.62 296.95,-90.12 276.2,-80.11"/>
<polygon fill="midnightblue" stroke="midnightblue" points="277.48,-76.84 266.95,-75.65 274.44,-83.15 277.48,-76.84"/>
</g>
<!-- Node8&#45;&gt;Node12 -->
<g id="edge12" class="edge">
<title>Node8&#45;&gt;Node12</title>
<path fill="none" stroke="midnightblue" d="M384.45,-112.44C409.13,-103.44 448.19,-89.19 475.98,-79.05"/>
<polygon fill="midnightblue" stroke="midnightblue" points="477.46,-82.23 485.66,-75.52 475.06,-75.66 477.46,-82.23"/>
</g>
<!-- Node13 -->
<g id="node13" class="node">
<title>Node13</title>
<g id="a_node13"><a xlink:title=" ">
<polygon fill="white" stroke="#bfbfbf" points="304,-56.5 304,-75.5 356,-75.5 356,-56.5 304,-56.5"/>
<text text-anchor="middle" x="330" y="-63.5" font-family="Helvetica,sans-Serif" font-size="10.00">sstream</text>
</a>
</g>
</g>
<!-- Node8&#45;&gt;Node13 -->
<g id="edge13" class="edge">
<title>Node8&#45;&gt;Node13</title>
<path fill="none" stroke="midnightblue" d="M355.88,-112.08C351.59,-104.61 345.34,-93.72 340.06,-84.52"/>
<polygon fill="midnightblue" stroke="midnightblue" points="343.04,-82.68 335.02,-75.75 336.97,-86.17 343.04,-82.68"/>
</g>
<!-- Node16&#45;&gt;Node3 -->
<g id="edge17" class="edge">
<title>Node16&#45;&gt;Node3</title>
<path fill="none" stroke="midnightblue" d="M547.39,-112.45C556.21,-99.02 574.85,-72.78 596,-56 613.21,-42.35 635.22,-31.26 653.17,-23.5"/>
<polygon fill="midnightblue" stroke="midnightblue" points="654.78,-26.62 662.66,-19.53 652.09,-20.16 654.78,-26.62"/>
</g>
<!-- Node17 -->
<g id="node17" class="node">
<title>Node17</title>
<g id="a_node17"><a xlink:title=" ">
<polygon fill="white" stroke="#bfbfbf" points="752.5,-56.5 752.5,-75.5 801.5,-75.5 801.5,-56.5 752.5,-56.5"/>
<text text-anchor="middle" x="777" y="-63.5" font-family="Helvetica,sans-Serif" font-size="10.00">QTimer</text>
</a>
</g>
</g>
<!-- Node16&#45;&gt;Node17 -->
<g id="edge18" class="edge">
<title>Node16&#45;&gt;Node17</title>
<path fill="none" stroke="midnightblue" d="M579.24,-112.44C624.05,-102.15 698.69,-84.99 742.33,-74.97"/>
<polygon fill="midnightblue" stroke="midnightblue" points="743.23,-78.35 752.19,-72.7 741.66,-71.53 743.23,-78.35"/>
</g>
<!-- Node23 -->
<g id="node23" class="node">
<title>Node23</title>
<g id="a_node23"><a xlink:href="$setjoystick_8h.html" xlink:title=" ">
<polygon fill="white" stroke="black" points="727.5,-336.5 727.5,-355.5 798.5,-355.5 798.5,-336.5 727.5,-336.5"/>
<text text-anchor="middle" x="763" y="-343.5" font-family="Helvetica,sans-Serif" font-size="10.00">setjoystick.h</text>
</a>
</g>
</g>
<!-- Node22&#45;&gt;Node23 -->
<g id="edge25" class="edge">
<title>Node22&#45;&gt;Node23</title>
<path fill="none" stroke="midnightblue" d="M667.06,-392.44C685.57,-383.68 714.58,-369.94 735.86,-359.86"/>
<polygon fill="midnightblue" stroke="midnightblue" points="737.48,-362.96 745.02,-355.52 734.49,-356.63 737.48,-362.96"/>
</g>
<!-- Node43 -->
<g id="node43" class="node">
<title>Node43</title>
<g id="a_node43"><a xlink:title=" ">
<polygon fill="white" stroke="#bfbfbf" points="817,-336.5 817,-355.5 927,-355.5 927,-336.5 817,-336.5"/>
<text text-anchor="middle" x="872" y="-343.5" font-family="Helvetica,sans-Serif" font-size="10.00">SDL2/SDL_joystick.h</text>
</a>
</g>
</g>
<!-- Node22&#45;&gt;Node43 -->
<g id="edge53" class="edge">
<title>Node22&#45;&gt;Node43</title>
<path fill="none" stroke="midnightblue" d="M684.34,-392.44C722.91,-383.1 784.78,-368.12 826.85,-357.93"/>
<polygon fill="midnightblue" stroke="midnightblue" points="827.93,-361.27 836.83,-355.52 826.29,-354.47 827.93,-361.27"/>
</g>
<!-- Node24 -->
<g id="node24" class="node">
<title>Node24</title>
<g id="a_node24"><a xlink:href="$joyaxis_8h.html" xlink:title=" ">
<polygon fill="white" stroke="black" points="874,-280.5 874,-299.5 930,-299.5 930,-280.5 874,-280.5"/>
<text text-anchor="middle" x="902" y="-287.5" font-family="Helvetica,sans-Serif" font-size="10.00">joyaxis.h</text>
</a>
</g>
</g>
<!-- Node23&#45;&gt;Node24 -->
<g id="edge26" class="edge">
<title>Node23&#45;&gt;Node24</title>
<path fill="none" stroke="midnightblue" d="M785.02,-336.44C808.1,-327.48 844.56,-313.31 870.64,-303.18"/>
<polygon fill="midnightblue" stroke="midnightblue" points="872.02,-306.4 880.08,-299.52 869.49,-299.88 872.02,-306.4"/>
</g>
<!-- Node42 -->
<g id="node42" class="node">
<title>Node42</title>
<g id="a_node42"><a xlink:href="$setjoystickxml_8h.html" xlink:title=" ">
<polygon fill="white" stroke="black" points="701,-280.5 701,-299.5 807,-299.5 807,-280.5 701,-280.5"/>
<text text-anchor="middle" x="754" y="-287.5" font-family="Helvetica,sans-Serif" font-size="10.00">xml/setjoystickxml.h</text>
</a>
</g>
</g>
<!-- Node23&#45;&gt;Node42 -->
<g id="edge51" class="edge">
<title>Node23&#45;&gt;Node42</title>
<path fill="none" stroke="midnightblue" d="M761.51,-336.08C760.32,-328.93 758.61,-318.64 757.12,-309.69"/>
<polygon fill="midnightblue" stroke="midnightblue" points="760.55,-309.04 755.46,-299.75 753.65,-310.19 760.55,-309.04"/>
</g>
<!-- Node24&#45;&gt;Node3 -->
<g id="edge28" class="edge">
<title>Node24&#45;&gt;Node3</title>
<path fill="none" stroke="midnightblue" d="M873.8,-284.82C823.6,-275.61 724,-248.57 724,-179 724,-179 724,-179 724,-121 724,-86.81 707.4,-49.76 696.14,-28.57"/>
<polygon fill="midnightblue" stroke="midnightblue" points="699.18,-26.83 691.28,-19.77 693.05,-30.22 699.18,-26.83"/>
</g>
<!-- Node25 -->
<g id="node25" class="node">
<title>Node25</title>
<g id="a_node25"><a xlink:title=" ">
<polygon fill="white" stroke="#bfbfbf" points="1302,-0.5 1302,-19.5 1342,-19.5 1342,-0.5 1302,-0.5"/>
<text text-anchor="middle" x="1322" y="-7.5" font-family="Helvetica,sans-Serif" font-size="10.00">QList</text>
</a>
</g>
</g>
<!-- Node24&#45;&gt;Node25 -->
<g id="edge27" class="edge">
<title>Node24&#45;&gt;Node25</title>
<path fill="none" stroke="midnightblue" d="M930.27,-287.45C1058.59,-280.07 1580,-245.93 1580,-179 1580,-179 1580,-179 1580,-121 1580,-90.9 1583.3,-76.21 1561,-56 1553.27,-49 1415.12,-26 1352.46,-15.87"/>
<polygon fill="midnightblue" stroke="midnightblue" points="1352.81,-12.38 1342.38,-14.24 1351.7,-19.29 1352.81,-12.38"/>
</g>
<!-- Node26 -->
<g id="node26" class="node">
<title>Node26</title>
<g id="a_node26"><a xlink:href="$joyaxisbutton_8h.html" xlink:title=" ">
<polygon fill="white" stroke="black" points="845.5,-224.5 845.5,-243.5 994.5,-243.5 994.5,-224.5 845.5,-224.5"/>
<text text-anchor="middle" x="920" y="-231.5" font-family="Helvetica,sans-Serif" font-size="10.00">joybuttontypes/joyaxisbutton.h</text>
</a>
</g>
</g>
<!-- Node24&#45;&gt;Node26 -->
<g id="edge29" class="edge">
<title>Node24&#45;&gt;Node26</title>
<path fill="none" stroke="midnightblue" d="M904.97,-280.08C907.38,-272.85 910.86,-262.41 913.87,-253.4"/>
<polygon fill="midnightblue" stroke="midnightblue" points="917.24,-254.34 917.08,-243.75 910.6,-252.13 917.24,-254.34"/>
</g>
<!-- Node27 -->
<g id="node27" class="node">
<title>Node27</title>
<g id="a_node27"><a xlink:href="$joygradientbutton_8h.html" xlink:title=" ">
<polygon fill="white" stroke="black" points="861.5,-168.5 861.5,-187.5 1026.5,-187.5 1026.5,-168.5 861.5,-168.5"/>
<text text-anchor="middle" x="944" y="-175.5" font-family="Helvetica,sans-Serif" font-size="10.00">joybuttontypes/joygradientbutton.h</text>
</a>
</g>
</g>
<!-- Node26&#45;&gt;Node27 -->
<g id="edge30" class="edge">
<title>Node26&#45;&gt;Node27</title>
<path fill="none" stroke="midnightblue" d="M923.96,-224.08C927.21,-216.77 931.92,-206.18 935.95,-197.1"/>
<polygon fill="midnightblue" stroke="midnightblue" points="939.25,-198.31 940.11,-187.75 932.85,-195.47 939.25,-198.31"/>
</g>
<!-- Node28 -->
<g id="node28" class="node">
<title>Node28</title>
<g id="a_node28"><a xlink:href="$joybutton_8h.html" xlink:title=" ">
<polygon fill="white" stroke="black" points="1008.5,-112.5 1008.5,-131.5 1073.5,-131.5 1073.5,-112.5 1008.5,-112.5"/>
<text text-anchor="middle" x="1041" y="-119.5" font-family="Helvetica,sans-Serif" font-size="10.00">joybutton.h</text>
</a>
</g>
</g>
<!-- Node27&#45;&gt;Node28 -->
<g id="edge31" class="edge">
<title>Node27&#45;&gt;Node28</title>
<path fill="none" stroke="midnightblue" d="M959.58,-168.32C975,-159.74 998.81,-146.49 1016.71,-136.52"/>
<polygon fill="midnightblue" stroke="midnightblue" points="1018.42,-139.58 1025.45,-131.65 1015.01,-133.46 1018.42,-139.58"/>
</g>
<!-- Node28&#45;&gt;Node12 -->
<g id="edge49" class="edge">
<title>Node28&#45;&gt;Node12</title>
<path fill="none" stroke="midnightblue" d="M1008.12,-117.66C914.24,-108.13 645.36,-80.84 546.26,-70.78"/>
<polygon fill="midnightblue" stroke="midnightblue" points="546.42,-67.28 536.12,-69.75 545.72,-74.25 546.42,-67.28"/>
</g>
<!-- Node28&#45;&gt;Node17 -->
<g id="edge50" class="edge">
<title>Node28&#45;&gt;Node17</title>
<path fill="none" stroke="midnightblue" d="M1008.48,-115.33C965.63,-107.71 887.72,-93.33 811.59,-76.01"/>
<polygon fill="midnightblue" stroke="midnightblue" points="812.37,-72.6 801.84,-73.78 810.8,-79.42 812.37,-72.6"/>
</g>
<!-- Node29 -->
<g id="node29" class="node">
<title>Node29</title>
<g id="a_node29"><a xlink:href="$globalvariables_8h.html" xlink:title=" ">
<polygon fill="white" stroke="black" points="1242.5,-56.5 1242.5,-75.5 1331.5,-75.5 1331.5,-56.5 1242.5,-56.5"/>
<text text-anchor="middle" x="1287" y="-63.5" font-family="Helvetica,sans-Serif" font-size="10.00">globalvariables.h</text>
</a>
</g>
</g>
<!-- Node28&#45;&gt;Node29 -->
<g id="edge32" class="edge">
<title>Node28&#45;&gt;Node29</title>
<path fill="none" stroke="midnightblue" d="M1073.67,-113.83C1115.76,-104.59 1189.32,-88.44 1238.1,-77.73"/>
<polygon fill="midnightblue" stroke="midnightblue" points="1239.09,-81.1 1248.11,-75.54 1237.59,-74.26 1239.09,-81.1"/>
</g>
<!-- Node30 -->
<g id="node30" class="node">
<title>Node30</title>
<g id="a_node30"><a xlink:href="$joybuttonmousehelper_8h.html" xlink:title=" ">
<polygon fill="white" stroke="black" points="1104,-56.5 1104,-75.5 1224,-75.5 1224,-56.5 1104,-56.5"/>
<text text-anchor="middle" x="1164" y="-63.5" font-family="Helvetica,sans-Serif" font-size="10.00">joybuttonmousehelper.h</text>
</a>
</g>
</g>
<!-- Node28&#45;&gt;Node30 -->
<g id="edge35" class="edge">
<title>Node28&#45;&gt;Node30</title>
<path fill="none" stroke="midnightblue" d="M1060.49,-112.44C1080.64,-103.6 1112.32,-89.69 1135.33,-79.59"/>
<polygon fill="midnightblue" stroke="midnightblue" points="1136.85,-82.74 1144.6,-75.52 1134.04,-76.33 1136.85,-82.74"/>
</g>
<!-- Node31 -->
<g id="node31" class="node">
<title>Node31</title>
<g id="a_node31"><a xlink:href="$joybuttonslot_8h.html" xlink:title=" ">
<polygon fill="white" stroke="black" points="1608,-56.5 1608,-75.5 1688,-75.5 1688,-56.5 1608,-56.5"/>
<text text-anchor="middle" x="1648" y="-63.5" font-family="Helvetica,sans-Serif" font-size="10.00">joybuttonslot.h</text>
</a>
</g>
</g>
<!-- Node28&#45;&gt;Node31 -->
<g id="edge37" class="edge">
<title>Node28&#45;&gt;Node31</title>
<path fill="none" stroke="midnightblue" d="M1073.57,-118.37C1155.49,-111.72 1376.75,-93.5 1561,-76 1572.81,-74.88 1585.51,-73.6 1597.46,-72.37"/>
<polygon fill="midnightblue" stroke="midnightblue" points="1598.15,-75.82 1607.73,-71.31 1597.42,-68.86 1598.15,-75.82"/>
</g>
<!-- Node37 -->
<g id="node37" class="node">
<title>Node37</title>
<g id="a_node37"><a xlink:href="$springmousemoveinfo_8h.html" xlink:title=" ">
<polygon fill="white" stroke="black" points="1432.5,-56.5 1432.5,-75.5 1551.5,-75.5 1551.5,-56.5 1432.5,-56.5"/>
<text text-anchor="middle" x="1492" y="-63.5" font-family="Helvetica,sans-Serif" font-size="10.00">springmousemoveinfo.h</text>
</a>
</g>
</g>
<!-- Node28&#45;&gt;Node37 -->
<g id="edge44" class="edge">
<title>Node28&#45;&gt;Node37</title>
<path fill="none" stroke="midnightblue" d="M1073.55,-117.34C1138.03,-110.05 1286.79,-93.06 1422.17,-76.22"/>
<polygon fill="midnightblue" stroke="midnightblue" points="1422.81,-79.66 1432.3,-74.95 1421.95,-72.72 1422.81,-79.66"/>
</g>
<!-- Node38 -->
<g id="node38" class="node">
<title>Node38</title>
<g id="a_node38"><a xlink:title=" ">
<polygon fill="white" stroke="#bfbfbf" points="819.5,-56.5 819.5,-75.5 906.5,-75.5 906.5,-56.5 819.5,-56.5"/>
<text text-anchor="middle" x="863" y="-63.5" font-family="Helvetica,sans-Serif" font-size="10.00">QDeadlineTimer</text>
</a>
</g>
</g>
<!-- Node28&#45;&gt;Node38 -->
<g id="edge45" class="edge">
<title>Node28&#45;&gt;Node38</title>
<path fill="none" stroke="midnightblue" d="M1012.8,-112.44C982.59,-103.28 934.49,-88.69 900.97,-78.52"/>
<polygon fill="midnightblue" stroke="midnightblue" points="901.66,-75.07 891.07,-75.52 899.63,-81.77 901.66,-75.07"/>
</g>
<!-- Node39 -->
<g id="node39" class="node">
<title>Node39</title>
<g id="a_node39"><a xlink:title=" ">
<polygon fill="white" stroke="#bfbfbf" points="924.5,-56.5 924.5,-75.5 977.5,-75.5 977.5,-56.5 924.5,-56.5"/>
<text text-anchor="middle" x="951" y="-63.5" font-family="Helvetica,sans-Serif" font-size="10.00">QQueue</text>
</a>
</g>
</g>
<!-- Node28&#45;&gt;Node39 -->
<g id="edge46" class="edge">
<title>Node28&#45;&gt;Node39</title>
<path fill="none" stroke="midnightblue" d="M1026.54,-112.32C1012.5,-103.9 990.95,-90.97 974.46,-81.07"/>
<polygon fill="midnightblue" stroke="midnightblue" points="975.8,-77.8 965.42,-75.65 972.2,-83.8 975.8,-77.8"/>
</g>
<!-- Node40 -->
<g id="node40" class="node">
<title>Node40</title>
<g id="a_node40"><a xlink:title=" ">
<polygon fill="white" stroke="#bfbfbf" points="996,-56.5 996,-75.5 1086,-75.5 1086,-56.5 996,-56.5"/>
<text text-anchor="middle" x="1041" y="-63.5" font-family="Helvetica,sans-Serif" font-size="10.00">QReadWriteLock</text>
</a>
</g>
</g>
<!-- Node28&#45;&gt;Node40 -->
<g id="edge47" class="edge">
<title>Node28&#45;&gt;Node40</title>
<path fill="none" stroke="midnightblue" d="M1041,-112.08C1041,-105.01 1041,-94.86 1041,-85.99"/>
<polygon fill="midnightblue" stroke="midnightblue" points="1044.5,-85.75 1041,-75.75 1037.5,-85.75 1044.5,-85.75"/>
</g>
<!-- Node41 -->
<g id="node41" class="node">
<title>Node41</title>
<g id="a_node41"><a xlink:title=" ">
<polygon fill="white" stroke="#bfbfbf" points="1349.5,-56.5 1349.5,-75.5 1414.5,-75.5 1414.5,-56.5 1349.5,-56.5"/>
<text text-anchor="middle" x="1382" y="-63.5" font-family="Helvetica,sans-Serif" font-size="10.00">QRunnable</text>
</a>
</g>
</g>
<!-- Node28&#45;&gt;Node41 -->
<g id="edge48" class="edge">
<title>Node28&#45;&gt;Node41</title>
<path fill="none" stroke="midnightblue" d="M1073.53,-116.85C1126.99,-109.87 1236.99,-94.85 1339.47,-76.19"/>
<polygon fill="midnightblue" stroke="midnightblue" points="1340.16,-79.62 1349.37,-74.37 1338.9,-72.74 1340.16,-79.62"/>
</g>
<!-- Node29&#45;&gt;Node3 -->
<g id="edge34" class="edge">
<title>Node29&#45;&gt;Node3</title>
<path fill="none" stroke="midnightblue" d="M1242.25,-57.25C1239.13,-56.8 1236.02,-56.38 1233,-56 1041.5,-32.21 810.67,-17.9 722.57,-12.96"/>
<polygon fill="midnightblue" stroke="midnightblue" points="722.73,-9.46 712.55,-12.4 722.34,-16.45 722.73,-9.46"/>
</g>
<!-- Node29&#45;&gt;Node25 -->
<g id="edge33" class="edge">
<title>Node29&#45;&gt;Node25</title>
<path fill="none" stroke="midnightblue" d="M1292.78,-56.08C1297.67,-48.53 1304.83,-37.49 1310.83,-28.23"/>
<polygon fill="midnightblue" stroke="midnightblue" points="1313.83,-30.05 1316.33,-19.75 1307.95,-26.24 1313.83,-30.05"/>
</g>
<!-- Node30&#45;&gt;Node3 -->
<g id="edge36" class="edge">
<title>Node30&#45;&gt;Node3</title>
<path fill="none" stroke="midnightblue" d="M1103.8,-57.08C1100.82,-56.71 1097.88,-56.35 1095,-56 958.05,-39.54 795.01,-22.31 723.15,-14.83"/>
<polygon fill="midnightblue" stroke="midnightblue" points="723.13,-11.31 712.82,-13.76 722.4,-18.28 723.13,-11.31"/>
</g>
<!-- Node31&#45;&gt;Node3 -->
<g id="edge39" class="edge">
<title>Node31&#45;&gt;Node3</title>
<path fill="none" stroke="midnightblue" d="M1607.76,-60.4C1593.06,-58.83 1576.29,-57.18 1561,-56 1236.39,-30.88 842.92,-16.31 722.65,-12.21"/>
<polygon fill="midnightblue" stroke="midnightblue" points="722.63,-8.7 712.52,-11.86 722.4,-15.7 722.63,-8.7"/>
</g>
<!-- Node32 -->
<g id="node32" class="node">
<title>Node32</title>
<g id="a_node32"><a xlink:title=" ">
<polygon fill="white" stroke="#bfbfbf" points="1606,-0.5 1606,-19.5 1690,-19.5 1690,-0.5 1606,-0.5"/>
<text text-anchor="middle" x="1648" y="-7.5" font-family="Helvetica,sans-Serif" font-size="10.00">QElapsedTimer</text>
</a>
</g>
</g>
<!-- Node31&#45;&gt;Node32 -->
<g id="edge38" class="edge">
<title>Node31&#45;&gt;Node32</title>
<path fill="none" stroke="midnightblue" d="M1648,-56.08C1648,-49.01 1648,-38.86 1648,-29.99"/>
<polygon fill="midnightblue" stroke="midnightblue" points="1651.5,-29.75 1648,-19.75 1644.5,-29.75 1651.5,-29.75"/>
</g>
<!-- Node33 -->
<g id="node33" class="node">
<title>Node33</title>
<g id="a_node33"><a xlink:title=" ">
<polygon fill="white" stroke="#bfbfbf" points="1708.5,-0.5 1708.5,-19.5 1763.5,-19.5 1763.5,-0.5 1708.5,-0.5"/>
<text text-anchor="middle" x="1736" y="-7.5" font-family="Helvetica,sans-Serif" font-size="10.00">QPointer</text>
</a>
</g>
</g>
<!-- Node31&#45;&gt;Node33 -->
<g id="edge40" class="edge">
<title>Node31&#45;&gt;Node33</title>
<path fill="none" stroke="midnightblue" d="M1662.14,-56.32C1675.87,-47.9 1696.94,-34.97 1713.06,-25.07"/>
<polygon fill="midnightblue" stroke="midnightblue" points="1715.2,-27.87 1721.9,-19.65 1711.54,-21.9 1715.2,-27.87"/>
</g>
<!-- Node34 -->
<g id="node34" class="node">
<title>Node34</title>
<g id="a_node34"><a xlink:title=" ">
<polygon fill="white" stroke="#bfbfbf" points="1782,-0.5 1782,-19.5 1828,-19.5 1828,-0.5 1782,-0.5"/>
<text text-anchor="middle" x="1805" y="-7.5" font-family="Helvetica,sans-Serif" font-size="10.00">QTime</text>
</a>
</g>
</g>
<!-- Node31&#45;&gt;Node34 -->
<g id="edge41" class="edge">
<title>Node31&#45;&gt;Node34</title>
<path fill="none" stroke="midnightblue" d="M1672.88,-56.44C1699.76,-47.2 1742.7,-32.43 1772.29,-22.25"/>
<polygon fill="midnightblue" stroke="midnightblue" points="1773.46,-25.55 1781.77,-18.99 1771.18,-18.93 1773.46,-25.55"/>
</g>
<!-- Node35 -->
<g id="node35" class="node">
<title>Node35</title>
<g id="a_node35"><a xlink:title=" ">
<polygon fill="white" stroke="#bfbfbf" points="1394,-0.5 1394,-19.5 1448,-19.5 1448,-0.5 1394,-0.5"/>
<text text-anchor="middle" x="1421" y="-7.5" font-family="Helvetica,sans-Serif" font-size="10.00">QVariant</text>
</a>
</g>
</g>
<!-- Node31&#45;&gt;Node35 -->
<g id="edge42" class="edge">
<title>Node31&#45;&gt;Node35</title>
<path fill="none" stroke="midnightblue" d="M1610.99,-56.44C1574.52,-47.96 1516.94,-34.5 1457.97,-20.21"/>
<polygon fill="midnightblue" stroke="midnightblue" points="1458.66,-16.78 1448.12,-17.82 1457.01,-23.58 1458.66,-16.78"/>
</g>
<!-- Node36 -->
<g id="node36" class="node">
<title>Node36</title>
<g id="a_node36"><a xlink:title=" ">
<polygon fill="white" stroke="#bfbfbf" points="1466,-0.5 1466,-19.5 1588,-19.5 1588,-0.5 1466,-0.5"/>
<text text-anchor="middle" x="1527" y="-7.5" font-family="Helvetica,sans-Serif" font-size="10.00">QtWidgets/QApplication</text>
</a>
</g>
</g>
<!-- Node31&#45;&gt;Node36 -->
<g id="edge43" class="edge">
<title>Node31&#45;&gt;Node36</title>
<path fill="none" stroke="midnightblue" d="M1628.83,-56.44C1609.09,-47.64 1578.11,-33.81 1555.51,-23.72"/>
<polygon fill="midnightblue" stroke="midnightblue" points="1556.64,-20.4 1546.08,-19.52 1553.79,-26.79 1556.64,-20.4"/>
</g>
<!-- Node42&#45;&gt;Node3 -->
<g id="edge52" class="edge">
<title>Node42&#45;&gt;Node3</title>
<path fill="none" stroke="midnightblue" d="M743.27,-280.36C733.46,-271.96 719.11,-258.41 710,-244 693.54,-217.97 686,-209.8 686,-179 686,-179 686,-179 686,-121 686,-88.95 686,-51.64 686,-29.75"/>
<polygon fill="midnightblue" stroke="midnightblue" points="689.5,-29.56 686,-19.56 682.5,-29.56 689.5,-29.56"/>
</g>
<!-- Node44&#45;&gt;Node3 -->
<g id="edge55" class="edge">
<title>Node44&#45;&gt;Node3</title>
<path fill="none" stroke="midnightblue" d="M555.44,-336.31C573.25,-318.93 610,-277.86 610,-235 610,-235 610,-235 610,-121 610,-81.28 643.96,-45.5 666.48,-26.15"/>
<polygon fill="midnightblue" stroke="midnightblue" points="668.98,-28.63 674.46,-19.57 664.52,-23.24 668.98,-28.63"/>
</g>
</g>
</svg>
